<?xml version="1.0" encoding="UTF-8" standalone="no"?>
<!-- Created with Inkscape (http://www.inkscape.org/) -->

<svg
   xmlns:dc="http://purl.org/dc/elements/1.1/"
   xmlns:cc="http://creativecommons.org/ns#"
   xmlns:rdf="http://www.w3.org/1999/02/22-rdf-syntax-ns#"
   xmlns:svg="http://www.w3.org/2000/svg"
   xmlns="http://www.w3.org/2000/svg"
   xmlns:sodipodi="http://sodipodi.sourceforge.net/DTD/sodipodi-0.dtd"
   xmlns:inkscape="http://www.inkscape.org/namespaces/inkscape"
   width="256"
   height="256"
   id="svg3003"
   version="1.1"
   inkscape:version="0.48.5 r10040"
   sodipodi:docname="deadTree2.svg"
   inkscape:export-filename="C:\Users\narfman0\Desktop\deadTree2.png"
   inkscape:export-xdpi="90"
   inkscape:export-ydpi="90">
  <defs
     id="defs3005" />
  <sodipodi:namedview
     id="base"
     pagecolor="#ffffff"
     bordercolor="#666666"
     borderopacity="1.0"
     inkscape:pageopacity="0.0"
     inkscape:pageshadow="2"
     inkscape:zoom="2.6464737"
     inkscape:cx="96.193254"
     inkscape:cy="129.94485"
     inkscape:document-units="px"
     inkscape:current-layer="layer1"
     showgrid="false"
     inkscape:window-width="1488"
     inkscape:window-height="986"
     inkscape:window-x="174"
     inkscape:window-y="13"
     inkscape:window-maximized="0" />
  <metadata
     id="metadata3008">
    <rdf:RDF>
      <cc:Work
         rdf:about="">
        <dc:format>image/svg+xml</dc:format>
        <dc:type
           rdf:resource="http://purl.org/dc/dcmitype/StillImage" />
        <dc:title></dc:title>
      </cc:Work>
    </rdf:RDF>
  </metadata>
  <g
     inkscape:label="Layer 1"
     inkscape:groupmode="layer"
     id="layer1"
     transform="translate(0,-796.36218)">
    <path
       style="fill:#4d4d4d;fill-opacity:1;stroke:none"
       id="path3015"
       d="m 166.4479,144.21453 c 0,-1.05526 0,-2.11052 0,-3.16578 0,-0.83292 0,-1.66584 0,-2.49876 0,-0.77099 0,-1.54198 0,-2.31298 -0.0674,-0.85963 0.10833,-1.69647 0.24478,-2.53856 0.0985,-0.6556 0.11521,-1.31924 0.12834,-1.98088 0.01,-0.74344 0.008,-1.48696 0.007,-2.23044 -0.001,-0.75638 -0.002,-1.51275 -0.002,-2.26913 -0.0215,-0.83476 -0.009,-1.65819 0.12503,-2.4833 0.13686,-0.69788 0.19635,-1.40568 0.22969,-2.11491 0.0325,-0.78079 -0.005,-1.56062 0.0829,-2.33749 0.14122,-0.62531 0.23394,-1.25569 0.27941,-1.89463 0.0394,-0.70892 0.0392,-1.41926 0.041,-2.12904 4e-4,-0.75482 -0.001,-1.50963 -0.002,-2.26444 0.0545,-0.69695 -0.0387,-1.36659 -0.1536,-2.04982 -0.14021,-0.80782 -0.1857,-1.62665 -0.21194,-2.44473 -0.15149,-0.61367 -0.25177,-1.23578 -0.31797,-1.86387 -0.006,-0.71394 -0.10405,-1.40484 -0.22636,-2.10541 -0.12469,-0.74664 -0.14998,-1.49907 -0.29623,-2.24134 -0.14822,-0.67485 -0.39839,-1.31569 -0.53408,-1.9976 -0.10437,-0.65375 -0.30647,-1.28217 -0.41062,-1.93881 -0.0985,-0.734486 -0.28125,-1.45252 -0.38086,-2.188632 -0.0534,-0.647366 -0.20224,-1.280611 -0.42015,-1.890312 -0.21218,-0.712764 -0.38872,-1.436853 -0.56169,-2.160767 -0.11096,-0.626551 -0.34351,-1.224203 -0.55999,-1.820813 -0.22402,-0.779116 -0.46998,-1.551874 -0.63914,-2.345621 -0.20029,-0.745284 -0.49501,-1.455526 -0.69384,-2.201735 -0.25664,-0.734914 -0.41705,-1.495722 -0.62855,-2.243616 -0.23847,-0.708514 -0.36536,-1.463232 -0.62125,-2.164213 -0.28368,-0.758475 -0.49768,-1.538389 -0.74343,-2.309086 -0.23114,-0.836556 -0.47999,-1.665107 -0.7614,-2.486008 -0.29395,-0.902852 -0.54593,-1.817263 -0.82783,-2.723653 -0.23496,-0.645755 -0.39222,-1.34132 -0.66774,-1.970897 -0.26563,-0.589667 -0.35403,-1.229526 -0.55171,-1.839818 -0.17838,-0.667226 -0.48724,-1.287251 -0.72112,-1.935402 -0.2446,-0.675058 -0.54312,-1.320594 -0.88341,-1.950949 -0.33292,-0.651677 -0.59419,-1.332649 -0.89674,-1.997485 -0.1692,-0.545504 -0.52153,-0.987863 -0.79091,-1.48272 -0.28575,-0.46833 -0.34739,-1.114683 -0.69776,-1.537978 -0.42513,-0.594514 -0.66007,-1.290862 -0.99128,-1.933112 -0.26601,-0.683673 -0.63173,-1.317795 -0.92899,-1.987058 -0.32315,-0.728775 -0.61043,-1.465257 -0.95498,-2.18448 -0.35482,-0.780068 -0.65899,-1.579458 -0.95635,-2.38274 -0.27214,-0.577788 -0.58031,-1.137006 -0.83956,-1.720557 -0.18285,-0.539114 -0.40311,-1.063182 -0.64845,-1.575889 -0.23606,-0.58186 -0.57783,-1.107965 -0.82905,-1.684989 -0.24911,-0.632979 -0.50553,-1.237163 -0.84189,-1.82638 -0.26919,-0.603263 -0.73934,-1.024861 -1.13716,-1.533096 -0.27921,-0.413802 -0.62666,-0.709053 -1.02581,-0.995043 -0.56904,-0.436576 -1.21789,-0.749396 -1.83253,-1.116498 -0.61756,-0.276044 -1.20327,-0.599779 -1.77368,-0.963395 -0.6161,-0.288227 -1.20426,-0.62586 -1.79796,-0.956807 -0.60739,-0.424833 -1.26514,-0.761108 -1.86386,-1.19821 -0.50122,-0.355652 -1.00723,-0.702238 -1.50946,-1.057058 -0.55199,-0.436174 -1.13734,-0.818949 -1.72068,-1.208741 -0.55813,-0.346362 -1.07331,-0.755458 -1.60104,-1.145634 -0.46406,-0.372042 -0.97444,-0.670109 -1.43966,-1.040289 -0.54371,-0.388044 -1.0358,-0.838665 -1.53531,-1.280194 -0.3812,-0.448567 -0.88792,-0.744639 -1.33979,-1.113519 -0.36232,-0.426514 -0.70996,-0.830729 -1.12479,-1.190879 -1.04173,-1.001818 -0.61136,-2.566084 0.85237,-2.804071 0.19527,-0.03175 0.39533,-0.01649 0.593,-0.02473 0.76451,0.06634 1.488,0.270706 2.18595,0.582691 0.59777,0.256263 1.19178,0.524039 1.82433,0.682789 0.76874,0.251399 1.53797,0.474701 2.27538,0.811518 0.65835,0.303608 1.34485,0.536024 2.02181,0.792712 0.74523,0.287013 1.48982,0.574679 2.21812,0.902628 0.70336,0.349298 1.27904,0.876265 1.83381,1.420963 0.51798,0.36825 0.78822,0.962573 1.20521,1.420276 0.30467,0.375391 0.60827,0.768849 0.97361,1.089054 0.47464,0.4291 0.84397,0.945748 1.24964,1.435317 0.31852,0.447057 0.73717,0.793293 1.12034,1.189926 0.41827,0.479406 0.81524,0.977187 1.23261,1.458278 0.43261,0.523163 0.82767,1.089852 1.31625,1.563817 0.3508,0.51907 0.79877,0.930765 1.18409,1.417881 0.34174,0.362503 0.59578,0.812219 0.96487,1.148722 0.42567,0.444135 0.72623,0.983703 1.15782,1.421453 0.40054,0.433375 0.77006,0.904698 1.20761,1.302278 0.47122,0.445692 0.93115,0.906197 1.37062,1.383611 0.38557,0.387873 0.77953,0.768119 1.15411,1.167125 0.43062,0.391321 0.81669,0.82671 1.19939,1.265007 0.47908,0.574325 0.96709,1.140966 1.44623,1.715183 0.38843,0.559504 0.74771,1.137813 1.14664,1.689368 0.35347,0.487035 0.59643,1.057347 0.99771,1.508704 0.42608,0.55795 0.73565,1.19159 1.08719,1.796677 0.35002,0.448854 0.62596,0.950137 0.93735,1.426874 0.33971,0.549105 0.67446,1.099208 0.99969,1.65774 0.26548,0.526368 0.53384,1.049399 0.80981,1.570346 0.38206,0.429132 0.55358,0.997333 0.86202,1.473011 0.31368,0.499431 0.64413,0.988206 0.95518,1.491488 0.27812,0.521858 0.54848,1.045384 0.82645,1.56725 0.41073,0.508849 0.68812,1.131129 0.92316,1.73708 0.30504,0.543051 0.51608,1.13605 0.81128,1.682181 0.28845,0.621593 0.53397,1.265791 0.76001,1.913325 0.22429,0.51504 0.42737,1.05554 0.72438,1.534853 0.21704,0.330275 0.32537,0.707202 0.46347,1.071907 0.0715,0.188862 0.2963,0.383178 -0.18918,-0.174904 -2.23379,-0.1915 -0.57925,-0.37283 -1.81237,0.387727 -0.081,0.04995 0.0919,-0.166974 0.12978,-0.25426 0.0689,-0.158745 0.0853,-0.386718 0.11594,-0.552609 0.0559,-0.730547 0.17646,-1.443688 0.33165,-2.159196 0.0889,-0.699558 0.22527,-1.38765 0.36584,-2.078632 0.11074,-0.800899 0.2831,-1.592168 0.50879,-2.368361 0.23214,-0.647799 0.33976,-1.321986 0.39739,-2.004389 0.15763,-0.841186 0.2875,-1.684817 0.3587,-2.537775 0.0364,-0.831883 0.0512,-1.65498 0.18732,-2.477952 0.12943,-0.775951 0.19991,-1.554422 0.3625,-2.324798 0.15673,-0.674883 0.21207,-1.364905 0.2446,-2.054997 0.0267,-0.873093 0.0236,-1.746755 0.0234,-2.620154 -0.0202,-0.982027 0.17936,-1.949832 0.27796,-2.92399 0.0744,-0.790889 0.0882,-1.585486 0.0961,-2.379265 -0.0129,-0.924295 -0.0128,-1.838671 0.12512,-2.753922 0.13344,-0.717545 0.19653,-1.443651 0.23053,-2.171752 0.0265,-0.734027 0.0252,-1.468678 0.0255,-2.203071 -0.0509,-0.798468 0.0379,-1.574857 0.195,-2.355599 0.12241,-0.610844 0.14852,-1.234213 0.16841,-1.855085 -0.009,-0.717993 0.2049,-1.41002 0.30057,-2.116816 0.0594,-0.65011 0.28246,-1.266686 0.37794,-1.91153 0.17256,-0.747131 0.48235,-1.45376 0.77396,-2.160567 0.27835,-0.708842 0.49525,-1.440536 0.77752,-2.147443 0.29673,-0.568807 0.56522,-1.143635 0.83367,-1.725487 0.21506,-0.589339 0.52053,-1.124782 0.8626,-1.648352 0.37305,-0.418077 0.65672,-0.89814 0.96757,-1.362311 0.75829,-1.003679 1.69014,-1.172329 2.65696,-0.187996 0.21866,0.22262 0.27749,0.72062 0.33266,1.018845 0.14402,0.684415 -0.0347,1.411491 0.10367,2.090805 0.15801,0.684488 0.24184,1.380201 0.29291,2.079775 -0.031,0.637586 0.14194,1.23923 0.25409,1.85967 0.12729,0.770415 0.14884,1.552157 0.16403,2.331175 0.005,0.617981 0.18215,1.219654 0.26793,1.831903 0.2255,0.606312 0.33676,1.242943 0.41424,1.882442 0.0134,0.719321 0.11,1.41663 0.23274,2.123151 0.14264,0.811066 0.1861,1.63375 0.21131,2.455359 0.0172,0.769685 0.0149,1.53963 0.0143,2.309456 -0.001,0.755624 -0.002,1.511248 -0.002,2.266872 -3.3e-4,0.755496 -3.4e-4,1.510991 -3.5e-4,2.266487 -0.0336,0.806571 -0.31301,1.559292 -0.53263,2.32545 -0.11187,0.666943 -0.2597,1.321282 -0.42249,1.977941 -0.0842,0.643421 -0.22432,1.270035 -0.37932,1.899868 -0.15188,0.651613 -0.35613,1.284379 -0.45728,1.947559 -0.0425,0.76874 -0.15637,1.523318 -0.29128,2.280662 -0.12184,0.685888 -0.15372,1.382235 -0.17417,2.077104 0.05,0.757438 -0.13193,1.488987 -0.25986,2.228028 -0.0976,0.63522 -0.11114,1.278945 -0.12355,1.920244 0.0557,0.759175 -0.12576,1.492794 -0.25369,2.233591 -0.0977,0.636093 -0.11153,1.280682 -0.12405,1.922866 0.0182,0.726011 -0.19644,1.426779 -0.2928,2.141087 -0.0751,0.663734 -0.0818,1.332577 -0.0892,1.999737 0.0459,0.83302 -0.0545,1.648522 -0.19107,2.467779 -0.11891,0.691529 -0.15381,1.392565 -0.17545,2.092625 -0.0167,0.741525 -0.0146,1.483309 -0.0142,2.224974 9.3e-4,0.755758 0.002,1.511516 0.002,2.267275 3.3e-4,0.755945 3.4e-4,1.51189 3.6e-4,2.267834 0,0.755736 -1e-5,1.511473 -1e-5,2.267209 -1e-5,0.75572 -1e-5,1.51144 -1e-5,2.26716 0.008,0.63939 -0.0481,1.275472 0.0825,1.902988 0.0775,0.602339 0.23334,1.173401 0.3946,1.755656 0.20084,0.768447 0.24142,1.563253 0.26813,2.353117 0.0179,0.766509 0.0145,1.53331 0.0135,2.29997 0.13955,0.601271 0.2352,1.209477 0.29975,1.822961 0.0675,0.773134 0.072,1.549794 0.0766,2.325284 -0.001,0.61406 0.17582,1.21275 0.26106,1.82088 0.0943,0.77311 0.10557,1.55277 0.11456,2.33053 0.0133,0.64432 -0.0453,1.28541 0.0852,1.91804 0.16727,0.72644 0.22967,1.46875 0.26744,2.21131 0.0297,0.76812 0.0283,1.53699 0.0286,2.30555 0.008,0.64069 -0.0497,1.27804 0.0806,1.90697 0.16789,0.72624 0.23055,1.46847 0.26849,2.21095 0.0299,0.76817 0.0284,1.53709 0.0288,2.30571 -5.2e-4,0.75694 -0.002,1.51389 -0.002,2.27083 -4.7e-4,0.75561 -5.2e-4,1.51123 -5.6e-4,2.26685 0.0687,0.66996 -0.10851,1.38331 0.0332,2.04383 0.1614,0.67664 0.24646,1.36521 0.29861,2.05774 0.0157,0.60958 0.1558,1.20464 0.35645,1.77691 0.24182,0.64502 0.29074,1.33203 0.47848,1.98955 0.19153,0.67941 0.24698,1.38122 0.40052,2.06825 0.10244,0.68878 0.25523,1.35501 0.42989,2.0273 0.16351,0.63669 0.39097,1.24628 0.51337,1.89708 0.19745,0.55595 0.32788,1.13055 0.49775,1.69515 0.28128,0.5267 0.45263,1.0981 0.68426,1.64624 0.20883,0.64021 0.38046,1.28858 0.56603,1.93645 0.0943,0.6222 0.38504,1.17085 0.61804,1.74565 0.1834,0.68038 0.4321,1.33898 0.59649,2.025 0.20129,0.48803 0.46926,0.93064 0.65549,1.43169 0.20219,0.66228 0.42725,1.30605 0.54899,1.99128 0.23613,0.61803 0.34996,1.26835 0.42742,1.92231 0.0988,0.49658 0.30501,0.94534 0.47885,1.41688 0.18993,0.73323 0.39949,1.46192 0.54533,2.20618 0.067,0.69399 0.17022,1.36625 0.32183,2.04507 0.14378,0.62445 0.36463,1.22135 0.48275,1.85635 0.11333,0.73985 0.29755,1.46394 0.39898,2.20733 0.2132,0.70408 0.26778,1.44316 0.43793,2.15496 0.11752,0.68764 0.39701,1.32322 0.57687,1.99441 0.0846,0.66885 0.29434,1.30548 0.43202,1.96359 0.0774,0.57418 0.28826,1.12028 0.48151,1.66423 0.21678,0.76126 0.39068,1.5349 0.56779,2.30701 0.14678,0.63467 0.31278,1.27489 0.51447,1.89583 0.23225,0.60717 0.47089,1.21306 0.70078,1.82428 0.19861,0.66718 0.42462,1.3143 0.72529,1.94094 0.32044,0.69729 0.59482,1.41229 0.86319,2.13096 0.23038,0.70323 0.51625,1.40353 0.86473,2.05721 0.37246,0.48803 0.35275,1.21131 0.73601,1.68429 0.34397,0.6035 0.64315,1.23334 0.93566,1.86341 0.24293,0.64289 0.56549,1.25445 0.89597,1.85641 0.26533,0.61284 0.55652,1.19898 0.91092,1.76269 0.29408,0.51862 0.58129,1.03876 0.86921,1.56106 0.30163,0.61575 0.58695,1.24665 0.92545,1.84285 0.31335,0.53598 0.50675,1.14428 0.83205,1.6722 0.26758,0.46181 0.56365,0.90863 0.84219,1.36717 0.22836,0.53215 0.59079,0.97769 0.87248,1.47936 0.32851,0.3678 0.41779,0.90254 0.7502,1.26369 0.35551,0.51819 0.70882,1.03508 1.07124,1.54862 0.33802,0.58548 0.78945,1.08645 1.1445,1.65988 0.25282,0.41807 0.57441,0.778 0.88469,1.15211 0.36833,0.50306 0.75132,0.99231 1.13658,1.48216 0.32175,0.54337 0.72545,1.02411 1.04532,1.56741 0.29853,0.45941 0.64054,0.88516 0.93703,1.3477 0.45307,0.49233 0.80232,1.06487 1.20849,1.59266 0.28984,0.58188 0.72854,1.02274 1.10819,1.53638 0.34687,0.46006 0.6583,0.94285 0.99042,1.4153 0.42146,0.55697 0.75051,1.17478 1.13584,1.75418 0.3702,0.54259 0.71264,1.09578 1.00158,1.68888 0.34878,0.5427 0.70824,1.05684 0.96496,1.65331 0.30107,0.58757 0.54528,1.20708 0.75225,1.83383 0.0915,0.58959 0.40647,1.07517 0.65449,1.6026 0.31559,0.655 0.42836,1.38412 0.67928,2.05804 0.1827,0.61175 0.46749,1.17578 0.65181,1.7878 0.1751,0.54789 0.25456,1.1582 0.48331,1.6862 0.25251,0.55001 0.28569,1.1837 0.57071,1.71856 0.26426,0.61577 0.51636,1.23833 0.74366,1.86923 0.13151,0.63818 0.43053,1.20878 0.67501,1.80531 0.18521,0.6813 0.43331,1.34178 0.5975,2.02931 0.28537,0.51789 0.29475,1.13112 0.49189,1.6733 0.15767,0.58149 0.42433,1.11383 0.59606,1.69228 0.23731,0.49871 0.36615,1.03394 0.5656,1.5468 0.13207,0.51042 0.45952,0.91458 0.70568,1.37159 0.32143,0.36432 0.41038,0.89059 0.73925,1.24616 0.35118,0.44811 0.68515,0.90747 0.99706,1.38659 0.28376,0.37586 0.61545,0.70854 0.92944,1.05927 0.3622,0.25172 0.71574,0.53055 1.07698,0.79189 0.34421,0.34801 0.74959,0.59315 1.20849,0.75857 0.57465,0.2426 1.12179,0.55436 1.70375,0.77813 0.50664,0.30984 1.06751,0.47564 1.62569,0.66336 0.72636,0.14379 1.40118,0.40026 2.05204,0.74957 0.50517,0.20769 1.01698,0.40005 1.55159,0.51829 0.6627,0.23668 1.34223,0.41104 2.01451,0.6167 0.70861,0.30008 1.45091,0.49216 2.17026,0.76144 0.5915,0.18486 1.20511,0.24702 1.80345,0.41141 0.55988,0.14034 1.06352,0.41515 1.63266,0.52165 0.67537,0.22447 1.3678,0.36228 2.00636,0.68133 1.40493,1.17868 0.8916,2.26874 -0.48379,3.05045 -0.80477,0.39947 -1.69864,0.45929 -2.57996,0.50186 -0.85349,0.0403 -1.70688,-0.0319 -2.55069,0.11438 -0.75056,0.15367 -1.51286,0.22045 -2.27672,0.25843 -0.76695,0.0292 -1.53463,0.0278 -2.302,0.0281 -0.75635,-5.3e-4 -1.5127,-0.002 -2.26905,-0.002 -0.8344,0.0208 -1.65747,0.008 -2.48221,-0.12581 -0.69786,-0.13687 -1.40565,-0.19634 -2.11485,-0.22966 -0.73453,-0.0266 -1.46969,-0.0253 -2.20459,-0.0256 -0.63886,0.008 -1.27444,-0.0466 -1.90133,0.0844 -0.72663,0.16914 -1.4695,0.232 -2.21259,0.27006 -0.64116,-0.0282 -1.24917,0.0472 -1.87258,0.17354 -0.63063,0.0692 -1.23456,0.19772 -1.84772,0.35057 -0.76518,0.18257 -1.55222,0.22151 -2.33525,0.24699 -0.60922,0.15347 -1.22823,0.25066 -1.8524,0.316 -0.70825,0.053 -1.41097,0.0409 -2.1109,0.16307 -0.80164,0.15679 -1.61515,0.22407 -2.42976,0.26265 -0.64903,-0.0289 -1.26519,0.0445 -1.89643,0.17228 -0.69671,0.18419 -1.43098,0.11615 -2.13215,0.24786 -0.81882,0.18124 -1.65022,0.26842 -2.48592,0.31798 -0.86257,0.0414 -1.72634,0.0436 -2.5897,0.0452 -0.76612,1.3e-4 -1.53224,-0.001 -2.29835,-0.002 -0.75464,-6.4e-4 -1.50928,-7.3e-4 -2.26391,-8e-4 -0.81797,0.0146 -1.61844,-0.18585 -2.42706,-0.28363 -0.70463,-0.0755 -1.41384,-0.0856 -2.12176,-0.0936 -0.75014,-0.005 -1.5003,-0.003 -2.25044,-0.002 -1.15927,-0.0441 -2.29301,-0.83894 -2.17146,-2.12842 0.0242,-0.25679 0.14852,-0.49401 0.22278,-0.74101 0.40465,-0.8361 1.28742,-1.0654 1.97414,-1.57016 0.65337,-0.4314 1.40545,-0.69271 2.15053,-0.91885 0.59529,-0.19682 1.24846,-0.29852 1.82586,-0.54292 0.29037,-0.10829 0.19668,-0.0358 0.3223,-0.14963 1.62838,-0.92005 2.92952,1.38282 1.30115,2.30287 l 0,0 c -0.52543,0.27401 -0.28031,0.16893 -0.72653,0.33508 -0.64737,0.2198 -1.31199,0.40052 -1.96827,0.58973 -0.49285,0.14215 -0.9953,0.30733 -1.43106,0.57998 -0.0746,0.0483 -1.08685,0.77386 -1.058,0.50681 0.0299,-0.31965 0.0505,-0.60545 -0.24656,-0.81752 -0.0938,-0.067 -0.20288,-0.11157 -0.31161,-0.14978 -0.0153,-0.005 -0.0554,0.0184 -0.041,0.0258 0.0468,0.0242 0.1031,0.022 0.15464,0.033 0.76131,-9e-4 1.52263,-0.003 2.28392,0.002 0.80509,0.009 1.61156,0.0236 2.41256,0.11305 0.70238,0.0867 1.3987,0.25779 2.10615,0.26406 0.75539,7e-5 1.51077,1.6e-4 2.26616,8e-4 0.76365,7.2e-4 1.5273,0.002 2.29095,0.002 0.8136,-0.001 1.62757,-0.003 2.44048,-0.0407 0.75177,-0.0431 1.49742,-0.12702 2.23371,-0.29108 0.66984,-0.0943 1.34832,-0.0959 2.01378,-0.22669 0.76138,-0.1541 1.51882,-0.24682 2.29788,-0.22198 0.70623,-0.0324 1.41146,-0.0893 2.1061,-0.22749 0.76021,-0.12853 1.51947,-0.15239 2.28822,-0.18732 0.68744,-0.0684 1.35409,-0.2337 2.03752,-0.32843 0.59647,-0.0187 1.19727,-0.0389 1.78183,-0.17026 0.64898,-0.16069 1.29453,-0.30355 1.96011,-0.37592 0.75054,-0.15215 1.49715,-0.2468 2.26528,-0.22293 0.61484,-0.0302 1.22951,-0.0789 1.83009,-0.22272 0.80145,-0.15425 1.60389,-0.15053 2.41782,-0.13505 0.77663,3.4e-4 1.55354,-7.6e-4 2.32974,0.0286 0.81116,0.0393 1.62092,0.1081 2.41953,0.26199 0.6813,0.11536 1.3623,0.0993 2.05308,0.0905 0.75537,5.4e-4 1.51073,0.002 2.26609,0.002 0.72468,-2.9e-4 1.44964,0.001 2.17396,-0.0249 0.66154,-0.0317 1.32121,-0.0895 1.97072,-0.22554 0.94987,-0.15416 1.90172,-0.13155 2.86161,-0.1475 0.47983,-0.0218 0.97195,-0.0294 1.43304,-0.17932 0.11228,-0.0549 0.35749,-0.3144 0.32012,-0.19514 -0.0439,0.14025 -0.22823,0.20566 -0.27429,0.34524 -0.19682,0.5965 -0.12613,1.12292 0.43252,1.4356 -0.33947,-0.20016 -0.87425,-0.20225 -1.25664,-0.40589 -0.62743,-0.13301 -1.20626,-0.37103 -1.81033,-0.5642 -0.67056,-0.18666 -1.37266,-0.22655 -2.02638,-0.48378 -0.66837,-0.2503 -1.36127,-0.42194 -2.01677,-0.70928 -0.61301,-0.18763 -1.23681,-0.33767 -1.83578,-0.56877 -0.75959,-0.18011 -1.49913,-0.43787 -2.20789,-0.76528 -0.52165,-0.28041 -1.06106,-0.45184 -1.64652,-0.57369 -0.60307,-0.20423 -1.22732,-0.38044 -1.77251,-0.71781 -0.56719,-0.23567 -1.11577,-0.51192 -1.67448,-0.76649 -0.65223,-0.26461 -1.31501,-0.58602 -1.81575,-1.09376 -0.50633,-0.37813 -1.03604,-0.73475 -1.49231,-1.17315 -0.38923,-0.4589 -0.83068,-0.87422 -1.16887,-1.37676 -0.27497,-0.43863 -0.57943,-0.84432 -0.90211,-1.24857 -0.35686,-0.51166 -0.62016,-1.06894 -0.95547,-1.59347 -0.25962,-0.54998 -0.69084,-1.02062 -0.82405,-1.63304 -0.22911,-0.58926 -0.39011,-1.19767 -0.64348,-1.77822 -0.14981,-0.56784 -0.45687,-1.08106 -0.58579,-1.65727 -0.17254,-0.61545 -0.27776,-1.24614 -0.53558,-1.83736 -0.12278,-0.55585 -0.34954,-1.08103 -0.47343,-1.63663 -0.25043,-0.63422 -0.5799,-1.23956 -0.71652,-1.91503 -0.19141,-0.56061 -0.42604,-1.10844 -0.65649,-1.65324 -0.27068,-0.62819 -0.43454,-1.28359 -0.65578,-1.92859 -0.20095,-0.60351 -0.36467,-1.22399 -0.53187,-1.83675 -0.15425,-0.57765 -0.47048,-1.09769 -0.61786,-1.67941 -0.19292,-0.59952 -0.32682,-1.21612 -0.57582,-1.79761 -0.27475,-0.62381 -0.65927,-1.20448 -0.76798,-1.89342 -0.17856,-0.57028 -0.42206,-1.11959 -0.68695,-1.65444 -0.1824,-0.55796 -0.67843,-0.95816 -0.8989,-1.50383 -0.23429,-0.50228 -0.53283,-0.9512 -0.84494,-1.40747 -0.35164,-0.56139 -0.68527,-1.13291 -1.0784,-1.6681 -0.32244,-0.47077 -0.62833,-0.9474 -0.97731,-1.39662 -0.31488,-0.51215 -0.81305,-0.91338 -1.06367,-1.47544 -0.44195,-0.59534 -0.86082,-1.20614 -1.33543,-1.7771 -0.30479,-0.50649 -0.71079,-0.94501 -1.00379,-1.46016 -0.20907,-0.44755 -0.62265,-0.77986 -0.82461,-1.23523 -0.36633,-0.47704 -0.7444,-0.94448 -1.09629,-1.43175 -0.38636,-0.48206 -0.79689,-0.94403 -1.11339,-1.4787 -0.2765,-0.5332 -0.77288,-0.93621 -1.03153,-1.48546 -0.35254,-0.50059 -0.69718,-1.00472 -1.04311,-1.50948 -0.35176,-0.50645 -0.60969,-1.05848 -0.94589,-1.57384 -0.2238,-0.47808 -0.6346,-0.85906 -0.80864,-1.36731 -0.29099,-0.48904 -0.60483,-0.96138 -0.89133,-1.45224 -0.29449,-0.55425 -0.55396,-1.12659 -0.83938,-1.68558 -0.32226,-0.60397 -0.63125,-1.21851 -0.92245,-1.83735 -0.26053,-0.47816 -0.51941,-0.95442 -0.78995,-1.42618 -0.38279,-0.60994 -0.71562,-1.23903 -0.99352,-1.90369 -0.35511,-0.65501 -0.70904,-1.31708 -0.97506,-2.01375 -0.25009,-0.54575 -0.51058,-1.08973 -0.80345,-1.61314 -0.33244,-0.59305 -0.53556,-1.22909 -0.82309,-1.8416 -0.37578,-0.75512 -0.73238,-1.5311 -0.98709,-2.33568 -0.23919,-0.64433 -0.48246,-1.28538 -0.76933,-1.9101 -0.33598,-0.70061 -0.60356,-1.42129 -0.82116,-2.1672 -0.24053,-0.65775 -0.5041,-1.30307 -0.74656,-1.95906 -0.20806,-0.69027 -0.40747,-1.38829 -0.56674,-2.09043 -0.15235,-0.67216 -0.3107,-1.3434 -0.48154,-2.01017 -0.23373,-0.65845 -0.47462,-1.32474 -0.58006,-2.01784 -0.12178,-0.61151 -0.3316,-1.20296 -0.39975,-1.82528 -0.17698,-0.70298 -0.49036,-1.36632 -0.59964,-2.08837 -0.16925,-0.79077 -0.2738,-1.59461 -0.47788,-2.37899 -0.0925,-0.70469 -0.27844,-1.38904 -0.38076,-2.09127 -0.10148,-0.59922 -0.3505,-1.1516 -0.461,-1.74831 -0.15657,-0.7025 -0.27856,-1.40258 -0.3375,-2.12043 -0.11468,-0.60893 -0.30014,-1.19964 -0.43423,-1.80381 -0.23574,-0.66493 -0.52241,-1.31108 -0.62049,-2.01815 -0.0669,-0.6103 -0.22246,-1.19223 -0.40674,-1.77761 -0.0864,-0.53821 -0.28675,-1.03395 -0.43552,-1.55562 -0.1827,-0.59517 -0.62807,-1.0855 -0.73795,-1.71373 -0.12361,-0.55776 -0.35187,-1.08464 -0.47611,-1.64231 -0.25933,-0.66102 -0.59422,-1.29626 -0.7071,-2.00699 -0.15192,-0.54385 -0.31222,-1.08398 -0.45773,-1.62835 -0.26862,-0.63579 -0.48492,-1.28869 -0.78069,-1.91369 -0.19846,-0.6597 -0.36481,-1.32641 -0.56741,-1.98499 -0.10002,-0.58744 -0.34523,-1.1257 -0.47145,-1.70642 -0.1806,-0.70068 -0.34443,-1.3985 -0.45098,-2.11487 -0.142,-0.63888 -0.20807,-1.28676 -0.36346,-1.9218 -0.17223,-0.61045 -0.24136,-1.23685 -0.4317,-1.84132 -0.27384,-0.79043 -0.46229,-1.61344 -0.49643,-2.45221 -0.046,-0.6396 -0.14006,-1.27038 -0.28171,-1.89628 -0.0894,-0.7975 -0.0515,-1.59828 -0.0572,-2.4001 4e-5,-0.7562 9e-5,-1.51241 5.6e-4,-2.26861 5.4e-4,-0.75591 0.002,-1.51182 0.002,-2.26774 -3.2e-4,-0.72483 0.001,-1.44993 -0.0255,-2.17439 -0.0302,-0.61571 -0.079,-1.23122 -0.22205,-1.83284 -0.15266,-0.80126 -0.14708,-1.60302 -0.13036,-2.41641 -3.2e-4,-0.72496 0.001,-1.4502 -0.0254,-2.17479 -0.0301,-0.61616 -0.0787,-1.23212 -0.2213,-1.83429 -0.15098,-0.79487 -0.1458,-1.5899 -0.13441,-2.39673 -0.008,-0.66703 -0.0145,-1.33574 -0.0899,-1.99932 -0.0975,-0.72224 -0.31349,-1.43205 -0.28583,-2.16657 -0.004,-0.69015 -0.007,-1.38134 -0.0627,-2.06968 -0.0709,-0.705941 -0.24387,-1.392179 -0.31371,-2.097906 9.9e-4,-0.736256 0.004,-1.472642 -0.0121,-2.208768 -0.0188,-0.582147 -0.0376,-1.169574 -0.17463,-1.738456 -0.176,-0.643679 -0.34592,-1.282576 -0.43929,-1.944792 -0.15345,-0.80104 -0.14883,-1.602822 -0.13272,-2.416167 0,-0.755725 0,-1.51145 1e-5,-2.267175 0,-0.755709 2e-5,-1.511419 1e-5,-2.267128 -2e-5,-0.755498 -3e-5,-1.510997 -3.6e-4,-2.266495 -4e-4,-0.755677 -0.001,-1.511354 -0.002,-2.267031 -4.8e-4,-0.76988 -0.003,-1.539886 0.0154,-2.309609 0.026,-0.817991 0.0712,-1.636717 0.21016,-2.444627 0.11463,-0.687437 0.20562,-1.361536 0.15523,-2.062481 0.009,-0.778076 0.0198,-1.55806 0.11387,-2.331502 0.0859,-0.612297 0.26364,-1.213944 0.26851,-1.831961 0.0156,-0.776813 0.038,-1.556128 0.1628,-2.324633 0.10737,-0.611622 0.27282,-1.203291 0.21493,-1.831431 0.0154,-0.776455 0.0376,-1.555443 0.16252,-2.323577 0.10883,-0.618206 0.27524,-1.21677 0.22156,-1.8518 0.025,-0.823957 0.0682,-1.649136 0.21401,-2.462118 0.13212,-0.741106 0.23455,-1.475725 0.28247,-2.228136 0.11878,-0.737503 0.32551,-1.447377 0.50233,-2.170642 0.15691,-0.632614 0.28415,-1.258572 0.38048,-1.90452 0.17238,-0.689432 0.31173,-1.37628 0.44836,-2.074058 0.15416,-0.528709 0.34711,-1.042813 0.42834,-1.590121 1e-5,-0.755939 2e-5,-1.511877 3.5e-4,-2.267816 3.9e-4,-0.755854 0.001,-1.511709 0.002,-2.267563 5.8e-4,-0.742461 0.003,-1.485032 -0.0131,-2.227368 -0.0208,-0.696699 -0.0533,-1.394721 -0.17349,-2.082697 -0.1307,-0.752536 -0.23995,-1.501836 -0.25368,-2.266991 -0.0704,-0.626798 -0.2396,-1.223184 -0.40755,-1.830108 -0.0963,-0.714645 -0.31081,-1.415832 -0.29222,-2.142184 -0.0121,-0.639825 -0.0249,-1.282214 -0.12311,-1.915877 -0.12547,-0.709359 -0.31345,-1.409485 -0.28874,-2.136964 -0.0451,-0.645707 -0.13643,-1.28336 -0.27604,-1.91591 -0.0762,-0.67834 -0.0502,-1.357345 -0.0961,-2.038142 0.003,-0.192596 -0.0148,0.02367 0.13766,0.125503 0.24892,0.166213 0.49648,0.382893 0.79342,0.420408 0.55766,0.07046 1.12447,-0.498103 0.88965,-0.308658 -0.30426,0.452655 -0.58391,0.935424 -0.95133,1.337799 -0.27923,0.425617 -0.52067,0.853881 -0.68945,1.340993 -0.27279,0.522461 -0.48745,1.08034 -0.7753,1.594491 -0.3087,0.696562 -0.47309,1.455904 -0.78057,2.154797 -0.21543,0.508825 -0.41923,1.023658 -0.60093,1.544503 -0.0996,0.632182 -0.29547,1.240116 -0.37226,1.872619 -0.0867,0.615484 -0.26555,1.219078 -0.27693,1.840038 -0.0254,0.767173 -0.0656,1.536462 -0.219,2.290688 -0.12315,0.611791 -0.1961,1.205615 -0.14301,1.834923 -3.5e-4,0.775818 7.2e-4,1.551917 -0.0285,2.327313 -0.0395,0.820426 -0.1101,1.638987 -0.25821,2.4479 -0.12428,0.789462 -0.0944,1.580421 -0.0946,2.378749 -0.009,0.874442 -0.026,1.74971 -0.10954,2.62082 -0.0906,0.885125 -0.27138,1.764695 -0.26435,2.655477 1.9e-4,0.915977 0.003,1.832257 -0.0265,2.747868 -0.0407,0.831645 -0.11258,1.662771 -0.29904,2.476393 -0.15615,0.732706 -0.20878,1.476394 -0.34149,2.214044 -0.12833,0.750052 -0.10827,1.504349 -0.16024,2.263087 -0.0731,0.854359 -0.18134,1.705331 -0.35932,2.544883 -0.077,0.860789 -0.21331,1.714086 -0.49866,2.533545 -0.21919,0.695996 -0.33845,1.41848 -0.45084,2.137741 -0.14361,0.702515 -0.27659,1.400179 -0.37268,2.111127 -0.15198,0.699666 -0.25255,1.393279 -0.32094,2.107381 -0.12099,0.595952 -0.36509,1.879232 -1.06207,2.12835 -0.45374,0.162176 -0.96355,-0.01683 -1.44533,-0.02524 -0.15786,-0.150269 -0.33302,-0.284234 -0.47357,-0.450806 -0.32685,-0.387373 -0.35736,-0.920947 -0.62504,-1.338197 -0.34824,-0.639399 -0.66671,-1.297909 -0.92411,-1.979671 -0.17593,-0.532174 -0.38734,-1.056357 -0.6136,-1.567748 -0.32022,-0.645849 -0.61196,-1.30563 -0.93086,-1.953029 -0.18254,-0.516706 -0.46317,-0.985742 -0.78385,-1.428307 -0.25075,-0.474738 -0.49429,-0.951699 -0.74531,-1.425145 -0.30986,-0.512296 -0.64688,-1.002964 -0.96573,-1.508873 -0.31226,-0.53543 -0.5533,-1.10909 -0.93517,-1.602572 -0.25846,-0.491481 -0.50933,-0.985801 -0.76002,-1.480337 -0.29909,-0.521024 -0.60807,-1.032407 -0.92768,-1.54048 -0.33505,-0.516694 -0.63742,-1.051566 -1.00895,-1.543422 -0.28158,-0.487895 -0.5369,-0.993834 -0.85402,-1.457925 -0.41196,-0.5267 -0.75949,-1.094329 -1.11249,-1.661414 -0.34298,-0.502076 -0.69215,-1.0005 -1.01464,-1.515616 -0.45756,-0.561043 -0.93922,-1.103169 -1.40027,-1.661099 -0.36907,-0.422701 -0.73948,-0.840209 -1.15627,-1.216817 -0.36251,-0.417366 -0.79024,-0.777208 -1.16721,-1.181514 -0.38411,-0.440983 -0.8183,-0.840941 -1.23781,-1.246898 -0.44776,-0.438974 -0.87081,-0.904011 -1.28226,-1.376685 -0.41701,-0.438242 -0.76171,-0.926825 -1.1353,-1.398378 -0.42896,-0.450494 -0.80369,-0.945354 -1.20106,-1.423071 -0.23863,-0.424888 -0.7264,-0.706846 -0.95501,-1.150752 -0.50898,-0.53137 -0.97755,-1.101449 -1.4268,-1.68378 -0.39034,-0.451346 -0.76148,-0.919318 -1.15189,-1.369248 -0.42219,-0.449684 -0.90486,-0.842141 -1.26111,-1.350819 -0.32281,-0.406791 -0.61869,-0.829644 -1.01081,-1.17636 -0.4212,-0.411534 -0.82354,-0.846817 -1.18362,-1.312872 -0.34324,-0.424568 -0.61197,-0.906195 -1.04654,-1.246512 -0.31802,-0.331653 -0.65668,-0.638676 -1.04792,-0.877887 -0.68183,-0.307045 -1.37861,-0.576815 -2.07718,-0.843991 -0.73382,-0.284122 -1.48255,-0.531633 -2.19622,-0.866698 -0.58659,-0.285107 -1.21493,-0.426802 -1.82532,-0.64904 -0.78251,-0.209945 -1.53026,-0.513063 -2.26939,-0.842943 -0.37796,-0.191967 -0.76659,-0.273428 -1.18385,-0.338804 0.72452,-0.246748 0.92022,-1.26985 0.40981,-1.803551 0.38217,0.339495 0.84148,0.703372 1.08675,1.158186 0.44412,0.40871 1.02037,0.672525 1.39506,1.161442 0.4659,0.417781 0.92951,0.837734 1.44144,1.200354 0.42865,0.360925 0.92906,0.626489 1.36357,0.980858 0.48493,0.376764 0.97754,0.744241 1.4968,1.071099 0.58838,0.4109 1.20179,0.78505 1.76197,1.237355 0.52658,0.372682 1.05712,0.735917 1.58228,1.110433 0.46827,0.400469 1.08303,0.596826 1.55518,0.996061 0.63781,0.357769 1.27778,0.70489 1.93026,1.03596 0.54906,0.351113 1.12038,0.64306 1.71007,0.924031 0.67618,0.407177 1.39217,0.75198 2.01725,1.238003 0.60998,0.440211 1.14679,0.934845 1.58994,1.545547 0.42614,0.614585 1.02596,1.10971 1.32571,1.818808 0.38797,0.680144 0.69134,1.380586 0.98055,2.106674 0.21769,0.54542 0.58079,1.019524 0.77917,1.574252 0.25932,0.542343 0.49583,1.098463 0.68993,1.667003 0.25956,0.633835 0.63571,1.217899 0.89319,1.854406 0.26785,0.727136 0.54136,1.450459 0.86076,2.156778 0.35752,0.746942 0.65754,1.511067 0.99282,2.267106 0.2717,0.636833 0.63382,1.231761 0.87962,1.880664 0.27353,0.571273 0.498,1.168387 0.85855,1.694789 0.31952,0.545321 0.55743,1.130296 0.79836,1.713053 0.26077,0.549139 0.69745,1.01437 0.85663,1.616978 0.27767,0.610786 0.51819,1.234796 0.81663,1.83618 0.40436,0.749114 0.7559,1.519337 1.0476,2.320056 0.23562,0.674679 0.56919,1.313848 0.74622,2.009328 0.18154,0.562817 0.27177,1.146378 0.49947,1.693109 0.26254,0.707029 0.49356,1.429468 0.72885,2.145567 0.27434,0.882275 0.5201,1.772045 0.80421,2.651387 0.28909,0.843335 0.54714,1.694082 0.78356,2.553602 0.23416,0.758154 0.44921,1.520043 0.72877,2.26368 0.23966,0.75287 0.42299,1.52492 0.65686,2.279965 0.21625,0.764696 0.38237,1.541475 0.64217,2.293668 0.20118,0.789506 0.54881,1.531367 0.72386,2.329193 0.13756,0.673143 0.35973,1.323358 0.53688,1.986215 0.25051,0.69134 0.50978,1.387686 0.64698,2.111856 0.14846,0.63129 0.30675,1.26117 0.48023,1.885113 0.27767,0.783925 0.47268,1.597589 0.54989,2.427266 0.0937,0.718084 0.28352,1.416618 0.37307,2.134443 0.0924,0.624007 0.30826,1.21676 0.39369,1.84128 0.12457,0.68028 0.4224,1.3079 0.53286,1.99132 0.14771,0.76096 0.19717,1.52738 0.30593,2.2938 0.1326,0.75965 0.24287,1.51601 0.2518,2.28882 0.0694,0.69211 0.23739,1.36322 0.33062,2.05169 0.0218,0.6991 0.0569,1.39921 0.17662,2.08965 0.13879,0.82524 0.24073,1.64678 0.19024,2.48614 6.9e-4,0.75775 0.002,1.51551 0.002,2.27327 -0.002,0.77189 -0.002,1.54441 -0.048,2.31525 -0.0516,0.69301 -0.13598,1.38213 -0.29664,2.0594 -0.14411,0.68165 0.0366,1.416 -0.0617,2.10644 -0.0394,0.81113 -0.10813,1.62085 -0.262,2.41943 -0.11524,0.68076 -0.0992,1.36119 -0.0897,2.05143 2.9e-4,0.75575 7.9e-4,1.5115 0.002,2.26725 8.3e-4,0.76217 0.003,1.5244 -0.007,2.28652 -0.016,0.78612 -0.041,1.5742 -0.16214,2.35254 -0.115,0.70397 -0.27908,1.39362 -0.21044,2.11369 0,0.771 0,1.54199 0,2.31298 0,0.83292 0,1.66584 0,2.49876 0,1.05526 0,2.11052 0,3.16578 0,1.87031 -2.64503,1.87031 -2.64503,0 z"
       inkscape:connector-curvature="0"
       transform="translate(0,796.36218)" />
    <path
       style="fill:#4d4d4d;fill-opacity:1;stroke:none"
       d="m 53.702751,11.825314 c -3.10195,2.224179 -3.547566,6.580583 -3.034699,10.131406 0.857443,7.666027 2.3334,15.436143 5.644303,22.435515 4.251405,7.737549 9.819202,14.683308 16.330694,20.628865 3.655985,3.661008 7.458131,7.260152 11.371263,10.591925 0.06436,0.935834 -0.406133,1.439164 -1.346131,0.885612 -6.895311,-0.836165 -14.066265,-0.202484 -20.549824,-3.120582 -4.978149,-2.225554 -10.203529,0.634232 -14.966289,2.102307 -1.496321,0.06265 -3.457094,2.325868 -1.254515,2.990239 7.570625,1.03644 14.833773,3.699508 22.133143,5.821588 7.442265,2.474104 14.737962,5.425431 22.253752,7.698762 4.778468,3.460419 8.475471,8.273439 13.048022,12.079749 5.04189,4.25824 10.50876,7.97953 15.56889,12.26084 8.41817,6.81818 18.59593,11.89383 24.57072,21.28905 3.80359,6.68718 9.28882,12.12873 14.59124,17.55586 3.00407,2.7729 4.97365,6.44432 6.4121,10.26903 0.36342,1.17777 1.87125,3.49737 -0.15377,3.92438 -8.57979,-3.57104 -16.46068,-9.05898 -23.28487,-15.32129 -3.56219,-2.90417 -5.5722,-7.75287 -10.27394,-9.08619 -5.2901,-2.49589 -10.34157,-5.50142 -15.6531,-7.96066 -5.82275,-3.90158 -11.69842,-7.89181 -16.559576,-12.98702 -4.419254,-4.93937 -5.936394,-12.48765 -12.280492,-15.68125 -3.320105,-1.72051 -6.800495,-3.37961 -10.367566,-4.40616 -6.456206,0.0527 -13.068167,-0.23771 -19.436244,0.0844 -1.952062,0.69306 -0.06433,2.47492 1.28709,2.21994 5.359868,1.82547 11.625239,0.82075 16.342501,4.25094 1.526125,2.02633 2.991271,4.11182 4.616993,6.0812 3.503609,5.74212 6.194586,11.98893 10.095981,17.54694 1.303765,1.70346 0.516144,3.98438 -1.228049,5.01847 -1.00106,2.41783 2.345521,1.43365 3.754997,1.77122 3.921603,1.77775 6.430595,5.70155 9.590255,8.52658 2.60207,3.41795 7.19735,3.88444 10.81442,5.7916 13.24359,5.34356 25.56015,12.98259 36.75865,21.76758 2.59889,2.46126 4.55618,6.42521 3.49522,10.00151 -0.87061,1.453 -2.91673,-0.0831 -4.19733,0.0608 -4.5303,-1.21326 -9.1751,-1.38382 -13.85659,-1.38374 -7.60859,-0.74255 -15.13721,-2.82245 -22.3182,-5.38407 -2.64775,-0.71816 -4.92091,-2.81803 -7.65169,-3.0347 -2.02802,1.37935 0.92543,2.85863 2.00739,3.6251 2.38822,1.97972 5.60482,3.6506 6.76608,6.62438 -0.39468,1.33249 -2.49184,0.35436 -3.49522,0.44871 -2.99932,-0.0679 -5.61005,-1.48541 -7.98232,-3.21182 -3.362268,-1.93153 -7.394339,-2.15653 -10.926031,-3.75861 -5.889543,-2.28121 -12.247596,-3.3625 -17.791426,-6.36098 -3.082415,-2.53427 -6.755336,-4.29595 -10.698198,-4.9122 -3.809042,-2.00124 -6.835137,-5.7872 -11.383072,-6.12844 -3.284037,-0.5422 -6.654946,-0.56175 -9.907051,-1.25166 -2.011112,0.3848 -0.592636,2.63519 0.712092,2.94833 4.392761,2.42742 9.021253,4.46814 12.572095,8.15134 3.834797,3.71886 9.45288,4.42141 13.662048,7.60446 0.785324,0.70459 0.42399,2.0886 -0.885613,1.55868 -7.214154,0.17494 -14.50362,0.21776 -21.644368,-0.74392 -6.150253,-1.53133 -12.589067,-2.01503 -18.260628,-4.97761 -3.343035,-1.25859 -6.722969,-2.61142 -9.177025,-5.3143 -1.922154,-1.55478 -3.449513,-4.3282 -6.3337,-3.57087 -2.0692563,-0.87476 -4.5072649,1.34785 -1.7582565,2.47264 3.4808415,2.19159 6.9197485,4.67315 8.7014575,8.52076 3.370103,5.41526 10.07202,6.89834 15.467432,9.50146 5.475945,2.0585 10.712347,4.65152 16.095795,6.87646 4.02621,0.58428 8.22734,0.41411 12.150425,1.61768 5.907185,2.05754 7.52668,-0.63997 13.56776,1.16905 -0.140316,-4.36386 12.319657,4.83485 17.747672,3.68415 4.021627,-1.68848 9.937382,-0.38636 14.594892,-0.0709 5.57595,0.36116 10.42163,3.72425 15.22073,6.34099 2.74261,1.46906 4.99949,3.7775 7.74615,5.11293 4.95314,-2.97581 10.39665,-5.06215 16.12111,-5.89513 8.1688,-1.17999 16.60172,-3.99023 24.78238,-1.76837 6.38914,2.10829 10.95733,7.53033 13.71466,13.44418 4.79819,9.19729 7.59938,19.28959 8.72085,29.59659 0.0466,0.98669 1.04796,1.66601 1.54687,2.12547 -0.43798,1.25538 -2.89499,1.21011 -2.031,2.9048 1.86592,1.27513 4.50254,0.27577 6.63619,0.61403 7.83498,-0.11604 15.63126,-1.35145 23.38017,-2.1727 5.40164,-0.36796 10.88631,0.0919 16.24225,-0.2406 2.06097,-1.89415 -2.29024,-2.4703 -3.55018,-3.08014 -4.54674,-1.57587 -9.74467,-3.0996 -12.26698,-7.62543 -4.18557,-7.97252 -5.62374,-17.16832 -9.77755,-25.14778 -5.62922,-9.06994 -12.6813,-17.26123 -17.16217,-26.97999 -5.31365,-9.77687 -8.4019,-20.46452 -10.3847,-31.32346 -2.57895,-11.71533 -8.1832,-22.76708 -8.38499,-34.91383 -0.44383,-17.11955 -3.2344,-34.157059 -1.72204,-51.304874 0.47221,-7.87783 1.64287,-15.718508 3.04496,-23.462725 0.67767,-6.287295 -0.96084,-12.506841 -1.53547,-18.741261 -1.13077,-2.147639 -2.54503,0.548949 -2.82215,1.830266 -2.56088,6.973519 -1.81556,14.517754 -2.67683,21.769916 -0.64871,7.96026 -1.43978,16.038206 -3.46341,23.715138 -1.03704,0.709045 -1.43408,-1.444813 -1.93654,-1.912923 -3.64467,-7.634839 -7.58833,-15.233705 -12.96537,-21.786065 -0.63987,-1.339443 -3.20266,-1.455662 -2.76311,0.44871 3.57302,8.380412 7.95466,16.445087 10.1822,25.288583 4.13095,13.817447 8.64826,27.939785 7.49425,42.560945 -0.0452,7.13903 -1.02774,14.31062 -0.49557,21.43201 0.63689,0.77098 0.70668,1.92949 -0.53137,2.07824 -1.33507,0.37088 -0.44722,-1.76459 -1.34613,-2.25536 -2.995,-3.99808 -6.94593,-7.3364 -9.04505,-11.9971 -1.38514,-2.85956 -3.22017,-5.71016 -2.60114,-9.03318 -0.0116,-6.61225 -17.07626,-1.53106 -15.55982,-7.99419 0.89143,-3.19778 -9.02871,-9.25749 -11.76094,-10.78086 -6.35491,-4.707136 -4.9052,-8.232351 -11.41849,-12.752816 -5.38105,-2.418992 -6.70021,-6.550576 -12.1538,-8.803287 C 101.6101,80.036795 93.767906,72.036391 92.858626,68.953269 90.750116,65.353177 89.212309,65.747132 85.879999,63.179077 79.890614,62.203336 87.621535,57.801781 81.688103,56.519221 78.125117,55.658253 72.372976,51.016748 71.072562,47.391509 68.112911,41.190134 68.374195,42.333447 64.826043,36.44534 62.043662,33.815588 61.124918,27.290287 59.689491,23.456357 57.675762,19.872425 56.327054,16.013083 54.954416,12.179559 54.67481,11.799169 54.139139,11.663018 53.702751,11.825314 z"
       id="path3017"
       inkscape:connector-curvature="0"
       transform="translate(0,796.36218)"
       sodipodi:nodetypes="cccccccccccccccccccccccccccccccccccccccccccccccccccccccccccccccccccccccccccccccccccccccccccccccccccccccccccc" />
    <path
       style="fill:#4d4d4d;fill-opacity:1;stroke:none"
       d="m 134.18721,33.682229 c -1.55048,1.750333 1.49288,3.007209 2.53789,3.96466 1.28047,0.598182 2.77412,2.598089 4.20457,1.620602 0.93766,-1.96128 -1.84454,-3.164609 -2.99927,-4.321789 -1.07089,-0.64496 -2.42948,-1.781059 -3.74319,-1.263473 z"
       id="path3025"
       inkscape:connector-curvature="0"
       transform="translate(0,796.36218)" />
  </g>
</svg>
