<?xml version="1.0" encoding="UTF-8" standalone="no"?>
<!-- Created with Inkscape (http://www.inkscape.org/) -->

<svg
   xmlns:dc="http://purl.org/dc/elements/1.1/"
   xmlns:cc="http://creativecommons.org/ns#"
   xmlns:rdf="http://www.w3.org/1999/02/22-rdf-syntax-ns#"
   xmlns:svg="http://www.w3.org/2000/svg"
   xmlns="http://www.w3.org/2000/svg"
   xmlns:sodipodi="http://sodipodi.sourceforge.net/DTD/sodipodi-0.dtd"
   xmlns:inkscape="http://www.inkscape.org/namespaces/inkscape"
   width="128"
   height="256"
   id="svg2"
   version="1.1"
   inkscape:version="0.48.5 r10040"
   sodipodi:docname="deadTree4.svg"
   inkscape:export-filename="C:\Users\narfman0\Desktop\deadTree4.png"
   inkscape:export-xdpi="90"
   inkscape:export-ydpi="90">
  <defs
     id="defs4" />
  <sodipodi:namedview
     id="base"
     pagecolor="#ffffff"
     bordercolor="#666666"
     borderopacity="1.0"
     inkscape:pageopacity="0.0"
     inkscape:pageshadow="2"
     inkscape:zoom="2.8401997"
     inkscape:cx="107.89891"
     inkscape:cy="133.27473"
     inkscape:document-units="px"
     inkscape:current-layer="layer1"
     showgrid="false"
     inkscape:window-width="1612"
     inkscape:window-height="957"
     inkscape:window-x="183"
     inkscape:window-y="25"
     inkscape:window-maximized="0" />
  <metadata
     id="metadata7">
    <rdf:RDF>
      <cc:Work
         rdf:about="">
        <dc:format>image/svg+xml</dc:format>
        <dc:type
           rdf:resource="http://purl.org/dc/dcmitype/StillImage" />
        <dc:title></dc:title>
      </cc:Work>
    </rdf:RDF>
  </metadata>
  <g
     inkscape:label="Layer 1"
     inkscape:groupmode="layer"
     id="layer1"
     transform="translate(0,-796.36218)">
    <path
       style="fill:#4d4d4d;fill-opacity:1;stroke:none"
       id="path2987"
       d="m 37.196908,251.28517 c 0.129101,-1.03928 0.210133,-2.08345 0.262394,-3.12916 0.02616,-0.87953 0.01599,-1.75194 0.157327,-2.62234 0.127362,-0.61833 0.182353,-1.246 0.212259,-1.87541 0.02764,-0.76044 0.206386,-1.50325 0.285018,-2.25959 0.07834,-0.78733 0.05229,-1.57864 0.139046,-2.36447 0.148444,-0.73206 0.19679,-1.47834 0.325646,-2.21258 0.159067,-0.64797 0.246904,-1.30681 0.293033,-1.97132 0.03158,-0.7334 0.212813,-1.44865 0.301672,-2.17623 0.156031,-0.67265 0.311591,-1.34456 0.547518,-1.99402 0.14555,-0.55598 0.28328,-1.11558 0.412955,-1.67647 0.125993,-0.67654 0.36774,-1.32692 0.601419,-1.97241 0.165163,-0.61815 0.372418,-1.22449 0.500731,-1.85222 0.09279,-0.6101 0.310969,-1.18764 0.404666,-1.79804 0.07489,-0.60832 0.078,-1.22242 0.08374,-1.83441 0.0033,-0.69894 8.5e-4,-1.39789 -2.71e-4,-2.09683 -0.06501,-0.62532 0.09975,-1.29103 -0.03242,-1.90755 -0.07218,-0.54304 -0.294811,-1.03798 -0.501284,-1.53941 -0.262713,-0.70306 -0.441278,-1.43463 -0.687687,-2.14292 -0.283451,-0.66236 -0.45563,-1.3707 -0.721054,-2.03785 -0.251699,-0.57803 -0.33864,-1.20169 -0.529999,-1.7975 -0.128168,-0.58379 -0.357025,-1.13149 -0.504119,-1.7105 -0.159089,-0.73054 -0.177662,-1.48018 -0.192312,-2.22464 0.0548,-0.58637 -0.09833,-1.13902 -0.197948,-1.71015 -0.115588,-0.71593 -0.136484,-1.44181 -0.150956,-2.1654 -0.0096,-0.71056 -0.0074,-1.42121 -0.0066,-2.13182 9.55e-4,-0.70444 0.0014,-1.40889 0.0017,-2.11333 2.06e-4,-0.70409 2.01e-4,-1.40819 2.06e-4,-2.11228 -1e-6,-0.46945 -6e-6,-0.93889 -9e-6,-1.40833 -1.4e-5,-1.74275 2.464602,-1.74276 2.464615,-2e-5 l 0,0 c 4e-6,0.46946 9e-6,0.93891 9e-6,1.40836 -4e-6,0.7044 0,1.40879 -2.05e-4,2.11318 -2.62e-4,0.70503 -7.24e-4,1.41006 -0.0017,2.11508 -7.49e-4,0.69351 -0.0029,1.38705 0.0061,2.08051 0.01166,0.59897 0.0246,1.20014 0.115286,1.79348 0.118605,0.69089 0.286324,1.37527 0.233638,2.08308 0.01065,0.56195 0.01776,1.12808 0.121125,1.68233 0.122558,0.52522 0.353843,1.0178 0.458231,1.54842 0.179274,0.56066 0.269223,1.1416 0.491994,1.68784 0.252733,0.70043 0.463892,1.4153 0.745384,2.1061 0.221797,0.66257 0.406902,1.33727 0.633366,1.99822 0.286003,0.69505 0.566853,1.3934 0.664297,2.14515 0.08348,0.74295 0.04842,1.489 0.05494,2.23599 0.0011,0.70808 0.0037,1.41616 1.62e-4,2.12423 -0.0071,0.73456 -0.01446,1.4717 -0.114645,2.20076 -0.106817,0.64892 -0.311849,1.26836 -0.426024,1.91366 -0.157702,0.73982 -0.387041,1.46005 -0.595722,2.18627 -0.200983,0.55444 -0.417168,1.10999 -0.518425,1.69256 -0.154066,0.65637 -0.308058,1.31354 -0.497262,1.95993 -0.173637,0.4758 -0.274322,0.96731 -0.417536,1.45397 -0.08584,0.68498 -0.249941,1.35918 -0.289163,2.04777 -0.05477,0.75747 -0.149414,1.51057 -0.328842,2.24982 -0.142152,0.67893 -0.14162,1.38581 -0.302495,2.06374 -0.117315,0.76354 -0.01525,1.55252 -0.133794,2.31878 -0.07582,0.7103 -0.234634,1.40892 -0.274311,2.12037 -0.03571,0.72466 -0.09908,1.44778 -0.242721,2.16018 -0.133033,0.77517 -0.08417,1.55795 -0.127077,2.34187 -0.05581,1.10654 -0.141411,2.21151 -0.278325,3.31125 -0.216161,1.72929 -2.661745,1.42359 -2.445583,-0.3057 z"
       inkscape:connector-curvature="0"
       transform="translate(0,796.36218)" />
    <path
       style="fill:#4d4d4d;fill-opacity:1;stroke:none"
       id="path2989"
       d="m 38.664229,194.00376 c -0.999446,-0.31254 -1.99466,-0.6372 -2.994875,-0.94792 -0.64893,-0.20107 -1.29793,-0.40308 -1.946072,-0.60792 -0.613633,-0.19582 -1.248337,-0.29501 -1.871749,-0.4554 -0.568444,-0.23585 -1.130995,-0.44429 -1.740861,-0.5325 -0.625587,-0.0703 -1.256282,-0.0697 -1.884959,-0.0729 -0.583822,-0.0502 -1.134077,0.022 -1.701077,0.13775 -0.584555,0.0577 -1.130263,0.26149 -1.700283,0.39041 -0.571784,0.14431 -1.112359,0.36408 -1.667193,0.55836 -0.7383,0.24052 -1.514338,0.28856 -2.284339,0.31783 -0.716152,0.0182 -1.432632,0.0139 -2.148944,0.0123 -0.777719,0.0178 -1.544933,0.005 -2.313543,-0.12003 -0.730062,-0.0843 -1.43074,-0.30843 -2.149948,-0.44826 -0.720819,-0.20639 -1.453493,-0.35197 -2.164798,-0.5895 -0.502611,-0.17303 -1.033065,-0.20926 -1.559504,-0.23703 -0.6913962,-0.10632 -1.3761674,-0.24848 -2.03728,-0.47807 -0.5782016,-0.15213 -1.1432966,-0.35202 -1.6890619,-0.59583 -0.4587139,-0.22725 -0.9649863,-0.31253 -1.4485844,-0.47613 -0.5428558,-0.11789 -1.0752074,-0.26687 -1.6115069,-0.41342 -0.566627,-0.21098 -1.1093392,-0.48283 -1.6848534,-0.66941 -0.7564483,-0.1776 -1.64933526,-0.5535 -1.73717382,-1.4685 -0.0284904,-0.29678 0.11926823,-0.58423 0.17890235,-0.87635 0.36545478,-0.71475 1.09289297,-1.01763 1.79248487,-1.30657 0.58095,-0.13113 1.0735231,-0.45153 1.6023939,-0.70418 0.6276697,-0.20391 1.2463276,-0.43775 1.8890537,-0.59371 0.6143198,-0.0754 1.2102474,-0.17189 1.8126092,-0.30918 0.5919748,-0.0664 1.1473414,-0.26892 1.7263292,-0.3981 0.7261082,-0.14197 1.4674672,-0.16094 2.2048002,-0.17526 0.711179,-0.009 1.422436,-0.006 2.133649,-0.005 0.704349,0.001 1.408698,0.002 2.113048,0.002 0.704079,2.1e-4 1.408158,2e-4 2.112237,2e-4 0.662456,-0.11957 1.326912,-0.21898 1.99706,-0.28288 0.590054,-0.17555 1.193729,-0.28234 1.804426,-0.35153 0.72346,-0.0663 1.450634,-0.0687 2.176499,-0.0723 0.707283,0.0926 1.420339,0.20266 2.113087,0.37531 0.548888,0.20517 1.133181,0.24477 1.700312,0.36972 0.521073,0.17097 1.060004,0.24143 1.604239,0.28109 0.733789,0.0169 1.457667,0.0338 2.183231,0.15287 0.649965,0.12712 1.30933,0.18088 1.969794,0.21124 0.685093,0.0242 1.370748,0.0229 2.056168,0.0232 0.586299,-3.8e-4 1.172597,-0.001 1.758895,-0.002 1.742745,-0.002 1.744981,2.46304 0.0022,2.46462 l 0,0 c -0.587338,5.3e-4 -1.174676,0.001 -1.762014,0.002 -0.723514,-2.6e-4 -1.447282,8.4e-4 -2.170418,-0.0259 -0.757612,-0.0359 -1.514083,-0.0987 -2.26003,-0.24211 -0.651215,-0.11086 -1.303688,-0.0943 -1.963129,-0.12628 -0.675468,-0.0522 -1.348439,-0.13768 -1.997068,-0.34287 -0.572814,-0.17507 -1.212681,-0.13561 -1.771329,-0.38798 -0.460673,-0.16361 -0.983852,-0.1354 -1.45193,-0.28832 -0.639562,0.003 -1.280224,0.004 -1.918007,0.0575 -0.626292,0.0667 -1.228571,0.22736 -1.844063,0.35559 -0.747393,0.0692 -1.481367,0.22031 -2.227957,0.29372 -0.704404,0 -1.408808,1e-5 -2.113212,-2e-4 -0.705349,-2.8e-4 -1.410697,-7.6e-4 -2.116045,-0.002 -0.694183,-0.001 -1.388406,-0.004 -2.082557,0.004 -0.57649,0.0108 -1.156443,0.0197 -1.7259886,0.11895 -0.5714879,0.1207 -1.1212913,0.33208 -1.7054975,0.39345 -0.5949276,0.13508 -1.1870353,0.25058 -1.7951001,0.30513 -0.4811143,0.10687 -0.9320613,0.3093 -1.4098938,0.4274 -0.5763981,0.25812 -1.1073927,0.62606 -1.7357891,0.76179 -0.095994,0.0348 -0.5139047,0.24011 -0.5239717,0.2144 -0.014973,-0.0382 0.058083,-0.0745 0.046763,-0.11394 -0.00501,-0.0174 -0.022393,0.0286 -0.03359,0.0429 0.020568,-0.21616 0.1044792,-0.4356 0.061705,-0.64849 -0.1521997,-0.75749 -1.1322595,-0.79635 0.087211,-0.47104 0.5298415,0.18085 1.0527696,0.3929 1.5587672,0.63092 0.5815731,0.16196 1.158996,0.31101 1.7455679,0.45459 0.5731533,0.1942 1.1771037,0.29414 1.7158297,0.58442 0.4359673,0.2573 0.9741285,0.3212 1.4428856,0.49478 0.4442475,0.15566 0.9007093,0.23812 1.3601743,0.34434 0.746864,0.0418 1.495597,0.11438 2.207418,0.36079 0.610973,0.20501 1.242954,0.31925 1.859727,0.50871 0.694498,0.13861 1.371137,0.3498 2.07575,0.43479 0.635671,0.10796 1.271224,0.0939 1.915811,0.0869 0.68412,0.001 1.368389,0.006 2.052376,-0.0106 0.52646,-0.0189 1.060025,-0.0362 1.569446,-0.18392 0.645017,-0.21956 1.275588,-0.47597 1.940561,-0.63567 0.582556,-0.12477 1.142975,-0.34268 1.740175,-0.3989 0.731191,-0.14925 1.45856,-0.23548 2.206981,-0.18752 0.749347,0.004 1.50126,0.006 2.245845,0.10143 0.684342,0.10884 1.355683,0.27588 1.981742,0.58186 0.670611,0.17287 1.356184,0.27454 2.014593,0.49683 0.636011,0.21276 1.282508,0.40024 1.922152,0.60033 1.044005,0.32654 2.084828,0.6602 3.126644,0.99313 1.631784,0.61192 0.7664,2.91961 -0.865384,2.30769 z"
       inkscape:connector-curvature="0"
       transform="translate(0,796.36218)" />
    <path
       style="fill:#4d4d4d;fill-opacity:1;stroke:none"
       id="path2991"
       d="m 37.548995,184.38846 c 0.124116,-1.09383 0.194022,-2.189 0.3787,-3.2749 0.21562,-0.76034 0.455513,-1.51367 0.705004,-2.26362 0.215191,-0.60222 0.413332,-1.21332 0.638315,-1.8123 0.137664,-0.58624 0.629151,-0.98296 0.886512,-1.49822 0.19946,-0.40273 0.612041,-0.69317 0.738366,-1.12916 0.101876,-0.5545 0.258424,-1.096 0.354519,-1.65209 0.07682,-0.62301 0.294658,-1.21332 0.388871,-1.83368 0.07489,-0.61005 0.07863,-1.22582 0.08465,-1.83953 -0.02339,-0.6817 0.176554,-1.3405 0.266733,-2.01101 0.03022,-0.69281 0.201512,-1.36545 0.311338,-2.04751 0.08055,-0.69683 0.102042,-1.38948 0.25034,-2.07704 0.138865,-0.55027 0.180104,-1.11575 0.207019,-1.68042 -0.0233,-0.71618 0.06433,-1.41233 0.205896,-2.11219 0.113421,-0.56919 0.13687,-1.15004 0.154997,-1.72846 0.01538,-0.68621 0.01324,-1.37266 0.01278,-2.059 -8.91e-4,-0.70489 -0.0016,-1.40978 -0.0019,-2.11466 -3.05e-4,-0.7045 -3.17e-4,-1.40899 -3.33e-4,-2.11348 0.0053,-0.74712 -0.02994,-1.49326 0.05335,-2.23635 0.09846,-0.67294 0.290649,-1.32249 0.456606,-1.97998 0.149758,-0.63724 0.145334,-1.29325 0.245533,-1.9373 0.12169,-0.70719 0.295561,-1.38183 0.618651,-2.02407 0.216327,-0.41689 0.417738,-0.85006 0.574055,-1.29445 0.06884,-0.40243 0.224722,-0.87504 0.122402,-1.28087 -0.0848,0.36557 0.35724,0.38397 -0.249711,0.32112 -0.637115,-0.0445 -1.276608,-0.0327 -1.91481,-0.0289 -0.709165,0.005 -1.418344,0.008 -2.127527,0.01 -0.62554,0.0653 -1.29153,-0.10007 -1.908285,0.0321 -0.630488,0.15037 -1.272091,0.2296 -1.917388,0.27818 -0.675099,0.0434 -1.336108,0.20578 -2.008235,0.29088 -0.693976,0.026 -1.368698,0.12279 -2.050516,0.24453 -0.614642,0.0534 -1.19272,0.1853 -1.759017,0.42049 -0.560563,0.19693 -1.119563,0.39456 -1.666318,0.62899 -0.424994,0.28766 -0.875001,0.5371 -1.305492,0.81992 -0.550098,0.33784 -1.085358,0.69838 -1.636314,1.03675 -0.632205,0.30963 -1.253078,0.64087 -1.880739,0.96063 -0.547829,0.24096 -1.087156,0.49884 -1.620017,0.77079 -0.449479,0.15981 -0.826548,0.43597 -1.209517,0.7116 -0.50637,0.36945 -0.906153,0.85502 -1.345306,1.29724 -0.515634,0.68349 -1.250104,1.0137 -2.06092,1.20053 -1.236199,0.21662 -1.909346,-0.12751 -2.583406,-1.16978 -0.150019,-0.0787 -0.409622,-0.0754 -0.59608,-0.0961 -0.634642,-0.0493 -1.272051,-0.0414 -1.908107,-0.0399 -0.551706,0.11947 -1.133386,0.28564 -1.69155,0.077 -0.216633,-0.081 -0.400847,-0.23081 -0.60127,-0.34621 -0.882505,-0.92449 -0.664702,-2.04413 -0.215002,-3.10921 0.296384,-0.70253 0.749339,-1.30349 1.197993,-1.911 0.455823,-0.55363 0.917032,-1.09158 1.490016,-1.52529 0.461031,-0.35676 0.96134,-0.65795 1.45029,-0.97406 0.559926,-0.3306 1.133651,-0.62724 1.730434,-0.88713 0.55478,-0.15021 1.016939,-0.48146 1.521283,-0.73883 0.456801,-0.32872 0.997741,-0.49657 1.509669,-0.71657 0.53135,-0.23785 1.074909,-0.43362 1.623167,-0.63257 0.634356,-0.24333 1.309468,-0.31597 1.956959,-0.50818 0.704968,-0.21691 1.439484,-0.28074 2.171991,-0.31864 0.667583,0.0285 1.31422,-0.12402 1.970044,-0.22202 0.600406,-0.21821 1.22336,-0.34352 1.855161,-0.42472 0.576964,-0.19228 1.17486,-0.29361 1.777342,-0.36169 0.591092,-0.0507 1.161305,-0.22553 1.749933,-0.31294 0.723602,-0.0911 1.453872,-0.0998 2.182093,-0.10742 0.354517,-0.0201 0.712553,0.0194 1.066808,-0.002 0.237194,-0.0146 0.128011,-0.06 -0.02758,-0.0196 -0.07304,0.0279 -0.293987,0.29694 -0.306505,0.3301 -0.01318,0.0349 0.0182,0.12077 -0.0177,0.11056 -0.03954,-0.0113 -0.04323,-0.07 -0.06484,-0.10492 0.0067,0.0252 0.04225,0.0894 0.02019,0.0756 -0.06974,-0.0439 -0.113971,-0.11934 -0.175979,-0.17361 -0.170287,-0.14902 -0.420259,-0.24872 -0.619666,-0.36049 -0.450938,-0.23049 -0.906964,-0.44759 -1.376541,-0.64078 -0.673383,-0.14582 -1.264739,-0.50273 -1.890567,-0.76951 -0.568596,-0.23792 -1.165886,-0.3745 -1.755739,-0.54436 -0.69828,-0.30655 -1.42184,-0.53924 -2.143709,-0.78163 -0.684451,-0.18686 -1.373132,-0.36551 -2.044218,-0.59703 -0.596544,-0.19747 -1.163656,-0.46489 -1.748744,-0.69283 -0.885298,-0.31955 -1.754396,-0.69313 -2.605833,-1.09468 -0.824326,-0.32553 -1.566923,-0.81705 -2.363996,-1.19502 -0.490833,-0.29266 -1.00066,-0.56088 -1.544006,-0.74198 -0.712871,-0.27076 -1.275655,-0.78774 -1.789557,-1.33372 -0.483228,-0.55954 -0.894726,-1.16239 -1.179614,-1.84517 -0.272266,-0.49646 -0.40892,-1.04546 -0.612666,-1.56971 -0.234577,-0.38026 -0.437617,-0.77941 -0.678973,-1.15895 -0.262937,-0.51136 -0.665386,-0.92992 -1.024217,-1.3741 -0.384483,-0.33205 -0.791281,-0.64768 -1.175794,-0.98518 -0.481721,-0.33968 -0.865414,-0.79416 -1.3491531,-1.13029 -0.5837604,-0.33668 -1.1034088,-0.7801 -1.6859838,-1.11635 -0.4931713,-0.35504 -1.0392921,-0.61329 -1.5361317,-0.96346 -0.3899676,-0.2704 -0.8155406,-0.48035 -1.2266243,-0.71571 -0.4869815,-0.22503 -0.9877556,-0.3965 -1.4593695,-0.66166 -0.7628919,-0.43128 -1.2425124,-1.00057 -0.848889,-2.04049 0.2587231,-0.68352 0.9165611,-0.63415 1.4493087,-0.69906 0.6926958,0.0426 1.3500911,0.23691 2.0126381,0.42481 0.57077,0.0851 1.108357,0.30075 1.6704863,0.42213 0.6589804,0.0714 1.2448621,0.38989 1.860216,0.60612 0.5625873,0.11145 1.0958413,0.32914 1.6556003,0.45122 0.656339,0.12572 1.227087,0.48838 1.861008,0.67556 0.670975,0.27841 1.372663,0.45643 2.039038,0.74793 0.529843,0.22479 1.062815,0.45313 1.608171,0.63945 0.628526,0.11041 1.176102,0.45641 1.77476,0.64751 0.742758,0.28468 1.506975,0.50109 2.245624,0.79756 0.702983,0.29657 1.407944,0.58705 2.099447,0.90964 0.488175,0.25245 0.928195,0.6118 1.436066,0.82473 0.671999,0.29689 1.312111,0.65389 1.9453,1.02569 0.631128,0.29386 1.237445,0.62204 1.82502,0.99568 0.657248,0.30056 1.146864,0.84224 1.534855,1.43449 0.361391,0.44701 0.650235,0.94326 0.943205,1.43646 0.245207,0.39458 0.604427,0.62622 0.919983,0.96362 0.289988,0.33711 0.675592,0.53897 1.056445,0.75734 0.392961,0.3386 0.861781,0.50772 1.325928,0.71978 0.466046,0.12746 0.902338,0.34175 1.373463,0.45235 0.684416,0.13067 1.356497,0.3225 2.021518,0.52943 0.640475,0.14116 1.271794,0.3047 1.905507,0.47477 0.591679,0.0851 1.169133,0.21586 1.749455,0.35914 0.619698,0.12569 1.214553,0.35956 1.786065,0.62579 0.57438,0.23641 1.121458,0.54916 1.64265,0.88616 0.273192,0.19247 0.590039,0.29191 0.890747,0.43219 1.571105,0.75418 0.504527,2.97606 -1.066578,2.22187 l 0,0 c -0.39771,-0.20264 -0.836541,-0.3256 -1.194389,-0.60544 -0.398357,-0.28948 -0.863748,-0.50564 -1.313172,-0.70069 -0.429083,-0.19989 -0.869988,-0.38431 -1.338731,-0.46777 -0.59793,-0.14891 -1.190893,-0.26883 -1.799209,-0.37203 -0.663548,-0.1804 -1.325107,-0.34267 -1.994605,-0.50067 -0.621774,-0.19347 -1.249,-0.37343 -1.88978,-0.49242 -0.614748,-0.15989 -1.199292,-0.40211 -1.800645,-0.60256 -0.529559,-0.24375 -1.089177,-0.44784 -1.538921,-0.83035 -0.60355,-0.35525 -1.21037,-0.71498 -1.666501,-1.2593 -0.115426,-0.1928 -0.424849,-0.37541 -0.563593,-0.51295 -0.24815,-0.246 -0.415113,-0.55311 -0.628559,-0.82624 -0.285878,-0.48979 -0.581528,-0.96497 -0.92958,-1.41365 -0.07829,-0.3108 -0.509802,-0.49179 -0.749242,-0.63034 -0.563151,-0.35895 -1.150608,-0.65873 -1.752187,-0.95106 -0.564376,-0.33369 -1.134002,-0.65386 -1.735777,-0.91547 -0.496545,-0.24061 -0.97365,-0.52678 -1.4369,-0.82511 -0.654151,-0.30531 -1.320719,-0.58084 -1.986445,-0.86032 -0.69796,-0.28994 -1.431713,-0.47418 -2.133187,-0.75496 -0.594197,-0.21772 -1.153829,-0.51578 -1.77846,-0.64881 -0.610941,-0.21982 -1.214074,-0.46372 -1.809822,-0.72082 -0.559337,-0.27871 -1.193152,-0.36467 -1.754869,-0.63906 -0.569391,-0.18431 -1.09262,-0.46405 -1.66893,-0.6237 -0.655941,-0.15267 -1.2875733,-0.383 -1.9434588,-0.5353 -0.5180641,-0.18897 -1.0108008,-0.45872 -1.5658471,-0.52058 -0.607735,-0.1395 -1.1908474,-0.35457 -1.8071749,-0.45691 -0.4728145,-0.13548 -0.9296895,-0.29039 -1.4239045,-0.33184 0.9473464,-0.29428 1.2897576,-1.24026 0.485732,-2.01174 -0.014511,-0.0139 0.029211,0.0277 0.043817,0.0415 0.076578,0.0453 0.1531552,0.0907 0.2297328,0.136 0.3952265,0.34272 1.0453036,0.29823 1.4445155,0.65278 0.4640008,0.30272 0.9939028,0.50908 1.4342269,0.85352 0.3946264,0.34826 0.9515153,0.47509 1.3428526,0.83422 0.634508,0.3909 1.2247104,0.84801 1.8632344,1.23385 0.539964,0.40151 1.009441,0.87653 1.542302,1.28614 0.474472,0.43878 1.027544,0.79381 1.456321,1.28111 0.412473,0.52008 0.87826,1.0092 1.186967,1.6026 0.321202,0.51362 0.607684,1.04411 0.890619,1.57942 0.202956,0.52222 0.340739,1.0648 0.608952,1.56021 0.135165,0.41806 0.450527,0.74221 0.708709,1.08843 0.215201,0.26078 0.48613,0.50869 0.778746,0.66569 0.627278,0.22439 1.241281,0.49842 1.807636,0.85145 0.785858,0.38656 1.530871,0.85294 2.344371,1.18561 0.796817,0.38019 1.614379,0.72593 2.444705,1.02521 0.5659,0.22046 1.110559,0.48126 1.68776,0.66999 0.644654,0.25168 1.337748,0.37 1.996065,0.58028 0.690749,0.23257 1.390812,0.44352 2.052456,0.75291 0.686486,0.20747 1.387041,0.36576 2.049158,0.65112 0.60984,0.27094 1.191059,0.60011 1.849164,0.75184 0.5638,0.23625 1.110799,0.50145 1.654886,0.77766 0.625357,0.36259 1.238357,0.73415 1.668015,1.33571 0.507111,0.96404 0.632733,1.96048 -0.161753,2.82874 -0.174371,0.11784 -0.334632,0.25989 -0.523114,0.35351 -0.640923,0.31836 -1.370821,0.21006 -2.057087,0.23015 -0.618234,0.006 -1.238211,0.011 -1.853168,0.082 -0.616574,0.0868 -1.211912,0.28642 -1.835022,0.32379 -0.593817,0.0627 -1.163549,0.21129 -1.741599,0.3575 -0.616215,0.0734 -1.200603,0.25168 -1.7975,0.41683 -0.733543,0.10857 -1.462099,0.27015 -2.208324,0.24571 -0.537975,0.0264 -1.079397,0.0615 -1.597656,0.22067 -0.607365,0.17894 -1.232723,0.26255 -1.832028,0.46759 -0.500583,0.17483 -0.99541,0.34518 -1.47472,0.57447 -0.473932,0.20314 -0.963357,0.35451 -1.386411,0.65959 -0.549952,0.25607 -1.040059,0.64504 -1.640739,0.79417 -0.475374,0.20208 -0.929602,0.43483 -1.373599,0.69715 -0.460624,0.2938 -0.928719,0.57865 -1.360681,0.91364 -0.404369,0.17988 -0.596412,0.71592 -0.934207,0.98263 -0.348132,0.46622 -0.708331,0.91711 -0.932925,1.46181 -0.353166,0.6057 0.03762,0.59013 -0.507094,0.14909 -0.191876,-0.0649 -0.261809,-0.13091 -0.446373,-0.0795 -0.02146,0.006 0.04359,0.0153 0.06567,0.0124 0.10082,-0.0136 0.199178,-0.0416 0.298931,-0.0615 0.498212,-0.0997 0.280808,-0.062 0.847912,-0.12747 0.741738,-0.002 1.485455,-0.0104 2.224743,0.0596 0.926185,0.12603 1.794075,0.39482 2.354543,1.20263 0.04539,0.0702 0.12282,0.12806 0.136177,0.21058 0.03791,0.23418 -0.183832,-0.26206 -0.406781,-0.1129 -0.07538,0.0504 0.767523,0.0491 0.272072,-2.6e-4 0.392702,-0.0653 0.586507,-0.18091 0.833845,-0.53579 0.53956,-0.52851 1.019832,-1.12399 1.649277,-1.55463 0.481494,-0.34381 0.969726,-0.69102 1.525991,-0.90413 0.535066,-0.27218 1.077246,-0.5307 1.625764,-0.7737 0.569314,-0.28585 1.126296,-0.5964 1.704911,-0.86239 0.530849,-0.32554 1.048693,-0.67009 1.576704,-0.99897 0.556716,-0.36263 1.126861,-0.69992 1.702888,-1.0307 0.552563,-0.22766 1.110424,-0.44273 1.676495,-0.63322 0.729633,-0.30022 1.479528,-0.49553 2.267045,-0.56891 0.722816,-0.12899 1.442891,-0.23595 2.177682,-0.26382 0.713445,-0.0879 1.414056,-0.2679 2.132872,-0.30327 0.595914,-0.0428 1.183621,-0.13043 1.766771,-0.2624 0.742603,-0.0833 1.488244,-0.048 2.234873,-0.0546 0.706074,-0.002 1.412145,-0.004 2.118201,-0.01 0.748214,-0.004 1.498523,-0.0188 2.244559,0.0491 1.147855,0.1619 2.133208,0.6252 2.386352,1.87153 0.05745,0.80596 -0.01212,1.6166 -0.263234,2.38941 -0.210972,0.55426 -0.448965,1.10299 -0.72607,1.62658 -0.266651,0.24869 -0.208709,0.93543 -0.349859,1.26029 -0.158382,0.6896 -0.05092,1.43747 -0.284623,2.11962 -0.145052,0.56692 -0.314508,1.12425 -0.403012,1.70435 -0.132005,0.61548 0.03308,1.28018 -0.0309,1.90445 1.6e-5,0.70408 2.7e-5,1.40816 3.32e-4,2.11224 3.7e-4,0.70477 0.0011,1.40953 0.0019,2.1143 4.78e-4,0.7131 0.0026,1.42632 -0.01403,2.13927 -0.02322,0.71615 -0.05973,1.43439 -0.202672,2.13851 -0.11744,0.58055 -0.187076,1.14665 -0.159898,1.74367 -0.03494,0.70205 -0.09282,1.40452 -0.261519,2.08923 -0.144412,0.63967 -0.115872,1.29605 -0.224841,1.94353 -0.108573,0.66277 -0.274468,1.31409 -0.302352,1.9876 -0.07929,0.56785 -0.24406,1.12669 -0.243909,1.7 -0.0074,0.73409 -0.0155,1.47065 -0.114682,2.19934 -0.102808,0.63484 -0.301417,1.24318 -0.396121,1.87708 -0.129229,0.72277 -0.306997,1.43751 -0.49586,2.14583 -0.230895,0.5338 -0.547261,0.99447 -0.897971,1.45401 -0.239704,0.39089 -0.560457,0.72567 -0.720329,1.15688 -0.241062,0.53832 -0.378439,1.13549 -0.592284,1.68567 -0.210428,0.63192 -0.400204,1.26937 -0.61408,1.90037 -0.18019,1.049 -0.235005,2.10918 -0.362523,3.1655 -0.216161,1.72929 -2.661745,1.42359 -2.445584,-0.3057 z"
       inkscape:connector-curvature="0"
       transform="translate(0,796.36218)" />
    <path
       style="fill:#4d4d4d;fill-opacity:1;stroke:none"
       id="path2993"
       d="m 44.89121,131.72813 c 0,-1.07341 0,-2.14681 0,-3.22021 0,-0.79009 0,-1.58018 0,-2.37027 0,-0.70384 0,-1.40768 0,-2.11152 0,-0.70282 0,-1.40563 0,-2.10844 -0.01369,-0.7623 0.173134,-1.50831 0.264266,-2.2619 0.05619,-0.71185 0.06906,-1.41642 0.214118,-2.11772 0.136545,-0.55349 0.178813,-1.12137 0.205967,-1.68874 0.107717,-0.77455 0.235398,-1.54482 0.466502,-2.29255 0.126555,-0.57117 0.2852,-1.13074 0.442333,-1.69446 0.167348,-0.57073 0.33688,-1.14711 0.535251,-1.70879 0.167352,-0.51005 0.356028,-1.01299 0.519504,-1.52475 0.139588,-0.49705 0.349363,-0.96144 0.436523,-1.47275 0.133833,-0.63821 0.465095,-1.20442 0.633617,-1.83062 0.07502,-0.59484 0.273903,-1.16195 0.390639,-1.74814 0.09616,-0.57924 0.104749,-1.16802 0.114914,-1.75366 0.0074,-0.69443 0.0047,-1.38892 0.0035,-2.08337 -0.0012,-0.705264 -0.0017,-1.410529 -0.002,-2.115794 -0.04131,-0.155155 0.109784,-1.297528 -0.08911,-1.161125 -0.206419,-0.246257 -0.835535,-0.368853 -1.13103,-0.473602 -0.713291,-0.292438 -1.444135,-0.536497 -2.162308,-0.818641 -0.844032,-0.284394 -1.705582,-0.524405 -2.569501,-0.742616 -0.702528,-0.154726 -1.385645,-0.371388 -2.098528,-0.477736 -0.715263,-0.0392 -1.412604,-0.192207 -2.094314,-0.405689 -0.545693,-0.213789 -1.120279,-0.298534 -1.700187,-0.347983 -0.706118,0.0039 -1.393013,-0.08588 -2.083297,-0.226133 -0.568545,-0.113047 -1.148753,-0.135798 -1.726471,-0.153581 -0.669545,0.0095 -1.314989,-0.19001 -1.974064,-0.27915 -0.662564,-0.02306 -1.305963,-0.129545 -1.952349,-0.270464 -0.589293,-0.05929 -1.143324,-0.272995 -1.719162,-0.395201 -0.614591,-0.104913 -1.237594,-0.09131 -1.854042,-0.176986 -0.113091,-0.01777 -1.164284,-0.243151 -1.161756,-0.288976 0.137671,-2.495366 -0.352538,-2.295755 0.808377,-2.457096 0.712715,-0.05274 1.428381,-0.03309 2.14237,-0.02661 0.704295,0.0069 1.408621,0.0092 2.112945,0.0106 0.704208,0.0011 1.408418,9.62e-4 2.112627,9.51e-4 0.704175,-4e-5 1.408351,-8.3e-5 2.112526,-1.06e-4 0.704175,-1.9e-5 1.408351,-2e-5 2.112526,-2.1e-5 0.704176,-10e-7 1.408352,0 2.112528,0 0.704175,0 1.408351,0 2.112527,0 0.744871,-0.04698 1.469036,0.03674 2.197189,0.183863 0.615464,0.122885 1.243053,0.121183 1.861514,0.217826 0.558392,0.14871 1.126738,0.227583 1.701854,0.268427 0.676381,-0.02272 1.327501,0.151666 1.987153,0.267978 0.110993,0.02152 0.903622,0.114692 0.926072,0.05947 0.04869,-0.119756 -0.389468,0.149361 0.03884,-0.08128 -0.248774,0.04815 0.12437,-0.45149 0.181242,-0.621741 0.248747,-0.426641 0.382412,-0.863303 0.444601,-1.347652 0.04274,-0.678265 0.05251,-1.347315 0.184849,-2.016192 0.100037,-0.644205 0.248277,-1.276112 0.39045,-1.912005 0.09569,-0.696945 0.270625,-1.377612 0.522128,-2.033822 0.222368,-0.425058 0.287707,-0.886101 0.330237,-1.356575 0.04315,-0.648411 0.03996,-1.298777 0.04047,-1.948287 0.05991,-0.579558 -0.09627,-1.123956 -0.196821,-1.687864 -0.177084,-0.562005 -0.286235,-1.1369 -0.47726,-1.693619 -0.146931,-0.600057 -0.387049,-1.1654 -0.542183,-1.763346 -0.271889,-0.569938 -0.392019,-1.189212 -0.47415,-1.81027 -0.07513,-0.728592 -0.0755,-1.462012 -0.07846,-2.193634 -6.31e-4,-0.707298 0.0016,-1.414595 0.0026,-2.121892 -0.04603,-0.744747 0.03793,-1.46877 0.185135,-2.196755 0.109907,-0.646254 0.351496,-1.263723 0.628435,-1.854768 0.182809,-0.563058 0.512861,-1.058747 0.746583,-1.597988 0.195542,-0.537078 0.422974,-1.064113 0.671495,-1.579272 0.28737,-0.36894 0.451872,-0.71626 0.522418,-1.168381 -0.03215,-0.321642 -0.199085,-0.642817 -0.308203,-0.95052 -0.199379,-0.497607 -0.31139,-1.047419 -0.53339,-1.534349 -0.294102,-0.657391 -0.398775,-1.36597 -0.461508,-2.076683 -0.09402,-0.765106 -0.01288,-1.51049 0.138168,-2.260348 0.0959,-0.567677 0.337395,-1.090614 0.435397,-1.658203 0.01014,-0.08281 0.02029,-0.165612 0.03043,-0.248418 0.223593,-1.728344 2.66784,-1.412135 2.444247,0.316208 l 0,0 c -0.01679,0.125398 -0.03359,0.250795 -0.05038,0.376193 -0.110205,0.581683 -0.315391,1.128585 -0.44366,1.701168 -0.105612,0.5237 -0.180096,1.02519 -0.09852,1.563779 0.03886,0.477621 0.0946,0.952258 0.302189,1.391301 0.196593,0.533588 0.364008,1.078976 0.562057,1.611704 0.24978,0.718677 0.508941,1.419131 0.409846,2.198952 -0.119767,0.636153 -0.291496,1.308882 -0.729515,1.808951 -0.239743,0.496435 -0.456178,1.003376 -0.644797,1.522101 -0.251644,0.545378 -0.563288,1.05916 -0.761122,1.629593 -0.194327,0.414664 -0.377863,0.84105 -0.444466,1.297538 -0.11543,0.570651 -0.184628,1.124747 -0.13623,1.711917 -0.0011,0.702775 -0.0032,1.405551 -0.0026,2.108328 0.0025,0.630922 0.0013,1.263254 0.05874,1.892127 0.0636,0.530908 0.209983,1.02691 0.419437,1.520388 0.126509,0.532734 0.366352,1.030431 0.483786,1.566316 0.231294,0.676958 0.378536,1.373822 0.572367,2.062177 0.12335,0.70276 0.296109,1.398811 0.234568,2.119567 -6.06e-4,0.72707 0.0022,1.455205 -0.05165,2.180746 -0.07034,0.709332 -0.188576,1.41407 -0.504944,2.061114 -0.261767,0.494023 -0.265614,1.103418 -0.396157,1.634955 -0.139697,0.619518 -0.285336,1.23296 -0.379706,1.861723 -0.129506,0.615103 -0.0783,1.241968 -0.159149,1.865664 -0.09427,0.648319 -0.235767,1.294567 -0.574768,1.8649 -0.299217,0.77498 -0.666434,1.550204 -1.416278,1.982532 -0.841764,0.392621 -1.578074,0.401567 -2.473903,0.230729 -0.578425,-0.104216 -1.139433,-0.264862 -1.733733,-0.23619 -0.658881,-0.04922 -1.314609,-0.129653 -1.954667,-0.300107 -0.619143,-0.153017 -1.298476,-0.03697 -1.917285,-0.22843 -0.569728,-0.115158 -1.122776,-0.184216 -1.70898,-0.135024 -0.704176,0 -1.408352,0 -2.112528,-1e-6 -0.704174,0 -1.408348,0 -2.112522,0 -0.704151,1e-6 -1.408301,3e-6 -2.112452,2.2e-5 -0.704189,2.2e-5 -1.408379,6.5e-5 -2.112568,1.06e-4 -0.705858,1e-5 -1.411716,1.02e-4 -2.117574,-9.56e-4 -0.710141,-0.0014 -1.420285,-0.0038 -2.130398,-0.0107 -0.609018,-0.0055 -1.218807,-0.01959 -1.827409,0.0093 -0.897489,0.05387 -0.08277,0.04919 -0.196272,-2.282651 -7.83e-4,-0.01609 -0.06327,-0.01162 -0.04781,-0.0071 0.228419,0.06684 0.465561,0.09733 0.696131,0.155273 0.6448,0.147243 1.34739,0.0068 1.991023,0.203006 0.575469,0.128978 1.127076,0.331845 1.716167,0.394545 0.586342,0.127965 1.162153,0.215211 1.765073,0.237128 0.573045,0.0807 1.135139,0.247104 1.713302,0.257076 0.716625,0.02282 1.435417,0.05865 2.140008,0.201724 0.601806,0.12228 1.191654,0.191754 1.809614,0.186357 0.766013,0.06956 1.527106,0.187715 2.250608,0.460952 0.548023,0.197441 1.12359,0.262846 1.700561,0.311644 0.790759,0.123768 1.553851,0.34436 2.331885,0.525176 0.965883,0.246758 1.931049,0.511041 2.871766,0.840571 0.687566,0.276768 1.391948,0.511304 2.078376,0.787077 0.885744,0.315816 1.739802,0.644792 2.344443,1.411164 0.536399,0.887286 0.555709,1.545892 0.514879,2.544928 2.62e-4,0.704247 7.07e-4,1.408494 0.0019,2.11274 0.0011,0.710282 0.004,1.420592 -0.0039,2.130852 -0.01322,0.73708 -0.03094,1.47777 -0.164699,2.2049 -0.134697,0.64497 -0.336793,1.27063 -0.433346,1.9236 -0.159757,0.54997 -0.387372,1.06728 -0.580993,1.60402 -0.117922,0.61993 -0.333936,1.19796 -0.518867,1.79679 -0.181146,0.54392 -0.375751,1.07949 -0.554486,1.62423 -0.213323,0.47318 -0.306932,1.01809 -0.470079,1.51021 -0.166202,0.58495 -0.323432,1.16463 -0.461025,1.75755 -0.172202,0.54988 -0.252526,1.11485 -0.358355,1.68147 -0.03485,0.69814 -0.09248,1.39651 -0.256364,2.0782 -0.137284,0.62773 -0.09746,1.26951 -0.179002,1.90693 -0.08081,0.65453 -0.240225,1.30342 -0.246034,1.96267 0,0.70281 0,1.40562 0,2.10844 0,0.70384 0,1.40768 0,2.11152 0,0.79009 0,1.58018 0,2.37027 0,1.0734 0,2.1468 0,3.22021 0,1.74274 -2.464615,1.74274 -2.464615,0 z"
       inkscape:connector-curvature="0"
       transform="translate(0,796.36218)" />
    <path
       style="fill:#4d4d4d;fill-opacity:1;stroke:none"
       id="path2995"
       d="m 52.323413,50.505066 c -1.010878,-0.109208 -1.994302,-0.377554 -2.998929,-0.530223 -0.697084,-0.09831 -1.401468,-0.114624 -2.10422,-0.124146 -0.641426,-0.0559 -1.256699,0.03416 -1.885034,0.141448 -0.358094,0.181507 -0.841431,0.194542 -1.141556,0.482081 -0.525158,0.336551 -1.105803,0.593316 -1.687058,0.819256 -0.624293,0.294336 -1.298006,0.452086 -1.956153,0.65017 -0.513194,0.262526 -1.06418,0.427035 -1.59422,0.6487 -0.02261,0.01864 -0.05488,0.02963 -0.06783,0.05592 -0.01184,0.02405 0.08884,-0.02355 0.08041,0.0019 -0.07747,0.233837 -0.263093,0.525246 -0.375257,0.733176 -0.286331,0.529217 -0.473928,1.102405 -0.713162,1.65236 -0.253891,0.532477 -0.569143,1.028998 -0.814731,1.566934 -0.218821,0.649701 -0.57042,1.239196 -0.987246,1.77891 -0.28432,0.365569 -0.494295,0.777689 -0.728943,1.174993 -0.289265,0.439567 -0.585225,1.045062 -1.079005,1.296553 -0.214127,0.10906 -0.45443,0.156433 -0.681645,0.234649 -0.323187,-0.09287 -0.681965,-0.104372 -0.969561,-0.278626 -0.855735,-0.518492 -0.699874,-1.797434 -0.492094,-2.585543 0.180097,-0.581888 0.417036,-1.142268 0.614015,-1.717759 0.102756,-0.59308 0.4668,-1.076622 0.707303,-1.611347 0.223459,-0.467388 0.369155,-0.962604 0.550486,-1.446468 0.205544,-0.502972 0.287047,-1.038741 0.452565,-1.555839 0.02141,-0.07723 0.03737,-0.156188 0.06422,-0.231704 0.368523,-1.036552 -0.03789,-0.138123 0.267102,0.327401 0.117736,0.179702 0.329295,0.276011 0.493943,0.414017 0.847378,0.112427 -0.609821,0.174789 -0.758511,0.225367 -0.561372,0.232155 -1.195772,0.191431 -1.76646,0.363019 -0.537166,0.108272 -1.045289,0.285162 -1.56562,0.449828 -0.62691,0.239932 -1.25864,0.472522 -1.900289,0.670897 -0.528176,0.201391 -1.030389,0.454622 -1.552241,0.669844 -0.555277,0.217162 -1.12444,0.389268 -1.688795,0.581817 -0.63122,0.168782 -1.251144,0.357959 -1.876372,0.5466 -0.175602,0.04171 -1.341115,0.328275 -1.462643,0.19379 -1.351832,-1.495949 -1.275262,-1.217785 -0.670058,-2.254586 0.489966,-0.389381 0.995134,-0.761378 1.539789,-1.06947 0.567585,-0.252536 1.136804,-0.497587 1.715526,-0.724958 0.549356,-0.216829 1.172009,-0.286738 1.696501,-0.567516 0.594217,-0.298924 1.250933,-0.418153 1.886992,-0.593676 0.678493,-0.119525 1.327203,-0.321929 1.972773,-0.556446 0.755773,-0.226606 1.505096,-0.474644 2.276531,-0.644166 0.736719,-0.137757 1.458542,-0.328736 2.201968,-0.435148 0.492946,-0.148832 0.99256,-0.249945 1.475736,-0.425471 0.01476,-0.0145 0.05007,-0.02363 0.04429,-0.04349 -0.01052,-0.0361 -0.121011,0.05725 -0.110827,0.02105 0.06183,-0.219767 0.269718,-0.5377 0.370263,-0.724258 0.262412,-0.470567 0.352418,-1.009677 0.496586,-1.524229 0.153496,-0.646967 0.20603,-1.304727 0.369015,-1.950299 0.358666,-1.137694 0.556866,-1.030239 2.455865,-0.504305 0.346328,0.09592 0.160554,1.274215 0.126147,1.512183 -0.128853,0.76315 -0.366802,1.505511 -0.654691,2.222412 -0.301733,0.828912 -0.0121,0.404585 -0.131532,0.150463 -0.293721,-0.624947 -0.315938,-0.571611 -0.765644,-0.764555 0.20678,-0.101709 0.635413,-0.240489 0.923885,-0.403924 0.730573,-0.382238 1.482083,-0.715777 2.274267,-0.946024 0.639447,-0.287119 1.316429,-0.43902 2.007853,-0.529944 0.581056,-0.03862 1.148925,-0.169575 1.696136,-0.362245 0.712446,-0.260714 1.465074,-0.34209 2.216702,-0.388843 0.720755,-0.0326 1.442499,-0.029 2.163804,-0.02837 0.688529,-0.02813 1.353082,0.177581 2.029588,0.270486 0.550818,0.0174 1.08189,0.14872 1.615835,0.272098 1.697859,0.392985 1.142094,2.794121 -0.555766,2.401136 l 0,0 c -0.466367,-0.108109 -0.918955,-0.226758 -1.402601,-0.232537 -0.564191,-0.08046 -1.119494,-0.247389 -1.689245,-0.246568 -0.67094,-6.01e-4 -1.342257,-0.0042 -2.01276,0.02387 -0.524848,0.03063 -1.053056,0.07205 -1.551078,0.254872 -0.710877,0.247797 -1.448585,0.421776 -2.200814,0.481166 -0.573967,0.06852 -1.113543,0.229286 -1.646465,0.456339 -0.62636,0.169474 -1.207934,0.458452 -1.785705,0.749259 -0.700285,0.362344 -1.460676,0.680758 -2.260398,0.687496 -0.230369,-0.05343 -0.494087,-0.02949 -0.691107,-0.160289 -1.018945,-0.676453 -0.905816,-1.636839 -0.521734,-2.603112 0.218797,-0.543707 0.407288,-1.103581 0.506217,-1.682496 0.01092,-0.06086 -0.01186,-0.139764 0.03275,-0.182568 0.07267,-0.06972 0.03451,0.267185 0.13517,0.270207 2.2184,0.06658 2.202465,-0.465881 2.073687,-0.107902 -0.170511,0.661787 -0.191307,1.3483 -0.384246,2.007243 -0.195705,0.697793 -0.338802,1.419711 -0.712579,2.051063 -0.432423,0.744504 -0.726204,1.551765 -1.621107,1.871758 -0.643408,0.232703 -1.308597,0.384564 -1.972273,0.548931 -0.684388,0.09397 -1.345982,0.282802 -2.024973,0.403636 -0.663762,0.139768 -1.303495,0.366984 -1.955231,0.55158 -0.705907,0.256434 -1.417658,0.48396 -2.158739,0.615777 -0.51436,0.141909 -1.048116,0.229323 -1.530141,0.464924 -0.587496,0.250039 -1.196367,0.445811 -1.811418,0.615834 -0.485851,0.188796 -0.965377,0.393311 -1.442649,0.598565 -0.271419,0.124157 -0.721922,0.570561 -0.940413,0.629508 -0.05598,0.0151 0.07325,-0.08991 0.109867,-0.13486 0.362333,-0.875851 0.311689,-0.453083 -0.930613,-1.788378 -0.04937,-0.05306 -0.258449,0.08263 -0.216129,0.02379 0.09756,-0.135642 0.565466,-4.57e-4 0.693629,-0.130073 0.6037,-0.178403 1.202073,-0.366175 1.810824,-0.525996 0.517204,-0.166974 1.034984,-0.322438 1.538802,-0.526912 0.5915,-0.228571 1.150065,-0.539868 1.754088,-0.741214 0.637903,-0.191488 1.25935,-0.435723 1.883955,-0.665846 0.575017,-0.177143 1.141599,-0.370356 1.731582,-0.495479 0.589465,-0.127944 1.195185,-0.170173 1.770854,-0.36406 0.695669,-0.145737 1.418997,-0.259279 2.126319,-0.157098 0.237907,0.163214 0.533782,0.264121 0.713722,0.489643 0.553928,0.69425 0.229022,1.384626 0.0059,2.0839 -0.182214,0.566724 -0.261366,1.16097 -0.507133,1.708506 -0.235884,0.518074 -0.359278,1.095163 -0.620362,1.606533 -0.222255,0.450729 -0.511472,0.856645 -0.604169,1.36208 -0.194071,0.544384 -0.412752,1.075627 -0.58451,1.628254 -0.07461,0.101096 -0.03593,0.03124 -0.06484,0.230619 -0.02519,0.03958 -0.05315,-0.07824 -0.08739,-0.110314 -0.104304,-0.09772 -0.181068,-0.239369 -0.313925,-0.292065 -0.238462,-0.09458 -0.505338,-0.08874 -0.758007,-0.133103 -0.162979,0.07796 -0.634364,0.20611 -0.467225,0.274697 0.03613,0.01482 0.42887,-0.575359 0.454461,-0.646832 0.314245,-0.475195 0.545137,-1.009834 0.920925,-1.446672 0.336706,-0.334876 0.480351,-0.839029 0.664146,-1.262123 0.247009,-0.52589 0.541692,-1.023967 0.802045,-1.539173 0.28835,-0.599987 0.459335,-1.259117 0.804584,-1.835101 0.424368,-0.729337 0.709951,-1.527396 1.568388,-1.871684 0.608949,-0.254634 1.234946,-0.457573 1.835095,-0.73503 0.604683,-0.181806 1.223446,-0.322897 1.795986,-0.595931 0.410789,-0.14551 0.81464,-0.335673 1.18557,-0.561024 0.649181,-0.406422 1.354398,-0.679384 2.098384,-0.863871 0.774502,-0.132229 1.545642,-0.229822 2.333801,-0.176373 0.816385,0.01142 1.634386,0.03483 2.443712,0.152371 0.981944,0.151635 1.944688,0.404844 2.931177,0.520797 1.729289,0.216161 1.423591,2.661744 -0.305698,2.445583 z"
       inkscape:connector-curvature="0"
       transform="translate(0,796.36218)" />
    <path
       style="fill:#4d4d4d;fill-opacity:1;stroke:none"
       id="path2997"
       d="m 52.406082,44.46353 c 0.251206,-1.055167 0.399359,-2.128585 0.633233,-3.187343 0.126317,-0.791569 0.36646,-1.557348 0.519352,-2.343075 0.19895,-0.791979 0.462798,-1.570234 0.779089,-2.322668 0.207243,-0.524087 0.419629,-1.04943 0.59718,-1.585037 0.200839,-0.520944 0.500779,-0.999183 0.703498,-1.517819 0.207384,-0.63837 0.397107,-1.279327 0.6705,-1.893428 0.315434,-0.664509 0.566222,-1.355089 0.833846,-2.039135 0.28884,-0.670787 0.654277,-1.308997 0.930827,-1.984402 0.214129,-0.600751 0.440801,-1.201103 0.731083,-1.76997 0.283857,-0.577961 0.561844,-1.157343 0.834327,-1.740894 0.241698,-0.645326 0.497371,-1.284747 0.759397,-1.9225 0.160871,-0.585805 0.422114,-1.139547 0.564963,-1.730318 0.108469,-0.558756 0.114722,-1.130444 0.124735,-1.697571 0.0069,-0.693683 0.0033,-1.387419 0.0017,-2.081121 0.05007,-0.808719 0.300416,-1.582603 0.73114,-2.265349 1.09306,-0.617383 0.932038,-0.863025 2.190607,0.197629 0.22764,0.191842 0.231233,1.243357 0.240705,1.553599 0.01252,0.709821 0.0083,1.41981 0.0067,2.129704 -0.0017,0.708509 -0.0024,1.41702 -0.0027,2.125532 0.05273,0.775505 -0.112476,1.533567 -0.225899,2.295369 -0.100469,0.691265 -0.08424,1.389803 -0.179041,2.080752 -0.140739,0.572214 -0.223508,1.151751 -0.264992,1.738694 -0.03618,0.660613 -0.03564,1.322516 -0.03701,1.983904 0.0282,0.686526 -0.173665,1.350095 -0.264963,2.025018 -0.02353,0.662574 -0.130572,1.305911 -0.271885,1.952228 -0.116409,0.560705 -0.137643,1.134256 -0.155234,1.704784 0.0096,0.669767 -0.18965,1.315531 -0.278694,1.974856 -0.07509,0.663033 -0.05395,1.328952 -0.138414,1.990435 -0.123026,0.723188 -0.284886,1.429148 -0.563162,2.108771 -0.213358,0.516612 -0.437614,1.032526 -0.619567,1.5617 -0.191104,0.534672 -0.350056,1.082353 -0.54104,1.617379 -0.225549,0.490786 -0.256706,1.030967 -0.374364,1.550627 -0.10447,0.441885 -0.27971,0.861252 -0.595569,1.198518 -0.174768,0.186612 -0.521356,0.350382 -0.683976,0.568177 -0.01215,0.281547 -0.05868,0.5723 -0.07687,0.858089 -0.02167,0.559937 -0.05782,1.115296 0.05871,1.66437 0.160654,0.679288 0.221035,1.374146 0.25749,2.069324 0.02862,0.716508 0.02724,1.43376 0.02758,2.150706 -0.06141,0.580288 0.09223,1.125803 0.191654,1.690785 0.116837,0.7157 0.138205,1.441548 0.152953,2.165075 0.05544,0.30351 0.05577,0.06797 0.0222,-0.01814 -0.05169,-0.132607 -0.101032,-0.130934 0.07779,-0.111207 0.438217,0.0053 0.891651,-0.128564 1.335148,-0.192715 0.458907,-0.158536 0.928068,-0.260658 1.382085,-0.430606 0.586078,-0.164723 1.16869,-0.32171 1.754153,-0.489181 0.443716,-0.231285 0.927671,-0.359662 1.389494,-0.548238 0.565724,-0.167239 1.116524,-0.342169 1.649911,-0.592319 0.688002,-0.275288 1.389543,-0.517498 2.112023,-0.684956 0.559844,-0.213263 1.1417,-0.353636 1.713764,-0.528798 0.640412,-0.198369 1.253742,-0.445422 1.914514,-0.582015 0.585822,-0.233744 1.203752,-0.347401 1.826846,-0.422528 0.46363,-0.135822 0.931703,-0.226381 1.385743,-0.389117 0.696231,-0.252199 1.433237,-0.320403 2.166693,-0.362038 0.669423,0.02624 1.317967,-0.12615 1.975687,-0.224325 0.753134,-0.106889 1.514003,-0.13092 2.273441,-0.145436 0.712544,-0.0092 1.425172,-0.007 2.137757,-0.0062 0.662222,-0.118611 1.32635,-0.217612 1.996129,-0.281214 0.738447,-0.06033 1.479757,-0.06599 2.220188,-0.07043 0.707063,-0.0021 1.414131,-4.29e-4 2.121195,3.41e-4 0.703795,7.47e-4 1.40759,9.25e-4 2.111386,0.001 0.704106,8e-5 1.408213,6.5e-5 2.11232,6e-5 0.757868,-0.01502 1.504962,-0.01933 2.251366,0.123654 0.642239,0.129928 1.284927,0.171218 1.906352,0.389612 0.795009,0.469911 1.164119,1.155978 0.721839,2.090766 -0.234906,0.496496 -0.723667,0.573201 -1.14847,0.774721 -0.582857,0.324487 -1.270437,0.286894 -1.888691,0.467967 -0.653897,0.202314 -1.331135,0.287495 -2.010956,0.339258 -0.568004,0.06836 -1.093853,0.259725 -1.634141,0.432192 -0.733303,0.222847 -1.499102,0.271351 -2.260002,0.300758 -0.671584,0.02055 -1.331085,0.178759 -1.998504,0.259961 -0.637747,0.08015 -1.279641,0.03915 -1.907667,0.175955 -0.569942,0.137147 -1.153195,0.161396 -1.717329,0.315163 -0.574715,0.107102 -1.129188,0.254281 -1.691209,0.410372 -0.376152,0.201298 -1.203533,0.04055 -1.511367,0.33364 0.141698,-0.005 0.167044,-0.06136 0.252683,-0.182258 0.01421,-0.02005 0.01944,-0.07909 0.03812,-0.06312 0.03881,0.03319 0.01302,0.106829 0.04541,0.146308 0.147032,0.454599 0.390836,0.877488 0.620732,1.297865 0.277279,0.497545 0.37486,1.089313 0.660222,1.581221 0.247196,0.549602 0.527451,1.074214 0.714123,1.64948 0.232267,0.533923 0.444221,1.079527 0.624006,1.633767 0.08384,0.548038 0.377541,0.9984 0.608418,1.488091 0.184281,0.497251 0.398461,0.981504 0.631454,1.45724 0.566952,0.835915 -0.177565,0.626458 -2.093611,1.338771 -0.102725,0.03819 -0.123867,-0.181033 -0.191726,-0.26709 C 84.271861,67.6263 84.157409,67.507941 84.0545,67.380072 83.653877,66.933421 83.228573,66.511491 82.866893,66.031784 82.62637,65.675909 82.369473,65.399993 82.018522,65.158728 81.476644,64.759441 81.161354,64.179701 80.794436,63.637711 80.538844,63.185412 80.180669,62.813909 79.90036,62.376254 c -0.236593,-0.379176 -0.533057,-0.707376 -0.817916,-1.049302 -0.222503,-0.410698 -0.499349,-0.728153 -0.829255,-1.024018 -0.378288,-0.197995 -0.613246,-0.630848 -1.001714,-0.804899 -0.31715,-0.288542 -0.637102,-0.379544 -1.04573,-0.436535 -0.517448,-0.06432 -1.014532,0.163882 -1.503954,0.305408 -0.698963,0.176804 -1.386598,0.395919 -2.07077,0.623013 -0.659751,0.146954 -1.250995,0.463661 -1.867118,0.724708 -0.478243,0.302347 -1.02023,0.468062 -1.537396,0.687561 -0.463492,0.345828 -1.037432,0.521632 -1.575958,0.718651 -0.549326,0.202229 -1.170797,0.261158 -1.692526,0.538251 -0.473552,0.254565 -0.937093,0.534645 -1.427125,0.76957 -0.554548,0.170283 -1.019798,0.50869 -1.528509,0.772114 -0.505342,0.205009 -1.003736,0.422782 -1.493097,0.662253 -0.534207,0.151464 -0.98562,0.397266 -1.451581,0.689934 -0.394005,0.220609 -0.551575,0.527616 -0.646835,0.947067 -0.100381,0.584651 -0.09435,1.180872 -0.09648,1.772132 0.0018,0.702966 0.007,1.405918 0.0096,2.108882 -0.05922,0.580858 0.09594,1.1267 0.196212,1.691987 0.03335,0.5946 0.221288,1.15351 0.341321,1.732815 0.251583,0.561583 0.365301,1.167003 0.445103,1.772958 0.180742,0.681498 0.29156,1.375762 0.362251,2.076346 0.175341,0.593615 0.281629,1.200738 0.35006,1.814892 0.06512,0.723283 0.06739,1.450153 0.07085,2.175753 -0.0043,0.749645 0.02955,1.498552 -0.05499,2.244048 -0.09662,0.695558 -0.347116,1.352457 -0.648896,1.981758 -0.233291,0.441037 -0.3186,0.935501 -0.480379,1.405645 -0.159277,0.483243 -0.185681,0.993711 -0.210462,1.497846 -0.06671,0.45004 -0.0018,0.813137 0.179993,1.201693 0.728042,1.583388 -1.511207,2.612995 -2.23925,1.029607 l 0,0 c -0.342802,-0.754055 -0.488049,-1.526628 -0.402191,-2.356201 0.03825,-0.734987 0.100289,-1.474032 0.341513,-2.175181 0.198968,-0.577719 0.306463,-1.187625 0.615507,-1.723733 0.226794,-0.350719 0.312634,-0.79649 0.402396,-1.196233 0.131922,-0.613229 -0.02964,-1.275529 0.03217,-1.897613 -0.003,-0.640629 -0.0037,-1.282326 -0.05646,-1.921234 -0.06542,-0.624244 -0.221882,-1.225343 -0.352477,-1.838176 -0.06565,-0.679402 -0.200483,-1.34383 -0.354575,-2.008435 -0.06633,-0.552024 -0.224155,-1.069599 -0.415164,-1.591719 -0.119162,-0.599544 -0.318565,-1.182599 -0.353569,-1.797308 -0.122172,-0.699721 -0.293356,-1.392784 -0.233558,-2.110229 -0.0027,-0.70922 -0.008,-1.418427 -0.0096,-2.12765 0.0033,-0.807526 0.0036,-1.622734 0.184222,-2.414482 0.29323,-0.999128 0.803965,-1.841773 1.721608,-2.38782 0.529813,-0.327443 1.065676,-0.647523 1.671175,-0.811518 0.48122,-0.235013 0.97193,-0.453067 1.468935,-0.650276 0.533474,-0.2499 1.002416,-0.638511 1.580948,-0.797694 0.512088,-0.237374 0.978039,-0.548509 1.483722,-0.795483 0.598579,-0.24974 1.219018,-0.442291 1.847689,-0.600727 0.508873,-0.183699 1.00589,-0.361943 1.45601,-0.671436 0.52263,-0.221527 1.061647,-0.392896 1.548616,-0.692288 0.675566,-0.277158 1.322194,-0.629248 2.042011,-0.790203 0.714868,-0.237194 1.43418,-0.464364 2.16368,-0.651824 0.840415,-0.241986 1.680644,-0.531405 2.569548,-0.372227 0.707237,0.117604 1.402112,0.307982 1.964639,0.778153 0.482673,0.318776 0.892618,0.716253 1.350894,1.067555 0.418266,0.379916 0.824322,0.778481 1.082629,1.289189 0.351365,0.437509 0.727933,0.854292 1.021298,1.336132 0.210506,0.441608 0.676215,0.740234 0.859502,1.206142 0.190678,0.303269 0.353023,0.630368 0.617054,0.873248 0.531408,0.404331 1.007023,0.855578 1.381407,1.412318 0.295082,0.470136 0.782283,0.809281 1.115798,1.253681 0.09937,0.126291 0.540405,0.648431 0.526446,0.662132 -1.879026,1.844426 -1.503942,2.221184 -2.062548,1.261604 -0.240772,-0.492429 -0.464189,-0.995438 -0.655775,-1.50842 -0.257699,-0.583549 -0.61797,-1.126694 -0.718589,-1.771863 -0.174767,-0.563903 -0.415386,-1.1048 -0.630367,-1.65403 -0.124622,-0.456579 -0.400265,-0.851144 -0.57138,-1.29041 -0.22654,-0.485779 -0.417744,-0.987884 -0.611358,-1.486992 -0.331216,-0.607264 -0.667625,-1.227094 -0.852525,-1.896786 -0.217259,-1.098027 -0.03052,-2.103342 1.012666,-2.715128 0.614404,-0.259884 1.243991,-0.385257 1.901956,-0.477856 0.566412,-0.15482 1.128484,-0.308301 1.706278,-0.414477 0.61078,-0.162722 1.231815,-0.220635 1.84976,-0.346893 0.702388,-0.144585 1.407865,-0.156594 2.120805,-0.211159 0.734241,-0.08732 1.458954,-0.266013 2.20019,-0.275886 0.539331,-0.0198 1.084612,-0.04039 1.607491,-0.187056 0.722091,-0.227435 1.43741,-0.466511 2.197085,-0.540878 0.550919,-0.0396 1.096736,-0.110256 1.625198,-0.279609 0.495792,-0.107828 1.013589,-0.129334 1.483826,-0.334112 0.105009,-0.04343 0.205843,-0.0988 0.315027,-0.130302 0.02637,-0.0076 -0.04221,0.03555 -0.05975,0.05666 -0.09584,0.115252 -0.238599,0.207821 -0.279983,0.351891 -0.179732,0.625704 -0.08404,1.164655 0.531627,1.417792 -0.459494,-0.184826 -1.014035,-0.10633 -1.491615,-0.26901 -0.584713,-0.121668 -1.177408,-0.06937 -1.773185,-0.07682 -0.704245,5e-6 -1.40849,2e-5 -2.112735,-6e-5 -0.704557,-1.14e-4 -1.409113,-2.93e-4 -2.11367,-0.001 -0.701285,-7.64e-4 -1.402574,-0.0024 -2.103859,-3.84e-4 -0.668556,0.0039 -1.337914,0.0078 -2.004848,0.05972 -0.747632,0.06895 -1.481986,0.219545 -2.228901,0.291968 -0.696142,-7.85e-4 -1.392325,-0.003 -2.088429,0.0058 -0.653793,0.01219 -1.309043,0.02958 -1.957752,0.119111 -0.731473,0.10812 -1.457867,0.269298 -2.201881,0.247333 -0.496746,0.02654 -0.999781,0.05552 -1.473289,0.22203 -0.628968,0.224244 -1.278714,0.36927 -1.929565,0.516276 -0.561923,0.06236 -1.096182,0.206997 -1.630793,0.391607 -0.581287,0.108403 -1.105382,0.370135 -1.674777,0.521596 -0.630699,0.193018 -1.268074,0.35713 -1.890899,0.575894 -0.55206,0.120491 -1.080952,0.318434 -1.610149,0.512757 -0.570583,0.26739 -1.154194,0.484511 -1.764376,0.64248 -0.547129,0.223406 -1.110555,0.392304 -1.649326,0.637784 -0.521148,0.145712 -1.038253,0.297626 -1.563056,0.426509 -0.618908,0.231063 -1.258115,0.391437 -1.896001,0.561779 -0.73709,0.103972 -1.473652,0.326019 -2.220517,0.158493 C 58.026257,59.310175 57.308347,58.696554 57.20986,57.3885 57.198003,56.790556 57.18479,56.190369 57.093211,55.598177 56.97172,54.8972 56.802415,54.202615 56.864755,53.484206 c -3.08e-4,-0.675089 0.0012,-1.350452 -0.02432,-2.02517 -0.0289,-0.574403 -0.07573,-1.148515 -0.212186,-1.709163 -0.149914,-0.768389 -0.15002,-1.539761 -0.101489,-2.319886 0.06438,-0.893149 0.195845,-1.775607 0.825762,-2.464349 0.617528,-0.561151 0.412277,-0.0575 0.596507,-0.581625 0.183092,-0.598053 0.154175,-1.266064 0.462497,-1.83367 0.222791,-0.497355 0.323311,-1.062345 0.523859,-1.570591 0.210726,-0.580815 0.445665,-1.15263 0.683244,-1.722568 0.242301,-0.456347 0.253659,-0.995766 0.384232,-1.487777 0.14045,-0.634742 -0.01113,-1.322141 0.1343,-1.961906 0.08064,-0.573528 0.246936,-1.136146 0.256697,-1.714809 0.02306,-0.721624 0.05883,-1.445949 0.210959,-2.154084 0.128173,-0.58557 0.216139,-1.160598 0.238137,-1.762833 0.07934,-0.565288 0.24446,-1.122044 0.241775,-1.692881 0.0015,-0.719207 0.0015,-1.439002 0.04348,-2.157251 0.04861,-0.655265 0.128681,-1.306979 0.28884,-1.945582 0.147567,-0.667586 0.01228,-1.388824 0.17581,-2.059766 0.09651,-0.643122 0.24999,-1.277271 0.198807,-1.932257 3.82e-4,-0.709831 0.001,-1.419661 0.0027,-2.12949 0.0015,-0.684023 0.0055,-1.368128 -0.0057,-2.052091 -0.01135,-0.406547 -0.002,-0.140543 -0.01831,-0.495678 -0.0016,-0.03527 -0.03144,-0.12841 -0.0043,-0.105838 0.05295,0.04402 0.03636,0.149268 0.09662,0.182593 1.333571,0.737483 0.917572,0.703052 1.956439,0.03809 0.142059,-0.354807 -0.317681,0.723151 -0.264746,0.817046 0.0016,0.710391 0.0054,1.420821 -0.0021,2.13119 -0.01394,0.756711 -0.03276,1.518884 -0.200342,2.260436 -0.18335,0.700895 -0.461413,1.369134 -0.674393,2.060871 -0.277841,0.674215 -0.541647,1.352802 -0.80739,2.031558 -0.290792,0.615793 -0.582654,1.228687 -0.883317,1.839507 -0.276281,0.497715 -0.436094,1.055464 -0.64295,1.583524 -0.280825,0.65266 -0.610254,1.283329 -0.908004,1.928478 -0.287901,0.724636 -0.550772,1.459444 -0.887172,2.164279 -0.280789,0.577293 -0.401729,1.217528 -0.635911,1.814479 -0.199159,0.463194 -0.433565,0.908748 -0.645709,1.365382 -0.207605,0.596642 -0.434079,1.186514 -0.669791,1.772229 -0.270346,0.577462 -0.435849,1.207608 -0.620791,1.816145 -0.160559,0.803482 -0.397698,1.588095 -0.530736,2.397473 -0.239088,1.080459 -0.384665,2.177577 -0.64871,3.253062 -0.422678,1.690713 -2.813707,1.092956 -2.391028,-0.597757 z"
       inkscape:connector-curvature="0"
       transform="translate(0,796.36218)" />
    <path
       style="fill:#4d4d4d;fill-opacity:1;stroke:none"
       id="path2999"
       d="m 60.308035,91.038731 c 0.297023,0.349686 0.611249,0.632383 1.078861,0.578153 0.506859,-0.0035 0.967895,-0.152784 1.447493,-0.290107 0.460319,-0.308222 1.029905,-0.343939 1.531436,-0.537361 0.609384,-0.188869 1.222632,-0.368689 1.840062,-0.531193 0.506577,-0.178095 0.982865,-0.416885 1.478992,-0.619513 0.618722,-0.160395 1.217806,-0.380609 1.840891,-0.526554 0.685115,-0.08233 1.352008,-0.254792 2.03157,-0.371538 0.71449,-0.05558 1.407328,-0.232344 2.112284,-0.351203 0.647414,-0.02331 1.379055,-0.27633 2.024717,-0.09976 0.228166,0.0624 0.437616,0.179733 0.656424,0.2696 0.189326,0.271979 0.454679,0.50452 0.567977,0.815936 0.286093,0.786366 -0.379291,1.467066 -0.8314,1.993677 -0.437365,0.493963 -1.037992,0.76465 -1.578761,1.114464 -0.561374,0.301291 -1.119676,0.597646 -1.727085,0.795884 -0.586629,0.234674 -1.205542,0.351574 -1.80139,0.555352 -0.33837,0.23039 -0.701118,0.433193 -1.029809,0.68184 -0.446184,0.283069 -0.817564,0.65221 -1.259306,0.94419 -0.643962,0.306809 -1.352869,0.470463 -2.045939,0.63664 -0.636962,0.05516 -1.223121,0.226475 -1.814137,0.454047 -0.53162,0.180522 -1.039329,0.424415 -1.539317,0.678286 -0.491302,0.176548 -0.891318,0.505161 -1.342741,0.75684 -0.129854,0.05361 -0.256899,0.114602 -0.389563,0.160822 -0.438917,0.152917 -0.984447,0.31746 -0.818328,0.320265 -0.248972,0.226232 -0.438368,0.53182 -0.559959,0.848866 -0.124086,0.453132 -0.131728,0.928079 -0.146833,1.394639 -0.01379,0.68662 -0.0089,1.37345 -0.007,2.06016 0.0022,0.7062 0.003,1.4124 0.0035,2.1186 3.66e-4,0.70457 3.41e-4,1.40914 3.41e-4,2.11371 0.0058,0.65933 0.165186,1.30829 0.246002,1.96289 0.08336,0.74636 0.09664,1.49781 0.105335,2.24799 0.0051,0.70936 0.003,1.41875 0.0022,2.12813 -5.59e-4,0.51158 0.01281,0.23539 -0.05421,0.82775 -0.236396,1.72664 -2.678232,1.39233 -2.441836,-0.33431 l 0,0 c 0.05577,-0.25893 0.031,-0.095 0.03144,-0.49636 8.28e-4,-0.69898 0.0028,-1.39797 -0.002,-2.09693 -0.0075,-0.65964 -0.0169,-1.32048 -0.08727,-1.97705 -0.09114,-0.75366 -0.277954,-1.49974 -0.264232,-2.26211 10e-7,-0.70401 2.6e-5,-1.40801 -3.4e-4,-2.11202 -4.81e-4,-0.70448 -0.0013,-1.40896 -0.0035,-2.11343 -0.002,-0.71652 -0.0072,-1.43318 0.0084,-2.14959 0.02709,-0.785653 0.06673,-1.582398 0.361787,-2.32181 0.287537,-0.609963 0.64004,-1.213984 1.151402,-1.663741 0.512968,-0.410536 1.055573,-0.689771 1.701366,-0.829239 0.478867,-0.226597 0.870514,-0.628778 1.390919,-0.781956 0.574446,-0.291234 1.161429,-0.566041 1.769036,-0.780463 0.694892,-0.267463 1.397274,-0.48626 2.143038,-0.554937 0.436303,-0.09516 0.857139,-0.250721 1.297912,-0.326712 0.430794,-0.201318 0.702517,-0.681967 1.14935,-0.871432 0.530429,-0.360764 1.055489,-0.739733 1.647686,-0.99588 0.61877,-0.211127 1.257752,-0.339698 1.867942,-0.577035 0.421889,-0.114043 0.785237,-0.366226 1.178545,-0.548877 0.339769,-0.200544 0.697119,-0.375204 1.000042,-0.627511 0.07584,-0.08612 0.165653,-0.159368 0.240237,-0.246578 0.03932,-0.04598 0.09198,-0.208219 0.103822,-0.148886 0.01911,0.09577 -0.0743,0.18501 -0.07714,0.282622 -0.01634,0.562162 0.151019,0.542252 0.55778,1.019556 1.026623,0.238452 -0.692306,-0.0061 -0.97862,0.164738 -0.702457,0.11623 -1.393844,0.295547 -2.105641,0.350083 -0.634481,0.106428 -1.256883,0.275666 -1.897353,0.344867 -0.499653,0.108359 -0.972228,0.309675 -1.47335,0.412012 -0.594358,0.228272 -1.15731,0.53647 -1.772181,0.715903 -0.567147,0.145917 -1.129597,0.312835 -1.688306,0.486388 -0.551825,0.171779 -1.112904,0.288531 -1.628434,0.567217 -0.700546,0.19916 -1.397914,0.383251 -2.133797,0.384721 -1.252959,-0.0421 -2.15045,-0.503945 -2.962323,-1.46494 -1.115679,-1.338815 0.777691,-2.916624 1.89337,-1.577809 z"
       inkscape:connector-curvature="0"
       transform="translate(0,796.36218)" />
    <path
       style="fill:#4d4d4d;fill-opacity:1;stroke:none"
       id="path3001"
       d="m 57.903888,113.55373 c 1.014485,-0.38591 2.051385,-0.72033 3.094283,-1.02205 0.651804,-0.27502 1.331537,-0.46793 2.003716,-0.68432 0.644622,-0.2063 1.262661,-0.45644 1.929608,-0.59419 0.493295,-0.0531 0.964075,-0.20591 1.417271,-0.39833 0.60925,-0.32665 1.323358,-0.26002 1.965675,-0.43636 0.647688,-0.18866 1.315592,-0.27027 1.986067,-0.32012 0.458243,-0.074 0.86794,-0.26049 1.300023,-0.41728 0.597529,-0.20426 1.176048,-0.4271 1.799981,-0.54999 0.441858,-0.1113 0.82667,-0.27364 1.211514,-0.50396 0.540533,-0.26581 1.020906,-0.63332 1.52253,-0.96341 0.280664,-0.3172 0.859291,-0.48713 1.036482,-0.89141 0.364153,-0.5295 0.897287,-0.89696 1.345753,-1.34448 0.345136,-0.31319 0.727927,-0.60216 0.983231,-0.99847 0.51122,-0.64582 1.095586,-1.23343 1.715899,-1.77388 0.489346,-0.44367 0.984565,-0.88151 1.446254,-1.35458 0.450871,-0.47191 1.038363,-0.7795 1.517767,-1.21513 0.432844,-0.334102 0.825463,-0.713593 1.224924,-1.085698 0.340929,-0.458861 0.875694,-0.704045 1.28684,-1.083014 0.436828,-0.416157 0.899141,-0.803631 1.359907,-1.193583 0.639914,-0.467141 1.288465,-0.930564 1.984202,-1.310943 0.418252,-0.288007 0.869613,-0.529452 1.282336,-0.824766 0.511288,-0.276156 1.00919,-0.5764 1.52092,-0.85332 0.551795,-0.315214 1.167169,-0.492277 1.739638,-0.755184 0.399587,-0.282926 1.038044,-0.194736 1.402451,-0.526063 0.546338,-0.417187 1.236017,-0.444242 1.858152,-0.651169 0.817881,-0.173783 1.468002,-0.07431 1.904897,0.897859 0.296981,0.660841 -0.253643,1.279865 -0.62306,1.717473 -0.434851,0.533783 -0.878894,1.059967 -1.348461,1.564362 -0.386933,0.505752 -0.86371,0.90647 -1.355778,1.302128 -0.275167,0.314606 -0.560087,0.626786 -0.824655,0.954977 -0.386923,0.448464 -0.847175,0.82757 -1.242616,1.266602 -0.250298,0.472881 -0.724226,0.774349 -1.090109,1.147859 -0.286981,0.42071 -0.710531,0.76091 -1.068182,1.12973 -0.370103,0.46233 -0.770684,0.89784 -1.144646,1.35745 -0.31183,0.56258 -0.843155,0.93576 -1.28967,1.37794 -0.258481,0.41488 -0.627773,0.74949 -0.9347,1.1278 -0.36989,0.42732 -0.791678,0.80853 -1.161404,1.2352 -0.402467,0.39611 -0.788458,0.80526 -1.214552,1.17697 -0.382098,0.38707 -0.752514,0.78645 -1.144165,1.16447 -0.335476,0.37815 -0.623423,0.79419 -0.919062,1.20426 -0.241146,0.50506 -0.697502,0.87783 -0.95168,1.37037 0.220095,-0.18283 0.07844,-0.61423 -0.0079,-0.80276 -0.0088,-0.0192 -0.23235,-0.27315 -0.222331,-0.27729 0.03614,-0.0149 0.07791,0.007 0.116857,0.0104 0.534762,-0.14597 1.131386,-0.18395 1.688836,-0.23745 0.743287,-0.0635 1.489602,-0.0725 2.235102,-0.0787 0.708744,-0.004 1.4175,-0.002 2.126249,-0.001 0.804572,-0.0487 1.594097,0.0585 2.38767,0.17318 0.729603,0.10801 1.466165,0.14703 2.202552,0.16899 0.69982,0.0156 1.399874,0.0138 2.099823,0.0133 0.797713,-0.006 1.577656,0.18526 2.370046,0.2587 0.924819,0.0539 1.844817,0.0767 2.763507,0.20225 1.05951,0.15923 2.10632,0.36988 3.17313,0.4816 0.9172,0.0595 1.81479,0.26735 2.7261,0.37766 0.76674,0.0319 1.51903,0.12943 2.27352,0.2665 0.6462,0.0497 1.2564,0.26925 1.88625,0.40092 0.63091,0.0841 1.25806,0.1124 1.88147,0.25085 0.59256,0.15099 1.20438,0.16286 1.8039,0.26907 0.6351,0.11865 1.2311,0.37161 1.85961,0.51454 0.58542,0.24808 1.2079,0.3546 1.81509,0.5249 0.67788,0.19968 1.30502,0.53058 1.88778,0.92538 0.9333,0.86949 0.73416,1.60342 -0.20391,2.34761 -0.26783,0.21248 -0.87243,0.18976 -1.20012,0.20904 -0.70723,0.0237 -1.41507,0.017 -2.12259,0.015 -0.7091,-0.002 -1.4182,-0.003 -2.12731,-0.004 -0.7045,-4.7e-4 -1.409,-4.6e-4 -2.1135,-4.6e-4 -0.70412,0 -1.40824,2e-5 -2.11236,3e-5 -0.70417,1e-5 -1.40834,1e-5 -2.1125,1e-5 -0.70418,0 -1.40836,0 -2.11253,0 -0.70418,0 -1.40835,0 -2.11253,0 -0.80492,0.0495 -1.59482,-0.0575 -2.38877,-0.17207 -0.72969,-0.10794 -1.46633,-0.14698 -2.2028,-0.16895 -0.740937,-0.0912 -1.471232,-0.23865 -2.215225,-0.30696 -0.666213,-0.0512 -1.334809,-0.0544 -2.002596,-0.058 -0.701316,-0.002 -1.402634,-5e-5 -2.10395,7.3e-4 -0.70457,7.6e-4 -1.409141,9.3e-4 -2.113712,0.001 -0.704245,7e-5 -1.408491,5e-5 -2.112736,5e-5 -0.704174,-1e-5 -1.408348,-1e-5 -2.112522,-1e-5 -0.704175,-1e-5 -1.40835,-1e-5 -2.112524,-1e-5 -0.747107,-0.005 -1.493237,0.0299 -2.236321,-0.0533 -0.631241,-0.15198 -1.27906,-0.20032 -1.912693,-0.33315 -0.525551,-0.16951 -1.06764,-0.24338 -1.61586,-0.28402 -0.606552,0.002 -1.231513,-0.10223 -1.833254,-0.003 -0.718769,0.13895 -1.44411,0.22663 -2.173911,0.27823 -0.731103,0.0424 -1.463712,0.0438 -2.195788,0.0457 -0.587552,-0.0486 -1.142185,0.0189 -1.713445,0.13373 -0.586081,0.0639 -1.14695,0.18462 -1.716548,0.32719 -0.440103,0.17849 -0.858477,0.39879 -1.295959,0.58519 -0.607513,0.23143 -1.201332,0.45972 -1.842858,0.58612 -0.455453,0.1788 -0.936514,0.32279 -1.37054,0.55037 -0.428711,0.31646 -1.072455,0.27783 -1.479261,0.61921 -0.536623,0.30787 -1.063543,0.61295 -1.649082,0.81961 -0.427681,0.189 -0.857625,0.34844 -1.263833,0.58263 -0.522895,0.29817 -1.112722,0.47857 -1.630376,0.78417 -0.257687,0.26486 -0.538729,0.57443 -0.812597,0.85062 -0.190498,0.27928 -0.339115,0.60709 -0.452553,0.93113 -0.619013,1.62911 -2.922917,0.75369 -2.303905,-0.87542 l 0,0 c 0.253784,-0.64494 0.547963,-1.30162 1.026788,-1.81144 0.456378,-0.42562 0.827947,-0.94552 1.378384,-1.26738 0.522076,-0.2692 1.061882,-0.50329 1.589211,-0.76161 0.544648,-0.30034 1.113293,-0.53687 1.688808,-0.77061 0.425682,-0.11955 0.776197,-0.40667 1.169429,-0.60006 0.538148,-0.29852 1.111307,-0.48236 1.673845,-0.72341 0.639648,-0.29487 1.298027,-0.56463 1.978626,-0.74968 0.476436,-0.0828 0.902552,-0.2788 1.355408,-0.4407 0.553773,-0.21732 1.067947,-0.53269 1.643812,-0.70004 0.605059,-0.1504 1.206891,-0.28443 1.827574,-0.35219 0.726784,-0.14604 1.449505,-0.22857 2.192748,-0.18204 0.677052,-0.002 1.354586,-0.002 2.030823,-0.0397 0.69081,-0.0473 1.374852,-0.14091 2.055797,-0.26714 0.768552,-0.0766 1.540201,-0.049 2.311043,-0.007 0.671144,0.0528 1.339506,0.13889 1.984575,0.3406 0.540613,0.16481 1.144804,0.11077 1.68741,0.2918 0.615498,0.13201 1.280212,-0.0331 1.904503,0.0309 0.704177,0 1.408354,0 2.112531,0 0.704178,0 1.408356,10e-6 2.112534,10e-6 0.704111,1e-5 1.408223,3e-5 2.112334,-5e-5 0.70378,-1.1e-4 1.40756,-2.8e-4 2.11134,-0.001 0.706688,-7.9e-4 1.413378,-0.003 2.120065,-7e-4 0.739847,0.004 1.480586,0.009 2.218497,0.0687 0.691856,0.0655 1.377048,0.17117 2.06037,0.2974 0.829334,0.0253 1.658704,0.0715 2.480374,0.19308 0.67937,0.098 1.34672,0.20025 2.03679,0.14682 0.70418,0 1.40835,0 2.11253,0 0.70417,0 1.40835,0 2.11252,0 0.70416,-1e-5 1.40832,-1e-5 2.11248,-1e-5 0.70414,-10e-6 1.40827,-3e-5 2.11241,-4e-5 0.70521,1e-5 1.41042,-1e-5 2.11562,4.7e-4 0.71074,6.1e-4 1.42148,0.002 2.13221,0.004 0.66045,0.002 1.32115,0.008 1.98141,-0.0114 0.0747,-0.004 0.14947,-0.007 0.2242,-0.0107 0.0398,-0.002 0.11789,-0.0459 0.11947,-0.006 0.002,0.0449 -0.0887,0.0321 -0.11705,0.067 -0.49379,0.60935 -1.00779,1.1769 -0.10131,1.87353 -0.34995,-0.26903 -0.76658,-0.44704 -1.1828,-0.58406 -0.54233,-0.19268 -1.14797,-0.21548 -1.66967,-0.4861 -0.60091,-0.14368 -1.17536,-0.36268 -1.77788,-0.49684 -0.60216,-0.16074 -1.26797,-0.0708 -1.86627,-0.28231 -0.61115,-0.14151 -1.23983,-0.11576 -1.85568,-0.24516 -0.60497,-0.13221 -1.1881,-0.33771 -1.80949,-0.38572 -0.70863,-0.12874 -1.41126,-0.21319 -2.13212,-0.24502 -0.8978,-0.11072 -1.78275,-0.30937 -2.68571,-0.37306 -1.09258,-0.11618 -2.16646,-0.32298 -3.25074,-0.49105 -0.883606,-0.12282 -1.770399,-0.12633 -2.659852,-0.19019 -0.714839,-0.0691 -1.419848,-0.22865 -2.135784,-0.2477 -0.725266,4.6e-4 -1.450645,0.002 -2.175769,-0.0144 -0.829395,-0.0253 -1.658827,-0.0715 -2.480538,-0.1932 -0.679637,-0.0982 -1.347309,-0.2006 -2.037688,-0.14785 -0.701193,-6.9e-4 -1.402394,-0.002 -2.103583,0.001 -0.674396,0.005 -1.349559,0.0123 -2.022102,0.0677 -0.787147,0.074 -1.567356,0.25133 -2.360672,0.20917 -1.421871,-0.29265 -2.202085,-1.1183 -1.570228,-2.60892 0.332266,-0.53902 0.7541,-1.01088 1.074692,-1.55851 0.385829,-0.53505 0.764879,-1.07929 1.225211,-1.55393 0.428522,-0.38731 0.795443,-0.84068 1.219975,-1.2332 0.351854,-0.30466 0.667032,-0.64272 1.000311,-0.96643 0.36377,-0.39644 0.74532,-0.77553 1.107544,-1.17335 0.376587,-0.43885 0.767605,-0.85995 1.117463,-1.3224 0.388194,-0.36425 0.817513,-0.67559 1.080782,-1.15178 0.419228,-0.51481 0.865943,-1.00424 1.286983,-1.51756 0.382673,-0.394389 0.801589,-0.738663 1.123659,-1.185137 0.360615,-0.340866 0.751582,-0.625984 1.006815,-1.063308 0.366793,-0.383053 0.754167,-0.745485 1.121499,-1.127502 0.379245,-0.469543 0.781394,-0.919051 1.213994,-1.340474 0.402843,-0.315284 0.78017,-0.642751 1.091347,-1.059759 0.446831,-0.463944 0.848073,-0.967922 1.258276,-1.4633 0.05751,-0.06813 0.09038,-0.169741 0.172537,-0.204382 0.04919,-0.02074 -0.04831,0.09902 -0.04926,0.152397 -0.004,0.224277 -0.08995,0.485491 0.0346,0.672046 0.580508,0.869483 0.625666,0.746124 1.215933,0.715491 0.03427,-0.0018 -0.06826,0.0072 -0.102387,0.01075 -0.443249,0.117162 -0.909399,0.147764 -1.297239,0.4146 -0.539821,0.287923 -1.108969,0.461253 -1.682272,0.664545 -0.515989,0.207329 -1.039529,0.382851 -1.528241,0.654712 -0.444179,0.233288 -0.86902,0.504099 -1.315867,0.730492 -0.495176,0.320851 -0.989942,0.640372 -1.493021,0.950598 -0.551823,0.276435 -1.034293,0.679238 -1.549222,1.016302 -0.461735,0.390484 -0.92541,0.776997 -1.36199,1.195342 -0.40794,0.333486 -0.867053,0.599206 -1.20468,1.010476 -0.425808,0.38779 -0.837013,0.7924 -1.292723,1.14602 -0.448322,0.37455 -0.936993,0.69414 -1.374196,1.08179 -0.514475,0.51144 -1.045877,1.00431 -1.588006,1.48636 -0.478159,0.40154 -0.908617,0.86135 -1.314884,1.33487 -0.37097,0.50169 -0.799292,0.94995 -1.282711,1.34523 -0.364161,0.34326 -0.770005,0.64428 -1.078157,1.04142 -0.471026,0.58722 -1.052063,1.04534 -1.664233,1.48089 -0.531491,0.34305 -1.035575,0.7346 -1.605355,1.01517 -0.634378,0.37875 -1.29936,0.63818 -2.018282,0.81019 -0.498519,0.0871 -0.946121,0.29808 -1.426592,0.4485 -0.64098,0.225 -1.266892,0.48922 -1.952618,0.55516 -0.557276,0.0392 -1.109227,0.11073 -1.646459,0.27153 -0.507639,0.0989 -1.034683,0.10918 -1.521849,0.29595 -0.607165,0.25704 -1.242476,0.46078 -1.898443,0.54646 -0.575873,0.10686 -1.093542,0.36725 -1.655729,0.52316 -0.69674,0.22388 -1.397551,0.43001 -2.076376,0.70646 -0.94549,0.27074 -1.883282,0.57826 -2.805402,0.91901 -1.601836,0.6865 -2.572696,-1.57884 -0.970859,-2.26534 z"
       inkscape:connector-curvature="0"
       transform="translate(0,796.36218)" />
    <path
       style="fill:#4d4d4d;fill-opacity:1;stroke:none"
       id="path3003"
       d="m 57.491331,123.78291 c 0.642738,0.87979 1.313779,1.74458 1.878044,2.67767 0.372224,0.56821 0.823365,1.07505 1.185127,1.64963 0.33784,0.48696 0.629401,1.01305 0.874337,1.553 0.287847,0.73437 0.329247,1.52357 0.357012,2.30242 0.04798,0.69969 -0.16252,1.37624 -0.258057,2.06291 -0.07282,0.61766 -0.08005,1.24042 -0.0876,1.86154 0.02235,0.45746 0.05255,0.99653 0.236204,1.42259 0.19122,0.597 0.378284,1.19644 0.543556,1.80157 0.09734,0.65337 0.311393,1.27537 0.452442,1.91908 0.05109,0.60987 0.23936,1.18697 0.36162,1.78367 0.120516,0.61321 0.0938,1.23719 0.233659,1.84464 0.143702,0.57284 0.167302,1.16071 0.321671,1.72899 -0.04409,0.10931 0.343231,1.13465 0.159841,0.58013 0.02059,-3.5e-4 0.0577,0.0191 0.06176,-0.001 0.0045,-0.0222 -0.06167,-0.0216 -0.053,-0.0425 0.03239,-0.0782 0.55887,-0.0865 0.645005,-0.13022 0.410859,-0.21894 0.86878,-0.38352 1.285214,-0.60466 0.400326,-0.30644 1.038002,-0.23436 1.413443,-0.56799 0.52915,-0.29266 1.092416,-0.53198 1.658719,-0.74548 0.454143,-0.26569 0.96304,-0.40535 1.446929,-0.60442 0.414484,-0.30438 0.916019,-0.46539 1.382279,-0.67604 0.624921,-0.20476 1.24421,-0.41639 1.857776,-0.65426 0.677511,-0.20932 1.360835,-0.38934 2.043407,-0.58265 0.611278,-0.0955 1.190212,-0.30369 1.792635,-0.43874 0.60897,-0.0668 1.19737,-0.16524 1.793031,-0.3019 0.581177,-0.13655 1.137237,-0.3417 1.728905,-0.45174 0.60862,-0.027 1.185276,-0.2031 1.779659,-0.31795 0.480085,-0.10259 1.050772,-0.0757 1.493058,-0.32197 0.555152,-0.32496 1.21716,-0.31361 1.809533,-0.50212 0.541128,-0.17391 1.103271,-0.23587 1.644412,-0.40291 0.575817,-0.18365 1.175512,-0.25218 1.774973,-0.30074 1.737363,-0.13688 1.930936,2.32013 0.193573,2.457 l 0,0 c -0.420038,0.0319 -0.841642,0.0709 -1.245311,0.19986 -0.576731,0.17624 -1.168433,0.25983 -1.746008,0.43172 -0.508234,0.12248 -1.037269,0.16039 -1.510162,0.40325 -0.629927,0.23382 -1.281999,0.39703 -1.953019,0.45702 -0.601443,0.11223 -1.189562,0.2961 -1.80486,0.32261 -0.553765,0.0937 -1.063985,0.32279 -1.61456,0.42839 -0.601609,0.13751 -1.200356,0.25404 -1.815778,0.30699 -0.555813,0.11733 -1.088666,0.32563 -1.653388,0.40396 -0.607526,0.16892 -1.212833,0.33978 -1.819703,0.50808 -0.571777,0.22138 -1.144568,0.43685 -1.734903,0.60279 -0.495522,0.22304 -1.00115,0.40722 -1.458026,0.70869 -0.514344,0.21152 -1.04594,0.36776 -1.534859,0.63864 -0.433656,0.15111 -0.858742,0.34362 -1.262738,0.55863 -0.513064,0.27889 -1.0549,0.45197 -1.594738,0.66426 -0.541427,0.24896 -1.079136,0.50558 -1.626676,0.73792 -0.841767,0.22935 -1.718585,0.36466 -2.544085,-0.0119 -0.916042,-0.57332 -1.181509,-1.08285 -1.372834,-2.11227 -0.160406,-0.60385 -0.217461,-1.21773 -0.34598,-1.82773 -0.138627,-0.62878 -0.166053,-1.26097 -0.244986,-1.89786 -0.114856,-0.58547 -0.308878,-1.15421 -0.355116,-1.75241 -0.125494,-0.60199 -0.339631,-1.18238 -0.422112,-1.79393 -0.151622,-0.56957 -0.330534,-1.13236 -0.511474,-1.69283 -0.208551,-0.71232 -0.364204,-1.45975 -0.353414,-2.20448 0.009,-0.72685 0.02071,-1.45554 0.11189,-2.17772 0.07844,-0.54415 0.242562,-1.08202 0.235062,-1.63105 -0.01571,-0.46909 -0.02365,-0.94712 -0.152644,-1.40174 -0.177192,-0.44936 -0.457994,-0.85964 -0.722608,-1.2605 -0.328134,-0.59675 -0.874901,-1.05908 -1.194758,-1.66564 -0.484837,-0.83 -1.105308,-1.57529 -1.654744,-2.36241 -1.115679,-1.33882 0.777691,-2.91663 1.89337,-1.57781 z"
       inkscape:connector-curvature="0"
       transform="translate(0,796.36218)" />
    <path
       style="fill:#4d4d4d;fill-opacity:1;stroke:none"
       id="path3005"
       d="m 89.480274,139.38283 c 0.336195,-0.92527 0.710273,-1.83806 0.96722,-2.78965 0.154239,-0.73407 0.394678,-1.44781 0.642046,-2.15494 0.301082,-0.55302 0.508832,-1.14004 0.716912,-1.73182 0.127186,-0.6439 0.517461,-1.17412 0.786311,-1.75623 0.170063,-0.52311 0.481402,-0.98409 0.675885,-1.49706 0.270382,-0.58025 0.603457,-1.12854 0.94117,-1.67092 0.524389,-0.66073 1.123382,-0.93972 2.011593,-0.51601 0.556585,0.26552 0.656395,0.98215 0.730509,1.50084 0.0624,0.71723 0.05435,1.43826 0.05401,2.15753 -0.0017,0.71081 -0.0037,1.42162 -0.0047,2.13244 -8.7e-4,0.70457 -9.32e-4,1.40915 -9.92e-4,2.11372 -2.8e-5,0.7041 -10e-7,1.4082 1.1e-5,2.1123 0.06401,0.62428 -0.10109,1.28898 0.03091,1.90446 0.1378,-0.22818 -0.29592,-0.33518 0.03367,-0.37964 0.753878,-0.10374 1.489232,-0.31252 2.24242,-0.43487 0.70787,-0.15377 1.37731,-0.42719 2.07801,-0.60914 0.6593,-0.14567 1.29268,-0.36385 1.9607,-0.47868 0.57557,-0.21799 1.17996,-0.32514 1.78843,-0.39748 0.7248,-0.0682 1.45357,-0.0694 2.18089,-0.0726 0.70706,-9.4e-4 1.41412,0.001 2.12118,0.002 0.70408,8.7e-4 1.40816,0.001 2.11223,0.001 0.56895,0.002 1.12374,-0.16353 1.68713,-0.24331 0.72044,-0.0888 1.44712,-0.0995 2.17201,-0.10804 0.70871,-0.005 1.41746,-0.003 2.12618,-0.002 0.70425,8.9e-4 1.40851,0.001 2.11276,0.001 0.70411,1.3e-4 1.40822,1.2e-4 2.11233,1.2e-4 0.70417,-1e-5 1.40834,-1e-5 2.11251,-2e-5 0.70318,-0.009 1.91493,-0.0293 2.28442,0.7296 0.16176,0.33227 0.15101,0.72352 0.22651,1.08527 -0.23658,0.93619 -1.02797,1.26216 -1.82074,1.61875 -0.51152,0.40101 -1.15403,0.54389 -1.76684,0.70994 -0.67796,0.11071 -1.30417,0.34836 -1.93187,0.61428 -0.65574,0.31312 -1.37285,0.46575 -2.04576,0.725 -0.46849,0.19124 -0.99075,0.31204 -1.42458,0.58072 -0.56337,0.38875 -1.2579,0.3897 -1.88204,0.58772 -0.6152,0.16386 -1.20814,0.38681 -1.8281,0.53543 -0.72359,0.096 -1.42997,0.2764 -2.1489,0.40029 -0.57575,0.0971 -1.15954,0.22799 -1.71796,0.40367 -0.6274,0.14929 -1.21034,0.41672 -1.83073,0.59019 -0.70578,0.16802 -1.40152,0.35591 -2.12074,0.46292 -0.59922,0.11139 -1.14118,0.38528 -1.72231,0.56205 -0.63332,0.10139 -1.23923,0.30353 -1.86561,0.43714 -0.59618,0.11149 -1.1683,0.30437 -1.76985,0.40514 -0.609702,0.0336 -1.194502,0.11875 -1.788857,0.24754 -0.624272,0.19897 -1.310499,0.0797 -1.936338,0.23253 -0.640057,0.16904 -1.295475,0.24913 -1.954048,0.29813 -0.657999,0.0309 -1.308962,0.0155 -1.958632,0.12649 -0.745959,0.14385 -1.50252,0.20671 -2.260217,0.24273 -0.662068,0.0174 -1.316356,-9.9e-4 -1.969768,0.1096 -0.636155,0.12489 -1.282719,0.14396 -1.909852,0.30585 -0.465946,0.16256 -0.977217,0.28332 -1.423756,0.49755 -0.08299,0.034 -0.165984,0.0679 -0.248977,0.1019 -1.612908,0.66006 -2.546386,-1.62093 -0.933477,-2.281 l 0,0 c 0.08346,-0.0342 0.166922,-0.0683 0.250383,-0.10247 0.573969,-0.22175 1.16055,-0.42751 1.748625,-0.60462 0.697474,-0.17531 1.406777,-0.22974 2.114735,-0.34877 0.749917,-0.12197 1.498196,-0.135 2.256772,-0.13996 0.660092,-0.0304 1.319092,-0.0842 1.968626,-0.21161 0.726615,-0.11973 1.451666,-0.13716 2.186625,-0.15381 0.576271,-0.0408 1.145798,-0.11963 1.70561,-0.2673 0.612181,-0.0944 1.233336,-0.0907 1.842064,-0.21403 0.634248,-0.13726 1.265542,-0.24295 1.914942,-0.27142 0.56537,-0.0876 1.09729,-0.29508 1.6615,-0.38503 0.56024,-0.11323 1.10012,-0.31094 1.66825,-0.38733 0.69469,-0.19752 1.3394,-0.55567 2.06817,-0.63816 0.62151,-0.088 1.21919,-0.2618 1.82945,-0.40233 0.60435,-0.15627 1.16601,-0.44482 1.77906,-0.57553 0.65754,-0.18763 1.32741,-0.36123 2.0019,-0.46959 0.66918,-0.11268 1.32592,-0.28863 2.0003,-0.37021 0.59897,-0.13592 1.16596,-0.37382 1.76268,-0.51913 0.46146,-0.11298 0.94835,-0.13932 1.36546,-0.38706 0.5614,-0.27978 1.14283,-0.51983 1.73807,-0.71834 0.64045,-0.22123 1.29648,-0.39204 1.916,-0.67431 0.72972,-0.30906 1.46633,-0.58479 2.25025,-0.72415 0.50939,-0.13731 0.97251,-0.2475 1.40343,-0.58047 0.72903,-0.3236 0.56351,-0.42369 0.39884,0.209 0.0885,0.2872 0.11906,0.59912 0.26539,0.8616 0.13813,0.24781 0.49051,0.25897 0.50013,0.24111 0.0233,-0.0432 -0.095,-0.0278 -0.14406,-0.0309 -1e-5,0 -0.70416,0 -0.70417,0 -0.70417,0 -1.40834,1e-5 -2.11252,1e-5 -0.70432,0 -1.40864,2e-5 -2.11296,-1.2e-4 -0.70501,-1.8e-4 -1.41003,-4.8e-4 -2.11504,-0.001 -0.69822,-8.3e-4 -1.39645,-0.003 -2.09466,0.002 -0.6207,0.007 -1.24298,0.0137 -1.8604,0.0846 -0.6758,0.0922 -1.34003,0.29621 -2.02772,0.26691 -0.70505,-1.1e-4 -1.41011,-2.6e-4 -2.11516,-0.001 -0.70246,-9.5e-4 -1.40493,-0.003 -2.10739,-0.002 -0.63662,0.003 -1.27442,0.002 -1.90924,0.0564 -0.57156,0.0628 -1.11605,0.21097 -1.6652,0.38012 -0.59963,0.0952 -1.1609,0.31971 -1.75569,0.43547 -0.77368,0.19333 -1.50695,0.52325 -2.297579,0.65473 -0.834285,0.13206 -1.64467,0.38886 -2.487384,0.46174 -1.324352,0.0477 -2.254189,-0.39503 -2.621695,-1.74883 -0.08328,-0.74306 -0.04801,-1.48917 -0.05335,-2.23625 -1.2e-5,-0.70418 -3.9e-5,-1.40836 -1.1e-5,-2.11255 6e-5,-0.7057 1.22e-4,-1.4114 9.94e-4,-2.11711 0.001,-0.71002 0.003,-1.42004 0.0047,-2.13006 3.18e-4,-0.61625 0.0062,-1.23352 -0.03474,-1.84874 -0.0034,-0.0442 -0.02748,-0.0918 -0.01016,-0.13267 0.009,-0.0212 0.02725,0.0374 0.0438,0.0533 0.132496,0.12797 0.226852,0.32415 0.402959,0.37817 0.108733,0.0334 1.240167,0.26328 1.339301,-0.25765 -0.274855,0.39275 -0.488366,0.83046 -0.723208,1.24696 -0.230358,0.56594 -0.541668,1.09151 -0.750465,1.6661 -0.246485,0.4939 -0.56469,0.94665 -0.678368,1.49821 -0.207804,0.58641 -0.397769,1.18631 -0.714585,1.7252 -0.228745,0.65352 -0.452947,1.31169 -0.591128,1.99141 -0.2928,1.05911 -0.693762,2.08202 -1.079105,3.11002 -0.686502,1.60184 -2.951841,0.63098 -2.265339,-0.97086 z"
       inkscape:connector-curvature="0"
       transform="translate(0,796.36218)" />
    <path
       style="fill:#4d4d4d;fill-opacity:1;stroke:none"
       id="path3007"
       d="m 84.784818,147.14981 c 1.014172,0.18185 1.990108,0.515 2.991599,0.7488 0.66492,0.23135 1.345237,0.40527 2.002926,0.65578 0.545525,0.31593 1.123423,0.56648 1.670086,0.87925 0.567202,0.31519 1.069906,0.73412 1.535117,1.18309 0.373632,0.5058 0.874105,1.01612 0.945874,1.67635 0.02421,0.22275 -0.01466,0.44789 -0.02199,0.67183 -0.11687,0.22746 -0.19109,0.4825 -0.350611,0.68237 -0.636889,0.79798 -1.723686,0.72705 -2.59692,0.51855 -0.590176,-0.2247 -1.205291,-0.35129 -1.801026,-0.55848 -0.544325,-0.12621 -1.079601,-0.27828 -1.618725,-0.42723 -0.609964,-0.24471 -1.194912,-0.54042 -1.794497,-0.809 -0.57573,-0.20721 -1.156112,-0.40819 -1.741419,-0.58965 -0.466429,-0.23797 -0.933216,-0.40181 -1.449963,-0.47026 -0.603977,-0.053 -1.181275,-0.24606 -1.781209,-0.32992 -0.60822,-0.19377 -1.237853,-0.29517 -1.852666,-0.45876 -0.381419,-0.17988 -0.607436,-0.15325 -0.962846,-0.0335 -0.284675,0.2495 -0.639397,0.44849 -0.945853,0.68683 -0.525771,0.34384 -1.101192,0.59786 -1.649929,0.90156 -0.515347,0.28928 -1.124421,0.3986 -1.636315,0.69119 -0.505707,0.1969 -0.966508,0.47628 -1.444723,0.72978 -0.652543,0.26093 -1.300872,0.53741 -1.980732,0.72155 -0.476603,0.16295 -0.925018,0.3816 -1.392341,0.56737 -0.50619,0.21539 -1.070228,0.32215 -1.569722,0.54729 -0.547062,0.18233 -1.086631,0.3766 -1.633988,0.55824 -0.172708,0.10077 -0.06233,0.0402 -0.337617,0.16943 -1.577517,0.74068 -2.624995,-1.49026 -1.047478,-2.23094 l 0,0 c 0.363667,-0.17075 0.157475,-0.076 0.619947,-0.28133 0.508815,-0.16197 1.009226,-0.34842 1.515602,-0.5162 0.51778,-0.18778 1.047491,-0.34287 1.560404,-0.5437 0.557418,-0.20756 1.086793,-0.48761 1.661035,-0.65443 0.503224,-0.12333 0.967742,-0.35755 1.458453,-0.51903 0.49893,-0.25881 0.980115,-0.55207 1.503922,-0.75987 0.500911,-0.23416 1.019179,-0.43015 1.531508,-0.63651 0.459075,-0.25323 0.931039,-0.48007 1.387577,-0.73414 0.53189,-0.37871 1.049478,-0.78965 1.655818,-1.04659 0.799962,-0.24539 1.595345,-0.29967 2.388958,0.0145 0.489454,0.17475 1.043265,0.1662 1.523717,0.38798 0.599096,0.0887 1.177786,0.26448 1.777936,0.32946 0.638892,0.0957 1.273557,0.23897 1.84221,0.55961 0.675732,0.21583 1.350157,0.43784 2.011635,0.69272 0.486138,0.22037 0.975334,0.43152 1.446074,0.68267 0.588562,0.16594 1.173574,0.32007 1.765652,0.47329 0.551308,0.1922 1.12431,0.30123 1.669058,0.51664 0.08761,0.073 0.02593,0.0353 0.208515,0.0596 0.03191,0.0228 -0.05441,0.0567 -0.07814,0.0879 -0.26318,0.34602 -0.111984,0.042 -0.287508,0.5876 0.103427,0.71522 0.120033,0.18928 -0.239568,-0.17119 -0.295066,-0.32681 -0.674688,-0.58465 -1.05068,-0.80699 -0.409533,-0.26536 -0.900302,-0.39959 -1.290373,-0.69594 -0.555464,-0.21185 -1.132485,-0.34929 -1.689891,-0.55975 -1.012023,-0.23984 -1.999789,-0.56988 -3.024641,-0.75681 -1.690712,-0.42268 -1.092955,-2.8137 0.597757,-2.39103 z"
       inkscape:connector-curvature="0"
       transform="translate(0,796.36218)" />
    <path
       style="fill:#4d4d4d;fill-opacity:1;stroke:none"
       id="path3009"
       d="m 65.339019,155.46432 c 0.397434,0.80159 0.812037,1.58235 1.278164,2.34542 0.402838,0.44118 0.61478,1.02537 1.00698,1.47138 0.338182,0.43719 0.698527,0.8608 1.06503,1.27656 0.484342,0.54686 0.888878,1.15565 1.336594,1.73012 0.436091,0.49224 0.725648,1.05857 1.036466,1.63079 0.302846,0.57479 0.422889,1.21816 0.669207,1.81587 0.335455,0.76455 0.485422,1.58032 0.570232,2.40522 0.0596,0.74438 0.05735,1.49178 0.05781,2.23799 0.04584,0.74634 -0.03999,1.4717 -0.188655,2.20089 -0.115018,0.56809 -0.139318,1.1481 -0.157913,1.7257 -0.01582,0.68568 -0.01369,1.37161 -0.01324,2.05743 0.08851,0.44845 0.169547,0.88915 0.321173,1.31925 0.249377,0.69327 0.319407,1.42618 0.362014,2.15607 -0.03797,0.59389 0.118533,1.15485 0.220531,1.7332 0.116166,0.71699 0.13636,1.44408 0.150499,2.16877 0.0093,0.71052 0.007,1.42111 0.0062,2.13167 -5.64e-4,0.47004 -2.94e-4,0.23506 -8.07e-4,0.70493 -0.0019,1.74275 -2.466517,1.74006 -2.464614,-0.003 l 0,0 c 5.13e-4,-0.47008 2.44e-4,-0.23507 8.08e-4,-0.70503 7.83e-4,-0.6938 0.003,-1.38765 -0.0058,-2.08142 -0.01136,-0.59833 -0.02363,-1.19893 -0.11411,-1.79165 -0.115868,-0.66964 -0.285971,-1.33171 -0.253405,-2.01789 -0.02746,-0.49969 -0.0589,-1.00498 -0.227341,-1.48099 -0.240332,-0.68922 -0.388431,-1.40585 -0.459818,-2.13264 -4.57e-4,-0.71327 -0.0026,-1.42667 0.01457,-2.13978 0.02385,-0.71589 0.06155,-1.4338 0.206279,-2.13733 0.116021,-0.56893 0.187403,-1.1213 0.138965,-1.70703 -3.73e-4,-0.665 0.0027,-1.33099 -0.04562,-1.99464 -0.05718,-0.59726 -0.157873,-1.1864 -0.4074,-1.73785 -0.20552,-0.52664 -0.343271,-1.07568 -0.567217,-1.59283 -0.232344,-0.45818 -0.446899,-0.88938 -0.808781,-1.27167 -0.403656,-0.53656 -0.784823,-1.0888 -1.226793,-1.59615 -0.395038,-0.44947 -0.779483,-0.91044 -1.150359,-1.37897 -0.419951,-0.55294 -0.751085,-1.16231 -1.175092,-1.71301 -0.526926,-0.86359 -0.99458,-1.75016 -1.439943,-2.65883 -0.686502,-1.60183 1.578837,-2.57269 2.265339,-0.97086 z"
       inkscape:connector-curvature="0"
       transform="translate(0,796.36218)" />
    <path
       style="fill:#4d4d4d;fill-opacity:1;stroke:none"
       id="path3011"
       d="m 72.9832,187.15873 c 0.632318,0.80618 1.14607,1.69296 1.698685,2.55216 0.292044,0.53563 0.71405,0.97426 1.04206,1.48534 0.236765,0.3786 0.533144,0.70605 0.818155,1.04725 0.304581,0.19478 0.469176,0.65663 0.816236,0.78472 0.481865,0.32923 0.824546,0.80715 1.244876,1.2036 0.41501,0.4559 0.849901,0.89071 1.249698,1.3605 0.471324,0.50054 0.857208,1.07521 1.328932,1.57433 0.425093,0.44974 0.859519,0.89126 1.275332,1.34969 0.35638,0.36098 0.722222,0.71305 1.069902,1.08288 0.333815,0.31913 0.647604,0.65497 0.99742,0.95774 0.519413,0.4747 1.083573,0.89481 1.605943,1.36584 0.438094,0.37553 0.861197,0.77114 1.261058,1.18738 0.350729,0.49425 0.736151,0.9587 1.045298,1.48003 0.02467,0.19014 0.981056,1.13886 0.294,0.53288 -0.364176,-0.008 -0.762986,-0.17854 -1.092529,-0.0233 -0.308959,0.14551 -0.433166,0.53121 -0.608338,0.82437 -0.09655,0.16158 0.08798,0.47282 -0.01814,0.31112 -0.04315,-0.0658 -0.206555,-0.54606 -0.215168,-0.57043 -0.222898,-0.3986 -0.427828,-0.81646 -0.69005,-1.19236 -0.277959,-0.39012 -0.501605,-0.82306 -0.81128,-1.19095 -0.387475,-0.4794 -0.742768,-0.97874 -1.076268,-1.49787 -0.345673,-0.33347 -0.484973,-0.82485 -0.808072,-1.17308 -0.285398,-0.44239 -0.573169,-0.87687 -0.881953,-1.3024 -0.304951,-0.47775 -0.576333,-0.97196 -0.850389,-1.46765 -0.283485,-0.20626 -0.552963,-0.56324 -0.831848,-0.84167 -0.399391,-0.24346 -0.681685,-0.66612 -1.100486,-0.87728 -0.485563,-0.29721 -0.909916,-0.67278 -1.352722,-1.0263 -0.367374,-0.37661 -0.790845,-0.69023 -1.220247,-0.99157 -0.439445,-0.38015 -0.911154,-0.71971 -1.38955,-1.04834 -0.468305,-0.19156 -0.821435,-0.58727 -1.273089,-0.80191 -0.408492,-0.24937 -0.816949,-0.5246 -1.264233,-0.70096 -0.513403,-0.27694 -1.039375,-0.52136 -1.543278,-0.81672 -0.277605,-0.14445 -0.140494,-0.0823 -0.409893,-0.18964 -1.604748,-0.67967 -0.643551,-2.94913 0.961197,-2.26946 l 0,0 c 0.494831,0.21584 0.260566,0.10171 0.704671,0.33852 0.413222,0.24872 0.850455,0.43909 1.26888,0.67659 0.507299,0.2286 1.002594,0.49811 1.468512,0.80109 0.512063,0.29368 0.968543,0.66674 1.494599,0.93921 0.483049,0.33882 0.973059,0.67336 1.414538,1.06595 0.467009,0.33716 0.946077,0.67149 1.346354,1.08791 0.354789,0.29323 0.697323,0.59609 1.090511,0.83943 0.556768,0.36259 1.038771,0.81522 1.552125,1.23589 0.436658,0.44163 0.869372,0.89966 1.24375,1.39198 0.223644,0.41011 0.443661,0.81958 0.690697,1.21482 0.284453,0.39981 0.568701,0.79761 0.818894,1.21863 0.336901,0.44794 0.596231,0.94128 0.951373,1.37541 0.278709,0.44687 0.582049,0.86736 0.916092,1.27434 0.351923,0.44693 0.638434,0.9373 0.964041,1.40287 0.345098,0.55421 0.688711,1.11449 0.94527,1.71678 0.264571,0.78376 0.788498,1.79287 -0.284515,2.39533 -0.361558,0.203 -0.828319,0.0403 -1.242478,0.0604 -0.616639,-0.44579 -0.920054,-0.86947 -1.30907,-1.5133 -0.167826,-0.37133 -0.520223,-0.63744 -0.696271,-1.00381 -0.339371,-0.38597 -0.747928,-0.7118 -1.127976,-1.05566 -0.494476,-0.46786 -1.063917,-0.85069 -1.556605,-1.32178 -0.418341,-0.36468 -0.797242,-0.76612 -1.196017,-1.15096 -0.33998,-0.39107 -0.741876,-0.72736 -1.093113,-1.10851 -0.398201,-0.4593 -0.842521,-0.87925 -1.254201,-1.32632 -0.480504,-0.5336 -0.909247,-1.10964 -1.389881,-1.64341 -0.342547,-0.404 -0.717367,-0.77562 -1.06976,-1.17021 -0.318634,-0.30473 -0.598645,-0.64933 -0.918195,-0.94199 -0.505397,-0.36374 -0.923542,-0.80972 -1.346497,-1.26488 -0.350189,-0.43548 -0.726163,-0.84975 -1.019025,-1.3292 -0.264735,-0.52051 -0.792253,-0.89436 -1.018019,-1.44682 -0.490334,-0.77536 -0.959221,-1.56494 -1.513312,-2.29842 -1.115679,-1.33881 0.777691,-2.91662 1.89337,-1.57781 z"
       inkscape:connector-curvature="0"
       transform="translate(0,796.36218)" />
    <path
       style="fill:#4d4d4d;fill-opacity:1;stroke:none"
       id="path3013"
       d="m 72.049418,190.19761 c 0.203006,1.02717 0.440449,2.04148 0.698876,3.05565 0.192379,0.69033 0.196845,1.40896 0.368162,2.10105 0.09389,0.57133 0.237506,1.11944 0.390687,1.67592 0.08981,0.59818 0.296374,1.16259 0.429528,1.75119 0.06813,0.61 0.167091,1.19966 0.304187,1.79646 0.274279,0.49019 0.346294,1.05367 0.501612,1.58431 0.19899,0.63207 0.261196,1.29038 0.444813,1.92472 0.146486,0.65221 0.296367,1.30156 0.445326,1.95358 0.276396,0.51944 0.311877,1.12305 0.508688,1.66505 0.202843,0.54652 0.272354,1.12336 0.44636,1.67658 0.198928,0.56721 0.426187,1.11269 0.554241,1.70662 0.24264,0.60564 0.250378,1.27566 0.43531,1.89235 0.211819,0.38885 0.09944,1.0179 0.419311,1.34866 0.191323,0.28028 0.291122,0.60258 0.418542,0.91249 0.05486,0.13343 0.203869,0.25461 -0.07839,-0.0977 -0.331743,-0.21825 -0.548541,-0.0905 -0.266469,-0.21172 0.129385,-0.0556 0.237999,-0.1506 0.357745,-0.2247 0.670017,-0.31912 1.315606,-0.68846 1.991974,-0.99473 0.553816,-0.28624 1.104893,-0.58226 1.676551,-0.83176 0.461099,-0.29311 0.988013,-0.44475 1.488498,-0.65344 0.594676,-0.17808 1.165061,-0.41651 1.766837,-0.57279 0.528521,-0.15859 1.029233,-0.39146 1.52959,-0.62408 0.633455,-0.30363 1.33094,-0.45794 1.969262,-0.74473 0.589508,-0.22392 1.14164,-0.51543 1.744086,-0.7063 0.33666,-0.2191 0.823567,-0.22484 1.1171,-0.51221 0.436284,-0.31603 0.947115,-0.51603 1.394856,-0.80988 0.454408,-0.20655 0.871177,-0.45429 1.2815,-0.73278 0.489242,-0.3558 1.058832,-0.54594 1.593763,-0.80926 0.558341,-0.21824 1.086943,-0.48657 1.661595,-0.66353 0.868752,-0.21552 1.695013,-0.51918 2.326111,0.50726 0.158009,0.257 0.05797,0.60059 0.08696,0.90089 -0.09703,0.19774 -0.161916,0.41481 -0.291089,0.59321 -0.0508,0.0702 -0.850468,0.83455 -0.968704,0.9497 -0.590069,0.47547 -1.219535,0.91078 -1.886303,1.27141 -0.502265,0.30419 -1.023288,0.58664 -1.560551,0.825 -0.368662,0.23613 -0.764859,0.4371 -1.120954,0.69384 -0.522304,0.35185 -1.090365,0.61844 -1.649181,0.90467 -0.43692,0.30364 -0.88103,0.59614 -1.321519,0.89487 -0.408765,0.3808 -0.818424,0.75947 -1.246263,1.11923 -0.522439,0.4125 -1.034756,0.83622 -1.550932,1.25627 -0.448395,0.22358 -0.726186,0.60047 -1.063804,0.95234 -0.445671,0.35461 -0.887217,0.71036 -1.33872,1.05727 -0.67994,0.46623 -1.44513,0.78102 -2.236035,1.00056 -0.588755,0.2107 -1.173028,0.43515 -1.769853,0.62244 -0.594609,0.18046 -1.197152,0.347 -1.787978,0.54183 -0.527111,0.21921 -1.090657,0.38873 -1.607467,0.63287 0.175188,0.0196 0.06961,0.2916 0.05218,0.47125 -0.0052,0.09 -0.01176,0.17998 -0.01569,0.27006 -0.0043,0.0985 -0.04956,1.20421 0.04143,1.06308 0.226363,0.48645 0.464614,0.96795 0.668702,1.46473 0.281259,0.45431 0.427348,0.97071 0.631304,1.46079 0.402775,0.50534 0.558106,1.16435 0.669928,1.78585 0.07838,0.60712 0.256255,1.19252 0.34676,1.8001 0.145299,0.44909 0.381015,0.85043 0.540541,1.30144 0.200857,0.47057 0.429983,0.92661 0.625236,1.39988 0.111772,0.50519 0.405623,0.91576 0.631854,1.37035 0.205857,0.61882 0.435792,1.2309 0.589963,1.86618 0.150965,0.73165 0.167322,1.48069 0.180627,2.22484 -0.02405,0.46078 0.101168,0.89799 0.270447,1.31856 0.165202,0.4559 0.395729,0.88576 0.623246,1.31429 0.29879,0.38063 0.612387,0.74946 0.88823,1.15092 0.380895,0.38647 0.546338,0.93147 0.899039,1.33582 0.287982,0.41831 0.643664,0.78127 0.987577,1.15306 0.363022,0.23512 0.575993,0.72026 0.974397,0.89982 0.405078,0.31926 0.832389,0.59804 1.260607,0.88167 0.452992,0.18746 0.735457,0.65956 1.169556,0.86434 0.510679,0.18958 0.971967,0.50308 1.422233,0.80694 0.603984,0.31728 1.084559,0.76985 1.535687,1.27196 0.500632,0.54959 0.851415,1.14359 1.062431,1.85868 0.135009,0.72921 0.290399,1.54302 -0.046,2.24694 -0.09255,0.19367 -0.238489,0.35696 -0.357734,0.53545 -0.732901,0.70801 -1.682362,0.78701 -2.646235,0.82442 -0.723583,0.0143 -1.447376,0.004 -2.171018,-1.1e-4 -0.704107,-0.004 -1.408227,-0.005 -2.112345,-0.006 -0.703873,-4.7e-4 -1.407746,-3.9e-4 -2.11162,-3.6e-4 -0.74709,-0.005 -1.4932,0.03 -2.236267,-0.0533 -0.583218,-0.13197 -1.170982,-0.21962 -1.766962,-0.26248 -0.609043,-0.11662 -1.204679,-0.27004 -1.822586,-0.33387 -0.639885,-0.0524 -1.282497,-0.0535 -1.92408,-0.0567 -0.68496,0.0264 -1.347007,-0.17467 -2.020522,-0.26554 -0.618383,-0.0703 -1.241545,-0.0768 -1.863147,-0.0838 -0.698293,-0.005 -1.396612,-0.003 -2.094915,-0.002 -0.705008,8.9e-4 -1.410016,0.001 -2.115024,0.001 -0.70432,1.4e-4 -1.408639,1.2e-4 -2.112959,1.2e-4 -0.704172,0 -1.408343,-1e-5 -2.112515,-1e-5 -0.704174,-1e-5 -1.408347,-1e-5 -2.11252,-1e-5 -0.704176,0 -1.408352,0 -2.112528,0 -0.704176,0 -1.408351,0 -2.112527,0 -0.704176,0 -1.408352,0 -2.112528,0 -0.704176,0 -1.408352,0 -2.112527,0 -0.704176,0 -1.408352,0 -2.112528,0 -0.704176,0 -1.408352,0 -2.112527,0 -0.704176,0 -1.408352,0 -2.112528,0 -0.704176,0 -1.408352,0 -2.112527,0 -0.453733,-0.0289 -0.882942,0.0981 -1.296129,0.26593 -0.604169,0.31557 -1.309465,0.25253 -1.943681,0.42871 -0.647876,0.19051 -1.316404,0.27259 -1.987503,0.32272 -0.719751,0.0416 -1.441038,0.0408 -2.161723,0.0419 -0.705929,-1.6e-4 -1.411857,-0.002 -2.117785,-0.002 -1.742746,-0.002 -1.740364,-2.4663 0.0024,-2.46461 l 0,0 c 0.703897,6.8e-4 1.407794,0.002 2.111691,0.002 0.66212,-9.9e-4 1.324762,2.9e-4 1.986137,-0.0353 0.555937,-0.0393 1.106538,-0.11076 1.642085,-0.27275 0.515991,-0.10201 1.051311,-0.11466 1.546403,-0.30626 0.706302,-0.28338 1.450909,-0.46935 2.218124,-0.44488 0.704175,0 1.408351,0 2.112527,0 0.704176,0 1.408352,0 2.112528,0 0.704175,0 1.408351,0 2.112527,0 0.704176,0 1.408352,0 2.112528,0 0.704175,0 1.408351,0 2.112527,0 0.704176,0 1.408352,0 2.112528,0 0.704176,0 1.408351,0 2.112527,0 0.704176,0 1.408352,0 2.112528,0 0.704177,0 1.408353,0 2.11253,0 0.70417,0 1.408341,1e-5 2.112511,2e-5 0.704111,0 1.408222,1e-5 2.112333,-1.2e-4 0.70425,-1.8e-4 1.408499,-4.8e-4 2.112747,-0.001 0.708676,-8.3e-4 1.417366,-0.003 2.126031,0.002 0.724666,0.008 1.451094,0.0189 2.171425,0.1067 0.566556,0.0793 1.124412,0.24431 1.696495,0.24249 0.724872,0.004 1.450959,0.006 2.173568,0.0707 0.588574,0.0645 1.172812,0.15924 1.742013,0.32659 0.645286,0.0486 1.286877,0.12785 1.917354,0.27822 0.615464,0.132 1.280145,-0.0331 1.904402,0.0308 0.704679,-2e-5 1.409358,-1e-4 2.114037,3.7e-4 0.708342,6.7e-4 1.416687,0.002 2.125019,0.006 0.688413,0.004 1.376947,0.0134 2.065325,0.002 0.234022,-0.008 0.33108,-0.008 0.558631,-0.027 0.114779,-0.009 0.454443,-0.13204 0.278118,0.0959 -0.02516,0.087 -0.0061,0.34801 -0.0017,0.14134 0.005,-0.23505 -0.04227,-0.4719 -0.07168,-0.70394 -0.07496,-0.35892 -0.283405,-0.58554 -0.522107,-0.86575 -0.31514,-0.35353 -0.640995,-0.66294 -1.082527,-0.87562 -0.423424,-0.28946 -0.854342,-0.55214 -1.331323,-0.74813 -0.440896,-0.28736 -0.813242,-0.65216 -1.262633,-0.92462 -0.408972,-0.29591 -0.851082,-0.54457 -1.241045,-0.86851 -0.525782,-0.37366 -0.961996,-0.83687 -1.424081,-1.28481 -0.38953,-0.42993 -0.79642,-0.84678 -1.130342,-1.32351 -0.348973,-0.47637 -0.613644,-1.00274 -0.988067,-1.46025 -0.304448,-0.48134 -0.738917,-0.86749 -1.018125,-1.36828 -0.267329,-0.50577 -0.530504,-1.01871 -0.73403,-1.55349 -0.277461,-0.69792 -0.461173,-1.43314 -0.446095,-2.18996 -0.0098,-0.56905 -0.0161,-1.14198 -0.115572,-1.70401 -0.102917,-0.46382 -0.299645,-0.89725 -0.410225,-1.35869 -0.228719,-0.509 -0.586902,-0.96303 -0.69945,-1.5234 -0.197337,-0.51949 -0.476128,-1.00639 -0.672445,-1.5275 -0.179928,-0.59154 -0.584711,-1.10293 -0.645266,-1.7378 -0.08241,-0.5876 -0.271879,-1.15117 -0.337388,-1.74073 -0.07166,-0.4707 -0.243858,-0.85457 -0.515882,-1.25315 -0.208993,-0.50256 -0.363822,-1.02235 -0.644397,-1.49289 -0.188258,-0.49935 -0.452249,-0.96937 -0.666055,-1.45814 -0.28662,-0.86863 -0.268941,-1.63177 -0.188551,-2.53296 0.126004,-1.02557 0.442469,-1.957 1.427051,-2.45847 0.606141,-0.24877 1.220312,-0.48358 1.832038,-0.71631 0.600447,-0.18593 1.204002,-0.36357 1.80453,-0.54701 0.627835,-0.19018 1.234027,-0.44553 1.858122,-0.64796 0.484295,-0.12311 0.945337,-0.31961 1.374631,-0.57491 0.359329,-0.27608 0.708468,-0.57272 1.079193,-0.82707 0.40779,-0.39877 0.751398,-0.88759 1.277496,-1.14644 0.507738,-0.40412 1.002138,-0.82519 1.513051,-1.22509 0.494495,-0.41496 0.950256,-0.87111 1.453527,-1.27549 0.524861,-0.35124 1.042371,-0.71184 1.578653,-1.04649 0.478335,-0.24337 0.964732,-0.46565 1.411192,-0.76584 0.493494,-0.31562 0.987095,-0.6334 1.50855,-0.90285 0.486746,-0.19228 0.933859,-0.48524 1.387434,-0.74265 0.470101,-0.22976 0.878559,-0.57003 1.313912,-0.85691 0.175502,-0.16971 0.636674,-0.7501 0.801403,-0.77901 0.06555,-0.0115 -0.09033,0.10044 -0.11836,0.1608 -0.05324,0.11468 -0.08194,0.23922 -0.122911,0.35883 0.04288,0.23105 -0.01288,0.50553 0.128633,0.69313 0.60087,0.79658 0.650444,0.59349 1.26836,0.56479 0.03695,-0.002 -0.07244,0.0153 -0.10796,0.0256 -0.522371,0.15195 -0.226902,0.0887 -0.588769,0.1571 -0.472063,0.12546 -0.889798,0.39128 -1.351099,0.54884 -0.421464,0.18156 -0.846384,0.32345 -1.22053,0.60155 -0.45003,0.30285 -0.905625,0.58717 -1.401407,0.80893 -0.426812,0.24505 -0.866851,0.46609 -1.278901,0.7364 -0.558703,0.35179 -1.160325,0.59509 -1.777491,0.82614 -0.525717,0.14471 -0.989183,0.45173 -1.507476,0.62103 -0.625218,0.2532 -1.27311,0.44819 -1.894603,0.71197 -0.638961,0.29031 -1.277932,0.58827 -1.956765,0.77425 -0.485342,0.11426 -0.936069,0.33435 -1.419007,0.45734 -0.497518,0.20725 -1.012458,0.36017 -1.473567,0.64715 -0.564367,0.22602 -1.08748,0.55286 -1.635918,0.81409 -0.59337,0.25831 -1.148075,0.59889 -1.73843,0.86356 -0.832101,0.48289 -1.634047,0.8053 -2.595055,0.44278 -0.184518,-0.14418 -0.389283,-0.26565 -0.553554,-0.43254 -0.362357,-0.36811 -0.422813,-0.88802 -0.692015,-1.30697 -0.315762,-0.61558 -0.491834,-1.26374 -0.65373,-1.93393 -0.161388,-0.66862 -0.24014,-1.35556 -0.462745,-2.01054 -0.09725,-0.51511 -0.34772,-0.96648 -0.492382,-1.46788 -0.173754,-0.55651 -0.257871,-1.12949 -0.447661,-1.68075 -0.181245,-0.61945 -0.304001,-1.25324 -0.558793,-1.85141 -0.137038,-0.6067 -0.280135,-1.21079 -0.410547,-1.81839 -0.184139,-0.6432 -0.266387,-1.30265 -0.450706,-1.94555 -0.154983,-0.57402 -0.278511,-1.14929 -0.529446,-1.69406 -0.137647,-0.60149 -0.254609,-1.20013 -0.308448,-1.81538 -0.116835,-0.54885 -0.325362,-1.07445 -0.400285,-1.63285 -0.156743,-0.57775 -0.309194,-1.15127 -0.407851,-1.7423 -0.165766,-0.68735 -0.205213,-1.38804 -0.362165,-2.07697 -0.258705,-1.01753 -0.50025,-2.03511 -0.701451,-3.06587 -0.422678,-1.69071 1.96835,-2.28847 2.391028,-0.59775 z"
       inkscape:connector-curvature="0"
       transform="translate(0,796.36218)" />
    <path
       style="fill:#4d4d4d;fill-opacity:1;stroke:none"
       d="m 60.325227,26.996968 c -3.272875,6.07793 -5.5336,12.90969 -6.557637,19.617899 -1.254859,-0.252779 -2.979615,1.272404 -1.485371,2.222555 1.48435,0.420333 0.568235,2.610785 0.462115,3.68592 -0.753647,3.090046 2.339477,6.109212 0.198427,8.923283 -2.062257,4.025515 -2.34305,8.750626 -0.902602,13.049204 1.157548,3.289156 0.94255,6.735386 -0.09903,10.012501 -0.720939,2.208211 -0.18303,5.162626 -2.145536,6.722678 -1.548271,0.788994 -4.090258,-0.788888 -4.830206,1.155289 0.877826,2.116372 4.249367,1.448254 5.435357,3.32283 0.403032,4.445333 0.530033,9.144283 -1.24331,13.335333 -2.752867,6.84073 -2.419049,14.26711 -2.783695,21.48836 0.03436,1.00865 -0.192121,2.15971 -1.342336,1.30933 -4.02133,-1.78662 -8.487698,-2.31943 -12.422102,-4.19205 -2.805328,-1.41379 -4.052723,-4.61573 -7.00875,-5.84246 -3.866844,-2.02853 -7.89313,-3.86639 -12.092019,-5.07226 -1.981061,0.20586 -0.787745,2.39886 0.209052,3.08077 2.01523,2.34739 2.547522,6.09885 5.875467,7.12978 5.272883,3.04119 11.490233,3.96503 16.735179,6.95373 1.13998,0.38003 1.689142,2.74757 0.011,2.62966 -4.888856,0.67226 -9.887594,1.21067 -14.677665,2.58565 -3.135643,1.35988 -6.711074,2.68584 -8.780193,5.54538 -0.668843,2.14038 2.216155,1.79447 3.454863,2.07952 1.186481,0.65205 2.731495,0.98038 3.68592,-0.25306 2.582757,-2.3329 5.993437,-3.3924 8.868215,-5.30333 4.103364,-1.87565 8.825031,-1.78463 13.291319,-2.03551 1.525519,0.10185 4.429783,-0.58705 4.665165,1.65042 -0.906968,3.42182 -1.945177,6.90811 -2.0025,10.52963 -0.09466,7.45225 -0.815049,14.93805 -2.101525,22.23655 -0.745765,2.91006 -2.892075,5.25323 -3.190797,8.35108 -0.417569,1.1476 0.114443,3.64271 -1.848461,3.1908 -4.871288,0.42269 -9.634775,-0.56163 -14.424602,-1.04526 -5.801822,0.54117 -11.78047,0.33565 -17.5221818,1.52492 -2.7517895,0.0972 -1.8695834,3.01855 0.4787357,2.80867 5.6755361,1.52091 11.6989611,3.99104 17.5935831,2.11402 5.261014,-1.64552 10.758905,0.27096 15.65691,2.20055 0.60089,5.15106 0.181835,10.48254 0.954063,15.60067 1.72554,5.26633 4.023199,10.93651 2.478794,16.50535 -1.989758,7.34625 -3.290477,14.9128 -3.782526,22.53229 0.202808,1.5247 -1.326523,4.45184 0.855795,4.84254 6.187361,-1.56493 12.669102,-0.82931 19.001745,-1.04526 8.939026,-0.0356 17.868973,0.0511 26.758682,0.84721 2.273425,-0.19877 4.966651,0.80377 7.019753,-0.30807 1.070861,-1.89696 -1.586617,-3.16321 -2.849712,-4.07102 -3.940342,-2.57943 -7.828101,-6.52343 -8.098022,-11.50887 -0.820347,-3.45574 -2.438152,-6.66299 -3.410852,-10.07852 -0.872811,-1.93775 -2.049782,-4.59288 -0.68217,-6.49162 3.014749,-1.54426 6.67602,-2.04422 9.2093,-4.4121 0.974241,-1.72657 -1.368735,-2.28081 -2.464616,-1.34234 -2.347483,0.75885 -4.515675,2.53483 -6.986744,2.66267 -1.602525,-2.13576 -1.856176,-5.11987 -2.750687,-7.61391 -1.656173,-6.11292 -3.166309,-12.35909 -4.247061,-18.53963 1.913264,-2.25261 0.632678,-5.50013 0.740603,-8.16279 -0.449148,-3.76371 -1.094969,-7.52399 -0.597567,-11.33407 0.460989,-4.17887 -2.024132,-7.71467 -4.470129,-10.81867 -0.756345,-1.3775 -2.203416,-2.79536 -2.37358,-4.31011 2.835216,-2.52946 6.922566,-3.00974 10.17708,-4.88682 2.079776,-0.74588 3.992512,-2.80335 6.28303,-1.62681 1.393195,0.55483 3.970221,1.06583 3.927981,-1.14428 1.536181,-1.39598 4.042522,-1.10916 5.996498,-1.55139 8.925914,-0.46431 17.520268,-2.94394 26.065508,-5.36934 1.2642,-0.0464 3.20967,-1.63566 1.50738,-2.61866 -4.7259,-0.29612 -9.56569,-0.0365 -14.27057,0.59415 -2.5087,0.33187 -5.164253,1.67541 -7.657909,1.03426 -0.755172,-2.25528 -0.08293,-4.87069 -0.957239,-7.10777 -2.198564,-0.82855 -2.00626,2.6196 -2.783695,3.88397 -0.534508,1.81616 -1.3192,4.1313 -3.575893,4.28006 -7.241854,1.61519 -14.65273,2.85011 -21.334328,6.21656 -1.378906,0.37545 -3.237599,1.62335 -4.588145,0.69317 -1.198786,-3.57661 -1.591515,-7.49117 -2.618654,-11.16779 -0.539994,-2.7999 1.302032,-6.04068 -1.144723,-8.27096 -0.926625,-1.83842 -3.214594,-3.50202 -2.519192,-5.75754 0.776118,-2.35046 3.613957,-3.22936 5.589396,-4.33509 4.393057,-2.20141 9.094522,-3.67848 14.039505,-3.35583 11.247815,0.0627 22.486986,0.59681 33.723417,1.06726 2.73289,-1.31157 -1.07295,-2.66563 -2.58541,-2.42293 -8.091056,-1.44065 -16.420186,-1.57418 -24.547361,-1.81312 -1.215981,-0.14457 0.0095,-1.75448 0.363091,-2.22256 3.348219,-4.32294 7.407046,-8.01017 10.793695,-12.301071 0.511228,-1.812249 -1.861834,-1.734406 -2.695673,-0.737184 -5.646779,3.825505 -10.034872,9.192765 -15.425852,13.247305 -4.89987,2.00447 -10.281685,2.58631 -15.271814,4.43411 -0.669875,0.0514 -2.873847,1.16815 -2.0025,-0.35209 0.734794,-5.25132 -0.288849,-10.70541 0.770193,-15.876962 1.105031,-2.034414 4.03098,-2.027351 5.413352,-3.76294 -0.218693,-2.576911 -3.840216,-0.319925 -5.08327,-2.112528 -2.147314,-2.37822 -1.010379,-5.705197 -0.176044,-8.395096 1.094716,-6.237959 -2.872889,-12.47469 -1.00125,-18.66066 2.516397,-2.508497 6.251075,-3.420335 9.397192,-4.958007 3.141694,-1.035693 6.409552,-3.304015 9.813605,-2.534864 1.102367,0.606548 3.137586,2.486468 3.795948,0.451113 -0.01182,-1.045048 0.113616,-2.149162 1.397349,-2.288572 1.398747,0.103899 3.183368,-1.872011 1.133283,-2.475618 -8.202504,-0.525253 -15.607318,3.662695 -23.391841,5.226305 -1.041529,0.270419 -2.144899,-0.01822 -2.101525,-1.254313 -0.49162,-3.593506 -0.988666,-7.300541 -0.704176,-10.925728 3.259556,-5.747318 3.717362,-12.528909 4.323228,-18.93533 -0.02037,-0.761583 -1.004711,-0.92794 -1.539533,-0.572542 z"
       id="path3015"
       inkscape:connector-curvature="0"
       transform="translate(0,796.36218)" />
  </g>
</svg>
