<?xml version="1.0" encoding="UTF-8" standalone="no"?>
<!-- Created with Inkscape (http://www.inkscape.org/) -->

<svg
   xmlns:dc="http://purl.org/dc/elements/1.1/"
   xmlns:cc="http://creativecommons.org/ns#"
   xmlns:rdf="http://www.w3.org/1999/02/22-rdf-syntax-ns#"
   xmlns:svg="http://www.w3.org/2000/svg"
   xmlns="http://www.w3.org/2000/svg"
   xmlns:sodipodi="http://sodipodi.sourceforge.net/DTD/sodipodi-0.dtd"
   xmlns:inkscape="http://www.inkscape.org/namespaces/inkscape"
   width="64"
   height="160"
   id="svg2"
   version="1.1"
   inkscape:version="0.48.5 r10040"
   sodipodi:docname="deadTree3.svg"
   inkscape:export-filename="C:\Users\narfman0\Desktop\deadTree3.png"
   inkscape:export-xdpi="90"
   inkscape:export-ydpi="90">
  <defs
     id="defs4" />
  <sodipodi:namedview
     id="base"
     pagecolor="#ffffff"
     bordercolor="#666666"
     borderopacity="1.0"
     inkscape:pageopacity="0.0"
     inkscape:pageshadow="2"
     inkscape:zoom="2.6901514"
     inkscape:cx="53.774157"
     inkscape:cy="103.1605"
     inkscape:document-units="px"
     inkscape:current-layer="layer1"
     showgrid="false"
     inkscape:window-width="1250"
     inkscape:window-height="902"
     inkscape:window-x="351"
     inkscape:window-y="67"
     inkscape:window-maximized="0" />
  <metadata
     id="metadata7">
    <rdf:RDF>
      <cc:Work
         rdf:about="">
        <dc:format>image/svg+xml</dc:format>
        <dc:type
           rdf:resource="http://purl.org/dc/dcmitype/StillImage" />
        <dc:title></dc:title>
      </cc:Work>
    </rdf:RDF>
  </metadata>
  <g
     inkscape:label="Layer 1"
     inkscape:groupmode="layer"
     id="layer1"
     transform="translate(0,-892.36218)">
    <path
       style="fill:#333333;fill-opacity:1;stroke:none"
       id="path2985"
       d="m 9.6347157,1042.7626 c 0.320563,-1.034 0.5422763,-2.0937 0.8151313,-3.1401 0.280014,-0.9359 0.558783,-1.8732 0.847623,-2.8066 0.303122,-0.9467 0.589478,-1.8986 0.945127,-2.8274 0.320165,-0.7506 0.471895,-1.5527 0.682679,-2.3371 0.167934,-0.9611 0.545595,-1.8642 0.790294,-2.8055 0.123917,-0.9115 0.428624,-1.7778 0.655771,-2.6656 0.325397,-0.9405 0.506505,-1.9176 0.747955,-2.8807 0.308628,-0.7902 0.482333,-1.6128 0.672235,-2.4352 0.224119,-0.8655 0.490448,-1.7095 0.62796,-2.5952 0.186535,-0.7913 0.355867,-1.5829 0.436984,-2.3924 0.05767,-0.8636 0.261192,-1.7092 0.477984,-2.5443 0.197522,-0.7463 0.267435,-1.514 0.300381,-2.2825 0.148907,-1.1848 0.233488,-2.3773 0.386251,-3.5614 0.190235,-1.1212 0.285368,-2.2526 0.341319,-3.3874 0.05569,-1.0993 0.0013,-2.2007 0.09136,-3.2976 0.117837,-0.89114 0.225042,-1.78274 0.279914,-2.68014 0.118123,-0.7768 0.27728,-1.544 0.351327,-2.327 0.005,-0.7455 0.105156,-1.47033 0.256971,-2.19844 0.107552,-0.67769 0.158797,-1.3562 0.294132,-2.03018 0.07653,-0.69599 0.334815,-1.34822 0.486912,-2.0269 0.09565,-0.66269 0.125951,-1.32282 0.2721,-1.97848 0.14676,-0.57502 0.187859,-1.16678 0.215675,-1.75714 0.135841,-0.71132 0.242439,-1.43238 0.417222,-2.13524 0.215354,-0.58176 0.259407,-1.20003 0.378473,-1.80322 0.169298,-0.72215 0.25561,-1.45336 0.45601,-2.16824 0.124785,-0.69973 0.384679,-1.33751 0.734839,-1.95229 0.205829,-0.4871 0.405421,-0.97774 0.612297,-1.46535 0.378178,-0.68196 0.720435,-1.3767 1.044623,-2.08492 0.335544,-0.77332 0.723633,-1.52714 1.124718,-2.26862 0.250329,-0.51013 0.474817,-1.04119 0.65645,-1.58095 0.254997,-0.66626 0.566198,-1.31104 0.906997,-1.93712 0.241069,-0.52897 0.550395,-1.02263 0.820311,-1.53703 0.304491,-0.56898 0.612598,-1.14627 0.847842,-1.7485 0.3239,-0.59302 0.608302,-1.20381 0.915764,-1.80409 0.261049,-0.49122 0.353913,-1.043 0.530712,-1.56764 0.167897,-0.51536 0.196248,-1.05882 0.222168,-1.59598 0.02436,-0.71328 0.02085,-1.42714 0.02012,-2.14073 -0.05972,-0.32242 -0.05471,-0.055 -0.02148,0.0303 0.05517,0.14173 0.11241,0.14222 -0.07901,0.12143 -0.663459,-0.0675 -1.327799,-0.035 -1.99058,-0.10721 -0.62091,-0.13407 -1.246538,-0.22206 -1.879817,-0.26547 -0.7157,0.025 -1.404501,-0.15987 -2.102349,-0.2833 -0.72498,-0.0938 -1.457033,-0.10843 -2.187002,-0.12112 -0.756202,-0.009 -1.512481,-0.007 -2.26872,-0.006 -0.805725,0.0159 -1.594409,-0.18103 -2.390905,-0.27715 -0.693023,-0.0741 -1.390536,-0.0841 -2.086785,-0.092 -0.838661,0.0219 -1.696836,-0.0128 -2.353359,-0.61903 -0.159227,-0.14703 -0.269722,-0.33931 -0.404583,-0.50896 -0.448569,-0.87162 -0.502975,-1.84962 -0.414552,-2.80785 0.260049,-1.20651 1.232538,-1.72926 2.306597,-2.08781 0.790921,-0.16292 1.575074,-0.36031 2.371137,-0.50034 0.672659,-0.099 1.317816,-0.31046 1.991081,-0.41976 0.768755,-0.1049 1.545858,-0.11337 2.32034,-0.12115 0.594791,-0.1406 1.197099,-0.23462 1.804551,-0.29786 0.704513,-0.10646 1.431625,0.007 2.132221,-0.10825 0.675973,-0.18566 1.405822,-0.13391 2.078751,-0.31121 0.568993,-0.11316 1.082916,-0.36989 1.639255,-0.5321 0.351141,-0.0979 0.87258,-0.14703 1.12707,-0.45134 0.188664,-0.18926 0.31666,-0.59283 0.44796,-0.88942 0.165372,-0.48339 0.438709,-0.92375 0.568989,-1.41898 0.09767,-0.64216 0.139336,-1.28524 0.259172,-1.92537 0.155871,-0.72563 0.194942,-1.46602 0.223327,-2.20525 0.02388,-0.79093 0.02304,-1.58232 0.02303,-2.37353 -7.48e-4,-0.74811 -0.0018,-1.49623 -0.0023,-2.24434 -4.52e-4,-0.74305 -4.88e-4,-1.48609 -5.22e-4,-2.22914 -1.6e-5,-0.77864 -2e-6,-1.55727 3e-6,-2.3359 6e-6,-0.82407 8e-6,-1.64814 9e-6,-2.4722 0.0063,-0.79759 -0.03258,-1.59434 0.0563,-2.38765 0.159512,-0.78233 0.229762,-1.57628 0.27583,-2.37205 0.02067,-0.85005 0.02953,-1.69073 0.165019,-2.5316 0.08032,-0.79259 0.317614,-1.55319 0.47278,-2.33151 0.123434,-0.69871 0.111365,-1.40869 0.200171,-2.11088 0.176348,-0.82753 0.200868,-1.67517 0.343931,-2.50668 0.11553,-0.6928 0.327545,-1.35474 0.531542,-2.02399 0.141263,-0.54094 0.157891,-1.10301 0.176526,-1.65869 0.0948,-0.67015 0.255768,-1.32427 0.322542,-1.99868 0.05389,-0.67828 0.05575,-1.35925 0.05936,-2.03922 -0.02161,-0.47255 0.05917,-1.07069 -0.18865,-1.50522 -0.133736,-0.17561 -0.08795,-0.50746 -0.268903,-0.645 -0.02674,-0.0203 0.04065,0.10945 0.0083,0.10043 -0.06617,-0.0184 -0.117968,-0.0704 -0.176952,-0.10563 -0.450775,-0.21882 -0.956463,-0.25755 -1.448467,-0.29575 -0.679194,-0.0381 -1.359857,-0.0345 -2.039858,-0.033 -1.036559,0.007 -0.06866,0.0809 -0.243302,-2.61729 -0.0018,-0.0285 -0.106834,0.0161 -0.08562,-0.003 0.148712,-0.13402 0.359982,-0.17542 0.542632,-0.25736 0.377498,-0.29624 0.888637,-0.39036 1.246962,-0.71204 0.443163,-0.3458 0.896072,-0.67651 1.368833,-0.98494 0.285279,-0.37314 0.612121,-0.74352 0.982139,-1.06323 0.36767,-0.42223 0.951311,-0.56242 1.358639,-0.92632 0.722538,-0.56428 1.558115,-0.76228 2.458895,-0.70679 0.772494,0.0942 1.515699,0.35967 2.228323,0.66314 1.077745,0.51339 1.256479,1.20996 1.619258,2.23183 0.264879,0.71067 0.354469,1.46176 0.40819,2.21292 0.0405,0.76066 0.03773,1.52274 0.03785,2.28423 -9.94e-4,0.74495 -0.0024,1.4899 -0.0032,2.23486 0.08514,0.45586 0.316133,0.85557 0.464932,1.30284 0.190091,0.53753 0.280345,1.13522 0.509175,1.65676 0.243688,0.57375 0.326431,1.19032 0.516228,1.77957 0.200817,0.49982 0.33296,1.04921 0.564625,1.53599 0.343241,0.60144 0.317349,1.31521 0.513469,1.95462 0.21955,0.68773 0.309139,1.40207 0.363807,2.11878 0.04453,0.76062 0.04323,1.52292 0.04421,2.28455 -3.45e-4,0.7453 -0.0018,1.49059 -0.0026,2.23588 0.04896,0.7863 -0.03957,1.55072 -0.194934,2.31934 -0.120764,0.60053 -0.146429,1.21347 -0.166012,1.82392 -0.01666,0.72399 -0.01443,1.44824 -0.01398,2.17237 9.25e-4,0.74418 0.0017,1.48835 0.0021,2.23253 3.28e-4,0.7438 3.42e-4,1.48759 3.6e-4,2.23138 6e-6,0.74347 -4e-6,1.48693 -9e-6,2.23039 -5e-6,0.74345 -6e-6,1.4869 -7e-6,2.23035 0.03084,0.72595 -0.184519,1.42714 -0.281835,2.14056 -0.07488,0.65185 -0.08179,1.30886 -0.08931,1.96419 -0.07832,0.68589 -0.244735,1.35372 -0.313263,2.04124 -0.05457,0.67776 -0.05686,1.35827 -0.06072,2.03778 -0.07393,0.68976 -0.241642,1.36103 -0.3106,2.05178 0.0067,0.69563 -0.183555,1.363 -0.306401,2.04116 -0.09748,0.6208 -0.109453,1.25046 -0.121215,1.87745 0.04065,0.77516 -0.04748,1.52895 -0.199279,2.28693 -0.119773,0.60188 -0.145198,1.21595 -0.164591,1.82757 -0.01647,0.72423 -0.01425,1.44871 -0.0138,2.17308 9.2e-4,0.74418 0.0016,1.48835 0.002,2.23253 -0.05167,0.61923 0.02124,1.20349 0.142906,1.80532 0.08508,0.68643 0.218478,1.35745 0.358392,2.03413 0.08175,0.68157 0.205643,1.34162 0.365254,2.00751 0.1707,0.7141 0.375663,1.41405 0.492926,2.1413 0.150664,0.7408 0.04195,1.51075 0.163469,2.25122 0.150128,0.7643 0.240399,1.53648 0.293175,2.31299 0.04271,0.77079 0.04368,1.54303 0.0454,2.31475 2.92e-4,0.7448 -0.0011,1.4896 -0.0018,2.2344 0.0538,0.89931 -0.24451,1.74381 -0.490153,2.59216 -0.140124,0.70994 -0.354055,1.40224 -0.488547,2.11346 -0.213227,0.76244 -0.363802,1.53662 -0.612763,2.28836 -0.222773,0.58549 -0.431334,1.17859 -0.660572,1.76211 -0.228475,0.59317 -0.386044,1.20782 -0.61777,1.80141 -0.221128,0.64429 -0.451899,1.28618 -0.65849,1.9358 -0.302181,0.62247 -0.408149,1.2989 -0.572013,1.96245 -0.151114,0.65868 -0.487368,1.24675 -0.624709,1.90899 -0.106212,0.66335 -0.08416,1.33458 -0.170658,1.99958 -0.144408,0.6062 -0.230029,1.2196 -0.273128,1.8405 -0.04029,0.7545 -0.03734,1.5104 -0.03872,2.26574 -2.98e-4,0.8066 0.0011,1.6132 0.0018,2.4198 6.02e-4,0.7489 7.02e-4,1.4978 7.7e-4,2.2468 4.2e-5,0.7428 2.7e-5,1.4856 2.1e-5,2.2284 -7e-6,0.7434 -1e-5,1.4867 -1.1e-5,2.23 -1e-6,0.7435 -1e-6,1.4869 -1e-6,2.2304 0.160875,0.4966 0.129988,1.0519 0.303276,1.5403 0.265568,0.5892 0.223504,1.2639 0.408112,1.8678 0.173747,0.567 0.23922,1.1529 0.413939,1.7177 0.09274,0.5606 0.32173,1.0565 0.554206,1.5676 0.234383,0.6846 0.51893,1.3494 0.707188,2.0494 0.08894,0.5253 0.267039,1.0271 0.480584,1.512 0.279859,0.619 0.326521,1.2979 0.511961,1.9429 0.217069,0.7334 0.278732,1.4959 0.316755,2.2557 0.04741,0.5049 0.07739,1.0901 0.277075,1.5626 0.171617,0.537 0.49819,0.9982 0.749926,1.4983 0.284963,0.4141 0.527188,0.8593 0.822293,1.2666 0.33684,0.4786 0.522861,1.0498 0.833765,1.541 0.324546,0.5525 0.59174,1.1325 0.879655,1.704 0.1895,0.405 0.357959,0.8796 0.693183,1.193 0.413663,0.4569 0.661974,1.0273 0.997423,1.5346 0.338233,0.2619 0.551319,0.725 0.865294,1.0418 0.31999,0.3915 0.716607,0.6877 1.079991,1.0498 0.411941,0.1756 0.783869,0.4424 1.160141,0.6878 0.50739,0.1932 0.878165,0.6159 1.385302,0.8041 0.62633,0.2643 1.16531,0.6614 1.702706,1.0679 0.31021,0.2227 1.107445,0.5542 1.199231,0.9702 0.09971,0.452 0.02357,0.9254 0.03536,1.388 -0.267095,0.2209 -0.505244,0.4823 -0.801284,0.6625 -0.388847,0.2366 -1.448498,0.1681 -1.913689,0.1727 -0.749982,0 -1.49997,-10e-4 -2.24995,0 -0.746051,0 -1.492103,0 -2.238156,0 -0.629064,0.01 -1.254887,-0.048 -1.872265,0.081 -0.714543,0.1658 -1.444956,0.2276 -2.175596,0.2649 -0.755722,0.029 -1.512189,0.028 -2.268351,0.028 -0.744654,-5e-4 -1.489308,0 -2.233963,0 -0.598868,0 -1.235988,0 -1.805255,0.2111 -0.591517,0.1693 -1.160811,0.3872 -1.742151,0.5856 -0.701068,0.2149 -1.433602,0.2422 -2.14816,0.3895 -0.676204,0.09 -1.328299,0.2374 -1.986875,0.407 -0.760422,0.1883 -1.543944,0.2291 -2.32349,0.2549 -0.809885,0.033 -1.609042,0.036 -2.406654,-0.118 -0.65892,-0.1321 -1.320501,-0.1958 -1.970912,-0.3705 -0.639648,-0.1291 -1.273292,-0.2803 -1.910219,-0.4242 -0.631776,-0.2694 -1.301207,-0.3994 -1.955513,-0.5911 -0.582048,-0.2005 -1.187083,-0.2893 -1.774714,-0.4728 -0.585542,-0.1215 -1.15813,-0.281 -1.735098,-0.4391 -0.501655,-0.2372 -0.999349,-0.4121 -1.547914,-0.485 -0.691312,-0.1709 -1.384881,-0.3098 -2.093813,-0.3783 -0.702094,-0.055 -1.406874,-0.057 -2.110674,-0.06 -0.501932,-0.062 -0.853126,0.159 -1.293941,0.3419 -0.1642,0.1181 -0.05477,0.044 -0.339905,0.2027 -1.6092443,0.892 -2.8707943,-1.3838 -1.2615503,-2.2759 l 0,0 c 0.352808,-0.1953 0.149037,-0.084 0.6122823,-0.3335 0.742146,-0.3007 1.467903,-0.6141 2.294239,-0.5372 0.785712,0 1.572535,0.01 2.35607,0.072 0.744684,0.075 1.482689,0.1934 2.205591,0.3918 0.645523,0.096 1.298064,0.2307 1.874021,0.5531 0.605315,0.1689 1.204767,0.3263 1.818584,0.4638 0.584347,0.1838 1.19365,0.2572 1.770873,0.4716 0.572471,0.2079 1.20986,0.2458 1.758362,0.538 0.671812,0.1535 1.339713,0.3098 2.014167,0.4501 0.590572,0.1622 1.200735,0.1908 1.798517,0.33 0.598244,0.1256 1.203927,0.078 1.813778,0.069 0.589674,-0.019 1.183779,-0.04 1.760718,-0.1745 0.698998,-0.1788 1.395293,-0.3385 2.111118,-0.4357 0.612536,-0.1252 1.231785,-0.1763 1.841743,-0.3069 0.605366,-0.1989 1.198159,-0.4303 1.811015,-0.6077 0.835653,-0.2358 1.696728,-0.3657 2.56763,-0.3246 0.743645,5e-4 1.48729,0 2.230936,0 0.713023,-3e-4 1.426322,10e-4 2.138972,-0.025 0.60511,-0.03 1.210038,-0.078 1.801192,-0.2188 0.788371,-0.151 1.57749,-0.1464 2.377973,-0.1305 0.747885,3e-4 1.495771,6e-4 2.243654,0 0.739554,0 1.479114,0.01 2.21867,0 0.208848,0 0.858226,-0.091 1.036569,-0.027 0.02317,0.01 -0.0414,0.027 -0.0621,0.04 -0.182235,0.187 -0.36447,0.374 -0.546705,0.5609 0.128246,1.462 -0.196209,0.9306 0.343885,1.4665 0.02222,0.022 -0.0462,-0.043 -0.07207,-0.06 -0.254396,-0.1732 -0.511475,-0.3405 -0.77309,-0.5027 -0.365557,-0.2809 -0.717581,-0.5647 -1.148993,-0.7446 -0.636649,-0.2866 -1.170926,-0.7037 -1.788985,-1.021 -0.525585,-0.3472 -1.090034,-0.6349 -1.580684,-1.0321 -0.385583,-0.393 -0.830918,-0.7189 -1.177223,-1.1535 -0.394348,-0.4608 -0.730674,-0.962 -1.138971,-1.4117 -0.238511,-0.4029 -0.450075,-0.8224 -0.744595,-1.1886 -0.430013,-0.5223 -0.807833,-1.0915 -1.050553,-1.7271 -0.268217,-0.535 -0.514391,-1.0776 -0.820243,-1.5927 -0.245879,-0.453 -0.462592,-0.9217 -0.725081,-1.3653 -0.340975,-0.52 -0.685145,-1.0373 -1.000714,-1.5745 -0.291274,-0.6215 -0.718104,-1.1813 -0.894272,-1.857 -0.210114,-0.7206 -0.368683,-1.4734 -0.396496,-2.2245 -0.0267,-0.5608 -0.06027,-1.1257 -0.219611,-1.6676 -0.152185,-0.5346 -0.216318,-1.0841 -0.391723,-1.6099 -0.268749,-0.6109 -0.493477,-1.2472 -0.617048,-1.9044 -0.137181,-0.5593 -0.39506,-1.0781 -0.558399,-1.6295 -0.276007,-0.6089 -0.54754,-1.2168 -0.672039,-1.8785 -0.189175,-0.6179 -0.279733,-1.2516 -0.456414,-1.8727 -0.131823,-0.5987 -0.173557,-1.2156 -0.389528,-1.7953 -0.180719,-0.7289 -0.294369,-1.479 -0.39437,-2.2227 0,-0.7435 0,-1.4869 10e-7,-2.2304 10e-7,-0.7433 4e-6,-1.4867 1.1e-5,-2.23 6e-6,-0.7427 2.1e-5,-1.4855 -2.1e-5,-2.2282 -6.8e-5,-0.7483 -1.68e-4,-1.4965 -7.69e-4,-2.2448 -7.07e-4,-0.8089 -0.0021,-1.6178 -0.0018,-2.4268 0.0015,-0.81544 -0.0011,-1.63154 0.0453,-2.44594 0.05009,-0.6886 0.132171,-1.3736 0.295954,-2.0456 0.153303,-0.7049 -0.0087,-1.46971 0.20299,-2.17297 0.157821,-0.6862 0.435738,-1.31855 0.642883,-1.98544 0.188666,-0.71284 0.288573,-1.45272 0.618401,-2.12337 0.230188,-0.70336 0.472192,-1.40142 0.717521,-2.0994 0.247847,-0.59876 0.372027,-1.23689 0.630078,-1.83171 0.240598,-0.50442 0.382122,-1.07068 0.595469,-1.58724 0.214395,-0.64394 0.331687,-1.30994 0.527194,-1.96066 0.154117,-0.78925 0.379439,-1.56066 0.544897,-2.34725 0.178734,-0.61344 0.429462,-1.21711 0.386835,-1.86856 6.74e-4,-0.74209 0.002,-1.48419 0.0018,-2.22629 -0.0016,-0.71566 -0.0019,-1.43179 -0.03959,-2.14667 -0.04754,-0.72308 -0.140497,-1.43989 -0.277334,-2.15182 -0.08306,-0.72539 -0.06167,-1.45565 -0.153353,-2.18085 -0.100928,-0.66073 -0.306316,-1.29104 -0.453302,-1.94132 -0.16498,-0.69132 -0.303054,-1.38037 -0.382989,-2.08715 -0.139777,-0.67936 -0.276982,-1.35554 -0.360478,-2.04435 -0.15533,-0.76866 -0.243765,-1.53311 -0.194479,-2.31943 -3.93e-4,-0.74409 -0.0011,-1.48818 -0.002,-2.23227 -4.72e-4,-0.75291 -0.0027,-1.50594 0.01515,-2.25869 0.02476,-0.75504 0.06385,-1.51218 0.213912,-2.25464 0.121863,-0.60832 0.19289,-1.19996 0.149074,-1.82544 0.01483,-0.76811 0.03561,-1.53911 0.163637,-2.29841 0.113882,-0.61255 0.290152,-1.20655 0.277081,-1.83607 0.06342,-0.60629 0.157654,-1.20739 0.29707,-1.80127 0.0044,-0.76304 0.0085,-1.52722 0.07422,-2.288 0.06356,-0.60812 0.158049,-1.21108 0.299896,-1.80631 0.009,-0.76532 0.02028,-1.53253 0.114046,-2.29316 0.08423,-0.59488 0.259416,-1.18066 0.256928,-1.7814 1e-6,-0.74345 2e-6,-1.4869 6e-6,-2.23036 6e-6,-0.74343 1.6e-5,-1.48687 10e-6,-2.2303 -1.8e-5,-0.74336 -3.2e-5,-1.48671 -3.59e-4,-2.23006 -3.97e-4,-0.7441 -0.0011,-1.48819 -0.0021,-2.23229 -4.7e-4,-0.753 -0.0027,-1.50613 0.01537,-2.25896 0.02506,-0.75511 0.06466,-1.51233 0.216225,-2.2546 0.121757,-0.60213 0.19473,-1.18674 0.143334,-1.8063 7.44e-4,-0.74333 0.0022,-1.48665 0.0026,-2.22998 -8.74e-4,-0.69837 8.54e-4,-1.39732 -0.03705,-2.0949 -0.04106,-0.57124 -0.112589,-1.13759 -0.294122,-1.68401 -0.122547,-0.53566 -0.153563,-1.09418 -0.396275,-1.59635 -0.221603,-0.571 -0.421166,-1.15249 -0.633974,-1.72612 -0.178995,-0.55845 -0.268173,-1.13595 -0.482784,-1.68214 -0.198173,-0.57758 -0.360882,-1.1703 -0.542122,-1.75266 -0.210341,-0.70019 -0.620855,-1.33955 -0.590122,-2.10285 7.48e-4,-0.74396 0.0022,-1.48793 0.0032,-2.23189 -8.7e-5,-0.70142 0.0029,-1.40335 -0.03158,-2.10413 -0.03564,-0.53251 -0.08597,-1.06597 -0.280247,-1.56848 -0.0407,-0.12567 -0.08653,-0.24979 -0.122099,-0.377 -0.01662,-0.0595 -0.04862,-0.13211 -0.016,-0.18453 0.01109,-0.0178 0.06642,-0.0155 0.05399,-0.0325 -0.02194,-0.0299 -0.05821,-0.0459 -0.08732,-0.0689 -0.46104,-0.1966 -0.935062,-0.38411 -1.430438,-0.46438 -0.244486,-0.045 -0.428792,-0.002 -0.675638,0.19599 -0.427839,0.30617 -0.905716,0.52722 -1.296696,0.87841 -0.283148,0.0745 -0.826094,1.20722 -1.196918,1.21743 -0.436984,0.27454 -0.840313,0.58006 -1.244701,0.89987 -0.549523,0.38012 -1.146793,0.66321 -1.728448,0.98947 -0.135554,0.0582 -0.974293,0.47603 -0.994388,0.43085 -1.144146,-2.57273 -1.304053,-2.52832 -0.275683,-2.5357 0.752373,-0.002 1.505552,-0.005 2.256832,0.0417 0.905392,0.0765 1.810396,0.21331 2.609213,0.67839 0.802574,0.50817 1.22918,1.05915 1.506357,1.95986 0.261645,0.78297 0.40084,1.5911 0.349645,2.42033 -0.0041,0.76339 -0.0077,1.52793 -0.07273,2.28911 -0.06401,0.61474 -0.159306,1.22445 -0.310672,1.82438 -0.02763,0.78531 -0.06997,1.57654 -0.290507,2.33587 -0.178515,0.57413 -0.365788,1.13573 -0.459926,1.73326 -0.169284,0.78474 -0.12398,1.61114 -0.325503,2.39394 -0.128588,0.74491 -0.03913,1.52257 -0.22629,2.26324 -0.152594,0.74684 -0.378593,1.47552 -0.455402,2.23652 -0.125535,0.7502 -0.100825,1.50382 -0.135247,2.26304 -0.05092,0.86159 -0.123516,1.7228 -0.29505,2.57015 -0.141029,0.65844 0.03649,1.36977 -0.03263,2.0375 -10e-7,0.82407 -3e-6,1.64814 -9e-6,2.47221 -5e-6,0.77859 -1.9e-5,1.55718 -3e-6,2.33577 3.4e-5,0.74247 7e-5,1.48494 5.21e-4,2.22741 5.33e-4,0.74872 0.0016,1.49745 0.0023,2.24617 2e-6,0.82495 6.53e-4,1.65009 -0.025,2.47473 -0.03414,0.86696 -0.08668,1.73479 -0.266393,2.58609 -0.137023,0.72086 -0.139644,1.45559 -0.31771,2.17017 -0.186016,0.61247 -0.468216,1.17785 -0.700258,1.77244 -0.338014,0.69364 -0.617307,1.37714 -1.240834,1.88091 -0.600834,0.42622 -1.258508,0.76554 -1.995053,0.88394 -0.61104,0.16125 -1.172268,0.48066 -1.804932,0.57301 -0.759454,0.14694 -1.535051,0.19004 -2.29408,0.34759 -0.729567,0.0799 -1.461803,0.057 -2.193511,0.11524 -0.687916,0.0683 -1.356377,0.23419 -2.042822,0.31116 -0.647036,0.006 -1.296247,0.0102 -1.939407,0.0893 -0.660308,0.10053 -1.288666,0.33345 -1.95223,0.4133 -0.679156,0.11623 -1.344141,0.29827 -2.022978,0.41476 -0.134826,0.0394 -0.497295,0.23936 -0.588051,0.23185 -0.02981,-0.002 0.170035,-0.26967 0.07041,-0.30524 -0.08696,0.33909 0.05212,0.74478 0.0021,1.05547 -0.13019,-0.0741 -0.296454,-0.0764 -0.292244,-0.0743 0.269447,0.13547 0.628332,-0.0315 0.909746,0.0359 0.791608,0.009 1.584551,0.0232 2.372149,0.11096 0.691129,0.0851 1.376467,0.25331 2.072652,0.25799 0.772497,-9.1e-4 1.545035,-0.003 2.317492,0.006 0.868184,0.0154 1.739247,0.0356 2.599858,0.16145 0.60925,0.11012 1.199953,0.28015 1.826057,0.24897 0.684084,0.049 1.364515,0.12939 2.034405,0.28097 0.721622,0.14176 1.496612,-0.0536 2.217889,0.14722 1.295046,0.3251 2.053661,0.98628 2.13838,2.38577 7.64e-4,0.75762 0.0043,1.51556 -0.02334,2.27281 -0.03964,0.77614 -0.104517,1.55632 -0.355308,2.29784 -0.220726,0.65439 -0.340962,1.34441 -0.694145,1.9489 -0.286001,0.51282 -0.493396,1.07069 -0.807184,1.57058 -0.282455,0.68074 -0.610212,1.34628 -0.962263,1.99304 -0.285868,0.53113 -0.598921,1.0448 -0.851084,1.59311 -0.293527,0.47366 -0.493326,1.0081 -0.716464,1.51645 -0.240405,0.67278 -0.506739,1.34237 -0.833445,1.97734 -0.384238,0.67679 -0.722594,1.38749 -1.038819,2.09816 -0.316471,0.68819 -0.635694,1.3724 -1.018911,2.02702 -0.251498,0.5745 -0.470502,1.16145 -0.742237,1.72644 -0.246725,0.43291 -0.414716,0.86615 -0.491411,1.37075 -0.186416,0.6553 -0.244465,1.33287 -0.41329,1.99408 -0.150364,0.64705 -0.165036,1.32739 -0.41455,1.9534 -0.175878,0.50243 -0.148225,1.07159 -0.329117,1.57804 -0.03648,0.74158 -0.09625,1.484 -0.276982,2.20676 -0.151993,0.65524 -0.12537,1.33037 -0.274492,1.98893 -0.154318,0.65542 -0.394077,1.28426 -0.471702,1.95662 -0.137948,0.67812 -0.165525,1.36608 -0.297408,2.04615 -0.13284,0.63704 -0.212444,1.26229 -0.214195,1.91699 -0.07368,0.7525 -0.195015,1.4967 -0.344271,2.2378 -0.0575,0.9217 -0.159985,1.83854 -0.285472,2.75334 -0.108957,1.0587 -0.0032,2.1311 -0.08404,3.1929 -0.06017,1.2047 -0.159999,2.4064 -0.360241,3.597 -0.148641,1.1096 -0.212994,2.2298 -0.366739,3.3393 -0.04408,0.9497 -0.136296,1.8979 -0.381285,2.8199 -0.183889,0.7081 -0.366156,1.4227 -0.408057,2.156 -0.08941,0.8557 -0.244466,1.6992 -0.455405,2.5337 -0.152037,0.9461 -0.413013,1.8562 -0.663717,2.7783 -0.196368,0.8351 -0.361623,1.6774 -0.682582,2.4779 -0.242732,0.9682 -0.424454,1.9514 -0.751998,2.8967 -0.230885,0.8923 -0.532392,1.7616 -0.659061,2.6783 -0.250519,0.9452 -0.617893,1.8551 -0.794008,2.8194 -0.234646,0.8731 -0.410067,1.7646 -0.768393,2.5996 -0.341533,0.8737 -0.598555,1.7765 -0.88928,2.6676 -0.284187,0.8918 -0.539615,1.7946 -0.813876,2.6893 -0.291014,1.0997 -0.517906,2.2167 -0.863383,3.3022 -0.581843,1.7455 -3.0503973,0.9227 -2.4685533,-0.8228 z"
       inkscape:connector-curvature="0" />
    <path
       style="fill:#333333;fill-opacity:1;stroke:none"
       d="m 37.225367,900.41957 c -1.483149,0.31826 -3.534431,1.38987 -3.618003,2.92204 0.973588,1.55606 2.651568,3.03139 2.107865,5.12815 -0.237402,7.06119 -2.502613,13.87262 -2.36486,21.00194 -0.419815,5.87932 0.09141,11.89987 -0.957444,17.69245 -0.503193,2.05813 -2.201937,3.35193 -4.27434,3.5675 -4.475577,1.08903 -9.267048,0.68134 -13.603371,2.34527 -1.512381,1.39446 0.771952,2.39147 2.007738,2.20988 5.028712,0.54825 10.250049,0.30979 15.114904,1.68163 0.821701,1.69023 0.177902,3.90831 -0.0697,5.70367 -3.33432,8.43421 -8.688298,16.25439 -9.502161,25.51222 -2.220901,10.67454 -1.659814,21.73208 -4.441996,32.28128 -1.415926,6.6349 -3.501895,13.0755 -5.281062,19.5953 0.704461,2.1038 3.702246,1.4618 5.382273,2.1783 4.09739,0.651 8.063695,2.6889 12.26311,2.5612 5.7095,-1.1004 11.399335,-2.1329 17.24759,-2.0929 2.631837,0.7478 4.085834,-1.7072 1.438151,-3.1093 -3.217387,-3.4581 -5.671715,-7.7295 -7.301624,-12.2108 -0.857132,-5.9864 -3.977416,-11.3976 -3.903126,-17.506 -0.220239,-7.6008 -0.379328,-15.40065 2.585485,-22.53599 1.764372,-4.76596 3.039532,-9.76341 2.290481,-14.87972 -0.510199,-5.76549 -2.048682,-11.42203 -1.437497,-17.26296 1.311116,-11.45416 1.872893,-22.97219 1.814564,-34.50046 0.413498,-3.09895 -0.343093,-6.02466 -1.521008,-8.86937 -1.374566,-3.08611 -1.071191,-6.5343 -1.5249,-9.82188 -0.294842,-1.04563 -1.367492,-1.76021 -2.45107,-1.59145 z"
       id="path2987"
       inkscape:connector-curvature="0" />
  </g>
</svg>
