<?xml version="1.0" encoding="UTF-8" standalone="no"?>
<!-- Created with Inkscape (http://www.inkscape.org/) -->

<svg
   xmlns:dc="http://purl.org/dc/elements/1.1/"
   xmlns:cc="http://creativecommons.org/ns#"
   xmlns:rdf="http://www.w3.org/1999/02/22-rdf-syntax-ns#"
   xmlns:svg="http://www.w3.org/2000/svg"
   xmlns="http://www.w3.org/2000/svg"
   xmlns:sodipodi="http://sodipodi.sourceforge.net/DTD/sodipodi-0.dtd"
   xmlns:inkscape="http://www.inkscape.org/namespaces/inkscape"
   width="128"
   height="256"
   id="svg2"
   version="1.1"
   inkscape:version="0.48.5 r10040"
   sodipodi:docname="deadTree1.svg"
   inkscape:export-filename="C:\Users\narfman0\Desktop\deadTree1.png"
   inkscape:export-xdpi="90"
   inkscape:export-ydpi="90">
  <defs
     id="defs4" />
  <sodipodi:namedview
     id="base"
     pagecolor="#ffffff"
     bordercolor="#666666"
     borderopacity="1.0"
     inkscape:pageopacity="0.0"
     inkscape:pageshadow="2"
     inkscape:zoom="2.4911981"
     inkscape:cx="55.438425"
     inkscape:cy="131.85757"
     inkscape:document-units="px"
     inkscape:current-layer="layer1"
     showgrid="false"
     inkscape:window-width="1205"
     inkscape:window-height="867"
     inkscape:window-x="402"
     inkscape:window-y="42"
     inkscape:window-maximized="0" />
  <metadata
     id="metadata7">
    <rdf:RDF>
      <cc:Work
         rdf:about="">
        <dc:format>image/svg+xml</dc:format>
        <dc:type
           rdf:resource="http://purl.org/dc/dcmitype/StillImage" />
        <dc:title></dc:title>
      </cc:Work>
    </rdf:RDF>
  </metadata>
  <g
     inkscape:label="Layer 1"
     inkscape:groupmode="layer"
     id="layer1"
     transform="translate(0,-796.36218)">
    <path
       style="fill:#333333;fill-opacity:1;stroke:none"
       id="path2985"
       d="m 7.6689461,131.67076 c 0.8744609,0.28599 1.7486095,0.57354 2.6204549,0.86827 0.861362,0.31243 1.70342,0.66577 2.531263,1.05794 0.669806,0.30768 1.369643,0.53515 2.033697,0.85447 0.648747,0.32792 1.337523,0.56335 2.002041,0.85365 0.656242,0.3049 1.309357,0.62384 1.930605,0.99542 0.56279,0.25578 1.05116,0.64233 1.592589,0.93351 0.632703,0.34379 1.126095,0.83489 1.56231,1.39929 0.410931,0.38391 0.711598,0.8665 1.116554,1.25466 0.446938,0.49482 0.854608,1.02542 1.266602,1.54958 0.378463,0.33822 0.692709,0.74032 1.064141,1.08502 0.442866,0.42295 0.876033,0.85865 1.29012,1.31016 0.406422,0.27903 0.743918,0.64239 1.100558,0.98495 0.445096,0.34524 0.879634,0.70771 1.287745,1.09684 0.401106,0.35179 0.775986,0.73175 1.168459,1.09329 0.49263,0.43775 0.893441,0.96446 1.37714,1.41166 0.478573,0.42867 0.858317,0.93935 1.266153,1.43061 0.464164,0.54339 0.895314,1.11276 1.367293,1.65037 0.603735,0.74306 1.158658,1.5232 1.741843,2.28198 0.557518,0.7743 1.072565,1.57893 1.572757,2.39116 0.489243,0.67156 0.939405,1.37237 1.378972,2.07736 0.533075,0.90705 1.016088,1.84451 1.46626,2.79532 0.516984,0.93251 0.974417,1.89732 1.410414,2.87019 0.481617,0.96231 0.954322,1.93093 1.459772,2.88088 0.510277,1.01674 0.940829,2.0658 1.379889,3.11327 0.296409,0.9303 0.800109,1.76806 1.185691,2.66056 0.467404,0.93644 0.841478,1.91002 1.212571,2.88688 0.433252,0.81133 0.639588,1.71635 1.025312,2.54549 0.362613,0.74914 0.575819,1.55597 0.852872,2.33766 0.347822,0.87965 0.59983,1.79112 0.90739,2.68492 0.290726,0.96231 0.630077,1.90797 0.953963,2.85937 0.239403,0.86539 0.476937,1.72945 0.746159,2.58631 0.191231,0.86719 0.406614,1.72145 0.690745,2.56273 0.272503,1.12815 0.579909,2.24803 0.836031,3.37998 0.203537,1.03458 0.439696,2.0625 0.659624,3.09386 0.28995,0.99461 0.491321,2.01024 0.718672,3.02004 0.308835,0.99713 0.49439,2.02491 0.706677,3.04527 0.292214,0.87782 0.483261,1.78253 0.693673,2.68215 0.302905,0.89322 0.426827,1.82954 0.643494,2.74255 0.188515,0.74521 0.300102,1.50412 0.459385,2.25523 0.266602,0.80186 0.454245,1.62145 0.568222,2.45792 0.09548,0.77957 0.258035,1.54676 0.344253,2.32925 0.06198,0.78601 0.223915,1.56086 0.416328,2.32438 0.218455,0.81039 0.310805,1.64323 0.359262,2.4786 -0.01946,0.76478 0.127868,1.51352 0.228117,2.26813 0.03903,0.7507 0.227126,1.47688 0.339401,2.21751 0.112755,0.83901 0.138773,1.68583 0.153694,2.53117 -0.03736,0.74728 0.110965,1.48008 0.205987,2.21773 0.113854,0.92366 0.128746,1.85537 0.142595,2.78473 0.0093,0.85355 0.0072,1.70717 0.0065,2.56076 0.100124,0.72737 0.212709,1.45184 0.280023,2.18331 0.05923,0.73693 0.06531,1.47659 0.06975,2.21544 0.0021,0.70251 4.26e-4,1.40502 -3.39e-4,2.10753 0.130488,0.55606 0.219136,1.11885 0.279173,1.68647 0.06287,0.71664 0.06704,1.43659 0.07138,2.15544 -0.0592,0.57902 0.09347,1.12378 0.192413,1.68759 0.115832,0.71196 0.136947,1.43395 0.151534,2.15364 -0.05349,0.58234 0.09991,1.13088 0.199461,1.6979 0.05521,0.39414 0.0099,0.2395 0.09271,0.47446 0.451919,1.67352 -1.914797,2.31263 -2.366716,0.63911 l 0,0 c -0.126656,-0.51438 -0.08573,-0.28235 -0.141071,-0.69262 -0.118573,-0.68648 -0.286825,-1.3663 -0.235381,-2.06981 -0.01173,-0.59508 -0.0248,-1.19238 -0.115621,-1.78177 -0.119985,-0.69434 -0.28791,-1.38228 -0.228772,-2.09381 -0.0038,-0.63935 -0.0062,-1.27965 -0.05835,-1.9173 -0.06599,-0.65357 -0.227128,-1.28862 -0.292245,-1.94197 7.59e-4,-0.69675 0.0024,-1.39351 3.81e-4,-2.09027 -0.0039,-0.66953 -0.0082,-1.33983 -0.0597,-2.00777 -0.07245,-0.8062 -0.22545,-1.60097 -0.290117,-2.40777 7.55e-4,-0.84075 0.0028,-1.68154 -0.0062,-2.52225 -0.01232,-0.837 -0.02279,-1.67634 -0.122856,-2.50847 -0.106,-0.82644 -0.261925,-1.65041 -0.225622,-2.48749 -0.01276,-0.7389 -0.03271,-1.4792 -0.127348,-2.21302 -0.109457,-0.75349 -0.307326,-1.49278 -0.34487,-2.25638 -0.107691,-0.81471 -0.260844,-1.62582 -0.245419,-2.45114 -0.03771,-0.68068 -0.108797,-1.35944 -0.289086,-2.0194 -0.219348,-0.87274 -0.399727,-1.75926 -0.476012,-2.65697 -0.08212,-0.76291 -0.247219,-1.50973 -0.337139,-2.27057 -0.100818,-0.77665 -0.305306,-1.52651 -0.536524,-2.27409 -0.15613,-0.73739 -0.267113,-1.48179 -0.450139,-2.2134 -0.205813,-0.9134 -0.34751,-1.8415 -0.641615,-2.73446 -0.214976,-0.91981 -0.417228,-1.84127 -0.706772,-2.74148 -0.209136,-1.00764 -0.394407,-2.02123 -0.698231,-3.00622 -0.228882,-1.0192 -0.434984,-2.04293 -0.724668,-3.04744 -0.217243,-1.02238 -0.451675,-2.04119 -0.653642,-3.06653 -0.234216,-1.04951 -0.53108,-2.0841 -0.766894,-3.13344 -0.289447,-0.85732 -0.524822,-1.72568 -0.706875,-2.61223 -0.263469,-0.83861 -0.501275,-1.68314 -0.728397,-2.532 -0.32244,-0.94974 -0.662076,-1.89334 -0.952043,-2.85374 -0.303497,-0.88877 -0.553866,-1.79382 -0.901244,-2.66721 -0.249879,-0.71644 -0.448124,-1.45328 -0.773956,-2.14071 -0.391583,-0.88308 -0.646057,-1.81952 -1.083239,-2.68499 -0.358357,-0.94494 -0.721273,-1.88545 -1.173861,-2.79103 -0.382646,-0.90207 -0.904164,-1.74204 -1.195274,-2.68323 -0.406629,-0.9803 -0.812561,-1.95816 -1.284369,-2.91068 -0.525929,-1.00023 -1.031382,-2.01219 -1.530532,-3.02613 -0.428013,-0.96033 -0.88487,-1.90778 -1.391521,-2.82895 -0.402758,-0.86782 -0.851941,-1.71598 -1.330021,-2.54425 -0.438723,-0.71105 -0.900337,-1.4089 -1.38597,-2.0887 -0.452014,-0.74131 -0.926173,-1.47042 -1.427189,-2.17949 -0.550351,-0.71729 -1.077379,-1.45188 -1.640978,-2.15909 -0.49178,-0.56179 -0.94303,-1.15474 -1.427462,-1.72171 -0.333471,-0.41656 -0.646691,-0.84251 -1.050642,-1.19762 -0.47025,-0.45345 -0.89004,-0.95425 -1.36543,-1.4006 -0.400705,-0.3796 -0.794276,-0.76552 -1.207981,-1.13118 -0.383403,-0.40242 -0.856517,-0.71284 -1.271414,-1.08097 -0.400739,-0.38607 -0.780084,-0.76787 -1.222237,-1.11069 -0.364125,-0.41853 -0.774322,-0.79931 -1.170469,-1.18638 -0.444468,-0.43685 -0.862985,-0.8986 -1.297799,-1.34494 -0.343581,-0.44985 -0.701271,-0.89188 -1.066681,-1.32283 -0.472974,-0.48503 -0.877408,-1.02664 -1.344029,-1.51754 -0.220868,-0.32354 -0.45629,-0.53621 -0.803489,-0.73251 -0.561255,-0.32399 -1.08272,-0.70329 -1.67208,-0.98032 -0.517412,-0.33578 -1.099692,-0.57289 -1.650577,-0.84735 -0.680385,-0.32057 -1.414299,-0.53133 -2.07955,-0.89006 -0.64481,-0.32846 -1.353089,-0.51643 -2.002262,-0.8393 -0.742016,-0.35157 -1.494614,-0.67124 -2.266963,-0.95107 -0.9139381,-0.30914 -1.8307259,-0.60825 -2.7456186,-0.91443 -1.6094823,-0.64379 -0.6990216,-2.91994 0.9104607,-2.27615 z"
       inkscape:connector-curvature="0"
       transform="translate(0,796.36218)" />
    <path
       style="fill:#333333;fill-opacity:1;stroke:none"
       id="path2987"
       d="m 57.834968,251.59712 c 0.845221,-0.23395 1.704015,-0.40505 2.551223,-0.63075 0.713296,-0.14671 1.415257,-0.30766 2.118587,-0.49388 0.592048,-0.15307 1.15881,-0.36461 1.764181,-0.47803 0.67747,-0.2114 1.37482,-0.32976 2.078801,-0.40541 0.591778,-0.17687 1.197612,-0.28274 1.810403,-0.35083 0.71952,-0.0645 1.44258,-0.0666 2.164384,-0.07 0.702983,-0.001 1.405968,6.3e-4 2.108951,0.001 0.700318,8.2e-4 1.400637,9.7e-4 2.100956,0.001 0.700379,7e-5 1.400758,5e-5 2.101137,4e-5 0.700425,0 1.400849,-1e-5 2.101274,-1e-5 0.700426,0 1.400853,0 2.101279,0 0.758325,-0.0136 1.500441,0.1722 2.2501,0.26286 0.653073,0.07 1.310394,0.0794 1.966519,0.0868 0.647092,0.073 1.277028,0.23043 1.925523,0.29515 0.654974,-0.006 1.28336,0.17269 1.921892,0.28831 0.665838,0.054 1.318899,0.16946 1.974703,0.29415 0.727101,0.1928 1.419853,0.45917 2.058449,0.85647 0.514996,0.3372 1.027659,0.67537 1.503407,1.06675 0.05766,0.0442 0.115312,0.0884 0.172968,0.13261 1.369716,1.06244 -0.132802,2.99952 -1.502518,1.93707 l 0,0 c -0.08606,-0.0673 -0.172119,-0.13454 -0.258178,-0.20181 -0.381021,-0.35301 -0.855716,-0.5892 -1.273887,-0.89376 -0.306051,-0.28965 -0.796182,-0.30221 -1.158669,-0.48909 -0.65177,-0.1242 -1.297696,-0.23185 -1.959371,-0.29128 -0.576806,-0.10719 -1.136131,-0.27312 -1.728901,-0.26072 -0.573535,-0.06 -1.141933,-0.14991 -1.703545,-0.28253 -0.746189,-0.009 -1.493642,-0.0219 -2.236036,-0.10478 -0.651119,-0.0804 -1.29663,-0.23898 -1.952455,-0.24472 -0.700425,0 -1.400849,0 -2.101273,0 -0.700419,0 -1.400837,1e-5 -2.101256,1e-5 -0.700511,10e-6 -1.401021,3e-5 -2.101531,-4e-5 -0.701212,-1.1e-4 -1.402425,-2.6e-4 -2.103636,-0.001 -0.698193,-8.7e-4 -1.396388,-0.003 -2.094581,-0.002 -0.637472,0.003 -1.276002,0.003 -1.911779,0.0558 -0.617684,0.0645 -1.212471,0.21822 -1.817964,0.35163 -0.645774,0.0659 -1.275776,0.19815 -1.899363,0.37981 -0.542425,0.0918 -1.039087,0.31841 -1.574946,0.43605 -0.701306,0.18399 -1.401479,0.35072 -2.11262,0.4923 -0.922229,0.24561 -1.855706,0.43868 -2.779205,0.68 -1.70988,0.28498 -2.112902,-2.13316 -0.403023,-2.41814 z"
       inkscape:connector-curvature="0"
       transform="translate(0,796.36218)" />
    <path
       style="fill:#333333;fill-opacity:1;stroke:none"
       id="path2989"
       d="m 93.306527,253.49867 c -0.178643,-0.6767 -0.449929,-1.31401 -0.757434,-1.93981 -0.24447,-0.54102 -0.521647,-1.06628 -0.802695,-1.58913 -0.317235,-0.42283 -0.593481,-0.89136 -0.827289,-1.36647 -0.13917,-0.51215 -0.43967,-0.93766 -0.673528,-1.40538 -0.267774,-0.60745 -0.505912,-1.20865 -0.638967,-1.86228 -0.228738,-0.57719 -0.336635,-1.18701 -0.409386,-1.80038 -0.05196,-0.5906 -0.225624,-1.1604 -0.312536,-1.74867 -0.09016,-0.71979 -0.09869,-1.44614 -0.106176,-2.17047 -0.0042,-0.70482 -0.002,-1.40965 -0.001,-2.11447 9.54e-4,-0.70045 0.0012,-1.4009 0.0014,-2.10134 1.23e-4,-0.70036 1.07e-4,-1.40072 1.03e-4,-2.10108 -7e-6,-0.70042 -1.2e-5,-1.40084 -1.5e-5,-2.10127 -0.01974,-0.77347 -0.0078,-1.53644 0.11609,-2.30096 0.126841,-0.64681 0.181971,-1.30282 0.212865,-1.96014 -0.02475,-0.75187 0.138017,-1.48563 0.248243,-2.2245 0.07677,-0.69945 0.09831,-1.39426 0.247588,-2.08384 0.105061,-0.62918 0.315411,-1.23223 0.441244,-1.85675 0.049,-0.63325 0.246629,-1.23725 0.367418,-1.85733 0.05787,-0.73216 0.256368,-1.43054 0.490924,-2.12271 0.158578,-0.62834 0.332223,-1.25017 0.506224,-1.87485 0.153533,-0.59429 0.340022,-1.17393 0.432853,-1.78233 0.08893,-0.71674 0.44446,-1.35061 0.639421,-2.03523 0.164372,-0.57534 0.325807,-1.154 0.498607,-1.72775 0.1334,-0.60037 0.415131,-1.15214 0.567783,-1.74575 0.229736,-0.63929 0.365998,-1.30151 0.58569,-1.94368 0.185409,-0.57394 0.44754,-1.12118 0.674222,-1.68031 0.137782,-0.54382 0.37342,-1.05669 0.501995,-1.6029 0.179619,-0.6776 0.486668,-1.30954 0.661747,-1.98785 0.241127,-0.60722 0.408835,-1.23629 0.602842,-1.859 0.152356,-0.56353 0.411235,-1.08268 0.518417,-1.65873 0.218707,-0.57759 0.312167,-1.18545 0.47081,-1.77823 0.18151,-0.55702 0.265947,-1.1323 0.439999,-1.69192 0.215771,-0.60054 0.377721,-1.21604 0.560867,-1.82671 0.180789,-0.67006 0.362412,-1.34053 0.528065,-2.01491 0.26697,-0.67819 0.374135,-1.39742 0.558922,-2.09702 0.209573,-0.56315 0.248094,-1.16255 0.374098,-1.74438 0.18788,-0.56759 0.2252,-1.16411 0.34846,-1.74489 0.13426,-0.61048 0.38014,-1.18626 0.51933,-1.79503 0.10461,-0.58441 0.31918,-1.13689 0.41108,-1.72448 0.11845,-0.62674 0.39156,-1.1992 0.60666,-1.79308 0.12483,-0.555 0.29497,-1.09801 0.40021,-1.65781 0.22472,-0.61055 0.33187,-1.25022 0.50271,-1.87434 0.11748,-0.54017 0.40556,-1.02043 0.54597,-1.55165 0.15399,-0.56442 0.30884,-1.13209 0.47607,-1.69382 0.15432,-0.6184 0.34384,-1.22387 0.52463,-1.83492 0.27948,-0.51196 0.39042,-1.07152 0.55876,-1.621 0.19035,-0.61676 0.34001,-1.23753 0.59158,-1.83418 0.23889,-0.52611 0.43009,-1.07726 0.58769,-1.63347 0.17486,-0.61547 0.34638,-1.23777 0.55344,-1.84385 0.1404,-0.50426 0.42663,-0.95262 0.56191,-1.45702 0.12055,-0.51403 0.31336,-1.00084 0.39576,-1.52442 0.0709,-0.66539 0.27366,-1.30915 0.53224,-1.92327 0.28521,-0.62627 -0.008,-0.84884 0.19868,-0.23157 0.23269,0.26236 -0.0573,0.14746 -0.23146,0.13382 -0.22755,-0.0178 -0.32703,-0.0182 -0.56074,-0.0259 -0.34542,0.073 -0.82171,-0.14121 -1.14682,0.0266 -0.0203,0.0105 0.0316,0.0393 0.0294,0.0621 -0.0169,0.33272 -0.23277,0.63639 -0.33511,0.95485 -0.28493,0.4923 -0.38046,1.03829 -0.54003,1.57348 -0.17234,0.61769 -0.34453,1.21819 -0.64087,1.79006 -0.78528,1.10206 -1.78211,1.02836 -2.88332,0.55907 -0.6192,-0.25489 -1.05716,-0.75254 -1.54904,-1.17911 -0.38614,-0.36068 -0.728397,-0.77808 -1.173915,-1.06904 -0.443782,-0.40511 -1.001572,-0.57902 -1.492763,-0.9157 -0.78348,-0.71398 -0.958165,-1.68354 -0.931452,-2.69386 0.06262,-0.78246 0.262642,-1.53694 0.445221,-2.29656 0.07857,-0.63821 0.301008,-1.24286 0.433178,-1.86923 0.06838,-0.64861 0.234263,-1.27953 0.439809,-1.89697 0.219843,-0.60505 0.318479,-1.24191 0.478169,-1.86413 0.131488,-0.70546 0.268455,-1.40672 0.422943,-2.10823 0.09069,-0.67996 0.282619,-1.3392 0.40378,-2.0135 0.100115,-0.62711 0.114413,-1.2631 0.125849,-1.8967 0.0079,-0.6923 0.005,-1.38467 0.0039,-2.077 -0.0013,-0.70098 -0.0017,-1.40197 -0.002,-2.10295 -2.07e-4,-0.70059 -1.92e-4,-1.40118 -1.91e-4,-2.10177 -0.01492,-0.75383 -0.0192,-1.49695 0.12303,-2.23937 0.06695,-0.59396 0.31535,-1.14049 0.45095,-1.71729 0.10513,-0.54081 0.30865,-1.05047 0.39469,-1.59611 0.0725,-0.57422 0.0765,-1.15406 0.0839,-1.73192 -0.0735,0.3845 0.40659,0.77694 0.685,0.88191 0.22052,0.0831 0.47211,0.018 0.70703,-9.5e-4 0.0602,-0.005 0.19592,-0.12282 0.16751,-0.0695 -0.0443,0.0832 -0.14873,0.11591 -0.2231,0.17386 -0.33436,0.36298 -0.74281,0.65598 -1.07248,1.02332 -0.39956,0.34064 -0.71714,0.74013 -1.028699,1.15483 -0.243515,0.37218 -0.386595,0.79549 -0.53595,1.21165 -0.512183,0.94264 -1.272818,1.18822 -2.259985,0.57849 -0.293633,-0.18136 -0.489447,-0.83406 -0.609657,-1.1627 -0.342344,-0.71649 -0.524785,-1.48348 -0.640229,-2.26458 -0.01389,-0.13597 -0.02179,-0.27268 -0.04167,-0.4079 -0.06005,-0.40837 -0.195161,-0.0528 0.183434,0.15874 0.135605,0.0758 0.295089,0.0972 0.442634,0.14576 0.05352,0.0967 0.260271,-0.1272 0.280844,-0.0351 0.01386,0.062 -0.109846,0.0649 -0.1594,0.10469 -0.112189,0.0901 -0.250446,0.23816 -0.355458,0.35591 -0.495943,0.44737 -0.925078,0.95986 -1.401194,1.42672 -0.49707,0.5002 -1.031662,0.9502 -1.605304,1.36068 -0.630794,0.60358 -1.471271,0.89892 -2.28189,0.36292 -0.20562,-0.13596 -0.310415,-0.38301 -0.465622,-0.57452 -0.315507,-0.74735 -0.295027,-1.56408 -0.302414,-2.36014 -0.0011,-0.33001 -6.32e-4,-0.66002 0.0016,-0.99002 3.59e-4,-0.0534 -0.0134,-0.2113 0.0015,-0.16007 0.253699,0.87027 -0.199602,0.22469 0.722077,1.07328 0.212124,0.0104 0.424247,0.0208 0.636371,0.0311 -0.0123,0.008 -0.05142,0.0249 -0.0369,0.0235 0.06113,-0.006 0.202214,-0.12221 0.170605,-0.0696 -0.03395,0.0566 -0.358316,0.40539 -0.392929,0.44317 -0.407226,0.40566 -0.757577,0.84677 -1.058504,1.33408 -0.291662,0.49726 -0.516646,1.00662 -0.633208,1.57092 -0.100652,0.61026 -0.102984,1.23081 -0.108826,1.84761 -0.0023,0.56145 0.164734,1.10899 0.245207,1.66493 0.211971,0.56237 0.316165,1.15369 0.388667,1.74767 0.07025,0.72187 0.07211,1.44794 0.0756,2.17251 0.01592,0.75688 0.01871,1.50325 -0.125063,2.24845 -0.136656,0.62533 -0.369427,1.21863 -0.478343,1.85104 -0.214179,0.69539 -0.299911,1.41839 -0.46888,2.12297 -0.146826,0.61559 -0.397791,1.19781 -0.53994,1.81423 -0.221858,0.68379 -0.362313,1.38563 -0.59109,2.06684 -0.135936,0.637 -0.382847,1.22038 -0.705769,1.78338 -0.309628,0.5027 -0.75435,0.8914 -1.137927,1.33111 -0.301703,0.28658 -0.596584,0.57664 -0.870164,0.89042 -1.141975,1.30414 -2.986315,-0.31086 -1.84434,-1.615 l 0,0 c 0.284005,-0.32326 0.58403,-0.6317 0.89958,-0.92341 0.27757,-0.29994 0.574124,-0.58349 0.826378,-0.90292 0.243701,-0.42479 0.410029,-0.85666 0.508721,-1.34528 0.205815,-0.61053 0.322229,-1.24275 0.53,-1.85385 0.153254,-0.62891 0.384195,-1.22945 0.549878,-1.8544 0.187959,-0.63334 0.198496,-1.31938 0.430343,-1.94562 0.118608,-0.64711 0.320566,-1.26531 0.487242,-1.89815 0.121301,-0.57966 0.07221,-1.16732 0.07791,-1.75813 -0.003,-0.63222 -0.0032,-1.26567 -0.05863,-1.89596 -0.06552,-0.57932 -0.222851,-1.12998 -0.381165,-1.69015 -0.09451,-0.67787 -0.303425,-1.34396 -0.269597,-2.03449 0.0078,-0.78603 0.01839,-1.57673 0.166202,-2.3516 0.189693,-0.82961 0.501994,-1.60235 0.942215,-2.33255 0.38328,-0.61897 0.82853,-1.18465 1.339347,-1.70442 0.702856,-0.75967 1.008067,-1.18209 2.156074,-1.10906 0.274109,0.21234 0.609972,0.36293 0.822329,0.63702 0.347406,0.44842 0.116975,1.2501 0.174782,1.75834 8.51e-4,0.0983 0.05518,1.22727 0.04526,1.2454 -0.01092,0.02 -0.03214,-0.0322 -0.0482,-0.0483 -0.341985,-0.30534 -0.336106,-0.38645 -0.906725,-0.39466 -0.358128,-0.005 -0.60776,0.40065 0.09567,-0.21233 0.481499,-0.33059 0.907274,-0.71181 1.319558,-1.125 0.465961,-0.43005 0.851167,-0.94584 1.334365,-1.36001 0.552189,-0.55519 1.135312,-1.09256 1.95396,-1.1753 0.250693,0.0467 0.51636,0.0428 0.752077,0.14006 0.814323,0.33608 1.074696,1.27971 1.13529,2.06602 0.08545,0.62161 0.246529,1.21815 0.521317,1.78573 0.04778,0.13807 0.296818,0.45625 0.15871,0.40857 -0.110696,-0.0382 -0.128019,-0.21698 -0.237307,-0.25906 -0.670421,-0.25809 -1.370194,-0.35561 -1.66676,0.4336 0.23378,-0.65095 0.485511,-1.30176 0.892444,-1.86793 0.37377,-0.48026 0.739606,-0.96019 1.204075,-1.36066 0.431905,-0.44183 0.900814,-0.84466 1.347474,-1.27154 0.15286,-0.11707 0.51509,-0.39875 0.60402,-0.4248 1.19622,-0.35051 1.9095,0.27043 2.01127,1.40968 -0.009,0.70183 -0.0178,1.40616 -0.11685,2.10236 -0.10415,0.60686 -0.30106,1.18145 -0.43238,1.77936 -0.1365,0.54108 -0.35498,1.05193 -0.42665,1.60768 -0.12103,0.5816 -0.069,1.17113 -0.0764,1.76374 0,0.70026 -2e-5,1.40053 1.9e-4,2.1008 2.8e-4,0.69995 7.4e-4,1.3999 0.002,2.09985 0.001,0.70867 0.004,1.41738 -0.004,2.12602 -0.0143,0.766 -0.0374,1.53449 -0.16523,2.29164 -0.12985,0.70377 -0.32303,1.39248 -0.42161,2.10198 -0.1612,0.72886 -0.29786,1.45732 -0.4423,2.18935 -0.17627,0.6866 -0.28524,1.39005 -0.53588,2.05603 -0.19482,0.52154 -0.2866,1.06649 -0.36094,1.61574 -0.1426,0.64448 -0.359839,1.26694 -0.445679,1.92379 -0.150202,0.62103 -0.322167,1.23353 -0.381548,1.87271 -0.03639,0.15591 0.105814,0.54264 -0.04334,0.58266 0.07683,0.18704 1.264508,0.52795 1.430348,0.87034 0.50889,0.3688 0.96501,0.79514 1.39949,1.24827 0.31092,0.28315 0.58371,0.61907 0.97214,0.79427 0.52568,0.21465 -0.32935,0.0574 -0.31105,0.44929 0.31689,-0.32961 0.20903,-0.94778 0.4401,-1.32809 0.19728,-0.53181 0.2344,-1.1293 0.55492,-1.61891 0.28125,-0.80803 0.60055,-1.63641 1.27876,-2.1958 0.8956,-0.54347 1.57063,-0.56581 2.58186,-0.51135 0.95185,0.0351 1.88972,0.0998 2.6135,0.80214 0.11793,0.19104 0.26855,0.36542 0.3538,0.57311 0.29004,0.70665 0.0485,1.4781 -0.20111,2.15111 -0.18541,0.43874 -0.33475,0.89428 -0.37288,1.37349 -0.10706,0.62117 -0.30762,1.20772 -0.46262,1.8152 -0.16915,0.55004 -0.42853,1.05387 -0.60852,1.59892 -0.22715,0.5339 -0.32357,1.13832 -0.50326,1.68973 -0.19472,0.66325 -0.41831,1.3233 -0.70457,1.9526 -0.26076,0.49445 -0.28139,1.07959 -0.49847,1.5924 -0.19509,0.51278 -0.23243,1.09166 -0.54128,1.565 -0.18592,0.61608 -0.37338,1.22597 -0.52948,1.85094 -0.17527,0.54249 -0.3148,1.10064 -0.46308,1.65 -0.15925,0.53556 -0.40698,1.02825 -0.55055,1.56747 -0.18748,0.53241 -0.20098,1.12772 -0.44753,1.64678 -0.13552,0.69254 -0.32946,1.37116 -0.51093,2.05213 -0.16888,0.44431 -0.36883,0.86825 -0.48403,1.33188 -0.10854,0.64335 -0.3148,1.25502 -0.44448,1.89167 -0.14623,0.60614 -0.36693,1.1852 -0.51799,1.78933 -0.17007,0.56504 -0.12051,1.19606 -0.35027,1.75257 -0.17786,0.59513 -0.13839,1.25748 -0.39814,1.8376 -0.20778,0.66456 -0.25515,1.38171 -0.54057,2.02729 -0.17856,0.71686 -0.36928,1.43032 -0.56342,2.14279 -0.1928,0.61203 -0.34974,1.23539 -0.56506,1.84029 -0.16963,0.54095 -0.2365,1.10399 -0.424817,1.64137 -0.180045,0.50849 -0.178841,1.08229 -0.421741,1.57658 -0.13612,0.65947 -0.382479,1.27144 -0.582386,1.91001 -0.183922,0.58965 -0.335757,1.18967 -0.574445,1.76074 -0.180327,0.66281 -0.443437,1.29195 -0.650892,1.94562 -0.167765,0.65865 -0.421507,1.28765 -0.611645,1.93947 -0.21121,0.51559 -0.456016,1.01961 -0.625034,1.54907 -0.202598,0.59058 -0.319629,1.20296 -0.538448,1.78938 -0.172724,0.62083 -0.438361,1.20469 -0.592486,1.83093 -0.182189,0.56053 -0.329791,1.1357 -0.490735,1.70183 -0.17712,0.58027 -0.451066,1.12088 -0.567532,1.71816 -0.113539,0.7025 -0.310775,1.378 -0.494355,2.06351 -0.188546,0.66588 -0.365104,1.33007 -0.544541,1.9985 -0.201415,0.59371 -0.363289,1.18477 -0.40836,1.81456 -0.126671,0.62587 -0.318579,1.23344 -0.370603,1.87304 -0.133013,0.63543 -0.336166,1.25053 -0.448365,1.89013 -0.14319,0.63148 -0.115831,1.27919 -0.217136,1.91928 -0.09917,0.65841 -0.252656,1.30761 -0.223935,1.97805 -0.03648,0.75179 -0.100203,1.50227 -0.242818,2.24242 -0.106826,0.63104 -0.092,1.26177 -0.08334,1.90158 3e-6,0.70042 9e-6,1.40084 1.6e-5,2.10126 4e-6,0.70057 2e-5,1.40113 -1.04e-4,2.10169 -1.7e-4,0.70134 -4.48e-4,1.40268 -0.0014,2.10401 -9.26e-4,0.69539 -0.0031,1.39078 9.04e-4,2.08616 0.0062,0.61544 0.01087,1.2326 0.08109,1.84481 0.08564,0.61154 0.282389,1.202 0.321738,1.81964 0.06073,0.55501 0.199496,1.08396 0.380387,1.6125 0.07931,0.44837 0.264556,0.84353 0.438932,1.26153 0.215265,0.48123 0.562214,0.9051 0.68475,1.42887 0.186531,0.4522 0.51631,0.83853 0.770111,1.25286 0.293494,0.54899 0.582199,1.10145 0.842542,1.66672 0.412017,0.83894 0.766048,1.70313 0.975236,2.61769 0.28498,1.70988 -2.133156,2.1129 -2.418136,0.40302 z"
       inkscape:connector-curvature="0"
       transform="translate(0,796.36218)" />
    <path
       style="fill:#333333;fill-opacity:1;stroke:none"
       id="path2991"
       d="m 82.475141,155.93797 c 0.04801,-0.84177 -0.03365,-1.66758 -0.147323,-2.49937 -0.0286,-0.67915 -0.237326,-1.31962 -0.376507,-1.97909 -0.136389,-0.63305 -0.252945,-1.27851 -0.428407,-1.90258 -0.136137,-0.64588 -0.405451,-1.24521 -0.579971,-1.88015 -0.137632,-0.62082 -0.336742,-1.22782 -0.519939,-1.83784 -0.274783,-0.65479 -0.443797,-1.34275 -0.689314,-2.00721 -0.127314,-0.56074 -0.355498,-1.07205 -0.593191,-1.59121 -0.269415,-0.62218 -0.410682,-1.29367 -0.666893,-1.91946 -0.249439,-0.60655 -0.377387,-1.25139 -0.626252,-1.85806 -0.231521,-0.66004 -0.460577,-1.31988 -0.67833,-1.98479 -0.110572,-0.59694 -0.388175,-1.12843 -0.614856,-1.68372 -0.171021,-0.6305 -0.40102,-1.24139 -0.553119,-1.87749 -0.108449,-0.63465 -0.286962,-1.25455 -0.477696,-1.86873 -0.337671,-0.52993 -0.424104,-1.15957 -0.643606,-1.73308 -0.231063,-0.52088 -0.252688,-1.11989 -0.518936,-1.62508 -0.240682,-0.56954 -0.473149,-1.14371 -0.682703,-1.7259 -0.23049,-0.60606 -0.31857,-1.26438 -0.538386,-1.87067 -0.163538,-0.56419 -0.426346,-1.08264 -0.596144,-1.64557 -0.291835,-0.48388 -0.310647,-1.06622 -0.49898,-1.58203 -0.147859,-0.54063 -0.3953,-1.03622 -0.554738,-1.57444 -0.171751,-0.69356 -0.355748,-1.37865 -0.461393,-2.0869 -0.205301,-0.54785 -0.256777,-1.13481 -0.405634,-1.6956 -0.118925,-0.6222 -0.374697,-1.19817 -0.53938,-1.80807 -0.162721,-0.70024 -0.349553,-1.38967 -0.455744,-2.10239 -0.09575,-0.74983 -0.105308,-1.50663 -0.112426,-2.26138 -0.0034,-0.70548 -8.25e-4,-1.41097 3.38e-4,-2.11645 0.007,-0.81194 0.37409,-1.49279 0.746503,-2.18473 0.355965,-0.54413 0.725345,-1.07772 1.086901,-1.61766 0.400175,-0.53787 0.853706,-1.03497 1.254646,-1.57145 0.449323,-0.54171 0.944157,-1.07945 1.270293,-1.70879 0.296798,-0.479002 0.616361,-0.935221 0.88928,-1.427454 0.186552,-0.478192 0.446507,-0.927332 0.579715,-1.425251 0.197101,-0.595025 0.520051,-1.132126 0.805515,-1.68663 0.236268,-0.605785 0.482165,-1.202846 0.773987,-1.78485 0.283603,-0.536967 0.592205,-1.070165 0.818244,-1.634979 0.120774,-0.565575 0.478751,-1.0278 0.710307,-1.543944 0.181401,-0.283659 0.318729,-0.595008 0.544177,-0.849726 0.150762,-0.170336 0.430077,-0.349231 0.556886,-0.557866 0.368392,-0.432749 0.632373,-0.931608 0.906974,-1.425824 0.272011,-0.437261 0.610109,-0.853491 0.809278,-1.331853 0.320415,-0.590272 0.620717,-1.189002 0.930841,-1.784836 0.159795,-0.469464 0.391672,-0.913159 0.509427,-1.396652 0.185317,-0.662092 0.48499,-1.2823 0.656366,-1.948112 0.241523,-0.693017 0.393647,-1.409654 0.592677,-2.114925 0.167781,-0.669554 0.232395,-1.354884 0.377895,-2.02958 0.138841,-0.696801 0.201574,-1.400722 0.348323,-2.096379 0.144453,-0.625815 0.194809,-1.265605 0.224508,-1.905349 0.07659,-0.55667 -0.07503,-1.077345 -0.171124,-1.619649 -0.179665,-0.50685 -0.377122,-1.007833 -0.543006,-1.519966 -0.203785,-0.572931 -0.470247,-1.118757 -0.73201,-1.667588 -0.304792,-0.67183 -0.517451,-1.37943 -0.775167,-2.069077 -0.331982,-0.624911 -0.5459,-1.298441 -0.816411,-1.949625 -0.139995,-0.50606 -0.316784,-0.971883 -0.576554,-1.421798 -0.320937,-0.652769 -0.559098,-1.343936 -0.726762,-2.051146 -0.155548,-0.614191 -0.44663,-1.17277 -0.637334,-1.776195 -0.226773,-0.659255 -0.455554,-1.319131 -0.652382,-1.988238 -0.192325,-0.514803 -0.421986,-1.005502 -0.661748,-1.499337 -0.322407,-0.803841 -0.735584,-1.564441 -1.099203,-2.350087 -0.393508,-0.841565 -0.795599,-1.678515 -1.164347,-2.531096 -0.260422,-0.752927 -0.595126,-1.477393 -0.918407,-2.205114 -0.305431,-0.743886 -0.534766,-1.520477 -0.742373,-2.297233 -0.13263,-0.726424 -0.256623,-1.450325 -0.401038,-2.174903 -0.138909,-0.722338 -0.339412,-1.427375 -0.452065,-2.156152 -0.101276,-0.753172 -0.112598,-1.513998 -0.120466,-2.272664 -0.0038,-0.800826 -0.0012,-1.601666 1.05e-4,-2.402496 0.0012,-0.721534 0.0015,-1.443068 0.0017,-2.164601 0.06566,-0.652914 0.227305,-1.287424 0.29342,-1.940602 0.170371,-0.716254 0.256847,-1.449513 0.423916,-2.165331 0.201746,-0.577596 0.247375,-1.187 0.363912,-1.782697 0.15914,-0.691306 0.429473,-1.344877 0.559675,-2.043842 0.08117,-0.611682 0.290431,-1.193054 0.380767,-1.803588 0.06092,-0.594489 0.26256,-1.159205 0.348963,-1.750101 0.07187,-0.607654 0.07586,-1.220586 0.08192,-1.831636 -0.04198,-0.791495 0.04441,-1.567033 0.176389,-2.345539 0.0803,-0.62047 0.329775,-1.196921 0.433986,-1.812786 0.17436,-0.539961 0.322681,-1.076083 0.385767,-1.640242 0.08265,-0.731881 0.211118,-1.468272 0.398153,-2.181371 0.123255,-0.347678 0.207854,-0.704081 0.26796,-1.067206 0.295734,-1.708053 2.711285,-1.289822 2.415551,0.41823 l 0,0 c -0.07915,0.444462 -0.172827,0.885573 -0.323484,1.312359 -0.189409,0.573462 -0.235766,1.208943 -0.32341,1.803822 -0.07361,0.607221 -0.1822,1.210688 -0.406773,1.782834 -0.111426,0.609656 -0.322722,1.187556 -0.430775,1.794285 -0.110774,0.652839 -0.186715,1.294883 -0.141998,1.960256 -0.0074,0.725954 -0.01538,1.45417 -0.109606,2.175184 -0.09233,0.59266 -0.273676,1.162293 -0.349675,1.754758 -0.101198,0.640906 -0.297458,1.255375 -0.396538,1.894633 -0.139747,0.708909 -0.373605,1.38427 -0.566377,2.077361 -0.143488,0.622966 -0.158176,1.276836 -0.386813,1.882646 -0.175276,0.590218 -0.170744,1.231497 -0.363169,1.82151 -0.06027,0.568094 -0.149633,1.131197 -0.280274,1.687718 -1.93e-4,0.722603 -5.24e-4,1.445207 -0.0017,2.167809 -0.0012,0.791182 -0.0039,1.582375 -2.3e-4,2.373554 0.0065,0.64399 0.01283,1.289901 0.09284,1.929884 0.102454,0.692243 0.310262,1.357974 0.432736,2.045841 0.133773,0.67431 0.258519,1.347444 0.366516,2.025804 0.170815,0.653761 0.366262,1.305905 0.614891,1.93382 0.324275,0.737278 0.667405,1.469231 0.929688,2.231053 0.352282,0.834867 0.758626,1.645168 1.136592,2.468679 0.354826,0.771638 0.764071,1.517131 1.078599,2.306565 0.299381,0.616662 0.581815,1.23745 0.810185,1.884727 0.189105,0.658688 0.422204,1.304628 0.641969,1.953436 0.192681,0.660447 0.552833,1.262495 0.682697,1.945039 0.104762,0.474696 0.273194,0.92954 0.461084,1.376613 0.312506,0.541255 0.560004,1.101012 0.717479,1.707206 0.283431,0.68244 0.513635,1.383982 0.852952,2.042935 0.227277,0.623897 0.42668,1.258491 0.690972,1.868378 0.304264,0.647855 0.620447,1.291383 0.851191,1.970151 0.192785,0.618146 0.465671,1.209378 0.621841,1.839873 0.125298,0.716406 0.294344,1.427082 0.205548,2.16099 -0.03719,0.771364 -0.102848,1.542347 -0.274942,2.297163 -0.148495,0.698152 -0.196855,1.408601 -0.350506,2.106582 -0.15686,0.723392 -0.213063,1.462756 -0.414678,2.177332 -0.19564,0.693258 -0.343513,1.398663 -0.582911,2.079294 -0.179875,0.662164 -0.441502,1.290868 -0.654708,1.941845 -0.179186,0.655706 -0.451247,1.278214 -0.706626,1.906493 -0.294398,0.563363 -0.576908,1.131393 -0.883143,1.688279 -0.252833,0.519939 -0.555119,1.021687 -0.891149,1.491647 -0.349151,0.620796 -0.692183,1.246667 -1.157172,1.791116 -0.294769,0.336844 -0.580878,0.511928 -0.780822,0.907468 -0.234504,0.473582 -0.535588,0.905587 -0.658762,1.429286 -0.262078,0.610547 -0.569668,1.203633 -0.887789,1.786295 -0.29633,0.590977 -0.526529,1.204968 -0.787928,1.812223 -0.215621,0.414391 -0.450471,0.813345 -0.628448,1.242959 -0.201424,0.668946 -0.503461,1.296696 -0.790486,1.931827 -0.273594,0.493044 -0.583098,0.954684 -0.888974,1.426904 -0.410198,0.71765 -0.911848,1.3861 -1.461905,2.00267 -0.380088,0.49537 -0.788128,0.9698 -1.174677,1.45976 -0.319913,0.47186 -0.633549,0.94751 -0.962882,1.41286 -0.183508,0.33819 -0.407134,0.63646 -0.45149,1.02283 -0.0011,0.69653 -0.0037,1.39307 -4.41e-4,2.08959 0.0059,0.64398 0.01116,1.28975 0.08683,1.93015 0.08822,0.62215 0.263231,1.22044 0.400614,1.83211 0.157384,0.62374 0.440876,1.20958 0.549459,1.84768 0.15104,0.6421 0.2584,1.2931 0.450657,1.92607 0.08523,0.60128 0.251427,1.17955 0.393055,1.76856 0.137976,0.52419 0.420547,0.99808 0.541382,1.52928 0.156096,0.5452 0.247462,1.10385 0.509103,1.61597 0.144816,0.54076 0.441461,1.02786 0.57427,1.57432 0.184378,0.59963 0.314976,1.21502 0.517762,1.80971 0.178031,0.52168 0.39611,1.03129 0.6081,1.53931 0.252009,0.59581 0.400979,1.21665 0.599943,1.83004 0.200745,0.61162 0.352771,1.2325 0.666709,1.80368 0.208261,0.67064 0.40108,1.349 0.524352,2.04084 0.11388,0.5151 0.324379,1.0017 0.439262,1.5166 0.240273,0.60936 0.551304,1.19331 0.673213,1.84461 0.196068,0.61616 0.415169,1.22494 0.62486,1.83613 0.241263,0.62134 0.404482,1.26471 0.637877,1.88794 0.215874,0.58667 0.388909,1.18817 0.606134,1.77435 0.261206,0.57301 0.518734,1.14462 0.663063,1.7606 0.263091,0.71247 0.450649,1.44735 0.737681,2.15184 0.189918,0.63299 0.389068,1.26555 0.539889,1.90808 0.163325,0.6367 0.457589,1.233 0.580545,1.88231 0.173989,0.67246 0.317657,1.35574 0.459853,2.03499 0.146235,0.71459 0.370883,1.41283 0.405496,2.1474 0.128396,0.94092 0.216092,1.87977 0.169865,2.83106 0,1.73347 -2.45149,1.73347 -2.45149,0 z"
       inkscape:connector-curvature="0"
       transform="translate(0,796.36218)" />
    <path
       style="fill:#333333;fill-opacity:1;stroke:none"
       id="path2993"
       d="m 79.965082,13.054886 c -0.0957,0.954195 -0.312425,1.877611 -0.63523,2.778774 -0.245122,0.593424 -0.275624,1.235327 -0.40308,1.856177 -0.162919,0.531748 -0.23419,1.078767 -0.272893,1.631291 -0.01843,0.710806 -0.02157,1.410907 -0.157604,2.110995 -0.127762,0.722671 -0.469549,1.383305 -0.850509,2.001946 -0.270325,0.506293 -0.510346,1.018919 -0.804388,1.516205 -0.265182,0.493822 -0.527195,0.988261 -0.792556,1.482561 -0.229143,0.566744 -0.579369,1.073279 -0.96919,1.539791 -0.413064,0.552809 -0.916171,0.97428 -1.530786,1.283518 -0.454767,0.202022 -0.872935,0.428362 -1.292202,0.692299 -0.391727,0.349413 -0.824111,0.641772 -1.239932,0.96029 -0.0316,0.214897 -0.05954,0.461923 -0.07938,0.688476 0.01717,0.659902 -0.146473,1.297456 -0.255382,1.942657 -0.03138,0.614631 -0.227444,1.198374 -0.345369,1.797809 -0.05415,0.52235 -0.166928,1.070139 -0.08061,1.593583 0.0516,0.596267 0.218063,1.155704 0.381835,1.726275 0.11397,0.607713 0.23981,1.20211 0.392018,1.800766 0.152787,0.600758 0.146915,1.220176 0.295073,1.819336 0.179868,0.683502 0.237087,1.387851 0.272132,2.091008 0.02642,0.712439 0.02436,1.425526 0.02429,2.138336 -7.93e-4,0.701449 -0.0018,1.402898 -0.0023,2.104347 -4.36e-4,0.700312 -4.69e-4,1.400624 -5.01e-4,2.100936 -1.5e-5,0.700403 -2e-6,1.400805 4e-6,2.101208 6e-6,0.700426 8e-6,1.400852 8e-6,2.101278 10e-7,0.700427 10e-7,1.400853 10e-7,2.101279 0,0.700426 0,1.400852 0,2.101278 0.09408,0.529557 0.140817,1.084947 0.386021,1.571668 0.268115,0.319105 0.561305,0.634865 0.887666,0.90427 0.522104,0.274642 0.942643,0.673227 1.341543,1.100761 0.469421,0.343661 0.835224,0.820968 1.193374,1.275575 0.406595,0.471952 0.793285,0.956951 1.149938,1.469675 0.369641,0.431102 0.687287,0.904509 1.010744,1.370615 0.341259,0.617429 0.636213,1.264857 0.831611,1.943927 0.166217,0.471927 0.382841,0.918181 0.567182,1.382733 0.256812,0.723547 0.299775,1.491872 0.328254,2.251826 0.0177,0.712319 0.01335,1.42495 0.01183,2.13742 0.04548,0.778507 -0.04973,1.540417 -0.178816,2.305718 -0.201785,0.736338 -0.367155,1.479905 -0.61804,2.201314 -0.141394,0.632565 -0.390216,1.21234 -0.712995,1.771939 -0.152776,0.408591 -0.369958,0.79095 -0.476404,1.216321 -0.230365,0.61217 -0.501361,1.206733 -0.757966,1.808184 -0.18124,0.569474 -0.474183,1.097842 -0.629192,1.675515 -0.19304,0.663918 -0.567629,1.222441 -0.974413,1.769462 -0.241593,0.52405 -0.731759,0.85415 -1.12397,1.251762 -0.348529,0.321959 -0.730414,0.618807 -1.04468,0.976 -0.368856,0.35261 -0.661,0.753502 -1.022006,1.121386 -0.293823,0.454668 -0.618219,0.889444 -0.924413,1.336432 -0.390622,0.441327 -0.671944,0.956826 -1.030322,1.42275 -0.19382,0.451256 -0.64034,0.742601 -0.878174,1.15476 -0.322045,0.404826 -0.600232,0.839234 -0.893702,1.267471 -0.302993,0.414621 -0.46929,0.88094 -0.670518,1.345467 -0.210777,0.524027 -0.43272,1.044898 -0.687667,1.549199 -0.194331,0.430782 -0.374996,0.874027 -0.524379,1.323955 -0.175904,0.58039 -0.540716,1.07916 -0.719057,1.6561 -0.228109,0.63038 -0.454509,1.26389 -0.639489,1.90867 -0.152157,0.65595 -0.38481,1.29255 -0.661326,1.90559 -0.237766,0.88571 -0.603467,1.38179 -1.402403,1.85475 -0.502261,0.31489 -1.080662,0.44814 -1.629089,0.6545 -0.109202,0.0352 -0.21726,0.0741 -0.327606,0.10554 -0.0044,0.001 -0.887927,0.28453 -0.728214,0.28077 -0.225394,0.27702 -0.263131,0.64563 -0.309073,0.98764 -0.01754,0.29852 -0.06369,0.60096 -0.05135,0.90079 0.0095,0.22986 0.05031,0.0741 0.01523,-0.0615 0.389381,0.32914 0.776887,0.64402 1.111558,1.0381 0.542171,0.55501 0.761334,1.27429 0.889939,2.01819 0.09385,0.73588 0.08972,1.47936 0.09121,2.21982 0.0038,0.65919 0.160489,1.30838 0.239753,1.96288 0.06076,0.61239 0.247931,1.20098 0.342846,1.81059 0.02887,0.60412 0.114407,1.18257 0.24243,1.77087 0.150288,0.70409 0.185482,1.4241 0.208206,2.14144 0.0096,0.57546 0.175,1.13499 0.255192,1.70535 0.08722,0.71715 0.09715,1.44037 0.105221,2.16181 0.0047,0.70484 0.0027,1.4097 0.0018,2.11455 0.06288,0.62106 -0.101729,1.28229 0.02943,1.89462 0.113918,0.51565 0.171087,1.03558 0.326241,1.53957 0.264924,0.39449 0.407204,0.86706 0.602204,1.30169 0.221629,0.48191 0.28958,1.04535 0.557499,1.50678 0.239157,0.54431 0.516114,1.06118 0.70054,1.62867 0.0995,0.61977 0.292192,1.21435 0.420339,1.82823 0.06926,0.67714 0.240907,1.33435 0.355815,2.00428 0.118937,0.75425 0.14156,1.51833 0.155608,2.2803 0.0085,0.70905 0.0059,1.41817 0.0048,2.12725 0.06268,0.62061 -0.102174,1.2814 0.02893,1.89327 0.149378,0.62698 0.228176,1.26498 0.276496,1.90665 0.04276,0.7147 0.04327,1.431 0.04506,2.1467 4.13e-4,0.70234 -9.13e-4,1.40468 -0.0016,2.10702 0.01432,0.75375 0.01851,1.49678 -0.12378,2.23911 -0.0982,0.56388 -0.376494,1.06635 -0.483318,1.62792 -0.0843,0.56528 -0.280153,1.10205 -0.36421,1.66818 -0.163547,0.55231 -0.31297,1.0985 -0.376304,1.67162 -0.05423,0.63199 -0.05423,1.267 -0.05703,1.90081 -0.001,0.69867 9.37e-4,1.39734 0.0019,2.09601 8.69e-4,0.70129 0.001,1.40258 0.0011,2.10386 7.1e-5,0.70051 5.1e-5,1.40102 4.3e-5,2.10153 -9e-6,0.70041 -1.3e-5,1.40083 -1.5e-5,2.10125 -2e-6,0.70042 -2e-6,1.40085 -2e-6,2.10127 0.04673,0.74091 -0.03654,1.46121 -0.182883,2.18549 -0.11376,0.56581 -0.137956,1.1433 -0.156413,1.71846 -0.0157,0.68209 -0.01361,1.36442 -0.01318,2.04664 0.01584,0.75441 0.02088,1.49807 -0.120895,2.24119 -0.132715,0.55744 -0.177922,1.12777 -0.205928,1.6983 0.02214,0.71197 -0.0656,1.40398 -0.206639,2.09965 -0.194343,0.51675 -0.379422,1.0182 -0.452709,1.56627 -0.01637,0.33641 -0.05982,0.66286 -0.114795,0.99521 -0.317294,1.70418 -2.727368,1.25546 -2.410074,-0.44872 l 0,0 c 0.07297,-0.29356 0.04794,-0.59513 0.09803,-0.89325 0.08671,-0.58352 0.201556,-1.17858 0.476944,-1.70663 0.117138,-0.57775 0.186976,-1.14123 0.160838,-1.73543 0.03518,-0.68818 0.0933,-1.37614 0.249077,-2.04925 0.120767,-0.58235 0.06782,-1.17253 0.07466,-1.76581 -4.42e-4,-0.70942 -0.0025,-1.41897 0.01449,-2.12824 0.02362,-0.71137 0.06094,-1.42472 0.203682,-2.124 0.114546,-0.56669 0.183236,-1.1168 0.134306,-1.69988 0,-0.70043 0,-1.40085 10e-7,-2.10128 3e-6,-0.70042 6e-6,-1.40085 1.5e-5,-2.10127 8e-6,-0.70037 2.9e-5,-1.40075 -4.2e-5,-2.10112 -1.08e-4,-0.70032 -2.67e-4,-1.40064 -0.0011,-2.10096 -9.39e-4,-0.70342 -0.0029,-1.40685 -0.0018,-2.11027 0.0033,-0.72419 0.0048,-1.44983 0.07324,-2.17147 0.07156,-0.60017 0.175774,-1.19721 0.389018,-1.7656 0.09648,-0.60518 0.28267,-1.18361 0.385213,-1.78491 0.118436,-0.5555 0.330867,-1.07156 0.479993,-1.61142 0.121178,-0.58216 0.0692,-1.17232 0.07716,-1.76551 6.41e-4,-0.69955 0.002,-1.39911 0.0016,-2.09866 -0.0016,-0.65756 -0.0015,-1.31565 -0.03842,-1.97239 -0.04264,-0.59296 -0.129879,-1.17773 -0.260963,-1.75804 -0.08255,-0.73964 -0.04703,-1.48225 -0.05111,-2.22586 0.001,-0.69303 0.0036,-1.3861 -0.0044,-2.0791 -0.01146,-0.63941 -0.02625,-1.28088 -0.121414,-1.91446 -0.107766,-0.64273 -0.278733,-1.27368 -0.340729,-1.92364 -0.105934,-0.53501 -0.293066,-1.05091 -0.360207,-1.59378 -0.125901,-0.45957 -0.404205,-0.85671 -0.572517,-1.30083 -0.226926,-0.50574 -0.416212,-1.02849 -0.580879,-1.55739 -0.237735,-0.53091 -0.440561,-1.07182 -0.709882,-1.58879 -0.191548,-0.63172 -0.283884,-1.27906 -0.410808,-1.92593 -0.08269,-0.73996 -0.04725,-1.48292 -0.05165,-2.22686 8.36e-4,-0.69482 0.0028,-1.38965 -0.0017,-2.08447 -0.0068,-0.61828 -0.01276,-1.23814 -0.08228,-1.85327 -0.08859,-0.65591 -0.286788,-1.29836 -0.277092,-1.96467 -0.01736,-0.56782 -0.03829,-1.13862 -0.153393,-1.69679 -0.138413,-0.63679 -0.243745,-1.27064 -0.270512,-1.92293 -0.0935,-0.63492 -0.308211,-1.2454 -0.3533,-1.88741 -0.08898,-0.74966 -0.270968,-1.49225 -0.257215,-2.25022 -0.0011,-0.61078 0.0037,-1.2236 -0.05955,-1.83185 -0.05226,-0.36971 -0.108452,-0.63282 -0.399653,-0.89876 -0.08184,-0.33085 -0.965515,-0.63065 -1.079081,-0.99756 -0.117737,-0.17606 -0.260665,-0.33766 -0.353212,-0.52817 -0.335597,-0.69083 -0.197782,-1.48956 -0.139059,-2.22025 0.138747,-0.89874 0.391106,-1.76266 1.058773,-2.4206 0.558893,-0.4608 1.159833,-0.73731 1.868235,-0.89143 0.462283,-0.17394 0.949152,-0.27838 1.372234,-0.54065 -0.04123,0.48572 0.209508,-0.64687 0.287975,-0.68227 0.229582,-0.50881 0.422495,-1.03554 0.542165,-1.5827 0.198865,-0.67585 0.428943,-1.34346 0.66975,-2.00516 0.2026,-0.5797 0.502055,-1.104587 0.725335,-1.67452 0.200106,-0.567099 0.41741,-1.131809 0.676557,-1.673741 0.267896,-0.431213 0.394406,-0.946187 0.615169,-1.400845 0.283894,-0.590732 0.504557,-1.208441 0.896497,-1.745099 0.308438,-0.438254 0.598085,-0.88694 0.9243,-1.310406 0.324846,-0.423287 0.693264,-0.757985 0.944836,-1.242027 0.353915,-0.390716 0.539254,-0.916555 0.926796,-1.283508 0.390762,-0.5634 0.773479,-1.133415 1.201157,-1.670072 0.34463,-0.345365 0.623018,-0.73906 0.98058,-1.078562 0.357911,-0.368871 0.735407,-0.720223 1.12386,-1.056096 0.327166,-0.309367 0.670106,-0.537504 0.863816,-0.956504 0.231878,-0.308975 0.466469,-0.595727 0.580604,-0.974619 0.19903,-0.675091 0.500408,-1.307684 0.734235,-1.970582 0.216097,-0.497825 0.421513,-0.999004 0.647071,-1.49227 0.178576,-0.619885 0.447223,-1.204551 0.716045,-1.789131 0.246555,-0.427399 0.416418,-0.862975 0.521499,-1.353539 0.206585,-0.591768 0.330673,-1.203127 0.515721,-1.802556 0.106997,-0.634253 0.194032,-1.256087 0.14467,-1.903165 0.0014,-0.680897 0.0056,-1.361937 -0.01021,-2.042708 -0.01726,-0.487333 -0.02855,-0.983041 -0.164042,-1.454958 -0.201888,-0.544102 -0.474977,-1.060571 -0.645033,-1.618176 -0.105668,-0.423871 -0.319918,-0.804419 -0.487392,-1.204766 -0.319953,-0.470361 -0.648647,-0.935166 -1.012487,-1.373149 -0.322707,-0.480689 -0.692837,-0.914055 -1.066334,-1.355147 -0.308622,-0.409981 -0.647209,-0.791861 -1.052726,-1.109888 -0.334293,-0.361544 -0.70863,-0.650098 -1.145025,-0.911372 -0.593876,-0.522592 -1.149949,-1.087118 -1.536491,-1.785986 -0.33314,-0.813904 -0.528223,-1.66798 -0.588438,-2.547104 0,-0.700425 0,-1.400851 0,-2.101277 0,-0.700425 10e-7,-1.40085 0,-2.101276 -10e-7,-0.70042 -2e-6,-1.40084 -8e-6,-2.10126 -6e-6,-0.700446 -1.9e-5,-1.400892 -4e-6,-2.101339 3.1e-5,-0.700875 6.5e-5,-1.401749 5.02e-4,-2.102624 5.14e-4,-0.700937 0.0015,-1.401872 0.0023,-2.102808 7.5e-5,-0.672853 0.0022,-1.345955 -0.02137,-2.018495 -0.02613,-0.548555 -0.06331,-1.09902 -0.205804,-1.632042 -0.142623,-0.594915 -0.182329,-1.196043 -0.289389,-1.796412 -0.144357,-0.57362 -0.278736,-1.144366 -0.372484,-1.728268 -0.201536,-0.708083 -0.393775,-1.412563 -0.463426,-2.14934 -0.06304,-0.77802 -0.01953,-1.558684 0.116003,-2.328575 0.118122,-0.576937 0.302821,-1.134028 0.332062,-1.72628 0.101609,-0.589891 0.254651,-1.164052 0.232042,-1.768535 0.09592,-0.922973 0.308133,-1.805243 1.062915,-2.422067 0.474128,-0.343717 0.930455,-0.70282 1.393242,-1.064782 0.50974,-0.318571 1.029609,-0.588794 1.572654,-0.843817 0.322894,-0.05467 0.487977,-0.467733 0.710951,-0.672682 0.309624,-0.286136 0.471213,-0.717374 0.65383,-1.086138 0.282729,-0.522493 0.562006,-1.045112 0.841584,-1.569221 0.309714,-0.521244 0.544806,-1.067109 0.850576,-1.591021 0.244022,-0.337716 0.427355,-0.75103 0.509103,-1.15733 0.124393,-0.595874 0.07275,-1.201083 0.116462,-1.807477 0.04977,-0.671337 0.132664,-1.339833 0.325146,-1.987404 0.189347,-0.70643 0.161616,-1.476584 0.489067,-2.152754 0.275477,-0.762447 0.445181,-1.543358 0.523954,-2.352217 0.28498,-1.70988 2.703116,-1.306857 2.418136,0.403023 z"
       inkscape:connector-curvature="0"
       transform="translate(0,796.36218)" />
    <path
       style="fill:#333333;fill-opacity:1;stroke:none"
       id="path2995"
       d="m 60.741059,187.14432 c -0.262393,-0.84593 -0.472443,-1.7129 -0.781217,-2.54363 -0.307937,-0.74745 -0.620581,-1.48557 -0.978052,-2.21036 -0.288811,-0.7226 -0.64022,-1.41062 -1.009337,-2.09378 -0.358311,-0.71202 -0.761474,-1.39387 -1.190691,-2.06587 -0.401056,-0.70482 -0.811041,-1.40312 -1.220682,-2.10275 -0.346256,-0.52752 -0.686471,-1.05079 -1.049831,-1.56646 -0.288936,-0.54523 -0.679381,-1.02052 -0.987051,-1.55304 -0.346341,-0.51954 -0.684256,-1.04128 -0.970401,-1.60044 -0.310296,-0.54928 -0.566127,-1.13423 -0.899918,-1.66959 -0.304064,-0.56809 -0.610821,-1.12809 -0.814762,-1.7413 -0.216034,-0.4661 -0.478119,-0.89393 -0.660968,-1.3796 -0.251312,-0.4682 -0.380218,-0.9835 -0.573758,-1.47525 -0.295115,-0.53992 -0.456413,-1.13377 -0.681777,-1.70291 -0.183213,-0.60192 -0.341716,-1.207 -0.513567,-1.81262 -0.09683,-0.4744 -0.282477,-0.92292 -0.48605,-1.35969 -0.207257,-0.58889 -0.455891,-1.15923 -0.619738,-1.76308 -0.04367,-0.5006 -0.302468,-0.89617 -0.504909,-1.33942 -0.185827,-0.61135 -0.412706,-1.20876 -0.563749,-1.83091 -0.0175,-0.0403 -0.02573,-0.086 -0.05251,-0.1208 -0.02363,-0.0307 0.04674,0.13261 0.01189,0.11566 -0.124154,-0.0604 -0.458183,-0.36169 -0.544548,-0.4311 -0.463141,-0.32382 -0.9382,-0.62599 -1.379911,-0.9797 -0.421298,-0.26988 -0.827088,-0.56213 -1.234555,-0.85438 -0.48093,-0.28006 -0.961218,-0.53818 -1.393758,-0.89183 -0.368939,-0.30881 -0.79739,-0.54509 -1.207346,-0.7977 -0.546257,-0.25794 -1.037188,-0.61098 -1.561084,-0.91101 -0.592896,-0.31572 -1.176819,-0.65871 -1.735474,-1.03242 -0.48047,-0.28929 -1.006928,-0.47589 -1.491874,-0.76364 -0.480253,-0.25393 -0.889649,-0.63151 -1.376816,-0.86999 -0.535002,-0.28629 -0.99331,-0.67636 -1.464934,-1.05112 -0.427753,-0.28647 -0.874094,-0.55113 -1.300579,-0.84161 -0.808733,-0.44664 -1.210273,-1.19573 -1.433619,-2.05861 -0.142004,-0.75507 -0.135134,-1.52654 -0.136579,-2.29174 -0.04518,-0.78217 0.0531,-1.54743 0.184253,-2.31593 0.226501,-0.63314 0.360713,-1.29051 0.549057,-1.93355 0.189593,-0.61867 0.345619,-1.2425 0.576608,-1.84843 0.230827,-0.63341 0.431392,-1.28086 0.605088,-1.93277 0.274248,-0.58326 0.394558,-1.20968 0.574831,-1.82173 0.123127,-0.53093 0.407612,-1.00435 0.545809,-1.52882 0.239759,-0.54038 0.391571,-1.10872 0.569123,-1.67088 0.307221,-0.54469 0.4436,-1.1411 0.632873,-1.72785 0.176978,-0.55709 0.343665,-1.11934 0.489478,-1.68599 0.102987,-0.73529 0.299158,-1.43803 0.583203,-2.12297 0.184773,-0.55627 0.334606,-1.12702 0.473053,-1.69748 0.08465,-0.71624 0.292493,-1.3826 0.615329,-2.02545 0.151225,-0.4404 0.38229,-0.85012 0.496055,-1.30332 0.17072,-0.55576 0.446795,-1.06916 0.649167,-1.61133 0.278068,-0.47193 0.434907,-0.99102 0.644653,-1.49339 0.197169,-0.52444 0.442322,-1.03222 0.697776,-1.531 0.234213,-0.52779 0.434691,-1.06694 0.669302,-1.5948 0.161766,-0.58869 0.412456,-1.13153 0.719021,-1.65789 0.150967,-0.42891 0.300987,-0.86297 0.431445,-1.30062 0.008,-0.024 0.164912,-0.52342 0.198904,-0.49943 0.645533,0.45558 1.146716,1.08887 1.753774,1.59458 0.03515,0.0293 0.141818,-0.109 0.118118,-0.0699 -0.05951,0.0983 -0.130568,0.18903 -0.195851,0.28355 -0.220796,0.44992 -0.39526,0.91663 -0.647953,1.35532 -0.289279,0.45862 -0.466221,0.97274 -0.690843,1.46295 -0.216089,0.5767 -0.511925,1.10486 -0.84792,1.61899 -0.153743,0.38336 -0.360731,0.74331 -0.46143,1.14674 -0.201202,0.60585 -0.515684,1.16571 -0.838913,1.71303 -0.200192,0.39601 -0.374484,0.81388 -0.516463,1.2363 -0.177824,0.57682 -0.540208,1.07369 -0.717525,1.64827 -0.255346,0.52484 -0.403887,1.08538 -0.615783,1.62705 -0.298827,0.549 -0.466074,1.14883 -0.658997,1.73956 -0.120358,0.60274 -0.361311,1.17133 -0.497767,1.76943 -0.136412,0.60316 -0.295008,1.20971 -0.488222,1.79813 -0.201416,0.45363 -0.262853,0.93811 -0.302544,1.42731 -0.117714,0.75019 -0.331585,1.47482 -0.648268,2.16373 -0.266088,0.48413 -0.373617,1.02655 -0.557252,1.54394 -0.112309,0.51455 -0.338815,0.99378 -0.458297,1.50595 -0.139013,0.59041 -0.29495,1.18499 -0.484868,1.76207 -0.184078,0.54068 -0.352942,1.08885 -0.498552,1.64174 -0.138112,0.65287 -0.368286,1.28466 -0.641371,1.89222 -0.136155,0.46747 -0.362399,0.90306 -0.47732,1.37703 -0.09774,0.28216 -0.212359,0.55661 -0.303313,0.84089 -0.541653,1.64667 -2.870393,0.88066 -2.32874,-0.76601 l 0,0 c 0.07839,-0.23431 0.151624,-0.47175 0.260171,-0.69454 0.163446,-0.60314 0.412392,-1.17222 0.613286,-1.7626 0.219427,-0.48795 0.406348,-0.99271 0.508965,-1.52012 0.165756,-0.61331 0.350742,-1.22276 0.554909,-1.82386 0.207,-0.47777 0.276282,-1.03482 0.416908,-1.53483 0.150198,-0.58939 0.382019,-1.14777 0.527971,-1.73803 0.213997,-0.60275 0.344353,-1.23578 0.663741,-1.79774 0.22955,-0.39587 0.281594,-0.8641 0.409329,-1.29725 0.06086,-0.69418 0.161375,-1.38603 0.432834,-2.03388 0.208871,-0.48185 0.276981,-1.0452 0.41539,-1.55021 0.161175,-0.66311 0.406234,-1.29878 0.55308,-1.96575 0.207525,-0.63313 0.386811,-1.28162 0.705905,-1.87027 0.197073,-0.50377 0.328637,-1.03002 0.57494,-1.51464 0.203187,-0.58218 0.503596,-1.10947 0.728906,-1.68136 0.210113,-0.58281 0.439716,-1.16719 0.741469,-1.70792 0.232663,-0.33267 0.393822,-0.71806 0.564132,-1.08303 0.185559,-0.63932 0.464046,-1.24594 0.772701,-1.8342 0.275381,-0.41994 0.511907,-0.84628 0.682715,-1.32413 0.281969,-0.55846 0.459413,-1.17372 0.817056,-1.69629 0.348663,-0.43249 0.34871,-1.08767 0.744448,-1.50081 0.0084,-0.0105 0.508481,-0.7857 0.591261,-0.74122 2.347532,1.26135 2.057953,0.99429 1.871545,1.5763 -0.191103,0.61469 -0.377893,1.23762 -0.65734,1.81734 -0.26224,0.45024 -0.446645,0.91605 -0.597289,1.41995 -0.252966,0.56889 -0.465244,1.15255 -0.728176,1.71787 -0.227178,0.44223 -0.449783,0.88843 -0.616905,1.3569 -0.201848,0.48308 -0.34651,0.99232 -0.62331,1.44056 -0.184083,0.4603 -0.400638,0.90224 -0.568775,1.36901 -0.173395,0.60552 -0.436155,1.17344 -0.670428,1.75638 -0.24142,0.47758 -0.357726,0.96877 -0.423967,1.50707 -0.171132,0.69122 -0.348547,1.38523 -0.590407,2.05466 -0.242289,0.5803 -0.377929,1.17686 -0.474499,1.79996 -0.163957,0.62263 -0.344995,1.2415 -0.539978,1.85462 -0.211238,0.55537 -0.283471,1.16953 -0.617104,1.67971 -0.170718,0.53944 -0.307853,1.093 -0.549669,1.60627 -0.161207,0.54231 -0.411399,1.04149 -0.562853,1.58576 -0.204045,0.56519 -0.251225,1.19125 -0.54777,1.72875 -0.200628,0.73704 -0.423825,1.47091 -0.688801,2.18702 -0.223614,0.5477 -0.330327,1.12738 -0.519739,1.68647 -0.191973,0.52307 -0.221597,1.1072 -0.472581,1.61533 -0.107993,0.63271 -0.198342,1.25327 -0.149313,1.89915 9.45e-4,0.57723 -0.0062,1.15779 0.07059,1.73109 0.05844,0.34077 0.08705,0.43335 0.453097,0.61464 0.458977,0.34 0.979704,0.59898 1.436877,0.94418 0.347423,0.28382 0.681628,0.57724 1.077809,0.79469 0.52728,0.29124 1.009082,0.65026 1.527386,0.95734 0.460195,0.36557 1.134096,0.4053 1.573882,0.81752 0.489971,0.35385 1.040827,0.63321 1.567458,0.9269 0.550468,0.31554 1.062444,0.68219 1.635441,0.95538 0.532055,0.33215 1.087027,0.63998 1.556445,1.06024 0.299848,0.27845 0.842159,0.44883 1.192481,0.72868 0.445866,0.3266 0.902689,0.63257 1.356356,0.94885 0.4181,0.37665 0.944343,0.61275 1.374925,0.9756 0.588616,0.51158 1.250399,0.93098 1.413714,1.76744 0.105612,0.47445 0.305736,0.9192 0.415592,1.39233 0.241395,0.56335 0.576739,1.09256 0.63855,1.71956 0.112586,0.46437 0.334265,0.89055 0.469998,1.34766 0.259048,0.55581 0.488044,1.13275 0.62409,1.73198 0.145647,0.52507 0.296353,1.04688 0.432837,1.57343 0.22629,0.57151 0.390677,1.16399 0.683634,1.70762 0.203559,0.5172 0.344938,1.05312 0.601403,1.54893 0.157038,0.51814 0.554646,0.93315 0.689828,1.46543 0.121447,0.44332 0.397415,0.82165 0.589427,1.23549 0.34083,0.59451 0.655332,1.20413 0.976453,1.80979 0.264136,0.53628 0.61099,1.01066 0.92579,1.5161 0.230596,0.47315 0.64135,0.84672 0.851137,1.33547 0.397699,0.57346 0.777993,1.15143 1.158718,1.73652 0.39146,0.67325 0.790585,1.34106 1.170762,2.02094 0.459645,0.72254 0.889987,1.45808 1.280722,2.21911 0.382635,0.70986 0.752813,1.42308 1.050759,2.17404 0.397987,0.8075 0.745737,1.63109 1.086035,2.46455 0.300937,0.85453 0.545644,1.72912 0.800155,2.59829 0.54817,1.64451 -1.777518,2.41974 -2.325688,0.77523 z"
       inkscape:connector-curvature="0"
       transform="translate(0,796.36218)" />
    <path
       style="fill:#333333;fill-opacity:1;stroke:none"
       id="path2997"
       d="m 28.383586,142.52976 c -0.574187,-0.49931 -1.131412,-1.02069 -1.743547,-1.47486 -0.291348,-0.27259 -0.6366,-0.47576 -0.919069,-0.75871 -0.197866,-0.1982 -0.356327,-0.4563 -0.58609,-0.62192 -0.382571,-0.32694 -0.737172,-0.68855 -1.124831,-1.00956 -0.375576,-0.33848 -0.703261,-0.73027 -1.084841,-1.06146 -0.399175,-0.2665 -0.742066,-0.62147 -1.110819,-0.93312 -0.376382,-0.33626 -0.807411,-0.58613 -1.20011,-0.90204 -0.364189,-0.36431 -0.786464,-0.56706 -1.232059,-0.79721 -0.520759,-0.16866 -0.874399,-0.63441 -1.351286,-0.86794 -0.453396,-0.31939 -0.951207,-0.55298 -1.406183,-0.87185 -0.335851,-0.1993 -0.647399,-0.45571 -1.028868,-0.56155 -0.58149,-0.26161 -1.168272,-0.5125 -1.741945,-0.78977 -0.476174,-0.20642 -0.962366,-0.40209 -1.456227,-0.56537 -0.524836,-0.0884 -1.020254,-0.28883 -1.539914,-0.39909 -0.508659,-0.1966 -1.0162322,-0.34702 -1.5572306,-0.41136 -0.6427694,-0.002 -1.2600383,-0.17733 -1.8875594,-0.28962 -0.5863212,-0.0908 -1.180793,-0.10181 -1.7728006,-0.11268 -0.6905014,-0.008 -1.3810756,-0.006 -2.0716107,-0.005 -0.7155107,0.0627 -1.4071585,-0.1063 -2.1052061,-0.22763 -0.4096944,-0.0808 -0.76250032,-0.25312 -1.13258024,-0.43517 -0.0352511,-0.0173 -0.14534998,-0.0592 -0.10786611,-0.0475 0.63939686,0.2006 0.0105328,0.18866 1.25142975,-0.25398 0.2537172,-1.92909 0.3389065,-0.8987 0.6725451,-0.18603 0.2760973,0.4725 0.5144462,0.97225 0.814672,1.43015 0.3031076,0.4638 0.4789352,1.00514 0.7728872,1.47202 0.1115179,0.13987 0.2622987,0.64964 0.4871236,0.60635 0.414389,0.15456 0.8227312,0.3022 1.2630681,0.37093 0.487199,0.10655 0.9343849,0.0346 1.4106005,-0.0583 0.4620744,-0.0368 0.8889385,-0.18325 1.33134,-0.30659 1.6704542,-0.46313 2.3254125,1.89925 0.6549588,2.36237 l 0,0 c -0.5017716,0.13813 -0.9969326,0.29855 -1.5176847,0.35051 -0.7608773,0.14796 -1.515655,0.21619 -2.2853602,0.0696 -0.6828695,-0.11948 -1.3248958,-0.33768 -1.9645799,-0.60156 -0.6710742,-0.37864 -1.1794401,-0.89133 -1.5163265,-1.59182 -0.2476141,-0.45849 -0.4665876,-0.93208 -0.72230976,-1.38619 -0.33072793,-0.55099 -0.64652581,-1.11132 -0.94893929,-1.67876 -0.06243464,-0.13359 -0.52080397,-1.0335 -0.51452556,-1.18382 0.0179618,-0.43004 0.13979538,-0.84941 0.20969307,-1.27412 0.36658498,-0.16133 0.70856107,-0.39809 1.09975494,-0.484 0.3938632,-0.0865 0.8045107,0.31155 1.1653543,0.4112 0.561039,0.099 1.1025842,0.25223 1.6789025,0.19081 0.7067794,-8.7e-4 1.4136004,-0.003 2.1203428,0.006 0.7235852,0.0137 1.4498369,0.0327 2.165343,0.15175 0.5857062,0.10764 1.1546567,0.27257 1.7556156,0.26934 0.6091904,0.0795 1.2171574,0.19427 1.7805474,0.45004 0.608006,0.13796 1.192702,0.34785 1.803541,0.47307 0.594497,0.20731 1.185391,0.43229 1.758378,0.69183 0.461769,0.24765 0.968522,0.41324 1.432028,0.66067 0.611667,0.21969 1.164861,0.5436 1.699227,0.91141 0.343715,0.3147 0.849044,0.40775 1.191338,0.73006 0.427179,0.26308 0.794193,0.60644 1.253347,0.81343 0.579748,0.31736 1.151596,0.61565 1.642064,1.06911 0.397328,0.33649 0.858505,0.58758 1.24479,0.93951 0.38684,0.34343 0.745688,0.69297 1.170395,0.98602 0.35072,0.32942 0.684619,0.67603 1.028744,1.01156 0.38024,0.33434 0.748646,0.68096 1.13003,1.01406 0.464794,0.4231 0.836769,0.92527 1.372157,1.27314 0.698733,0.53042 1.350844,1.11578 2.003616,1.70071 1.225746,1.22575 -0.50772,2.95921 -1.733465,1.73347 z"
       inkscape:connector-curvature="0"
       transform="translate(0,796.36218)" />
    <path
       style="fill:#333333;fill-opacity:1;stroke:none"
       d="m 74.146792,27.998935 c -2.356946,0.908766 -4.374212,2.798869 -4.280627,5.50908 -0.925,4.345367 1.131219,8.504462 0.832367,12.867017 0.377481,4.886295 -0.109064,9.931999 0.663456,14.71541 3.585949,3.339532 7.757512,7.418161 7.012188,12.795048 0.19699,4.766402 -2.170028,9.252845 -4.415546,13.284271 -4.728372,4.647346 -7.974705,10.576056 -10.098053,16.809179 -0.451746,1.85558 -1.765504,3.14226 -3.587631,3.65035 -1.77731,0.85182 -1.612666,3.2715 -0.02509,4.22739 1.288569,2.34728 0.82521,5.35212 1.428165,7.92648 0.902461,5.55806 0.18707,11.42617 2.636145,16.63499 1.76047,6.51826 1.637786,13.44913 1.116431,20.15848 -1.633873,7.59391 -0.453236,15.5936 -1.360948,23.30583 -0.371215,2.5508 -0.261513,5.58826 -1.436401,7.81624 -1.981127,-1.40336 -2.033676,-4.46902 -3.419813,-6.43821 -3.901524,-7.11409 -8.534247,-13.93811 -10.751666,-21.84898 -0.685822,-3.02801 -2.453068,-5.67709 -5.255607,-7.108 -3.909589,-2.85659 -8.612551,-4.64131 -12.108945,-7.98253 -0.237707,-1.17083 -0.808567,-2.26194 -2.094876,-2.38339 -4.967174,-4.13243 -9.6667,-9.00811 -15.99381,-11.10159 -3.1423697,-1.02344 -6.7280259,-1.92489 -9.9600672,-0.99099 -1.7028612,1.93621 2.0235465,4.89477 3.725617,2.83498 1.1371886,-0.78345 2.7748095,0.86812 4.0141332,0.92827 4.977176,1.79744 9.921511,4.1939 13.23988,8.46466 6.484324,6.28875 12.863359,12.86539 16.665409,21.20229 6.194714,12.1929 10.615021,25.2354 13.309066,38.66427 3.347988,12.73 4.912034,25.80877 5.342707,38.94578 0.480098,3.37786 -0.139608,7.22747 1.268361,10.312 2.167772,0.71982 4.819994,-0.98323 7.225439,-1.07879 7.693271,-0.46694 15.49552,0.0848 23.143985,0.92826 2.430208,-0.75732 0.100177,-3.36511 -0.250883,-4.86713 -2.266368,-8.92585 -1.298512,-18.4282 0.578452,-27.35161 2.622818,-11.43895 7.184997,-22.38549 9.695219,-33.88901 2.01906,-8.64484 5.04525,-16.9784 7.56413,-25.4772 0.80288,-1.74527 -1.72586,-3.26471 -2.65936,-1.41749 -1.0126,1.22182 -0.96913,3.4571 -2.19523,4.3152 -2.44944,0.16448 -3.99774,-2.44373 -5.895758,-3.57509 0.484205,-6.69739 2.856638,-13.14453 2.593898,-19.91963 -0.2483,-1.55994 0.89531,-4.58359 -1.326938,-5.04326 -1.025566,0.76658 -1.969068,-0.0995 -1.956889,-1.22933 -0.177064,-1.78285 -2.318808,-1.51172 -2.910247,-0.13798 -0.979849,0.66242 -2.305721,2.77292 -3.361836,1.0788 -2.116427,-0.88696 -2.341616,2.27632 -2.082331,3.6378 0.699017,3.32877 0.965636,6.74596 -0.194926,10.04912 -0.977213,3.23965 -1.196248,7.85945 -4.985814,9.08073 -2.003037,-12.11113 -7.205999,-23.36622 -10.587276,-35.14875 -1.185313,-4.6638 -3.334664,-9.58302 -2.508833,-14.41324 1.479935,-3.60839 4.465571,-6.39797 5.955336,-10.043683 2.074178,-5.202336 5.975161,-9.508786 7.490841,-14.97475 1.556388,-4.640912 2.434395,-9.946765 -1.56e-4,-14.436565 -2.679097,-6.991967 -5.645714,-13.87158 -8.235106,-20.901602 -1.674668,-5.5375 -1.206119,-11.72253 -0.155616,-17.404681 0.0359,-0.719773 -0.793935,-1.171385 -1.404947,-0.978444 z"
       id="path3001"
       inkscape:connector-curvature="0"
       transform="translate(0,796.36218)" />
  </g>
</svg>
