<?xml version="1.0" encoding="UTF-8" standalone="no"?>
<!-- Created with Inkscape (http://www.inkscape.org/) -->

<svg
   xmlns:dc="http://purl.org/dc/elements/1.1/"
   xmlns:cc="http://creativecommons.org/ns#"
   xmlns:rdf="http://www.w3.org/1999/02/22-rdf-syntax-ns#"
   xmlns:svg="http://www.w3.org/2000/svg"
   xmlns="http://www.w3.org/2000/svg"
   xmlns:sodipodi="http://sodipodi.sourceforge.net/DTD/sodipodi-0.dtd"
   xmlns:inkscape="http://www.inkscape.org/namespaces/inkscape"
   width="1100"
   height="360"
   id="svg2"
   version="1.1"
   inkscape:version="0.48.5 r10040"
   sodipodi:docname="eastBaseBackground.svg"
   inkscape:export-filename="C:\Users\narfman0\Desktop\eastBaseBackground.png"
   inkscape:export-xdpi="90"
   inkscape:export-ydpi="90">
  <defs
     id="defs4" />
  <sodipodi:namedview
     id="base"
     pagecolor="#ffffff"
     bordercolor="#666666"
     borderopacity="1.0"
     inkscape:pageopacity="0.0"
     inkscape:pageshadow="2"
     inkscape:zoom="0.71808822"
     inkscape:cx="616.42087"
     inkscape:cy="232.84632"
     inkscape:document-units="px"
     inkscape:current-layer="layer1"
     showgrid="false"
     inkscape:window-width="1524"
     inkscape:window-height="843"
     inkscape:window-x="154"
     inkscape:window-y="154"
     inkscape:window-maximized="0" />
  <metadata
     id="metadata7">
    <rdf:RDF>
      <cc:Work
         rdf:about="">
        <dc:format>image/svg+xml</dc:format>
        <dc:type
           rdf:resource="http://purl.org/dc/dcmitype/StillImage" />
        <dc:title></dc:title>
      </cc:Work>
    </rdf:RDF>
  </metadata>
  <g
     inkscape:label="Layer 1"
     inkscape:groupmode="layer"
     id="layer1"
     transform="translate(0,-692.36218)">
    <path
       style="fill:#4d4d4d;fill-opacity:1;stroke:none"
       d="m 875.61608,731.56532 c -65.0197,0.71206 -130.1238,-0.97502 -195.0825,2.24055 -56.056,4.81478 -112.43656,3.47363 -168.64253,4.9056 -87.0028,1.77043 -174.11293,0.61767 -261.02415,5.43065 -58.19398,5.12544 -116.8246,1.61786 -175.07424,6.00553 -6.43242,1.12224 -15.40598,0.33773 -15.10086,9.22588 -4.27067,36.9642 1.08855,74.33473 -0.087,111.40692 -4.96453,19.8003 -6.32956,40.42699 -5.42432,60.92472 1.16811,28.70417 0.70391,57.6638 4.24932,86.16723 2.77115,6.5314 12.50395,2.5458 17.88604,4.0907 58.27267,0.4236 116.61179,1.4554 174.85278,-0.8001 50.26068,-5.3063 100.65928,-9.4729 151.22823,-10.0728 47.36153,-1.2946 94.6164,-4.8255 141.94731,-6.7983 37.4055,-4.58237 75.22786,-4.81507 112.58616,-10.10302 72.0639,-7.9874 144.8355,-2.69311 216.9431,-9.86502 54.8773,-2.6084 110.1486,2.10138 164.76318,-4.96517 6.6893,-2.55399 17.0895,0.0116 21.1935,-6.96294 2.0129,-17.80845 -0.1109,-36.20418 -0.943,-54.17114 -3.2048,-20.57992 -7.999,-41.14358 -5.9293,-62.28095 2.7433,-22.64341 4.4208,-45.40331 3.0667,-68.23745 -0.7292,-18.53894 -0.4229,-37.17461 -2.6351,-55.61867 -17.7873,-1.99788 -36.9822,-0.22039 -55.31171,-0.76401 -41.15387,0.0806 -82.30777,0.16119 -123.46157,0.24179 z"
       id="path3015"
       inkscape:connector-curvature="0" />
  </g>
</svg>
