<?xml version="1.0" encoding="UTF-8" standalone="no"?>
<!-- Created with Inkscape (http://www.inkscape.org/) -->

<svg
   xmlns:dc="http://purl.org/dc/elements/1.1/"
   xmlns:cc="http://creativecommons.org/ns#"
   xmlns:rdf="http://www.w3.org/1999/02/22-rdf-syntax-ns#"
   xmlns:svg="http://www.w3.org/2000/svg"
   xmlns="http://www.w3.org/2000/svg"
   xmlns:sodipodi="http://sodipodi.sourceforge.net/DTD/sodipodi-0.dtd"
   xmlns:inkscape="http://www.inkscape.org/namespaces/inkscape"
   width="256"
   height="256"
   id="svg2"
   version="1.1"
   inkscape:version="0.48.4 r9939"
   sodipodi:docname="nearDeadHanging0.svg"
   inkscape:export-filename="C:\Users\narfman0\Desktop\nearDeadHanging0.png"
   inkscape:export-xdpi="90"
   inkscape:export-ydpi="90">
  <defs
     id="defs4" />
  <sodipodi:namedview
     id="base"
     pagecolor="#ffffff"
     bordercolor="#666666"
     borderopacity="1.0"
     inkscape:pageopacity="0.0"
     inkscape:pageshadow="2"
     inkscape:zoom="2.4865144"
     inkscape:cx="125.09732"
     inkscape:cy="136.34882"
     inkscape:document-units="px"
     inkscape:current-layer="layer1"
     showgrid="false"
     inkscape:window-width="1161"
     inkscape:window-height="793"
     inkscape:window-x="707"
     inkscape:window-y="100"
     inkscape:window-maximized="0" />
  <metadata
     id="metadata7">
    <rdf:RDF>
      <cc:Work
         rdf:about="">
        <dc:format>image/svg+xml</dc:format>
        <dc:type
           rdf:resource="http://purl.org/dc/dcmitype/StillImage" />
        <dc:title></dc:title>
      </cc:Work>
    </rdf:RDF>
  </metadata>
  <g
     inkscape:label="Layer 1"
     inkscape:groupmode="layer"
     id="layer1"
     transform="translate(0,-796.36218)">
    <path
       style="fill:#000000;fill-opacity:1;stroke:none"
       id="path2989"
       d="m 18.667828,182.53365 c 0.880102,-1.40902 1.832438,-2.77554 2.741766,-4.16747 1.393826,-2.01537 2.848684,-3.98531 4.357631,-5.91616 2.038391,-2.63952 4.048092,-5.30051 6.110733,-7.92134 2.585933,-3.19253 5.105486,-6.43679 7.582905,-9.71425 3.036044,-3.93562 5.997714,-7.92871 8.973524,-11.91012 3.186877,-4.29601 6.289063,-8.65411 9.374636,-13.02323 3.229045,-4.53194 6.332875,-9.14609 9.354277,-13.81847 2.814655,-4.51555 5.537062,-9.08628 8.201824,-13.69156 2.361511,-4.137602 4.503167,-8.393692 6.825235,-12.553204 1.761995,-3.452498 3.646544,-6.836221 5.494341,-10.242553 1.544715,-2.754802 3.036827,-5.536568 4.673352,-8.238651 1.273718,-2.184081 2.586288,-4.336455 3.99881,-6.433746 1.048619,-1.589017 2.043098,-3.214904 3.019418,-4.849362 0.81428,-1.309637 1.66336,-2.59707 2.44754,-3.925374 0.60951,-1.004851 1.2136,-2.017753 1.73481,-3.071891 0.44147,-0.981122 0.98979,-1.903816 1.51315,-2.841204 0.45799,-0.796683 0.91142,-1.592836 1.3771,-2.384395 0.52048,-0.760943 1.03604,-1.5231 1.5279,-2.30284 0.35273,-0.762888 0.82932,-1.454883 1.27724,-2.161904 0.42683,-0.657316 0.82732,-1.330485 1.23145,-2.001866 0.4166,-0.595137 0.75165,-1.240276 1.15017,-1.844135 0.37366,-0.547969 0.73479,-1.115392 1.13842,-1.643369 0.3873,-0.580809 0.77204,-1.159391 1.17239,-1.73185 0.33859,-0.592661 0.80709,-1.098029 1.05954,-1.73861 0.34589,-0.584065 0.63884,-1.210427 0.82334,-1.865233 0.32407,-0.623429 0.50607,-1.28975 0.76441,-1.939175 0.20638,-0.608467 0.51864,-1.177665 0.80691,-1.751856 0.39201,-0.518877 0.66969,-1.096319 1.07671,-1.605104 0.25642,-0.48171 0.80115,-0.765087 1.03429,-1.254617 0.38412,-0.510349 0.74403,-1.040146 1.18352,-1.50636 1.66911,-1.294866 1.86577,-0.158511 3.81059,1.618688 0.0986,0.09005 0.23613,0.989103 0.26346,1.139889 0.0809,0.988533 0.44489,1.903125 0.64496,2.874726 0.38741,1.510945 0.96298,2.961908 1.44664,4.443747 0.63452,1.968499 1.27004,3.932482 2.03203,5.856784 0.91859,2.112559 1.75124,4.259731 2.73358,6.344057 0.96502,2.237625 2.04119,4.421787 3.1278,6.602302 1.00725,2.232883 2.17705,4.380799 3.39164,6.505184 1.15169,2.002261 2.33904,3.983593 3.4864,5.988635 1.03496,1.847172 2.18104,3.613401 3.36827,5.36367 1.16769,1.686426 2.1941,3.465664 3.39298,5.129717 1.23686,1.727885 2.38376,3.515154 3.63175,5.234796 1.16918,1.68754 2.3952,3.338022 3.67343,4.944771 0.21581,0.267415 0.44407,0.525248 0.64743,0.802245 0.21944,0.298882 0.40342,0.62258 0.61974,0.92372 0.75845,1.055831 1.58024,2.060041 2.30498,3.140835 1.06561,1.515074 2.22747,2.958175 3.36276,4.420686 1.1376,1.39482 2.20394,2.834403 3.2441,4.301977 1.08539,1.49189 2.14999,2.99426 3.3355,4.40898 1.25991,1.39099 2.20404,3.03019 3.4513,4.42975 1.18075,1.35498 2.07744,2.93046 3.31918,4.23066 0.98149,1.19971 2.01522,2.34885 3.02612,3.52321 0.92388,0.97484 1.5939,2.14104 2.50747,3.12058 0.45614,0.42541 0.79456,0.96282 1.21586,1.41438 0.69774,0.74784 -0.20727,-0.46456 0.4801,0.50808 2.61218,2.93884 -6.32329,-6.5657 1.02732,1.06367 0.58558,0.60778 -2.40651,-2.3672 -1.79182,-1.78888 0.80124,0.75383 1.56777,1.54373 2.35166,2.31559 0.72761,0.86762 1.57726,1.62001 2.27468,2.5117 0.5924,0.43902 0.95561,1.08878 1.46203,1.60568 1.02121,1.04234 -0.2564,-0.43008 0.73156,0.74294 1.34436,1.48511 -1.80825,-1.79054 -1.3493,-1.34994 0.79482,0.76305 1.55416,1.56227 2.32389,2.35062 1.53949,1.57671 -2.54335,-2.49238 -0.973,-0.97659 0.80513,0.78788 1.59555,1.59108 2.41539,2.36364 0.58581,0.55202 -2.27948,-2.27383 -1.71311,-1.70187 0.7752,0.78286 1.56751,1.5487 2.33964,2.33459 0.11742,0.11951 0.44723,0.49858 0.32813,0.38074 -0.56702,-0.56102 -1.11797,-1.13806 -1.67278,-1.71115 -0.11343,-0.11717 0.23238,0.22885 0.34856,0.34328 1.25397,1.06144 5.4605,5.54621 1.44591,1.4081 -0.1939,-0.19987 0.39004,0.39759 0.58267,0.59869 0.56197,0.48781 1.21457,0.87339 1.73178,1.40756 0.55609,0.49101 1.14994,0.98507 1.8007,1.35344 0.28348,0.27752 0.6635,0.42203 0.9793,0.65158 0.29027,0.211 0.44922,0.43977 0.76515,0.62882 0.63149,0.4539 1.24417,0.93989 1.87447,1.39745 0.784,0.57165 1.57291,1.15233 2.2907,1.80515 0.69901,0.4979 1.28329,1.12776 1.92881,1.69106 0.68055,0.56824 1.31467,1.19578 2.01291,1.74014 0.37761,0.29117 0.66696,0.6946 1.03109,0.99927 0.45479,0.31385 0.25078,0.15178 0.61883,0.47753 0.64614,0.38221 1.14237,0.94302 1.69936,1.43403 0.52845,0.53464 1.21183,0.88732 1.73887,1.41677 1.02156,0.7452 1.89968,1.84506 2.78923,2.65848 0.6397,0.58494 -2.45532,-2.44807 -1.84836,-1.82921 0.74555,0.76018 1.49689,1.515 2.26421,2.25321 0.62748,0.60368 -1.22975,-1.23303 -1.84463,-1.84954 0.74978,0.75336 1.50885,1.49758 2.24935,2.26006 1.98668,2.04568 -6.78294,-6.97254 0.6763,0.70117 0.59765,0.61484 -1.21226,-1.213 -1.81575,-1.82211 -0.0783,-0.079 0.16,0.15447 0.24,0.2317 0.63941,0.58253 1.32967,1.11137 1.95311,1.70824 1.20847,0.88839 0.37736,0.25127 2.66886,2.55175 0.10051,0.10091 0.38597,0.41867 0.28425,0.31898 -0.59204,-0.58022 -2.36963,-2.31826 -1.7558,-1.76114 0.16586,0.15053 5.24709,5.15068 0.54534,0.52633 6.45727,6.34915 0.37596,0.34105 0.55722,0.51862 0.78577,0.76975 1.55385,1.55762 2.34808,2.31864 0.59693,0.57198 -2.34159,-2.33514 -1.75612,-1.75143 2.41191,2.40464 1.62421,1.468 2.58123,2.63222 -4.60549,-4.67006 0.36592,0.33491 0.5397,0.5117 0.5932,0.6035 -2.40112,-2.38572 -1.79389,-1.79634 0.77199,0.74929 1.52162,1.52131 2.2882,2.27613 0.37272,0.367 -6.10826,-6.08496 0.45125,0.4464 -3.634,-3.58818 -1.59379,-1.4412 -0.55629,-0.8117 0.47196,0.46387 1.01362,0.83783 1.55864,1.20944 0.66015,0.46066 1.29558,0.94672 1.95156,1.41525 0.64024,0.55486 1.38518,0.95523 2.06464,1.45741 0.77308,0.38895 1.39899,0.99293 2.12595,1.44766 0.60772,0.47332 1.23888,0.91924 1.90601,1.30266 0.51409,0.45094 1.05958,0.86281 1.64792,1.20944 1.48615,1.06773 5.99695,5.76154 1.78969,1.51229 6.23473,6.44469 0.51563,0.53293 0.5777,0.5973 0.76789,0.79621 1.54548,1.58312 2.30646,2.38593 0.56483,0.59586 -2.2899,-2.35404 -1.71792,-1.76505 2.40605,2.47757 1.59164,1.50139 2.55375,2.67706 -4.57186,-4.68775 0.36947,0.33613 0.54199,0.51645 0.58488,0.61131 -2.39582,-2.38996 -1.78814,-1.8013 0.77257,0.74839 1.52132,1.521 2.28291,2.28058 0.60724,0.60565 -2.43066,-2.4209 -1.8199,-1.81879 0.76113,0.75036 1.51402,1.50902 2.27103,2.26353 -4.85716,-4.85732 0.34172,0.34203 0.42333,0.42227 0.62037,0.60997 -2.4572,-2.46434 -1.84259,-1.84857 7.44837,7.46237 -4.77631,-4.80893 2.65481,2.66247 -4.68288,-4.71973 0.0852,0.0866 0.40132,0.40193 0.61795,0.61646 -2.46054,-2.47711 -1.84357,-1.85966 7.44632,7.45212 -4.77541,-4.81451 2.64619,2.66272 -4.51802,-4.55932 -0.11183,-0.11185 0.40179,0.40183 0.61702,0.61711 -2.45983,-2.47666 -1.84276,-1.8596 7.43566,7.43574 -4.68168,-4.75153 2.59844,2.6287 0.0478,1.63968 -1.01944,1.9695 -2.30305,2.21743 -1.06513,0.20745 -2.14637,0.2922 -3.22875,0.33696 -1.22397,0.0834 -2.43708,0.26216 -3.66188,0.34304 -1.30413,6.4e-4 -2.59283,0.16632 -3.88681,0.30069 -1.38588,0.0583 -2.75867,0.23968 -4.13569,0.39265 -1.24594,0.0891 -2.48705,0.15865 -3.72473,0.32932 -1.1376,0.15346 -2.2834,0.22152 -3.42994,0.25628 -1.0504,0.0521 -2.08859,0.23082 -3.13617,0.32218 -1.05533,0.0841 -2.11433,0.0928 -3.17235,0.0997 -0.97707,-0.0243 -1.9433,-0.001 -2.91185,0.12672 -0.97034,0.14972 -1.94889,0.21601 -2.92909,0.25142 -0.98183,-0.0325 -1.94779,0.11018 -2.91956,0.22386 -1.06377,0.128 -2.13407,0.1714 -3.20441,0.19193 -1.20121,0.0621 -2.39292,0.23109 -3.59318,0.3166 -1.32219,0.0851 -2.64753,0.0901 -3.97187,0.0962 -1.59798,-0.003 -3.1877,0.18396 -4.7826,0.27191 -1.80736,0.0975 -3.61737,0.11561 -5.42688,0.127 -1.75023,0.008 -3.50048,0.005 -5.25072,0.004 -1.62285,-9.6e-4 -3.24569,-0.001 -4.86854,-0.002 -1.44241,-1.8e-4 -2.88482,-1.8e-4 -4.32722,-1.8e-4 -1.32672,0 -2.65344,1e-5 -3.98016,1e-5 -1.21563,0 -2.43126,0 -3.64689,0 -1.11864,0 -2.23728,0 -3.35591,0 -1.03833,0.0131 -2.07793,-0.0462 -3.11159,0.0654 -1.07653,0.14176 -2.15735,0.23978 -3.24153,0.29586 -1.05819,0.0404 -2.11737,0.0418 -3.17618,0.0436 -1.06322,2.2e-4 -2.12643,-0.001 -3.18965,-0.002 -1.24254,-7e-4 -2.48508,-7.4e-4 -3.72761,-8.1e-4 -1.35719,-4e-5 -2.71438,-2e-5 -4.07157,-2e-5 -1.52247,1e-5 -3.04494,1e-5 -4.56741,1e-5 -1.44291,0 -2.88581,0 -4.32872,0 -1.25467,0 -2.50934,0 -3.76401,0 -1.17184,0 -2.34367,0 -3.51551,0 -1.42136,0 -2.84272,0 -4.26407,0 -1.52021,0.0508 -3.03299,-0.0932 -4.54607,-0.21451 -1.81585,-0.0962 -3.62663,-0.25926 -5.4395,-0.39773 -1.8968,-0.13069 -3.78607,-0.33779 -5.68379,-0.45892 -1.77589,-0.0796 -3.541638,-0.28698 -5.315004,-0.40576 -1.464879,-0.0989 -2.933014,-0.11942 -4.400644,-0.13079 -1.186852,-0.007 -2.373728,-0.004 -3.560591,-0.003 -1.030448,0.001 -2.060897,0.002 -3.091346,0.002 -1.143896,2.1e-4 -2.287792,1.9e-4 -3.431688,1.9e-4 -0.987997,-1e-5 -1.975995,-2e-5 -2.963993,-2e-5 -1.063342,0.0295 -2.118407,-0.0104 -3.174046,-0.13793 -1.012369,-0.1495 -2.032203,-0.21082 -3.053977,-0.24229 -1.103105,-0.027 -2.20664,-0.0246 -3.309993,-0.0247 -1.11079,7.4e-4 -2.22158,0.002 -3.33237,0.002 -1.050577,-0.002 -2.101169,0.0113 -3.151459,-0.0154 -1.113614,-0.11537 -2.221998,-0.26032 -3.340207,-0.32474 -1.240024,-0.0559 -2.481534,-0.0597 -3.722563,-0.0635 -1.01829,-0.002 -2.036581,0 -3.05487,8.6e-4 -0.959319,8.2e-4 -1.918638,0.001 -2.877956,0.001 -0.97229,9e-5 -1.944579,7e-5 -2.916868,6e-5 -0.983661,0 -1.967322,-1e-5 -2.950983,-1e-5 -0.968276,0 -1.936552,0 -2.904829,0 -0.881687,0 -1.763374,0 -2.645062,0 -0.905701,0 -1.811403,0 -2.717104,0 -0.715417,-0.0636 -1.404277,0.1182 -2.103585,0.2345 -0.800508,0.12337 -1.611104,0.14652 -2.419425,0.16244 -0.749522,-6.7e-4 -1.500212,0.0264 -2.249469,-4.8e-4 -0.829262,0.13702 -1.65799,0.26335 -2.495712,0.33607 -0.708866,-0.009 -1.388535,0.18618 -2.081172,0.30722 -0.631855,0.0972 -1.23422,0.34147 -1.838166,0.5445 -0.601356,0.20258 -1.17066,0.48384 -1.747212,0.74557 -0.306421,0.11977 -0.574249,0.30565 -0.843233,0.49035 0,0 -2.558651,-3.1028 -2.558651,-3.1028 l 0,0 c 0.388396,-0.25689 0.755798,-0.53417 1.177467,-0.73807 0.655923,-0.22144 1.250212,-0.60233 1.901414,-0.84298 0.717136,-0.19081 1.396862,-0.49328 2.111989,-0.69477 0.751649,-0.0761 1.465425,-0.3282 2.215565,-0.37123 0.797175,-0.0354 1.594378,-0.0986 2.37413,-0.27842 0.812831,-0.17618 1.643923,-0.0811 2.472451,-0.10151 0.730394,-0.002 1.461966,-0.001 2.190648,-0.0576 0.793319,-0.0823 1.55698,-0.34609 2.353925,-0.34838 0.905702,0 1.811403,0 2.717105,0 0.881687,0 1.763374,0 2.645062,0 0.968277,0 1.936554,0 2.904832,0 0.983664,0 1.967327,0 2.950991,1e-5 0.972234,0 1.944469,2e-5 2.916703,0 0.958905,-3e-5 1.917809,-4e-5 2.876713,-6e-4 1.01979,-6.7e-4 2.039578,-0.002 3.059367,-0.003 1.26673,3.9e-4 2.533675,-0.001 3.800067,0.0324 1.14686,0.0341 2.291431,0.10209 3.424828,0.29291 0.983013,0.17088 1.991341,0.0395 2.985459,0.08 1.110764,-3.7e-4 2.221528,-8.9e-4 3.332291,-0.002 1.117781,-0.001 2.235615,-0.005 3.353353,0.007 1.083412,0.0164 2.169154,0.0278 3.245134,0.17123 0.981071,0.12665 1.9452,0.30633 2.940389,0.22632 0.987999,0 1.975997,0 2.963996,2e-5 1.143783,1e-5 2.287566,3e-5 3.431349,-5e-5 1.029937,-1.1e-4 2.059873,-2.6e-4 3.089809,-0.001 1.19093,-0.001 2.381862,-0.004 3.572793,-0.002 1.501913,0.005 3.004625,0.008 4.504806,0.0897 1.773857,0.099 3.537849,0.28925 5.308432,0.40825 1.90942,0.0993 3.80959,0.28332 5.71247,0.44813 1.81579,0.12694 3.62538,0.32398 5.44433,0.39593 1.46811,0.10473 2.93093,0.31167 4.40463,0.26999 1.42136,0 2.84272,0 4.26407,0 1.17184,0 2.34368,0 3.51552,0 1.25466,0 2.50933,0 3.764,0 1.44291,0 2.88581,0 4.32872,0 1.52247,0 3.04494,0 4.56741,0 1.35721,-1e-5 2.71442,-2e-5 4.07164,-2e-5 1.24289,3e-5 2.48577,7e-5 3.72866,3.8e-4 1.06261,5.3e-4 2.12522,0.001 3.18783,0.003 1.03557,0.001 2.0712,0.002 3.10668,-0.0141 1.03425,-0.024 2.0671,-0.09 3.09309,-0.22742 0.38219,-0.0501 0.76056,-0.13213 1.14473,-0.16367 0.72362,-0.0594 1.46082,0.0465 2.1855,0 1.11864,0 2.23727,0 3.35591,0 1.21563,0 2.43126,0 3.64689,0 1.32672,0 2.65344,-1e-5 3.98016,-1e-5 1.44248,-1e-5 2.88497,-3e-5 4.32746,8e-5 1.62308,1.6e-4 3.24617,4.2e-4 4.86925,0.001 1.74692,9.2e-4 3.49383,0.003 5.24074,-2.7e-4 1.78109,-0.006 3.56284,-0.01 5.3425,-0.0907 1.62726,-0.0748 3.24686,-0.23397 4.87035,-0.30964 1.28782,-0.002 2.57613,0.003 3.86318,-0.0491 1.23388,-0.0646 2.4607,-0.17884 3.68392,-0.35618 1.01045,-0.006 2.02211,-0.0125 3.02872,-0.11283 1.02539,-0.10318 2.03803,-0.31922 3.07016,-0.29228 0.91205,-0.0146 1.82611,-0.0298 2.73079,-0.15975 1.04974,-0.14638 2.08615,-0.31727 3.1516,-0.23592 1.01545,-0.001 2.03153,0.004 3.04611,-0.0445 1.08401,-0.0614 2.15713,-0.20016 3.23039,-0.36382 1.08108,-0.0126 2.16264,-0.044 3.23773,-0.16823 1.2605,-0.14552 2.50644,-0.36098 3.78174,-0.35672 1.38672,-0.10789 2.75455,-0.38736 4.14941,-0.39907 1.31868,-0.0921 2.61801,-0.36544 3.94529,-0.3274 1.24307,-0.055 2.47666,-0.1721 3.70715,-0.36294 0.98986,-0.0195 1.98149,-0.0449 2.96051,-0.20902 0.27665,-0.0462 0.54714,-0.14836 0.8276,-0.15198 0.16817,-0.002 -0.18189,0.28306 -0.26643,0.42844 -0.17523,0.30131 -0.29276,0.63416 -0.41404,0.95987 0.63573,0.63466 2.55447,2.52683 1.90719,1.90396 -0.76537,-0.7365 -1.51045,-1.49382 -2.2615,-2.24491 -0.61703,-0.61707 2.47639,2.45993 1.85942,1.84281 -7.4492,-7.45094 4.79046,4.79918 -2.6632,-2.64678 4.59632,4.55521 0.0671,0.0675 -0.40147,-0.40143 -0.61703,-0.61747 2.47785,2.4601 1.86021,1.84325 -7.45332,-7.4437 4.79593,4.79395 -2.66275,-2.64356 4.96287,4.90958 -0.37232,-0.36826 -0.40323,-0.39914 -0.61683,-0.6163 2.48401,2.44833 1.86151,1.83777 -7.52889,-7.38442 4.85419,4.74499 -2.69424,-2.65076 4.72931,4.64712 -0.17315,-0.17131 -0.45121,-0.43899 -0.61274,-0.58989 2.41888,2.39241 1.81743,1.79102 -7.59669,-7.59603 4.77634,4.85629 -2.85229,-2.86953 -0.0894,-0.0951 -0.36062,-0.37729 -0.2682,-0.28516 0.58656,0.58477 2.32387,2.3612 1.75078,1.76321 -0.7626,-0.79573 -1.54625,-1.57101 -2.31938,-2.35651 0.57261,0.57856 2.27594,2.3282 1.71781,1.73567 -0.75857,-0.80533 -1.56513,-1.56472 -2.31926,-2.3742 -0.5687,-0.61043 1.17515,1.18455 1.76273,1.77683 -2.45672,-2.45966 -3.44481,-3.41833 -0.52729,-0.59745 0.7183,0.6945 -0.67353,-0.61603 -0.8308,-0.72802 -0.0954,-0.0679 -0.19695,-0.12665 -0.29542,-0.18998 -0.29683,-0.43458 0.0416,-0.005 -0.47027,-0.40438 -0.0767,-0.0598 -0.11651,-0.16019 -0.1961,-0.2161 -0.29803,-0.20936 -0.66544,-0.33977 -0.94229,-0.59073 -0.31947,-0.43236 0.0269,-0.0246 -0.50143,-0.41863 -0.0873,-0.0651 -0.14299,-0.16775 -0.23321,-0.22869 -0.34798,-0.23504 -0.75918,-0.39548 -1.09312,-0.66 -0.51454,-0.48482 0.003,-0.0406 -0.70311,-0.48881 -1.04886,-0.66543 0.21344,0.10581 -0.55161,-0.49902 -0.1144,-0.0904 -0.25129,-0.14807 -0.37693,-0.22211 -0.0984,-0.0855 -0.19674,-0.17103 -0.29511,-0.25655 -0.39757,-0.20437 -0.48497,-0.22453 -0.82864,-0.49208 -0.0948,-0.0738 -0.16708,-0.17546 -0.26759,-0.24115 -0.38393,-0.25089 -0.82539,-0.43094 -1.19977,-0.70325 -0.59949,-0.51496 -1.24711,-0.93638 -1.86151,-1.42179 -0.57568,-0.42698 -1.14904,-0.80207 -1.74856,-1.19801 -0.6865,-0.99106 -4.10627,-2.01833 -3.61166,-3.26278 4.47999,4.39775 0.14255,0.138 -0.45138,-0.43589 -0.61233,-0.59167 2.43038,2.38613 1.82287,1.78952 -7.65558,-7.51819 4.83203,4.79209 -2.85584,-2.83822 -0.0887,-0.0885 -0.35548,-0.35322 -0.266,-0.26553 0.59652,0.58462 2.38849,2.33597 1.78713,1.75633 -7.79656,-7.51508 4.81906,4.70843 -2.93217,-2.85207 -0.60604,-0.59113 1.21744,1.17675 1.82616,1.76513 -0.78444,-0.75271 -1.55346,-1.52182 -2.35332,-2.25812 -0.60958,-0.56114 2.36935,2.3172 1.78232,1.7325 -0.78124,-0.77814 -1.57707,-1.5415 -2.365,-2.31287 -0.0953,-0.0933 -0.37978,-0.37431 -0.28459,-0.28099 0.59196,0.58027 1.17226,1.17262 1.77485,1.74183 0.0811,0.0766 -0.13884,-0.17467 -0.20825,-0.26201 -1.22169,-0.85039 0.40042,0.31652 -0.64904,-0.55406 -0.13276,-0.11013 -0.29346,-0.18283 -0.42838,-0.2903 -0.33124,-0.26386 -0.597,-0.61056 -0.94128,-0.86093 -1.20518,-0.93862 0.32553,0.2718 -2.59365,-2.49205 -0.61818,-0.58529 2.38678,2.42778 1.81104,1.8007 -0.73096,-0.79616 -1.51773,-1.53922 -2.27709,-2.30833 -0.0696,-0.0705 -0.28051,-0.28026 -0.20994,-0.21064 0.62152,0.61314 1.24186,1.22747 1.86278,1.8412 -0.75593,-0.74531 -1.52229,-1.48019 -2.26778,-2.23594 -0.61261,-0.62103 2.50701,2.42673 1.86907,1.83174 -0.77666,-0.72436 -1.53831,-1.46509 -2.28534,-2.21997 -0.61174,-0.61818 1.25292,1.2065 1.87938,1.80974 -0.0978,-0.0664 -0.20906,-0.1163 -0.29343,-0.19908 -0.0626,-0.0615 -0.092,-0.14945 -0.13796,-0.22418 -1.10624,-0.74135 0.33295,0.27229 -0.49001,-0.44594 -0.10357,-0.0904 -0.2408,-0.13539 -0.34749,-0.22207 -0.0899,-0.0731 -0.14583,-0.18311 -0.23786,-0.25354 -1.34292,-1.02762 0.41588,0.48 -0.69591,-0.49361 -0.20071,-0.15824 -0.42952,-0.28168 -0.61644,-0.45599 -0.0764,-0.0713 -0.11033,-0.18076 -0.18751,-0.25119 -0.26433,-0.24121 -0.58096,-0.39929 -0.75924,-0.73538 -1.57483,-0.95904 0.68635,0.45463 -0.62801,-0.47681 -0.44797,-0.31746 -0.39923,-0.12992 -0.77757,-0.50201 -0.0714,-0.0703 -0.10021,-0.17692 -0.17288,-0.24591 -0.1003,-0.0952 -0.22576,-0.1598 -0.33863,-0.2397 -0.4923,-0.59541 0.0867,0.056 -0.61085,-0.54615 -0.14566,-0.12574 -0.4066,-0.47006 -0.55796,-0.59366 -0.1332,-0.10878 -0.29406,-0.17986 -0.42953,-0.2858 -0.12197,-0.0954 -0.22686,-0.21079 -0.34029,-0.31619 -0.62501,-0.55654 -1.28254,-1.06239 -1.82311,-1.69578 -1.25908,-0.88167 0.44025,0.34359 -0.67401,-0.57023 -0.13921,-0.11417 -0.30517,-0.19235 -0.44666,-0.30368 -0.37365,-0.29397 -0.68434,-0.67014 -1.08159,-0.93733 -0.25092,-0.18052 -0.52367,-0.32977 -0.77141,-0.51462 -0.38814,-0.28959 -0.68827,-0.70319 -1.16014,-0.87867 -0.38192,-0.3996 0.0147,-0.034 -0.59217,-0.39442 -0.4151,-0.24653 -0.59217,-0.74974 -1.09798,-0.88992 -0.37778,-0.37146 -0.887,-0.55229 -1.30986,-0.87394 -0.0929,-0.0707 -0.1538,-0.17879 -0.24935,-0.24581 -0.1298,-0.091 -0.27988,-0.14902 -0.41981,-0.22353 -0.10844,-0.0814 -0.21688,-0.16279 -0.32532,-0.24419 -0.0465,-0.0739 -0.0759,-0.16184 -0.13941,-0.22168 -0.0915,-0.0861 -0.22087,-0.12363 -0.31535,-0.20646 -0.0772,-0.0677 -0.11488,-0.17365 -0.19353,-0.23966 -1.19662,-1.00426 0.38269,0.50262 -0.6433,-0.5012 -1.26934,-0.77656 -2.08159,-1.8739 -3.17439,-2.98055 -0.11117,-0.11258 -0.44951,-0.44545 -0.33562,-0.33563 0.57376,0.55323 1.151,1.10299 1.71525,1.6659 0.1246,0.1243 -0.26382,-0.23302 -0.39573,-0.34952 -1.25777,-1.06783 -0.31112,-0.24473 -2.78903,-2.7402 -0.11043,-0.11121 -0.44113,-0.44537 -0.32885,-0.33603 0.58908,0.57367 2.3553,2.2956 1.75933,1.72908 -0.22731,-0.21608 -5.14284,-5.00931 -0.66802,-0.66257 -1.26924,-1.05773 -0.37243,-0.28977 -2.81998,-2.73971 -0.1157,-0.11581 -0.45668,-0.46919 -0.34017,-0.3542 0.57822,0.57066 2.28308,2.31208 1.72538,1.72134 -7.05985,-7.47805 -0.92613,-0.8398 -2.69929,-2.76114 -0.76533,-0.76484 -1.45005,-1.6123 -2.19211,-2.40012 -0.76901,-0.78771 -1.50282,-1.60849 -2.27711,-2.39074 0.59085,0.57493 2.35952,2.3037 1.77254,1.72481 -0.77352,-0.76285 -1.53123,-1.54271 -2.33217,-2.27673 -0.61249,-0.56132 2.32225,2.37579 1.76646,1.75829 -0.90529,-1.00582 -1.93885,-1.87844 -2.79124,-2.92671 -0.63265,-0.57638 -1.09637,-1.3297 -1.69512,-1.94346 -0.80959,-1.05401 -1.60031,-2.12222 -2.50841,-3.09689 -1.01513,-1.17262 -2.02938,-2.34546 -3.02569,-3.53437 -1.10076,-1.4283 -2.14626,-2.89953 -3.31729,-4.27297 -1.13009,-1.4969 -2.22943,-3.01761 -3.45059,-4.44334 -1.14937,-1.4786 -2.22891,-3.00988 -3.32752,-4.526264 -1.03903,-1.443085 -2.17609,-2.810115 -3.24958,-4.227442 -1.14142,-1.486517 -2.30507,-2.95676 -3.356,-4.510369 -1.18097,-1.599489 -2.3478,-3.210263 -3.57927,-4.771431 -1.25394,-1.653385 -2.48791,-3.321673 -3.66723,-5.029421 -1.21839,-1.748502 -2.40008,-3.52247 -3.62922,-5.2637 -1.13348,-1.715292 -2.23027,-3.454791 -3.39085,-5.15237 -1.19358,-1.787768 -2.27251,-3.644582 -3.35236,-5.502728 -1.16144,-2.001874 -2.35076,-3.987606 -3.48412,-6.005635 -1.20694,-2.162373 -2.31258,-4.376278 -3.37545,-6.612892 -1.0849,-2.202095 -2.12292,-4.424833 -3.11611,-6.669906 -0.93548,-2.140819 -1.84617,-4.293299 -2.70989,-6.464064 -0.72391,-1.961621 -1.34713,-3.956047 -2.01397,-5.937344 -0.52746,-1.526008 -1.04806,-3.056612 -1.39658,-4.635541 -0.23381,-0.916477 -0.44778,-1.835572 -0.67899,-2.748735 -0.0766,-0.149872 -0.12039,-0.27438 -0.24659,-0.388718 -0.0363,-0.03292 -0.16614,-0.103468 -0.12769,-0.07304 0.67569,0.534681 2.16933,2.952013 3.07777,1.497224 -0.36044,0.369076 -0.62482,0.826727 -0.93993,1.232849 -0.35352,0.490235 -0.79136,0.90097 -1.14793,1.388478 -0.31036,0.413364 -0.53035,0.886446 -0.83464,1.304337 -0.26887,0.514268 -0.5004,1.049086 -0.69798,1.594621 -0.24448,0.613891 -0.42649,1.251948 -0.7085,1.851792 -0.26978,0.70759 -0.57976,1.399164 -0.95199,2.05936 -0.36765,0.700661 -0.83377,1.333726 -1.2596,1.999031 -0.40865,0.594638 -0.80517,1.196596 -1.21947,1.787194 -0.35958,0.497986 -0.71074,1.005612 -1.03918,1.524275 -0.36532,0.615438 -0.74869,1.217856 -1.1326,1.822033 -0.42318,0.675492 -0.80677,1.374933 -1.25673,2.033555 -0.45743,0.701786 -0.875,1.425629 -1.27644,2.160913 -0.49168,0.753656 -0.98803,1.503415 -1.48732,2.251622 -0.46769,0.772445 -0.88533,1.572627 -1.34884,2.347693 -0.52053,0.906888 -1.01126,1.828248 -1.46194,2.772383 -0.56754,1.07861 -1.17235,2.137624 -1.81235,3.174928 -0.79457,1.324903 -1.64168,2.616715 -2.45236,3.931569 -1.00133,1.659262 -2.00627,3.318304 -3.083682,4.929504 -1.390405,2.072351 -2.671044,4.206593 -3.937021,6.356763 -1.611046,2.682303 -3.090799,5.437233 -4.618665,8.167143 -1.857488,3.408911 -3.723034,6.810749 -5.506905,10.259277 -2.320784,4.172501 -4.467331,8.438837 -6.845383,12.579647 -2.68448,4.63174 -5.423844,9.23083 -8.263323,13.76959 -3.03892,4.6932 -6.162396,9.32689 -9.406217,13.8814 -3.096126,4.38384 -6.210846,8.75532 -9.410069,13.06471 -2.979451,3.9833 -5.941889,7.98029 -8.980754,11.91845 -2.486705,3.28631 -5.01607,6.53893 -7.608055,9.74285 -2.059361,2.6201 -4.067015,5.27947 -6.10562,7.91557 -1.471888,1.88917 -2.895269,3.81433 -4.250008,5.78924 -0.898127,1.36778 -1.836067,2.71168 -2.692339,4.10544 0,0 -3.169921,-2.475 -3.169921,-2.475 z"
       inkscape:connector-curvature="0"
       transform="translate(0,796.36218)" />
    <path
       style="fill:#4d4d4d;fill-opacity:1;stroke:none"
       d="m 121.44512,30.414344 c -2.42135,4.746375 -4.87924,9.543308 -7.96798,13.937683 C 107.47528,54.142769 101.8594,64.163973 95.688912,73.854779 85.035465,92.375665 75.676448,111.7021 63.243671,129.14693 52.13423,145.43639 39.793595,160.92204 27.840196,176.62805 c 8.437986,0.39767 17.327412,0.0626 25.939894,0.21248 20.826841,0.13724 41.658459,0.6218 62.4494,1.82351 28.09479,0.42076 56.21345,0.23895 84.28955,-0.90898 12.59155,-0.96589 25.26144,-1.58038 37.78143,-3.08758 0.11696,-1.69942 -2.26584,-2.75697 -3.25812,-3.95743 -6.27471,-5.33791 -13.6141,-9.36959 -19.21006,-15.48436 -7.31997,-6.99376 -15.12988,-13.43751 -23.11521,-19.64405 -17.26522,-16.02962 -30.7713,-35.53013 -44.71621,-54.39341 -11.07627,-15.215319 -20.16452,-32.115019 -26.01533,-50.019819 -0.16167,-0.163499 -0.19156,-0.829994 -0.54042,-0.754067 z"
       id="path2991"
       inkscape:connector-curvature="0"
       transform="translate(0,796.36218)" />
  </g>
</svg>
