<?xml version="1.0" encoding="UTF-8" standalone="no"?>
<!-- Created with Inkscape (http://www.inkscape.org/) -->

<svg
   xmlns:dc="http://purl.org/dc/elements/1.1/"
   xmlns:cc="http://creativecommons.org/ns#"
   xmlns:rdf="http://www.w3.org/1999/02/22-rdf-syntax-ns#"
   xmlns:svg="http://www.w3.org/2000/svg"
   xmlns="http://www.w3.org/2000/svg"
   xmlns:sodipodi="http://sodipodi.sourceforge.net/DTD/sodipodi-0.dtd"
   xmlns:inkscape="http://www.inkscape.org/namespaces/inkscape"
   width="326"
   height="256"
   id="svg3017"
   version="1.1"
   inkscape:version="0.48.4 r9939"
   sodipodi:docname="ledge4Hanging2.svg">
  <defs
     id="defs3019" />
  <sodipodi:namedview
     id="base"
     pagecolor="#ffffff"
     bordercolor="#666666"
     borderopacity="1.0"
     inkscape:pageopacity="0.0"
     inkscape:pageshadow="2"
     inkscape:zoom="0.35"
     inkscape:cx="375"
     inkscape:cy="520"
     inkscape:document-units="px"
     inkscape:current-layer="layer1"
     showgrid="false"
     inkscape:window-width="898"
     inkscape:window-height="756"
     inkscape:window-x="859"
     inkscape:window-y="160"
     inkscape:window-maximized="0" />
  <metadata
     id="metadata3022">
    <rdf:RDF>
      <cc:Work
         rdf:about="">
        <dc:format>image/svg+xml</dc:format>
        <dc:type
           rdf:resource="http://purl.org/dc/dcmitype/StillImage" />
        <dc:title />
      </cc:Work>
    </rdf:RDF>
  </metadata>
  <g
     inkscape:label="Layer 1"
     inkscape:groupmode="layer"
     id="layer1"
     transform="translate(0,-796.36218)">
    <path
       style="fill:#000000;fill-opacity:1;stroke:none"
       id="path3067"
       d="m -2.68577,981.55905 c 0.96612,-0.047 1.92089999,0.057 2.87662999,0.1805 0.82908001,0.1002 1.63126001,0.3324 2.45744001,0.4534 0.72049,0.2111 1.46768,0.2931 2.1974403,0.4556 0.71478,0.191 1.44736,0.27439 2.16562,0.44879 0.71743,0.1728 1.45091,0.2239 2.17159,0.3801 0.72917,0.1202 1.4491197,0.2627 2.1705197,0.4235 0.69453,0.1728 1.4154,0.1347 2.11682,0.2455 0.59233,0.1575 1.19452,0.2449 1.80464,0.2906 1.09051,0.012 2.15799,0.2598 3.23255,0.4239 1.04472,0.19 2.09615,0.3835 3.12362,0.6546 0.71729,0.1815 1.43088,0.3692 2.14672,0.5571 0.5729,0.1095 1.1701,0.2431 1.75515,0.1871 0.53446,-0.064 1.02674,-0.2967 1.51857,-0.5039 0.5638,-0.1952 1.10761,-0.4441 1.62357,-0.7435 0.54928,-0.3295 1.08351,-0.6808 1.61236,-1.0419 0.55434,-0.4348 1.13428,-0.8416 1.6576,-1.31429 0.40306,-0.3565 0.82011,-0.7073 1.18116,-1.1076 0.45467,-0.3864 0.85041,-0.8315 1.27873,-1.245 0.37339,-0.4185 0.68915,-0.8815 1.0173,-1.3362 0.33778,-0.5783 0.77067,-1.0961 1.13327,-1.659 0.37574,-0.53831 0.85345,-1.00019 1.19856,-1.55969 0.35015,-0.51196 0.77834,-0.95854 1.17038,-1.43611 0.4355,-0.50472 0.8145,-1.05219 1.25997,-1.54822 0.2902,-0.44484 0.61717,-0.86439 0.92404,-1.29948 0.379,-0.37101 0.68202,-0.79109 1.00172,-1.20582 0.25866,-0.47616 0.63254,-0.88605 0.84651,-1.38514 0.32884,-0.54348 0.66863,-1.07685 1.00265,-1.61647 0.3887,-0.48408 0.75586,-0.98526 1.10186,-1.50004 0.39638,-0.46151 0.75613,-0.95393 1.09535,-1.45809 0.38775,-0.56991 0.74867,-1.15636 1.20648,-1.67465 0.40511,-0.46938 0.83877,-0.91772 1.29246,-1.3408 0.36796,-0.36846 0.72906,-0.74483 1.10988,-1.10046 0.44688,-0.39879 0.84625,-0.84429 1.29113,-1.24639 0.41268,-0.42008 0.80844,-0.85709 1.23282,-1.2656 0.36709,-0.3817 0.73271,-0.76662 1.11886,-1.12963 0.54112,-0.48398 1.09573,-0.95146 1.66252,-1.40487 0.43667,-0.36545 0.8372,-0.76894 1.25703,-1.15251 0.34252,-0.35191 0.69914,-0.68576 1.01995,-1.05863 0.51148,-0.57972 1.05455,-1.13664 1.62445,-1.65951 0.45204,-0.47296 0.94453,-0.89092 1.47035,-1.27778 0.44285,-0.28611 0.83016,-0.64374 1.23839,-0.97498 0.57374,-0.36546 1.04172,-0.86123 1.51941,-1.33907 0.70392,-0.69762 1.37617,-1.42745 2.11522,-2.08823 0.52789,-0.47498 1.03977,-0.9674 1.5683,-1.44134 0.41243,-0.32191 0.87265,-0.5845 1.25622,-0.94239 0.43648,-0.40102 0.95165,-0.70107 1.40211,-1.08401 0.45714,-0.3606 0.85143,-0.78403 1.32319,-1.12644 0.45366,-0.31737 0.88265,-0.66586 1.34315,-0.97375 0.64934,-0.43827 1.31383,-0.85064 1.99086,-1.24468 0.67361,-0.36067 1.34702,-0.71747 1.99801,-1.11795 0.65399,-0.3932 1.33694,-0.73121 1.96461,-1.16647 0.6153,-0.43708 1.23634,-0.86843 1.84592,-1.31365 0.50786,-0.33683 0.9348,-0.77108 1.43285,-1.11997 0.41306,-0.31974 0.83829,-0.63164 1.21615,-0.9937 0.47249,-0.43476 0.947,-0.86513 1.45884,-1.25455 0.54867,-0.40539 1.04166,-0.87758 1.59155,-1.2799 0.50562,-0.39096 1.04481,-0.73621 1.55293,-1.1235 0.58663,-0.42471 1.16395,-0.86108 1.74438,-1.29398 0.47786,-0.42673 1.00275,-0.79465 1.52157,-1.1688 0.39306,-0.37288 0.88332,-0.61449 1.30944,-0.94301 0.49239,-0.3693 1.00094,-0.71584 1.50501,-1.06911 0.57513,-0.37689 1.138724,-0.76845 1.725654,-1.12738 0.56636,-0.29094 1.07725,-0.66668 1.58752,-1.04352 0.61438,-0.39958 1.22167,-0.80829 1.8216,-1.22906 0.5198,-0.40294 1.03049,-0.81483 1.567476,-1.19732 0.62494,-0.43102 1.19151,-0.93652 1.79506,-1.39638 0.54957,-0.39055 1.12811,-0.75228 1.625,-1.21099 0.55682,-0.4697 1.10899,-0.94213 1.69055,-1.38113 0.53864,-0.37613 1.10407,-0.72581 1.58939,-1.17167 0.44028,-0.36148 0.9191,-0.67144 1.37333,-1.0156 0.48822,-0.38916 1.01278,-0.7332 1.48181,-1.14601 0.39761,-0.34244 0.80527,-0.68395 1.15813,-1.07377 0.35906,-0.36499 0.74827,-0.70417 1.08802,-1.08773 0.35868,-0.36888 0.75029,-0.70875 1.09223,-1.09359 0.48118,-0.44253 0.99723,-0.84593 1.507,-1.25549 0.44424,-0.36954 0.85488,-0.77491 1.28296,-1.16208 0.36777,-0.36285 0.72362,-0.73817 1.10057,-1.09187 0.44643,-0.40028 0.84599,-0.84642 1.29124,-1.24913 0.45914,-0.37179 0.95443,-0.70423 1.38027,-1.11532 0.56648,-0.46286 1.09972,-0.96437 1.66611,-1.42684 0.4813,-0.42045 0.97966,-0.81866 1.413,-1.28978 0.40724,-0.49947 0.83336,-0.98609 1.23206,-1.4931 0.34667,-0.50227 0.73649,-0.97138 1.10322,-1.45911 0.35082,-0.41216 0.77319,-0.76496 1.0612,-1.22703 0.34907,-0.49342 0.76786,-0.92801 1.15007,-1.3939 0.3387,-0.47652 0.7163,-0.92357 1.06926,-1.39005 0.39956,-0.41205 0.74392,-0.87442 1.06672,-1.34752 0.34867,-0.45123 0.7813,-0.8354 1.08188,-1.32259 0.38766,-0.44398 0.70013,-0.93668 1.04407,-1.40938 0.4193,-0.45277 0.87586,-0.867 1.35468,-1.25551 0.56609,-0.38963 1.18065,-0.70872 1.78383,-1.0383 0.76306,-0.41232 1.59452,-0.66798 2.39964,-0.98214 0.90681,-0.35754 1.83068,-0.67439 2.75422,-0.9867 0.88771,-0.28207 1.78092,-0.52867 2.69195,-0.72167 0.81734,-0.19384 1.63648,-0.37486 2.45281,-0.57269 0.86678,-0.15682 1.71703,-0.38357 2.58645,-0.526 0.81578,-0.0751 1.61985,-0.23232 2.42567,-0.37524 0.72971,-0.21099 1.48457,-0.30613 2.22215,-0.47921 0.67405,-0.21069 1.38713,-0.22468 2.07059,-0.37904 0.64307,-0.20278 1.31846,-0.24138 1.97421,-0.37808 0.72103,-0.15426 1.44737,-0.26367 2.16615,-0.4284 0.78427,-0.19775 1.59526,-0.21281 2.39085,-0.3343 0.81811,-0.15369 1.64442,-0.24517 2.47463,-0.29666 0.7071,-0.0163 1.40327,-0.0243 2.10126,-0.14093 0.72607,-0.13619 1.46196,-0.19643 2.19861,-0.23563 0.74788,-0.13636 1.49601,-0.25753 2.25343,-0.32586 0.74587,-0.0572 1.49432,-0.0616 2.24195,-0.0654 0.70837,-0.0217 1.40649,-0.18135 2.11103,-0.26293 0.72255,-0.0198 1.42666,-0.1389 2.13666,-0.26184 0.70803,-0.11306 1.42476,-0.17652 2.14182,-0.18258 0.62241,-0.11983 1.24195,-0.24171 1.87266,-0.31129 0.65003,-0.17452 1.32782,-0.22282 1.97766,-0.39049 0.59898,-0.21962 1.24284,-0.23831 1.85575,-0.38728 0.58916,-0.20934 1.22088,-0.2216 1.82219,-0.36562 0.63205,-0.14796 1.25629,-0.31983 1.88084,-0.4968 0.71678,-0.2808 1.47785,-0.39603 2.22035,-0.58114 0.74879,-0.15552 1.48588,-0.35846 2.23146,-0.52747 0.66701,-0.0825 1.31418,-0.23058 1.96765,-0.3818 0.69517,-0.0971 1.37922,-0.2401 2.06793,-0.37454 0.70969,-0.16366 1.41419,-0.33821 2.13295,-0.46139 0.66916,-0.20177 1.37167,-0.25719 2.04503,-0.43333 0.60036,-0.12682 1.17197,-0.34002 1.75856,-0.51398 0.61652,-0.11854 1.20519,-0.33169 1.81956,-0.46149 0.62677,-0.0541 1.23103,-0.17785 1.84383,-0.31325 0.608,-0.16417 1.23294,-0.2831 1.83213,-0.47846 0.66332,-0.24843 1.36067,-0.35629 2.06229,-0.42074 0.74499,-0.15946 1.49464,-0.27936 2.25329,-0.34811 0.62541,-0.0673 1.23463,-0.23724 1.85963,-0.32407 0.73098,-0.0865 1.46792,-0.0951 2.20303,-0.10258 0.73079,-0.004 1.4616,-0.002 2.1924,-10e-4 0.75287,10e-4 1.50573,10e-4 2.25859,0.002 1.73634,0.16567 2.95487,1.5402 3.76814,3.07529 0.25245,0.4656 0.3749,1.00603 0.57884,1.48484 0.0816,0.19167 0.21211,0.35986 0.29508,0.55095 0.34276,0.64569 0.0766,1.46934 0.37362,2.10425 0.19974,0.3942 0.11638,0.8628 0.22604,1.27254 0.0411,0.15363 0.14711,0.28312 0.20065,0.43288 0.23121,0.64865 0.0709,1.37095 0.29052,2.01165 0.13937,0.34298 0.0955,0.73597 0.19345,1.08521 0.0224,0.08 0.0855,0.14304 0.11911,0.21902 0.10168,0.22956 0.12079,0.35783 0.18159,0.60522 0.0844,0.71088 0.32286,1.37011 0.42508,2.08129 0.3003,0.70702 0.37415,1.47928 0.42943,2.23761 0.0417,0.75933 0.0376,1.52016 0.0367,2.28034 -0.002,0.80378 -0.004,1.60756 -0.004,2.41134 -7.7e-4,0.77531 -8.4e-4,1.55062 -8.8e-4,2.32592 -0.0781,0.6398 0.18406,1.20046 0.27384,1.82478 0.0115,0.11675 0.003,0.23721 0.0346,0.35027 0.0421,0.15192 0.15905,0.27571 0.20342,0.427 0.0967,0.32972 0.12802,0.67225 0.16348,1.01226 0.27434,0.30634 0.20618,0.73828 0.32971,1.09521 0.0515,0.14885 0.16561,0.26979 0.22386,0.41613 0.14777,0.32144 0.0833,0.70054 0.17571,1.03037 0.0191,0.0681 0.0828,0.11565 0.1128,0.17971 0.091,0.19452 0.11718,0.36643 0.16502,0.57586 0.0849,0.22708 0.0268,0.4792 0.0895,0.70901 0.0186,0.0681 0.0816,0.11618 0.11126,0.18025 0.133,0.28708 0.16908,0.60978 0.216,0.91829 0.28609,0.29579 0.25352,0.71607 0.35937,1.08216 0.0572,0.19767 0.1555,0.3817 0.21455,0.57881 0.0268,0.12416 0.0352,0.25381 0.0805,0.37249 0.0296,0.0775 0.10135,0.13232 0.14012,0.20565 0.20924,0.39588 0.0391,0.17981 0.21203,0.62131 0.0351,0.0896 0.0921,0.16905 0.1381,0.25358 0.0399,0.11255 0.0799,0.22511 0.11979,0.33766 0.1559,0.61337 0.3243,1.30795 0.62374,1.86948 0.26346,0.60426 0.35672,1.44215 0.7118,1.98413 0.29108,0.53284 0.39573,1.36289 0.73326,1.83732 0.14766,0.18327 0.12518,0.43158 0.22359,0.63231 0.0322,0.0657 0.10947,0.0995 0.14909,0.16101 0.16749,0.25993 0.20651,0.56827 0.35912,0.83879 0.0399,0.11154 0.0614,0.23148 0.11965,0.33464 0.04,0.0708 0.12273,0.1092 0.1688,0.17624 0.19243,0.28 0.12281,0.30766 0.26182,0.62806 0.50844,1.17193 -0.24671,-0.7959 0.28073,0.61678 0.0556,0.0959 0.11129,0.19179 0.16693,0.28768 0.0492,0.12219 0.0818,0.25243 0.14751,0.36656 0.0476,0.0826 0.13448,0.13667 0.18785,0.21568 0.19738,0.29216 0.27839,0.63925 0.45003,0.94671 0.0454,0.11924 0.0734,0.24663 0.13609,0.35772 0.0436,0.0772 0.12821,0.12451 0.17781,0.19808 0.17538,0.26014 0.44013,0.95678 0.55775,1.27159 0.32956,0.68367 0.70991,1.33589 1.12577,1.9727 0.35514,0.74319 0.58559,1.53341 1.06157,2.21268 0.34131,0.72582 0.82148,1.34842 1.19099,2.05644 0.25562,0.73488 0.79952,1.31208 1.17307,1.98362 0.43279,0.70553 0.84832,1.41966 1.3044,2.11221 0.3696,0.75716 0.75417,1.48788 1.29215,2.13996 0.2892,0.35289 0.36496,0.82068 0.63316,1.18533 0.0649,0.0882 0.17224,0.14048 0.23327,0.23143 0.73094,1.08947 -0.26256,-0.13555 0.42219,0.67818 0.26971,0.64864 0.712,1.18578 0.99873,1.8257 0.30463,0.62557 0.75638,1.14565 1.0578,1.77586 0.50165,0.58666 0.74449,1.36179 1.24893,1.93604 0.43581,0.6233 0.73561,1.32174 1.12662,1.97084 0.34734,0.72702 0.76829,1.43491 1.2601,2.07621 0.39985,0.69809 0.81145,1.37321 1.28262,2.0234 0.36652,0.71583 0.86521,1.34219 1.21867,2.06762 0.42931,0.70284 0.71377,1.47535 1.19758,2.1456 0.4644,0.67135 0.7042,1.50969 1.2272,2.13371 0.278,0.4142 0.3803,0.92248 0.6222,1.35273 0.044,0.0783 0.1191,0.1345 0.1787,0.20174 0.051,0.098 0.1021,0.19605 0.1531,0.29407 0.04,0.11805 0.062,0.24423 0.1206,0.35417 0.037,0.0689 0.1174,0.1056 0.1605,0.17071 0.25,0.37732 0.4295,0.77369 0.563,1.20748 0.3102,0.64787 0.7879,1.16555 1.052,1.8337 0.1769,0.18453 0.1909,0.44891 0.3116,0.66021 0.045,0.0792 0.1308,0.12888 0.1818,0.20453 0.1929,0.28604 0.2651,0.62821 0.4321,0.92962 0.1465,0.22568 0.1347,0.505 0.236,0.74501 0.034,0.0809 0.1097,0.13812 0.1518,0.21509 0.1596,0.29124 0.2091,0.60949 0.3663,0.90326 0.1374,0.2208 0.1207,0.4917 0.2171,0.72475 0.033,0.079 0.099,0.13957 0.1484,0.20935 0.042,0.0966 0.09,0.19045 0.1249,0.28965 0.1627,0.46279 -0.011,0.22603 0.2464,0.50493 0.2142,0.27792 0.1746,0.65012 0.2896,0.95818 0.025,0.0661 0.096,0.10554 0.1294,0.16747 0.1029,0.18842 0.1363,0.38411 0.188,0.59001 0.3467,0.25941 0.2795,0.71325 0.4131,1.07281 0.024,0.0647 0.095,0.1021 0.1282,0.16258 0.045,0.0824 0.07,0.17459 0.1053,0.26188 0.1109,0.21142 0.063,0.46189 0.1398,0.68019 0.023,0.0649 0.092,0.10387 0.1249,0.16455 0.1419,0.26453 0.1643,0.54908 0.3117,0.8139 0.2332,0.71772 0.4984,1.40486 0.6311,2.15263 0.2903,0.35359 0.2474,0.8283 0.3865,1.23141 0.054,0.15663 0.1686,0.28686 0.2295,0.44095 0.2043,0.6377 0.4589,1.25965 0.6723,1.89888 0.032,0.13159 0.047,0.26879 0.097,0.39479 0.033,0.0842 0.099,0.1515 0.1492,0.22726 0.042,0.0991 0.091,0.19559 0.1263,0.29719 0.1118,0.31962 0.1046,0.62602 0.3013,0.90489 0.1905,0.28262 0.143,0.64852 0.2504,0.95262 0.023,0.065 0.092,0.1052 0.1251,0.1664 0.1,0.1865 0.1317,0.376 0.1822,0.5795 0.019,0.1175 0.018,0.2401 0.057,0.3523 0.023,0.064 0.092,0.1027 0.1245,0.1629 0.1732,0.3209 0.044,0.2137 0.1816,0.5772 0.031,0.083 0.087,0.1548 0.1298,0.2321 0.038,0.1087 0.075,0.2174 0.1125,0.3261 0.1164,0.694 0.5654,1.2235 0.7838,1.8761 0.2432,0.2897 0.2478,0.68299 0.388,1.01279 0.078,0.1832 0.3262,0.5743 0.4449,0.7454 0.1573,0.2101 0.152,0.483 0.2596,0.7113 0.4435,0.9415 -0.1459,-0.6805 0.2947,0.4972 0.1779,0.4755 -0.01,0.2258 0.2568,0.5123 0.1531,0.17 0.127,0.412 0.2251,0.6027 0.031,0.061 0.1096,0.086 0.1479,0.1433 0.1707,0.2539 0.2052,0.5669 0.356,0.8348 0.1367,0.2168 0.1183,0.4842 0.214,0.7133 0.032,0.077 0.1072,0.1298 0.1478,0.2031 0.1713,0.3093 0.2276,0.6627 0.2921,1.0046 0.026,0.2651 0.1026,0.6141 0.2574,0.8444 0.066,0.098 0.4242,0.1658 0.3451,0.078 -0.5531,-0.612 -1.1818,-1.1511 -1.7727,-1.7267 0.2254,0.3446 1.0923,0.5428 1.4981,0.6323 0.6823,0.1228 1.3777,0.1311 2.0688,0.1408 0.7427,0.01 1.4855,0 2.2282,4e-4 1.0299,0 2.0599,0 3.0899,0 0.9797,-2e-4 1.9594,-2e-4 2.9392,-2e-4 0.7724,10e-5 1.5449,10e-5 2.3174,10e-5 0.8009,0 1.6019,0 2.4028,0 0.973,0.02 1.9367,-0.1441 2.9036,-0.2335 0.9797,-0.089 1.9634,-0.1126 2.9464,-0.1269 0.8455,-0.01 1.6911,-0.01 2.5367,-0.01 0.6848,-0.035 1.3812,0.063 2.0616,-0.028 0.6819,-0.1547 1.373,-0.2433 2.0697,-0.2932 0.7327,-0.042 1.4669,-0.042 2.2005,-0.044 0.6067,-0.01 1.2027,-0.1782 1.8052,-0.2585 0.6392,-0.109 1.2965,-0.032 1.9341,-0.1293 0.6827,-0.1638 1.3772,-0.2495 2.0764,-0.2986 0.5553,-0.031 1.0913,-0.2059 1.6437,-0.2775 0.5539,-0.149 1.1021,-0.2992 1.6425,-0.4902 0.6079,-0.1468 1.2038,-0.3283 1.808,-0.4903 0.6473,-0.1846 1.2923,-0.3632 1.9573,-0.4745 0.4977,-0.1629 1.0224,-0.2346 1.5068,-0.4356 0.093,-0.1233 -0.058,-0.056 -0.101,-0.088 0,0 -0.3042,-0.3851 -0.3088,-0.3934 -0.4019,-0.1569 0.088,0.071 -0.3117,-0.2826 -0.049,-0.044 -0.1226,-0.049 -0.1839,-0.073 -0.055,-0.079 -0.094,-0.1718 -0.165,-0.236 -0.5287,-0.4754 0.2062,0.4844 -0.3655,-0.3339 4.364,4.4386 -0.2564,-0.2246 -0.3703,-0.3508 -0.1377,-0.1528 -0.1678,-0.5785 -0.2386,-0.7478 -0.029,-0.069 -0.093,-0.1157 -0.1402,-0.1736 -0.039,-0.094 -0.077,-0.18819 -0.1158,-0.28219 -0.1831,-0.6564 -0.2925,-1.351 -0.573,-1.9755 -0.3592,-0.6802 -0.1569,-1.5311 -0.4617,-2.2074 -0.1692,-0.6951 -0.3554,-1.3857 -0.4868,-2.09083 -0.1027,-0.94944 -0.3127,-1.87567 -0.4259,-2.82578 -0.015,-0.16081 -0.017,-0.32324 -0.044,-0.48241 -0.045,-0.26313 -0.1403,-0.51543 -0.1945,-0.77679 -0.084,-0.40646 -0.1284,-0.8027 -0.2436,-1.20234 -0.2242,-0.8632 -0.3658,-1.75601 -0.6599,-2.5992 -0.2793,-0.86015 -0.414,-1.76986 -0.731,-2.61585 -0.2641,-0.93348 -0.4148,-1.90281 -0.7252,-2.82187 -0.2791,-0.87088 -0.414,-1.79127 -0.7336,-2.64722 -0.2246,-0.85201 -0.4478,-1.70728 -0.6117,-2.57404 -0.022,-0.15132 -0.032,-0.30486 -0.066,-0.45397 -0.2789,-1.22835 0.049,0.6758 -0.2155,-0.81036 -0.091,-0.50953 -0.1258,-1.00717 -0.2562,-1.50912 -0.1407,-0.95777 -0.3971,-1.89025 -0.5515,-2.84467 -0.2485,-0.89992 -0.5122,-1.79786 -0.7047,-2.71214 -0.3041,-0.91261 -0.5256,-1.85179 -0.8433,-2.75832 -0.3782,-1.06748 -0.5637,-2.19281 -0.9756,-3.24829 -0.3469,-1.04078 -0.6981,-2.08063 -0.9724,-3.14396 -0.2028,-0.94968 -0.55,-1.85936 -0.8756,-2.77261 -0.3012,-0.90797 -0.4859,-1.86508 -0.8519,-2.7494 -0.2432,-0.87839 -0.4435,-1.77058 -0.7294,-2.64044 -0.3643,-0.94825 -0.4879,-1.96049 -0.7611,-2.93069 -0.037,-0.17957 -0.063,-0.36147 -0.1102,-0.53871 -0.042,-0.1593 -0.1036,-0.31277 -0.1554,-0.46915 -0.047,-0.16341 -0.097,-0.3258 -0.1403,-0.49022 -0.1179,-0.45015 -0.1801,-0.89482 -0.335,-1.33407 -0.2321,-0.85178 -0.4811,-1.69225 -0.6216,-2.56585 -0.108,-0.806 -0.3631,-1.58708 -0.5641,-2.3755 -0.031,-0.15104 -0.051,-0.30476 -0.092,-0.45312 -0.036,-0.12598 -0.093,-0.24485 -0.1389,-0.36728 -0.041,-0.13586 -0.086,-0.27051 -0.1228,-0.40758 -0.1072,-0.40036 -0.1522,-0.79128 -0.2987,-1.1798 -0.154,-0.75867 -0.4014,-1.48662 -0.5618,-2.24279 -0.1208,-0.47343 -0.1961,-0.99487 -0.3638,-1.45688 -0.066,-0.1807 -0.1869,-0.33699 -0.2602,-0.51468 -0.1741,-0.70238 -0.4196,-1.36359 -0.5332,-2.08309 -0.3064,-0.7095 -0.3805,-1.48641 -0.4355,-2.24906 0.047,-0.66839 -0.2174,-1.25899 -0.3091,-1.91206 -0.079,-0.35284 -0.012,-0.72855 -0.072,-1.08178 -0.053,-0.3162 -0.1764,-0.63583 -0.2334,-0.95711 -0.082,-0.78616 -0.3071,-1.52606 -0.4028,-2.31402 -0.058,-0.89859 -0.3032,-1.76817 -0.5489,-2.62902 -0.1025,-0.72805 -0.43,-1.35912 -0.555,-2.0829 -0.3874,-0.59161 -0.2099,-1.37468 -0.5148,-1.97692 -0.2926,-0.61498 -0.153,-1.32942 -0.3791,-1.95186 -0.1075,-0.72369 -0.3441,-1.40495 -0.4933,-2.11834 -0.041,-0.69648 -0.3349,-1.30271 -0.4417,-1.989 -0.261,-0.40287 -0.2185,-0.90412 -0.3522,-1.34233 -0.053,-0.17494 -0.1655,-0.32708 -0.2291,-0.49854 -0.1764,-0.56203 -0.2534,-1.38126 -0.5797,-1.86391 -0.2006,-0.29235 -0.1657,-0.67035 -0.2804,-0.98669 -0.025,-0.0694 -0.095,-0.11432 -0.1297,-0.17951 -0.1048,-0.19729 -0.1347,-0.37497 -0.1897,-0.59091 -0.2254,-0.267 -0.2107,-0.63425 -0.3367,-0.93824 -0.032,-0.0767 -0.1062,-0.12893 -0.1465,-0.20157 -0.1202,-0.21675 -0.1527,-0.38788 -0.2206,-0.62673 -0.3527,-0.27954 -0.2982,-0.74067 -0.439,-1.11719 -0.025,-0.0662 -0.096,-0.10568 -0.1296,-0.16769 -0.046,-0.0834 -0.071,-0.17626 -0.1064,-0.26439 -0.1772,-0.55694 -0.2509,-1.36961 -0.5745,-1.84818 -0.1858,-0.30112 -0.1818,-0.66199 -0.279,-0.98867 -0.1,-0.33455 -0.2303,-0.63772 -0.3068,-0.98548 -0.2571,-0.69968 -0.524,-1.40317 -0.702,-2.12964 -0.2501,-0.71563 -0.6228,-1.37411 -0.9127,-2.07237 -0.04,-0.38412 -0.3078,-0.62569 -0.4378,-0.97175 -0.044,-0.11676 -0.054,-0.24597 -0.1099,-0.35774 -0.035,-0.0699 -0.1031,-0.11718 -0.1546,-0.17577 -0.043,-0.0903 -0.086,-0.18061 -0.129,-0.27091 -0.033,-0.1117 -0.046,-0.23159 -0.099,-0.33511 -0.032,-0.0614 -0.1098,-0.0873 -0.1484,-0.14463 -0.2858,-0.42434 0.038,-0.0944 -0.2195,-0.59039 -0.031,-0.0593 -0.098,-0.0911 -0.1466,-0.13663 -0.041,-0.0861 -0.082,-0.17228 -0.1225,-0.25842 -0.032,-0.11031 -0.042,-0.22896 -0.095,-0.33091 -0.031,-0.0592 -0.1089,-0.081 -0.1463,-0.13609 -0.2684,-0.39453 0.02,-0.12918 -0.2175,-0.59046 -0.031,-0.0593 -0.098,-0.0912 -0.1464,-0.13677 -0.041,-0.0865 -0.082,-0.17299 -0.1226,-0.25948 -0.124,-0.21389 -0.08,-0.47277 -0.1627,-0.69623 -0.024,-0.0655 -0.095,-0.10381 -0.1289,-0.1651 -0.143,-0.26212 -0.1108,-0.51617 -0.3276,-0.73068 -0.2547,-0.44503 -0.1982,-1.18135 -0.6644,-1.4549 -0.045,-0.078 -0.071,-0.17062 -0.1348,-0.23414 -0.044,-0.0444 -0.2163,-0.11952 -0.1739,-0.073 0.55,0.60315 1.1493,1.15964 1.7076,1.75506 0.1489,0.15881 -0.3214,-0.29608 -0.458,-0.46554 -0.548,-0.24058 -1.0039,-0.63225 -1.5662,-0.84281 -0.5567,-0.34395 -1.1814,-0.54356 -1.768,-0.82852 -0.7239,-0.29979 -1.4513,-0.59443 -2.1778,-0.89041 -0.8257,-0.42465 -1.6911,-0.75653 -2.5381,-1.13462 -0.8353,-0.37366 -1.7006,-0.66918 -2.5557,-0.99141 -0.8106,-0.36619 -1.6626,-0.62524 -2.4781,-0.97884 -0.6632,-0.30197 -1.3772,-0.44309 -2.0347,-0.76024 -0.6374,-0.31315 -1.3156,-0.52917 -1.9763,-0.78583 -0.6545,-0.22187 -1.3061,-0.45085 -1.9406,-0.72695 -0.7639,-0.29578 -1.5459,-0.5441 -2.2926,-0.88589 -0.7497,-0.36511 -1.562,-0.56548 -2.3323,-0.87953 -0.7178,-0.29557 -1.4614,-0.52178 -2.1863,-0.79733 -0.8539,-0.22117 -1.637,-0.6278 -2.46693,-0.91227 -0.86871,-0.27307 -1.69022,-0.65782 -2.52983,-1.00499 -0.8188,-0.22675 -1.57515,-0.61078 -2.32611,-0.99862 -0.70232,-0.28273 -1.42379,-0.51258 -2.12557,-0.80066 -0.77915,-0.24259 -1.51412,-0.60543 -2.25169,-0.95112 -0.74789,-0.28675 -1.44226,-0.6927 -2.19023,-0.97697 -0.65867,-0.25897 -1.29551,-0.56064 -1.92753,-0.87851 -0.71299,-0.31506 -1.42689,-0.63459 -2.11722,-0.9979 -0.64128,-0.34644 -1.32453,-0.59705 -1.96526,-0.9417 -0.60255,-0.23226 -1.15901,-0.54986 -1.76969,-0.77087 -0.58975,-0.30919 -1.15765,-0.65286 -1.73323,-0.98785 -0.65978,-0.2239 -1.2219,-0.6487 -1.8714,-0.89036 -0.55752,-0.32717 -1.15832,-0.56471 -1.72415,-0.8692 -0.55118,-0.33126 -1.18061,-0.49516 -1.76206,-0.75724 -0.5314,-0.25234 -1.10194,-0.42903 -1.61479,-0.71845 -0.51471,-0.23383 -1.01166,-0.49679 -1.49441,-0.80172 -0.53493,-0.24783 -1.0921,-0.45977 -1.59195,-0.77592 -0.56805,-0.27585 -1.17105,-0.45434 -1.73448,-0.73796 -0.39057,-0.0277 -0.66245,-0.34177 -1.01233,-0.46346 -0.9698,-0.33731 0.16475,0.13105 -0.60457,-0.19702 -0.54279,-0.20848 -1.07718,-0.43134 -1.60432,-0.68354 -0.577,-0.2554 -1.19459,-0.42689 -1.75634,-0.71592 -0.53631,-0.31963 -1.14805,-0.47898 -1.71213,-0.73574 -0.52932,-0.25357 -1.09825,-0.43062 -1.60972,-0.71975 -0.46974,-0.2767 -0.99655,-0.44958 -1.46623,-0.7279 -0.46361,-0.28101 -0.98861,-0.45244 -1.45588,-0.72902 -0.46698,-0.27799 -1.00566,-0.48249 -1.53263,-0.62895 -0.44928,-0.27753 -0.90828,-0.44442 -1.42837,-0.52647 -0.64726,-0.0952 -1.30511,0.12655 -1.89744,0.37068 -0.74451,0.38063 -1.50499,0.72669 -2.26839,1.06744 -0.82016,0.32887 -1.57186,0.78547 -2.3394,1.21632 -0.95771,0.49689 -1.9014,1.02068 -2.86191,1.51204 -0.91521,0.50151 -1.83816,0.98918 -2.7559,1.48647 -0.93057,0.50459 -1.86361,1.00543 -2.78531,1.52626 -0.93518,0.44307 -1.79114,1.02674 -2.70285,1.51186 -0.74343,0.39936 -1.52671,0.71921 -2.26328,1.131 -0.68325,0.39718 -1.41378,0.70022 -2.10651,1.07945 -0.73198,0.41981 -1.5349,0.68652 -2.31409,1.00161 -0.74586,0.32941 -1.49782,0.64167 -2.2543,0.94592 -0.67751,0.27943 -1.35025,0.56846 -2.02523,0.85353 -0.53098,0.18575 -1.06687,0.36531 -1.57509,0.60784 -0.61686,0.26616 -1.26236,0.45295 -1.88602,0.70384 -0.63131,0.20275 -1.22022,0.50571 -1.80609,0.81137 -0.70089,0.36174 -1.43731,0.64883 -2.15845,0.96737 -0.67134,0.23192 -1.28947,0.58288 -1.93566,0.87167 -0.57248,0.28718 -1.16384,0.53283 -1.74882,0.79307 -0.72931,0.32088 -1.4335,0.69475 -2.16576,1.00856 -0.63429,0.29761 -1.2741,0.58298 -1.93024,0.82935 -0.60832,0.24587 -1.21073,0.50672 -1.82705,0.73292 -0.70663,0.21541 -1.42116,0.40476 -2.12335,0.63452 -0.67778,0.21609 -1.36579,0.40868 -2.02513,0.67722 -0.62837,0.24325 -1.27634,0.43352 -1.91975,0.63308 -0.57851,0.23184 -1.17175,0.41715 -1.75546,0.63475 -0.56534,0.16136 -1.11639,0.36783 -1.66371,0.5823 -0.63851,0.25945 -1.26904,0.53607 -1.90293,0.80616 -0.60464,0.17486 -1.16188,0.46519 -1.73821,0.71095 -0.53783,0.23307 -1.05982,0.49978 -1.59081,0.74737 -0.52325,0.25978 -1.09171,0.41422 -1.6068,0.69013 -0.59445,0.33451 -1.18243,0.68421 -1.7914,0.9922 -0.54319,0.26811 -1.03428,0.61999 -1.56637,0.90819 -0.54306,0.36201 -1.15441,0.60261 -1.70298,0.95413 -0.55044,0.38979 -1.16424,0.6688 -1.78302,0.92912 -0.62183,0.29575 -1.26361,0.54711 -1.91247,0.77654 -0.64378,0.2137 -1.27098,0.46794 -1.90363,0.71164 -0.58396,0.21915 -1.1606,0.45306 -1.73605,0.69372 -0.4929,0.22788 -0.97623,0.47406 -1.46703,0.70631 -0.54491,0.27682 -1.08123,0.57103 -1.65276,0.78957 -0.53752,0.20536 -1.07666,0.41029 -1.60806,0.63235 -0.68311,0.30502 -1.38854,0.55607 -2.09082,0.8124 -0.59014,0.25686 -1.20263,0.45227 -1.80473,0.67831 -0.49328,0.18934 -0.96168,0.43647 -1.43934,0.661 -0.50836,0.19191 -1.02368,0.37039 -1.51354,0.60674 -0.52198,0.22974 -1.01983,0.49759 -1.56289,0.67754 -0.52593,0.19626 -1.0298,0.44101 -1.5474,0.65704 -0.57189,0.2299 -1.14147,0.4632 -1.70982,0.70222 -0.55747,0.25596 -1.09518,0.55081 -1.66905,0.76871 -0.50682,0.17118 -0.99112,0.39843 -1.47971,0.61427 -0.51908,0.27687 -1.05324,0.49767 -1.62874,0.62613 -0.49866,0.13775 -0.96901,0.34265 -1.44503,0.54112 -0.38857,0.1853 -0.74371,0.44269 -1.04331,0.75167 -0.24214,0.45506 -0.63057,0.81076 -0.94798,1.213 -0.38209,0.44431 -0.8141,0.84339 -1.19936,1.28413 -0.43118,0.5088 -0.93431,0.94795 -1.4381,1.3829 -0.57973,0.51063 -1.19342,0.98071 -1.79633,1.4636 -0.58046,0.45958 -1.1472,0.93457 -1.7153,1.40903 -0.50083,0.38415 -1.00684,0.75983 -1.501706,1.15195 -0.39992,0.37645 -0.80852,0.74175 -1.22417,1.10151 -0.53266,0.39496 -1.03015,0.83256 -1.54704,1.24728 -0.53147,0.4106 -1.05335,0.83165 -1.57273,1.25733 -0.41941,0.45974 -0.967824,0.76276 -1.443654,1.15292 -0.50023,0.38123 -1.02392,0.7283 -1.52552,1.10826 -0.46862,0.27527 -0.90397,0.5965 -1.34038,0.91874 -0.52176,0.37915 -1.02203,0.78349 -1.52102,1.19152 -0.44202,0.38784 -0.86055,0.79882 -1.29771,1.19239 -0.51715,0.38982 -1.00824,0.81095 -1.51575,1.21284 -0.60277,0.38045 -1.13976,0.84853 -1.72252,1.25711 -0.52533,0.41098 -1.08425,0.77471 -1.63321,1.15254 -0.61939,0.44698 -1.22907,0.90813 -1.83884,1.36875 -0.63496,0.45203 -1.26889,0.90762 -1.87158,1.40245 -0.59509,0.48874 -1.17549,0.99401 -1.7616,1.49317 -0.39539,0.36282 -0.76533,0.75117 -1.15756,1.11707 -0.33889,0.35425 -0.69521,0.6875 -1.01557,1.05971 -0.40864,0.43066 -0.86482,0.81549 -1.26738,1.25142 -0.46884,0.47215 -0.91352,0.96758 -1.36417,1.45806 -0.63438,0.64352 -1.21598,1.33405 -1.84929,1.97796 -0.45665,0.505 -0.90579,1.01913 -1.39241,1.49569 -0.41672,0.48904 -0.94401,0.86356 -1.4347,1.27182 -0.51958,0.38823 -0.97951,0.86064 -1.37909,1.37034 -0.51301,0.54699 -0.92803,1.17432 -1.40071,1.75356 -0.41155,0.57158 -0.81071,1.15539 -1.17423,1.75916 -0.4574,0.69219 -0.89835,1.39709 -1.43316,2.03273 -0.34766,0.49426 -0.65023,1.01438 -1.04905,1.47269 -0.31342,0.4585 -0.66336,0.89054 -0.9911,1.33983 -0.43358,0.55786 -0.86012,1.12478 -1.24164,1.72011 -0.38563,0.56796 -0.88003,1.05594 -1.24018,1.64096 -0.39258,0.51077 -0.75547,1.04412 -1.10559,1.58428 -0.33811,0.55089 -0.74707,1.05728 -1.06379,1.62198 -0.32509,0.62385 -0.73707,1.18639 -1.14103,1.75925 -0.25881,0.57031 -0.70674,1.02038 -1.0305,1.55212 -0.44331,0.56967 -0.83542,1.17737 -1.28666,1.74039 -0.41584,0.4882 -0.7752,1.02067 -1.17197,1.52304 -0.36078,0.54723 -0.82719,1.00633 -1.30756,1.44778 -0.55077,0.55073 -1.11042,1.09279 -1.67749,1.62823 -0.59054,0.54133 -1.19106,1.07332 -1.79896,1.59531 -0.47898,0.48256 -1.01659,0.90109 -1.56724,1.2978 -0.65149,0.53256 -1.35693,0.98894 -2.04547,1.46986 -0.51948,0.38051 -1.04684,0.74506 -1.58723,1.09596 -0.45594,0.35331 -0.92984,0.68336 -1.38055,1.04307 -0.57657,0.43111 -1.15714,0.86194 -1.77608,1.23046 -0.49744,0.34984 -1.01213,0.67155 -1.53014,0.99125 -0.46789,0.34452 -0.94993,0.6679 -1.42586,1.00096 -0.48518,0.33618 -0.99807,0.6286 -1.42806,1.03637 -0.56897,0.49231 -1.16274,0.95403 -1.76052,1.41038 -0.52371,0.43564 -1.05295,0.86444 -1.58361,1.2927 -0.47662,0.34523 -0.89993,0.754 -1.35117,1.13043 -0.51817,0.41218 -1.03159,0.82927 -1.54295,1.24996 -0.40671,0.39347 -0.82713,0.77038 -1.25494,1.1414 -0.4855,0.38843 -0.99689,0.75242 -1.44141,1.18883 -0.38979,0.41101 -0.8606,0.72212 -1.29006,1.0867 -0.49367,0.49166 -1.04646,0.91883 -1.54609,1.4035 -0.46873,0.4108 -0.88583,0.86848 -1.38908,1.23814 -0.41029,0.27031 -0.7814,0.58811 -1.15656,0.90317 -0.34184,0.3668 -0.74788,0.67059 -1.08624,1.04 -0.44633,0.43742 -0.88465,0.88219 -1.33427,1.31642 -0.43613,0.42845 -0.88153,0.85465 -1.2837,1.31609 -0.36787,0.39193 -0.77516,0.74838 -1.13163,1.15073 -0.35865,0.36925 -0.75083,0.70886 -1.09305,1.09377 -0.45099,0.39203 -0.78623,0.89007 -1.16973,1.34249 -0.38088,0.49387 -0.79353,0.96734 -1.238,1.40545 -0.3638,0.38334 -0.73065,0.76605 -1.1167,1.12766 -0.5413897,0.48248 -1.0954897,0.94932 -1.6617797,1.40211 -0.43674,0.36537 -0.83725,0.76887 -1.25707,1.15244 -0.36327,0.36263 -0.7168,0.73572 -1.09117,1.08735 -0.36013,0.36709 -0.71562,0.7402 -1.09096,1.09237 -0.3611,0.36728 -0.71727,0.74078 -1.0932803,1.09338 -0.26348,0.3771 -0.55676,0.7394 -0.82509,1.1175 -0.34478,0.4246 -0.75336,0.7905 -1.11295,1.2008 -0.39106,0.318 -0.67868,0.71 -0.98319,1.0993 -0.21724001,0.4439 -0.68129001,0.7253 -0.88517001,1.1717 -0.29967,0.47739 -0.68287,0.88739 -1.03182,1.32689 0,0 -2.70029999,-2.44789 -2.70029999,-2.44789 l 0,0 c 0.30852,-0.3677 0.6217,-0.7301 0.87418,-1.1408 0.31245,-0.4561 0.69739,-0.8519 1.00325,-1.3134 0.32566,-0.4368 0.67066999,-0.8493 1.08275999,-1.2083 0.32967,-0.3574 0.68019,-0.69401 0.99233,-1.06756 0.34986,-0.45939 0.66808001,-0.94629 1.06286001,-1.36827 0.3848,-0.34207 0.72458,-0.73386 1.09296,-1.09312 0.38396,-0.34147 0.72283,-0.73274 1.09016,-1.0916 0.38909,-0.34656 0.7316603,-0.74409 1.1084403,-1.10383 0.45795,-0.39963 0.87333,-0.84723 1.34478,-1.23288 0.53783,-0.41384 1.04587,-0.86314 1.559,-1.3073 0.38266,-0.33922 0.72097,-0.72831 1.07983,-1.09182 0.40879,-0.38729 0.75868,-0.83631 1.1111,-1.27388 0.3963697,-0.47672 0.7585797,-0.98919 1.2256197,-1.40207 0.35173,-0.37497 0.72444,-0.72996 1.09014,-1.09073 0.36213,-0.38795 0.74573,-0.75512 1.11637,-1.1347 0.44334,-0.48779 0.90676,-0.95952 1.38183,-1.41595 0.43215,-0.41023 0.84481,-0.83981 1.27243,-1.25438 0.40108,-0.41589 0.84597,-0.78509 1.25016,-1.19822 0.43085,-0.34167 0.8324,-0.71766 1.29317,-1.02098 0.45842,-0.22443 0.71988,-0.74209 1.14566,-1.0195 0.52741,-0.50794 1.10187,-0.96303 1.62371,-1.47757 0.4013,-0.3469 0.8446,-0.62075 1.20964,-1.00989 0.4726,-0.4554 0.98753,-0.86781 1.51409,-1.25844 0.44382,-0.38574 0.8817,-0.77409 1.3023,-1.18478 0.51311,-0.40477 1.00439,-0.83687 1.52424,-1.23301 0.45633,-0.378 0.88027,-0.7932 1.36144,-1.13976 0.54495,-0.45061 1.10864,-0.87917 1.64184,-1.3443 0.55073,-0.40339 1.07651,-0.83836 1.60653,-1.2689 0.50218,-0.47489 1.06205,-0.86027 1.64368,-1.23009 0.51508,-0.34036 1.01825,-0.69863 1.51197,-1.07018 0.5505,-0.3149 1.07677,-0.65626 1.58671,-1.03443 0.55443,-0.25511 1.00876,-0.68974 1.51921,-1.01935 0.5037,-0.41342 1.04664,-0.77645 1.55219,-1.18844 0.52384,-0.30972 1.00506,-0.66993 1.4994,-1.02384 0.6779,-0.4932 1.40359,-0.92046 2.04322,-1.46795 0.51319,-0.36653 1.01913,-0.74502 1.458,-1.20124 0.59091,-0.49029 1.15387,-1.01647 1.72688,-1.52715 0.57349,-0.5416 1.14028,-1.08874 1.6967,-1.64675 0.40758,-0.37285 0.79367,-0.76032 1.09582,-1.22727 0.39067,-0.51468 0.77494,-1.03303 1.18229,-1.53468 0.40705,-0.52405 0.77629,-1.07662 1.17414,-1.60776 0.36403,-0.54046 0.77462,-1.0475 1.08773,-1.62119 0.38378,-0.52564 0.7267,-1.0736 1.04523,-1.64161 0.35947,-0.57299 0.75298,-1.12368 1.11972,-1.69186 0.36254,-0.52977 0.70951,-1.07024 1.10147,-1.57925 0.39148,-0.56365 0.843,-1.07958 1.23926,-1.63984 0.4182,-0.61602 0.85257,-1.22154 1.314,-1.80594 0.36547,-0.47303 0.70472,-0.96453 1.0752,-1.43322 0.38654,-0.44667 0.63234,-1.00128 1.02406,-1.44561 0.47362,-0.57648 0.85821,-1.22034 1.26978,-1.84098 0.41958,-0.65637 0.83985,-1.31436 1.31847,-1.92979 0.46628,-0.58559 0.89355,-1.20403 1.40232,-1.75535 0.48608,-0.58689 1.01024,-1.16105 1.62352,-1.61708 0.45477,-0.38566 0.95647,-0.72275 1.34248,-1.18419 0.48288,-0.4586 0.90428,-0.98051 1.36108,-1.46448 0.6187,-0.62856 1.18487,-1.30554 1.8054,-1.93295 0.45635,-0.49732 0.91078,-0.99575 1.38262,-1.47716 0.39306,-0.41003 0.813,-0.79301 1.21385,-1.1952 0.36873,-0.42195 0.77339,-0.80529 1.16191,-1.20803 0.42037,-0.37303 0.79336,-0.79824 1.21497,-1.17084 0.59766,-0.49257 1.16867,-1.01763 1.7726,-1.50322 0.6189,-0.51379 1.26705,-0.99255 1.92664,-1.4515 0.63527,-0.48551 1.2795,-0.95841 1.91947,-1.43709 0.5567,-0.36326 1.10556,-0.74116 1.6303,-1.15015 0.56242,-0.3594 1.03355,-0.84173 1.61836,-1.16785 0.47868,-0.37819 0.93656,-0.78059 1.43209,-1.13601 0.46297,-0.41431 0.90632,-0.84724 1.37066,-1.25964 0.52474,-0.41227 1.02758,-0.85092 1.57277,-1.23708 0.43437,-0.32492 0.86062,-0.67306 1.34288,-0.92091 0.48316,-0.34709 0.9515,-0.71245 1.44806,-1.03954 0.48072,-0.40372 1.03662,-0.70596 1.46551,-1.17271 0.52884,-0.41612 1.03608,-0.85892 1.576384,-1.2606 0.49949,-0.3995 0.97548,-0.82665 1.49497,-1.19973 0.44024,-0.38203 0.87493,-0.7662 1.29713,-1.16763 0.49018,-0.36988 0.96174,-0.76319 1.46324,-1.11754 0.58113,-0.46854 1.13866,-0.96608 1.730096,-1.42238 0.58476,-0.47231 1.18605,-0.9235 1.74945,-1.42079 0.44613,-0.38531 0.89815,-0.76581 1.27502,-1.22146 0.37659,-0.41141 0.773,-0.80369 1.14205,-1.22228 0.36988,-0.44081 0.73872,-0.87672 1.0744,-1.34576 0.43685,-0.42909 0.91814,-0.8341 1.4654,-1.11323 0.52924,-0.29898 1.10782,-0.51488 1.68487,-0.70253 0.51884,-0.20197 1.08834,-0.20269 1.54456,-0.5726 0.54991,-0.176 1.04935,-0.48421 1.59162,-0.68473 0.5168,-0.10068 0.93387,-0.41547 1.41933,-0.60337 0.56241,-0.3074 1.17451,-0.52343 1.77383,-0.74745 0.51776,-0.24668 1.04583,-0.46856 1.57827,-0.67813 0.258,-0.12293 0.48401,-0.1576 0.73817,-0.2651 0.35296,-0.14928 0.13662,-0.10334 0.55266,-0.30163 0.0658,-0.0314 0.13891,-0.0445 0.20837,-0.0668 0.51733,-0.24431 1.03795,-0.50718 1.5889,-0.65863 0.54075,-0.17991 1.02321,-0.50975 1.54831,-0.73124 0.57467,-0.16238 1.1173,-0.41878 1.68534,-0.60106 0.66501,-0.30864 1.38273,-0.49372 2.05559,-0.78832 0.58824,-0.28233 1.20738,-0.47282 1.79527,-0.75363 0.49288,-0.0944 0.88842,-0.39014 1.34494,-0.58111 0.48721,-0.29034 1.01798,-0.50487 1.52837,-0.75158 0.58148,-0.31719 1.21528,-0.53723 1.83655,-0.76376 0.63567,-0.28464 1.29041,-0.52783 1.95185,-0.74349 0.59315,-0.24207 1.21102,-0.41967 1.79144,-0.69445 0.51305,-0.26455 1.08158,-0.41806 1.55831,-0.75654 0.58484,-0.41598 1.2449,-0.67892 1.84607,-1.06721 0.5638,-0.31348 1.10407,-0.65188 1.6621,-0.97763 0.56884,-0.23508 1.07144,-0.5984 1.6232,-0.86694 0.57773,-0.37604 1.21408,-0.58222 1.83949,-0.85956 0.56889,-0.19246 1.08234,-0.5318 1.63125,-0.77406 0.59592,-0.19537 1.11957,-0.56992 1.73364,-0.70797 0.65699,-0.22216 1.27236,-0.55895 1.91672,-0.81512 0.57352,-0.20846 1.13622,-0.46834 1.7241,-0.62047 0.57055,-0.16114 1.10774,-0.41556 1.67609,-0.58423 0.60789,-0.26765 1.26234,-0.41645 1.89471,-0.61654 0.70045,-0.29149 1.41101,-0.55241 2.14382,-0.75307 0.70088,-0.22479 1.40009,-0.46156 2.11597,-0.62998 0.62865,-0.17553 1.2255,-0.45466 1.81698,-0.72671 0.64399,-0.18295 1.25411,-0.47744 1.85011,-0.77822 0.71705,-0.25296 1.36656,-0.65325 2.06856,-0.94246 0.60491,-0.29889 1.24645,-0.51052 1.83136,-0.84949 0.65975,-0.23147 1.23394,-0.6532 1.90664,-0.8522 0.67829,-0.28195 1.34586,-0.58924 2.02341,-0.87133 0.63739,-0.35583 1.29359,-0.70871 1.98663,-0.93774 0.5905,-0.22778 1.16698,-0.49254 1.78504,-0.63517 0.54828,-0.25798 1.1004,-0.52759 1.68689,-0.68358 0.69182,-0.2335 1.34147,-0.58527 2.02162,-0.85119 0.74518,-0.27866 1.47451,-0.58986 2.20185,-0.91104 0.71885,-0.32315 1.47981,-0.5397 2.17859,-0.90524 0.68066,-0.36492 1.36935,-0.70462 2.06221,-1.04587 0.75468,-0.45284 1.56426,-0.79036 2.34571,-1.19265 0.9043,-0.43395 1.70382,-1.05597 2.62693,-1.45522 0.92409,-0.54134 1.87713,-1.03079 2.81439,-1.54832 0.93287,-0.51952 1.89065,-0.99343 2.81432,-1.52942 0.95007,-0.46062 1.85998,-0.99967 2.80513,-1.47032 0.82526,-0.44011 1.6045,-0.96225 2.47592,-1.31386 0.77351,-0.32498 1.54157,-0.66946 2.27749,-1.07362 0.86873,-0.38206 1.7499,-0.69576 2.70463,-0.78056 0.69389,0.032 1.42173,0.0508 2.05687,0.3619 0.21453,0.21678 0.46861,0.18461 0.73076,0.32761 0.0613,0.0335 0.0997,0.10462 0.16522,0.12891 0.22352,0.0829 0.48247,0.0388 0.69642,0.16287 0.0866,0.0409 0.17312,0.0818 0.25969,0.12268 0.0458,0.0488 0.0778,0.11583 0.1373,0.14649 0.46447,0.23937 0.19391,-0.0518 0.59137,0.21793 0.0553,0.0376 0.0776,0.11583 0.13704,0.14648 0.10221,0.0527 0.22107,0.0635 0.3316,0.0953 0.0864,0.0409 0.17283,0.0818 0.25925,0.12269 0.0455,0.0489 0.0773,0.11585 0.13664,0.14653 0.46399,0.23998 0.19308,-0.0521 0.58969,0.21821 0.0553,0.0377 0.0776,0.11597 0.13698,0.14681 0.10172,0.0528 0.22015,0.0638 0.33023,0.0957 0.0862,0.0411 0.17243,0.0822 0.25864,0.12333 0.0473,0.0492 0.0812,0.11632 0.14186,0.14761 0.10226,0.0528 0.22352,0.0566 0.33141,0.0966 0.2992,0.11092 0.42681,0.35453 0.76928,0.37073 0.17224,0.0745 0.31927,0.20055 0.49237,0.27305 0.38224,0.16011 0.90296,0.26248 1.29048,0.45026 0.0882,0.0415 0.17636,0.083 0.26454,0.12448 0.0537,0.0496 0.0955,0.11681 0.16117,0.14893 0.10693,0.0522 0.23118,0.0581 0.34344,0.0976 0.31744,0.11178 0.5092,0.35485 0.8662,0.36703 0.11041,0.0392 0.22082,0.0784 0.33123,0.11763 0.0791,0.0451 0.15283,0.10121 0.23727,0.13521 0.28173,0.11348 0.33091,0.0458 0.57657,0.20741 0.0549,0.0361 0.079,0.11208 0.1382,0.14045 0.10105,0.0484 0.21734,0.0546 0.326,0.0818 0.0882,0.0354 0.18104,0.0607 0.26446,0.10621 0.0621,0.0338 0.10172,0.10477 0.16796,0.12944 0.3777,0.14067 0.8395,0.0861 1.12128,0.438 0.24137,0.0683 0.41379,0.10095 0.63302,0.22203 0.0737,0.0407 0.12693,0.11561 0.20462,0.148 0.31331,0.13064 0.69026,0.1213 0.96513,0.35376 0.21452,0.0627 0.41446,0.10225 0.605,0.22498 0.0624,0.0402 0.0967,0.11843 0.16309,0.1516 0.27724,0.1385 0.62353,0.12836 0.83576,0.39701 0.41505,0.12568 0.80658,0.2917 1.16411,0.53558 0.0552,0.0377 0.0774,0.11594 0.13668,0.14675 0.10163,0.0528 0.21998,0.0637 0.32998,0.0956 0.0861,0.0411 0.17219,0.0821 0.25829,0.12319 0.0472,0.0492 0.081,0.11625 0.1415,0.14749 0.10215,0.0527 0.2233,0.0565 0.33109,0.0964 0.29931,0.11089 0.42832,0.35481 0.77101,0.37069 0.17493,0.0753 0.32536,0.20126 0.5013,0.27421 0.40212,0.16672 0.9377,0.27282 1.34405,0.46842 0.0979,0.0451 0.19587,0.0902 0.2938,0.13535 0.0687,0.0535 0.12741,0.12338 0.20617,0.16061 0.12074,0.0571 0.25765,0.0716 0.38293,0.11782 0.31941,0.11796 0.55481,0.32824 0.87024,0.45081 0.48429,0.3716 1.25943,0.47189 1.7361,0.91397 0.69233,0.22316 1.29739,0.58757 1.91695,0.95705 0.4343,0.41406 1.10835,0.39811 1.54797,0.80926 0.28338,0.0869 0.4194,0.11168 0.67695,0.25416 0.0888,0.0491 0.15974,0.1289 0.25222,0.17082 0.37651,0.17068 0.81463,0.21876 1.14471,0.49616 0.70276,0.29982 1.37053,0.67684 2.05699,1.00887 1.38953,0.52047 -0.54678,-0.22436 0.63098,0.28577 0.41149,0.17823 0.29501,0.0475 0.66427,0.27622 0.0835,0.0517 0.14597,0.13521 0.23344,0.17995 0.12259,0.0627 0.25944,0.0923 0.38916,0.13843 0.71853,0.34428 1.49836,0.55664 2.18324,0.97834 0.73045,0.27753 1.43881,0.59916 2.11944,0.97958 0.76804,0.21315 1.46405,0.60508 2.24517,0.7747 0.77461,0.26017 1.45216,0.69706 2.19459,1.02739 0.91947,0.24267 1.71303,0.72375 2.62127,0.98445 0.4035,0.17682 0.84161,0.25285 1.23777,0.44284 0.10434,0.05 0.18673,0.1397 0.29199,0.18778 0.26665,0.12179 0.57155,0.1473 0.82385,0.30749 0.7851,0.20614 1.5323,0.52811 2.3061,0.77012 0.8008,0.30042 1.5768,0.65663 2.4121,0.86376 0.7324,0.31463 1.4338,0.7174 2.2152,0.90117 0.6411,0.22771 1.2439,0.54445 1.8897,0.73793 0.7114,0.23754 1.4057,0.51336 2.1127,0.75808 0.6594,0.27589 1.2479,0.6764 1.9791,0.7709 0.8327,0.32618 1.6375,0.71688 2.4976,0.97498 0.8278,0.39849 1.7092,0.65026 2.5616,0.99028 0.8781,0.36173 1.7461,0.73689 2.6108,1.12139 0.6663,0.37751 1.3928,0.66193 2.1177,0.90124 0.6409,0.2531 1.2433,0.58579 1.8974,0.80647 0.4575,0.36265 1.1488,0.38908 1.5599,0.84377 0.3419,0.1026 0.5818,0.17608 0.8357,0.42754 1.591,1.57576 1.7487,1.40618 2.3939,2.63964 0.1757,0.55649 0.3388,1.10984 0.6413,1.61308 0.1464,0.52673 0.3508,1.06532 0.6289,1.53196 0.2763,0.46649 0.4475,0.99065 0.7277,1.45378 0.2825,0.47891 0.4577,1.01514 0.7312,1.49903 0.3182,0.5971 0.5228,1.25254 0.8161,1.86315 0.3526,0.74151 0.6363,1.51637 0.8615,2.30565 0.254,0.71372 0.4861,1.43569 0.693,2.16403 0.2055,0.60126 0.3639,1.21338 0.6289,1.79294 0.1453,0.61334 0.325,1.23201 0.5832,1.80566 0.3276,0.76579 -0.1391,-0.36147 0.1975,0.60425 0.1223,0.35087 0.4367,0.62405 0.4626,1.01645 0.2854,0.58449 0.4659,1.21109 0.6917,1.81989 0.245,0.54725 0.3567,1.13472 0.6175,1.67783 0.1533,0.65355 0.3524,1.2986 0.5639,1.93472 0.2092,0.66984 0.3424,1.36926 0.5271,2.04653 0.1881,0.64492 0.3172,1.29196 0.4532,1.94923 0.1944,0.71683 0.3177,1.44667 0.4778,2.1718 0.068,0.6336 0.2154,1.23837 0.4092,1.84517 0.099,0.69587 0.3308,1.34551 0.5019,2.02438 0.2263,0.67235 0.4044,1.3485 0.5668,2.03951 0.2333,0.92629 0.3658,1.87342 0.4924,2.81913 0.1445,0.75147 0.312,1.49561 0.422,2.25354 0.1388,0.68232 0.1655,1.37287 0.2998,2.0556 0.1529,0.67132 0.2264,1.33958 0.2711,2.02657 0.114,0.70479 0.3403,1.37626 0.4923,2.07222 0.1807,0.61138 0.367,1.22315 0.601,1.81523 0.2527,0.71054 0.3823,1.46086 0.5704,2.18999 0.2079,0.72346 0.3497,1.46152 0.5787,2.17952 0.179,0.8262 0.4598,1.62424 0.6418,2.45013 0.2163,0.81714 0.3904,1.64411 0.535,2.47653 0.1995,0.8163 0.4407,1.62184 0.6591,2.4332 0.2145,0.97086 0.5189,1.91804 0.7249,2.89124 0.2024,0.96578 0.509,1.90054 0.7833,2.84769 0.2264,0.86218 0.4596,1.72399 0.7473,2.56739 0.258,0.92276 0.5584,1.83429 0.8527,2.74593 0.3095,0.9468 0.6235,1.89021 0.8539,2.8608 0.3266,1.02559 0.6379,2.05513 0.99,3.07274 0.3088,1.09857 0.6196,2.19596 0.9672,3.28302 0.2623,0.96142 0.6119,1.89831 0.8117,2.87739 0.245,0.92486 0.4964,1.84976 0.6821,2.78863 0.2093,0.93725 0.3525,1.88549 0.5578,2.82377 0.1448,0.92544 0.352,1.83495 0.5442,2.75107 0.2015,0.81554 0.3843,1.63558 0.65,2.4336 0.2201,0.90004 0.4814,1.78936 0.7244,2.68339 0.2163,0.93487 0.4682,1.86195 0.735,2.78341 0.2188,0.88941 0.4798,1.7677 0.7221,2.65089 0.2048,0.90017 0.4542,1.78862 0.6335,2.69487 0.1492,0.8684 0.3574,1.72591 0.4371,2.60538 0.1431,0.9005 0.2934,1.80064 0.467,2.69519 0.1707,0.6862 0.3229,1.3754 0.4955,2.061 0.079,0.7028 0.2436,1.3793 0.5055,2.0382 0.1508,0.5879 0.3085,1.2095 0.6218,1.72949 0.1305,0.2098 0.1724,0.4701 0.3845,0.6082 0.05,0.032 0.1977,0.1275 0.1566,0.085 -0.1247,-0.1301 -4.9725,-4.95269 0.3691,0.395 0.4856,0.4128 0.7804,1.0689 0.9225,1.6786 0.1755,0.9835 -0.126,1.8942 -0.9307,2.5168 -0.5888,0.3563 -1.2191,0.5214 -1.8818,0.6844 -0.663,0.2169 -1.3805,0.2164 -2.0256,0.513 -0.5723,0.093 -1.0883,0.3556 -1.6667,0.4086 -0.5779,0.1593 -1.1204,0.4092 -1.7104,0.5305 -0.6462,0.2205 -1.3461,0.2247 -1.9956,0.4568 -0.6109,0.015 -1.2266,0.031 -1.8238,0.1748 -0.7418,0.1825 -1.3377,0.2167 -2.0979,0.2123 -0.6708,0.045 -1.3243,0.1648 -1.9753,0.3342 -0.7057,0 -1.4115,0 -2.1171,0.01 -0.6163,0.016 -1.2368,0.035 -1.839,0.1809 -0.1427,0.034 -0.6807,0.1644 -0.7999,0.1779 -0.5195,0.058 -1.0573,-0.046 -1.5783,0 -0.8396,-10e-4 -1.6791,0 -2.5187,0 -0.9413,0 -1.8835,0.011 -2.8231,0.072 -1.0178,0.076 -2.0287,0.2301 -3.0431,0.2947 -0.801,0 -1.6019,0 -2.4029,0 -0.7724,0 -1.5449,0 -2.3174,0 -0.9796,0 -1.9593,0 -2.9389,0 -1.0291,10e-5 -2.0583,2e-4 -3.0874,10e-4 -0.7473,9e-4 -1.4946,0 -2.2419,0 -0.7703,5e-4 -1.5417,0 -2.3105,-0.051 -0.7917,-0.075 -1.5419,-0.2575 -2.3037,-0.4643 -0.7355,-0.6746 -1.5127,-1.3063 -2.2064,-2.0237 -0.2653,-0.2743 -0.2997,-1.3392 -0.4884,-1.7144 -0.2423,-0.5475 -0.4615,-1.0966 -0.7152,-1.6377 -0.2041,-0.516 -0.4975,-0.9922 -0.7439,-1.4891 -0.2069,-0.5991 -0.5258,-1.1609 -0.8103,-1.7266 -0.2665,-0.64049 -0.5175,-1.28099 -0.8063,-1.91199 -0.3388,-0.6179 -0.5225,-1.2888 -0.7695,-1.9454 -0.2344,-0.5647 -0.4117,-1.1479 -0.5879,-1.7299 -0.2295,-0.5214 -0.3211,-1.081 -0.5814,-1.59206 -0.1556,-0.64957 -0.4908,-1.23549 -0.6612,-1.88289 -0.2379,-0.61934 -0.4359,-1.25318 -0.6786,-1.87002 -0.2205,-0.61553 -0.3761,-1.26306 -0.562,-1.89024 -0.2087,-0.63957 -0.4427,-1.27159 -0.6935,-1.89524 -0.1662,-0.55722 -0.3629,-1.10781 -0.5792,-1.64488 -0.3098,-0.73784 0.1201,0.3236 -0.1923,-0.60596 -0.1152,-0.34274 -0.4205,-0.6095 -0.4319,-0.99472 -0.2376,-0.49028 -0.3436,-1.02125 -0.6536,-1.47852 -0.1941,-0.62437 -0.4795,-1.22057 -0.7191,-1.82912 -0.2146,-0.60433 -0.4907,-1.19065 -0.7712,-1.76615 -0.2733,-0.60594 -0.6593,-1.15617 -0.9299,-1.76671 -0.4315,-0.604 -0.7526,-1.27354 -1.02997,-1.96132 -0.32243,-0.50375 -0.60515,-1.02219 -0.87395,-1.5519 -0.34142,-0.57435 -0.54506,-1.22715 -0.96551,-1.75848 -0.36128,-0.74406 -0.80346,-1.44542 -1.22447,-2.1567 -0.383,-0.74122 -0.75917,-1.48457 -1.19069,-2.19924 -0.42452,-0.63674 -0.80868,-1.29828 -1.23449,-1.93275 -0.4206,-0.67924 -0.83634,-1.36014 -1.28258,-2.02374 -0.43048,-0.73048 -0.8486,-1.46511 -1.24381,-2.21451 -0.33649,-0.63839 -0.7415,-1.23525 -1.14276,-1.83414 -0.37528,-0.70893 -0.86214,-1.34851 -1.23455,-2.05977 -0.40363,-0.57566 -0.71281,-1.20154 -1.05233,-1.81512 -0.36452,-0.53834 -0.61418,-1.13825 -1.01993,-1.64875 -0.0703,-0.12493 -0.14053,-0.24985 -0.21079,-0.37478 -0.0711,-0.0942 -0.1515,-0.18212 -0.21332,-0.28269 -0.28921,-0.47054 -0.48827,-0.99754 -0.86672,-1.41343 -0.44198,-0.73562 -0.80584,-1.51551 -1.28305,-2.23004 -0.42489,-0.71269 -0.86755,-1.41413 -1.30352,-2.12002 -0.45113,-0.64679 -0.7713,-1.3675 -1.16518,-2.04693 -0.42711,-0.67586 -0.80571,-1.37478 -1.18812,-2.07748 -0.33274,-0.73146 -0.61625,-1.49077 -1.06849,-2.16026 -0.39197,-0.7172 -0.78527,-1.43149 -1.09177,-2.19123 -0.3054,-0.57693 -0.60594,-1.14996 -0.88711,-1.73854 -0.29304,-0.64487 -0.70141,-1.23415 -0.93607,-1.90969 -0.29726,-0.569 -0.58799,-1.13479 -0.83642,-1.72625 -0.21415,-0.56476 -0.51351,-1.0919 -0.72676,-1.65956 -0.18847,-0.64493 -0.4785,-1.25445 -0.72526,-1.87869 -0.18929,-0.68739 -0.45129,-1.3544 -0.7044,-2.02029 -0.1839,-0.63094 -0.39698,-1.255 -0.62349,-1.87062 -0.26562,-0.6218 -0.4813,-1.26087 -0.66304,-1.91113 -0.19526,-0.59851 -0.38998,-1.2022 -0.53294,-1.81329 -0.17712,-0.56578 -0.29507,-1.13256 -0.44537,-1.70397 -0.19114,-0.54532 -0.22874,-1.12397 -0.48677,-1.64737 -0.2038,-0.59459 -0.34305,-1.2289 -0.46379,-1.84446 -0.14691,-0.59068 -0.36813,-1.15801 -0.407,-1.77212 -0.15005,-0.70386 -0.20707,-1.40225 -0.16515,-2.12331 2e-4,-0.77595 5.4e-4,-1.55189 0.002,-2.32784 0.001,-0.80067 0.004,-1.60135 5.9e-4,-2.40202 -0.007,-0.69994 -0.0132,-1.40231 -0.10641,-2.09727 -0.1142,-0.71446 -0.34124,-1.39788 -0.47202,-2.1083 -0.15658,-0.64235 -0.29637,-1.28665 -0.47,-1.92321 -0.22283,-0.67857 -0.30175,-1.38723 -0.44347,-2.08597 -0.0473,-0.61604 -0.12195,-1.22499 -0.34885,-1.80524 -0.15627,-0.60991 -0.2073,-1.24701 -0.38587,-1.85456 -0.0486,-0.60451 -0.14247,-1.18844 -0.46616,-1.71503 -0.28747,-0.5979 -0.48384,-1.25346 -0.91123,-1.7757 -0.74096,-0.91321 0.25243,0.32395 1.49082,1.50961 0.0545,0.0521 -0.0379,-0.14993 -0.0828,-0.2105 -0.0545,-0.0735 -0.13794,-0.1201 -0.20691,-0.18015 -0.0154,-0.0671 -0.0149,-0.14012 -0.0463,-0.20144 -0.0309,-0.0602 -0.0898,-0.10132 -0.13474,-0.15197 -0.61384,-0.25894 -1.37864,0.004 -2.02996,-0.0875 -0.72732,-7.5e-4 -1.45464,-0.002 -2.18196,-0.003 -0.67886,-1.5e-4 -1.35816,-0.003 -2.03647,0.0281 -0.65546,0.0427 -1.29325,0.15572 -1.92164,0.35295 -0.69682,0.0291 -1.394,0.0829 -2.0717,0.25944 -0.60421,0.1432 -1.22936,0.10002 -1.82677,0.28615 -0.67873,0.23891 -1.36877,0.38361 -2.05396,0.60585 -0.63477,0.0955 -1.23306,0.35073 -1.88181,0.33305 -0.58927,0.0607 -1.12341,0.26687 -1.69325,0.39344 -0.58835,0.10423 -1.10917,0.39787 -1.70216,0.48149 -0.24543,0.0751 -0.48472,0.1729 -0.73535,0.22815 -0.45616,0.10055 -0.94584,0.0752 -1.38918,0.2506 -0.7343,0.20171 -1.50954,0.23002 -2.22704,0.5118 -0.68227,0.0972 -1.33609,0.31863 -2.02547,0.35223 -0.6647,0.10411 -1.28902,0.37079 -1.96792,0.38194 -0.72787,0.11879 -1.41884,0.36881 -2.14731,0.48112 -0.70258,0.18058 -1.41416,0.29428 -2.10608,0.51343 -0.63962,0.2354 -1.30534,0.40702 -1.97036,0.55031 -0.23574,0.0696 -0.46527,0.16359 -0.7062,0.21225 -0.36316,0.0733 -0.75828,0.0112 -1.11267,0.15145 -0.23541,0.0698 -0.46456,0.16397 -0.70513,0.21316 -0.37055,0.0758 -0.77385,0.0162 -1.13419,0.16453 -0.24567,0.075 -0.48525,0.17282 -0.73622,0.22751 -0.44762,0.0975 -0.92853,0.0672 -1.36531,0.23249 -0.63894,0.16465 -1.30714,0.14314 -1.9412,0.34708 -0.70437,0.16434 -1.42788,0.0864 -2.14458,0.18398 -0.74875,0.10155 -1.47664,0.32768 -2.23693,0.31083 -0.76285,0.0515 -1.51533,0.16664 -2.26257,0.32996 -0.71057,-8.7e-4 -1.42134,-0.004 -2.13166,0.0174 -0.71273,0.0307 -1.42434,0.0911 -2.11946,0.26162 -0.71563,0.15123 -1.44856,0.0978 -2.17094,0.22152 -0.76707,0.12973 -1.51605,0.30061 -2.30112,0.23638 -0.76168,0.0201 -1.5242,0.0604 -2.27479,0.20122 -0.77186,0.1406 -1.53814,0.20752 -2.31696,0.29513 -0.72027,0.14474 -1.42285,0.34186 -2.15511,0.42236 -0.64074,0.15131 -1.27576,0.23835 -1.92356,0.34973 -0.24775,0.0699 -0.49008,0.16276 -0.74308,0.2103 -0.4419,0.083 -0.914,0.0307 -1.34758,0.1801 -0.74281,0.18659 -1.49095,0.30085 -2.2344,0.48606 -0.84078,0.23247 -1.72809,0.34516 -2.58962,0.46116 -0.83678,0.0742 -1.63262,0.31223 -2.45564,0.45831 -0.81061,0.14443 -1.59642,0.40253 -2.40809,0.54798 -0.85586,0.22965 -1.7375,0.35138 -2.57572,0.65354 -0.88637,0.27048 -1.75039,0.61039 -2.62794,0.90588 -0.74715,0.32674 -1.53428,0.54298 -2.2709,0.8919 -0.51241,0.25077 -0.99043,0.56598 -1.50368,0.81056 -0.35123,0.28148 -0.68638,0.57731 -1.00481,0.89446 -0.32205,0.47665 -0.66756,0.93061 -1.02237,1.38343 -0.34054,0.47426 -0.7325,0.90166 -1.10491,1.35012 -0.35364,0.48468 -0.69974,0.97901 -1.12009,1.40931 -0.37916,0.47656 -0.74372,0.96319 -1.11752,1.44361 -0.35574,0.41308 -0.71989,0.81775 -1.03586,1.26357 -0.34019,0.46389 -0.72999,0.88001 -1.12275,1.29883 -0.38588,0.48894 -0.75453,0.98923 -1.12829,1.48727 -0.4362,0.53071 -0.86803,1.06569 -1.31745,1.5849 -0.49784,0.53348 -1.05411,0.99923 -1.60558,1.47559 -0.53445,0.41911 -1.01349,0.90442 -1.55183,1.31989 -0.44213,0.41953 -0.92446,0.7977 -1.41897,1.15257 -0.44216,0.39533 -0.83171,0.84181 -1.27584,1.23445 -0.39366,0.35049 -0.74068,0.75209 -1.12384,1.114 -0.46423,0.40157 -0.88875,0.84828 -1.36506,1.23716 -0.44311,0.33672 -0.85949,0.7066 -1.29496,1.05157 -0.35192,0.37542 -0.72469,0.73103 -1.09076,1.09205 -0.35452,0.37894 -0.72966,0.73861 -1.10063,1.10083 -0.40225,0.422 -0.83168,0.82121 -1.27968,1.19364 -0.5083,0.45156 -1.06805,0.8353 -1.60257,1.25468 -0.41272,0.29287 -0.80843,0.60828 -1.22985,0.88536 -0.52915,0.48431 -1.11517,0.90632 -1.71998,1.29076 -0.53543,0.40111 -1.04263,0.83175 -1.55713,1.25933 -0.53969,0.49592 -1.13794,0.92698 -1.75141,1.32669 -0.62736,0.47565 -1.21565,0.99809 -1.85967,1.45147 -0.55228,0.36278 -1.04358,0.79487 -1.56647,1.19648 -0.58886,0.39863 -1.156346,0.82899 -1.772326,1.18725 -0.54934,0.41124 -1.09475,0.83658 -1.71017,1.14488 -0.55265,0.3429 -1.09723,0.69534 -1.63744,1.0554 -0.47341,0.33639 -0.95019,0.66185 -1.423074,0.99798 -0.45033,0.36559 -0.96902,0.62014 -1.39452,1.01678 -0.51907,0.35202 -1.02434,0.72803 -1.49377,1.1452 -0.57399,0.41154 -1.12123,0.85827 -1.70394,1.25878 -0.52885,0.41807 -1.10345,0.77429 -1.63281,1.19205 -0.56165,0.34626 -1.0027,0.87209 -1.54954,1.24434 -0.46503,0.32501 -0.86748,0.72432 -1.28982,1.09982 -0.46571,0.44072 -0.97556,0.82937 -1.47867,1.2261 -0.50194,0.24667 -0.82313,0.77711 -1.32725,1.03186 -0.61276,0.46723 -1.26348,0.88899 -1.88392,1.34613 -0.64842,0.46588 -1.33775,0.85302 -2.04085,1.22902 -0.65949,0.4226 -1.33928,0.80585 -2.04179,1.15234 -0.65705,0.38906 -1.32036,0.76526 -1.94402,1.20784 -0.47136,0.27093 -0.8687,0.64716 -1.31651,0.95224 -0.45135,0.21859 -0.71293,0.72093 -1.14732,0.97346 -0.43235,0.37426 -0.91115,0.68102 -1.35536,1.03987 -0.395,0.36317 -0.82766,0.69426 -1.28607,0.97075 -0.53681,0.46245 -1.03348,0.97212 -1.56643,1.43958 -0.71852,0.62767 -1.35174,1.34602 -2.03539,2.01079 -0.52036,0.52044 -1.03151,1.07659 -1.65774,1.47037 -0.42479,0.34351 -0.82448,0.72032 -1.28442,1.01573 -0.47336,0.36423 -0.9486,0.71722 -1.35105,1.16921 -0.52351,0.46462 -1.00382,0.98246 -1.47003,1.50345 -0.37328,0.42718 -0.78288,0.81528 -1.17965,1.2197 -0.45785,0.39953 -0.87314,0.84702 -1.34441,1.23266 -0.53748,0.41373 -1.04519,0.86288 -1.55729,1.30768 -0.38872,0.34648 -0.73138,0.74399 -1.0999,1.11129 -0.4435,0.41175 -0.83436,0.87856 -1.26874,1.30014 -0.44284,0.39567 -0.83322,0.8425 -1.2788,1.23463 -0.38997,0.34501 -0.73512,0.73989 -1.11015,1.10073 -0.41548,0.36856 -0.7888,0.78797 -1.15614,1.20321 -0.40958,0.46499 -0.69841,1.0233 -1.06814,1.5187 -0.35331,0.49386 -0.69808,0.99484 -1.09386,1.45632 -0.34558,0.48481 -0.68356,0.97487 -1.05391,1.44146 -0.31611,0.48726 -0.61027,0.98733 -0.90442,1.48816 -0.31797,0.55894 -0.68085,1.09236 -1.03895,1.62626 -0.30423,0.4176 -0.62728,0.81073 -0.98367,1.18491 -0.35527,0.47354 -0.67337,0.97318 -1.04497,1.43376 -0.43134,0.48352 -0.79162,1.02571 -1.22362,1.50924 -0.35848,0.41654 -0.72499,0.82514 -1.03541,1.28064 -0.377,0.5388 -0.81218,1.0298 -1.19948,1.5609 -0.39118,0.5693 -0.80567,1.123 -1.17412,1.7079 -0.39157,0.5451 -0.7813,1.0961 -1.24643,1.58169 -0.40816,0.3832 -0.76718,0.8177 -1.20451,1.1704 -0.40669,0.4282 -0.84077,0.8328 -1.28997,1.2155 -0.58194,0.5281 -1.22066,0.9868 -1.83667,1.4739 -0.54674,0.3814 -1.0992,0.7492 -1.6718,1.0904 -0.58164,0.3827 -1.225,0.7093 -1.88313,0.9327 -0.6134,0.2389 -1.20919,0.5508 -1.85047,0.6996 -0.84308,0.1939 -1.52972,0.1999 -2.38745,0.07 -0.77452,-0.1206 -1.496,-0.3867 -2.26557,-0.5235 -0.9605,-0.2754 -1.93251,-0.4823 -2.90575,-0.7194 -0.70372,-0.096 -1.40979,-0.1885 -2.10827,-0.319 -0.20122,-0.038 -0.39066,-0.1297 -0.59334,-0.1584 -0.12137,-0.017 -0.24513,0 -0.3677,0 -0.70087,-0.017 -1.40857,-0.034 -2.09472,-0.1924 -0.16283,-0.049 -0.31304,-0.1425 -0.48073,-0.1708 -0.51093,-0.086 -1.05806,0.026 -1.56851,-0.095 -0.7477,-0.107 -1.45014,-0.3547 -2.20313,-0.4134 -0.3411297,-0.062 -0.6760197,-0.1873 -1.0128397,-0.2473 -0.38937,-0.069 -0.80235,-0.02 -1.18875,-0.1239 -0.73904,-0.1432 -1.44856,-0.3657 -2.20263,-0.4381 -0.2178,-0.056 -0.42603,-0.148 -0.64617,-0.1938 -0.50516,-0.1052 -1.0441803,-0.075 -1.5344003,-0.2666 -0.73151,-0.2549 -1.55333,-0.1926 -2.27607,-0.5108 -0.89120001,-0.1013 -1.77013001,-0.3096 -2.67074,-0.2586 0,0 -1.39476,-3.36719 -1.39476,-3.36719 z"
       inkscape:connector-curvature="0" />
    <path
       style="fill:#666666;fill-opacity:1;stroke:none"
       d="m 185.01785,847.14789 c -32.10915,16.12067 -69.4423,22.95173 -95.26785,49.55357 -25.862249,22.2783 -45.470969,50.80733 -73.125,71.33929 -5.734857,3.0363 -14.2994245,15.36808 -2.232143,15.08928 22.004706,5.99513 27.795694,-21.92763 43.303571,-31.25 25.057,-21.51269 52.917442,-40.36535 75.714282,-64.01785 28.04001,-8.2771 57.86909,-14.52939 87.14286,-15.26786 13.3149,5.02976 3.75746,24.02064 11.69643,33.75 10.96647,28.90909 31.00857,53.44947 39.46428,83.48214 12.60007,-2.02701 27.19332,-0.97688 38.75,-5.35714 -7.90608,-37.99695 -16.47686,-76.80243 -30.44643,-112.85714 -22.25094,-15.12697 -49.3973,-21.03315 -72.58928,-34.64286 -7.47024,3.39286 -14.94048,6.78572 -22.41072,10.17857 z"
       id="path3087"
       inkscape:connector-curvature="0" />
  </g>
</svg>
