<?xml version="1.0" encoding="UTF-8" standalone="no"?>
<!-- Created with Inkscape (http://www.inkscape.org/) -->

<svg
   xmlns:dc="http://purl.org/dc/elements/1.1/"
   xmlns:cc="http://creativecommons.org/ns#"
   xmlns:rdf="http://www.w3.org/1999/02/22-rdf-syntax-ns#"
   xmlns:svg="http://www.w3.org/2000/svg"
   xmlns="http://www.w3.org/2000/svg"
   xmlns:sodipodi="http://sodipodi.sourceforge.net/DTD/sodipodi-0.dtd"
   xmlns:inkscape="http://www.inkscape.org/namespaces/inkscape"
   width="128"
   height="446"
   id="svg3017"
   version="1.1"
   inkscape:version="0.48.4 r9939"
   sodipodi:docname="ledge4Hanging4.svg">
  <defs
     id="defs3019" />
  <sodipodi:namedview
     id="base"
     pagecolor="#ffffff"
     bordercolor="#666666"
     borderopacity="1.0"
     inkscape:pageopacity="0.0"
     inkscape:pageshadow="2"
     inkscape:zoom="2.03"
     inkscape:cx="121.69147"
     inkscape:cy="144.82463"
     inkscape:document-units="px"
     inkscape:current-layer="layer1"
     showgrid="false"
     inkscape:window-width="898"
     inkscape:window-height="944"
     inkscape:window-x="848"
     inkscape:window-y="65"
     inkscape:window-maximized="0" />
  <metadata
     id="metadata3022">
    <rdf:RDF>
      <cc:Work
         rdf:about="">
        <dc:format>image/svg+xml</dc:format>
        <dc:type
           rdf:resource="http://purl.org/dc/dcmitype/StillImage" />
        <dc:title />
      </cc:Work>
    </rdf:RDF>
  </metadata>
  <g
     inkscape:label="Layer 1"
     inkscape:groupmode="layer"
     id="layer1"
     transform="translate(0,-606.36218)">
    <path
       style="fill:#000000;fill-opacity:1;stroke:none"
       id="path3115"
       d="m 84.175862,659.61227 c -0.6946,1.05984 -1.2467,2.20048 -1.8995,3.28711 -0.4552,0.91237 -1.0872,1.71649 -1.701,2.52556 -0.4771,0.7532 -1.0318,1.46388 -1.645,2.11195 -0.3839,0.57889 -0.8213,1.12332 -1.2254,1.69208 -0.2522,0.65131 -0.8428,1.10463 -1.112,1.74316 -0.4624,0.66786 -0.7698,1.40322 -1.2613,2.05578 -0.4839,0.71106 -0.9421,1.43485 -1.5001,2.09126 -0.4473,0.70098 -0.9466,1.37108 -1.4967,1.99957 -0.5747,0.60625 -1.0434,1.29496 -1.564,1.9441 -0.4713,0.67729 -1.0476,1.26997 -1.5722,1.906 -0.5649,0.8169 -1.2906,1.47712 -1.9904,2.17438 -0.6184,0.68001 -1.2473,1.35828 -1.8294,2.07086 -0.5793,0.56769 -1.0666,1.22158 -1.5225,1.88963 -0.5594,0.64296 -1.0608,1.33521 -1.5348,2.0421 -0.55,0.58644 -1.0049,1.23336 -1.4862,1.86768 -0.3034,0.67461 -0.744599,1.26349 -1.153699,1.87833 -0.482,0.62623 -1.0719,1.15396 -1.5914,1.74533 -0.509,0.52619 -1.0681,1.00723 -1.5558,1.55356 -0.6999,0.6744 -1.467,1.27215 -2.2353,1.86534 -0.6036,0.48844 -1.1507,1.03715 -1.724,1.55872 -0.5212,0.56949 -0.9326,1.22152 -1.4393,1.80459 -0.5043,0.62699 -1.0543,1.2229 -1.6352,1.78054 -0.5211,0.5832 -0.9412,1.24075 -1.4556,1.83058 -0.5059,0.62568 -1.0562,1.22096 -1.6374,1.77822 -0.4824,0.51189 -0.9968,0.9872 -1.4574,1.52024 -0.477,0.69653 -1.0043,1.36631 -1.5851,1.98071 -0.5107,0.57633 -1.0442,1.13711 -1.605,1.66589 -0.374,0.53334 -0.7896,1.04608 -1.1699,1.58114 -0.237,0.58338 -0.2017,1.24896 -0.2166,1.86931 -0.013,0.98933 0,1.9788 10e-5,2.96817 0,1.0338 0.01,2.06761 0.01,3.10142 6e-4,1.03173 5e-4,2.06346 5e-4,3.0952 -10e-5,1.03093 -10e-5,2.06187 -10e-5,3.0928 0,1.03091 0,2.06183 0,3.09275 0,1.03092 0,2.06185 0,3.09278 -0.1086,0.90141 0.2608,1.69154 0.3872,2.57165 0.116,1.02264 0.1229,2.05331 0.1312,3.08122 0.081,0.67997 -0.1002,1.39855 9e-4,2.0749 0.034,0.22749 0.1635,0.43042 0.2299,0.65063 0.2212,0.96161 0.2463,1.95319 0.2725,2.93532 0.019,1.03825 0.015,2.07675 0.013,3.11512 0.076,0.67679 -0.1044,1.3926 0,2.06571 0.034,0.22678 0.1641,0.42872 0.2309,0.64813 0.2225,0.96087 0.2477,1.95212 0.2741,2.93379 0.019,1.03828 0.015,2.07682 0.013,3.11522 0,1.03236 0,2.06471 0,3.09707 -5e-4,1.03092 -5e-4,2.06183 -5e-4,3.09275 0,1.03091 1e-4,2.06181 1e-4,3.09272 0,1.03092 0,2.06185 0,3.09278 0,1.03092 0,2.06185 0,3.09278 0,1.03093 0,2.06186 0,3.09278 0,1.03093 0,2.06186 0,3.09279 0.1086,1.12179 -0.1371,2.19167 -0.3238,3.28743 -0.025,1.01493 -0.3176,1.95868 -0.5406,2.9378 -0.2318,0.91151 -0.5042,1.79671 -0.6111,2.73843 -0.395,0.87674 -0.4265,1.84106 -0.6941,2.74714 -0.2814,0.91072 -0.3514,1.85984 -0.3922,2.80603 -0.2813,0.88496 -0.438,1.7845 -0.4975,2.70843 0.06,1.05056 -0.1879,2.05105 -0.3639,3.07683 -0.1509,0.96862 -0.1702,1.9502 -0.1849,2.92832 0.099,1.10941 -0.1438,2.16789 -0.3268,3.25194 -0.1512,0.97122 -0.1725,1.95526 -0.1879,2.93603 -0.01,1.01833 -0.01,2.03672 0,3.05508 0,1.03097 0,2.06195 0,3.09292 2e-4,1.03113 2e-4,2.06226 2e-4,3.09338 0,1.03094 0,2.06188 0,3.09282 0,1.03093 0,2.06185 0,3.09278 0,1.03093 0,2.06185 0,3.09278 0,1.03093 0,2.06186 0,3.09279 0,1.03092 0,2.06185 0,3.09278 0,1.03093 0,2.06185 0,3.09278 0,1.03093 0,2.06186 0,3.09279 0,1.03092 0,2.06185 0,3.09278 0,1.03093 0,2.06186 0,3.09278 0,1.15545 0,2.31089 0,3.46633 -0.064,0.72159 0.082,1.4673 0,2.18675 -0.019,0.16246 -0.2058,0.92808 -0.2527,1.12472 -0.2058,0.84987 -0.2321,1.72583 -0.255,2.59555 -0.018,0.99817 -0.013,1.99655 -0.012,2.99482 0,1.03134 0,2.06274 0,3.09414 4e-4,1.0314 4e-4,2.0629 4e-4,3.0943 0,1.031 0,2.062 0,3.0929 0,1.0309 0,2.0618 0,3.0928 0,1.0309 0,2.0618 0,3.0927 0,1.031 0,2.0619 0,3.0928 0,1.031 0,2.0619 0,3.0928 0,1.0309 0,2.0619 0,3.0928 0,1.0309 0,2.0619 0,3.0928 0.053,0.5085 -0.066,1.0396 0,1.5464 0.058,0.4395 0.2312,0.9014 0.3072,1.3449 0.1625,1.0777 0.1888,2.1687 0.2065,3.2565 0.011,1.0437 0.01,2.0875 0,3.1313 0,1.0309 0,2.0618 0,3.0927 -3e-4,1.0307 -3e-4,2.0614 -3e-4,3.0921 0,1.0309 10e-5,2.0619 10e-5,3.0928 0,1.0309 0,2.0618 0,3.0928 0,1.0309 0,2.0618 0,3.0928 0,1.0309 0,2.0618 0,3.0927 0,1.031 0,2.0619 0,3.0928 0,1.0309 0,2.0619 0,3.0928 0,1.0309 0,2.0619 0,3.0928 0.047,1.1505 0.017,2.0508 -0.2543,3.1734 -0.2051,0.8478 -0.2305,1.72186 -0.2534,2.58946 -0.2739,0.8821 -0.4283,1.7775 -0.488,2.6967 -0.045,0.9606 -0.041,1.9226 -0.041,2.884 -0.043,1.0843 -0.3276,2.1445 -0.4333,3.2293 0.028,1.0785 -0.2211,2.1068 -0.406,3.16 -0.1535,0.9662 -0.1721,1.9458 -0.1865,2.9218 0.099,1.0117 -0.2609,1.961 -0.4077,2.9482 0,0.9955 -0.2606,1.9408 -0.438,2.9127 -0.155,0.9584 -0.1718,1.9308 -0.1859,2.8993 -0.034,1.0572 0.089,2.1172 -0.1355,3.1544 -0.2505,0.8562 -0.3211,1.7405 -0.359,2.6266 0.041,1.0604 -0.2755,2.0775 -0.4151,3.122 -0.3927,1.0276 -0.4371,2.1342 -0.7261,3.1829 -0.2486,0.6265 -0.2132,1.31885 -0.3557,1.96365 -0.078,0.3543 -0.2167,0.6926 -0.3229,1.0395 -0.1184,0.8384 -0.5336,1.5748 -0.681,2.4067 -0.199,0.9136 -0.4469,1.807 -0.5447,2.7451 0.028,0.9719 -0.3374,1.8731 -0.4813,2.8228 -0.1014,0.8976 -0.1005,1.8026 -0.1061,2.7047 -0.2508,0.9071 -0.4121,1.8215 -0.4735,2.7594 -0.1115,1.0157 -0.3798,2.0058 -0.481,3.0299 0,1.0638 -0.3238,2.0799 -0.4683,3.1287 -0.1117,0.9727 -0.1166,1.9532 -0.1234,2.9309 0,1.0232 6e-4,2.0463 0,3.0694 0,1.0519 0,2.1038 0,3.1556 10e-5,1.3081 10e-5,2.6162 10e-5,3.9242 0,1.23037 0,2.46067 0,3.69097 0,1.0517 0,2.1034 0,3.155 0,1.0291 0,2.0583 0,3.0874 0,1.0305 0,2.061 0,3.0914 0,1.031 0,2.0619 0,3.0928 0,0.1719 -0.026,0.3456 0,0.5155 0.034,0.2266 0.1754,0.4252 0.2315,0.6474 0.1152,0.4562 0.1586,0.9227 0.2045,1.3894 0.2081,0.9229 -0.1663,2.0053 0.2073,2.8763 0.2936,0.8975 0.3267,1.8523 0.3659,2.7881 0.032,1.0388 0.027,2.0783 0.026,3.1174 -0.1106,0.9032 0.2573,1.6964 0.3831,2.5783 0.1154,1.0226 0.1223,2.0531 0.1306,3.0809 0,1.0362 9e-4,2.0723 -7e-4,3.1085 -0.1101,0.9018 0.2588,1.6929 0.385,2.5734 0.1159,1.0226 0.1228,2.0532 0.1312,3.081 -0.1053,0.9059 0.2612,1.7027 0.3864,2.5878 0.1144,1.0232 0.121,2.0541 0.1292,3.0824 0.4597,0.6849 0.1759,1.6354 0.5924,2.3017 1.8588,0.1191 -1.1817,-1.6536 -2.0591,-2.4392 -0.056,-0.05 0.078,0.1324 0.1382,0.1763 0.2276,0.1652 0.4817,0.1752 0.7491,0.2265 1.0774,0.1231 2.1647,0.1058 3.2474,0.1026 1.0024,-0.01 2.0048,-0.013 3.0073,-0.014 1.0495,-0.1589 2.0943,-0.3306 3.1522,-0.426 1.0547,-0.082 2.113,-0.089 3.1702,-0.095 0.9977,0.062 1.9721,-0.1688 2.9537,-0.3086 1.0678,-0.1442 2.1454,-0.1776 3.2212,-0.1981 0.888,0.067 1.7286,-0.055 2.5942,-0.2253 1.0126,-0.1974 2.0441,-0.2477 3.0726,-0.2801 0.8759,0.061 1.7167,-0.1751 2.5726,-0.3198 1.0261,-0.1582 2.0655,-0.1862 3.101699,-0.2061 1.0348,-0.013 2.0698,-0.01 3.1047,-0.01 1.0313,10e-4 2.0625,0 3.0937,0 1.0309,3e-4 2.0618,3e-4 3.0926,3e-4 1.031,0 2.0619,0 3.0928,0 1.0309,0 2.0619,0 3.0928,0 0.9859,-0.097 1.9284,0.1301 2.8863,0.311 1.0048,0.094 1.9899,0.2469 2.9799,0.4423 1.0377,0.1075 2.0405,0.3921 3.0633,0.5834 0.9705,0.1641 1.9563,0.1884 2.9381,0.2067 1.0933,0.03 2.189,-0.046 3.2769,0.08 0.9779,0.1832 1.9613,0.3136 2.9536,0.3824 1.0111,0.056 2.024101,0.057 3.036401,0.059 1.0305,5e-4 2.060995,0 3.091397,0 1.0312,-9e-4 2.0624,0 3.0936,0 0.6873,-10e-5 0.3437,-10e-5 1.031,-10e-5 0,0 1.9726,4.7623 1.9726,4.7623 l 0,0 c -0.6872,0 -0.3436,0 -1.0309,0 -1.0306,0 -2.0613,0 -3.092,4e-4 -1.0314,5e-4 -2.0627,0 -3.094102,0 -1.049695,0 -2.099595,0.01 -3.149095,-0.014 -1.081501,-0.03 -2.167301,-0.076 -3.232001,-0.2838 -0.2802,-0.062 -0.5485,-0.1813 -0.8332,-0.2178 -0.6805,-0.087 -1.3926,0.071 -2.0758,0 -1.0842,0 -2.17,0 -3.2514,-0.091 -0.5579,-0.057 -1.111,-0.1193 -1.6592,-0.242 -0.3071,-0.069 -0.5959,-0.2082 -0.9041,-0.2714 -0.1814,-0.037 -0.3686,-0.035 -0.5529,-0.053 -0.9906,-0.1314 -1.9223,-0.4589 -2.9237,-0.4607 -0.4666,-0.046 -0.9331,-0.089 -1.3893,-0.2045 -0.2222,-0.056 -0.4208,-0.1971 -0.6474,-0.2316 -0.1698,-0.026 -0.3436,0 -0.5154,0 -1.0309,0 -2.0619,0 -3.0928,0 -1.0309,0 -2.0618,0 -3.0928,0 -1.031,0 -2.0621,0 -3.0932,0 -1.032,-2e-4 -2.0639,-4e-4 -3.0959,0 -1.0251,0 -2.0502,0 -3.0752,0 -0.9359,0 -1.8731,0 -2.8069,0.071 -0.962899,0.097 -1.883899,0.4173 -2.846699,0.4462 -0.9062,0.01 -1.8153,0.01 -2.7167,0.1121 -0.9942,0.1485 -1.9512,0.5095 -2.9704,0.4018 -0.9885,0 -1.9783,0 -2.9644,0.082 -1.0856,0.1062 -2.1465,0.3925 -3.2318,0.4339 -1.0045,-9e-4 -2.0094,-0.01 -3.0136,0.027 -1.0189,0.046 -2.0348,0.1375 -3.0309,0.3689 -1.0815,0.2066 -2.1804,0.1079 -3.2785,0.1361 -1.1673,0.01 -2.3349,0.026 -3.5021,0 -0.3265,-0.012 -1.7217,0.019 -1.949,-0.1472 -2.3199,-1.7001 -3.2293,-1.8649 -3.5899,-4.0012 -0.1087,-0.9718 -0.4201,-1.9132 -0.3937,-2.8978 -0.029,-0.9083 -0.07,-1.8206 -0.2621,-2.7119 -0.2082,-0.9805 -0.2917,-1.9529 -0.2538,-2.9575 -0.03,-0.9074 -0.071,-1.8187 -0.2645,-2.7089 -0.2107,-0.9934 -0.2917,-1.9787 -0.231,-2.9961 6e-4,-1.0193 0,-2.0389 -0.02,-3.058 -0.03,-0.9079 -0.071,-1.8197 -0.2635,-2.7105 -0.2094,-0.9919 -0.29,-1.9756 -0.2329,-2.9913 -0.01,-0.9835 -0.01,-1.9687 -0.092,-2.9493 -0.095,-0.877 -0.3004,-1.729 -0.4319,-2.5997 -0.016,-0.9702 -0.035,-1.945 -0.1981,-2.904 -0.1809,-0.958 -0.4082,-1.9005 -0.311,-2.8864 0,-1.0309 0,-2.0618 0,-3.0928 0,-1.0305 0,-2.061 0,-3.0914 0,-1.0292 0,-2.0583 0,-3.0874 0,-1.0517 0,-2.1033 0,-3.155 0,-1.2303 0,-2.46067 0,-3.69097 0,-1.3078 0,-2.6156 -4e-4,-3.9234 -5e-4,-1.0511 0,-2.1022 0,-3.1532 0,-1.0388 0,-2.0778 0.017,-3.1164 0.032,-1.0899 0.086,-2.1817 0.276,-3.2576 0.1822,-1.0166 0.3644,-2.0261 0.4331,-3.0586 0.1529,-0.9906 0.3981,-1.9659 0.4519,-2.9695 0.1142,-0.8572 0.3491,-1.7016 0.3853,-2.5635 0.031,-1.035 0.079,-2.074 0.2897,-3.091 0.1957,-0.9059 0.3695,-1.8009 0.4328,-2.7284 0.1775,-1.0009 0.4515,-1.977 0.6644,-2.9701 0.2461,-0.8297 0.5477,-1.6382 0.7274,-2.48735 0.2495,-0.952 0.3287,-1.9452 0.6146,-2.8912 0.1737,-1.0118 0.4215,-2.0041 0.633,-3.0072 0.1655,-0.9776 0.3239,-1.9454 0.3278,-2.9407 0.093,-0.9318 0.2667,-1.8467 0.4264,-2.768 -0.033,-0.9703 0,-1.9426 0.024,-2.9128 0.05,-1.0958 0.1352,-2.1915 0.3624,-3.2671 0.1903,-0.9544 0.2642,-1.9161 0.4191,-2.8765 0.1722,-0.8719 0.2981,-1.7217 0.25,-2.6164 0.049,-1.0942 0.1351,-2.1878 0.3495,-3.2639 0.1841,-1.0046 0.2331,-2.0136 0.3398,-3.0287 0.1396,-0.9834 0.3696,-1.9594 0.3112,-2.9588 0.011,-1.0398 0.023,-2.0822 0.1445,-3.1163 0.1184,-0.8627 0.3551,-1.7064 0.4301,-2.57066 0.07,-0.9848 0.1944,-1.9622 0.4173,-2.9254 0.1231,-0.8965 -0.01,-1.8156 0.039,-2.7186 0,-1.031 0,-2.0619 0,-3.0928 0,-1.031 0,-2.0619 0,-3.0928 0,-1.0309 0,-2.0619 0,-3.0928 0,-1.0309 0,-2.0618 0,-3.0928 0,-1.0309 0,-2.0618 0,-3.0928 0,-1.0309 0,-2.0618 0,-3.0927 0,-1.031 0,-2.0619 0,-3.0929 0,-1.0311 1e-4,-2.0622 7e-4,-3.0933 8e-4,-1.031 0,-2.062 0,-3.0929 -4e-4,-1.0182 0,-2.0367 -0.036,-3.0543 -0.047,-0.9824 -0.1316,-1.9627 -0.3235,-2.9291 -0.1802,-1.0935 -0.1812,-2.1877 -0.1597,-3.2942 0,-1.031 0,-2.0619 0,-3.0928 0,-1.031 0,-2.0619 0,-3.0928 0,-1.0309 0,-2.0619 0,-3.0928 0,-1.0309 0,-2.0618 0,-3.0928 0,-1.0309 0,-2.0618 0,-3.0928 0,-1.0309 0,-2.0618 0,-3.0927 10e-5,-1.0309 10e-5,-2.0619 0,-3.0928 -1e-4,-1.0309 -2e-4,-2.0618 0,-3.0927 -9e-4,-1.03233 0,-2.06463 0,-3.09693 0,-1.03776 0,-2.07631 0.062,-3.11275 0.071,-0.98474 0.1954,-1.96183 0.4157,-2.92547 0.1275,-0.94438 -0.01,-1.91177 0.041,-2.86255 0,-1.15545 0,-2.31089 0,-3.46633 0,-1.03093 0,-2.06186 0,-3.09279 0,-1.03092 0,-2.06185 0,-3.09278 0,-1.03093 0,-2.06185 0,-3.09278 0,-1.03093 0,-2.06186 0,-3.09279 0,-1.03092 0,-2.06185 0,-3.09278 0,-1.03093 0,-2.06186 0,-3.09278 0,-1.03093 0,-2.06186 0,-3.09279 0,-1.03093 0,-2.06186 0,-3.09279 0,-1.03091 0,-2.06183 0,-3.09275 0,-1.03072 -10e-5,-2.06145 -7e-4,-3.09218 -8e-4,-1.03088 0,-2.06176 0,-3.09264 3e-4,-1.04354 0,-2.08742 0.036,-3.13045 0.05,-1.08896 0.1357,-2.17662 0.3363,-3.24971 0.1618,-0.97588 0.1719,-1.94776 0.1777,-2.93664 0.049,-1.09211 0.1335,-2.18343 0.3417,-3.25851 0.171,-0.96971 0.2009,-1.94042 0.2861,-2.92064 0.1226,-0.8861 0.3618,-1.74928 0.4633,-2.63515 0.1076,-1.0809 0.2912,-2.14811 0.5901,-3.19411 0.1511,-0.86425 0.403,-1.69935 0.5902,-2.55362 0.1915,-0.98477 0.4947,-1.93736 0.7067,-2.91712 0.2306,-0.91638 0.3021,-1.84892 0.4563,-2.78092 0.1598,-0.96343 0.172,-1.92147 0.1431,-2.89813 0,-1.03093 0,-2.06185 0,-3.09278 0,-1.03093 0,-2.06186 0,-3.09278 0,-1.03093 0,-2.06186 0,-3.09279 0,-1.03092 0,-2.06184 0,-3.09276 0,-1.03095 0,-2.06191 0,-3.09286 10e-5,-1.03144 3e-4,-2.06289 0,-3.09433 9e-4,-1.03143 0,-2.06286 0,-3.09428 0,-0.99895 0,-1.99877 -0.061,-2.99635 -0.067,-0.87156 -0.1968,-1.7307 -0.3951,-2.5826 -0.1274,-1.05529 -0.03,-2.12287 -0.06,-3.18394 0,-0.99918 0,-1.99923 -0.06,-2.99707 -0.066,-0.87211 -0.1953,-1.73202 -0.3933,-2.58453 -0.1265,-1.04328 -0.029,-2.09845 -0.082,-3.14728 -0.03,-0.90711 -0.071,-1.81826 -0.265,-2.70808 -0.2113,-0.9922 -0.2933,-1.97644 -0.2338,-2.99293 0,-1.03093 0,-2.06185 0,-3.09278 0,-1.03093 0,-2.06186 0,-3.09278 1e-4,-1.0309 1e-4,-2.06179 1e-4,-3.09268 -1e-4,-1.03082 -2e-4,-2.06163 0,-3.09245 0,-1.03282 0,-2.06564 -0.01,-3.09845 -6e-4,-1.04752 -0.01,-2.09695 0.075,-3.14195 0.1202,-1.09899 0.3354,-2.18162 1.0023,-3.0952 0.4941,-0.64773 0.9441,-1.33371 1.5002,-1.92982 0.5335,-0.47619 1.0045,-1.02383 1.4877,-1.54939 0.5609,-0.58327 1.0115,-1.26289 1.5077,-1.89971 0.5204,-0.59315 1.0926,-1.13055 1.6354,-1.70168 0.5313,-0.4835 0.9953,-1.04302 1.4555,-1.59257 0.5639,-0.65675 1.011,-1.40983 1.6365,-2.01522 0.5301,-0.483 0.9926,-1.04225 1.4507,-1.59199 0.5716,-0.66903 1.0247,-1.43719 1.6735,-2.04078 0.638,-0.55378 1.2173,-1.17372 1.8804,-1.70066 0.6597,-0.4848 1.2901,-1.00717 1.9036,-1.54948 0.4968,-0.5281 1.024,-1.02704 1.5393,-1.53634 0.4554,-0.49331 0.9425,-0.95569 1.3591,-1.4842 0.442,-0.63032 0.7935,-1.30924 1.2158,-1.9517 0.4492,-0.62903 0.9309,-1.2211 1.4347,-1.80706 0.4998,-0.70059 0.9864,-1.41269 1.5522,-2.06281 0.517699,-0.70799 1.026199,-1.43083 1.657999,-2.04366 0.6475,-0.75936 1.3037,-1.51446 1.9899,-2.23845 0.6429,-0.64015 1.3049,-1.23811 1.8193,-1.99512 0.5141,-0.61952 1.0726,-1.20188 1.5339,-1.86354 0.5348,-0.69111 1.0611,-1.38436 1.6463,-2.03424 0.5375,-0.62298 0.978,-1.31183 1.4687,-1.96943 0.511,-0.61609 0.9054,-1.31723 1.3826,-1.95875 0.3918,-0.57894 0.6504,-1.23735 1.0603,-1.80601 0.4214,-0.67979 0.9213,-1.30673 1.3207,-2.002 0.4859,-0.63987 0.9246,-1.3149 1.4425,-1.92879 0.5521,-0.57227 0.9932,-1.24299 1.4446,-1.8945 0.5523,-0.7369 1.1041,-1.47455 1.5175,-2.30224 0.6385,-1.09937 1.2136,-2.23526 1.9096,-3.30004 0,0 4.0629,3.17223 4.0629,3.17223 z"
       inkscape:connector-curvature="0" />
    <path
       style="fill:#000000;fill-opacity:1;stroke:none"
       id="path3119"
       d="m 81.197562,654.3058 c 1.3447,0.0267 2.6755,0.26245 4.0144,0.38617 1.1524,0.0173 2.2743,0.26734 3.4067,0.44794 0.9634,0.0872 1.8637,0.4372 2.8189,0.57917 0.9417,0.31423 1.9363,0.39186 2.8929,0.62732 0.87,0.12862 1.6131,0.60161 2.458101,0.79821 0.7026,0.37386 1.4776,0.50127 2.1993,0.82252 0.794295,0.27627 1.634497,0.45182 2.398297,0.81434 0.7677,0.43048 1.6298,0.65525 2.4269,1.01688 0.7829,0.26377 1.4616,0.7486 2.2626,0.95203 0.7715,0.27486 1.4907,0.67672 2.2684,0.92364 0.661,0.45871 1.4772,0.60212 2.1145,1.09359 0.4623,0.0374 0.5263,0.45252 0.8213,0.67213 0.3083,0.22944 0.7283,0.45991 1.0708,0.63584 0.078,0.0743 0.1464,0.16001 0.2338,0.22291 0.129,0.0928 0.2853,0.14432 0.4112,0.24136 0.1959,0.079 0.2035,0.33051 0.3536,0.44695 0.4882,0.25763 0.2833,0.11001 0.6321,0.41743 2.5453,1.17164 3.9111,3.11411 3.5893,5.64397 -0.1696,1.14936 -0.4455,2.30425 -0.9081,3.37167 -0.3106,0.48038 -0.2972,1.05531 -0.4429,1.58015 -0.089,0.31901 -0.2316,0.62037 -0.3397,0.93328 -0.2419,0.81502 -0.6516,1.57355 -1.0305,2.33284 -0.2641,0.80898 -0.4663,1.64567 -0.8136,2.42469 -0.2598,0.87481 -0.759,1.63662 -1.1562,2.45039 -0.4779,0.84369 -0.8757,1.74808 -1.1476,2.68038 -0.4442,0.90832 -0.7529,1.86784 -1.1934,2.77802 -0.4544,0.96481 -0.8729,1.94184 -1.249,2.94047 -0.2883,0.9195 -0.7118,1.78966 -1.129,2.65614 -0.3177,0.82144 -0.649,1.62838 -1.004,2.43473 -0.177,0.7682 -0.5695,1.44584 -0.707,2.22617 -0.3559,0.79215 -0.5644,1.61319 -0.8781,2.41991 -0.2799,0.87126 -0.6213,1.71464 -0.9849,2.55427 -0.2371,0.81148 -0.5245,1.61418 -0.8658,2.39025 -0.2216,0.86271 -0.5705,1.68034 -0.8057,2.53899 -0.2957,0.89757 -0.7317,1.74143 -1.0181,2.64044 -0.4019,0.75561 -0.7812,1.53675 -1.0145,2.36286 -0.025,0.13011 -0.035,0.26408 -0.075,0.39033 -0.1026,0.32212 -0.2671,0.62212 -0.3719,0.94353 -0.1369,0.41997 -0.2014,0.8297 -0.3507,1.2501 -0.305602,0.99464 -0.551402,2.01958 -0.973302,2.97208 -0.249695,0.81324 -0.616395,1.58469 -0.848995,2.40311 -0.3017,0.88011 -0.4308,1.8235 -0.7585,2.69393 -0.3243,0.90614 -0.595,1.83306 -0.9531,2.72667 -0.3039,0.94007 -0.651501,1.86904 -1.056801,2.77117 -0.3137,0.87614 -0.6505,1.74644 -1.0373,2.59429 -0.3202,0.87099 -0.6296,1.76017 -1.0746,2.57626 -0.2566,0.70629 -0.5915,1.3888 -0.7962,2.11554 -0.388,0.74643 -0.7532,1.51712 -0.9805,2.32963 -0.3184,0.81369 -0.7955,1.56504 -1.0725,2.39255 -0.021,0.10178 -0.026,0.20784 -0.061,0.30533 -0.6676,1.82406 0.1261,-0.58902 -0.373,0.83859 -0.14,0.40032 -0.1877,0.73765 -0.3635,1.13735 -0.3358,0.8335 -0.5669,1.71049 -0.9536,2.52133 -0.2508,0.78018 -0.6053,1.52418 -0.8288,2.3139 -0.3581,0.89688 -0.7169,1.80309 -0.9664,2.73811 -0.1964,0.93948 -0.5897,1.82617 -0.9857,2.69595 -0.2931,0.74662 -0.6913,1.44819 -1.0571,2.163 -0.2422,0.81339 -0.7688,1.49358 -1.0725,2.27882 -0.3175,0.71061 -0.9606,1.24038 -1.1377,2.00733 -0.4006,0.7373 -0.7856,1.48849 -1.2479,2.18699 -0.3525,0.72717 -0.9125,1.33552 -1.2325,2.07649 -0.4558,0.70341 -0.797,1.45877 -1.2394,2.17314 -0.3722,0.75545 -0.6967,1.52991 -1.059,2.29093 -0.2475,0.82499 -0.7017,1.55745 -0.875,2.40562 -0.2734,0.80262 -0.7231,1.53393 -0.9819,2.33838 -0.019,0.10123 -0.024,0.20673 -0.059,0.3037 -0.1133,0.2422 -0.28,0.5778 -0.3717,0.84078 -0.1397,0.40111 -0.1878,0.73844 -0.3639,1.13876 -0.3249,0.69832 -0.3466,1.46592 -0.3769,2.22121 0.052,0.91891 -0.1834,1.90441 0.1,2.79057 0.2324,1.11738 0.6362,2.1922 0.9921,3.27631 0.2372,1.10127 0.7031,2.13822 1.0674,3.2033 0.2993,1.0335 0.694,2.03496 1.0319,3.05782 0.047,0.18947 0.078,0.38342 0.14,0.56842 0.5066,1.51005 -0.1126,-0.72719 0.3749,0.9756 0.1551,0.54178 0.2122,1.07178 0.4176,1.59793 0.1727,0.33757 0.144,0.73165 0.2709,1.08065 0.043,0.11924 0.1513,0.20667 0.2004,0.32365 0.2219,0.52799 0.2935,1.14038 0.3863,1.69986 0.3613,0.66008 0.3276,1.44069 0.5313,2.13992 0.076,0.26193 0.2337,0.49395 0.3267,0.75043 0.2755,0.6435 0.1479,1.37753 0.2985,2.03827 0.052,0.22724 0.1948,0.42454 0.2679,0.64586 0.2362,0.97731 0.257,1.98865 0.2809,2.98884 0.1451,0.92979 -0.2331,2.0151 0.1314,2.89326 0.2915,0.89376 0.3257,1.84386 0.3655,2.77559 0.091,0.68387 -0.062,1.39768 0.028,2.07913 0.038,0.28657 0.1566,0.5568 0.2192,0.839 0.2074,1.0676 0.2522,2.15611 0.2817,3.24036 0.3765,0.81294 0.4266,1.72223 0.4835,2.60292 -0.063,0.90922 0.3087,1.70202 0.4346,2.59218 0.1139,1.02642 0.1193,2.0606 0.1267,3.09205 0.3208,0.96464 0.3984,1.98811 0.4639,2.99624 0.054,1.06567 0.052,2.1331 0.053,3.19982 -2e-4,0.1732 -0.026,0.34829 -5e-4,0.51958 0.034,0.22767 0.1741,0.42786 0.2299,0.6512 0.1141,0.45648 0.157,0.92302 0.2026,1.38981 0.1216,0.67694 -0.019,1.38816 0.077,2.06397 0.041,0.28679 0.1611,0.55693 0.2248,0.83953 0.201,0.7278 0.1367,1.49557 0.2407,2.23319 0.052,0.36775 0.1718,0.7228 0.2454,1.08682 0.2225,1.16096 0.282,2.34233 0.3139,3.52115 0.3676,0.8241 0.4244,1.73455 0.4815,2.62268 0.05,1.03662 0.047,2.07481 0.047,3.11234 0,1.03347 0,2.06693 0,3.1004 0.067,0.67859 -0.089,1.38641 -10e-4,2.06226 0.037,0.28472 0.1566,0.55283 0.2194,0.83302 0.2094,1.06504 0.2553,2.15134 0.2856,3.23344 0.02,1.0496 0.016,2.0996 0.014,3.1494 0,1.0314 0,2.0627 0,3.0941 0.1273,0.92 -0.2436,2.0005 0.1224,2.8675 0.295,0.8915 0.3292,1.8409 0.3694,2.7714 0.033,1.0386 0.029,2.0778 0.028,3.1168 0,1.033 0,2.0661 0,3.0991 -7e-4,1.031 -7e-4,2.062 -7e-4,3.0929 0,1.0309 0,2.0618 0,3.0927 0,1.031 0,2.0619 0,3.0928 -0.2406,0.9204 -0.4123,1.8439 -0.4762,2.7926 -0.047,0.96 -0.044,1.9216 -0.044,2.8825 0,1.0283 0,2.0566 0,3.0849 9e-4,1.0318 10e-4,2.0636 10e-4,3.0954 1e-4,1.031 1e-4,2.0621 1e-4,3.0931 -1e-4,1.0309 -1e-4,2.0618 -1e-4,3.0927 0,1.031 0,2.0619 0,3.0928 -0.077,0.9965 0.2494,1.9306 0.3771,2.9136 0.1198,1.0784 0.1319,2.1646 0.1412,3.2484 0.064,0.5131 -0.075,1.0562 0,1.567 0.051,0.3426 0.2453,0.7255 0.3175,1.0756 0.1617,1.0011 0.1767,2.0179 0.1922,3.0296 0.3763,0.7977 0.4182,1.6989 0.474,2.5653 0.3012,0.5901 0.2695,1.2702 0.4225,1.8954 0.076,0.3106 0.2133,0.6033 0.2993,0.9112 0.2663,1.09596 0.3159,2.22546 0.3472,3.34796 0.3259,0.9814 0.4094,2.0199 0.4752,3.0455 -0.01,1.1351 0.2862,2.2286 0.4188,3.3538 0.1204,1.1394 0.1361,2.2858 0.1451,3.4304 0.072,0.6892 -0.088,1.4075 3e-4,2.094 0.037,0.2848 0.1555,0.5532 0.2179,0.8335 0.208,1.0641 0.2533,2.1493 0.2833,3.2302 0.02,1.0494 0.016,2.0991 0.014,3.1487 0,1.0314 0,2.0628 0,3.0942 -4e-4,1.0306 -4e-4,2.0613 -4e-4,3.092 0,1.0309 0,2.0618 0,3.0927 0,1.0309 0,2.0618 0,3.0928 0,1.0309 0,2.0618 0,3.0928 0.088,0.97045 -0.1765,2.01145 0.1162,2.94935 0.2592,1.0314 0.3268,2.0957 0.3737,3.154 0.01,0.1802 -0.015,0.3629 0.015,0.5405 0.041,0.2362 0.1849,0.4442 0.2436,0.6765 0.1173,0.4644 0.1614,0.9389 0.2075,1.414 -0.073,0.471 0.1855,0.7206 0.2998,1.1409 0.039,0.1438 0.034,0.3013 0.096,0.4369 0.037,0.082 0.1415,0.1147 0.1909,0.1895 0.069,0.1042 0.1053,0.2263 0.1579,0.3395 0.1654,0.2883 0.1017,0.638 0.2153,0.9379 0.034,0.09 0.1347,0.1409 0.1819,0.2249 0.2234,0.398 0.2757,0.8827 0.3492,1.323 -0.055,0.4825 0.226,0.7178 0.3477,1.145 0.042,0.1476 0.038,0.3095 0.1019,0.449 0.038,0.083 0.1432,0.1176 0.193,0.194 0.07,0.107 0.1064,0.232 0.1597,0.3479 0.042,0.1497 0.054,0.3113 0.1252,0.4492 0.042,0.082 0.1364,0.1235 0.2047,0.1853 0.057,0.1187 0.1249,0.2327 0.1709,0.3561 0.1677,0.4498 0.1934,0.8941 0.3982,1.3311 0.2207,1.0286 0.5576,2.0174 0.7743,3.0463 0.1515,0.9001 0.578601,1.7284 0.876901,2.592 0.1614,0.3414 0.1137,0.7332 0.2279,1.0846 0.037,0.1129 0.1319,0.1984 0.1828,0.3057 0.2072,0.4377 0.2784,0.915 0.358,1.387 0.1062,0.3426 0.018,0.7123 0.096,1.0575 0.023,0.102 0.1061,0.181 0.146,0.2777 0.1708,0.4135 0.2236,0.8603 0.287,1.2987 0.6037,0.6203 0.2935,1.6141 0.7181,2.2871 0.314395,0.5554 0.2001,1.2285 0.360395,1.8151 0.06,0.2196 0.2109,0.4051 0.2872,0.6195 0.2506,0.9818 0.2717,2.0016 0.2964,3.00887 0,0.1743 -0.021,0.3508 0.01,0.5228 0.038,0.2287 0.1799,0.4292 0.2357,0.6542 0.114402,0.4613 0.156602,0.933 0.201602,1.4046 0.082,0.336 -0.013,0.6919 0.054,1.0287 0.045,0.2252 0.1948,0.4186 0.2527,0.6407 0.09,0.3436 0.1098,0.5592 0.1608,0.9137 0.096,0.3297 0.01,0.685 0.082,1.0164 0.051,0.2226 0.2068,0.4107 0.2664,0.6311 0.093,0.3429 0.1145,0.5668 0.1666,0.9209 0.017,0.1685 0.01,0.3422 0.05,0.5055 0.06,0.218 0.2241,0.3973 0.2866,0.6145 0.1275,0.4431 0.1414,0.8542 0.3369,1.2756 0.2346,0.4786 0.1847,1.0432 0.3358,1.5388 0.034,0.1128 0.127,0.1996 0.1762,0.3067 0.1469,0.3202 0.1788,0.5235 0.2644,0.869 0.1937,0.954 0.557,1.8654 0.8553,2.7938 0.2216,0.5414 0.1603,1.1551 0.3023,1.7095 0.03,0.1185 0.1163,0.2159 0.1625,0.3293 0.1381,0.3385 0.1607,0.5084 0.2437,0.8702 0.026,0.1672 0.024,0.3414 0.078,0.5017 0.032,0.094 0.116,0.1624 0.174,0.2435 0.048,0.1209 0.1045,0.2386 0.1435,0.3625 0.1326,0.4214 0.095,0.8159 0.3692,1.1705 0.2625,0.3876 0.1909,0.8922 0.3391,1.309 0.032,0.091 0.1306,0.1446 0.1766,0.2295 0.1406,0.2593 0.1872,0.5333 0.2576,0.8162 0.027,0.166 0.025,0.3394 0.082,0.4979 0.032,0.091 0.1177,0.1538 0.1765,0.2307 0.048,0.1215 0.1057,0.2397 0.145,0.3644 0.1501,0.4764 0.1966,0.9748 0.2498,1.4684 0.477,0.7612 0.4949,1.7217 0.5521,2.5946 -0.064,0.9141 0.3057,1.7139 0.431,2.609 0.1445,0.6708 0.013,1.3801 0.1144,2.0515 0.043,0.2869 0.1647,0.5569 0.2295,0.8398 0.2127,1.0712 0.256,2.1646 0.2847,3.2532 0.019,1.0502 0.014,2.1006 0.012,3.1508 -0.029,1.069 0.092,2.1426 -0.1373,3.1909 -0.2271,0.5565 -0.1775,1.182 -0.3142,1.7532 -0.08,0.3345 -0.2212,0.6514 -0.3284,0.9783 -0.224,0.7852 -0.2321,1.6079 -0.252,2.418 -0.012,0.6568 -0.01,1.3138 -0.01,1.9707 0,0 -4.7576,-1.984 -4.7576,-1.984 l 0,0 c 0.01,-0.6951 0.014,-1.3906 0.059,-2.0846 0.079,-1.0085 0.2114,-2.0124 0.5415,-2.974 0.2147,-0.7717 0.2863,-1.5837 0.4441,-2.3689 -0.032,-0.9567 0.01,-1.9149 -0.01,-2.872 0,-1.0134 0,-2.0275 -0.057,-3.0398 -0.067,-0.9812 -0.1927,-1.9545 -0.4019,-2.9165 -0.1454,-0.9644 -0.1093,-1.9504 -0.3398,-2.9042 -0.2125,-0.9169 -0.3171,-1.8275 -0.3791,-2.7664 -0.1498,-0.8299 -0.4981,-1.5968 -0.6051,-2.4338 -0.2204,-0.7524 -0.5771,-1.4572 -0.7457,-2.2237 -0.3224,-0.7351 -0.4504,-1.5224 -0.797102,-2.2506 -0.1714,-0.8575 -0.5661,-1.6458 -0.7078,-2.513 -0.293095,-0.916 -0.378695,-1.8775 -0.742595,-2.7738 -0.3191,-0.9417 -0.5505,-1.9113 -0.8388,-2.8611 -0.324,-0.8865 -0.4558,-1.8192 -0.7779,-2.7084 -0.1771,-0.8857 -0.5172,-1.7271 -0.6084,-2.6314 -0.234501,-0.8594 -0.374201,-1.7155 -0.506901,-2.5952 -0.2232,-0.8966 -0.3437,-1.7878 -0.4274,-2.7077 -0.1774,-0.9267 -0.4137,-1.83667 -0.3687,-2.79097 -0.067,-0.8168 -0.1818,-1.624 -0.4906,-2.3898 -0.225,-0.8168 -0.3077,-1.6698 -0.6411,-2.4608 -0.1284,-0.8754 -0.5194,-1.6478 -0.6539,-2.5195 -0.2323,-0.8398 -0.371,-1.681 -0.5599,-2.5286 -0.2998,-0.8349 -0.5407,-1.6759 -0.8353,-2.5111 -0.3534,-0.9258 -0.6001,-1.8847 -0.8124,-2.8507 -0.2754,-0.9313 -0.4542,-1.8879 -0.8395,-2.7839 -0.2188,-0.7614 -0.6906,-1.4007 -0.9331,-2.1551 -0.3441,-0.8101 -0.4837,-1.6916 -0.7107,-2.5366 -0.2925,-0.7083 -0.5261,-1.4207 -0.8313,-2.1199 -0.342,-0.8782 -0.4571,-1.8267 -0.5737,-2.7562 -0.1846,-0.9319 -0.4309,-1.8466 -0.4038,-2.8074 -0.098,-1.0174 -0.2913,-2.0183 -0.4178,-3.0316 -0.012,-1.07875 -0.01,-2.15755 -0.01,-3.23625 0,-1.031 0,-2.0619 0,-3.0928 0,-1.0309 0,-2.0619 0,-3.0928 0,-1.0309 -1e-4,-2.0619 0,-3.0928 10e-5,-1.0312 2e-4,-2.0624 0,-3.0936 9e-4,-1.0305 0,-2.061 0,-3.0915 0,-1.0122 0,-2.0252 -0.059,-3.0362 -0.069,-0.9912 -0.1987,-1.9736 -0.3823,-2.9504 -0.1269,-1.0879 -0.051,-2.1839 -0.092,-3.2772 -0.031,-1.0539 -0.085,-2.1084 -0.2484,-3.1515 -0.1749,-1.148 -0.3297,-2.2917 -0.3842,-3.4528 -0.1333,-1.0506 -0.3999,-2.0827 -0.4388,-3.1432 -0.077,-0.9627 -0.2197,-1.91576 -0.5126,-2.83966 -0.2652,-1.0466 -0.4633,-2.1241 -0.6013,-3.1935 -0.1368,-0.9132 -0.4319,-1.8044 -0.4102,-2.7354 -0.045,-0.8829 -0.1185,-1.7652 -0.3327,-2.626 -0.1992,-1.018 -0.1456,-2.043 -0.1668,-3.0761 -0.031,-0.9829 -0.082,-1.9671 -0.2551,-2.9371 -0.1857,-1.0865 -0.312,-2.1662 -0.2439,-3.2721 0,-1.0309 0,-2.0618 0,-3.0928 0,-1.0309 0,-2.0618 0,-3.0927 0,-1.0309 0,-2.0618 -2e-4,-3.0927 -2e-4,-1.0311 -7e-4,-2.0621 0,-3.0932 0,-1.0339 0,-2.0679 0,-3.1018 0.012,-1.0384 0.026,-2.0792 0.1468,-3.1119 0.1144,-0.8507 0.3536,-1.6922 0.3678,-2.5489 0,-1.0309 0,-2.0618 0,-3.0927 0,-1.031 0,-2.062 1e-4,-3.093 2e-4,-1.0316 4e-4,-2.0632 0,-3.0949 0,-1.0303 0,-2.0606 6e-4,-3.091 -0.01,-0.9824 -0.01,-1.9665 -0.095,-2.946 -0.097,-0.8834 -0.3075,-1.7425 -0.4222,-2.6225 -8e-4,-1.0649 -2e-4,-2.1298 6e-4,-3.1948 9e-4,-1.0304 0,-2.0609 0,-3.0914 0,-1.0122 0,-2.0251 -0.06,-3.0361 -0.069,-0.99197 -0.2003,-1.97497 -0.3849,-2.95235 -0.1281,-1.09301 -0.056,-2.19465 -0.072,-3.29337 0,-1.02842 0,-2.05686 0,-3.08527 -0.01,-0.95974 -0.018,-1.92256 -0.1371,-2.87635 -0.1395,-0.92194 -0.4356,-1.82032 -0.4305,-2.75986 -0.073,-1.07503 -0.2094,-2.14229 -0.4267,-3.19845 -0.1788,-1.10607 -0.2362,-2.22995 -0.4842,-3.32624 -0.1382,-0.99567 -0.089,-2.00789 -0.2706,-3.00002 -0.1789,-0.95537 -0.4044,-1.89563 -0.3134,-2.87848 -0.011,-0.99793 -0.024,-1.99783 -0.1333,-2.99089 -0.1318,-1.05832 -0.3966,-2.1028 -0.3963,-3.17317 -0.028,-0.90388 -0.065,-1.8132 -0.2671,-2.69832 -0.2153,-0.92135 -0.3218,-1.83616 -0.3716,-2.78134 -0.1396,-0.91579 -0.4387,-1.80721 -0.4324,-2.74074 -0.068,-0.99118 -0.1959,-1.97389 -0.3844,-2.94979 -0.1292,-1.04425 -0.062,-2.0987 -0.168,-3.14614 -0.096,-0.88436 -0.3036,-1.74493 -0.4187,-2.62566 0,-1.03357 0,-2.06814 -0.056,-3.10042 -0.065,-0.83348 -0.18,-1.65737 -0.4551,-2.4513 -0.1958,-0.85449 -0.2165,-1.74834 -0.5978,-2.55871 -0.3094,-1.02955 -0.4961,-2.10088 -0.7933,-3.13563 -0.2933,-0.98034 -0.6568,-1.93315 -0.9054,-2.92805 -0.2388,-1.036 -0.636,-2.02199 -0.9587,-3.03326 -0.367,-1.00429 -0.6659,-2.03286 -1.0369,-3.03578 -0.401,-1.0742 -0.7086,-2.17995 -1.0513,-3.27289 -0.3967,-1.22322 -0.7241,-2.48078 -0.8499,-3.76309 -0.01,-1.09218 -0.01,-2.18685 0.096,-3.27531 0.1189,-0.98362 0.3221,-1.94669 0.7285,-2.85663 0.214,-0.78613 0.5487,-1.52539 0.8037,-2.29765 0.3072,-0.70071 0.6293,-1.39678 0.8527,-2.13049 0.3154,-0.92765 0.7261,-1.82 1.0837,-2.73169 0.3722,-0.85913 0.7879,-1.70139 1.2317,-2.52516 0.3899,-0.6748 0.7324,-1.37408 1.1384,-2.03948 0.4328,-0.76429 0.9313,-1.48931 1.3671,-2.25263 0.3351,-0.59051 0.7091,-1.16153 0.9631,-1.79373 0.3492,-0.74134 0.8364,-1.38484 1.2086,-2.11276 0.3948,-0.80003 0.8122,-1.5872 1.1646,-2.40807 0.357,-0.66142 0.6759,-1.34456 0.9673,-2.03716 0.3483,-0.77525 0.5834,-1.5962 0.8048,-2.41536 0.3148,-0.94212 0.6554,-1.87547 1.0068,-2.80435 0.314,-0.83215 0.5856,-1.67881 0.9452,-2.49306 0.2893,-0.81386 0.5884,-1.62388 0.8941,-2.43175 0.2174,-0.79574 0.5568,-1.54388 0.8248,-2.32234 0.3394,-0.749 0.7008,-1.48862 0.9878,-2.26037 0.3004,-0.79456 0.6498,-1.56835 0.9902,-2.34535 0.3138,-0.80683 0.5919,-1.62982 0.9882,-2.40108 0.3404,-0.81343 0.6715,-1.62864 0.9875,-2.45168 0.3416,-0.86075 0.7069,-1.71069 1.0274,-2.57968 0.344,-0.88917 0.7038,-1.7701 0.9959,-2.67845 0.2948,-0.87842 0.6175,-1.74662 0.8934,-2.63145 0.2136,-0.91962 0.496,-1.81809 0.7743,-2.71962 0.3149,-0.83912 0.5863,-1.6915 0.9249,-2.52183 0.3038,-0.93503 0.5921,-1.87424 0.8744,-2.81592 0.2365,-0.88987 0.568401,-1.74534 0.825201,-2.62897 0.3136,-0.82031 0.679,-1.61784 1.0469,-2.41434 0.338,-0.83836 0.6698,-1.67745 0.9535,-2.53648 0.3128,-0.90529 0.560195,-1.8303 0.919795,-2.71891 0.2952,-0.81445 0.598102,-1.62485 0.897302,-2.4372 0.3488,-0.80523 0.6122,-1.64476 0.9252,-2.46438 0.2699,-0.71115 0.4594,-1.45448 0.7243,-2.16755 0.2735,-0.87502 0.6157,-1.72872 0.9337,-2.58772 0.3704,-0.82774 0.6575,-1.69086 1.055,-2.50758 0.3947,-0.80517 0.71,-1.64835 1.0159,-2.49055 0.4203,-1.03113 0.8526,-2.05503 1.3305,-3.0611 0.3619,-0.84442 0.6962,-1.70065 1.0438,-2.55069 0.3833,-1.02895 0.8153,-2.0429 1.361,-2.99749 0.3889,-0.72971 0.7533,-1.46415 1.0176,-2.25036 0.2797,-0.88301 0.5471,-1.77749 0.9455,-2.6154 0.3332,-0.64754 0.6154,-1.32376 0.8222,-2.02242 0.2828,-0.86816 0.439,-1.77831 0.8424,-2.60771 0.2469,-0.8221 0.5116,-1.65813 0.4645,-2.52729 -0.1106,-0.22105 -0.1833,-0.48927 -0.3993,-0.63544 -0.061,-0.0414 -0.2576,-0.13405 -0.2061,-0.0812 2.7282,2.80106 3.0304,3.37409 2.3299,2.16315 -0.13,-0.065 -0.26,-0.12993 -0.39,-0.1949 -0.067,-0.0757 -0.1135,-0.17554 -0.2003,-0.22718 -0.4085,-0.24325 -0.5171,-0.0811 -0.8473,-0.41394 -0.066,-0.067 -0.056,-0.18895 -0.1236,-0.25479 -0.1,-0.0973 -0.2395,-0.14338 -0.3592,-0.21507 -0.2749,-0.48287 0.045,-0.0244 -0.5252,-0.43824 -0.081,-0.0587 -0.1099,-0.17557 -0.1955,-0.2272 -0.3535,-0.21337 -0.8191,-0.17805 -0.9396,-0.65943 -0.1137,-0.0683 -0.2275,-0.13662 -0.3412,-0.20493 -0.042,-0.0785 -0.056,-0.17854 -0.1247,-0.23547 -0.1034,-0.0863 -0.2538,-0.0974 -0.365,-0.17349 -0.078,-0.0531 -0.1079,-0.16381 -0.1914,-0.20718 -0.2601,-0.13524 -0.5933,-0.0936 -0.825,-0.30513 -0.2924,-0.31725 -0.6523,-0.26693 -1.0048,-0.49869 -0.078,-0.0511 -0.1118,-0.15855 -0.1957,-0.19869 -0.2636,-0.12624 -0.5923,-0.0757 -0.8355,-0.26624 -0.3703,-0.28525 -0.7883,-0.25665 -1.2221,-0.41771 -0.1292,-0.048 -0.2494,-0.11745 -0.3742,-0.17618 -0.076,-0.0702 -0.135,-0.16529 -0.2279,-0.21076 -0.1513,-0.074 -0.3239,-0.0922 -0.4858,-0.13834 -0.2426,-0.10525 -0.4492,-0.2836 -0.6929,-0.38604 -0.5268,-0.22136 -1.2531,-0.3649 -1.7889,-0.62096 -0.1177,-0.0548 -0.2355,-0.10951 -0.3533,-0.16426 -0.064,-0.066 -0.1092,-0.15807 -0.192,-0.19792 -0.1403,-0.0675 -0.3047,-0.0657 -0.4531,-0.11239 -0.4209,-0.13232 -0.6135,-0.43437 -1.0952,-0.40258 -0.284202,-0.0705 -0.559502,-0.11725 -0.820202,-0.25804 -0.085,-0.0461 -0.1396,-0.14463 -0.2311,-0.17716 -0.422095,-0.15019 -0.932295,-0.0801 -1.323595,-0.34878 -0.3534,-0.28334 -0.7523,-0.24852 -1.1726,-0.40071 -0.1203,-0.0436 -0.2323,-0.10759 -0.3485,-0.16139 -0.069,-0.0648 -0.1218,-0.15542 -0.2085,-0.19427 -0.142701,-0.0639 -0.304901,-0.0694 -0.457301,-0.10406 -0.2407,-0.0811 -0.4585,-0.22803 -0.7052,-0.28829 -0.681,-0.16637 -1.4341,-0.0774 -2.0953,-0.36379 -0.8083,-0.32647 -1.7622,-0.18229 -2.5288,-0.66914 -1.1113,-0.1073 -2.1853,-0.38718 -3.2879,-0.49027 -1.2816,-0.0789 -2.5794,-0.16257 -3.8313,-0.45793 0,0 -1.9726,-4.76226 -1.9726,-4.76226 z"
       inkscape:connector-curvature="0" />
    <path
       style="fill:#808080;fill-opacity:1;stroke:none"
       d="m 84.640978,659.33558 c -5.998833,9.46466 -12.494643,18.59579 -19.840411,27.06424 -4.023808,5.79086 -9.139168,10.59469 -13.966953,15.65879 -3.523384,3.87368 -6.974252,7.83714 -10.358276,11.81823 0.09851,22.12744 2.288334,44.21709 1.370073,66.34852 -1.080726,7.61486 -3.235452,15.10652 -3.125,22.87562 -1.172953,39.70786 -0.881938,79.45003 -0.53215,119.16256 -1.693934,13.28173 -2.60925,26.66998 -4.609475,39.90456 -3.17015,12.75517 -4.741043,25.88976 -4.203386,39.0393 0.313731,15.1098 0.661263,30.2965 2.556218,45.2895 1.27901,1.8913 4.367437,0.3298 6.265394,0.6927 15.418626,-0.7634 30.96506,-3.4764 46.345833,-0.7556 5.711305,0.3946 11.572256,1.2158 17.247145,0.5247 1.44405,-2.1612 0.39144,-5.4055 0.7851,-7.9125 0.89386,-12.3288 -5.314733,-23.5265 -7.112068,-35.4834 -1.856783,-10.68155 -5.309123,-20.96724 -8.315817,-31.34514 -2.004744,-11.48317 -0.353375,-23.24101 -1.720286,-34.80117 -1.23298,-12.45749 -3.977192,-24.78974 -3.603059,-37.37894 0.396443,-25.35653 0.280813,-50.82248 -3.312222,-75.97903 -1.363584,-11.05712 -1.521493,-22.40942 -5.579008,-32.94237 -1.693827,-5.5208 -4.444088,-11.54031 -1.685229,-17.22411 3.421941,-10.00308 9.94039,-18.639 13.039739,-28.79744 5.443079,-13.27308 10.168912,-26.81216 14.870464,-40.36185 3.990656,-11.91952 9.704386,-23.2099 13.700736,-35.08313 -5.54584,-4.24893 -12.4344,-6.42857 -19.010155,-8.57942 -3.018872,-0.79547 -6.119463,-1.39442 -9.207207,-1.73462 z"
       id="path3142"
       inkscape:connector-curvature="0" />
  </g>
</svg>
