<?xml version="1.0" encoding="UTF-8" standalone="no"?>
<!-- Created with Inkscape (http://www.inkscape.org/) -->

<svg
   xmlns:dc="http://purl.org/dc/elements/1.1/"
   xmlns:cc="http://creativecommons.org/ns#"
   xmlns:rdf="http://www.w3.org/1999/02/22-rdf-syntax-ns#"
   xmlns:svg="http://www.w3.org/2000/svg"
   xmlns="http://www.w3.org/2000/svg"
   xmlns:sodipodi="http://sodipodi.sourceforge.net/DTD/sodipodi-0.dtd"
   xmlns:inkscape="http://www.inkscape.org/namespaces/inkscape"
   width="256"
   height="256"
   id="svg3017"
   version="1.1"
   inkscape:version="0.48.4 r9939"
   sodipodi:docname="ledge4Hanging.svg">
  <defs
     id="defs3019" />
  <sodipodi:namedview
     id="base"
     pagecolor="#ffffff"
     bordercolor="#666666"
     borderopacity="1.0"
     inkscape:pageopacity="0.0"
     inkscape:pageshadow="2"
     inkscape:zoom="0.35"
     inkscape:cx="375"
     inkscape:cy="520"
     inkscape:document-units="px"
     inkscape:current-layer="layer1"
     showgrid="false"
     inkscape:window-width="898"
     inkscape:window-height="756"
     inkscape:window-x="2170"
     inkscape:window-y="250"
     inkscape:window-maximized="0" />
  <metadata
     id="metadata3022">
    <rdf:RDF>
      <cc:Work
         rdf:about="">
        <dc:format>image/svg+xml</dc:format>
        <dc:type
           rdf:resource="http://purl.org/dc/dcmitype/StillImage" />
        <dc:title></dc:title>
      </cc:Work>
    </rdf:RDF>
  </metadata>
  <g
     inkscape:label="Layer 1"
     inkscape:groupmode="layer"
     id="layer1"
     transform="translate(0,-796.36218)">
    <path
       style="fill:#000000;fill-opacity:1;stroke:none"
       id="path3029"
       d="m 105.05253,850.314 c 0.0982,0.98389 0.2279,1.95604 0.38025,2.93153 0.13276,1.19033 0.35541,2.36512 0.49229,3.5557 0.20463,0.6003 0.23341,1.24404 0.37814,1.85572 0.0276,0.11685 0.0793,0.22669 0.11887,0.34004 0.0328,0.14741 0.0656,0.29483 0.0984,0.44224 0.0836,0.85349 0.30791,1.66908 0.46673,2.50754 0.15242,0.78695 0.38257,1.55813 0.59398,2.33452 0.12073,0.92935 0.40543,1.817 0.54638,2.74319 0.0231,0.85111 0.21466,1.66995 0.32002,2.51046 0.15482,0.96254 0.35127,1.91528 0.44798,2.89034 0.0974,0.79661 0.29952,1.57137 0.37821,2.37627 0.21601,0.44553 0.20678,0.95173 0.32289,1.42055 0.055,0.2222 0.15251,0.43202 0.21444,0.65239 0.1422,0.37828 0.0923,0.80341 0.18757,1.18814 0.0204,0.0823 0.0802,0.14973 0.11217,0.22825 0.0962,0.23654 0.11145,0.35314 0.16943,0.60619 0.12909,0.72428 0.13696,1.46235 0.14647,2.19579 0.22947,0.68217 0.28324,1.40725 0.32909,2.12085 -0.0422,0.78706 0.13359,1.53497 0.24642,2.30642 0.0419,0.80355 0.29907,1.55822 0.4133,2.3525 0.22775,0.60119 0.22494,1.25434 0.34805,1.87671 0.0563,0.28452 0.15295,0.55963 0.22131,0.84149 0.10047,0.91305 0.3803,1.78268 0.51706,2.69007 0.0929,0.40529 0.0323,0.83358 0.0958,1.24051 0.0522,0.3349 0.17493,0.67346 0.23427,1.01138 0.11706,0.76644 0.13302,1.54279 0.14404,2.3165 0.0473,0.36462 -0.0509,0.75051 0.003,1.11351 0.0363,0.24285 0.17329,0.51386 0.22427,0.76204 0.11399,0.70798 0.12448,1.42691 0.1354,2.14228 0.23177,0.68149 0.28586,1.40687 0.33213,2.12043 0.0546,0.91468 0.2719,1.81736 0.46532,2.71383 0.28812,0.99278 0.3779,2.06559 0.6468,3.05089 0.14773,0.98812 0.39666,1.95012 0.56439,2.93355 0.1598,0.84937 0.3873,1.67506 0.48187,2.53977 0.0976,0.51751 -0.005,1.05984 0.0647,1.57726 0.028,0.2072 0.11186,0.40313 0.15713,0.60726 0.14717,0.75526 0.17778,1.52547 0.19796,2.29256 0.23227,0.69064 0.29112,1.42283 0.3381,2.1453 0.0479,0.73354 0.29513,1.44547 0.47528,2.15853 0.11442,0.92316 0.32205,1.82184 0.48691,2.73624 0.10667,0.76071 0.37798,1.48425 0.61002,2.21283 0.1936,0.51807 0.14979,1.08298 0.24899,1.61547 0.041,0.22006 0.1297,0.42873 0.18244,0.64627 0.0696,0.70813 0.36685,1.25426 0.48408,1.95923 0.0136,0.12266 0.013,0.24773 0.0408,0.36798 0.047,0.20362 0.14749,0.39237 0.19456,0.59598 0.0881,0.38105 0.12967,0.76669 0.16879,1.155 0.009,0.13111 -1.6e-4,0.26469 0.0266,0.39334 0.036,0.17272 0.14334,0.32408 0.18811,0.49474 0.0833,0.31744 0.0944,0.60904 0.23168,0.90953 0.20383,0.46843 0.17384,0.99092 0.2786,1.47834 0.0471,0.21913 0.13965,0.42627 0.19585,0.64324 0.0248,0.12762 0.0374,0.25827 0.0745,0.38287 0.0308,0.10332 0.0855,0.19796 0.1282,0.29694 0.0376,0.12034 0.0796,0.23937 0.11266,0.36103 0.10786,0.39726 0.16181,0.79954 0.21098,1.20711 0.32193,0.67519 0.23808,1.45349 0.47834,2.14338 0.1886,0.48896 0.15633,1.02575 0.26035,1.52892 0.0456,0.22038 0.13746,0.42886 0.1933,0.64687 0.17233,0.77012 0.2044,1.56035 0.22496,2.34627 -0.0464,0.71861 0.18284,1.39313 0.27323,2.10193 0.0829,0.76272 0.0907,1.53065 0.0969,2.297 -0.0758,0.64272 0.18418,1.20785 0.27312,1.83544 0.0809,0.72289 0.0855,1.45131 0.0913,2.17782 0.003,0.73254 4.9e-4,1.46508 -6.2e-4,2.19762 -10e-4,0.72932 -10e-4,1.45863 -10e-4,2.18795 -2e-5,0.12149 -0.0183,0.24435 -5e-5,0.36446 0.0244,0.16019 0.12402,0.30062 0.16369,0.45773 0.0814,0.3225 0.11208,0.65232 0.1446,0.98225 0.0562,0.73034 0.057,1.4634 0.0595,2.19544 0.22522,0.68155 0.28059,1.40391 0.32703,2.11579 0.0386,0.75334 0.0372,1.50794 0.0377,2.26203 -7.3e-4,0.73088 -0.002,1.46176 -0.003,2.19264 -6.2e-4,0.72866 -6.8e-4,1.45733 -7.4e-4,2.18599 0.0618,0.68608 -0.12486,1.42216 0.0821,2.08526 0.18331,0.72925 0.2311,1.48175 0.26431,2.23004 0.0893,0.7045 -0.10614,1.45923 0.10332,2.14146 0.18173,0.73047 0.22895,1.48375 0.26164,2.23291 0.0242,0.74712 0.0215,1.49476 0.0208,2.24217 0.0369,0.3606 -0.0481,0.73696 -0.002,1.09633 0.0401,0.31057 0.16267,0.63745 0.2162,0.95078 0.13415,0.49951 0.0347,1.0404 0.12865,1.54161 0.0317,0.16911 0.12785,0.31986 0.17904,0.48413 0.16435,0.68933 0.18124,1.40167 0.199,2.10675 0.23734,0.68086 0.29049,1.40836 0.33665,2.12286 0.0261,0.6332 -0.0538,1.2755 0.33635,1.8101 0.0607,0.063 0.12098,0.1265 0.18222,0.1891 0.89657,0.9159 -0.45113,-0.4289 0.48441,0.3796 0.0943,0.082 0.33281,0.3713 0.24501,0.2828 -1.54793,-1.5613 -2.04763,-2.2705 -1.44435,-1.4385 0.46979,0.3989 0.95622,0.7053 1.5263,0.9469 0.66429,0.345 1.35511,0.6262 2.04111,0.9225 0.70886,0.2966 1.4218,0.5784 2.13562,0.8638 0.64707,0.2025 1.27268,0.4716 1.89586,0.7401 0.74779,0.2108 1.4429,0.5629 2.17587,0.8133 0.73294,0.2456 1.42305,0.6083 2.1709,0.807 0.65686,0.2198 1.27164,0.5309 1.88242,0.85373 0.69204,0.2672 1.40038,0.488 2.08938,0.7684 0.90932,0.3458 1.84821,0.6056 2.76721,0.9237 0.99627,0.3773 2.028,0.619 3.05869,0.8754 0.8707,0.1973 1.74367,0.3964 2.59039,0.6823 0.66971,0.2645 1.3824,0.3631 2.07545,0.5454 0.75659,0.1737 1.50079,0.4046 2.23366,0.6607 0.71294,0.2243 1.45599,0.3595 2.15844,0.6156 0.54813,0.3057 1.16904,0.3283 1.76223,0.4717 0.50464,0.1973 1.04283,0.235 1.56932,0.3304 0.0116,0.01 0.0231,0.017 0.0347,0.025 0,0 1.97058,3.066 1.97058,3.066 l 0,0 c -0.15469,0.071 -0.30939,0.1409 -0.46409,0.2114 -0.72609,0.1382 -1.47047,0.052 -2.19054,-0.1065 -0.15873,-0.052 -0.30046,-0.1539 -0.46324,-0.1918 -0.47657,-0.1109 -1.00651,-0.026 -1.46655,-0.2404 -0.17979,-0.074 -0.33834,-0.1957 -0.521,-0.2624 -0.4733,-0.1728 -1.00364,-0.2515 -1.48648,-0.3884 -0.72481,-0.1778 -1.42327,-0.4468 -2.12672,-0.6898 -0.35662,-0.07 -0.69241,-0.1984 -1.04241,-0.2766 -0.39778,-0.089 -0.82347,-0.071 -1.20993,-0.2226 -0.80426,-0.2686 -1.60007,-0.5913 -2.44299,-0.7201 -1.06757,-0.2581 -2.15311,-0.45 -3.18333,-0.843 -0.17667,-0.053 -0.35333,-0.1057 -0.52999,-0.1585 -0.14882,-0.062 -0.29298,-0.1365 -0.44646,-0.1857 -0.60095,-0.1927 -1.24328,-0.2874 -1.81091,-0.5747 -0.74949,-0.2073 -1.42776,-0.5924 -2.19235,-0.7457 -0.66725,-0.207 -1.24331,-0.5645 -1.86934,-0.8564 -0.32963,-0.1984 -0.68239,-0.223 -1.04363,-0.352 -0.12508,-0.045 -0.24556,-0.1013 -0.36834,-0.152 -0.10516,-0.058 -0.2035,-0.1307 -0.31547,-0.1742 -0.14742,-0.057 -0.30493,-0.084 -0.4574,-0.1258 -0.67037,-0.3171 -1.4016,-0.4949 -2.06265,-0.8385 -0.64452,-0.1634 -1.30539,-0.4202 -1.88362,-0.743 -0.77176,-0.2001 -1.52648,-0.49863 -2.24458,-0.83923 -0.74461,-0.2627 -1.4691,-0.5665 -2.18509,-0.8953 -0.59637,-0.3349 -1.30921,-0.453 -1.82803,-0.909 -1.29497,-0.6088 -0.34456,-0.1058 -2.50135,-2.3122 -0.41461,-0.4241 -0.66487,-0.9752 -0.82289,-1.5408 -0.13554,-0.7429 -0.1487,-1.4862 -0.21127,-2.2375 -0.0941,-0.73485 -0.28467,-1.45639 -0.30848,-2.19845 -0.0468,-0.60711 -0.13564,-1.20592 -0.30398,-1.79261 -0.12486,-0.70771 -0.10913,-1.43633 -0.27307,-2.1403 -0.1264,-0.77244 -0.12558,-1.54501 -0.1123,-2.32649 -0.004,-0.71077 -0.008,-1.42245 -0.0644,-2.13142 -0.0683,-0.71845 -0.20311,-1.42543 -0.29483,-2.14068 -0.0118,-0.74426 -0.0101,-1.48969 -0.0707,-2.23213 -0.0692,-0.71933 -0.20598,-1.42705 -0.29546,-2.14356 -0.008,-0.76275 -0.004,-1.52553 -0.005,-2.28832 1.8e-4,-0.72919 4.7e-4,-1.45838 0.001,-2.18757 8.6e-4,-0.72707 0.003,-1.45415 -0.002,-2.1812 -0.008,-0.70549 -0.0174,-1.41236 -0.0946,-2.1144 -0.0933,-0.75122 -0.28041,-1.49341 -0.27416,-2.25344 -0.0133,-0.66115 -0.0285,-1.32528 -0.1399,-1.97874 -0.12792,-0.67748 -0.28858,-1.3441 -0.21957,-2.04135 3.8e-4,-0.72972 0.001,-1.45944 0.002,-2.18915 4.8e-4,-0.72081 0.003,-1.44173 -0.0138,-2.16239 -0.0208,-0.64158 -0.0492,-1.28605 -0.1854,-1.91558 -0.14776,-0.6959 -0.20583,-1.38622 -0.17845,-2.09908 -0.0212,-0.69483 -0.0557,-1.39079 -0.17757,-2.07659 -0.13002,-0.75435 -0.21905,-1.50414 -0.21252,-2.27166 -0.051,-0.68509 -0.14475,-1.36432 -0.33142,-2.02729 -0.16103,-0.72972 -0.24028,-1.4769 -0.44726,-2.19805 -0.10557,-0.75568 -0.31707,-1.48322 -0.45108,-2.23302 -0.16751,-0.71331 -0.42623,-1.40071 -0.56405,-2.12172 -0.16093,-0.68644 -0.24595,-1.38976 -0.49202,-2.05615 -0.12229,-0.68024 -0.34037,-1.33891 -0.37658,-2.0342 -0.13132,-0.66268 -0.32943,-1.30968 -0.44897,-1.97419 -0.20581,-0.64958 -0.3578,-1.30055 -0.48057,-1.97137 -0.14524,-0.70715 -0.19394,-1.43563 -0.47149,-2.11211 -0.24485,-0.78869 -0.41111,-1.60003 -0.55503,-2.41246 -0.18209,-0.87894 -0.27764,-1.7728 -0.51499,-2.63985 -0.19874,-0.7957 -0.34904,-1.60243 -0.39135,-2.42265 -0.0952,-0.74407 -0.2858,-1.47548 -0.3075,-2.22717 -0.0473,-0.69715 -0.13618,-1.38854 -0.27481,-2.07386 -0.10048,-0.74097 -0.064,-1.49487 -0.20647,-2.23211 -0.1579,-0.82466 -0.38662,-1.63401 -0.50527,-2.46654 -0.2031,-0.95967 -0.36699,-1.92579 -0.57936,-2.88367 -0.18147,-1.0312 -0.43543,-2.04482 -0.64077,-3.07129 -0.19212,-0.96004 -0.33806,-1.9299 -0.40161,-2.90727 -0.0937,-0.74255 -0.28267,-1.47379 -0.29283,-2.22441 -0.0315,-0.62418 -0.0833,-1.24797 -0.23492,-1.85649 -0.14073,-0.71664 -0.10341,-1.43822 -0.12653,-2.16542 -0.032,-0.6886 -0.0876,-1.37674 -0.23762,-2.05133 -0.14784,-0.74972 -0.18033,-1.50987 -0.32759,-2.25971 -0.18847,-0.86929 -0.36752,-1.73862 -0.54083,-2.61084 -0.20111,-0.93184 -0.33305,-1.87865 -0.54188,-2.80923 -0.16666,-0.79479 -0.31205,-1.58825 -0.39907,-2.39654 -0.12026,-0.79816 -0.15143,-1.59749 -0.21361,-2.40133 -0.0928,-0.74239 -0.27995,-1.4737 -0.29006,-2.224 -0.0319,-0.60888 -0.0787,-1.22095 -0.27676,-1.8026 -0.20341,-0.66286 -0.25605,-1.35409 -0.47116,-2.01516 -0.19602,-0.75755 -0.34184,-1.53517 -0.46637,-2.30684 -0.13324,-0.796 -0.32103,-1.58231 -0.3734,-2.39031 -0.1398,-0.95342 -0.35268,-1.8938 -0.46098,-2.85198 -0.13407,-0.81299 -0.18944,-1.63318 -0.34175,-2.44292 -0.19186,-0.86698 -0.37576,-1.7358 -0.58843,-2.59734 -0.21912,-0.80664 -0.40757,-1.62163 -0.56346,-2.44258 -0.1841,-0.81646 -0.2742,-1.64793 -0.48065,-2.45982 -0.23098,-0.92754 -0.38484,-1.87795 -0.53822,-2.8207 -0.16308,-1.17067 -0.35029,-2.33772 -0.50786,-3.50918 -0.14748,-0.96788 -0.2091,-1.94687 -0.38704,-2.91058 0,0 3.4708,1.11227 3.4708,1.11227 z"
       inkscape:connector-curvature="0" />
    <path
       style="fill:#000000;fill-opacity:1;stroke:none"
       id="path3031"
       d="m 103.48957,848.16283 c 0.79865,0.34445 1.65213,0.53248 2.4838,0.78023 0.90317,0.29519 1.81479,0.55779 2.71032,0.87661 0.88919,0.28316 1.77734,0.5673 2.66091,0.86821 1.08579,0.324 2.1825,0.6084 3.26693,0.93724 1.14258,0.34456 2.27752,0.71274 3.43152,1.01765 0.94394,0.27422 1.89155,0.53868 2.84545,0.77652 0.8483,0.24264 1.67679,0.54037 2.5102,0.82885 0.77926,0.25928 1.57306,0.47593 2.34812,0.74749 0.70863,0.261 1.451,0.43457 2.15116,0.71602 0.59488,0.27019 1.21069,0.50016 1.77892,0.82495 1.73318,0.74536 0.84125,-0.1609 3.14316,2.40805 0.0719,0.0803 0.15119,0.7799 0.16504,0.88307 0.0686,0.76915 0.0549,1.54245 0.0496,2.31374 -0.007,0.73368 -0.0102,1.46738 -0.0122,2.20109 -0.0562,0.70452 0.17479,1.36511 0.26502,2.06002 0.0847,0.76245 0.0933,1.53033 0.0999,2.29658 4.6e-4,0.12383 -0.0147,0.24869 0.001,0.37147 0.0266,0.20373 0.11573,0.39489 0.15492,0.59657 0.0729,0.37505 0.11131,0.75273 0.14684,1.13266 0.27092,0.70134 0.33943,1.45671 0.39158,2.20042 0.28975,0.58353 0.32739,1.24593 0.36912,1.88505 0.005,0.12272 -0.005,0.24701 0.0152,0.36816 0.0338,0.20262 0.12683,0.39165 0.16806,0.59289 0.074,0.36102 0.0939,0.69608 0.22701,1.04136 0.18873,0.90972 0.46327,1.77584 0.57685,2.70196 0.22492,0.5407 0.25075,1.13422 0.39004,1.69407 0.0584,0.23483 0.15716,0.45801 0.22282,0.69092 0.0259,0.15248 0.0405,0.30734 0.0778,0.45745 0.0322,0.12981 0.0867,0.25306 0.13009,0.37959 0.0388,0.14202 0.0814,0.28306 0.11635,0.42607 0.10183,0.41649 0.14672,0.82186 0.29119,1.22633 0.18977,0.77187 0.47543,1.49822 0.6126,2.28458 0.0756,0.63537 0.3709,1.21846 0.57616,1.8215 0.11203,0.23946 0.0773,0.51395 0.15707,0.76002 0.0257,0.0792 0.0929,0.13882 0.12857,0.21399 0.14633,0.30817 0.19628,0.64497 0.25238,0.97742 0.23831,0.68272 0.49726,1.36696 0.63127,2.08076 0.12394,0.8284 0.39165,1.6248 0.63601,2.42302 0.15137,0.78314 0.42142,1.52083 0.54622,2.31108 0.0344,0.75756 0.27373,1.46707 0.37476,2.21739 0.24437,0.50717 0.2278,1.08428 0.34525,1.62232 0.0564,0.25824 0.1536,0.50599 0.21966,0.76191 0.19089,0.80332 0.23192,1.62903 0.25468,2.45103 0.002,0.12763 -0.0115,0.25641 0.006,0.38291 0.0281,0.20784 0.11718,0.40336 0.15717,0.60924 0.0732,0.37671 0.11151,0.75596 0.14679,1.13759 0.0884,0.50362 -0.0123,1.03121 0.057,1.53416 0.0285,0.20658 0.11283,0.40173 0.15832,0.60525 0.14852,0.75633 0.17976,1.52783 0.20026,2.2962 -0.045,0.71783 0.18489,1.39128 0.27564,2.09928 0.1474,0.72019 -0.0374,1.49542 0.17842,2.19614 0.18658,0.82418 0.22688,1.67544 0.26233,2.51754 0.0254,0.77828 0.0229,1.55709 0.0222,2.33568 -0.0741,0.67531 0.19465,1.21713 0.26511,1.8848 0.0781,0.81069 0.0904,1.62552 0.0977,2.4393 5.1e-4,0.12807 -0.0168,0.25744 0.002,0.38419 0.0243,0.16833 0.12212,0.31841 0.16269,0.48357 0.0801,0.32579 0.11154,0.65771 0.14392,0.99063 2.3e-4,0.70765 0.23169,1.36607 0.32445,2.06611 0.0897,0.37972 0.009,0.7892 0.0794,1.16903 0.048,0.25988 0.18735,0.53122 0.24358,0.79827 0.11774,0.71482 0.12688,1.44126 0.13696,2.16386 0.041,0.36253 -0.0433,0.74083 0.003,1.10215 0.0403,0.31229 0.16211,0.64019 0.21542,0.95526 0.17501,0.7201 0.005,1.49949 0.22426,2.20264 0.18909,0.73761 0.23682,1.4996 0.26926,2.25723 0.28095,0.65682 0.19211,1.40038 0.42515,2.062 0.21832,0.74968 0.27096,1.53097 0.30554,2.30677 0.0514,0.37481 -0.0307,0.76618 0.0184,1.13998 0.0416,0.31641 0.163,0.64657 0.21695,0.96568 0.0522,0.74509 0.30026,1.43861 0.40703,2.1778 0.0777,0.71662 0.33643,1.39757 0.55093,2.08221 0.11204,0.25265 0.0813,0.5386 0.16209,0.79756 0.0265,0.0847 0.0926,0.15201 0.12935,0.2328 0.14345,0.31501 0.1983,0.65041 0.25605,0.98838 0.30286,0.62248 0.45976,1.30571 0.75659,1.92945 0.23627,0.47016 0.3591,0.99626 0.56717,1.47592 0.0833,0.19203 0.21553,0.36005 0.30099,0.55113 0.22538,0.67068 0.33874,1.38953 0.62999,2.03583 0.17934,0.75087 0.42793,1.47908 0.59023,2.23387 0.1214,0.39039 0.0548,0.8188 0.13708,1.21265 0.0547,0.26171 0.19742,0.54183 0.25778,0.82289 0.0169,0.11539 0.0197,0.23372 0.0506,0.34616 0.0239,0.087 0.0749,0.16426 0.11228,0.24638 0.0322,0.10901 0.0688,0.21681 0.0966,0.32702 0.0955,0.37861 0.13931,0.76308 0.1811,1.15027 0.22148,0.44446 0.21126,0.95181 0.32683,1.42155 0.055,0.22371 0.15232,0.43519 0.21424,0.6571 0.12684,0.76339 0.38858,1.47819 0.50801,2.24511 0.0339,0.75682 0.27371,1.46544 0.375,2.21497 0.0127,0.13173 0.007,0.26643 0.038,0.39517 0.0417,0.17513 0.15397,0.32732 0.20217,0.50076 0.0941,0.33862 0.12905,0.68593 0.1652,1.03408 0.27179,0.30892 0.20504,0.74113 0.3291,1.09874 0.0515,0.14835 0.16557,0.26869 0.22377,0.41453 0.10827,0.2067 0.06,0.45205 0.13608,0.6652 0.0229,0.0641 0.0924,0.10176 0.12494,0.16155 0.15297,0.2809 0.1894,0.6182 0.24025,0.92736 0.43788,0.44154 0.21528,1.15539 0.51707,1.63924 0.32641,0.5603 0.087,1.29802 0.38038,1.84548 0.19514,0.39733 0.14354,0.85365 0.23723,1.2709 0.0448,0.19964 0.13766,0.38584 0.1904,0.58353 0.26072,0.68133 0.0215,1.49629 0.30659,2.15295 0.21703,0.64623 0.24182,1.33487 0.2694,2.01013 0.0708,0.48184 -0.0558,0.99204 0.0174,1.47147 0.0246,0.16122 0.11637,0.30502 0.16323,0.46122 0.16061,0.42847 0.066,0.91258 0.16596,1.34708 0.036,0.1566 0.13761,0.29121 0.189,0.44346 0.16928,0.68889 0.18501,1.40252 0.20273,2.1081 0.0121,0.73517 0.008,1.47047 0.007,2.20567 -0.002,0.73 -0.002,1.4599 -0.003,2.1898 -5e-5,0.1215 -0.0159,0.2441 -1.3e-4,0.3645 0.0263,0.2014 0.1159,0.3898 0.15502,0.589 0.0734,0.374 0.11225,0.7507 0.14824,1.1296 0.009,0.1295 0.003,0.2607 0.0258,0.3884 0.0386,0.2144 0.13375,0.4154 0.17918,0.6285 0.0818,0.3836 0.1237,0.7704 0.16213,1.1601 0.0606,0.76223 0.061,1.52743 0.0628,2.29153 0.25488,0.5675 0.28925,1.1984 0.32895,1.8104 0.25302,0.3131 0.18611,0.739 0.30742,1.0919 0.0507,0.1475 0.16437,0.2669 0.22237,0.4116 0.1257,0.6198 0.54762,1.0653 0.74596,1.6561 0.28014,0.1818 0.26066,0.5103 0.39817,0.772 0.0328,0.062 0.11173,0.089 0.15112,0.1477 0.12173,0.1805 0.16486,0.3947 0.22458,0.5987 0.27443,0.1673 0.23797,0.4839 0.36651,0.7335 0.0307,0.06 0.10892,0.082 0.14648,0.1376 0.11691,0.1727 0.16209,0.3975 0.21773,0.5917 0.006,0.3349 0.18536,0.5022 0.3019,0.7944 0,0 -3.57549,-0.7067 -3.57549,-0.7067 l 0,0 c -0.1142,-0.2618 -0.15192,-0.5422 -0.3038,-0.7847 -0.30455,-0.4505 -0.51064,-0.9593 -0.73286,-1.4517 -0.31984,-0.4659 -0.5395,-0.9942 -0.77661,-1.504 -0.3338,-0.5569 -0.50732,-1.1699 -0.72074,-1.7789 -0.2014,-0.6193 -0.32708,-1.2858 -0.40664,-1.9306 -0.0964,-0.6552 -0.29977,-1.2981 -0.2694,-1.9664 -0.0129,-0.6956 -0.0306,-1.39363 -0.14094,-2.08203 -0.1283,-0.7317 -0.31683,-1.4519 -0.36048,-2.1966 -0.11657,-0.7608 -0.28172,-1.5161 -0.22403,-2.2916 7.3e-4,-0.7296 0.002,-1.4593 0.002,-2.1889 -0.001,-0.7067 7.1e-4,-1.41405 -0.0413,-2.11974 -0.0471,-0.59161 -0.13227,-1.1755 -0.32226,-1.74049 -0.13467,-0.62858 -0.14521,-1.28142 -0.32247,-1.90455 -0.0914,-0.71194 -0.0271,-1.4338 -0.10808,-2.14808 -0.068,-0.61291 -0.21466,-1.20559 -0.33775,-1.80862 -0.0455,-0.69461 -0.1317,-1.38397 -0.33586,-2.05242 -0.14898,-0.62396 -0.22917,-1.2629 -0.42104,-1.87805 -0.0571,-0.60276 -0.2015,-1.1702 -0.40879,-1.73897 -0.091,-0.6058 -0.36649,-1.12683 -0.49545,-1.72145 -0.20212,-0.52096 -0.35849,-1.04277 -0.54761,-1.56669 -0.20442,-0.598 -0.34241,-1.23682 -0.45981,-1.85654 -0.1485,-0.63771 -0.36247,-1.2569 -0.41013,-1.91532 -0.14866,-0.71842 -0.26986,-1.43672 -0.3923,-2.15932 -0.18315,-0.71096 -0.36462,-1.41986 -0.54006,-2.1325 -0.1939,-0.74615 -0.33926,-1.50991 -0.48551,-2.26616 -0.14209,-0.64885 -0.36372,-1.27622 -0.48307,-1.93008 -0.17851,-0.66443 -0.19732,-1.35275 -0.40141,-2.01203 -0.20983,-0.69684 -0.359,-1.40908 -0.62712,-2.08784 -0.16979,-0.63681 -0.37164,-1.27697 -0.66475,-1.86705 -0.3191,-0.69121 -0.55318,-1.42291 -0.84891,-2.12541 -0.23253,-0.72165 -0.56239,-1.41273 -0.69918,-2.16395 -0.21895,-0.63368 -0.39417,-1.27035 -0.57473,-1.91578 -0.2247,-0.74936 -0.36872,-1.51989 -0.49218,-2.29137 -0.16168,-0.72867 -0.3058,-1.45495 -0.40135,-2.1958 -0.12781,-0.75286 -0.13053,-1.50733 -0.1793,-2.26793 -0.0751,-0.69956 -0.22112,-1.38312 -0.38539,-2.06681 -0.097,-0.77425 -0.29306,-1.53225 -0.34171,-2.31157 -0.0688,-0.71206 -0.20389,-1.4116 -0.31859,-2.11706 -0.0378,-0.72897 -0.0894,-1.45768 -0.23324,-2.17497 -0.12523,-0.75961 -0.12518,-1.51924 -0.13639,-2.28764 -0.0311,-0.61874 -0.0797,-1.23856 -0.24857,-1.83776 -0.16292,-0.68318 -0.15933,-1.38146 -0.29126,-2.0707 -0.13794,-0.70042 -0.24572,-1.39736 -0.31052,-2.10839 -0.1274,-0.68353 -0.28709,-1.35713 -0.23366,-2.05999 -0.0215,-0.73929 -0.0509,-1.48129 -0.181,-2.21099 -0.15153,-0.71 -0.2128,-1.41366 -0.17029,-2.14126 -0.004,-0.74605 -0.009,-1.49272 -0.0611,-2.2373 -0.064,-0.80052 -0.17966,-1.59229 -0.30994,-2.3843 -0.0272,-0.72821 -0.0548,-1.45856 -0.18463,-2.17746 -0.13093,-0.75513 -0.22139,-1.50575 -0.21295,-2.27433 -0.0479,-0.69832 -0.13783,-1.39074 -0.27715,-2.07715 -0.1004,-0.74029 -0.0657,-1.4919 -0.18497,-2.23134 -0.11554,-0.74722 -0.28005,-1.48719 -0.26633,-2.24824 -0.0565,-0.71789 -0.16407,-1.42824 -0.36349,-2.1219 -0.19649,-0.83317 -0.34214,-1.68044 -0.52551,-2.516 -0.14817,-0.7166 -0.26838,-1.43341 -0.39458,-2.15336 -0.19135,-0.71959 -0.38532,-1.43751 -0.5897,-2.15313 -0.24488,-0.82283 -0.40873,-1.66722 -0.61589,-2.49958 -0.23868,-0.68915 -0.44968,-1.38853 -0.62722,-2.09538 -0.21155,-0.59173 -0.38084,-1.18701 -0.58102,-1.78163 -0.23778,-0.65705 -0.38846,-1.33878 -0.52432,-2.02247 -0.2171,-0.73722 -0.45382,-1.46684 -0.63183,-2.21539 -0.16949,-0.83697 -0.41592,-1.65497 -0.61678,-2.48434 -0.22217,-0.84443 -0.38539,-1.70805 -0.56065,-2.56304 -0.18727,-0.85888 -0.43537,-1.70356 -0.61817,-2.56398 -0.11666,-0.74575 -0.30145,-1.47933 -0.33674,-2.23604 -0.10401,-0.63592 -0.33123,-1.24534 -0.36677,-1.89172 -0.10723,-0.73075 -0.32121,-1.43878 -0.40112,-2.17317 -0.11532,-0.75485 -0.27915,-1.50354 -0.23879,-2.27281 -0.022,-0.69507 -0.0582,-1.39108 -0.18023,-2.07708 -0.13109,-0.77003 -0.21976,-1.53535 -0.16856,-2.31899 0.003,-0.72991 0.0101,-1.45982 0.007,-2.18974 -0.008,-0.59443 0.0229,-1.22949 -0.2221,-1.78334 -0.0715,-0.0731 -0.33811,-0.22548 -0.26542,-0.15361 0.58636,0.57963 1.18445,1.14918 1.8145,1.681 0.19512,0.16469 -0.58571,-0.99219 -0.59472,-0.38675 -0.24649,-0.0746 -0.41712,-0.10842 -0.63805,-0.24026 -0.0743,-0.0443 -0.12604,-0.12313 -0.20423,-0.16018 -0.31065,-0.1472 -0.68872,-0.1576 -0.94457,-0.42292 -0.18421,-0.0782 -0.34649,-0.20375 -0.53289,-0.27662 -0.48188,-0.18836 -1.01628,-0.28546 -1.50181,-0.46461 -0.7759,-0.25382 -1.53951,-0.54446 -2.32958,-0.75187 -0.43294,-0.13373 -0.8624,-0.26492 -1.29409,-0.39804 -1.08709,-0.33523 0.30181,0.0432 -0.71212,-0.31785 -0.15392,-0.0548 -0.31685,-0.08 -0.47527,-0.11995 -0.91125,-0.35039 -1.8941,-0.49297 -2.8254,-0.78155 -1.13056,-0.37686 -2.31078,-0.59875 -3.4295,-1.01816 -1.09059,-0.3139 -2.16983,-0.66432 -3.27241,-0.93585 -0.92234,-0.24221 -1.79822,-0.61691 -2.72052,-0.85368 -0.90456,-0.28679 -1.7792,-0.65555 -2.70362,-0.8782 -0.84872,-0.31393 -1.71531,-0.53349 -2.59103,-0.75652 0,0 -0.73282,-3.57023 -0.73282,-3.57023 z"
       inkscape:connector-curvature="0" />
    <path
       style="fill:#666666;fill-opacity:1;stroke:none"
       d="m 109.03571,59.267857 c 1.554,45.408293 18.68881,90.415223 16.25,136.517853 8.2321,1.84883 19.7768,12.45081 27.14286,9.91072 C 149.29253,170.70011 138.12417,136.66301 134.83929,101.5 130.09425,85.889617 132.76346,57.693959 109.03571,59.267857 z"
       id="path3065"
       inkscape:connector-curvature="0"
       transform="translate(0,796.36218)" />
  </g>
</svg>
