<?xml version="1.0" encoding="UTF-8" standalone="no"?>
<!-- Created with Inkscape (http://www.inkscape.org/) -->

<svg
   xmlns:dc="http://purl.org/dc/elements/1.1/"
   xmlns:cc="http://creativecommons.org/ns#"
   xmlns:rdf="http://www.w3.org/1999/02/22-rdf-syntax-ns#"
   xmlns:svg="http://www.w3.org/2000/svg"
   xmlns="http://www.w3.org/2000/svg"
   xmlns:sodipodi="http://sodipodi.sourceforge.net/DTD/sodipodi-0.dtd"
   xmlns:inkscape="http://www.inkscape.org/namespaces/inkscape"
   width="64"
   height="420"
   id="svg3017"
   version="1.1"
   inkscape:version="0.48.4 r9939"
   sodipodi:docname="ledge4Hanging3.svg">
  <defs
     id="defs3019" />
  <sodipodi:namedview
     id="base"
     pagecolor="#ffffff"
     bordercolor="#666666"
     borderopacity="1.0"
     inkscape:pageopacity="0.0"
     inkscape:pageshadow="2"
     inkscape:zoom="2.03"
     inkscape:cx="38.175296"
     inkscape:cy="302.46009"
     inkscape:document-units="px"
     inkscape:current-layer="layer1"
     showgrid="false"
     inkscape:window-width="898"
     inkscape:window-height="944"
     inkscape:window-x="964"
     inkscape:window-y="73"
     inkscape:window-maximized="0" />
  <metadata
     id="metadata3022">
    <rdf:RDF>
      <cc:Work
         rdf:about="">
        <dc:format>image/svg+xml</dc:format>
        <dc:type
           rdf:resource="http://purl.org/dc/dcmitype/StillImage" />
        <dc:title />
      </cc:Work>
    </rdf:RDF>
  </metadata>
  <g
     inkscape:label="Layer 1"
     inkscape:groupmode="layer"
     id="layer1"
     transform="translate(0,-632.36218)">
    <path
       style="fill:#000000;fill-opacity:1;stroke:none"
       id="path3091"
       d="m 34.614252,637.77665 c -0.031,1.0007 -0.2561,1.98651 -0.35,2.98585 6e-4,0.90053 -0.2657,1.76132 -0.389,2.64807 -0.1322,0.83625 -0.3676,1.6463 -0.458,2.49337 -0.093,0.51535 0.01,1.05442 -0.061,1.5694 -0.01,0.0785 -0.1827,0.76652 -0.2113,0.88242 -0.1649,0.68405 -0.1822,1.38961 -0.1995,2.08942 -0.025,0.85423 0.05,1.70598 -0.1094,2.54751 -0.1858,0.81003 -0.2592,1.63596 -0.2959,2.46408 -0.026,0.81579 -0.023,1.63216 -0.022,2.44826 -0.014,0.79034 -0.2795,1.54653 -0.3599,2.33569 -0.058,0.75721 -0.056,1.5173 -0.059,2.27622 -5e-4,0.83188 0,1.66377 0,2.49565 -0.1942,0.74807 -0.3334,1.49845 -0.3853,2.26921 0,0.87233 -0.035,1.55618 -0.244,2.40743 -0.1647,0.68548 -0.1829,1.39232 -0.2007,2.09352 -0.026,0.8545 0.05,1.70658 -0.1098,2.54838 -0.1858,0.81002 -0.2593,1.63596 -0.2959,2.46407 -0.066,0.86095 -0.293,1.70009 -0.3776,2.56421 -0.062,0.79913 -0.061,1.6013 -0.064,2.4023 -0.036,0.87807 -0.2668,1.73644 -0.3522,2.61507 0.037,0.83084 -0.1771,1.60425 -0.3463,2.40636 -0.1205,0.70143 -0.1248,1.41567 -0.1346,2.12528 -0.01,0.8209 0,1.64183 0,2.46274 -0.013,0.88006 0.066,1.75962 -0.099,2.62658 -0.1869,0.80977 -0.2615,1.6355 -0.2987,2.4636 -0.047,0.84669 0.051,1.6952 -0.131,2.52571 -0.2036,0.69335 -0.2597,1.40988 -0.2901,2.12764 -0.035,0.84079 0.038,1.67871 -0.1209,2.50691 -0.1861,0.80894 -0.2588,1.63401 -0.2953,2.46112 -0.067,0.53391 0.043,1.08802 -0.022,1.62032 -0.013,0.10397 -0.1735,0.7575 -0.2066,0.89403 -0.1648,0.68721 -0.184,1.39553 -0.202,2.09847 -0.014,0.81104 -0.01,1.62225 -0.01,2.43337 0,0.83724 0,1.67449 0,2.51173 -0.2158,0.91496 -0.3185,1.84195 -0.3759,2.77814 -0.045,0.88394 -0.045,1.76929 -0.046,2.65413 7e-4,0.84009 0,1.68019 0,2.52028 7e-4,0.83633 8e-4,1.67266 9e-4,2.50899 0,0.83672 0,1.67344 0,2.51016 -10e-5,0.8368 -10e-5,1.67361 -10e-5,2.51041 0,0.8368 0,1.6736 0,2.51041 0,0.8368 0,1.6736 0,2.5104 0,0.8368 0,1.6736 0,2.5104 0.055,0.55069 -0.072,1.12514 0,1.6736 0.03,0.23111 0.1272,0.44873 0.1781,0.67616 0.2356,0.81612 0.066,1.70707 0.323,2.50816 0.2247,0.85061 0.2805,1.73101 0.3181,2.60609 -0.039,0.85312 0.2368,1.65068 0.3224,2.49617 0.1556,1.03208 0.3571,2.05625 0.4551,3.10247 -0.042,0.83617 0.2766,1.5886 0.3949,2.40372 0.095,0.83484 0.099,1.67638 0.1042,2.51553 0.045,0.41489 -0.053,0.84777 3e-4,1.26127 0.046,0.35756 0.186,0.73357 0.2472,1.0943 0.1305,0.87514 0.1516,1.76089 0.1658,2.64399 0.056,0.92778 0.2642,1.84268 0.3486,2.77534 -0.027,0.97341 0.1894,1.90417 0.3114,2.86159 0.087,1.18253 0.1407,2.35125 0.3377,3.51976 0.169,0.97714 0.2251,1.96706 0.2522,2.95665 -0.081,0.75041 0.2208,1.41079 0.3244,2.14286 0.092,0.82905 0.097,1.6644 0.1034,2.49755 0,0.84067 3e-4,1.68135 -10e-4,2.52203 0.042,0.4132 -0.055,0.84458 0,1.25635 0.046,0.35674 0.1872,0.73198 0.2489,1.09189 0.1317,0.87473 0.1531,1.76028 0.1675,2.64313 0.01,0.84718 0.01,1.69444 0,2.54165 -0.1893,0.85865 -0.3244,1.72314 -0.3845,2.60005 -0.2698,0.74393 -0.375,1.50221 -0.4201,2.28584 0.027,0.94702 -0.2475,1.85584 -0.3468,2.7918 -0.1101,0.96078 -0.3599,1.89578 -0.4617,2.86095 -0.1039,0.85956 -0.3367,1.69368 -0.4245,2.55979 0,0.86129 -0.2627,1.68381 -0.3794,2.53297 -0.032,0.8564 -0.2965,1.67149 -0.4174,2.51698 -0.081,0.90147 -0.094,1.80697 -0.1005,2.71146 -0.2203,1.03205 -0.3108,2.08147 -0.3712,3.13281 -0.088,1.03942 -0.3132,2.05737 -0.3893,3.10232 -0.2467,1.08796 -0.3771,2.19335 -0.4509,3.30489 -0.2113,1.08776 -0.3707,2.17883 -0.5945,3.26395 -0.1367,1.0701 -0.4233,2.10978 -0.5853,3.17617 -0.079,1.11653 -0.2986,2.2116 -0.4162,3.32585 -0.3065,1.03583 -0.3388,2.12795 -0.5999,3.16815 -0.1856,0.95227 -0.3092,1.90225 -0.53,2.84687 -0.1833,0.78817 -0.2195,1.59695 -0.2403,2.40247 -0.2059,0.8394 -0.3319,1.6898 -0.3887,2.5511 0.021,0.872 -0.2379,1.7072 -0.3539,2.566 -0.09,0.79076 -0.094,1.58776 -0.1002,2.38256 0,0.8304 10e-5,1.6608 0,2.4912 0.054,0.9077 -0.016,1.7782 -0.1892,2.6666 -0.1591,0.791 -0.1976,1.5972 -0.22,2.4014 -0.036,0.7762 -0.2956,1.5163 -0.3738,2.2935 -0.056,0.7566 -0.054,1.516 -0.056,2.2742 -2e-4,0.8321 0,1.6641 0,2.4962 0.039,0.9348 0.015,1.6662 -0.2051,2.5784 -0.1665,0.6883 -0.1871,1.3979 -0.2057,2.1023 -0.014,0.8107 -0.011,1.6217 -0.01,2.4325 0,0.8372 0,1.6745 0,2.5117 4e-4,0.8372 4e-4,1.6744 4e-4,2.5116 0,0.8368 -10e-5,1.6737 -10e-5,2.5105 0.043,0.4128 -0.054,0.8438 0,1.2552 0.047,0.3567 0.1877,0.7317 0.2494,1.0916 0.1319,0.8748 0.1532,1.7604 0.1676,2.6433 0.01,0.8472 0.01,1.6945 0,2.5417 0.062,0.5483 -0.085,1.1285 0,1.6739 0.028,0.1838 0.1334,0.3473 0.1876,0.5252 0.1808,0.7798 0.2012,1.5843 0.2226,2.381 -0.048,0.8149 0.2139,1.5789 0.3168,2.3831 0.096,0.8767 0.1048,1.7595 0.1118,2.6403 0,0.8436 5e-4,1.6871 -8e-4,2.5306 0,0.8366 0,1.6731 0,2.5097 -10e-5,0.8533 -10e-5,1.7067 -10e-5,2.5601 0,0.9438 0,1.8877 0,2.8316 0,0.8534 0,1.7069 0,2.5603 0,0.8362 0,1.6723 0,2.5085 -0.014,0.8789 0.063,1.7574 -0.1011,2.6231 -0.2242,0.8378 -0.1821,1.7155 -0.4152,2.5456 -0.1577,0.7531 -0.4091,1.477 -0.5813,2.2264 -0.094,0.8145 -0.1812,1.6079 -0.3543,2.4099 -0.1674,0.7948 -0.2005,1.6072 -0.2151,2.4165 -0.1894,0.9513 -0.3254,1.9092 -0.3894,2.8768 -0.043,0.8264 -0.04,1.6542 -0.04,2.4814 0.067,0.8972 -0.1954,1.7611 -0.3131,2.6437 -0.09,0.7927 -0.097,1.5915 -0.1033,2.3883 0,0.8301 -6e-4,1.6602 6e-4,2.4904 0,0.837 0,1.674 0,2.5111 10e-5,0.8369 10e-5,1.6738 10e-5,2.5107 -10e-5,0.8368 -10e-5,1.6736 -10e-5,2.5104 0,0.8368 0,1.6736 0,2.5104 0,0.1395 -0.021,0.2806 0,0.4184 0.028,0.1839 0.1425,0.3451 0.188,0.5255 0.093,0.3703 0.1287,0.7489 0.166,1.1277 0.064,0.8384 0.065,1.68 0.068,2.5204 7e-4,0.8401 0,1.6802 0,2.5202 0,0.8371 0,1.6741 0,2.5112 -10e-5,0.8367 -10e-5,1.6735 -10e-5,2.5103 0.2715,0.3165 0.1423,1.2538 0.4534,1.4318 0.059,0.034 0.1353,0.01 0.2029,0.014 -0.6347,-0.7131 -1.2433,-1.4505 -1.9042,-2.1394 -0.078,-0.081 0.049,0.2436 0.1428,0.3062 0.2471,0.1652 0.5894,0.1766 0.8717,0.2112 0.6792,0.1145 1.3316,-0.087 1.9963,-0.2034 0.7528,-0.1467 1.4929,-0.3431 2.2525,-0.4607 0.716,-0.2352 1.4626,-0.3414 2.191,-0.5234 0.8652,-0.2445 1.7562,-0.3521 2.6502,-0.4148 0.8525,-0.047 1.7066,-0.046 2.5601,-0.047 0.6957,-0.011 1.3793,-0.2034 2.0701,-0.2955 0.838,-0.097 1.6825,-0.1086 2.5251,-0.1181 0.8632,0.018 1.7324,-0.058 2.5907,0.048 0.058,0.021 0.1321,0.017 0.1725,0.063 0.01,0.011 -0.104,0.162 -0.1138,0.1028 -0.015,-0.09 0.012,-0.1827 0.021,-0.2738 0.014,-0.6853 0.2916,-1.3139 0.3903,-1.9899 0.024,-0.8028 0.11,-1.5727 0.2724,-2.3582 0.1601,-0.7825 0.1936,-1.5813 0.2144,-2.3773 0.014,-0.8226 0.01,-1.6454 0.01,-2.468 0,-0.8366 0,-1.6732 0,-2.5099 -0.039,-0.9341 -0.014,-1.665 0.2061,-2.5764 0.1665,-0.6882 0.1871,-1.3977 0.2057,-2.1019 0.014,-0.8108 0.011,-1.6217 0.01,-2.4326 0,-0.8372 0,-1.6744 0,-2.5116 -4e-4,-0.8372 -4e-4,-1.6745 -4e-4,-2.5117 0,-0.8368 0,-1.6736 0,-2.5105 0,-0.8368 0,-1.6735 0,-2.5103 0,-0.8368 0,-1.6736 0,-2.5104 0.088,-0.7317 -0.2117,-1.3731 -0.3142,-2.0874 -0.4029,-0.7036 -0.3038,-1.5501 -0.5714,-2.2897 -0.2268,-0.8016 -0.3909,-1.6429 -0.7338,-2.4053 -0.2985,-0.7204 -0.4325,-1.7617 -0.8441,-2.4043 -0.2974,-0.7263 -0.3974,-1.497 -0.7754,-2.1919 -0.2319,-0.8536 -0.6416,-1.6316 -0.9624,-2.4502 -0.2678,-0.7519 -0.6423,-1.4604 -0.9147,-2.2191 -0.2468,-0.8253 -0.561,-1.6274 -0.8307,-2.4471 -0.1861,-0.4464 -0.1385,-0.9527 -0.2555,-1.4108 -0.025,-0.097 -0.094,-0.1776 -0.1321,-0.2707 -0.1122,-0.2774 -0.1299,-0.4129 -0.1975,-0.7091 -0.2557,-0.7413 0.053,-1.6329 -0.2665,-2.3372 -0.294,-0.6846 -0.1375,-1.4656 -0.3904,-2.1494 -0.1246,-0.8287 -0.3969,-1.6086 -0.5685,-2.4256 -0.1366,-0.4439 -0.061,-0.9311 -0.155,-1.3785 -0.063,-0.2997 -0.228,-0.6201 -0.2978,-0.9423 -0.02,-0.1325 -0.023,-0.2684 -0.059,-0.3975 -0.028,-0.1 -0.086,-0.1888 -0.1293,-0.2832 -0.037,-0.1252 -0.079,-0.249 -0.1112,-0.3757 -0.1099,-0.4348 -0.1603,-0.8763 -0.2084,-1.321 -0.1184,-0.5807 0.02,-1.1985 -0.072,-1.7781 -0.03,-0.1904 -0.1359,-0.3611 -0.1909,-0.5459 -0.1788,-0.7857 -0.1981,-1.5953 -0.2184,-2.3974 -0.014,-0.8425 -0.011,-1.6851 -0.01,-2.5276 0,-0.8378 0,-1.6757 0,-2.5136 4e-4,-0.8368 4e-4,-1.6736 4e-4,-2.5103 0,-0.8535 -1e-4,-1.707 -1e-4,-2.5604 -0.2233,-0.8995 -0.3148,-1.8236 -0.3758,-2.7461 -0.047,-0.8792 -0.046,-1.76 -0.047,-2.6401 8e-4,-0.8385 0,-1.6769 0,-2.5154 7e-4,-0.8362 8e-4,-1.6724 8e-4,-2.5086 1e-4,-0.8367 1e-4,-1.6735 0,-2.5102 -0.2957,-0.6462 -0.335,-1.368 -0.3814,-2.0668 -0.042,-0.8419 -0.041,-1.6853 -0.041,-2.5281 10e-5,-0.1402 0.018,-0.2816 4e-4,-0.4207 -0.03,-0.2321 -0.1322,-0.4497 -0.1768,-0.6794 -0.084,-0.43 -0.1277,-0.8631 -0.1687,-1.2987 -0.067,-0.8711 -0.07,-1.7454 -0.073,-2.6185 -7e-4,-0.8409 0,-1.6817 0,-2.5226 9e-4,-0.8365 0,-1.673 0,-2.5095 10e-5,-0.8367 10e-5,-1.6734 10e-5,-2.51006 -10e-5,-0.8368 -10e-5,-1.6736 -10e-5,-2.5104 0,-0.8368 0,-1.6736 0,-2.5104 0,-0.8368 0,-1.67364 0,-2.51044 0,-0.8368 0,-1.6736 0,-2.5104 0,-0.8368 0,-1.6736 0,-2.5104 0,-0.8368 0,-1.67361 0,-2.51041 0,-0.8368 0,-1.6736 0,-2.5104 0,-0.93787 0,-1.87574 0,-2.81361 0,-0.87495 0,-1.7499 0,-2.62485 0,-0.83763 0,-1.67527 0,-2.5129 0,-0.83626 0,-1.67252 0,-2.50877 0.015,-0.79168 0.2821,-1.5485 0.3633,-2.33885 -0.025,-0.83178 0.1803,-1.6226 0.3235,-2.43439 0.1104,-0.89813 0.1351,-1.80327 0.1493,-2.70706 -0.061,-0.91695 0.1997,-1.80012 0.3194,-2.70225 0.048,-0.91465 0.124,-1.80681 0.2823,-2.70894 0.1581,-0.86464 0.2059,-1.74213 0.2296,-2.61897 0.2052,-0.86097 0.343,-1.73021 0.3873,-2.61378 0.041,-0.9173 0.041,-1.8357 0.042,-2.7537 0.041,-0.99118 0.255,-1.96967 0.3459,-2.96084 0.066,-0.84205 0.069,-1.6872 0.072,-2.5313 6e-4,-0.87312 0,-1.74623 0,-2.61935 -0.001,-0.92723 0,-1.85447 0,-2.7817 -1e-4,-0.84684 -1e-4,-1.69369 -1e-4,-2.54053 0,-0.83603 0,-1.67205 0,-2.50807 0,-0.8366 0,-1.67319 0,-2.50978 0,-0.8368 0,-1.6736 0,-2.5104 0,-0.13947 0.021,-0.28053 0,-0.41841 -0.028,-0.1839 -0.1424,-0.3451 -0.1879,-0.52547 -0.093,-0.37025 -0.1287,-0.74892 -0.166,-1.1277 -0.065,-0.83843 -0.066,-1.67998 -0.068,-2.52036 -10e-5,-0.14045 0.018,-0.28207 -3e-4,-0.42135 -0.03,-0.23235 -0.1325,-0.45021 -0.1771,-0.68022 -0.083,-0.4304 -0.1276,-0.86385 -0.1684,-1.29982 -0.079,-0.43551 0,-0.89327 -0.061,-1.32842 -0.055,-0.3713 -0.1953,-0.75205 -0.2603,-1.12699 -0.1102,-0.43548 -0.051,-0.90003 -0.1289,-1.33781 -0.073,-0.41254 -0.216,-0.80198 -0.2775,-1.22464 -0.052,-0.96723 -0.3449,-1.88341 -0.4794,-2.84007 -0.03,-0.87558 -0.3087,-1.69538 -0.4266,-2.5612 -0.1251,-0.58584 -0.019,-1.20292 -0.1043,-1.78982 -0.035,-0.24001 -0.1321,-0.46694 -0.1855,-0.70351 -0.1754,-0.8884 -0.2116,-1.79496 -0.2292,-2.69776 -0.2582,-0.78718 -0.3366,-1.61345 -0.3905,-2.43527 -0.044,-0.8733 -0.041,-1.74804 -0.041,-2.62218 7e-4,-0.94527 0,-1.89055 0,-2.83582 7e-4,-0.85324 8e-4,-1.70648 8e-4,-2.55972 10e-5,-0.83614 10e-5,-1.67228 0,-2.50842 -0.048,-0.97299 0.1923,-1.92278 0.3078,-2.88477 0.094,-0.85228 0.1055,-1.71022 0.1129,-2.56667 0,-0.83281 8e-4,-1.66564 -5e-4,-2.49846 0,-0.83635 0,-1.67271 0,-2.50907 -10e-5,-0.83683 -10e-5,-1.67367 -10e-5,-2.51051 0,-0.83681 0,-1.67362 0,-2.51043 0,-0.8368 0,-1.6736 0,-2.5104 0,-0.8368 0,-1.6736 0,-2.5104 0,-0.83681 0,-1.67361 0,-2.51041 0,-0.8368 0,-1.6736 0,-2.5104 0,-0.8368 0,-1.6736 0,-2.5104 -0.043,-0.41278 0.054,-0.84386 0,-1.2552 -0.047,-0.35673 -0.1876,-0.73171 -0.2493,-1.09166 -0.1319,-0.87476 -0.1532,-1.76037 -0.1677,-2.64328 -0.01,-0.84719 -0.01,-1.69445 0,-2.54167 0,-0.83678 0,-1.67355 0,-2.51032 2e-4,-0.83664 2e-4,-1.67327 2e-4,-2.50991 0,-0.83679 -10e-5,-1.67358 -10e-5,-2.51038 0,-0.8368 0,-1.6736 0,-2.5104 0.014,-0.8792 -0.063,-1.75795 0.1011,-2.62397 0.1872,-0.80942 0.2617,-1.63487 0.2989,-2.46267 0.047,-0.77043 0.3077,-1.50303 0.3857,-2.27575 -0.023,-0.75478 0.2748,-1.45027 0.3872,-2.1879 0.038,-0.79296 0.2931,-1.5449 0.4053,-2.32949 0.2796,-0.79379 0.4198,-1.61455 0.4826,-2.45031 0.2373,-0.81714 0.3628,-1.65284 0.4196,-2.49965 0.063,-0.76173 0.3215,-1.48407 0.3988,-2.24997 0.115,-0.79895 0.3293,-1.57699 0.411,-2.3864 0.1067,-0.84069 0.3323,-1.65785 0.4181,-2.50626 0.092,-0.51866 -0.01,-1.06086 0.059,-1.57902 0.011,-0.0808 0.1823,-0.76595 0.2115,-0.88375 0.1652,-0.6842 0.1827,-1.38996 0.2001,-2.08998 -0.028,-0.90623 0,-1.61447 0.2147,-2.4993 0.1647,-0.68885 0.1845,-1.39865 0.2027,-2.10316 0.014,-0.81121 0.011,-1.6226 0.01,-2.43389 0,-0.83723 0,-1.67446 0,-2.51169 -4e-4,-0.83721 -4e-4,-1.67443 -4e-4,-2.51165 0,-0.83682 0,-1.67364 0,-2.51046 0,-0.83679 0,-1.67359 0,-2.51038 -0.055,-0.55069 0.072,-1.12514 0,-1.6736 -0.03,-0.23111 -0.1271,-0.44873 -0.1781,-0.67616 -0.024,-0.1385 -0.026,-0.2824 -0.071,-0.4155 -0.03,-0.0887 -0.1,-0.15831 -0.1498,-0.23746 -0.043,-0.10461 -0.093,-0.20667 -0.1288,-0.31382 -0.119,-0.35286 -0.1056,-0.68456 -0.3299,-0.98685 -0.2196,-0.31828 -0.1657,-0.73382 -0.2891,-1.07751 -0.027,-0.0747 -0.1069,-0.11941 -0.1447,-0.18921 -0.1156,-0.21305 -0.1527,-0.43219 -0.2109,-0.66491 -0.2584,-0.30364 -0.2401,-0.72271 -0.3837,-1.06919 -0.036,-0.0879 -0.1218,-0.14755 -0.168,-0.23075 -0.1378,-0.24831 -0.1755,-0.44578 -0.2533,-0.71939 -0.027,-0.14157 -0.031,-0.2893 -0.081,-0.42471 -0.029,-0.0803 -0.1,-0.13868 -0.1496,-0.20802 -0.041,-0.10273 -0.09,-0.20278 -0.1233,-0.30817 -0.1179,-0.36873 -0.1343,-0.72133 -0.2962,-1.07545 -0.1925,-0.39265 -0.1522,-0.85536 -0.2754,-1.26223 -0.028,-0.0919 -0.1028,-0.16282 -0.1426,-0.25016 -0.1187,-0.26052 -0.1444,-0.42607 -0.2135,-0.70696 0,-0.3772 -0.2,-0.58274 -0.3309,-0.91243 0,0 4.0889,0.88685 4.0889,0.88685 l 0,0 c 0.1229,0.34761 0.173,0.70348 0.2987,1.04962 0.2603,0.71134 0.3638,1.46082 0.6444,2.16726 0.159,0.66881 0.4763,1.28354 0.6668,1.94178 0.3268,0.67018 0.5343,1.38853 0.7894,2.08763 0.2671,0.60029 0.3774,1.24454 0.6657,1.83877 0.1706,0.79382 0.5321,1.53548 0.5712,2.36067 0.1041,0.88645 0.046,1.77994 0.06,2.67105 0,0.8368 -1e-4,1.6736 -1e-4,2.5104 0,0.83678 0,1.67356 1e-4,2.51034 0,0.8368 2e-4,1.67359 8e-4,2.51038 8e-4,0.83794 0,1.67588 0,2.51383 0,0.84283 0,1.68629 -0.05,2.52809 -0.056,0.80041 -0.1556,1.5951 -0.3367,2.37795 -0.1029,0.73314 0,1.48548 -0.08,2.22314 -0.056,0.80383 -0.1548,1.60237 -0.3458,2.38671 -0.1226,0.76594 -0.045,1.55735 -0.1983,2.32302 -0.1333,0.83844 -0.3434,1.66258 -0.4197,2.50954 -0.1305,0.80451 -0.3379,1.59366 -0.4205,2.40548 -0.1296,0.72148 -0.3398,1.42744 -0.3573,2.16488 -0.1067,0.84963 -0.2979,1.68123 -0.432,2.52549 -0.1242,0.86585 -0.3393,1.70752 -0.5364,2.55815 -0.1539,0.78733 -0.3186,1.56892 -0.4237,2.36466 -0.155,0.69761 -0.2977,1.384 -0.342,2.09997 -0.1252,0.71192 -0.3285,1.40993 -0.3203,2.13863 -0.077,0.85843 -0.2164,1.70634 -0.3438,2.55815 0,0.79894 2e-4,1.59789 10e-4,2.39683 0,0.8368 1e-4,1.6736 1e-4,2.5104 0,0.83682 0,1.67363 0,2.51044 -1e-4,0.83696 -1e-4,1.67393 -7e-4,2.51089 -5e-4,0.83683 0,1.67366 0,2.51049 3e-4,0.82642 0,1.65314 0.029,2.47913 0.038,0.79745 0.1068,1.59316 0.2626,2.37753 0.1462,0.88762 0.147,1.77574 0.1295,2.67395 0,0.8368 0,1.6736 0,2.5104 0,0.8368 0,1.6736 0,2.5104 0,0.8368 0,1.6736 0,2.5104 0,0.83681 0,1.67361 0,2.51041 0,0.8368 0,1.67361 0,2.51041 0,0.8368 0,1.6736 0,2.51041 0,0.83659 10e-5,1.67319 4e-4,2.50979 5e-4,0.8359 0,1.6718 0,2.5077 6e-4,0.846 0,1.69212 -0.016,2.53796 -0.027,0.92791 -0.077,1.85588 -0.2087,2.77574 -0.1224,0.8773 -0.2546,1.74876 -0.1962,2.63828 0,0.83625 0,1.67249 -2e-4,2.50874 -2e-4,0.85383 -5e-4,1.70765 0,2.56148 -10e-4,0.94156 0,1.88314 0,2.8247 0.01,0.8152 0.016,1.63241 0.1094,2.44331 0.1126,0.84881 0.3344,1.6836 0.3502,2.5429 0.054,0.81451 0.1548,1.62238 0.326,2.42134 0.1234,0.83772 0.097,1.69262 0.2803,2.52374 0.1735,0.85019 0.315,1.69896 0.4272,2.55931 0.1881,0.93812 0.3518,1.87571 0.4847,2.82326 0.1817,0.8479 0.2455,1.70722 0.4075,2.55873 0.1578,0.85184 0.1795,1.70984 0.2837,2.56866 0.132,0.86821 0.3197,1.72967 0.2656,2.61441 0.015,0.75899 0.033,1.5214 0.1606,2.27156 0.1468,0.77753 0.3314,1.54259 0.2525,2.34283 0,0.8368 0,1.6736 0,2.5104 0,0.8366 0,1.6732 -1e-4,2.5098 0,0.83602 0,1.67204 0,2.50806 0,0.84669 0,1.69338 3e-4,2.54007 3e-4,0.92673 8e-4,1.85347 0,2.7802 9e-4,0.88098 0,1.76201 -0.01,2.64294 -0.017,0.90643 -0.047,1.81366 -0.1544,2.71469 -0.1125,0.91929 -0.2952,1.83512 -0.2584,2.76527 -0.01,0.969 -0.021,1.93926 -0.1083,2.90506 -0.096,0.85079 -0.2822,1.68808 -0.3539,2.54003 -0.059,0.94883 -0.1633,1.893 -0.3296,2.82952 -0.1237,0.89331 -0.1137,1.80017 -0.2727,2.69021 -0.1331,0.82373 -0.2509,1.63852 -0.2144,2.47695 -0.039,1.00213 -0.098,2.00668 -0.286,2.9939 -0.1461,0.78237 -0.1868,1.56817 -0.2843,2.35755 -0.1173,0.69038 -0.3091,1.36854 -0.2432,2.07527 0,0.83625 0,1.67251 0,2.50877 0,0.83763 0,1.67527 0,2.5129 0,0.87495 0,1.7499 0,2.62485 0,0.93787 0,1.87574 0,2.81361 0,0.8368 0,1.6736 0,2.5104 0,0.8368 0,1.6736 0,2.51041 0,0.8368 0,1.6736 0,2.5104 0,0.8368 0,1.6736 0,2.51039 0,0.8368 0,1.6736 0,2.5104 0,0.8368 0,1.6736 10e-5,2.5104 0,0.8368 0,1.67356 0,2.51036 0,0.8369 0,1.6738 -3e-4,2.5107 -3e-4,0.8371 -8e-4,1.6742 0,2.5113 -9e-4,0.8327 0,1.6656 0.01,2.4983 0.016,0.8033 0.039,1.6084 0.1534,2.4048 0.1323,0.8709 0.32,1.7354 0.2605,2.6229 0.01,0.78 0.017,1.5624 0.114,2.3376 0.1125,0.7555 0.3482,1.4977 0.3038,2.2688 0,0.8369 0,1.6737 -2e-4,2.5106 -2e-4,0.8368 -5e-4,1.6736 0,2.5104 -10e-4,0.8339 0,1.6678 0,2.5017 0.01,0.8276 0.023,1.6564 0.1085,2.4804 0.1092,0.9718 0.3134,1.9365 0.3093,2.9173 0,0.8535 0,1.707 -10e-5,2.5605 0,0.8372 -1e-4,1.6744 -8e-4,2.5116 -8e-4,0.8373 0,1.6746 0,2.5119 0,0.8115 6e-4,1.6236 0.047,2.434 0.052,0.7038 0.1528,1.3984 0.3255,2.0837 0.1161,0.804 0.056,1.6268 0.2311,2.4255 0.1635,0.7447 0.4185,1.4646 0.5567,2.215 0.2068,0.7671 0.2305,1.5606 0.4515,2.3255 0.2245,0.8247 0.3685,1.6644 0.5467,2.5001 0.072,0.7439 0.2318,1.4642 0.3759,2.1961 0.03,0.7285 0.077,1.4619 0.3191,2.1565 0.2386,0.743 0.3092,1.5247 0.6208,2.2464 0.2884,0.7804 0.5206,1.5828 0.8524,2.3466 0.3315,0.7232 0.622,1.4616 0.9187,2.199 0.3579,0.8095 0.6061,1.659 0.9583,2.4708 0.2283,0.7418 0.4439,1.4834 0.7764,2.1869 0.2324,0.8521 0.5516,1.6787 0.819,2.5205 0.2285,0.867 0.5094,1.7183 0.6837,2.5998 0.1255,0.8192 0.394,1.5952 0.5355,2.4096 0.1715,0.8053 0.2381,1.6042 0.1898,2.4293 0,0.8368 0,1.6736 0,2.5104 0,0.8368 0,1.6736 -10e-5,2.5104 0,0.8368 0,1.6736 10e-5,2.5104 1e-4,0.8367 2e-4,1.6735 9e-4,2.5103 7e-4,0.838 0,1.676 0,2.5139 0,0.8429 0,1.6864 -0.051,2.5282 -0.057,0.7993 -0.1578,1.5927 -0.3387,2.3745 -0.1,0.7274 0.01,1.4732 -0.031,2.206 8e-4,0.8371 0,1.6743 0,2.5114 0,0.8524 0,1.7052 -0.047,2.5567 -0.057,0.8846 -0.1567,1.765 -0.3382,2.6337 -0.1247,0.7868 -0.091,1.5939 -0.2803,2.3732 -0.1755,0.7638 -0.3443,1.53 -0.5606,2.2817 -0.4621,0.984 -1.213,1.8609 -2.3904,1.8583 -0.1782,-0.054 -0.3422,-0.1604 -0.5264,-0.1888 -0.5427,-0.084 -1.1206,0.061 -1.6663,0 -0.7803,4e-4 -1.561,0 -2.3406,0.036 -0.77,0.052 -1.5199,0.1895 -2.2673,0.3831 -0.8216,0 -1.6432,-0.01 -2.4647,0.01 -0.7621,0.019 -1.5294,0.045 -2.2741,0.225 -0.7283,0.1906 -1.4603,0.3109 -2.1836,0.519 -0.801,0.2564 -1.6635,0.2574 -2.4559,0.57 -0.8074,0.089 -1.581,0.3713 -2.3919,0.3768 -2.8369,-0.044 -2.2451,0.031 -4.7447,-2.7878 -0.1886,-0.8347 -0.3698,-1.6934 -0.3673,-2.5511 0,-0.8369 0,-1.6738 2e-4,-2.5107 4e-4,-0.8377 9e-4,-1.6753 0,-2.513 10e-4,-0.8318 0,-1.6637 -0.01,-2.4955 -0.015,-0.759 -0.033,-1.5214 -0.1606,-2.2716 -0.1469,-0.7775 -0.3314,-1.5425 -0.2525,-2.3428 0,-0.8368 0,-1.6736 0,-2.5104 0,-0.8368 0,-1.6736 0,-2.5104 0,-0.8367 0,-1.6734 -4e-4,-2.51 -4e-4,-0.8366 0,-1.6732 0,-2.5098 -6e-4,-0.8434 0,-1.687 0.016,-2.5303 0.027,-0.88 0.072,-1.7608 0.2158,-2.6308 0.1284,-0.79 0.2464,-1.5689 0.1889,-2.3733 0.01,-0.8806 0.024,-1.7622 0.1096,-2.6392 0.1001,-0.9321 0.2803,-1.8539 0.3494,-2.7883 0.056,-0.9104 0.1563,-1.8168 0.3568,-2.7082 0.1501,-0.8346 0.1603,-1.6936 0.4101,-2.5112 0.1997,-0.7126 0.3841,-1.4279 0.5399,-2.1518 0.072,-0.7972 0.2174,-1.583 0.3274,-2.3751 0,-0.7986 -10e-5,-1.5973 -0.001,-2.3959 0,-0.8362 0,-1.6724 0,-2.5085 0,-0.8535 0,-1.7069 0,-2.5603 0,-0.9439 0,-1.8878 0,-2.8317 0,-0.8536 0,-1.7072 4e-4,-2.5608 4e-4,-0.837 0,-1.6741 0,-2.5111 6e-4,-0.8305 0,-1.6612 -0.015,-2.4915 -0.024,-0.7981 -0.064,-1.5976 -0.2051,-2.3852 -0.1492,-0.8559 -0.2542,-1.7064 -0.2473,-2.5777 -0.054,-0.7071 -0.1598,-1.4042 -0.321,-2.0953 -0.1036,-0.8562 -0.025,-1.7225 -0.048,-2.5835 -4e-4,-0.8264 0,-1.6531 -0.029,-2.4791 -0.038,-0.7974 -0.1068,-1.5931 -0.2626,-2.3775 -0.1462,-0.8876 -0.147,-1.7758 -0.1296,-2.674 0,-0.8367 10e-5,-1.6735 0,-2.5103 -10e-5,-0.8368 -2e-4,-1.6736 -9e-4,-2.5104 -7e-4,-0.8379 0,-1.6759 0,-2.5139 0,-0.8428 0,-1.6863 0.051,-2.5281 0.057,-0.7993 0.1578,-1.5926 0.3384,-2.3744 0.1,-0.728 -0.01,-1.4742 0.03,-2.2074 -10e-4,-0.8399 0,-1.6798 0.01,-2.5196 0.016,-0.8412 0.038,-1.685 0.168,-2.5177 0.1216,-0.7057 0.3187,-1.3985 0.2927,-2.1209 0.058,-0.8792 0.1602,-1.7531 0.324,-2.6194 0.099,-0.7798 0.023,-1.5697 0.045,-2.3543 -7e-4,-0.8432 0,-1.6865 0.015,-2.5296 0.026,-0.88246 0.07,-1.76636 0.2193,-2.63816 0.1405,-0.8151 0.2756,-1.6235 0.2987,-2.4529 0.097,-0.8257 0.2797,-1.63886 0.3499,-2.46616 0.063,-0.91663 0.1767,-1.82832 0.3983,-2.72181 0.1971,-0.93552 0.2839,-1.89196 0.5162,-2.82143 0.1494,-1.00561 0.3546,-1.99957 0.5153,-3.0029 0.146,-1.14324 0.3234,-2.2819 0.466,-3.42536 0.2033,-1.07728 0.4334,-2.14895 0.614,-3.23051 0.1986,-1.00899 0.3514,-2.02908 0.4865,-3.0479 0.1113,-1.11639 0.3031,-2.21866 0.4619,-3.32831 0.1193,-1.01984 0.3321,-2.02742 0.3677,-3.05574 0.086,-1.01291 0.2535,-2.01645 0.3252,-3.02851 0.026,-1.00099 0.062,-2.00584 0.2333,-2.99446 0.1578,-0.83194 0.3243,-1.65831 0.4096,-2.50199 0.148,-0.82535 0.2953,-1.64509 0.3544,-2.48302 0.1357,-0.8545 0.3488,-1.69491 0.4238,-2.55848 0.1477,-0.95607 0.3734,-1.89864 0.4629,-2.86337 0.1414,-0.90387 0.285,-1.80146 0.3115,-2.71837 0.096,-0.77414 0.3004,-1.52111 0.421,-2.28808 0.095,-0.80787 0.2809,-1.60834 0.3053,-2.42075 -4e-4,-0.82641 0,-1.65313 -0.029,-2.47912 -0.038,-0.79766 -0.1068,-1.59356 -0.2622,-2.3782 -0.1459,-0.88862 -0.1459,-1.7776 -0.1273,-2.67668 6e-4,-0.82741 0,-1.65496 -0.015,-2.48221 -0.024,-0.73425 -0.055,-1.47209 -0.2128,-2.19223 -0.1724,-0.79453 -0.2422,-1.58374 -0.2348,-2.39814 -0.06,-0.9262 -0.1747,-1.84592 -0.3221,-2.76231 -0.1446,-1.17314 -0.1487,-2.35934 -0.3349,-3.52845 -0.1496,-0.96974 -0.193,-1.94319 -0.2918,-2.91848 -0.1306,-0.97418 -0.3146,-1.94341 -0.2905,-2.93117 -0.038,-0.79828 -0.1055,-1.5949 -0.2601,-2.3803 -0.1438,-0.87791 -0.1429,-1.75569 -0.1433,-2.6438 -0.023,-0.73559 -0.054,-1.47515 -0.2184,-2.19549 -0.1912,-0.83812 -0.2896,-1.67678 -0.3518,-2.53439 -0.1439,-1.02421 -0.3646,-2.03513 -0.468,-3.06495 -0.1523,-0.87164 -0.2658,-1.73791 -0.2767,-2.62473 -0.08,-0.81334 -0.2378,-1.61141 -0.3845,-2.41471 -0.06,-0.84388 -0.1599,-1.68151 -0.3215,-2.51265 -0.1041,-0.88645 -0.046,-1.77994 -0.06,-2.67105 0,-0.8368 0,-1.6736 0,-2.5104 0,-0.8368 0,-1.6736 0,-2.5104 0,-0.83681 0,-1.67361 0,-2.51041 0,-0.83681 0,-1.67362 0,-2.51042 0,-0.83661 10e-5,-1.67322 -10e-5,-2.50984 -2e-4,-0.83573 -6e-4,-1.67145 0,-2.50718 0,-0.84452 0,-1.68905 0,-2.53356 0.01,-0.93303 0.027,-1.86687 0.109,-2.79689 0.086,-0.8772 0.2689,-1.74443 0.3079,-2.62285 -7e-4,-0.83792 0,-1.67585 0,-2.51378 0,-0.84258 0,-1.68579 0.049,-2.52734 0.056,-0.80055 0.1554,-1.59542 0.3386,-2.378 0.1082,-0.7484 0.01,-1.5177 0.1077,-2.26998 0.076,-0.86023 0.2138,-1.71016 0.3434,-2.56341 0,-0.80515 0.012,-1.61128 0.077,-2.4142 0.075,-0.75778 0.2157,-1.50183 0.3487,-2.25059 -0.02,-0.79842 0.018,-1.59838 0.069,-2.39498 0.077,-0.85835 0.2163,-1.7062 0.3431,-2.55802 0,-0.79961 0,-1.59924 0,-2.39886 0,-0.84171 0,-1.68372 0.028,-2.52501 0.039,-0.8281 0.1049,-1.65694 0.3004,-2.46532 0.1625,-0.73836 0.1665,-1.48552 0.2582,-2.2355 0.1137,-0.79966 0.3002,-1.59302 0.2574,-2.40571 0.016,-0.87457 0.042,-1.75085 0.1617,-2.61851 0.1213,-0.8184 0.3157,-1.62703 0.3274,-2.4578 0.077,-0.85953 0.2142,-1.70873 0.3418,-2.56158 -4e-4,-0.8051 0,-1.61075 0.048,-2.41485 0.056,-0.80267 0.1548,-1.59997 0.3429,-2.38373 0.1122,-0.73184 0.024,-1.48643 0.1491,-2.22026 0.092,-0.69065 0.2864,-1.37411 0.2966,-2.06971 -9e-4,-0.84005 0,-1.68015 0.01,-2.52015 0.016,-0.84046 0.04,-1.6834 0.1685,-2.51568 0.1167,-0.69154 0.3068,-1.371 0.2427,-2.07871 0,-0.85829 0.011,-1.7175 0.077,-2.57377 0.076,-0.85948 0.2142,-1.70863 0.3417,-2.56144 -5e-4,-0.80457 0,-1.60969 0.047,-2.41328 0.056,-0.80386 0.1545,-1.60247 0.3456,-2.3868 0.1234,-0.76768 0.047,-1.56131 0.2075,-2.32784 0.144,-0.84613 0.3717,-1.67453 0.4752,-2.52751 0.1514,-0.84931 0.3018,-1.69301 0.3439,-2.55702 0.1157,-0.92255 0.3009,-1.84188 0.2563,-2.77602 0,0 3.8655,1.60115 3.8655,1.60115 z"
       inkscape:connector-curvature="0" />
    <path
       style="fill:#666666;fill-opacity:1;stroke:none"
       d="m 34.376035,642.64839 c -2.017375,8.38222 -1.665863,17.24563 -2.602898,25.82304 -1.959691,23.96747 -5.167271,47.99346 -3.88951,72.08214 1.407013,15.72715 4.192508,31.39666 4.214083,47.2149 -1.991841,15.91403 -4.116651,31.82292 -6.751914,47.64894 -2.208914,17.25699 -2.64839,34.73101 -1.497534,52.08778 0.358928,10.66772 0.659557,21.42984 -1.377987,31.95692 -0.973502,11.02538 -1.03327,22.2053 0.09849,33.20783 0.854603,1.42635 3.293185,-0.44479 4.588667,-0.13568 4.491608,-0.87847 9.126073,-1.15263 13.62254,-1.68082 1.077398,-10.03397 1.236531,-20.19312 1.031404,-30.28017 -0.785859,-9.08705 -6.302338,-16.94989 -7.227019,-26.04487 -2.846641,-13.69605 -2.107973,-27.8026 -2.718348,-41.70426 -0.165457,-19.70461 -0.538009,-39.48671 1.678895,-59.09719 1.043808,-12.81012 0.478368,-25.71274 -1.909021,-38.34765 -1.104455,-20.78071 -0.513969,-41.61853 -0.809126,-62.42277 -0.355922,-8.52249 2.496278,-16.76157 3.301021,-25.20626 0.945025,-8.2683 1.416943,-16.73861 0.556135,-25.00951 -0.04786,-0.12766 -0.198435,-0.12034 -0.307882,-0.0924 z"
       id="path3113"
       inkscape:connector-curvature="0" />
  </g>
</svg>
