<?xml version="1.0" encoding="UTF-8" standalone="no"?>
<!-- Created with Inkscape (http://www.inkscape.org/) -->

<svg
   xmlns:dc="http://purl.org/dc/elements/1.1/"
   xmlns:cc="http://creativecommons.org/ns#"
   xmlns:rdf="http://www.w3.org/1999/02/22-rdf-syntax-ns#"
   xmlns:svg="http://www.w3.org/2000/svg"
   xmlns="http://www.w3.org/2000/svg"
   xmlns:sodipodi="http://sodipodi.sourceforge.net/DTD/sodipodi-0.dtd"
   xmlns:inkscape="http://www.inkscape.org/namespaces/inkscape"
   width="256"
   height="400"
   id="svg3017"
   version="1.1"
   inkscape:version="0.48.4 r9939"
   sodipodi:docname="ledge4Hanging7.svg"
   inkscape:export-filename="C:\Users\narfman0\Desktop\ledge\level4\ledge4Hanging7.png"
   inkscape:export-xdpi="90"
   inkscape:export-ydpi="90">
  <defs
     id="defs3019" />
  <sodipodi:namedview
     id="base"
     pagecolor="#ffffff"
     bordercolor="#666666"
     borderopacity="1.0"
     inkscape:pageopacity="0.0"
     inkscape:pageshadow="2"
     inkscape:zoom="2.03"
     inkscape:cx="121.69147"
     inkscape:cy="243.3468"
     inkscape:document-units="px"
     inkscape:current-layer="layer1"
     showgrid="false"
     inkscape:window-width="898"
     inkscape:window-height="944"
     inkscape:window-x="1981"
     inkscape:window-y="59"
     inkscape:window-maximized="0" />
  <metadata
     id="metadata3022">
    <rdf:RDF>
      <cc:Work
         rdf:about="">
        <dc:format>image/svg+xml</dc:format>
        <dc:type
           rdf:resource="http://purl.org/dc/dcmitype/StillImage" />
        <dc:title></dc:title>
      </cc:Work>
    </rdf:RDF>
  </metadata>
  <g
     inkscape:label="Layer 1"
     inkscape:groupmode="layer"
     id="layer1"
     transform="translate(0,-652.36218)">
    <path
       style="fill:#000000;fill-opacity:1;stroke:none"
       id="path3188"
       d="m 170.68658,661.45626 c -1.419,-0.26625 -2.8575,-0.37936 -4.2975,-0.44993 -1.8762,-0.0831 -3.7547,-0.0493 -5.6313,-0.11011 -1.7658,-0.16112 -3.52989,-0.32091 -5.30129,-0.40653 -1.742,-0.0262 -3.4749,-0.0831 -5.2078,-0.26539 -1.6823,-0.18857 -3.3736,-0.25799 -5.0648,-0.30043 -1.3033,-0.0536 -2.6121,0.0361 -3.91,-0.1067 -0.9882,-0.17464 -1.98,-0.3092 -2.9811,-0.37871 -1.0081,-0.0562 -2.0181,-0.0567 -3.0274,-0.059 -1.0302,-5.1e-4 -2.0604,10e-4 -3.0906,0.002 -0.4385,-0.10339 -0.9945,0.14068 -1.4234,-0.019 -0.03,-0.011 0.066,0.005 0.093,0.0208 0.051,0.7001 0.022,1.41115 0.027,2.11507 0.011,1.02825 0.019,2.05652 0.024,3.08482 0,1.03496 0,2.06992 0,3.10489 -0.1086,0.9017 0.2608,1.69215 0.3871,2.57253 0.1159,1.02261 0.1228,2.05323 0.1312,3.0811 0,1.03616 8e-4,2.07234 -8e-4,3.10851 0,1.03147 0,2.06295 0,3.09443 -2e-4,1.03088 -2e-4,2.06176 -2e-4,3.09265 1e-4,1.03091 1e-4,2.06183 1e-4,3.09275 0,1.03092 0,2.06185 0,3.09278 -0.042,1.08686 -0.3308,2.14872 -0.438,3.23578 -0.3862,0.89484 -0.4022,1.8825 -0.7205,2.78751 -0.2587,0.47454 -0.205,1.03073 -0.3309,1.53303 -0.081,0.32468 -0.2218,0.63171 -0.327,0.9495 -0.2363,0.8311 -0.161,1.68964 -0.3894,2.51848 -0.4832,1.14645 -1.2944,1.94531 -2.344,2.57774 -0.9899,0.50258 -2.0227,0.92127 -3.0563,1.3258 -0.8976,0.43384 -1.8059,0.84201 -2.6805,1.32154 -0.8335,0.44448 -1.6139,0.97908 -2.4225,1.4664 -0.8718,0.48834 -1.7056,1.03938 -2.5647,1.54965 -0.927,0.5995 -1.8136,1.25198 -2.6727,1.94381 -0.5919,0.59556 -1.2662,1.11247 -1.8343,1.73071 -0.6761,0.70333 -1.3794,1.37306 -2.1488,1.97528 -0.6755,0.52443 -1.3035,1.10198 -1.9463,1.66427 -0.5255,0.50278 -1.0259,1.0309 -1.5568,1.52828 -0.6724,0.63767 -1.448,1.15133 -2.1381,1.76728 -0.615,0.59756 -1.2679,1.15009 -1.845,1.78575 -0.6946,0.66598 -1.3437,1.3742 -2.056004,2.02236 -0.5875,0.61026 -1.2188,1.17293 -1.859,1.72759 -0.7442,0.62626 -1.5837,1.14552 -2.278,1.82841 -0.6162,0.60338 -1.2556,1.19342 -1.82451,1.84276 -0.512,0.53981 -1.0768,1.03244 -1.5701,1.58959 -0.5068,0.52137 -1.060603,1.00121 -1.544003,1.54493 -0.508,0.521 -1.0621,1.00146 -1.545796,1.54561 -0.5082,0.52127 -1.0625,1.00198 -1.5464,1.54637 -0.5725,0.515 -1.079,1.08943 -1.5849,1.66872 -0.5524,0.74382 -1.1345,1.47201 -1.7776,2.14037 -0.5553,0.66528 -1.1116,1.32866 -1.6245,2.02697 -0.5901,0.66066 -1.1657,1.33059 -1.7425,2.00368 -0.6284,0.77805 -1.301,1.52053 -1.9307,2.29734 -0.5713,0.51867 -1.0202,1.12116 -1.4869,1.72173 -0.4366,0.65652 -0.9593,1.26283 -1.5153,1.82262 -0.4058,0.56791 -1.0542,0.93524 -1.2858,1.61121 -0.144,0.76245 -0.1275,1.54584 -0.1314,2.31883 0,1.03746 0.01,2.0749 0.013,3.11236 0,1.16544 0,2.33089 0,3.49633 -0.1128,1.3541 0.1206,2.663 0.2898,3.99751 0.1747,0.90233 0.085,1.83486 0.193,2.7411 0.046,0.38516 0.1608,0.75893 0.2342,1.13978 0.1454,1.30703 0.2676,2.5985 0.5038,3.89045 0.219,0.87796 0.1513,1.79508 0.2719,2.68259 0.052,0.38607 0.1713,0.76024 0.2485,1.14214 0.1931,1.43706 0.2717,2.88503 0.3107,4.33332 0.022,1.11194 0.016,2.22416 0.014,3.33624 0.3152,0.95937 0.3958,1.97434 0.462,2.97589 0.055,1.06386 0.053,2.12955 0.054,3.19452 -9e-4,1.03366 0,2.06731 0,3.10097 -0.019,1.0828 0.077,2.16506 -0.1256,3.23163 -0.1842,1.0761 -0.3175,2.07438 -0.6361,3.12086 -0.1739,0.90689 -0.297,1.80074 -0.5113,2.70074 -0.1147,1.03422 -0.3929,2.02678 -0.5972,3.04429 -0.098,1.03945 -0.4324,2.0263 -0.5881,3.0575 -0.015,1.05691 -0.2663,2.06614 -0.4516,3.1 -0.2517,1.05416 -0.4345,2.14657 -0.7568,3.18426 -0.2661,0.61395 -0.2402,1.29902 -0.3864,1.93606 -0.081,0.35148 -0.2201,0.68687 -0.3271,1.03125 -0.1769,0.90373 -0.5064,1.75679 -0.6567,2.66822 -0.017,0.14795 -0.016,0.29885 -0.05,0.44385 -0.1657,0.50569 -0.1944,0.54781 -0.3036,1.03845 -0.1186,0.53325 -0.1818,1.01123 -0.3596,1.53295 -0.3222,0.81055 -0.3869,1.6712 -0.4243,2.53229 -0.089,1.03446 -0.357,2.04462 -0.4568,3.08493 -0.3087,1.00227 -0.4738,2.02945 -0.5479,3.07265 -0.1455,1.08006 -0.3078,2.19973 -0.6144,3.25133 -0.3018,0.94237 -0.3924,1.92355 -0.4386,2.90578 -0.084,1.05523 -0.3585,2.08447 -0.4607,3.14415 -0.1006,1.0243 0.015,2.05318 -0.2119,3.05848 -0.2529,0.85017 -0.3196,1.72996 -0.3562,2.61074 0.023,1.09855 -0.019,1.95778 -0.2784,3.03016 -0.2026,0.84726 -0.2263,1.72046 -0.2485,2.587 -0.032,1.05255 0.061,2.10211 -0.1357,3.13901 -0.2289,0.99789 -0.3194,2.01539 -0.3646,3.03557 -0.032,1.00504 -0.028,2.01083 -0.027,3.01623 -0.2313,1.0566 -0.3941,2.1207 -0.4669,3.1994 -0.051,0.9958 -0.049,1.9934 -0.049,2.9902 0.001,1.0282 0,2.0564 0,3.0845 -0.2397,0.9209 -0.4112,1.8447 -0.4752,2.7937 -0.047,0.9601 -0.044,1.9217 -0.044,2.8827 0.001,1.0283 0,2.0566 0,3.0849 9e-4,1.0318 0.001,2.0636 0,3.0954 -0.2405,0.9206 -0.4123,1.8441 -0.4763,2.7929 -0.047,0.96 -0.044,1.9216 -0.044,2.8825 0.081,1.1057 -0.2411,2.1707 -0.386,3.2586 -0.049,1.0646 -0.1482,2.0923 -0.3642,3.1349 -0.2002,0.966 -0.2429,1.9522 -0.2687,2.9352 -0.043,1.0507 0.08,2.1036 -0.1445,3.1343 -0.2505,0.8554 -0.3205,1.7391 -0.3581,2.6246 -0.03,0.9824 -0.025,1.9654 -0.024,2.9481 0.082,1.1079 -0.2406,2.1749 -0.3861,3.2648 -0.1117,0.9774 -0.1196,1.9622 -0.1278,2.9447 0.05,0.5016 -0.068,1.0261 0,1.526 0.058,0.4381 0.2329,0.8984 0.3095,1.3406 0.1772,0.7112 0.069,1.4665 0.1846,2.1815 0.048,0.2996 0.1709,0.5826 0.24,0.878 0.2209,1.0767 0.2652,2.1771 0.2941,3.2724 0,0.1785 -0.02,0.3592 0.01,0.5354 0.037,0.2336 0.179,0.4397 0.2362,0.6692 0.1148,0.4613 0.158,0.9325 0.2034,1.4041 0.077,1.0333 0.077,2.0703 0.081,3.1058 0.3182,0.9637 0.3964,1.9851 0.4621,2.9916 0.055,1.0654 0.053,2.1326 0.053,3.1991 -2e-4,0.1732 -0.026,0.3483 -5e-4,0.5196 0.034,0.2276 0.1742,0.4278 0.23,0.6511 0.114,0.4565 0.157,0.9231 0.2025,1.3899 0.011,0.1698 0,0.3435 0.033,0.5093 0.05,0.2159 0.1548,0.3411 0.383,0.3148 0.1004,-0.012 0.3473,-0.031 0.2829,-0.1093 -3.0432,-3.6831 -2.7847,-3.2424 -2.2053,-2.1338 0.4196,0.5859 1.3262,0.7521 1.9986,0.9526 1.0277,0.2272 2.0217,0.5442 3.0673,0.6869 1.0013,0.3005 2.0287,0.4764 3.0402,0.7378 1.0868,0.1995 2.14,0.5343 3.2245,0.7436 1.1536,0.2679 2.2651,0.68 3.416,0.9567 1.2977,0.2191 2.5562,0.6219 3.8023,1.0371 1.3956,0.46 2.7491,1.0215 4.164,1.4229 1.4863,0.4378 2.948096,0.953 4.381296,1.5414 1.119003,0.468 2.273603,0.8408 3.407013,1.2688 1.3867,0.4936 2.7284,1.0939 4.1117,1.5992 1.240904,0.4879 2.466004,1.0059 3.717604,1.4657 1.0883,0.3999 2.2062,0.7227 3.2631,1.2009 0.8758,0.4084 1.8093,0.6375 2.7129,0.9596 0.8226,0.1996 1.5296,0.6722 2.3484,0.8686 0.7509,0.3836 1.5643,0.5717 2.3593,0.8392 0.888,0.2965 1.8219,0.369 2.7502,0.4175 1.0186,0.038 2.0382,0.033 3.0573,0.032 1.0319,0 2.0637,0 3.0955,-0.01 1.0312,-7e-4 2.0624,-7e-4 3.0936,-8e-4 0.903,-0.049 1.8221,0.084 2.7186,-0.039 0.9632,-0.2229 1.9406,-0.3468 2.9254,-0.4173 1.0371,-0.059 2.0762,-0.06 3.1146,-0.062 1.0324,-5e-4 2.0648,10e-4 3.0971,0 0.6332,0.042 2.5774,-0.1447 3.0006,0.2496 1.0416,0.9706 1.9268,2.0965 2.8903,3.1447 0.2048,1.1387 0.1807,2.3007 0.174,3.4528 -0.2027,1.1551 -0.4277,2.291 -0.736,3.4206 -0.037,0.1644 -0.058,0.333 -0.1104,0.4932 -0.1149,0.3527 -0.2936,0.6818 -0.4178,1.0313 -0.1511,0.4255 -0.2311,0.8502 -0.3893,1.2764 -0.3266,0.9074 -0.786,1.7624 -1.1465,2.6599 -0.5159,0.8175 -0.8782,1.7136 -1.2603,2.5984 -0.5287,1.0588 -1.0854,2.0978 -1.6317,3.1471 -0.6154,1.0056 -1.1371,2.0619 -1.7771,3.0525 -0.5598,0.9772 -1.1461,1.9344 -1.7732,2.87 -0.5448,0.97512 -1.1926,1.89092 -1.7268,2.87262 -0.4947,0.9585 -1.2467,1.7645 -1.7254,2.7277 -0.4962,0.7224 -0.8252,1.5208 -1.3527,2.2244 -0.4678,0.6964 -0.9403,1.3845 -1.4266,2.0692 -0.5097,0.7637 -1.0088,1.5333 -1.4941,2.3147 -0.4872,0.8745 -0.893,1.7817 -1.3199,2.6855 -0.3957,0.8103 -0.8689,1.60365 -1.1623,2.45915 -0.4991,0.7653 -0.8153,1.624 -1.2589,2.4137 -0.3342,0.8425 -0.7401,1.641 -1.1632,2.4419 -0.3846,0.8148 -0.8317,1.62666 -1.3483,2.36846 -0.3744,0.7263 -0.8545,1.394 -1.228,2.1228 -0.5228,0.7804 -1.0471,1.5575 -1.5547,2.3469 -0.147,0.3655 -1.2487,1.2055 -1.224,1.5445 0,0.042 0.077,0.032 0.1157,0.049 0.2316,0.052 0.3074,-0.2534 0.4951,-0.2791 0.084,-0.012 0.1282,0.1207 0.2094,0.1463 0.084,0.026 0.1886,-0.042 0.2644,0 0.113,0.067 0.3463,0.3947 0.2517,0.3034 -0.8076,-0.7802 -1.5951,-1.581 -2.3927,-2.3714 0.5689,0.7231 1.6312,1.0699 2.4379,1.4939 1.588,0.6983 3.1186,1.5131 4.6652,2.2981 1.6014,0.7933 3.1863,1.6172 4.7918,2.4026 1.7099,0.7409 3.3613,1.6072 5.0151,2.4638 1.5287,0.7942 3.0723,1.5659 4.5752,2.4088 1.257,0.7251 2.567,1.3588 3.8109,2.1059 1.0706,0.6412 2.1563,1.2763 3.1836,1.9886 0.9442,0.6196 1.932,1.1631 2.8475,1.8258 0.9638,0.5294 1.8613,1.1557 2.7734,1.7644 0.9441,0.6055 1.7601,1.3774 2.6787,2.0143 1.3662,1.1534 2.5108,2.4718 3.8519,3.7195 0.8133,0.7566 -3.1409,-3.1422 -2.3636,-2.3488 0.9549,0.9747 1.9309,1.9285 2.8964,2.8927 -6.1857,-6.2217 0.3433,0.3515 0.5176,0.5247 0.7934,0.7883 -3.15,-3.1769 -2.3617,-2.3835 9.51599,9.5788 -6.1169,-6.1748 3.3876,3.414 -5.6624,-5.7197 -0.2992,-0.3008 0.5137,0.514 0.79009,0.792 -3.1529,-3.1757 -2.3617,-2.3847 0.9626,0.9625 1.9645,1.8882 2.87609,2.8991 0.2321,0.6031 0.061,0.3842 0.4249,0.7162 0.5704,1.1509 -0.1402,-0.1026 0.4409,0.545 0.094,0.105 0.1177,0.2626 0.2151,0.3646 0.065,0.068 0.1875,0.06 0.2543,0.1269 0.1003,0.1009 0.3304,0.4602 0.2297,0.3597 -0.7952,-0.7942 -1.5463,-1.6313 -2.31949,-2.4469 -0.014,0.056 9e-4,0.1302 -0.043,0.1676 -0.098,0.083 -0.2344,0.1058 -0.3483,0.1653 -0.6442,0.3366 -0.2491,0.082 -0.01,-0.3706 0.5762,-1.031 1.12049,-2.0852 1.61059,-3.1605 0.5151,-1.0554 1.0719,-2.0915 1.5627,-3.1586 0.4693,-1.0732 1.161,-2.03 1.6348,-3.0984 0.5972,-0.9309 1.0642,-1.9272 1.5526,-2.9159 0.2983,-0.8277 0.8578,-1.5243 1.1492,-2.356 0.4484,-0.734 0.6793,-1.5496 1.0002,-2.3404 0.377,-0.8212 0.5306,-1.7134 0.82,-2.563 0.2582,-0.971 0.5962,-1.924 1.0005,-2.8447 0.293,-0.9715 0.9118,-1.7901 1.2958,-2.7177 0.4667,-0.763 0.8014,-1.575 1.3386,-2.2951 0.5021,-0.6143 0.9701,-1.2435 1.4095,-1.9056 0.3291,-0.7747 0.6829,-1.5573 0.917,-2.3705 0.1797,-0.86586 0.091,-1.74136 0.3057,-2.59776 0.2585,-0.8314 0.3145,-1.6966 0.3488,-2.5602 0.02,-0.645 0.02,-1.2903 0.022,-1.9356 0,0 4.7521,1.9972 4.7521,1.9972 l 0,0 c -0.013,0.6934 -0.026,1.3873 -0.085,2.0787 -0.093,0.9452 -0.2621,1.8735 -0.466,2.80036 -0.032,0.9984 -0.1712,1.9969 -0.5025,2.9427 -0.3779,0.9927 -0.7276,2.0112 -1.3034,2.91 -0.4588,0.6895 -0.976,1.3268 -1.4753,1.9844 -0.4022,0.6037 -0.6635,1.2889 -1.0396,1.9085 -0.4334,0.86 -0.9121,1.6978 -1.2249,2.614 -0.3217,0.8758 -0.6472,1.7467 -0.8787,2.6523 -0.252,0.9424 -0.5785,1.8555 -0.9446,2.7595 -0.3287,0.7907 -0.5831,1.6115 -1.0125,2.3588 -0.3956,0.8455 -0.8868,1.6416 -1.2514,2.5025 -0.4975,0.9657 -0.9621,1.9468 -1.525,2.8773 -0.5305,1.0365 -1.1478,2.0262 -1.6283,3.0893 -0.517,1.0516 -1.0409,2.0997 -1.5577,3.1515 -0.5601,1.1489 -1.1199,2.3023 -1.7856,3.3947 -0.8141,1.2182 -2.0146,2.4898 -3.63409,1.9905 -0.9355,-0.9765 -2.6073,-2.4592 -3.536,-3.8039 -0.09,-0.13 -0.134,-0.2878 -0.223,-0.4185 -0.058,-0.085 -0.1417,-0.1476 -0.2125,-0.2214 -0.072,-0.1245 -0.1206,-0.2664 -0.2167,-0.3735 -0.055,-0.061 -0.2748,-0.1698 -0.2183,-0.111 0.7752,0.8064 3.1731,3.1544 2.383,2.3626 -9.5383,-9.5585 6.13249,6.1586 -3.411,-3.3934 5.8888,5.843 0.087,0.088 -0.5128,-0.5142 -0.7898,-0.7929 3.1756,3.1549 2.3835,2.3644 -9.5549,-9.5351 6.15529,6.1356 -3.4147,-3.3849 0.7969,0.7835 3.2031,3.1177 2.3907,2.3503 -5.0134,-4.7355 -2.8458,-2.8994 -0.5259,-0.5316 0.1075,0.1097 -0.2696,-0.1539 -0.3789,-0.2617 -0.8383,-0.8265 0.7024,0.3211 -0.5917,-0.5772 -0.6183,-0.8015 -1.658,-1.2883 -2.3653,-2.0315 -0.8398,-0.6299 -1.6879,-1.2069 -2.5647,-1.7864 -1.0343,-0.5113 -1.9087,-1.2638 -2.9185,-1.8174 -1.0527,-0.6043 -2.0679,-1.3127 -3.0598,-2.004 -1.2683,-0.6718 -2.4916,-1.4302 -3.7555,-2.1138 -1.5151,-0.7742 -2.9927,-1.6147 -4.4896,-2.4222 -1.6634,-0.7801 -3.2544,-1.7009 -4.9176,-2.4809 -1.6747,-0.6825 -3.2748,-1.5319 -4.8668,-2.3893 -0.83,-0.3798 -1.6525,-0.7826 -2.4697,-1.1887 -0.4743,-0.2357 -0.8952,-0.5704 -1.3704,-0.8045 -0.2602,-0.1282 -0.5429,-0.2045 -0.8143,-0.3067 -1.051,-0.4559 -2.0296,-1.0509 -3.1136,-1.4231 -0.9866,-0.9524 -1.9714,-1.9066 -2.9598,-2.8572 -0.7505,-0.7218 -0.8135,-1.7248 -0.52,-2.6918 0.3997,-0.8556 0.9551,-1.5453 1.5683,-2.2565 0.4865,-0.7211 0.9528,-1.4545 1.4269,-2.18386 0.4473,-0.7728 0.906,-1.5404 1.3697,-2.3029 0.4384,-0.6947 0.8311,-1.4207 1.1863,-2.1613 0.4267,-0.7924 0.7395,-1.6354 1.1566,-2.4328 0.3529,-0.74555 0.745,-1.46795 1.113,-2.20545 0.3952,-0.8743 0.8105,-1.7408 1.2534,-2.5918 0.4789,-0.9738 0.9021,-1.9751 1.4794,-2.8982 0.5076,-0.829 1.0616,-1.6248 1.5942,-2.4374 0.4877,-0.6975 0.9677,-1.3991 1.4518,-2.0989 0.4282,-0.6352 0.712,-1.357 1.158,-1.9823 0.5558,-0.9302 1.2135,-1.796 1.7391,-2.74572 0.5964,-1.0118 1.2242,-2.0058 1.8344,-3.0089 0.6056,-0.9275 1.1739,-1.876 1.7395,-2.8283 0.5768,-0.936 1.0799,-1.9155 1.6341,-2.8651 0.5057,-1.0099 1.0832,-1.981 1.5392,-3.0158 0.3832,-0.8751 0.7916,-1.738 1.2466,-2.5781 0.3648,-0.8244 0.7683,-1.6364 1.041,-2.4968 0.2597,-0.8905 0.6252,-1.7438 0.8276,-2.6504 0.2296,-0.909 0.4178,-1.8564 0.4304,-2.7938 -0.022,-0.6197 0.089,-1.6783 -0.527,-2.0317 0.8267,0.8412 1.5871,1.7533 2.4802,2.5237 0.13,0.1121 0.1735,-0.392 0.051,-0.5125 -0.1925,-0.1896 -0.6055,-0.1228 -0.807,-0.1229 -0.172,-10e-5 -0.344,-10e-5 -0.516,-2e-4 -1.0314,-5e-4 -2.0629,0 -3.0943,0 -0.999,0 -1.998,-0.01 -2.9969,0.012 -0.8676,0.023 -1.7416,0.048 -2.5895,0.2534 -1.1225,0.2711 -2.0228,0.3016 -3.1733,0.2542 -1.0307,0 -2.0614,-10e-5 -3.0921,2e-4 -1.0309,4e-4 -2.0617,10e-4 -3.0926,0 -1.0461,0 -2.0922,0.01 -3.1383,0 -1.1072,-0.015 -2.2202,-0.035 -3.3133,-0.2315 -0.4777,-0.1025 -0.8951,-0.2848 -1.354,-0.4166 -0.4375,-0.1255 -0.9245,-0.099 -1.3289,-0.3471 -0.3603,-0.2836 -0.7675,-0.2502 -1.1935,-0.4043 -0.1246,-0.045 -0.2406,-0.111 -0.3609,-0.1664 -0.073,-0.067 -0.1286,-0.159 -0.2184,-0.2003 -0.1482,-0.068 -0.3166,-0.079 -0.4749,-0.1187 -0.2475,-0.093 -0.4669,-0.2553 -0.7184,-0.3372 -0.6571,-0.2142 -1.4068,-0.1869 -1.9911,-0.6231 -0.5867,-0.1748 -0.8607,-0.3802 -1.3697,-0.5808 -0.592,-0.2333 -1.2608,-0.2943 -1.8147,-0.6382 -1.3239,-0.3931 -2.6016,-0.8887 -3.8682,-1.4322 -1.326704,-0.5756 -2.729904,-0.9595 -4.018504,-1.6194 -1.1772,-0.3941 -2.33141,-0.8443 -3.50581,-1.2475 -1.390103,-0.5426 -2.746603,-1.1836 -4.188699,-1.5848 -1.3886,-0.4826 -2.8527,-0.7435 -4.1751,-1.4202 -1.1692,-0.3565 -2.3136,-0.7837 -3.487,-1.1244 -1.2488,-0.1719 -2.4278,-0.5268 -3.6243,-0.8966 -0.5167,-0.1977 -1.0297,-0.2427 -1.5657,-0.3732 -0.1755,-0.043 -0.348,-0.097 -0.522,-0.1451 -0.1494,-0.055 -0.2935,-0.1276 -0.4482,-0.1655 -0.1918,-0.047 -0.3906,-0.059 -0.586,-0.088 -1.0482,-0.211 -2.0705,-0.5078 -3.115,-0.7168 -0.9035,-0.4354 -2.0514,-0.1969 -2.9519,-0.7198 -1.0668,-0.1564 -2.0613,-0.4979 -3.1032,-0.752 -2.8555,-1.3056 -3.5023,-2.848 -3.7433,-5.3643 -0.1789,-0.9553 -0.4045,-1.8954 -0.3136,-2.8782 -0.011,-0.9978 -0.025,-1.9976 -0.1338,-2.9905 -0.1319,-1.0627 -0.3963,-2.1127 -0.3866,-3.1879 -0.018,-0.9347 -0.037,-1.8739 -0.1948,-2.7977 -0.1803,-0.9393 -0.416,-1.8625 -0.3678,-2.8298 -0.069,-0.981 -0.1974,-1.9536 -0.418,-2.9132 -0.171,-1.0366 -0.175,-2.0961 -0.4039,-3.126 -0.1821,-1.1016 -0.1851,-2.2044 -0.1398,-3.319 0.033,-1.0848 0.09,-2.1706 0.2663,-3.2431 0.1581,-0.9738 0.3041,-1.9339 0.2303,-2.9254 0.01,-1.0386 0.012,-2.0787 0.097,-3.1145 0.093,-0.9323 0.2661,-1.8478 0.4271,-2.7694 -0.031,-0.9756 0.01,-1.9532 0.048,-2.928 0.071,-1.0919 0.1965,-2.1783 0.421,-3.2505 0.1605,-1.011 0.1286,-2.0449 0.3225,-3.0537 0.1581,-0.9746 0.3038,-1.9357 0.234,-2.9281 0.012,-1.0384 0.026,-2.0792 0.1468,-3.1119 0.1144,-0.8506 0.3537,-1.6921 0.3676,-2.5488 -2e-4,-1.031 -6e-4,-2.0621 0,-3.0932 0,-1.0339 0,-2.0678 0,-3.1017 0.012,-1.0384 0.026,-2.0791 0.1467,-3.1118 0.1141,-0.8502 0.353,-1.6915 0.3658,-2.5478 0,-1.0336 0,-2.0673 0,-3.101 0.012,-1.0662 0.029,-2.1339 0.1399,-3.1953 0.1155,-0.9967 0.3414,-1.9842 0.3726,-2.9862 0.01,-1.05741 0.014,-2.11593 0.094,-3.17085 0.094,-1.05893 0.264,-2.10515 0.4212,-3.15586 -3e-4,-0.99178 0,-1.98424 0.059,-2.97478 0.069,-0.98719 0.1911,-1.9675 0.4173,-2.93247 0.1311,-0.90307 0.01,-1.83146 0.134,-2.73903 0.093,-0.93762 0.2655,-1.85823 0.439,-2.78321 -0.01,-1.0035 0.061,-2.00823 0.1847,-3.00376 0.149,-1.01317 0.3856,-2.01397 0.412,-3.0414 0.118,-1.11082 0.3223,-2.20477 0.6299,-3.27984 0.1768,-0.97505 0.394,-1.94441 0.4508,-2.93617 0.1393,-1.04998 0.3868,-2.07518 0.569,-3.11656 0.147,-0.99719 0.3818,-1.98154 0.4128,-2.99238 0.1183,-1.01685 0.328,-2.01149 0.6602,-2.98172 0.1903,-0.95381 0.4524,-1.88864 0.618,-2.84691 0.2316,-0.95444 0.5181,-1.89424 0.7577,-2.84664 0.2626,-0.9655 0.3605,-1.97343 0.6885,-2.9247 0.2191,-1.00094 0.4963,-1.98829 0.6556,-3.00131 0.1982,-1.02445 0.2711,-2.05848 0.4449,-3.08709 0.2152,-1.04433 0.4572,-2.08095 0.6289,-3.13387 0.2332,-1.01796 0.3879,-2.04685 0.6097,-3.06728 0.1998,-0.93621 0.2649,-1.90111 0.5758,-2.81413 0.2272,-0.90619 0.2858,-1.85179 0.4492,-2.77117 0,-0.98467 6e-4,-1.96935 7e-4,-2.95403 0,-1.0281 0,-2.05622 0,-3.08431 -0.011,-0.99579 -0.025,-1.99353 -0.1353,-2.98437 -0.1332,-1.06622 -0.3985,-2.12131 -0.3748,-3.20087 0,-1.08061 0,-2.16165 -0.053,-3.2414 -0.07,-1.34049 -0.1766,-2.68212 -0.4272,-4.00276 -0.1978,-1.27973 -0.2466,-2.57983 -0.5121,-3.85088 -0.1952,-1.29574 -0.2522,-2.60958 -0.5012,-3.89859 -0.1795,-1.31943 -0.1903,-2.65632 -0.3962,-3.97393 -0.1731,-1.42796 -0.215,-2.8548 -0.1779,-4.29319 0,-1.16312 0,-2.32623 -0.01,-3.48935 0,-1.06483 -0.016,-2.13017 0.021,-3.19457 0.062,-1.13799 0.1712,-2.2844 0.7018,-3.31543 0.4971,-0.83708 1.1537,-1.50768 1.8086,-2.22032 0.4842,-0.46599 0.8862,-1.01532 1.2722,-1.56299 0.4745,-0.64202 0.9827,-1.24269 1.5563,-1.7996 0.6527,-0.77591 1.3095,-1.54805 1.9582,-2.32732 0.541,-0.63406 1.089,-1.25975 1.6375,-1.88662 0.5927,-0.76962 1.1928,-1.53381 1.8396,-2.25936 0.6182,-0.63108 1.1336,-1.35677 1.6855,-2.04447 0.52,-0.59576 1.0457,-1.18593 1.6312,-1.71763 0.4988,-0.53183 1.0271,-1.03558 1.5465,-1.54642 0.4985,-0.53158 1.0267,-1.0351 1.5459,-1.54564 0.4969,-0.52986 1.0235,-1.03158 1.5403,-1.54118 0.5037,-0.53913 1.037096,-1.04954 1.555396,-1.57415 0.6225,-0.67859 1.2776,-1.3296 1.944003,-1.96453 0.7377,-0.71141 1.5711,-1.30838 2.38351,-1.92942 0.6296,-0.54625 1.2534,-1.09433 1.8282,-1.69867 0.6605,-0.5785 1.2314,-1.24517 1.8743,-1.84158 0.6392,-0.69502 1.3464,-1.31337 2.026604,-1.96641 0.6809,-0.61191 1.4339,-1.13127 2.114,-1.74437 0.5646,-0.50223 1.0627,-1.07709 1.62,-1.5879 0.6949,-0.58152 1.3428,-1.21806 2.0638,-1.7699 0.6786,-0.48944 1.2546,-1.09172 1.8411,-1.68386 0.6651,-0.69158 1.4016,-1.30978 2.091,-1.9771 0.9536,-0.75823 1.918,-1.49384 2.937,-2.16489 0.8491,-0.51619 1.6921,-1.04589 2.5522,-1.53993 0.8244,-0.50782 1.6393,-1.03605 2.4805,-1.51132 0.9556,-0.56321 1.9649,-0.996 2.9454,-1.51092 0.948,-0.41068 1.93,-0.74305 2.8601,-1.18792 0.386,-0.13906 0.8272,-0.40907 0.8624,-0.86793 0.056,-0.93571 0.2246,-1.86144 0.5223,-2.75133 0.2356,-0.79998 0.3274,-1.64092 0.6246,-2.42675 0.129,-0.82279 0.3992,-1.61064 0.5289,-2.43064 0.1405,-0.98024 0.3733,-1.95325 0.3091,-2.94979 0,-1.03093 0,-2.06185 0,-3.09278 0,-1.03092 0,-2.06185 0,-3.09277 0,-1.03118 0,-2.06236 5e-4,-3.09354 5e-4,-1.03203 0,-2.06407 0,-3.09611 7e-4,-1.01928 0,-2.03875 -0.02,-3.05783 -0.03,-0.90708 -0.071,-1.81821 -0.2649,-2.70803 -0.2113,-0.99202 -0.2932,-1.97609 -0.2343,-2.9924 -9e-4,-1.03115 0,-2.06231 -0.01,-3.09345 -0.01,-1.04313 -0.021,-2.08642 -0.01,-3.12952 0.038,-1.16604 0.1022,-2.34521 0.7281,-3.36942 0.9542,-1.19962 1.8239,-1.61183 3.3502,-1.50443 1.0311,-5.4e-4 2.0622,-10e-4 3.0933,-0.003 1.0467,-0.002 2.0935,-0.006 3.1401,0.014 1.0846,0.03 2.173,0.0776 3.2407,0.28622 0.3094,0.0655 0.6098,0.18074 0.9242,0.21458 0.8764,0.0943 1.7814,-0.076 2.6597,0.0108 1.7564,0.0258 3.514,0.063 5.2643,0.22491 1.6858,0.16963 3.3543,0.39633 5.0558,0.32209 1.7939,0.0561 3.5885,0.14547 5.36919,0.3805 1.8455,0.20296 3.7104,0.0427 5.5637,0.13603 1.5385,0.0475 3.0785,0.10305 4.6021,0.3417 0,0 1.573,4.90874 1.573,4.90874 z"
       inkscape:connector-curvature="0" />
    <path
       style="fill:#000000;fill-opacity:1;stroke:none"
       id="path3190"
       d="m 173.55898,995.10454 c 0,-1.6723 0,-3.34472 0,-5.0172 0,-1.29982 0,-2.59975 0,-3.89957 0,-1.05331 0,-2.10663 0,-3.15994 0,-1.04116 0,-2.08223 0,-3.12329 0,-1.04419 0,-2.08839 0,-3.13258 -0.047,-1.16578 -0.017,-2.07796 0.2543,-3.21536 0.2051,-0.85899 0.2305,-1.74462 0.2533,-2.62366 0.018,-1.01198 0.013,-2.02426 0.012,-3.03644 0,-1.045 0,-2.09001 0,-3.13512 -4e-4,-1.045 -4e-4,-2.09001 -4e-4,-3.13512 0,-1.04449 0,-2.0891 0,-3.1337 0,-1.04449 0,-2.08903 0,-3.13353 0.077,-1.00965 -0.2494,-1.95607 -0.3771,-2.95204 -0.1198,-1.09262 -0.1319,-2.19315 -0.1412,-3.29125 -0.094,-0.99141 0.1775,-2.05455 -0.1156,-3.01354 -0.2577,-1.0449 -0.3249,-2.12273 -0.3716,-3.19459 -0.035,-1.07084 -0.031,-2.14229 -0.03,-3.21354 0,-1.04592 0,-2.09173 0,-3.13765 -0.3186,-0.97206 -0.3983,-2.00257 -0.465,-3.0184 -0.059,-1.18422 -0.053,-2.37056 -0.055,-3.556 3e-4,-1.114 0,-2.2279 0,-3.34191 -0.053,-0.51845 0.067,-1.0598 9e-4,-1.57652 -0.057,-0.44469 -0.231,-0.91259 -0.3071,-1.36133 -0.1624,-1.091 -0.1887,-2.19569 -0.2064,-3.29692 -0.076,-0.69911 0.082,-1.42759 -0.01,-2.12406 -0.037,-0.28957 -0.1554,-0.56262 -0.2179,-0.84774 -0.2076,-1.07925 -0.2529,-2.17988 -0.2827,-3.27605 -0.02,-1.06334 -0.016,-2.12689 -0.014,-3.19034 3e-4,-0.17457 0.023,-0.35046 9e-4,-0.52361 -0.037,-0.28866 -0.1631,-0.55898 -0.2181,-0.8446 -0.1033,-0.53578 -0.1579,-1.0754 -0.2085,-1.61817 -0.1173,-0.72403 0,-1.4749 -0.084,-2.19873 -0.043,-0.3539 -0.1527,-0.69626 -0.2149,-1.04723 -0.1996,-1.19101 -0.2598,-2.39802 -0.2924,-3.60352 0.066,-1.04065 -0.2607,-2.01757 -0.3908,-3.04322 -0.03,-1.06355 -0.3704,-2.05587 -0.5129,-3.10756 -0.1188,-0.55067 -0.03,-1.13305 -0.1161,-1.68494 -0.074,-0.47174 -0.2481,-0.94926 -0.3311,-1.42606 -0.06,-1.15119 -0.3218,-2.25669 -0.4992,-3.39065 -0.063,-1.23498 -0.3263,-2.42669 -0.5144,-3.64354 -0.1848,-1.29344 -0.2025,-2.60289 -0.222,-3.90727 -0.011,-1.12819 -0.01,-2.25648 0,-3.38467 0,-1.04642 0,-2.09274 0,-3.13917 2e-4,-1.04328 2e-4,-2.08667 2e-4,-3.12995 0.2406,-0.93244 0.4122,-1.86792 0.4762,-2.82903 -0.052,-0.96882 0.3109,-1.86792 0.4513,-2.81394 0.1014,-0.90964 0.1015,-1.82689 0.1076,-2.74119 -0.062,-1.1214 0.023,-2.19672 0.2331,-3.29467 0.1946,-0.98866 0.2417,-1.99597 0.2691,-3.00088 -0.089,-1.1173 0.1542,-2.18312 0.3366,-3.2747 0.1511,-0.98346 0.1719,-1.97992 0.1871,-2.97303 0.056,-1.088 0.3374,-2.15075 0.4417,-3.24049 -0.047,-1.03667 0.2171,-2.00175 0.4252,-3.00265 0.1483,-0.87568 0.1536,-1.76732 0.1657,-2.65319 0.059,-1.08034 0.3368,-2.13627 0.44,-3.21896 -0.047,-1.03765 0.2169,-2.0038 0.4252,-3.00568 0.1483,-0.87591 0.1536,-1.76777 0.1657,-2.65387 0.2488,-1.04892 0.4027,-2.11085 0.473,-3.18609 -0.056,-1.10184 0.1886,-2.15259 0.371,-3.22876 0.1517,-0.98153 0.1712,-1.97631 0.1859,-2.96756 0.01,-1.03195 0,-2.06396 0,-3.09592 -0.1105,-1.13662 0.1346,-2.22077 0.3208,-3.33114 0.1528,-0.98397 0.1747,-1.98114 0.1905,-2.97498 -0.098,-1.12314 0.1448,-2.19466 0.3278,-3.29209 0.1355,-1.12778 0.1679,-2.26408 0.1865,-3.39886 0.011,-1.06511 0.01,-2.1303 0.01,-3.19543 0,-1.04439 0,-2.08878 0,-3.13317 -3e-4,-1.06504 -2e-4,-2.13008 -2e-4,-3.19512 0,-1.17819 0,-2.35638 0,-3.53456 0,-1.06528 0,-2.13055 0,-3.19582 0,-1.04376 0,-2.0875 0,-3.13125 0,-1.04416 0,-2.08831 0,-3.13247 0,-1.31274 0,-2.62548 0,-3.93821 0,-1.2774 0,-2.55481 0,-3.83221 -0.054,-0.53637 0.067,-1.09553 0,-1.63022 -0.056,-0.4479 -0.2305,-0.91943 -0.3072,-1.37068 -0.1628,-1.0897 -0.1889,-2.19302 -0.2066,-3.29292 -0.011,-1.05702 -0.01,-2.11412 0,-3.17116 -0.126,-0.93233 0.2457,-2.02736 -0.12,-2.90606 -0.2947,-0.90312 -0.3289,-1.86486 -0.3691,-2.8074 -0.091,-0.69292 0.062,-1.4162 -0.028,-2.10669 -0.038,-0.29036 -0.1566,-0.56417 -0.2192,-0.85011 -0.2074,-1.08172 -0.2522,-2.18461 -0.2817,-3.28319 -0.02,-1.06356 -0.015,-2.12736 -0.014,-3.19104 -0.086,-0.98357 0.1797,-2.03887 -0.1128,-2.98961 -0.2588,-1.04475 -0.3263,-2.12274 -0.3733,-3.19472 -0.073,-0.53454 0.042,-1.09309 -0.028,-1.62616 -0.06,-0.4535 -0.232,-0.92606 -0.3088,-1.38354 -0.2484,-1.03236 -0.01,-2.14995 -0.3166,-3.15811 -0.2369,-0.68146 -0.1806,-1.42458 -0.3209,-2.1204 -0.063,-0.31156 -0.193,-0.60561 -0.2711,-0.91359 -0.2293,-0.72522 -0.1505,-1.50703 -0.2812,-2.24419 -0.055,-0.31057 -0.1801,-0.60444 -0.2532,-0.91116 -0.2344,-0.71637 -0.1159,-1.5046 -0.2639,-2.22959 -0.05,-0.24732 -0.19,-0.46757 -0.2657,-0.7082 -0.1884,-0.45961 -0.094,-0.99407 -0.2198,-1.46155 -0.026,-0.0977 -0.1147,-0.16702 -0.1569,-0.25881 -0.1289,-0.28086 -0.1625,-0.50955 -0.2315,-0.81281 -0.159,-0.49033 -0.05,-1.03956 -0.1615,-1.53311 -0.023,-0.10061 -0.1061,-0.17713 -0.1457,-0.27227 -0.1208,-0.29072 -0.15,-0.50461 -0.2165,-0.81586 -0.1688,-1.02753 -0.1806,-2.07222 -0.1943,-3.11116 -0.373,-0.8106 -0.4154,-1.7235 -0.4709,-2.60241 0.029,-1.0182 -0.2959,-1.96943 -0.4246,-2.97532 -0.1187,-1.0961 -0.1289,-2.19987 -0.1372,-3.30126 0,-1.05304 0,-2.10609 0,-3.15914 0,-1.0442 0,-2.0884 0,-3.13261 1e-4,-1.04438 1e-4,-2.08875 1e-4,-3.13312 0,-1.04453 0,-2.08905 0,-3.13357 0,-1.04453 0,-2.08906 0,-3.13359 0,-1.04453 0,-2.08906 0,-3.13359 -0.1086,-1.13659 0.137,-2.22058 0.3237,-3.33079 0.153,-0.98375 0.1748,-1.98075 0.1906,-2.9744 0.01,-1.03157 0.01,-2.0632 0,-3.09479 -0.083,-1.12328 0.2413,-2.20487 0.3874,-3.30984 0.112,-0.98966 0.1199,-1.98701 0.1281,-2.98186 0,-1.03616 8e-4,-2.07234 -8e-4,-3.1085 0,-1.04482 0,-2.08963 0,-3.13443 -2e-4,-1.04468 -1e-4,-2.08935 -1e-4,-3.13404 0,-1.04453 0,-2.08906 0,-3.13359 0,-1.04452 0,-2.08905 0,-3.13357 0,-1.04453 0,-2.08906 0,-3.13359 -0.1277,-0.93238 0.2432,-2.02741 -0.1228,-2.90606 -0.1509,-0.50096 -0.084,-0.23794 -0.197,-0.79044 0,0 4.935,1.50842 4.935,1.50842 l 0,0 c 0.1177,0.608 0.067,0.2914 0.1465,0.95054 9e-4,1.07872 4e-4,2.15743 6e-4,3.23616 0,1.04453 0,2.08906 0,3.13358 0,1.04453 0,2.08906 -1e-4,3.13359 0,1.04453 0,2.08905 0,3.13356 1e-4,1.04438 1e-4,2.08876 5e-4,3.13315 6e-4,1.04424 0,2.08848 0,3.13273 7e-4,1.05289 0,2.10595 -0.02,3.15866 -0.033,1.09891 -0.09,2.19891 -0.2671,3.2853 -0.1582,0.98445 -0.3051,1.95483 -0.228,2.95733 -4e-4,1.05752 0,2.11539 -0.037,3.17237 -0.05,1.10349 -0.1378,2.20553 -0.3394,3.29277 -0.1598,0.97615 -0.1721,1.94682 -0.1432,2.93636 0,1.04453 0,2.08905 0,3.13358 0,1.04453 0,2.08905 0,3.13358 0,1.04453 1e-4,2.08906 1e-4,3.13359 -1e-4,1.04467 -1e-4,2.08934 -5e-4,3.134 -6e-4,1.04491 0,2.08981 0,3.13472 -9e-4,1.03703 0,2.07422 0.018,3.11108 0.03,0.99329 0.077,1.98882 0.257,2.96798 0.1885,1.03123 0.3287,2.05649 0.3809,3.10498 0.136,0.92648 0.4288,1.83124 0.4067,2.7756 0.044,0.87106 0.1053,1.74709 0.3691,2.58362 0.2399,0.84656 0.251,1.72657 0.5398,2.56094 0.2743,0.84622 0.3293,1.7309 0.5954,2.58143 0.2006,1.00321 0.2164,2.04191 0.5031,3.03197 0.1948,1.03464 0.2434,2.09665 0.5469,3.11181 0.2225,1.06772 0.3252,2.16117 0.5316,3.23318 0.053,1.04219 0.1246,2.08431 0.3322,3.10905 0.1826,1.08102 0.1895,2.16462 0.2525,3.25745 0.098,1.03099 0.2911,2.04538 0.4168,3.07242 0.011,1.09251 0,2.18506 0,3.27762 0,1.02629 0,2.05331 0.058,3.07837 0.068,1.00424 0.1959,1.99989 0.3844,2.98864 0.1293,1.05745 0.063,2.12529 0.1691,3.1859 0.097,0.89526 0.3074,1.76593 0.4215,2.65775 3e-4,1.07873 0,2.15746 0,3.23618 4e-4,1.03105 0,2.06246 0.036,3.09297 0.047,0.99333 0.1318,1.98441 0.3234,2.96144 0.1831,1.13151 0.1798,2.2643 0.1597,3.40906 0,1.27741 0,2.55481 0,3.83221 0,1.31274 0,2.62548 0,3.93822 0,1.04416 0,2.08831 0,3.13247 0,1.04375 0,2.0875 0,3.13125 0,1.06528 0,2.13056 -1e-4,3.19584 0,1.17815 0,2.35632 0,3.53448 1e-4,1.06463 1e-4,2.12927 8e-4,3.1939 7e-4,1.04429 0,2.08859 0,3.13289 -4e-4,1.08851 1e-4,2.17729 -0.034,3.26537 -0.049,1.24592 -0.1234,2.49372 -0.3378,3.72353 -0.162,0.9886 -0.1727,1.97326 -0.1797,2.97507 -0.05,1.10326 -0.1377,2.20508 -0.3387,3.29219 -0.1591,0.97617 -0.1697,1.94661 -0.1401,2.93601 -2e-4,1.05712 0,2.11458 -0.035,3.17121 -0.049,1.10625 -0.1343,2.21155 -0.342,3.30061 -0.1746,1.01027 -0.205,2.02214 -0.2809,3.04418 -0.1172,1.01673 -0.341,2.01991 -0.4079,3.03979 -0.049,1.03363 -0.129,2.06818 -0.3694,3.07731 -0.2,0.92296 -0.2041,1.8569 -0.3177,2.79424 -0.1414,1.00012 -0.3721,1.99085 -0.3438,3.00695 -0.049,1.03352 -0.129,2.06797 -0.3695,3.07696 -0.1999,0.92205 -0.2041,1.8551 -0.3179,2.79151 -0.1426,1.00658 -0.3739,2.00386 -0.3447,3.02666 -0.049,1.10387 -0.1351,2.20652 -0.3371,3.2941 -0.1647,0.9942 -0.1789,1.98575 -0.2036,2.99304 -0.071,1.09792 -0.196,2.18944 -0.3965,3.27149 -0.1227,0.97925 -0.026,1.97106 -0.077,2.95609 -0.032,1.04662 -0.08,2.0969 -0.2876,3.12569 -0.1832,0.87429 -0.3408,1.73246 -0.3608,2.63045 -0.1143,0.86182 -0.3536,1.71432 -0.3678,2.58232 0,1.04369 -1e-4,2.08748 -7e-4,3.13117 -8e-4,1.04693 0,2.09376 0,3.14069 -4e-4,1.10651 0,2.21322 0.03,3.31942 0.044,1.19526 0.1152,2.39083 0.3425,3.56735 0.2086,1.20762 0.3124,2.42558 0.5176,3.6336 0.1996,1.11391 0.2981,2.23845 0.5119,3.34962 0.2041,1.04642 0.2472,2.10541 0.4337,3.15457 0.2117,1.04693 0.3861,2.09062 0.4981,3.15376 0.1869,1.09516 0.3138,2.18434 0.3003,3.29895 0.07,1.1211 0.198,2.23551 0.3844,3.34323 0.1377,1.10255 0.1107,2.21777 0.2749,3.31861 0.1638,1.08928 0.3957,2.17066 0.3156,3.28071 0,1.02586 0,2.05232 0.059,3.07686 0.068,1.00488 0.198,2.00095 0.3823,2.99114 0.1272,1.09364 0.053,2.19579 0.1101,3.2947 0.047,0.99455 0.1315,1.98697 0.3234,2.96521 0.1805,1.11167 0.1801,2.22395 0.1575,3.3488 0,1.10894 0,2.21787 0,3.32671 0.01,1.11431 0.015,2.23145 0.1366,3.34039 0.1338,1.08219 0.401,2.15303 0.3769,3.2488 0,1.04318 0,2.08626 -6e-4,3.12945 0.01,1.01835 0.011,2.03803 0.092,3.05365 0.097,1.03103 0.2896,2.04554 0.4151,3.07251 0.011,1.08462 0,2.16934 0.027,3.25366 0.031,0.99587 0.082,1.99315 0.255,2.97595 0.1857,1.10073 0.312,2.19467 0.244,3.3152 0,1.0445 0,2.089 -1e-4,3.1336 0,1.0445 0,2.089 1e-4,3.13349 1e-4,1.0445 2e-4,2.089 0,3.1335 9e-4,1.04602 0,2.09194 0,3.13796 0,1.0521 0,2.105 -0.062,3.15579 -0.07,0.99779 -0.1944,1.98808 -0.4173,2.96399 -0.1231,0.90832 0.01,1.83955 -0.039,2.75456 0,1.0442 0,2.08839 0,3.13261 0,1.04105 0,2.0821 0,3.12326 0,1.05331 0,2.10663 0,3.15994 0,1.29983 0,2.59975 0,3.89957 0,1.67238 0,3.34488 0,5.01728 0,0 -4.7623,-1.9987 -4.7623,-1.9987 z"
       inkscape:connector-curvature="0" />
    <path
       style="fill:#808080;fill-opacity:1;stroke:none"
       d="m 130.70009,659.32019 c 1.00667,10.54231 0.92975,21.20284 0.47722,31.7734 -0.63514,3.40126 -1.11652,7.10952 -2.75554,10.1447 -5.73244,3.66532 -12.11301,6.16564 -17.02586,11.03756 -11.39422,10.21648 -23.091069,20.22546 -32.454457,32.41664 -2.809441,2.85547 -4.909876,6.50326 -4.184602,10.65582 0.325327,15.20766 4.901772,30.55778 1.212043,45.66349 -2.950796,15.18843 -6.815953,30.242 -7.90735,45.73142 -1.671579,17.4147 -1.738985,34.9385 -3.693031,52.32675 -0.460863,6.29191 -1.512626,12.59874 -0.08339,18.84627 0.802414,5.04423 1.029672,10.24197 1.729008,15.24939 3.150613,1.50215 7.070767,1.64884 10.432627,2.86316 12.631813,3.311 24.689282,8.60777 36.919592,12.93118 8.91318,0 17.82636,0 26.73953,0 3.10398,2.04992 4.08367,5.99931 2.72476,9.40579 -4.40564,14.10143 -14.38609,25.37008 -20.54699,38.65365 -1.38278,3.08109 -3.65511,5.90319 -4.69932,9.05259 13.26941,7.1895 27.89199,12.7707 38.72852,23.5792 0.75101,0.9642 1.87813,2.0977 2.2721,0.1577 3.9698,-7.3531 7.16035,-15.0763 10.43103,-22.7363 1.50428,-3.4145 4.87846,-6.1854 4.06929,-10.23604 0.72156,-21.91404 0.9647,-43.86153 -0.65448,-65.74507 -0.7357,-15.00127 -1.89616,-29.98659 -4.10596,-44.84501 -1.50405,-14.59781 1.35631,-29.10875 2.44672,-43.62812 2.40309,-19.32938 3.45629,-38.80773 2.88107,-58.28251 -0.28259,-19.859 -0.98768,-39.85379 -5.14866,-59.33778 -2.00153,-14.73119 -0.53559,-29.65636 -0.47654,-44.46237 -0.0929,-6.32786 0.83899,-12.80741 -0.0275,-19.06034 -12.29241,-0.99715 -24.82302,-1.49516 -37.20751,-2.26293 l -0.0924,0.10776 z"
       id="path3213"
       inkscape:connector-curvature="0" />
  </g>
</svg>
