<?xml version="1.0" encoding="UTF-8" standalone="no"?>
<!-- Created with Inkscape (http://www.inkscape.org/) -->

<svg
   xmlns:dc="http://purl.org/dc/elements/1.1/"
   xmlns:cc="http://creativecommons.org/ns#"
   xmlns:rdf="http://www.w3.org/1999/02/22-rdf-syntax-ns#"
   xmlns:svg="http://www.w3.org/2000/svg"
   xmlns="http://www.w3.org/2000/svg"
   xmlns:sodipodi="http://sodipodi.sourceforge.net/DTD/sodipodi-0.dtd"
   xmlns:inkscape="http://www.inkscape.org/namespaces/inkscape"
   width="256"
   height="386"
   id="svg3017"
   version="1.1"
   inkscape:version="0.48.4 r9939"
   sodipodi:docname="ledge4Hanging6.svg">
  <defs
     id="defs3019" />
  <sodipodi:namedview
     id="base"
     pagecolor="#ffffff"
     bordercolor="#666666"
     borderopacity="1.0"
     inkscape:pageopacity="0.0"
     inkscape:pageshadow="2"
     inkscape:zoom="2.03"
     inkscape:cx="121.69147"
     inkscape:cy="243.34679"
     inkscape:document-units="px"
     inkscape:current-layer="layer1"
     showgrid="false"
     inkscape:window-width="898"
     inkscape:window-height="944"
     inkscape:window-x="2170"
     inkscape:window-y="62"
     inkscape:window-maximized="0" />
  <metadata
     id="metadata3022">
    <rdf:RDF>
      <cc:Work
         rdf:about="">
        <dc:format>image/svg+xml</dc:format>
        <dc:type
           rdf:resource="http://purl.org/dc/dcmitype/StillImage" />
        <dc:title />
      </cc:Work>
    </rdf:RDF>
  </metadata>
  <g
     inkscape:label="Layer 1"
     inkscape:groupmode="layer"
     id="layer1"
     transform="translate(0,-666.36218)">
    <path
       style="fill:#000000;fill-opacity:1;stroke:none"
       id="path3166"
       d="m 207.82971,671.62187 c -1.2622,-0.0352 -2.5121,-0.003 -3.7636,0.16107 -1.2524,0.14595 -2.4778,0.44512 -3.7227,0.63948 -1.1984,0.12977 -2.3758,0.38579 -3.5702,0.54603 -0.9639,0.15735 -1.9026,0.42207 -2.8711,0.56468 -0.8835,0.0338 -1.7279,0.29312 -2.5931,0.45107 -1.2708,0.19031 -2.5598,0.1952 -3.842,0.21171 -1.1851,0.0528 -2.3545,0.27722 -3.5364,0.38755 -1.0016,0.005 -1.9684,0.15482 -2.9461,0.34893 -1.0189,0.20063 -2.057,0.25121 -3.0923,0.28294 -0.9068,0.0693 -1.8296,-0.0648 -2.7302,0.0579 -0.9636,0.22116 -1.9412,0.34413 -2.9261,0.41403 -0.8926,0.042 -1.7718,0.008 -2.6488,0.18504 -0.994,0.22725 -2.0099,0.30786 -3.0256,0.35646 -0.8923,0.0246 -1.7699,-0.0145 -2.6466,0.15964 -0.947,0.21329 -1.9137,0.29971 -2.881,0.35011 -1.0525,0.19787 -2.1064,0.36766 -3.1733,0.46395 -0.8844,0.0957 -1.7458,0.33688 -2.6296,0.46014 -0.8619,0.14205 -1.7023,0.38519 -2.5709,0.51253 -0.8804,0.0318 -1.7217,0.29055 -2.5838,0.44764 -0.8564,0.19002 -1.6936,0.44129 -2.5649,0.57726 -0.8646,0.15383 -1.7086,0.39536 -2.5817,0.52293 -0.7258,0.12068 -1.4678,0.27581 -2.1663,0.51504 -0.3919,0.19559 -0.9541,0.43649 -1.14,0.86319 -0.4864,0.55025 -0.8369,1.18732 -1.2534,1.78249 -0.2937,0.7015 -0.7425,1.30739 -1.161,1.93896 -0.3464,0.62691 -0.7069,1.24145 -1.0412,1.87869 -0.3128,0.78762 -0.6317,1.56399 -0.9725,2.34103 -0.2929,0.78339 -0.6976,1.52038 -1.0747,2.26713 -0.3029,0.71011 -0.6848,1.38409 -1.037,2.07356 -0.3308,0.69901 -0.6827,1.38836 -0.9662,2.11474 -0.3725,0.88635 -0.8394,1.74226 -1.1467,2.65452 -0.4149,0.78564 -0.7682,1.58466 -1.2328,2.34493 -0.4184,0.73553 -0.8726,1.44516 -1.2842,2.18601 -0.4798,0.73214 -0.9043,1.48399 -1.3192,2.25295 -0.4352,0.86781 -0.9176,1.73558 -1.476,2.53281 -0.4834,0.75256 -1.0733,1.44046 -1.7065,2.07153 -0.5132,0.54279 -1.0338,1.0822 -1.5802,1.59259 -0.5112,0.51671 -1.0142,1.04329 -1.5451,1.54054 -0.5108,0.5188 -1.0143,1.04684 -1.5458,1.54529 -0.5108,0.51934 -1.0145,1.04768 -1.5464,1.54641 -0.5108,0.51935 -1.0145,1.04768 -1.5464,1.54641 -0.4817,0.50412 -0.9896,0.97715 -1.4458,1.50609 -0.5598,0.71789 -1.1617,1.40337 -1.7253,2.11881 -0.5081,0.58086 -1.112,1.08342 -1.5235,1.7422 -0.4935,0.69742 -1.0852,1.31199 -1.6253,1.97072 -0.5593,0.49801 -0.8972,1.16223 -1.3739,1.73309 -0.5329,0.65739 -1.0757,1.31293 -1.6359,1.95009 -0.617,0.80746 -1.3014,1.56481 -1.8759,2.4051 -0.6169,0.75664 -1.1812,1.556 -1.7194,2.36933 -0.612,0.72204 -1.1739,1.48164 -1.7178,2.2553 -0.4854,0.8481 -1.0976,1.61236 -1.6875,2.38932 -0.5616,0.78283 -1.1944,1.50803 -1.7898,2.26419 -0.492895,0.71022 -1.046695,1.37342 -1.567295,2.06341 -0.5647,0.58382 -1.0525,1.23764 -1.5094,1.90713 -0.6154,0.8648 -1.3128,1.66499 -1.9512,2.5116 -0.4414,0.75987 -0.9569,1.48248 -1.5464,2.13511 -0.5589,0.62158 -0.9174,1.37824 -1.3896,2.05997 -0.4569,0.75954 -1.0638,1.4108 -1.621,2.09676 -0.3606,0.69424 -1.0315,1.18554 -1.369,1.88802 -0.5258,0.75507 -1.0337,1.52176 -1.5439,2.28823 -0.4881,0.79682 -0.9862,1.58072 -1.4406,2.39786 -0.3638,0.76416 -0.7967,1.50875 -1.224999,2.24341 -0.4323,0.80698 -0.91,1.58485 -1.3489,2.38904 -0.4793,0.7441 -0.9096,1.50409 -1.3291,2.28179 -0.3864,0.79912 -0.8346,1.56408 -1.2506,2.34901 -0.3545,0.77211 -0.7928,1.52001 -1.2232,2.25737 -0.3801,0.91585 -1.0018,1.706 -1.3913,2.61347 -0.5169,0.75231 -0.7813,1.62574 -1.246,2.40652 -0.4669,0.90152 -1.0371,1.74132 -1.55,2.61583 -0.4442,1.03099 -1.0721,1.9626 -1.6642,2.91009 -0.2843,0.78207 -0.958,1.34477 -1.2879,2.09463 -0.4657,0.7136 -0.9268,1.42723 -1.3781,2.1496 -0.5658,0.66679 -1.0708,1.38202 -1.4749,2.15777 -0.5371,0.82073 -1.0756,1.63797 -1.6013,2.46504 -0.5331,0.82179 -1.0701,1.64011 -1.6631,2.42216 -0.553,0.84575 -1.2236,1.60972 -1.7852,2.45006 -0.6757,0.81815 -1.2599,1.70668 -1.9268,2.53045 -0.5736,0.77054 -1.0713,1.58967 -1.6903,2.32535 -0.5302,0.69142 -0.9926,1.42618 -1.5605,2.08836 -0.5641,0.66797 -1.1268,1.34158 -1.7074,1.99766 -0.7454,0.80338 -1.3795,1.70596 -1.9898,2.61386 -0.62,0.79453 -1.1312,1.65361 -1.619,2.53246 -0.5144,0.66879 -0.9005,1.41214 -1.3619,2.11779 -0.4834,0.77439 -0.955,1.57203 -1.4946,2.31087 -0.4994,0.77342 -1.0056,1.53736 -1.5327,2.29281 -0.5577,0.81826 -1.2178,1.56701 -1.7263,2.41876 -0.5067,0.89901 -1.2318,1.66721 -1.6913,2.59069 -0.4962,0.72122 -0.8238,1.51915 -1.3501,2.22231 -0.4054,0.59012 -0.6879,1.25018 -1.0672,1.85419 -0.4638,0.77989 -0.8667,1.59243 -1.3089,2.38478 -0.3507,0.93231 -0.8655,1.78502 -1.2953,2.6811 -0.4998,0.86363 -0.9347,1.76762 -1.467,2.60992 -0.3594,0.76847 -0.9454,1.41 -1.2812,2.18672 -0.4654,0.76882 -0.9477,1.52228 -1.4211,2.28511 -0.3622,0.68995 -0.7492,1.36109 -1.1096,2.05403 -0.5024,0.70017 -1.0024,1.40031 -1.4767,2.11886 -0.4789,0.76504 -1.0516,1.47108 -1.495,2.25929 -0.5418,0.69232 -1.0084,1.43129 -1.5202,2.14 -0.343,0.72501 -0.7153,1.43114 -1.0959,2.13991 -0.3376,0.73526 -0.7366,1.43795 -1.1077,2.15841 -0.3043,0.70464 -0.6827,1.37501 -1.0324,2.06101 -0.3019,0.70484 -0.6804,1.37496 -1.0298,2.06033 -0.1662,0.77567 -0.4066,1.5316 -0.5697,2.31177 -0.268,1.08982 -0.5087,2.17436 -0.6037,3.29842 -0.1066,1.24055 -0.4072,2.45205 -0.53,3.69429 -0.081,1.00928 -0.079,2.02263 -0.081,3.03442 7e-4,1.0249 0,2.04979 0,3.07469 0,1.03095 0,2.06185 0,3.09275 10e-5,1.0311 0,2.0621 0,3.0931 0.088,0.9704 -0.1766,2.0115 0.1161,2.9494 0.2593,1.0314 0.3268,2.0956 0.3738,3.1539 0.082,0.5251 -0.053,1.0821 0.028,1.6051 0.054,0.3495 0.2481,0.7337 0.3214,1.0911 0.1614,1.0031 0.1756,2.0218 0.1907,3.0353 -0.069,1.0024 0.2541,1.9429 0.3806,2.9321 0.1179,1.0794 0.1295,2.1663 0.1384,3.2509 0,1.0392 8e-4,2.0784 -8e-4,3.1176 0,1.0306 0,2.0613 0,3.0919 -2e-4,1.0308 -10e-5,2.0615 -10e-5,3.0923 0,1.0309 0,2.0619 0,3.0928 0,1.0309 0,2.0619 0,3.0928 0,1.0309 0,2.0618 0,3.0928 0,1.0309 0,2.0618 0,3.0928 0,1.0309 0,2.0618 0,3.0927 0.1086,1.1218 -0.1371,2.1917 -0.3237,3.2875 -0.153,0.9709 -0.1749,1.95486 -0.1906,2.93556 -0.01,1.0182 -0.01,2.0364 0,3.0545 0.083,1.1087 -0.2412,2.1762 -0.3873,3.2668 -0.1361,0.6366 -0.022,1.3074 -0.116,1.9451 -0.011,0.078 -0.2376,0.9528 -0.2704,1.0808 -0.2072,0.8381 -0.2273,1.704 -0.2485,2.5624 0.087,0.9924 -0.2714,1.9218 -0.4149,2.8906 -0.1021,0.9017 -0.1032,1.8109 -0.1098,2.7172 0.1589,0.1714 0.1077,0.4384 0.2307,0.6222 0.045,0.067 0.1537,0.066 0.2084,0.126 0.076,0.084 0.089,0.2172 0.1736,0.2926 0.063,0.056 0.2973,0.1423 0.2421,0.078 -0.7557,-0.8833 -1.578,-1.7075 -2.3669,-2.5613 0.6031,0.7172 1.5195,1.13 2.3423,1.5606 0.8428,0.6292 1.777,1.116 2.6349,1.721 0.9213,0.5257 1.7644,1.158 2.5744,1.8369 0.7036,0.5669 1.3976,1.1705 2.1513,1.6716 1.7477,1.7176 5.8484,5.8121 0.785,0.7694 -0.093,-0.093 0.1891,0.1822 0.2873,0.2693 0.2544,0.2257 0.5186,0.4401 0.7774,0.6606 1.5803,1.3904 -0.085,-0.093 3.4759,3.455 0.1241,0.1237 0.2767,0.2179 0.3936,0.3484 0.1302,0.1452 0.2109,0.3306 0.3432,0.4739 0.9055,0.9801 -0.2479,-0.5675 0.639,0.6882 -5.6154,-5.6478 0.6158,0.255 1.8566,2.2145 0.7859,0.6944 1.2096,1.7206 1.9563,2.4422 0.3491,0.4114 0.5523,0.9303 0.8526,1.3668 0.078,0.1133 0.2097,0.1811 0.2926,0.2907 0.512,0.6775 -0.022,0.23 0.5356,0.6371 0.5139,0.7648 0.9957,1.4998 1.5442,2.2373 0.2191,0.6942 0.7701,1.1653 1.1784,1.7343 0.6725,0.93723 -0.023,0.1942 0.6812,0.88943 0.5289,0.3331 0.6758,0.9095 0.9863,1.4 0.259,0.4091 0.5926,0.61704 0.8882,1.09954 0.3799,0.6371 0.9757,1.1038 1.4299,1.67804 0.7993,1.0107 -0.042,0.1578 0.759,0.9203 0.6054,0.8993 1.4287,1.5242 1.9655,2.4797 0.5354,0.4093 0.7436,1.0792 1.1061,1.614 0.074,0.1092 0.1886,0.1847 0.2829,0.277 0.082,0.1415 0.1635,0.2831 0.2453,0.4246 0.5262,0.3074 0.6999,0.9341 1.0289,1.4037 0.071,0.1019 0.1843,0.1672 0.2764,0.2508 0.081,0.1382 0.1613,0.2763 0.2419,0.4144 0.09,0.1206 0.1795,0.2413 0.2692,0.3619 0.079,0.1648 0.135,0.3429 0.2376,0.4942 0.072,0.1065 0.2006,0.1647 0.2783,0.2672 0.098,0.1287 0.1381,0.2963 0.2424,0.4197 0.9158,1.0844 -0.4668,-0.9619 0.5216,0.5755 0.09,0.1132 0.1793,0.2265 0.269,0.3397 0.079,0.1609 0.1352,0.3359 0.2383,0.4827 0.072,0.102 0.2003,0.1529 0.277,0.2512 0.098,0.1262 0.1381,0.2931 0.2424,0.4145 0.8913,1.0374 -0.4439,-0.9306 0.5205,0.5687 0.09,0.1136 0.1929,0.2174 0.2687,0.3406 0.094,0.1532 0.1351,0.3367 0.2382,0.4839 0.1514,0.216 0.4213,0.3246 0.5893,0.5279 0.6519,0.7884 -0.07,0.1719 0.6029,0.6941 0.2198,0.4485 0.623,0.7682 0.9059,1.1673 0.1148,0.1617 0.1806,0.3556 0.3011,0.5132 1.11,1.4512 -0.5313,-1.0321 0.6106,0.7511 0.643,0.8141 1.2237,1.6386 1.8476,2.4648 0.4671,0.5155 0.7921,1.1455 1.2465,1.6665 0.9325,1.0693 -0.3884,-0.7991 0.5725,0.6273 0.528,1.2761 -0.091,-0.032 0.4514,0.7416 0.086,0.1228 0.1098,0.2847 0.2046,0.401 0.061,0.075 0.1827,0.082 0.2478,0.1541 0.5063,0.5621 -0.072,0.2196 0.4723,0.488 0.077,0.1189 0.3297,0.4568 0.2297,0.3568 -1.205,-1.2053 -5.573,-5.9471 0.5002,0.4862 0.3234,0.3426 0.4187,0.7443 0.7734,1.0581 0.6887,1.1843 -0.1623,-0.1422 0.5171,0.6039 0.1017,0.1117 0.1392,0.2732 0.244,0.382 0.073,0.076 0.1996,0.081 0.2732,0.1556 0.1039,0.1052 0.3503,0.4736 0.2452,0.3696 -0.7948,-0.7863 -1.5467,-1.6148 -2.3201,-2.4222 0.7403,0.7201 1.4852,1.4603 2.3059,2.0889 1.6557,1.3577 3.092,2.8799 4.6401,4.39946 -0.7877,-0.7822 -1.5586,-1.58166 -2.3632,-2.34656 -0.062,-0.059 0.064,0.1658 0.1283,0.2218 0.3863,0.3358 0.8777,0.513 1.2472,0.8751 1.3352,0.83316 2.5366,2.41146 3.5723,3.31136 0.8414,0.7311 -1.5758,-1.5772 -2.3879,-2.3406 -0.061,-0.057 0.063,0.1617 0.1272,0.2153 0.112,0.094 0.2554,0.1423 0.3831,0.2134 0.6453,0.542 1.3738,0.9907 2.1144,1.3928 0.6578,0.5703 1.3552,1.0912 2.1046,1.5323 1.4006,1.0693 2.4948,2.4155 3.840299,3.6218 0.828,0.7423 -3.151799,-3.1387 -2.374499,-2.3434 0.9538,0.9759 1.936099,1.9236 2.904199,2.8854 -0.7883,-0.79 -1.558499,-1.5986 -2.364999,-2.3701 -0.1175,-0.1124 0.1464,0.2985 0.2658,0.4088 0.2501,0.231 0.5832,0.288 0.9012,0.3611 0.946799,0.1433 1.908699,0.1304 2.863799,0.133 1.1582,0 2.3164,-0.01 3.4746,-0.01 1.1826,0 2.3652,0 3.5478,0 1.1759,-10e-5 2.3517,0 3.5276,0 1.2485,0 2.496995,0 3.745495,0 1.2369,0 2.4739,0 3.7108,0 1.0993,-0.022 2.1742,0.2425 3.2598,0.3784 0.9896,0.1106 1.9862,0.125 2.9809,0.1363 1.0277,0.01 2.0554,0 3.0831,0 1.0802,-0 2.1605,0 3.2407,0 1.4775,-2e-4 2.9549,-1e-4 4.4324,-1e-4 1.3658,0 2.7316,0 4.0975,0 1.0636,0 2.1272,0 3.1908,0 1.1684,0 2.3369,0 3.5053,0 1.1888,0 2.3776,0 3.5664,0 1.2515,0 2.5029,0 3.7543,0 1.227,-0.01 2.4343,0.2448 3.65,0.381 1.0893,0.09 2.1729,0.1042 3.2511,0.2941 0.9615,0.1983 1.9387,0.2796 2.9175,0.3256 1.0927,-0.031 2.1598,0.094 3.2335,0.2778 1.0469,0.1628 2.0984,0.2085 3.1388,0.4139 0.9552,0.2136 1.9296,0.2941 2.9049,0.3404 1.0179,0.036 2.0367,0.033 3.0551,0.033 1.0165,-0.061 2.0009,0.02 2.9934,0.2304 0.8901,0.1933 1.8015,0.2344 2.7088,0.2643 1.0191,0.024 2.0385,0.021 3.0578,0.02 1.0321,0 2.0641,0 3.0961,0 1.0312,-5e-4 2.0624,-5e-4 3.0936,-5e-4 1.0309,0 2.0618,0 3.0928,0 1.0309,0 2.0618,0 3.0927,0 1.0309,0 2.0619,0 3.0928,0 1.0606,0.029 2.1281,-0.066 3.1828,0.062 0.8511,0.1993 1.7097,0.3296 2.5807,0.3962 0.9976,0.059 1.9974,0.058 2.9963,0.061 1.0053,8e-4 2.0143,0.1691 2.9981,0.3726 0.051,0.01 0.1757,-0.025 0.1542,0.022 -0.039,0.085 -0.1633,0.095 -0.2351,0.1551 -0.1722,0.1453 -0.3522,0.2861 -0.4946,0.4606 -0.1747,0.214 -0.2903,0.4705 -0.4496,0.6962 -0.076,0.1071 -0.3373,0.199 -0.2542,0.3005 0.7086,0.866 1.6075,1.5572 2.4112,2.3357 -0.5728,-0.6037 -1.3656,-0.9482 -2.0523,-1.4041 -0.8408,-0.5132 -1.7183,-0.9606 -2.5735,-1.4504 -1.0264,-0.5016 -2.0036,-1.0822 -3.0157,-1.6109 -0.9135,-0.4736 -1.8857,-0.8069 -2.7974,-1.2798 -0.974,-0.3387 -1.8806,-0.8375 -2.8513,-1.1818 -1.0339,-0.3936 -2.0429,-0.8386 -3.0409,-1.3153 -1.0191,-0.3532 -1.9843,-0.838 -2.9878,-1.2291 -0.9199,-0.2583 -1.8173,-0.5986 -2.7034,-0.9577 -1.0649,-0.2786 -2.0463,-0.788 -3.0899,-1.1246 -0.8438,-0.4575 -1.787,-0.6925 -2.6278,-1.1492 -0.9093,-0.4577 -1.825,-0.8969 -2.6981,-1.4299 -0.9426,-0.50896 -1.9023,-0.97986 -2.7868,-1.58796 -0.8865,-0.4305 -1.6656,-1.0651 -2.563,-1.4614 -0.493,-0.1764 -0.86,-0.5919 -1.274,-0.8515 -1.2066,-0.7565 0.178,0.2654 -0.6925,-0.3964 -1.6988,-0.8317 -2.8966,-2.5453 -4.2816,-3.7414 -0.8433,-0.7282 1.5907,1.5605 2.3861,2.3408 -4.9028,-4.851 -2.8919,-2.8718 -0.541,-0.5096 0.091,0.091 -0.1825,-0.182 -0.278,-0.2686 -0.3707,-0.3362 -0.754,-0.6465 -1.1093,-1 -0.7489,-0.5666 -1.4714,-1.1601 -2.1424,-1.8196 -0.7178,-0.5523 -1.5186,-1.0086 -2.2285,-1.5679 -0.4445,-0.076 -0.6074,-0.503 -0.9306,-0.7283 -0.3345,-0.2333 -0.7516,-0.4607 -1.1166,-0.6446 -0.4739,-0.5881 -1.2355,-0.7617 -1.784,-1.2555 -1.3546,-0.8076 -2.5651,-2.4216 -3.5938,-3.3079 -0.8439,-0.7271 1.5752,1.5761 2.3869,2.339 0.061,0.057 -0.064,-0.1619 -0.1282,-0.2157 -0.112,-0.094 -0.2554,-0.1427 -0.3831,-0.2141 -0.6615,-0.4328 -1.2297,-1.009 -1.9276,-1.397 -0.7292,-0.4586 -1.3221,-1.1001 -2.0683,-1.5332 -0.5833,-0.5715 -1.3345,-0.8841 -1.9962,-1.3564 -0.4487,-0.083 -0.7067,-0.4718 -1.0739,-0.683 -0.3594,-0.2068 -0.6761,-0.3467 -1.0106,-0.5976 -0.6853,-0.3389 -1.4,-0.629 -2.0361,-1.0606 -0.7223,-0.3494 -1.5281,-0.527 -2.2511,-0.8834 -0.7572,-0.4152 -1.6158,-0.672 -2.4547,-0.879 -0.8937,-0.3781 -1.8197,-0.6665 -2.6994,-1.0788 -0.8812,-0.3701 -1.7675,-0.7236 -2.6364,-1.1247 -0.9475,-0.302 -1.8271,-0.7636 -2.7404,-1.1511 -0.6581,-0.5385 -1.5101,-0.7507 -2.1634,-1.2856 -0.067,-0.067 -0.1205,-0.1513 -0.2006,-0.2022 -0.2526,-0.1605 -0.9254,-0.4196 -1.1322,-0.6116 -1.1042,-1.025 -2.1105,-2.15214 -3.2116,-3.18044 -0.5328,-0.95184 -0.5669,-2.06754 -0.6127,-3.13197 -0.397,-0.8042 -0.429,-1.7299 -0.4824,-2.6096 -0.047,-1.04 -0.043,-2.0814 -0.043,-3.1222 0,-1.0338 0,-2.0676 0,-3.1015 8e-4,-1.031 9e-4,-2.062 9e-4,-3.093 1e-4,-1.0309 0,-2.0618 0,-3.0927 -0.1194,-1.0665 0.1313,-2.0602 0.3434,-3.0914 0.1499,-0.8696 0.1581,-1.7547 0.1715,-2.6345 -0.1128,-0.9014 0.2423,-1.9603 -0.1191,-2.8083 -0.2094,-0.3804 -0.1303,-0.8571 -0.2663,-1.2511 -0.031,-0.089 -0.1264,-0.1416 -0.1717,-0.2241 -0.14,-0.2551 -0.1825,-0.5062 -0.2538,-0.7863 -0.2421,-1.0248 -0.6756,-1.994 -0.9268,-3.0285 -0.312,-0.5241 -0.3411,-1.1567 -0.55,-1.7132 -0.051,-0.135 -0.1542,-0.2443 -0.2179,-0.3737 -0.1863,-0.3785 -0.2112,-0.5357 -0.3295,-0.9456 -0.1527,-1.0335 -0.4928,-1.9999 -0.6409,-3.0379 -0.019,-0.1865 -0.012,-0.3773 -0.056,-0.5595 -0.06,-0.2473 -0.219,-0.4621 -0.2866,-0.7073 -0.1326,-0.4806 -0.1813,-0.9736 -0.2319,-1.4675 -0.012,-0.1739 0,-0.3517 -0.035,-0.5217 -0.051,-0.2249 -0.2065,-0.4157 -0.2664,-0.6384 -0.1257,-0.4674 -0.1683,-0.9488 -0.2153,-1.4285 -0.4013,-0.946 -0.4745,-1.99156 -0.5437,-3.00576 0.067,-0.9409 -0.3074,-1.7712 -0.4371,-2.6906 -0.1137,-1.0261 -0.1188,-2.0599 -0.1261,-3.091 0,-1.0357 2e-4,-2.0715 0,-3.1072 0,-1.0314 0,-2.0628 0,-3.0942 2e-4,-1.0309 1e-4,-2.0618 1e-4,-3.0927 -0.3644,-0.7961 -0.4128,-1.6853 -0.4699,-2.5462 -0.052,-1.0373 -0.05,-2.0763 -0.051,-3.1146 0.1099,-0.9039 -0.2575,-1.6983 -0.3831,-2.5811 -0.096,-0.3261 -0.01,-0.678 -0.082,-1.0056 -0.051,-0.2213 -0.208,-0.4074 -0.2679,-0.6265 -0.094,-0.3416 -0.1155,-0.5658 -0.1679,-0.9188 -0.017,-0.1684 -0.013,-0.3401 -0.051,-0.5052 -0.064,-0.282 -0.2057,-0.5424 -0.2706,-0.8242 -0.1236,-0.5368 -0.1821,-1.0802 -0.2374,-1.6271 -0.1103,-0.5382 0.014,-1.1135 -0.077,-1.6509 -0.061,-0.3615 -0.2551,-0.7475 -0.3312,-1.1179 -0.1622,-1.0077 -0.1755,-2.031 -0.1898,-3.0492 -0.01,-1.0369 0,-2.0739 0,-3.1108 0,-1.0317 0,-2.0635 0,-3.0952 2e-4,-1.0309 2e-4,-2.0618 2e-4,-3.0927 -0.067,-0.6784 0.088,-1.3861 0,-2.0618 -0.037,-0.2847 -0.1567,-0.5528 -0.2195,-0.833 -0.2094,-1.0651 -0.2553,-2.1514 -0.2855,-3.2335 -0.02,-1.0497 -0.016,-2.09965 -0.014,-3.14945 -0.1176,-1.06715 0.1342,-2.06132 0.3471,-3.09295 0.3608,-0.89514 0.7103,-1.7683 1.2818,-2.55115 0.4727,-0.70374 0.9548,-1.39592 1.4483,-2.086 0.6902,-0.85737 1.3328,-1.75233 2.0727,-2.56789 0.5778,-0.76094 1.1508,-1.50744 1.8085,-2.20409 0.7221,-0.84783 1.5677,-1.58336 2.3036,-2.41737 0.6881,-0.72557 1.379,-1.4474 2.0934,-2.1473 0.5649,-0.63454 1.2196,-1.17869 1.7807,-1.81748 0.6744,-0.67319 1.4459,-1.22483 2.134,-1.88395 0.6849,-0.61887 1.4148,-1.19565 2.0572,-1.85962 0.5981,-0.62539 1.2742,-1.15142 1.9521,-1.6854 0.6782,-0.48731 1.4027,-0.89928 2.0815,-1.3868 0.7872,-0.5677 1.6296,-1.05354 2.4192,-1.61795 0.8055,-0.5422 1.6327,-1.05723 2.4702,-1.54971 0.7142,-0.43567 1.3516,-0.97704 2.043,-1.44617 0.8554,-0.54821 1.6853,-1.1327 2.5147,-1.71914 0.8037,-0.61268 1.625,-1.19424 2.4703,-1.74718 0.7203,-0.47812 1.4092,-0.99686 2.1406,-1.46005 0.7362,-0.59057 1.5003,-1.14347 2.263,-1.69884 0.5984,-0.52182 1.2044,-1.01941 1.8493,-1.48245 0.6376,-0.4708 1.2886,-0.92366 1.9292,-1.3905 0.6749,-0.51772 1.3647,-1.01573 2.0464,-1.5248 0.6779,-0.52884 1.3743,-1.03253 2.0629,-1.54745 0.8019,-0.56479 1.5886,-1.14926 2.3772,-1.73201 0.8408,-0.68174 1.7606,-1.24947 2.6542,-1.85576 0.8955,-0.60167 1.813,-1.16917 2.7271,-1.7419 1.0089,-0.64297 2.0619,-1.21356 3.1242,-1.76256 0.9902,-0.47648 1.8778,-1.12817 2.8236,-1.68016 0.6274,-0.43964 1.3475,-0.72276 1.981,-1.1505 0.6994,-0.48455 1.4007,-0.96477 2.098,-1.45258 0.7786,-0.62036 1.5981,-1.19438 2.3378,-1.86198 0.6365,-0.60258 1.3254,-1.12911 2.047,-1.62598 0.6041,-0.47205 1.172,-0.98109 1.7988,-1.42475 0.6601,-0.48844 1.3015,-1.00114 1.9389,-1.51927 0.9655,-0.68302 1.8972,-1.41009 2.8591,-2.09811 0.8975,-0.5332 1.6923,-1.21385 2.5682,-1.77676 0.6027,-0.35098 1.1299,-0.79884 1.6621,-1.24387 0.5134,-0.47842 0.9946,-0.98898 1.5066,-1.46899 0.8025,-0.64544 1.5116,-1.38433 2.234,-2.11345 0.8198,-0.85051 1.7434,-1.58681 2.591,-2.40681 0.6744,-0.62343 1.3975,-1.20211 2.0316,-1.86769 0.6231,-0.62165 1.2924,-1.19252 1.9495,-1.77865 0.8115,-0.7074 1.6226,-1.41607 2.4417,-2.11481 0.5619,-0.51463 1.0882,-1.06497 1.6456,-1.58396 0.5538,-0.47399 0.9492,-1.07479 1.4039,-1.63389 0.4945,-0.68243 1.0513,-1.32573 1.6491,-1.92053 0.512,-0.54394 1.0309,-1.08488 1.5765,-1.59611 0.5111,-0.51814 1.0148,-1.0455 1.5463,-1.54347 0.4772,-0.55918 1.0727,-1.00349 1.5675,-1.544 0.6486,-0.68409 1.4476,-1.19276 2.152,-1.81196 0.5549,-0.47421 1.1247,-0.9461 1.6169,-1.4872 0.5635,-0.4963 1.0092,-1.10911 1.4307,-1.72616 0.53,-0.55208 0.9061,-1.21404 1.1289,-1.94446 0.1008,-0.85681 0.4686,-1.6336 0.6053,-2.48507 0.1237,-0.55681 0.01,-1.1457 0.092,-1.70324 0.01,-0.046 0.2414,-0.95434 0.2676,-1.05625 0.2028,-0.83539 0.2211,-1.69806 0.2419,-2.55292 -0.088,-0.99352 0.271,-1.92416 0.4147,-2.89402 0.1022,-0.90186 0.1033,-1.81118 0.11,-2.71762 -0.075,-1.09704 0.2454,-2.15343 0.3886,-3.23318 0.1107,-0.97785 0.1184,-1.96311 0.1264,-2.94597 0,-1.0229 6e-4,-2.04582 -9e-4,-3.06873 0,-1.0312 0,-2.06241 0,-3.09362 -1e-4,-1.03107 -1e-4,-2.06214 -1e-4,-3.09321 -0.3643,-0.79618 -0.4127,-1.68532 -0.4698,-2.54627 0.061,-0.90891 -0.3117,-1.70079 -0.4381,-2.5907 -0.4448,-0.92171 -0.5184,-1.9714 -0.5923,-2.97794 -0.4605,-0.88673 -0.2125,-1.9928 -0.6368,-2.86513 -0.2894,-0.57983 -0.2268,-1.24569 -0.3656,-1.85633 -0.065,-0.28507 -0.1963,-0.55141 -0.272,-0.83378 -0.1613,-1.05528 -0.5223,-2.03998 -0.6856,-3.09849 -0.021,-0.18984 -0.022,-0.38271 -0.062,-0.56953 -0.067,-0.31499 -0.2071,-0.61103 -0.2777,-0.92516 -0.124,-0.55152 -0.1864,-1.10783 -0.2432,-1.66919 -0.3078,-0.63211 -0.294,-1.35063 -0.4579,-2.01639 -0.078,-0.31558 -0.2153,-0.61378 -0.3028,-0.92677 -0.262,-0.71879 -0.1519,-1.51538 -0.3062,-2.24739 -0.052,-0.24715 -0.1922,-0.46781 -0.2686,-0.70855 -0.3654,-0.86725 -0.01,-1.94006 -0.4108,-2.76659 -0.3089,-0.90183 -0.3387,-1.86769 -0.3772,-2.8116 0,-0.17351 0.018,-0.34966 -0.013,-0.52054 -0.04,-0.22725 -0.186,-0.42481 -0.2426,-0.6486 -0.117,-0.46253 -0.1592,-0.93639 -0.2046,-1.40965 -0.077,-1.03536 -0.077,-2.07435 -0.08,-3.11196 0,-0.17306 0.026,-0.34806 0,-0.51919 -0.034,-0.22805 -0.1745,-0.42866 -0.2301,-0.65246 -0.1137,-0.45764 -0.1566,-0.9253 -0.2021,-1.39316 -0.082,-0.33508 0.012,-0.6903 -0.055,-1.02613 -0.045,-0.22481 -0.1956,-0.4176 -0.2536,-0.63942 -0.09,-0.34328 -0.1102,-0.55929 -0.1613,-0.91353 -0.097,-0.3298 -0.01,-0.68509 -0.082,-1.01653 -0.051,-0.22265 -0.2068,-0.41072 -0.2665,-0.63115 -0.093,-0.34296 -0.1145,-0.56687 -0.1665,-0.92103 -0.1264,-0.49872 -0.01,-1.04303 -0.1052,-1.54163 -0.02,-0.1017 -0.099,-0.18286 -0.1366,-0.2794 -0.1166,-0.29791 -0.1401,-0.48217 -0.2069,-0.80036 -0.1135,-0.31528 -0.031,-0.66431 -0.117,-0.98269 -0.026,-0.0955 -0.1144,-0.16282 -0.1562,-0.25253 -0.1877,-0.40243 -0.2392,-0.85439 -0.3057,-1.28724 -0.017,-0.16958 -0.01,-0.3444 -0.052,-0.50873 -0.06,-0.21876 -0.2256,-0.39864 -0.2883,-0.61674 -0.1353,-0.47056 -0.1793,-0.95844 -0.2287,-1.44314 -0.3657,-0.44463 -0.318,-1.03231 -0.4639,-1.55172 -0.078,-0.27756 -0.2162,-0.53549 -0.2981,-0.81189 -0.2596,-0.70042 -0.1463,-1.47903 -0.298,-2.19272 -0.052,-0.2451 -0.1924,-0.4634 -0.2682,-0.70224 -0.3643,-0.86926 -0.01,-1.94281 -0.4102,-2.77146 -0.3088,-0.90234 -0.3388,-1.86854 -0.3773,-2.8129 -0.078,-0.51086 0.056,-1.05373 -0.024,-1.56236 -0.054,-0.34585 -0.2478,-0.72684 -0.3202,-1.08149 -0.1606,-1.00408 -0.175,-2.02348 -0.1901,-3.03789 -0.01,-1.03737 -0.01,-2.07479 0,-3.11218 -0.06,-0.50699 0.078,-1.04401 0,-1.54862 -0.052,-0.34111 -0.2465,-0.72304 -0.319,-1.07175 -0.042,-0.29547 -0.033,-0.55817 -0.226,-0.80439 -0.062,-0.0794 -0.1783,-0.10234 -0.2443,-0.17864 -0.09,-0.10373 -0.1191,-0.2525 -0.2142,-0.35135 -0.072,-0.075 -0.3402,-0.23201 -0.2716,-0.15375 0.7506,0.85656 1.5522,1.6671 2.3284,2.50065 0,0 -0.124,-5.15315 -0.124,-5.15315 l 0,0 c 2.8138,2.9256 3.1207,2.53588 3.6862,5.6312 0.2003,1.02718 0.1465,2.0617 0.1441,3.10409 2e-4,1.01167 0,2.02373 0.035,3.03488 0.044,0.88223 0.1153,1.76453 0.3339,2.62374 0.2007,0.97868 0.1574,1.9655 0.2384,2.95795 0.095,0.85182 0.3,1.6741 0.4792,2.5104 0.055,0.89256 0.1724,1.77204 0.4521,2.62578 0.2013,0.93387 0.2203,1.90798 0.5894,2.80571 0.2672,0.87889 0.5118,1.78015 0.6706,2.68292 0.203,0.81564 0.5137,1.59819 0.6092,2.43843 0.2541,0.8264 0.4224,1.65036 0.586,2.49822 0.2223,0.88768 0.2106,1.79712 0.4297,2.68582 0.2345,0.859 0.3742,1.71468 0.5077,2.59375 0.2244,0.89639 0.3462,1.78746 0.4288,2.70757 0.1781,0.9525 0.4046,1.88983 0.3189,2.86972 0.018,0.93472 0.036,1.87422 0.1962,2.79773 0.1806,0.91094 0.4271,1.80338 0.4023,2.74266 0.095,0.85118 0.2999,1.67276 0.4793,2.50835 0.054,0.89232 0.1736,1.77104 0.4515,2.62493 0.2076,0.97488 0.2348,1.98809 0.5802,2.93616 0.2755,1.06677 0.4803,2.16041 0.6701,3.2446 0.1922,1.01295 0.4772,2.00514 0.6267,3.02624 0.2506,0.98766 0.4959,1.97209 0.7241,2.96483 0.2199,0.90081 0.3467,1.82234 0.6325,2.70898 0.1279,1.07176 0.4184,2.10907 0.5379,3.18097 0.1582,0.95458 0.4849,1.86042 0.6469,2.81245 0.2166,0.92166 0.3247,1.83686 0.3741,2.78276 0.1386,0.93081 0.4289,1.84512 0.3742,2.79521 0,1.03078 0,2.06156 5e-4,3.09234 5e-4,1.03064 0,2.06127 0,3.09191 7e-4,1.03915 0,2.07846 -0.02,3.11742 -0.033,1.08522 -0.088,2.17158 -0.2649,3.24458 -0.1588,0.97647 -0.3053,1.94033 -0.2502,2.93465 -0.032,1.03037 -0.081,2.06384 -0.28,3.07802 -0.1732,0.86641 -0.3057,1.71231 -0.2742,2.60166 -0.069,0.99324 -0.1889,1.9808 -0.4371,2.94737 -0.1618,0.90743 -0.09,1.85295 -0.3537,2.74844 -0.2472,0.95007 -0.5217,1.89512 -0.8125,2.83152 -0.3909,0.88383 -0.8531,1.74112 -1.5116,2.4582 -0.511,0.69524 -1.0112,1.4145 -1.6652,1.98481 -0.5605,0.58522 -1.1595,1.13818 -1.7848,1.6526 -0.6457,0.57345 -1.3678,1.04905 -1.9884,1.65112 -0.5508,0.57233 -1.1646,1.0786 -1.6955,1.67111 -0.5443,0.4832 -1.0251,1.03652 -1.5465,1.54365 -0.538,0.47705 -1.014,1.024 -1.5162,1.53733 -0.5367,0.51239 -0.9913,1.10994 -1.4388,1.69946 -0.5279,0.67077 -1.0455,1.3413 -1.6792,1.91822 -0.5963,0.52818 -1.1264,1.12953 -1.7241,1.65744 -0.8105,0.66798 -1.5839,1.3825 -2.3848,2.06185 -0.6109,0.54663 -1.241,1.07089 -1.8193,1.65112 -0.6634,0.67509 -1.3793,1.29784 -2.0882,1.92426 -0.8353,0.80818 -1.7407,1.5362 -2.5533,2.36935 -0.7507,0.75572 -1.4824,1.52859 -2.3175,2.19546 -0.5607,0.49935 -1.0549,1.07089 -1.616,1.57089 -0.6453,0.51175 -1.2505,1.06994 -1.9616,1.49503 -0.8639,0.43162 -1.5192,1.2124 -2.3952,1.63641 -0.9174,0.65581 -1.8004,1.35536 -2.7339,1.98846 -0.6987,0.57412 -1.4107,1.12786 -2.1254,1.68001 -0.6638,0.40145 -1.1915,0.97978 -1.8145,1.43762 -0.6393,0.39122 -1.2003,0.85539 -1.7499,1.36435 -0.8161,0.73985 -1.7116,1.3822 -2.5708,2.07049 -0.6841,0.48608 -1.3717,0.95844 -2.0673,1.42661 -0.7084,0.53164 -1.5122,0.86388 -2.2425,1.35987 -1.0111,0.49644 -1.8713,1.26531 -2.9012,1.73704 -1.0127,0.4832 -1.9936,1.03856 -2.9469,1.62908 -0.8826,0.52341 -1.7337,1.09868 -2.604,1.64189 -0.866,0.61852 -1.8034,1.13512 -2.6195,1.82643 -0.7806,0.55393 -1.5244,1.15695 -2.3238,1.68575 -0.6769,0.52925 -1.399,1.00277 -2.0639,1.54826 -0.6755,0.52779 -1.3965,1.00032 -2.0634,1.53973 -0.6316,0.4858 -1.3114,0.91291 -1.9409,1.40063 -0.6435,0.48978 -1.2975,0.9559 -1.8903,1.5175 -0.8123,0.56252 -1.5985,1.16312 -2.3673,1.78475 -0.7072,0.45187 -1.394,0.92584 -2.0779,1.40895 -0.8116,0.56792 -1.6613,1.07983 -2.43,1.7134 -0.8581,0.61408 -1.7201,1.21702 -2.6041,1.79309 -0.7652,0.45622 -1.408,1.08625 -2.1718,1.54683 -0.7692,0.40029 -1.4754,0.91224 -2.2216,1.34923 -0.7925,0.59364 -1.6515,1.08903 -2.4624,1.65468 -0.6456,0.43947 -1.2697,0.90335 -1.9552,1.27709 -0.5907,0.48075 -1.2196,0.90696 -1.734,1.4781 -0.6693,0.67356 -1.392,1.29353 -2.1109,1.91296 -0.6437,0.61722 -1.3362,1.15984 -2.0011,1.74889 -0.6117,0.66854 -1.2846,1.27295 -1.8989,1.93805 -0.678,0.65482 -1.3217,1.34296 -1.9728,2.02418 -0.763,0.83901 -1.6034,1.6051 -2.3471,2.46271 -0.6435,0.68319 -1.17,1.44839 -1.7724,2.16662 -0.6694,0.74111 -1.245,1.56216 -1.869,2.34075 -0.4863,0.68979 -0.9686,1.38102 -1.4425,2.07923 -0.3193,0.50585 -0.5388,1.09407 -0.684,1.67014 -0.1735,0.86991 -0.1344,1.73988 -0.1256,2.62578 0,1.0122 0,2.0252 0.06,3.0361 0.069,0.9919 0.2003,1.9748 0.3851,2.9521 0.1283,1.0921 0.056,2.1928 0.074,3.2907 0,1.0313 -10e-5,2.0626 -7e-4,3.0938 -7e-4,1.0321 0,2.0641 0,3.0961 0,1.0115 0,2.0235 0.034,3.0346 0.043,0.8787 0.1124,1.7583 0.3407,2.6119 0.2157,0.9702 0.1912,1.9568 0.3554,2.9356 0.1844,0.9427 0.4646,1.8628 0.6038,2.8138 0.2377,0.8669 0.3802,1.7297 0.4963,2.6205 0.2089,0.9896 0.2899,1.9711 0.2368,2.9846 0.011,0.9609 0.021,1.9248 0.1404,2.8798 0.1387,0.9308 0.429,1.8451 0.3743,2.7952 -10e-5,1.0312 -10e-5,2.0624 -5e-4,3.0935 -5e-4,1.0321 0,2.0642 0,3.0963 -9e-4,1.0198 0,2.0398 0.018,3.0595 0.028,0.9052 0.065,1.8156 0.2649,2.7026 0.217,0.9512 0.322,1.8976 0.3766,2.87186 0.1457,0.9769 0.4442,1.9159 0.5824,2.8925 0.1912,0.8571 0.4707,1.689 0.5218,2.5726 0.207,0.8868 0.5095,1.7466 0.598,2.6588 0.2241,0.8947 0.4234,1.8019 0.7402,2.6663 0.4431,1.0274 0.7227,2.1149 1.0616,3.18 0.3332,0.9856 0.6731,1.9686 0.941,2.9721 0.3263,0.8555 0.4362,1.7694 0.5724,2.6714 7e-4,1.0711 0,2.1426 -0.036,3.2131 -0.05,1.0143 -0.132,2.0285 -0.3586,3.0212 -0.1727,0.8705 -0.1314,1.7409 -0.1234,2.6272 0,1.031 0,2.062 -1e-4,3.093 -3e-4,1.0318 -6e-4,2.0637 0,3.0955 0,1.0294 0,2.0588 7e-4,3.0881 0.01,0.9637 0.015,1.9306 0.1323,2.8885 0.1337,0.878 0.4338,1.72093 0.4821,2.61063 0.121,0.6684 0.2961,1.17074 0.91,1.52374 0.998,1.2629 -0.012,-0.044 -2.246,-2.08634 -0.068,-0.062 0.064,0.1821 0.1342,0.2412 0.1086,0.091 0.265,0.1072 0.3802,0.1896 0.6693,0.4788 -0.5111,-0.03 0.6733,0.3936 0.118,0.072 0.236,0.1437 0.3539,0.2155 0.051,0.082 0.077,0.1862 0.1525,0.2476 0.113,0.092 0.2707,0.1142 0.3911,0.1965 0.091,0.062 0.1404,0.17854 0.2368,0.23294 0.1532,0.086 0.3306,0.1203 0.4959,0.1804 0.1333,0.075 0.2665,0.1508 0.3998,0.2262 0.4483,0.4697 1.6589,1.037 2.2992,1.2207 0.1634,0.059 0.3267,0.11724 0.4901,0.17574 0.1267,0.068 0.2466,0.15 0.38,0.2037 0.6238,0.2509 0.3647,0.029 0.9291,0.3428 0.116,0.065 0.2051,0.1743 0.3266,0.2277 0.1793,0.079 0.3762,0.1094 0.5644,0.1642 0.8842,0.3508 1.7078,0.8234 2.6242,1.0938 0.684,0.4643 1.8346,0.5656 2.6246,0.8468 0.1194,0.055 0.2387,0.1097 0.3581,0.1645 0.065,0.066 0.112,0.1583 0.1959,0.1982 0.1433,0.068 0.3107,0.067 0.4621,0.1149 0.4316,0.1362 0.6311,0.4495 1.1245,0.4261 0.2787,0.08 0.5926,0.1422 0.8406,0.3083 0.08,0.053 0.1142,0.1642 0.1997,0.2079 0.3624,0.1853 0.8193,0.1409 1.069,0.5307 0.3192,0.098 0.6038,0.1573 0.8843,0.3466 0.092,0.062 0.142,0.178 0.239,0.232 0.3988,0.2221 0.8897,0.2327 1.1531,0.6712 0.8448,0.3743 1.5318,0.9579 2.3805,1.3167 0.4071,0.4485 1.0044,0.6146 1.452,1.0248 0.081,0.074 0.1012,0.202 0.1847,0.2736 0.1197,0.1026 0.2732,0.1575 0.4097,0.2362 0.3856,0.4348 0.9643,0.5673 1.3928,0.956 0.07,0.063 0.07,0.1838 0.1432,0.2435 0.1137,0.093 0.2629,0.1316 0.3943,0.1974 0.3214,0.362 0.1083,0.1929 0.6995,0.4202 1.0199,0.8951 1.9914,1.8458 2.9355,2.8205 0.7824,0.808 -1.6542,-1.5252 -2.4504,-2.3196 -0.1596,-0.1593 0.6882,0.3927 0.4745,0.482 0.1182,0.07 0.2364,0.1411 0.3545,0.2116 0.045,0.08 0.064,0.1817 0.135,0.2403 0.1094,0.091 0.2664,0.1065 0.3824,0.1886 0.081,0.057 0.1112,0.1723 0.1968,0.2216 0.1476,0.085 0.3214,0.1131 0.4821,0.1696 0.1196,0.072 0.2391,0.1435 0.3587,0.2152 0.417,0.698 1.4006,0.6913 1.8295,1.3898 0.1403,0.081 0.2805,0.1614 0.4208,0.2422 0.09,0.093 0.1624,0.2063 0.2696,0.2786 0.5131,0.346 1.1639,0.5346 1.5584,1.0452 0.4357,0.2224 0.9147,0.4942 1.279,0.8284 0.1,0.091 0.1471,0.2312 0.2482,0.3212 1.258,1.1203 -0.2437,-0.4525 0.7803,0.6569 1.984,1.2582 7.7696,7.506 2.0851,1.7708 0.9779,0.9407 1.9907,1.8464 2.9335,2.8222 0.7817,0.8089 -1.6535,-1.5266 -2.4496,-2.3215 -0.099,-0.099 0.2555,0.1285 0.3538,0.2288 0.065,0.067 0.052,0.1879 0.1181,0.2534 0.6353,0.6275 0.1496,-0.1551 0.4858,0.4524 0.1265,0.063 0.253,0.126 0.3795,0.189 0.066,0.074 0.1115,0.1728 0.1972,0.2227 0.4813,0.2807 0.4359,0.03 0.8325,0.386 0.074,0.066 0.085,0.1875 0.1622,0.2492 0.1169,0.093 0.2677,0.1334 0.4016,0.2001 0.473,0.4317 0.033,0.09 0.7795,0.4306 1.1212,0.5117 -0.1599,-0.036 0.7505,0.5267 0.1655,0.1022 0.3547,0.1597 0.5321,0.2396 0.1426,0.091 0.2852,0.1826 0.4278,0.2738 0.9527,0.4606 1.7527,1.1458 2.7086,1.5991 0.9306,0.434 1.7307,1.0894 2.697,1.4302 0.1342,0.07 0.2685,0.139 0.4028,0.2086 0.089,0.081 0.1621,0.1843 0.2674,0.2425 0.5659,0.3127 1.2292,0.4252 1.8034,0.7235 0.8046,0.5439 1.9288,0.6908 2.7813,1.1904 0.9017,0.2219 1.8053,0.5743 2.639,0.97386 1.1305,0.2394 2.1642,0.6849 3.2035,1.1782 1.0827,0.3353 2.0427,0.9171 3.1039,1.3022 0.9161,0.4388 1.9212,0.6767 2.8059,1.1911 0.3971,0.1193 0.5882,0.1534 0.9499,0.3495 0.1246,0.068 0.2244,0.1781 0.3542,0.2348 0.5336,0.2334 1.153,0.2912 1.627,0.6693 1.0877,0.4292 2.1408,0.9285 3.1029,1.5958 0.9385,0.4041 1.8435,0.9072 2.7164,1.4289 0.1374,0.067 0.2749,0.1346 0.4124,0.2019 0.09,0.08 0.1648,0.182 0.2708,0.2391 0.7735,0.4162 0.2871,-0.048 0.973,0.4315 0.1079,0.075 0.1743,0.2032 0.2872,0.2708 0.1653,0.099 0.3561,0.1472 0.5341,0.2208 1.0044,0.9411 2.0948,1.7981 3.0131,2.8233 0.1616,0.1803 0.1698,0.4687 0.1519,0.7101 -0.087,1.1728 -0.836,2.1311 -1.9839,2.3763 -1.0323,0.1359 -2.0765,-0.033 -3.0699,-0.3424 -1.0384,0 -2.077,0.01 -3.1153,-0.013 -0.9818,-0.026 -1.9732,-0.052 -2.9342,-0.2745 -0.2192,-0.067 -0.4208,-0.1971 -0.6473,-0.2316 -0.6717,-0.1022 -1.3865,0.078 -2.0619,0 -1.0309,0 -2.0619,0 -3.0928,0 -1.0309,0 -2.0618,0 -3.0928,0 -1.0309,0 -2.0618,0 -3.0927,0 -1.0309,0 -2.0618,0 -3.0927,10e-5 -1.0314,3e-4 -2.0629,6e-4 -3.0944,0 -1.0362,0 -2.0723,0.01 -3.1085,7e-4 -1.0277,-0.01 -2.0581,-0.015 -3.0805,-0.131 -0.8799,-0.126 -1.6701,-0.4946 -2.5712,-0.3843 -1.0435,0 -2.087,0.01 -3.1305,0 -1.0958,-0.016 -2.1954,-0.04 -3.2807,-0.2079 -0.4691,-0.083 -0.9389,-0.2583 -1.4029,-0.3325 -0.5381,-0.086 -1.1064,0 -1.6438,-0.1108 -0.9948,-0.1275 -1.9412,-0.4522 -2.9499,-0.3808 -1.0892,-0.017 -2.1818,-0.041 -3.261,-0.2033 -0.4581,-0.079 -0.9286,-0.2514 -1.383,-0.3135 -0.5451,-0.075 -1.1164,0.035 -1.6626,-0.05 -1.1553,-0.077 -2.3091,-0.2003 -3.4389,-0.4631 -1.2514,0 -2.5028,0 -3.7543,0 -1.1888,0 -2.3776,0 -3.5664,0 -1.1684,0 -2.3369,0 -3.5053,0 -1.0636,0 -2.1272,0 -3.1908,0 -1.3659,0 -2.7317,0 -4.0975,0 -1.4774,0 -2.9547,0 -4.4321,0 -1.0794,10e-5 -2.1589,10e-5 -3.2384,0 -1.0333,0 -2.0666,0 -3.0999,0 -1.0643,-7e-4 -2.1292,0 -3.1923,-0.055 -1.0218,-0.068 -2.0508,-0.1622 -3.0342,-0.4657 -1.2369,0 -2.4739,0 -3.7108,0 -1.2485,0 -2.4971,0 -3.7456,0 -1.175795,0 -2.351495,-10e-5 -3.527295,-10e-5 -1.1814,0 -2.3628,-10e-5 -3.5442,0 -1.1586,0 -2.3171,0 -3.4757,0.01 -1.0551,0 -2.1108,0.017 -3.1655,-0.019 -2.977799,-0.1584 -3.121999,-0.6003 -5.629599,-3.3564 0.8,0.7828 3.2222,3.1075 2.3999,2.3483 -0.999,-0.9224 -1.9782,-1.867 -2.9302,-2.8379 -0.783,-0.7986 1.6361,1.5261 2.4231,2.3207 0.1037,0.1047 -0.263,-0.1414 -0.3674,-0.2452 -0.7347,-0.7313 0.6621,0.2518 -0.5332,-0.518 -0.383,-0.5594 0.054,0 -0.6035,-0.519 -0.098,-0.076 -0.1481,-0.2051 -0.2497,-0.2764 -0.3751,-0.2635 -0.8389,-0.4267 -1.1894,-0.7399 -0.3644,-0.5377 0.047,-0.017 -0.59,-0.4976 -0.094,-0.071 -0.1416,-0.1956 -0.2404,-0.2605 -0.3683,-0.2418 -0.8276,-0.3861 -1.1948,-0.64 -0.3218,-0.3615 -0.1085,-0.1926 -0.7005,-0.419 -1.0203,-0.895 -1.9871,-1.8505 -2.9359,-2.821 -0.786,-0.804 1.653,1.5255 2.4473,2.3213 0.1608,0.1611 -0.6936,-0.3942 -0.4834,-0.4824 -0.121,-0.071 -0.2421,-0.1428 -0.3631,-0.2143 -0.048,-0.081 -0.071,-0.1833 -0.1445,-0.2427 -0.1149,-0.093 -0.2767,-0.1126 -0.3978,-0.1978 -0.086,-0.06 -0.1227,-0.1777 -0.2125,-0.2316 -0.1546,-0.093 -0.3355,-0.1321 -0.5033,-0.1982 -0.9757,-0.9514 -1.9514,-1.9027 -2.9271,-2.8541 0.7979,0.7731 1.6167,1.5252 2.3937,2.3194 0.1088,0.1112 -0.2729,-0.1568 -0.3844,-0.2654 -0.086,-0.084 -0.1112,-0.218 -0.1976,-0.3014 -0.1214,-0.1172 -0.2906,-0.1758 -0.4149,-0.2898 -0.9716,-0.8919 0.6441,0.2961 -0.7374,-0.6619 -0.7379,-0.7883 0.093,0.043 -0.8954,-0.7416 -0.5293,-0.4202 -0.9488,-0.98196 -1.5281,-1.34526 -1.4717,-1.5185 -2.9411,-2.8445 -4.1337,-4.5278 -0.4085,-0.6668 -0.076,-0.2156 -0.5135,-0.6513 -0.093,-0.092 -0.357,-0.3827 -0.265,-0.2897 5.0235,5.0766 0.9523,1.0053 -0.7315,-0.7835 -0.384,-0.6589 -0.8812,-1.3917 -1.3692,-1.9645 -0.6962,-0.7136 -1.1613,-1.6288 -1.8131,-2.3849 -0.6043,-0.8284 -1.2421,-1.6251 -1.8484,-2.454 -0.6336,-0.707 -1.1298,-1.538 -1.8291,-2.1918 -0.5342,-0.7705 -1.1328,-1.4915 -1.6904,-2.245 -0.6018,-0.6238 -0.9457,-1.4512 -1.5454,-2.0839 -0.6103,-0.6663 -0.9572,-1.5316 -1.5407,-2.2249 -0.695,-0.8193 0.2576,0.3395 -0.5104,-0.7459 -0.3279,-0.4635 -0.8084,-0.8208 -1.0335,-1.3578 -0.5744,-0.7149 -1.0483,-1.5171 -1.6425,-2.221 -0.7212,-0.7071 -1.3208,-1.4951 -1.978,-2.2582 -0.7058,-0.9536 -1.5349,-1.81494 -2.1764,-2.82014 -0.347,-0.38854 -0.5675,-0.82364 -0.8758,-1.23614 -0.1848,-0.2473 -0.4396,-0.4349 -0.6371,-0.6721 -0.1309,-0.1574 -0.2456,-0.3275 -0.3685,-0.49133 -0.5975,-0.9286 -1.2432,-1.8333 -1.8504,-2.7527 -0.4841,-0.7097 -0.9749,-1.4082 -1.5567,-2.0431 -0.4848,-0.8262 -1.0558,-1.6014 -1.6791,-2.3307 -0.5837,-0.8851 -1.3235,-1.6515 -1.9528,-2.5018 -0.3579,-0.3655 -0.6726,-0.7581 -1.0103,-1.1414 -0.091,-0.1038 -0.38,-0.4025 -0.2825,-0.3043 1.8376,1.8494 4.8973,4.9996 -0.5715,-0.6118 -0.3523,-0.3091 -0.6582,-0.6635 -0.9851,-0.9991 -0.1379,-0.1416 -0.5356,-0.5808 -0.3925,-0.4445 0.6193,0.5899 3.309,3.2416 1.8239,1.8047 -1.3566,-1.271 -2.6286,-2.3889 -3.9925,-3.7718 -0.7846,-0.7954 1.6319,1.5274 2.4163,2.323 0.1046,0.1061 -0.2475,-0.1657 -0.3713,-0.2486 -0.3486,-0.5948 0.081,0.043 -0.5516,-0.533 -0.088,-0.08 -0.1193,-0.2119 -0.2094,-0.29 -0.1276,-0.1106 -0.2995,-0.1602 -0.4315,-0.2655 -0.8966,-0.7155 0.5055,0.1355 -0.7891,-0.5875 -0.2535,-0.2152 -0.544,-0.3882 -0.7766,-0.6257 -0.095,-0.098 -0.1349,-0.241 -0.2308,-0.338 -0.3548,-0.3589 -0.8873,-0.4789 -1.1854,-0.9036 -0.947,-0.5156 -1.803,-1.1841 -2.7466,-1.7091 -0.7594,-0.7071 -1.7698,-1.0768 -2.6849,-1.5396 -2.428401,-2.5417 -3.447001,-2.7237 -3.376301,-5.7286 0.032,-1.0303 0.081,-2.0637 0.28,-3.0779 0.1732,-0.8658 0.3059,-1.7112 0.2751,-2.6 0.071,-0.9951 0.1936,-1.9839 0.441501,-2.9524 0.1665,-0.9444 0.099,-1.9229 0.3024,-2.8661 0.1582,-0.9717 0.3051,-1.9294 0.2279,-2.9189 4e-4,-1.0437 -10e-4,-2.0878 0.037,-3.13096 0.05,-1.0892 0.1378,-2.1769 0.3394,-3.2499 0.1598,-0.9635 0.172,-1.9215 0.1431,-2.8982 0,-1.0309 0,-2.0618 0,-3.0928 0,-1.0309 0,-2.0618 0,-3.0927 0,-1.031 0,-2.0619 0,-3.0928 0,-1.0309 0,-2.0619 0,-3.0928 0,-1.0309 0,-2.0619 0,-3.0928 0,-1.0311 0,-2.0621 5e-4,-3.0932 5e-4,-1.0312 0,-2.0624 0,-3.0937 7e-4,-1.023 0,-2.0461 -0.019,-3.069 -0.03,-0.9838 -0.08,-1.9692 -0.2521,-2.9403 -0.183,-1.0669 -0.3093,-2.1269 -0.2789,-3.2128 -0.044,-0.8811 -0.1159,-1.7622 -0.3348,-2.6202 -0.204701,-0.9995 -0.1615,-2.0087 -0.239801,-3.0226 -0.098,-1.0173 -0.2913,-2.0182 -0.4179,-3.0316 -0.012,-1.0787 -0.01,-2.1575 -0.01,-3.2362 0,-1.0308 0,-2.0617 -3e-4,-3.0925 -4e-4,-1.02995 -0.001,-2.05993 0,-3.0899 0,-1.03374 -0.01,-2.06753 0.01,-3.10123 0.019,-1.10049 0.053,-2.20273 0.1993,-3.295 0.174,-1.23104 0.433601,-2.44918 0.528301,-3.6908 0.1799,-1.20314 0.4677,-2.37882 0.7419,-3.56294 0.2558,-0.96495 0.4548,-1.96009 0.9181,-2.85227 0.3654,-0.6753 0.6906,-1.37182 1.0299,-2.0605 0.3677,-0.67906 0.6948,-1.37944 1.0394,-2.07042 0.3929,-0.7176 0.7489,-1.45485 1.1248,-2.18149 0.4354,-0.78327 0.7651,-1.62345 1.2741,-2.36456 0.4536,-0.67931 0.9418,-1.3278 1.4064,-1.99946 0.5072,-0.80535 1.0632,-1.57866 1.5867,-2.37319 0.4431,-0.63414 0.8757,-1.27455 1.3141,-1.91198 0.4092,-0.73198 0.7876,-1.47988 1.2213,-2.1985 0.4463,-0.68597 0.8627,-1.38949 1.2762,-2.09572 0.4431,-0.78711 0.954,-1.53424 1.3877,-2.3277 0.4535,-0.81361 0.9215,-1.61815 1.3453,-2.448 0.4719,-0.90899 0.9076,-1.83281 1.3502,-2.75573 0.4413,-0.82633 0.8883,-1.64931 1.3637,-2.4567 0.3693,-0.70065 0.7688,-1.38707 1.2183,-2.03957 0.4286,-0.6375 0.7127,-1.36166 1.1615,-1.98794 0.5564,-0.92331 1.2131,-1.78138 1.777,-2.70081 0.566,-0.85453 1.2017,-1.65851 1.7904,-2.49709 0.5263,-0.76864 1.0364,-1.54656 1.5555,-2.3199 0.4936,-0.72309 0.9592,-1.46838 1.4156,-2.2153 0.4242,-0.67603 0.8216,-1.36893 1.2847,-2.01937 0.547,-0.92362 1.0893,-1.84697 1.7498,-2.69624 0.6889,-0.97977 1.3681,-1.97389 2.1946,-2.84526 0.5687,-0.64575 1.1245,-1.30393 1.6756,-1.96357 0.5534,-0.65922 0.9853,-1.41069 1.5421,-2.06826 0.5968,-0.72909 1.0615,-1.5561 1.6562,-2.28774 0.6191,-0.78607 1.1837,-1.61455 1.8101,-2.39548 0.6045,-0.84971 1.2592,-1.66312 1.8481,-2.52392 0.5493,-0.74277 1.0503,-1.51809 1.5539,-2.2919 0.5112,-0.76877 0.9959,-1.55361 1.4955,-2.33008 0.4699,-0.79693 0.9806,-1.56685 1.571,-2.28082 0.437,-0.66389 0.8457,-1.34453 1.2731,-2.01468 0.454,-0.74243 0.9917,-1.43181 1.3812,-2.21488 0.5934,-0.9272 1.1308,-1.88449 1.6294,-2.86621 0.5182,-0.84034 1.0331,-1.68202 1.501,-2.55208 0.3822,-0.76393 0.7036,-1.55868 1.1573,-2.28586 0.4858,-0.92255 1.0278,-1.81496 1.4919,-2.74987 0.4086,-0.73412 0.8379,-1.45772 1.1944,-2.21933 0.4295,-0.76499 0.8334,-1.54461 1.2331,-2.32533 0.4196,-0.80057 0.9167,-1.55125 1.368,-2.33383 0.4614,-0.79416 0.9086,-1.59617 1.3559,-2.39806 0.4165,-0.74858 0.8523,-1.48683 1.2334,-2.25454 0.5044,-0.84633 1.003,-1.69359 1.5381,-2.52099 0.4863,-0.73813 0.9909,-1.46319 1.4754,-2.20249 0.496099,-0.74957 1.099599,-1.41755 1.601399,-2.16454 0.509,-0.62572 1.058,-1.22273 1.4695,-1.92095 0.5148,-0.79928 0.9818,-1.63393 1.6336,-2.3356 0.5458,-0.60153 0.9432,-1.31948 1.4069,-1.98245 0.6321,-0.81029 1.289,-1.6015 1.8874,-2.43745 0.4995,-0.68437 0.9885,-1.3821 1.5813,-1.99049 0.5464,-0.69 1.07,-1.39499 1.5985,-2.09848 0.5935,-0.72438 1.181,-1.45132 1.7375,-2.20506 0.5695,-0.75623 1.1454,-1.50736 1.6304,-2.32262 0.537395,-0.76241 1.105195,-1.50116 1.692995,-2.2255 0.5675,-0.81341 1.12,-1.63848 1.75,-2.406 0.6513,-0.89378 1.3611,-1.74115 2.0524,-2.6035 0.5416,-0.61942 1.0699,-1.25213 1.5837,-1.89357 0.4678,-0.58146 0.8213,-1.26023 1.3931,-1.75407 0.5034,-0.58482 1.0184,-1.15799 1.4658,-1.78885 0.4959,-0.67492 1.0655,-1.27965 1.645,-1.88226 0.5985,-0.728 1.1912,-1.46015 1.7889,-2.18833 0.5229,-0.59716 1.097,-1.13922 1.647,-1.71002 0.5444,-0.48395 1.0251,-1.03825 1.5464,-1.54639 0.5444,-0.48397 1.0251,-1.03829 1.5464,-1.54644 0.5445,-0.48407 1.0253,-1.03849 1.547,-1.54648 0.5446,-0.48342 1.0258,-1.03692 1.5483,-1.5436 0.5375,-0.47476 1.0141,-1.01868 1.5158,-1.52986 0.5247,-0.50025 0.9678,-1.0889 1.3623,-1.69489 0.4789,-0.7448 0.9154,-1.52103 1.306,-2.31562 0.4194,-0.79905 0.9156,-1.54846 1.3737,-2.3253 0.4372,-0.73193 0.8682,-1.46667 1.2972,-2.2029 0.3652,-0.65134 0.6803,-1.32671 0.9911,-2.00518 0.3877,-0.90774 0.783,-1.81202 1.1856,-2.71331 0.3459,-0.77653 0.7169,-1.53774 1.0956,-2.29849 0.365,-0.67327 0.6908,-1.36747 1.0245,-2.0566 0.3669,-0.69443 0.6864,-1.41453 0.9851,-2.14059 0.3744,-0.83633 0.6617,-1.71095 1.1002,-2.51895 0.3945,-0.69325 0.762,-1.40023 1.1937,-2.07211 0.4306,-0.61916 0.7674,-1.28507 1.1545,-1.93105 0.4033,-0.63873 0.8392,-1.2496 1.3053,-1.84441 0.6333,-0.79276 1.4076,-1.40102 2.3062,-1.87611 0.8876,-0.33068 1.7848,-0.54155 2.6958,-0.80847 0.8808,-0.0566 1.736,-0.19762 2.5657,-0.51525 0.8636,-0.0575 1.6957,-0.20214 2.4987,-0.54462 0.9095,-0.0909 1.764,-0.39632 2.6646,-0.48729 0.8856,-0.0576 1.7446,-0.2037 2.5805,-0.51711 0.9271,-0.0606 1.8289,-0.22139 2.7175,-0.50111 0.9996,-0.043 1.9983,-0.12504 2.9726,-0.36742 0.918,-0.20048 1.8535,-0.13534 2.7802,-0.29751 1.0118,-0.20591 1.987,-0.45655 3.0329,-0.34642 0.8801,-0.0129 1.7656,-0.0204 2.6358,-0.16779 0.9996,-0.20385 1.9627,-0.45694 2.9965,-0.35523 0.8686,-0.0227 1.7436,-0.0479 2.5928,-0.25153 1.1105,-0.26613 1.9987,-0.29754 3.1361,-0.25188 0.9106,-0.006 1.8243,-0.006 2.73,-0.11192 1.061,-0.16014 2.0836,-0.52484 3.1708,-0.45904 1.2441,-0.0752 2.4752,-0.22278 3.6998,-0.45935 1.1743,-0.004 2.3493,-0.007 3.5225,-0.0648 0.911,-0.0908 1.7664,-0.39837 2.6689,-0.48831 0.9798,-0.0683 1.9287,-0.25971 2.8652,-0.56185 1.1882,-0.11115 2.3492,-0.35633 3.5247,-0.52378 1.2554,-0.13925 2.4744,-0.44465 3.7189,-0.63762 1.3587,-0.19278 2.7033,-0.405 4.082,-0.30578 0,0 1.9726,4.76226 1.9726,4.76226 z"
       inkscape:connector-curvature="0" />
    <path
       style="fill:#808080;fill-opacity:1;stroke:none"
       d="m 205.80784,671.71243 c -16.25363,3.03331 -32.80353,3.67587 -49.16264,5.91149 -4.88861,1.08125 -10.23716,1.19185 -14.70743,3.54048 -6.49392,8.92201 -8.93377,20.51666 -16.50246,28.81773 -8.85833,9.14017 -17.14007,18.83142 -24.59634,29.17051 -8.503515,10.84072 -16.16251,22.21099 -22.44585,34.47385 -7.034363,13.56909 -16.742286,25.42222 -25.434617,37.90816 -7.990057,11.05305 -13.620602,23.55088 -21.396343,34.74675 -4.840087,7.42114 -6.253455,16.41152 -5.617999,25.12302 0.184544,12.19156 1.790534,24.31962 1.255102,36.53027 -0.09234,10.77583 -0.407924,21.57598 -1.748556,32.26604 0.193244,3.68513 4.932753,4.32552 6.963465,6.84678 10.117658,8.52746 16.939893,20.04567 25.262722,30.18653 7.286483,9.34 13.784739,19.763 23.97763,26.23636 1.899976,1.8275 3.802537,3.4647 6.649577,2.7774 18.806099,0.6322 37.641319,0.1757 56.433939,1.0935 12.23223,1.4751 24.53545,2.055 36.85485,1.892 2.83371,-0.1192 6.07615,0.2877 8.66692,-0.1441 -11.40865,-4.963 -23.79156,-8.7186 -33.0665,-17.37986 -7.72427,-5.4132 -14.89985,-11.9614 -24.03848,-14.9214 -4.91221,-2.268 -11.08332,-3.7849 -13.92334,-8.75469 -2.42466,-9.02208 0.1789,-18.53999 -1.20074,-27.67857 -4.74078,-12.68473 -5.24001,-26.31799 -5.93807,-39.682 -1.68322,-11.39915 -2.39049,-22.99981 -1.88213,-34.51751 2.58372,-6.75184 8.6034,-11.48549 13.45521,-16.61325 9.15641,-8.58992 20.32637,-14.60972 30.1353,-22.39241 9.30303,-6.81611 19.56281,-12.18207 28.39225,-19.66121 12.16734,-8.97378 22.5203,-20.06518 33.0819,-30.78818 3.05244,-3.50369 2.31141,-8.70041 3.12229,-13.00609 0.81409,-9.3435 1.33197,-18.88301 -1.24826,-28.0199 -2.57226,-11.03289 -4.39928,-22.20369 -5.86853,-33.42794 -1.93233,-9.75876 -4.77802,-19.44252 -4.58001,-29.48696 -0.055,-0.47695 -0.21409,-1.30122 -0.89286,-1.0468 z"
       id="path3186"
       inkscape:connector-curvature="0" />
  </g>
</svg>
