<?xml version="1.0" encoding="UTF-8" standalone="no"?>
<!-- Created with Inkscape (http://www.inkscape.org/) -->

<svg
   xmlns:dc="http://purl.org/dc/elements/1.1/"
   xmlns:cc="http://creativecommons.org/ns#"
   xmlns:rdf="http://www.w3.org/1999/02/22-rdf-syntax-ns#"
   xmlns:svg="http://www.w3.org/2000/svg"
   xmlns="http://www.w3.org/2000/svg"
   xmlns:sodipodi="http://sodipodi.sourceforge.net/DTD/sodipodi-0.dtd"
   xmlns:inkscape="http://www.inkscape.org/namespaces/inkscape"
   width="256"
   height="330"
   id="svg3017"
   version="1.1"
   inkscape:version="0.48.4 r9939"
   sodipodi:docname="ledge4Hanging5.svg">
  <defs
     id="defs3019" />
  <sodipodi:namedview
     id="base"
     pagecolor="#ffffff"
     bordercolor="#666666"
     borderopacity="1.0"
     inkscape:pageopacity="0.0"
     inkscape:pageshadow="2"
     inkscape:zoom="2.03"
     inkscape:cx="121.69147"
     inkscape:cy="184.23349"
     inkscape:document-units="px"
     inkscape:current-layer="layer1"
     showgrid="false"
     inkscape:window-width="898"
     inkscape:window-height="944"
     inkscape:window-x="629"
     inkscape:window-y="37"
     inkscape:window-maximized="0" />
  <metadata
     id="metadata3022">
    <rdf:RDF>
      <cc:Work
         rdf:about="">
        <dc:format>image/svg+xml</dc:format>
        <dc:type
           rdf:resource="http://purl.org/dc/dcmitype/StillImage" />
        <dc:title />
      </cc:Work>
    </rdf:RDF>
  </metadata>
  <g
     inkscape:label="Layer 1"
     inkscape:groupmode="layer"
     id="layer1"
     transform="translate(0,-722.36218)">
    <path
       style="fill:#000000;fill-opacity:1;stroke:none"
       id="path3146"
       d="m 86.483793,747.81065 c -0.8225,0.74695 -1.6791,1.4615 -2.461697,2.25099 -0.6656,0.67393 -1.4794,1.16835 -2.1952,1.78142 -0.6173,0.55762 -1.2806,1.04711 -1.9688,1.51433 -0.6243,0.50284 -1.2912,0.94747 -1.9463,1.40833 -0.7415,0.39524 -1.406,0.90963 -2.121,1.34557 -0.6756,0.4296 -1.3805,0.81564 -2.0982,1.17018 -0.6901,0.34571 -1.3732,0.7064 -2.0698,1.03917 -0.7114,0.37477 -1.4151,0.75728 -2.1417,1.1032 -0.8035,0.43241 -1.6715,0.72428 -2.521,1.05184 -0.7,0.27337 -1.367,0.62251 -2.0468,0.9411 -0.7602,0.30975 -1.482,0.69927 -2.2114,1.07325 -0.8351,0.4682 -1.721,0.83844 -2.5895,1.23953 -0.7936,0.41066 -1.5699,0.85506 -2.3696,1.25347 -0.7503,0.22765 -1.414,0.61703 -2.0983,0.98469 -0.6761,0.38463 -1.3584,0.76096 -2.0564,1.10474 -0.7109,0.38382 -1.4179,0.7671 -2.1477,1.11474 -0.6001,0.29222 -1.1674,0.66454 -1.6419,1.13634 -0.6043,0.51648 -1.2696,0.95553 -1.9014,1.43847 -0.5265,0.44338 -1.0017,0.93984 -1.5066,1.40652 -0.51,0.5152 -1.0098,1.04213 -1.5384,1.53899 -0.4815,0.50502 -0.9896,0.97851 -1.446,1.50786 -0.5275,0.67012 -0.9634,1.40845 -1.4719,2.09223 -0.4577,0.58373 -0.4838,1.28441 -0.5191,1.99367 -0.022,0.76955 0.054,1.81208 0.4793,2.46864 0.3947,0.74202 0.5278,1.83168 1.0074,2.49124 0.06,0.13555 0.107,0.27737 0.1793,0.40667 0.3653,0.6531 0.1314,-0.033 0.4347,0.79218 0.064,0.17525 0.084,0.36683 0.1643,0.53552 0.052,0.11057 0.1512,0.19248 0.2268,0.28872 0.064,0.1376 0.1277,0.2752 0.1915,0.4128 0.4118,0.51066 0.5852,1.16993 0.9231,1.72195 0.071,0.11564 0.1833,0.19991 0.2749,0.29986 0.079,0.14324 0.1589,0.28647 0.2383,0.4297 0.063,0.17113 0.1008,0.35381 0.189,0.51338 0.057,0.1023 0.173,0.16058 0.2378,0.25792 0.3199,0.48072 0.4872,1.04803 0.9129,1.44311 0.076,0.13457 0.1526,0.26913 0.2289,0.4037 0.06,0.16706 0.095,0.34614 0.1816,0.50116 0.5402,0.96455 -0.089,-0.68484 0.4284,0.63187 0.2619,0.66641 -0.018,0.32063 0.3648,0.70263 0.06,0.12608 0.091,0.26991 0.179,0.37823 0.057,0.0707 0.1757,0.068 0.2374,0.13494 0.3242,0.35159 0.1216,0.38934 0.3699,0.81735 0.049,0.0839 0.1468,0.1269 0.2202,0.19035 0.062,0.12564 0.1249,0.25128 0.1873,0.37691 0.3405,1.13283 -0.074,0.0452 0.3553,0.68071 0.077,0.11455 0.089,0.26793 0.1768,0.37498 0.057,0.0696 0.175,0.0647 0.2361,0.13068 0.1935,0.20922 0.2824,0.56809 0.3695,0.8193 0.4105,0.22991 0.3634,0.68807 0.5528,1.05119 0.045,0.0858 0.1565,0.11945 0.2106,0.19967 0.2309,0.48954 0.095,0.2642 0.4022,0.67967 0.067,0.15326 0.1081,0.32028 0.2002,0.45976 0.064,0.0966 0.1873,0.14107 0.2575,0.23315 0.3692,0.48469 0.5506,1.07416 0.9939,1.49476 0.08,0.13861 0.1608,0.27721 0.2412,0.41582 0.064,0.17006 0.1017,0.35204 0.191,0.51017 0.056,0.0996 0.1731,0.15315 0.237,0.24794 0.083,0.1236 0.1067,0.28373 0.1999,0.40004 0.062,0.0768 0.1657,0.10632 0.2485,0.15948 0.072,0.11944 0.1442,0.23888 0.2163,0.35832 0.083,0.10471 0.1669,0.20942 0.2503,0.31412 0.074,0.15624 0.1244,0.32679 0.2236,0.46871 0.068,0.0979 0.1952,0.14267 0.2689,0.23659 0.2892,0.36847 0.5371,0.8344 0.7388,1.25427 0.4987,0.39487 0.6863,1.03684 1.0293,1.54334 0.073,0.10719 0.1863,0.17985 0.2795,0.26977 0.081,0.13991 0.162,0.27982 0.243,0.41973 0.4926,0.82307 1.1196,1.53347 1.5407,2.40686 0.498,0.39746 0.687,1.03923 1.031,1.54656 0.073,0.10696 0.1862,0.17935 0.2792,0.26902 0.081,0.13967 0.1619,0.27934 0.2428,0.41901 0.09,0.12142 0.1805,0.24284 0.2707,0.36426 0.079,0.1647 0.1356,0.34276 0.2383,0.49409 0.5433,0.80136 0.03,-0.36784 0.5219,0.68803 0.3439,0.73754 0,0.30573 0.428,0.76089 0.066,0.13346 0.1062,0.28393 0.1993,0.40038 0.061,0.0767 0.1825,0.086 0.2481,0.15912 0.3514,0.39208 0.1102,0.36193 0.3856,0.83711 0.05,0.0859 0.1484,0.1321 0.2225,0.19815 0.063,0.12693 0.1259,0.25385 0.1889,0.38077 0.4585,0.15647 0.4156,0.61256 0.62,0.96638 0.049,0.0849 0.1643,0.11401 0.2211,0.19385 0.1789,0.25115 0.2482,0.58026 0.3338,0.86605 0.5263,0.65571 0.9611,1.39969 1.4449,2.10273 0.1123,0.14023 0.2247,0.28048 0.337,0.42072 0.1024,0.18076 0.1853,0.37412 0.3073,0.54229 0.5619,0.77447 0.1367,-0.13366 0.6274,0.80443 0.4304,0.82268 0,0.28546 0.4921,0.82848 0.2712,0.38554 0.4295,0.86339 0.6854,1.25215 0.067,0.102 0.1922,0.15472 0.2655,0.25236 0.4749,0.63234 -0.032,0.23041 0.5014,0.59166 0.079,0.12391 0.1348,0.26669 0.2378,0.37173 0.072,0.0733 0.1978,0.0747 0.2707,0.14702 0.3598,0.35706 0.1656,0.4101 0.4346,0.85359 0.054,0.0886 0.1543,0.13819 0.2315,0.20729 0.066,0.13082 0.132,0.26164 0.198,0.39246 0.4961,0.25027 0.6354,0.86636 0.9311,1.29328 0.068,0.0981 0.1788,0.158 0.2682,0.237 0.079,0.13638 0.1573,0.27276 0.236,0.40915 0.6094,0.77902 1.1583,1.56375 1.7548,2.3514 0.8721,0.76469 1.2681,1.90379 2.0269,2.74374 0.6016,0.94001 1.293,1.79809 1.7924,2.80263 0.5091,0.46449 0.7308,1.14308 1.1038,1.69819 0.075,0.1115 0.19,0.18994 0.285,0.28491 0.082,0.14134 0.1642,0.28269 0.2462,0.42403 0.073,0.25932 0.4563,0.94834 0.6299,1.16527 0.061,0.0766 0.1824,0.0857 0.2479,0.15865 0.1816,0.20223 0.2953,0.45748 0.4648,0.66998 0.5916,0.23664 0.8048,0.89853 1.1568,1.37262 0.081,0.10831 0.1995,0.18163 0.2993,0.27244 0.087,0.14301 0.175,0.28602 0.2625,0.42903 0.7884,0.56534 -0.2653,-0.24294 0.5428,0.59607 0.075,0.0778 0.2033,0.0875 0.279,0.16444 0.2996,0.30453 0.5399,0.73644 0.83,1.06192 0.727597,1.26454 -0.1297,-0.108 0.602197,0.78533 0.1096,0.13383 0.1643,0.30794 0.2785,0.43797 0.082,0.0938 0.2169,0.13047 0.3012,0.22257 0.6001,0.65575 -0.063,0.19579 0.5513,0.57093 1.3034,1.73319 -2.751497,-2.71099 -2.065197,-2.03156 0.967397,0.95785 1.907397,1.9431 2.846497,2.92877 2.5147,2.63954 -8.774797,-8.8524 0.8729,0.89072 0.292,0.42785 0.7185,0.74854 1.0345,1.15406 0.131,0.16801 0.2158,0.36939 0.3507,0.53427 1.0963,1.34039 -0.4069,-0.7909 0.6799,0.80306 0.2421,0.48381 0.684,0.74615 1.0551,1.09262 0.1337,0.12488 0.4811,0.55052 0.3504,0.42254 -0.7685,-0.75219 -3.0455,-3.03705 -2.2655,-2.29685 1.0041,0.95274 1.9585,1.95649 2.9377,2.93473 0.2937,0.43431 0.7242,0.76081 1.0425,1.17235 0.1294,0.1673 0.2124,0.36793 0.3458,0.53204 1.0857,1.33511 -0.4079,-0.79923 0.6703,0.79527 0.9286,0.72224 -0.3303,-0.30919 0.6039,0.65974 0.081,0.0842 0.2139,0.10563 0.2956,0.18941 0.1076,0.11033 0.3712,0.48934 0.2611,0.3815 -0.7947,-0.77849 -3.1089,-3.18383 -2.3206,-2.39877 0.9652,0.9612 1.9009,1.95152 2.8513,2.92728 -6.1599,-6.26071 0.3488,0.3397 0.5189,0.51384 0.7819,0.80044 -3.1539,-3.17571 -2.3598,-2.38739 9.578197,9.5086 -6.1247,-6.16557 3.3886,3.41039 -5.8268,-5.87487 -0.1059,-0.10537 0.5143,0.51341 0.792,0.79014 -3.1545,-3.17382 -2.3632,-2.38301 9.550897,9.54534 -6.1217,-6.16952 3.3931,3.41258 -4.5596,-4.58021 -2.1325,-1.9244 -0.7495,-1.0828 0.6155,0.5994 1.3108,1.11112 2.0489,1.54689 0.087,0.0834 0.1642,0.17723 0.2598,0.25019 0.1297,0.0991 0.2861,0.16056 0.412897,0.26341 0.155,0.12581 0.2166,0.34454 0.3729,0.4689 0.4855,0.26619 0.2814,0.11562 0.6293,0.42749 0.7357,0.41959 1.3774,1.00314 2.1488,1.34873 0.782,0.49659 1.5667,0.99577 2.4078,1.38887 0.8463,0.52921 1.6779,1.0814 2.5642,1.54277 0.9704,0.59996 2.0068,1.111 2.9506,1.75114 0.8322,0.4392 1.5442,1.07616 2.373,1.50957 0.847,0.40126 1.6403,0.85952 2.4204,1.37641 0.7524,0.49627 1.4493,1.09773 2.2449,1.53224 0.8002,0.58248 1.6177,1.13789 2.4176,1.72208 0.8326,0.54406 1.7286,1.02516 2.5227,1.62345 0.7274,0.56756 1.6119,0.9217 2.2943,1.54187 0.7504,0.49534 1.3506,1.18693 2.1033,1.69 1.6778,1.26355 3.0517,2.76136 4.5824,4.2559 -0.7894,-0.78185 -1.5814,-1.56104 -2.3681,-2.34555 -0.093,-0.0932 0.1938,0.17913 0.2882,0.27141 0.9917,0.97038 1.9411,1.98556 2.97,2.9165 0.8079,0.73105 -1.5395,-1.54242 -2.3066,-2.31618 -0.1948,-0.19652 0.3909,0.39226 0.5749,0.59891 0.6531,0.55315 1.4629,0.97149 2.0216,1.62345 0.5569,0.6357 1.3569,0.96517 1.9497,1.55178 0.4943,0.22042 0.7628,0.71775 1.1787,1.03647 1.20621,0.92432 -0.1912,-0.29777 0.71261,0.513 1.6261,1.01524 2.8441,2.61104 4.2592,3.88139 0.8276,0.74294 -1.5835,-1.56208 -2.3752,-2.34312 7.9828,7.96461 0.3652,0.33788 0.5397,0.51504 0.9562,0.97067 1.9143,1.93947 2.8847,2.89594 0.7961,0.7847 -3.1491,-3.17429 -2.3619,-2.38061 2.9824,3.00703 2.0441,1.82195 3.1437,3.24512 0.5976,1.23038 -0.1042,-0.0581 0.512,0.73642 0.099,0.12722 0.1373,0.29553 0.2415,0.41825 0.072,0.085 0.2004,0.10767 0.2752,0.19038 0.1987,0.21964 0.3294,0.49295 0.5118,0.72633 0.079,0.16192 0.1349,0.33782 0.238,0.48576 0.071,0.10247 0.2001,0.15405 0.2766,0.25274 0.4438,0.57225 0.062,0.26795 0.4333,0.92969 0.056,0.099 0.157,0.16407 0.2356,0.2461 0.066,0.13393 0.1326,0.26785 0.1989,0.40178 0.1907,0.31514 0.1351,0.69852 0.2581,1.0306 0.036,0.0971 0.1366,0.15793 0.1852,0.24935 0.2208,0.41542 0.2762,0.90507 0.35,1.36074 0.448,0.94282 0.5246,2.00891 0.5968,3.03599 0.01,0.18445 -0.01,0.37177 0.024,0.55335 0.044,0.24181 0.1907,0.45527 0.2508,0.6937 0.1184,0.4704 0.1628,0.9509 0.209,1.43216 0.077,1.0364 0.076,2.07641 0.078,3.11501 0.053,0.51131 -0.067,1.04471 0,1.5543 0.056,0.4404 0.2293,0.90383 0.3048,1.34805 0.1611,1.07797 0.1873,2.16908 0.2049,3.25692 -0.071,1.00933 0.2542,1.95643 0.3819,2.95193 0.017,0.1829 0.014,0.3687 0.051,0.5486 0.063,0.3064 0.2026,0.5931 0.2714,0.8982 0.1232,0.5467 0.1858,1.0983 0.2432,1.6547 0.342,0.4979 0.3169,1.112 0.4724,1.6658 0.079,0.2807 0.2172,0.5419 0.3004,0.8213 0.1459,0.3411 0.092,0.7262 0.1984,1.0745 0.034,0.1126 0.127,0.1992 0.1762,0.3062 0.2003,0.4354 0.2709,0.9065 0.3491,1.3742 0.019,0.1746 0.012,0.3546 0.058,0.524 0.062,0.2248 0.2274,0.4117 0.2916,0.6359 0.1356,0.473 0.18,0.9628 0.2294,1.45 0.3852,0.4352 0.2884,1.0461 0.4626,1.5512 0.073,0.2103 0.2337,0.3812 0.3159,0.5879 0.1529,0.2926 0.085,0.6398 0.1923,0.9415 0.032,0.091 0.1306,0.1443 0.1766,0.229 0.2015,0.3705 0.2336,0.7708 0.442,1.1424 0.1859,0.3009 0.1574,0.6706 0.2889,0.9874 0.045,0.1084 0.1502,0.1819 0.2072,0.2845 0.2411,0.434 0.3207,0.9299 0.412,1.4097 0.3309,0.286 0.2837,0.7432 0.4538,1.0988 0.041,0.085 0.148,0.1212 0.1997,0.2 0.1598,0.2438 0.2177,0.5414 0.2948,0.8147 0.031,0.1688 0.033,0.3456 0.093,0.5065 0.034,0.091 0.1211,0.1532 0.1816,0.2298 0.05,0.1233 0.1087,0.2433 0.149,0.37 0.1364,0.4279 0.099,0.8316 0.3746,1.1938 0.1854,0.2394 0.1333,0.5624 0.2573,0.8211 0.04,0.083 0.1469,0.116 0.1977,0.1927 0.2508,0.3789 0.3056,0.8819 0.3848,1.3151 0.4437,0.4128 0.3469,1.0447 0.5293,1.5613 0.032,0.092 0.1307,0.1469 0.1768,0.2327 0.062,0.1159 0.097,0.2446 0.1451,0.3669 0.038,0.1515 0.045,0.3138 0.1125,0.4545 0.04,0.083 0.1318,0.1287 0.1978,0.193 0.055,0.118 0.1199,0.2317 0.1641,0.354 0.1537,0.4255 0.1182,0.8316 0.4025,1.1908 0.2677,0.3945 0.1976,0.9069 0.3476,1.3318 0.032,0.092 0.1307,0.1469 0.1768,0.2327 0.1405,0.2618 0.187,0.5362 0.2576,0.8214 0.4249,0.8627 0.6026,1.807 1.0654,2.6587 0.3094,1.0711 0.8216,2.0551 1.227,3.0875 0.3542,1.0623 0.7622,2.1029 1.1162,3.1664 0.1779,1.0431 0.6172,1.8621 0.7937,2.9113 0.4252,0.4278 0.3352,1.0541 0.5186,1.5716 0.032,0.091 0.1303,0.1453 0.1764,0.2304 0.062,0.1145 0.096,0.2419 0.1446,0.3629 0.2102,0.457 0.1184,0.9957 0.249,1.4648 0.027,0.096 0.117,0.1636 0.1592,0.2542 0.1282,0.275 0.1653,0.5192 0.2326,0.8151 0.1021,0.994 0.4353,1.9139 0.5763,2.9068 0.4816,0.945 0.372,2.0477 0.7136,3.023 0.2868,0.6878 0.2026,1.4655 0.3727,2.1722 0.06,0.2499 0.2066,0.4715 0.2884,0.7152 0.1813,0.4677 0.1256,0.9887 0.2341,1.4674 0.1031,0.4547 0.2827,0.8903 0.3743,1.3573 0.026,0.1827 0.026,0.371 0.078,0.5482 0.072,0.2473 0.2432,0.458 0.3176,0.7046 0.1469,0.487 0.2007,0.9891 0.2566,1.4922 0.013,0.176 0,0.3561 0.038,0.5281 0.052,0.2272 0.2082,0.4205 0.2686,0.6457 0.126,0.4692 0.1688,0.9523 0.2158,1.4338 0.5558,0.6505 0.2498,1.6302 0.6708,2.3065 0.3473,0.9045 0.3747,1.8908 0.4145,2.848 0.03,1.0421 0.024,2.0849 0.022,3.1273 0,1.0332 0,2.0663 -0.01,3.0994 -7e-4,1.1345 -6e-4,2.26888 -7e-4,3.40328 0,1.09694 0,2.19394 1e-4,3.29084 0.082,1.1122 -0.2431,2.1826 -0.3903,3.2764 0,0.979 -0.3843,1.8789 -0.5371,2.8347 -0.1052,0.8917 -0.1034,1.7916 -0.109,2.6881 0,1.0196 0,2.0392 0,3.0588 0,1.0322 0,2.0644 0,3.0966 1e-4,1.0312 1e-4,2.0623 1e-4,3.0935 0,1.0309 -1e-4,2.0619 -1e-4,3.0928 0.053,0.5085 -0.066,1.0396 0,1.5464 0.058,0.4395 0.2312,0.9014 0.3073,1.3449 0.1624,1.0777 0.1887,2.1687 0.2065,3.2565 0.011,1.0437 0.01,2.0875 0,3.1313 0,1.0309 0,2.0618 0,3.0926 -3e-4,1.0308 -2e-4,2.0615 -2e-4,3.0922 0,1.0309 0,2.0619 0,3.0928 0.1098,1.0247 -0.2545,1.9863 -0.4052,2.9854 0.01,0.5293 -0.4865,1.9463 0.5315,1.3894 -0.8451,-0.8302 -1.6737,-1.6776 -2.5353,-2.4906 -0.094,-0.089 -0.054,0.1699 0.3325,0.3212 0.3814,0.1492 0.8174,0.1549 1.2189,0.1843 1.0163,0.041 2.0339,0.024 3.0508,0.018 1.036,-0.01 2.072,-0.01 3.108,-0.011 1.0315,0 2.063,0 3.0944,0 1.0415,0 2.0752,-0.054 3.1012,0.1472 0.8602,0.2155 1.7421,0.2903 2.6248,0.3356 0.8308,-0.025 1.6831,0.1193 2.5099,0.022 0.4894,-0.3143 0.8876,-0.88 1.1231,-1.411 0.3599,-0.7949 0.7662,-1.587 1.0298,-2.4224 0.2079,-0.8305 0.5876,-1.6127 0.9496,-2.3871 0.2928,-0.7325 0.6839,-1.4228 1.0433,-2.1267 0.3033,-0.7049 0.6827,-1.375 1.0328,-2.0606 0.3418,-0.7686 0.7789,-1.5113 1.205,-2.242 0.4681,-0.8861 0.8756,-1.7937 1.3035,-2.6988 0.1981,-0.7681 0.5926,-1.4513 0.7303,-2.2374 0.3265,-0.8236 0.6895,-1.6391 0.9197,-2.4965 0.088,-0.891 0.4708,-1.6984 0.6159,-2.5792 0.1652,-0.8313 0.4673,-1.6092 0.5557,-2.4637 0.3823,-0.9623 0.376,-2.01 0.6847,-2.9842 0.2996,-0.8027 0.3547,-1.6513 0.3894,-2.4981 0.2765,-0.9999 0.4219,-2.0208 0.4899,-3.0535 0.049,-0.9954 0.045,-1.9925 0.044,-2.9889 0,-1.0289 0,-2.0577 0,-3.0866 -9e-4,-1.0314 -0.001,-2.0627 -0.001,-3.0941 -1e-4,-1.031 0,-2.0619 0,-3.09294 0,-1.031 0,-2.06188 0,-3.09278 0,-1.0309 0,-2.0619 0,-3.0928 0,-1.0309 0,-2.0618 0,-3.0928 0,-1.0309 0,-2.0618 0,-3.0927 0,-1.031 0,-2.0619 0,-3.0928 0,-1.031 0,-2.0619 0,-3.0928 0,-1.0309 0,-2.0619 0,-3.0928 0,-1.0309 0,-2.0619 0,-3.0928 -0.067,-0.6784 0.088,-1.3861 0,-2.0618 -0.037,-0.2848 -0.1566,-0.5529 -0.2194,-0.8331 -0.07,-1.0433 -0.388,-2.0151 -0.5874,-3.0324 -0.027,-0.1855 -0.029,-0.3766 -0.081,-0.5567 -0.073,-0.2515 -0.2444,-0.4668 -0.3206,-0.7173 -0.1481,-0.4872 -0.2031,-0.9891 -0.2597,-1.4927 -0.013,-0.1759 0,-0.3559 -0.038,-0.5279 -0.052,-0.2269 -0.2085,-0.4198 -0.269,-0.6447 -0.1125,-0.4185 -0.074,-0.8037 -0.3379,-1.1558 -0.492,-0.7783 -0.1526,-1.8259 -0.5713,-2.5952 -0.21,-0.4015 -0.1713,-0.8727 -0.2878,-1.295 -0.124,-0.4494 -0.3066,-0.8622 -0.4062,-1.3295 -0.1071,-1.0653 -0.4554,-2.0608 -0.6073,-3.122 -0.3334,-0.6366 -0.3336,-1.368 -0.5058,-2.046 -0.081,-0.3195 -0.2201,-0.6221 -0.3098,-0.9394 -0.2509,-1.0286 -0.6432,-2.0163 -0.9746,-3.0226 -0.299,-0.7331 -0.2007,-1.5537 -0.3635,-2.3073 -0.061,-0.281 -0.1971,-0.5417 -0.2616,-0.8218 -0.3944,-0.6361 -0.4297,-1.3916 -0.624,-2.0908 -0.093,-0.3347 -0.2377,-0.6535 -0.3358,-0.9868 -0.1447,-1.092 -0.462,-2.1312 -0.6709,-3.2084 -0.027,-0.1873 -0.035,-0.3782 -0.08,-0.5619 -0.036,-0.1467 -0.1076,-0.2822 -0.1613,-0.4233 -0.047,-0.1688 -0.1,-0.336 -0.141,-0.5062 -0.1348,-0.5553 -0.2022,-1.1162 -0.2637,-1.6831 -0.3435,-0.5019 -0.3187,-1.12 -0.4746,-1.678 -0.078,-0.281 -0.2167,-0.5427 -0.2998,-0.8224 -0.1456,-0.3413 -0.091,-0.7263 -0.1977,-1.0747 -0.034,-0.1126 -0.1269,-0.1992 -0.1761,-0.3061 -0.2001,-0.4353 -0.2706,-0.9063 -0.3488,-1.3739 -0.4059,-0.4332 -0.3669,-1.0348 -0.52,-1.5648 -0.081,-0.2806 -0.22,-0.542 -0.3037,-0.8218 -0.2224,-0.6456 -0.3467,-1.3586 -0.5945,-1.9968 -0.1007,-0.2591 -0.2771,-0.4836 -0.3855,-0.7396 -0.2553,-1.0023 -0.6042,-1.9493 -0.7664,-2.9775 -0.282,-0.3431 -0.2948,-0.7899 -0.4408,-1.1853 -0.17,-0.4604 -0.357,-0.8553 -0.477,-1.3436 -0.4147,-0.615 -0.3921,-1.3802 -0.6061,-2.0566 -0.082,-0.2603 -0.244,-0.4895 -0.3393,-0.7453 -0.2636,-0.95563 -0.7785,-1.79664 -1.0552,-2.7547 -0.513,-0.96093 -0.7802,-2.02699 -1.2429,-3.0064 -0.2668,-1.08033 -0.7679,-2.06415 -1.1654,-3.09471 -0.3238,-0.92334 -0.7841,-1.79211 -1.1181,-2.72237 -0.5551,-0.96643 -0.9808,-1.97197 -1.2234,-3.06297 -0.4349,-0.51435 -0.3846,-1.2067 -0.5893,-1.79956 -0.078,-0.22488 -0.2396,-0.4132 -0.3265,-0.63467 -0.2117,-0.46035 -0.1196,-1.00246 -0.2503,-1.47512 -0.027,-0.0965 -0.1165,-0.16428 -0.1586,-0.25509 -0.1281,-0.27569 -0.1643,-0.51701 -0.2316,-0.81369 -0.025,-0.16347 -0.02,-0.33402 -0.074,-0.4904 -0.031,-0.0907 -0.1153,-0.15326 -0.1729,-0.22988 -0.047,-0.11972 -0.1037,-0.23629 -0.1422,-0.35915 -0.1396,-0.44522 -0.1562,-0.86594 -0.3544,-1.2919 -0.3207,-0.85443 -0.4538,-2.03136 -0.9439,-2.78746 -0.2921,-0.42442 -0.2499,-0.97145 -0.4173,-1.43163 -0.036,-0.1003 -0.1353,-0.16685 -0.185,-0.26127 -0.1501,-0.28489 -0.1909,-0.5294 -0.2705,-0.84129 0.031,-0.48346 -0.2739,-0.68263 -0.4069,-1.10521 -0.047,-0.14856 -0.045,-0.31312 -0.1126,-0.45345 -0.04,-0.0827 -0.1318,-0.12768 -0.1977,-0.19151 -0.055,-0.11765 -0.1094,-0.2353 -0.1641,-0.35296 -0.1692,-0.29523 -0.1056,-0.65246 -0.2204,-0.96007 -0.034,-0.0912 -0.1346,-0.14359 -0.1817,-0.22883 -0.222,-0.40168 -0.2743,-0.88793 -0.3474,-1.33118 -0.4321,-0.41531 -0.3351,-1.04085 -0.5156,-1.55317 -0.032,-0.0915 -0.1303,-0.14619 -0.1763,-0.23163 -0.062,-0.11524 -0.097,-0.2433 -0.1447,-0.36495 -0.1541,-0.2958 -0.086,-0.64612 -0.1937,-0.95119 -0.032,-0.0914 -0.1304,-0.14578 -0.1764,-0.23107 -0.2153,-0.39926 -0.267,-0.8766 -0.3388,-1.31534 -0.284,-0.39753 -0.2513,-0.91527 -0.4165,-1.3501 -0.042,-0.10979 -0.1432,-0.18763 -0.1979,-0.29153 -0.1636,-0.31037 -0.2055,-0.53943 -0.2994,-0.87929 -0.032,-0.17279 -0.037,-0.3531 -0.096,-0.51838 -0.036,-0.0984 -0.1222,-0.1699 -0.1833,-0.25485 -0.05,-0.12558 -0.1099,-0.24788 -0.1512,-0.37674 -0.1545,-0.48153 -0.2036,-0.98447 -0.2583,-1.48404 -0.2946,-0.28922 -0.2356,-0.73365 -0.3922,-1.07466 -0.038,-0.0827 -0.1432,-0.11695 -0.1929,-0.19315 -0.1542,-0.23641 -0.2109,-0.53135 -0.2846,-0.79572 -0.064,-0.10965 -0.1271,-0.21929 -0.1906,-0.32894 -0.055,-0.15471 -0.084,-0.32139 -0.1658,-0.46412 -0.056,-0.0986 -0.173,-0.15053 -0.2377,-0.24377 -0.2627,-0.37851 -0.2706,-0.78125 -0.5955,-1.11544 -0.2446,-0.36089 -0.3935,-0.80691 -0.6327,-1.16556 -0.066,-0.0984 -0.19,-0.14572 -0.2619,-0.23975 -0.4792,-0.62679 0.038,-0.22475 -0.4994,-0.58163 -0.08,-0.12339 -0.159,-0.24677 -0.2385,-0.37016 -0.063,-0.1629 -0.1,-0.33893 -0.1895,-0.48871 -0.055,-0.0907 -0.1719,-0.12902 -0.2333,-0.21515 -0.085,-0.1189 -0.1052,-0.27809 -0.1983,-0.39049 -0.061,-0.0732 -0.1638,-0.0968 -0.2457,-0.1452 -0.072,-0.11944 -0.1439,-0.23889 -0.2158,-0.35833 -0.085,-0.0413 -0.1881,-0.0573 -0.2554,-0.12383 -0.1005,-0.0993 -0.1535,-0.23737 -0.2302,-0.35605 0.7737,0.81572 3.1282,3.22996 2.3212,2.44715 -0.9741,-0.9449 -1.9123,-1.92752 -2.8229,-2.93375 -0.7525,-0.83161 3.151,3.19317 2.3485,2.40958 -0.9726,-0.94972 -1.906,-1.93874 -2.859,-2.90812 3.8821,3.93342 2.4599,2.48854 -0.5146,-0.50743 -0.7883,-0.794 3.1571,3.1721 2.3633,2.38362 -9.5791,-9.51477 6.1253,6.16482 -3.3953,-3.41077 5.7603,5.63743 -0.52,-0.12681 -1.7761,-2.11328 -0.346,-0.37315 -0.7911,-0.65861 -1.1244,-1.0437 -0.1374,-0.15877 -0.2278,-0.35483 -0.3674,-0.51164 -1.0171,-1.14219 0.2973,0.61402 -0.6964,-0.77088 0.014,0.25563 -0.8293,-0.86052 -0.6159,-0.65135 0.7859,0.77045 3.0649,3.16018 2.294,2.37464 -0.9579,-0.97617 -1.9135,-1.95475 -2.8552,-2.94654 -0.1032,-0.10865 -0.3835,-0.45948 -0.2779,-0.35321 0.7747,0.77979 1.5248,1.58371 2.2873,2.37556 -8.0421,-8.10361 -0.3741,-0.4084 -0.5739,-0.59996 -1.4594,-1.39993 -2.6022,-2.63582 -3.9075,-4.03454 -0.8885,-1.38317 0.1708,0.16982 -0.6935,-0.85729 -0.1192,-0.14171 -0.1874,-0.32238 -0.3105,-0.46074 -0.091,-0.10169 -0.2305,-0.15017 -0.3224,-0.25058 -0.218,-0.2381 -0.3739,-0.52661 -0.5737,-0.78019 -0.6384,-1.25251 0.1073,0.0711 -0.5401,-0.76819 -0.1,-0.1294 -0.142,-0.29851 -0.2479,-0.42303 -0.074,-0.0866 -0.2024,-0.11214 -0.2787,-0.19641 -0.1986,-0.21949 -0.3307,-0.49165 -0.5135,-0.72452 -0.152,-0.50719 -0.5407,-0.86436 -0.8175,-1.29266 -0.1084,-0.16773 -0.1694,-0.36413 -0.2849,-0.52701 -0.088,-0.12354 -0.2124,-0.21595 -0.3187,-0.32392 -0.093,-0.15041 -0.1856,-0.30081 -0.2784,-0.45121 -0.9172,-0.71642 0.3706,0.3406 -0.5688,-0.63388 -0.078,-0.0811 -0.2088,-0.0969 -0.2881,-0.17707 -0.33,-0.33407 -0.3446,-0.76736 -0.6909,-1.08569 -0.067,-0.13196 -0.1065,-0.28162 -0.2004,-0.39589 -0.06,-0.0734 -0.1809,-0.0754 -0.2447,-0.14578 -0.3382,-0.3728 -0.1267,-0.39522 -0.3851,-0.8468 -0.022,-0.0387 -0.4733,-0.40556 -0.4851,-0.41531 -0.082,-0.14051 -0.1401,-0.29742 -0.245,-0.42153 -0.076,-0.0895 -0.2069,-0.11857 -0.2853,-0.20572 -0.4078,-0.45313 -0.1362,-0.3615 -0.4615,-0.90318 -0.059,-0.0975 -0.162,-0.15962 -0.2431,-0.23943 -0.069,-0.13477 -0.138,-0.26954 -0.207,-0.40431 -0.6692,-0.43047 0.2267,0.19796 -0.471,-0.52646 -0.067,-0.0695 -0.1898,-0.0632 -0.2581,-0.13144 -0.2655,-0.26533 -0.5264,-0.7221 -0.7954,-1.02066 -0.7153,-1.2481 0.1277,0.10421 -0.5964,-0.77631 -0.1095,-0.13313 -0.1638,-0.30679 -0.2777,-0.43616 -0.082,-0.0935 -0.2169,-0.12965 -0.3012,-0.22145 -0.6023,-0.65622 0.064,-0.19469 -0.5519,-0.57052 -0.5337,-0.75784 -1.0137,-1.49882 -1.5628,-2.24214 -0.5686,-1.18767 0.088,0.0345 -0.5157,-0.76452 -0.098,-0.12918 -0.138,-0.29702 -0.2422,-0.42089 -0.073,-0.0868 -0.2015,-0.11281 -0.2776,-0.197 -0.5519,-0.61091 0.063,-0.20623 -0.5176,-0.53521 -2.18171,-2.91657 8.344,9.08931 -0.76131,-0.8709 -0.7554,-0.82626 3.14701,3.18528 2.34711,2.4021 -2.60011,-2.54567 -2.0623,-1.88636 -3.13051,-3.24818 -2.5986,-2.69944 8.76961,8.92565 -0.9974,-0.96029 -0.7605,-0.76978 3.09101,3.02956 2.30311,2.28781 -0.4693,-0.44184 -6.53131,-6.43355 -0.62301,-0.59816 -8.0938,-8.00713 -0.3915,-0.36628 -0.5814,-0.55549 -0.9683,-0.96519 -1.9521,-1.91498 -2.91,-2.89062 -0.1055,-0.10747 -0.3847,-0.46229 -0.2777,-0.35638 0.7815,0.77297 3.1109,3.1055 2.3033,2.35986 -1.0109,-0.93333 -1.9425,-1.94901 -2.9138,-2.92351 5.73081,5.57946 -0.669,-0.27831 -1.9251,-2.23472 -0.9348,-1.28697 0.2075,0.20287 -0.7302,-0.79891 -0.1291,-0.13794 -0.209,-0.31748 -0.3406,-0.45307 -0.1007,-0.10373 -0.2478,-0.15422 -0.349,-0.25746 -0.2345,-0.23932 -0.4058,-0.53337 -0.6176,-0.79296 -0.3296,-0.44025 -0.7795,-0.78168 -1.1225,-1.20846 -0.1383,-0.17201 -0.2318,-0.3774 -0.3733,-0.54674 -1.1022,-1.31892 0.3649,0.712 -0.7097,-0.8269 -0.7709,-0.4508 -0.8312,-1.548 -1.5603,-2.01975 -0.6894,-1.1547 0.1923,0.17355 -0.4737,-0.49371 -0.1,-0.10023 -0.3295,-0.4577 -0.2294,-0.35754 5.1127,5.11469 0.7791,1.13016 -0.7621,-0.81877 -0.5934,-1.21564 0.1055,0.0598 -0.5091,-0.72458 -0.099,-0.12604 -0.1373,-0.29366 -0.2414,-0.41529 -0.072,-0.0845 -0.2005,-0.10604 -0.2753,-0.18824 -0.5658,-0.62126 0.072,-0.20238 -0.5171,-0.53733 -0.3265,-0.34516 -0.4865,-0.81444 -0.7519,-1.19171 -0.071,-0.10085 -0.1997,-0.14956 -0.2756,-0.24671 -0.5184,-0.66315 0.043,-0.2203 -0.5183,-0.60521 -0.7687,-1.20166 0.2123,0.20114 -0.5171,-0.53629 -0.1038,-0.10495 -0.3499,-0.47273 -0.245,-0.3689 0.7949,0.7866 3.1174,3.20733 2.3205,2.42284 -2.8699,-2.82505 -2.3555,-1.69518 -3.0317,-3.43094 -0.7548,-0.68159 0.4053,0.41696 -0.4289,-0.60481 -0.06,-0.0731 -0.1802,-0.0744 -0.2435,-0.14439 -0.094,-0.10441 -0.1177,-0.26169 -0.2151,-0.36319 -0.782,-0.81443 0.3983,0.89442 -0.484,-0.48479 6.1096,6.38745 -0.3468,-0.3142 -0.5008,-0.48969 -0.117,-0.13327 -0.099,-0.34457 -0.1903,-0.49671 -0.053,-0.0879 -0.1699,-0.12096 -0.2293,-0.20437 -0.257,-0.51437 -0.1113,-0.27514 -0.4317,-0.72091 -0.4974,-1.13069 0.083,0.0177 -0.4692,-0.71477 -0.094,-0.12425 -0.1277,-0.28842 -0.228,-0.40738 -0.07,-0.083 -0.1965,-0.10249 -0.2696,-0.18275 -0.1952,-0.21422 -0.3233,-0.48186 -0.5035,-0.70886 -0.5344,-0.50827 -0.7824,-1.2295 -1.1777,-1.83167 -0.083,-0.12597 -0.2036,-0.22218 -0.3054,-0.33327 -0.088,-0.15152 -0.1759,-0.30303 -0.2639,-0.45455 -0.5305,-0.34207 -0.7222,-0.97585 -1.0657,-1.4652 -0.073,-0.10351 -0.1862,-0.17115 -0.2793,-0.25671 -0.081,-0.13852 -0.1624,-0.27704 -0.2436,-0.41556 -0.064,-0.17074 -0.102,-0.35345 -0.1915,-0.51222 -0.056,-0.0987 -0.1724,-0.15111 -0.2357,-0.24517 -0.4413,-0.65612 0.037,-0.14138 -0.3508,-0.8948 -0.046,-0.0901 -0.1424,-0.14416 -0.2136,-0.21624 -0.06,-0.12675 -0.1191,-0.25351 -0.1787,-0.38026 -0.6918,-0.69236 -0.9687,-1.68307 -1.6199,-2.39243 -0.087,-0.14971 -0.1509,-0.3148 -0.2598,-0.44912 -0.078,-0.0963 -0.2099,-0.13757 -0.2917,-0.23074 -0.4079,-0.46482 -0.5979,-1.06412 -1.0519,-1.47966 -0.5127,-0.73636 -1.1695,-1.36659 -1.6308,-2.1684 -1.0122,-0.92466 0.4495,0.4608 -0.5945,-0.72574 -0.082,-0.0938 -0.2172,-0.13036 -0.3017,-0.22238 -0.1072,-0.11676 -0.1547,-0.28104 -0.265,-0.39484 -0.817,-0.84252 0.3187,0.71634 -0.5419,-0.54954 -0.091,-0.1149 -0.1827,-0.2298 -0.2741,-0.34469 -0.081,-0.16253 -0.1379,-0.33922 -0.2425,-0.48758 -0.072,-0.10166 -0.2007,-0.15169 -0.2772,-0.24974 -0.099,-0.12688 -0.1386,-0.29482 -0.2432,-0.41712 -0.887,-1.03705 0.4419,0.93367 -0.5198,-0.57137 -0.542,-0.25217 -0.7043,-0.89122 -1.0232,-1.34454 -0.071,-0.10067 -0.1836,-0.16404 -0.2753,-0.24605 -0.081,-0.13854 -0.1614,-0.27708 -0.2421,-0.41561 -0.735997,-0.50419 0.239,0.21645 -0.519497,-0.57005 -0.073,-0.0753 -0.1995,-0.0804 -0.2731,-0.15479 -0.1038,-0.10493 -0.3498,-0.47267 -0.2449,-0.36886 0.7949,0.7866 3.117497,3.20734 2.320597,2.42285 -0.9692,-0.95392 -1.891497,-1.95423 -2.837197,-2.93135 -0.5068,-1.30096 0.097,0.0292 -0.4255,-0.70805 -0.085,-0.12046 -0.1046,-0.28191 -0.198,-0.3963 -0.06,-0.0731 -0.1802,-0.0744 -0.2435,-0.14439 -0.5132,-0.56811 0.079,-0.21781 -0.4694,-0.48891 -0.311,-0.33855 -0.463,-0.79709 -0.7196,-1.16286 -0.07,-0.0991 -0.1976,-0.14497 -0.2723,-0.2402 -0.5173,-0.65963 0.046,-0.21875 -0.5152,-0.60023 -0.081,-0.12684 -0.139,-0.27219 -0.2436,-0.38052 -0.073,-0.0753 -0.1996,-0.0803 -0.2733,-0.15464 -0.3663,-0.36988 -0.1639,-0.40803 -0.4393,-0.86507 -0.054,-0.0896 -0.1547,-0.14087 -0.2321,-0.2113 -0.066,-0.13162 -0.1323,-0.26324 -0.1985,-0.39486 -0.6235,-0.37016 0.1878,0.16405 -0.4596,-0.50683 -0.066,-0.068 -0.1876,-0.0584 -0.2545,-0.12517 -0.1004,-0.10021 -0.3302,-0.45845 -0.2298,-0.35821 0.7954,0.79429 3.1258,3.23143 2.3211,2.44644 -0.9715,-0.94778 -1.8814,-1.95676 -2.8221,-2.93513 -0.088,-0.11125 -0.1759,-0.22249 -0.2638,-0.33373 -0.079,-0.16115 -0.1333,-0.33668 -0.2365,-0.48345 -0.07,-0.0999 -0.1988,-0.14686 -0.2741,-0.243 -0.2938,-0.37502 -0.5443,-0.84937 -0.7489,-1.27653 -0.3964,-0.25513 -0.5889,-0.66678 -0.8812,-1.00586 -0.087,-0.10137 -0.226,-0.14875 -0.3155,-0.24821 -0.6312,-0.70123 0.064,-0.18515 -0.5798,-0.61241 -0.3455,-0.35679 -0.5191,-0.84026 -0.7974,-1.23413 -0.1549,-0.21922 -0.4264,-0.33322 -0.597,-0.54045 -0.1141,-0.13856 -0.1936,-0.30225 -0.2904,-0.45338 -0.8752,-0.68361 0.2954,0.28296 -0.5953,-0.66076 -0.082,-0.0872 -0.2162,-0.1129 -0.2993,-0.19927 -0.3259,-0.33871 -0.588,-0.82405 -0.7963,-1.23776 -0.5093,-0.38685 -0.6938,-1.03526 -1.0365,-1.54358 -0.072,-0.10707 -0.1857,-0.17954 -0.2785,-0.26931 -0.081,-0.14039 -0.1616,-0.28078 -0.2423,-0.42117 -0.525897,-0.30509 -0.699497,-0.93137 -1.027997,-1.3996 -0.072,-0.10199 -0.1845,-0.16744 -0.2768,-0.25115 -0.081,-0.13818 -0.1615,-0.27636 -0.2423,-0.41454 -0.5291,-0.29697 -0.7003,-0.92632 -1.0272,-1.39291 -0.071,-0.10201 -0.1844,-0.16742 -0.2767,-0.25113 -0.081,-0.13843 -0.1615,-0.27686 -0.2423,-0.4153 -0.4485,-1.20404 0.071,-0.0177 -0.4266,-0.7582 -0.083,-0.12399 -0.1059,-0.28466 -0.1989,-0.40152 -0.061,-0.0767 -0.1822,-0.086 -0.2475,-0.15918 -0.2055,-0.23041 -0.2871,-0.5621 -0.3854,-0.8401 -0.7631,-0.68294 0.442,0.44522 -0.4112,-0.58047 -0.059,-0.0707 -0.1783,-0.0675 -0.2408,-0.13505 -0.3007,-0.32463 -0.2626,-0.73 -0.6004,-1.02643 -0.063,-0.12703 -0.098,-0.27218 -0.1884,-0.38111 -0.059,-0.0706 -0.1782,-0.067 -0.2406,-0.13436 -0.326,-0.35219 -0.1328,-0.40609 -0.3797,-0.83397 -0.049,-0.0851 -0.1476,-0.12985 -0.2214,-0.19477 -0.063,-0.12722 -0.1257,-0.25445 -0.1886,-0.38167 -0.3417,-1.13907 0.073,-0.0463 -0.3561,-0.68655 -0.077,-0.1152 -0.09,-0.26894 -0.177,-0.37662 -0.057,-0.07 -0.1749,-0.0657 -0.236,-0.13199 -0.1936,-0.2101 -0.2821,-0.56812 -0.3693,-0.82019 -0.5174,-0.36741 -0.4883,-1.03073 -0.654,-1.57825 -0.039,-0.12996 -0.1133,-0.24678 -0.1699,-0.37017 -0.049,-0.16129 -0.097,-0.32259 -0.1463,-0.48388 -0.039,-0.17919 -0.052,-0.36608 -0.117,-0.53757 -0.2481,-0.65519 -0.1933,0.10712 -0.3663,-0.70276 -0.1297,-0.60721 0.01,-1.13439 0.1936,-1.70518 0.3456,-1.04469 1.2221,-1.72621 2.062,-2.37111 0.6553,-0.57876 1.3833,-1.06495 2.0964,-1.56806 0.7455,-0.39854 1.415,-0.91473 2.1348,-1.35272 0.6718,-0.42441 1.3527,-0.83224 2.0168,-1.26854 0,0 3.233397,4.01446 3.233397,4.01446 l 0,0 c -0.7247,0.45207 -1.4407,0.91365 -2.1579,1.37816 -0.696897,0.29894 -1.212197,0.92416 -1.931297,1.19196 -0.7023,0.46586 -1.3953,0.95408 -2.0292,1.51122 -0.3287,0.22744 -0.8386,0.4763 -0.8746,0.88623 0.2908,-0.106 0.6504,1.42919 0.7632,1.67751 0.1148,0.28701 0.1886,0.58984 0.3118,0.87338 0.1824,0.4203 0.6709,0.66697 0.7339,1.15755 0.5383,0.54309 0.726,1.26764 1.1573,1.87399 0.7469,0.956 -0.479,-0.6532 0.3969,0.67758 0.1097,0.16663 0.3488,0.22256 0.4202,0.42617 0.087,0.13822 0.1298,0.30094 0.2131,0.44155 0.056,0.094 0.1344,0.17224 0.2016,0.25836 0.322497,0.69508 0.972097,1.22264 1.224097,1.9808 0.563,0.5493 0.7926,1.29471 1.2897,1.88746 0.7162,0.83721 -0.2841,-0.36785 0.5118,0.74141 0.3258,0.45391 0.809,0.79431 1.0342,1.32149 0.6925,0.81695 -0.2532,-0.3346 0.5111,0.74713 0.3284,0.46487 0.8087,0.82479 1.0315,1.36458 0.5547,0.70213 1.0082,1.49325 1.5606,2.19963 0.6254,0.59787 1.1958,1.23934 1.7031,1.93745 0.6194,0.61844 0.9857,1.43424 1.6939,1.97446 0.5666,0.81418 1.3054,1.50314 1.7417,2.40943 0.5309,0.63445 0.9568,1.3334 1.5557,1.9034 -0.7802,-0.7956 -3.0718,-3.22782 -2.3407,-2.38681 1.2035,1.38448 2.8642,2.5839 3.7603,4.23518 0.3122,0.34796 0.1615,0.14393 0.4282,0.62914 0.1243,0.15564 0.343197,0.21571 0.469397,0.36984 0.1029,0.12573 0.1643,0.28147 0.2637,0.40997 0.073,0.0939 0.1666,0.16913 0.2499,0.25369 0.4168,0.69732 0.9038,1.36147 1.5099,1.90729 0.2687,0.45517 0.5979,0.85592 0.8998,1.28332 0.084,0.11919 0.1215,0.26971 0.2163,0.38066 0.055,0.0644 0.1459,0.0858 0.2189,0.1287 -0.781,-0.79176 -3.086,-3.20291 -2.3431,-2.37527 1.2702,1.41509 2.8661,2.63307 3.8812,4.25917 0.8115,0.90463 -0.4126,-0.49496 0.5128,0.71239 0.3185,0.4155 0.8157,0.68326 1.0363,1.17688 0.5888,0.5926 0.9213,1.39379 1.5629,1.94705 0.6822,0.58557 1.1354,1.4274 1.6888,2.12987 0.6016,0.65436 1.1064,1.38073 1.637,2.08513 0.465,0.80893 1.1432,1.47121 1.5926,2.29415 0.4865,0.91273 1.1526,1.71039 1.5889,2.65128 0.4114,0.64859 0.6916,1.38742 1.2029,1.97122 0.6734,0.80368 -0.2247,-0.30388 0.5146,0.75719 0.3417,0.49043 0.8265,0.88554 1.0677,1.44665 0.5989,0.80223 1.0838,1.68966 1.7626,2.43608 0.5162,0.70545 0.9987,1.41695 1.4586,2.15753 0.1434,0.22452 0.4951,0.78075 0.6562,0.97242 0.054,0.0639 0.2729,0.18839 0.2156,0.12756 -0.173,-0.18403 -6.9435,-7.0898 0.4975,0.57172 0.5762,0.50495 0.8992,1.26002 1.351,1.86986 0.073,0.0429 0.2771,0.19025 0.219,0.12873 -0.7641,-0.80812 -3.0859,-3.20292 -2.3431,-2.37527 1.2022,1.33938 2.5408,2.44182 3.6206,3.82661 0.425,0.7053 0.9257,1.37182 1.5489,1.91606 0.4566,0.7063 0.9998,1.3793 1.5389,2.01548 1.6553,1.81373 -5.0941,-5.58863 -2.0756,-2.09879 1.1563,1.33695 2.5373,2.40772 3.5382,3.82345 0.4337,0.8111 0.9835,1.32213 1.5604,2.01887 0.7736,0.79938 1.4624,1.68426 2.2086,2.51228 0.7074,0.78165 1.4277,1.54236 2.032,2.41359 0.3639,0.36163 0.6891,0.75266 1.0432,1.12314 0.096,0.10009 0.39551,0.38762 0.29661,0.29072 -3.28291,-3.21741 -3.21651,-3.15275 0.594,0.58369 -0.77461,-0.76686 -3.06941,-3.09568 -2.32381,-2.30059 0.9483,1.01131 1.95361,1.96771 2.93241,2.9496 0.092,0.0922 0.3725,0.36363 0.2796,0.27255 -0.7942,-0.77817 -3.18971,-3.09936 -2.38331,-2.3338 0.1924,0.18267 6.77121,6.59559 0.5697,0.55582 0.98991,0.95688 1.97971,1.91375 2.96961,2.87063 -0.7795,-0.75757 -3.12021,-3.02808 -2.3386,-2.2727 1.0002,0.96654 1.9693,1.96588 2.9942,2.9062 0.7877,0.72273 -3.0073,-3.0388 -2.2824,-2.25314 0.9534,1.03323 1.9858,1.99077 2.9682,2.99642 0.11,0.11263 0.2057,0.23846 0.3085,0.3577 1.7613,1.81514 -5.82661,-6.00779 -2.0996,-2.0879 0.9405,0.9892 1.9061,1.9546 2.8839,2.90702 0.7961,0.77553 -3.0754,-3.2087 -2.339,-2.37622 0.9074,1.02589 1.8968,1.97631 2.8528,2.95713 0.078,0.0802 0.1661,0.1502 0.2491,0.2253 0.4793,0.76721 1.0404,1.48546 1.5372,2.24078 0.4713,0.66914 0.95,1.33512 1.5793,1.86649 0.5232,0.76411 1.15,1.46266 1.7225,2.18911 0.5242,0.6657 1.1245,1.2577 1.4981,2.02315 0.964,1.18073 -0.7147,-0.91055 0.4449,0.68914 0.3002,0.41416 0.762,0.73908 1.0208,1.19505 0.1608,0.2707 0.2683,0.57267 0.4455,0.83294 0.1101,0.16174 0.3158,0.24216 0.426,0.40384 0.09,0.1321 0.1353,0.29096 0.2235,0.42433 0.059,0.0891 0.1428,0.15868 0.2143,0.23802 0.27,0.48439 0.3936,0.41264 0.7037,0.79574 0.3038,0.37518 0.5732,0.79312 0.8362,1.19725 0.6102,0.78526 1.0449,1.70417 1.7109,2.44531 0.5305,0.68708 1.0407,1.38298 1.5835,2.05557 0.6271,0.7443 1.258,1.48266 1.9053,2.2088 0.098,0.11079 0.5779,0.65477 0.6957,0.77857 0.096,0.10047 0.3951,0.38944 0.2961,0.29226 -0.7845,-0.77058 -3.1305,-3.08988 -2.3528,-2.31245 0.9753,0.9749 1.941,1.9601 2.9455,2.9049 0.7923,0.74522 -1.5392,-1.53731 -2.3087,-2.30596 0.9719,0.99302 1.9458,1.98414 2.9158,2.97907 2.5111,2.57565 -8.8547,-8.891 0.8401,0.89886 0.6265,0.63268 -0.069,-0.21096 0.6151,0.67368 0.794,0.74582 1.5287,1.58111 2.1818,2.45446 0.3524,0.35457 0.6614,0.73887 0.9997,1.10594 0.086,0.0939 0.3604,0.36155 0.2696,0.27186 -1.1091,-1.09548 -5.9087,-5.85409 0.5159,0.51419 -5.7793,-5.71951 -0.226,-0.22468 0.5161,0.5143 0.7925,0.78913 -3.1749,-3.15154 -2.3845,-2.36029 9.546,9.55646 -6.1319,-6.16456 3.4146,3.40011 -0.7897,-0.7896 -3.1346,-3.18156 -2.3689,-2.3688 0.9355,0.9929 1.9013,1.95731 2.8782,2.90943 0.7979,0.77761 -3.0708,-3.22756 -2.3409,-2.3858 0.8966,1.03396 2.4945,2.23913 3.3153,3.58727 0.5173,0.56497 0.7266,1.34665 1.329,1.84839 0.4297,0.80879 0.9227,1.57729 1.3567,2.38589 0.3338,0.87066 0.8793,1.65149 1.1169,2.56797 0.3978,0.77391 0.6012,1.6431 0.7562,2.49497 0.2298,0.76744 0.5998,1.48531 0.7888,2.26467 0.3835,0.8776 0.6075,1.81366 0.8595,2.73543 0.2833,0.73193 0.5015,1.46718 0.7823,2.1968 0.3405,0.91378 -0.065,-0.23316 0.2478,0.8965 0.144,0.52038 0.5061,0.97189 0.5212,1.53313 0.2862,0.6911 0.5128,1.39464 0.8528,2.05597 0.3631,0.7626 0.5387,1.60254 0.8218,2.39396 0.3527,0.78199 0.518,1.62233 0.9036,2.39413 0.2602,0.99868 0.6125,1.97122 0.9052,2.96088 0.1892,0.83897 0.569,1.61512 0.72,2.46461 0.2682,0.76823 0.3176,1.58529 0.6944,2.31699 0.3179,0.85711 0.5504,1.74992 0.8756,2.60752 0.404,0.95609 0.9232,1.86133 1.2738,2.8406 0.4075,0.89253 0.7628,1.80437 1.119,2.7176 0.4348,1.01602 0.7212,2.08443 1.1651,3.09681 0.3677,1.05117 0.8828,2.04483 1.2211,3.10823 0.4073,0.90157 0.7552,1.82017 1.0534,2.76267 0.3252,0.9607 0.55,1.9566 0.9211,2.905 0.3502,0.8911 0.6751,1.802 0.8601,2.7422 0.2553,0.8591 0.5178,1.7223 0.8735,2.5436 0.3782,0.9577 0.6042,1.9728 0.9326,2.9483 0.2783,0.8475 0.5547,1.6987 0.7781,2.5597 0.2932,0.8667 0.5208,1.7362 0.759,2.6188 0.2764,0.9295 0.513,1.8857 0.6756,2.8404 0.2092,1.0101 0.525,1.9938 0.6964,3.0122 0.2529,1.0076 0.3811,2.0406 0.7204,3.0261 0.3253,1.0699 0.6216,2.1519 0.9192,3.2288 0.229,0.9622 0.2658,1.9711 0.688,2.8862 0.3636,1.0389 0.6518,2.1034 0.9392,3.1652 0.2872,1.0579 0.5142,2.1379 0.7519,3.2073 0.2263,0.9834 0.4274,1.9685 0.6576,2.9497 0.2676,0.8731 0.4499,1.7634 0.6885,2.6445 0.086,0.8366 0.3075,1.6088 0.6246,2.3872 0.1486,0.9099 0.4704,1.7801 0.542,2.7048 0.2344,0.8917 0.5827,1.7482 0.69,2.6717 0.2474,1.0413 0.3664,2.0994 0.5502,3.1532 0.1283,1.0921 0.056,2.1929 0.074,3.2907 0,1.0309 0,2.0619 0,3.0928 0,1.0309 0,2.0619 0,3.0928 0,1.0309 0,2.0618 0,3.0928 0,1.0309 0,2.0618 0,3.0927 0,1.031 0,2.0619 0,3.0928 0,1.031 0,2.0619 0,3.0928 0,1.0309 0,2.0619 0,3.09278 -1e-4,1.0309 -1e-4,2.06194 -1e-4,3.09284 0,1.0308 0,2.0617 2e-4,3.0926 2e-4,1.0305 6e-4,2.061 0,3.0916 0,1.0336 0,2.0673 0,3.101 -0.01,1.0682 -0.025,2.1383 -0.1387,3.2016 -0.1225,1.0116 -0.3481,2.0044 -0.4714,3.0139 -0.1081,0.984 -0.3002,1.948 -0.5935,2.8947 -0.1413,0.9388 -0.3778,1.8536 -0.5745,2.7805 -0.1809,0.8706 -0.4793,1.7073 -0.6205,2.586 -0.241,0.9288 -0.5078,1.8483 -0.7322,2.7811 -0.2794,0.7949 -0.6026,1.5763 -0.8515,2.3807 -0.2847,0.9036 -0.6443,1.7855 -1.0014,2.6619 -0.4657,0.95 -0.8751,1.9268 -1.4093,2.8427 -0.3984,0.7175 -0.8179,1.4247 -1.1543,2.1744 -0.3657,0.6744 -0.692,1.3697 -1.0308,2.0579 -0.3567,0.6614 -0.6746,1.3443 -0.9757,2.0325 -0.3363,0.7125 -0.5808,1.4644 -0.8309,2.2105 -0.3829,0.9259 -0.7584,1.8609 -1.2482,2.7362 -0.646,1.0576 -1.4323,2.0489 -2.5155,2.6861 -1.1697,0.4846 -2.1002,0.4408 -3.3414,0.3976 -1.0121,-0.016 -2.0294,-0.031 -3.0307,-0.1945 -0.3488,-0.073 -0.7301,-0.2679 -1.071,-0.3198 -0.5038,-0.077 -1.0402,0.061 -1.5464,-10e-5 -1.0307,0 -2.0614,-2e-4 -3.0921,10e-5 -1.0319,4e-4 -2.0639,10e-4 -3.0959,0.01 -1.0497,0.01 -2.0995,0.017 -3.1493,0.022 -0.4337,0 -2.6705,0.013 -2.9084,-0.1746 -1.1191,-0.8795 -2.0964,-1.9258 -3.1445,-2.8887 -0.2809,-1.1735 -0.1946,-2.3376 0.044,-3.5162 0.1701,-0.8611 0.2938,-1.6955 0.2157,-2.5791 0,-1.0309 0,-2.0619 0,-3.0928 1e-4,-1.0312 1e-4,-2.0623 8e-4,-3.0934 7e-4,-1.031 0,-2.0619 0,-3.0929 -4e-4,-1.0181 0,-2.0367 -0.036,-3.0543 -0.047,-0.9824 -0.1315,-1.9627 -0.3235,-2.929 -0.1801,-1.0936 -0.1811,-2.1877 -0.1596,-3.2943 0,-1.0309 0,-2.0618 0,-3.0928 0,-1.0308 0,-2.0617 -5e-4,-3.0926 -5e-4,-1.0313 0,-2.0627 0,-3.094 0,-1.0359 -0.01,-2.0719 0.017,-3.1076 0.032,-1.0388 0.082,-2.0821 0.3065,-3.1006 0.2089,-0.9037 0.4126,-1.7957 0.4802,-2.7249 0.1595,-0.9747 0.3072,-1.9356 0.2307,-2.9283 0,-1.09704 -10e-5,-2.19414 0,-3.29112 2e-4,-1.1352 3e-4,-2.2704 0,-3.4056 0,-1.0314 0,-2.0628 0,-3.0941 0,-0.9807 0,-1.9636 -0.095,-2.9409 -0.1005,-0.8098 -0.3131,-1.5791 -0.5694,-2.3526 -0.1195,-0.8996 -0.4782,-1.7238 -0.5775,-2.625 -0.1915,-0.852 -0.4729,-1.6783 -0.5394,-2.5548 -0.2294,-0.8755 -0.5741,-1.7152 -0.6904,-2.6193 -0.2362,-0.895 -0.3488,-1.8118 -0.6449,-2.6912 -0.2411,-0.9949 -0.3218,-2.0281 -0.6271,-3.0119 -0.1586,-1.0626 -0.4782,-2.0788 -0.6814,-3.1315 -0.2142,-0.8953 -0.3997,-1.7947 -0.6408,-2.6807 -0.268,-0.764 -0.3176,-1.577 -0.6952,-2.3036 -0.3302,-0.8912 0.053,0.2025 -0.2464,-0.8989 -0.1458,-0.5367 -0.5002,-1.011 -0.514,-1.5878 -0.3074,-0.8821 -0.5565,-1.7716 -0.8588,-2.6543 -0.3822,-1.0087 -0.705,-2.041 -1.1456,-3.0274 -0.4497,-1.0076 -0.7666,-2.0659 -1.2308,-3.0676 -0.3304,-0.964 -0.6905,-1.9143 -1.0183,-2.8773 -0.3193,-0.721 -0.4441,-1.4953 -0.824,-2.1937 -0.1913,-0.7902 -0.6552,-1.4636 -0.8648,-2.2515 -0.3625,-0.9517 0.089,0.2927 -0.2524,-0.888 -0.1467,-0.5066 -0.5255,-0.9343 -0.5499,-1.4831 -0.3415,-0.6988 -0.6404,-1.3884 -0.8867,-2.128 -0.1688,-0.7928 -0.5556,-1.5151 -0.8017,-2.2814 -0.4156,-0.7298 -0.6565,-1.5529 -0.8919,-2.3548 -0.3476,-0.8015 -0.6612,-1.6009 -0.9691,-2.4183 -0.2396,-0.806 -0.5273,-1.5935 -0.7947,-2.3889 -0.2869,-0.8418 -0.481,-1.7396 -0.6512,-2.6107 -0.2041,-0.8152 -0.5165,-1.5974 -0.6325,-2.4334 -0.2935,-0.8666 -0.5217,-1.736 -0.7602,-2.6185 -0.2774,-0.9328 -0.515,-1.8942 -0.6651,-2.8545 -0.193,-1.0287 -0.4806,-2.0375 -0.5717,-3.084 -0.1842,-1.07378 -0.3099,-2.14097 -0.2796,-3.23392 -0.047,-0.98352 -0.1306,-1.96492 -0.321,-2.9326 -0.1776,-1.08835 -0.1761,-2.17662 -0.1664,-3.27761 -0.017,-0.93391 -0.034,-1.87289 -0.1963,-2.79531 -0.1854,-0.91451 -0.4414,-1.81012 -0.4598,-2.7511 -0.1534,-0.92065 -0.4635,-1.78629 -0.7058,-2.68417 -0.281,-0.66112 -0.5068,-1.36398 -0.9323,-1.93753 -0.8238,-1.13727 0.5407,0.78312 -0.4231,-0.7329 -0.2795,-0.43964 -0.7064,-0.8176 -0.9901,-1.25491 -0.5085,-0.65381 -0.9978,-1.32833 -1.5471,-1.93635 -0.09,-0.0907 -0.3596,-0.36174 -0.2689,-0.2721 0.7957,0.78659 3.1775,3.15145 2.3838,2.36297 -0.9655,-0.95903 -1.9417,-1.90734 -2.8989,-2.87467 -0.78711,-0.79547 3.1917,3.13848 2.3887,2.35907 -0.1731,-0.16801 -6.78691,-6.6775 -0.5075,-0.5159 -0.9771,-0.94572 -1.9774,-1.86807 -2.93131,-2.83717 -0.7845,-0.79697 1.63621,1.52567 2.42281,2.32056 0.1038,0.10492 -0.264,-0.14114 -0.3689,-0.24494 -0.074,-0.0736 -0.08,-0.20048 -0.1548,-0.27313 -0.7867,-0.75871 -0.066,0.21662 -0.5702,-0.51961 -0.1385,-0.0807 -0.2771,-0.16143 -0.4156,-0.24215 -0.082,-0.0918 -0.1455,-0.20454 -0.2462,-0.2754 -0.45321,-0.31896 -1.09221,-0.48145 -1.34421,-1.02352 -1.5084,-0.96372 0.4676,0.36859 -0.5703,-0.51911 -0.122,-0.10432 -0.2896,-0.14339 -0.4162,-0.24211 -0.097,-0.076 -0.1465,-0.20468 -0.2476,-0.27567 -0.1477,-0.10376 -0.3238,-0.15961 -0.4857,-0.23942 -0.1137,-0.0899 -0.2273,-0.17986 -0.341,-0.26979 -1.3006,-0.86721 0.3087,0.28342 -0.5386,-0.52742 -0.1122,-0.1074 -0.2756,-0.14967 -0.3909,-0.2538 -0.088,-0.0797 -0.1193,-0.21108 -0.2095,-0.28853 -1.1631,-0.99894 0.1773,0.39771 -0.7101,-0.56355 -1.4947,-0.81733 -2.7253,-2.30144 -3.8029,-3.48608 -0.742,-0.81564 1.5984,1.51951 2.3801,2.29717 0.1029,0.10241 -0.2281,-0.17976 -0.3421,-0.26964 -0.9761,-0.94909 -1.9522,-1.89817 -2.9283,-2.84726 0.8023,0.77359 1.6256,1.52602 2.407,2.32078 0.1063,0.10806 -0.2681,-0.14899 -0.3762,-0.25524 -0.08,-0.0785 -0.094,-0.20882 -0.1748,-0.28661 -0.1142,-0.11038 -0.2788,-0.1578 -0.3958,-0.26513 -0.8359,-0.76657 0.5915,0.21717 -0.6591,-0.58003 -0.5787,-0.63949 -1.5003,-0.97151 -1.9774,-1.69715 -1.5288,-0.98676 0.507,0.39421 -0.5728,-0.52167 -0.123,-0.10434 -0.2901,-0.14527 -0.4187,-0.24275 -0.1032,-0.0783 -0.1628,-0.20687 -0.27,-0.27959 -0.1517,-0.10289 -0.3301,-0.15955 -0.4951,-0.23933 -0.1228,-0.091 -0.2455,-0.18203 -0.3682,-0.27304 -0.1416,-0.0823 -0.2832,-0.16454 -0.4248,-0.24681 -0.095,-0.0952 -0.1742,-0.2105 -0.2861,-0.28567 -0.5546,-0.37272 -1.2329,-0.59431 -1.6957,-1.10418 -0.9534,-0.47306 -1.7666,-1.1235 -2.6539,-1.69799 -0.4311,-0.45153 -1.0361,-0.64006 -1.5267,-1.02593 -0.096,-0.0758 -0.1447,-0.20378 -0.2449,-0.27442 -0.1436,-0.10123 -0.3155,-0.1546 -0.4733,-0.2319 -0.2206,-0.17708 -0.4809,-0.30273 -0.6928,-0.49012 -0.081,-0.0717 -0.1047,-0.19633 -0.1894,-0.26354 -0.2469,-0.19571 -0.9037,-0.57002 -1.201,-0.66047 -0.4347,-0.24444 -0.938,-0.36611 -1.3385,-0.6672 -0.1078,-0.0811 -0.1741,-0.21083 -0.286,-0.28623 -0.1563,-0.10544 -0.3386,-0.16608 -0.5079,-0.24913 -0.132,-0.0956 -0.2639,-0.19124 -0.3958,-0.28685 -0.1532,-0.0882 -0.3065,-0.17644 -0.4597,-0.26466 -0.1184,-0.10272 -0.2227,-0.22442 -0.3552,-0.30818 -0.656,-0.41473 -1.4186,-0.67994 -2.0151,-1.19354 -0.8867,-0.53547 -1.8407,-0.94477 -2.7007,-1.52574 -0.6751,-0.62179 -1.6462,-0.86555 -2.3999,-1.38976 -0.3448,-0.33375 -0.77,-0.35292 -1.1502,-0.63997 -0.094,-0.0711 -0.1412,-0.19552 -0.2398,-0.26034 -0.1442,-0.0948 -0.3158,-0.13915 -0.4737,-0.20873 -0.1088,-0.0784 -0.2175,-0.1568 -0.3263,-0.2352 -0.1314,-0.0661 -0.2629,-0.13213 -0.3943,-0.1982 -0.07,-0.0773 -0.1211,-0.178 -0.2105,-0.23192 -0.4567,-0.27543 -0.4938,-0.0723 -0.8631,-0.43872 -0.074,-0.0738 -0.079,-0.20066 -0.1546,-0.27346 -0.108197,-0.10469 -0.253497,-0.16259 -0.380197,-0.24388 -0.3854,-0.55794 0.054,-0.006 -0.6074,-0.51889 -0.099,-0.0766 -0.1504,-0.20524 -0.2529,-0.27667 -0.383,-0.26692 -0.8555,-0.43184 -1.2127,-0.75042 -0.8755,-1.26509 -5.2371,-2.56741 -4.5891,-4.17484 5.9164,5.86135 0.056,0.0566 -0.5152,-0.5145 -0.791,-0.79104 3.1764,3.15205 2.3846,2.36174 -9.5566,-9.53844 6.148097,6.1436 -3.4137,-3.38892 4.6162,4.5718 1.6414,1.62707 -0.5139,-0.51441 -0.7933,-0.7882 3.1684,3.15755 2.3818,2.36267 -9.504697,-9.60495 6.0961,6.20669 -3.4148,-3.41849 5.5689,5.61319 -0.2794,-0.0266 -1.6849,-1.91153 -0.7079,-0.73383 -1.3128,-1.56828 -2.0665,-2.26468 5.6677,5.5917 -0.8007,-0.46034 -2.070197,-2.3822 -0.7128,-0.73904 -1.3266,-1.57413 -2.0723,-2.28787 0.772,0.76888 3.046897,3.11472 2.315997,2.30662 -0.930697,-1.02907 -1.945997,-1.97838 -2.916197,-2.97026 -0.092,-0.0943 -0.3646,-0.38181 -0.2714,-0.28834 0.7844,0.78679 3.0958,3.18743 2.3451,2.36843 -2.1199,-2.31274 -1.8975,-2.10912 -3.1282,-3.16189 -0.5226,-0.76378 -1.1492,-1.46335 -1.7293,-2.18261 -0.5501,-0.67353 -1.182,-1.25851 -1.6418,-1.99824 -0.8579,-0.92161 0.4197,0.48312 -0.5596,-0.72919 -0.375,-0.46422 -0.9205,-0.78927 -1.1577,-1.36192 -0.4696,-0.69773 -0.8829,-1.41587 -1.3311,-2.12143 -0.5983,-0.79449 -1.078,-1.69185 -1.6216,-2.52529 -0.6145,-0.84836 -1.1989,-1.71587 -1.8169,-2.56132 -0.5902,-0.97539 -1.3794,-1.79346 -2.0281,-2.72866 -0.5839,-0.81364 -1.2022,-1.59565 -1.7475,-2.43839 -0.6753,-0.80552 0.2459,0.33081 -0.4946,-0.74117 -0.2976,-0.43093 -0.7512,-0.75251 -0.9345,-1.26075 -0.3116,-0.34908 -0.1613,-0.14418 -0.4261,-0.6321 -0.1238,-0.15803 -0.3816,-0.1769 -0.4651,-0.38261 -0.1015,-0.13045 -0.1616,-0.28922 -0.2581,-0.42346 -0.072,-0.0995 -0.1626,-0.18343 -0.2439,-0.27515 -0.4313,-0.80177 -0.9236,-1.56903 -1.435,-2.32307 -0.4868,-0.9321 -1.2548,-1.69794 -1.7606,-2.62719 -0.4934,-0.79927 -1.0625,-1.56501 -1.3968,-2.44866 -0.2556,-0.29551 -0.3702,-0.56965 -0.5813,-0.89126 -0.2019,-0.30754 -0.6038,-0.42742 -0.6324,-0.87177 -0.6913,-0.90389 0.4009,0.56431 -0.3969,-0.6887 -0.2449,-0.38454 -0.6767,-0.75752 -0.8544,-1.22653 -0.379,-0.81236 -1.0163,-1.48199 -1.4636,-2.26235 -0.5687,-0.73646 -1.0332,-1.57153 -1.54,-2.3513 -0.5691,-0.73292 -1.0243,-1.53076 -1.5537,-2.28993 -0.5666,-0.73288 -1.0302,-1.56272 -1.5406,-2.33531 -0.5449,-0.67616 -0.9827,-1.41117 -1.499,-2.10496 -0.5301,-0.63659 -0.7453,-1.477 -1.3352,-2.07762 -0.4288,-0.81956 -1.0138,-1.54799 -1.4327,-2.37211 -0.3629,-0.71317 -0.7654,-1.36917 -1.1477,-2.06404 -0.5403,-0.54377 -0.7279,-1.26912 -1.1545,-1.88133 -0.6427,-0.85601 0.3385,0.49228 -0.3901,-0.69543 -0.2409,-0.39265 -0.6432,-0.75438 -0.7986,-1.2422 -0.2862,-0.74373 -0.7764,-1.4058 -1.2237,-2.06237 -0.3888,-0.81388 -0.9024,-1.57004 -1.3234,-2.36283 -0.5391,-0.83903 -0.93,-1.77647 -1.4074,-2.65159 -0.4349,-0.82438 -0.7754,-1.70067 -1.1775,-2.5441 -0.2733,-0.94318 -0.702,-1.83369 -0.9426,-2.7893 -0.1725,-1.15902 -0.3375,-2.30853 -0.1131,-3.47784 0.1914,-1.11688 0.5282,-2.18202 1.2364,-3.0892 0.5328,-0.75865 1.0372,-1.53672 1.6209,-2.25914 0.5224,-0.59692 1.0961,-1.13886 1.6451,-1.70997 0.5463,-0.48705 1.0278,-1.04523 1.5538,-1.5537 0.5788,-0.50837 1.0943,-1.0865 1.6924,-1.57506 0.5569,-0.39802 1.0889,-0.8309 1.6543,-1.21063 0.6545,-0.62735 1.3804,-1.20485 2.1949,-1.60874 0.7594,-0.428 1.5878,-0.72795 2.3113,-1.23082 0.7027,-0.23488 1.3288,-0.68109 1.9693,-1.04412 0.7433,-0.29298 1.3531,-0.89475 2.1628,-1.02988 0.838,-0.30558 1.5815,-0.84966 2.3728,-1.25565 0.8015,-0.34133 1.5859,-0.7242 2.3765,-1.08502 0.7909,-0.48059 1.6458,-0.85614 2.4768,-1.26329 0.7634,-0.25343 1.4459,-0.71618 2.1859,-1.03098 0.75,-0.21163 1.4591,-0.55117 2.1853,-0.82364 0.7638,-0.43052 1.5963,-0.73362 2.3271,-1.23402 0.7231,-0.23887 1.3716,-0.68089 2.0476,-1.02415 0.6832,-0.22613 1.2965,-0.65754 1.9045,-1.03163 0.6938,-0.2983 1.2058,-0.92206 1.922,-1.18847 0.6858,-0.45352 1.3588,-0.92952 1.9966,-1.44953 0.6153,-0.37152 1.163,-0.80469 1.7003,-1.28125 0.6655,-0.57934 1.4119,-1.05041 2.0599,-1.6508 0.7878,-0.78551 1.6283,-1.51899 2.4634,-2.25277 0,0 3.644897,3.64488 3.644897,3.64488 z"
       inkscape:connector-curvature="0" />
    <path
       style="fill:#808080;fill-opacity:1;stroke:none"
       d="m 75.758588,14.494958 c -8.838675,3.515738 -17.39996,7.922101 -25.810151,12.278748 -2.704162,3.322204 -7.137089,5.739419 -8.349332,10.027287 0.752783,5.967117 5.06612,10.787426 7.788298,15.994384 10.22598,16.751606 21.1244,33.132695 32.844858,48.884723 7.389422,8.66823 14.758554,17.75076 24.991849,23.20587 10.30748,5.95006 20.08647,12.76949 28.98706,20.68965 5.61653,4.16002 10.7793,9.75811 11.37624,17.07205 1.09374,9.76529 1.97146,19.66038 5.4704,28.94202 5.55272,14.91624 11.60613,29.74638 14.59411,45.45471 3.19048,11.05954 1.89555,22.64326 1.22551,33.93147 -0.0521,10.45771 0.17266,21.01241 0.53879,31.40394 5.55389,0.1176 11.14092,0.30402 16.6718,0.47722 5.83318,-11.75004 12.21254,-24.08789 11.5519,-37.60752 -0.0807,-12.05616 0.88232,-24.17266 -0.25264,-36.19174 -3.49409,-16.48194 -7.58923,-32.88427 -12.71917,-48.94271 -5.06284,-13.71965 -10.14119,-27.43606 -14.73032,-41.32708 -1.68668,-4.96342 -3.32279,-10.09732 -7.29497,-13.76347 -9.0174,-9.37338 -16.60396,-19.93659 -24.67672,-30.095438 C 128.259,83.962047 118.12569,73.212623 110.34911,60.708012 99.460352,44.912442 85.852288,30.908612 76.051076,14.46417 c -0.09819,0.0041 -0.199529,-0.01564 -0.292488,0.03079 z"
       id="path2983"
       inkscape:connector-curvature="0"
       transform="translate(0,742.36218)" />
  </g>
</svg>
