<?xml version="1.0" encoding="UTF-8" standalone="no"?>
<!-- Created with Inkscape (http://www.inkscape.org/) -->

<svg
   xmlns:dc="http://purl.org/dc/elements/1.1/"
   xmlns:cc="http://creativecommons.org/ns#"
   xmlns:rdf="http://www.w3.org/1999/02/22-rdf-syntax-ns#"
   xmlns:svg="http://www.w3.org/2000/svg"
   xmlns="http://www.w3.org/2000/svg"
   xmlns:sodipodi="http://sodipodi.sourceforge.net/DTD/sodipodi-0.dtd"
   xmlns:inkscape="http://www.inkscape.org/namespaces/inkscape"
   width="400"
   height="32"
   id="svg2"
   version="1.1"
   inkscape:version="0.48.5 r10040"
   sodipodi:docname="ledge4BossTrapdoor.svg"
   inkscape:export-filename="C:\Users\narfman0\Desktop\ledge4BossTrapdoor.png"
   inkscape:export-xdpi="79.875"
   inkscape:export-ydpi="79.875">
  <defs
     id="defs4" />
  <sodipodi:namedview
     id="base"
     pagecolor="#ffffff"
     bordercolor="#666666"
     borderopacity="1.0"
     inkscape:pageopacity="0.0"
     inkscape:pageshadow="2"
     inkscape:zoom="1.7672176"
     inkscape:cx="172.35079"
     inkscape:cy="1.3899652"
     inkscape:document-units="px"
     inkscape:current-layer="layer1"
     showgrid="false"
     inkscape:window-width="1000"
     inkscape:window-height="742"
     inkscape:window-x="2008"
     inkscape:window-y="186"
     inkscape:window-maximized="0" />
  <metadata
     id="metadata7">
    <rdf:RDF>
      <cc:Work
         rdf:about="">
        <dc:format>image/svg+xml</dc:format>
        <dc:type
           rdf:resource="http://purl.org/dc/dcmitype/StillImage" />
        <dc:title></dc:title>
      </cc:Work>
    </rdf:RDF>
  </metadata>
  <g
     inkscape:label="Layer 1"
     inkscape:groupmode="layer"
     id="layer1"
     transform="translate(0,-1020.3622)">
    <path
       style="fill:#000000;fill-opacity:1"
       id="path2993"
       d="m 16.021765,1024.3124 c -0.02855,1.258 -0.02063,2.5167 -0.01852,3.775 0.0025,1.1681 0.004,2.3363 0.0048,3.5044 -0.07282,1.1088 0.135249,2.1896 0.28372,3.2782 0.13392,1.044 0.126361,2.0935 0.328328,3.1252 0.219777,0.9751 0.295311,1.9762 0.341701,2.977 0.03796,1.0901 0.03552,2.1812 0.03578,3.2719 -2.54e-4,0.5507 -9.83e-4,1.1015 -0.0016,1.6523 0,0 -3.44587,1.9603 -3.44587,1.9603 l 0,0 c 6.31e-4,-0.5506 0.0013,-1.1012 0.0017,-1.6518 1.29e-4,-1.0838 0.003,-2.1679 -0.03017,-3.2512 -0.04055,-0.9772 -0.104407,-1.9561 -0.317626,-2.9086 -0.20961,-1.0435 -0.217449,-2.0978 -0.330897,-3.1577 -0.146013,-1.1086 -0.384603,-2.2067 -0.309736,-3.3354 7.83e-4,-1.17 0.0022,-2.3399 0.0048,-3.5098 0.0021,-1.2513 0.01023,-2.503 -0.01852,-3.754 0,0 3.472102,-1.9758 3.472102,-1.9758 z"
       inkscape:connector-curvature="0" />
    <path
       style="fill:#000000;fill-opacity:1"
       id="path2995"
       d="m 17.689832,1044.942 c 1.289509,0.019 2.579312,0.015 3.868945,0.015 1.45238,0.073 2.885319,-0.1815 4.327851,-0.3061 1.510827,-0.134 3.027505,-0.1646 4.543313,-0.1777 1.332829,0.07 2.634841,-0.063 3.948104,-0.2625 1.014726,-0.1601 2.040941,-0.2092 3.066306,-0.2363 1.30717,-0.011 2.614419,-0 3.921627,-0.01 1.192738,-0 2.385468,-0 3.578205,-10e-4 1.19216,-0 2.384312,-10e-4 3.576466,0 1.207803,9e-4 2.415602,-0 3.623402,-0.01 1.011086,-0 2.022174,-0 3.033261,-0 1.056077,-0 2.112135,0 3.168209,0 1.070476,-8e-4 2.140951,-0 3.211426,-0 1.010479,2e-4 2.020962,-0 3.031432,0 1.22679,0 2.453586,0 3.680374,0 1.461286,-0.069 2.903666,0.1774 4.353532,0.3161 1.675472,0.1097 3.346388,0.1586 5.016587,0.3361 1.762778,0.2029 3.536061,0.2739 5.308694,0.3175 1.798626,0.036 3.597674,0.029 5.396544,0.029 1.716143,-5e-4 3.432283,-0 5.148426,-0.01 1.620352,5e-4 3.240694,-0 4.861046,-0 1.601711,-0 3.203418,0 4.805128,-0 1.55767,-3e-4 3.11533,-5e-4 4.673,8e-4 1.58517,-9e-4 3.17034,-10e-4 4.75551,0 1.62812,-0.028 3.24525,-0.021 4.8643,0.1545 1.72831,0.2017 3.46696,0.2713 5.20516,0.3143 1.84395,0.037 3.67624,0.2808 5.51687,0.3983 1.817,0.018 3.61491,0.2765 5.42238,0.4316 1.77813,0.1375 3.56201,0.1626 5.34452,0.1801 1.72727,-0.073 3.43879,0.1679 5.15546,0.3129 1.56823,0.044 3.11778,0.2284 4.67373,0.412 1.48777,0.1488 2.97516,0.1924 4.45617,0.4019 1.42686,0.209 2.8681,0.28 4.30796,0.3212 1.24658,0.025 2.49352,0.025 3.74029,0.023 1.23403,0 2.46805,-0.01 3.70208,-0 1.26547,0 2.53094,0 3.79641,-0 1.12283,-0 2.24564,0 3.36847,-3e-4 1.07353,0.1509 2.14142,0.3246 3.22243,0.4145 1.12854,0.076 2.26039,0.079 3.39097,0.084 1.15644,0 2.31288,-0 3.46931,-0.01 1.14585,0.01 2.27561,0.2547 3.41475,0.3738 1.10537,0.1031 2.21635,0.112 3.32558,0.12 1.16464,0 2.32928,0 3.49392,0 1.39424,0 2.78845,0 4.18269,-3e-4 1.23418,-0 2.46839,-0 3.70258,-0 1.41266,0 2.82531,0 4.23797,0 1.24383,-0 2.48765,-0.01 3.73147,-0.01 1.12594,0 2.25187,0 3.37781,4e-4 1.0471,-5e-4 2.09421,-0 3.1413,2e-4 1.15752,10e-5 2.31503,0 3.47255,0 1.11279,-6e-4 2.22559,-0 3.33838,-0 1.06031,-0 2.1206,-9e-4 3.18089,0.01 1.33442,0 2.66884,-10e-5 4.00326,0 1.28113,-0 2.56226,-9e-4 3.84339,-0 1.31753,0 2.63506,3e-4 3.95259,0 1.40346,0.078 2.78674,-0.1666 4.17711,-0.3135 1.43472,-0.1202 2.87513,-0.1591 4.31434,-0.1751 1.43442,-0.01 2.86894,-0.01 4.30339,-0.01 1.33467,-0.1555 2.66702,-0.3201 4.00764,-0.4176 1.18891,-0.077 2.38106,-0.079 3.57196,-0.079 1.17711,-0 2.35423,-0 3.53135,-0 1.00737,-5e-4 2.01473,-5e-4 3.0221,-5e-4 0.98362,0 1.96724,0 2.95087,0 0.98477,0 1.96954,0 2.95432,0 1.17515,-0.05 2.34166,-0.2587 3.51614,-0.3652 1.33658,-0.3045 2.69577,-0.4407 4.06067,-0.5299 1.3267,-0.1208 2.66683,0.01 3.98751,-0.1634 1.22401,-0.2577 2.48018,-0.2425 3.71039,-0.4385 1.12872,-0.2229 2.26881,-0.3606 3.41639,-0.4308 1.15664,-0.055 2.31519,-0.042 3.47274,-0.038 1.3832,0.086 2.74482,-0.1556 4.11305,-0.3144 1.08751,-0.1257 2.18192,-0.1609 3.27557,-0.179 1.13066,0.072 2.23525,-0.1742 3.34935,-0.3222 1.01459,-0.128 2.03751,-0.1549 3.05879,-0.1711 1.02007,0.019 2.01687,0.012 3.02086,-0.1712 0.95614,-0.1924 1.92864,-0.2612 2.90107,-0.301 0.99212,0.044 1.95207,-0.2073 2.92733,-0.3469 0.98498,-0.129 1.97905,-0.1514 2.97096,-0.1666 0.98604,-0.01 1.97215,-0.01 2.95822,-0.01 0.9852,0 1.9704,0 2.9556,0 0.9852,2e-4 1.97041,2e-4 2.95562,2e-4 0.84012,-0.196 1.68386,-0.3443 2.54312,-0.4215 0.956,-0.069 1.91509,-0.071 2.87304,-0.074 1.1191,0 2.23821,0 3.35731,0 1.017,-2e-4 2.03401,-5e-4 3.05101,-6e-4 1.01738,0.085 2.00055,-0.1731 2.99861,-0.3209 0.9659,-0.131 1.94141,-0.1531 2.91459,-0.1685 0.9838,-0.01 1.96767,-0.01 2.95149,-0.01 1.08279,0 2.16554,0.01 3.24833,0.01 1.04966,-10e-4 2.09931,-0 3.14897,-0 1.14045,0.01 2.28091,3e-4 3.42136,0 1.14233,0 2.28467,-0 3.427,-0 1.00524,-0 2.01047,-0 3.01571,-0 0.87233,-0.01 1.71607,-0.2732 2.58256,-0.3812 0.77673,-0.3106 1.59079,-0.4525 2.41845,-0.5344 0.90272,0.026 1.75419,-0.1508 2.62962,-0.3323 0.89704,-0.1693 1.81134,-0.1983 2.7214,-0.2209 0.96106,-0.2305 1.95843,-0.2723 2.91566,-0.5066 0.97198,-0.2683 1.97173,-0.3819 2.97476,-0.4463 0.98734,-0.049 1.97625,-0.046 2.96451,-0.046 0.98531,0 1.97062,0 2.95593,0 0.98518,8e-4 1.97036,9e-4 2.95554,10e-4 0.82102,0 1.64203,0 2.46305,0 0,0 -3.12865,2.2731 -3.12865,2.2731 l 0,0 c -0.82102,0 -1.64205,0 -2.46307,-10e-5 -0.98525,-10e-5 -1.97051,-2e-4 -2.95577,-0 -0.98512,-0 -1.97024,-0 -2.95537,-0 -0.98281,0 -1.96667,0 -2.94773,0.069 -0.99354,0.084 -1.97577,0.2369 -2.94215,0.4874 -0.98121,0.1786 -1.97188,0.3227 -2.96002,0.4536 -0.90116,0.034 -1.80501,0.085 -2.68834,0.2807 -0.87668,0.1847 -1.75316,0.2519 -2.64697,0.3024 -0.82318,0.1131 -1.61062,0.3408 -2.41446,0.5417 -0.86651,0.1341 -1.72286,0.3808 -2.60752,0.3328 -1.00379,-10e-5 -2.00758,-4e-4 -3.01136,-0 -1.13959,-0 -2.27917,-0 -3.41876,-0 -1.14428,0 -2.28857,-0 -3.43285,0 -1.0471,-5e-4 -2.09421,-0 -3.14131,-0 -1.08581,-0 -2.17161,0 -3.25742,8e-4 -0.9824,-9e-4 -1.96489,-0 -2.94719,0.013 -0.96416,0.023 -1.93025,0.06 -2.88457,0.2102 -1.00594,0.1606 -2.00727,0.3443 -3.03235,0.2724 -1.0153,-5e-4 -2.0306,-0 -3.0459,-0 -1.12057,-0 -2.24119,-0.01 -3.36174,0 -0.9525,0.01 -1.90684,0.015 -2.85563,0.1083 -0.85953,0.1016 -1.69969,0.3122 -2.56154,0.3853 -0.98524,0 -1.97047,0 -2.95571,-4e-4 -0.98525,-4e-4 -1.97051,-0 -2.95576,-0 -0.98454,-9e-4 -1.96916,-0 -2.95361,0.012 -0.98267,0.022 -1.96726,0.058 -2.94051,0.2065 -0.98004,0.1541 -1.95401,0.3462 -2.95205,0.3167 -0.96412,0.054 -1.92392,0.1515 -2.87297,0.3352 -1.01402,0.1475 -2.03182,0.1166 -3.05432,0.1271 -1.01123,0.023 -2.02352,0.063 -3.02653,0.2029 -1.12272,0.1563 -2.2416,0.3407 -3.38047,0.2896 -1.08148,0.024 -2.16316,0.069 -3.23807,0.1976 -1.37307,0.16 -2.74331,0.3476 -4.13042,0.2725 -1.16027,0.01 -2.32159,0.01 -3.48026,0.075 -1.13555,0.084 -2.2607,0.2444 -3.3824,0.4398 -1.24097,0.1504 -2.49079,0.2238 -3.72547,0.431 -1.32366,0.098 -2.65489,0.034 -3.97906,0.143 -1.36769,0.1033 -2.71774,0.3045 -4.06736,0.5463 -1.18508,0.1172 -2.36289,0.3465 -3.5553,0.3488 -0.98479,0 -1.96959,0 -2.95439,0 -0.98359,0 -1.96718,10e-5 -2.95078,-2e-4 -1.00574,-3e-4 -2.01148,-9e-4 -3.01723,-0 -1.17267,-0 -2.34536,-0.01 -3.51804,-0 -1.18652,0.01 -2.37397,0.017 -3.55809,0.1028 -1.34017,0.1038 -2.6705,0.297 -4.01154,0.3843 -1.43494,5e-4 -2.8699,-0.01 -4.30478,0.013 -1.43248,0.025 -2.86701,0.053 -4.29297,0.2036 -1.39683,0.1525 -2.79055,0.3549 -4.20062,0.2799 -1.32059,0 -2.64117,10e-4 -3.96176,0 -1.27864,-0 -2.55727,3e-4 -3.83591,-0 -1.33642,0 -2.67284,-0 -4.00926,0 -1.06495,0.01 -2.12988,0.01 -3.19485,0.01 -1.10917,-0 -2.21833,-0 -3.3275,-0 -1.15957,8e-4 -2.31913,0 -3.47869,0 -1.04726,0 -2.09453,8e-4 -3.1418,10e-5 -1.12635,-0 -2.25269,-8e-4 -3.37903,5e-4 -1.23636,-0 -2.47272,-0.01 -3.70908,-0.01 -1.41613,0 -2.83227,-7e-4 -4.2484,0 -1.23303,0 -2.46608,0 -3.6991,-0 -1.39561,-0 -2.79118,-0 -4.18677,0 -1.1681,0 -2.33626,0.01 -3.50433,-0 -1.11819,-0.014 -2.23903,-0.024 -3.3516,-0.1494 -1.12771,-0.134 -2.25138,-0.3705 -3.39145,-0.3372 -1.15196,-3e-4 -2.30392,-0 -3.45587,-0.01 -1.14275,-0.01 -2.28779,0 -3.42721,-0.099 -1.06819,-0.1064 -2.12325,-0.3073 -3.19312,-0.3922 -1.12252,-3e-4 -2.24504,0 -3.36756,-3e-4 -1.26449,-0 -2.52898,-0 -3.79347,-2e-4 -1.23432,0 -2.46865,-0 -3.70297,0 -1.24547,-0 -2.4912,0 -3.73613,-0.042 -1.44828,-0.054 -2.89627,-0.1433 -4.33151,-0.354 -1.47557,-0.2012 -2.96316,-0.2224 -4.4414,-0.4029 -1.55001,-0.1844 -3.09881,-0.3265 -4.65812,-0.4079 -1.70813,-0.1486 -3.41238,-0.3583 -5.1312,-0.2949 -1.78919,-0.018 -3.57926,-0.051 -5.36309,-0.2031 -1.80454,-0.1615 -3.60221,-0.3978 -5.41638,-0.4258 -1.83604,-0.126 -3.6656,-0.3676 -5.50718,-0.3864 -1.75003,-0.046 -3.49863,-0.1296 -5.23917,-0.3266 -1.60918,-0.1618 -3.22003,-0.1337 -4.83592,-0.1261 -1.58655,0 -3.17311,0 -4.75966,0 -1.55831,0 -3.11663,10e-4 -4.67495,7e-4 -1.600212,-0 -3.200423,0 -4.800639,-0 -1.619708,0 -3.239408,-0 -4.859116,10e-5 -1.713831,8e-4 -3.427663,-8e-4 -5.141495,5e-4 -1.801204,3e-4 -3.602603,-0 -5.403531,-0.037 -1.778552,-0.05 -3.55644,-0.1415 -5.325204,-0.3419 -1.674511,-0.1694 -3.35451,-0.1851 -5.031395,-0.3231 -1.444503,-0.1462 -2.886635,-0.3524 -4.342816,-0.2774 -1.231125,0 -2.462258,0 -3.693384,0 -1.012208,0 -2.024428,0 -3.036645,0 -1.067792,-7e-4 -2.135583,-0 -3.203375,-0 -1.059362,2e-4 -2.118707,0.01 -3.178072,0 -1.009125,-2e-4 -2.018251,-5e-4 -3.027375,-0 -1.203177,-0 -2.406354,-0.01 -3.609534,-0 -1.194542,0 -2.389082,0 -3.583629,0 -1.189401,10e-5 -2.378787,0 -3.56818,-0.01 -1.312412,-0 -2.625194,-0.01 -3.937188,0.032 -1.014395,0.037 -2.027754,0.1047 -3.031163,0.2654 -1.313943,0.1866 -2.624989,0.2392 -3.952611,0.2021 -1.509219,0.024 -3.019382,0.061 -4.523199,0.2009 -1.451687,0.1436 -2.89832,0.3628 -4.36211,0.2874 -1.303114,-5e-4 -2.606386,-0 -3.909381,0.015 0,0 3.145474,-2.2854 3.145474,-2.2854 z"
       inkscape:connector-curvature="0" />
    <path
       style="fill:#000000;fill-opacity:1"
       id="path2997"
       d="m 384.39384,1041.3954 c -0.42727,-0.9725 -0.63137,-2.0132 -0.76974,-3.06 -0.11527,-1.0293 -0.12412,-2.0662 -0.13094,-3.1006 -0.002,-0.988 0.001,-1.976 0.003,-2.964 0.0282,-0.8703 -0.22382,-1.7146 -0.34611,-2.5712 -0.0611,-0.4613 -0.0849,-0.9259 -0.10937,-1.3901 0,0 3.43993,-1.7746 3.43993,-1.7746 l 0,0 c 0.0216,0.4533 0.0421,0.9069 0.098,1.3576 0.11864,0.8757 0.38215,1.7358 0.36364,2.6232 -0.002,0.9874 -0.005,1.9748 -0.005,2.9622 0.003,1.0213 0.005,2.0448 0.10384,3.0624 0.1193,1.0026 0.28881,2.0116 0.74332,2.9247 0,0 -3.39042,1.9304 -3.39042,1.9304 z"
       inkscape:connector-curvature="0" />
    <path
       style="fill:#000000;fill-opacity:1"
       id="path3001"
       d="m 16.156639,1024.2497 c 1.117808,0.019 2.235893,0.014 3.353821,0.012 1.048182,-0 2.096365,-0 3.144549,-0 0.907183,0.094 1.764955,-0.1815 2.648627,-0.3273 0.919878,-0.1317 1.850524,-0.1483 2.778047,-0.1628 0.982645,-0.01 1.96536,-0.01 2.948036,-0.01 1.103777,0 2.207554,0.01 3.311343,0 1.031328,-0 2.062657,-0 3.093987,-0 1.217252,0.01 2.434508,0.01 3.651771,0 1.17772,-0 2.355431,2e-4 3.533154,-0 1.243203,-7e-4 2.486394,0 3.7296,0 1.236771,3e-4 2.473539,-7e-4 3.710311,-0 1.056987,-0.034 2.091455,-0.021 3.132481,0.1628 1.087533,0.2321 2.20366,0.2125 3.298249,0.3799 1.208038,0.2204 2.427912,0.34 3.653182,0.4012 1.211473,0.047 2.424074,0.047 3.636258,0.046 1.060303,-0 2.120604,-0.01 3.180908,-0.01 1.080192,-0.081 2.131503,0.094 3.195218,0.2481 1.103766,0.1626 2.218659,0.2088 3.332454,0.2353 1.241353,0.018 2.482898,0.02 3.72436,0.019 1.214093,-0.01 2.428176,-0.01 3.642272,-0.01 1.270573,-4e-4 2.541146,0 3.811719,0 1.340244,0.014 2.665622,0.264 4.001805,0.3729 1.388805,0.1 2.781521,0.1101 4.173161,0.1215 1.467982,0.01 2.935965,0.01 4.403953,0 1.342365,-0 2.684725,-0.01 4.027085,-0.01 1.23619,-0 2.47237,0 3.70857,0 1.18076,-0.088 2.32926,0.07 3.49148,0.2429 1.08632,0.1573 2.18332,0.2057 3.27927,0.2329 1.18951,0.021 2.37924,0.022 3.56889,0.02 1.23402,-0.01 2.46804,-0 3.70207,-9e-4 1.23175,-0 2.46348,-0 3.69523,-0 1.11071,-0 2.22143,-0 3.33214,-0 0.99544,-9e-4 1.99087,-10e-4 2.98631,-0 1.00236,8e-4 2.00473,-0 3.00708,0 1.2478,0.01 2.49561,0 3.74342,0 1.29584,0 2.59167,7e-4 3.88751,-0 1.12457,-0.01 2.24913,-2e-4 3.37369,-6e-4 1.14309,-0 2.28617,9e-4 3.42926,4e-4 1.25534,0 2.51069,0 3.76604,0 1.29326,-6e-4 2.58653,0 3.87979,0 1.39971,0 2.79942,-10e-5 4.19913,0 1.4079,-0 2.8158,-10e-5 4.2237,0 1.50729,5e-4 3.01457,10e-5 4.52186,3e-4 1.49418,10e-4 2.98836,-0 4.48255,-0 1.6836,0.01 3.36721,0.01 5.05083,0.01 1.47878,-0.01 2.95757,-0.01 4.43636,-0.01 1.41233,-0.076 2.80666,0.1644 4.20622,0.3117 1.33087,0.1291 2.66827,0.1579 4.00439,0.1731 1.36741,0.01 2.73483,0.012 4.10227,0.01 1.38975,-0 2.7795,-0.01 4.16925,-0 1.51453,-0 3.02906,0 4.54359,0.01 1.54358,-0 3.08715,-0 4.63073,-0.01 1.51748,-0.081 3.01713,0.085 4.52281,0.2423 1.42773,0.155 2.86284,0.2055 4.29763,0.2357 1.32355,0.047 2.65234,-0.056 3.96987,0.088 1.26166,0.1891 2.52968,0.3064 3.80339,0.3681 1.22322,0.049 2.4477,0.048 3.67168,0.047 1.16383,-0 2.32765,0 3.49148,0 1.15617,-0 2.31234,-0 3.46851,-0.01 1.00009,-0 2.00018,-0 3.00027,-0 1.16211,0 2.32423,0 3.48635,0.01 1.12419,-9e-4 2.24838,-0 3.37257,-0 0.99738,-10e-4 1.99475,-0 2.99213,-0 1.07497,-0 2.14993,0 3.22489,0.01 1.24243,-6e-4 2.48485,-7e-4 3.72728,-5e-4 1.42387,0 2.84773,0.01 4.27161,0 1.24095,-0.01 2.48187,-0.01 3.72282,-0 1.22834,0 2.45668,-0 3.68502,-0 1.13301,0 2.26602,0 3.39905,3e-4 1.02933,-0 2.05867,-0 3.08801,-0 1.05844,-0 2.11685,0 3.17529,0 1.18812,0 2.37623,0 3.56435,-3e-4 1.19794,-0.026 2.38195,-0.2629 3.57793,-0.3683 1.16241,-0.094 2.32877,-0.1196 3.4945,-0.1244 1.44028,-0.1946 2.88547,-0.3279 4.33665,-0.4046 1.31297,-0.065 2.62749,-0.083 3.94182,-0.091 1.0217,0.029 2.01948,0.015 3.02467,-0.1666 0.976,-0.191 1.96778,-0.2608 2.95952,-0.3015 0.98604,-0.03 1.9727,-0.028 2.9591,-0.028 0.98527,10e-4 1.97055,0 2.95582,0 0.92388,0.098 1.79651,-0.2005 2.70081,-0.3203 1.04799,-0.1244 2.10386,-0.1501 3.15798,-0.167 1.00289,-0.011 2.00587,-0.01 3.0088,-0.01 0.9853,0 1.97059,0 2.95589,0 0.988,-0.018 1.95755,-0.2641 2.94068,-0.3755 0.98634,-0.098 1.97821,-0.1091 2.96847,-0.1178 1.11921,0 2.23842,0 3.35763,10e-4 1.01651,0 2.03302,-10e-5 3.04953,-10e-5 0.98511,0 1.97021,0 2.95532,0 0.98473,0 1.96945,0 2.95418,0 1.08262,2e-4 2.16522,0 3.24785,0 1.11321,-0 2.2264,-0 3.3396,0 1.22307,0 2.44615,-0 3.66923,-0 1.01689,-0 2.03379,-0 3.05069,-0 0.98351,-2e-4 1.96702,-10e-5 2.95053,-10e-5 0.98462,0 1.96924,0 2.95386,0 0.98521,0 1.97042,0 2.95563,0 0.9768,-0.18 1.95488,-0.3338 2.94483,-0.4179 1.00542,-0.07 2.01387,-0.076 3.02128,-0.075 1.22983,0 2.45966,0 3.68949,0 1.05144,-0 2.10287,-0 3.1543,-0 0.98562,-3e-4 1.97125,-3e-4 2.95687,-3e-4 0.98421,0 1.96843,0 2.95264,0 0.98515,0 1.9703,0 2.95545,0 0.98524,0 1.97047,0 2.9557,0 1.00452,-0.088 1.93215,0.1333 2.85864,0.4919 0,0 -3.21511,2.1633 -3.21511,2.1633 l 0,0 c -0.89925,-0.3295 -1.81333,-0.4441 -2.77218,-0.3821 -0.98523,0 -1.97046,0 -2.9557,0 -0.98516,0 -1.97031,0 -2.95547,0 -0.98425,0 -1.9685,0 -2.95274,1e-4 -0.98532,0 -1.97064,0 -2.95596,-5e-4 -1.04797,-7e-4 -2.09594,-0 -3.14391,-0.01 -1.23078,-0 -2.46157,-0.01 -3.69233,0 -1.00318,0.012 -2.00792,0.017 -3.0079,0.1076 -0.99346,0.1028 -1.97203,0.303 -2.96655,0.3888 -0.98522,0 -1.97043,0 -2.95564,0 -0.98465,0 -1.9693,0 -2.95395,0 -0.98342,10e-5 -1.96685,10e-5 -2.95027,0 -1.01466,-3e-4 -2.02932,-7e-4 -3.04397,-0 -1.21932,-0 -2.43865,-0.01 -3.65797,-0 -1.11628,0.01 -2.23254,0.01 -3.34883,0 -1.0856,-8e-4 -2.17118,0 -3.25677,0 -0.98475,0 -1.96949,0 -2.95424,10e-5 -0.98498,0 -1.96997,0 -2.95495,-4e-4 -1.01483,-5e-4 -2.02965,-0 -3.04447,-0 -1.12011,-0 -2.24032,-0.01 -3.36038,0.01 -0.98224,0.014 -1.96633,0.034 -2.94275,0.1518 -0.98742,0.1297 -1.96822,0.3667 -2.96913,0.3378 -0.98527,-4e-4 -1.97054,-0 -2.9558,-0 -1.00052,-0 -2.00112,-0 -3.00155,0.011 -1.04604,0.023 -2.09492,0.055 -3.13118,0.2117 -0.90812,0.1596 -1.80441,0.3548 -2.73499,0.2717 -0.98519,-8e-4 -1.97038,-0 -2.95557,-0 -0.98287,0 -1.9662,3e-4 -2.94837,0.043 -0.98372,0.054 -1.96363,0.1506 -2.93221,0.3367 -1.01397,0.1505 -2.03106,0.1163 -3.05405,0.1125 -1.3009,0.01 -2.60228,0.017 -3.9016,0.087 -1.46263,0.093 -2.91478,0.2671 -4.37269,0.408 -1.15697,0.018 -2.31505,0.038 -3.46799,0.1451 -1.20243,0.1208 -2.39614,0.3673 -3.60821,0.3457 -1.18786,-0 -2.37571,-0 -3.56357,-3e-4 -1.06156,10e-5 -2.12309,0.01 -3.18465,0 -1.02706,-4e-4 -2.05413,-10e-4 -3.0812,-0 -1.13324,-0 -2.26648,-10e-4 -3.39972,2e-4 -1.2238,-0 -2.44761,-0.01 -3.67142,-0 -1.23856,0.01 -2.47708,0 -3.71564,-0 -1.42777,-0 -2.85553,0 -4.2833,0 -1.242,2e-4 -2.48399,10e-5 -3.726,-4e-4 -1.08067,0 -2.16134,0.01 -3.24202,0.01 -0.99629,-10e-5 -1.99259,-2e-4 -2.98889,-0 -1.12013,-0 -2.24026,-0 -3.36039,-0 -1.16726,7e-4 -2.33453,0 -3.50178,0.01 -0.99876,-10e-5 -1.99751,-3e-4 -2.99627,-0 -1.15111,-0 -2.30221,-0 -3.45332,-0 -1.16787,0 -2.33574,0.011 -3.50362,0.01 -1.2254,-0.01 -2.45113,-0.016 -3.67555,-0.069 -1.27386,-0.076 -2.53985,-0.2136 -3.80464,-0.383 -1.31574,-0.087 -2.63545,-0.024 -3.95315,-0.069 -1.43674,-0.035 -2.87273,-0.1082 -4.30135,-0.2709 -1.50112,-0.1536 -2.99806,-0.2632 -4.50891,-0.2038 -1.53871,-0 -3.07742,-0 -4.61613,-0.01 -1.51937,0 -3.03873,0.01 -4.5581,0.01 -1.38995,0 -2.77991,0 -4.16987,0 -1.37195,0 -2.74403,0.01 -4.11589,-0.01 -1.34219,-0.025 -2.68519,-0.063 -4.02108,-0.2055 -1.38823,-0.1577 -2.77468,-0.3511 -4.17619,-0.2818 -1.47319,-10e-4 -2.94637,0 -4.41955,-0.01 -1.68876,0 -3.37752,-3e-4 -5.06628,0.01 -1.49316,10e-4 -2.98632,-0 -4.47948,-0 -1.50756,2e-4 -3.01511,-2e-4 -4.52267,3e-4 -1.41006,0 -2.82012,0.01 -4.23019,0 -1.40132,0 -2.80264,-0 -4.20396,0 -1.29427,-4e-4 -2.58853,0 -3.88279,0 -1.25718,0 -2.51437,-6e-4 -3.77155,0 -1.14344,-6e-4 -2.28686,0 -3.43029,4e-4 -1.12407,-4e-4 -2.24813,0 -3.3722,-6e-4 -1.29374,-0 -2.58748,-0.01 -3.88122,-0 -1.25162,0 -2.50324,-0 -3.75485,0 -1.00473,0 -2.00947,0 -3.01421,0 -0.99449,-10e-5 -1.98898,-10e-5 -2.98347,-10e-4 -1.10682,-0 -2.21364,-0 -3.32046,-0 -1.22908,4e-4 -2.45815,7e-4 -3.68723,-0 -1.23569,0 -2.47136,0.01 -3.70705,0 -1.19661,-7e-4 -2.39353,0.01 -3.58989,-0.019 -1.10351,-0.039 -2.20664,-0.1074 -3.2994,-0.2736 -1.14765,-0.1673 -2.28759,-0.2623 -3.45004,-0.2033 -1.23813,-0 -2.47623,0 -3.71435,0 -1.33586,-0 -2.671714,-0.01 -4.007575,-0.01 -1.471252,-7e-4 -2.942525,0.01 -4.413758,-0 -1.396071,-0.012 -2.793168,-0.037 -4.185484,-0.1481 -1.330773,-0.1136 -2.652705,-0.3592 -3.991307,-0.3411 -1.272554,-1e-4 -2.545106,0 -3.817658,0 -1.211524,10e-4 -2.423041,0 -3.634568,-10e-5 -1.246762,5e-4 -2.493755,0.01 -3.74028,-0.02 -1.124072,-0.033 -2.247453,-0.094 -3.359674,-0.2711 -1.054669,-0.1513 -2.1048,-0.252 -3.172399,-0.196 -1.056914,4e-4 -2.11383,0 -3.170742,-0 -1.215143,-0 -2.431095,-0 -3.644981,-0.066 -1.231068,-0.074 -2.452487,-0.2201 -3.668828,-0.4261 -1.107243,-0.1229 -2.22583,-0.1523 -3.32047,-0.3788 -1.024689,-0.1547 -2.053462,-0.1195 -3.08764,-0.1178 -1.233907,-0 -2.467809,-0 -3.701716,-0 -1.245849,-0 -2.491683,0 -3.737529,0 -1.176384,-0 -2.352755,0 -3.529135,-0 -1.221852,-0 -2.443695,-0 -3.665536,0.01 -1.029145,-4e-4 -2.05829,-0 -3.087433,-0 -1.106257,-0 -2.212508,-0 -3.31876,2e-4 -0.981484,-9e-4 -1.963068,-0 -2.944447,0.013 -0.919315,0.023 -1.841995,0.054 -2.749474,0.2159 -0.888814,0.1666 -1.767528,0.3456 -2.679622,0.2663 -1.045286,-6e-4 -2.090572,-0 -3.135857,-0 -1.12914,-0 -2.258425,-0.01 -3.38745,0.012 0,0 3.152602,-2.2905 3.152602,-2.2905 z"
       inkscape:connector-curvature="0" />
    <path
       style="fill:#b3b3b3;fill-opacity:1"
       d="m 30.627481,1025.9273 c -4.820888,0.2269 -10.027689,-0.2273 -14.576449,0.9598 -0.453868,5.8939 0.443763,11.972 1.029651,17.898 3.150657,0.9415 6.993357,-0.1704 10.420967,-0.025 31.677151,-0.7544 63.377732,-0.015 95.0428,0.9653 16.71236,0.7386 33.36101,2.6599 50.10805,2.5949 25.92953,0.9664 51.89321,0.2957 77.83325,0.072 26.93275,-0.1868 53.67232,-3.9536 80.58752,-4.6279 16.46829,-0.7553 33.05208,-0.2943 49.36948,-2.9819 3.44004,0.6843 4.22995,-1.4431 3.41983,-4.5671 -0.21805,-2.8942 -0.33648,-6.3182 -0.0177,-8.9489 -17.0486,-0.4639 -34.24001,-0.01 -51.33918,0.1953 -19.1009,0.2336 -38.17654,1.2795 -57.25059,2.161 -24.14033,0.4512 -48.28517,0.1332 -72.41282,-0.6438 -47.11235,-0.9261 -94.25752,-0.3646 -141.348467,-2.2086 -10.260265,-0.9547 -20.571693,-0.8757 -30.866342,-0.8432 z"
       id="path3003"
       inkscape:connector-curvature="0" />
    <path
       style="fill:#000000;fill-opacity:1"
       id="path3007"
       d="m 25.060916,1039.6056 c 0.590402,0.01 1.180921,0.01 1.771381,0.01 0.665403,0.016 1.333648,-0.039 1.995907,0.035 0.616807,0.1006 1.238371,0.1553 1.862119,0.1861 0.732429,0.089 1.445364,0.2772 2.174103,0.39 0.676822,0.075 1.357603,0.1491 2.018149,0.3199 0.61013,0.171 1.238422,0.2365 1.868497,0.2744 0.604748,0.1172 1.212335,0.1949 1.82678,0.2347 0.683013,0 1.355609,0.1232 2.033295,0.195 0.572403,0.1238 1.145317,0.2352 1.728562,0.2913 0.560206,0.041 1.122307,0.041 1.683683,0.042 0.529273,0.088 1.057402,0.1674 1.592671,0.2068 0.544112,0.034 1.089441,0.036 1.634378,0.038 0.546819,4e-4 1.09363,0 1.64045,3e-4 0.546647,-0 1.093289,-9e-4 1.639936,-3e-4 0.547849,-10e-5 1.095698,-10e-4 1.643547,-0 0.49809,-4e-4 0.99618,-4e-4 1.494271,-5e-4 0.528191,-10e-4 1.056373,0 1.584563,0 0.557659,-0 1.115312,-3e-4 1.672968,3e-4 0.616455,0 1.23292,6e-4 1.849376,-6e-4 0.550018,-0 1.10003,5e-4 1.650048,4e-4 0.557189,-0 1.114373,-4e-4 1.671561,2e-4 0.608227,0 1.216451,9e-4 1.824679,-2e-4 0.521018,-0 1.042037,-0 1.563055,-0 0.492386,-2e-4 0.984773,-2e-4 1.477159,-2e-4 0.491919,0 0.983838,0 1.475758,0 0.630289,0 1.260584,0 1.890879,0 0.594178,-9e-4 1.188355,-0 1.782533,-0 0.500071,-7e-4 1.000143,-7e-4 1.500215,-8e-4 0.491262,0 0.982524,0 1.473786,0 0.436326,-0 0.858437,-0.1365 1.291861,-0.1904 0.470171,-0.049 0.943358,-0.052 1.415546,-0.056 0.492055,-0 0.984118,-10e-4 1.476175,-4e-4 0.492672,6e-4 0.985345,8e-4 1.478018,9e-4 0.49239,10e-5 0.98478,10e-5 1.47717,10e-5 0.502989,-0.037 0.991084,0.089 1.485263,0.16 0.487291,0.065 0.9792,0.077 1.470038,0.084 0.491354,0.091 0.983071,0.1699 1.481147,0.2119 0.48995,0.034 0.98135,0.036 1.472245,0.038 0.492239,7e-4 0.984479,-4e-4 1.476718,-9e-4 0.492383,-5e-4 0.984767,-6e-4 1.477151,-7e-4 0.492368,0 0.984737,0 1.477106,0 0.492366,0 0.984731,0 1.477097,0 0.492366,0 0.984731,0 1.477097,0 0.492366,0 0.984731,0 1.477097,0 0.492366,0 0.984731,0 1.477097,0 0.492366,0 0.984731,0 1.477097,0 0.492362,0 0.984732,0 1.477102,0 0.49236,0 0.98473,0 1.47709,0 0.49237,0 0.98473,0 1.4771,0 0.49237,0 0.98473,0 1.4771,0 0.49236,0 0.98473,0 1.47709,0 0.47282,-0.01 0.94733,0.068 1.38963,-0.1262 0.71641,-0.3054 0.32925,-0.1492 -1.28383,0.7537 -0.0597,0.033 0.11836,-0.069 0.17554,-0.1065 0.15825,-0.1041 0.30153,-0.2268 0.44403,-0.3509 0.22199,-0.2757 0.44797,-0.554 0.63789,-0.8533 0.22598,-0.3297 0.41295,-0.6784 0.59098,-1.0352 0.1107,-0.2356 0.26344,-0.4465 0.39153,-0.6722 0,0 1.76941,-0.7976 1.76941,-0.7976 l 0,0 c -0.1134,0.2401 -0.27507,0.4398 -0.39258,0.6762 -0.19932,0.3425 -0.32759,0.7272 -0.58603,1.0363 -0.1634,0.3317 -0.42894,0.5878 -0.61628,0.9054 -0.70454,0.7594 -1.75962,1.204 -2.65946,1.6335 -0.46629,0.1185 -0.94711,0.062 -1.42437,0.073 -0.49237,0 -0.98473,0 -1.4771,0 -0.49237,0 -0.98473,0 -1.4771,0 -0.49236,0 -0.98473,0 -1.47709,0 -0.49237,0 -0.98474,0 -1.477102,0 -0.492366,0 -0.984731,0 -1.477097,0 -0.492366,0 -0.984731,0 -1.477097,0 -0.492366,0 -0.984731,0 -1.477097,0 -0.492366,0 -0.984731,0 -1.477097,0 -0.492366,0 -0.984732,0 -1.477097,0 -0.492366,0 -0.984732,0 -1.477098,0 -0.492362,0 -0.984725,0 -1.477088,0 -0.492347,1e-4 -0.984695,3e-4 -1.477043,8e-4 -0.492491,6e-4 -0.984986,0 -1.477476,-10e-5 -0.494272,-0 -0.989214,-0.01 -1.48195,-0.051 -0.493851,-0.05 -0.980117,-0.1458 -1.473046,-0.2004 -0.495991,-0.012 -0.992852,-0.03 -1.484153,-0.1049 -0.487592,-0.075 -0.97223,-0.1726 -1.468911,-0.1365 -0.492397,0 -0.984795,0 -1.477192,-10e-5 -0.492698,-10e-5 -0.985397,-4e-4 -1.478095,-10e-4 -0.491697,-5e-4 -0.983413,-0 -1.475095,0 -0.468698,0.01 -0.938799,0.015 -1.404003,0.078 -0.433482,0.067 -0.861896,0.1902 -1.304422,0.1664 -0.491267,0 -0.982534,0 -1.473801,0 -0.499324,-10e-5 -0.998649,-2e-4 -1.497973,-8e-4 -0.590851,-10e-4 -1.1817,-0 -1.77255,-0 -0.634356,-10e-5 -1.268711,0 -1.903061,0 -0.491936,0 -0.983871,0 -1.475807,0 -0.492253,0 -0.984507,0 -1.476761,-2e-4 -0.519451,-2e-4 -1.038902,-6e-4 -1.558352,-0 -0.607974,-0 -1.215944,-0 -1.823917,-2e-4 -0.557396,6e-4 -1.114788,0 -1.672185,2e-4 -0.550342,-10e-5 -1.100679,0 -1.651021,3e-4 -0.615906,-0 -1.23182,-0 -1.847725,-6e-4 -0.557948,6e-4 -1.115892,0 -1.673842,4e-4 -0.529851,0 -1.059694,0 -1.589546,0 -0.497628,-10e-5 -0.995256,-2e-4 -1.492884,-6e-4 -0.546478,-5e-4 -1.092957,-0 -1.639436,-0 -0.546956,8e-4 -1.093909,0 -1.640868,0 -0.548088,10e-5 -1.09617,0 -1.644253,9e-4 -0.546569,-0 -1.093537,-0.011 -1.638864,-0.052 -0.532144,-0.045 -1.055965,-0.1399 -1.586727,-0.1934 -0.565708,-0 -1.132254,-0.01 -1.696255,-0.057 -0.578763,-0.068 -1.145612,-0.1952 -1.718506,-0.2992 -0.675359,-0.078 -1.348784,-0.1758 -2.029716,-0.1879 -0.614933,-0.046 -1.221041,-0.1355 -1.829544,-0.2324 -0.63758,-0.048 -1.270672,-0.1296 -1.888624,-0.3006 -0.659099,-0.1516 -1.329711,-0.2316 -2.000153,-0.3139 -0.723452,-0.1216 -1.436336,-0.3057 -2.168818,-0.3683 -0.625463,-0.034 -1.247074,-0.1028 -1.867061,-0.192 -0.658996,-0.047 -1.321052,-0.012 -1.981325,-0.024 -0.598889,0 -1.197833,2e-4 -1.796667,0.01 0,0 1.575517,-1.1447 1.575517,-1.1447 z"
       inkscape:connector-curvature="0" />
    <path
       style="fill:#000000;fill-opacity:1"
       id="path3009"
       d="m 31.252328,1035.9568 c 0.664727,0.1421 1.323737,0.2917 2.000141,0.3728 0.730927,0.061 1.452676,0.1971 2.168865,0.3509 0.719094,0.1634 1.458647,0.1608 2.186663,0.2512 0.820716,0.08 1.627799,0.2483 2.44479,0.3568 0.863619,0.07 1.726578,0.1602 2.581457,0.3037 0.863163,0.1313 1.724865,0.2718 2.589157,0.3962 0.855353,0.099 1.71376,0.1244 2.568758,0.2261 0.84292,0.068 1.674819,0.2192 2.514543,0.3153 0.752121,0.1497 1.510044,0.254 2.274783,0.3075 0.700606,0.024 1.394972,0.027 2.090121,0.1204 0.656339,0.064 1.304507,0.1726 1.955898,0.2726 0.574891,0.089 1.156034,0.1161 1.736742,0.1311 0.604764,0.01 1.209631,0.01 1.814446,0.01 0.643959,-0 1.287918,-0 1.931877,-0 0.666006,-0 1.332008,0 1.998014,0 0.614623,-10e-4 1.229244,-0 1.843867,-0 0.538055,-0 1.076102,8e-4 1.614156,8e-4 0.533914,-4e-4 1.067827,-0 1.60174,-0 0.495537,-3e-4 0.991075,-3e-4 1.486612,-3e-4 0.491917,0 0.983835,0 1.475752,0 0.492287,0 0.984575,0 1.476863,0 0.492368,0 0.984736,0 1.477103,0 0.559083,0 1.118179,0 1.677267,10e-4 0.489473,0.01 0.966705,0.02 1.444983,-0.088 0.469519,-0.1132 0.952741,-0.1282 1.432999,-0.1455 0.535018,0.025 1.054384,-0.101 1.58058,-0.1747 0.566794,-0.074 1.13944,-0.074 1.709944,-0.08 0.578472,-0.01 1.156974,-0.01 1.735465,-0.01 0.500029,1e-4 1.000059,3e-4 1.500088,4e-4 0.418974,-0.098 0.839764,-0.172 1.268334,-0.2105 0.477591,-0.034 0.956724,-0.035 1.435291,-0.037 0.492555,-8e-4 0.98511,3e-4 1.477665,8e-4 0.452521,0.048 0.880623,-0.09 1.321515,-0.1626 0.460156,-0.066 0.925673,-0.074 1.38964,-0.081 0.494704,0.013 0.97712,0 1.463816,-0.085 0.469079,-0.038 0.910693,-0.1656 1.363746,-0.2792 0.446944,-0.1 0.905954,-0.114 1.36185,-0.1259 0.449251,0.039 0.87455,-0.097 1.312592,-0.1686 0.460668,-0.065 0.926549,-0.073 1.390905,-0.08 0.435234,-0.01 0.856124,-0.1398 1.288974,-0.1929 0.4706,-0.048 0.94412,-0.051 1.41667,-0.055 0.49209,-0 0.98419,-8e-4 1.47629,-2e-4 0.49267,6e-4 0.98534,8e-4 1.478,9e-4 0.49005,-0.017 0.98505,0.04 1.47025,-0.039 0.68274,-0.1125 1.74606,-0.7751 -1.04003,0.7081 -0.0546,0.029 0.10124,-0.072 0.14353,-0.1174 0.10802,-0.1152 0.12248,-0.1859 0.18317,-0.3294 0.069,-0.2114 0.0835,-0.4326 0.10143,-0.6524 0,0 1.7293,-0.8665 1.7293,-0.8665 l 0,0 c -0.0127,0.2335 -0.0233,0.468 -0.075,0.697 -0.30282,1.072 -1.53945,1.5624 -2.59206,1.7149 -0.49356,0.04 -0.98933,0.013 -1.48411,0.02 -0.4927,-10e-5 -0.98539,-4e-4 -1.47809,-10e-4 -0.49175,-6e-4 -0.98351,-0 -1.47524,0 -0.46908,0.01 -0.93955,0.014 -1.405223,0.077 -0.432259,0.066 -0.858786,0.1884 -1.299709,0.1726 -0.460275,0.011 -0.922236,0.026 -1.376754,0.106 -0.439636,0.082 -0.874581,0.1713 -1.325555,0.1447 -0.45,0.018 -0.90237,0.045 -1.339508,0.1623 -0.451455,0.1207 -0.90649,0.1999 -1.369854,0.2618 -0.49186,0.073 -0.984906,0.059 -1.481184,0.064 -0.459869,0.011 -0.921404,0.027 -1.375384,0.1078 -0.443676,0.083 -0.882347,0.1723 -1.337575,0.1324 -0.492356,-5e-4 -0.984718,-0 -1.477071,4e-4 -0.475848,0 -0.952615,0.01 -1.426609,0.054 -0.4287,0.051 -0.847701,0.156 -1.277581,0.1923 -0.499383,-2e-4 -0.998766,-7e-4 -1.498148,-0 -0.57544,-0 -1.150909,-0 -1.726327,0 -0.568843,0.01 -1.139321,0.023 -1.703157,0.1063 -0.527914,0.08 -1.053187,0.1744 -1.589948,0.1572 -0.47855,0.024 -0.955823,0.063 -1.423315,0.1748 -0.48338,0.082 -0.971807,0.048 -1.460299,0.053 -0.560022,-7e-4 -1.120052,-0 -1.680069,10e-4 -0.492369,0 -0.984737,0 -1.477105,0 -0.492292,0 -0.984585,0 -1.476878,0 -0.491918,0 -0.983837,0 -1.475756,0 -0.495232,0 -0.990463,-10e-5 -1.485695,-4e-4 -0.532563,-3e-4 -1.065126,-10e-4 -1.59769,-0 -0.538822,0 -1.077637,0 -1.61646,9e-4 -0.610658,-0 -1.221314,-0 -1.831972,-0 -0.668154,0 -1.336304,0 -2.004458,0 -0.643108,-6e-4 -1.286213,9e-4 -1.929321,8e-4 -0.607713,0 -1.215518,0 -1.823133,-0.01 -0.584198,-0.017 -1.167563,-0.059 -1.744648,-0.1557 -0.649847,-0.1041 -1.300561,-0.1909 -1.954226,-0.2671 -0.690194,-0.084 -1.383639,-0.074 -2.077072,-0.1169 -0.765994,-0.058 -1.521745,-0.1836 -2.277927,-0.3162 -0.837716,-0.1057 -1.670681,-0.2457 -2.512643,-0.3162 -0.855301,-0.1 -1.716609,-0.1159 -2.570343,-0.2317 -0.863046,-0.1302 -1.725862,-0.2613 -2.587478,-0.4001 -0.858896,-0.1299 -1.722419,-0.2212 -2.587692,-0.2949 -0.813444,-0.1197 -1.621166,-0.2784 -2.440771,-0.3531 -0.735867,-0.073 -1.478757,-0.096 -2.202435,-0.2635 -0.712,-0.1522 -1.431193,-0.2726 -2.156645,-0.3394 -0.683039,-0.09 -1.349206,-0.2553 -2.028757,-0.3621 0,0 1.590303,-1.1157 1.590303,-1.1157 z"
       inkscape:connector-curvature="0" />
    <path
       style="fill:#000000;fill-opacity:1"
       id="path3011"
       d="m 44.016995,1032.4663 c 0.670314,0.083 1.330619,0.217 1.994988,0.3365 0.812067,0.1091 1.626071,0.21 2.433207,0.3529 1.03094,0.2091 2.061683,0.3809 3.110338,0.471 1.149275,0.1013 2.303828,0.1741 3.45003,0.3077 1.124371,0.1677 2.26248,0.1791 3.392247,0.2828 1.023136,0.1153 2.050736,0.1756 3.079343,0.211 0.881956,0.022 1.76433,0.023 2.646516,0.021 0.696435,-0 1.392876,-0 2.089316,-0 0.654925,-0 1.309852,-3e-4 1.964779,-6e-4 0.650303,0 1.300604,-0 1.950906,-8e-4 0.635872,0 1.27174,6e-4 1.907612,-8e-4 0.583357,2e-4 1.166714,2e-4 1.750073,-6e-4 0.63058,0 1.261159,0 1.891742,0 0.540242,-0 1.080484,-0 1.620727,-0 0.493592,-3e-4 0.987185,-3e-4 1.480777,-3e-4 0.568296,0.042 1.120774,-0.034 1.679901,-0.1219 0.551179,-0.089 1.110224,-0.1029 1.667209,-0.1167 0.590573,-0.01 1.181192,-0.01 1.771797,-0.01 0.541155,-9e-4 1.082296,2e-4 1.623441,0 0.540542,-0.075 1.077759,-0.1653 1.621948,-0.2113 0.502695,-0.035 1.006924,-0.038 1.51063,-0.038 0.613845,0 1.227688,0 1.841537,0 0.59212,0 1.184247,7e-4 1.776369,-2e-4 0.510211,-0 1.010582,-0.1313 1.517626,-0.1888 0.499782,-0.011 0.981196,-0.1438 1.473116,-0.2187 0.540217,-0.073 1.086618,-0.076 1.630761,-0.083 0.531285,0.037 1.043956,-0.042 1.565042,-0.1277 0.459368,-0.024 0.885236,-0.1923 1.333054,-0.2791 0.459543,-0.075 0.926203,-0.081 1.390623,-0.088 0.49107,-0 0.98217,-0 1.47325,-0 0.4797,-0.023 0.96962,0.052 1.4427,-0.04 0.79401,-0.4404 -0.90231,0.5233 -1.36598,0.7616 -0.0485,0.025 0.0774,-0.078 0.10927,-0.1218 0.1254,-0.174 0.19631,-0.3756 0.26623,-0.5756 0.0759,-0.2997 0.0431,-0.1478 0.0979,-0.4559 0,0 1.73645,-0.8502 1.73645,-0.8502 l 0,0 c -0.0467,0.3235 -0.0186,0.1633 -0.084,0.4808 -0.3171,1.1122 -0.92077,1.6072 -2.31129,1.9205 -0.48376,0.038 -0.97012,0.01 -1.455,0.016 -0.49049,-7e-4 -0.98103,-0 -1.47147,0.01 -0.459084,0.011 -0.920936,0.025 -1.371944,0.1202 -0.442616,0.1028 -0.877941,0.2325 -1.333759,0.2681 -0.52439,0.085 -1.046418,0.1227 -1.578356,0.1025 -0.540704,0.01 -1.083337,0.022 -1.618355,0.1088 -0.49115,0.084 -0.978093,0.1901 -1.477587,0.2126 -0.508215,0.066 -1.013463,0.1853 -1.528646,0.1679 -0.591333,-10e-4 -1.182668,-0 -1.774001,-0 -0.614345,-0 -1.228696,-0 -1.843034,10e-4 -0.501426,0.01 -1.003571,0.01 -1.503452,0.053 -0.543015,0.054 -1.079832,0.157 -1.624624,0.1912 -0.542914,0 -1.085819,0 -1.628738,6e-4 -0.589168,-0 -1.178472,-0 -1.767497,0.012 -0.553372,0.017 -1.10712,0.044 -1.654016,0.1365 -0.564827,0.084 -1.129092,0.1243 -1.700744,0.101 -0.493328,0 -0.986656,0 -1.479984,-2e-4 -0.537974,-4e-4 -1.075947,-0 -1.61392,-0 -0.63176,-0 -1.263516,-9e-4 -1.895274,0 -0.582753,-9e-4 -1.165503,-9e-4 -1.748254,-7e-4 -0.635121,-0 -1.270239,-0 -1.90536,-8e-4 -0.649602,0 -1.299202,-0 -1.948804,-8e-4 -0.654775,-2e-4 -1.309549,8e-4 -1.964323,5e-4 -0.693839,-10e-5 -1.387682,0 -2.081517,-0 -0.880285,-0 -1.760652,-0.01 -2.640597,-0.034 -1.027732,-0.038 -2.053162,-0.1176 -3.075946,-0.2254 -1.131732,-0.095 -2.26925,-0.1253 -3.395197,-0.2867 -1.14521,-0.1268 -2.296076,-0.2079 -3.443925,-0.3063 -1.055442,-0.097 -2.093878,-0.2727 -3.1342,-0.4721 -0.813868,-0.1291 -1.631326,-0.2325 -2.447125,-0.3469 -0.662092,-0.1247 -1.324976,-0.2611 -2.000073,-0.2897 0,0 1.575517,-1.1447 1.575517,-1.1447 z"
       inkscape:connector-curvature="0" />
    <path
       style="fill:#000000;fill-opacity:1"
       id="path3013"
       d="m 108.4495,1030.7744 c 0.0203,0.4669 0.16391,0.9063 0.29469,1.35 0.12553,0.3878 0.0566,0.8436 0.36411,1.1448 0.35638,0.1965 0.78253,0.1844 1.17864,0.1942 0.49146,0 0.98295,-0 1.4744,-0 0.4938,-0 0.98761,-0 1.48142,-0 0.49247,-2e-4 0.98494,-10e-5 1.47741,-10e-5 0.49235,0 0.9847,0 1.47705,0 0.49237,0 0.98473,0 1.47709,0 0.49237,0 0.98473,0 1.4771,0 0.49237,0 0.98473,0 1.4771,0 0.49236,0 0.98473,0 1.47709,0 0.49237,0 0.98474,0 1.4771,0 0.49237,0 0.98473,0 1.4771,0 0.49236,0 0.98473,0 1.4771,0 0.49236,0 0.98473,0 1.47709,0 0.49237,0 0.98473,0 1.4771,0 0.49237,0 0.98473,0 1.4771,0 0.49236,0 0.98473,0 1.47709,0 0.50159,4e-4 1.00318,-0 1.50477,0 0.55563,0 1.11126,10e-5 1.66689,-5e-4 0.50247,-5e-4 1.00494,-7e-4 1.50742,-7e-4 0.49201,-10e-5 0.98403,-10e-5 1.47604,-10e-5 0.49219,0 0.98438,0 1.47656,0 0.55908,0 1.11817,0 1.67725,10e-4 0.34957,-3e-4 0.17565,-2e-4 0.52175,-5e-4 0,0 -1.56213,1.135 -1.56213,1.135 l 0,0 c -0.34522,-3e-4 -0.17176,-2e-4 -0.52037,-5e-4 -0.56001,-7e-4 -1.12004,-0 -1.68005,10e-4 -0.49219,0 -0.98439,0 -1.47658,0 -0.49198,0 -0.98396,0 -1.47595,0 -0.50181,-10e-5 -1.00363,-3e-4 -1.50544,-8e-4 -0.55513,-5e-4 -1.11025,-0 -1.66538,-5e-4 -0.50277,0 -1.00555,9e-4 -1.50832,0 -0.49237,0 -0.98473,0 -1.4771,0 -0.49237,0 -0.98473,0 -1.4771,0 -0.49236,0 -0.98473,0 -1.47709,0 -0.49237,0 -0.98474,0 -1.4771,0 -0.49237,0 -0.98473,0 -1.4771,0 -0.49236,0 -0.98473,0 -1.4771,0 -0.49236,0 -0.98473,0 -1.47709,0 -0.49237,0 -0.98473,0 -1.4771,0 -0.49237,0 -0.98473,0 -1.4771,0 -0.49236,0 -0.98473,0 -1.47709,0 -0.49237,0 -0.98473,0 -1.4771,0 -0.49235,0 -0.9847,-10e-5 -1.47705,-10e-5 -0.49242,0 -0.98485,0 -1.47727,3e-4 -0.49357,5e-4 -0.98714,0 -1.48069,0 -0.49337,0 -0.98689,0.01 -1.48019,-0 -0.44139,-0.019 -0.90788,-0.031 -1.27039,-0.3161 -0.30846,-0.3539 -0.30297,-0.7864 -0.40236,-1.2273 -0.1325,-0.4605 -0.27361,-0.9147 -0.33141,-1.3929 0,0 1.73519,-0.8841 1.73519,-0.8841 z"
       inkscape:connector-curvature="0" />
    <path
       style="fill:#000000;fill-opacity:1"
       id="path3015"
       d="m 112.14224,1035.698 c 4.9e-4,0.4841 -0.10088,1.0039 0.18066,1.4272 0.32014,0.272 0.76427,0.2634 1.16298,0.2783 0.49178,0.01 0.98367,-10e-5 1.47546,-0 0.49393,-0 0.98786,-0 1.4818,-0.01 0.49247,-4e-4 0.98494,-3e-4 1.47742,-3e-4 0.49234,0 0.98469,10e-5 1.47704,10e-5 0.49236,0 0.98473,0 1.47709,0 0.5287,-10e-4 1.05738,0 1.58608,0 0.53729,0.017 1.0792,-0.041 1.61209,0.037 0.49922,0.1006 1.00412,0.1565 1.512,0.1857 0.60238,0.026 1.20546,0.026 1.80828,0.026 0.48465,-0.013 0.95558,0.1244 1.43447,0.1843 0.46665,0.05 0.93642,0.054 1.40518,0.058 0.49099,0 0.98199,0 1.47298,7e-4 0.32847,-4e-4 0.65694,-6e-4 0.98542,-8e-4 0,0 -1.56348,1.1361 -1.56348,1.1361 l 0,0 c -0.32844,2e-4 -0.65689,4e-4 -0.98533,8e-4 -0.49162,6e-4 -0.98325,0 -1.47485,-0 -0.47443,-0.01 -0.95008,-0.015 -1.42132,-0.076 -0.46883,-0.068 -0.9331,-0.1927 -1.41037,-0.1703 -0.60601,-0 -1.21246,-0 -1.81784,-0.033 -0.51094,-0.033 -1.01596,-0.1062 -1.52054,-0.1924 -0.53025,-0.044 -1.06362,-0.011 -1.59523,-0.022 -0.53037,10e-5 -1.06072,0 -1.59109,0 -0.49236,0 -0.98473,0 -1.47709,0 -0.49235,0 -0.9847,0 -1.47705,0 -0.49241,-10e-5 -0.98482,-10e-5 -1.47724,4e-4 -0.49363,7e-4 -0.98726,0 -1.48087,0.01 -0.49439,0 -0.9891,0.013 -1.48331,-0 -0.46035,-0.03 -0.93711,-0.068 -1.26713,-0.4302 -0.28904,-0.468 -0.23592,-0.9876 -0.2414,-1.5198 0,0 1.73519,-0.8841 1.73519,-0.8841 z"
       inkscape:connector-curvature="0" />
    <path
       style="fill:#000000;fill-opacity:1"
       id="path3017"
       d="m 113.6397,1040.1124 c 0.12667,0.5132 0.31748,1.0142 0.55034,1.4886 0.15523,0.4204 0.43429,0.5896 0.85351,0.6746 0.51006,0.066 1.02651,0.054 1.53974,0.053 0.54864,-0 1.09727,-0.01 1.64593,-0.01 0.54848,-0 1.09696,-0 1.64544,-0 0.4981,-4e-4 0.9962,-4e-4 1.4943,-5e-4 0.45181,0.047 0.8791,-0.091 1.31926,-0.1633 0.45787,-0.08 0.92626,-0.038 1.38215,-0.1201 0.48618,-0.1069 0.98048,-0.1584 1.47657,-0.1877 0.40593,-0.093 0.80363,-0.1805 1.19393,-0.3232 0.41465,-0.1377 0.85267,-0.1617 1.28563,-0.1809 0,0 -1.55874,1.1458 -1.55874,1.1458 l 0,0 c -0.42682,0.029 -0.85443,0.074 -1.25725,0.2282 -0.39464,0.134 -0.80815,0.2132 -1.21932,0.2765 -0.49354,0.038 -0.98218,0.1068 -1.46846,0.1995 -0.46009,0.048 -0.92593,0.04 -1.38207,0.128 -0.44289,0.083 -0.88076,0.1726 -1.33525,0.1332 -0.49763,0 -0.99525,-10e-5 -1.49288,-5e-4 -0.54699,-4e-4 -1.09398,-0 -1.64097,2e-4 -0.54911,0 -1.09821,0.01 -1.64732,0.01 -0.5255,-7e-4 -1.05785,0.016 -1.576,-0.085 -0.45116,-0.1304 -0.77021,-0.3667 -0.93921,-0.8213 -0.23437,-0.4915 -0.41792,-1.0076 -0.58634,-1.5249 0,0 1.71701,-0.918 1.71701,-0.918 z"
       inkscape:connector-curvature="0" />
    <path
       style="fill:#000000;fill-opacity:1"
       id="path3019"
       d="m 122.79551,1038.6209 c 0.53405,-0.03 1.05208,0.04 1.57628,0.1291 0.44736,0.026 0.8637,0.1887 1.29934,0.2769 0.46441,0.035 0.91498,0.1293 1.37182,0.2153 0.48315,0.086 0.97413,0.1052 1.46364,0.1174 0.50452,-0.033 0.99122,0.048 1.4858,0.1305 0.48595,0.081 0.97841,0.1015 1.46993,0.1144 0.52284,-0.013 1.03432,0.012 1.55066,0.09 0.54061,0.09 1.08691,0.1288 1.63385,0.15 0.4975,0.015 0.99529,0.014 1.49296,0.013 0.49189,-6e-4 0.98377,-0 1.47566,-0 0.49226,-3e-4 0.98451,-3e-4 1.47676,-3e-4 0.44224,-0 0.87033,0.1317 1.3082,0.1881 0.46523,0.05 0.93369,0.054 1.40109,0.058 0.50392,-0.039 0.98987,0.043 1.48385,0.1254 0.50133,0.039 0.98751,0.1432 1.47973,0.2396 0.48424,0.091 0.97699,0.1104 1.46821,0.1229 0.4917,0.01 0.98351,0.01 1.47527,0.01 0.55909,0 1.1182,4e-4 1.67729,-5e-4 0.50803,-8e-4 1.01606,-10e-4 1.52408,-0 0.42588,0.086 0.8496,0.1681 1.28256,0.2087 0.47374,0.036 0.94915,0.037 1.42396,0.039 0.50276,-0.036 0.99086,0.089 1.48498,0.1593 0.4876,0.064 0.97975,0.076 1.47085,0.084 0.49197,0.01 0.98398,0 1.47597,0 0.44219,-0 0.8704,0.1307 1.30822,0.187 0.46525,0.05 0.93371,0.054 1.40111,0.058 0.4245,0.09 0.84799,0.1695 1.28031,0.2094 0.47437,0.035 0.95035,0.036 1.42575,0.038 0.49231,8e-4 0.98463,-3e-4 1.47695,-9e-4 0.49263,-4e-4 0.98526,-5e-4 1.47789,-6e-4 0.47869,-0.042 0.93734,0.093 1.40677,0.16 0.5092,0.065 1.02286,0.077 1.53547,0.085 0.47579,-0.037 0.92837,0.035 1.39137,0.1283 0.45705,0.044 0.89941,0.148 1.34854,0.2387 0.48046,0.091 0.96977,0.1102 1.45735,0.1227 0.51058,-0.013 1.00881,0.01 1.51234,0.089 0.54971,0.091 1.10552,0.1288 1.66165,0.1499 0.5015,0.015 1.00329,0.014 1.50495,0.013 0.49199,-6e-4 0.98399,-0 1.47598,-0 0.52381,-0.018 0.86728,-0.035 1.17388,0.4363 0.21232,0.4447 0.12996,0.9228 0.0228,1.3838 -0.0772,0.3177 -0.17691,0.6259 -0.29769,0.9294 0,0 -1.75764,0.8116 -1.75764,0.8116 l 0,0 c 0.12368,-0.2978 0.24462,-0.5905 0.31226,-0.9078 0.1153,-0.3996 0.2111,-0.8386 0.0435,-1.2355 -0.24346,-0.3618 -0.67067,-0.2823 -1.06061,-0.2817 -0.49201,4e-4 -0.98401,0 -1.47601,0 -0.50268,-6e-4 -1.00555,-8e-4 -1.5079,-0.022 -0.55957,-0.028 -1.11756,-0.078 -1.6711,-0.1672 -0.49997,-0.067 -0.9996,-0.063 -1.50345,-0.068 -0.49495,-0.018 -0.99096,-0.047 -1.47697,-0.1496 -0.44894,-0.094 -0.89831,-0.1691 -1.35213,-0.235 -0.45319,-0.09 -0.90313,-0.1215 -1.36601,-0.1039 -0.51778,-0.012 -1.03641,-0.031 -1.54978,-0.1046 -0.46267,-0.07 -0.91908,-0.1766 -1.39111,-0.1365 -0.49258,10e-5 -0.98517,3e-4 -1.47775,8e-4 -0.49264,6e-4 -0.98529,0 -1.47793,-1e-4 -0.47997,-0 -0.96079,-0.01 -1.43909,-0.051 -0.42621,-0.048 -0.84279,-0.1443 -1.2678,-0.1967 -0.47346,-0.01 -0.94823,-0.014 -1.41841,-0.076 -0.42877,-0.064 -0.85229,-0.1875 -1.28915,-0.1675 -0.49277,5e-4 -0.98558,0 -1.4783,-0.01 -0.4962,-0.012 -0.99325,-0.03 -1.48483,-0.104 -0.48789,-0.075 -0.97283,-0.1709 -1.46965,-0.1368 -0.47946,-0 -0.95977,-0.01 -1.4375,-0.052 -0.426,-0.049 -0.84247,-0.1468 -1.26798,-0.1944 -0.50713,-10e-5 -1.01426,-3e-4 -1.52139,-7e-4 -0.56001,-3e-4 -1.12003,-0 -1.68003,0 -0.49297,4e-4 -0.98606,0 -1.4789,-0.011 -0.49801,-0.018 -0.99684,-0.049 -1.48616,-0.1495 -0.4898,-0.1 -0.98004,-0.1755 -1.47638,-0.2345 -0.4876,-0.081 -0.9721,-0.1239 -1.4674,-0.1006 -0.47347,-0.01 -0.94826,-0.014 -1.41844,-0.076 -0.42881,-0.064 -0.85226,-0.1882 -1.28919,-0.1688 -0.49223,10e-5 -0.98447,10e-5 -1.4767,4e-4 -0.49192,4e-4 -0.98384,0 -1.47576,0 -0.49891,-5e-4 -0.99801,-5e-4 -1.49658,-0.021 -0.54952,-0.028 -1.09715,-0.08 -1.64066,-0.1676 -0.51331,-0.067 -1.02671,-0.063 -1.54371,-0.069 -0.49697,-0.018 -0.99413,-0.049 -1.48457,-0.1358 -0.48871,-0.081 -0.97457,-0.1241 -1.471,-0.109 -0.4962,-0.017 -0.99324,-0.046 -1.48155,-0.1422 -0.4582,-0.089 -0.91721,-0.1506 -1.37885,-0.2163 -0.4289,-0.099 -0.84779,-0.2373 -1.2896,-0.2728 -0.52124,-0.088 -1.04031,-0.1295 -1.5697,-0.094 0,0 1.57552,-1.1447 1.57552,-1.1447 z"
       inkscape:connector-curvature="0" />
    <path
       style="fill:#000000;fill-opacity:1"
       id="path3021"
       d="m 129.44244,1035.4205 c 0.55863,0.01 1.11739,0.01 1.67608,0.01 0.52383,-8e-4 1.04766,-0 1.57149,-0 0.49332,-2e-4 0.98664,-2e-4 1.47996,-2e-4 0.49193,0 0.98387,0 1.4758,0 0.49233,0 0.98465,0 1.47697,0 0.49237,0 0.98474,0 1.47711,0 0.49237,0 0.98474,0 1.4771,0 0.49487,0.014 0.99335,-0.036 1.4837,0.039 0.48656,0.1 0.97912,0.1548 1.47434,0.185 0.48844,0.1088 0.98019,0.1897 1.47862,0.2331 0.48984,0.035 0.9812,0.036 1.47202,0.037 0.5148,-6e-4 1.02959,2e-4 1.54439,6e-4 0.54635,-4e-4 1.0927,-0 1.63905,-0 0.4985,-5e-4 0.99699,-5e-4 1.49548,-6e-4 0.45769,-0.046 0.89336,0.085 1.33927,0.1606 0.45401,0.067 0.91366,0.076 1.3717,0.084 0.49031,0.01 0.98067,0 1.471,0 0.51533,-0 1.03065,-10e-5 1.54598,7e-4 0.54639,0 1.09278,-10e-4 1.63918,-0 0.49848,-4e-4 0.99697,-5e-4 1.49546,-5e-4 0.49191,-10e-5 0.98382,-10e-5 1.47572,-10e-5 0.50476,-0.041 0.99125,0.041 1.48587,0.1248 0.48581,0.081 0.97824,0.1027 1.46974,0.1158 0.4917,0.01 0.98352,0.01 1.47528,0.01 0.49237,-7e-4 0.98473,-0 1.4771,-0 0.49238,-2e-4 0.98475,-2e-4 1.47713,-2e-4 0.49236,0 0.98473,0 1.4771,0 0.49486,0.014 0.99335,-0.036 1.48369,0.039 0.47778,0.1192 0.97812,0.1091 1.45436,0.2246 0.41617,0.1294 0.84718,0.1793 1.28005,0.2081 0.49156,-0.011 0.96735,0.113 1.45078,0.1831 0.48761,0.064 0.97983,0.075 1.47093,0.083 0.48016,-0.01 0.94916,-0.014 1.4196,0.086 0.42898,0.1004 0.86864,0.1297 1.30735,0.1486 0,0 -1.57058,1.1292 -1.57058,1.1292 l 0,0 c -0.44588,-0.025 -0.89054,-0.068 -1.32655,-0.1692 -0.4619,-0.082 -0.92798,-0.052 -1.39546,-0.062 -0.49639,-0.011 -0.99378,-0.029 -1.48546,-0.1034 -0.47993,-0.076 -0.95627,-0.1735 -1.44475,-0.1699 -0.43888,-0.038 -0.87189,-0.1066 -1.29607,-0.2286 -0.47708,-0.087 -0.9645,-0.1167 -1.44094,-0.2124 -0.48885,-0.041 -0.98035,-0.011 -1.4705,-0.02 -0.49237,0 -0.98473,0 -1.4771,0 -0.49235,0 -0.98471,0 -1.47706,3e-4 -0.49237,2e-4 -0.98473,8e-4 -1.4771,0 -0.49298,10e-5 -0.98608,0 -1.47892,-0.012 -0.49698,-0.018 -0.99411,-0.049 -1.48445,-0.1373 -0.48762,-0.082 -0.97214,-0.1258 -1.4676,-0.098 -0.4919,0 -0.9838,1e-4 -1.4757,0 -0.49801,0 -0.99603,-10e-5 -1.49405,-5e-4 -0.54521,-5e-4 -1.09042,-0 -1.63563,-0 -0.51693,0 -1.03386,0 -1.5508,0 -0.49134,5e-4 -0.98272,0 -1.47402,-0.01 -0.4655,-0.011 -0.93263,-0.026 -1.39251,-0.1055 -0.43667,-0.08 -0.86734,-0.1769 -1.31557,-0.1361 -0.49802,0 -0.99604,-10e-5 -1.49405,-4e-4 -0.54516,-4e-4 -1.09031,-0 -1.63547,-5e-4 -0.51666,0 -1.03332,0 -1.54999,0 -0.49435,-0 -0.98945,-0.01 -1.48218,-0.052 -0.49614,-0.053 -0.98327,-0.1512 -1.47557,-0.2287 -0.49691,-0.038 -0.98891,-0.1078 -1.47986,-0.1931 -0.48885,-0.041 -0.98034,-0.011 -1.47049,-0.02 -0.49237,0 -0.98474,0 -1.4771,0 -0.49237,0 -0.98474,0 -1.47711,0 -0.49233,0 -0.98466,0 -1.47698,0 -0.49195,0 -0.9839,0 -1.47584,0 -0.49314,0 -0.98628,0 -1.47942,-2e-4 -0.52239,-3e-4 -1.04477,-7e-4 -1.56715,-0 -0.56429,-7e-4 -1.12865,-0 -1.69288,0.01 0,0 1.57551,-1.1447 1.57551,-1.1447 z"
       inkscape:connector-curvature="0" />
    <path
       style="fill:#000000;fill-opacity:1"
       id="path3023"
       d="m 184.59837,1037.6814 c 0.54931,0.1128 1.10946,0.1546 1.66841,0.184 0.52245,0.023 1.0455,0.023 1.56833,0.023 0.48607,0.019 0.97882,-0.045 1.4596,0.037 0.41286,0.1223 0.85032,0.1147 1.26336,0.2248 0.40501,0.095 0.71556,0.3133 0.91429,0.6759 0.23869,0.3419 0.328,0.7365 0.38293,1.1421 0.0644,0.4877 0.0506,0.9682 -0.0788,1.4428 -0.11346,0.3981 -0.32742,0.7537 -0.46537,1.1416 -0.0959,0.2374 -0.18844,0.4761 -0.29028,0.711 0,0 -1.76878,0.8014 -1.76878,0.8014 l 0,0 c 0.12336,-0.2202 0.18052,-0.4649 0.30473,-0.6861 0.11607,-0.4014 0.33723,-0.7481 0.46842,-1.1439 0.1697,-0.4405 0.16932,-0.9005 0.11601,-1.3655 -0.0468,-0.3841 -0.12465,-0.7539 -0.35317,-1.0761 -0.17328,-0.3174 -0.47658,-0.4646 -0.82405,-0.5396 -0.41486,-0.081 -0.83888,-0.1134 -1.25131,-0.2111 -0.47838,-0.046 -0.96093,-0.01 -1.44088,-0.019 -0.52358,-0 -1.04744,-0.01 -1.57031,-0.035 -0.56967,-0.037 -1.13818,-0.093 -1.70055,-0.1941 0,0 1.59745,-1.1131 1.59745,-1.1131 z"
       inkscape:connector-curvature="0" />
    <path
       style="fill:#000000;fill-opacity:1"
       id="path3025"
       d="m 134.3661,1030.2507 c 0.561,0.022 1.1242,-0.027 1.68175,0.044 0.64292,0.1064 1.29218,0.1566 1.94249,0.1872 0.66208,0.025 1.32474,0.025 1.98719,0.024 0.61639,0.081 1.23112,0.1644 1.8516,0.2067 0.57179,-0.01 1.12763,0.069 1.68943,0.1615 0.50051,0.083 1.00768,0.1026 1.51383,0.1161 0.5642,-0.03 1.11497,0.091 1.67078,0.1656 0.52005,0.065 1.04454,0.077 1.56797,0.085 0.55211,0 1.09488,0.13 1.64342,0.1893 0.50408,0.049 1.01084,0.053 1.51678,0.059 0.61383,0 1.22768,0 1.84152,0 0.59919,-0 1.19839,-0 1.79758,-0 0.50155,-8e-4 1.0031,-9e-4 1.50464,-10e-4 0.49128,0 0.98256,0 1.47384,0 0.54908,-0.029 1.08738,0.092 1.62963,0.1602 0.52025,0.062 1.04429,0.076 1.56765,0.084 0.50318,-0.012 0.99449,-0 1.48985,0.086 0.48624,0.11 0.98908,0.094 1.47605,0.1886 0.48366,0.1145 0.97663,0.1688 1.47172,0.1989 0.53941,0.025 1.07955,0.024 1.61939,0.024 0.52451,-9e-4 1.04901,-0 1.57352,-0 0.49402,-6e-4 0.98803,-6e-4 1.48205,-7e-4 0.49196,0 0.98393,0 1.4759,0 0.49232,0 0.98463,0 1.47694,0 0.5016,4e-4 1.00319,-0 1.50478,0 0.55563,0 1.11126,10e-5 1.66689,-5e-4 0.50247,-5e-4 1.00495,-6e-4 1.50742,-7e-4 0.49719,0.037 0.97887,-0.09 1.46736,-0.1598 0.492,-0.065 0.98859,-0.077 1.48412,-0.085 0.52906,-0.01 1.05816,-0 1.58724,-0 0.53522,2e-4 1.07044,-10e-5 1.60567,-3e-4 0.49576,-2e-4 0.99152,-3e-4 1.48728,-3e-4 0.55934,-0.032 1.10771,0.089 1.6596,0.1601 0.51084,0.063 1.02562,0.076 1.53966,0.084 0.5021,-0.013 0.99231,-0 1.4866,0.086 0.48482,0.094 0.97728,0.1296 1.46985,0.1498 0.4913,0.015 0.9829,0.014 1.47437,0.014 0.49235,-5e-4 0.98469,-0 1.47704,-0 0.4852,0.019 0.9771,-0.044 1.45697,0.039 0.47469,0.073 0.80156,0.4122 1.05378,0.7967 0.24062,0.3456 0.44998,0.7199 0.61618,1.1073 0.20024,0.3553 0.36225,0.7323 0.49393,1.118 0.20558,0.3901 0.3227,0.8039 0.38774,1.2376 0.11528,0.4747 0.20464,0.9524 0.25473,1.4383 0.006,0.083 0.0121,0.1656 0.0182,0.2484 0,0 -1.7159,0.8892 -1.7159,0.8892 l 0,0 c -0.005,-0.081 -0.0104,-0.1623 -0.0156,-0.2434 -0.0449,-0.4835 -0.12655,-0.9601 -0.25368,-1.4292 -0.0574,-0.424 -0.16881,-0.8261 -0.37051,-1.2064 -0.12795,-0.3821 -0.29685,-0.7502 -0.4907,-1.1032 -0.15812,-0.3782 -0.36234,-0.7418 -0.59379,-1.0793 -0.23317,-0.35 -0.53294,-0.6127 -0.96645,-0.6569 -0.47748,-0.046 -0.95923,-0.01 -1.43833,-0.02 -0.49239,4e-4 -0.98479,0 -1.47718,0 -0.49326,-5e-4 -0.98674,-2e-4 -1.47966,-0.021 -0.49723,-0.027 -0.99278,-0.074 -1.48242,-0.1682 -0.48823,-0.074 -0.97779,-0.058 -1.47056,-0.063 -0.51748,-0.012 -1.03541,-0.034 -1.54874,-0.1047 -0.54748,-0.076 -1.09329,-0.1718 -1.64867,-0.1365 -0.49545,0 -0.99091,-10e-5 -1.48636,-5e-4 -0.53389,-6e-4 -1.06778,-0 -1.60167,-0 -0.52996,-4e-4 -1.05997,3e-4 -1.58989,0.01 -0.49095,0.012 -0.9828,0.03 -1.46902,0.1045 -0.49269,0.077 -0.98277,0.1728 -1.48463,0.1368 -0.50182,-10e-5 -1.00363,-2e-4 -1.50545,-7e-4 -0.55512,-6e-4 -1.11025,-0 -1.66538,-5e-4 -0.50277,0 -1.00555,9e-4 -1.50833,0 -0.49232,0 -0.98464,-10e-5 -1.47696,-10e-5 -0.49197,0 -0.98394,0 -1.47591,10e-5 -0.49378,0 -0.98755,10e-5 -1.48133,3e-4 -0.52331,3e-4 -1.04662,8e-4 -1.56993,-10e-5 -0.54386,-0 -1.08835,0 -1.63141,-0.032 -0.49879,-0.039 -0.99285,-0.1087 -1.48218,-0.2142 -0.49108,-0.068 -0.98904,-0.086 -1.47577,-0.1882 -0.48921,-0.074 -0.97978,-0.059 -1.47354,-0.063 -0.52648,-0.012 -1.05335,-0.034 -1.57582,-0.1048 -0.53793,-0.072 -1.07453,-0.1682 -1.6199,-0.1364 -0.49128,0 -0.98255,0 -1.47383,0 -0.50071,-10e-5 -1.00142,-2e-4 -1.50214,-8e-4 -0.596,-8e-4 -1.192,-0 -1.78801,-0 -0.61703,10e-4 -1.23407,0.01 -1.85111,9e-4 -0.51087,-0 -1.02251,-0.016 -1.5306,-0.074 -0.54195,-0.067 -1.08062,-0.1852 -1.62892,-0.1763 -0.52938,-0.01 -1.05954,-0.025 -1.58432,-0.1018 -0.55029,-0.079 -1.09814,-0.1754 -1.6571,-0.149 -0.51257,-0.014 -1.02504,-0.047 -1.53074,-0.1365 -0.55534,-0.092 -1.1098,-0.1392 -1.67304,-0.1516 -0.6174,-0.049 -1.22824,-0.1463 -1.84536,-0.1943 -0.6626,-0 -1.3255,-0.01 -1.9876,-0.035 -0.65442,-0.034 -1.30581,-0.099 -1.95477,-0.1909 -0.56104,-0.043 -1.1249,-0.016 -1.68721,-0.015 0,0 1.57552,-1.1447 1.57552,-1.1447 z"
       inkscape:connector-curvature="0" />
    <path
       style="fill:#000000;fill-opacity:1"
       id="path3027"
       d="m 198.55242,1043.3297 c -0.0173,0.5376 -0.0312,1.072 0.056,1.6037 0.0355,0.2234 0.0719,0.4424 0.13464,0.6596 0,0 -1.70081,0.9287 -1.70081,0.9287 l 0,0 c -0.067,-0.2251 -0.10714,-0.4503 -0.14086,-0.6829 -0.0902,-0.5397 -0.0785,-1.079 -0.0842,-1.625 0,0 1.73519,-0.8841 1.73519,-0.8841 z"
       inkscape:connector-curvature="0" />
    <path
       style="fill:#000000;fill-opacity:1"
       id="path3029"
       d="m 206.41836,1046.3812 c 0.0143,-0.563 0.0103,-1.1262 0.009,-1.6892 -0.001,-0.5227 -0.002,-1.0454 -0.002,-1.5681 -0.0255,-0.469 0.008,-0.9251 0.10009,-1.3842 0,0 1.74425,-0.8453 1.74425,-0.8453 l 0,0 c -0.0918,0.4504 -0.16477,0.8889 -0.12288,1.3523 -3.9e-4,0.5235 -0.001,1.0471 -0.002,1.5706 -0.001,0.5599 -0.005,1.12 0.009,1.6797 0,0 -1.73519,0.8842 -1.73519,0.8842 z"
       inkscape:connector-curvature="0" />
    <path
       style="fill:#000000;fill-opacity:1"
       id="path3031"
       d="m 206.89037,1035.8122 c -0.15416,-0.4671 -0.27866,-0.9412 -0.44803,-1.403 -0.11949,-0.4189 -0.23231,-0.8378 -0.35221,-1.2571 -0.0732,-0.2752 -0.1343,-0.6772 0.16845,-0.8501 0.60835,-0.3474 1.22926,-0.6724 1.84389,-1.0086 0.45789,-0.071 0.92343,-0.063 1.38548,-0.062 0.49585,0 0.99168,0.01 1.48753,0.01 0.51565,4e-4 1.03128,0 1.54693,0 0.55555,6e-4 1.1111,-0 1.66665,0 0.53941,-0.039 1.0588,0.024 1.58638,0.1233 0.57718,0.09 1.16263,0.1043 1.74556,0.117 0.57174,-0.026 1.13095,0.097 1.69577,0.1658 0.62338,0.053 1.2437,0.078 1.8636,0.166 0.62669,0.062 1.23698,0.2168 1.85846,0.3133 0.55677,0.089 1.12206,0.064 1.67961,0.1372 0.60621,0.094 1.21607,0.1541 1.82839,0.1864 0.51931,-0.02 1.021,0.06 1.53007,0.1467 0.50051,0.044 0.98102,0.1901 1.4751,0.2744 0.4856,0.074 0.97737,0.084 1.4675,0.091 0.49196,0 0.98395,0 1.47591,0 0.4924,-8e-4 0.98479,-0 1.47718,-0 0.49238,-10e-5 0.98475,-10e-5 1.47712,-10e-5 0.32825,0 0.65649,0 0.98474,0 0,0 -1.56355,1.136 -1.56355,1.136 l 0,0 c -0.32825,0 -0.65649,0 -0.98473,0 -0.49236,0 -0.98472,0 -1.47708,2e-4 -0.49235,2e-4 -0.98469,6e-4 -1.47704,0 -0.49275,7e-4 -0.98554,0 -1.47825,-0 -0.49658,-0.012 -0.99475,-0.029 -1.48495,-0.1166 -0.49115,-0.093 -0.97538,-0.2207 -1.47387,-0.2728 -0.50301,-0.085 -1.00409,-0.1301 -1.51499,-0.1318 -0.61199,-0.041 -1.22012,-0.1154 -1.82783,-0.1978 -0.56287,-0.047 -1.13066,-0.043 -1.68858,-0.1439 -0.61693,-0.106 -1.22782,-0.2462 -1.85123,-0.3123 -0.62101,-0.082 -1.24561,-0.086 -1.86735,-0.1607 -0.56001,-0.073 -1.11777,-0.1703 -1.68499,-0.1503 -0.59177,-0.019 -1.18613,-0.04 -1.77133,-0.1361 -0.51703,-0.096 -1.03178,-0.1248 -1.55818,-0.1 -0.55558,0 -1.11116,-5e-4 -1.66674,0 -0.51737,7e-4 -1.03473,0 -1.55209,-4e-4 -0.49565,-0 -0.99129,-0.01 -1.48693,-0.01 -0.45245,0 -0.91636,-0.01 -1.3544,0.1199 0.50063,-0.2963 1.00655,-0.5839 1.50189,-0.889 0.0448,-0.028 -0.10148,0.03 -0.14792,0.055 -0.22652,0.1206 -0.18987,0.3603 -0.13133,0.5712 0.11591,0.4161 0.23226,0.8293 0.34103,1.247 0.16942,0.4714 0.28611,0.9574 0.47337,1.4226 0,0 -1.71701,0.918 -1.71701,0.918 z"
       inkscape:connector-curvature="0" />
    <path
       style="fill:#000000;fill-opacity:1"
       id="path3033"
       d="m 210.60347,1046.8735 c -0.009,-0.5182 0.0422,-1.0328 0.17075,-1.5349 0.12929,-0.4335 0.31401,-0.8461 0.4341,-1.2823 0.14611,-0.3894 0.24651,-0.7934 0.39277,-1.1826 0.0211,-0.061 0.0421,-0.1223 0.0632,-0.1834 0,0 1.7553,-0.8261 1.7553,-0.8261 l 0,0 c -0.0196,0.064 -0.0392,0.128 -0.0587,0.192 -0.14821,0.3859 -0.2462,0.7837 -0.40765,1.1656 -0.10578,0.4436 -0.28438,0.8581 -0.42981,1.2891 -0.16546,0.4713 -0.21048,0.9814 -0.18473,1.4785 0,0 -1.73519,0.8841 -1.73519,0.8841 z"
       inkscape:connector-curvature="0" />
    <path
       style="fill:#000000;fill-opacity:1"
       id="path3035"
       d="m 215.60644,1034.6819 c 0.674,0.013 1.34821,0.01 2.02231,0.01 0.57166,-0 1.14333,-0 1.715,-0 0.4949,-4e-4 0.9898,-4e-4 1.4847,-4e-4 0.49129,0 0.98257,0 1.47386,0 0.49226,0 0.98452,0 1.47677,0 0.49238,0 0.98475,0 1.47713,0 0.49237,0 0.98474,0 1.4771,0 0.49237,0 0.98474,0 1.4771,0 0.44223,-0 0.87033,0.1317 1.3082,0.1881 0.41681,0.052 0.81436,0.1882 1.23232,0.2468 0.46418,0.053 0.93201,0.055 1.39856,0.059 0.49815,0.01 0.98696,0.132 1.48248,0.1878 0.48196,0.067 0.97407,0.01 1.452,0.097 0.4133,0.088 0.82409,0.1452 1.22752,0.2714 0.33748,0.1047 0.68944,0.1361 1.03996,0.1605 0,0 -1.57474,1.1249 -1.57474,1.1249 l 0,0 c -0.36105,-0.033 -0.72148,-0.078 -1.06763,-0.1919 -0.39593,-0.1166 -0.80537,-0.1633 -1.20855,-0.2497 -0.47972,-0.054 -0.96626,-0.025 -1.44538,-0.095 -0.48941,-0.063 -0.97511,-0.179 -1.47069,-0.1701 -0.47336,-0.01 -0.94847,-0.012 -1.41802,-0.079 -0.4135,-0.07 -0.81234,-0.2044 -1.23038,-0.2447 -0.42881,-0.064 -0.85226,-0.1881 -1.2892,-0.1687 -0.49236,0 -0.98473,0 -1.47709,0 -0.49237,0 -0.98474,0 -1.47711,0 -0.49237,0 -0.98475,0 -1.47712,0 -0.49227,0 -0.98454,0 -1.4768,0 -0.49132,0 -0.98263,0 -1.47395,0 -0.49444,0 -0.98888,0 -1.48333,-5e-4 -0.56806,-7e-4 -1.13611,-0 -1.70417,-0 -0.68212,-0 -1.36434,-0 -2.04637,0.01 0,0 1.57552,-1.1447 1.57552,-1.1447 z"
       inkscape:connector-curvature="0" />
    <path
       style="fill:#000000;fill-opacity:1"
       id="path3037"
       d="m 206.25149,1037.6361 c 0.674,0.013 1.34821,0.011 2.02231,0.01 0.57166,-0 1.14333,-0 1.715,-0 0.4949,-4e-4 0.9898,-4e-4 1.4847,-5e-4 0.49129,0 0.98257,10e-5 1.47386,10e-5 0.49226,0 0.98452,0 1.47678,0 0.49237,0 0.98475,0 1.47712,0 0.57739,-5e-4 1.15476,0 1.73215,0 0.56742,-10e-4 1.13484,-0 1.70225,-0 0.4974,-5e-4 0.9948,-6e-4 1.4922,-6e-4 0.49152,0 0.98303,0 1.47454,0 0.49223,0 0.98447,0 1.4767,0 0.49237,0 0.98474,0 1.47711,0 0.49237,0 0.98474,0 1.4771,0 0.49237,0 0.98474,0 1.4771,0 0.49237,0 0.98473,0 1.4771,0 0.45812,-0.046 0.89427,0.085 1.34063,0.1606 0.45414,0.067 0.91391,0.076 1.37208,0.084 0.49988,-0.012 0.98785,-6e-4 1.47998,0.086 0.48556,0.094 0.97874,0.1295 1.47204,0.1497 0.49137,0.015 0.98306,0.014 1.47461,0.014 0.49234,-6e-4 0.98468,-0 1.47702,-0 0.45813,-0.046 0.8943,0.085 1.34066,0.1602 0.45415,0.067 0.91392,0.076 1.37209,0.084 0.50264,-0.036 0.98742,0.045 1.48013,0.1279 0.4863,0.081 0.97911,0.1018 1.47099,0.1147 0.53731,0.01 1.07473,0.01 1.6121,0.01 0.5985,2e-4 1.19699,-0 1.79548,-0 0.59091,-0 1.18179,0 1.77269,0 0.6347,9e-4 1.2694,-0 1.90409,-3e-4 0.64226,0 1.28452,5e-4 1.92678,-10e-4 0.6158,-4e-4 1.23159,-1e-4 1.84738,0 0.63235,6e-4 1.2647,-0 1.89705,-0 0.59788,10e-4 1.19577,0 1.79366,0 0.56083,-5e-4 1.12166,-0 1.68249,-0 0.61351,0 1.22703,0 1.84056,0 0.53949,-0 1.07899,-0 1.61849,-0 0.51636,-0 1.03271,6e-4 1.54907,0 0.54569,2e-4 1.09138,-8e-4 1.63707,-0 0.50373,0.038 0.99174,-0.089 1.48661,-0.1602 0.49172,-0.065 0.98803,-0.077 1.48329,-0.085 0.49262,-0.01 0.98528,-0 1.47792,-0 0.52868,-2e-4 1.05735,0 1.58603,0 0.53523,-2e-4 1.07045,-10e-4 1.60568,-0 0.56249,0 1.12498,0 1.68747,7e-4 0.54389,-0 1.08778,9e-4 1.63167,9e-4 0.60245,-0.036 1.19415,0.084 1.78896,0.1582 0.57409,0.029 1.13664,0.1182 1.70329,0.2088 0.58522,0.084 1.17652,0.107 1.76686,0.12 0.50867,0.01 1.01743,0.01 1.52614,0.01 0.49189,-9e-4 0.98379,-0 1.47568,-0 0.49208,-2e-4 0.98417,-2e-4 1.47625,-2e-4 0.49235,0 0.98471,0 1.47706,0 0.49237,0 0.98474,0 1.47711,0 0.45554,-0.027 0.94494,0.097 1.35881,-0.1313 -2.38615,1.3056 -1.33183,1.1097 -1.06627,-0.067 0.0581,-0.4344 0.18684,-0.8532 0.25452,-1.286 0.0608,-0.4656 0.0655,-0.9359 0.0706,-1.4046 0.003,-0.4918 0.001,-0.9835 6.8e-4,-1.4753 0.0104,-0.4863 -0.0255,-0.9747 0.0207,-1.4594 0.0125,-0.07 0.0249,-0.1403 0.0374,-0.2105 0,0 1.74372,-0.8461 1.74372,-0.8461 l 0,0 c -0.0146,0.067 -0.0292,0.1338 -0.0438,0.2007 -0.085,0.4724 -0.0138,0.9596 -0.0362,1.4377 7e-4,0.4923 0.002,0.9846 6e-4,1.4769 -0.003,0.4757 -0.006,0.9525 -0.0559,1.4261 -0.0574,0.4397 -0.18804,0.8597 -0.25183,1.2965 -0.22346,1.2712 -0.82977,1.4304 -2.2003,2.1103 -0.45511,0.1206 -0.93017,0.05 -1.3963,0.068 -0.49237,0 -0.98474,0 -1.4771,0 -0.49236,0 -0.98472,0 -1.47707,0 -0.49208,0 -0.98415,0 -1.47623,3e-4 -0.49181,3e-4 -0.98363,9e-4 -1.47545,0 -0.50873,2e-4 -1.01754,0 -1.52614,-0.012 -0.5951,-0.02 -1.19054,-0.053 -1.77986,-0.1423 -0.56492,-0.093 -1.13002,-0.1538 -1.70017,-0.2035 -0.58926,-0.079 -1.17696,-0.1748 -1.77416,-0.1383 -0.54469,-10e-5 -1.08937,0 -1.63405,9e-4 -0.56311,-7e-4 -1.12621,-0 -1.68931,6e-4 -0.53389,-3e-4 -1.06777,-0 -1.60166,-0 -0.53037,-10e-5 -1.06075,0 -1.59112,6e-4 -0.49186,-5e-4 -0.98376,-0 -1.47556,0.01 -0.49067,0.012 -0.98222,0.03 -1.46817,0.1045 -0.49865,0.078 -0.9947,0.1731 -1.50256,0.1364 -0.54454,-5e-4 -1.08908,-0 -1.63363,-0 -0.51772,8e-4 -1.03545,0 -1.55318,0 -0.53733,-4e-4 -1.07467,-0 -1.612,-0 -0.61542,-0 -1.23083,-6e-4 -1.84625,0 -0.55875,-6e-4 -1.11751,-0 -1.67626,-0 -0.59923,2e-4 -1.19846,5e-4 -1.79769,0 -0.62944,-0 -1.25887,-0 -1.88831,-0 -0.61796,0 -1.23592,0 -1.85388,0 -0.64135,-0 -1.2827,-0 -1.92406,-10e-4 -0.63442,0 -1.26885,-0 -1.90327,-3e-4 -0.59306,-4e-4 -1.1861,0 -1.77916,0 -0.59663,-7e-4 -1.19327,-0 -1.7899,-7e-4 -0.54141,0 -1.08297,0.01 -1.62425,-0.01 -0.49731,-0.018 -0.9948,-0.049 -1.48558,-0.1361 -0.48673,-0.081 -0.97045,-0.124 -1.46489,-0.1043 -0.46561,-0.011 -0.93285,-0.026 -1.39285,-0.1055 -0.43714,-0.08 -0.86827,-0.1767 -1.31695,-0.1356 -0.49238,4e-4 -0.98476,0 -1.47715,0 -0.49333,-5e-4 -0.98689,-2e-4 -1.47988,-0.021 -0.49793,-0.027 -0.99416,-0.074 -1.48453,-0.1682 -0.48643,-0.073 -0.97409,-0.059 -1.46504,-0.063 -0.46561,-0.011 -0.93286,-0.026 -1.39285,-0.1055 -0.43715,-0.08 -0.8683,-0.1769 -1.31699,-0.1361 -0.49236,0 -0.98473,0 -1.4771,0 -0.49236,0 -0.98473,0 -1.47709,0 -0.49237,0 -0.98474,0 -1.47711,0 -0.49237,0 -0.98474,0 -1.47711,0 -0.49224,0 -0.98448,0 -1.47672,0 -0.49152,10e-5 -0.98304,10e-5 -1.47456,10e-5 -0.49688,-10e-5 -0.99375,-10e-5 -1.49062,-6e-4 -0.56478,-7e-4 -1.12955,-0 -1.69433,-0 -0.58054,-3e-4 -1.16106,0 -1.7416,0 -0.49238,0 -0.98476,0 -1.47713,0 -0.49227,0 -0.98454,0 -1.4768,0 -0.49132,0 -0.98263,0 -1.47395,0 -0.49444,0 -0.98888,0 -1.48333,-5e-4 -0.56805,-7e-4 -1.13611,-0 -1.70417,-0 -0.68211,-0 -1.36434,-0 -2.04637,0.01 0,0 1.57552,-1.1447 1.57552,-1.1447 z"
       inkscape:connector-curvature="0" />
    <path
       style="fill:#000000;fill-opacity:1"
       id="path3039"
       d="m 296.77938,1031.0205 c 0.0524,0.4942 0.13634,0.9839 0.25277,1.4668 0.10742,0.4574 0.29432,0.8856 0.38929,1.3472 0.0298,0.4306 0.15194,0.8429 0.23418,1.2645 0.0796,0.4609 0.0905,0.9296 0.0996,1.3962 0.006,0.4917 0.004,0.9834 0.004,1.4752 -7.8e-4,0.4927 -0.001,0.9855 -0.001,1.4783 0.009,0.464 0.0226,0.9221 -0.12099,1.3678 -0.39592,0.9297 -1.62224,1.3136 -2.38017,1.7503 -0.3923,0.086 -0.76006,0.2383 -1.15555,0.3146 -0.43456,0.018 -0.84507,0.1175 -1.2669,0.2104 -0.44712,0.088 -0.90366,0.1011 -1.35775,0.1121 -0.49922,0.01 -0.99855,0.01 -1.49781,0 -0.55612,-0 -1.11224,-0 -1.66836,-9e-4 -0.50254,3e-4 -1.00508,4e-4 -1.50762,5e-4 -0.49201,10e-5 -0.98402,10e-5 -1.47604,10e-5 -0.49218,0 -0.98436,0 -1.47655,0 -0.49236,0 -0.98472,0 -1.47708,0 -0.49237,0 -0.98473,0 -1.4771,0 -0.49237,0 -0.98473,0 -1.4771,0 -0.49237,0 -0.98473,0 -1.4771,0 -0.46595,-0.046 -0.90427,0.036 -1.35635,0.1286 -0.44221,0.071 -0.89635,0.1429 -1.312,0.3146 -0.39254,0.2034 -0.84376,0.1885 -1.25515,0.3166 -0.39495,0.1589 -0.83016,0.1317 -1.23195,0.2495 -0.41449,0.1586 -0.82025,0.3112 -1.25984,0.391 -0.42953,0.074 -0.83987,0.2118 -1.27486,0.27 -0.47089,0.05 -0.94512,0.052 -1.41814,0.055 -0.4922,0 -0.9844,-3e-4 -1.47661,-10e-4 -0.49266,-7e-4 -0.98533,-8e-4 -1.478,-9e-4 -0.49239,-10e-5 -0.98478,-10e-5 -1.47717,-10e-5 -0.49236,0 -0.98472,0 -1.47708,0 -0.49237,0 -0.98473,0 -1.4771,0 -0.49236,0 -0.98473,0 -1.4771,0 -0.49236,0 -0.98473,0 -1.47709,0 -0.49237,0 -0.98473,0 -1.4771,0 -0.48042,0.011 -0.94968,0.017 -1.42019,-0.084 -0.4216,-0.1168 -0.86516,-0.09 -1.28769,-0.1898 0,0 1.59033,-1.1079 1.59033,-1.1079 l 0,0 c 0.42776,0.07 0.86531,0.079 1.28729,0.1894 0.46125,0.083 0.92685,0.054 1.39381,0.056 0.49236,0 0.98473,0 1.47709,0 0.49237,0 0.98474,0 1.4771,0 0.49237,0 0.98473,0 1.4771,0 0.49236,0 0.98473,0 1.47709,-10e-5 0.49237,0 0.98473,0 1.47709,0 0.49239,0 0.98479,0 1.47718,10e-5 0.49271,2e-4 0.98542,4e-4 1.47813,0 0.4919,8e-4 0.98382,0 1.47571,-9e-4 0.46892,-0.01 0.93975,-0.011 1.40466,-0.08 0.42695,-0.075 0.83786,-0.2134 1.2671,-0.2766 0.43237,-0.1006 0.83278,-0.2827 1.26029,-0.3975 0.41228,-0.073 0.83004,-0.1173 1.22933,-0.2526 0.42137,-0.085 0.84672,-0.1496 1.24262,-0.329 0.43599,-0.1303 0.88082,-0.2235 1.33018,-0.2941 0.45581,-0.091 0.90974,-0.116 1.37487,-0.094 0.49237,0 0.98473,0 1.4771,0 0.49236,0 0.98473,0 1.47709,0 0.49237,0 0.98474,0 1.47711,0 0.49236,0 0.98472,0 1.47708,0 0.49219,0 0.98439,0 1.47658,0 0.49198,0 0.98396,0 1.47594,0 0.50189,10e-5 1.00379,2e-4 1.50568,10e-4 0.55563,9e-4 1.11125,0 1.66688,0 0.49956,-0 0.99923,0 1.49867,-0.012 0.4492,-0.017 0.90033,-0.041 1.33951,-0.1448 0.41979,-0.098 0.84214,-0.1441 1.2674,-0.2096 0.38141,-0.095 0.76079,-0.2165 1.12689,-0.3571 -3.0521,1.7942 -1.21927,0.9375 -0.89651,0.2798 0.20478,-0.408 0.16375,-0.8599 0.16113,-1.3048 1.7e-4,-0.4928 4.6e-4,-0.9856 10e-4,-1.4784 7e-4,-0.4905 0.002,-0.9811 -0.003,-1.4716 -0.008,-0.4558 -0.0157,-0.9136 -0.0884,-1.3647 -0.079,-0.4221 -0.20962,-0.8327 -0.23188,-1.2642 -0.0878,-0.4613 -0.27397,-0.8874 -0.37913,-1.3433 -0.12108,-0.4959 -0.20078,-0.9966 -0.29055,-1.4991 0,0 1.73519,-0.8841 1.73519,-0.8841 z"
       inkscape:connector-curvature="0" />
    <path
       style="fill:#000000;fill-opacity:1"
       id="path3041"
       d="m 285.86802,1033.3648 c -0.58117,-0.01 -1.16248,-0.01 -1.74371,-0.01 -0.70523,-0.04 -1.39937,0.093 -2.09933,0.153 -0.78125,0.026 -1.55368,0.1184 -2.3294,0.2072 -0.81753,0.085 -1.62678,0.2276 -2.44528,0.3095 -0.6948,0.062 -1.39332,0.065 -2.09039,0.071 -0.66539,10e-4 -1.33077,-8e-4 -1.99616,-2e-4 -0.5999,0 -1.19979,-0 -1.79969,-0 -0.58993,4e-4 -1.17986,0 -1.7698,0 -0.56006,0 -1.1201,-0 -1.68015,-0 -0.58823,2e-4 -1.17647,0 -1.7647,0 -0.50169,7e-4 -1.00339,8e-4 -1.50508,9e-4 -0.62155,-0 -1.2431,-0 -1.86466,-0 -0.66803,-0 -1.33607,0 -2.00411,0 -0.51633,0 -1.03266,0 -1.54899,0 -0.50572,-0.018 -1.01946,-0.1083 -1.51259,-0.2261 -0.54327,-0.1408 -1.09949,-0.2081 -1.6582,-0.2448 -0.49881,-0.107 -1.00021,-0.1897 -1.50849,-0.2332 -0.50136,0 -0.98611,-0.1238 -1.47922,-0.1965 -0.48694,-0.065 -0.97865,-0.076 -1.46917,-0.083 -0.24427,0.015 -0.49371,-0.025 -0.73759,-0 -0.5334,0.048 -2.33269,1.2225 1.15545,-0.7198 -0.29252,0.3009 -0.28315,0.7498 -0.30012,1.1438 0.005,0.4772 -0.0368,0.96 0.0251,1.4344 0.0524,0.4025 0.17824,0.7814 0.29895,1.1662 0,0 -1.7012,0.9325 -1.7012,0.9325 l 0,0 c -0.122,-0.3953 -0.25585,-0.7823 -0.31058,-1.1953 -0.0738,-0.4839 -0.0272,-0.9776 -0.0383,-1.4658 0.0111,-0.4365 0.008,-0.896 0.22398,-1.2888 1.6268,-0.9724 1.51634,-1.1987 2.94997,-1.1372 0.49592,0.011 0.99291,0.029 1.48396,0.1045 0.4894,0.079 0.9749,0.1803 1.47282,0.1872 0.50575,0.053 1.00256,0.1522 1.50432,0.2315 0.56352,0.048 1.12184,0.1322 1.67142,0.268 0.4916,0.095 0.99048,0.1963 1.49293,0.1896 0.51465,2e-4 1.0293,5e-4 1.54395,0 0.66543,0 1.33086,0 1.99629,0 0.62589,0 1.25176,-0 1.87764,-0 0.50092,10e-5 1.00183,2e-4 1.50275,9e-4 0.58571,8e-4 1.17141,0 1.75712,0 0.5626,-9e-4 1.12518,-0.01 1.68778,-0 0.58717,9e-4 1.17434,0 1.76151,0 0.60079,-5e-4 1.20158,-0 1.80238,3e-4 0.66454,0 1.3291,0 1.99364,-10e-5 0.69193,-0 1.38476,-0.014 2.07402,-0.081 0.81632,-0.084 1.62419,-0.2264 2.44044,-0.3095 0.77636,-0.093 1.5524,-0.1621 2.33315,-0.205 0.70422,-0.074 1.40685,-0.1795 2.11743,-0.1437 0.58847,-2e-4 1.17702,8e-4 1.76544,-0.01 0,0 -1.57552,1.1447 -1.57552,1.1447 z"
       inkscape:connector-curvature="0" />
    <path
       style="fill:#000000;fill-opacity:1"
       id="path3043"
       d="m 381.71246,1029.5434 c -0.004,0.56 -0.0355,1.1223 0.0156,1.6805 0.0453,0.4721 0.28105,0.8906 0.34484,1.3591 -0.008,0.1683 -0.0451,0.361 -0.20781,0.4548 -1.34299,0.7749 -1.29373,0.9804 -2.26146,1.0558 -0.44398,-0.023 -0.86611,0.1075 -1.30042,0.1748 -0.46322,0.062 -0.93121,0.069 -1.39779,0.076 -0.48915,0.021 -0.98292,-0.037 -1.46735,0.041 -0.48863,0.1008 -0.98375,0.1541 -1.48115,0.1841 -0.49363,0.055 -0.9767,0.1623 -1.47525,0.2079 -0.56678,0.047 -1.13561,0.056 -1.70398,0.061 -0.5068,-0.036 -0.99796,0.09 -1.49598,0.1605 -0.49162,0.064 -0.98774,0.076 -1.48282,0.084 -0.49257,0.01 -0.98517,0 -1.47774,0 -0.49235,-7e-4 -0.9847,-10e-4 -1.47706,-0 -0.49236,-2e-4 -0.98472,-10e-5 -1.47708,-10e-5 -0.54106,-2e-4 -1.0821,-0 -1.62316,-0 -0.58341,-9e-4 -1.16682,-8e-4 -1.75024,0 -0.51699,9e-4 -1.03399,0 -1.55098,0 -0.49252,2e-4 -0.98504,2e-4 -1.47756,2e-4 -0.47258,0.032 -0.9022,0.2025 -1.34864,0.338 -0.4242,0.06 -0.82799,0.1786 -1.24282,0.2801 -0.43126,0.1137 -0.88482,0.058 -1.31538,0.1591 -0.4188,0.1199 -0.85157,0.1618 -1.28454,0.188 -0.48379,0.022 -0.96825,0.021 -1.45244,0.022 -0.49285,-3e-4 -0.9857,-0 -1.47854,-0 -0.49253,-4e-4 -0.98506,-4e-4 -1.47758,-5e-4 -0.49237,0 -0.98474,0 -1.47711,0 0,0 1.56355,-1.1359 1.56355,-1.1359 l 0,0 c 0.49237,0 0.98474,-10e-5 1.47711,0 0.49255,0 0.9851,1e-4 1.47765,6e-4 0.49277,5e-4 0.98554,0 1.47831,0 0.4822,-0 0.96492,-0 1.44629,-0.034 0.43046,-0.036 0.85453,-0.1047 1.27486,-0.2054 0.43623,-0.053 0.88097,-0.051 1.30737,-0.1718 0.40964,-0.1105 0.82506,-0.1804 1.23512,-0.2873 0.44947,-0.1471 0.90326,-0.2746 1.38038,-0.288 0.4924,0 0.9848,-10e-5 1.4772,10e-5 0.51569,2e-4 1.03138,5e-4 1.54707,0 0.58334,9e-4 1.16667,9e-4 1.75001,10e-5 0.54255,3e-4 1.08508,-0 1.62762,-0 0.49237,0 0.98475,0 1.47712,10e-5 0.49238,2e-4 0.98476,6e-4 1.47714,0 0.4918,5e-4 0.98366,0 1.47541,-0.01 0.49053,-0.011 0.98191,-0.03 1.4678,-0.1034 0.50122,-0.077 0.99978,-0.1713 1.51005,-0.138 0.56351,-0.01 1.12773,-0.016 1.68897,-0.072 0.49818,-0.057 0.98402,-0.1858 1.48555,-0.2073 0.49534,-0.038 0.98556,-0.1088 1.47528,-0.1917 0.4921,-0.039 0.98628,-0.011 1.47953,-0.026 0.46259,-0.01 0.9268,-0.024 1.3841,-0.1011 0.43368,-0.078 0.86328,-0.164 1.30624,-0.1666 0.13437,-0.02 0.51365,-0.1564 0.39909,-0.083 -0.49137,0.3136 -1.00809,0.5859 -1.50441,0.8916 -0.0805,0.05 0.19249,-0.061 0.24832,-0.1368 0.0273,-0.037 0.034,-0.086 0.051,-0.1288 -0.0196,-0.4751 -0.3027,-0.8877 -0.33115,-1.3639 -0.0637,-0.5605 -0.0175,-1.1254 -0.0433,-1.6885 0,0 1.73519,-0.8841 1.73519,-0.8841 z"
       inkscape:connector-curvature="0" />
    <path
       style="fill:#000000;fill-opacity:1"
       id="path3045"
       d="m 377.65738,1031.8438 c -0.69769,-0.1264 -1.40711,-0.1604 -2.1142,-0.1883 -0.63974,-0.021 -1.27991,-0.021 -1.91992,-0.024 -0.63773,4e-4 -1.27547,0 -1.91321,0 -0.67605,0.041 -1.34203,-0.048 -2.01198,-0.1223 -0.71738,-0.081 -1.43918,-0.1051 -2.16046,-0.1182 -0.56817,-0.01 -1.1364,-0.01 -1.7046,-0 -0.49489,0 -0.98977,0 -1.48465,0 -0.49135,2e-4 -0.98269,2e-4 -1.47403,2e-4 -0.49226,0 -0.98453,0 -1.47679,0 -0.49237,0 -0.98475,0 -1.47712,0 -0.50802,-0.046 -0.99701,0.051 -1.49606,0.1216 -0.61343,0.08 -1.23282,0.1008 -1.85067,0.1164 -0.59268,0.01 -1.18541,0.01 -1.77812,0.01 -0.50822,10e-5 -1.01644,-10e-5 -1.52466,-2e-4 -0.4918,-10e-5 -0.9836,-2e-4 -1.4754,-2e-4 -0.49208,0 -0.98416,0 -1.47624,0 -0.47407,-0.012 -0.93498,-0.018 -1.39793,0.087 -0.43417,0.1022 -0.87975,0.1295 -1.32383,0.1478 -0.46037,-0.032 -0.89417,0.051 -1.34082,0.142 -0.41533,0.033 -0.79642,0.1948 -1.20278,0.2748 -0.43281,0.02 -0.84124,0.1224 -1.26113,0.2163 -0.45611,0.046 -0.89762,0.1489 -1.34648,0.2376 -0.70557,0.2765 -0.52715,0.2175 1.28935,-0.7587 0.0531,-0.029 -0.10001,0.069 -0.14208,0.1121 -0.14102,0.1449 -0.18549,0.3269 -0.2342,0.5156 -0.0791,0.4663 -0.0684,0.942 -0.0674,1.4133 0.0511,0.4023 0.13329,0.799 0.26777,1.1814 0.16304,0.406 0.26681,0.8325 0.41337,1.2434 0.11776,0.3863 0.31006,0.7401 0.4258,1.1268 0.11211,0.4507 0.12223,0.9174 0.13259,1.3792 -0.007,0.4348 0.11688,0.8565 0.17689,1.285 0.008,0.076 0.0159,0.1511 0.0238,0.2267 0,0 -1.71591,0.8962 -1.71591,0.8962 l 0,0 c -0.007,-0.073 -0.0143,-0.1469 -0.0215,-0.2203 -0.0579,-0.4365 -0.18651,-0.8646 -0.18416,-1.3063 -0.008,-0.4452 -0.0142,-0.895 -0.114,-1.3312 -0.10989,-0.3848 -0.30547,-0.7337 -0.41828,-1.1179 -0.14744,-0.4107 -0.24749,-0.8386 -0.41668,-1.2425 -0.1427,-0.4031 -0.22975,-0.819 -0.29127,-1.2425 -0.002,-0.4829 -0.0122,-0.968 0.0445,-1.4484 0.20214,-1.1532 1.13504,-1.5628 2.37208,-1.8794 0.44796,-0.095 0.89767,-0.1655 1.34814,-0.2449 0.41787,-0.099 0.83842,-0.1486 1.26212,-0.2147 0.40051,-0.098 0.7925,-0.2262 1.20446,-0.272 0.44905,-0.091 0.89676,-0.1182 1.35507,-0.1164 0.44062,-0.026 0.8794,-0.072 1.31007,-0.1726 0.46875,-0.08 0.94216,-0.05 1.41603,-0.053 0.49209,0 0.98419,0 1.47628,0 0.49177,0 0.98354,0 1.4753,4e-4 0.50719,4e-4 1.01438,0 1.52156,0 0.59086,0 1.18183,0 1.77256,-0.011 0.6144,-0.017 1.2301,-0.042 1.83839,-0.1367 0.50427,-0.08 1.00515,-0.1308 1.51705,-0.1013 0.49238,0 0.98475,0 1.47713,0 0.49227,0 0.98454,0 1.47681,0 0.49135,0 0.9827,-10e-5 1.47405,-3e-4 0.49444,-3e-4 0.98888,-9e-4 1.48332,-9e-4 0.56565,5e-4 1.13135,0 1.69687,0.015 0.72314,0.02 1.44677,0.048 2.16555,0.1349 0.66811,0.073 1.33459,0.1276 2.00756,0.1 0.63707,-5e-4 1.27413,-0 1.91119,-10e-5 0.63979,-9e-4 1.27966,0 1.91887,0.035 0.71964,0.035 1.43968,0.078 2.15237,0.1897 0,0 -1.5903,1.1158 -1.5903,1.1158 z"
       inkscape:connector-curvature="0" />
    <path
       style="fill:#000000;fill-opacity:1"
       id="path3047"
       d="m 338.37237,1040.9651 c 0.0143,-0.5629 0.0103,-1.1261 0.009,-1.6892 -10e-4,-0.5227 -0.002,-1.0454 -0.002,-1.5681 -1.6e-4,-0.2472 -2e-4,-0.4945 -2.5e-4,-0.7418 0,0 1.72197,-0.8774 1.72197,-0.8774 l 0,0 c -5e-5,0.2474 -9e-5,0.4947 -2.6e-4,0.7421 -3.9e-4,0.5235 -10e-4,1.047 -0.002,1.5705 -0.001,0.56 -0.005,1.12 0.009,1.6798 0,0 -1.73519,0.8841 -1.73519,0.8841 z"
       inkscape:connector-curvature="0" />
    <path
       style="fill:#000000;fill-opacity:1"
       id="path3049"
       d="m 338.37237,1032.8411 c -0.0495,-0.4705 -0.12263,-0.937 -0.25345,-1.3918 -0.0743,-0.4037 -0.21424,-0.769 -0.41606,-1.1233 -0.14119,-0.3543 -0.23135,-0.645 -0.60108,-0.7988 -0.42289,-0.1158 -0.8668,-0.1091 -1.30183,-0.1133 -0.49492,0.01 -0.98028,0.1355 -1.47258,0.1931 -0.49682,0.059 -0.98093,0.1879 -1.47922,0.2489 -0.49304,0.051 -0.98922,0.056 -1.4844,0.059 -0.49258,0 -0.98516,3e-4 -1.47773,-4e-4 -0.49234,-7e-4 -0.98469,-9e-4 -1.47703,-10e-4 -0.49236,0 -0.98472,0 -1.47708,0 -0.49237,0 -0.98473,0 -1.4771,0 -0.49236,0 -0.98473,0 -1.47709,0 -0.49237,0 -0.98474,0 -1.4771,0 -0.43653,0 -0.85882,0.1365 -1.29243,0.1904 -0.47017,0.049 -0.94335,0.052 -1.41553,0.056 -0.43609,0.01 -0.85805,0.1374 -1.29153,0.1907 -0.47796,0 -0.93837,0.096 -1.40651,0.1799 -0.45701,0.028 -0.88143,0.1941 -1.32771,0.2799 -0.46031,0.074 -0.92761,0.081 -1.39271,0.087 -0.49115,0 -0.98232,0 -1.47348,0 -0.49274,-8e-4 -0.98547,-0 -1.47821,-0 -0.49241,-10e-5 -0.98482,-10e-5 -1.47723,-10e-5 -0.49236,0 -0.98472,0 -1.47709,0 -0.49236,0 -0.98473,0 -1.47709,0 -0.45231,-0.047 -0.88015,0.091 -1.32081,0.1634 -0.46014,0.066 -0.92565,0.074 -1.38961,0.081 -0.49112,0 -0.98228,0 -1.47341,0 -0.41066,-6e-4 -0.82133,-9e-4 -1.23199,-10e-4 0,0 1.56359,-1.1359 1.56359,-1.1359 l 0,0 c 0.41068,2e-4 0.82136,6e-4 1.23204,0 0.49053,4e-4 0.98112,0 1.4716,-0.01 0.45986,-0.011 0.92138,-0.027 1.37533,-0.1079 0.44341,-0.083 0.88181,-0.1726 1.33681,-0.1333 0.49236,0 0.98472,0 1.47709,0 0.49236,0 0.98472,0 1.47709,0 0.49242,0 0.98484,0 1.47726,2e-4 0.49278,2e-4 0.98555,6e-4 1.47833,0 0.49057,7e-4 0.98118,0 1.47171,-0.01 0.45978,-0.011 0.92231,-0.025 1.37413,-0.1193 0.4408,-0.1017 0.87435,-0.2303 1.32713,-0.2725 0.46961,-0.086 0.93883,-0.1403 1.41491,-0.1759 0.43318,-0.066 0.86099,-0.1883 1.30292,-0.169 0.46869,-0.01 0.93879,-0.015 1.40399,-0.078 0.43366,-0.067 0.86225,-0.1903 1.30496,-0.1664 0.49236,0 0.98473,0 1.47709,0 0.49237,0 0.98473,0 1.4771,0 0.49236,0 0.98473,0 1.4771,0 0.49237,0 0.98474,0 1.47711,10e-5 0.49239,10e-5 0.98477,3e-4 1.47716,0 0.49213,7e-4 0.98428,0 1.4764,-0 0.4907,-0.01 0.98264,-0.015 1.46999,-0.078 0.49554,-0.072 0.98094,-0.2009 1.48007,-0.2476 0.49512,-0.067 0.98709,-0.1899 1.48941,-0.1719 0.45658,0.01 0.92691,0.01 1.35781,0.1788 0.37311,0.2079 0.52126,0.506 0.66195,0.8975 0.20876,0.3681 0.35896,0.7471 0.43232,1.1669 0.13496,0.4713 0.20128,0.9521 0.28988,1.4339 0,0 -1.73519,0.8841 -1.73519,0.8841 z"
       inkscape:connector-curvature="0" />
    <path
       style="fill:#000000;fill-opacity:1"
       id="path3051"
       d="m 338.30497,1035.0881 c -0.48471,0.1048 -0.97706,0.1636 -1.47084,0.2033 -0.62457,0.033 -1.2503,0.034 -1.87557,0.037 -0.65673,-6e-4 -1.31345,-0 -1.97018,-9e-4 -0.54159,10e-4 -1.08317,0 -1.62476,0 -0.58253,-0 -1.16507,-0 -1.74761,-0 -0.56127,4e-4 -1.12255,0 -1.68382,0 -0.49838,5e-4 -0.99676,5e-4 -1.49514,6e-4 -0.49167,0 -0.98333,0 -1.475,0 -0.49223,0 -0.98446,0 -1.47669,0 -0.43652,0 -0.85882,0.1364 -1.29244,0.1904 -0.41542,0.056 -0.81201,0.1908 -1.23064,0.247 -0.46976,0.051 -0.94289,0.053 -1.41483,0.056 -0.49378,0.011 -0.97845,0.1323 -1.47001,0.1872 -0.48014,0.072 -0.97416,0 -1.44886,0.099 -0.42858,0.093 -0.85655,0.1591 -1.28142,0.2672 -0.4774,0.1193 -0.96873,0.1525 -1.45847,0.1731 -0.45352,-0.034 -0.88263,0.1037 -1.32478,0.1758 -0.4604,0.065 -0.92605,0.073 -1.39015,0.08 -0.49111,0 -0.98226,0 -1.47338,0 -0.47444,-0.012 -0.93573,-0.019 -1.39911,0.086 -0.43423,0.1021 -0.87983,0.1293 -1.32394,0.1477 -0.48703,0.015 -0.97437,0.013 -1.46157,0.013 -0.49284,-5e-4 -0.98568,-0 -1.47853,-0 -0.16974,0 -0.29484,-0.016 -0.45703,0.041 -0.0587,0.021 -0.21786,0.1205 -0.16351,0.09 2.66714,-1.487 1.58168,-1.2718 1.40465,-0.5895 -0.0224,0.3991 0.14431,0.7811 0.22081,1.1705 0.1461,0.3974 0.24407,0.803 0.29779,1.2225 0.0407,0.4783 0.036,0.9545 0.11411,1.4289 0.0958,0.4914 0.13934,0.9896 0.16418,1.4888 0.0137,0.3294 0.0159,0.6592 0.018,0.9889 0,0 -1.7215,0.8783 -1.7215,0.8783 l 0,0 c -0.002,-0.3273 -0.003,-0.6547 -0.0144,-0.9819 -0.0211,-0.492 -0.0579,-0.9838 -0.15298,-1.4679 -0.0838,-0.4769 -0.0947,-0.9523 -0.12172,-1.4352 -0.0487,-0.4161 -0.14273,-0.8181 -0.29207,-1.2106 -0.0773,-0.4118 -0.24723,-0.8068 -0.25616,-1.2267 0.0792,-1.1232 1.53448,-1.5359 2.52339,-1.5331 0.49281,4e-4 0.98562,0 1.47843,0 0.4858,-6e-4 0.97186,0 1.45727,-0.022 0.44066,-0.026 0.87947,-0.072 1.31022,-0.1723 0.4692,-0.08 0.94299,-0.049 1.41726,-0.052 0.49056,5e-4 0.98116,0 1.47167,-0.01 0.45997,-0.011 0.92166,-0.026 1.37584,-0.1059 0.44273,-0.083 0.88087,-0.1737 1.33503,-0.1538 0.48401,-0.028 0.9675,-0.076 1.43704,-0.204 0.42766,-0.1048 0.86334,-0.1668 1.29484,-0.2538 0.48162,-0.046 0.96811,-0.026 1.44853,-0.092 0.49345,-0.064 0.98325,-0.1806 1.48315,-0.1706 0.46798,-0.01 0.93784,-0.013 1.40175,-0.081 0.41327,-0.072 0.81269,-0.2083 1.23208,-0.2445 0.43366,-0.067 0.86225,-0.1902 1.30496,-0.1664 0.49224,0 0.98447,0 1.47671,0 0.49167,0 0.98333,0 1.475,0 0.49784,10e-5 0.99569,10e-5 1.49353,6e-4 0.55926,6e-4 1.11851,0 1.67777,0 0.58486,-3e-4 1.16972,-7e-4 1.75457,-0 0.53918,5e-4 1.07835,0 1.61753,0 0.65665,0 1.31332,0 1.96998,-3e-4 0.62405,-0 1.24902,-0 1.87149,-0.054 0.50144,-0.048 0.99582,-0.1375 1.49499,-0.1999 0,0 -1.57551,1.1447 -1.57551,1.1447 z"
       inkscape:connector-curvature="0" />
    <path
       style="fill:#000000;fill-opacity:1"
       id="path3053"
       d="m 334.11986,1032.8724 c -0.52884,-0.051 -1.03915,0.03 -1.55727,0.1201 -0.39071,0.195 -0.82548,0.2407 -1.23649,0.3663 -0.4653,0.147 -0.95007,0.1978 -1.43458,0.2286 -0.41769,0.1214 -0.84288,0.1939 -1.2754,0.2325 -0.47812,0.034 -0.95773,0.034 -1.43678,0.035 -0.49255,4e-4 -0.9851,-8e-4 -1.47765,-0 -0.49259,-5e-4 -0.98518,-5e-4 -1.47777,-6e-4 -0.49237,0 -0.98475,0 -1.47713,0 -0.49236,0 -0.98472,0 -1.47709,0 -0.49236,0 -0.98473,0 -1.47709,0 -0.49237,0 -0.98473,0 -1.4771,0 -0.49237,0 -0.98473,0 -1.4771,0 -0.49236,0 -0.98473,0 -1.47709,0 -0.49237,0 -0.98474,0 -1.4771,0 -0.49237,0 -0.98473,0 -1.4771,0 -0.47931,0.024 -0.96889,-0.051 -1.44155,0.041 -0.42259,0.1114 -0.8561,0.1567 -1.29093,0.1837 -0.48325,0.023 -0.96721,0.023 -1.45089,0.023 -0.46623,-0.045 -0.90507,0.035 -1.35762,0.1272 -0.44798,0.084 -0.90439,0.1001 -1.35886,0.1119 -0.43365,0.013 -0.8525,0.1441 -1.28416,0.1972 -0.43296,-0 -0.83803,0.1449 -1.26031,0.2186 -0.37414,0.1767 -0.77491,0.2491 -1.18272,0.2921 -0.4767,0.038 -0.95541,0.037 -1.43331,0.039 -0.45618,0.027 -0.94565,-0.098 -1.36067,0.1293 3.14501,-1.7065 1.55037,-1.188 1.3423,-0.5709 -0.0534,0.1583 -0.0174,0.3353 0.002,0.4953 0.10016,0.3327 0.28641,0.6371 0.478,0.9254 0.1906,0.3314 0.33702,0.6927 0.46675,1.0528 0.0827,0.3998 0.22262,0.7835 0.31255,1.1815 0.0887,0.4592 0.0986,0.9282 0.10766,1.3943 -0.007,0.435 0.11685,0.8567 0.17718,1.2852 0.0575,0.472 0.0641,0.948 0.0698,1.4228 0.0181,0.3138 -0.002,0.6209 -0.057,0.9295 0,0 -1.74376,0.8459 -1.74376,0.8459 l 0,0 c 0.0654,-0.2983 0.1081,-0.5885 0.0794,-0.8959 -0.005,-0.4669 -0.01,-0.935 -0.062,-1.3996 -0.0583,-0.4367 -0.1876,-0.865 -0.18463,-1.3071 -0.007,-0.4536 -0.0142,-0.9098 -0.0944,-1.3576 -0.0844,-0.3916 -0.22829,-0.7655 -0.30269,-1.1593 -0.12195,-0.3466 -0.26438,-0.6929 -0.44551,-1.0116 -0.20474,-0.3152 -0.40547,-0.6418 -0.51881,-1.0021 -0.19903,-1.3293 0.4682,-1.2016 1.89989,-2.0279 0.4558,-0.1197 0.93091,-0.048 1.3975,-0.067 0.47447,-0 0.95043,-0 1.42234,-0.06 0.40464,-0.06 0.7875,-0.1804 1.17661,-0.3027 0.41983,-0.087 0.83418,-0.193 1.26533,-0.21 0.43057,-0.066 0.85473,-0.1893 1.29382,-0.179 0.45027,-0.018 0.90148,-0.045 1.34326,-0.1402 0.4562,-0.091 0.91043,-0.1147 1.3758,-0.094 0.48167,-0 0.96386,-0 1.44465,-0.036 0.43304,-0.037 0.85927,-0.1085 1.28518,-0.1943 0.48332,-0.038 0.96929,-0.01 1.45375,-0.018 0.49236,0 0.98473,0 1.4771,0 0.49236,0 0.98473,0 1.47709,0 0.49237,0 0.98473,0 1.4771,0 0.49237,0 0.98473,0 1.4771,0 0.49236,0 0.98473,0 1.47709,0 0.49237,0 0.98473,0 1.4771,0 0.49236,0 0.98472,0 1.47709,0 0.49238,0 0.98476,0 1.47714,0 0.49262,10e-5 0.98524,3e-4 1.47786,9e-4 0.49239,6e-4 0.98478,0 1.47717,3e-4 0.47622,-0 0.95342,-0.01 1.42783,-0.052 0.43069,-0.052 0.84886,-0.1572 1.27635,-0.226 0.47937,-0.041 0.95424,-0.1133 1.41408,-0.2602 0.41996,-0.1036 0.83257,-0.2226 1.24588,-0.3489 0.5276,-0.087 1.05362,-0.1179 1.58873,-0.1029 0,0 -1.57552,1.1447 -1.57552,1.1447 z"
       inkscape:connector-curvature="0" />
    <path
       style="fill:#000000;fill-opacity:1"
       id="path3055"
       d="m 20.550314,1038.2571 c 0.04812,-0.5134 0.18645,-1.0096 0.310994,-1.5079 0.06897,-0.4659 0.212061,-0.9138 0.317987,-1.3713 0.109769,-0.4129 0.321426,-0.7846 0.451588,-1.1905 0.154394,-0.4749 0.315134,-0.9481 0.457971,-1.4266 0.101038,-0.4243 0.235152,-0.8424 0.413468,-1.2406 0.481598,-1.2844 0.476854,-0.8834 2.234369,-1.902 0.440165,-0.1125 0.898888,-0.1069 1.350056,-0.1102 0.589224,0 1.178419,0.01 1.767649,0.01 0.559067,7e-4 1.118134,0 1.6772,-4e-4 0.554106,0.093 1.110113,0.1662 1.670283,0.2091 0.510701,0.1119 1.023759,0.2009 1.544546,0.2472 0.507014,0.081 0.991725,0.243 1.48697,0.3715 0.489715,0.1 0.983633,0.1343 1.472935,0.2362 0.569311,0.1327 1.157704,0.1053 1.731777,0.1954 0.499221,0.091 0.997217,0.1596 1.489933,0.2803 0.474388,0.1181 0.962107,0.1525 1.448707,0.1731 0.490834,0.015 0.98198,0.013 1.472982,0.012 0.425963,0.085 0.84993,0.1666 1.282892,0.2068 0.07576,0 0.151514,0.01 0.22727,0.015 0,0 -1.573784,1.1259 -1.573784,1.1259 l 0,0 c -0.07709,-0.01 -0.154189,-0.013 -0.231283,-0.019 -0.426135,-0.048 -0.842939,-0.1453 -1.26858,-0.1925 -0.492955,-10e-5 -0.986168,0 -1.478766,-0.02 -0.49454,-0.028 -0.988315,-0.077 -1.469218,-0.2025 -0.486947,-0.1142 -0.982997,-0.1745 -1.474014,-0.2691 -0.580227,-0.073 -1.17087,-0.065 -1.743141,-0.2012 -0.491603,-0.096 -0.993804,-0.1181 -1.479373,-0.2464 -0.485532,-0.1337 -0.968151,-0.2806 -1.469517,-0.3454 -0.517954,-0.056 -1.026172,-0.1618 -1.539614,-0.2471 -0.556423,-0.051 -1.107465,-0.1407 -1.663307,-0.1943 -0.556685,-9e-4 -1.113369,-0 -1.670048,-0.01 -0.591615,-0 -1.183259,-0 -1.774866,2e-4 -0.438361,0.01 -0.895453,0 -1.303053,0.1864 3.779741,-2.2451 1.49566,-1.0655 1.242719,-0.6722 -0.10905,0.1695 -0.110215,0.3737 -0.196812,0.5525 -0.178896,0.3928 -0.344937,0.7947 -0.433656,1.2193 -0.133188,0.4808 -0.2992,0.952 -0.45366,1.4261 -0.11157,0.4108 -0.301536,0.7823 -0.456303,1.177 -0.09454,0.4644 -0.266187,0.9069 -0.323005,1.3795 -0.116746,0.4844 -0.259907,0.9606 -0.315109,1.4579 0,0 -1.735187,0.8841 -1.735187,0.8841 z"
       inkscape:connector-curvature="0" />
    <path
       style="fill:#000000;fill-opacity:1"
       id="path3057"
       d="m 40.669904,1029.9182 c -0.567851,-0.01 -1.135831,-0.01 -1.703742,-0.01 -0.587097,-3e-4 -1.174192,0 -1.761288,0 -0.503425,7e-4 -1.006851,9e-4 -1.510277,10e-4 -0.491585,0 -0.98317,0 -1.474755,0 -0.492161,-0.086 -0.98364,-0.1664 -1.481659,-0.209 -0.419718,-0.1202 -0.843567,-0.2049 -1.277825,-0.2475 -0.483669,-0.018 -0.956954,-0.034 -1.433316,-0.1212 -0.484874,-0.096 -0.977774,-0.1297 -1.470581,-0.1494 -0.491593,-0.015 -0.983482,-0.013 -1.475242,-0.013 -0.528692,0 -1.057379,-5e-4 -1.586071,-3e-4 -0.535239,7e-4 -1.070478,0 -1.605717,0 -0.495768,3e-4 -0.991536,3e-4 -1.487304,3e-4 -0.491911,0 -0.983822,0 -1.475733,0 -0.24453,0.018 -0.494218,-0.022 -0.738347,0 -0.535137,0.048 -2.325901,1.2183 1.15545,-0.7203 -0.292685,0.3002 -0.283204,0.7489 -0.300172,1.1424 -0.01072,0.492 -0.0034,0.9842 -1.31e-4,1.4762 0.0032,0.4939 0.0041,0.9878 0.0046,1.4818 -0.01302,0.4353 0.11314,0.8576 0.17439,1.2861 0.0705,0.2564 0.146489,0.5101 0.20506,0.7696 0,0 -1.707731,0.9175 -1.707731,0.9175 l 0,0 c -0.0574,-0.2652 -0.134397,-0.5238 -0.210731,-0.784 -0.05938,-0.4379 -0.191199,-0.8679 -0.18288,-1.3117 -3.92e-4,-0.4936 -9.86e-4,-0.9873 -0.0039,-1.4809 -0.0031,-0.4942 -0.0097,-0.9884 -0.0047,-1.4826 0.01109,-0.4361 0.0083,-0.8952 0.223928,-1.2877 1.64189,-0.9809 1.510302,-1.1876 2.948763,-1.1424 0.491912,0 0.983825,0 1.475737,0 0.495445,10e-5 0.99089,10e-5 1.486336,4e-4 0.533863,3e-4 1.067726,10e-4 1.601589,0 0.530395,-4e-4 1.060778,-0 1.591175,-0 0.49351,4e-4 0.987234,0 1.480412,0.02 0.497853,0.026 0.994245,0.073 1.48414,0.1689 0.474494,0.076 0.95175,0.067 1.429617,0.1098 0.431193,0.053 0.849226,0.1562 1.273227,0.2469 0.492836,0.051 0.978393,0.1476 1.471237,0.1942 0.491563,0 0.983125,-10e-5 1.474688,0 0.502589,10e-5 1.005178,2e-4 1.507766,9e-4 0.585143,9e-4 1.170285,0 1.755429,0 0.574701,-0 1.149467,0 1.724111,-0.01 0,0 -1.575517,1.1447 -1.575517,1.1447 z"
       inkscape:connector-curvature="0" />
    <path
       style="fill:#000000;fill-opacity:1"
       id="path3059"
       d="m 347.31426,1037.6361 c 0.55863,0.01 1.11739,0.01 1.67608,0.01 0.5774,0.011 1.14794,0.1301 1.72333,0.1867 0.56878,0.01 1.12342,0.097 1.68383,0.1827 0.65627,0.088 1.31912,0.1062 1.98032,0.1188 0.50013,-0.044 0.97866,0.084 1.46671,0.1645 0.45437,0.066 0.91418,0.075 1.37245,0.082 0.49889,0.01 0.99781,0 1.49671,0 0.61487,0 1.22973,10e-4 1.84459,-4e-4 0.52553,-0 1.05106,-0 1.5766,-0 0.49256,-2e-4 0.98513,-10e-5 1.4777,-10e-5 0.49186,0 0.98372,0 1.47558,0 0.49233,0 0.98466,0 1.47699,0 0.49237,0 0.98474,0 1.47712,0 0.49236,0 0.98473,0 1.4771,0 0.49236,0 0.98473,0 1.47709,0 0.43653,-0 0.85883,-0.1365 1.29244,-0.1904 0.47016,-0.049 0.94334,-0.052 1.41552,-0.056 0.47371,0.01 0.93425,0.016 1.39705,-0.087 0.43457,-0.1015 0.88037,-0.1287 1.32471,-0.1469 0.48706,-0.015 0.97442,-0.013 1.46165,-0.013 0.45266,0.047 0.88112,-0.09 1.32225,-0.1619 0.46028,-0.065 0.92587,-0.074 1.38993,-0.081 0.41758,-0.1039 0.83881,-0.1754 1.26726,-0.2133 0.43925,0.015 0.85231,-0.1271 1.28052,-0.1994 0,0 -1.54681,1.1673 -1.54681,1.1673 l 0,0 c -0.4272,0.085 -0.84943,0.1839 -1.28818,0.186 -0.42831,0.05 -0.8463,0.1536 -1.27463,0.199 -0.45998,0.011 -0.9216,0.027 -1.37574,0.1074 -0.44387,0.083 -0.88279,0.1714 -1.33811,0.132 -0.48583,6e-4 -0.97193,0 -1.45737,0.022 -0.4409,0.026 -0.87998,0.071 -1.31108,0.1714 -0.46823,0.079 -0.94081,0.048 -1.41401,0.056 -0.46869,0.01 -0.93879,0.015 -1.40399,0.078 -0.43365,0.067 -0.86225,0.1903 -1.30495,0.1664 -0.49237,0 -0.98474,0 -1.4771,0 -0.49237,0 -0.98473,0 -1.4771,0 -0.49237,0 -0.98474,0 -1.47711,0 -0.49234,0 -0.98467,0 -1.47701,0 -0.49187,0 -0.98375,0 -1.47563,0 -0.49241,0 -0.98482,0 -1.47722,-2e-4 -0.52376,-3e-4 -1.04752,-7e-4 -1.57128,-0 -0.61555,-10e-4 -1.23109,-0 -1.84663,0 -0.50109,0 -1.00225,0 -1.5033,-0 -0.46538,-0.011 -0.93229,-0.026 -1.39222,-0.104 -0.47762,-0.085 -0.95,-0.1808 -1.43931,-0.1495 -0.66689,-0.02 -1.33525,-0.046 -1.99688,-0.1374 -0.55801,-0.087 -1.11446,-0.1459 -1.67862,-0.1749 -0.5697,-0.063 -1.13719,-0.1766 -1.71188,-0.1702 -0.56429,-7e-4 -1.12865,-0 -1.69288,0.01 0,0 1.57551,-1.1446 1.57551,-1.1446 z"
       inkscape:connector-curvature="0" />
    <path
       style="fill:#000000;fill-opacity:1"
       id="path3061"
       d="m 220.5301,1044.2831 c 0.56836,-0.013 1.13059,-0.13 1.69824,-0.1783 0.70008,-0.047 1.40178,-0.055 2.10316,-0.059 0.75688,-0 1.51376,0 2.27065,3e-4 0.79411,0 1.58822,-7e-4 2.38233,0 0.80387,-5e-4 1.60773,6e-4 2.4116,-0 0.74125,5e-4 1.4825,0 2.22375,-6e-4 0.61155,-0 1.22311,-0 1.83466,-0 0.53786,-9e-4 1.07572,-0 1.61358,-0 0.49464,-3e-4 0.98928,-3e-4 1.48392,-3e-4 0.50102,3e-4 1.00204,-0 1.50306,0 0.52013,-0.1006 1.04261,-0.1681 1.57076,-0.2077 0.51035,-0.046 1.00747,-0.1719 1.5193,-0.2276 0.51925,-0.054 1.02574,-0.1847 1.54539,-0.2469 0.49543,-0.051 0.99391,-0.055 1.49144,-0.059 0.41506,-0.1135 0.84966,-0.1368 1.26324,-0.2493 0.4688,-0.1374 0.9538,-0.1896 1.43934,-0.2209 0.24682,-0.014 0.494,-0.017 0.74111,-0.02 0,0 -1.56136,1.1389 -1.56136,1.1389 l 0,0 c -0.24508,0.01 -0.49029,0.011 -0.73485,0.029 -0.48133,0.041 -0.95748,0.1147 -1.42327,0.2464 -0.42584,0.085 -0.85531,0.1667 -1.2866,0.2137 -0.49299,0.01 -0.98712,0.015 -1.47693,0.077 -0.51678,0.073 -1.02438,0.2004 -1.54504,0.2441 -0.50899,0.066 -1.00755,0.1983 -1.52159,0.2205 -0.53004,0.048 -1.05149,0.148 -1.58094,0.1955 -0.50221,0 -1.00443,9e-4 -1.50665,0 -0.49435,0 -0.9887,0 -1.48305,-3e-4 -0.53603,-4e-4 -1.07205,-0 -1.60808,-0 -0.60945,-6e-4 -1.2189,0 -1.82834,-0 -0.74069,-0 -1.48138,-0 -2.22206,-6e-4 -0.80173,-0 -1.60344,-0 -2.40517,-0 -0.79544,0 -1.59089,-9e-4 -2.38633,4e-4 -0.75754,-0 -1.51509,10e-5 -2.27262,0 -0.69992,0.01 -1.40084,0.014 -2.09856,0.076 -0.57637,0.061 -1.1491,0.1721 -1.72961,0.1785 0,0 1.57552,-1.1447 1.57552,-1.1447 z"
       inkscape:connector-curvature="0" />
  </g>
</svg>
