<?xml version="1.0" encoding="UTF-8" standalone="no"?>
<!-- Created with Inkscape (http://www.inkscape.org/) -->

<svg
   xmlns:dc="http://purl.org/dc/elements/1.1/"
   xmlns:cc="http://creativecommons.org/ns#"
   xmlns:rdf="http://www.w3.org/1999/02/22-rdf-syntax-ns#"
   xmlns:svg="http://www.w3.org/2000/svg"
   xmlns="http://www.w3.org/2000/svg"
   xmlns:sodipodi="http://sodipodi.sourceforge.net/DTD/sodipodi-0.dtd"
   xmlns:inkscape="http://www.inkscape.org/namespaces/inkscape"
   width="256"
   height="256"
   id="svg2"
   version="1.1"
   inkscape:version="0.48.5 r10040"
   sodipodi:docname="octoBackground.svg"
   inkscape:export-filename="C:\Users\narfman0\Desktop\octoBackground.png"
   inkscape:export-xdpi="90"
   inkscape:export-ydpi="90">
  <defs
     id="defs4" />
  <sodipodi:namedview
     id="base"
     pagecolor="#ffffff"
     bordercolor="#666666"
     borderopacity="1.0"
     inkscape:pageopacity="0.0"
     inkscape:pageshadow="2"
     inkscape:zoom="1.0074671"
     inkscape:cx="375"
     inkscape:cy="186.79262"
     inkscape:document-units="px"
     inkscape:current-layer="layer1"
     showgrid="false"
     inkscape:window-width="1385"
     inkscape:window-height="799"
     inkscape:window-x="176"
     inkscape:window-y="176"
     inkscape:window-maximized="0" />
  <metadata
     id="metadata7">
    <rdf:RDF>
      <cc:Work
         rdf:about="">
        <dc:format>image/svg+xml</dc:format>
        <dc:type
           rdf:resource="http://purl.org/dc/dcmitype/StillImage" />
        <dc:title></dc:title>
      </cc:Work>
    </rdf:RDF>
  </metadata>
  <g
     inkscape:label="Layer 1"
     inkscape:groupmode="layer"
     id="layer1"
     transform="translate(0,-796.36218)">
    <path
       style="fill:#4d4d4d;fill-opacity:1;stroke:none"
       id="path2994"
       d="m 8.5064828,869.11834 c 1.33838,-2.10208 2.4049302,-4.35608 3.8109002,-6.41515 0.96049,-1.45512 2.11212,-2.78535 3.35649,-4.00393 0.77574,-0.99546 1.93702,-1.67525 2.58369,-2.76868 0.86395,-1.2278 1.63295,-2.50466 2.47208,-3.75564 0.79491,-1.337 1.52953,-2.70088 2.27159,-4.06885 0.55057,-1.40718 1.04775,-2.84101 1.68738,-4.21229 0.56326,-1.33604 1.10102,-2.69436 1.56349,-4.07189 0.27198,-1.60306 1.22384,-2.92174 1.88999,-4.36145 1.05734,-2.13769 3.05509,-2.89113 5.26419,-3.27094 1.78413,-0.0711 3.50697,-0.27067 5.25412,-0.61942 1.90943,-0.37706 3.85592,-0.46631 5.79609,-0.52551 1.68602,-0.0159 3.32167,-0.50325 4.98912,-0.73642 1.76349,-0.2133 3.52644,-0.1459 5.26407,-0.52362 1.75645,-0.49606 3.60019,-0.44974 5.37864,-0.78386 1.92258,-0.4057 3.86399,-0.64116 5.77665,-1.08947 2.06956,-0.51432 4.19243,-0.70156 6.31567,-0.80793 2.01776,-0.0758 4.0374,-0.0689 6.05623,-0.0678 1.98536,0.003 3.97073,0.006 5.95609,0.008 1.67579,0.0234 3.30548,-0.46599 4.96068,-0.69881 1.96876,-0.23976 3.9543,-0.26723 5.93488,-0.29039 1.99163,-0.0142 3.98334,-0.008 5.975007,-0.006 1.98585,0.003 3.9717,0.003 5.95756,0.004 1.98511,3.8e-4 3.97023,3.5e-4 5.95535,3.4e-4 1.98516,-10e-6 3.97033,-3e-5 5.95549,-4e-5 2.03722,0.0343 4.07866,-0.10602 6.10407,0.1368 1.67277,0.38308 3.36217,0.62505 5.07218,0.7495 2.02357,0.0566 4.01995,0.09 6.02008,0.42294 1.8886,0.36992 3.80475,0.52698 5.72396,0.61606 1.95428,0.0699 3.91019,0.0663 5.86543,0.0669 1.9845,-0.001 3.96899,-0.004 5.95349,-0.006 1.71573,0.17235 3.3448,-0.27437 5.0152,-0.56933 1.87267,-0.15699 3.70086,-0.472 5.54411,-0.82553 1.85582,-0.35469 3.738,-0.3599 5.57566,-0.79465 1.70335,-0.55376 3.5354,-0.42251 5.25931,-0.81267 1.69632,-0.33827 3.34814,-0.82645 5.02235,-1.25406 2.05261,-0.49557 4.16386,-0.61112 6.26578,-0.6822 2.00992,-0.0472 4.02061,-0.0376 6.03092,-0.0344 1.98525,0.004 3.9705,0.006 5.95575,0.008 1.98479,9.8e-4 3.96958,9.8e-4 5.95437,10e-4 2.03921,-0.0324 4.05033,-0.069 6.05798,0.32029 1.64925,0.39083 3.33648,0.52679 5.0242,0.61052 1.98247,0.0353 3.93657,0.009 5.88845,0.38932 1.65029,0.38912 3.33863,0.52219 5.02701,0.60464 1.81153,0.0172 3.5568,0.55918 5.34344,0.80579 1.99728,0.39518 3.66895,1.56025 5.29979,2.71216 1.24446,1.16072 2.49007,2.27682 3.81928,3.33099 1.38439,0.78792 2.19636,2.17837 3.23982,3.31986 1.25575,0.89214 2.25741,2.15366 3.04661,3.46313 0.84238,1.22092 1.65309,2.43779 2.37512,3.73657 0.75689,1.70844 1.58495,3.38435 2.11943,5.18007 0.50898,1.22221 1.09604,2.43651 1.81814,3.55028 0.78101,1.2745 1.32648,2.68381 2.08786,3.96621 0.73756,1.47144 1.52975,2.89787 2.03701,4.46985 0.61821,1.98249 0.47914,3.9447 0.1139,5.94867 -0.58021,1.82524 -1.03171,3.67863 -1.6866,5.47847 -0.51392,1.58702 -0.66714,3.23996 -1.11161,4.84717 -0.36061,1.72258 -0.92662,3.38908 -1.27743,5.11422 -0.35636,1.90524 -0.2916,3.84792 -0.54,5.76337 -0.38546,1.92391 -0.62959,3.8653 -0.75902,5.82182 -0.10307,1.94104 -0.10365,3.88552 -0.10763,5.8287 -5e-4,1.98321 0.003,3.96641 0.005,5.94961 0.005,1.77877 -0.10802,3.54105 0.24693,5.28934 0.287,1.7951 0.86829,3.51462 1.24016,5.29231 0.38684,2.05954 0.45098,4.15777 0.49364,6.24697 0.0259,2.00149 0.0169,4.00323 0.0133,6.00484 0.13012,2.00296 -0.099,3.94169 -0.49527,5.8981 -0.37412,1.74213 -0.33449,3.52928 -0.6209,5.28064 -0.48206,1.68186 -0.57226,3.43334 -0.94024,5.13404 -0.49453,1.55605 -0.70857,3.16284 -0.82968,4.78412 -0.10798,1.89626 -0.10426,3.79655 -0.10716,5.69519 5.5e-4,1.98567 0.005,3.97134 0.007,5.95701 0.002,1.98651 0.002,3.97302 0.002,5.95953 1e-4,1.98526 5e-5,3.97051 3e-5,5.95576 0.11636,1.84525 -0.20278,3.74103 0.10063,5.56948 0.32952,1.54151 0.51436,3.09156 0.97641,4.59847 0.35064,1.61776 0.77952,3.19458 1.22673,4.78724 0.49597,1.91007 0.58545,3.88654 0.64934,5.84887 -0.13658,1.72599 0.30752,3.36852 0.60109,5.05006 0.31154,1.9449 0.36468,3.91677 0.40345,5.88207 0.20972,2.3056 -0.69077,4.2778 -1.89357,6.1642 -0.775,1.5809 -1.91258,2.8891 -3.15679,4.1133 -1.11743,1.3794 -2.48053,2.53 -3.66651,3.8425 -1.09933,1.2353 -2.42162,2.3244 -3.35846,3.6932 -0.98548,1.1621 -1.82342,2.4149 -2.67854,3.6681 -0.91443,1.0656 -1.45192,2.2766 -2.05792,3.5174 -0.73342,2.0064 -2.44954,2.997 -4.28586,3.8363 -1.9686,0.6622 -4.02138,1.0713 -6.05149,1.516 -2.0871,0.4365 -4.21896,0.5414 -6.34389,0.6038 -2.00716,0.041 -4.01489,0.032 -6.02233,0.028 -1.98452,-0 -3.96904,-0.01 -5.95356,-0.01 -1.91687,-0.1468 -3.77871,0.2932 -5.66082,0.5752 -2.05693,0.2946 -4.13532,0.3617 -6.20978,0.403 -1.99885,0.027 -3.99796,0.021 -5.99695,0.019 -1.9847,-0 -3.96941,-0 -5.95412,-0 -1.98493,-6e-4 -3.96986,-6e-4 -5.9548,-6e-4 -1.98516,0 -3.97033,0 -5.9555,10e-5 -2.03722,-0.034 -4.07867,0.106 -6.10408,-0.1368 -1.67277,-0.3831 -3.36217,-0.6251 -5.07218,-0.7495 -1.78152,-0.059 -3.4925,-0.6048 -5.25209,-0.8521 -1.80153,-0.2111 -3.61793,-0.2281 -5.4294,-0.2473 -1.97597,-0.012 -3.952,-0.01 -5.928,-0 -2.03917,-0.032 -4.08251,0.1096 -6.10993,-0.1328 -1.67315,-0.3827 -3.36281,-0.6248 -5.07311,-0.7493 -1.89655,-0.1082 -3.79707,-0.1082 -5.69605,-0.1129 -1.9844,-10e-4 -3.9688,0 -5.95319,0 -1.98643,0 -3.97286,0 -5.95929,0 -1.98527,10e-5 -3.97053,10e-5 -5.9558,10e-5 -1.98516,0 -3.97033,0 -5.95549,-10e-5 -1.98517,0 -3.97035,0 -5.955527,0 -1.98517,0 -3.97035,0 -5.95553,0 -1.63886,0.3256 -3.27482,0.6273 -4.93774,0.8021 -1.92062,0.017 -3.78199,0.4724 -5.66987,0.7687 -2.06159,0.3028 -4.1463,0.3649 -6.22628,0.404 -1.99922,0.025 -3.99866,0.018 -5.99798,0.016 -1.98466,-0 -3.96931,-0 -5.95396,-0.01 -1.98493,-6e-4 -3.96985,-6e-4 -5.95477,-6e-4 -1.98517,0 -3.97034,1e-4 -5.95551,1e-4 -1.98518,0 -3.97036,0 -5.95554,0 -1.98517,0 -3.97035,0 -5.95553,0 -1.98517,0 -3.97035,0 -5.95553,0 -2.00373,0.1968 -3.74403,-0.5875 -5.53873,-1.3168 -1.50806,-0.672 -2.72982,-1.7498 -3.99118,-2.7804 -1.08796,-0.767 -2.24193,-1.4102 -3.40507,-2.0585 -1.2104,-0.8902 -2.40249,-1.7791 -3.62332,-2.6497 -1.27384,-0.8288 -2.44353,-1.8221 -3.5241,-2.889 -1.32284,-1.0996 -2.29203,-2.5367 -3.39507,-3.8375 -0.96389,-1.2092 -1.9336202,-2.4411 -3.0599302,-3.5059 -1.24891,-1.0887 -1.6093,-2.7648 -2.54115,-4.0678 -0.83291,-1.2437 -1.41669,-2.6354 -2.19273,-3.9089 -0.89607,-1.2324 -1.49744,-2.6043 -2.18716,-3.954 -0.90864999,-1.708 -1.18564999,-3.60563 -1.35477999,-5.50507 -0.23978,-2.04408 0.0562,-4.05207 0.71954,-5.98516 0.63466999,-1.44954 0.91236999,-3.0011 1.42118999,-4.49465 0.39772,-1.76529 0.98373,-3.44624 1.74312,-5.08656 0.65926,-1.4331 0.80422,-2.99952 0.91031,-4.55212 0.34123,-1.71251 0.72468,-3.40299 0.89954,-5.14303 0.14897,-1.85803 0.15291,-3.72359 0.16188,-5.58635 0.004,-1.98205 -8.4e-4,-3.9641 -0.003,-5.94615 -0.1185,-1.84688 0.20033,-3.74438 -0.1035,-5.57444 -0.19924,-1.51481 -0.88988,-2.86992 -1.30523,-4.3294 -0.23098,-1.69689 -0.77831,-3.31441 -1.12968,-4.9874 -0.16399,-1.72296 -0.45179,-3.38779 -0.83663,-5.07163 -0.37086,-1.61979 -0.95743,-3.16009 -1.25966,-4.80493 -0.0772,-1.71893 -0.57682999,-3.35322 -0.89944999,-5.0323 -0.33267,-1.95151 -0.37955,-3.93445 -0.41616,-5.90898 -0.0239,-1.99357 -0.0168,-3.98734 -0.014,-5.981 0.003,-1.98622 0.004,-3.97244 0.004999996,-5.95866 5.6e-4,-1.98511 5.3e-4,-3.97023 5.3e-4,-5.95534 -1e-5,-1.98516 -2.9999996e-5,-3.97031 -3.9999996e-5,-5.95547 C -0.03232719,899.62872 -0.06882719,897.61757 0.32040281,895.6099 c 0.31891,-1.5837 1.05363999,-3.01586 1.36778999,-4.60402 0.25329,-1.62361 0.79813,-3.17088 1.04505,-4.79894 0.32394,-1.68173 1.05032,-3.21885 1.63591,-4.81143 0.39091,-1.65035 0.88598,-3.27347 1.20332,-4.94187 0.3386,-1.92493 0.26971,-3.88331 0.5168,-5.81598 0.3815,-2.78142 4.3150302,-2.24189 3.9335302,0.53953 l 0,0 c -0.3017702,1.99273 -0.1204902,4.04356 -0.5516002,6.02721 -0.3663,1.88302 -0.9005,3.72523 -1.3823,5.57935 -0.50557,1.33986 -1.11153,2.62594 -1.43219,4.03153 -0.26679,1.6913 -0.79678,3.30584 -1.07906,4.98801 -0.33168,1.57795 -0.96251,3.03093 -1.36234,4.57692 -0.35468,1.7478 -0.24164,3.5095 -0.24489,5.28773 1e-5,1.98517 3e-5,3.97033 5e-5,5.9555 -1e-5,1.9856 2e-5,3.97119 -5.4e-4,5.95679 -7.3e-4,1.98753 -0.002,3.97506 -0.005,5.96258 -0.003,1.96754 -0.01,3.93518 0.0134,5.90262 0.0319,1.74992 0.0651,3.50778 0.34673,5.23919 0.31853,1.69056 0.83004,3.34274 0.90687,5.07244 0.27669,1.58488 0.90078,3.05264 1.22271,4.62376 0.38936,1.70691 0.70568,3.4028 0.85355,5.14924 0.32343,1.58514 0.8671,3.11638 1.06591,4.72717 0.44331,1.63294 1.25746,3.1511 1.41519,4.86179 0.2431902,2.02567 0.10319,4.06748 0.13973,6.105 0.002,1.98996 0.007,3.97993 0.003,5.9699 -0.01,1.9911 -0.016,3.98524 -0.18241,5.97082 -0.1757,1.69498 -0.47541,3.36302 -0.88866,5.01667 -0.14538,2.03451 -0.39452,4.07263 -1.26826,5.94336 -0.70198,1.51504 -1.20966,3.06917 -1.58784,4.69911 -0.51922,1.52197 -0.79252,3.11049 -1.45349,4.58573 -0.57427,1.33963 -0.60907,2.8392 -0.48982,4.2688 0.11915,1.40934 0.27563,2.82539 0.95959,4.09179 0.62179,1.2872 1.19184,2.5542 2.05623,3.7105 0.70154,1.2329 1.31434,2.5153 2.07277,3.7162 0.71529,1.1196 1.1597802,2.3955 2.0011202,3.4163 1.19603,1.185 2.30137,2.4667 3.3311,3.7978 1.02315,1.2274 1.93885,2.5664 3.17597,3.5973 0.89672,0.9436 1.95185,1.7466 3.03131,2.4666 1.08154,0.8021 2.1959,1.5444 3.23594,2.4021 1.36475,0.7684 2.72062,1.5353 3.98923,2.4583 0.94903,0.7874 1.85135,1.6197 2.96983,2.1696 1.3316,0.5483 2.52922,1.2029 4.03473,1.0209 1.98517,0 3.97035,0 5.95553,0 1.98517,0 3.97035,0 5.95552,0 1.98518,0 3.97035,0 5.95552,0 1.98519,-10e-5 3.97037,-10e-5 5.95555,-10e-5 1.98541,0 3.97081,0 5.95622,6e-4 1.98581,7e-4 3.97163,0 5.95744,0.01 1.97298,0 3.94608,0.01 5.91896,-0.015 1.8994,-0.035 3.80354,-0.086 5.6869,-0.357 1.95406,-0.3043 3.8859,-0.7707 5.87315,-0.7951 1.80056,-0.1844 3.55391,-0.6012 5.34792,-0.8234 1.98517,0 3.97035,0 5.95553,0 1.985167,0 3.970347,0 5.955527,0 1.98517,0 3.97034,10e-5 5.95551,10e-5 1.98513,0 3.97026,0 5.95539,-10e-5 1.98534,-2e-4 3.97069,-5e-4 5.95603,-0 1.9889,-0 3.9778,-0.01 5.96671,-0 1.99316,0.01 3.98797,0.01 5.97839,0.1237 1.78935,0.1337 3.56529,0.3622 5.3142,0.7745 1.82921,0.303 3.72558,-0.017 5.57154,0.097 1.99181,-0 3.98365,-0.01 5.97544,0 1.9847,0.021 3.97477,0.045 5.94751,0.2868 1.67109,0.2412 3.29816,0.7393 4.98383,0.8231 1.78946,0.1337 3.56555,0.3622 5.31451,0.7749 1.82846,0.3034 3.72425,-0.016 5.56952,0.1006 1.98518,0 3.97037,0 5.95555,0 1.98542,0 3.97085,0 5.95627,6e-4 1.98564,7e-4 3.97129,0 5.95693,0 1.97137,0 3.94287,0.01 5.91411,-0.018 1.90428,-0.037 3.81256,-0.093 5.70128,-0.3602 2.07491,-0.3095 4.13746,-0.7684 6.25005,-0.6188 1.98585,10e-4 3.9717,0 5.95755,0.01 1.96691,0 3.9341,0.012 5.90075,-0.027 1.87899,-0.054 3.76533,-0.1355 5.61241,-0.5142 1.76546,-0.384 3.53941,-0.7637 5.27347,-1.2595 1.10957,-0.4837 1.94731,-0.7665 2.35712,-1.9844 0.71477,-1.3899 1.34752,-2.7863 2.34737,-4.007 0.89026,-1.2571 1.70967,-2.5573 2.721,-3.7283 1.08487,-1.4644 2.40779,-2.7375 3.65757,-4.0602 1.25265,-1.3458 2.62744,-2.5738 3.80834,-3.989 1.0388,-1.0162 1.965,-2.0846 2.59058,-3.4151 0.79544,-1.2455 1.47003,-2.3974 1.27096,-3.9507 -0.0342,-1.7636 -0.0745,-3.5335 -0.34556,-5.27998 -0.32152,-1.85941 -0.78829,-3.69612 -0.65768,-5.60222 -0.0522,-1.64426 -0.10883,-3.30305 -0.50489,-4.90798 -0.43399,-1.56184 -0.86652,-3.11065 -1.2003,-4.69679 -0.52078,-1.71307 -0.76231,-3.46935 -1.1132,-5.22297 -0.24281,-2.0254 -0.1025,-4.06683 -0.13677,-6.10405 2e-5,-1.98512 7e-5,-3.97025 -4e-5,-5.95537 -1.7e-4,-1.98529 -4e-4,-3.97059 -0.002,-5.95588 -0.002,-1.98904 -0.006,-3.97808 -0.007,-5.96712 0.003,-1.99701 1.4e-4,-3.99583 0.11858,-5.99012 0.14043,-1.81901 0.37424,-3.62863 0.92021,-5.37703 0.41677,-1.6132 0.37503,-3.33696 0.89988,-4.93672 0.3614,-1.76102 0.16534,-3.61859 0.63836,-5.37237 0.34504,-1.70295 0.5506,-3.36812 0.41623,-5.1169 0.004,-1.97245 0.0124,-3.94504 -0.0125,-5.91739 -0.037,-1.84562 -0.0834,-3.70001 -0.41185,-5.52161 -0.36663,-1.78956 -0.96849,-3.51868 -1.24724,-5.32724 -0.38941,-2.00709 -0.35321,-4.01772 -0.32245,-6.05643 -0.002,-1.98713 -0.006,-3.97427 -0.005,-5.96141 0.004,-2.02876 0.006,-4.05889 0.11647,-6.08527 0.13826,-2.04999 0.38111,-4.08753 0.78793,-6.10326 0.30442,-1.99019 0.12935,-4.04034 0.58387,-6.01814 0.37708,-1.81183 0.95164,-3.5666 1.34039,-5.37499 0.47446,-1.7028 0.59222,-3.47484 1.20658,-5.14369 0.57965,-1.59123 0.95601,-3.23271 1.51171,-4.83386 0.25251,-1.37823 0.43887,-2.67271 0.002,-4.05214 -0.38697,-1.31263 -1.12779,-2.46369 -1.70248,-3.69746 -0.69647,-1.26489 -1.29569,-2.58201 -2.01135,-3.83678 -0.86711,-1.44465 -1.68647,-2.93533 -2.25186,-4.52738 -0.4252,-1.51824 -1.18239,-2.90488 -1.77705,-4.35883 -0.71165,-1.28063 -1.52692,-2.47048 -2.34629,-3.68561 -0.58727,-1.1408 -1.60961,-1.9973 -2.57585,-2.80888 -0.87378,-1.00361 -1.56896,-2.17001 -2.74757,-2.8522 -1.2606,-1.01754 -2.49646,-2.03467 -3.63551,-3.19266 -1.11027,-0.78881 -2.23055,-1.63977 -3.55505,-2.02014 -1.6698,-0.23615 -3.30262,-0.72732 -4.98946,-0.77236 -1.88177,-0.094 -3.76334,-0.24849 -5.6037,-0.67571 -1.75667,-0.35681 -3.52839,-0.24565 -5.31489,-0.31841 -1.87921,-0.0954 -3.75786,-0.25245 -5.59534,-0.68095 -1.74782,-0.35467 -3.50952,-0.2416 -5.28776,-0.24485 -1.9856,-3e-5 -3.97119,-2e-5 -5.95678,-10e-4 -1.98653,-0.001 -3.97305,-0.003 -5.95958,-0.008 -1.96397,-0.003 -3.9283,-0.0125 -5.8919,0.0322 -1.81663,0.06 -3.64323,0.14484 -5.41985,0.56191 -1.74091,0.44064 -3.46054,0.9462 -5.22304,1.2996 -1.70301,0.31567 -3.45224,0.32093 -5.13237,0.78514 -1.89494,0.43968 -3.81675,0.51433 -5.73315,0.82815 -1.86141,0.35655 -3.71314,0.68356 -5.60389,0.83652 -1.89125,0.33102 -3.76005,0.80308 -5.70001,0.62933 -1.9859,10e-4 -3.97179,0.004 -5.95769,0.006 -2.01674,-7e-4 -4.03419,0.003 -6.04989,-0.0713 -2.07721,-0.0982 -4.15129,-0.27001 -6.19596,-0.66659 -1.87686,-0.31878 -3.7543,-0.29981 -5.65445,-0.37883 -1.78947,-0.13367 -3.56555,-0.3622 -5.31451,-0.77487 -1.82846,-0.30342 -3.72425,0.0157 -5.56951,-0.10065 -1.98517,0 -3.97033,2e-5 -5.9555,4e-5 -1.98546,0 -3.97092,4e-5 -5.95637,-3.4e-4 -1.98708,-5.1e-4 -3.97417,-10e-4 -5.96124,-0.004 -1.974727,-0.002 -3.949497,-0.008 -5.924187,0.006 -1.81283,0.0209 -3.6303,0.0417 -5.43316,0.25267 -1.83727,0.25307 -3.64413,0.80384 -5.51173,0.73679 -1.98499,-0.002 -3.96997,-0.005 -5.95496,-0.008 -1.95263,-0.001 -3.90603,-0.008 -5.85768,0.063 -1.88481,0.0922 -3.77024,0.24935 -5.60721,0.70829 -1.98722,0.46462 -4.00173,0.72078 -5.99961,1.13496 -1.739,0.28783 -3.51424,0.31706 -5.23081,0.7552 -1.83777,0.3875 -3.6841,0.4081 -5.54956,0.57381 -1.80759,0.24711 -3.57899,0.78795 -5.41344,0.77209 -1.7195,0.0515 -3.44576,0.12061 -5.13893,0.45052 -1.78968,0.35721 -3.56593,0.59934 -5.39299,0.64458 -0.89978,0.13381 -1.84929,0.17775 -2.31745,1.05847 -0.6287,1.29737 -1.46692,2.48524 -1.71788,3.9388 -0.52789,1.52561 -1.10913,3.03726 -1.74676,4.5178 -0.72431,1.39762 -1.09036,2.96306 -1.77376,4.38044 -0.8055,1.47645 -1.60244,2.95004 -2.46821,4.39242 -0.84453,1.24502 -1.61644,2.51679 -2.46948,3.75179 -0.90198,1.27452 -2.06275,2.28269 -3.12814,3.41602 -1.08219,1.00276 -2.0148,2.18204 -2.84116,3.39926 -1.32951,1.8833 -2.24201,4.01575 -3.52406,5.93071 -1.25554,2.51107 -4.8067302,0.73548 -3.5511902,-1.77559 z"
       inkscape:connector-curvature="0" />
    <path
       style="fill:#4d4d4d;fill-opacity:1;stroke:none"
       d="m 194.95069,30.136626 c -17.87743,0.463663 -35.35613,6.122201 -53.34937,3.978712 -36.01577,-1.455429 -72.48448,-1.357076 -107.91521,5.823097 -6.008003,4.18957 -5.950582,12.814612 -10.686866,18.1581 -3.696026,7.138757 -9.876148,12.672618 -13.7866395,19.65331 -2.0101851,11.779752 -6.9149842,23.289865 -5.6822724,35.578065 -0.7563974,14.22897 1.1547376,28.37402 4.5656106,42.09197 1.802999,14.18472 0.4505121,28.85081 -3.7842429,42.43315 -1.1562308,10.86367 7.4493352,19.89132 14.5786402,26.92396 6.02899,4.4013 12.031591,11.42363 20.223726,9.83912 42.498105,-0.11184 85.048374,-1.3674 127.516834,0.30389 20.06926,2.26729 40.35827,0.18269 60.42382,-1.14768 9.2928,-0.6702 12.04059,-11.30728 18.08371,-16.56382 4.95342,-3.96079 7.66298,-8.93261 5.74443,-15.30595 -0.85442,-11.42898 -3.45793,-22.64383 -2.45648,-34.19939 -0.42567,-14.24057 1.79244,-28.37801 2.0162,-42.55722 -2.27506,-19.42311 -1.60344,-39.400338 3.66017,-58.221511 -2.17793,-9.103378 -7.09902,-17.621222 -12.22125,-25.373038 -7.77272,-11.142048 -22.74278,-9.614596 -34.64538,-11.07683 -4.08806,-0.270607 -8.1881,-0.430279 -12.28543,-0.337935 z"
       id="path2996"
       inkscape:connector-curvature="0"
       transform="translate(0,796.36218)" />
  </g>
</svg>
