<?xml version="1.0" encoding="UTF-8" standalone="no"?>
<!-- Created with Inkscape (http://www.inkscape.org/) -->

<svg
   xmlns:dc="http://purl.org/dc/elements/1.1/"
   xmlns:cc="http://creativecommons.org/ns#"
   xmlns:rdf="http://www.w3.org/1999/02/22-rdf-syntax-ns#"
   xmlns:svg="http://www.w3.org/2000/svg"
   xmlns="http://www.w3.org/2000/svg"
   xmlns:sodipodi="http://sodipodi.sourceforge.net/DTD/sodipodi-0.dtd"
   xmlns:inkscape="http://www.inkscape.org/namespaces/inkscape"
   width="128"
   height="510"
   id="svg2"
   version="1.1"
   inkscape:version="0.48.4 r9939"
   sodipodi:docname="garbagemanCleaver.svg"
   inkscape:export-filename="C:\Users\narfman0\Desktop\garbagemanCleaver.png"
   inkscape:export-xdpi="90"
   inkscape:export-ydpi="90">
  <defs
     id="defs4" />
  <sodipodi:namedview
     id="base"
     pagecolor="#ffffff"
     bordercolor="#666666"
     borderopacity="1.0"
     inkscape:pageopacity="0.0"
     inkscape:pageshadow="2"
     inkscape:zoom="1.4368708"
     inkscape:cx="45.17223"
     inkscape:cy="255.56383"
     inkscape:document-units="px"
     inkscape:current-layer="g3002"
     showgrid="false"
     inkscape:window-width="1108"
     inkscape:window-height="1002"
     inkscape:window-x="2161"
     inkscape:window-y="39"
     inkscape:window-maximized="0" />
  <metadata
     id="metadata7">
    <rdf:RDF>
      <cc:Work
         rdf:about="">
        <dc:format>image/svg+xml</dc:format>
        <dc:type
           rdf:resource="http://purl.org/dc/dcmitype/StillImage" />
        <dc:title />
      </cc:Work>
    </rdf:RDF>
  </metadata>
  <g
     inkscape:label="Layer 1"
     inkscape:groupmode="layer"
     id="layer1"
     transform="translate(0,-542.36218)">
    <g
       id="g3002">
      <path
         inkscape:connector-curvature="0"
         id="path3014"
         d="m 58.229933,832.87744 c -3.596495,5.05939 -8.969406,9.70989 -8.794248,17.11233 -0.24433,14.96883 1.606943,30.20197 -1.540037,44.88472 -2.318779,10.07753 -1.003096,20.79455 -2.971185,30.84625 -1.826438,5.1309 -6.145972,8.3234 -9.67876,11.5511 -8.255802,7.1381 -18.605268,9.4061 -28.5534878,10.2276 -0.8858852,1.5305 1.664422,2.3459 2.242689,3.4136 5.4547768,4.8068 11.4622568,9.14134 18.0013028,11.33794 4.944383,0.6736 9.989432,1.7193 14.857023,-0.2094 7.662965,-2.4328 15.291295,-5.34444 22.487405,-9.36784 8.792261,-5.0039 16.71981,-12.0911 23.1339,-20.9379 4.34984,-6.4564 10.865154,-11.8368 11.741984,-20.71427 0.927701,-15.02192 -0.77971,-30.21378 0.0121,-45.20921 0.0406,-7.45859 -0.33321,-16.66768 -5.757417,-21.4161 -4.691247,-3.90432 -10.756247,-3.45668 -15.752557,-6.137 -1.83624,-1.3111 -2.52076,-3.85534 -3.471145,-5.87993 -4.968471,-0.6731 -10.134367,2.733 -15.078678,0.47026 -0.301549,-0.24461 -0.583874,-0.0991 -0.878401,0.0278 z"
         style="fill:#666666;fill-opacity:1;stroke:none" />
      <path
         inkscape:connector-curvature="0"
         id="path2993"
         d="m 78.219725,779.17285 c 0.40505,0.3141 0.25314,1.05575 0.35784,1.55349 0.13321,2.58011 -6.7e-4,5.17779 0.13868,7.75436 0.0331,3.00737 -0.29216,6.00251 -0.0296,9.00282 0.0739,3.09489 0.77228,6.13212 0.81861,9.23107 0.25313,3.53743 -0.0316,7.09114 -0.38568,10.60638 -0.26542,1.97806 -0.57252,3.96988 -1.08187,5.89755 -0.57484,2.25685 -1.09836,4.57593 -2.09009,6.63078 -0.93489,1.35374 -2.470911,1.58388 -3.76041,2.18381 -1.431306,0.59722 -2.958238,0.75949 -4.434545,1.14288 -2.119957,0.48693 -4.304323,0.9686 -6.448177,0.42068 -1.550202,-0.3437 -3.10565,-0.68667 -4.644161,-1.08522 -1.02448,-0.37277 -1.224907,-1.82247 -1.415525,-2.90691 -0.270349,-1.493 -0.455488,-3.02454 -0.255067,-4.54761 0.404199,-4.70774 1.475229,-9.28062 2.088752,-13.93965 0.584826,-3.55344 1.042914,-7.12234 1.247411,-10.73203 0.35097,-3.61494 0.521029,-7.2578 0.575512,-10.89337 -0.04746,-1.88673 -0.350003,-3.78478 -0.312624,-5.67681 0.350557,-0.46872 0.98801,-0.30254 1.460891,-0.41963 1.821878,-0.0781 3.625616,-0.43272 5.445605,-0.53101 1.882197,-0.20191 3.747676,-0.63523 5.630984,-0.7934 0.268074,0.0271 0.498401,0.26548 0.75257,0.0206 2.034572,-0.92105 4.100754,-1.72128 6.062224,-2.85474 0.0874,-0.0566 0.18083,-0.0674 0.27866,-0.0639 z"
         style="fill:#666666;fill-opacity:1;stroke:none" />
      <path
         inkscape:connector-curvature="0"
         id="path2997"
         d="m 32.194912,548.54136 c 7.675748,-1.51646 15.430769,-2.69915 23.061769,-4.38788 2.481366,1.16549 3.517173,4.68768 5.319672,6.85685 6.541112,9.76705 10.235211,21.69465 13.873132,33.30652 2.84807,11.04488 6.39108,21.76314 10.61943,32.13735 5.06279,14.58141 8.042627,30.09006 11.579154,45.28686 3.697181,16.58116 4.703631,33.82633 5.197591,50.92452 0.14951,12.63372 -1.71437,25.16497 -3.129211,37.65836 -1.02434,5.27798 -1.66998,11.0694 -4.198047,15.64292 -4.160047,4.43002 -9.223417,7.4626 -13.973457,10.88528 -4.43582,3.10619 -9.276243,5.54721 -14.490154,5.62185 -7.071107,0.72571 -14.295179,1.38046 -21.314859,-0.006 -1.716337,-0.97416 -0.421812,-3.95241 -0.542364,-5.63013 2.147931,-17.288 3.850906,-34.74145 4.250679,-52.18921 -0.493028,-7.51427 -2.079717,-15.14471 -5.691594,-21.37082 -4.165081,-3.2799 -9.889479,-2.61841 -13.893789,-6.28389 -0.170327,-2.45421 1.188924,-4.92823 1.639575,-7.33617 1.514713,-6.08609 3.857649,-11.8071 6.13125,-17.4723 2.069222,-6.77091 1.341793,-14.1955 0.899511,-21.24415 -0.109729,-1.99583 -0.322023,-4.77426 -2.416481,-4.9911 -3.677302,-1.16402 -7.620523,-2.14997 -10.774879,-4.72505 -0.428368,-2.44191 1.478864,-4.58003 2.472541,-6.52716 2.872679,-4.80136 6.842276,-8.4303 10.240254,-12.67821 0.929551,-1.74014 -0.623363,-3.98047 -0.855179,-5.79221 -1.173139,-3.93488 -1.319453,-8.46472 -3.275399,-11.97213 -0.650635,-1.02794 -2.435593,-0.35065 -2.745537,-1.56364 0.273261,-1.11993 1.500116,-3.15079 -0.11529,-3.55972 -1.186148,-0.71249 -4.288579,-0.32245 -3.532727,-2.82554 0.883789,-1.7368 2.748918,-2.93929 3.220603,-4.83942 -2.295559,-2.18911 -5.690872,-1.6822 -8.196488,-3.27852 -0.419938,-1.68054 1.76464,-2.49491 2.442914,-3.60676 0.501108,-0.79818 1.962378,-1.56537 1.807812,-2.63572 -1.523968,-0.94111 -3.729425,-0.10287 -5.040816,-1.33081 0.342742,-2.17557 2.656321,-3.05691 3.798509,-4.62006 0.73085,-0.48039 1.417787,-1.71679 0.284158,-2.17465 -1.06513,-1.03316 -3.225691,-0.11994 -3.776684,-1.81196 0.406116,-2.2846 2.88226,-2.98388 3.493729,-5.01435 -0.559009,-1.75755 -3.517656,-1.98031 -3.090406,-4.22816 0.208984,-0.72867 2.091385,-1.15108 0.991819,-1.94524 -0.650596,-0.82432 -3.750971,-0.6819 -2.646751,-1.93138 1.379579,-1.28064 3.704259,-1.69521 4.516603,-3.64985 -0.483869,-1.79774 -2.819394,-2.27768 -3.147577,-3.89559 3.636305,-1.09929 7.304527,-2.06983 11.006982,-2.8028 z"
         style="fill:#666666;fill-opacity:1;stroke:none" />
      <path
         inkscape:connector-curvature="0"
         d="m 54.559985,542.05509 c 0.567196,0.8246 1.100845,1.68069 1.649886,2.52244 47.458189,0.43047 48.020049,46.38625 43.713208,138.27676 0.245031,1.97611 0.432261,3.95772 0.594131,5.94599 0.20246,1.87391 0.28651,3.76128 0.44347,5.64078 0.0461,1.75972 0.21966,3.50857 0.30771,5.26418 0.0697,1.63758 0.21709,3.26612 0.29293,4.903 0.0852,1.49597 0.15332,2.99472 0.14948,4.49498 0.0148,1.46158 0.0375,2.9232 0.0671,4.38463 0.051,1.35088 0.0626,2.70514 0.025,4.05718 -0.006,1.29053 -0.0677,2.57968 -0.11134,3.86898 -0.0938,1.32247 -0.17456,2.64288 -0.30235,3.96165 -0.0628,1.29466 -0.23673,2.5763 -0.33754,3.86656 -0.0905,1.07726 -0.26268,2.13828 -0.43227,3.20103 -0.11773,0.91941 -0.17211,1.84884 -0.28225,2.76935 -0.14417,0.8652 -0.23838,1.73623 -0.339831,2.6093 -0.0739,0.86256 -0.20094,1.71638 -0.23794,2.58296 -0.1418,0.71349 -0.11519,1.44664 -0.18129,2.16796 -0.0648,0.72954 -0.18771,1.44631 -0.22448,2.17939 -0.0647,0.84562 -0.17084,1.68514 -0.24171,2.52976 -0.0755,0.81173 -0.22287,1.60608 -0.33645,2.40987 -0.11085,0.73815 -0.26282,1.46557 -0.37504,2.20306 -0.11556,0.73158 -0.26574,1.45437 -0.37688,2.18676 -0.16421,0.77558 -0.27296,1.56827 -0.44567,2.34043 -0.10145,0.66867 -0.28153,1.29626 -0.50381,1.91846 -0.13157,0.63595 -0.29056,1.26338 -0.44002,1.89473 -0.25816,0.65802 -0.36389,1.37767 -0.57125,2.05625 -0.14612,0.64672 -0.346437,1.26135 -0.574897,1.87136 -0.24134,0.60929 -0.41355,1.25968 -0.78387,1.77806 -0.31618,0.48255 -0.71568,0.89974 -1.14209,1.23932 -0.42823,0.43794 -0.899227,0.81837 -1.392987,1.14156 -0.57516,0.38592 -1.12481,0.82053 -1.69698,1.21181 -0.56963,0.46257 -1.15592,0.89155 -1.73377,1.33837 -0.60354,0.3691 -1.14308,0.84947 -1.6912,1.32169 -0.55892,0.34702 -1.06926,0.77858 -1.58471,1.20902 -0.55844,0.42566 -1.12933,0.82107 -1.68037,1.25998 -0.53575,0.45241 -1.12678,0.7776 -1.70209,1.14505 -0.6186,0.44797 -1.26663,0.82783 -1.90213,1.23851 -0.65061,0.37776 -1.27101,0.82141 -1.93735,1.15961 -0.54169,0.38383 -1.1121,0.69693 -1.66995,1.04376 -0.59348,0.28431 -1.16827,0.60196 -1.747407,0.92584 -0.59748,0.28648 -1.216914,0.46988 -1.814308,0.75762 -0.623479,0.29505 -1.268329,0.4831 -1.877703,0.81909 -0.347758,0.18193 -0.175078,0.11662 -0.515257,0.20626 l 0.925979,0.52506 0,0 c 0.344496,-0.11617 0.17017,-0.0424 0.521137,-0.22771 0.608627,-0.32952 1.255897,-0.51099 1.873653,-0.81472 0.599721,-0.284 1.226266,-0.45742 1.818976,-0.76326 0.57782,-0.32846 1.15954,-0.63093 1.74758,-0.931 0.55568,-0.34563 1.1237,-0.65915 1.66566,-1.03628 0.66463,-0.3473 1.28933,-0.78817 1.94051,-1.16917 0.63909,-0.40356 1.27851,-0.80115 1.90268,-1.23746 0.58189,-0.3616 1.16742,-0.70612 1.70811,-1.15581 0.55058,-0.44055 1.1254,-0.83071 1.68089,-1.26271 0.5146,-0.43246 1.03381,-0.84812 1.58485,-1.21095 0.54516,-0.47319 1.09041,-0.93912 1.68729,-1.31623 0.58004,-0.44114 1.15973,-0.88073 1.73454,-1.33191 0.56809,-0.39829 1.12064,-0.82519 1.695587,-1.2101 0.49344,-0.33227 0.96559,-0.71371 1.39924,-1.15053 0.42806,-0.35611 0.8337,-0.7761 1.15286,-1.27102 0.366087,-0.53618 0.550337,-1.18883 0.794557,-1.80943 0.22955,-0.61275 0.42815,-1.23148 0.57508,-1.88073 0.20677,-0.68203 0.3175,-1.40265 0.57407,-2.06452 0.14914,-0.62603 0.31017,-1.24729 0.43769,-1.87912 0.2241,-0.62779 0.40391,-1.26202 0.50557,-1.93645 0.17218,-0.77579 0.2819,-1.57142 0.44982,-2.34947 0.10904,-0.73273 0.25889,-1.45588 0.37686,-2.18668 0.11024,-0.73842 0.26191,-1.46673 0.37498,-2.20478 0.11146,-0.80705 0.258171,-1.60456 0.336141,-2.41865 0.069,-0.84639 0.17748,-1.68709 0.24442,-2.53395 0.0343,-0.73143 0.16052,-1.44478 0.22491,-2.17235 0.0688,-0.72364 0.0358,-1.46039 0.17996,-2.17655 0.0335,-0.86349 0.16227,-1.71322 0.23458,-2.57253 0.10374,-0.87238 0.19161,-1.74465 0.33931,-2.609 0.1123,-0.91861 0.16345,-1.847 0.27783,-2.76544 0.16853,-1.06706 0.34366,-2.13163 0.43293,-3.21323 0.0958,-1.29033 0.27193,-2.57116 0.33233,-3.86556 0.12699,-1.32167 0.21554,-2.64392 0.30621,-3.96956 0.045,-1.28951 0.10591,-2.5789 0.11242,-3.8697 0.035,-1.35463 0.028,-2.71154 -0.0258,-4.06486 -0.0332,-1.46031 -0.0524,-2.92105 -0.0691,-4.38158 0.006,-1.50282 -0.0631,-3.00471 -0.15083,-4.50299 -0.075,-1.63731 -0.22318,-3.26575 -0.2932,-4.90366 -0.0868,-1.75795 -0.26856,-3.50851 -0.31206,-5.27084 -0.1562,-1.87975 -0.23878,-3.76728 -0.44435,-5.64088 -0.16391,-1.98897 -0.34516,-3.97227 -0.59492,-5.94858 5.83788,-107.01904 -1.401401,-139.31316 -43.679578,-138.33427 -0.551333,-0.83702 -1.084047,-1.69151 -1.638291,-2.52574 l -0.996881,-0.28848 z"
         id="path2987"
         style="fill:#333333;fill-opacity:1;stroke:none"
         sodipodi:nodetypes="ccccccccccccccccccccccccccccccccccccccccccccccccccccccccccccccccccccccccccccccccccccccccccc" />
      <path
         sodipodi:nodetypes="cccccccccccccccscccccccccccccccccccccccccccccccccccccccccscscscccccccccccccccccccccccccccccccccccccsssscssscsscssccccccccccccccccccccccssscccccsscccccccccccccccccccscccccccccccccccssccccscscssccccccccccccccccccccccccccccccccccccccccccccccccccccccsscscccsccccccccccccccccccsccccccccccssccccccccsscscccssccccccccccccccccccccsscsscsscssccccscccccccccccccccccccccccccccccscccscccccccccccccccccccccccccccccccccccccccccccccccccccccccccccccc"
         inkscape:connector-curvature="0"
         d="m 69.393436,782.02166 c -0.698877,0.14407 -1.414905,0.0991 -2.122233,0.15539 -0.704369,0.0659 -1.401943,0.20519 -2.097856,0.3483 -0.688021,0.14258 -1.391686,0.0901 -2.087678,0.14297 -0.692616,0.0636 -1.378389,0.20175 -2.06256,0.34263 -0.698789,0.019 -1.395713,0.0295 -2.092406,0.10589 -0.642715,0.14904 -1.276883,0.16692 -1.92704,0.14726 -0.646819,0.0441 -1.289401,-0.046 -1.936391,-0.0447 -0.630693,0.0945 -1.257252,-0.0133 -1.88842,-0.0198 -0.581798,0.003 -1.152606,-0.11016 -1.737288,-0.0914 -0.655462,-0.12077 -1.320984,-0.0184 -1.976495,-0.0884 -0.577796,-0.0235 -1.140874,-0.14055 -1.713037,-0.22164 -0.58461,0.0147 -1.159628,-0.0281 -1.742699,-0.0714 -0.578442,0.0445 -1.145569,-0.0876 -1.7225,-0.10573 -0.744674,-0.21248 0.296337,0.19144 0.459173,0.22987 0.07818,0.0185 -0.137278,-0.0989 -0.196268,-0.163 -0.20624,-0.22389 -0.301159,-0.52763 -0.402259,-0.82785 -0.241257,-0.68317 -0.187877,-1.40335 -0.188093,-2.12505 0.042,-0.81217 0.154517,-1.61411 0.226205,-2.42235 0.104519,-0.86354 0.230922,-1.72411 0.31406,-2.59102 0.08289,-0.81133 0.230757,-1.60663 0.344674,-2.41123 0.08002,-0.69067 0.201849,-1.36 0.207419,-2.06061 0.114192,-0.66862 0.07575,-1.35159 0.131925,-2.0244 0.05342,-0.63365 0.14445,-1.2681 0.302887,-1.87731 0.134926,-0.61879 0.241999,-1.25116 0.326244,-1.88377 0.150619,-0.72378 0.179615,-1.46633 0.285263,-2.19898 0.03855,-0.68622 0.173317,-1.35497 0.213517,-2.04085 0.150627,-0.66739 0.139754,-1.35287 0.182252,-2.03436 0.04672,-0.83216 0.112587,-1.6644 0.217512,-2.48942 0.09345,-0.85786 0.165021,-1.72085 0.219827,-2.58382 0.02429,-0.85991 0.101539,-1.71689 0.195953,-2.56973 0.02293,-0.78022 0.161414,-1.54403 0.202836,-2.32198 0.01435,-0.69981 0.111634,-1.3857 0.104373,-2.08804 0.06604,-0.65885 0.09237,-1.31717 0.188706,-1.9707 0.06433,-0.74075 0.154271,-1.4777 0.175602,-2.22284 0.08193,-0.84299 0.09978,-1.68947 0.165923,-2.53383 0.02061,-0.85666 0.111393,-1.70723 0.128074,-2.56408 -0.0047,-0.84813 0.05939,-1.69098 0.03461,-2.53986 0.0497,-0.69919 0.07269,-1.39669 0.172132,-2.08855 0.08977,-0.69136 0.03083,-1.38461 0.08506,-2.07909 0.02116,-0.75458 0.109633,-1.50187 0.127163,-2.25682 0.0151,-0.71851 0.03716,-1.45414 0.128661,-2.16629 0.132441,-0.70029 0.112298,-1.41128 0.05866,-2.11964 -0.07608,-0.80928 -0.198266,-1.61078 -0.317336,-2.41201 -0.122844,-0.81718 -0.24657,-1.63416 -0.369569,-2.45132 -0.122715,-0.81632 -0.244988,-1.63275 -0.36704,-2.4492 -0.110743,-0.8285 -0.228797,-1.64474 -0.460782,-2.43693 -0.189806,-0.75494 -0.436034,-1.47275 -0.711764,-2.18638 -0.279683,-0.70763 -0.540011,-1.42781 -0.822796,-2.13387 -0.295599,-0.77189 -0.594331,-1.54166 -0.884864,-2.31663 -0.195983,-0.73152 -0.504456,-1.40362 -0.749298,-2.11066 -0.161713,-0.63744 -0.445325,-1.19601 -0.839794,-1.66062 -0.415768,-0.51097 -0.954995,-0.82921 -1.485434,-1.13369 -0.923063,-0.48164 -1.862854,-0.92921 -2.840809,-1.22638 -0.645486,-0.20128 -1.292032,-0.41949 -1.949017,-0.56314 -0.558565,-0.21432 -1.132505,-0.38227 -1.714155,-0.47793 -0.589043,-0.21461 -1.1983,-0.35008 -1.78415,-0.57206 0.749176,0.36079 -1.84364,-0.67368 -1.090991,-0.36195 0.954718,0.39542 0.899381,0.37689 0.486606,0.16157 -4.032862,-1.63924 0.604972,0.22208 -0.712541,-0.32086 -0.400899,-0.16521 -0.801768,-0.33082 -1.205838,-0.48464 -0.241729,-0.092 0.95726,0.40242 0.718724,0.2992 -0.397025,-0.17182 -0.796148,-0.33666 -1.19422,-0.50497 0.24351,0.0947 0.483063,0.20549 0.730537,0.28437 0.08015,0.0256 -0.148503,-0.0892 -0.226277,-0.12367 -0.396409,-0.17551 -0.800163,-0.32695 -1.195515,-0.50585 -0.238316,-0.10781 0.481028,0.20164 0.724237,0.2926 0.15785,0.059 -0.305733,-0.15166 -0.453831,-0.23964 -0.688714,-0.61087 -2.456651,-0.81182 -0.69124,-0.35012 0.07845,0.0206 -0.140308,-0.0949 -0.203019,-0.15492 -0.194235,-0.18574 -0.17257,-0.20252 -0.280358,-0.46084 -0.182882,-0.71304 0.0031,-1.43724 0.202229,-2.11603 0.204348,-0.6819 0.433957,-1.35195 0.645875,-2.03149 0.224896,-0.66581 0.442943,-1.32823 0.626297,-2.01225 0.167044,-0.6815 0.356395,-1.35479 0.544809,-2.02881 0.213071,-0.65095 0.397435,-1.31472 0.615639,-1.9627 0.185959,-0.59466 0.30338,-1.21648 0.477302,-1.81528 0.153817,-0.65929 0.410491,-1.27322 0.575683,-1.92676 0.203151,-0.64628 0.411444,-1.28746 0.630286,-1.92597 0.154898,-0.608 0.352219,-1.20569 0.632844,-1.74699 0.212667,-0.54142 0.426599,-1.08122 0.646986,-1.6192 0.286381,-0.48662 0.504665,-1.00876 0.728904,-1.53637 0.194942,-0.55675 0.471601,-1.06297 0.713622,-1.59147 0.207201,-0.62951 0.53645,-1.18574 0.736954,-1.81713 0.21378,-0.56713 0.39548,-1.16153 0.516628,-1.76742 0.153873,-0.58962 0.323852,-1.17715 0.437758,-1.78018 0.116447,-0.63606 0.16415,-1.28749 0.264957,-1.92599 0.12486,-0.65925 0.104578,-1.33269 0.178926,-1.99973 0.03796,-0.74347 0.06659,-1.48737 0.09594,-2.23222 -0.02655,-0.83876 0.03774,-1.67485 0.03976,-2.51357 0.07656,-0.84885 0.100055,-1.69624 0.05521,-2.54752 -0.06592,-0.73813 0.01247,-1.47829 -0.0074,-2.21978 -0.03654,-0.795 -0.14718,-1.58099 -0.257283,-2.36478 -0.169698,-0.81456 -0.141506,-1.65101 -0.161874,-2.48311 -0.02487,-0.83501 -0.125866,-1.66206 -0.234645,-2.4858 -0.0706,-0.80811 -0.212293,-1.49576 -0.783409,-1.97971 -0.859219,-0.50697 -1.81296,-0.86408 -2.762821,-1.05595 -0.681867,-0.15593 -1.34951,-0.37996 -2.02299,-0.5783 -0.617855,-0.14352 -1.22539,-0.34188 -1.829237,-0.55218 0.23865,0.0942 0.473958,0.20133 0.715943,0.28245 0.08218,0.0276 -0.154886,-0.0863 -0.235088,-0.12126 -0.398398,-0.17334 -0.802518,-0.32765 -1.20022,-0.50327 -0.238464,-0.1053 0.479882,0.20113 0.722407,0.29228 0.157706,0.0593 -0.305785,-0.15108 -0.45379,-0.23909 -0.07416,-0.0432 -0.145325,-0.0947 -0.222478,-0.12979 -1.800018,-0.81671 -1.370127,-0.55104 -0.466269,-0.2205 0.08017,0.0293 -0.157073,-0.0704 -0.23352,-0.11151 -0.149545,-0.0804 -0.293327,-0.1753 -0.440574,-0.26153 -0.558923,-0.34722 -1.163102,-0.55383 -1.762224,-0.78495 -0.228412,-0.0881 0.905941,0.37968 0.679148,0.28581 -1.348159,-0.55802 -0.794758,-0.40067 -1.507379,-0.5846 -2.081149,-0.88668 2.916166,1.30209 -1.076236,-0.42888 -0.224727,-0.0975 0.450704,0.19182 0.680557,0.27042 0.093,0.0318 -0.179399,-0.0866 -0.269095,-0.12974 -0.559094,-0.27779 -0.807965,-0.78615 -0.799416,-1.49598 0.0704,-0.65815 0.311094,-1.29599 0.557854,-1.88775 0.321339,-0.66378 0.635225,-1.33159 0.952032,-1.99906 0.397887,-0.79027 0.830098,-1.56394 1.305624,-2.29096 0.353071,-0.72622 0.838599,-1.32029 1.297564,-1.9454 0.454,-0.68328 0.959699,-1.31386 1.473877,-1.93179 0.600135,-0.692 1.165027,-1.42576 1.75222,-2.13305 0.54444,-0.61648 1.056993,-1.27591 1.622652,-1.86544 0.497733,-0.53493 1.005417,-1.04855 1.532878,-1.54045 0.507868,-0.44846 1.007444,-0.93054 1.456955,-1.46266 0.463178,-0.50706 0.941307,-0.95715 1.201297,-1.65499 0.202763,-0.76798 0.106159,-1.5319 -0.09166,-2.27948 -0.196098,-0.81871 -0.529771,-1.57061 -0.792311,-2.35844 -0.236755,-0.79049 -0.377937,-1.60884 -0.624221,-2.39533 -0.260066,-0.77369 -0.43937,-1.57919 -0.594268,-2.39108 -0.146537,-0.80954 -0.266953,-1.62552 -0.388917,-2.44085 -0.07264,-0.78192 -0.247094,-1.51431 -0.486444,-2.24166 -0.174546,-0.68258 -0.390031,-1.33515 -0.635134,-1.98464 -0.219539,-0.68869 -0.469708,-1.34547 -0.99971,-1.7507 -0.783619,-0.58269 -1.664505,-0.87558 -2.578407,-0.82311 -0.09466,-0.01 -0.190933,-0.006 -0.283997,-0.029 -0.08392,-0.0206 -0.32569,-0.1262 -0.242981,-0.0997 0.250245,0.0803 0.489027,0.2205 0.745968,0.26103 0.06054,0.01 -0.08973,-0.10117 -0.12268,-0.1627 -0.09584,-0.17897 -0.07404,-0.2092 -0.07515,-0.40663 0.07426,-0.64556 0.429891,-1.17736 0.659158,-1.75696 0.250052,-0.54252 0.581923,-0.98543 0.15146,-1.5038 -0.745181,-0.53143 -1.658697,-0.80373 -2.525499,-0.85845 -0.573746,-0.0726 -1.125451,-0.26054 -1.691596,-0.377 -0.298604,-0.18279 -1.264542,-0.34786 0.19087,0.10368 0.09188,0.0285 -0.175439,-0.0905 -0.253321,-0.15538 -0.180792,-0.15056 -0.206137,-0.25349 -0.317063,-0.4731 -0.161514,-0.59672 0.0344,-1.12436 0.305147,-1.62142 0.38572,-0.48938 0.708166,-1.04885 1.137086,-1.48613 0.386535,-0.40344 0.702017,-0.88134 1.035602,-1.34351 0.340623,-0.44722 0.786513,-0.75744 1.089269,-1.24225 0.230994,-0.55728 -0.164,-0.8722 -0.536642,-1.10118 -0.823131,-0.5589 -1.756429,-0.81509 -2.655852,-1.13657 -0.713877,-0.18133 -1.427118,-0.36631 -2.140625,-0.55171 -0.6976,-0.14878 -1.395203,-0.28109 -2.086156,-0.46724 -0.625724,-0.0749 -1.234427,-0.19977 -1.840902,-0.39486 1.441894,0.54788 0.0069,0.25783 0.555438,-0.71247 0.27084,-0.50453 0.71095,-0.817 1.050221,-1.24986 0.360315,-0.43589 0.78371,-0.78399 1.167552,-1.18625 0.441972,-0.366 0.840265,-0.79842 1.263695,-1.19433 0.426554,-0.42991 0.762913,-0.95553 1.119989,-1.46209 0.547387,-0.83682 -0.949623,-1.06102 -1.456502,-1.13389 -0.666023,-0.16751 -1.347611,-0.18782 -2.023414,-0.26725 -0.655253,0.007 -1.295202,-0.15615 -1.948036,-0.18918 -0.76172,-0.21907 0.288781,0.1792 0.445524,0.22371 0.05888,0.0167 -0.105929,-0.0729 -0.149231,-0.12351 -0.161677,-0.18877 -0.125747,-0.37877 -0.07321,-0.61242 0.156245,-0.60178 0.576532,-1.02148 0.939358,-1.45287 0.506591,-0.55517 1.080388,-1.01223 1.592965,-1.55726 0.459758,-0.46579 0.939008,-0.89667 1.423652,-1.32406 0.4714,-0.37455 0.96118,-0.77847 1.141605,-1.44655 -0.0046,-0.58269 -0.429363,-0.78172 -0.813128,-0.98789 -0.839996,-0.47768 -1.691128,-0.56731 -2.591422,-0.66563 -0.545101,-0.0178 -1.080425,-0.16118 -1.605878,-0.32428 1.459019,0.57164 0.157528,0.30594 0.230238,-0.7879 0.05716,-0.57905 0.455446,-0.94693 0.743121,-1.37677 0.338112,-0.45646 0.761216,-0.80006 1.142144,-1.19866 0.42934,-0.34192 0.80405,-0.74918 1.173126,-1.17735 0.353907,-0.33667 0.770036,-0.64985 0.727914,-1.24244 -0.183573,-0.49694 -0.573227,-0.8032 -0.945583,-1.08044 -0.518708,-0.4218 -1.047862,-0.80935 -1.610227,-1.1437 -2.448985,-1.05087 -1.060709,-0.44545 -0.518489,-0.23915 0.08472,0.0323 -0.167756,-0.0709 -0.249606,-0.11244 -0.213486,-0.1083 -0.341986,-0.20381 -0.480307,-0.42035 -0.06674,-0.44954 0.36014,-0.84545 0.613557,-1.11163 0.421263,-0.42372 0.939172,-0.7224 1.308563,-1.21453 0.369389,-0.93105 -1.103114,-1.20598 -1.464921,-1.36358 0.245916,0.1007 0.979951,0.4149 0.73775,0.30209 -0.777569,-0.36215 -1.52335,-0.66381 -2.344851,-0.79754 -0.111382,-0.0266 -0.222422,-0.0552 -0.334159,-0.0794 -0.114819,-0.0249 -0.230258,-0.0457 -0.345389,-0.0685 -0.116785,-0.0152 -0.234496,-0.0229 -0.35037,-0.046 -0.106339,-0.0212 -0.413986,-0.13819 -0.315148,-0.0869 1.117397,0.58099 0.894764,0.42639 0.624787,0.22221 -6.73e-4,-0.44004 0.692734,-0.6307 0.960709,-0.8053 0.522838,-0.288 1.020852,-0.62367 1.532121,-0.93914 0.521662,-0.28411 1.004556,-0.6653 1.496034,-1.01846 0.541505,-0.31711 1.019696,-0.69881 1.259463,-1.37681 0.117051,-0.622 -0.172278,-1.04326 -0.511251,-1.45917 -0.371098,-0.38839 -0.788384,-0.70219 -1.186668,-1.04698 -0.413905,-0.33227 -0.900678,-0.48712 -1.296311,-0.85378 -0.36787,-0.35283 -0.566535,-0.45533 -0.04393,-0.69939 0.592319,-0.21523 1.205091,-0.33553 1.812887,-0.4681 0.699223,-0.12764 1.381915,-0.28089 2.047996,-0.56819 0.651782,-0.30301 1.326628,-0.51818 2.006649,-0.70519 0.676367,-0.17714 1.357738,-0.32446 2.038633,-0.47348 0.681428,-0.14811 1.362896,-0.29598 2.044283,-0.44436 0.681429,-0.14839 1.362818,-0.29706 2.044166,-0.44598 0.681347,-0.14891 1.36269,-0.29786 2.044035,-0.44678 0.605098,-0.14228 1.225382,-0.054 1.839105,-0.089 0.661734,-0.0535 1.316475,-0.18791 1.969611,-0.32224 0.681505,-0.14378 1.361935,-0.29489 2.042568,-0.44454 0.681658,-0.14982 1.363357,-0.29937 2.045096,-0.44867 0.686692,-0.14734 1.39027,-0.0927 2.085528,-0.14454 0.692868,-0.0626 1.378876,-0.20045 2.063252,-0.34118 0.68222,-0.14384 1.363354,-0.2951 2.044681,-0.44499 0.681214,-0.14972 1.362468,-0.29917 2.043761,-0.44838 0.681323,-0.14906 1.362664,-0.29798 2.044007,-0.4469 0.656113,-0.0805 1.260002,-0.31743 1.867659,-0.60825 l -0.930003,-0.50913 0,0 c -0.602665,0.28767 -1.209032,0.4981 -1.85661,0.58741 -0.681344,0.14896 -1.362693,0.29786 -2.044015,0.44696 -0.681322,0.14912 -1.362583,0.29865 -2.043816,0.44838 -0.6811,0.14972 -1.36196,0.30112 -2.044111,0.44364 -0.682533,0.13869 -1.366944,0.27332 -2.058165,0.32912 -0.697211,0.0463 -1.403294,-0.005 -2.091137,0.15788 -0.681762,0.14923 -1.363465,0.29887 -2.045137,0.44868 -0.680447,0.14957 -1.360652,0.30086 -2.042175,0.44313 -0.651528,0.13214 -1.304999,0.26342 -1.965447,0.30736 -0.615036,0.027 -1.237715,-0.0542 -1.843613,0.10523 -0.681341,0.14894 -1.362681,0.29788 -2.044031,0.44678 -0.681344,0.14888 -1.362685,0.29775 -2.044122,0.44598 -0.681454,0.14812 -1.362945,0.29598 -2.044359,0.44438 -0.681733,0.14983 -1.364054,0.2976 -2.040697,0.47868 -0.681753,0.19164 -1.356966,0.41492 -2.01129,0.71788 -0.663995,0.27791 -1.348514,0.41459 -2.041326,0.5502 -0.613897,0.13475 -1.235231,0.25285 -1.828953,0.48994 -0.523868,0.29532 -0.476665,0.56228 -0.02137,0.93808 0.379101,0.40415 0.863277,0.55654 1.295182,0.86009 0.387944,0.35739 0.811369,0.65458 1.189786,1.02825 0.312183,0.3816 0.639399,0.73161 0.547256,1.32107 -0.232479,0.65089 -0.721501,0.99278 -1.233008,1.30625 -0.489803,0.35344 -0.975275,0.72453 -1.494921,1.01084 -0.508903,0.32099 -1.013258,0.64337 -1.53237,0.94012 -0.383277,0.23824 -1.019323,0.41127 -1.031827,1.03444 0.654589,0.74936 1.795655,0.65012 2.631489,0.89284 0.307244,0.0582 0.601463,0.13749 0.902143,0.23184 0.0837,0.0263 0.331008,0.11824 0.251207,0.0783 -0.148044,-0.0741 -2.528887,-1.08647 0.448949,0.20816 -1.624052,-0.72864 -0.509098,-0.33 -0.341555,-0.002 0.05948,0.11656 -0.0088,0.21465 -0.04645,0.31615 -0.37069,0.4825 -0.888661,0.77484 -1.300736,1.20418 -0.303582,0.32739 -0.7125,0.7415 -0.665228,1.27665 0.09021,0.18635 0.08745,0.2284 0.243252,0.35336 0.486549,0.39025 2.813093,1.22778 0.998199,0.48417 0.568266,0.31863 1.097155,0.7037 1.611337,1.13165 0.365064,0.26181 0.7236,0.54116 0.963652,0.97226 0.08078,0.54022 -0.39689,0.81924 -0.69171,1.13647 -0.366174,0.42843 -0.750153,0.81937 -1.170498,1.17046 -0.390401,0.39588 -0.809941,0.75565 -1.149483,1.21905 -0.304567,0.44582 -0.703683,0.83952 -0.765483,1.44404 -0.108028,1.19415 0.826877,1.46155 1.647477,1.75263 0.527089,0.16324 1.067239,0.27918 1.612346,0.30692 0.372734,0.0477 2.44454,0.46467 0.67545,-0.13105 0.346804,0.16557 0.776151,0.31818 0.85194,0.81282 -0.161986,0.64302 -0.67555,1.00959 -1.113538,1.37533 -0.489299,0.42441 -0.964009,0.86806 -1.425375,1.33538 -0.517813,0.54175 -1.091252,1.00327 -1.597627,1.56265 -0.377493,0.44531 -0.799916,0.88817 -0.96192,1.51144 -0.267947,1.13679 0.866224,1.35042 1.656223,1.47408 0.649513,0.0462 1.290869,0.18848 1.943246,0.19279 0.676697,0.0804 1.35895,0.10424 2.025713,0.27525 0.520341,0.10851 0.323951,0.0876 -0.495158,-0.2903 -0.07191,-0.0332 0.186479,0.0117 0.216637,0.0967 0.03005,0.0846 -0.113975,0.28677 -0.124459,0.30537 -0.34959,0.50335 -0.687107,1.01756 -1.109967,1.43936 -0.422616,0.40006 -0.829928,0.82238 -1.267546,1.19843 -0.391576,0.39729 -0.809371,0.75897 -1.171492,1.19742 -0.348481,0.43065 -0.789796,0.75491 -1.059032,1.2703 -0.586138,1.11832 0.521316,1.49574 1.303233,1.7329 0.606557,0.19295 1.221606,0.28625 1.842273,0.39014 0.689942,0.18499 1.389644,0.3031 2.083722,0.46508 0.712419,0.18984 1.428715,0.35858 2.138506,0.55998 0.214575,0.0743 0.431168,0.14033 0.645327,0.21636 0.09944,0.0352 0.391677,0.16274 0.295951,0.11501 -1.411162,-0.70389 -0.469064,-0.20894 -0.187667,-0.0147 0.309618,0.16136 0.779909,0.40061 0.587644,0.89126 -0.308258,0.47356 -0.75551,0.78262 -1.086986,1.2357 -0.327594,0.46072 -0.646561,0.92755 -1.028733,1.32742 -0.427298,0.45427 -0.763241,1.01348 -1.147602,1.51812 -0.290197,0.53664 -0.483649,1.10305 -0.340057,1.74821 0.441695,1.02346 1.414848,1.08977 2.275227,1.40915 0.564015,0.13098 1.120716,0.29707 1.69486,0.36289 0.31551,0.0285 0.615563,0.0706 0.921983,0.16846 0.08684,0.0277 0.34094,0.13473 0.25824,0.0927 -1.385319,-0.70431 -0.834875,-0.39261 -0.565977,-0.23671 0.07802,0.0791 0.186879,0.1312 0.23083,0.24183 0.141721,0.35672 -0.242032,0.81964 -0.33788,1.11508 -0.237465,0.59465 -0.600667,1.13907 -0.679622,1.80346 -0.04331,1.09859 1.123409,1.28996 1.871569,1.36094 0.240807,-0.007 0.361769,-0.0208 0.600091,0.0113 0.09265,0.0124 0.35804,0.10828 0.275716,0.0561 -1.359363,-0.86226 -0.533106,-0.16487 -0.214113,-0.0401 0.555377,0.34858 0.803383,0.99206 1.015207,1.67674 0.242103,0.65 0.475282,1.29141 0.636795,1.97932 0.238273,0.72184 0.43116,1.43893 0.494624,2.21914 0.122053,0.81701 0.242535,1.63463 0.387594,2.44625 0.153732,0.81704 0.329851,1.62884 0.590614,2.40741 0.249981,0.78623 0.39587,1.6018 0.623896,2.39715 0.257917,0.78823 0.595883,1.53471 0.793487,2.35069 0.197498,0.71817 0.306354,1.44901 0.112539,2.1929 -0.255478,0.68053 -0.741168,1.10982 -1.186274,1.61243 -0.451606,0.52411 -0.945501,1.0045 -1.451687,1.44991 -0.530551,0.49037 -1.031875,1.01691 -1.534416,1.54782 -0.562642,0.59673 -1.078488,1.25414 -1.621814,1.87518 -0.58436,0.71104 -1.155205,1.43732 -1.753512,2.13186 -0.516417,0.61917 -1.021272,1.2543 -1.478842,1.93754 -0.461754,0.62539 -0.940968,1.2286 -1.298357,1.95322 -0.473993,0.73602 -0.910651,1.51173 -1.31187,2.3068 -0.319654,0.66821 -0.634314,1.33862 -0.956413,2.00467 -0.251327,0.60986 -0.49979,1.26094 -0.573794,1.93782 -0.02223,0.73529 0.188721,1.32083 0.769065,1.64079 0.653372,0.30684 0.275143,0.13117 1.491734,0.67411 0.220854,0.0985 -0.885365,-0.38758 -0.661982,-0.29752 0.582429,0.23484 1.151411,0.51534 1.742547,0.71875 0.09283,0.0274 0.36547,0.12963 0.278498,0.0821 -0.219641,-0.11984 -0.907958,-0.39332 -0.679229,-0.30082 3.938026,1.59233 -1.016688,-0.456 1.082941,0.4866 0.149164,0.0835 0.289968,0.18745 0.439227,0.27076 0.580978,0.32433 2.440046,1.00073 0.701095,0.3229 -0.07813,-0.0304 0.148833,0.0832 0.223253,0.1249 0.502895,0.33696 1.116773,0.54741 1.636321,0.77669 0.235761,0.10404 -0.468788,-0.21698 -0.705903,-0.31653 -0.08047,-0.0337 0.157095,0.0794 0.235643,0.11907 0.39663,0.17895 0.793258,0.3579 1.189888,0.53685 0.601896,0.21293 1.212872,0.39108 1.827124,0.54519 0.673835,0.20436 1.345551,0.41793 2.029096,0.57303 0.297722,0.0686 2.218065,0.62845 0.57647,0.0695 -0.09995,-0.034 0.187317,0.10758 0.280971,0.16138 0.599715,0.42179 0.738866,1.08379 0.807802,1.88123 0.109187,0.81883 0.211684,1.64083 0.238706,2.47095 0.02181,0.83706 -0.01355,1.67949 0.157337,2.49898 0.109861,0.77853 0.220664,1.55907 0.259662,2.34859 0.02216,0.7431 -0.05766,1.48468 0.0084,2.22417 0.04794,0.84855 0.02836,1.69379 -0.05298,2.53983 4.49e-4,0.8371 -0.06831,1.671 -0.039,2.50802 -0.02841,0.74128 -0.06334,1.48079 -0.09609,2.22095 -0.07458,0.66512 -0.05562,1.33546 -0.177437,1.99317 -0.102106,0.6367 -0.147058,1.28764 -0.264037,1.92205 -0.112636,0.60282 -0.284438,1.18933 -0.437358,1.77873 -0.118896,0.60116 -0.30134,1.18941 -0.511879,1.75245 -0.198849,0.62542 -0.525343,1.17777 -0.731646,1.80097 -0.244987,0.528 -0.520392,1.0372 -0.716231,1.595 -0.222707,0.52906 -0.448172,1.04686 -0.729314,1.53772 -0.220007,0.53396 -0.429714,1.07208 -0.643475,1.6085 -0.278719,0.55037 -0.482379,1.15081 -0.636739,1.76644 -0.219854,0.64222 -0.430484,1.2867 -0.633748,1.93706 -0.163897,0.65219 -0.421343,1.26427 -0.575824,1.92139 -0.172505,0.59737 -0.29072,1.21672 -0.474719,1.81014 -0.216906,0.65128 -0.402522,1.31687 -0.617766,1.96952 -0.187819,0.67473 -0.375499,1.34904 -0.543426,2.03071 -0.184799,0.68122 -0.399627,1.34358 -0.626401,2.00639 -0.211443,0.68048 -0.439084,1.35213 -0.644142,2.03453 -0.208895,0.70617 -0.393397,1.45705 -0.229228,2.20344 0.09758,0.29444 0.07038,0.30848 0.266535,0.52606 0.47417,0.52592 2.420457,1.08008 0.667764,0.39454 -0.07831,-0.0306 0.149369,0.0832 0.224052,0.1248 0.503833,0.33672 1.112773,0.54397 1.634307,0.77784 0.236681,0.10612 -0.471179,-0.21958 -0.710387,-0.31732 -0.07822,-0.032 0.151245,0.0799 0.226866,0.11977 0.391442,0.18124 0.782884,0.36249 1.174329,0.54375 -1.834152,-0.80189 0.260131,0.11582 0.478405,0.19866 0.239645,0.091 -0.469708,-0.21466 -0.703517,-0.32518 -0.0781,-0.0369 0.157648,0.0694 0.236358,0.10437 0.394692,0.17568 0.788856,0.35304 1.18384,0.52777 0.235932,0.10437 -0.471121,-0.21111 -0.706682,-0.31668 0.816567,0.41609 1.64493,0.77986 2.509304,1.01785 0.59278,0.20113 1.192577,0.3764 1.79038,0.55597 0.580093,0.11005 1.149457,0.28602 1.712705,0.48308 0.653603,0.15898 1.301396,0.36028 1.944554,0.56948 0.299211,0.0973 1.426362,0.53546 -0.01073,-0.0684 -1.039272,-0.43666 1.899441,0.94321 0.951929,0.47837 0.525018,0.2984 1.071981,0.59551 1.486716,1.09607 0.409215,0.42871 0.695508,0.98518 0.853454,1.60983 0.239507,0.71241 0.561619,1.37819 0.751093,2.11528 0.287556,0.77773 0.593123,1.54457 0.883543,2.32047 0.289235,0.70018 0.537126,1.42742 0.82095,2.13048 0.272713,0.71312 0.536336,1.41875 0.716805,2.17658 0.23543,0.78555 0.359087,1.59262 0.465268,2.41762 0.122118,0.8165 0.244239,1.633 0.367059,2.44933 0.123054,0.81707 0.246659,1.634 0.3696,2.45108 0.118824,0.79792 0.240645,1.59606 0.31863,2.4017 0.05499,0.69827 0.07868,1.39938 -0.05282,2.09004 -0.09412,0.71683 -0.11424,1.459 -0.130028,2.18236 -0.01529,0.75249 -0.107715,1.49592 -0.127627,2.24787 -0.05492,0.69186 8.97e-4,1.38079 -0.08293,2.07 -0.100827,0.70061 -0.124339,1.40609 -0.175174,2.1142 0.02774,0.84688 -0.03661,1.68719 -0.0326,2.53312 -0.01373,0.85437 -0.107474,1.70162 -0.125469,2.55576 -0.06656,0.84678 -0.08429,1.69537 -0.169024,2.54052 -0.01889,0.73973 -0.11196,1.46968 -0.174084,2.20499 -0.09779,0.66136 -0.124777,1.32679 -0.193332,1.99343 0.0098,0.69969 -0.08805,1.38228 -0.101877,2.07919 -0.03815,0.77577 -0.177719,1.53696 -0.197711,2.3149 -0.09459,0.85505 -0.175315,1.71407 -0.198064,2.57632 -0.05254,0.86005 -0.126656,1.71962 -0.216963,2.57475 -0.108161,0.82718 -0.172967,1.66262 -0.222151,2.49719 -0.04748,0.68112 -0.02944,1.36799 -0.184023,2.0351 -0.0374,0.68226 -0.174336,1.34642 -0.209772,2.02904 -0.105097,0.73336 -0.132723,1.4766 -0.286822,2.20013 -0.08205,0.62704 -0.189944,1.25317 -0.322075,1.86662 -0.160083,0.61713 -0.254412,1.25909 -0.308495,1.90095 -0.05955,0.67625 -0.01537,1.36381 -0.134104,2.0359 -0.0024,0.69473 -0.124031,1.35733 -0.201901,2.04218 -0.111707,0.80734 -0.258814,1.6053 -0.343803,2.41848 -0.08084,0.86752 -0.208909,1.72826 -0.314675,2.59183 -0.07038,0.81247 -0.185382,1.61787 -0.232122,2.43365 8.98e-4,0.73441 -0.05877,1.46934 0.176971,2.16824 0.362155,1.16761 0.864524,1.49874 2.036166,1.64519 0.574884,0.03 1.144142,0.14046 1.721292,0.10929 0.581491,0.0491 1.158243,0.0593 1.740238,0.0781 0.570945,0.0913 1.137754,0.1811 1.714114,0.21486 0.659164,0.0425 1.322704,-0.013 1.981089,0.0789 0.582354,-0.007 1.154285,0.10979 1.735785,0.095 0.629969,0.0161 1.257073,0.0986 1.887162,0.0175 0.64655,0.007 1.29051,0.0849 1.937434,0.0484 0.650617,0.0202 1.286189,-0.033 1.929879,-0.16111 0.698307,-0.0707 1.397166,-0.0669 2.096131,-0.11482 0.682352,-0.13883 1.366525,-0.27386 2.057522,-0.33066 0.697704,-0.0473 1.403536,0.002 2.092633,-0.15496 0.693987,-0.14108 1.389835,-0.2773 2.09244,-0.33706 0.711544,-0.0516 2.984121,-0.44696 3.687324,-0.60061 l -0.740332,-0.38009 z"
         id="path2989"
         style="fill:#333333;fill-opacity:1;stroke:none" />
      <path
         sodipodi:nodetypes="ccccccccccccccccccccccccccccscccccccccccccccccccccccccccccccccccccccccccccccccccccccccccsccccccscccccccccccccccccccccccccccccc"
         inkscape:connector-curvature="0"
         d="m 78.180565,778.49412 c 0.13781,0.93559 0.21899,2.55157 0.27499,3.49868 -0.0382,0.7841 -0.0751,1.56262 -0.035,2.34729 0.06,0.71445 -0.0191,1.42992 -8.9e-4,2.14762 0.0847,0.79523 0.10565,1.58633 0.10485,2.38733 0.0641,0.76337 -0.032,1.52018 -0.0528,2.28241 -6.7e-4,0.69862 -0.099,1.38466 -0.092,2.0854 0.0299,0.70449 -0.0547,1.40319 -0.0405,2.10963 0.0487,0.7968 0.15763,1.57677 0.16041,2.37697 -0.0144,0.83905 0.0515,1.67357 0.14178,2.50392 0.0971,0.82265 0.22055,1.64025 0.34254,2.4579 0.12099,0.77963 0.26555,1.54542 0.25543,2.34132 -0.033,0.7503 0.0252,1.49716 0.1038,2.24005 0.097,0.71961 0.0247,1.45076 0.0469,2.17735 0.0193,0.78334 0.034,1.58355 -0.0341,2.36481 -0.0951,0.70263 -0.0751,1.41015 -0.15219,2.11437 -0.0248,0.6849 -0.0721,1.36177 -0.12609,2.04453 -0.0191,0.64646 -0.13099,1.28395 -0.26925,1.90769 -0.12283,0.70637 -0.15115,1.432 -0.27098,2.13835 -0.10959,0.65417 -0.21749,1.31414 -0.39089,1.94937 -0.15392,0.59239 -0.26758,1.20078 -0.43669,1.78732 -0.15819,0.58828 -0.27016,1.19463 -0.43802,1.779 -0.11474,0.59875 -0.29592,1.16067 -0.50232,1.72088 -0.23119,0.65283 -0.50421,1.28351 -0.71735,1.9459 -0.2116,0.67598 -0.71339,1.02691 -1.186155,1.41485 -0.520871,0.38855 -1.120455,0.55852 -1.710929,0.72064 -0.55673,0.2783 -1.114855,0.53939 -1.695311,0.73731 -0.649617,0.20559 -1.310651,0.35207 -1.970521,0.50003 -0.681311,0.15057 -1.363102,0.29794 -2.044851,0.44559 -0.681884,0.14766 -1.363572,0.29666 -2.045257,0.44567 -0.686706,0.14715 -1.390251,0.0925 -2.085499,0.14436 -0.586892,-0.0581 -1.168851,-0.0892 -1.748412,-0.21084 -0.596237,-0.10237 -1.187109,-0.23032 -1.773248,-0.39512 -0.610063,-0.14116 -1.218876,-0.27259 -1.823196,-0.44455 -0.09758,-0.0196 -0.194575,-0.0439 -0.292751,-0.0588 -0.619811,-0.094 0.0082,0.0443 -0.571161,-0.10362 -0.08947,-0.0228 -0.352906,-0.10879 -0.268929,-0.0655 0.231201,0.11926 0.475315,0.19911 0.714006,0.29505 0.08071,0.0324 -0.159995,-0.0697 -0.239992,-0.10454 -3.585963,-1.47606 -0.326506,-0.11781 -0.485485,-0.19098 -2.578292,-1.1867 -0.895714,-0.32015 -0.458252,-0.23076 0.07897,0.0161 -0.134,-0.10639 -0.19281,-0.17144 -0.06064,-0.0671 -0.109042,-0.14845 -0.163566,-0.22267 -0.363664,-0.67487 -0.470899,-1.48744 -0.60127,-2.26232 -0.151212,-0.88542 -0.288557,-1.76494 -0.301389,-2.67004 0.01865,-0.85696 0.0685,-1.72031 0.142133,-2.57431 0.08857,-0.87154 0.227942,-1.73579 0.356272,-2.6006 0.101539,-0.83106 0.199744,-1.66153 0.351398,-2.48175 0.114168,-0.68323 0.274898,-1.35436 0.399757,-2.0363 0.138233,-0.69359 0.212178,-1.40287 0.33236,-2.09998 0.0819,-0.64531 0.257381,-1.26112 0.318441,-1.9104 0.100044,-0.71608 0.209991,-1.43064 0.299773,-2.14942 0.100959,-0.74901 0.250855,-1.48522 0.362343,-2.23145 0.164941,-0.73829 0.198876,-1.49918 0.309174,-2.24886 0.03993,-0.68532 0.174409,-1.35338 0.21446,-2.03855 0.153482,-0.64891 0.126283,-1.32141 0.189562,-1.98205 0.09019,-0.67503 0.06412,-1.35376 0.134932,-2.03069 0.01514,-0.67252 0.145168,-1.32666 0.182874,-1.99672 0.09727,-0.75188 0.109608,-1.50863 0.205607,-2.26004 0.08627,-0.71571 0.0241,-1.432 0.0785,-2.15002 0.01784,-0.74959 0.04657,-1.49676 0.07497,-2.24643 -0.04185,-0.75812 0.056,-1.50791 0.07747,-2.26409 0.0051,-0.78578 -0.0963,-1.56372 -0.199038,-2.337 -0.113456,-0.81598 -0.107015,-2.91813 -0.229852,-3.73211 l -0.529468,-0.0609 -0.405755,-0.008 c 0.122479,0.81322 0.07407,2.63299 0.188041,3.44804 0.102516,0.76572 0.204643,1.53585 0.203073,2.31403 -0.01905,0.7561 -0.11997,1.50544 -0.07534,2.26328 -0.02756,0.74769 -0.06284,1.49222 -0.07605,2.24001 -0.05503,0.7162 0.0045,1.42893 -0.07581,2.14328 -0.09599,0.75505 -0.10722,1.51502 -0.209,2.26985 -0.03525,0.66808 -0.168187,1.31917 -0.181379,1.98957 -0.07149,0.67756 -0.04716,1.35576 -0.13517,2.03169 -0.06616,0.66219 -0.0335,1.33749 -0.1907,1.98794 -0.03723,0.68143 -0.17388,1.34475 -0.21054,2.02636 -0.109464,0.7499 -0.141778,1.51095 -0.309047,2.24869 -0.109548,0.74777 -0.259101,1.48547 -0.362881,2.23492 -0.08817,0.7204 -0.199516,1.43638 -0.3023,2.15325 -0.05807,0.64596 -0.23574,1.25739 -0.315342,1.89939 -0.120707,0.69645 -0.19117,1.40625 -0.33042,2.09919 -0.125281,0.68172 -0.288267,1.35243 -0.399651,2.03629 -0.150329,0.82242 -0.249034,1.65467 -0.350159,2.48762 -0.128082,0.86773 -0.268906,1.73442 -0.358954,2.60857 -0.07744,0.85811 -0.122131,1.72728 -0.145831,2.58839 0.01025,0.913 0.142141,1.79909 0.297452,2.69188 0.130841,0.7908 0.237932,1.61239 0.581261,2.3179 0.442162,0.69074 0.654242,0.53489 1.517665,0.99406 0.231299,0.12302 -0.952036,-0.41258 -0.714394,-0.30824 1.765342,0.77512 1.378946,0.60367 0.485161,0.19418 0.848006,0.36841 1.665718,0.7504 2.567878,0.84183 0.603934,0.1723 1.216135,0.28981 1.823471,0.44429 0.586749,0.16472 1.18177,0.27778 1.777104,0.3892 0.58044,0.117 1.168385,0.14415 1.755763,0.18382 0.697196,-0.0464 1.40323,0.005 2.091091,-0.15767 0.681681,-0.14888 1.363324,-0.298 2.045186,-0.44566 0.6819,-0.14767 1.363832,-0.29516 2.045303,-0.44568 0.662071,-0.1493 1.325362,-0.29767 1.976028,-0.50991 0.577593,-0.2029 1.130827,-0.4746 1.692335,-0.73184 0.599645,-0.16958 1.206201,-0.35296 1.729411,-0.76146 0.48659,-0.40703 0.9927,-0.78176 1.20688,-1.48408 0.21348,-0.65999 0.48632,-1.28913 0.71884,-1.93904 0.20802,-0.5632 0.38898,-1.1293 0.50509,-1.73091 0.16713,-0.58467 0.28067,-1.1903 0.438,-1.77888 0.16853,-0.58752 0.28393,-1.1959 0.43696,-1.78936 0.17373,-0.64013 0.28367,-1.30428 0.39264,-1.96355 0.11994,-0.70371 0.15123,-1.42628 0.27116,-2.13062 0.13968,-0.63013 0.25451,-1.27441 0.2738,-1.92744 0.0528,-0.68149 0.10456,-1.35633 0.12498,-2.04016 0.0776,-0.7057 0.0586,-1.41352 0.15137,-2.11795 0.0704,-0.78624 0.0547,-1.593 0.039,-2.38147 -0.0242,-0.73028 0.05,-1.46487 -0.0453,-2.18816 -0.0792,-0.73691 -0.13965,-1.47797 -0.10657,-2.22255 0.0129,-0.80436 -0.12598,-1.57751 -0.25193,-2.36496 -0.12193,-0.81595 -0.24553,-1.63181 -0.34396,-2.45251 -0.0916,-0.82518 -0.16033,-1.65467 -0.14578,-2.48891 -2.1e-4,-0.80145 -0.10126,-1.58168 -0.15758,-2.37893 -0.0164,-0.70623 0.0694,-1.40418 0.0403,-2.10821 -0.01,-0.69932 0.0896,-1.38322 0.0906,-2.08015 0.0185,-0.76381 0.11793,-1.52198 0.0516,-2.28673 6.8e-4,-0.80202 -0.0109,-1.59456 -0.10176,-2.39042 -0.0204,-0.71922 0.0603,-1.43581 8.9e-4,-2.15156 -0.0429,-0.78537 -0.008,-1.5648 0.0314,-2.34982 -0.0587,-0.94988 -0.24183,-3.2231 -0.36067,-4.16447 l -0.80733,0.28656 z"
         id="path2991"
         style="fill:#333333;fill-opacity:1;stroke:none" />
      <path
         inkscape:connector-curvature="0"
         d="m 75.969755,784.14988 c -0.24876,0.21821 -0.48505,0.45686 -0.75477,0.63781 -0.20715,0.17242 -0.428614,0.31658 -0.635274,0.48988 -0.23035,0.17665 -0.47466,0.32999 -0.721951,0.47015 -0.205922,0.16328 -0.427645,0.29185 -0.645067,0.43069 -0.237472,0.16 -0.487359,0.29025 -0.729592,0.43868 -0.237872,0.12497 -0.466403,0.26805 -0.698446,0.40728 -0.235276,0.10473 -0.467092,0.21674 -0.700215,0.329 -0.261157,0.0958 -0.506084,0.24057 -0.761948,0.35384 -0.254086,0.11594 -0.52617,0.15323 -0.782359,0.25793 -0.252424,0.12192 -0.511998,0.21714 -0.775704,0.29594 -0.265065,0.0756 -0.514857,0.21113 -0.775228,0.30789 -0.258493,0.0911 -0.523089,0.15295 -0.787333,0.21386 -0.264559,0.0597 -0.529469,0.11713 -0.794505,0.17366 -0.264887,0.0579 -0.529774,0.11579 -0.794658,0.17368 -0.264888,0.0579 -0.529771,0.11576 -0.794656,0.17366 -0.264878,0.0579 -0.529759,0.11581 -0.794642,0.1737 -0.235576,-7.4e-4 -0.469844,-0.005 -0.704985,0.0178 -0.264826,-0.0285 -0.530794,0.003 -0.795405,-0.0122 -0.258439,0.003 -0.5117,-0.0338 -0.767983,-0.0639 -0.169423,-0.0469 -0.335294,-0.0979 -0.501655,-0.15735 0,0 0.35017,0.22701 0.35017,0.22701 l 0,0 c 0.166131,0.0603 0.334145,0.10817 0.504493,0.14888 0.255995,0.0328 0.510363,0.0583 0.768275,0.0606 0.265796,0.008 0.532192,-0.01 0.798083,0.008 0.235641,-0.0203 0.470684,-0.008 0.706263,-0.0224 0.264882,-0.0579 0.529761,-0.1158 0.794644,-0.1737 0.26488,-0.058 0.52976,-0.11579 0.794651,-0.17363 0.264889,-0.0579 0.529756,-0.1158 0.794631,-0.17368 0.264927,-0.058 0.530064,-0.11448 0.794579,-0.1751 0.265042,-0.0618 0.530405,-0.12494 0.789217,-0.21873 0.259185,-0.0986 0.508887,-0.23309 0.774302,-0.30542 0.263935,-0.0809 0.523021,-0.17967 0.776841,-0.299 0.258265,-0.0978 0.529213,-0.14195 0.782991,-0.25969 0.255292,-0.11553 0.501996,-0.25634 0.76256,-0.35488 0.233591,-0.11367 0.46871,-0.21971 0.702329,-0.33228 0.230866,-0.14128 0.461226,-0.2795 0.697406,-0.40776 0.244105,-0.14534 0.491407,-0.28196 0.730487,-0.43944 0.216758,-0.13885 0.437398,-0.26821 0.643869,-0.429 0.24791,-0.14347 0.494569,-0.29576 0.72475,-0.47698 0.207245,-0.16965 0.426605,-0.31578 0.633375,-0.48632 0.26965,-0.18695 0.50806,-0.42766 0.76027,-0.64551 0,0 -0.36795,-0.18349 -0.36795,-0.18349 z"
         id="path2999"
         style="fill:#1a1a1a;fill-opacity:1;stroke:none" />
      <path
         inkscape:connector-curvature="0"
         d="m 75.264625,791.30235 c -0.2958,0.13834 -0.580973,0.30858 -0.863046,0.48321 -0.253669,0.19878 -0.526267,0.35624 -0.793874,0.52504 -0.254343,0.14996 -0.502854,0.31395 -0.750748,0.47885 -0.251569,0.15722 -0.499186,0.32339 -0.746733,0.48975 -0.252424,0.14054 -0.497033,0.3 -0.755845,0.42369 -0.256257,0.13828 -0.501432,0.30223 -0.754313,0.44851 -0.224781,0.12106 -0.431999,0.27547 -0.664379,0.3775 -0.247187,0.1013 -0.483783,0.23306 -0.73329,0.32838 -0.249008,0.13847 -0.504099,0.25506 -0.767745,0.34572 -0.260254,0.0834 -0.525313,0.14214 -0.789916,0.20124 -0.264872,0.0579 -0.52975,0.1158 -0.794822,0.17234 -0.264888,0.0579 -0.529769,0.11579 -0.794656,0.17369 -0.264889,0.0579 -0.529767,0.11576 -0.794652,0.17367 -0.26515,0.0828 -0.532206,0.0938 -0.803872,0.0984 -0.252177,0.0213 -0.499833,-0.0539 -0.738954,-0.14101 0.07871,0.0322 0.314078,0.13142 0.23614,0.0967 -1.119404,-0.4998 -0.419648,-0.16132 -0.260316,-0.12513 0.08893,0.0203 -0.168699,-0.0962 -0.325679,-0.19493 -0.346015,-0.25247 -0.723683,-0.39774 -1.106126,-0.55181 -0.160661,-0.0693 -0.0807,-0.0373 -0.239813,-0.0962 0,0 0.34893,0.22691 0.34893,0.22691 l 0,0 c 0.158095,0.0606 0.07821,0.0291 0.239638,0.0945 -0.644794,-0.30667 0.284925,0.13113 0.367555,0.23214 0.273894,0.16732 0.525259,0.28108 0.818753,0.42598 0.07609,0.0376 -0.30961,-0.13409 -0.23228,-0.10033 0.167271,0.073 0.334734,0.14538 0.502099,0.21808 0.242335,0.0825 0.490008,0.1524 0.744291,0.12827 0.272706,-0.005 0.540628,-0.0263 0.806892,-0.1054 0.26488,-0.058 0.52976,-0.11581 0.794647,-0.17366 0.264882,-0.0579 0.529766,-0.11567 0.794623,-0.17369 0.264919,-0.058 0.530043,-0.11445 0.794962,-0.17236 0.26529,-0.0599 0.531083,-0.11933 0.791568,-0.20551 0.263299,-0.0933 0.517014,-0.21437 0.768293,-0.34694 0.249172,-0.0979 0.486507,-0.22981 0.734691,-0.33 0.231417,-0.1059 0.439486,-0.2615 0.665058,-0.38213 0.251396,-0.14798 0.496996,-0.30933 0.753287,-0.44546 0.258694,-0.12715 0.505625,-0.28502 0.757713,-0.42936 0.247211,-0.16692 0.495744,-0.33099 0.746676,-0.48955 0.247442,-0.16524 0.49678,-0.32672 0.750328,-0.47792 0.267028,-0.1694 0.538499,-0.32842 0.792818,-0.52517 0.281837,-0.17478 0.567697,-0.34378 0.865087,-0.47688 0,0 -0.36297,-0.19881 -0.36297,-0.19881 z"
         id="path3001"
         style="fill:#1a1a1a;fill-opacity:1;stroke:none" />
      <path
         inkscape:connector-curvature="0"
         d="m 75.479965,799.98643 c -0.17158,0.29115 -0.37663,0.55075 -0.598521,0.78708 -0.229218,0.27579 -0.519285,0.45274 -0.791832,0.65614 -0.297282,0.21848 -0.620322,0.3791 -0.928407,0.57255 -0.300211,0.17209 -0.60049,0.34417 -0.897031,0.52546 -0.300814,0.16694 -0.602978,0.33223 -0.910684,0.48043 -0.285249,0.19019 -0.595254,0.3084 -0.895967,0.45417 -0.301182,0.13353 -0.594267,0.2894 -0.893067,0.43002 -0.295466,0.17386 -0.598045,0.32887 -0.901638,0.48075 -0.323214,0.13325 -0.641938,0.27595 -0.960276,0.42521 -0.271399,0.0982 -0.525778,0.24795 -0.791243,0.36556 -0.264358,0.0845 -0.511842,0.22423 -0.768931,0.33439 -0.256221,0.0953 -0.51676,0.19149 -0.785335,0.21166 -0.245363,0.0149 -0.495061,-0.008 -0.731588,-0.0889 -0.03411,-0.011 -0.06824,-0.0219 -0.102347,-0.033 0.06915,0.0193 -0.292832,-0.11737 -0.220065,-0.0865 0.562722,0.23878 0.163559,0.0558 0.04959,-0.003 -0.181481,-0.0754 -0.351069,-0.18293 -0.521082,-0.28836 0,0 -0.390245,-0.0943 -0.390245,-0.0943 l 0,0 c 0.171589,0.10259 0.337397,0.22088 0.521307,0.29118 0.328176,0.1751 0.667026,0.32467 1.013393,0.43943 0.241092,0.068 0.488801,0.0972 0.736505,0.0741 0.269913,-0.0311 0.532579,-0.12218 0.78989,-0.22319 0.256452,-0.11213 0.505585,-0.24706 0.769086,-0.33488 0.26457,-0.11986 0.520391,-0.26559 0.790798,-0.36669 0.317665,-0.15062 0.637637,-0.28918 0.959251,-0.42686 0.303614,-0.15197 0.605828,-0.30761 0.902092,-0.4795 0.2983,-0.142 0.592686,-0.29449 0.893107,-0.43015 0.302098,-0.14231 0.608661,-0.26955 0.895906,-0.45449 0.307829,-0.15037 0.611683,-0.31366 0.912094,-0.48403 0.297726,-0.17877 0.596873,-0.3538 0.897216,-0.52596 0.309736,-0.19167 0.632043,-0.35612 0.929558,-0.57582 0.275328,-0.20321 0.564636,-0.38565 0.795146,-0.66356 0.22158,-0.23982 0.42586,-0.50118 0.60346,-0.78939 0,0 -0.37013,-0.17924 -0.37013,-0.17924 z"
         id="path3003"
         style="fill:#1a1a1a;fill-opacity:1;stroke:none" />
      <path
         inkscape:connector-curvature="0"
         d="m 74.587026,808.5624 c -0.147832,0.30665 -0.353829,0.56275 -0.579532,0.78802 -0.244288,0.2106 -0.507697,0.38336 -0.769707,0.55923 -0.255386,0.14087 -0.503278,0.30035 -0.765013,0.42432 -0.257734,0.11382 -0.504755,0.25554 -0.766485,0.35775 -0.24887,0.13975 -0.504201,0.25656 -0.768145,0.34729 -0.26342,0.0848 -0.512579,0.22093 -0.773251,0.31849 -0.249709,0.13732 -0.504821,0.25465 -0.768692,0.34562 -0.251601,0.13001 -0.507113,0.24422 -0.770722,0.33332 -0.272567,0.0859 -0.549954,0.14689 -0.826789,0.20878 -0.293687,0.0642 -0.587374,0.12839 -0.881261,0.19125 -0.268096,0.0586 -0.536193,0.1172 -0.804288,0.1758 -0.264641,0.0579 -0.529273,0.11566 -0.793908,0.17351 -0.265086,0.0828 -0.532077,0.0938 -0.803677,0.0983 -0.244119,0.005 -0.483344,-0.0486 -0.728349,-0.0442 -0.267608,-0.0213 -0.533697,-0.0423 -0.796459,-0.10861 -0.30838,-0.0588 -0.613409,-0.13788 -0.915317,-0.23335 -0.288809,-0.0595 -0.566973,-0.16444 -0.848316,-0.25917 0.085,0.0342 0.169093,0.0719 0.254992,0.10287 0.03772,0.0136 -0.07307,-0.0352 -0.110248,-0.0508 -0.159955,-0.0669 -0.32059,-0.1314 -0.48108,-0.19643 -0.08995,-0.0365 0.35824,0.15107 0.269475,0.11069 -0.359992,-0.16378 -0.746748,-0.30825 -0.189497,-0.0941 0,0 -0.390603,-0.094 -0.390603,-0.094 l 0,0 c 0.153202,0.0718 0.308734,0.13682 0.459608,0.21532 0.0879,0.0457 -0.360402,-0.15647 -0.270436,-0.1169 0.156851,0.069 0.312893,0.14082 0.471124,0.2052 0.08758,0.0356 -0.17285,-0.079 -0.259104,-0.11894 -0.03676,-0.0171 0.07375,0.0334 0.110622,0.0501 0.161395,0.0708 0.322798,0.14165 0.484188,0.21246 0.280162,0.0974 0.560148,0.19108 0.84699,0.25699 0.30325,0.0926 0.608739,0.17171 0.917684,0.23187 0.26462,0.0604 0.532262,0.0847 0.801221,0.1006 0.244017,4.9e-4 0.483851,0.055 0.727743,0.0434 0.272642,-0.005 0.540501,-0.0262 0.806698,-0.10535 0.26463,-0.0579 0.529263,-0.11568 0.793899,-0.1735 0.268011,-0.0585 0.536023,-0.11705 0.80401,-0.17574 0.29352,-0.0641 0.587237,-0.12699 0.880559,-0.19247 0.27787,-0.0621 0.556384,-0.123 0.829368,-0.21229 0.263075,-0.0915 0.517158,-0.20991 0.770811,-0.33356 0.263435,-0.0936 0.517117,-0.21533 0.769049,-0.3466 0.259705,-0.0996 0.509003,-0.23489 0.772878,-0.31748 0.263636,-0.0934 0.517633,-0.2147 0.768731,-0.34884 0.261252,-0.10504 0.50897,-0.24719 0.767441,-0.36049 0.261621,-0.12743 0.511827,-0.28521 0.766737,-0.43026 0.263166,-0.17812 0.52902,-0.35125 0.772445,-0.56755 0.227665,-0.23269 0.43588,-0.49395 0.588805,-0.80449 0,0 -0.374263,-0.16654 -0.374263,-0.16654 z"
         id="path3005"
         style="fill:#1a1a1a;fill-opacity:1;stroke:none" />
      <path
         inkscape:connector-curvature="0"
         d="m 73.851967,815.71739 c -0.292603,0.22284 -0.596719,0.42009 -0.902961,0.61462 -0.330603,0.23912 -0.686039,0.41948 -1.041377,0.59727 -0.34572,0.22902 -0.722486,0.36808 -1.088189,0.53905 -0.378491,0.18789 -0.774678,0.31029 -1.172824,0.41949 -0.403027,0.15263 -0.807684,0.29715 -1.218103,0.41816 -0.425549,0.11864 -0.855294,0.2136 -1.284816,0.30845 -0.370481,0.081 -0.740964,0.16196 -1.111646,0.24161 -0.32244,0.0704 -0.644881,0.14096 -0.967518,0.2101 -0.313268,0.0685 -0.626523,0.13702 -0.939816,0.20531 -0.273027,0.0597 -0.546054,0.11937 -0.819083,0.17905 -0.264643,0.0579 -0.529283,0.11567 -0.793925,0.17351 -0.264736,0.0579 -0.529479,0.11574 -0.794215,0.17361 -0.264876,0.0579 -0.529755,0.1158 -0.794631,0.17369 -0.227226,0.0621 -0.457666,0.0328 -0.682137,-0.0242 0.605392,0.29252 0.07052,7.5e-4 -0.05641,-0.0989 0,0 -0.389724,-0.10057 -0.389724,-0.10057 l 0,0 c 0.23987,0.20755 0.515057,0.3154 0.797865,0.42271 0.226916,0.0543 0.459752,0.0689 0.687668,0.007 0.26488,-0.058 0.529753,-0.1158 0.794631,-0.1737 0.264744,-0.0579 0.529484,-0.11574 0.794223,-0.17361 0.264633,-0.0578 0.529266,-0.11566 0.793893,-0.17353 0.272852,-0.0596 0.545698,-0.11936 0.818558,-0.17892 0.313197,-0.0685 0.626389,-0.13691 0.939574,-0.20544 0.322193,-0.0704 0.644367,-0.141 0.966581,-0.21128 0.370189,-0.0809 0.740567,-0.1605 1.110557,-0.24274 0.42965,-0.0964 0.859673,-0.19207 1.285502,-0.31113 0.409843,-0.12237 0.813396,-0.27021 1.217379,-0.41771 0.399483,-0.11078 0.796381,-0.23651 1.176301,-0.42499 0.366841,-0.16833 0.740502,-0.31623 1.08806,-0.54056 0.356241,-0.17902 0.711605,-0.36164 1.043564,-0.60092 0.307235,-0.19659 0.612503,-0.39561 0.908693,-0.6153 0,0 -0.365752,-0.19069 -0.365752,-0.19069 z"
         id="path3007"
         style="fill:#1a1a1a;fill-opacity:1;stroke:none" />
      <path
         inkscape:connector-curvature="0"
         d="m 73.911085,821.60232 c -0.271228,0.21641 -0.561944,0.38916 -0.847478,0.57517 -0.309335,0.18957 -0.622162,0.36987 -0.93191,0.55859 -0.293952,0.15183 -0.576179,0.33386 -0.873706,0.47578 -0.300356,0.11351 -0.591975,0.25514 -0.892501,0.36855 -0.313154,0.1626 -0.632632,0.29932 -0.961531,0.40729 -0.296398,0.0876 -0.576099,0.23741 -0.868903,0.34113 -0.321386,0.0817 -0.631895,0.20012 -0.943108,0.32496 -0.313744,0.12593 -0.63709,0.21161 -0.960519,0.29207 -0.303961,0.073 -0.609066,0.13889 -0.914085,0.2051 -0.308363,0.0675 -0.616729,0.1348 -0.925296,0.20087 -0.309046,0.0676 -0.618095,0.13512 -0.92717,0.20251 -0.282582,0.0618 -0.565159,0.12353 -0.847743,0.1853 -0.22413,0.0324 -0.437248,-0.0315 -0.655782,-0.0722 -0.03684,-0.0107 -0.07419,-0.0193 -0.110537,-0.0323 -0.08271,-0.0296 -0.327646,-0.13042 -0.245956,-0.0971 0.532344,0.21761 0.148871,0.0487 0.03523,-0.0223 -0.210395,-0.16876 -0.427918,-0.32486 -0.636754,-0.49642 -0.124615,-0.0934 -0.06429,-0.0453 -0.181172,-0.14382 0,0 -0.388977,-0.10147 -0.388977,-0.10147 l 0,0 c 0.11576,0.10299 0.05532,0.0546 0.181577,0.1446 0.206319,0.17718 0.429618,0.32373 0.635756,0.50172 0.32838,0.22228 0.699436,0.35436 1.063236,0.46834 0.219283,0.0449 0.436331,0.0957 0.660507,0.0568 0.282308,-0.0618 0.564633,-0.12341 0.846947,-0.18511 0.309049,-0.0676 0.618097,-0.1351 0.927144,-0.20266 0.308378,-0.0674 0.616753,-0.13481 0.925328,-0.20088 0.305182,-0.0666 0.61065,-0.13155 0.914564,-0.20624 0.323984,-0.0821 0.647796,-0.1699 0.961952,-0.29741 0.310928,-0.12509 0.623097,-0.23646 0.94309,-0.32324 0.291909,-0.10534 0.571567,-0.25437 0.868078,-0.34056 0.328527,-0.11044 0.646913,-0.25096 0.961641,-0.40913 0.301016,-0.11514 0.595088,-0.25325 0.895298,-0.37102 0.296612,-0.14538 0.580124,-0.32555 0.873195,-0.48063 0.309956,-0.18945 0.624912,-0.3661 0.933339,-0.55907 0.287666,-0.18506 0.576281,-0.3657 0.852052,-0.57616 0,0 -0.365754,-0.1907 -0.365754,-0.1907 z"
         id="path3009"
         style="fill:#1a1a1a;fill-opacity:1;stroke:none" />
      <path
         inkscape:connector-curvature="0"
         d="m 73.836325,827.49317 c -0.344541,0.14259 -0.681269,0.30959 -1.026664,0.44993 -0.32965,0.1293 -0.647421,0.29348 -0.979861,0.41423 -0.287797,0.1471 -0.579587,0.27544 -0.881479,0.37325 -0.305833,0.0931 -0.596996,0.24079 -0.900342,0.34612 -0.31567,0.11411 -0.64513,0.15825 -0.960002,0.27337 -0.274476,0.11969 -0.552793,0.22342 -0.836119,0.30775 -0.267221,0.0664 -0.530901,0.1271 -0.787571,0.23961 -0.252295,0.11833 -0.513979,0.20115 -0.777522,0.27338 -0.267671,0.0607 -0.530744,0.12075 -0.787116,0.23245 -0.252681,0.11806 -0.514592,0.2011 -0.778406,0.27346 -0.262975,0.0688 -0.527864,0.12599 -0.792578,0.18384 -0.26488,0.058 -0.529755,0.1158 -0.794831,0.17236 -0.265186,0.0827 -0.532252,0.0937 -0.803919,0.0982 -0.263123,-0.009 -0.517323,-0.079 -0.775831,-0.12661 -0.105158,-0.0557 -0.545877,-0.14105 -0.01182,0.008 0.04778,0.0134 -0.09195,-0.0411 -0.136916,-0.0645 -0.111647,-0.0582 -0.142143,-0.0837 -0.248134,-0.15633 -0.271484,-0.19125 -0.509915,-0.43975 -0.734767,-0.70198 -0.106725,-0.11059 -0.207252,-0.22932 -0.309295,-0.34598 0,0 -0.386244,-0.10734 -0.386244,-0.10734 l 0,0 c 0.102274,0.11671 0.201225,0.2379 0.310475,0.34549 0.222784,0.2665 0.462253,0.51641 0.731771,0.71329 0.349185,0.24948 0.741081,0.42054 1.136812,0.52995 0.258402,0.0518 0.514836,0.11214 0.778206,0.11881 0.272703,-0.005 0.540631,-0.0262 0.806919,-0.10514 0.264887,-0.058 0.529773,-0.11579 0.794857,-0.17236 0.265078,-0.0579 0.530259,-0.1159 0.793384,-0.18581 0.264533,-0.0742 0.526635,-0.16037 0.780313,-0.27855 0.255842,-0.10832 0.519941,-0.16217 0.785207,-0.22737 0.264285,-0.074 0.526184,-0.16001 0.779473,-0.27853 0.256216,-0.10927 0.521005,-0.16406 0.785822,-0.23533 0.282991,-0.0864 0.560475,-0.19314 0.83573,-0.31018 0.316198,-0.10903 0.644557,-0.15804 0.959854,-0.27327 0.302649,-0.10695 0.593966,-0.25404 0.900164,-0.34528 0.301654,-0.0999 0.592291,-0.23227 0.881764,-0.3747 0.331528,-0.12318 0.649389,-0.28734 0.978987,-0.41639 0.346418,-0.14296 0.6854,-0.30949 1.032673,-0.44916 0,0 -0.362967,-0.1988 -0.362967,-0.1988 z"
         id="path3011"
         style="fill:#1a1a1a;fill-opacity:1;stroke:none" />
      <g
         transform="matrix(-0.1192351,0.02606233,0.02135103,0.14282698,102.59482,675.12026)"
         style="fill:#4d4d4d"
         id="g3019">
        <path
           style="fill:#4d4d4d;fill-opacity:1;stroke:none"
           id="path3013"
           d="m 106.61504,1451.698 c 6.39577,1.2174 12.58364,3.4092 18.73707,5.513 6.02676,1.882 12.00812,3.8819 17.83897,6.3017 5.36254,1.7211 10.85784,3.0993 16.34973,4.3836 5.57004,0.609 10.84053,2.4841 16.3054,3.6072 5.25617,0.3781 10.2257,2.0929 15.36737,3.1034 5.03989,0.8937 9.83421,2.6189 14.91362,3.4182 4.72075,1.9 9.83075,2.3394 14.65433,3.7921 4.78755,1.1726 9.37703,2.849 14.07335,4.3174 5.08734,0.8604 10.03984,2.0426 15.04678,3.2872 5.08586,0.6084 9.85837,2.4441 14.8481,3.5054 5.01737,0.9565 9.79462,2.6753 14.86442,3.4749 4.8657,1.7417 9.85204,2.7984 14.97709,3.366 5.01586,1.4983 10.09265,2.5297 15.29551,3.0734 5.02747,1.4731 10.10755,2.5124 15.31528,3.0582 5.91478,0.4888 11.85509,0.4954 17.78579,0.5201 6.128,0.01 12.25601,-0.01 18.38402,-0.015 0,0 -7.30848,5.3113 -7.30848,5.3113 l 0,0 c -6.1293,0.01 -12.25862,0.024 -18.38792,0.011 -5.95336,-0.032 -11.91794,-0.048 -17.85175,-0.5889 -5.20126,-0.5937 -10.25562,-1.7323 -15.3151,-3.0579 -5.19817,-0.592 -10.25027,-1.7236 -15.29961,-3.078 -5.1293,-0.6215 -10.09424,-1.7887 -15.00553,-3.3979 -5.06114,-0.8609 -9.85838,-2.5907 -14.89562,-3.5116 -4.97786,-1.1182 -9.78943,-2.8525 -14.86607,-3.527 -5.01166,-1.274 -10.02005,-2.3033 -15.08177,-3.3308 -4.67402,-1.5103 -9.29479,-3.0773 -14.05796,-4.298 -4.83265,-1.3281 -9.84408,-1.9932 -14.58535,-3.7093 -5.06731,-0.8591 -9.87842,-2.5924 -14.93555,-3.4437 -5.12818,-1.0598 -10.12696,-2.6567 -15.36947,-3.1118 -5.44991,-1.1795 -10.74912,-2.9531 -16.30456,-3.6352 -5.51993,-1.3273 -11.08221,-2.6315 -16.44026,-4.4983 -5.80744,-2.4188 -11.78965,-4.3604 -17.78275,-6.2698 -6.13651,-2.1047 -12.32769,-4.2584 -18.730372,-5.3719 0,0 7.461292,-5.1991 7.461292,-5.1991 z"
           inkscape:connector-curvature="0"
           transform="translate(0,-995.63782)" />
        <path
           style="fill:#4d4d4d;fill-opacity:1;stroke:none"
           id="path3017"
           d="m 361.35628,32.73121 c -3.18326,5.350925 -6.32898,10.698234 -9.80407,15.872663 -3.04135,3.768711 -5.95083,7.717063 -8.16989,12.032592 -2.23399,3.942874 -4.45942,7.928639 -6.28251,12.082535 -2.04452,4.07184 -4.27642,8.065482 -6.10232,12.241966 -2.04712,4.076727 -4.28883,8.071114 -6.12055,12.251002 -2.10364,4.884772 -4.24034,9.770022 -6.13875,14.741372 -2.42297,5.08556 -3.69298,10.56459 -5.61151,15.83598 -1.38039,4.89671 -3.00264,9.71495 -4.8542,14.45695 -2.01545,5.60254 -4.16716,11.15482 -5.59752,16.94298 -1.6429,6.23236 -4.2473,12.12421 -5.91908,18.34545 -2.23703,4.97486 -3.13811,10.33148 -4.62062,15.52622 -1.68093,4.76942 -2.33037,9.76598 -3.81819,14.5872 -1.83977,5.15722 -3.17607,10.48365 -4.91275,15.66963 -1.88559,5.27232 -3.66227,10.58339 -5.59852,15.83735 -2.14133,5.97303 -3.99249,12.04692 -6.10551,18.02925 -1.78003,5.66053 -3.52954,11.31514 -5.30265,16.98017 -1.49188,5.66118 -3.22059,11.25902 -5.05777,16.81807 -1.42875,5.62437 -2.76547,11.23783 -4.30031,16.83858 -2.15178,4.57222 -3.57698,9.27066 -4.32007,14.25907 -1.26712,5.88438 -3.00757,11.63579 -4.54,17.4514 -2.17882,6.12482 -3.66218,12.44525 -5.48925,18.67534 -1.41532,6.1131 -2.70314,12.24797 -4.06406,18.37808 -2.16488,5.97431 -3.17264,12.23025 -4.63386,18.38031 -1.62318,5.78062 -2.24108,11.73687 -3.8638,17.51117 -1.61858,5.29086 -2.08854,10.79761 -2.38292,16.29164 0.30659,5.57215 -1.03909,10.92453 -2.00805,16.35548 -1.04177,5.68798 -0.77796,11.49398 -1.53446,17.2043 -1.21539,6.04475 -1.99278,12.14467 -2.41943,18.29163 -0.36118,6.57779 -0.36137,13.16844 -0.37469,19.75402 -4.5e-4,6.64785 0.0158,13.29568 0.0241,19.94353 0.007,6.16443 0.008,12.32886 0.009,18.4933 4.5e-4,6.11877 2.6e-4,12.23754 1.8e-4,18.35632 0.78329,6.12268 1.89872,12.18274 2.48741,18.33279 0.10192,6.49315 1.53487,12.82282 2.39262,19.23577 0.99912,7.84263 1.06987,15.75806 1.1856,23.65093 0.71636,7.24743 1.97949,14.41418 2.55461,21.67792 0.47035,7.08368 0.54381,14.18524 0.56702,21.28191 -0.0639,7.04072 -0.21439,14.01923 0.84326,20.9907 1.14301,6.19903 1.7027,12.47006 2.01049,18.75865 0.11908,6.15002 0.0718,12.22726 1.06612,18.30694 1.17535,6.07764 1.70158,12.23929 2.00039,18.41307 -0.18882,6.1979 0.55002,12.23507 1.57602,18.32564 0.94476,6.12489 1.23817,12.27658 2.423,18.3629 1.317,6.06552 1.84055,12.24521 2.14065,18.43122 -0.33464,5.61672 1.06242,10.99992 2.03002,16.47306 0.49479,5.81983 1.99835,11.46125 2.99346,17.20234 0.5088,6.19161 2.03793,12.20808 3.07367,18.31846 0.90358,6.18362 2.56066,12.20384 3.44446,18.39854 0.33218,6.19391 1.16859,12.26083 2.25678,18.36067 1.24651,6.06326 1.06797,12.2859 1.94858,18.38403 1.26907,6.07614 2.04668,12.21807 2.47627,18.40527 0.28646,6.18002 1.78171,12.21782 2.55409,18.35106 1.45277,6.07478 2.66977,12.16807 3.3326,18.38094 0.11787,6.19741 0.89752,12.25123 1.95158,18.34688 1.07337,6.08738 1.39616,12.26246 1.58937,18.42913 -0.31861,6.19887 1.01853,12.23782 1.93028,18.32662 0.87071,6.1031 1.06401,12.2698 1.18719,18.4243 -0.37328,6.1969 0.96208,12.2357 1.87137,18.3223 0.75544,6.1371 0.91293,12.2714 2.02644,18.3595 1.26018,6.0714 1.77992,12.2452 2.07703,18.427 0.22632,6.1278 0.21358,12.261 0.2148,18.392 0.80447,5.2858 1.91619,10.4957 2.47297,15.8217 0.43275,5.6729 0.27548,11.3027 1.41821,16.891 1.28873,5.3978 1.73759,10.9242 2.01422,16.45 0.42594,5.9116 -0.2094,11.8816 0.56345,17.7593 1.21165,5.2955 1.94172,10.6544 2.34365,16.0663 0.35266,6.0073 0.35516,12.0278 0.37073,18.0433 -0.52978,5.6145 0.84401,10.9976 1.80428,16.4694 0.91957,5.709 1.07564,11.4984 1.19468,17.268 0.87666,6.0989 1.96681,12.1485 2.54739,18.2881 0.4938,6.1278 0.53494,12.279 0.57139,18.4228 -0.0393,6.1695 1.44029,12.2219 2.18967,18.3291 0.19847,5.758 0.9928,11.3277 2.2064,16.9442 1.17794,5.5491 1.43997,11.2238 1.62227,16.8756 0.0951,6.133 1.56013,12.1402 2.30701,18.2178 0.61938,6.1897 2.20306,12.2179 3.03622,18.3856 1.63876,6.0331 2.36551,12.2539 3.70694,18.3417 1.25315,6.1711 2.82483,12.2497 4.30852,18.3668 1.10386,6.1732 2.32246,12.3371 4.12061,18.3514 1.49099,5.7261 3.28147,11.3281 5.02318,16.9786 1.50878,4.7081 2.80835,9.5526 4.55001,14.1848 1.51487,4.5827 3.16542,9.107 4.67401,13.6948 1.77918,4.2466 4.03409,8.2645 5.81069,12.5064 1.45982,4.4618 3.29277,8.7933 5.31523,13.0275 1.79018,4.21 3.87756,8.2915 6.00626,12.3438 1.91471,4.1424 3.9991,8.2029 6.12959,12.2427 1.21596,2.8607 0.54305,1.494 2.00218,4.1081 0,0 -7.86611,4.5255 -7.86611,4.5255 l 0,0 c -1.49022,-2.6793 -0.81965,-1.3037 -2.01191,-4.1266 -2.13075,-4.0402 -4.21568,-8.1013 -6.13027,-12.244 -2.13401,-4.0624 -4.22747,-8.1545 -6.02213,-12.3745 -2.02848,-4.2478 -3.87945,-8.59 -5.33561,-13.0682 -1.77615,-4.2675 -4.05576,-8.3016 -5.84187,-12.5711 -1.49342,-4.5789 -3.16083,-9.083 -4.65643,-13.6583 -1.76159,-4.6442 -3.04734,-9.5186 -4.56549,-14.2422 -1.72386,-5.6593 -3.52065,-11.2627 -5.00174,-16.9946 -1.83458,-6.0194 -3.06337,-12.203 -4.14703,-18.395 -1.47117,-6.1255 -3.07795,-12.1996 -4.3161,-18.3796 -1.38841,-6.1022 -2.03686,-12.3669 -3.74631,-18.4107 -0.81084,-6.1765 -2.40255,-12.205 -3.04129,-18.3948 -0.73166,-6.1058 -2.21413,-12.1338 -2.34948,-18.2868 -0.17171,-5.5988 -0.41175,-11.2219 -1.56199,-16.7222 -1.21582,-5.6467 -2.07266,-11.2349 -2.22436,-17.0287 -0.73542,-6.1428 -2.23526,-12.2235 -2.23838,-18.421 -0.0319,-6.1202 -0.0647,-12.2474 -0.53466,-18.3531 -0.56234,-6.1623 -1.62281,-12.2362 -2.58084,-18.3447 -0.11173,-5.7249 -0.25324,-11.4699 -1.14642,-17.1374 -0.95833,-5.5215 -2.39598,-10.9503 -1.85749,-16.6154 -0.0137,-5.995 -0.0133,-11.9947 -0.35014,-17.9823 -0.38662,-5.3945 -1.0914,-10.7396 -2.32365,-16.0129 -0.83032,-5.8978 -0.17574,-11.8948 -0.59068,-17.8332 -0.26296,-5.4805 -0.68451,-10.9651 -1.9637,-16.3187 -1.16934,-5.6188 -1.06914,-11.2643 -1.45223,-16.9762 -0.54435,-5.3592 -1.64594,-10.6003 -2.50348,-15.9104 3.3e-4,-6.1184 0.0154,-12.2388 -0.19543,-18.3545 -0.27888,-6.1445 -0.76614,-12.2845 -2.01798,-18.3195 -1.13519,-6.0989 -1.34489,-12.229 -2.04211,-18.3871 -0.90254,-6.1229 -2.30768,-12.1916 -1.9262,-18.4242 -0.11314,-6.1194 -0.28707,-12.2514 -1.13222,-18.3222 -0.90427,-6.1223 -2.31022,-12.188 -1.98067,-18.41988 -0.17943,-6.12789 -0.47613,-12.26596 -1.52855,-18.31739 -1.05588,-6.11516 -1.92128,-12.17655 -1.98099,-18.39964 -0.63692,-6.21059 -1.82019,-12.3065 -3.32418,-18.36558 -0.75435,-6.15325 -2.26443,-12.20362 -2.57816,-18.39546 -0.40846,-6.1658 -1.15206,-12.2911 -2.44122,-18.34117 -0.94199,-6.08295 -0.70111,-12.30317 -1.93626,-18.36227 -1.08691,-6.11146 -2.00272,-12.17701 -2.27299,-18.38949 -0.8577,-6.19356 -2.51719,-12.20356 -3.4325,-18.37754 -1.01739,-6.11332 -2.5928,-12.11964 -3.07479,-18.31392 -0.97928,-5.74233 -2.53232,-11.3702 -3.00949,-17.19009 -0.96231,-5.51202 -2.41837,-10.92838 -2.06471,-16.58436 -0.28126,-6.14567 -0.77116,-12.28868 -2.07675,-18.31531 -1.20324,-6.09457 -1.53913,-12.2407 -2.43498,-18.38381 -1.03224,-6.12399 -1.86308,-12.18396 -1.62797,-18.42066 -0.28134,-6.14167 -0.77666,-12.27469 -1.94978,-18.3201 -1.02625,-6.11264 -1.05062,-12.2086 -1.1163,-18.39964 -0.28946,-6.2614 -0.81782,-12.50851 -1.95604,-18.68064 -1.08593,-7.01588 -0.98409,-14.02501 -0.89059,-21.11581 -0.0435,-7.07596 -0.0729,-14.1577 -0.53781,-21.22158 -0.57791,-7.28476 -1.78692,-14.48025 -2.55586,-21.74346 -0.0998,-7.85688 -0.20119,-15.73326 -1.16196,-23.54267 -0.85483,-6.42263 -2.3567,-12.75028 -2.43188,-19.25474 -0.57128,-6.17911 -1.65841,-12.2687 -2.5269,-18.4078 2e-5,-6.11874 1e-4,-12.23748 -1.6e-4,-18.35623 -3.9e-4,-6.16496 -9.9e-4,-12.32992 -0.004,-18.49488 -0.004,-6.65171 -0.0107,-13.30342 -0.007,-19.95513 0.0105,-6.59917 -0.0258,-13.2033 0.32562,-19.79555 0.40477,-6.1657 1.12952,-12.29401 2.38839,-18.34979 0.85754,-5.70345 0.48227,-11.52402 1.50391,-17.22258 0.92972,-5.40998 2.42165,-10.71222 2.06951,-16.2624 0.26952,-5.54699 0.6821,-11.11872 2.28108,-16.47046 1.67081,-5.76513 2.32628,-11.69342 3.90091,-17.49016 1.53453,-6.12253 2.35356,-12.42755 4.6421,-18.36138 1.34115,-6.15328 2.71059,-12.28416 4.04085,-18.43557 1.82297,-6.22539 3.28614,-12.54449 5.50198,-18.65127 1.4932,-5.79475 3.223,-11.51322 4.56112,-17.34744 0.68064,-5.02255 1.90729,-9.83332 4.26858,-14.35805 1.50562,-5.62855 3.00265,-11.21299 4.30103,-16.89283 1.82444,-5.5537 3.6041,-11.12799 5.04483,-16.79278 1.7302,-5.69618 3.62808,-11.31901 5.31122,-17.02946 2.17173,-5.96136 3.95353,-12.06169 6.09128,-18.0362 1.98536,-5.22584 3.66765,-10.56322 5.59106,-15.81222 1.86784,-5.11947 2.99505,-10.52345 4.91427,-15.63634 1.51983,-4.81989 2.19213,-9.78996 3.82545,-14.58085 1.63274,-5.13858 2.21408,-10.61016 4.66363,-15.51154 1.6108,-6.23944 4.20621,-12.11842 5.92338,-18.3268 1.376,-5.83587 3.53505,-11.40503 5.52296,-17.05025 1.91638,-4.70929 3.51702,-9.53606 4.86419,-14.43266 1.93388,-5.27153 3.20187,-10.74451 5.60784,-15.8412 1.82617,-5.00506 4.06369,-9.85712 6.11031,-14.77123 1.72637,-4.224781 4.01637,-8.208249 6.12085,-12.250297 1.72097,-4.221351 4.00167,-8.204165 6.10163,-12.242577 1.71792,-4.208454 3.99287,-8.202926 6.26119,-12.130121 2.08209,-4.407491 5.02296,-8.428056 8.14567,-12.152054 3.45048,-5.185116 6.80616,-10.393904 9.73726,-15.897276 0,0 8.3532,-3.599705 8.3532,-3.599705 z"
           inkscape:connector-curvature="0"
           transform="translate(0,-995.63782)" />
      </g>
      <path
         inkscape:connector-curvature="0"
         id="path3025"
         d="m 43.392388,545.97207 c 2.930527,0.7399 6.17489,-0.80414 9.204597,-1.08786 1.669189,-0.20557 5.334186,-1.99654 6.35286,0.30242 55.645055,-1.76001 40.840394,87.93388 41.267355,138.30077 1.08144,11.17136 1.86688,22.45788 1.80788,33.69085 -0.73148,0.89734 0.41746,2.2064 -0.28398,3.22367 0.0626,2.10808 -0.2971,4.36069 -0.22772,6.35886 -0.59213,2.85243 -0.47545,5.9618 -1.0866,8.88958 -0.39063,2.45387 -0.27883,5.04274 -0.653151,7.45397 -7.503004,4.76105 -15.354264,8.76363 -23.157774,12.73999 -1.25124,0.31088 -2.706174,1.34272 -3.931201,0.81692 1.254267,-6.5748 2.106928,-13.40828 1.941171,-20.19842 -0.155414,-16.77367 -2.181542,-33.4131 -3.192915,-50.12374 -1.324856,-17.53039 -0.820729,-35.19265 -2.59204,-52.68461 -1.215466,-14.58849 -2.557103,-29.55107 -8.009544,-42.85707 -4.89343,-12.31585 -9.983496,-24.66463 -15.974463,-36.2111 -1.374761,-2.50369 -3.029674,-4.66351 -4.813288,-6.73899 0.369769,-1.06832 2.345769,-1.51078 3.348813,-1.87524 z"
         style="fill:#808080;fill-opacity:1;stroke:none"
         sodipodi:nodetypes="cccccccccccccccccc" />
      <path
         inkscape:connector-curvature="0"
         id="path3020"
         d="m 80.754665,851.54687 c -0.81406,0.56306 -0.47757,2.03966 -0.66899,2.98943 -0.40766,6.12593 0.39729,12.24287 0.63494,18.36387 0.55604,7.62539 0.2984,15.30353 0.0811,22.93542 -0.36254,5.31425 -0.76416,10.69836 -2.34269,15.73355 -1.2476,3.6686 -3.824205,6.3352 -5.790787,9.4066 -3.61137,5.1362 -7.886823,9.5631 -11.924661,14.219 -2.817656,3.1213 -5.732617,6.1548 -8.669936,9.0816 -4.128895,3.4245 -9.194969,4.6824 -13.826245,6.9152 -4.267711,1.9878 -8.803281,2.9396 -13.14956,4.6601 -2.522506,1.17284 -5.225439,0.4238 -7.845935,0.4797 -0.86169,0.5129 0.06056,1.34304 0.5902,1.51554 1.995191,1.0766 3.816295,2.5991 5.818345,3.6315 1.439639,0.6475 2.910514,1.134 4.450401,1.0844 3.602399,0.4343 7.25085,1.4006 10.85346,0.3858 2.863601,-0.5633 5.715899,-1.3077 8.413488,-2.5935 11.111019,-1.8197 17.795261,-1.8491 23.571869,-4.31284 4.933351,-3.431 14.353551,-5.5681 18.240391,-10.6363 4.751147,-6.3964 5.472957,-7.4908 6.770774,-13.0724 2.68484,-3.2876 2.43713,-14.9492 3.13766,-19.6255 1.066951,-6.61302 0.18672,-13.38805 0.35719,-20.0709 -0.035,-7.65467 -0.73839,-15.29298 -0.27482,-22.93247 0.25943,-4.39452 0.19995,-8.82324 -0.19689,-13.20309 -0.22487,-1.32177 -0.38131,-2.72138 -0.83389,-3.95608 -1.23306,-0.45426 -2.627267,-0.13395 -3.917997,-0.29162 -3.176637,-0.16764 -6.401977,0.0449 -9.551297,-0.26017 -1.27394,-0.26366 -2.62372,-0.60781 -3.92613,-0.44684 z"
         style="fill:#808080;fill-opacity:1;stroke:none"
         sodipodi:nodetypes="ccccccccccccccccccccccccccc" />
      <path
         inkscape:connector-curvature="0"
         d="m 75.114795,831.51585 c 0.26597,1.07293 0.54012,2.13827 0.92961,3.15532 0.37194,0.68001 0.73083,1.37494 1.22723,1.93316 0.40271,0.5532 0.92214,0.87725 1.44891,1.21329 0.53676,0.33024 1.08566,0.61403 1.64954,0.8723 0.63192,0.15954 1.25652,0.35825 1.90326,0.41212 0.64661,0.17762 1.303,0.22854 1.95317,0.3775 0.62711,0.18668 1.27448,0.27892 1.90366,0.45321 0.62301,0.15456 1.25478,0.29598 1.85916,0.53962 0.59694,0.22138 1.2117,0.38013 1.80069,0.63125 0.60894,0.16156 1.17563,0.43746 1.74393,0.73892 0.56099,0.41588 1.15581,0.76006 1.752287,1.09374 0.56427,0.35313 1.07925,0.801 1.62137,1.19757 0.52048,0.38658 0.959887,0.87468 1.379597,1.40777 0.37163,0.65028 0.74399,1.30566 1.02176,2.02432 0.39548,0.69494 0.66839,1.45306 0.87736,2.25374 0.18814,0.84371 0.52517,1.62021 0.75521,2.44876 0.23818,0.92944 0.38945,1.88661 0.54064,2.84095 0.1524,0.95846 0.32642,1.90329 0.3179,2.88227 -0.0552,0.91502 0.0683,1.8235 0.0779,2.73572 -0.0409,1.01054 0.001,2.01802 0.0913,3.02257 -0.0373,0.87451 0.005,1.75664 -0.0472,2.62922 -0.0977,0.82697 -0.0671,1.65788 -0.15132,2.48571 -0.0336,0.83285 -0.0815,1.65753 -0.14782,2.48802 -0.0452,0.88255 0.0662,1.75213 0.0257,2.63454 -0.0484,0.86833 0.034,1.72798 -0.0226,2.59535 -0.0766,0.89729 -0.004,1.79456 0.09,2.68496 -0.006,0.87907 -0.0332,1.75248 0.0192,2.63071 0.12508,0.91278 0.16563,1.81416 0.14412,2.73676 -0.0427,0.91582 0.124371,1.81811 0.138441,2.72925 -0.0543,0.88718 -0.0244,1.77139 0.0512,2.65473 -0.0249,0.87225 -0.055,1.73795 -0.005,2.60996 -0.0513,0.86226 -0.0853,1.71756 -0.0388,2.58122 0.13645,0.88654 0.0721,1.7785 0.0682,2.67235 0.0673,0.88755 0.0789,1.76182 0.0434,2.65117 -0.053,0.91278 0.11483,1.81268 0.12887,2.72078 -0.0738,0.8717 0.0239,1.74473 4.6e-4,2.61523 -0.0715,0.83994 -0.0358,1.6789 -0.11725,2.51708 -0.264101,30.29435 -8.607515,46.07715 -47.157945,51.16739 -0.741327,0.2506 -1.962247,0.7934 -2.673535,1.1543 -0.691511,0.3697 -1.424336,0.02 -2.15889,0.2223 -0.666505,0.3496 -1.65609,0.09 -2.355241,0.3299 -0.737015,0.1413 -1.395738,0.5538 -2.088139,0.8637 -0.745409,0.3121 -1.520095,0.5011 -2.292229,0.6867 -0.820167,0.1908 -1.6426,0.3669 -2.464675,0.5453 -0.824916,0.1775 -1.649433,0.3578 -2.47395,0.5379 -0.734793,0.1764 -1.488765,0.068 -2.234201,0.1077 -0.787358,-0.07 -1.570337,-0.072 -2.352049,-0.2052 -0.693857,-0.031 -1.365451,-0.2381 -2.057671,-0.2884 -0.646879,-0.1743 -1.302545,-0.2294 -1.952146,-0.3802 -0.709001,-0.181 -1.425205,0.013 -2.136873,-0.02 -0.676856,0.027 -1.287961,-0.1939 -1.907265,-0.4889 -0.511977,-0.3923 -1.095728,-0.5982 -1.621416,-0.9586 -0.547123,-0.4048 -1.130371,-0.728 -1.694895,-1.0944 -0.600238,-0.3014 -1.1055,-0.8107 -1.708532,-1.1001 -0.560541,-0.2794 -1.072708,-0.6635 -1.601193,-1.0168 -0.588234,-0.3288 -1.205358,-0.5828 -1.792386,-0.9136 -0.597216,-0.3065 -1.173421,-0.69124 -1.702871,-1.14554 -0.469743,-0.4634 -1.054735,-0.6854 -1.532709,-1.125 -0.438797,-0.4981 -1.006124,-0.7562 -1.468393,-1.2085 -0.462004,-0.449 -0.9428268,-0.8703 -1.4020828,-1.3239 -0.476623,-0.4231 -0.977242,-0.8067 -1.446974,-1.2413 -0.56318,-0.414 -1.038115,-0.9787 -1.508239,-1.5317 -0.419358,-0.6069 -1.0911552,-1.0686 -1.2807582,-1.8559 0.238058,-1.2824 1.4770302,-1.7138 2.4193342,-1.7581 0.774383,-0.1009 1.535439,0.091 2.30651,0.135 0.7905408,0.017 1.5738328,-0.1326 2.3518978,-0.2833 0.733171,0.01 1.462085,0.026 2.193728,-0.046 0.807336,-0.098 1.606826,-0.2693 2.405469,-0.439 0.824365,-0.1775 1.647918,-0.3604 2.471897,-0.5404 0.735507,-0.1493 1.407056,-0.5697 2.114684,-0.8457 0.744387,-0.3095 1.542309,-0.3764 2.27991,-0.7014 0.674972,-0.3707 1.380962,-0.633 2.098224,-0.8514 0.771863,-0.203 1.538476,-0.3499 2.271883,-0.7107 0.675795,-0.2541 1.297331,-0.6284 1.934266,-0.9924 0.640626,-0.4874 1.331731,-0.8453 1.984148,-1.3061 0.602986,-0.4073 1.163033,-0.905 1.749013,-1.3509 0.64277,-0.4491 1.252554,-0.9657 1.885104,-1.4387 0.684016,-0.4154 1.248649,-1.0496 1.898924,-1.5311 0.360121,-0.2758 2.454603,-2.2762 0.680617,-0.5552 0.521654,-0.6169 1.087613,-1.1839 1.669465,-1.7161 0.09751,-0.089 0.389709,-0.3554 0.300003,-0.255 -0.21223,0.2375 -0.887008,0.8979 -0.668975,0.6681 0.395868,-0.4171 0.801724,-0.8203 1.202585,-1.2305 -0.233614,0.2224 -0.454317,0.4663 -0.700839,0.6673 -0.09081,0.074 0.147767,-0.1964 0.230248,-0.2835 0.389936,-0.4121 0.800648,-0.7952 1.186121,-1.2133 0.225989,-0.2452 -0.466017,0.4711 -0.707318,0.6938 -0.16298,0.1506 0.298111,-0.341 0.437463,-0.5229 0.06957,-0.09 0.132686,-0.1861 0.208699,-0.2669 1.740509,-1.8516 1.36718,-1.3449 0.453127,-0.4957 -0.08066,0.075 0.153518,-0.1616 0.225848,-0.2481 0.141226,-0.1688 0.270835,-0.3513 0.407411,-0.5257 2.433552,-2.493 0.946541,-0.9533 0.451715,-0.4924 -0.08052,0.075 0.153552,-0.1613 0.225899,-0.2475 0.216711,-0.2586 0.35503,-0.5542 0.514123,-0.8645 0.314871,-0.6218 0.548814,-1.2843 0.772119,-1.9596 0.153032,-0.7574 0.307959,-1.5212 0.364095,-2.3004 0.137191,-0.7824 0.180848,-1.5775 0.302757,-2.3624 0.119693,-0.8367 0.04403,-1.6807 0.105134,-2.5232 -4.49e-4,-0.8248 0.148561,-1.6294 0.195061,-2.4494 0.01487,-0.8402 0.132516,-1.6636 0.126267,-2.5062 0.09435,-0.8448 0.133497,-1.6845 0.09213,-2.53547 -0.133622,-0.88628 -0.07007,-1.77762 -0.06647,-2.67099 -0.0053,-0.85086 0.05954,-1.7093 0.135415,-2.55624 0.0567,-0.92248 0.140488,-1.8361 0.23007,-2.75459 0.07832,-0.81478 0.148761,-1.63837 0.260394,-2.44817 0.08445,-0.77794 0.293241,-1.52028 0.370793,-2.29886 0.101069,-0.76687 0.280811,-1.51079 0.412388,-2.2691 0.164309,-0.72976 0.37027,-1.44631 0.515516,-2.18193 0.07407,-0.8311 0.313804,-1.61876 0.449953,-2.43455 0.163278,-0.80193 0.376002,-1.58856 0.528959,-2.39311 0.05176,-0.8194 0.172593,-1.63066 0.207515,-2.45224 0.157634,-0.80273 0.141804,-1.62505 0.207824,-2.43863 0.145694,-0.84118 0.05351,-1.69576 0.08181,-2.54335 0.07451,-0.83967 0.03683,-1.67859 0.117232,-2.51694 0.03047,-0.83426 0.07868,-1.6598 0.145087,-2.4914 -0.01795,-0.83951 0.09921,-1.6668 0.130092,-2.50338 -0.009,-0.95336 -0.12743,-1.88954 -0.124579,-2.84365 0.04784,-1.00209 -0.110115,-1.99493 -0.115844,-2.99295 0.06117,-0.8945 0.03338,-1.78644 -0.0421,-2.67759 -0.105797,-0.87738 -0.01725,-1.76401 -0.04182,-2.64762 -0.09803,-0.90169 -0.126432,-1.7906 -0.09926,-2.69796 0.02575,-0.9286 -0.07569,-1.85095 -0.187023,-2.76721 -0.136874,-0.88511 -0.05385,-1.78872 -0.08161,-2.68409 -0.113818,-0.87725 -0.03621,-1.75544 -0.02574,-2.6364 -0.07655,-0.86333 0.01687,-1.72155 0.0352,-2.5845 0.01062,-0.82727 0.05517,-1.66882 0.152454,-2.48915 0.112624,-0.73942 0.33726,-1.45157 0.550282,-2.15728 0.149244,-0.7178 0.378837,-1.40552 0.684702,-2.04577 0.375543,-0.56124 0.801526,-1.06735 1.16974,-1.63576 0.374475,-0.63284 0.807208,-1.20065 1.235879,-1.77858 0.425566,-0.60139 0.881278,-1.15962 1.359666,-1.69987 0.400248,-0.5458 0.795753,-1.08594 1.2186,-1.60565 0.452733,-0.47928 0.780008,-1.09668 1.214109,-1.59567 0.441592,-0.48903 0.821132,-1.04395 1.202349,-1.59955 0.05702,-0.0962 0.114035,-0.19229 0.171062,-0.28845 l 1.043582,-0.81233 0,0 c -0.05479,0.10045 -0.10956,0.20094 -0.164338,0.30139 -0.392775,0.54624 -0.749246,1.12666 -1.193908,1.61676 -0.458035,0.47284 -0.760523,1.11134 -1.218829,1.58586 -0.40967,0.53533 -0.844885,1.03337 -1.214743,1.61478 -0.488087,0.52845 -0.939604,1.08943 -1.368379,1.68685 -0.415273,0.58786 -0.874719,1.12791 -1.238694,1.7674 -0.348066,0.58517 -0.7782,1.08898 -1.176256,1.62355 -0.327365,0.61626 -0.556882,1.30976 -0.699012,2.02087 -0.205983,0.70382 -0.441292,1.40371 -0.564285,2.13516 -0.119801,0.80792 -0.138679,1.65583 -0.163599,2.47323 -0.01098,0.86368 -0.121959,1.72007 -0.03607,2.58325 -0.0041,0.87973 -0.100514,1.75549 0.02145,2.63072 0.03352,0.89199 -0.05315,1.79082 0.07237,2.67263 0.114662,0.92274 0.22154,1.85152 0.202654,2.78724 -0.02579,0.90527 -0.02215,1.79067 0.09317,2.68974 0.0309,0.88206 -0.05966,1.76509 0.03603,2.64033 0.08037,0.89459 0.121198,1.79194 0.05095,2.69052 -0.01753,0.99802 0.168542,1.99167 0.114071,2.9943 -0.0065,0.95583 0.104518,1.89085 0.129601,2.84519 -0.02202,0.84052 -0.154631,1.6668 -0.125727,2.50953 -0.06072,0.83368 -0.131342,1.65698 -0.142946,2.49451 -0.08522,0.83706 -0.05211,1.67017 -0.122331,2.50963 -0.0495,0.84768 0.07832,1.70711 -0.07716,2.54998 -0.08651,0.80711 -0.02443,1.63575 -0.213389,2.4307 -0.0252,0.83048 -0.160738,1.6433 -0.194421,2.47247 -0.138639,0.80836 -0.362574,1.59227 -0.532662,2.39169 -0.124546,0.82012 -0.377927,1.6041 -0.445328,2.43641 -0.130003,0.73923 -0.342949,1.45405 -0.517453,2.17894 -0.118449,0.75919 -0.310225,1.49614 -0.419263,2.25881 -0.06358,0.78674 -0.277276,1.52559 -0.365093,2.30744 -0.133372,0.80027 -0.173492,1.63361 -0.266659,2.44096 -0.0834,0.9199 -0.188196,1.83044 -0.230593,2.75541 -0.08586,0.83964 -0.135822,1.69847 -0.143071,2.54196 0.0021,0.8912 -0.08105,1.78024 0.06102,2.6636 0.04831,0.85205 0.03131,1.69687 -0.08803,2.54097 0.01505,0.8475 -0.09845,1.672 -0.120018,2.5148 -0.03615,0.8238 -0.198021,1.6255 -0.192605,2.4527 -0.06668,0.8474 0.0024,1.6903 -0.09764,2.5343 -0.122721,0.7824 -0.163743,1.5721 -0.311403,2.3499 -0.04399,0.7937 -0.209608,1.5592 -0.341636,2.3351 -0.214684,0.6858 -0.453522,1.3495 -0.758769,1.983 -0.161871,0.3077 -0.281841,0.6381 -0.495732,0.9007 -0.535337,0.6571 -2.379582,2.4626 -0.682431,0.7301 -0.139698,0.1722 -0.262791,0.3634 -0.402687,0.5355 -0.544174,0.6693 -2.413583,2.3963 -0.683921,0.7338 0.07893,-0.076 -0.140972,0.1743 -0.211461,0.2616 -0.460027,0.6582 -1.071516,1.1986 -1.592062,1.7597 -0.223161,0.2405 0.44452,-0.4842 0.678517,-0.7092 0.08562,-0.083 -0.1549,0.1868 -0.232351,0.2803 -0.38662,0.4194 -0.77324,0.839 -1.159858,1.2585 1.815625,-1.8678 -0.477367,0.4914 -0.54026,0.5543 -0.310702,0.3105 -1.365276,1.2986 0.123472,-0.2 0.07874,-0.08 -0.148372,0.1709 -0.222555,0.2564 -0.825606,0.8769 -1.639568,1.7307 -2.555996,2.4624 -0.640553,0.4974 -1.217155,1.1118 -1.899133,1.5312 -0.62873,0.4795 -1.243422,0.9867 -1.884781,1.44 -0.58219,0.4535 -1.147096,0.9438 -1.753334,1.3479 -0.654015,0.4579 -1.347854,0.8183 -1.992123,1.2986 -0.634511,0.3716 -1.270913,0.7119 -1.940084,0.9849 -0.738443,0.3442 -1.514515,0.4745 -2.282079,0.6962 -0.714804,0.2257 -1.412957,0.5066 -2.092031,0.8604 -0.747683,0.2877 -1.536571,0.3902 -2.280808,0.7001 -0.706245,0.2859 -1.382991,0.6992 -2.125414,0.8295 -0.82416,0.1802 -1.647804,0.3638 -2.472479,0.5405 -0.801618,0.1691 -1.604341,0.3396 -2.415182,0.4306 -0.729156,0.065 -1.455786,0.035 -2.185629,0.054 -0.784575,0.1488 -1.5749968,0.2932 -2.3717788,0.2631 -0.766849,-0.054 -1.526427,-0.2297 -2.297026,-0.1249 -0.238612,0.018 -0.490102,0.02 -0.723476,0.097 -0.1013342,0.034 -0.3565532,0.2417 -0.2928572,0.1408 0.195605,-0.3103 0.4799442,-0.522 0.7075792,-0.7984 0.05054,-0.062 -0.125836,0.089 -0.174671,0.1514 -0.03903,0.051 -0.05494,0.1214 -0.08241,0.182 0.114675,0.7667 0.857,1.2126 1.231555,1.7953 0.467697,0.5487 0.941025,1.1037 1.500174,1.5161 0.473096,0.4317 0.97266,0.8195 1.4496278,1.2449 0.460907,0.4506 0.938674,0.8758 1.401492,1.3232 0.464078,0.444 1.028305,0.7098 1.465847,1.205 0.480102,0.4296 1.063333,0.6583 1.529844,1.1217 0.526609,0.4444 1.09443,0.8255 1.685974,1.1272 0.593332,0.3246 1.211562,0.58264 1.800931,0.92004 0.522072,0.3556 1.035055,0.7263 1.590544,1.0044 0.599978,0.3066 1.115078,0.8026 1.715596,1.1123 0.568237,0.3615 1.148114,0.6936 1.698459,1.0947 0.524366,0.3478 1.098822,0.5646 1.609935,0.9442 0.607517,0.2893 1.214123,0.477 1.875296,0.4531 0.717265,0.011 1.439602,-0.154 2.152241,0.035 0.644758,0.149 1.297484,0.205 1.940727,0.3683 0.692285,0.063 1.368775,0.2573 2.063314,0.2967 0.775375,0.1293 1.555118,0.1315 2.336107,0.1865 0.740691,-0.033 1.490684,0.069 2.2203,-0.1198 0.824533,-0.1803 1.649067,-0.3606 2.473999,-0.5382 0.821503,-0.1794 1.64374,-0.3545 2.463154,-0.5477 0.768854,-0.1878 1.540149,-0.3815 2.27935,-0.7055 0.690398,-0.3192 1.359685,-0.7004 2.094418,-0.8548 0.697399,-0.25 1.838243,-0.015 2.518124,-0.3236 0.731192,-0.2077 1.616112,-0.2536 2.304457,-0.6242 48.252163,-5.55724 46.483703,-31.50464 47.668513,-49.96427 0.0862,-0.8366 0.055,-1.66937 0.12312,-2.50872 0.0456,-0.86697 -0.086,-1.74008 0.004,-2.60941 0.008,-0.91042 -0.18588,-1.81113 -0.13306,-2.72652 0.0333,-0.88833 0.0461,-1.75972 -0.0397,-2.64607 -0.001,-0.8916 0.0823,-1.781 -0.0621,-2.66451 -0.0526,-0.86295 -0.0384,-1.72006 0.0392,-2.58083 -0.0555,-0.87037 -0.0434,-1.73586 0.008,-2.60639 -0.0802,-0.88621 -0.12317,-1.7752 -0.0598,-2.66592 0.008,-0.9127 -0.18513,-1.81521 -0.14108,-2.73282 0.0209,-0.91937 0.005,-1.81634 -0.13541,-2.72526 -0.0577,-0.87593 -0.0474,-1.7478 -0.0145,-2.62503 -0.0979,-0.89749 -0.17978,-1.8027 -0.10784,-2.70845 0.0632,-0.86773 -0.0121,-1.72302 0.0245,-2.59274 0.048,-0.88506 -0.0551,-1.75218 -0.0282,-2.63814 0.0606,-0.83278 0.13083,-1.65545 0.14513,-2.49189 0.0885,-0.82752 0.0618,-1.65368 0.15433,-2.48146 0.0751,-0.86261 -0.006,-1.74174 0.0648,-2.6081 -0.0936,-1.00805 -0.14434,-2.01994 -0.0996,-3.03467 0.002,-0.91278 -0.1406,-1.82083 -0.0814,-2.73671 0.02,-0.97266 -0.14332,-1.9077 -0.30035,-2.85958 -0.14961,-0.94816 -0.29878,-1.89915 -0.53232,-2.82349 -0.228,-0.83078 -0.56683,-1.60719 -0.75643,-2.45117 -0.20451,-0.79611 -0.47322,-1.5489 -0.86853,-2.23716 -0.26928,-0.70591 -0.635817,-1.34596 -0.997437,-1.98497 -0.4132,-0.52276 -0.8453,-1.00101 -1.35824,-1.37848 -0.53533,-0.39935 -1.050187,-0.83705 -1.610487,-1.18695 -0.59409,-0.33872 -1.18904,-0.67867 -1.75208,-1.0896 -0.5643,-0.30277 -1.13486,-0.55508 -1.73644,-0.72981 -0.59234,-0.23779 -1.20199,-0.41011 -1.7991,-0.62937 -0.60535,-0.22775 -1.22945,-0.37961 -1.85046,-0.52954 -0.63221,-0.15856 -1.27114,-0.27936 -1.90108,-0.4503 -0.6458,-0.14698 -1.29966,-0.1988 -1.94303,-0.36662 -0.65378,-0.0683 -1.29279,-0.26018 -1.92947,-0.44168 -0.56575,-0.26575 -1.12026,-0.54872 -1.65953,-0.88476 -0.53855,-0.33754 -1.05808,-0.68906 -1.47102,-1.24407 -0.50411,-0.57662 -0.87534,-1.28269 -1.25289,-1.98212 -0.392597,-1.02815 -0.662085,-2.10441 -0.956065,-3.17868 l 0.989775,-0.90998 z"
         id="path3012"
         style="fill:#333333;fill-opacity:1;stroke:none"
         sodipodi:nodetypes="ccccccccccccccccccccccccccccccccccccccccccccccccccccccccccccccccccccccccccccccccccsccsscccccccccccccccccccccccccccccccccccccccccccccccccccccccccccccccccccccccccccccccccccccccccccccsccccsccccsccccccccccccccccccccccccccccccccccccccccccccccccccccccccccccccccccccccccccccccccccccc" />
      <path
         sodipodi:nodetypes="ccccccccccccccccccccccccccccccccccccccccccsccccccccccccccccccccccccscccccccccccccccccccccccccccccccccccccccccccsccccccscccscccscccccccccccccccccccccccccccccccccccccccccccccccccccccc"
         inkscape:connector-curvature="0"
         d="m 98.586949,852.82924 c -0.89329,0.0664 -3.400497,-0.0501 -4.292137,-0.0816 -0.76994,0.0877 -1.533187,-0.0485 -2.302457,-0.0636 -0.71394,0.0981 -1.4222,-0.0347 -2.13633,-0.0477 -0.71231,0.0984 -1.41903,-0.0344 -2.13157,-0.0477 -0.79052,0.0905 -1.57606,0.0877 -2.36928,0.0801 -0.71215,-0.0634 -1.39002,-0.3167 -2.08595,-0.47978 -0.68121,-0.0349 -1.34836,-0.20175 -2.03008,-0.23422 -0.30112,-0.0275 -0.60806,-0.21096 -0.91485,-0.13277 -0.069,0.0179 -0.24438,0.16564 -0.19131,0.10944 0.93561,-0.9909 0.94225,-1.10498 0.71622,-0.5201 -0.23352,0.86403 -0.21967,1.78554 -0.28556,2.68314 0.006,0.95004 -0.13614,1.88442 -0.17957,2.83025 0.0542,0.86846 -0.0395,1.73026 -0.0582,2.59743 -1.6e-4,0.94586 0.12273,1.8824 0.24661,2.81366 0.0188,0.88582 -0.008,1.76796 0.0461,2.65308 0.0507,0.96427 0.2618,1.90515 0.30275,2.86854 -0.0338,0.89358 -0.005,1.78315 0.0711,2.67209 0.14592,0.91997 0.19392,1.8301 0.17549,2.76356 -0.0197,0.93004 0.0804,1.85353 0.19164,2.77136 0.13643,0.88492 0.0531,1.78818 0.0807,2.68332 0.0993,0.90189 0.12703,1.79113 0.0994,2.69875 0.0351,0.86933 0.0229,1.72575 -0.0249,2.59357 0.0147,0.9404 -0.0654,1.87599 -0.0722,2.8161 0.0831,0.92234 -0.004,1.84084 -0.0195,2.76347 0.0128,0.85023 -0.10589,1.68655 -0.0984,2.53837 0.0412,0.85937 -0.0616,1.71186 -0.0458,2.573 0.0264,0.8423 -9e-4,1.70449 -0.0902,2.54178 -0.0793,0.79614 -0.1854,1.58427 -0.28107,2.37776 -0.10762,0.91111 -0.12787,1.8344 -0.21977,2.74639 -0.0742,0.83806 -0.17736,1.66728 -0.27397,2.50177 -0.0487,0.78791 -0.177,1.56723 -0.34577,2.32955 -0.14042,0.73773 -0.31619,1.46661 -0.50696,2.18801 -0.25808,0.79607 -0.37836,1.6395 -0.64908,2.43006 -0.24668,0.74372 -0.60365,1.42032 -0.95867,2.09302 -0.36624,0.6382 -0.7561,1.2566 -1.11402,1.9018 -0.38583,0.6693 -0.88837,1.2187 -1.31927,1.8431 -0.49702,0.6376 -0.892541,1.3709 -1.385388,2.0127 -0.46763,0.6079 -0.88903,1.2605 -1.317543,1.9079 -0.458035,0.6175 -0.923182,1.2264 -1.376295,1.85 -0.345968,0.6213 -0.829902,1.0939 -1.239008,1.6489 -0.563585,0.7984 -1.238885,1.419 -1.921081,2.0731 -0.227695,0.2184 0.892556,-0.9003 0.668568,-0.6765 -0.403434,0.4032 -0.804601,0.8097 -1.206899,1.2145 1.691262,-1.7729 -0.25167,0.4356 -0.549915,0.7916 -0.532104,0.5919 -1.032328,1.2169 -1.51725,1.8648 -0.7385,0.8837 -1.486514,1.7163 -2.281589,2.5323 2.66355,-2.5755 -3.211251,3.3558 -0.366842,0.5586 -0.554994,0.7229 -1.196804,1.3097 -1.804738,1.9716 -0.229351,0.2498 0.4739,-0.4785 0.718378,-0.7063 0.08056,-0.076 -0.150752,0.1651 -0.226128,0.2478 -3.539303,3.5334 -0.328648,0.3023 -0.485855,0.4639 -3.84462,3.9537 2.194597,-2.3704 -1.71293,1.734 -0.21955,0.2306 0.453073,-0.441 0.679612,-0.6615 -0.825926,0.9661 -1.727313,1.8339 -2.636204,2.6823 0.231514,-0.2245 0.454213,-0.4631 0.694535,-0.6736 0.08822,-0.078 -0.153815,0.187 -0.236737,0.2724 -0.393701,0.4058 -0.799207,0.7946 -1.192669,1.2006 -0.2315,0.239 0.467569,-0.4713 0.70671,-0.6991 0.159979,-0.1521 -0.300078,0.3334 -0.440052,0.5123 -0.49637,0.6399 -1.069199,1.194 -1.644523,1.7272 -0.09663,0.09 -0.387591,0.3552 -0.297898,0.2556 0.213241,-0.2366 0.887708,-0.8986 0.669755,-0.6683 -0.395388,0.4177 -0.801453,0.8206 -1.202177,1.2309 1.637403,-1.6318 -0.215388,0.2102 -0.578594,0.6015 -0.211974,0.2284 0.433676,-0.4446 0.665638,-0.6425 0.09878,-0.085 -0.172293,0.2055 -0.264457,0.3001 -0.401825,0.4125 -0.813679,0.8107 -1.217087,1.2209 -0.226138,0.23 0.456832,-0.4533 0.685246,-0.68 -0.770224,1.034 -1.789198,1.6466 -2.701882,2.4374 -0.591292,0.4349 -1.181425,0.8785 -1.79218,1.2749 -0.665676,0.2916 -1.304308,0.6338 -1.950851,0.9824 -0.686671,0.3223 -1.395697,0.5105 -2.067931,0.8765 -0.683949,0.3834 -1.415499,0.6058 -2.147312,0.8077 -0.666967,0.3492 -1.339917,0.6641 -2.039412,0.9043 -0.69974,0.2234 -1.341485,0.6377 -2.030383,0.9113 -0.77363,0.2974 -1.509704,0.7122 -2.285454,1.0101 -0.774574,0.1916 -1.498572,0.5069 -2.226941,0.8678 -0.718833,0.3459 -1.475511,0.5487 -2.230283,0.741 -0.791268,0.233 -1.620002,0.2857 -2.390518,0.6091 -0.678848,0.3628 -1.384897,0.628 -2.103166,0.8476 -0.771346,0.2036 -1.537509,0.351 -2.270472,0.7119 -0.694373,0.3648 -1.427598,0.5919 -2.163266,0.79534 -0.800773,0.175 -1.653648,0.2191 -2.465563,0.121 -0.725336,-0.1896 -1.465175,-0.053 -2.194596,-0.1182 -0.737532,-0.048 -1.469768,-0.15054 -2.206554,-0.21214 -0.776969,0.037 -1.542564,0.01 -2.318179,-0.045 -0.120368,0 -0.240734,0 -0.361101,-0.01 l 0.873354,-1.0607 0,0 c 0.121648,0 0.243292,0.01 0.36494,0.01 0.774965,0.058 1.541706,0.064 2.317813,0.05 0.736476,0.068 1.470259,0.1564 2.207566,0.2091 0.731336,0.045 1.469506,-0.056 2.195739,0.1224 0.806592,0.077 1.644621,0.043 2.436937,-0.1536 0.732478,-0.2087 1.459358,-0.4484 2.151243,-0.8125 0.737972,-0.3443 1.513607,-0.4752 2.28063,-0.6975 0.716022,-0.2267 1.414614,-0.5106 2.09832,-0.8546 0.782459,-0.2845 1.603746,-0.3707 2.39863,-0.597 0.751099,-0.1961 1.502985,-0.4067 2.21571,-0.7618 0.72784,-0.3621 1.465066,-0.6386 2.231915,-0.8571 0.772959,-0.3065 1.509461,-0.7233 2.28603,-1.0135 0.68485,-0.2843 1.329151,-0.6972 2.033744,-0.9066 0.697751,-0.2497 1.363445,-0.5894 2.043702,-0.8978 0.72804,-0.207 1.452723,-0.442 2.132014,-0.8291 0.674055,-0.3537 1.391528,-0.5279 2.067315,-0.8773 0.642374,-0.3543 1.294289,-0.66 1.943887,-0.9907 0.602567,-0.4096 1.202483,-0.8291 1.781627,-1.2841 0.313235,-0.2541 0.641082,-0.4738 0.949502,-0.7365 0.09857,-0.085 0.376144,-0.3629 0.291814,-0.2587 -0.227734,0.2815 -1.087016,1.1487 -0.413193,0.4644 3.959813,-4.1203 -0.576738,0.6411 0.80012,-0.8375 0.3973,-0.4267 0.80166,-0.8438 1.196129,-1.2743 0.02994,-0.033 -2.885838,3.0105 0.578458,-0.6045 -0.221215,0.2275 -0.884731,0.9102 -0.663652,0.6826 0.400646,-0.4128 0.797373,-0.8312 1.20236,-1.2377 0.311714,-0.3128 1.380333,-1.2719 -0.136247,0.198 -0.07828,0.076 0.141095,-0.1725 0.211641,-0.2588 0.457518,-0.6437 1.088197,-1.2143 1.598527,-1.74 0.228046,-0.235 -0.44739,0.4822 -0.676712,0.7153 -0.08335,0.085 0.159045,-0.1799 0.238569,-0.2699 0.390641,-0.4145 0.781277,-0.8291 1.171918,-1.2435 0.319062,-0.3036 1.210655,-1.3416 -0.05031,0.132 -0.181753,0.2123 0.758745,-0.7848 0.561654,-0.616 0.08617,-0.094 0.172337,-0.1887 0.2585,-0.2831 3.884779,-4.1094 -2.188515,2.2239 1.724285,-1.8 0.23297,-0.2396 -0.931805,0.9584 -0.696414,0.7222 0.392883,-0.3941 0.767685,-0.8147 1.168938,-1.1962 0.239258,-0.2275 -0.454959,0.4891 -0.682439,0.7336 0.07637,-0.081 0.152853,-0.1608 0.229114,-0.2414 2.963353,-3.1337 0.580858,-0.6114 0.454124,-0.4889 -0.62598,0.605 1.187437,-1.4581 0.632207,-0.7763 2.943162,-3.1142 0.59207,-0.622 0.453668,-0.4883 -0.07775,0.076 0.142241,-0.1686 0.209269,-0.2575 0.480707,-0.6384 1.005828,-1.1808 1.571051,-1.7357 -1.664741,1.7398 0.09798,-0.2375 0.41925,-0.6037 0.493377,-0.6395 0.97094,-1.292 1.514363,-1.8725 0.791919,-0.9199 1.550071,-1.8813 2.415811,-2.7086 -1.638919,1.7143 0.152109,-0.1651 0.541315,-0.5334 0.225676,-0.2134 -0.427192,0.462 -0.640408,0.6934 -0.169933,0.1845 0.672523,-0.7079 0.489054,-0.5801 0.06915,-0.088 0.13831,-0.1738 0.207463,-0.2605 0.390758,-0.5784 0.905576,-1.0162 1.238566,-1.653 0.462062,-0.6125 0.904303,-1.2453 1.378687,-1.844 0.441932,-0.6369 0.842893,-1.3132 1.315719,-1.9199 0.507861,-0.6261 0.886372,-1.3689 1.388476,-2.0004 0.413818,-0.6405 0.926408,-1.1725 1.325028,-1.8291 0.34183,-0.6582 0.74817,-1.2652 1.11681,-1.9013 0.34519,-0.6753 0.72466,-1.3314 0.96803,-2.074 0.29737,-0.77644 0.39351,-1.62367 0.65569,-2.41604 0.18638,-0.72219 0.37695,-1.44408 0.51029,-2.1826 0.16744,-0.75829 0.31603,-1.52898 0.35581,-2.31464 0.0883,-0.83663 0.21104,-1.66254 0.27534,-2.50319 0.11181,-0.90687 0.10625,-1.83654 0.21785,-2.7454 0.0868,-0.79564 0.21141,-1.58004 0.28046,-2.37869 0.11266,-0.82352 0.11665,-1.69073 0.1043,-2.52201 -0.0234,-0.86307 0.0781,-1.71456 0.0449,-2.57421 -0.016,-0.85509 0.0994,-1.691 0.096,-2.54232 0.009,-0.92353 0.1147,-1.8411 0.0223,-2.76386 0.001,-0.94243 0.0883,-1.87853 0.0653,-2.82088 0.0442,-0.86756 0.0803,-1.72098 0.0271,-2.59034 0.0263,-0.90541 0.0233,-1.79098 -0.093,-2.69015 -0.0334,-0.89179 0.0536,-1.79026 -0.0715,-2.6719 -0.11448,-0.92386 -0.22009,-1.85335 -0.20628,-2.79004 0.0182,-0.92918 -0.004,-1.83404 -0.16444,-2.74916 -0.0809,-0.89078 -0.12188,-1.78362 -0.0771,-2.67972 -0.0172,-0.96315 -0.25102,-1.90133 -0.2993,-2.86412 -0.059,-0.88185 -0.048,-1.76049 -0.0387,-2.64413 -0.12661,-0.93802 -0.25291,-1.88076 -0.26222,-2.83347 0.0112,-0.8697 0.12225,-1.73108 0.0567,-2.60138 0.0346,-0.94989 0.19306,-1.88329 0.17914,-2.8369 0.0652,-0.90514 0.0546,-1.82927 0.25941,-2.70863 0.33605,-1.47456 1.34447,-1.62 2.29488,-1.36081 0.68487,0.0437 1.35985,0.19629 2.04383,0.24971 0.68703,0.17192 1.36135,0.40956 2.06652,0.46328 0.79399,0.01 1.58061,-0.0134 2.37247,-0.0815 0.71179,0.0214 1.41935,0.13416 2.13159,0.0476 0.71331,0.0214 1.42239,0.13381 2.13618,0.0481 0.768107,0.0242 1.531687,0.14159 2.300997,0.068 0.892557,0.0404 2.195297,0.10041 3.089947,0.0255 z"
         id="path3016"
         style="fill:#4d4d4d;fill-opacity:1;stroke:none" />
    </g>
  </g>
</svg>
