<?xml version="1.0" encoding="UTF-8" standalone="no"?>
<!-- Created with Inkscape (http://www.inkscape.org/) -->

<svg
   xmlns:dc="http://purl.org/dc/elements/1.1/"
   xmlns:cc="http://creativecommons.org/ns#"
   xmlns:rdf="http://www.w3.org/1999/02/22-rdf-syntax-ns#"
   xmlns:svg="http://www.w3.org/2000/svg"
   xmlns="http://www.w3.org/2000/svg"
   xmlns:sodipodi="http://sodipodi.sourceforge.net/DTD/sodipodi-0.dtd"
   xmlns:inkscape="http://www.inkscape.org/namespaces/inkscape"
   width="32"
   height="32"
   id="svg2"
   version="1.1"
   inkscape:version="0.48.5 r10040"
   sodipodi:docname="dialogBubble.svg"
   inkscape:export-filename="C:\Users\narfman0\Desktop\dialogBubble.png"
   inkscape:export-xdpi="90"
   inkscape:export-ydpi="90">
  <defs
     id="defs4" />
  <sodipodi:namedview
     id="base"
     pagecolor="#ffffff"
     bordercolor="#666666"
     borderopacity="1.0"
     inkscape:pageopacity="0.0"
     inkscape:pageshadow="2"
     inkscape:zoom="22.81713"
     inkscape:cx="17.809225"
     inkscape:cy="15.165748"
     inkscape:document-units="px"
     inkscape:current-layer="layer1"
     showgrid="false"
     inkscape:window-width="1146"
     inkscape:window-height="937"
     inkscape:window-x="44"
     inkscape:window-y="44"
     inkscape:window-maximized="0" />
  <metadata
     id="metadata7">
    <rdf:RDF>
      <cc:Work
         rdf:about="">
        <dc:format>image/svg+xml</dc:format>
        <dc:type
           rdf:resource="http://purl.org/dc/dcmitype/StillImage" />
        <dc:title />
      </cc:Work>
    </rdf:RDF>
  </metadata>
  <g
     inkscape:label="Layer 1"
     inkscape:groupmode="layer"
     id="layer1"
     transform="translate(0,-1020.3622)">
    <path
       style="fill:#000000;fill-opacity:1;stroke:none"
       id="path3011"
       d="m 7.9119721,1045.5146 c -0.02564,-0.1137 -0.082919,-0.2093 -0.140085,-0.3045 -0.057997,-0.099 -0.1370555,-0.1758 -0.2077226,-0.2621 -0.081719,-0.07 -0.1509917,-0.1527 -0.2266339,-0.2296 -0.07645,-0.062 -0.140354,-0.1403 -0.222499,-0.1948 -0.081542,-0.088 -0.1797179,-0.149 -0.2694075,-0.2241 -0.059104,-0.05 -0.1296304,-0.08 -0.1893264,-0.129 -0.055002,-0.053 -0.027416,-0.029 -0.082409,-0.073 -0.099524,-0.048 -0.1762288,-0.136 -0.263855,-0.206 -0.087496,-0.063 -0.1690602,-0.1347 -0.250576,-0.2082 -0.087859,-0.079 -0.1808649,-0.1522 -0.2714024,-0.2281 -0.062904,-0.052 -0.1331458,-0.094 -0.1927009,-0.151 -0.081555,-0.077 0.00491,-0.012 -0.079879,-0.072 -0.069037,-0.074 -0.1469902,-0.1332 -0.2288896,-0.1861 -0.063724,-0.064 -0.1387436,-0.1144 -0.2023985,-0.1795 -0.076122,-0.05 -0.1283023,-0.1313 -0.1947195,-0.194 -0.052846,-0.082 -0.1249008,-0.1414 -0.1902142,-0.2091 -0.08326,-0.075 -0.1634039,-0.1582 -0.2372689,-0.2452 -0.069658,-0.086 -0.1563806,-0.1482 -0.2327254,-0.2242 -0.074794,-0.09 -0.1583434,-0.1695 -0.2341999,-0.2577 -0.082282,-0.082 -0.151718,-0.1766 -0.2445414,-0.2441 -0.089137,-0.098 -0.1869243,-0.1847 -0.2735147,-0.2855 -0.077257,-0.063 -0.1356149,-0.1501 -0.2060173,-0.2222 -0.095342,-0.064 -0.173396,-0.154 -0.2560086,-0.2371 -0.078432,-0.1024 -0.1754469,-0.1822 -0.2616832,-0.2749 -0.079887,-0.076 -0.155769,-0.1582 -0.225652,-0.2462 -0.06953,-0.087 -0.1455773,-0.1679 -0.2244954,-0.2436 -0.082361,-0.083 -0.1553608,-0.1782 -0.236425,-0.2631 -0.064385,-0.078 -0.1344646,-0.1563 -0.211501,-0.2192 -0.067903,-0.076 -0.1391537,-0.1467 -0.2129753,-0.2152 -0.05852,-0.073 -0.1225837,-0.1401 -0.1793971,-0.2149 -0.040413,-0.077 -0.098718,-0.1379 -0.1340397,-0.2189 -0.048028,-0.078 -0.095445,-0.1564 -0.141026,-0.2371 -0.059622,-0.085 -0.089384,-0.1913 -0.1501405,-0.2752 -0.035832,-0.08 -0.07256,-0.1573 -0.11194994,-0.2354 -0.0412215,-0.082 -0.0718142,-0.1701 -0.11495487,-0.2507 -0.0436084,-0.1035 -0.0864144,-0.2085 -0.12658379,-0.3143 -0.0333145,-0.1125 -0.0801831,-0.2175 -0.11376101,-0.3292 -0.0307956,-0.1103 -0.0598805,-0.2203 -0.0756188,-0.3353 -0.005152,-0.1102 -0.0283193,-0.2168 -0.0430117,-0.3253 -0.0137153,-0.1103 -0.0163535,-0.2216 -0.0180661,-0.3325 -0.001096,-0.1091 -7.7216e-4,-0.2175 -6.4253e-4,-0.3262 -6.1032e-4,-0.108 -0.003687,-0.2141 0.013267,-0.3201 0.0117387,-0.091 0.0359333,-0.1782 0.0650832,-0.2636 0.0337074,-0.087 0.0666367,-0.1723 0.10097471,-0.2578 0.0281845,-0.094 0.0696369,-0.1805 0.11671928,-0.2637 0.0422422,-0.079 0.0797872,-0.1629 0.11952434,-0.2443 0.0464534,-0.081 0.083159,-0.1681 0.12222799,-0.2537 0.051736,-0.087 0.10172302,-0.1749 0.15425212,-0.2609 0.058107,-0.091 0.1125082,-0.1836 0.1653882,-0.2781 0.061396,-0.087 0.1113406,-0.1818 0.1728059,-0.2676 0.051629,-0.058 0.097051,-0.122 0.1341783,-0.1927 0.044231,-0.065 0.054722,-0.1301 0.036497,-0.2093 -0.040669,-0.087 -0.090713,-0.1638 -0.1404729,-0.2428 -0.066831,-0.1233 -0.138249,-0.2413 -0.2151473,-0.3564 -0.08245,-0.1141 -0.1621054,-0.231 -0.2365156,-0.3521 -0.083733,-0.1172 -0.15443721,-0.2481 -0.24483774,-0.3586 -0.0552366,-0.1159 -0.1409967,-0.2053 -0.20261147,-0.3153 -0.0532232,-0.083 -0.0879882,-0.1801 -0.13848536,-0.2647 -0.0564989,-0.08 -0.10374125,-0.1708 -0.14534251,-0.2628 -0.057673,-0.082 -0.0861088,-0.1834 -0.11634425,-0.2816 -0.0237987,-0.1079 -0.0532077,-0.2142 -0.0717677,-0.3238 -0.0112808,-0.096 -0.0414243,-0.1875 -0.0688189,-0.2787 -0.02740627,-0.1035 -0.03660185,-0.2112 -0.05751872,-0.3165 -0.02230829,-0.1103 -0.02988443,-0.222 -0.03438277,-0.3342 -0.003299,-0.109 -0.0029691,-0.2185 -0.0029206,-0.3279 1.404e-4,-0.108 2.7654e-4,-0.2168 3.4892e-4,-0.3252 -0.0053464,-0.1034 0.0074228,-0.2056 0.0337511,-0.3049 0.02871812,-0.085 0.05394218,-0.1713 0.07661918,-0.2583 0.02807,-0.1148 0.065615,-0.2256 0.10443803,-0.336 0.0344371,-0.1137 0.0780164,-0.2227 0.12154461,-0.332 0.0437578,-0.1228 0.0992374,-0.2393 0.1609682,-0.3512 0.0596903,-0.1003 0.11790131,-0.2019 0.18443145,-0.2963 0.0573606,-0.072 0.10348325,-0.1532 0.15764947,-0.2276 0.0550949,-0.07 0.11129382,-0.1366 0.16025006,-0.2126 0.064923,-0.088 0.12348312,-0.1802 0.19491432,-0.2611 0.088132,-0.093 0.1790089,-0.182 0.2627639,-0.2801 0.076365,-0.099 0.1589427,-0.1908 0.2430246,-0.2812 0.084954,-0.091 0.1736579,-0.1775 0.2622571,-0.2638 0.08135,-0.078 0.1603407,-0.16 0.2456303,-0.2326 0.08567,-0.07 0.1691075,-0.1427 0.2559619,-0.2102 0.079599,-0.069 0.1657905,-0.1249 0.2514586,-0.1824 0.087075,-0.07 0.1853644,-0.1156 0.2774667,-0.1749 0.094323,-0.063 0.1927776,-0.1173 0.2910411,-0.1721 0.1040578,-0.056 0.2082156,-0.1113 0.3112096,-0.1705 0.099528,-0.053 0.194314,-0.1141 0.2919273,-0.1704 0.084168,-0.037 0.1641048,-0.086 0.2454945,-0.1305 0.098591,-0.045 0.2006106,-0.081 0.2963452,-0.1347 0.094821,-0.054 0.1930865,-0.098 0.2920552,-0.139 0.08034,-0.039 0.1644495,-0.068 0.2454475,-0.1035 0.07275,-0.032 0.146892,-0.054 0.217228,-0.092 0.082846,-0.042 0.1702568,-0.074 0.2575558,-0.1013 0.082731,-0.036 0.1641891,-0.075 0.2484338,-0.1057 0.085463,-0.018 0.1670464,-0.054 0.2524018,-0.072 0.082024,-0.02 0.158613,-0.058 0.2372533,-0.09 0.098831,-0.03 0.1988496,-0.055 0.29946,-0.075 0.1004241,-0.024 0.1976286,-0.06 0.2964131,-0.091 0.08529,-0.015 0.1664162,-0.049 0.2504919,-0.07 0.1006081,-0.019 0.1972165,-0.061 0.2962468,-0.09 0.1029033,-0.021 0.2036185,-0.054 0.3064526,-0.074 0.098813,-0.012 0.1909405,-0.055 0.2851646,-0.088 0.085849,-0.019 0.1704611,-0.041 0.2553337,-0.066 0.089511,-0.016 0.178019,-0.035 0.2668951,-0.056 0.091539,-0.024 0.1805942,-0.054 0.2740025,-0.07 0.111002,-0.012 0.2203826,-0.033 0.3305306,-0.051 0.114236,-0.032 0.2299304,-0.053 0.3470986,-0.063 0.1063105,-0.012 0.2128927,-0.012 0.3194045,-0.012 0.1063396,-0.019 0.2127355,-0.035 0.3201791,-0.044 0.1141257,-7e-4 0.2264517,-0.017 0.3391487,-0.035 0.100157,-0.018 0.197633,-0.048 0.298022,-0.065 0.09455,-0.014 0.189991,-0.016 0.285174,-0.017 0.620263,-0.014 1.972592,0.012 0.135086,3e-4 -0.01311,-10e-5 0.02608,0 0.03902,-0.012 0.02889,-0.012 0.05744,-0.013 0.08616,-0.019 0.10039,-0.019 0.202239,-0.024 0.303817,-0.027 0.406046,-0.012 0.812181,0 1.21826,0 0.356697,5e-4 0.965949,6e-4 -0.637369,-2e-4 0.111076,-0.019 0.221931,-0.036 0.334068,-0.044 0.120492,-0.012 0.241169,-0.012 0.3618,-0.012 0.409195,-7e-4 0.818396,-7e-4 1.227593,10e-5 0.108555,10e-5 0.217111,0 0.325665,10e-5 0.07631,0 0.03824,0 0.114231,0 0.01851,0 0.07403,0 0.05551,0 -1.529043,-10e-5 -1.08863,-4e-4 -0.765406,0 0.113326,0 0.226652,0 0.339977,0 0.118398,0 0.236795,0 0.355192,1e-4 0.431936,6e-4 0.863873,-3e-4 1.295809,0 0.139008,0.026 0.279417,0.04 0.420003,0.048 0.125368,0.012 0.248178,0.04 0.373676,0.051 0.11835,0.012 0.237054,0.012 0.355618,0.012 0.09927,0.026 0.199783,0.041 0.301233,0.049 0.09494,0.012 0.191537,-0.012 0.284602,0.018 0.09307,0.026 0.188509,0.034 0.283834,0.039 0.09463,0 0.189327,0 0.283993,0 0.390321,0 -0.702351,10e-5 -0.820861,0 -0.01849,-4e-4 0.0368,-0.012 0.05515,-0.012 0.05325,-0.012 0.106269,-0.018 0.159486,-0.025 0.107805,-0.012 0.209492,-0.04 0.312501,-0.073 0.117053,-0.026 0.234159,-0.051 0.350779,-0.079 0.106568,-0.037 0.215876,-0.06 0.32633,-0.075 0.09765,-0.026 0.196339,-0.045 0.296255,-0.056 0.108329,0 0.214665,-0.027 0.321825,-0.042 0.112571,-0.017 0.223497,-0.044 0.336298,-0.06 0.09755,-0.013 0.195722,-0.015 0.29374,-0.015 0.428569,0 0.857137,0 1.285705,2e-4 0.102268,0 0.204536,0 0.306803,0 0.659089,0 -1.191558,0 -0.644326,0 0.09472,0 0.189434,0 0.284152,0 0.6366,-0.05 0.79835,-0.057 1.241242,0.099 0.129968,0.029 0.254878,0.075 0.380079,0.1231 0.100542,0.023 0.196961,0.06 0.297367,0.083 0.09907,0.019 0.194066,0.055 0.294868,0.066 0.09554,0.03 0.184659,0.076 0.281992,0.099 0.09941,0.013 0.188812,0.067 0.284368,0.098 0.08868,0.012 0.168206,0.055 0.256077,0.072 0.01373,0 0.02782,0 0.04119,0.012 0.02583,0.012 0.04917,0.024 0.0748,0.033 0.04011,0.013 0.07699,0.018 0.116269,0.035 0.100046,0.039 0.196264,0.089 0.29816,0.1218 0.100073,0.018 0.184582,0.086 0.281633,0.1137 0.104113,0.039 0.202105,0.094 0.303013,0.1417 0.09916,0.034 0.1895,0.093 0.288561,0.1285 0.104738,0.054 0.20849,0.1079 0.310749,0.1674 0.06273,0.041 0.137382,0.043 0.200558,0.081 0.05512,0.04 0.02739,0.021 0.08299,0.055 0.0744,0.051 0.127411,0.1322 0.202637,0.1796 0.05862,0.058 0.125544,0.1045 0.176965,0.1716 0.06927,0.06 0.135661,0.1241 0.20513,0.184 0.06278,0.065 0.123395,0.1347 0.187622,0.1996 0.07473,0.051 0.134033,0.1225 0.192821,0.1952 0.07126,0.058 0.12219,0.1415 0.189878,0.2038 0.06369,0.069 0.119217,0.1442 0.177809,0.2181 0.06232,0.089 0.133491,0.1685 0.195119,0.2573 0.06457,0.087 0.117979,0.1826 0.180744,0.271 0.05678,0.1045 0.134758,0.1886 0.193658,0.291 0.06524,0.096 0.119488,0.2046 0.192629,0.2937 0.0669,0.091 0.120804,0.192 0.185566,0.2849 0.07068,0.1068 0.126107,0.2233 0.195873,0.3301 0.07684,0.1091 0.146728,0.2259 0.210524,0.3458 0.05206,0.1024 0.10268,0.208 0.161523,0.3054 0.04891,0.089 0.08909,0.1827 0.133784,0.274 0.04957,0.114 0.10927,0.2205 0.155115,0.3369 0.061,0.1102 0.10536,0.2297 0.161643,0.3428 0.0505,0.108 0.09514,0.2183 0.141628,0.3281 0.05058,0.093 0.08576,0.1947 0.125057,0.2943 0.0061,0.018 0.01126,0.038 0.01857,0.055 0.0061,0.014 0.01422,0.027 0.02133,0.041 0.0068,0.015 0.01407,0.03 0.02023,0.045 0.018,0.044 0.02759,0.091 0.04691,0.1349 0.02825,0.082 0.04591,0.1646 0.08224,0.2423 0.02956,0.091 0.0621,0.1805 0.08773,0.273 0.02039,0.094 0.0471,0.1869 0.07904,0.2772 0.02612,0.099 0.05526,0.1959 0.07347,0.297 0.01946,0.1003 0.05442,0.1938 0.08201,0.291 0.01669,0.1045 0.04462,0.2065 0.06195,0.3113 0.02319,0.1058 0.05457,0.208 0.07967,0.3128 0.01286,0.1013 0.04488,0.1956 0.06286,0.2953 0.0091,0.1035 0.03306,0.2042 0.0479,0.3069 0.02899,0.1068 0.04693,0.216 0.05748,0.3271 0.0086,0.1102 0.009,0.2207 0.0094,0.331 0.0061,0.1181 -0.02754,0.2294 -0.05648,0.3407 -0.02078,0.092 -0.07164,0.1671 -0.104127,0.2525 -0.02594,0.079 -0.06831,0.1491 -0.102542,0.2238 -0.04064,0.075 -0.08581,0.1463 -0.123918,0.223 -0.03252,0.077 -0.03871,0.1595 -0.01209,0.2399 0.03916,0.091 0.07966,0.1851 0.132684,0.2679 0.05953,0.1024 0.127616,0.1987 0.182298,0.3044 0.06094,0.089 0.112014,0.1855 0.173695,0.2732 0.05321,0.087 0.111551,0.1647 0.161417,0.2544 0.06125,0.099 0.125246,0.1964 0.182253,0.2988 0.03645,0.096 0.100576,0.1718 0.14025,0.2652 0.0422,0.079 0.05752,0.174 0.107918,0.2483 0.0459,0.099 0.08296,0.2029 0.117948,0.3078 0.03637,0.1013 0.08893,0.1916 0.118746,0.2961 0.02819,0.099 0.06806,0.1902 0.110563,0.2815 0.02956,0.09 0.06696,0.1746 0.08738,0.268 0.04482,0.074 0.06463,0.1622 0.10054,0.2409 0.0307,0.089 0.05911,0.1797 0.07969,0.2727 0.02515,0.1013 0.07136,0.1907 0.09744,0.2914 0.0405,0.1148 0.07083,0.2335 0.106293,0.3502 0.04027,0.1056 0.03958,0.2234 0.06526,0.333 0.03391,0.1034 0.05929,0.2094 0.07558,0.319 0.01645,0.1125 0.04015,0.2221 0.0526,0.3352 0.0023,0.1092 0.01844,0.214 0.03449,0.3207 0.01677,0.115 0.02215,0.2313 0.02401,0.3476 0.0016,0.1232 0.0017,0.2465 0.0019,0.3698 5.5e-5,0.1103 4e-6,0.221 -2e-5,0.3316 -0.01342,0.1125 -0.02537,0.225 -0.04471,0.3361 -0.02305,0.1136 -0.05848,0.2231 -0.09339,0.3324 -0.02334,0.1034 -0.05531,0.2019 -0.09142,0.2999 -0.04354,0.1205 -0.08369,0.242 -0.127244,0.3623 -0.04009,0.1161 -0.07275,0.2355 -0.11429,0.351 -0.03913,0.084 -0.07746,0.1684 -0.114582,0.2534 -0.04292,0.108 -0.09858,0.2089 -0.149599,0.3123 -0.05177,0.098 -0.113014,0.1877 -0.169054,0.2819 -0.04763,0.083 -0.10201,0.1599 -0.162548,0.2309 -0.05234,0.071 -0.112785,0.1324 -0.169512,0.1981 -0.05351,0.059 -0.104955,0.1185 -0.161939,0.1725 -0.0744,0.056 -0.141048,0.1233 -0.213955,0.1816 -0.06805,0.056 -0.137662,0.1091 -0.206608,0.1642 -0.06841,0.058 -0.141573,0.1057 -0.212782,0.1579 -0.0672,0.051 -0.133768,0.1035 -0.201894,0.1534 -0.08134,0.065 -0.172136,0.114 -0.259848,0.1673 -0.07871,0.06 -0.161455,0.1125 -0.249102,0.1537 -0.07216,0.04 -0.145082,0.075 -0.214803,0.1197 -0.06977,0.041 -0.143324,0.075 -0.212557,0.1174 -0.05937,0.046 -0.123664,0.079 -0.187869,0.1161 -0.07006,0.034 -0.141956,0.063 -0.214261,0.091 -0.07908,0.019 -0.149512,0.066 -0.224698,0.099 -0.07866,0.031 -0.154417,0.065 -0.236672,0.084 -0.09389,0.025 -0.182879,0.068 -0.27616,0.096 -0.0867,0.033 -0.176072,0.055 -0.26265,0.088 -0.07799,0.025 -0.156337,0.04 -0.231123,0.076 -0.07782,0.041 -0.162407,0.058 -0.243438,0.089 -0.08495,0.031 -0.173468,0.039 -0.259909,0.061 -0.09154,0.042 -0.188431,0.061 -0.283281,0.09 -0.09393,0.03 -0.190274,0.044 -0.28499,0.071 -0.08698,0.024 -0.175752,0.028 -0.262278,0.055 -0.07511,0.024 -0.145022,0.06 -0.221983,0.078 -0.08314,0.012 -0.163555,0.021 -0.244895,0.043 -0.09052,0.023 -0.183189,0.026 -0.275365,0.029 -0.112078,0.018 -0.223617,0.039 -0.334668,0.063 -0.11005,0.026 -0.221935,0.037 -0.334044,0.042 -0.106638,-0.012 -0.211071,0.012 -0.316095,0.029 -0.10258,0.019 -0.20647,0.024 -0.310207,0.027 -0.106595,0 -0.210403,0.028 -0.312827,0.059 -0.107874,0.023 -0.215142,0.048 -0.322645,0.073 -0.09503,0.015 -0.188751,0.033 -0.282716,0.055 -0.08101,0.036 -0.163337,0.061 -0.249253,0.075 -0.09425,0.012 -0.185906,0.028 -0.278778,0.044 -0.106598,0.018 -0.214491,0.017 -0.321907,0.021 -0.09907,0.015 -0.197282,0.033 -0.296762,0.044 -0.09406,0.012 -0.188458,0.012 -0.282745,0.012 -0.09353,0.012 -0.18492,0.033 -0.275564,0.06 -0.09549,0.029 -0.193929,0.039 -0.292255,0.045 -0.09857,-0.012 -0.194498,0.012 -0.291418,0.028 -0.106478,0.017 -0.214021,0.023 -0.321434,0.026 -0.109084,-0.012 -0.216318,0.019 -0.324053,0.035 -0.0987,0.015 -0.198127,0.018 -0.297455,0.019 -0.422828,0.012 -0.845681,0 -1.268522,6e-4 -0.173484,0.01 -0.857954,0.012 0.233236,-10e-5 -0.118405,0.036 -0.605632,0.032 -0.919189,0.029 l -0.271275,-0.023 -0.631386,0.017 c -2.161753,-0.088 -1.965749,-0.3053 -1.918357,-0.3053 0.09782,0 0.99744,0.055 2.392641,0.093 0.421998,0.012 1.263578,0.022 1.685735,0.022 0.118508,10e-5 0.237016,10e-5 0.355524,3e-4 0.324518,3e-4 0.780073,0 -0.742986,0 -0.03592,0 0.07185,10e-5 0.10778,0 0.01588,0 0.03176,0 0.04764,0 0.09903,-3e-4 0.198186,0 0.296994,-0.012 0.108954,-0.012 0.216274,-0.037 0.324849,-0.045 0.106857,0 0.213841,0 0.320307,-0.015 0.09818,-0.012 0.192598,-0.048 0.291931,-0.04 0.0968,0 0.194071,-0.012 0.289629,-0.024 0.09327,-0.023 0.181381,-0.06 0.276861,-0.072 0.09271,-0.025 0.188848,-0.012 0.283474,-0.016 0.09999,-0.012 0.199698,-0.015 0.297706,-0.04 0.105681,-0.022 0.213397,-0.012 0.320222,-0.02 0.09424,-0.012 0.18546,-0.037 0.27866,-0.048 0.08389,-0.012 0.168648,-0.012 0.246361,-0.051 0.08885,-0.045 0.189577,-0.059 0.285652,-0.07 0.10869,-0.018 0.213218,-0.056 0.322717,-0.066 0.106063,-0.024 0.207318,-0.069 0.315548,-0.08 0.102618,0 0.205506,0 0.30764,-0.014 0.106521,-0.016 0.210605,-0.049 0.318785,-0.04 0.111161,0 0.222631,-0.012 0.332557,-0.026 0.111506,-0.023 0.221527,-0.05 0.33341,-0.07 0.08966,-0.024 0.18229,-0.012 0.273409,-0.025 0.08318,-0.014 0.160602,-0.053 0.245595,-0.046 0.07785,-0.012 0.154142,-0.017 0.220564,-0.07 0.04103,-0.012 0.08139,-0.031 0.122199,-0.04 0.04616,-0.012 0.0958,0 0.141605,-0.017 0.09532,-0.021 0.187767,-0.053 0.284526,-0.065 0.09427,-0.029 0.189908,-0.048 0.28246,-0.083 0.08355,-0.04 0.169242,-0.056 0.259033,-0.064 0.04058,-0.012 0.07713,-0.033 0.116776,-0.045 0.04083,-0.013 0.08646,-0.012 0.125601,-0.031 0.07651,-0.036 0.146769,-0.085 0.232237,-0.088 0.04226,-0.013 0.08061,-0.034 0.122033,-0.048 0.04622,-0.016 0.09725,-0.014 0.141748,-0.038 0.04661,-0.019 0.09326,-0.028 0.140447,-0.045 0.129128,-0.046 -0.03785,0.012 0.09144,-0.042 0.01431,-0.012 0.02935,-0.012 0.04402,-0.014 0.07802,-0.031 0.164905,-0.026 0.236261,-0.081 0.08073,-0.019 0.151633,-0.06 0.224412,-0.1034 0.07475,-0.014 0.137913,-0.055 0.211582,-0.072 0.02235,-0.012 0.04224,-0.027 0.0647,-0.039 0.04433,-0.022 0.09126,-0.024 0.122925,-0.073 0.07101,-0.04 0.139319,-0.086 0.213287,-0.117 0.07297,-0.039 0.137694,-0.094 0.215332,-0.1219 0.08006,-0.053 0.173526,-0.077 0.249042,-0.1412 0.07988,-0.069 0.174149,-0.1045 0.259301,-0.1636 0.06609,-0.056 0.140584,-0.098 0.200867,-0.1617 0.07375,-0.045 0.142322,-0.098 0.213061,-0.1483 0.06755,-0.056 0.131908,-0.1155 0.20609,-0.1595 0.06781,-0.067 0.146565,-0.1197 0.213744,-0.1875 0.06292,-0.04 0.112658,-0.099 0.160454,-0.1595 0.06166,-0.055 0.113732,-0.1241 0.169044,-0.1867 0.05428,-0.074 0.122462,-0.1336 0.16311,-0.2203 0.0605,-0.086 0.106387,-0.1836 0.169456,-0.2671 0.04802,-0.1045 0.107339,-0.2012 0.148217,-0.3094 0.03774,-0.081 0.06568,-0.1705 0.114248,-0.2453 0.04289,-0.1149 0.07978,-0.2322 0.116894,-0.3499 0.04194,-0.1201 0.0834,-0.2402 0.125141,-0.3603 0.03099,-0.099 0.07424,-0.193 0.09152,-0.2978 0.03298,-0.1045 0.06869,-0.2094 0.09271,-0.3177 0.02087,-0.1035 0.02739,-0.2096 0.04436,-0.3135 7.9e-5,-0.1104 2.17e-4,-0.221 5.31e-4,-0.3316 2.97e-4,-0.1223 9.67e-4,-0.2446 -0.0014,-0.3669 -0.0034,-0.1102 -0.0074,-0.2221 -0.02474,-0.3316 -0.01716,-0.108 -0.03032,-0.2155 -0.03431,-0.3257 -0.01293,-0.1114 -0.03833,-0.2193 -0.05221,-0.3302 -0.01734,-0.108 -0.04961,-0.209 -0.07689,-0.3137 -0.01872,-0.1079 -0.02665,-0.2192 -0.06331,-0.3224 -0.03341,-0.1184 -0.06914,-0.2354 -0.108052,-0.3517 -0.02999,-0.1003 -0.07469,-0.1931 -0.09717,-0.296 -0.02231,-0.087 -0.04823,-0.1723 -0.08001,-0.2548 -0.03172,-0.088 -0.07161,-0.1703 -0.101166,-0.2587 -0.02224,-0.084 -0.05544,-0.164 -0.08592,-0.2443 -0.0441,-0.096 -0.07899,-0.1958 -0.111251,-0.2973 -0.03403,-0.1003 -0.08538,-0.1913 -0.117411,-0.2927 -0.03474,-0.099 -0.06939,-0.1973 -0.119227,-0.2874 -0.03881,-0.084 -0.06604,-0.1734 -0.108102,-0.2553 -0.04588,-0.085 -0.09577,-0.1675 -0.137048,-0.2559 -0.06057,-0.1003 -0.123279,-0.1991 -0.184045,-0.2995 -0.04989,-0.085 -0.111578,-0.1609 -0.16031,-0.2475 -0.05732,-0.094 -0.119258,-0.1843 -0.173292,-0.2809 -0.0611,-0.1003 -0.121066,-0.2014 -0.181663,-0.302 -0.05229,-0.095 -0.105054,-0.1934 -0.13646,-0.3006 -0.02301,-0.1079 -0.02408,-0.215 0.01205,-0.3203 0.03122,-0.08 0.07612,-0.1569 0.124267,-0.2259 0.03351,-0.072 0.06686,-0.1405 0.101907,-0.2106 0.026,-0.089 0.07373,-0.1588 0.105648,-0.2438 0.02553,-0.1024 0.06232,-0.2016 0.05578,-0.3096 -4.17e-4,-0.1069 -5.93e-4,-0.2134 -0.0093,-0.3197 -0.01103,-0.109 -0.03248,-0.2151 -0.05751,-0.3209 -0.01555,-0.1013 -0.03788,-0.2001 -0.04876,-0.302 -0.01951,-0.096 -0.0467,-0.1909 -0.0615,-0.2889 -0.02725,-0.1068 -0.05809,-0.2127 -0.08038,-0.3213 -0.01786,-0.1003 -0.04183,-0.1981 -0.06226,-0.2971 -0.03071,-0.1003 -0.05999,-0.2 -0.08156,-0.3032 -0.01901,-0.094 -0.04673,-0.1871 -0.07384,-0.2792 -0.03154,-0.092 -0.05446,-0.1881 -0.0794,-0.283 -0.02723,-0.088 -0.05279,-0.1755 -0.08731,-0.2591 -0.03179,-0.08 -0.0518,-0.1654 -0.08248,-0.2465 -0.03207,-0.093 -0.06942,-0.1837 -0.105403,-0.2754 -0.03772,-0.099 -0.08024,-0.1954 -0.125556,-0.2905 -0.0458,-0.108 -0.08668,-0.218 -0.139652,-0.3217 -0.05603,-0.1155 -0.102983,-0.2364 -0.16119,-0.3506 -0.04845,-0.1126 -0.108213,-0.2176 -0.156626,-0.3301 -0.04285,-0.091 -0.08671,-0.1803 -0.134411,-0.2676 -0.05161,-0.1024 -0.110176,-0.2006 -0.158272,-0.3058 -0.06609,-0.1164 -0.137217,-0.2292 -0.211187,-0.3393 -0.06513,-0.1091 -0.12458,-0.222 -0.195997,-0.3258 -0.06197,-0.093 -0.117942,-0.192 -0.1857,-0.2803 -0.06675,-0.099 -0.130111,-0.2015 -0.193842,-0.3031 -0.06331,-0.095 -0.132694,-0.1858 -0.192153,-0.2848 -0.06081,-0.09 -0.116692,-0.1834 -0.182922,-0.2678 -0.06546,-0.084 -0.12581,-0.1722 -0.193475,-0.2534 -0.0574,-0.072 -0.115329,-0.1428 -0.178319,-0.2082 -0.06161,-0.073 -0.126204,-0.1408 -0.189872,-0.2106 -0.06013,-0.069 -0.127544,-0.1258 -0.192595,-0.1876 -0.06194,-0.064 -0.121942,-0.1322 -0.18698,-0.1932 -0.06828,-0.065 -0.144856,-0.12 -0.20677,-0.1944 -0.05771,-0.053 -0.11516,-0.1058 -0.175423,-0.1539 -0.06356,-0.06 -0.125531,-0.1242 -0.200591,-0.1663 -0.09051,-0.054 -0.191499,-0.077 -0.281194,-0.1345 -0.102587,-0.055 -0.203646,-0.1136 -0.310913,-0.1559 -0.09616,-0.045 -0.19178,-0.092 -0.288701,-0.1349 -0.09879,-0.05 -0.19996,-0.094 -0.302691,-0.1326 -0.0918,-0.043 -0.184111,-0.084 -0.280446,-0.1125 -0.09971,-0.041 -0.198026,-0.087 -0.300189,-0.1195 -0.07791,-0.019 -0.152497,-0.051 -0.231533,-0.064 -0.08526,-0.027 -0.170154,-0.055 -0.25579,-0.08 -0.09313,-0.038 -0.186765,-0.071 -0.283856,-0.092 -0.09294,-0.032 -0.183622,-0.075 -0.280981,-0.088 -0.09913,-0.023 -0.195948,-0.056 -0.295552,-0.076 -0.09906,-0.031 -0.199509,-0.055 -0.29661,-0.093 -0.124551,-0.048 -0.252637,-0.078 -0.379144,-0.1179 -0.05686,-0.017 -0.113399,-0.038 -0.170523,-0.053 -0.298874,-0.079 -0.937261,0.075 0.788594,-0.016 -0.09471,0 -0.189426,0 -0.284138,0 -0.404572,0 -0.809146,2e-4 -1.213716,0 -0.10178,-2e-4 -0.20356,-2e-4 -0.305339,-5e-4 -0.05993,-10e-5 -0.11986,-2e-4 -0.179789,-2e-4 -0.02111,0 -0.08443,0 -0.06332,0 0.876086,0 1.156077,2e-4 0.813999,0 -0.09776,-10e-5 -0.195598,-5e-4 -0.293253,0.012 -0.113309,0.012 -0.226042,0.025 -0.336248,0.058 -0.10807,0.012 -0.214206,0.037 -0.321669,0.048 -0.09882,0.012 -0.197965,0.013 -0.294116,0.041 -0.105835,0.036 -0.221248,0.024 -0.326724,0.069 -0.11373,0.043 -0.23411,0.063 -0.352558,0.084 -0.105779,0.024 -0.20392,0.078 -0.312359,0.086 -0.06645,0.012 -0.153171,0.032 -0.215293,0.033 -0.567111,0.013 -0.67961,0.013 -1.037508,0.012 -0.09501,-6e-4 -0.190136,0 -0.284917,-0.012 -0.09554,-0.012 -0.189727,-0.029 -0.284598,-0.044 -0.09478,0 -0.189727,0 -0.284078,-0.015 -0.09966,-0.014 -0.198365,-0.039 -0.298902,-0.04 -0.118848,0 -0.237907,-0.012 -0.356151,-0.019 -0.123753,-0.017 -0.246421,-0.045 -0.371476,-0.048 -0.140151,-0.013 -0.279551,-0.035 -0.419994,-0.041 -0.363188,4e-4 -1.052537,-6e-4 0.557154,2e-4 -0.11819,1e-4 -0.23638,0 -0.354571,0 -0.113213,0 -0.226429,1e-4 -0.339643,0 -0.419891,4e-4 -0.839785,0 -1.259676,0 -0.108721,1e-4 -0.217443,0 -0.326164,-2e-4 -0.04983,2e-4 -0.09966,-10e-5 -0.149493,-10e-5 -0.01628,0 -0.0651,0 -0.04882,0 0.868386,-1e-4 1.173105,5e-4 0.827069,-3e-4 -0.121029,-10e-5 -0.242081,-10e-5 -0.363073,0.012 -0.110743,0.012 -0.222296,0.012 -0.330659,0.039 -0.407361,0.012 -0.814632,0.015 -1.221998,0.013 -0.34699,-3e-4 0.04144,0 0.833729,-10e-5 0.01598,0 -0.03196,0 -0.04794,0 -0.02991,-2e-4 -0.06698,-2e-4 -0.09688,0 -0.01638,0 -0.03275,10e-5 -0.04913,10e-5 -0.100566,0 -0.201282,0 -0.301458,0.014 -0.03731,0.012 -0.09024,0.026 -0.124728,0.027 -0.681541,0.017 -1.826326,0.014 -0.0904,0.014 0.01578,0 -0.03154,0 -0.04732,-2e-4 -0.0946,-10e-5 -0.189301,-5e-4 -0.283797,0.012 -0.101523,0.012 -0.201898,0.026 -0.29878,0.063 -0.113632,0.016 -0.225311,0.048 -0.340336,0.043 -0.106304,0.012 -0.213418,0.012 -0.317465,0.038 -0.10478,0.029 -0.215813,0.012 -0.322911,0.017 -0.115801,0.012 -0.232558,0.013 -0.3448043,0.048 -0.058868,0.018 -0.1160398,0.022 -0.1759494,0.034 -0.035222,0.012 -0.069435,0.019 -0.1047506,0.025 -0.016447,0 -0.033204,0 -0.049806,0 -0.093072,0.012 -0.1873504,0.016 -0.2726499,0.062 -0.089753,0.015 -0.1749257,0.048 -0.2655182,0.053 -0.087172,0.016 -0.1672952,0.056 -0.2559724,0.061 -0.098715,0.022 -0.189225,0.07 -0.2865796,0.098 -0.1044185,0.013 -0.2041222,0.043 -0.3066854,0.065 -0.1007274,0.021 -0.1995607,0.053 -0.2946371,0.096 -0.090859,0.012 -0.1632683,0.043 -0.2508469,0.063 -0.101503,0.021 -0.1962791,0.064 -0.2969576,0.089 -0.096603,0.033 -0.1991897,0.043 -0.2968834,0.072 -0.083715,0.018 -0.1549145,0.069 -0.237984,0.089 -0.043244,0.018 -0.08387,0.021 -0.1278218,0.035 -0.027363,0.012 -0.052614,0.025 -0.08017,0.033 -0.01458,0.012 -0.029869,0.012 -0.044805,0.012 -0.086402,0.018 -0.1651559,0.057 -0.2466847,0.093 -0.080452,0.045 -0.1716868,0.062 -0.2565492,0.095 -0.072189,0.035 -0.1374627,0.087 -0.2173737,0.098 -0.025251,0.012 -0.04864,0.027 -0.07428,0.039 -0.05808,0.023 -0.1222395,0.029 -0.1745012,0.072 -0.099684,0.032 -0.1939192,0.079 -0.2894086,0.1241 -0.096704,0.055 -0.1928878,0.107 -0.2964953,0.1423 -0.086282,0.032 -0.1592556,0.094 -0.2459357,0.125 -0.1011855,0.049 -0.1951396,0.1125 -0.2924937,0.17 -0.1055105,0.054 -0.2073549,0.116 -0.3120105,0.1714 -0.099579,0.048 -0.1979122,0.1034 -0.2904714,0.1673 -0.093206,0.048 -0.1777274,0.1161 -0.2733572,0.1596 -0.077876,0.074 -0.1756473,0.1103 -0.2536768,0.1843 -0.086559,0.069 -0.1738696,0.135 -0.2557619,0.2104 -0.089056,0.062 -0.1657174,0.1435 -0.2446067,0.2215 -0.088829,0.086 -0.1767408,0.1704 -0.2635133,0.2577 -0.082595,0.09 -0.1661697,0.1771 -0.242261,0.2735 -0.079297,0.1045 -0.1720926,0.1953 -0.2619724,0.2883 -0.073187,0.074 -0.1318674,0.1585 -0.192418,0.2458 -0.053238,0.071 -0.090626,0.1565 -0.1591283,0.2113 -0.050964,0.081 -0.1099157,0.1541 -0.1606995,0.235 -0.072899,0.082 -0.1208135,0.186 -0.1828339,0.2784 -0.059894,0.108 -0.1232295,0.2152 -0.162053,0.3367 -0.043844,0.108 -0.086542,0.2158 -0.1195595,0.3286 -0.04042,0.1045 -0.076673,0.2124 -0.1034721,0.3227 -0.02111,0.091 -0.04676,0.1798 -0.0755791,0.267 -0.0338462,0.083 -0.0365456,0.1772 -0.0348417,0.267 -7.239e-5,0.108 -2.0833e-4,0.2167 -3.5077e-4,0.3251 -5.026e-5,0.108 -3.8938e-4,0.2153 0.002921,0.3228 0.004405,0.1058 0.0120861,0.2119 0.0340771,0.3153 0.0198068,0.1014 0.0283183,0.2058 0.0578515,0.3045 0.029367,0.095 0.056285,0.1928 0.068517,0.2933 0.019005,0.1035 0.046077,0.2057 0.071761,0.3074 0.031136,0.093 0.064562,0.1836 0.1151845,0.2656 0.045094,0.089 0.095496,0.1737 0.1467923,0.2583 0.041781,0.089 0.087181,0.1748 0.1364722,0.2583 0.066364,0.1024 0.1367231,0.2 0.2003872,0.304 0.083411,0.1205 0.1629717,0.2447 0.2440631,0.3673 0.077415,0.118 0.1553053,0.2353 0.2369644,0.3494 0.077579,0.1156 0.1415506,0.2415 0.2173513,0.3586 0.057455,0.089 0.1118592,0.1824 0.1431482,0.2872 0.017454,0.1045 0.016215,0.2044 -0.036441,0.2961 -0.046424,0.071 -0.077914,0.1532 -0.1367444,0.2134 -0.073988,0.067 -0.1066171,0.1721 -0.1724189,0.2487 -0.05888,0.089 -0.1016449,0.1908 -0.1645965,0.2765 -0.049058,0.087 -0.1002738,0.1712 -0.1537018,0.2541 -0.04615,0.079 -0.067689,0.175 -0.1221892,0.2487 -0.037761,0.087 -0.084073,0.1683 -0.1196431,0.2563 -0.047169,0.076 -0.092996,0.1542 -0.1169478,0.2447 -0.032577,0.087 -0.068096,0.1722 -0.099203,0.2598 -0.036165,0.072 -0.051112,0.1571 -0.065117,0.2378 -0.018704,0.099 -0.014842,0.1982 -0.014213,0.2991 -1.271e-4,0.108 -4.606e-4,0.2161 6.426e-4,0.3242 0.00166,0.1058 0.00409,0.2126 0.01786,0.3176 0.015284,0.108 0.036776,0.2153 0.042996,0.3249 0.01605,0.108 0.045356,0.2115 0.074804,0.3155 0.035373,0.108 0.078245,0.2131 0.1133395,0.3214 0.040685,0.1024 0.079452,0.2052 0.1269615,0.3031 0.039262,0.083 0.074186,0.1675 0.1157742,0.2487 0.04042,0.074 0.066557,0.1562 0.1114908,0.2273 0.050061,0.093 0.092107,0.1917 0.1493212,0.2795 0.046656,0.081 0.1008256,0.1574 0.1431215,0.2424 0.041248,0.066 0.087069,0.1308 0.1317351,0.1948 0.059183,0.068 0.1130337,0.1405 0.1778837,0.201 0.072043,0.07 0.1388456,0.145 0.2117068,0.2131 0.073709,0.073 0.1465965,0.1475 0.2122814,0.2301 0.076052,0.09 0.1550461,0.1759 0.2365599,0.2589 0.076084,0.083 0.1567094,0.1607 0.2254156,0.2525 0.071193,0.083 0.1456915,0.1619 0.2227307,0.2376 0.089682,0.088 0.1775572,0.178 0.2614574,0.2732 0.084536,0.083 0.1720486,0.1618 0.2587563,0.2419 0.066159,0.077 0.1345493,0.151 0.2046962,0.2229 0.088532,0.093 0.1774229,0.1869 0.2731369,0.2705 0.085932,0.08 0.1615987,0.1735 0.2441948,0.2587 0.079367,0.081 0.1533991,0.1706 0.2358983,0.2486 0.082468,0.071 0.1564303,0.1525 0.231525,0.2333 0.078933,0.081 0.1540356,0.1664 0.2376534,0.2411 0.067056,0.066 0.1321511,0.1353 0.1925319,0.2102 0.059896,0.07 0.1247803,0.1303 0.1933409,0.1875 0.06746,0.056 0.1324238,0.1145 0.2017705,0.1666 0.07806,0.061 0.1545628,0.1239 0.227966,0.1925 0.086638,0.079 0.1786044,0.1515 0.2702451,0.2237 0.092711,0.075 0.1857823,0.1499 0.2744443,0.2314 0.081904,0.071 0.1662623,0.1374 0.2497741,0.206 0.084215,0.075 0.1743625,0.1384 0.2643703,0.2043 0.086669,0.073 0.1832263,0.1281 0.2702958,0.2007 0.091864,0.072 0.181944,0.1449 0.270628,0.2211 0.077159,0.068 0.1488652,0.1403 0.2234467,0.2104 0.075752,0.079 0.1519896,0.1578 0.2269777,0.2379 0.891807,0.7385 0.8799491,1.1525 0.1736925,1.5747 z"
       inkscape:connector-curvature="0"
       sodipodi:nodetypes="cccccccccccccccccccccccccccccccccccccccccccccccccccccccccccccccccccccccccccccccccccccccccccccccccccccccccccccccccccccccccsccsccccccccscccccccccscsscccccccccccccccccccccccccccccccccccccccccccccccccccccccccccccccccccccccccccccccccccccccccccccccccccccccccccccccccccccccccccccccccccccccccssccsccccccccccccccccccccccccccccccccccccccccccccccccccccccccccccccccccccccccccccccccccccccccccccccccccccccccccccccccccccccccccccccccccccccsccssccccccccccccccccccscccsccccccccsccscccccccccccccccccccccccccccccccccccccccccccccccccccccccccccccccccccccccccccccccccccccccccccccccccccccccccccccccccc" />
    <text
       xml:space="preserve"
       style="font-size:19.51235199px;font-style:normal;font-weight:normal;line-height:125%;letter-spacing:0px;word-spacing:0px;fill:#000000;fill-opacity:1;stroke:none;font-family:Sans"
       x="7.9947228"
       y="1041.8992"
       id="text3013"
       sodipodi:linespacing="125%"
       transform="scale(1.0041153,0.99590156)"><tspan
         sodipodi:role="line"
         id="tspan3015"
         x="7.9947228"
         y="1041.8992">...</tspan></text>
    <path
       style="fill:#000000;fill-opacity:1;stroke:none"
       id="path3018"
       d="m 9.8277613,1044.8332 c -0.034174,0.091 -0.060681,0.1842 -0.099394,0.2735 -0.036444,0.09 -0.079215,0.1758 -0.1330072,0.2563 -0.045174,0.07 -0.094435,0.1364 -0.1388202,0.2065 -0.051432,0.08 -0.1102256,0.1554 -0.1667578,0.232 -0.059533,0.079 -0.1124461,0.1615 -0.1727945,0.2394 -0.059583,0.071 -0.1116114,0.1475 -0.1649397,0.2231 -0.056277,0.078 -0.1154961,0.1546 -0.1735612,0.2316 -0.058889,0.085 -0.1268865,0.1633 -0.1931487,0.2428 -0.065136,0.082 -0.1299183,0.1635 -0.1943983,0.2457 -0.075755,0.099 -0.1538025,0.1968 -0.2324517,0.2939 -0.069707,0.081 -0.13259,0.1682 -0.1983893,0.2527 -0.073053,0.085 -0.1494554,0.1675 -0.2186036,0.2562 -0.073075,0.095 -0.1468602,0.1891 -0.2284896,0.2768 -0.072852,0.082 -0.1494564,0.1604 -0.2235322,0.2412 -0.076966,0.089 -0.159939,0.1719 -0.2452306,0.2527 -0.082519,0.08 -0.1677828,0.1579 -0.2550347,0.2331 -0.07602,0.069 -0.1558738,0.1325 -0.2327963,0.1999 -0.073237,0.066 -0.147674,0.13 -0.2195904,0.1972 -0.049038,0.045 -0.097643,0.091 -0.1455313,0.1371 -0.049026,0.049 -0.099739,0.095 -0.1481127,0.1451 -0.055234,0.058 -0.1109405,0.1157 -0.1675163,0.1724 -0.060926,0.063 -0.1295822,0.1185 -0.191767,0.1806 -0.063801,0.062 -0.1295003,0.1229 -0.2005406,0.177 -0.061673,0.044 -0.122857,0.089 -0.1850044,0.1323 -0.049231,0.041 -0.1074022,0.07 -0.158127,0.1088 -0.055703,0.039 -0.1092076,0.081 -0.1631925,0.1222 -0.044688,0.036 -0.084395,0.077 -0.1266648,0.1151 -0.038493,0.038 -0.074996,0.078 -0.1144619,0.1142 -0.044726,0.048 -0.090353,0.094 -0.1303728,0.1455 -0.00791,0.021 -0.096717,0.1151 -0.041,0.036 0.060905,-0.011 0.1249419,-0.01 0.1869447,-0.01 -1.3187652,0.064 -0.7232443,10e-5 -0.4239063,-0.026 0.1616944,-0.011 0.3210291,-0.041 0.4798874,-0.071 0.1804385,-0.026 0.360129,-0.055 0.5389652,-0.091 0.1842176,-0.042 0.3706534,-0.072 0.5556429,-0.1096 0.1728862,-0.041 0.3467361,-0.077 0.5210915,-0.1105 0.1567301,-0.039 0.3172277,-0.057 0.4753379,-0.088 0.1405316,-0.036 0.281009,-0.07 0.4235297,-0.097 0.1258363,-0.034 0.2537835,-0.059 0.3800663,-0.09 0.120065,-0.038 0.2415571,-0.07 0.3617571,-0.1071 0.1276007,-0.038 0.2547484,-0.076 0.3800679,-0.1216 0.1298857,-0.042 0.2594841,-0.084 0.3875309,-0.131 0.1311907,-0.059 0.2702938,-0.097 0.4048668,-0.1469 0.1370456,-0.051 0.2731278,-0.1037 0.4110626,-0.1519 0.1401763,-0.046 0.2797988,-0.094 0.4186204,-0.1443 0.132824,-0.049 0.268128,-0.091 0.40362,-0.1321 0.131489,-0.04 0.260426,-0.088 0.391421,-0.1296 0.129542,-0.041 0.259311,-0.081 0.387782,-0.1246 0.124906,-0.039 0.246245,-0.089 0.369487,-0.1323 0.116799,-0.04 0.233669,-0.08 0.346203,-0.1316 0.112253,-0.055 0.229185,-0.099 0.342252,-0.1528 0.100305,-0.043 0.18955,-0.1047 0.281522,-0.1621 0.0913,-0.058 0.179002,-0.1207 0.263922,-0.1874 0.08432,-0.067 0.171656,-0.1289 0.252461,-0.1999 0.08595,-0.074 0.171614,-0.1493 0.258233,-0.223 0.09366,-0.083 0.183851,-0.1688 0.271594,-0.2577 0.07732,-0.086 0.159703,-0.1681 0.236152,-0.2552 0.0537,-0.068 0.10425,-0.1389 0.155676,-0.2089 0.0569,-0.065 0.0977,-0.1401 0.137343,-0.2161 0.04311,-0.079 0.09165,-0.1553 0.139574,-0.2317 0.04973,-0.086 0.09489,-0.1737 0.148648,-0.257 0.04692,-0.078 0.08982,-0.1587 0.135983,-0.2374 0.04835,-0.086 0.09944,-0.1699 0.146851,-0.2563 0.03371,-0.064 0.07352,-0.1243 0.109055,-0.1871 0.02984,-0.066 0.06838,-0.1274 0.106531,-0.1891 0.03412,-0.052 0.06256,-0.1067 0.09517,-0.1594 0.03796,-0.05 0.06437,-0.1079 0.09191,-0.1641 0.02684,-0.062 0.05245,-0.1251 0.08293,-0.1857 0.02607,-0.052 0.0497,-0.105 0.07017,-0.1597 0,0 0.757905,0.031 0.757905,0.031 l 0,0 c -0.01389,0.028 -0.01942,0.057 -0.03193,0.086 -0.04442,0.1012 0.01562,-0.04 -0.02697,0.047 -0.0048,0.01 -0.0078,0.021 -0.01167,0.031 -0.02975,0.06 -0.06031,0.1205 -0.08401,0.1836 -0.02723,0.061 -0.05649,0.1222 -0.09117,0.1794 -0.04104,0.044 -0.05664,0.1043 -0.09576,0.1502 -0.03338,0.063 -0.08088,0.1176 -0.106045,0.1858 -0.0313,0.067 -0.07816,0.1249 -0.110901,0.1915 -0.05244,0.083 -0.09729,0.1709 -0.147029,0.2554 -0.04534,0.081 -0.09341,0.1598 -0.137245,0.2414 -0.05394,0.083 -0.103666,0.1675 -0.147691,0.2564 -0.04789,0.074 -0.09459,0.1493 -0.13887,0.2258 -0.04194,0.078 -0.07795,0.1612 -0.138169,0.2278 -0.05397,0.071 -0.106123,0.143 -0.156962,0.216 -0.0799,0.086 -0.159712,0.1707 -0.239184,0.257 -0.08638,0.093 -0.178851,0.1791 -0.271215,0.2658 -0.08649,0.072 -0.168006,0.1493 -0.256153,0.2192 -0.07795,0.078 -0.167474,0.1399 -0.254765,0.2063 -0.08641,0.068 -0.172113,0.1359 -0.263653,0.1967 -0.09513,0.055 -0.181446,0.1253 -0.283737,0.168 -0.110969,0.058 -0.228106,0.102 -0.342306,0.1534 -0.111464,0.058 -0.229038,0.099 -0.347162,0.1418 -0.125675,0.038 -0.244903,0.093 -0.370572,0.1318 -0.129267,0.042 -0.256802,0.089 -0.388146,0.1251 -0.130648,0.044 -0.262373,0.084 -0.391698,0.1324 -0.136123,0.037 -0.270468,0.081 -0.403382,0.1275 -0.139638,0.048 -0.277949,0.1003 -0.418591,0.1455 -0.138699,0.045 -0.273151,0.1 -0.4105678,0.1477 -0.1326468,0.057 -0.2738794,0.087 -0.4048571,0.148 -0.1270108,0.051 -0.2566516,0.095 -0.3879179,0.1332 -0.1261741,0.043 -0.2492492,0.093 -0.3794258,0.1234 -0.1195269,0.041 -0.2421996,0.07 -0.3619557,0.1099 -0.1256729,0.04 -0.2568874,0.054 -0.3820566,0.096 -0.1420196,0.029 -0.2850877,0.052 -0.4239199,0.095 -0.1572278,0.04 -0.3203296,0.047 -0.4772227,0.09 -0.1750034,0.032 -0.3492871,0.066 -0.5221834,0.1081 -0.1840971,0.043 -0.3716958,0.067 -0.5557898,0.1102 -0.1779045,0.039 -0.3566019,0.073 -0.5377179,0.092 -0.1587819,0.03 -0.3166655,0.065 -0.4777482,0.08 -0.3629421,0.023 -0.6771301,0.1179 -1.067748,0.032 -0.064806,-5e-4 -0.1398757,0.01 -0.1960083,-0.03 -0.043096,-0.085 -0.00829,-0.1052 0.041381,-0.1701 0.038755,-0.043 0.068242,-0.084 0.1098462,-0.1252 0.00731,-0.01 0.013085,-0.016 0.019627,-0.024 0.033835,-0.042 0.076072,-0.077 0.1145953,-0.1149 0.037149,-0.046 0.083786,-0.084 0.1280859,-0.1221 0.0494,-0.05 0.109747,-0.085 0.1632543,-0.1303 0.053382,-0.035 0.1013644,-0.077 0.1592604,-0.1053 0.058455,-0.05 0.126566,-0.088 0.1861,-0.1372 0.074285,-0.044 0.1332091,-0.1056 0.1997825,-0.1599 0.057466,-0.067 0.1253365,-0.1228 0.1911027,-0.1811 0.052656,-0.059 0.1113342,-0.1133 0.1662516,-0.1705 0.043965,-0.054 0.093897,-0.1024 0.1477152,-0.1463 0.044326,-0.054 0.098997,-0.096 0.1476274,-0.1454 0.07639,-0.062 0.1457445,-0.1327 0.2210321,-0.1961 0.076455,-0.07 0.1577354,-0.1333 0.2345191,-0.2024 0.088947,-0.072 0.1728777,-0.15 0.2545862,-0.2296 0.086553,-0.077 0.1682862,-0.1587 0.2445533,-0.2458 0.073474,-0.082 0.1508774,-0.1601 0.2232708,-0.2431 0.08262,-0.084 0.1578614,-0.1743 0.2289496,-0.2688 0.068404,-0.09 0.1397003,-0.1764 0.2172605,-0.2586 0.070192,-0.081 0.1273076,-0.1731 0.1996569,-0.2527 0.079396,-0.095 0.1573509,-0.1914 0.2307597,-0.2911 0.063059,-0.085 0.135319,-0.164 0.1948908,-0.2523 0.078958,-0.079 -0.01106,0.015 0.064863,-0.079 0.041839,-0.052 0.092449,-0.097 0.1278126,-0.1544 0.05314,-0.081 0.1188345,-0.1533 0.1729278,-0.2341 0.058019,-0.072 0.101387,-0.1555 0.1648411,-0.2238 0.05897,-0.078 0.1164166,-0.1569 0.1735973,-0.2362 0.052328,-0.078 0.1130884,-0.1499 0.1652522,-0.2284 0.044483,-0.071 0.090519,-0.1397 0.1383948,-0.2082 0.051308,-0.078 0.103315,-0.1543 0.1343584,-0.2437 0.039919,-0.087 0.0687,-0.1783 0.094637,-0.2707 0,0 0.758688,0.029 0.758688,0.029 z"
       inkscape:connector-curvature="0" />
    <path
       style="fill:#ffffff;fill-opacity:1;stroke:none"
       d="M 20.446771,1.5929617 C 19.627838,1.6305805 18.843626,1.9024722 18.036302,2.0065763 16.833301,2.0405718 15.638981,1.872135 14.441141,1.8025082 13.176432,1.8053187 11.910809,1.8864518 10.659717,2.0709468 9.2493944,2.1795904 7.90035,2.6432988 6.5547816,3.048214 5.3865637,3.488109 4.2529893,4.0531652 3.2406747,4.7868339 2.5116826,5.4362247 1.8301994,6.1703524 1.3528252,7.0261804 0.97879444,7.7897532 0.7947413,8.6649321 0.99181605,9.5050544 1.1304465,10.718835 2.0498088,11.605303 2.5723172,12.65373 c 0.1307895,0.352476 -0.2385257,0.63886 -0.3747549,0.933155 -0.3869846,0.698284 -0.8803473,1.426117 -0.8044578,2.263457 0.00657,0.962822 0.4621819,1.848796 0.950492,2.651516 1.0912033,1.303873 2.3253677,2.479843 3.5006593,3.706097 0.9429941,0.884733 2.0160248,1.61733 2.9391295,2.524146 0.1503971,0.199697 0.2021301,-0.144579 0.2448252,-0.240964 0.1439261,-0.135995 0.4727861,-0.0095 0.6906014,-0.03158 0.2461405,-0.04735 0.050462,0.200706 0.016435,0.299939 -0.5999357,1.097029 -1.4528874,2.028117 -2.2421724,2.989862 -0.5799034,0.64898 -1.2544584,1.204028 -1.8863367,1.800738 -0.2801321,0.255288 -0.6159427,0.447879 -0.8622588,0.739785 1.3981114,-0.252637 2.8104253,-0.490249 4.1468252,-0.988738 1.1109058,-0.400714 2.2511248,-0.72851 3.3396928,-1.186162 0.939907,-0.506343 1.730743,-1.287021 2.211743,-2.243831 0.287535,-0.485439 0.563277,-0.995372 0.829739,-1.482811 0.253983,-0.02313 0.546036,-0.06326 0.786142,0.01233 -0.105477,0.436778 -0.443429,0.797861 -0.588922,1.212083 1.374651,0.04121 2.755542,0.130127 4.128939,0.01946 0.764262,-0.08064 1.523403,-0.19489 2.287567,-0.279677 1.246384,-0.348328 2.572814,-0.309418 3.806607,-0.7234 1.022294,-0.283178 2.047305,-0.610777 2.9386,-1.202237 0.788894,-0.512203 1.582766,-1.140378 1.91331,-2.055747 0.38194,-0.884813 0.678602,-1.849968 0.516333,-2.822715 -0.186521,-1.367727 -0.663739,-2.684135 -1.246322,-3.929339 -0.272334,-0.569737 -0.749453,-1.050777 -0.895709,-1.673633 0.0587,-0.425643 0.406538,-0.776337 0.394441,-1.227148 C 29.289825,10.841049 29.015636,9.9911549 28.788213,9.1495736 28.248759,7.3704253 27.316682,5.7236893 26.176218,4.2630479 25.794048,3.8460758 25.408117,3.4118095 24.970827,3.0604098 23.983882,2.5551863 22.949215,2.1514798 21.876571,1.8691975 21.410167,1.7389308 20.936994,1.5797168 20.446771,1.5929617 z m -3.23359,14.7052343 c 0,0.336461 0,0.672923 0,1.009384 -0.661258,-0.02392 -1.337386,0.05116 -1.990007,-0.04794 -0.04543,-0.642759 -0.0019,-1.298649 -0.0041,-1.946181 0.664697,-0.0085 1.329402,-0.01624 1.994116,-0.02328 0,0.336005 0,0.672009 0,1.008014 z m 5.434514,0 c 0,0.336461 0,0.672923 0,1.009384 -0.661259,-0.02392 -1.337386,0.05116 -1.990008,-0.04794 -0.04543,-0.642759 -0.0019,-1.298649 -0.0041,-1.946181 0.664697,-0.0085 1.329402,-0.01624 1.994116,-0.02328 0,0.336005 0,0.672009 0,1.008014 z M 10.792567,15.291551 c 0.3287,0 0.6574,0 0.986101,0 0,0.67201 0,1.34402 0,2.016029 -0.657401,0 -1.314802,0 -1.9722027,0 0,-0.672009 0,-1.344019 0,-2.016029 0.3287007,0 0.6574007,0 0.9861017,0 z"
       id="path3022"
       inkscape:connector-curvature="0"
       transform="translate(0,1020.3622)" />
  </g>
</svg>
