<?xml version="1.0" encoding="UTF-8" standalone="no"?>
<!-- Created with Inkscape (http://www.inkscape.org/) -->

<svg
   xmlns:dc="http://purl.org/dc/elements/1.1/"
   xmlns:cc="http://creativecommons.org/ns#"
   xmlns:rdf="http://www.w3.org/1999/02/22-rdf-syntax-ns#"
   xmlns:svg="http://www.w3.org/2000/svg"
   xmlns="http://www.w3.org/2000/svg"
   xmlns:sodipodi="http://sodipodi.sourceforge.net/DTD/sodipodi-0.dtd"
   xmlns:inkscape="http://www.inkscape.org/namespaces/inkscape"
   width="16"
   height="64"
   id="svg2"
   version="1.1"
   inkscape:version="0.48.5 r10040"
   sodipodi:docname="savePillar.svg"
   inkscape:export-filename="C:\Users\narfman0\Desktop\savePillar.png"
   inkscape:export-xdpi="90"
   inkscape:export-ydpi="90">
  <defs
     id="defs4" />
  <sodipodi:namedview
     id="base"
     pagecolor="#ffffff"
     bordercolor="#666666"
     borderopacity="1.0"
     inkscape:pageopacity="0.0"
     inkscape:pageshadow="2"
     inkscape:zoom="14.994111"
     inkscape:cx="28.650864"
     inkscape:cy="15.586646"
     inkscape:document-units="px"
     inkscape:current-layer="layer1"
     showgrid="false"
     inkscape:window-width="1611"
     inkscape:window-height="954"
     inkscape:window-x="207"
     inkscape:window-y="53"
     inkscape:window-maximized="0" />
  <metadata
     id="metadata7">
    <rdf:RDF>
      <cc:Work
         rdf:about="">
        <dc:format>image/svg+xml</dc:format>
        <dc:type
           rdf:resource="http://purl.org/dc/dcmitype/StillImage" />
        <dc:title></dc:title>
      </cc:Work>
    </rdf:RDF>
  </metadata>
  <g
     inkscape:label="Layer 1"
     inkscape:groupmode="layer"
     id="layer1"
     transform="translate(0,-988.3622)">
    <path
       style="fill:#000000;fill-opacity:1;stroke:none"
       id="path2985"
       d="m 5.9232062,55.515119 c -0.1104486,0.347414 -0.2466541,0.686429 -0.3758697,1.027317 -0.062861,0.230584 -0.1893452,0.435366 -0.2757259,0.65631 -0.091171,0.159718 -0.1438575,0.334566 -0.2134856,0.50364 -0.072243,0.197251 -0.1669277,0.387814 -0.2642894,0.57403 -0.1055664,0.188817 -0.2153832,0.375257 -0.3259264,0.561214 -0.1161445,0.194764 -0.2139052,0.397829 -0.3095141,0.603022 -0.098627,0.229026 -0.2186067,0.447524 -0.3273198,0.671924 -0.080737,0.191992 -0.1616549,0.384823 -0.2105123,0.587791 -0.037077,0.189301 -0.1604931,0.343415 -0.2177699,0.52402 -0.078517,0.154608 -0.1229343,0.321019 -0.186343,0.481676 -0.05854,0.164037 -0.134722,0.322047 -0.2140334,0.477072 -0.068104,0.147836 -0.1421874,0.293139 -0.2181026,0.437336 0.050982,-0.140565 0.00478,-0.118658 -0.032547,-0.246331 -0.00199,-0.0068 0.014302,-2.6e-5 0.021222,0.0015 0.058916,0.01322 0.1170585,0.02972 0.175915,0.04321 0.3172169,0.05697 0.6403863,0.05441 0.9608277,0.07729 0.4383673,0.04865 0.8802177,0.05433 1.3186695,0.099 0.4076155,0.05243 0.8174184,0.08067 1.2257983,0.126189 0.4197058,0.04913 0.8418372,0.06975 1.2640169,0.08093 0.3470662,0.0074 0.6942334,0.0071 1.04136,0.007 0.332423,-3.26e-4 0.664846,-6.52e-4 0.9972692,-8.47e-4 0.2766826,-1.49e-4 0.5533656,-1.55e-4 0.8300486,-1.64e-4 0.254156,-4e-6 0.508313,10e-7 0.76247,3e-6 0.219518,2e-6 0.439037,3e-6 0.658556,3e-6 0.216278,0 0.432557,0 0.648835,0 0.216615,0 0.43323,0 0.649844,0 0.216687,0 0.433374,0 0.65006,0 0.237735,-0.01474 0.470229,0.01427 0.703944,0.05356 0.211453,0.01946 0.416844,0.05982 0.622998,0.109249 0.02657,0.0052 0.05354,0.0087 0.0797,0.01561 0.311649,0.0829 0.08847,-0.01311 -0.07854,0.11168 -0.03557,0.02658 -0.04691,0.0754 -0.07036,0.113099 -0.0028,0.02781 0.002,0.05746 -0.0084,0.08344 -0.004,0.01006 -0.0065,-0.02109 -0.01297,-0.02978 -0.0269,-0.03612 -0.09461,-0.111517 -0.127867,-0.152862 -0.08643,-0.140627 -0.189202,-0.268716 -0.288774,-0.399986 -0.143201,-0.17461 -0.293479,-0.343028 -0.435747,-0.518389 -0.143348,-0.160304 -0.284914,-0.323561 -0.416769,-0.493573 -0.14928,-0.183196 -0.300079,-0.363089 -0.435032,-0.557671 -0.128328,-0.141265 -0.24216,-0.292285 -0.358844,-0.442762 -0.100696,-0.160763 -0.232834,-0.295895 -0.342695,-0.450329 -0.146338,-0.158571 -0.270759,-0.33308 -0.388939,-0.513119 -0.108513,-0.196246 -0.25471,-0.36685 -0.375173,-0.555762 -0.135717,-0.157294 -0.246553,-0.333512 -0.372118,-0.498265 -0.101607,-0.153886 -0.191052,-0.314834 -0.313157,-0.454283 -0.102921,-0.144577 -0.201509,-0.291298 -0.306303,-0.434503 -0.09587,-0.145768 -0.202003,-0.282866 -0.308721,-0.420564 -0.122247,-0.147078 -0.215172,-0.314074 -0.321561,-0.471748 -0.110011,-0.141029 -0.181049,-0.301317 -0.263463,-0.458444 -0.07237,-0.141879 -0.117679,-0.299661 -0.1996146,-0.436565 -0.1140023,-0.185883 -0.1946352,-0.381254 -0.2455043,-0.593157 -0.035078,-0.104803 -0.034628,-0.04888 -0.1410448,-0.06436 -0.2113896,-0.02338 -0.4245684,-0.02056 -0.6369232,-0.01998 -0.220186,0.0014 -0.4403719,0.0026 -0.6605613,0.0033 -0.1747067,0.03913 -0.3506152,0.06871 -0.5286238,0.08756 -0.1847798,-0.0034 -0.359535,0.04829 -0.5393573,0.08171 -0.188347,0.03333 -0.3789161,0.02695 -0.5650964,0.0698 -0.1747651,0.02527 -0.3363181,0.09352 -0.5069969,0.136127 -0.1837652,0.03978 -0.3601744,0.100513 -0.5465384,0.132276 -0.1115829,0.01694 -0.2242828,0.02263 -0.3368255,0.02855 -0.4590482,0.02366 -0.4925136,-0.625529 -0.033465,-0.649193 l 0,0 c 0.088168,-0.0044 0.1764752,-0.0084 0.2640077,-0.02067 0.1704115,-0.02706 0.3299162,-0.08952 0.4987865,-0.122509 0.1743499,-0.04097 0.3394635,-0.115113 0.518227,-0.138761 0.1954489,-0.04332 0.392123,-0.05074 0.5902367,-0.07494 0.1959578,-0.03562 0.3886896,-0.09077 0.5897197,-0.08896 0.1999916,-0.02035 0.3943569,-0.06883 0.5939783,-0.09105 0.2202628,-6.59e-4 0.4405221,-0.0019 0.6607816,-0.0033 0.2518337,-6.57e-4 0.5048978,-0.0036 0.7549968,0.03048 0.3437406,0.06842 0.5649506,0.201002 0.6580656,0.557576 0.03399,0.157572 0.101611,0.294929 0.185189,0.432609 0.07607,0.148299 0.141704,0.301845 0.208765,0.454302 0.06667,0.137967 0.126701,0.27195 0.225637,0.392316 0.09368,0.146235 0.182206,0.295392 0.292349,0.430575 0.109139,0.143255 0.220035,0.284584 0.319428,0.434881 0.09488,0.13189 0.188833,0.2639 0.278564,0.398987 0.12466,0.152067 0.234906,0.313689 0.335364,0.482299 0.133657,0.180591 0.260155,0.366256 0.401619,0.541137 0.115996,0.18692 0.265084,0.351188 0.368779,0.545825 0.11491,0.175082 0.238951,0.34092 0.378387,0.497539 0.101081,0.149304 0.235434,0.272951 0.327181,0.429054 0.120128,0.159828 0.246248,0.312794 0.375678,0.465933 0.128849,0.185904 0.274262,0.356545 0.416417,0.532169 0.126659,0.167352 0.268985,0.32351 0.407143,0.481342 0.145182,0.181373 0.302709,0.352174 0.447743,0.533726 0.09596,0.126579 0.19688,0.250347 0.27843,0.386705 0.149337,0.188177 0.289707,0.361115 0.28189,0.61729 -0.02913,0.07013 -0.0354,0.155039 -0.08738,0.210395 -0.19936,0.21229 -0.408262,0.12133 -0.635534,0.06927 -0.191872,-0.04614 -0.381702,-0.08267 -0.578985,-0.100276 -0.198635,-0.0334 -0.393623,-0.06026 -0.596172,-0.04456 -0.216686,0 -0.433373,0 -0.65006,0 -0.216614,0 -0.433229,0 -0.649844,0 -0.216279,0 -0.432557,0 -0.648836,0 -0.21952,0 -0.439041,-1e-6 -0.658561,-3e-6 -0.254148,-2e-6 -0.508296,-6e-6 -0.762444,-3e-6 -0.276562,9e-6 -0.553125,1.5e-5 -0.8296876,1.64e-4 -0.332466,1.95e-4 -0.6649318,5.22e-4 -0.9973976,8.47e-4 -0.3529743,1.37e-4 -0.7059901,4.47e-4 -1.0589015,-0.0072 -0.4404691,-0.01178 -0.8808735,-0.0335 -1.3187662,-0.0847 -0.4068468,-0.04538 -0.8151427,-0.07332 -1.2212215,-0.125695 -0.4313406,-0.04629 -0.8670091,-0.04695 -1.2983278,-0.0972 -0.355411,-0.02634 -0.7144852,-0.02119 -1.0652567,-0.0935 -0.3729609,-0.09209 -0.7793356,-0.250479 -0.5878863,-0.734064 0.075013,-0.141729 0.1488538,-0.283916 0.2143791,-0.430176 0.069928,-0.13637 0.1386308,-0.274158 0.1879403,-0.419365 0.059936,-0.151856 0.1001965,-0.310667 0.1767574,-0.455793 0.058251,-0.161601 0.1480062,-0.304807 0.2010905,-0.467781 0.062331,-0.246156 0.1545437,-0.482772 0.2565946,-0.715034 0.1075796,-0.221333 0.2257568,-0.436964 0.3230542,-0.662959 0.1055195,-0.225918 0.214185,-0.44934 0.3419342,-0.663873 0.1075006,-0.174411 0.2078401,-0.354017 0.3093056,-0.531962 0.091304,-0.164517 0.1709391,-0.339024 0.2365397,-0.515204 0.068695,-0.166738 0.1198008,-0.340597 0.2109791,-0.497466 0.087866,-0.216395 0.2064071,-0.419815 0.2714742,-0.645396 0.1203059,-0.317127 0.2455264,-0.632886 0.3530433,-0.954486 0.1114834,-0.445933 0.7421286,-0.288272 0.6306452,0.157662 z"
       inkscape:connector-curvature="0"
       transform="translate(0,988.3622)" />
    <path
       style="fill:#000000;fill-opacity:1;stroke:none"
       id="path2991"
       d="m 5.6799888,1043.5876 c -0.125487,-0.3793 -0.2569229,-0.7517 -0.4061974,-1.1124 -0.1084619,-0.237 -0.1767547,-0.5003 -0.2604405,-0.7545 -0.077191,-0.19 -0.1310109,-0.3983 -0.2001363,-0.5945 -0.065347,-0.2318 -0.1241919,-0.4679 -0.1793649,-0.7055 -0.060993,-0.1951 -0.1301117,-0.3842 -0.1883235,-0.5813 -0.054535,-0.2337 -0.1215546,-0.4611 -0.1829155,-0.6916 -0.097073,-0.23 -0.1539706,-0.4882 -0.2157627,-0.7409 -0.046056,-0.2791 -0.1179747,-0.5462 -0.1649843,-0.825 -0.062011,-0.2155 -0.1242704,-0.4307 -0.1885438,-0.6451 -0.077041,-0.2583 -0.1112647,-0.535 -0.1952291,-0.7892 -0.086418,-0.2868 -0.1517405,-0.5877 -0.2099752,-0.8889 -0.087086,-0.2298 -0.1038524,-0.4949 -0.1624159,-0.7374 -0.044183,-0.2321 -0.1184961,-0.4448 -0.1657594,-0.6758 -0.083987,-0.2075 -0.092875,-0.4528 -0.1464681,-0.6739 -0.06012,-0.186 -0.1081183,-0.3865 -0.1722799,-0.571 -0.080891,-0.2307 -0.1064814,-0.4867 -0.1615192,-0.73 -0.028602,-0.23 -0.092938,-0.4361 -0.1589189,-0.6469 -0.081136,-0.2693 -0.1162193,-0.5642 -0.1943336,-0.8344 -0.060041,-0.2462 -0.1438761,-0.4746 -0.1979058,-0.7241 -0.068226,-0.2492 -0.1032006,-0.5114 -0.1632843,-0.7642 -0.030404,-0.2127 -0.081167,-0.4021 -0.1547872,-0.5881 -0.076424,-0.2444 -0.154398,-0.4876 -0.2056361,-0.7462 -0.058186,-0.1994 -0.1358179,-0.3792 -0.1884102,-0.5839 -0.074052,-0.2006 -0.1125807,-0.4209 -0.1699607,-0.6314 -0.034501,-0.2083 -0.0862735,-0.395 -0.15939814,-0.5783 -0.0793874,-0.2054 -0.11602007,-0.443 -0.19631534,-0.6471 -0.0505867,-0.1926 -0.12114318,-0.363 -0.19993743,-0.5323 -0.0693847,-0.2065 -0.13437369,-0.41 -0.21790162,-0.6048 -0.13864812,-0.2621 -0.20254594,-0.5715 -0.2419189,-0.8912 -0.01387759,-0.3219 0.02780167,-0.6386 0.09933872,-0.9419 0.0645618,-0.2859 0.16078254,-0.5581 0.25793388,-0.8238 0.0787441,-0.2218 0.15016012,-0.4492 0.23170563,-0.6688 0.0782784,-0.1928 0.16362216,-0.3787 0.24294828,-0.571 0.0778283,-0.1751 0.12176084,-0.3686 0.17636722,-0.559 0.079572,-0.2255 0.1788825,-0.4381 0.2480775,-0.6708 0.078194,-0.2147 0.1735788,-0.4117 0.2546605,-0.6237 0.086213,-0.2411 0.1565975,-0.4918 0.2359876,-0.7376 0.096055,-0.1946 0.1535938,-0.4145 0.221583,-0.6301 0.041495,-0.2262 0.1534182,-0.4016 0.2219337,-0.6076 0.057773,-0.2057 0.1207324,-0.4091 0.1883838,-0.6089 0.045776,-0.232 0.1177642,-0.4444 0.2023197,-0.6516 0.058024,-0.1959 0.1129978,-0.394 0.1704523,-0.5906 0.092391,-0.2256 0.1911375,-0.447 0.2554498,-0.6933 0.083226,-0.2543 0.1556208,-0.5125 0.2617162,-0.7493 0.067571,-0.1609 0.1231432,-0.337 0.1669004,-0.5151 0.084461,-0.234 0.1605988,-0.4733 0.243434,-0.7081 0.062963,-0.2019 0.1206219,-0.4098 0.1691404,-0.6204 0.074289,-0.2547 0.1738934,-0.491 0.259197,-0.7379 0.08624,-0.2892 0.1809007,-0.5749 0.2812654,-0.8546 0.069193,-0.212 0.1319783,-0.4311 0.1838869,-0.6536 0.093075,-0.266 0.1667065,-0.5424 0.2468855,-0.8163 0.065574,-0.2431 0.1164972,-0.4906 0.1942061,-0.7272 0.063318,-0.2243 0.1238302,-0.4521 0.1762626,-0.6826 0.077436,-0.2182 0.1253723,-0.4516 0.1894608,-0.6776 0.092789,-0.2174 0.1640601,-0.4505 0.2435349,-0.678 0.085563,-0.2444 0.1789647,-0.4815 0.2561839,-0.7323 0.074815,-0.2329 0.1294098,-0.4761 0.1932973,-0.7151 0.07574,-0.2095 0.1411326,-0.4235 0.2086615,-0.6386 0.060819,-0.2212 0.1091541,-0.4464 0.1806569,-0.6621 0.081422,-0.2495 0.1390274,-0.513 0.213217,-0.7666 0.069074,-0.2493 0.1205702,-0.5027 0.2101542,-0.7396 0.065201,-0.1758 0.1230946,-0.361 0.1690971,-0.5498 0.03031,-0.2422 0.1326487,-0.4406 0.2011414,-0.65939 0.056099,-0.21348 0.1205578,-0.42305 0.1899647,-0.62847 0.044493,-0.22048 0.1579791,-0.38914 0.2259498,-0.59108 0.069782,-0.18055 0.1208069,-0.37358 0.180872,-0.56129 0.184394,-0.57564 0.7473636,-0.19855 0.5629696,0.37709 l 0,0 c -0.064922,0.20249 -0.1201648,0.41095 -0.1961081,0.60561 -0.072126,0.18916 -0.1676374,0.35696 -0.2163138,0.56377 -0.06862,0.20279 -0.1316079,0.40916 -0.1872203,0.62026 -0.065151,0.1928 -0.1505932,0.3679 -0.1789551,0.5832 -0.06159,0.2365 -0.1311331,0.4715 -0.2156019,0.6925 -0.095749,0.1864 -0.092935,0.4485 -0.1771226,0.6454 -0.083113,0.262 -0.1333354,0.546 -0.2250015,0.8034 -0.073883,0.2091 -0.106913,0.4373 -0.1763508,0.6492 -0.068417,0.194 -0.1217459,0.4009 -0.194396,0.5913 -0.073806,0.2444 -0.1223669,0.5069 -0.2030412,0.7482 -0.082345,0.2629 -0.1786912,0.5141 -0.2688836,0.7707 -0.072432,0.2048 -0.1321584,0.4222 -0.2226445,0.612 -0.058901,0.2077 -0.100522,0.4249 -0.1753576,0.6228 -0.062678,0.2662 -0.1300219,0.531 -0.2064135,0.7893 -0.077802,0.2222 -0.1121352,0.4649 -0.1828958,0.6916 -0.077958,0.2503 -0.137384,0.5131 -0.2301396,0.7541 -0.064644,0.2642 -0.1361904,0.5268 -0.2213825,0.7783 -0.1020679,0.2714 -0.1885296,0.5572 -0.2757386,0.8392 -0.07357,0.2099 -0.1539445,0.4146 -0.22639,0.6252 -0.060947,0.2525 -0.1274144,0.504 -0.2064088,0.7456 -0.075231,0.1978 -0.1300844,0.4121 -0.2118096,0.6057 -0.064588,0.2438 -0.1380169,0.4879 -0.2358348,0.7074 -0.093437,0.1661 -0.1183141,0.3918 -0.1966487,0.5716 -0.069745,0.2505 -0.153613,0.4971 -0.2623053,0.7174 -0.069424,0.2313 -0.1298353,0.4679 -0.2067053,0.6942 -0.076705,0.1879 -0.1328293,0.3814 -0.1795167,0.5905 -0.070055,0.2064 -0.1339434,0.4164 -0.1953386,0.6287 -0.070483,0.189 -0.1639816,0.3576 -0.2077912,0.5658 -0.068595,0.2166 -0.1248204,0.4439 -0.2237697,0.6369 -0.08542,0.2642 -0.1611873,0.5339 -0.2552583,0.7923 -0.073229,0.1912 -0.1552546,0.3709 -0.2319966,0.5583 -0.072154,0.2253 -0.157775,0.4424 -0.2438088,0.6568 -0.071944,0.2219 -0.1222124,0.4585 -0.2147717,0.6671 -0.076624,0.1825 -0.1580482,0.3602 -0.2320839,0.5438 -0.087564,0.2098 -0.1442066,0.4463 -0.22812462,0.6595 -0.084892,0.2186 -0.161715,0.4511 -0.2169479,0.6885 -0.0390949,0.1631 -0.0602091,0.3274 -0.0745554,0.4993 0.0231834,0.2103 0.0628094,0.4014 0.15780907,0.57 0.0791843,0.1852 0.15270928,0.3731 0.20560995,0.5772 0.09253,0.1999 0.1770413,0.4036 0.2385995,0.6279 0.065794,0.1972 0.1211607,0.4017 0.1799376,0.6032 0.088088,0.2209 0.1589141,0.4483 0.1991663,0.6976 0.060091,0.2204 0.101972,0.449 0.1774594,0.6604 0.049481,0.2259 0.1639018,0.4109 0.2017874,0.6454 0.033274,0.1882 0.098326,0.3585 0.1460478,0.5391 0.092787,0.2345 0.1637766,0.4771 0.2030729,0.7423 0.062562,0.2637 0.1009186,0.5359 0.1704557,0.7963 0.044232,0.2281 0.1336924,0.4308 0.1819844,0.6574 0.067596,0.2601 0.1163611,0.5296 0.1816701,0.7909 0.074713,0.2395 0.1484033,0.4782 0.1833041,0.7378 0.047714,0.2114 0.071302,0.4321 0.1357007,0.6346 0.068973,0.2263 0.1370971,0.4538 0.2015956,0.6824 0.046317,0.2324 0.072806,0.4713 0.1497302,0.6898 0.041614,0.2246 0.1244128,0.4278 0.1614744,0.6551 0.052671,0.2572 0.086585,0.5212 0.1681407,0.7655 0.048221,0.2554 0.1041259,0.51 0.1757551,0.7535 0.081897,0.2636 0.1333851,0.5391 0.2015227,0.8097 0.077268,0.2618 0.159396,0.5212 0.2220238,0.7912 0.039633,0.2488 0.1092469,0.485 0.1466022,0.7348 0.059788,0.2462 0.118081,0.4915 0.2098644,0.7177 0.058912,0.2228 0.1230734,0.4431 0.1764642,0.6683 0.060128,0.2196 0.1461064,0.4234 0.2046501,0.6446 0.045478,0.2041 0.098043,0.4055 0.1516068,0.6049 0.064901,0.2066 0.126144,0.4121 0.2048542,0.6093 0.068369,0.2271 0.131336,0.4526 0.2267725,0.6612 0.151361,0.3658 0.2873259,0.7418 0.4124844,1.1279 0.2176622,0.5508 -0.3210244,0.9959 -0.5386866,0.4451 z"
       inkscape:connector-curvature="0" />
    <path
       style="fill:#000000;fill-opacity:1;stroke:none"
       id="path2991-1"
       d="m 10.261659,1043.2468 c 0.125488,-0.3794 0.256923,-0.7518 0.406198,-1.1124 0.108461,-0.237 0.176754,-0.5004 0.26044,-0.7545 0.07719,-0.1901 0.13101,-0.3983 0.200136,-0.5946 0.06535,-0.2317 0.124192,-0.4679 0.179364,-0.7054 0.061,-0.1952 0.130112,-0.3842 0.188324,-0.5813 0.05454,-0.2337 0.121555,-0.4611 0.182915,-0.6916 0.09708,-0.2301 0.153972,-0.4883 0.215763,-0.7409 0.04605,-0.2792 0.117975,-0.5461 0.164985,-0.8251 0.06201,-0.2154 0.12427,-0.4307 0.188544,-0.6451 0.07704,-0.2582 0.111265,-0.535 0.19523,-0.7891 0.08641,-0.2868 0.15174,-0.5877 0.209974,-0.889 0.08708,-0.2298 0.103853,-0.4949 0.162416,-0.7374 0.04418,-0.232 0.118497,-0.4447 0.16576,-0.6757 0.08398,-0.2075 0.09287,-0.4529 0.146468,-0.674 0.06012,-0.1859 0.108118,-0.3864 0.17228,-0.571 0.08089,-0.2306 0.106481,-0.4866 0.16152,-0.7299 0.0286,-0.2301 0.09294,-0.4362 0.158918,-0.6469 0.08113,-0.2693 0.116219,-0.5642 0.194334,-0.8344 0.06004,-0.2463 0.143875,-0.4747 0.197905,-0.7241 0.06822,-0.2492 0.103202,-0.5115 0.163285,-0.7642 0.03041,-0.2128 0.08116,-0.4022 0.154787,-0.5882 0.07642,-0.2443 0.154398,-0.4876 0.205636,-0.7461 0.05819,-0.1995 0.135818,-0.3793 0.188409,-0.584 0.07406,-0.2006 0.112582,-0.4209 0.169962,-0.6314 0.0345,-0.2083 0.08627,-0.395 0.159398,-0.5783 0.07939,-0.2053 0.11602,-0.4429 0.196316,-0.647 0.05059,-0.1927 0.121142,-0.363 0.199937,-0.5323 0.06938,-0.2065 0.134374,-0.4101 0.217902,-0.6048 0.138647,-0.2621 0.202545,-0.5715 0.241918,-0.8912 0.01388,-0.322 -0.0278,-0.6387 -0.09934,-0.9419 -0.06456,-0.2859 -0.160783,-0.5582 -0.257933,-0.8239 -0.07874,-0.2218 -0.150161,-0.4491 -0.231706,-0.6688 -0.07828,-0.1928 -0.163622,-0.3787 -0.242949,-0.571 -0.07783,-0.175 -0.121761,-0.3686 -0.176367,-0.5589 -0.07957,-0.2256 -0.178882,-0.4382 -0.248078,-0.6709 -0.07819,-0.2146 -0.173577,-0.4116 -0.254659,-0.6236 -0.08621,-0.2412 -0.156598,-0.4919 -0.235988,-0.7377 -0.09605,-0.1946 -0.153594,-0.4145 -0.221583,-0.63 -0.0415,-0.2262 -0.153418,-0.4017 -0.221934,-0.6076 -0.05777,-0.2058 -0.120731,-0.4092 -0.188383,-0.6089 -0.04578,-0.232 -0.117764,-0.4444 -0.202321,-0.6516 -0.05802,-0.196 -0.112997,-0.394 -0.170451,-0.5906 -0.09239,-0.2256 -0.191138,-0.447 -0.255451,-0.6933 -0.08323,-0.2544 -0.155621,-0.5125 -0.261716,-0.7493 -0.06758,-0.161 -0.123143,-0.3371 -0.1669,-0.5151 -0.08446,-0.2341 -0.160599,-0.4734 -0.243434,-0.7082 -0.06296,-0.2019 -0.120622,-0.4097 -0.16914,-0.6204 -0.0743,-0.2547 -0.173894,-0.491 -0.259198,-0.7378 -0.08624,-0.2893 -0.1809,-0.575 -0.281265,-0.8547 -0.0692,-0.2119 -0.131979,-0.4311 -0.183888,-0.6537 -0.09308,-0.2658 -0.166706,-0.5422 -0.246884,-0.8162 -0.06557,-0.2431 -0.116497,-0.4907 -0.194206,-0.7272 -0.06332,-0.2243 -0.123832,-0.452 -0.176263,-0.6826 -0.07743,-0.2181 -0.125372,-0.4515 -0.189461,-0.6776 -0.09279,-0.2173 -0.16406,-0.4505 -0.243534,-0.6779 -0.08556,-0.2444 -0.178965,-0.4815 -0.256185,-0.7323 -0.074817,-0.233 -0.1294091,-0.4762 -0.193297,-0.7151 -0.075744,-0.2096 -0.141133,-0.4236 -0.2086619,-0.6387 -0.060817,-0.2211 -0.1091538,-0.4464 -0.180657,-0.6621 -0.081422,-0.2494 -0.1390274,-0.513 -0.2132164,-0.7667 -0.069073,-0.2492 -0.1205706,-0.5026 -0.2101546,-0.7395 -0.065198,-0.1758 -0.1230942,-0.361 -0.1690969,-0.5498 -0.030312,-0.24209 -0.1326489,-0.44056 -0.2011418,-0.65932 -0.056102,-0.21351 -0.1205573,-0.42315 -0.1899647,-0.62852 -0.044496,-0.22041 -0.1579786,-0.38907 -0.2259494,-0.59113 -0.069778,-0.18052 -0.1208073,-0.37347 -0.1808717,-0.56117 -0.1843945,-0.57567 -0.7473637,-0.19861 -0.5629702,0.37706 l 0,0 c 0.06492,0.20247 0.1201649,0.41088 0.1961082,0.60562 0.072126,0.18908 0.1676375,0.35691 0.2163136,0.56379 0.068624,0.20275 0.1316087,0.40908 0.1872206,0.62025 0.065149,0.19262 0.1505931,0.36782 0.1789551,0.58312 0.06159,0.2366 0.1311333,0.4716 0.2156016,0.6926 0.09575,0.1863 0.092933,0.4485 0.1771226,0.6453 0.083112,0.262 0.1333362,0.546 0.2250018,0.8034 0.073883,0.2091 0.1069127,0.4373 0.1763505,0.6492 0.068414,0.1941 0.1217465,0.401 0.194396,0.5913 0.073806,0.2444 0.1223668,0.5069 0.2030412,0.7482 0.082349,0.2629 0.1786917,0.5141 0.2688838,0.7707 0.072432,0.2048 0.1321584,0.4223 0.2226444,0.6121 0.058897,0.2077 0.1005222,0.4248 0.1753582,0.6227 0.06267,0.2662 0.130022,0.531 0.206413,0.7893 0.07781,0.2222 0.112135,0.4649 0.182896,0.6916 0.07796,0.2504 0.137384,0.5132 0.23014,0.7541 0.06465,0.2642 0.13619,0.5269 0.221382,0.7783 0.102068,0.2715 0.18853,0.5572 0.275739,0.8392 0.07357,0.2099 0.153944,0.4146 0.22639,0.6252 0.06095,0.2525 0.127413,0.504 0.206408,0.7455 0.07523,0.198 0.130084,0.4123 0.21181,0.6058 0.06459,0.2437 0.138017,0.4879 0.235835,0.7073 0.09344,0.1662 0.118314,0.392 0.196649,0.5717 0.06974,0.2505 0.153613,0.4971 0.262305,0.7175 0.06942,0.2312 0.129835,0.4679 0.206706,0.6941 0.0767,0.1879 0.132829,0.3815 0.179517,0.5905 0.07005,0.2064 0.133943,0.4165 0.195337,0.6288 0.07049,0.189 0.163982,0.3576 0.207792,0.5658 0.06859,0.2166 0.12482,0.4439 0.223769,0.6368 0.08543,0.2642 0.161188,0.534 0.255258,0.7924 0.07322,0.1911 0.155256,0.3708 0.231998,0.5583 0.07216,0.2252 0.157775,0.4423 0.243808,0.6568 0.07195,0.2218 0.122213,0.4585 0.214772,0.667 0.07662,0.1825 0.158048,0.3602 0.232085,0.5439 0.08756,0.2098 0.144205,0.4462 0.228124,0.6595 0.08489,0.2186 0.161715,0.451 0.216947,0.6885 0.0391,0.163 0.06021,0.3273 0.07455,0.4992 -0.02318,0.2104 -0.06281,0.4015 -0.157808,0.5701 -0.07918,0.1852 -0.152709,0.373 -0.205609,0.5771 -0.09254,0.2 -0.177042,0.4036 -0.238601,0.628 -0.0658,0.1972 -0.12116,0.4016 -0.179936,0.6031 -0.08809,0.2209 -0.158915,0.4485 -0.199167,0.6976 -0.06009,0.2205 -0.101972,0.4489 -0.17746,0.6605 -0.04947,0.226 -0.163901,0.4109 -0.201787,0.6452 -0.03328,0.1883 -0.09833,0.3586 -0.146048,0.5393 -0.09278,0.2345 -0.163777,0.4771 -0.203073,0.7422 -0.06257,0.2638 -0.100918,0.5359 -0.170456,0.7964 -0.04423,0.2281 -0.133691,0.4307 -0.181984,0.6574 -0.06759,0.2601 -0.116361,0.5295 -0.18167,0.7909 -0.07471,0.2393 -0.148403,0.4783 -0.183304,0.7377 -0.04771,0.2115 -0.07131,0.4322 -0.135701,0.6346 -0.06898,0.2264 -0.137096,0.4538 -0.201595,0.6824 -0.04632,0.2324 -0.07281,0.4713 -0.14973,0.6899 -0.04161,0.2246 -0.124413,0.4277 -0.161475,0.655 -0.05267,0.2573 -0.08659,0.5213 -0.16814,0.7656 -0.04822,0.2554 -0.104126,0.51 -0.175755,0.7535 -0.0819,0.2636 -0.133385,0.539 -0.201523,0.8097 -0.07727,0.2618 -0.159395,0.5211 -0.222024,0.7912 -0.03964,0.2487 -0.109247,0.4849 -0.146601,0.7348 -0.05978,0.2461 -0.118081,0.4914 -0.209864,0.7177 -0.05892,0.2228 -0.123075,0.4431 -0.176465,0.6683 -0.06013,0.2196 -0.146106,0.4234 -0.204651,0.6445 -0.04548,0.2042 -0.09804,0.4055 -0.151607,0.605 -0.0649,0.2066 -0.126145,0.4121 -0.204855,0.6093 -0.06837,0.227 -0.131336,0.4526 -0.226772,0.6611 -0.1513608,0.3659 -0.2873263,0.7418 -0.4124849,1.1279 -0.2176622,0.5508 0.3210239,0.9959 0.5386879,0.4452 z"
       inkscape:connector-curvature="0" />
    <path
       style="fill:#000000;fill-opacity:1;stroke:none"
       id="path3017"
       d="m 6.8255688,6.7905675 c 0,0.3303004 0,0.6606009 0,0.9909013 0.027391,0.2335551 0.065619,0.465356 0.087344,0.6996254 0.055646,0.1371332 0.037746,0.3098344 0.120577,0.4343285 0.091421,0.02601 0.192297,0.031616 0.2873463,0.0401 0.222833,0.013795 0.446265,0.010809 0.6693954,0.00962 0.2280517,-0.01593 0.4496134,0.0081 0.6727217,0.052602 0.1837666,0.016779 0.3561785,0.083429 0.5353282,0.1220118 0.1781424,0.031886 0.3596874,0.034852 0.540121,0.038327 0.1154138,-0.02826 0.01034,-0.00484 -0.00408,-0.010539 -0.018368,-0.00726 9.581e-4,-0.039582 0.00376,-0.059133 0.021233,-0.1840247 0.017507,-0.3698704 0.016804,-0.5547985 0.0016,-0.2022408 0.00423,-0.4017118 -0.029872,-0.6011366 -0.044325,-0.2273065 -0.063975,-0.4578705 -0.075193,-0.6888345 -0.00838,-0.2217154 -0.00804,-0.4436342 -0.00813,-0.6654711 -0.029692,-0.1202099 -0.00528,-0.023172 -0.011955,-0.00426 -0.00645,0.018276 -0.03886,-5.382e-4 -0.058052,-0.00323 -0.1882351,-0.021235 -0.3782835,-0.016973 -0.567392,-0.016265 -0.2936752,0.0019 -0.5873547,0.00288 -0.8810348,0.00356 -0.2451837,5.058e-4 -0.490368,5.692e-4 -0.7355522,6.002e-4 -0.2174247,9.2e-6 -0.4348494,-8.9e-6 -0.6522741,-1.77e-5 -0.1080643,-4.2e-6 -0.2161286,-6e-6 -0.3241929,-7.9e-6 -0.4596577,-7.9e-6 -0.4596466,-0.650062 1.11e-5,-0.6500541 l 0,0 c 0.1080693,1.8e-6 0.2161386,3.7e-6 0.3242079,7.9e-6 0.2173886,8.7e-6 0.4347773,2.69e-5 0.6521659,1.76e-5 0.2447124,-3.09e-5 0.489425,-9.39e-5 0.734137,-5.985e-4 0.2933766,-6.756e-4 0.5867526,-0.00166 0.8801243,-0.00356 0.236944,-8.682e-4 0.4757293,-0.00661 0.7104013,0.031648 0.3516982,0.087152 0.5565862,0.2612159 0.5794592,0.6418925 8.4e-5,0.2115435 -3.06e-4,0.4231629 0.0074,0.6345992 0.0097,0.2054022 0.02698,0.4104057 0.06699,0.6124608 0.03873,0.234518 0.04297,0.4687857 0.03882,0.7062123 8.59e-4,0.2330599 0.0058,0.4679099 -0.03237,0.6986518 C 10.284657,9.6030263 10.109312,9.8098248 9.725693,9.8280131 9.5023289,9.8235844 9.2777074,9.8178504 9.0578051,9.7744506 8.882887,9.7350136 8.7152535,9.6722364 8.535761,9.6552338 8.3550784,9.6191739 8.1792534,9.5990059 7.9936905,9.6151873 7.7487785,9.6164884 7.5034936,9.6196222 7.258996,9.6026289 6.9353593,9.5702437 6.6305769,9.5018997 6.4502121,9.2024032 6.3550349,8.991797 6.3108298,8.7666998 6.2655856,8.5405762 6.2424895,8.286532 6.1943877,8.035899 6.1755146,7.7814688 c 0,-0.3303004 0,-0.6606009 0,-0.9909013 0,-0.4596577 0.6500542,-0.4596577 0.6500542,0 z"
       inkscape:connector-curvature="0"
       transform="translate(0,988.3622)" />
    <path
       style="fill:#5f8dd3;fill-opacity:1;stroke:none"
       d="M 6.6665764,6.4689663 C 6.657064,7.2323954 6.6083472,8.0953012 6.8900325,8.8287984 7.2937175,9.2906472 8.0292075,8.9842296 8.5524106,9.1707539 8.9587735,9.2130162 9.8477768,9.5348123 9.8592904,8.8491126 9.8536147,8.0454723 9.8725628,7.1943047 9.6426056,6.4317236 8.6722764,6.3998789 7.6178841,6.3261935 6.6665764,6.4689663 z"
       id="path3029"
       inkscape:connector-curvature="0"
       transform="translate(0,988.3622)" />
    <path
       style="fill:#5f8dd3;fill-opacity:1;stroke:none"
       d="m 7.9442534,999.63547 c -0.6232628,1.66143 -1.0380554,3.44423 -1.5958674,5.14783 -1.1621087,3.9966 -2.4066377,7.9524 -3.7447469,11.9012 -0.6222029,2.0336 -1.5547633,3.9847 -2.02702669,6.0685 0.0110002,1.0964 0.66151259,2.0471 0.85751209,3.1 1.5152314,5.2157 2.4805926,10.5961 4.1054712,15.7756 0.2736588,0.5622 0.3142219,1.3101 0.7243185,1.7772 0.6073612,0.072 1.2286696,-0.2169 1.8544263,-0.1925 0.5325754,-0.1099 1.082679,0.064 1.5999632,0 1.8259953,-4.8121 2.6922833,-9.9492 4.0392773,-14.9208 0.452707,-1.9165 1.083706,-3.7677 1.648025,-5.6405 -0.115397,-1.2767 -0.779285,-2.4485 -1.149819,-3.6604 -1.701926,-4.907 -3.337638,-9.8398 -4.7450449,-14.8396 -0.4752243,-1.4838 -0.8514861,-3.0233 -1.367109,-4.47159 -0.033504,-0.0928 -0.1331317,-0.0268 -0.1993797,-0.041 z"
       id="path3031"
       inkscape:connector-curvature="0" />
    <path
       style="fill:#5f8dd3;fill-opacity:1;stroke:none"
       d="m 8.7555525,55.158701 c -1.0065604,0.08185 -2.047974,0.204803 -2.9929966,0.532072 -0.808935,2.024151 -1.9274844,3.95558 -2.7076862,6.01448 -0.1563003,0.273063 -0.4758834,0.868571 0.06688,0.888442 3.8214865,0.343992 7.6699603,0.315776 11.5012193,0.399513 0.445169,-0.281939 -0.148694,-0.757524 -0.311094,-1.036267 C 12.773544,59.99208 11.215662,58.03883 10.017376,55.845654 9.9252603,55.154397 9.3554211,55.057704 8.772639,55.157777 l -0.017086,9.24e-4 z"
       id="path3033"
       inkscape:connector-curvature="0"
       transform="translate(0,988.3622)" />
    <path
       style="fill:#000000;fill-opacity:1;stroke:none"
       id="path3035"
       d="m 4.5318138,33.334436 c -0.1557648,0.06149 -0.3116506,0.130051 -0.4488525,0.227202 -0.066558,0.06004 -0.072584,0.146949 -0.080191,0.231067 -0.00101,0.09649 -0.022034,0.20409 0.024773,0.293409 0.030386,0.08526 0.080115,0.157266 0.1320157,0.230055 0.062537,0.0712 0.1231657,0.143361 0.1940116,0.206726 0.083493,0.08493 0.1763213,0.158063 0.2679985,0.233571 0.08664,0.05811 0.1744682,0.116171 0.2661833,0.166443 0.1446405,0.08065 0.2034751,0.216578 0.2332848,0.371751 0.031072,0.139789 -0.020835,0.260564 -0.072208,0.386255 -0.050628,0.108249 -0.1056253,0.214746 -0.1656373,0.318064 -0.063517,0.138012 -0.1817528,0.201979 -0.3229708,0.23677 -0.121946,0.02204 -0.2451384,0.01372 -0.3664214,0.03837 -0.1241686,0.02838 -0.2510968,0.03823 -0.377972,0.04427 -0.022311,6.85e-4 -0.044621,0.0014 -0.066932,0.0021 -0.1885486,0.0057 -0.1966615,-0.260911 -0.00811,-0.266648 l 0,0 c 0.020834,-6.28e-4 0.041668,-0.0013 0.062502,-0.0019 0.1135537,-0.0053 0.2271867,-0.01365 0.3382676,-0.03939 0.1190985,-0.02345 0.2384039,-0.0233 0.3586564,-0.0367 0.07734,-0.01565 0.1208852,-0.03462 0.1535236,-0.112909 0.055649,-0.09079 0.1010873,-0.18812 0.1483545,-0.283409 0.03253,-0.07878 0.075545,-0.148173 0.056503,-0.237 -0.012868,-0.07718 -0.026735,-0.145291 -0.1002368,-0.186302 -0.1056391,-0.05912 -0.2082838,-0.124725 -0.3070686,-0.194376 -0.094327,-0.07891 -0.1908766,-0.154436 -0.2776304,-0.241955 -0.08346,-0.0773 -0.1587449,-0.161684 -0.231476,-0.249059 -0.063251,-0.08916 -0.1224874,-0.179437 -0.1610999,-0.282604 -0.051622,-0.13649 -0.058255,-0.276418 -0.043836,-0.421225 0.016743,-0.164705 0.05646,-0.317833 0.1938335,-0.424652 0.153707,-0.104804 0.3219566,-0.186816 0.4956514,-0.25309 0.1733837,-0.07431 0.2784701,0.170894 0.1050864,0.245201 z"
       inkscape:connector-curvature="0"
       transform="translate(0,988.3622)" />
    <path
       style="fill:#000000;fill-opacity:1;stroke:none"
       id="path3037"
       d="m 5.3334686,35.989016 c 0.1078873,-0.180796 0.2440198,-0.341907 0.361719,-0.515955 0.090878,-0.118517 0.1736051,-0.24311 0.2656823,-0.360626 0.075716,-0.10579 0.1563175,-0.207747 0.233072,-0.312701 0.058897,-0.08729 0.1080123,-0.178475 0.1500816,-0.275006 0.060442,-0.09475 0.095735,-0.200629 0.1398929,-0.303122 0.032531,-0.111004 0.093172,-0.209695 0.1385992,-0.315094 0.036079,-0.101792 0.078878,-0.20129 0.1257974,-0.298586 0.029504,-0.09756 0.099678,-0.173587 0.1449135,-0.262687 0.044787,-0.08762 0.072002,-0.181539 0.1070042,-0.273012 0.1103278,-0.212077 0.2650865,-0.130979 0.3476786,0.03644 0.030185,0.111418 0.052003,0.224067 0.079886,0.336361 0.014172,0.113027 0.052881,0.219663 0.077313,0.330496 0.011718,0.109045 0.064565,0.206052 0.1014538,0.307722 0.027322,0.120439 0.0703,0.236151 0.098065,0.35649 0.010558,0.115233 0.046249,0.224715 0.069165,0.337626 0.023327,0.131133 0.026356,0.264584 0.028799,0.397396 0.00157,0.133955 0.00106,0.267923 8.595e-4,0.401884 0.00878,0.134674 -0.00658,0.265035 -0.033211,0.396584 -0.03743,0.184885 -0.2988967,0.131951 -0.2614671,-0.05293 l 0,0 c 0.023183,-0.114502 0.036969,-0.226466 0.027907,-0.344043 1.952e-4,-0.132208 6.985e-4,-0.264424 -8.154e-4,-0.396626 -0.00211,-0.116827 -0.00417,-0.234248 -0.023626,-0.349755 -0.02191,-0.110643 -0.057992,-0.218104 -0.067753,-0.331023 -0.024475,-0.109928 -0.066014,-0.214998 -0.08896,-0.325331 -0.040086,-0.112767 -0.098311,-0.220377 -0.1110939,-0.341286 -0.023167,-0.108342 -0.062379,-0.212612 -0.075595,-0.323109 -0.023873,-0.09681 -0.048214,-0.192832 -0.064294,-0.291181 -0.014581,-0.05343 0.1019496,0.01566 0.1533721,-0.0606 0.00303,-0.0045 -0.00642,0.0087 -0.00964,0.01306 -0.04155,0.09912 -0.068811,0.204467 -0.1195763,0.300205 -0.046428,0.08493 -0.1092303,0.160156 -0.1401111,0.253217 -0.04556,0.09443 -0.086868,0.190856 -0.1217548,0.289802 -0.046394,0.104524 -0.1046862,0.203338 -0.1379413,0.313581 -0.044387,0.102917 -0.07949,0.210098 -0.1406802,0.304929 -0.050493,0.113957 -0.1091172,0.222396 -0.1792544,0.325499 -0.079001,0.1072 -0.1607821,0.212197 -0.2387935,0.32021 -0.089163,0.111541 -0.1661016,0.232553 -0.2542314,0.345003 -0.1194364,0.17549 -0.2557257,0.339016 -0.3653868,0.521223 -0.1096423,0.153499 -0.3267231,-0.0016 -0.2170808,-0.155058 z"
       inkscape:connector-curvature="0"
       transform="translate(0,988.3622)" />
    <path
       style="fill:#000000;fill-opacity:1;stroke:none"
       id="path3039"
       d="m 6.549572,34.797539 c 0.1985206,0.01535 0.3938881,0.0444 0.5890461,0.08291 0.1295669,0.02686 0.261553,0.03531 0.3934581,0.03979 0.021397,4.32e-4 0.042795,8.65e-4 0.064192,0.0013 0.1885966,0.0038 0.1831514,0.270566 -0.00545,0.266715 l 0,0 c -0.022639,-4.66e-4 -0.045277,-9.33e-4 -0.067916,-0.0014 -0.1461604,-0.0051 -0.2923606,-0.015 -0.4359266,-0.04468 -0.1890472,-0.0373 -0.3781346,-0.06519 -0.5704981,-0.07992 -0.1871792,-0.0234 -0.1540902,-0.288109 0.033089,-0.264711 z"
       inkscape:connector-curvature="0"
       transform="translate(0,988.3622)" />
    <path
       style="fill:#000000;fill-opacity:1;stroke:none"
       id="path3041"
       d="m 8.4831401,33.457974 c 0.09594,0.163459 0.189584,0.327823 0.2728625,0.498258 0.041521,0.124981 0.1166187,0.232741 0.1757338,0.348853 0.044085,0.09831 0.078496,0.201615 0.1303768,0.296245 0.078443,0.12077 0.093984,0.263056 0.1334165,0.397363 0.037092,0.115463 0.053962,0.235307 0.083495,0.352665 0.02103,0.122271 0.048874,0.241345 0.080235,0.36122 0.046513,0.09727 0.075776,0.201215 0.1096567,0.303274 0.054832,0.111185 0.039528,0.01517 -0.041967,0.0092 -0.044307,0.01093 -0.027738,0.01316 -0.049386,0.0088 0.051813,-0.104042 0.073377,-0.219661 0.1049114,-0.330913 0.031713,-0.136046 0.061184,-0.273182 0.1072824,-0.405211 0.04419,-0.105914 0.062972,-0.218702 0.098717,-0.327374 0.026141,-0.11952 0.065469,-0.233213 0.1167592,-0.344121 0.044307,-0.111 0.074962,-0.226968 0.1185846,-0.338152 0.042238,-0.109242 0.071936,-0.220679 0.1289318,-0.32372 0.05108,-0.0956 0.09883,-0.192432 0.152288,-0.286863 0.05311,-0.09796 0.126736,-0.183795 0.165355,-0.28898 0.04821,-0.103025 0.08777,-0.208318 0.149795,-0.304143 0.05243,-0.07939 0.09446,-0.164721 0.142093,-0.246881 0.03262,-0.05341 0.04825,-0.113868 0.0723,-0.171215 0.07474,-0.173197 0.31968,-0.06749 0.244937,0.105702 l 0,0 c -0.03025,0.06689 -0.04591,0.140084 -0.08787,0.201738 -0.05263,0.08503 -0.09324,0.177588 -0.150471,0.260089 -0.05628,0.07549 -0.07621,0.169958 -0.122143,0.251373 -0.04671,0.116264 -0.117475,0.216979 -0.181902,0.323839 -0.05402,0.09525 -0.101664,0.193256 -0.153823,0.289537 -0.05722,0.08759 -0.06542,0.196435 -0.112071,0.289272 -0.04793,0.114018 -0.0735,0.237081 -0.123893,0.350423 -0.04706,0.101669 -0.080999,0.205928 -0.1054813,0.315528 -0.036541,0.110873 -0.054911,0.226507 -0.1011356,0.33439 -0.047251,0.124885 -0.067787,0.258724 -0.1015981,0.387531 -0.036842,0.129935 -0.062916,0.264549 -0.1267743,0.384796 -0.015686,0.02388 -0.02603,0.0523 -0.047059,0.07165 -0.1441995,0.132652 -0.2969651,0.01868 -0.3495907,-0.132326 -0.035683,-0.107701 -0.068598,-0.215948 -0.114574,-0.319887 -0.03138,-0.12058 -0.060078,-0.240573 -0.08082,-0.363502 C 8.9913815,35.301389 8.9745225,35.184067 8.9386926,35.070815 8.9069186,34.954171 8.8928728,34.832076 8.8269241,34.727239 8.7754735,34.629529 8.7361868,34.526043 8.6932017,34.424535 8.6357029,34.3068 8.5564905,34.199542 8.5162002,34.073115 8.4313459,33.898543 8.3326309,33.732215 8.2379385,33.563061 8.1636312,33.389677 8.4088328,33.28459 8.4831401,33.457974 z"
       inkscape:connector-curvature="0"
       transform="translate(0,988.3622)" />
    <path
       style="fill:#000000;fill-opacity:1;stroke:none"
       id="path3043"
       d="m 11.328777,33.468347 c -0.02905,0.202986 -0.03219,0.408608 -0.0594,0.611614 -0.02775,0.148029 -0.04897,0.296739 -0.05817,0.447061 -0.0095,0.152688 -3.2e-4,0.305831 -0.01623,0.457977 -0.02368,0.132958 -0.0412,0.266509 -0.05022,0.401236 -0.0071,0.130249 -0.0072,0.260738 -0.0075,0.391138 -6.8e-5,0.133194 1.79e-4,0.266389 3e-4,0.399583 0.0049,0.0694 0.03749,0.05917 0.09586,0.06976 0.118,0.01474 0.237359,0.0121 0.356037,0.0116 0.134161,-0.001 0.268323,-0.0018 0.402487,-0.0022 0.08915,-2.39e-4 0.1783,-2.93e-4 0.26745,-3.41e-4 0.188636,-1.04e-4 0.188782,0.266668 1.46e-4,0.266771 l 0,0 c -0.08892,4.9e-5 -0.177849,1.02e-4 -0.266773,3.4e-4 -0.13407,4.14e-4 -0.268138,0.0012 -0.402205,0.0022 -0.138335,5.68e-4 -0.277705,0.0037 -0.414791,-0.0179 -0.185191,-0.04463 -0.292007,-0.128635 -0.304981,-0.329988 -1.21e-4,-0.133487 -3.7e-4,-0.266975 -3e-4,-0.400463 3.27e-4,-0.136187 5.19e-4,-0.272468 0.0081,-0.408489 0.0095,-0.138754 0.02637,-0.276549 0.05132,-0.413421 0.0188,-0.146976 0.0015,-0.296722 0.01503,-0.44438 0.0099,-0.1569 0.03076,-0.31237 0.06015,-0.466854 0.02864,-0.201605 0.02825,-0.406715 0.05897,-0.608333 0.0234,-0.18718 0.288109,-0.154091 0.264711,0.03309 z"
       inkscape:connector-curvature="0"
       transform="translate(0,988.3622)" />
    <path
       style="fill:#000000;fill-opacity:1;stroke:none"
       id="path3045"
       d="m 11.201527,34.655145 c 0.01039,0 0.201978,0 0.204762,0 0.188636,0 0.188636,0.266772 0,0.266772 l 0,0 c -0.0028,0 -0.194376,0 -0.204762,0 -0.188636,0 -0.188636,-0.266772 0,-0.266772 z"
       inkscape:connector-curvature="0"
       transform="translate(0,988.3622)" />
    <path
       style="fill:#000000;fill-opacity:1;stroke:none"
       id="path3047"
       d="m 11.393113,33.104002 c 0.171354,0.09479 0.343629,0.18474 0.531566,0.241427 0.13076,0.02187 0.257484,0.06172 0.387531,0.08687 0.07449,0.01291 0.150056,0.01643 0.225433,0.01975 0.188448,0.0084 0.176529,0.274933 -0.01192,0.266505 l 0,0 c -0.08859,-0.004 -0.177367,-0.0086 -0.264819,-0.02446 -0.138946,-0.02753 -0.274729,-0.06838 -0.414189,-0.09353 -0.20647,-0.06377 -0.397795,-0.159322 -0.585959,-0.26493 -0.163781,-0.09359 -0.03143,-0.325212 0.132356,-0.231622 z"
       inkscape:connector-curvature="0"
       transform="translate(0,988.3622)" />
    <path
       style="fill:#000000;fill-opacity:1;stroke:none"
       id="path3049"
       d="m 3.8881232,32.224724 c 0.059813,-0.188756 0.1302943,-0.373981 0.1893603,-0.562929 0.048443,-0.139294 0.1193712,-0.268522 0.1837339,-0.400637 0.052393,-0.120004 0.096129,-0.243008 0.1481199,-0.363128 0.059932,-0.08887 0.097284,-0.188078 0.1413549,-0.284967 0.045799,-0.116441 0.1040005,-0.227643 0.1570442,-0.341087 0.04344,-0.122309 0.097858,-0.237702 0.1646651,-0.348816 0.058724,-0.105009 0.091948,-0.220458 0.1351234,-0.332294 0.044203,-0.132463 0.1081429,-0.257514 0.1664642,-0.384297 0.044887,-0.14548 0.1225462,-0.277839 0.174009,-0.420306 0.053712,-0.131149 0.107778,-0.260631 0.1706173,-0.387701 0.057522,-0.128917 0.1246367,-0.253257 0.1902094,-0.378365 0.05858,-0.109474 0.096363,-0.228086 0.1458157,-0.341456 0.06948,-0.111296 0.122117,-0.231424 0.1809702,-0.348345 0.064474,-0.117395 0.1344535,-0.233281 0.1879658,-0.356255 0.037959,-0.113848 0.1017046,-0.217083 0.1557207,-0.324062 0.046152,-0.127165 0.1112098,-0.245982 0.1629744,-0.370737 0.062432,-0.128968 0.1204775,-0.259336 0.1877437,-0.385943 0.057063,-0.120776 0.1204537,-0.237873 0.1784258,-0.358291 0.050266,-0.127668 0.099077,-0.254843 0.159873,-0.378001 0.046936,-0.111515 0.079726,-0.228256 0.1195649,-0.342354 0.053614,-0.127403 0.091702,-0.260232 0.1389948,-0.389772 0.043311,-0.104861 0.060234,-0.216673 0.09468,-0.324391 0.021658,-0.113848 0.068236,-0.218251 0.1156688,-0.3231 0.032059,-0.104004 0.078951,-0.202744 0.1056691,-0.308425 0.020833,-0.112866 0.059335,-0.221828 0.1054492,-0.32662 0.038486,-0.108141 0.069075,-0.218997 0.1062679,-0.327609 0.03933,-0.126843 0.070309,-0.254379 0.1241743,-0.376256 0.042043,-0.106956 0.083176,-0.214797 0.1193918,-0.324017 0.023563,-0.110838 0.053144,-0.220559 0.096219,-0.3255 0.04404,-0.09309 0.061026,-0.194597 0.093716,-0.291839 0.027395,-0.124598 0.047255,-0.236035 0.1336646,-0.335018 0.1873878,-0.105505 0.2820197,0.01495 0.3623302,0.17125 0.042517,0.104515 0.087363,0.207887 0.136575,0.30939 0.05545,0.126265 0.1146464,0.251131 0.1670079,0.378977 0.05988,0.164277 0.1141983,0.3303 0.1703956,0.495835 0.059447,0.113911 0.099819,0.235693 0.141965,0.356649 0.03751,0.121979 0.076219,0.243381 0.1245895,0.36145 0.046574,0.12001 0.090965,0.240698 0.13484,0.361768 0.036753,0.112297 0.059348,0.23124 0.1106215,0.338359 0.041314,0.100657 0.093903,0.194567 0.1271166,0.298517 0.043984,0.123603 0.095596,0.243424 0.1302312,0.370194 0.05225,0.109901 0.07024,0.229789 0.101361,0.345951 0.04361,0.128539 0.04753,0.265002 0.07414,0.396736 0.01875,0.122535 0.05203,0.239959 0.08602,0.358706 0.03909,0.124012 0.0315,0.255368 0.05316,0.381894 0.02921,0.134952 0.04541,0.271781 0.05473,0.409378 0.02663,0.131422 0.0488,0.26322 0.06173,0.396715 0.01966,0.12906 0.05922,0.252855 0.0929,0.378519 0.01887,0.124646 0.06089,0.243182 0.08806,0.365932 0.01605,0.106727 0.0546,0.208622 0.09067,0.309951 0.03676,0.132491 0.0789,0.263408 0.107367,0.398083 0.04657,0.104279 0.05622,0.219673 0.09039,0.327079 0.0394,0.10978 0.08543,0.217387 0.127842,0.326254 0.03591,0.12514 0.07212,0.248191 0.125567,0.366956 0.03917,0.113123 0.08934,0.221636 0.121047,0.33729 0.04121,0.11266 0.06301,0.232 0.115777,0.340194 0.04769,0.108238 0.09306,0.218008 0.133199,0.329386 0.04178,0.109573 0.101436,0.209233 0.139841,0.320247 0.04716,0.09385 0.07305,0.19528 0.11116,0.29267 0.02453,0.104263 0.06818,0.199762 0.112566,0.296568 0.05861,0.119271 0.08797,0.24917 0.133774,0.372807 0.05188,0.108706 0.08433,0.225308 0.129684,0.336372 0.03674,0.106284 0.07468,0.211876 0.109903,0.318731 0.0486,0.10799 0.101296,0.214214 0.155627,0.319549 0.02932,0.0496 0.05438,0.100724 0.08658,0.148534 0.10331,0.157831 -0.119896,0.303933 -0.223206,0.146102 l 0,0 c -0.03615,-0.05627 -0.06806,-0.113917 -0.100495,-0.172404 -0.06076,-0.117951 -0.120521,-0.236807 -0.172105,-0.358988 -0.03287,-0.101957 -0.06978,-0.202478 -0.104499,-0.303719 -0.04419,-0.114848 -0.08074,-0.232331 -0.132663,-0.344296 -0.04107,-0.117532 -0.07114,-0.238612 -0.125155,-0.35163 -0.04624,-0.101154 -0.0928,-0.201631 -0.118444,-0.310424 -0.03967,-0.101403 -0.06737,-0.206478 -0.115499,-0.304588 -0.03569,-0.109981 -0.101858,-0.206142 -0.1384,-0.316091 -0.03634,-0.103878 -0.0798,-0.205642 -0.123778,-0.306369 -0.05588,-0.12385 -0.08927,-0.254793 -0.131555,-0.383628 -0.02643,-0.102162 -0.07435,-0.196617 -0.106654,-0.296885 -0.05527,-0.122951 -0.09596,-0.249573 -0.130894,-0.379669 -0.045,-0.115877 -0.09433,-0.230203 -0.135096,-0.347507 -0.03262,-0.115757 -0.05095,-0.235301 -0.09563,-0.347914 -0.02541,-0.122998 -0.06527,-0.242053 -0.09758,-0.363259 -0.0398,-0.111869 -0.08116,-0.224816 -0.09996,-0.342429 -0.02557,-0.118806 -0.0677,-0.233365 -0.08517,-0.354034 -0.03725,-0.139857 -0.08112,-0.277916 -0.100721,-0.421923 -0.01291,-0.136134 -0.03894,-0.269735 -0.06235,-0.404333 -0.0086,-0.129709 -0.02452,-0.258499 -0.05207,-0.385688 -0.01734,-0.11655 -0.01569,-0.235642 -0.04618,-0.35023 -0.035891,-0.126205 -0.07085,-0.251498 -0.09144,-0.381431 C 9.9174253,25.271152 9.9105732,25.141368 9.8706817,25.017905 9.8409925,24.901864 9.8203535,24.783967 9.7698631,24.674 9.7371072,24.550218 9.6829218,24.434602 9.6423913,24.313337 9.6146957,24.219191 9.5610365,24.136466 9.5265759,24.0448 9.476991,23.92966 9.4421379,23.808956 9.4086382,23.688333 9.3660994,23.570693 9.3231702,23.453395 9.2777754,23.336878 9.227591,23.214348 9.1868988,23.088519 9.1480873,22.961955 9.1058018,22.840175 9.0638263,22.718723 9.0054645,22.603392 8.950995,22.442838 8.898256,22.281855 8.8406015,22.122397 c -0.049585,-0.12272 -0.1067028,-0.24229 -0.1599843,-0.363204 -0.048676,-0.100476 -0.093499,-0.20278 -0.1350653,-0.306325 -0.063138,-0.131933 -0.032016,-0.01882 0.064131,-0.1013 -0.052085,0.03602 -0.033442,0.167853 -0.068722,0.230709 -0.035004,0.103998 -0.052712,0.213054 -0.1015334,0.312265 -0.045329,0.09593 -0.059999,0.20355 -0.088346,0.304906 -0.039767,0.117372 -0.083018,0.233717 -0.1290472,0.348659 -0.05262,0.113766 -0.074715,0.235914 -0.1153338,0.354004 -0.04041,0.115114 -0.070671,0.233754 -0.1141936,0.347805 -0.04045,0.09188 -0.074181,0.187038 -0.091441,0.28633 -0.031878,0.120047 -0.081579,0.233672 -0.1208292,0.351296 -0.043423,0.09579 -0.085886,0.189899 -0.1046154,0.294392 -0.035758,0.111537 -0.052322,0.227978 -0.098795,0.336272 -0.048831,0.126977 -0.083357,0.259834 -0.1373323,0.385186 -0.044103,0.123823 -0.078193,0.251514 -0.1319669,0.371801 -0.060411,0.122378 -0.107181,0.249446 -0.1587717,0.375743 -0.059616,0.12353 -0.1246457,0.243674 -0.1831633,0.367646 -0.063433,0.119354 -0.1181876,0.242268 -0.1772466,0.363788 -0.054985,0.130375 -0.1214579,0.255383 -0.1709947,0.388115 -0.052212,0.10303 -0.1138846,0.201889 -0.1499254,0.311845 -0.056862,0.126403 -0.1256574,0.247639 -0.1936637,0.368279 -0.057154,0.112863 -0.1066824,0.230026 -0.1754183,0.33665 -0.054028,0.117694 -0.089828,0.24409 -0.1537055,0.357675 -0.065525,0.122414 -0.1303477,0.24522 -0.1869106,0.371918 -0.058789,0.118794 -0.1094678,0.239667 -0.1596731,0.362357 -0.056173,0.14812 -0.1321034,0.288056 -0.18181,0.439072 -0.056214,0.121567 -0.1176559,0.241473 -0.1598524,0.36867 -0.048679,0.126072 -0.087108,0.256157 -0.1553664,0.373679 -0.062109,0.103285 -0.1108579,0.210796 -0.1517178,0.324529 -0.052845,0.112532 -0.1107184,0.22272 -0.1558367,0.338473 -0.043345,0.09506 -0.078889,0.194183 -0.1393115,0.280366 -0.053595,0.123819 -0.098265,0.250872 -0.1532342,0.374238 -0.058749,0.120013 -0.123093,0.237465 -0.1688924,0.363382 -0.05782,0.183863 -0.1251681,0.364611 -0.1851031,0.547807 -0.045751,0.183004 -0.3045572,0.118303 -0.2588063,-0.0647 z"
       inkscape:connector-curvature="0"
       transform="translate(0,988.3622)" />
    <path
       style="fill:#000000;fill-opacity:1;stroke:none"
       id="path3051"
       d="m 3.9348782,37.119909 c -0.00816,0.188691 0.00274,0.374636 0.028913,0.561273 0.028475,0.1347 0.075751,0.263704 0.1148947,0.395318 0.027665,0.135711 0.083399,0.262665 0.1266427,0.393566 0.037951,0.117006 0.072924,0.235182 0.1112691,0.352148 0.029793,0.124549 0.068021,0.242345 0.1172061,0.360305 0.056429,0.132692 0.09462,0.272948 0.157813,0.402602 0.05653,0.115162 0.1021428,0.236556 0.1648051,0.348586 0.049423,0.100992 0.090738,0.206718 0.1279962,0.312955 0.04928,0.09789 0.092235,0.199383 0.1275668,0.303147 0.027011,0.105223 0.06568,0.206945 0.1106587,0.305615 0.045331,0.11468 0.075702,0.234608 0.1164776,0.350861 0.046409,0.114285 0.092936,0.228031 0.1365735,0.343745 0.036973,0.120293 0.074195,0.240038 0.110885,0.36047 0.021604,0.108962 0.07791,0.205707 0.1174517,0.308525 0.047281,0.127481 0.076439,0.260062 0.1142904,0.390227 0.045794,0.130976 0.084507,0.264228 0.127095,0.396294 0.04433,0.125399 0.059494,0.257312 0.096985,0.384383 0.028269,0.104994 0.039173,0.21188 0.083936,0.311753 0.04285,0.11302 0.084931,0.226433 0.1236384,0.341039 0.018484,0.110171 0.056545,0.211575 0.099827,0.313758 0.0387,0.118145 0.07193,0.237779 0.1064719,0.357345 0.029095,0.121776 0.066638,0.241391 0.1056166,0.360353 0.054707,0.121063 0.088126,0.249302 0.1350729,0.373178 0.031879,0.106263 0.065786,0.211799 0.1076872,0.314692 0.038918,0.116202 0.077501,0.232283 0.1144925,0.349194 0.050355,0.118419 0.079963,0.243706 0.1168782,0.366614 0.060471,0.102821 0.079707,0.220707 0.1188869,0.331096 0.030025,0.104157 0.065481,0.205756 0.098641,0.308906 0.046861,0.08749 0.073748,0.18278 0.1113786,0.274192 0.038133,0.118841 0.06619,0.241169 0.094573,0.362862 0.00933,0.107893 0.064976,0.197063 0.1086643,0.292735 0.040628,0.121902 0.065842,0.248972 0.093451,0.374606 0.00813,0.107914 0.063303,0.196976 0.1067446,0.292553 0.036133,0.06986 0.01259,-0.02766 -0.1041732,-0.0068 -0.015944,0.0028 -0.025304,0.03256 -0.040471,0.02689 -0.012576,-0.0047 0.014536,-0.02258 0.021805,-0.03388 0.037629,-0.09143 0.060801,-0.187627 0.1006795,-0.278729 0.052904,-0.11009 0.09411,-0.224878 0.1387635,-0.338359 0.051551,-0.112522 0.096314,-0.227744 0.1449228,-0.341503 0.043018,-0.124974 0.07622,-0.251506 0.1252099,-0.375162 0.034567,-0.120363 0.089015,-0.233922 0.1204663,-0.355155 0.016611,-0.119353 0.0744,-0.225961 0.1142514,-0.338046 0.049404,-0.123092 0.097096,-0.24745 0.135634,-0.37445 0.045619,-0.126818 0.1118015,-0.244293 0.1707025,-0.365035 0.071281,-0.123811 0.1395681,-0.248921 0.2079419,-0.374378 0.047099,-0.09665 0.095649,-0.192486 0.1456578,-0.287732 0.062341,-0.108609 0.1227084,-0.218557 0.1780272,-0.330949 0.049725,-0.121144 0.1119468,-0.237135 0.1747015,-0.352007 0.048655,-0.115146 0.1057074,-0.22449 0.1721127,-0.330314 0.042166,-0.09709 0.084857,-0.193709 0.1310996,-0.289159 0.066982,-0.114473 0.1212352,-0.234616 0.1748541,-0.355586 0.04445,-0.129254 0.1174833,-0.245139 0.1735762,-0.368878 0.039621,-0.112737 0.094817,-0.219755 0.1508652,-0.32513 0.05516,-0.122078 0.107342,-0.245682 0.16,-0.368959 0.06385,-0.103456 0.104669,-0.2171 0.15332,-0.327772 0.03315,-0.110669 0.09384,-0.209178 0.139274,-0.314455 0.02579,-0.100399 0.06575,-0.1964 0.08871,-0.29761 0.01992,-0.106602 0.05754,-0.207806 0.07453,-0.315233 0.02617,-0.134745 0.08249,-0.260133 0.115969,-0.39284 0.05025,-0.127086 0.06694,-0.262701 0.101022,-0.393857 0.0221,-0.1081 0.0761,-0.204969 0.105086,-0.310724 0.02814,-0.116361 0.06055,-0.230727 0.07765,-0.349502 0.01167,-0.119143 0.04994,-0.232942 0.06734,-0.351321 0.0071,-0.124181 0.03125,-0.245952 0.07386,-0.362684 0.04454,-0.09045 0.05933,-0.18826 0.06854,-0.287427 0.0059,-0.11822 0.04171,-0.231823 0.05794,-0.34883 0.02053,-0.114183 0.06983,-0.218178 0.109575,-0.325909 0.04106,-0.111305 0.06544,-0.227587 0.101418,-0.340304 0.03587,-0.113555 0.06398,-0.226961 0.120583,-0.33249 0.03132,-0.0547 0.01775,-0.02811 0.04146,-0.0794 0.08086,-0.170428 0.321878,-0.05608 0.241022,0.114348 l 0,0 c -0.03331,0.06903 -0.01626,0.03696 -0.05042,0.09662 -0.05526,0.08557 -0.05985,0.191899 -0.09929,0.284438 -0.03978,0.114826 -0.06072,0.236499 -0.10494,0.350315 -0.03388,0.08953 -0.0746,0.175386 -0.09525,0.269586 -0.01613,0.113094 -0.0493,0.223042 -0.05654,0.336955 -0.01201,0.123182 -0.03176,0.245539 -0.08535,0.358484 -0.04195,0.0958 -0.04795,0.203233 -0.05878,0.305772 -0.01792,0.118099 -0.05404,0.231913 -0.06721,0.350434 -0.01929,0.13026 -0.05359,0.256103 -0.08496,0.383687 -0.03033,0.104556 -0.07968,0.201088 -0.10417,0.307413 -0.03677,0.12889 -0.04774,0.265387 -0.100133,0.390473 -0.03229,0.12494 -0.08178,0.243789 -0.111094,0.36946 -0.01874,0.11337 -0.05561,0.220855 -0.07804,0.333019 -0.02774,0.116954 -0.07069,0.229196 -0.104284,0.344394 -0.04667,0.104939 -0.105201,0.204143 -0.139335,0.314595 -0.04828,0.109707 -0.08819,0.223161 -0.152241,0.325285 -0.05581,0.130276 -0.110405,0.261218 -0.169976,0.389744 -0.054,0.100538 -0.10589,0.203089 -0.143787,0.310875 -0.05681,0.122237 -0.127201,0.237841 -0.17213,0.365678 -0.054984,0.123605 -0.1100053,0.246776 -0.1786239,0.363706 -0.050529,0.104163 -0.094817,0.210571 -0.1452152,0.314631 -0.063664,0.101354 -0.1165896,0.206564 -0.1640906,0.316652 -0.06127,0.111449 -0.1212404,0.224328 -0.1695135,0.342047 -0.056672,0.114206 -0.1173712,0.226509 -0.1810711,0.336916 -0.050782,0.09639 -0.1000718,0.193328 -0.147595,0.291347 -0.066614,0.121885 -0.1325256,0.243848 -0.2024852,0.363828 -0.053019,0.108051 -0.1116672,0.21343 -0.155237,0.325871 -0.040376,0.130928 -0.088364,0.259739 -0.1397113,0.386701 -0.038069,0.10477 -0.091678,0.204583 -0.1074456,0.316251 -0.035473,0.131062 -0.090924,0.25499 -0.1302679,0.384876 -0.050139,0.126521 -0.081756,0.256565 -0.1288075,0.383796 -0.04966,0.109514 -0.09023,0.223743 -0.1412667,0.332721 -0.046694,0.117325 -0.089,0.236376 -0.1438501,0.350354 -0.048703,0.10134 -0.060712,0.216733 -0.1197493,0.313628 -0.1167132,0.178701 -0.258262,0.154892 -0.3444049,-0.02184 C 7.3753441,48.711836 7.3118112,48.605087 7.3010187,48.479314 7.2775269,48.371594 7.2540432,48.263483 7.2250116,48.157388 7.1754859,48.045841 7.1116223,47.940046 7.0996452,47.81526 7.074743,47.707511 7.0489363,47.59962 7.01824,47.493597 6.9778076,47.39537 6.9474993,47.293943 6.8993769,47.198871 6.8672763,47.097051 6.8318446,46.996738 6.8021257,46.894201 6.7647038,46.779585 6.7387223,46.661923 6.680522,46.554579 6.6439298,46.432701 6.6144614,46.308674 6.5646355,46.191194 6.5302149,46.080646 6.4929435,45.971139 6.456991,45.8612 6.4155904,45.756473 6.3785958,45.650055 6.3475049,45.54189 6.299112,45.414184 6.2641001,45.28228 6.2083795,45.157235 6.1683906,45.03517 6.1300712,44.912317 6.0998697,44.787467 6.0686863,44.678134 6.0369237,44.569174 6.0041497,44.460505 5.9583521,44.352327 5.916117,44.243969 5.8969973,44.12739 5.8612978,44.01947 5.8208714,43.913024 5.7810949,43.806673 5.7350958,43.696111 5.7117508,43.581765 5.6864847,43.465253 5.6496795,43.339934 5.6331245,43.210626 5.5912755,43.086658 5.5485852,42.951761 5.5081528,42.816359 5.4618479,42.682656 5.4270031,42.55936 5.3987738,42.434436 5.3546655,42.313808 5.3139427,42.204971 5.253118,42.103262 5.231258,41.987817 5.1966713,41.872767 5.1603388,41.758571 5.1258638,41.643579 5.08194,41.525586 5.0339857,41.41015 4.9870139,41.293514 4.9498257,41.184869 4.9194035,41.073901 4.8799031,40.966077 4.831136,40.859095 4.7889897,40.748604 4.7591083,40.634782 4.7249431,40.531284 4.6783815,40.432469 4.6322974,40.333853 4.6007849,40.240924 4.563687,40.149014 4.5217407,40.06056 4.4596231,39.94312 4.4071591,39.820682 4.3509944,39.700308 4.2873898,39.565626 4.2437976,39.423033 4.187575,39.285175 4.1356071,39.160513 4.0942777,39.035348 4.062685,38.904039 4.0255141,38.787164 3.9898071,38.669898 3.9518891,38.553345 3.9082919,38.41983 3.8508526,38.290595 3.8228941,38.152247 3.7803698,38.007924 3.7277385,37.866549 3.6995979,37.718181 c -0.027816,-0.198849 -0.039737,-0.397317 -0.031491,-0.598272 0,-0.188636 0.2667714,-0.188636 0.2667714,0 z"
       inkscape:connector-curvature="0"
       transform="translate(0,988.3622)" />
    <path
       style="fill:#000000;fill-opacity:1;stroke:none"
       id="path3053"
       d="m 5.866099,37.256167 c 0.2376369,0 0.4752739,0 0.7129109,0 0.1661922,0 0.3323845,0 0.4985767,0 0.1478944,0 0.2957887,0 0.4436831,0 0.1345704,0 0.2691409,0 0.4037113,0 0.1332339,0 0.2664679,0 0.3997018,0 0.1333576,0 0.2667152,0 0.4000728,0 0.1333863,0 0.2667726,0 0.4001589,0 0.1333861,0 0.2667723,0 0.4001585,0 0.1333857,0 0.2667714,0 0.4001572,0 0.1442848,-0.0014 0.2847358,-0.01103 0.4225228,0.03643 0.15343,0.08878 0.177318,0.247801 0.189012,0.409605 0.01703,0.156361 -0.0041,0.302003 -0.05388,0.450048 -0.03629,0.125575 -0.08106,0.248428 -0.130333,0.369492 -0.04618,0.127934 -0.109862,0.247727 -0.180597,0.36352 -0.04725,0.11233 -0.122837,0.208745 -0.1780814,0.316577 -0.053044,0.09089 -0.1098999,0.181478 -0.1507704,0.278723 -0.04521,0.09897 -0.1159283,0.18206 -0.1718583,0.27451 -0.061164,0.09337 -0.1386142,0.174463 -0.1988245,0.26839 -0.067003,0.09396 -0.1254743,0.188458 -0.2032656,0.274341 -0.067969,0.08801 -0.1476082,0.169199 -0.2074929,0.263188 -0.065917,0.08409 -0.1133486,0.180026 -0.1692017,0.270857 -0.044373,0.09954 -0.1251841,0.17618 -0.1773815,0.270431 -0.067825,0.0895 -0.118672,0.185504 -0.1702143,0.284457 -0.044441,0.09352 -0.084571,0.189297 -0.1325448,0.281112 -0.054815,0.09546 -0.1004945,0.195074 -0.1498798,0.293366 -0.032014,0.09451 -0.075834,0.184649 -0.1002245,0.281696 -0.027966,0.117798 -0.091561,0.22163 -0.126642,0.336722 -0.047195,0.09456 -0.07471,0.19252 -0.088057,0.296776 -0.018831,0.115333 -0.065754,0.221107 -0.1047166,0.330057 -0.026442,0.08942 -0.031491,0.205556 -0.1158465,0.265247 -0.025935,0.01835 -0.058194,0.02552 -0.087291,0.03828 -0.038329,-0.009 -0.079238,-0.01055 -0.1149872,-0.02705 C 7.4402495,43.443957 7.3737485,43.287505 7.3291296,43.211846 7.273697,43.10082 7.2025361,42.999027 7.1461199,42.888732 7.0817086,42.788672 7.0327943,42.67905 6.9931714,42.567097 6.9417576,42.469254 6.886873,42.373094 6.8323829,42.276747 6.7936741,42.17853 6.7530189,42.084202 6.6990525,41.993637 6.6510945,41.894923 6.6127318,41.79201 6.5693101,41.691183 6.5179903,41.5901 6.4792243,41.483062 6.4318246,41.380253 6.3828085,41.270219 6.346009,41.155476 6.3030301,41.043125 6.2463707,40.918494 6.2113315,40.785604 6.1621371,40.65845 6.1154024,40.550037 6.0988499,40.433369 6.0630611,40.321634 6.0397052,40.213204 5.9964669,40.111569 5.9694733,40.004106 5.9442279,39.886769 5.9468859,39.767317 5.920198,39.650509 5.8891869,39.52638 5.87919,39.398862 5.8729875,39.271515 c -0.00487,-0.134007 -0.00452,-0.268131 -0.00452,-0.402206 0.011763,-0.115403 -0.018042,-0.22504 -0.037768,-0.337434 -0.021129,-0.130553 -0.02483,-0.262946 -0.027506,-0.394899 -0.00184,-0.133905 -0.00141,-0.267828 -0.00127,-0.401741 0.00168,-0.112704 -0.031135,-0.222335 -0.046742,-0.333656 -0.025948,-0.186842 0.2382874,-0.223538 0.2642354,-0.0367 l 0,0 c 0.016965,0.123541 0.053861,0.245068 0.049278,0.370639 -1.42e-4,0.132028 -5.587e-4,0.264065 0.00122,0.396086 0.00236,0.118359 0.00518,0.237149 0.023576,0.354332 0.022134,0.127204 0.053602,0.252928 0.041753,0.383361 3.4e-6,0.1298 -3.626e-4,0.259647 0.00421,0.389385 0.00532,0.111909 0.013418,0.224045 0.040973,0.333088 0.025807,0.115484 0.029316,0.231975 0.04807,0.348491 0.024405,0.101687 0.06783,0.197377 0.088656,0.300091 0.034408,0.107696 0.051279,0.219503 0.09472,0.324282 0.047067,0.127913 0.084863,0.259049 0.1406043,0.38391 0.040641,0.107971 0.076587,0.217715 0.1231468,0.323398 0.045705,0.105347 0.087451,0.211852 0.1390827,0.314599 0.038134,0.09013 0.074011,0.181166 0.1135337,0.270559 0.054936,0.09224 0.100747,0.187204 0.136452,0.288491 0.062072,0.110167 0.1267066,0.219351 0.1804075,0.333748 0.034628,0.101645 0.081867,0.198869 0.1393646,0.289555 0.052031,0.106198 0.1240173,0.201648 0.1751499,0.308615 0.011504,0.01991 0.023008,0.03983 0.034511,0.05974 0.00675,0.01412 0.01273,0.02864 0.020257,0.04237 0.034857,0.06357 0.096824,0.08555 -0.029651,0.0693 -0.041097,0.02884 -0.0638,0.04165 -0.045731,0.0449 0.020618,0.0037 0.041643,-0.165845 0.052973,-0.178201 0.03324,-0.09092 0.0727,-0.178414 0.091087,-0.274266 0.016129,-0.118631 0.042979,-0.23433 0.098009,-0.341686 0.035503,-0.110709 0.091489,-0.211937 0.1229796,-0.323962 0.030599,-0.114824 0.078523,-0.223376 0.1200827,-0.334395 0.050584,-0.100425 0.097604,-0.202219 0.1533265,-0.299985 0.050795,-0.08927 0.084265,-0.188009 0.131513,-0.279178 0.054535,-0.101253 0.1060048,-0.202068 0.1755815,-0.294129 0.056686,-0.09469 0.1318349,-0.176647 0.1808519,-0.27622 0.057506,-0.09291 0.1060985,-0.191444 0.1735664,-0.277699 0.070001,-0.103894 0.1542892,-0.197886 0.232542,-0.29548 0.068204,-0.07518 0.1181776,-0.158679 0.1776875,-0.241243 0.060373,-0.09097 0.1317636,-0.173026 0.1947758,-0.262008 0.05057,-0.08135 0.1108117,-0.155893 0.1545216,-0.241275 0.045489,-0.102274 0.1011611,-0.200432 0.1590783,-0.296074 0.059842,-0.112466 0.1357896,-0.215019 0.1870109,-0.332299 0.063815,-0.103415 0.1201889,-0.210687 0.1612149,-0.325375 0.04804,-0.11551 0.08928,-0.233496 0.124356,-0.353511 0.03904,-0.114771 0.05565,-0.223953 0.04047,-0.346237 -0.004,-0.06072 -0.01229,-0.120373 -0.02154,-0.180156 -0.07748,-0.05099 -0.233127,-0.0012 -0.3238568,-0.01751 -0.1333858,0 -0.2667715,0 -0.4001572,0 -0.1333862,0 -0.2667724,0 -0.4001585,0 -0.1333863,0 -0.2667726,0 -0.4001589,0 -0.1333576,0 -0.2667152,0 -0.4000728,0 -0.1332339,0 -0.2664679,0 -0.3997018,0 -0.1345704,0 -0.2691409,0 -0.4037113,0 -0.1478944,0 -0.2957887,0 -0.4436831,0 -0.1661922,0 -0.3323845,0 -0.4985767,0 -0.237637,0 -0.475274,0 -0.7129109,0 -0.1886359,0 -0.1886359,-0.266771 0,-0.266771 z"
       inkscape:connector-curvature="0"
       transform="translate(0,988.3622)" />
    <path
       style="fill:#000000;fill-opacity:1;stroke:none"
       id="path3055"
       d="m 5.9184559,31.665332 c 0.081747,-0.173755 0.1736528,-0.342339 0.2611161,-0.513246 0.056339,-0.128132 0.1297131,-0.248863 0.2024891,-0.368312 0.060607,-0.104792 0.1211489,-0.209449 0.1959392,-0.304843 0.06025,-0.08557 0.107387,-0.179796 0.1598497,-0.270426 0.063631,-0.0997 0.1219835,-0.202363 0.1842487,-0.302766 0.070302,-0.07574 0.1311917,-0.158595 0.1919541,-0.241998 0.048045,-0.09273 0.126955,-0.164944 0.1774979,-0.25557 0.060462,-0.08456 0.1020979,-0.179267 0.162235,-0.264163 0.046635,-0.0734 0.082927,-0.155387 0.1125722,-0.237408 0.050921,-0.09102 0.079787,-0.190541 0.1191429,-0.28655 0.036142,-0.09065 0.079323,-0.174927 0.09866,-0.271255 0.042576,-0.104775 0.05765,-0.216574 0.08733,-0.324703 0.038992,-0.109223 0.085963,-0.213087 0.1092951,-0.327281 0.043264,-0.110997 0.061427,-0.228046 0.08947,-0.342966 0.033637,-0.123757 0.04843,-0.250322 0.083614,-0.373658 0.034558,-0.11456 0.075357,-0.225605 0.096136,-0.343861 0.035297,-0.109171 0.063,-0.218728 0.075903,-0.332745 0.015423,-0.13432 0.037517,-0.270165 0.072633,-0.400926 0.036955,-0.109985 0.054249,-0.223955 0.08931,-0.334452 0.029558,-0.124353 0.097426,-0.264496 0.2612946,-0.201965 0.033552,0.0128 0.049026,0.05249 0.073539,0.07873 0.030174,0.107025 0.062067,0.214379 0.084698,0.323751 0.044572,0.106635 0.068017,0.21865 0.082604,0.332767 0.035611,0.103565 0.046451,0.212982 0.073063,0.318502 0.039414,0.131264 0.085811,0.258935 0.1127137,0.393877 0.044356,0.104536 0.052396,0.219639 0.085777,0.326718 0.035476,0.102868 0.047974,0.212608 0.095235,0.311237 0.054941,0.105121 0.077403,0.221519 0.1161314,0.332617 0.039014,0.118456 0.049341,0.242737 0.076622,0.363958 0.05309,0.121411 0.068876,0.254031 0.1077177,0.379282 0.047935,0.110831 0.047459,0.233696 0.077585,0.348339 0.039437,0.111705 0.042907,0.230882 0.067557,0.345472 0.035191,0.13181 0.080899,0.259425 0.1071658,0.39386 0.00782,0.12295 0.042802,0.240331 0.065958,0.360664 0.016488,0.109331 0.0158,0.218902 0.057605,0.32253 0.0488,0.113146 0.06893,0.234492 0.107203,0.350968 0.04205,0.125696 0.0532,0.25773 0.0601,0.38917 0.005,0.134201 0.0044,0.268532 0.0043,0.402804 2.6e-5,0.129217 0.03114,0.256256 0.04678,0.384386 0.01645,0.1484 0.03008,0.29361 -0.01664,0.436966 -0.09545,0.167943 -0.2775627,0.180151 -0.4513225,0.19082 -0.1442259,0.0055 -0.2885995,0.0032 -0.4328863,0.0022 -0.1340693,-9.88e-4 -0.268142,-0.0013 -0.4022145,-0.0015 -0.1332543,-1.45e-4 -0.2665087,-1.3e-4 -0.3997631,-1.27e-4 -0.1333668,6e-6 -0.2667336,1.2e-5 -0.4001004,1.5e-5 -0.1333865,3e-6 -0.2667731,3e-6 -0.4001597,3e-6 -0.133386,0 -0.2667721,0 -0.4001581,0 -0.1402415,0.0018 -0.2776199,-0.03245 -0.4163519,-0.04932 -0.1352878,-0.01342 -0.2668307,-0.0489 -0.4016507,-0.06676 -0.1337872,-0.024 -0.2514026,-0.06613 -0.3596598,-0.148663 -0.082211,-0.08752 -0.1569583,-0.187097 -0.2161534,-0.29209 -0.034484,-0.04704 -0.059865,-0.09896 -0.08482,-0.151376 -0.079577,-0.171029 0.1622942,-0.283568 0.2418715,-0.112539 l 0,0 c 0.021365,0.04768 0.046605,0.09271 0.076809,0.135555 0.039387,0.07517 0.096945,0.138916 0.1442708,0.208482 0.078162,0.0599 0.133814,0.07438 0.2330589,0.09622 0.1338225,0.01806 0.2645699,0.05206 0.3986635,0.06638 0.1280055,0.01575 0.254867,0.04703 0.3839624,0.04734 0.1333859,0 0.2667718,0 0.4001577,0 0.1333845,0 0.2667691,0 0.4001536,-3e-6 0.1333673,-3e-6 0.2667346,-9e-6 0.4001019,-1.6e-5 0.1333857,-2e-6 0.2667714,-1.7e-5 0.400157,1.28e-4 0.1345563,1.96e-4 0.2691128,5.3e-4 0.4036659,0.0015 0.1383862,9.54e-4 0.276849,0.0031 0.4151862,-0.0018 0.07308,-0.0042 0.1453368,-0.01497 0.2179805,-0.01973 0.048021,-0.07064 -0.00333,-0.226507 0.00101,-0.309606 -0.016755,-0.138867 -0.050773,-0.276439 -0.048723,-0.416802 1.309e-4,-0.129588 7.772e-4,-0.25923 -0.00391,-0.388755 -0.00548,-0.107829 -0.012921,-0.216473 -0.047145,-0.319737 C 9.84978,30.619701 9.8295412,30.502437 9.7834064,30.392416 9.7404111,30.273217 9.7246294,30.151731 9.7134666,30.026012 9.690788,29.905912 9.6552288,29.78848 9.6476015,29.66583 9.6222881,29.532165 9.5725302,29.406615 9.5409716,29.274676 9.5190086,29.162399 9.5120615,29.047248 9.4753476,28.937949 9.4502372,28.826446 9.4440817,28.710805 9.4014199,28.603312 9.3636287,28.471315 9.3408973,28.335127 9.2892515,28.206905 9.2642314,28.095478 9.2532822,27.981812 9.2209949,27.872235 9.1847284,27.768152 9.1637717,27.659345 9.1132202,27.560673 9.0650908,27.448628 9.0393848,27.330929 9.0051527,27.214294 8.9733911,27.09836 8.9564392,26.978606 8.913993,26.865285 8.888681,26.73396 8.839312,26.611174 8.8037543,26.482706 c -0.027189,-0.115799 -0.044515,-0.233724 -0.078475,-0.348091 -0.013148,-0.107968 -0.040801,-0.210762 -0.079289,-0.312593 -0.016308,-0.08152 -0.051466,-0.163521 -0.055363,-0.245459 0.1835335,0.124976 0.2106907,-0.142543 0.1514569,0.07246 -0.034234,0.10746 -0.049622,0.218951 -0.086718,0.325794 -0.034946,0.115729 -0.048705,0.240015 -0.064461,0.359472 -0.014071,0.119153 -0.038173,0.23583 -0.078329,0.349183 -0.023183,0.126958 -0.063789,0.247407 -0.1022339,0.370117 -0.034545,0.120255 -0.046861,0.244466 -0.081287,0.364977 -0.028734,0.111093 -0.042642,0.226165 -0.087204,0.333116 -0.025808,0.120264 -0.069288,0.232442 -0.1140443,0.346355 -0.031517,0.100356 -0.037842,0.208683 -0.082594,0.305691 -0.024278,0.111843 -0.068938,0.212814 -0.1128795,0.317513 -0.038201,0.09317 -0.065484,0.190602 -0.1159524,0.278388 -0.039617,0.104458 -0.084982,0.209571 -0.1475196,0.302203 -0.058819,0.07452 -0.08751,0.167829 -0.1475107,0.24183 -0.058502,0.09632 -0.1353254,0.179237 -0.191684,0.277167 -0.056993,0.07822 -0.1127986,0.159142 -0.1818555,0.227106 -0.062232,0.09647 -0.1162096,0.19826 -0.1792008,0.294419 -0.059322,0.102093 -0.1118118,0.208781 -0.1825977,0.3036 -0.070703,0.0845 -0.119113,0.18468 -0.1769398,0.277932 -0.070621,0.112348 -0.1380952,0.228635 -0.1920919,0.349867 -0.089506,0.174427 -0.1826874,0.34687 -0.2669044,0.523933 -0.09359,0.163782 -0.325212,0.03143 -0.2316224,-0.132355 z"
       inkscape:connector-curvature="0"
       transform="translate(0,988.3622)" />
    <path
       style="fill:#000000;fill-opacity:1;stroke:none"
       id="path3057"
       d="m 7.0164219,18.991333 c 0.1993151,0.02477 0.3995717,0.04031 0.6001194,0.05035 0.1474413,0.0067 0.2950499,0.0074 0.4426127,0.0078 0.1288044,-0.02029 0.2571017,-0.04181 0.3869746,-0.0543 0.1367759,-0.01127 0.2740949,-0.01227 0.4112443,-0.01311 0.1336881,-4.07e-4 0.2673771,-8.2e-5 0.4010653,6.5e-5 0.056766,-0.0094 0.027255,-0.004 0.088485,-0.01637 0.1850824,-0.03644 0.2366193,0.225304 0.051537,0.261746 l 0,0 c -0.088905,0.01716 -0.04218,0.0097 -0.1403156,0.02139 -0.1330521,-1.47e-4 -0.2661049,-4.69e-4 -0.3991568,-6.9e-5 -0.1292304,7.78e-4 -0.2586218,0.0016 -0.3875201,0.01191 -0.1385494,0.0131 -0.2747286,0.04032 -0.4129587,0.05551 -0.1518093,-3.69e-4 -0.3036649,-0.0012 -0.4553468,-0.0081 -0.2071328,-0.01043 -0.4139696,-0.02646 -0.6198288,-0.05207 -0.1871792,-0.0234 -0.1540903,-0.288108 0.033089,-0.264711 z"
       inkscape:connector-curvature="0"
       transform="translate(0,988.3622)" />
    <path
       style="fill:#000000;fill-opacity:1;stroke:none"
       id="path3059"
       d="m 8.4352744,17.356698 c -0.067154,0.164702 -0.1487715,0.321587 -0.1960872,0.49373 -0.045712,0.112941 -0.078311,0.227856 -0.092785,0.348675 -0.011914,0.13043 -0.044084,0.25771 -0.060233,0.387758 -0.013721,0.12771 -0.015201,0.256272 -0.016454,0.384578 -7.377e-4,0.132948 -3.343e-4,0.265899 -1.588e-4,0.398849 1.797e-4,0.133439 2.312e-4,0.266878 2.629e-4,0.400317 2.405e-4,0.119492 -0.00736,0.237872 0.016475,0.355319 0.023624,0.10171 0.034608,0.205413 0.04237,0.309327 0.013882,0.188124 -0.2521663,0.207756 -0.2660481,0.01963 l 0,0 c -0.00678,-0.09315 -0.01655,-0.186087 -0.038024,-0.277202 -0.026154,-0.134886 -0.023695,-0.270005 -0.021543,-0.407012 -3.17e-5,-0.133343 -8.31e-5,-0.266686 -2.626e-4,-0.400029 -1.769e-4,-0.133941 -5.844e-4,-0.267883 1.714e-4,-0.401823 0.00137,-0.138517 0.00324,-0.277304 0.018512,-0.415135 0.016413,-0.12988 0.047642,-0.25711 0.060169,-0.387243 0.016864,-0.133635 0.048769,-0.262965 0.1005897,-0.387695 0.051722,-0.183218 0.134285,-0.352238 0.2078455,-0.527133 0.074307,-0.173383 0.3195089,-0.0683 0.2452016,0.105087 z"
       inkscape:connector-curvature="0"
       transform="translate(0,988.3622)" />
    <path
       style="fill:#000000;fill-opacity:1;stroke:none"
       id="path3061"
       d="m 8.0031422,50.858636 c 0.019229,0.181782 0.040745,0.363214 0.054244,0.545547 0.010156,0.148333 0.011851,0.297038 0.012724,0.445657 3.989e-4,0.133654 7.76e-5,0.267309 -6.9e-5,0.400964 -0.00158,0.112389 0.03125,0.221693 0.046858,0.332705 0.013274,0.112176 0.048716,0.219657 0.066274,0.331585 0.017392,0.132746 0.0188,0.266837 0.0202,0.400497 -8.646e-4,0.113123 0.031713,0.223114 0.047234,0.334906 0.00225,0.0217 0.00449,0.04339 0.00674,0.06509 0.019204,0.187655 -0.2461812,0.214814 -0.2653854,0.02716 l 0,0 c -0.00188,-0.01864 -0.00376,-0.03727 -0.00564,-0.05591 -0.016704,-0.122882 -0.053086,-0.243664 -0.049706,-0.368471 -0.00125,-0.120965 -0.0022,-0.24232 -0.017088,-0.362548 -0.017148,-0.113211 -0.055347,-0.221565 -0.066851,-0.335513 -0.016971,-0.123266 -0.053935,-0.244493 -0.049408,-0.369793 1.46e-4,-0.133037 4.65e-4,-0.266075 7.34e-5,-0.399112 -8.296e-4,-0.142585 -0.00235,-0.285256 -0.012005,-0.427574 -0.013904,-0.188879 -0.038077,-0.376604 -0.054968,-0.565189 0,-0.188636 0.2667714,-0.188636 0.2667714,0 z"
       inkscape:connector-curvature="0"
       transform="translate(0,988.3622)" />
    <path
       style="fill:#000000;fill-opacity:1;stroke:none"
       id="path3063"
       d="m 7.1167187,52.521882 c 0.2321797,-0.02906 0.465868,-0.04243 0.6995305,-0.05213 0.1688296,-0.0065 0.3377886,-0.0077 0.5067211,-0.0081 0.1344775,-8.1e-5 0.2689549,1.73e-4 0.4034323,2.98e-4 0.1018577,0.0019 0.2089283,9.31e-4 0.3043244,-0.03977 0.014557,-0.0059 0.029113,-0.0118 0.04367,-0.0177 0.1749118,-0.07064 0.2748051,0.176727 0.099893,0.247362 l 0,0 c -0.017084,0.0069 -0.034168,0.01375 -0.051253,0.02063 -0.1280503,0.04409 -0.2611897,0.06398 -0.3968809,0.05625 -0.1341888,-1.24e-4 -0.2683777,-3.77e-4 -0.4025667,-2.98e-4 -0.1654575,3.83e-4 -0.3309412,0.0015 -0.4962989,0.0078 -0.2262937,0.0094 -0.4526213,0.02219 -0.6774832,0.0503 -0.1871792,0.0234 -0.2202681,-0.241314 -0.033089,-0.264711 z"
       inkscape:connector-curvature="0"
       transform="translate(0,988.3622)" />
    <path
       style="fill:#000000;fill-opacity:1;stroke:none"
       id="path3065"
       d="m 2.1478438,34.397382 c 0.1985206,0.01535 0.3938881,0.0444 0.5890461,0.08291 0.06721,0.01384 0.1352952,0.02186 0.2034273,0.02931 0.187496,0.02071 0.1582127,0.285866 -0.029283,0.26516 l 0,0 c -0.075609,-0.0084 -0.1511772,-0.0174 -0.225781,-0.03274 -0.1890472,-0.0373 -0.3781346,-0.06519 -0.5704981,-0.07992 -0.1871792,-0.0234 -0.1540902,-0.288109 0.033089,-0.264711 z"
       inkscape:connector-curvature="0"
       transform="translate(0,988.3622)" />
    <path
       style="fill:#000000;fill-opacity:1;stroke:none"
       id="path3067"
       d="m 3.0011783,33.718574 c 0,0.203324 0,0.406649 0,0.609974 0,0.14966 0,0.299319 0,0.448979 -0.00924,0.117324 0.00433,0.228974 0.027532,0.343213 0.023249,0.107883 0.062806,0.210189 0.083129,0.319416 0.00957,0.128002 0.028266,0.253186 0.051107,0.379387 0.00362,0.02322 0.00723,0.04645 0.01085,0.06967 0.028916,0.186406 -0.2347027,0.2273 -0.2636185,0.04089 l 0,0 c -0.00325,-0.02102 -0.00649,-0.04205 -0.00974,-0.06307 -0.02278,-0.125955 -0.042676,-0.251269 -0.051051,-0.379081 -0.019013,-0.10749 -0.062248,-0.207041 -0.082107,-0.314112 -0.026702,-0.131467 -0.041861,-0.261719 -0.032871,-0.396317 0,-0.14966 0,-0.299319 0,-0.448979 0,-0.203325 0,-0.40665 0,-0.609974 0,-0.188636 0.2667714,-0.188636 0.2667714,0 z"
       inkscape:connector-curvature="0"
       transform="translate(0,988.3622)" />
    <path
       style="fill:#000000;fill-opacity:1;stroke:none"
       id="path3069"
       d="m 13.202313,34.588453 c 0.203808,-5.96e-4 0.406793,-0.0072 0.609115,0.02023 0.109893,0.01895 0.220525,0.03155 0.331715,0.03929 0.188171,0.01324 0.169454,0.279349 -0.01872,0.266114 l 0,0 c -0.117038,-0.0083 -0.233572,-0.02116 -0.34926,-0.04111 -0.190133,-0.0265 -0.381272,-0.01686 -0.572853,-0.01775 -0.188636,0 -0.188636,-0.266771 0,-0.266771 z"
       inkscape:connector-curvature="0"
       transform="translate(0,988.3622)" />
    <path
       style="fill:#000000;fill-opacity:1;stroke:none"
       id="path3071"
       d="m 13.396256,33.468347 c -0.02477,0.199315 -0.04031,0.399571 -0.05035,0.600119 -0.0067,0.147441 -0.0074,0.29505 -0.0078,0.442613 -7.7e-5,0.133173 1.75e-4,0.266347 2.98e-4,0.399521 1.12e-4,0.133164 1.3e-4,0.266328 1.43e-4,0.399492 -0.0092,0.117393 0.0045,0.229166 0.02756,0.343502 0.02315,0.108124 0.06276,0.210653 0.0831,0.320087 0.01536,0.07949 0.01041,0.160966 0.02679,0.240029 0.03372,0.185598 -0.228757,0.233282 -0.262475,0.04768 l 0,0 c -0.01337,-0.07979 -0.01682,-0.159699 -0.02678,-0.239951 -0.01905,-0.10777 -0.06236,-0.207626 -0.08213,-0.315009 -0.02657,-0.131471 -0.04183,-0.261741 -0.03285,-0.396316 -1.3e-5,-0.133091 -3.2e-5,-0.266182 -1.43e-4,-0.399273 -1.23e-4,-0.13347 -3.76e-4,-0.266941 -2.98e-4,-0.400412 3.69e-4,-0.151809 0.0012,-0.303665 0.0081,-0.455347 0.01043,-0.207132 0.02646,-0.413969 0.05207,-0.619828 0.0234,-0.18718 0.288109,-0.154091 0.264712,0.03309 z"
       inkscape:connector-curvature="0"
       transform="translate(0,988.3622)" />
    <path
       style="fill:#000000;fill-opacity:1;stroke:none"
       id="path3073"
       d="m 7.153343,58.386436 c -0.089507,0.163865 -0.1807336,0.326735 -0.2713736,0.490032 -0.058568,0.113901 -0.1033741,0.233389 -0.1555885,0.35012 -0.06008,0.08639 -0.096384,0.18381 -0.1395656,0.278855 -0.033212,0.108247 -0.092993,0.204651 -0.1375708,0.307867 -0.038091,0.103447 -0.081695,0.204909 -0.1215487,0.307854 -0.049988,0.105813 -0.1176167,0.200529 -0.1748229,0.302297 -0.042626,0.107671 -0.094841,0.20912 -0.1555277,0.307662 -0.05465,0.08066 -0.087051,0.169867 -0.1254619,0.258308 -0.033068,0.07174 -0.024468,0.06114 0.028473,0.07977 0.1322506,0.07524 0.2814766,0.11298 0.4252113,0.159932 0.1879593,0.05678 0.381999,0.09363 0.5753964,0.127035 0.1855764,0.0466 0.3732576,0.0798 0.5637183,0.09696 0.1925007,0.01606 0.3861847,0.03686 0.5762783,0.07209 0.1623962,0.04185 0.3286788,0.05702 0.4955159,0.06671 0.1591786,-0.0036 0.3148934,0.02691 0.4716101,0.04939 0.1376383,0.0084 0.2710686,0.04303 0.4065923,0.06574 0.1342364,0.01649 0.2681499,0.02169 0.4013789,0.04605 0.1258896,0.02612 0.2539436,0.03637 0.3821156,0.04225 0.131275,0.0046 0.262656,0.0043 0.393992,0.0043 0.133352,-1.31e-4 0.266703,-3.16e-4 0.400055,-4.12e-4 0.133415,-8.2e-5 0.266831,-8.9e-5 0.400247,-9.5e-5 0.05752,-0.0091 0.11387,0.03192 0.170967,0.02253 0.0088,-0.0015 -0.01941,-0.0048 -0.0268,2.59e-4 -0.01474,0.01001 -0.02576,0.02463 -0.03864,0.03695 -0.004,0.01802 -0.0051,0.03693 -0.01197,0.05405 -0.0044,0.01092 -0.01315,-0.01955 -0.01905,-0.02973 -0.02557,-0.04413 -0.05203,-0.08337 -0.08042,-0.125871 -0.0661,-0.0785 -0.133224,-0.155969 -0.200066,-0.234028 -0.08086,-0.08129 -0.16694,-0.157165 -0.247135,-0.239088 -0.07534,-0.06913 -0.147647,-0.141338 -0.222595,-0.210943 -0.09717,-0.07426 -0.18445,-0.157048 -0.262379,-0.25154 -0.0639,-0.05963 -0.133699,-0.114541 -0.203551,-0.167653 -0.07535,-0.06257 -0.141328,-0.135264 -0.214494,-0.200082 -0.06787,-0.06586 -0.1305967,-0.137395 -0.2009652,-0.20063 C 9.7648263,60.170364 9.6836256,60.09806 9.6082303,60.019771 9.5454916,59.942216 9.4934036,59.855517 9.4236398,59.783911 9.3499074,59.703777 9.296608,59.607833 9.2245322,59.526556 9.153218,59.443543 9.1070055,59.343953 9.0497387,59.251985 c -0.032278,-0.09371 -0.0978,-0.158351 -0.1530547,-0.237083 -0.084643,-0.082 -0.106252,-0.19425 -0.1458534,-0.299323 -0.035974,-0.04115 -0.1069615,-0.04028 -0.1576965,-0.04606 -0.1249125,-0.0094 -0.2503418,-0.0073 -0.3755053,-0.0067 -0.1340279,8.44e-4 -0.2680573,0.0013 -0.4020874,0.0016 -0.1335458,2.14e-4 -0.2670919,2.15e-4 -0.4006378,2.22e-4 -0.022233,0 -0.044467,0 -0.0667,0 -0.1886359,0 -0.1886361,-0.266771 -2e-7,-0.266771 l 0,0 c 0.022228,0 0.044457,0 0.066686,0 0.1333733,-8e-6 0.2667466,-8e-6 0.4001198,-2.22e-4 0.133805,-2.67e-4 0.2676094,-7.48e-4 0.4014122,-0.0016 0.1364472,-6.17e-4 0.2732311,-0.0029 0.4093241,0.0087 0.1575445,0.02042 0.3044267,0.06395 0.3760753,0.220437 0.03043,0.08695 0.045126,0.172567 0.1152414,0.239382 0.053935,0.08351 0.1283196,0.152876 0.1611801,0.249748 0.047621,0.08066 0.089534,0.16496 0.1485837,0.238332 0.067803,0.08038 0.1244302,0.168789 0.1919501,0.249361 0.066608,0.0732 0.1259559,0.152746 0.1826041,0.233752 0.070355,0.075 0.1496707,0.141419 0.2147964,0.22145 0.06852,0.06417 0.133068,0.132477 0.199191,0.19901 0.0669,0.06142 0.129915,0.12676 0.198301,0.186548 0.08543,0.06647 0.173215,0.132265 0.247815,0.210811 0.06894,0.08704 0.151062,0.156204 0.237686,0.225026 0.07757,0.0732 0.153722,0.14763 0.231945,0.220149 0.08261,0.08697 0.17574,0.163577 0.258028,0.251057 0.07372,0.08615 0.148408,0.171143 0.219361,0.259516 0.07325,0.11013 0.155266,0.208823 0.136888,0.349351 -0.01904,0.02757 -0.03287,0.05958 -0.0571,0.08272 -0.07934,0.07577 -0.202577,0.03983 -0.295809,0.02451 -0.133356,7e-6 -0.266711,1.3e-5 -0.400067,9.6e-5 -0.133421,9.6e-5 -0.266842,2.8e-4 -0.400263,4.12e-4 -0.135451,-9e-6 -0.270949,2.85e-4 -0.406333,-0.0046 -0.140202,-0.0066 -0.2802626,-0.01805 -0.4180044,-0.04636 -0.1317808,-0.02438 -0.2648027,-0.02646 -0.3974622,-0.04536 -0.1334365,-0.02259 -0.2646495,-0.05664 -0.4002094,-0.06475 -0.1493809,-0.0215 -0.2974422,-0.05131 -0.4492488,-0.04713 -0.1781653,-0.01049 -0.3559308,-0.0268 -0.5294633,-0.0709 -0.1813328,-0.03508 -0.3671103,-0.05244 -0.5508768,-0.06855 -0.1975403,-0.01808 -0.3926876,-0.05084 -0.5850952,-0.09977 -0.2060127,-0.03575 -0.4126777,-0.0752 -0.6127634,-0.136325 -0.1646227,-0.05383 -0.3349317,-0.09825 -0.4847476,-0.187925 -0.1601657,-0.113711 -0.2159593,-0.224262 -0.1297247,-0.413951 0.045465,-0.09778 0.081553,-0.199081 0.142003,-0.28964 0.058912,-0.09557 0.106923,-0.194655 0.150124,-0.298486 0.051166,-0.09095 0.1094939,-0.176211 0.1586517,-0.268058 0.041448,-0.106554 0.086741,-0.211476 0.1260361,-0.318703 0.046251,-0.10386 0.1042716,-0.201969 0.1389581,-0.310969 0.042907,-0.09419 0.077957,-0.192619 0.1388792,-0.277333 0.055349,-0.123674 0.1028049,-0.250445 0.1658859,-0.370704 0.091256,-0.164189 0.1830642,-0.327967 0.2729624,-0.492852 0.09359,-0.163782 0.325212,-0.03143 0.2316224,0.132356 z"
       inkscape:connector-curvature="0"
       transform="translate(0,988.3622)" />
    <path
       style="fill:#000000;fill-opacity:1;stroke:none"
       id="path3075"
       d="m 7.8869644,59.786986 c -0.078166,0.166428 -0.1726458,0.325456 -0.2356913,0.498581 -0.026072,0.120015 -0.067363,0.236191 -0.092202,0.356502 0.00106,0.05425 0.066041,0.07386 0.1088516,0.09639 0.1033153,0.04511 0.2166373,0.0522 0.327689,0.05824 0.1315549,0.0048 0.2632357,0.0036 0.3948504,0.0031 0.091076,-0.01673 0.2467333,0.03277 0.3245554,-0.01841 0.00861,-0.0421 -0.00161,-0.08029 -0.00764,-0.123097 -0.04045,-0.08527 -0.075637,-0.173908 -0.1208163,-0.256841 -0.055116,-0.06989 -0.1225647,-0.127751 -0.184827,-0.190991 -0.048328,-0.06684 -0.1028734,-0.135137 -0.177502,-0.173785 -0.07731,-0.05019 -0.158274,-0.09814 -0.2438269,-0.133152 -0.012751,-0.0037 -0.025502,-0.0075 -0.038254,-0.01121 -0.1801064,-0.05608 -0.1007943,-0.310791 0.079312,-0.254709 l 0,0 c 0.021144,0.0068 0.042287,0.01364 0.063431,0.02046 0.095081,0.04145 0.1876227,0.09152 0.2741953,0.148434 0.090689,0.05583 0.1763197,0.127249 0.2339701,0.218053 0.078453,0.08238 0.1686852,0.154214 0.2294378,0.252395 0.05748,0.111204 0.113908,0.22539 0.1492577,0.345687 0.021524,0.164794 -0.00146,0.315511 -0.1577598,0.406484 -0.137749,0.04766 -0.278298,0.03824 -0.4226209,0.03745 -0.1368666,4.68e-4 -0.273806,0.0017 -0.4106031,-0.0035 -0.1514262,-0.0086 -0.3042576,-0.02331 -0.4424327,-0.09141 -0.1490568,-0.08541 -0.2666584,-0.19709 -0.240331,-0.384466 0.028331,-0.132853 0.071567,-0.261893 0.1029841,-0.393948 0.069515,-0.186478 0.1677737,-0.359781 0.2543497,-0.538598 0.09359,-0.163782 0.3252121,-0.03143 0.2316225,0.132356 z"
       inkscape:connector-curvature="0"
       transform="translate(0,988.3622)" />
    <path
       style="fill:#000000;fill-opacity:1;stroke:none"
       id="path3077"
       d="m 8.2699136,7.3082043 c 0,0.2033247 0,0.4066494 0,0.6099741 0,0.14966 0,0.2993199 0,0.4489798 0.0041,0.039442 -0.018278,0.255465 0.026213,0.257358 0.057033,0.040323 0.1327227,0.060741 0.2024393,0.072782 0.119036,0.015293 0.2393767,0.014796 0.3591774,0.015396 0.040678,-0.011213 0.2506931,0.033592 0.257976,-0.02725 C 9.1318643,8.609432 9.136247,8.5317756 9.1388112,8.454096 9.1228609,8.3481812 9.0766697,8.2508015 9.0480872,8.1477602 9.0308482,8.0264438 8.9920421,7.9105593 8.966821,7.7909439 8.9432683,7.7247929 8.9693613,7.5860064 8.9005467,7.54116 8.8279203,7.5175696 8.751359,7.5143861 8.6757193,7.5108676 8.5674929,7.507789 8.4592033,7.5089526 8.3509513,7.5095433 8.1623182,7.5105723 8.1608631,7.2438049 8.3494961,7.2427759 l 0,0 c 0.1130357,-6.163e-4 0.2261141,-0.00183 0.3391181,0.00163 0.1500017,0.0075 0.3024214,0.01847 0.4176218,0.126873 0.081185,0.109658 0.1102134,0.2302749 0.1217474,0.3652463 0.023447,0.114232 0.062027,0.2247608 0.077385,0.340711 0.034745,0.1287185 0.098187,0.2499678 0.1000566,0.3860237 C 9.4000028,8.6157287 9.393722,8.7715255 9.2858915,8.8908915 9.1345518,8.9988103 9.0322357,8.9811276 8.8563924,8.9794618 8.7209582,8.9787676 8.5848577,8.9790091 8.4505014,8.9597038 8.3162156,8.934157 8.1949943,8.8874696 8.0912674,8.7953947 7.9829688,8.6441663 8.0016542,8.5428807 8.0031422,8.3671582 c 0,-0.1496599 0,-0.2993198 0,-0.4489798 0,-0.2033247 0,-0.4066494 0,-0.6099741 0,-0.1886358 0.2667714,-0.1886358 0.2667714,0 z"
       inkscape:connector-curvature="0"
       transform="translate(0,988.3622)" />
    <path
       style="fill:#3771c8;fill-opacity:1;stroke:none"
       d="m 5.9852985,37.493233 c 0.030994,0.918433 0.079155,1.869194 0.2771921,2.77609 0.2976028,0.98734 0.7446056,1.926887 1.2442385,2.826109 0.2874149,0.07173 0.2271438,-0.399548 0.3397168,-0.575226 0.4680144,-1.594511 1.7677506,-2.737411 2.3774521,-4.259532 0.103552,-0.23716 0.264756,-0.746877 -0.143242,-0.77161 -1.3373862,-0.07107 -2.6791898,-0.01562 -4.0182439,-0.03335 l -0.059973,0.02918 -0.017141,0.0083 z"
       id="path3081"
       inkscape:connector-curvature="0"
       transform="translate(0,988.3622)" />
    <path
       style="fill:#3771c8;fill-opacity:1;stroke:none"
       d="m 8.6113295,26.188794 c -0.2552787,0.536491 -0.2908642,1.177847 -0.4910416,1.747018 -0.3260479,1.399812 -1.4037056,2.452746 -1.9682573,3.744722 0.00372,0.438943 0.579661,0.511773 0.9190104,0.524697 0.9784516,0.03674 1.9763321,0.07635 2.944539,0.01927 0.06184,-0.640144 -0.038128,-1.346196 -0.1829377,-1.992451 -0.320032,-1.346508 -0.5835782,-2.721016 -1.0900112,-4.009908 -0.026837,-0.03848 -0.089273,-0.05492 -0.1313016,-0.03335 z"
       id="path3083"
       inkscape:connector-curvature="0"
       transform="translate(0,988.3622)" />
    <path
       style="fill:#3771c8;fill-opacity:1;stroke:none"
       d="m 7.1294977,58.403526 c -0.3751886,0.405227 -0.5146111,1.01531 -0.7942551,1.497133 -0.1317089,0.387926 -0.4591861,0.75509 -0.4270577,1.172665 0.3367568,0.323629 0.8857933,0.278636 1.3163611,0.398095 1.3960688,0.188889 2.817801,0.480663 4.223314,0.358452 -0.063,-0.35989 -0.543817,-0.578754 -0.768409,-0.882322 -0.7249729,-0.706261 -1.4628759,-1.394576 -1.9347358,-2.302262 -0.4430435,-0.135473 -0.981409,0.03275 -1.4234755,-0.0917 -0.030805,-0.08115 -0.08358,-0.188564 -0.191742,-0.150059 z m 0.6335821,1.277585 c 0.4699887,2.62e-4 0.7963104,0.392408 1.0545807,0.735705 0.1386162,0.202034 0.1209819,0.602585 -0.2104993,0.568974 -0.3897631,0.01611 -0.8864486,0.06762 -1.1837981,-0.208415 -0.050758,-0.377097 0.1033726,-0.815966 0.3397167,-1.096264 z"
       id="path3085"
       inkscape:connector-curvature="0"
       transform="translate(0,988.3622)" />
    <path
       style="fill:#3771c8;fill-opacity:1;stroke:none"
       d="M 7.9068863,6.3205772 C 7.4616002,6.3408675 6.9902262,6.3156275 6.5667768,6.4414579 6.5994063,7.2028261 6.5405955,8.0217256 6.8231274,8.7465296 7.1644056,9.2987746 7.9374405,9.1285758 8.4811601,9.2370428 8.9122465,9.2256418 9.4682876,9.5062985 9.8243057,9.1529392 9.9714056,8.2786853 9.8978808,7.3604034 9.7346872,6.4935617 9.4298757,6.2893254 8.9670873,6.3733458 8.5967676,6.3249249 8.3668777,6.3193645 8.1368292,6.3159412 7.9068863,6.3205772 z M 8.4425132,7.2876235 C 8.7755261,7.2630653 9.1518322,7.4045987 9.1719663,7.7836516 9.2217722,8.1126624 9.4204774,8.5495057 9.209481,8.8507372 8.8737632,8.9566585 8.4174363,8.9461033 8.1403112,8.7298564 8.088358,8.2465747 8.1065935,7.7475173 8.1027965,7.2584454 c 0.1132389,0.00973 0.2264778,0.019452 0.3397167,0.029178 z"
       id="path3087"
       inkscape:connector-curvature="0"
       transform="translate(0,988.3622)" />
  </g>
</svg>
