<?xml version="1.0" encoding="UTF-8" standalone="no"?>
<!-- Created with Inkscape (http://www.inkscape.org/) -->

<svg
   xmlns:dc="http://purl.org/dc/elements/1.1/"
   xmlns:cc="http://creativecommons.org/ns#"
   xmlns:rdf="http://www.w3.org/1999/02/22-rdf-syntax-ns#"
   xmlns:svg="http://www.w3.org/2000/svg"
   xmlns="http://www.w3.org/2000/svg"
   xmlns:sodipodi="http://sodipodi.sourceforge.net/DTD/sodipodi-0.dtd"
   xmlns:inkscape="http://www.inkscape.org/namespaces/inkscape"
   width="440"
   height="200"
   id="svg2"
   version="1.1"
   inkscape:version="0.48.4 r9939"
   sodipodi:docname="flamethrower.svg"
   inkscape:export-filename="C:\Users\narfman0\Desktop\flamethrower.png"
   inkscape:export-xdpi="90"
   inkscape:export-ydpi="90">
  <defs
     id="defs4" />
  <sodipodi:namedview
     id="base"
     pagecolor="#ffffff"
     bordercolor="#666666"
     borderopacity="1.0"
     inkscape:pageopacity="0.0"
     inkscape:pageshadow="2"
     inkscape:zoom="2.1496046"
     inkscape:cx="208.24646"
     inkscape:cy="62.857143"
     inkscape:document-units="px"
     inkscape:current-layer="layer1"
     showgrid="false"
     inkscape:window-width="1242"
     inkscape:window-height="901"
     inkscape:window-x="416"
     inkscape:window-y="42"
     inkscape:window-maximized="0" />
  <metadata
     id="metadata7">
    <rdf:RDF>
      <cc:Work
         rdf:about="">
        <dc:format>image/svg+xml</dc:format>
        <dc:type
           rdf:resource="http://purl.org/dc/dcmitype/StillImage" />
        <dc:title />
      </cc:Work>
    </rdf:RDF>
  </metadata>
  <g
     inkscape:label="Layer 1"
     inkscape:groupmode="layer"
     id="layer1"
     transform="translate(0,-852.36218)">
    <path
       style="fill:#000000"
       id="path2987"
       d="m 22.116319,890.43725 c -1.133259,-0.43896 -2.342872,-0.71102 -3.48278,-1.12848 -0.872464,-0.35743 -1.811246,-0.45953 -2.755888,-0.51399 -0.993861,-0.0771 -2.002887,0.0592 -2.982036,-0.12051 -0.876809,-0.21247 -1.778077,-0.2897 -2.681149,-0.33516 -0.8667853,-0.0538 -1.7978609,0.0213 -2.5703998,0.4032 -2.3217261,1.05099 -5.4540675,2.68648 5.4696508,-2.8542 0.125219,-0.0635 -0.229367,0.15612 -0.34316,0.23523 -0.400033,0.2781 -0.249085,0.16519 -0.619454,0.48299 -0.721342,0.53492 -1.208726,1.25382 -1.670724,1.97344 -0.5385011,0.84465 -0.911363,1.76335 -1.273553,2.67807 -0.4222374,0.85945 -0.5678708,1.782 -0.7433129,2.6985 -0.2797495,0.8499 -0.4235825,1.71659 -0.4960003,2.59852 -0.077403,1.11097 -0.068683,2.22498 -0.066456,3.3376 -0.012509,1.11203 0.00565,2.22407 -0.00144,3.3361 -0.015201,1.20413 -0.00277,2.40836 0.00388,3.61251 0.085945,1.0995 0.295261,2.18657 0.4103001,3.28406 0.1170046,1.09182 0.4270493,2.14841 0.7222438,3.20811 0.3625357,1.14661 0.6448889,2.31258 1.0525973,3.44714 0.440606,1.37237 0.904222,2.73232 1.440656,4.0778 0.646524,1.3772 1.131986,2.81088 1.811987,4.17492 0.603736,1.27223 1.147932,2.56893 1.887194,3.78339 0.686601,1.25097 1.425454,2.47424 2.081593,3.73919 0.585496,1.05068 1.232745,2.07361 1.872432,3.09833 0.487001,0.8834 1.02128,1.73906 1.603689,2.57362 0.484686,0.79771 0.875704,1.63374 1.351495,2.43607 0.361397,0.67308 0.745394,1.33542 1.135788,1.99559 0.302152,0.70294 0.643757,1.39323 0.86475,2.12229 0.221542,0.87033 0.243859,1.76667 0.265055,2.65536 0.01358,0.93138 0.0083,1.86289 0.0062,2.79432 -0.0023,0.93124 -0.0031,1.86249 -0.0035,2.79374 -3.56e-4,0.93044 -3.25e-4,1.86089 -3.22e-4,2.79133 -0.08736,0.83706 0.123296,1.63929 0.286663,2.45464 0.0585,0.79428 0.322786,1.54981 0.504526,2.32359 0.264088,0.80969 0.450154,1.6344 0.752618,2.43312 0.343885,0.78973 0.354591,1.64203 0.522946,2.46404 0.24838,0.8 0.375429,1.61871 0.448611,2.44489 0.133646,0.80782 -0.112771,1.67991 0.217315,2.45283 0.521247,0.46526 1.4099,0.39522 2.093576,0.41751 1.151684,0.0221 2.303736,0.005 3.455495,-0.004 0.955948,0.0396 1.909432,-0.10543 2.794598,-0.43444 0.871028,-0.25131 1.73307,-0.54048 2.558794,-0.89975 0.947733,-0.26787 1.731176,-0.82375 2.643222,-1.15625 -16.268396,8.41655 0.478231,-0.27295 0.723679,-0.39977 2.072763,-1.07097 -4.131077,2.16471 -6.209512,3.22669 -0.120913,0.0618 0.22751,-0.14454 0.334318,-0.22476 0.293844,-0.22068 0.335847,-0.28867 0.58628,-0.55376 0.648217,-0.60705 1.015519,-1.38334 1.343964,-2.15887 0.36461,-1.05266 0.848205,-2.06559 1.274805,-3.09747 0.381961,-0.97708 0.659196,-1.97482 0.912522,-2.98337 0.30078,-0.97144 0.547059,-1.95599 0.797315,-2.9389 0.238501,-0.94309 0.30879,-1.90851 0.348411,-2.87212 0.11267,-0.96201 0.321278,-1.91023 0.434035,-2.87296 0.0924,-1.03834 0.09717,-2.08079 0.102044,-3.1218 0.0595,-0.94319 -0.03379,-1.86478 -0.206791,-2.79269 -0.10847,-0.94241 -0.379623,-1.85684 -0.574824,-2.78538 -0.177485,-0.92723 -0.391146,-1.85333 -0.639164,-2.76768 -0.293013,-0.87095 -0.410757,-1.7738 -0.693122,-2.64611 -0.19877,-0.86543 -0.502231,-1.70692 -0.716777,-2.56939 -0.199955,-0.90036 -0.409793,-1.80228 -0.653391,-2.69414 -0.254444,-0.93242 -0.517731,-1.86172 -0.778269,-2.7929 -0.192321,-0.93572 -0.356688,-1.87215 -0.567988,-2.80524 -0.134053,-0.94375 -0.400807,-1.86371 -0.5951,-2.79746 -0.181773,-0.93755 -0.219356,-1.88988 -0.243177,-2.83927 -0.01562,-0.93239 -0.0113,-1.86492 -0.01,-2.79738 0.0022,-0.93028 0.0022,-1.86055 0.0033,-2.79083 0.02548,-0.92807 -0.219909,-1.83783 -0.351491,-2.75409 -0.07911,-0.82902 -0.367635,-1.62211 -0.515227,-2.44227 -0.218281,-0.83091 -0.389018,-1.66902 -0.684015,-2.48095 -0.196597,-0.75856 -0.538073,-1.47353 -0.757133,-2.22592 -0.289107,-0.72848 -0.608016,-1.4474 -0.871668,-2.18385 -0.263842,-0.78818 -0.539538,-1.57188 -0.801293,-2.36151 -0.28392,-0.8912 -0.539538,-1.79019 -0.793234,-2.6892 -0.345456,-0.91352 -0.586325,-1.85294 -0.885284,-2.7787 -0.187003,-0.85986 -0.540621,-1.67575 -0.774389,-2.52412 -0.182765,-0.75864 -0.420277,-1.50888 -0.653211,-2.25712 -0.209248,-0.81843 -0.605648,-1.57761 -0.858696,-2.3835 -0.32004,-0.6741 -0.520604,-1.38192 -0.813486,-2.06452 -0.212988,-0.60569 -0.446277,-1.19615 -1.122415,-1.46199 -0.852991,-0.27393 -1.322355,3.6e-4 -2.048617,0.34214 -2.691086,0.98457 -7.308882,3.56259 4.055944,-2.29175 -7.068877,3.68437 -4.464444,2.6985 -7.368347,3.77493 0,0 5.966826,-4.29306 5.966826,-4.29306 l 0,0 c 2.457419,-1.22906 0.530195,-0.26802 -5.714402,2.99039 3.006352,-1.55494 5.866995,-3.27309 9.057142,-4.46726 0.838334,-0.27785 1.685263,-0.19513 2.472177,0.19162 0.715939,0.46057 1.142968,1.09336 1.380079,1.85769 0.303085,0.70619 0.510751,1.4352 0.842676,2.1325 0.22977,0.80574 0.636205,1.55469 0.845157,2.3666 0.269181,0.7502 0.480957,1.52776 0.678065,2.2937 0.209405,0.84426 0.574846,1.64695 0.739313,2.5016 0.301035,0.93472 0.539247,1.88328 0.901896,2.80147 0.238235,0.88722 0.516069,1.76509 0.780131,2.64555 0.289168,0.77981 0.526096,1.57907 0.800185,2.36239 0.259142,0.75226 0.609958,1.47448 0.903946,2.21601 0.195988,0.74315 0.55344,1.43647 0.727723,2.1852 0.307339,0.84906 0.478897,1.72081 0.741696,2.58205 0.130662,0.83201 0.430268,1.62998 0.513842,2.46592 0.120136,0.94482 0.382581,1.87747 0.394979,2.82833 -3.44e-4,0.93053 -9.09e-4,1.86106 -0.0022,2.79159 -0.0022,0.92834 -0.0055,1.85671 0.0022,2.78504 0.01451,0.91611 0.03379,1.83539 0.185584,2.74313 0.176355,0.93339 0.474964,1.84219 0.587334,2.78521 0.201849,0.926 0.411953,1.84385 0.55128,2.77941 0.247254,0.93074 0.535092,1.85029 0.773017,2.78298 0.275441,0.8926 0.457768,1.81469 0.677965,2.71839 0.191734,0.85093 0.510097,1.67027 0.697831,2.52156 0.284991,0.88199 0.404031,1.78807 0.687416,2.67133 0.281745,0.92173 0.468305,1.8755 0.668293,2.81276 0.17908,0.93509 0.484081,1.84538 0.57909,2.79291 0.180997,0.96501 0.35179,1.91575 0.262122,2.90012 -0.0066,1.05751 -0.01806,2.11543 -0.08099,3.17168 -0.0636,0.95614 -0.224275,1.8993 -0.440771,2.837 -0.02903,1.00169 -0.07977,2.00643 -0.298088,2.9918 -0.233127,0.99474 -0.48499,1.98551 -0.77694,2.96596 -0.35076,0.99426 -0.46354,2.0533 -0.892722,3.03166 -0.386414,1.04709 -0.946326,2.03491 -1.268988,3.10218 -0.316468,0.83008 -0.620184,1.67229 -1.19666,2.3913 -0.771898,0.72456 0.186006,-0.20717 -0.552199,0.62461 -1.743663,1.96469 -4.862945,2.48231 -7.146786,3.92723 -0.231145,0.14624 17.974394,-9.39478 -0.748565,0.35737 -0.865367,0.41947 -1.736829,0.82328 -2.6572,1.13937 -0.863409,0.29874 -1.709682,0.63118 -2.606563,0.84585 -0.963632,0.20209 -1.922263,0.31552 -2.915835,0.25842 -1.162604,0.005 -2.326277,0.0179 -3.487913,-0.0336 -1.006824,-0.0785 -1.999431,-0.22209 -2.581378,-1.05665 -0.387105,-0.84953 -0.253058,-1.74637 -0.312906,-2.64828 -0.05752,-0.79776 -0.157256,-1.59176 -0.410253,-2.36136 -0.195705,-0.7899 -0.156998,-1.61989 -0.476366,-2.38895 -0.311048,-0.82758 -0.495466,-1.67927 -0.800388,-2.50941 -0.169151,-0.78305 -0.471002,-1.53779 -0.512672,-2.34076 -0.161324,-0.85375 -0.428615,-1.69112 -0.334353,-2.56728 -10e-6,-0.93053 -5e-5,-1.86106 2.2e-4,-2.7916 3.74e-4,-0.93161 9.78e-4,-1.86323 0.0032,-2.79485 0.0022,-0.92698 0.0071,-1.854 -0.0011,-2.78097 -0.01367,-0.83622 -0.02091,-1.67918 -0.197082,-2.50325 -0.186616,-0.68412 -0.522468,-1.31746 -0.784122,-1.97835 -0.388446,-0.6619 -0.768589,-1.32721 -1.121565,-2.00464 -0.457996,-0.7908 -0.849828,-1.6078 -1.315278,-2.39425 -0.590802,-0.84338 -1.107605,-1.72261 -1.602941,-2.61422 -0.64808,-1.04193 -1.288103,-2.09013 -1.879779,-3.15881 -0.628775,-1.25915 -1.373548,-2.46172 -2.0492062,-3.69995 -0.7481813,-1.23205 -1.314491,-2.53798 -1.9124918,-3.83339 -0.6851125,-1.38261 -1.1757503,-2.83351 -1.8201904,-4.23173 -0.5313577,-1.34862 -1.0789306,-2.68876 -1.4898534,-4.07245 -0.4266626,-1.14689 -0.7097692,-2.32862 -1.101553,-3.48503 -0.287811,-1.09629 -0.6147688,-2.18054 -0.7796963,-3.30052 -0.094266,-1.11862 -0.2701523,-2.22725 -0.4337569,-3.3389 0.00643,-1.2048 0.018592,-2.40971 0.00166,-3.61448 -0.0092,-1.1109 0.00488,-2.22185 -0.00886,-3.33274 0.00465,-1.12476 0.012908,-2.24957 0.043322,-3.37404 0.050856,-0.90802 0.09205,-1.82459 0.4197444,-2.69367 0.3081545,-0.90914 0.2508371,-1.90911 0.7172214,-2.78726 0.410309,-0.92459 0.713769,-1.88899 1.2186053,-2.77972 0.4804278,-0.74463 0.8940186,-1.52917 1.5491728,-2.16814 1.03568,-0.76039 -0.429253,0.34264 0.6025302,-0.53152 2.2340738,-1.89278 5.1228469,-3.19217 7.9920799,-4.18025 0.912871,-0.17659 1.814642,-0.27827 2.74965,-0.1601 0.913827,0.0728 1.813156,0.21121 2.713478,0.36751 0.984673,0.0509 1.974265,0.006 2.957066,0.0989 0.990102,0.104 1.953075,0.30033 2.8647,0.67665 1.158297,0.37555 2.3139,0.76603 3.491967,1.08592 0,0 -6.327533,3.87482 -6.327533,3.87482 z"
       inkscape:connector-curvature="0" />
    <path
       style="fill:#000000"
       id="path2989"
       d="m 18.633529,887.51872 c 0.04779,-1.18342 0.0317,-2.36815 0.02567,-3.55211 -0.006,-1.00534 -0.009,-2.01069 -0.01064,-3.01603 -0.0011,-0.93118 -0.0011,-1.86237 -0.0011,-2.79355 3.1e-5,-0.92928 7.5e-5,-1.85856 9.8e-5,-2.78784 1.4e-5,-0.62019 1.7e-5,-1.24037 2e-5,-1.86056 0,0 6.788736,-3.12196 6.788736,-3.12196 l 0,0 c 3e-6,0.62018 7e-6,1.24036 2.1e-5,1.86054 2.2e-5,0.92925 6.6e-5,1.8585 9.8e-5,2.78775 -4e-6,0.93151 6.2e-5,1.86302 -0.0011,2.79453 -0.0016,1.0086 -0.0045,2.0172 -0.01064,3.02578 -0.006,1.17609 -0.02258,2.35298 0.02567,3.52851 0,0 -6.816967,3.13494 -6.816967,3.13494 z"
       inkscape:connector-curvature="0" />
    <path
       style="fill:#000000"
       id="path2991"
       d="m 43.52251,966.8767 c 0.06448,1.11479 0.387589,2.17305 0.800417,3.21713 0.319205,0.74274 0.883493,1.32932 1.428159,1.93716 0.523713,0.42586 0.931689,0.96396 1.554621,1.27773 0.791288,0.26354 1.652046,0.26021 2.484805,0.27899 0.1371,-0.0306 0.274277,-0.0609 0.411299,-0.0917 0.625437,-0.14078 0.207755,-0.006 0.732655,-0.28153 0.111262,-0.0583 0.454177,-0.21835 0.342583,-0.16054 -6.510492,3.37256 -8.206379,4.45122 -5.940687,3.02652 0.767899,-0.4339 1.227783,-1.14829 1.671568,-1.83733 0.413061,-0.76743 0.948675,-1.46541 1.468411,-2.1737 0.465269,-0.6784 0.937085,-1.35155 1.372982,-2.04636 0.482386,-0.75153 1.00723,-1.47335 1.429632,-2.25504 0.454144,-0.77293 0.95253,-1.52439 1.359497,-2.31894 0.342949,-0.83592 0.845147,-1.60778 1.206621,-2.435 0.344866,-0.6863 0.563512,-1.41426 0.86469,-2.11473 0.238923,-0.69669 0.535414,-1.37746 0.767046,-2.0762 0.285146,-0.70994 0.519714,-1.42294 0.704634,-2.15972 0.317045,-0.74779 0.432705,-1.53534 0.579899,-2.31874 0.248605,-0.88698 0.397228,-1.78812 0.478808,-2.69887 0.0739,-0.90124 0.01119,-1.80487 0.175147,-2.69833 0.209583,-0.80435 0.307018,-1.62327 0.361884,-2.44634 0.04676,-0.91397 0.04532,-1.8292 0.04653,-2.74393 -2.22e-4,-0.93117 -0.0022,-1.86234 -0.0022,-2.79351 -7.31e-4,-0.93069 -8.2e-4,-1.86139 -8.97e-4,-2.79208 -3.4e-5,-0.93041 -2.3e-5,-1.86082 -1.2e-5,-2.79123 0.02504,-0.92811 -0.22023,-1.83789 -0.351834,-2.7542 -0.12355,-0.93737 -0.145831,-1.88187 -0.160667,-2.8247 0.06725,-0.92995 -0.134252,-1.83686 -0.289168,-2.75004 -0.181973,-0.97142 -0.154008,-1.95891 -0.254722,-2.93613 -0.183501,-1.03162 -0.336534,-2.06537 -0.420927,-3.10753 -0.02172,-0.83435 -0.290199,-1.63849 -0.427111,-2.46039 -0.05307,-0.89849 -0.274731,-1.77358 -0.439663,-2.65799 -0.08631,-0.94121 -0.328679,-1.85841 -0.508867,-2.78638 -0.165386,-0.87882 -0.145731,-1.76941 -0.351381,-2.64153 -0.250866,-0.79645 -0.250234,-1.62989 -0.407765,-2.43889 -0.24444,-0.79909 -0.37354,-1.61558 -0.447685,-2.44006 0.01185,-0.91883 -0.194448,-1.81424 -0.35137,-2.71684 -0.176798,-0.9254 -0.147127,-1.86773 -0.258998,-2.79794 -0.196565,-0.93134 -0.338262,-1.86816 -0.417039,-2.81334 -0.178826,-0.79757 -0.375556,-1.58678 -0.478708,-2.3965 -0.08609,-0.89867 -0.06493,-1.79598 -0.223566,-2.68786 -0.139792,-0.93585 -0.335703,-1.8574 -0.558847,-2.7794 -0.109024,-0.85636 -0.411544,-1.67159 -0.618722,-2.50903 -0.154528,-0.77459 -0.446788,-1.51294 -0.597582,-2.2898 -0.229881,-0.69547 -0.408663,-1.40048 -0.685621,-2.08207 -0.204996,-0.60815 -0.438257,-1.19729 -1.114493,-1.46289 -0.834621,-0.1807 -1.725327,-0.26112 -2.569276,-0.10901 -1.030454,0.17321 -2.062093,0.4105 -3.039508,0.75641 -0.969028,0.22928 -1.82942,0.6684 -2.808187,0.86836 -0.469468,0.3164 -1.059615,0.33005 -1.587661,0.49084 -0.249769,0.0761 -0.475939,0.20568 -0.72132,0.29261 -0.886186,0.22245 -1.792957,0.40756 -2.652218,0.70914 -0.984595,0.32045 -2.04697,0.4978 -2.985465,0.91853 -0.763632,0.317 -1.618493,0.53446 -2.311684,0.96784 -0.669769,0.33377 -1.44018,0.53456 -2.063389,0.93547 -0.113967,0.0513 -0.224141,0.1102 -0.341901,0.15401 -0.975703,0.363 0.174525,-0.15402 -0.686323,0.31098 -0.109445,0.0591 -0.452865,0.21169 -0.342498,0.15399 6.553666,-3.4264 8.178495,-4.49008 5.935061,-3.04042 -0.602866,0.37597 -1.152223,0.82826 -1.655356,1.30894 -0.561893,0.55438 -0.977949,1.20073 -1.423342,1.82939 0,0 -6.986241,2.79948 -6.986241,2.79948 l 0,0 c 0.411724,-0.67868 0.880296,-1.31506 1.367948,-1.94824 0.485896,-0.53654 1.019865,-0.9963 1.574115,-1.46943 2.767192,-1.59065 5.588657,-3.1011 8.509718,-4.4359 0.707991,-0.27249 1.378311,-0.61973 2.06853,-0.92642 0.786735,-0.28986 1.541615,-0.64431 2.347107,-0.8956 1.004671,-0.28979 2.00429,-0.59275 3.00844,-0.88392 0.888856,-0.23349 1.781833,-0.46245 2.651798,-0.74695 0.76976,-0.26585 1.572648,-0.45954 2.343018,-0.72552 0.925706,-0.28799 1.823292,-0.64506 2.7681,-0.88591 1.034863,-0.27333 2.070513,-0.561 3.152222,-0.63568 0.977437,-0.0103 1.986452,0.0346 2.868881,0.45393 0.719215,0.46257 1.147544,1.09885 1.378145,1.86888 0.296325,0.72315 0.487561,1.46648 0.745938,2.20178 0.129932,0.77183 0.425936,1.4967 0.580464,2.26092 0.189164,0.84288 0.516357,1.65443 0.603067,2.5157 0.21756,0.93278 0.457092,1.85484 0.575356,2.80402 0.181685,0.90476 0.220452,1.80364 0.255896,2.72204 0.08819,0.82126 0.271474,1.62209 0.483118,2.42418 0.06149,0.93122 0.175513,1.85752 0.391545,2.77108 0.167779,0.92239 0.09174,1.86439 0.254477,2.79001 0.148712,0.91935 0.408995,1.82505 0.386038,2.75995 0.05861,0.79775 0.160733,1.59125 0.412319,2.36112 0.193651,0.79968 0.153188,1.63288 0.400109,2.42728 0.222181,0.88635 0.236507,1.77866 0.353519,2.67959 0.165353,0.93222 0.447198,1.84401 0.512313,2.78911 0.153332,0.88994 0.421659,1.76129 0.458045,2.6647 0.123804,0.84331 0.410114,1.66306 0.437813,2.51456 0.06382,1.03317 0.18595,2.06116 0.389517,3.08019 0.153354,0.96549 0.105811,1.94427 0.260804,2.91121 0.149709,0.9422 0.410269,1.87368 0.33793,2.83238 0.0089,0.91995 0.01983,1.84148 0.121311,2.75773 0.120126,0.94479 0.382526,1.87738 0.395179,2.8282 -1.1e-5,0.9304 -2.2e-5,1.8608 -1.1e-5,2.7912 3.3e-5,0.93057 6.6e-5,1.86114 5.98e-4,2.79171 6.43e-4,0.93137 0.0022,1.86274 0.0033,2.79411 5.1e-4,0.92393 0.0033,1.84808 -0.02515,2.77174 -0.03623,0.84918 -0.08753,1.70219 -0.301854,2.53287 -0.227034,0.86896 -0.214159,1.73462 -0.232972,2.6266 -0.06127,0.93546 -0.162384,1.87057 -0.427919,2.77968 -0.216985,0.78144 -0.181652,1.61297 -0.535758,2.36793 -0.301644,0.68965 -0.261159,1.48451 -0.722505,2.13073 -0.171757,0.74582 -0.537541,1.41201 -0.721165,2.15276 -0.0944,0.21741 -0.228662,0.42044 -0.311383,0.64171 -0.181695,0.48607 -0.232019,1.0172 -0.580885,1.44865 -0.279208,0.88115 -0.821236,1.63399 -1.196117,2.48105 -0.341785,0.83947 -0.849799,1.59882 -1.312221,2.38623 -0.507869,0.72955 -0.809392,1.57723 -1.445797,2.24254 -0.381484,0.71778 -0.820782,1.42132 -1.347011,2.05941 -0.412673,0.77885 -1.131245,1.37946 -1.486116,2.19165 -0.465357,0.7242 -0.858741,1.49385 -1.510237,2.10391 -2.662987,1.6575 -5.48129,3.99214 -8.851725,4.05562 -0.944864,-0.0505 -1.913116,-0.11358 -2.73956,-0.57412 -0.62537,-0.4202 -1.138192,-0.95045 -1.673783,-1.45914 -0.601316,-0.6676 -1.16741,-1.35006 -1.520054,-2.15989 -0.420196,-1.07733 -0.764353,-2.16308 -0.905619,-3.30305 0,0 6.757702,-3.23566 6.757702,-3.23566 z"
       inkscape:connector-curvature="0" />
    <path
       style="fill:#000000"
       id="path2993"
       d="m 36.192033,880.02426 c 0.207157,-1.08316 0.566859,-2.13323 0.78843,-3.21372 0.139327,-0.96914 0.416407,-1.91399 0.576519,-2.88009 0.133533,-0.91232 0.149764,-1.83362 0.162196,-2.7524 0,0 6.792092,-3.11626 6.792092,-3.11626 l 0,0 c -0.0066,0.94405 -0.0144,1.89 -0.121355,2.8301 -0.132325,0.98207 -0.411543,1.93248 -0.575312,2.90724 -0.191545,1.07952 -0.56801,2.11716 -0.750171,3.19265 0,0 -6.872399,3.03248 -6.872399,3.03248 z"
       inkscape:connector-curvature="0" />
    <path
       style="fill:#000000"
       id="path2995"
       d="m 39.882483,972.50948 c -0.07856,1.14755 0.01285,2.30375 0.308879,3.42228 0.181951,0.82813 0.606479,1.56281 1.021003,2.30862 0.387201,0.63139 0.939733,1.14384 1.446063,1.6926 0.518562,0.46808 1.023784,0.9395 1.577911,1.37514 0.672802,0.48024 1.392316,0.86675 2.176535,1.18291 0.92554,0.4302 1.903975,0.78934 2.903716,1.0551 0.998455,0.37609 2.054392,0.58745 3.090275,0.85939 1.018975,0.27421 2.01455,0.56732 3.07185,0.70482 1.033002,0.25936 2.078047,0.4406 3.111603,0.69515 0.957672,0.12453 1.837929,0.48084 2.782881,0.65405 0.88716,0.044 1.708153,0.34178 2.57814,0.47946 0.931822,0.0764 1.834483,0.11637 2.743082,0.32131 0.886053,0.19585 1.799195,0.23443 2.706852,0.26343 1.005336,-0.0144 2.028212,0.11065 3.018302,-0.0697 1.048791,-0.14137 2.031768,-0.48651 3.072902,-0.66626 1.011851,-0.3088 2.052709,-0.50202 3.079007,-0.76392 0.174306,-0.0359 0.35342,-0.0563 0.522894,-0.10765 0.296659,-0.0899 0.566271,-0.24302 0.861522,-0.3366 0.43655,-0.13839 0.845521,-0.18756 1.26071,-0.37691 0.779931,-0.23933 1.451835,-0.61262 2.264773,-0.77253 0.44538,-0.31858 1.016571,-0.32254 1.525371,-0.47758 0.248672,-0.0758 0.473623,-0.2053 0.717996,-0.29174 0.779499,-0.32628 1.606475,-0.73821 2.417119,-0.98557 0.867305,-0.43456 1.853961,-0.65068 2.715339,-1.0841 0.753683,-0.34261 1.608181,-0.55966 2.303131,-0.99331 2.460285,-1.10499 1.094926,-0.49955 -5.888889,3.07675 -0.108359,0.0555 0.202381,-0.13142 0.304924,-0.19538 0.351114,-0.21902 0.702584,-0.43622 1.063327,-0.64204 0.719103,-0.47449 1.465275,-0.91311 2.198804,-1.36885 0.58514,-0.47098 1.29148,-0.78564 1.902236,-1.22514 0.563601,-0.42921 1.15069,-0.82063 1.773057,-1.17969 0.66129,-0.47974 1.363431,-0.91215 2.062359,-1.34556 3.778673,-2.11265 16.126033,-8.36097 2.688316,-1.41644 0.219189,-0.1205 0.626334,-0.34575 0.846547,-0.46098 23.18154,-12.13 -4.202435,2.14958 1.20691,-0.68404 2.30341,-1.2066 4.61775,-2.39614 6.92662,-3.59421 -2.0613,1.06805 -4.11967,2.14072 -6.18389,3.20415 -0.11834,0.061 0.22747,-0.13579 0.34591,-0.1966 2.3067,-1.18421 4.57479,-2.43307 6.92915,-3.53827 2.1195,-0.99495 -8.2682,4.32347 -6.22413,3.20732 2.26486,-1.23673 4.57831,-2.39985 6.88673,-3.56914 2.09059,-1.05894 -4.15546,2.15873 -6.23319,3.2381 4.21486,-2.37557 13.91442,-7.22702 0.94673,-0.5496 -0.10947,0.0564 0.20871,-0.1278 0.31537,-0.18845 0.5011,-0.28492 0.11735,-0.0318 0.5984,-0.37151 0.56597,-0.42514 1.15192,-0.81703 1.77319,-1.17625 0.64363,-0.47036 1.33114,-0.8887 2.00871,-1.31763 2.59813,-1.95434 5.76221,-3.28915 8.63945,-4.79477 -11.14363,6.08198 -6.88367,3.70255 -4.5116,2.17921 0.26703,-0.10151 0.45778,-0.30669 0.70323,-0.43651 2.29415,-1.21335 4.63241,-2.35907 6.90534,-3.60451 2.03569,-1.11545 -4.12537,2.14859 -6.19343,3.21442 -0.11693,0.0603 0.22259,-0.13728 0.33955,-0.19746 2.30503,-1.18597 4.61727,-2.36048 6.92591,-3.54073 0.12942,-0.0603 0.51443,-0.24641 0.38827,-0.18075 -13.26519,6.90461 -2.28095,0.97828 2.17671,-1.03913 -2.03881,1.05678 -8.17598,4.19386 -6.11644,3.17034 2.34262,-1.16419 4.64508,-2.39305 6.9658,-3.59244 0.14815,-0.0766 0.58882,-0.31207 0.44076,-0.23539 -10.64659,5.51424 -7.34541,3.83569 -5.06907,2.59857 15.61879,-8.13751 3.64285,-1.89189 0.94439,-0.50774 -0.14514,0.0744 0.27918,-0.16524 0.41871,-0.24795 0.3676,-0.21795 0.71229,-0.45788 1.07055,-0.68787 2.47193,-1.41508 4.85965,-2.58854 7.571,-3.93723 2.09553,-1.04235 -8.26759,4.34997 -6.23017,3.21767 6.00613,-3.3379 4.41894,-2.83112 7.25687,-3.69238 0.87499,-0.38235 1.81799,-0.59536 2.69768,-0.97412 1.05167,-0.41415 2.15721,-0.66882 3.23954,-0.99829 1.15497,-0.33089 2.2858,-0.72546 3.42968,-1.0874 1.08283,-0.25212 2.07044,-0.7325 3.13444,-1.03475 0.97577,-0.4325 2.05755,-0.67471 3.00972,-1.14197 1.00399,-0.35909 2.09638,-0.53605 3.0683,-0.95943 0.55869,-0.30377 1.21873,-0.29869 1.82425,-0.44696 0.26903,-0.0659 0.51793,-0.18676 0.7816,-0.26841 0.89433,-0.23055 1.82938,-0.25672 2.7528,-0.28266 1.02901,0.0263 2.02118,-0.0141 3.02907,-0.18935 1.15194,-0.18266 2.32547,-0.22604 3.49247,-0.26212 1.0954,0.0691 2.14018,-0.1175 3.21084,-0.28034 1.05258,-0.0517 2.05879,-0.27856 3.0887,-0.45613 1.04162,-0.11664 2.06551,-0.18974 3.09123,-0.38848 1.15078,-0.19741 2.32744,-0.23816 3.49579,-0.27338 1.19174,0.0594 2.34618,-0.1108 3.51868,-0.2677 1.10164,-0.14671 2.21467,-0.18724 3.32639,-0.20946 1.0263,-0.0548 2.06966,0.084 3.08082,-0.0981 1.02008,-0.20557 2.06001,-0.29114 3.10151,-0.34083 1.03298,-0.0749 2.04304,-0.30842 3.07931,-0.4074 1.03609,-0.1194 2.04641,-0.3598 3.09072,-0.46447 1.05603,-0.0865 2.11745,-0.0944 3.17701,-0.0917 1.1509,-0.18533 2.30734,-0.32633 3.47307,-0.40466 1.04706,-0.10223 2.11537,0.0361 3.1482,-0.15227 1.02048,-0.20723 2.06132,-0.292 3.10355,-0.34117 1.01041,-0.24442 2.04413,-0.37039 3.08485,-0.44276 0.68492,-0.0934 1.39546,0.0199 2.07937,-0.0556 0.2899,-0.032 0.56603,-0.13018 0.84926,-0.19451 0.91348,-0.19338 1.85349,-0.22849 2.7874,-0.25612 0.16743,-0.003 0.33487,-0.006 0.50229,-0.009 0,0 -6.15264,4.06149 -6.15264,4.06149 l 0,0 c -0.1653,0.006 -0.33061,0.013 -0.49593,0.0195 -0.91841,0.0543 -1.83045,0.1521 -2.72712,0.34623 -0.9802,0.14003 -1.97773,0.0736 -2.96293,0.18302 -1.03983,0.1092 -2.05876,0.32107 -3.09806,0.42717 -1.03321,0.0778 -2.05359,0.22522 -3.07699,0.37199 -1.05269,0.0525 -2.10926,0.0338 -3.15977,0.1276 -1.17039,0.10484 -2.32894,0.30108 -3.50364,0.35901 -1.04546,0.0197 -2.09418,0.034 -3.13146,0.16638 -1.03379,0.145 -2.04926,0.3842 -3.09445,0.46014 -1.03421,0.13464 -2.05612,0.35766 -3.10526,0.37681 -1.03339,0.0783 -2.05387,0.22672 -3.0783,0.36846 -1.03909,0.0437 -2.07988,0.0124 -3.11951,0.0485 -1.09142,0.0381 -2.18136,0.10827 -3.26118,0.26277 -1.18596,0.15108 -2.37132,0.2137 -3.5694,0.21438 -1.15328,0.052 -2.3067,0.13339 -3.43604,0.36351 -1.02507,0.16475 -2.07147,0.18304 -3.08987,0.39017 -1.0281,0.19269 -2.06376,0.3039 -3.10258,0.43834 -1.08148,0.16076 -2.16202,0.20389 -3.25787,0.20641 -1.15581,0.0517 -2.3098,0.13574 -3.44761,0.33543 -1.02437,0.12635 -2.05507,0.08 -3.08584,0.13109 -0.89768,0.0566 -1.79392,0.14928 -2.64238,0.43828 -0.85553,0.24304 -1.75126,0.37064 -2.56248,0.73837 -1.02654,0.2964 -2.05838,0.59345 -3.04446,0.98777 -1.02034,0.35102 -2.01615,0.75658 -3.04621,1.0851 -1.0359,0.36058 -2.06142,0.74537 -3.1258,1.03582 -1.13639,0.37615 -2.2826,0.73105 -3.43621,1.06137 -1.09152,0.29745 -2.15999,0.65931 -3.2092,1.06215 -0.91296,0.31951 -1.84039,0.60549 -2.72093,0.99512 -2.43221,1.2087 -0.44779,0.22534 5.87416,-3.07654 -1.62683,0.79589 -15.77916,8.24436 -0.68527,0.32838 0.22985,-0.12055 -0.96354,0.47073 -0.66041,0.40353 -0.57346,0.24095 -0.98702,0.62045 -1.52751,0.90664 -7.68059,4.06685 -10.36299,5.46175 -0.9456,0.52972 -0.86434,0.50093 -0.10614,0.0735 -0.97188,0.52858 -2.32682,1.22302 -4.64788,2.45496 -6.97635,3.67541 -5.56222,2.91539 21.80879,-11.43215 -1.31461,0.64633 -0.20975,0.10229 -2.43599,1.19228 -1.30066,0.59442 12.68664,-6.68076 3.09614,-1.49243 -1.29565,0.60863 2.06321,-1.07723 4.12856,-2.15112 6.18962,-3.2317 0.11528,-0.0604 -0.23683,0.11083 -0.35216,0.17122 -2.29448,1.20145 -4.57915,2.41821 -6.87714,3.61421 -2.05714,1.07064 4.10055,-2.16267 6.15458,-3.23815 0.24917,-0.13046 -1.01687,0.54282 -0.69412,0.46458 -2.84629,1.37922 -4.99432,4.89037 -8.55373,4.63838 11.20016,-5.89907 6.73658,-3.72633 4.39101,-2.11798 -0.58828,0.53163 -1.32416,0.88491 -1.99485,1.32538 -0.53229,0.48603 -1.2663,0.69249 -1.75628,1.21576 -1.34345,0.7973 0.76032,-0.47724 -0.57694,0.42438 -2.21734,1.495 -4.79274,2.4998 -7.1786,3.76594 -2.06342,1.09503 4.13407,-2.17895 6.20501,-3.26238 0.10658,-0.0558 -0.20789,0.11955 -0.31183,0.17932 -2.27864,1.2108 -4.6675,2.26664 -6.83592,3.63241 -1.95936,1.2341 8.32505,-4.2335 6.20668,-3.23609 -2.34801,1.10554 -4.5456,2.45966 -6.89617,3.56073 -2.11451,0.99049 4.12707,-2.14901 6.18729,-3.22867 0.11722,-0.0614 -0.23874,0.11593 -0.3581,0.1739 -2.29679,1.20259 -4.59359,2.40519 -6.89038,3.60778 2.04585,-1.07361 4.08989,-2.15004 6.13755,-3.22084 0.13137,-0.0687 -0.25778,0.14494 -0.3886,0.21451 -2.30025,1.22314 -4.65848,2.361 -6.90455,3.66359 -1.971193,1.14318 4.04705,-2.13233 6.07923,-3.18495 0.28706,-0.1487 -1.09123,0.64886 -0.84508,0.47053 -2.32059,1.21019 -4.63918,2.42351 -6.961757,3.63058 -4.535939,2.35735 8.527677,-4.49308 4.266677,-2.25917 -0.68204,0.44684 -1.36765,0.86622 -2.06296,1.29455 -0.53295,0.48624 -1.2682,0.69166 -1.758968,1.21538 -0.651207,0.38848 -1.221976,0.87314 -1.929646,1.18937 -0.644216,0.56662 -1.449199,0.94083 -2.186174,1.40106 -0.405195,0.31744 -0.885066,0.6014 -1.349947,0.84838 -2.278845,1.21068 -4.560171,2.41754 -6.843303,3.62161 -0.110985,0.0585 -0.225915,0.11073 -0.338861,0.1661 -0.78269,0.2937 -1.531875,0.65559 -2.314975,0.95018 -0.929717,0.32704 -1.829132,0.71539 -2.751171,1.05926 -0.803065,0.34149 -1.612355,0.66909 -2.428827,0.98343 -0.750504,0.26047 -1.532142,0.45187 -2.278989,0.72282 -0.748232,0.25893 -1.460622,0.59304 -2.225861,0.81611 -0.899415,0.22913 -1.755929,0.56932 -2.669658,0.75535 -1.030709,0.26072 -2.078247,0.46677 -3.107593,0.73259 -1.033633,0.23081 -2.050492,0.53352 -3.118617,0.61435 -1.032115,0.0426 -2.066358,0.0158 -3.098441,-0.0202 -0.940586,-0.0521 -1.87807,-0.14097 -2.793395,-0.35326 -0.903436,-0.16058 -1.832079,-0.12682 -2.7331,-0.31032 -0.861976,-0.17783 -1.712452,-0.38757 -2.589795,-0.49931 -0.928344,-0.22476 -1.834572,-0.51703 -2.781252,-0.68077 -1.016383,-0.24377 -2.05118,-0.42148 -3.073756,-0.64229 -1.060535,-0.19261 -2.077194,-0.51141 -3.118606,-0.77098 -1.039195,-0.27806 -2.093836,-0.50773 -3.101886,-0.87443 -1.013602,-0.3202 -2.013808,-0.68155 -2.970416,-1.1236 -0.821457,-0.37236 -1.592702,-0.79861 -2.300183,-1.33209 -0.585207,-0.45445 -1.111602,-0.96233 -1.64552,-1.46471 -0.552565,-0.58353 -1.10605,-1.16449 -1.52136,-1.83985 -0.444007,-0.79315 -0.899902,-1.57261 -1.081277,-2.45832 -0.314405,-1.15825 -0.419345,-2.35678 -0.435381,-3.54705 0,0 6.816961,-3.13494 6.816961,-3.13494 z"
       inkscape:connector-curvature="0" />
    <path
       style="fill:#000000"
       id="path2997"
       d="m 217.70525,939.48014 c -0.0478,1.18343 -0.0317,2.36815 -0.0257,3.55212 -0.0409,0.89187 0.2258,1.75844 0.36604,2.63484 0.0248,0.80893 0.27006,1.58122 0.44433,2.36872 0.10582,0.7504 0.23363,1.50224 0.54196,2.20959 0.42856,0.53567 1.25823,0.50271 1.92161,0.53953 1.00568,0.0332 2.01239,0.0194 3.01848,0.0137 1.04833,0.0869 2.04373,-0.10795 3.06703,-0.26604 1.0336,-0.15034 2.08098,-0.18266 3.12568,-0.20331 1.03317,-0.0139 2.06651,-0.0105 3.09975,-0.009 1.03084,0.002 2.06169,0.002 3.09252,0.003 1.03082,3.1e-4 2.06163,3e-4 3.09245,3.1e-4 0.68059,-0.0529 1.38318,0.0693 2.06171,-2e-5 0.004,-4.3e-4 0.83584,-0.18854 0.84645,-0.19094 0.87596,-0.0613 1.66745,-0.34473 2.50851,-0.53463 0.88973,-0.0429 1.70416,-0.29829 2.56213,-0.47645 0.93986,-0.1598 1.89923,-0.17539 2.85248,-0.19148 1.03957,0.0825 2.02771,-0.10746 3.04341,-0.26142 0.681,-0.15206 1.40191,-0.0738 2.08712,-0.17321 0.29209,-0.0424 0.56866,-0.14757 0.85398,-0.21816 0.58146,-0.18869 1.21972,-0.12312 1.81312,-0.23059 0.27226,-0.0493 0.52638,-0.16011 0.79215,-0.23276 0.86456,-0.0796 1.65097,-0.35922 2.48568,-0.54568 0.86539,-0.0722 1.63965,-0.39965 2.49379,-0.53481 0.6224,-0.13331 1.27998,-0.038 1.90515,-0.12172 0.28223,-0.0378 0.5493,-0.13963 0.82506,-0.20573 0.91202,-0.19714 1.85217,-0.22991 2.78539,-0.25684 0.96001,-0.28548 2.00774,-0.22717 2.95572,-0.52104 0.40786,-0.18078 0.88418,-0.16618 1.30774,-0.28478 0.12893,-0.0361 0.48314,-0.21707 0.36583,-0.15679 -6.98826,3.59076 -8.25857,4.31438 -5.94662,3.00834 0.6217,-0.34633 1.0051,-0.93744 1.32182,-1.51573 0.4633,-0.65194 0.7984,-1.3631 1.18907,-2.04924 0.43125,-0.71504 0.5394,-1.51392 0.60888,-2.31174 0.0487,-0.85385 0.10304,-1.70615 -0.0726,-2.54948 -0.13703,-0.6851 -0.47162,-1.32159 -0.81717,-1.93857 -0.39602,-0.49198 -0.7674,-1.02039 -1.35933,-1.33328 -0.78689,-0.26772 -1.64678,-0.26202 -2.47662,-0.28029 -0.81761,0.2752 -1.73122,0.22517 -2.53225,0.51569 -0.80851,0.34053 -1.7321,0.23298 -2.55316,0.49634 -0.85859,0.27004 -1.76871,0.32338 -2.66908,0.36491 -0.83965,0.27936 -1.72087,0.38048 -2.60716,0.44178 -0.92239,-0.0417 -1.77452,0.2591 -2.675,0.38563 -0.97056,0.11116 -1.95053,0.11951 -2.92737,0.12891 -1.02937,0.006 -2.05876,0.002 -3.08813,0.001 -0.90908,0.0262 -1.78481,0.28508 -2.6953,0.37683 -0.98927,0.0801 -1.98345,0.0836 -2.97589,0.0889 -0.68004,0.0548 -1.38161,-0.0681 -2.05963,10e-5 -0.006,5.3e-4 -0.83631,0.18701 -0.84785,0.1896 -0.91363,0.19291 -1.85344,0.22966 -2.78744,0.25809 -1.01811,0.0643 -2.01579,0.29248 -3.03694,0.38873 -1.03765,0.0825 -2.08007,0.0884 -3.12093,0.094 -0.90935,0.0298 -1.7852,0.28675 -2.69639,0.37765 -0.90923,-0.0167 -1.74244,0.29228 -2.63056,0.42099 -0.96931,0.11355 -1.94851,0.12129 -2.92435,0.13053 -1.02954,0.005 -2.05909,0.002 -3.08863,6.5e-4 -0.94704,-0.0959 -1.82831,0.20133 -2.75131,0.33033 -0.1532,0.0155 -0.30975,0.0137 -0.4596,0.0464 -0.26491,0.0577 -0.50599,0.18515 -0.76761,0.25404 -0.42277,0.1113 -0.79879,0.14259 -1.1971,0.31913 -0.36418,0.20038 -0.80984,0.18648 -1.19919,0.30436 -0.3826,0.11584 -0.72152,0.29273 -1.11864,0.39284 -0.57428,0.0999 -0.28264,0.0572 -0.87509,0.12716 0,0 6.09421,-4.15117 6.09421,-4.15117 l 0,0 c 0.55651,-0.12079 0.28391,-0.052 0.81814,-0.2054 0.76164,-0.26156 1.54474,-0.4507 2.30768,-0.71046 0.83252,-0.17694 1.64004,-0.44071 2.49482,-0.52311 0.93506,-0.16555 1.85938,-0.29417 2.81821,-0.2253 1.02711,0.001 2.05434,0.004 3.08132,-0.0131 0.95667,-0.0237 1.91845,-0.0548 2.85836,-0.23237 0.87874,-0.17742 1.74907,-0.34318 2.65166,-0.39031 0.91093,-0.13668 1.81025,-0.35724 2.74323,-0.30078 1.02496,-0.0144 2.05211,-0.0356 3.06998,-0.15532 1.02334,-0.13087 2.0359,-0.34942 3.07455,-0.35196 0.91948,-0.0552 1.83198,-0.15536 2.73105,-0.3436 0.98595,-0.13047 1.9845,-0.0509 2.97793,-0.0808 0.9778,-0.0153 1.95889,-0.0341 2.92786,-0.16507 0.91227,-0.13748 1.81332,-0.35901 2.74792,-0.29279 1.02696,9.2e-4 2.05405,0.004 3.08088,-0.0135 0.95861,-0.0236 1.92166,-0.0555 2.86487,-0.2257 0.8966,-0.17033 1.78481,-0.32042 2.70503,-0.34096 0.88218,-0.10786 1.73516,-0.33516 2.61866,-0.42383 0.88526,-0.0802 1.74987,-0.23355 2.604,-0.4605 0.86353,-0.10986 1.7116,-0.26037 2.53954,-0.51411 0.88298,-0.13082 1.76301,-0.34585 2.66114,-0.33542 0.94841,0.0507 1.92184,0.11319 2.7429,0.59112 0.62884,0.4491 1.1203,1.01688 1.55094,1.62549 0.37577,0.67143 0.7419,1.36571 0.90657,2.10707 0.21012,0.89879 0.20642,1.79617 0.15344,2.71275 -0.044,0.8646 -0.0998,1.74362 -0.46561,2.55522 -0.37526,0.70271 -0.73925,1.40281 -1.15713,2.08709 -0.43891,0.57188 -0.66004,1.27338 -1.18993,1.79872 -2.74641,1.82419 -5.5937,3.52905 -8.91262,4.1342 -1.01282,0.1384 -2.01968,0.31925 -3.03809,0.41345 -0.91598,0.0538 -1.82683,0.14841 -2.71712,0.35928 -0.90434,0.15156 -1.8366,0.11342 -2.73177,0.32526 -0.82285,0.19959 -1.63619,0.41282 -2.47223,0.56462 -0.82019,0.22529 -1.66079,0.34008 -2.48795,0.54262 -0.86344,0.18528 -1.76143,0.21286 -2.61664,0.44276 -0.97616,0.17367 -1.98084,0.16202 -2.95723,0.34583 -1.03216,0.15414 -2.06195,0.19886 -3.10825,0.19014 -0.93052,0.0369 -1.86598,0.0908 -2.76775,0.31836 -0.8441,0.2065 -1.70813,0.28444 -2.55224,0.48999 -0.8335,0.22674 -1.68513,0.34268 -2.53916,0.49202 -0.98747,0.1319 -1.98827,0.0542 -2.98345,0.074 -1.03089,-4e-5 -2.06179,-8e-5 -3.09268,-6e-4 -1.03086,-6e-4 -2.06172,-0.002 -3.09257,-0.003 -1.02844,-10e-6 -2.05715,-0.002 -3.0852,0.0273 -1.02606,0.0385 -2.0515,0.10569 -3.06239,0.27766 -1.04282,0.15817 -2.08383,0.20828 -3.14181,0.17667 -1.02522,0.004 -2.05358,0.0191 -3.07543,-0.0688 -0.96032,-0.12398 -1.8677,-0.34488 -2.37705,-1.16258 -0.33895,-0.74173 -0.51713,-1.53441 -0.60471,-2.33109 -0.16412,-0.80225 -0.45261,-1.58087 -0.45858,-2.40442 -0.12925,-0.9113 -0.41824,-1.80913 -0.381,-2.73274 0.006,-1.17608 0.0226,-2.35297 -0.0257,-3.5285 0,0 6.81697,-3.13494 6.81697,-3.13494 z"
       inkscape:connector-curvature="0" />
    <path
       style="fill:#000000"
       id="path2999"
       d="m 187.81041,948.78418 c -0.0478,1.18343 -0.0317,2.36815 -0.0257,3.55212 -0.0754,1.00444 0.12853,1.98508 0.29499,2.97184 0.0769,0.94243 0.32341,1.85908 0.5055,2.7868 0.14648,0.54866 0.1889,1.6657 0.70147,2.0282 2.07351,-1.53086 6.07515,-3.24597 -5.20835,2.57843 2.46409,-1.4449 1.73755,-1.02668 7.21977,-3.73708 2.09875,-1.03762 -8.24716,4.38157 -6.23041,3.21899 0.76599,-0.44158 16.95246,-8.70338 1.02169,-0.50167 3.55252,-2.12328 5.46339,-3.69739 9.07132,-3.89421 1.01502,-0.0382 2.03128,-0.0309 3.04693,-0.0286 1.03299,0.003 2.06599,0.005 3.09898,0.006 1.03124,8.4e-4 2.06248,8.4e-4 3.09373,8.7e-4 1.02117,-0.0396 2.05956,0.0937 3.06533,-0.0884 1.00842,-0.24596 2.0706,-0.2015 3.07675,-0.43102 1.01995,-0.24339 2.06973,-0.33055 3.11947,-0.3814 1.0333,-0.0742 2.04392,-0.30646 3.0805,-0.40472 1.03679,-0.0825 2.07839,-0.0879 3.1184,-0.0932 1.04447,0.091 2.03654,-0.0994 3.05686,-0.2548 1.03311,-0.14825 2.07964,-0.18027 3.12356,-0.20075 1.03317,-0.0138 2.06652,-0.0105 3.09978,-0.009 0.86593,-0.23243 1.75317,-0.34683 2.65122,-0.40973 1.00378,-0.0547 2.00992,-0.0544 3.01513,-0.0564 1.03146,-2.3e-4 2.06292,0.002 3.09439,0.003 1.0313,8.6e-4 2.06261,9.9e-4 3.09393,0.001 1.03087,6e-5 2.06175,4e-5 3.09262,3e-5 1.03085,-10e-6 2.06171,-10e-6 3.09256,-2e-5 1.03085,0 2.0617,0 3.09257,0 0.99706,-0.0573 2.03057,0.12304 3.0054,-0.0964 2.30342,-1.47229 -0.0238,0.0295 -5.95406,3.01001 -0.0943,0.0474 0.17954,-0.11205 0.24944,-0.18625 0.26024,-0.27628 0.30859,-0.65102 0.37584,-0.99162 0.10947,-0.89788 0.0864,-1.80371 0.0809,-2.70551 -0.008,-0.93521 -0.013,-1.87044 -0.0156,-2.80567 0,0 6.78776,-3.12319 6.78776,-3.12319 l 0,0 c 0.002,0.93439 0.004,1.86879 0.0136,2.80316 0.008,0.92725 0.0273,1.85551 -0.0243,2.78203 -0.30095,3.32675 -2.94653,4.75103 -7.62668,5.34059 -1.01832,0.0316 -2.03765,0.007 -3.05642,0.0149 -1.03086,0 -2.06171,0 -3.09257,10e-6 -1.03085,0 -2.0617,10e-6 -3.09254,10e-6 -1.0309,10e-6 -2.0618,3e-5 -3.09269,-1.3e-4 -1.03143,-2e-4 -2.06285,-5.4e-4 -3.09427,-0.002 -1.03062,-10e-4 -2.06125,-0.004 -3.09186,0.002 -0.9938,0.009 -1.98986,0.0174 -2.97889,0.11518 -0.89942,0.10531 -1.78131,0.32788 -2.68988,0.34695 -1.02849,10e-6 -2.05726,-0.002 -3.08536,0.0271 -1.02564,0.0382 -2.05065,0.10462 -3.06158,0.27392 -1.03889,0.15466 -2.07509,0.19844 -3.12828,0.17004 -1.02388,0.0142 -2.05005,0.0347 -3.06674,0.15516 -1.03413,0.13371 -2.05599,0.35473 -3.10464,0.37622 -1.03374,0.0832 -2.05304,0.23803 -3.06567,0.4439 -1.03815,0.121 -2.07524,0.24163 -3.10835,0.39475 -1.03913,0.0439 -2.07977,0.0148 -3.11978,0.0229 -1.0314,-1.3e-4 -2.0628,-3e-4 -3.0942,-0.002 -1.03285,-0.002 -2.06569,-0.005 -3.09855,-0.005 -1.00385,0.002 -2.01048,-0.003 -3.01048,0.0877 -2.94164,0.36234 -7.20642,3.33323 4.19607,-2.68156 -2.29832,1.18505 -4.59642,2.37046 -6.89499,3.55514 -0.11282,0.0581 -0.45154,0.2322 -0.33916,0.17336 2.06769,-1.08275 8.29845,-4.28688 6.20512,-3.24505 -23.1516,11.52223 4.44517,-1.80499 -0.99131,0.50131 -2.28639,1.19441 -4.57131,2.39113 -6.85917,3.58323 -0.31309,0.16313 -0.57637,0.31542 -0.95236,0.25292 -0.35782,-0.0595 -0.37765,-0.12411 -0.66266,-0.32343 -0.57363,-0.67303 -0.73918,-1.56026 -0.87783,-2.38565 -0.16792,-0.93589 -0.45488,-1.85114 -0.51169,-2.80127 -0.15956,-1.0208 -0.4198,-2.03178 -0.32596,-3.06998 0.006,-1.17609 0.0226,-2.35298 -0.0257,-3.5285 0,0 6.81697,-3.13495 6.81697,-3.13495 z"
       inkscape:connector-curvature="0" />
    <path
       style="fill:#c87137"
       d="m 209.97234,948.48877 c -7.10599,1.05096 -14.32552,1.12692 -21.34195,2.22425 -3.18187,1.45548 -0.88893,5.25725 -0.84694,7.63506 -0.24333,2.88319 2.62276,1.97563 4.26165,1.01479 7.76654,-1.11981 15.82717,-0.69399 23.59695,-1.86081 10.84187,-0.98261 21.84596,-0.89969 32.65192,-1.23795 1.50324,-1.23791 0.6315,-4.55408 -1.91951,-4.14095 -6.54923,0.47513 -12.94838,1.58434 -19.56985,1.55724 -4.42578,-0.18438 -9.22614,0.90296 -13.44977,-0.39423 -1.35991,-1.39767 -0.0651,-5.1473 -3.3825,-4.7974 z"
       id="path3005"
       inkscape:connector-curvature="0" />
    <path
       style="fill:#c87137"
       d="m 266.63724,935.59396 c -13.99874,2.37133 -28.25516,2.7352 -42.36006,4.15191 -2.38615,0.60171 -6.04662,-0.63052 -7.4593,1.41597 0.22429,3.21602 -0.0232,6.97584 2.17446,9.66748 3.3148,1.42199 7.36554,0.37023 10.93647,0.63895 6.70958,0.0139 13.37953,-0.67729 19.9409,-1.68565 6.59656,-0.54848 13.08268,-2.02962 19.60239,-2.95113 3.27546,-2.00198 3.10339,-6.73298 1.32078,-9.59479 -0.85351,-1.32664 -2.49046,-1.96106 -4.15564,-1.64274 z"
       id="path3007"
       inkscape:connector-curvature="0" />
    <path
       style="fill:#c87137"
       d="m 46.919825,880.1041 c -4.559739,0.93154 -9.360128,1.97192 -13.33671,4.20136 -1.227683,2.12728 1.175852,4.6389 1.324729,6.86671 2.512515,8.83321 6.784382,17.42041 6.710092,26.67067 -0.16204,10.61453 5.573374,20.5007 5.518175,31.05242 0.0421,6.2091 -2.251988,12.04521 -3.985358,17.96899 -0.800052,3.0058 1.713327,5.86194 4.381146,7.25424 2.686476,-2.09761 4.097827,-5.52515 5.798567,-8.38817 6.908197,-12.70304 5.665867,-27.39851 4.300608,-41.0686 -1.914556,-12.00879 -3.323924,-24.09507 -5.589173,-36.05314 -1.074684,-2.63233 -0.598546,-6.38665 -3.253645,-8.22826 -0.580032,-0.26071 -1.23165,-0.3181 -1.868431,-0.27622 z"
       id="path3009"
       inkscape:connector-curvature="0" />
    <path
       style="fill:#c87137"
       d="m 10.018383,887.95439 c -4.0453084,6.71234 -3.0971523,14.78639 -2.4201468,22.12101 1.9934942,12.83097 10.3467018,23.8129 15.9340318,35.41864 -0.1224,6.3882 -0.184161,12.89019 1.820106,19.0442 0.965155,2.20666 -0.237604,6.18193 2.963713,7.02164 2.813307,-0.0594 6.248465,0.44827 8.601211,-1.16301 3.669032,-5.4703 4.634714,-12.11478 5.218713,-18.40454 -0.187358,-10.86909 -5.630855,-21.08053 -5.591533,-31.96705 -0.154395,-9.66644 -4.645503,-18.61708 -7.30166,-27.84199 -0.694948,-1.48583 -0.806845,-5.12704 -3.568301,-4.01084 -1.856637,0.67886 -3.736862,2.07127 -5.685818,0.71234 -3.170815,-0.70983 -6.752948,-1.43021 -9.970316,-0.9304 z"
       id="path3011"
       inkscape:connector-curvature="0" />
    <path
       style="fill:#784421"
       d="m 209.82738,947.6456 c -7.29771,1.31097 -15.0655,0.76574 -22.16341,2.74759 -2.88484,1.81902 -0.94682,5.54011 -0.75704,8.08289 -0.18004,2.0258 2.12069,3.22449 4.06132,2.23439 8.70096,-1.79829 17.74472,-1.49831 26.60041,-2.49542 10.33046,-0.84183 20.85466,-0.45972 31.09302,-1.65793 2.71498,-1.39224 0.50709,-6.06632 -2.64157,-5.08815 -10.41945,0.75092 -20.95681,2.01588 -31.40891,1.19208 -1.85383,-1.24286 -1.23862,-4.88515 -4.26839,-5.02999 -0.17183,0.004 -0.34438,-0.01 -0.51543,0.0145 z"
       id="path3013"
       inkscape:connector-curvature="0" />
    <path
       style="fill:#916f6f"
       id="path3015"
       d="m 202.30616,945.89577 c 0.36509,1.20007 0.82518,2.37666 1.28308,3.55048 0.33347,0.912 0.7808,1.77207 1.01482,2.71279 0.14211,0.79206 0.4191,1.55213 0.56182,2.34519 0.13444,0.89579 0.14498,1.80133 0.15608,2.7037 0.007,0.93116 0.003,1.86236 0.001,2.79353 0,0 -6.78911,3.121 -6.78911,3.121 l 0,0 c 0.001,-0.92881 0.004,-1.85762 0.001,-2.78643 -0.007,-0.87122 -0.0111,-1.74491 -0.11781,-2.61185 -0.12243,-0.78631 -0.40366,-1.53262 -0.53815,-2.31413 -0.19407,-0.92281 -0.62949,-1.76012 -0.93048,-2.65479 -0.44162,-1.17877 -0.87371,-2.35934 -1.34063,-3.53014 0,0 6.69788,-3.32935 6.69788,-3.32935 z"
       inkscape:connector-curvature="0" />
    <path
       style="fill:#916f6f"
       id="path3017"
       d="m 236.38011,951.31715 c 0.85933,1.09214 1.78934,2.13664 2.67148,3.21308 0.67647,0.7745 1.43857,1.48319 2.0505,2.30218 0.5421,0.61901 1.10772,1.19643 1.46212,1.92385 0.20374,0.51955 0.14818,0.98818 -0.0613,1.49047 0,0 -6.99272,2.80191 -6.99272,2.80191 l 0,0 c 0.30742,-0.28543 0.45895,-0.49951 0.38991,-0.91565 -0.31341,-0.68997 -0.90783,-1.20922 -1.37529,-1.81603 -0.60809,-0.80535 -1.35593,-1.51589 -1.98726,-2.30656 -0.86576,-1.07691 -1.77219,-2.13543 -2.72012,-3.15311 0,0 6.56262,-3.54014 6.56262,-3.54014 z"
       inkscape:connector-curvature="0" />
    <path
       style="fill:#916f6f"
       id="path3019"
       d="m 119.86103,963.9158 c 0.0828,0.15543 0.16555,0.31085 0.24832,0.46628 0,0 -6.60737,3.4106 -6.60737,3.4106 l 0,0 c -0.0874,-0.13771 -0.17487,-0.27543 -0.26231,-0.41314 0,0 6.62136,-3.46374 6.62136,-3.46374 z"
       inkscape:connector-curvature="0" />
    <path
       style="fill:#916f6f"
       id="path3021"
       d="m 9.5647536,901.10531 c 1.3149784,0.13385 2.6037724,0.37325 3.9037954,0.59018 1.096986,0.17958 2.211349,0.22206 3.323331,0.24391 1.029558,0.0126 2.059257,0.008 3.088874,0.006 1.029634,-0.002 2.059271,-0.003 3.088907,-0.003 0.680525,-0.0531 1.383058,0.069 2.061526,-2.9e-4 0.0041,-4.2e-4 0.835974,-0.18857 0.846472,-0.19094 0.852176,-0.094 1.595861,-0.44898 2.437325,-0.59615 0.149559,-0.018 0.302831,-0.019 0.448676,-0.0539 0.260839,-0.0624 0.497142,-0.19238 0.75587,-0.26154 0.421675,-0.11272 0.798013,-0.14267 1.196253,-0.31831 0.36517,-0.19949 0.811204,-0.18494 1.201225,-0.30229 0.382878,-0.1152 0.722739,-0.29191 1.119935,-0.39173 0.784828,-0.14725 1.498104,-0.49453 2.218692,-0.79883 -2.081562,1.07374 -4.158578,2.15469 -6.244695,3.2212 -0.108459,0.0554 0.203024,-0.1312 0.310901,-0.18758 2.291113,-1.19736 4.596688,-2.37213 6.885372,-3.57327 2.071632,-1.08723 -4.152323,2.16039 -6.234223,3.23154 -0.849115,0.43687 0.561496,-0.31842 0.622629,-0.35126 4.078433,-2.40493 13.967626,-7.29159 0.927567,-0.57179 -0.109689,0.0565 0.203667,-0.13572 0.313227,-0.19244 6.355368,-3.29018 4.59616,-2.45473 7.282803,-3.72288 0.870286,-0.25913 1.649696,-0.65417 2.550762,-0.83322 0.336434,-0.23583 0.778346,-0.26125 1.15203,-0.40895 0.3723,-0.14714 0.669512,-0.33182 1.066962,-0.44704 0.675416,-0.48412 1.52269,-0.57206 2.352191,-0.64432 0.503915,-0.25396 1.100422,-0.24453 1.634906,-0.39029 0.254677,-0.0695 0.486253,-0.19574 0.735324,-0.28013 0.882208,-0.24386 1.810618,-0.27176 2.725765,-0.29999 0.836183,-0.29553 1.749436,-0.28278 2.596842,-0.51654 0.986689,-0.26315 2.012046,-0.34382 3.034323,-0.39433 0.982567,0.0716 1.890015,-0.12975 2.838235,-0.30424 0.11504,-0.0562 0.23008,-0.1123 0.345121,-0.16844 0,0 -6.0222,4.24897 -6.0222,4.24897 l 0,0 c -0.136413,0.0272 -0.272837,0.0543 -0.409261,0.0815 -0.954148,0.17478 -1.912484,0.18243 -2.882819,0.22547 -1.004893,0.0854 -1.994917,0.24054 -2.968665,0.48452 -0.892844,0.13745 -1.774653,0.34 -2.675552,0.41858 -0.889022,0.061 -1.775883,0.15966 -2.607988,0.46837 -0.795499,0.24315 -1.633376,0.39556 -2.452197,0.55751 -0.809115,0.14887 -1.519433,0.45021 -2.256918,0.77398 -0.732311,0.30835 -1.480532,0.58809 -2.255012,0.79926 -0.838554,0.27088 -1.653663,0.60784 -2.465568,0.93612 -0.131032,0.0569 -0.518572,0.23719 -0.393094,0.17083 2.06354,-1.09122 4.140513,-2.16162 6.208445,-3.24605 0.10714,-0.0562 -0.218879,0.1048 -0.32582,0.16118 -2.282678,1.20351 -4.575793,2.39121 -6.842905,3.61845 -1.949249,1.05517 8.619586,-4.68714 5.897377,-3.08961 -0.396475,0.35604 -0.125244,0.15789 -0.599742,0.4063 -2.287321,1.19744 -4.577702,2.3902 -6.857296,3.59959 -2.062959,1.09445 4.136029,-2.17332 6.207384,-3.25479 0.107141,-0.056 -0.209815,0.11878 -0.314718,0.17817 -2.287508,1.19799 -4.575011,2.39599 -6.862516,3.59399 -0.727684,0.31069 -1.504544,0.51929 -2.273425,0.72921 -0.762625,0.26067 -1.546887,0.44797 -2.310197,0.70835 -0.820587,0.17685 -1.61228,0.44018 -2.443783,0.57623 -0.812402,0.22083 -1.607845,0.47512 -2.456298,0.56953 -0.987348,0.13192 -1.987992,0.0543 -2.983045,0.0747 -1.029559,7.4e-4 -2.059118,0.002 -3.088675,0.004 -1.034201,9.4e-4 -2.068753,0.005 -3.102521,-0.0267 -1.1311882,-0.046 -2.2608138,-0.13311 -3.3708028,-0.34527 -1.3058743,-0.23561 -2.6163179,-0.41939 -3.941298,-0.54559 0,0 6.2621864,-3.96545 6.2621864,-3.96545 z"
       inkscape:connector-curvature="0" />
    <path
       style="fill:#916f6f"
       id="path3023"
       d="m 20.867921,941.01033 c 1.312928,0.0607 2.645112,-0.0637 3.91235,-0.38098 1.054161,-0.16391 2.032344,-0.52068 3.054705,-0.77821 0.923129,-0.33067 1.8575,-0.6564 2.818207,-0.8911 0.518704,-0.33955 1.158439,-0.38991 1.73886,-0.57403 0.25949,-0.0823 0.496067,-0.21547 0.751437,-0.30768 0.82462,-0.15979 1.551114,-0.50291 2.383685,-0.64646 0.45626,-0.30603 1.031838,-0.30959 1.544051,-0.46398 0.249348,-0.0752 0.474919,-0.20454 0.719725,-0.291 0.742205,-0.21417 1.414752,-0.58109 2.112128,-0.89256 -0.433182,0.39759 1.653131,-0.79155 1.030554,-0.4662 -2.05734,1.07513 -8.256933,4.25715 -6.183753,3.20707 0.63512,-0.32169 16.681087,-8.63748 0.761816,-0.38903 0.663661,-0.41288 1.330214,-0.81747 1.991172,-1.23288 0.319361,-0.1612 0.592962,-0.3803 0.887792,-0.5739 0,0 7.081283,-2.616 7.081283,-2.616 l 0,0 c -0.262289,0.26866 -0.564852,0.43545 -0.839684,0.69279 -0.709608,0.35935 -1.350911,0.79156 -2.009154,1.21738 -22.849726,12.04459 15.26567,-7.88946 -7.65203,4.01785 -0.336534,0.17485 -0.693377,0.29518 -1.035296,0.46049 -0.691036,0.33202 -1.426074,0.59016 -2.160309,0.83274 -0.758118,0.25874 -1.550271,0.44708 -2.315763,0.6863 -0.780846,0.22383 -1.547483,0.48573 -2.324138,0.71983 -0.82668,0.29527 -1.685693,0.52097 -2.509976,0.82392 -0.946259,0.29234 -1.882956,0.60944 -2.830163,0.89854 -1.002522,0.29952 -2.029133,0.50267 -3.05834,0.71519 -1.342769,0.20934 -2.69509,0.3097 -4.058836,0.29075 0,0 6.189677,-4.05884 6.189677,-4.05884 z"
       inkscape:connector-curvature="0" />
    <path
       style="fill:#916f6f"
       id="path3025"
       d="m 39.397316,939.92911 c 2.919714,-2.81728 6.598575,-3.20925 10.012255,-4.78413 0.450787,-0.26387 0.994223,-0.30631 1.484553,-0.46548 0.414602,-0.1346 0.780131,-0.31845 1.209967,-0.43025 0.144889,-0.0258 0.294653,-0.035 0.434689,-0.0773 0.125067,-0.0378 0.235509,-0.10726 0.353264,-0.16089 0.123804,-0.0436 0.245259,-0.0932 0.371435,-0.13088 0.410989,-0.12286 0.782025,-0.15297 1.171342,-0.3315 0.710396,-0.26931 1.497473,-0.46821 2.133768,-0.8673 0.114608,-0.0512 0.454488,-0.21133 0.343813,-0.15353 -2.076009,1.08418 -4.154201,2.16504 -6.24048,3.23304 -0.10836,0.0554 0.197462,-0.13798 0.305034,-0.19457 2.287154,-1.20326 4.607836,-2.35487 6.877849,-3.58428 2.055013,-1.11296 -4.150954,2.16322 -6.232735,3.23489 -0.109689,0.0565 0.210536,-0.12597 0.315815,-0.18895 22.916448,-11.76403 -15.312736,7.90378 7.550164,-3.89886 2.082379,-1.07499 -4.150013,2.17323 -6.235838,3.24276 -0.108359,0.0556 0.193772,-0.14298 0.301345,-0.19978 2.28506,-1.20655 4.58315,-2.39287 6.874725,-3.5893 -11.87682,5.70156 -6.843658,3.97974 -4.754941,2.26284 0.547857,-0.42837 1.081177,-0.87834 1.57554,-1.35779 0,0 7.081505,-2.61662 7.081505,-2.61662 l 0,0 c -0.57632,0.40576 -1.034509,0.93943 -1.558854,1.39567 -0.957361,0.62966 0.386237,-0.28322 -0.544588,0.45123 -2.08054,1.64161 -7.682167,2.92888 -7.756999,4.19302 16.314261,-8.58153 -0.672769,0.38435 -0.935479,0.55202 -1.953523,1.24674 8.325431,-4.25789 6.213391,-3.24332 -0.957871,0.46013 -16.404017,8.53913 -0.673855,0.32108 -2.582438,1.2757 -1.576637,0.77539 -7.179249,3.76742 -2.059955,1.10011 4.134445,-2.1779 6.205701,-3.26059 0.106586,-0.0557 -0.205129,0.1231 -0.311239,0.17942 -6.666571,3.53821 -4.524095,2.50365 -7.181111,3.7801 -0.73363,0.26072 -1.437133,0.58156 -2.192113,0.79548 -0.795919,0.18812 -1.549968,0.47981 -2.34212,0.67901 -0.873887,0.30964 -1.772493,0.55798 -2.618392,0.93023 -2.859918,1.03889 -8.618233,3.78426 3.082031,-1.96909 0,0 -7.140193,2.48622 -7.140193,2.48622 z"
       inkscape:connector-curvature="0" />
    <path
       style="fill:#916f6f"
       id="path3027"
       d="m 25.431119,869.63556 c 1.307446,-0.31211 2.626358,-0.61772 3.899259,-1.03277 1.067516,-0.23332 2.081801,-0.59996 3.136513,-0.86453 0.946815,-0.19432 1.922026,-0.20795 2.888251,-0.22364 0.991752,-0.0656 2.017297,0.11762 2.987555,-0.0978 0.882784,-0.22855 1.798319,-0.29253 2.710852,-0.33541 1.014355,-0.0358 2.029751,-0.0334 3.044705,-0.0335 1.031816,9.2e-4 2.063644,0.002 3.095471,0.003 0.893199,0.0213 1.853297,-0.0469 2.650279,-0.43888 2.548635,-1.00626 0.608895,-0.25379 -5.891781,3.06015 -0.10858,0.0553 0.212088,-0.11833 0.31822,-0.17739 0.309111,-0.17202 0.572287,-0.37477 0.857544,-0.5769 0.641812,-0.58976 1.392172,-1.06954 2.082413,-1.60948 0.68499,-0.52402 1.333649,-1.08445 2.00521,-1.62159 2.381874,-2.15935 5.468881,-3.98117 8.850308,-4.1989 0.976706,-0.0977 1.77596,0.3462 2.345787,1.02721 0.500247,0.78238 0.544987,1.68906 0.587522,2.56915 0.01651,0.91174 0.07069,1.82541 -0.09628,2.72783 -0.117301,0.80507 -0.533775,1.51378 -0.950858,2.21887 -0.396541,0.64311 -0.942259,1.18443 -1.468134,1.73946 -0.502695,0.48423 -1.045433,0.93282 -1.546456,1.41817 -0.546693,0.44583 -1.003807,0.97265 -1.620036,1.34364 -0.39879,0.25259 -0.777482,0.52574 -1.169525,0.78663 0,0 -7.080863,2.6181 -7.080863,2.6181 l 0,0 c 0.324746,-0.33284 0.723015,-0.61976 1.143267,-0.84673 0.625315,-0.49025 -0.07279,0.0151 0.613138,-0.35894 0.410347,-0.22376 0.69207,-0.63356 1.031562,-0.92805 0.578702,-0.40249 1.046441,-0.93251 1.557968,-1.39879 0.607664,-0.4396 1.108144,-1.02658 1.547608,-1.60124 0.49422,-0.56924 0.880346,-1.28673 1.071459,-1.9857 0.228286,-0.85584 0.229372,-1.70737 0.187956,-2.58763 -0.02316,-0.72924 -0.0044,-1.50783 -0.377318,-2.17384 -0.501366,-0.52429 -1.168584,-0.56885 -1.894225,-0.45127 -0.342905,0.056 -0.527614,0.0724 -0.854409,0.17893 -0.126618,0.0413 -0.485101,0.20968 -0.369185,0.14786 10.94031,-5.83464 7.683341,-4.19293 5.54912,-2.89336 -0.586414,0.6234 -1.32801,1.12892 -2.01198,1.66167 -0.644316,0.57728 -1.362511,1.05698 -2.063611,1.57688 -0.302375,0.33618 -0.694806,0.68535 -1.112587,0.90197 -6.924074,3.59027 -4.412501,2.72975 -7.263666,3.68276 -0.924443,0.18303 -1.842084,0.29258 -2.792786,0.23088 -1.031428,-9.5e-4 -2.062846,-0.003 -3.094264,-0.001 -1.006577,0.004 -2.01445,0.007 -3.018689,0.0765 -0.905331,0.0773 -1.792718,0.23243 -2.687845,0.3712 -1.008302,0.0298 -2.017691,8e-4 -3.026006,0.0376 -0.936235,0.0396 -1.878788,0.0997 -2.773172,0.37458 -1.02185,0.31197 -2.069029,0.53722 -3.090796,0.85058 -1.315185,0.35628 -2.63776,0.69175 -3.945834,1.06783 0,0 6.038363,-4.23404 6.038363,-4.23404 z"
       inkscape:connector-curvature="0" />
  </g>
</svg>
