<?xml version="1.0" encoding="UTF-8" standalone="no"?>
<!-- Created with Inkscape (http://www.inkscape.org/) -->

<svg
   xmlns:dc="http://purl.org/dc/elements/1.1/"
   xmlns:cc="http://creativecommons.org/ns#"
   xmlns:rdf="http://www.w3.org/1999/02/22-rdf-syntax-ns#"
   xmlns:svg="http://www.w3.org/2000/svg"
   xmlns="http://www.w3.org/2000/svg"
   xmlns:sodipodi="http://sodipodi.sourceforge.net/DTD/sodipodi-0.dtd"
   xmlns:inkscape="http://www.inkscape.org/namespaces/inkscape"
   width="340"
   height="140"
   id="svg2"
   version="1.1"
   inkscape:version="0.48.4 r9939"
   sodipodi:docname="New document 1">
  <defs
     id="defs4" />
  <sodipodi:namedview
     id="base"
     pagecolor="#ffffff"
     bordercolor="#666666"
     borderopacity="1.0"
     inkscape:pageopacity="0.0"
     inkscape:pageshadow="2"
     inkscape:zoom="2.3325825"
     inkscape:cx="168.97409"
     inkscape:cy="62.59673"
     inkscape:document-units="px"
     inkscape:current-layer="layer1"
     showgrid="false"
     inkscape:window-width="1221"
     inkscape:window-height="890"
     inkscape:window-x="451"
     inkscape:window-y="0"
     inkscape:window-maximized="0" />
  <metadata
     id="metadata7">
    <rdf:RDF>
      <cc:Work
         rdf:about="">
        <dc:format>image/svg+xml</dc:format>
        <dc:type
           rdf:resource="http://purl.org/dc/dcmitype/StillImage" />
        <dc:title></dc:title>
      </cc:Work>
    </rdf:RDF>
  </metadata>
  <g
     inkscape:label="Layer 1"
     inkscape:groupmode="layer"
     id="layer1"
     transform="translate(0,-912.36218)">
    <path
       style="fill:#4d4d4d"
       id="path3019"
       d="m 214.20015,960.00881 c 0.67065,0.28936 1.47877,0.49091 2.23521,0.72451 0.62136,0.14767 1.2764,0.28178 1.9471,0.37732 0.68947,0.0429 1.32257,0.17037 2.00612,0.22877 0.63733,0.12333 1.29559,0.19918 1.93835,0.31408 0.65901,0.0678 1.25456,0.20693 1.91688,0.27114 0.68908,0.0474 1.33626,0.17634 1.96818,0.30633 0.59517,0.1309 1.15337,0.25212 1.81202,0.30295 0.56776,-0.0448 1.16173,-0.1583 1.62033,-0.32167 1.94106,-0.48102 1.91556,-0.47631 -4.88353,1.30274 -0.0895,0.0234 0.16379,-0.0577 0.24703,-0.0858 0.28646,-0.0964 0.5753,-0.19054 0.87248,-0.27976 3.45161,-1.01321 11.57709,-3.08557 0.87206,-0.26575 -0.0968,0.0255 0.18362,-0.0587 0.28056,-0.0842 1.90534,-0.50172 3.78619,-1.02427 5.7256,-1.49738 1.74623,-0.42595 -3.43043,0.90394 -5.14565,1.35591 2.41746,-0.71903 4.82251,-1.3567 7.4381,-1.85657 0.77219,-0.15779 1.5216,-0.34808 2.3219,-0.47427 0.72543,-0.12617 1.41706,-0.29227 2.15606,-0.40091 0.71877,-0.12147 1.4004,-0.28525 2.12989,-0.39245 0.45989,-0.13979 1.01402,-0.15565 1.52091,-0.22983 0.23448,-0.0343 0.45186,-0.09 0.68239,-0.12966 0.70098,-0.14953 1.52514,-0.19161 2.21663,-0.33424 0.32726,-0.0869 0.71989,-0.0844 1.06744,-0.13692 0.32417,-0.0489 0.61503,-0.12418 0.94991,-0.16709 0.11819,-0.0104 0.24041,-0.0138 0.35461,-0.0313 0.10274,-0.0158 0.19327,-0.0452 0.28993,-0.0678 0.1022,-0.0185 0.20254,-0.0394 0.30673,-0.0554 0.34343,-0.0527 0.6964,-0.0742 1.05349,-0.0957 0.64218,-0.16037 1.38411,-0.15245 2.06308,-0.2506 0.80135,-0.10458 1.65199,-0.17416 2.40296,-0.34346 0.33253,-0.0963 0.73714,-0.10134 1.09529,-0.15936 0.32847,-0.0533 0.61773,-0.1298 0.95861,-0.1749 0.71199,-0.17186 1.51247,-0.26096 2.2115,-0.44066 0.67708,-0.12406 1.27281,-0.29749 1.98961,-0.37277 0.37121,-0.13546 0.84635,-0.13765 1.27033,-0.20349 0.20559,-0.0319 0.39165,-0.0866 0.59369,-0.123 0.74588,-0.0837 1.45969,-0.20161 2.21926,-0.26267 0.80126,-0.0837 1.53707,-0.24358 2.31835,-0.35266 0.12523,-0.0124 0.25449,-0.0181 0.37553,-0.0375 0.25535,-0.0593 0.35054,-0.0866 0.62186,-0.12918 0.34294,-0.0539 0.65587,-0.0682 0.98119,-0.1447 0.66331,-0.13379 1.39817,-0.19812 2.03431,-0.35683 0.31744,-0.0966 0.7091,-0.0998 1.05425,-0.15605 0.32611,-0.0531 0.61167,-0.12911 0.95082,-0.17371 0.45012,-0.13419 0.99207,-0.14556 1.48589,-0.21688 0.23317,-0.0337 0.44905,-0.0891 0.67812,-0.12836 0.65976,-0.10745 1.28748,-0.25701 1.94819,-0.37218 0.1282,-0.0168 0.26126,-0.0271 0.38478,-0.0502 0.26932,-0.0688 0.36569,-0.0991 0.6541,-0.14947 0.35123,-0.0612 0.68352,-0.0812 1.01941,-0.16092 0.30423,-0.0882 0.67781,-0.0833 1.00516,-0.13406 0.31784,-0.0492 0.59893,-0.12358 0.92895,-0.16577 0.67199,-0.0772 1.30922,-0.21727 1.9656,-0.32565 0.69565,-0.093 1.33418,-0.25402 1.98347,-0.39842 0.71282,-0.12401 1.48177,-0.13499 2.23426,-0.14766 0.82152,-0.0474 1.58971,0.0294 2.38534,0.10567 0.66246,0.09 1.37834,0.15853 2.01406,0.28763 0.64718,0.10636 1.30302,0.16837 1.88413,0.34496 0.53703,0.15085 1.12511,0.26185 1.65334,0.41817 0.63831,0.1812 1.32481,0.32592 1.949,0.51722 0.64804,0.13867 1.22336,0.32526 1.81326,0.50786 0.57107,0.12893 1.06993,0.31494 1.57295,0.49334 0.70469,0.23269 1.34696,0.49186 1.90508,0.79895 0.48915,0.26357 1.02193,0.5093 1.51032,0.77278 0.48389,0.20412 0.90846,0.43289 1.33256,0.66357 0.52057,0.2422 1.09205,0.46052 1.59982,0.70825 0.4628,0.19463 0.89247,0.40222 1.36515,0.59259 0.56198,0.18184 1.12389,0.37094 1.61354,0.59398 0.5595,0.21281 1.07559,0.44767 1.61042,0.6743 0.64791,0.27273 1.35203,0.51139 1.96277,0.803 0.57809,0.22783 1.11312,0.47708 1.67947,0.71071 0.64736,0.25038 1.26143,0.51963 1.92162,0.76263 0.58813,0.26977 1.27892,0.48422 1.9109,0.7296 0.70957,0.24406 1.41496,0.49347 2.0871,0.75883 0.57787,0.21041 1.15467,0.4282 1.65944,0.67619 0.43964,0.19474 0.89443,0.38506 1.30023,0.59544 0.44452,0.17321 0.77377,0.40196 1.28489,0.53603 0.51912,0.16973 0.9937,0.36681 1.54305,0.51724 0.53908,0.18402 1.11559,0.36306 1.74072,0.4792 0.55711,0.14125 1.11167,0.29629 1.7103,0.39808 0.67024,0.0546 1.28591,0.18163 1.95573,0.24012 0.69263,0.066 1.35111,0.17407 2.05989,0.21666 0.79264,0.0516 1.60131,3.2e-4 2.38334,0.0776 0.72331,0.0918 1.46831,0.1237 2.2143,0.14273 0.23196,0.0359 0.48617,-0.0161 0.72004,0.009 0.17416,0.0187 0.76753,0.32067 0.5083,0.39933 -1.80927,0.54889 -3.768,0.98503 -5.652,1.47756 -0.67875,-0.003 -1.29476,0.12355 -1.96233,0.17316 -0.78543,0.0708 -1.60675,0.002 -2.37747,0.0976 -0.72926,0.0996 -1.48824,0.12528 -2.24358,0.14294 -0.69386,0.11825 -1.42188,0.16155 -2.15448,0.18768 -0.68045,0.1286 -1.40441,0.17053 -2.13101,0.1969 -0.68015,0.12897 -1.40438,0.1705 -2.13093,0.19677 -0.64629,0.14853 -1.39857,0.11923 -2.05282,0.24036 -0.67751,0.0626 -1.29186,0.19586 -1.95364,0.27999 -0.11766,0.0105 -0.23935,0.0137 -0.35296,0.0311 -0.10252,0.0158 -0.19272,0.0452 -0.28912,0.0679 -0.1022,0.0185 -0.20236,0.0395 -0.30644,0.0556 -0.34062,0.0524 -0.64863,0.0658 -0.97132,0.14165 -0.29989,0.0855 -0.66778,0.0795 -0.98931,0.12908 -0.31671,0.0489 -0.5972,0.12337 -0.92595,0.16551 -0.24343,0.10907 -0.58841,0.1233 -0.87578,0.18796 -0.30192,0.068 -0.52782,0.14505 -0.85627,0.19566 0.20697,-0.0212 -0.71739,0.19667 -0.53685,0.14843 1.62756,-0.43474 6.53154,-1.72184 4.90717,-1.28453 -2.29542,0.61796 -12.20601,3.24509 -0.53279,0.14826 -2.06084,0.65325 -4.27052,1.12704 -6.43191,1.76087 -1.67244,0.49046 3.42999,-0.91627 5.15105,-1.36954 0.0907,-0.0238 -0.17288,0.0542 -0.25931,0.0812 -0.54893,0.1776 -1.11044,0.3509 -1.64939,0.53584 -0.55435,0.20394 -1.1398,0.3895 -1.7048,0.58712 -0.54207,0.16456 -0.97214,0.39224 -1.51818,0.55305 -0.54301,0.17325 -1.05215,0.36674 -1.60729,0.53246 -0.52399,0.1904 -1.07128,0.36235 -1.61594,0.53889 -18.91852,5.00548 12.6247,-3.36424 -6.24548,1.65444 -1.71802,0.45692 3.43057,-0.91823 5.15474,-1.37016 0.0895,-0.0235 -0.16044,0.0604 -0.24946,0.0845 -1.8896,0.50966 -3.78995,1.01078 -5.68492,1.51617 1.71773,-0.45576 3.43203,-0.91427 5.15321,-1.36725 0.0907,-0.0238 -0.17066,0.0558 -0.26123,0.0797 -1.9014,0.50131 -3.78068,1.02139 -5.71432,1.49576 -1.74815,0.42885 6.84479,-1.83715 5.1576,-1.35919 -1.8639,0.52802 -3.7886,1.00897 -5.68792,1.50941 -1.70701,0.44979 3.40734,-0.90494 5.111,-1.35741 0.30604,0.87536 -5.38174,1.27422 -7.34544,1.87541 -0.0998,0.0226 -0.39582,0.0935 -0.29957,0.0678 10.98371,-2.93368 2.08064,-0.44265 -1.63727,0.3824 0.22884,-0.0307 -0.89405,0.2276 -0.67327,0.16846 1.58452,-0.42439 6.36684,-1.67448 4.77848,-1.25317 -1.90752,0.50596 -3.80969,1.01636 -5.73156,1.51063 -1.71785,0.44179 3.41294,-0.90212 5.1194,-1.3532 -1.89749,0.50678 -3.795,1.01356 -5.69251,1.52036 -0.10831,0.0181 -0.42432,0.0811 -0.32488,0.0543 1.70518,-0.45991 6.83643,-1.82673 5.14675,-1.35482 -1.87236,0.52295 -3.78647,1.01354 -5.69494,1.50792 -1.04554,0.27086 0.3601,-0.17195 -0.5723,0.13295 -0.0947,0.0218 -0.37557,0.0896 -0.28407,0.0651 1.71604,-0.45861 3.4334,-0.91619 5.15813,-1.36781 0.0895,-0.0234 -0.16211,0.0591 -0.25101,0.0829 -1.89067,0.50874 -3.81062,0.99446 -5.68648,1.51473 -1.69833,0.47104 3.43245,-0.91407 5.15382,-1.36699 0.0907,-0.0238 -0.17418,0.0531 -0.26121,0.0797 -0.55161,0.17526 -1.11215,0.34916 -1.65039,0.53407 -0.51821,0.17047 -1.00942,0.36116 -1.4562,0.57043 -1.99493,0.88539 -4.24769,1.27314 -6.86849,1.96654 -0.73052,0.11959 -1.41888,0.0526 -2.14966,-0.0112 -0.67658,-0.0858 -1.38058,-0.16802 -2.04292,-0.28148 -0.76206,-0.1103 -1.54127,-0.15898 -2.30402,-0.26714 -0.71577,-0.0486 -1.3881,-0.15505 -2.08566,-0.23768 -0.65953,-0.0992 -1.35146,-0.17457 -2.00574,-0.28542 -0.72714,-0.10217 -1.47461,-0.20194 -2.14659,-0.36846 -0.64433,-0.10724 -1.20666,-0.28672 -1.81393,-0.42943 -0.6637,-0.19254 -1.38209,-0.34388 -2.04084,-0.53852 -0.62517,-0.12551 -1.18803,-0.30361 -1.79469,-0.44646 -0.57746,-0.19034 -1.21463,-0.33023 -1.80894,-0.50957 -0.63855,-0.18245 -1.30025,-0.35907 -1.90426,-0.5663 -0.65845,-0.21867 -1.37577,-0.39137 -2.07595,-0.57862 -0.75879,-0.2613 -1.63646,-0.42493 -2.45597,-0.63499 -0.71762,-0.1429 -1.33255,-0.3705 -2.04195,-0.5183 -0.56271,-0.1513 -1.12801,-0.3143 -1.74007,-0.42029 -0.55751,-0.13701 -1.10671,-0.29117 -1.70124,-0.39241 -0.63301,-0.0834 -1.22951,-0.21696 -1.82428,-0.34644 -0.6118,-0.12321 -1.2056,-0.26571 -1.82868,-0.38176 -0.73351,-0.15006 -1.45676,-0.31869 -2.21469,-0.44192 -0.64172,-0.1234 -1.34765,-0.1859 -1.98327,-0.31466 -0.64367,-0.0844 -1.2554,-0.20602 -1.89708,-0.29337 -0.60253,-0.16048 -1.27753,-0.24371 -1.93467,-0.34302 -0.68941,-0.12771 -1.43956,-0.20249 -2.11894,-0.34092 -0.68056,-0.13199 -1.40538,-0.21741 -2.0706,-0.36443 -0.66161,-0.10417 -1.30368,-0.23361 -1.97349,-0.32728 -0.5808,-0.15266 -1.21854,-0.23455 -1.83385,-0.35056 -0.61517,-0.0986 -1.1912,-0.24306 -1.77269,-0.37826 -0.62624,-0.10009 -1.25572,-0.20058 -1.86104,-0.32723 -0.69545,-0.12053 -1.41957,-0.224 -2.07182,-0.38991 -0.64345,-0.1558 -1.35366,-0.24189 -2.00239,-0.3895 -0.65766,-0.10605 -1.29868,-0.2346 -1.96656,-0.32774 -0.59314,-0.12284 -1.1531,-0.28039 -1.76376,-0.38383 -0.62701,-0.10843 -1.22524,-0.21651 -1.89575,-0.26137 0.21962,-0.16098 -1.49006,0.29379 -1.10238,0.19139 5.41107,-1.42916 6.81579,-1.87746 4.93374,-1.28304 -0.57202,0.17075 -1.00497,0.41659 -1.46243,0.64546 -0.55774,0.24097 -1.07067,0.5027 -1.62427,0.74539 -0.45498,0.23496 -0.98247,0.42535 -1.52342,0.6139 -15.27348,4.03898 -0.51141,0.13504 -0.55204,0.14655 -1.86462,0.52772 -3.77944,1.01692 -5.68485,1.51268 -0.2938,0.0765 -0.63495,0.0774 -0.93792,0.15364 -0.10089,0.0187 -0.19961,0.0402 -0.30258,0.0562 -0.72068,0.11279 0.036,-0.0385 -0.59383,0.12046 -0.0938,0.0237 -0.38265,0.0869 -0.29026,0.0624 5.62224,-1.49904 6.79215,-1.86363 4.90593,-1.28224 -14.42316,3.82294 -1.24659,0.33001 -0.53925,0.14402 0.0907,-0.0238 -0.17398,0.0533 -0.26265,0.0789 -0.27396,0.0786 -0.46115,0.14146 -0.67319,0.25495 -0.98608,0.87295 -6.39689,2.51407 -6.26863,0.97586 0.11697,-0.33307 0.35186,-0.65943 0.63324,-0.97051 0.2534,-0.29673 0.56368,-0.57862 0.78736,-0.88071 0.22949,-0.2834 0.51402,-0.55505 0.77032,-0.83313 0.27296,-0.26252 0.59426,-0.51578 0.82386,-0.78718 0.26591,-0.28359 0.43866,-0.58275 0.67867,-0.8705 0.23711,-0.2979 0.36476,-0.60941 0.56679,-0.91273 0.2162,-0.33639 0.25601,-0.68774 0.28651,-1.03604 -0.0249,-0.35456 0.18474,-0.69698 0.30354,-1.04416 0.0831,-0.35407 0.1699,-0.714 0.0994,-1.06984 -0.0873,-0.2931 -0.2935,-0.57693 -0.58555,-0.83993 -0.19661,-0.17948 -0.10253,-0.0863 -0.2802,-0.28 0,0 5.51474,-1.42533 5.51474,-1.42533 l 0,0 c 0.15508,0.1746 0.0695,0.0879 0.25783,0.25988 0.32391,0.29283 0.56626,0.60653 0.68027,0.93165 0.12374,0.3762 0.029,0.75967 -0.0258,1.13776 -0.0879,0.34303 -0.3125,0.6749 -0.3401,1.0184 -0.0186,0.36678 -0.038,0.73628 -0.20561,1.09638 -0.1751,0.31476 -0.41267,0.6162 -0.53788,0.93719 -0.0772,0.0912 -0.18755,0.17635 -0.25448,0.26926 -0.14098,0.19549 -0.16788,0.41091 -0.44405,0.58422 -0.16232,0.30234 -0.49223,0.55542 -0.76921,0.83575 -0.3568,0.24467 -0.5383,0.54183 -0.79694,0.81009 -0.16619,0.1463 -0.21703,0.29629 -0.35492,0.44798 -0.55708,0.61294 0.25597,-0.31282 -0.32004,0.26831 -0.0524,0.053 -0.0798,0.11067 -0.11983,0.16599 -0.27164,0.29028 -0.54128,0.58278 -0.68241,0.89314 -0.0166,0.0293 -0.0274,0.0595 -0.051,0.0879 -0.10613,0.12716 -0.0148,-0.0295 -0.0843,-0.012 -7.0665,1.78743 -7.12536,1.79622 -5.11572,1.37181 0.2218,-0.10619 0.34741,-0.24571 0.60564,-0.33482 2.99491,-1.03378 11.90646,-3.02891 0.80933,-0.21332 2.31419,-0.66502 4.58246,-1.381 7.13508,-1.82391 0.26866,-0.0401 0.36535,-0.0496 0.62003,-0.1068 0.0956,-0.0213 0.37054,-0.0956 0.27876,-0.071 -1.71055,0.45812 -6.86559,1.81349 -5.13505,1.37163 1.32609,-0.33858 13.05964,-3.49063 0.5609,-0.13728 0.58711,-0.15404 1.10434,-0.33971 1.58752,-0.5567 0.5107,-0.26507 1.1012,-0.49579 1.61969,-0.75771 0.52956,-0.20253 0.90168,-0.47131 1.40379,-0.68469 1.87675,-0.59564 4.56417,-1.78608 7.23284,-1.64302 0.68465,0.0718 1.32124,0.19708 1.97765,0.30949 0.57801,0.12311 1.14227,0.2605 1.73583,0.36785 0.66872,0.11384 1.3459,0.21829 1.99606,0.35327 0.67924,0.12642 1.37024,0.24167 2.02206,0.39735 0.67115,0.13605 1.35317,0.2585 2.04202,0.37394 0.63784,0.1089 1.27431,0.22148 1.89905,0.34461 0.56313,0.13583 1.14699,0.25488 1.74144,0.35833 0.6008,0.11461 1.22369,0.20242 1.8079,0.33582 0.66826,0.11384 1.34418,0.21842 1.99765,0.34935 0.68482,0.12109 1.38059,0.22885 2.06245,0.3537 0.70125,0.10693 1.38781,0.23008 2.09262,0.33165 0.65707,0.10291 1.31663,0.19829 1.94246,0.33825 0.63715,0.10448 1.28203,0.19561 1.91532,0.3049 0.66758,0.0969 1.31938,0.20938 1.97773,0.31884 0.7445,0.14572 1.48051,0.30048 2.22309,0.44837 0.62446,0.12511 1.2367,0.26007 1.85619,0.38985 0.58596,0.12979 1.19861,0.23186 1.80775,0.33586 0.5749,0.12474 1.13513,0.26365 1.70363,0.39442 0.59801,0.13305 1.17916,0.28278 1.75319,0.43647 0.68394,0.17297 1.33509,0.37309 2.04056,0.52878 0.83603,0.20073 1.66513,0.4052 2.45827,0.64141 0.72782,0.18508 1.44974,0.37543 2.125,0.59989 0.6164,0.19204 1.24823,0.37536 1.88732,0.55074 0.59564,0.16377 1.20002,0.32021 1.7834,0.49307 0.60453,0.15427 1.21092,0.30675 1.81689,0.45935 0.6712,0.17634 1.33433,0.35856 2.0178,0.52486 0.59221,0.1494 1.18499,0.29641 1.80621,0.41897 0.68242,0.13203 1.37775,0.24627 2.09124,0.3373 0.67068,0.0852 1.32022,0.19775 1.9962,0.27328 0.69157,0.0938 1.39385,0.15697 2.08933,0.24365 0.76494,0.10144 1.56215,0.14368 2.31063,0.27409 0.66383,0.0849 1.31146,0.20063 1.99612,0.2437 0.67166,0.045 1.31249,0.0238 1.91582,-0.13732 -12.34209,3.31177 -5.03196,1.53697 -3.92765,0.95627 0.51283,-0.1829 0.92312,-0.4211 1.43592,-0.60608 0.56576,-0.16458 1.12413,-0.34612 1.62789,-0.5488 2.15695,-0.54167 0.89269,-0.22261 5.93643,-1.59121 1.706,-0.46291 -3.41877,0.92046 -5.1313,1.37821 -0.0879,0.0234 0.16971,-0.0515 0.25713,-0.0754 5.31048,-1.4438 3.76951,-1.04356 5.92881,-1.60291 0.19619,-0.0393 0.76239,-0.17858 0.57737,-0.12909 -1.70876,0.4571 -6.8853,1.78642 -5.13159,1.3671 1.9441,-0.46486 3.80196,-1.00273 5.70332,-1.50381 0.096,-0.0253 0.38463,-0.10092 0.28892,-0.0754 -1.70301,0.45592 -3.40728,0.91085 -5.11096,1.36626 19.00032,-5.06321 -3.51193,0.94755 0.9313,-0.24446 1.90467,-0.51098 3.80891,-1.02233 5.71513,-1.5321 0.28545,-0.0764 0.39,-0.099 0.6825,-0.16859 0.68733,-0.16592 -0.0677,0.012 0.65249,-0.14389 0.11428,-0.0247 0.4475,-0.10778 0.33846,-0.0784 -10.52763,2.83333 -2.69345,0.68087 0.93909,-0.23513 2.22358,-0.43213 5.86056,-1.52497 -3.4707,1.00167 1.90164,-0.50784 3.80928,-1.01094 5.70492,-1.52352 1.70662,-0.46147 -6.8866,1.79675 -5.13783,1.37018 1.93348,-0.47164 3.75522,-1.03697 5.69229,-1.50544 1.75124,-0.42351 -3.42437,0.91246 -5.13432,1.3705 -0.0888,0.0238 0.18047,-0.0452 0.27063,-0.0676 1.88852,-0.50792 3.77702,-1.01585 5.66552,-1.52378 -13.48322,3.6241 0.5497,-0.16062 0.77414,-0.23345 1.61747,-0.5248 -6.87289,1.80577 -5.13483,1.37065 0.99091,-0.24808 13.36953,-3.56489 0.56414,-0.13782 0.58452,-0.15075 1.11231,-0.33119 1.64295,-0.51738 0.344,-0.13769 0.75346,-0.22517 1.10493,-0.35893 0.0815,-0.031 0.13948,-0.0742 0.22346,-0.10396 0.0814,-0.0288 0.1786,-0.0466 0.2679,-0.07 0.52551,-0.20659 -0.0553,0.005 0.52561,-0.15596 0.37793,-0.10447 0.64173,-0.28712 0.99542,-0.40703 0.59499,-0.17492 1.18118,-0.36898 1.70195,-0.58891 0.56602,-0.16441 1.12516,-0.34563 1.62868,-0.54841 2.12266,-0.53548 1.56407,-0.39298 5.9282,-1.59672 1.69929,-0.4687 -3.41592,0.92391 -5.12821,1.38241 -0.43701,0.11704 1.12762,-0.38779 0.74813,-0.24807 18.58696,-4.99982 -12.55126,3.37908 6.44694,-1.75322 0.29799,-0.0805 0.25013,-0.0654 0.57016,-0.12744 0.57312,-0.13466 1.15303,-0.26688 1.76073,-0.3647 0.62827,-0.11008 1.2752,-0.18908 1.89876,-0.30558 0.65772,-0.0802 1.28047,-0.20469 1.93922,-0.28323 0.64515,-0.10818 1.30723,-0.1829 1.96632,-0.2713 0.70921,-0.0562 1.39807,-0.1494 2.10779,-0.19996 0.72102,-0.0474 1.41265,-0.14661 2.13084,-0.19685 0.72124,-0.0474 1.41323,-0.14709 2.13216,-0.196 0.72928,-0.0459 1.43438,-0.14284 2.16525,-0.17903 0.74747,-0.0324 1.47996,-0.0966 2.21547,-0.16441 0.79028,-0.0225 1.58762,-0.0269 2.36408,-0.10709 0.64862,-0.0713 1.30009,-0.13666 1.94213,-0.213 -1.75569,0.47263 -3.58328,0.89252 -5.26702,1.41789 -0.16044,0.0501 0.64211,0.2134 0.26561,0.20733 -0.10143,-0.002 -0.20257,-0.008 -0.30391,-0.009 -0.13707,-0.005 -0.27429,-0.008 -0.41143,-0.0116 -0.75699,-0.0307 -1.50204,-0.0888 -2.24617,-0.15927 -0.79611,-0.0266 -1.59972,-0.0157 -2.38888,-0.0806 -0.70416,-0.0625 -1.37781,-0.17418 -2.08481,-0.2304 -0.68165,-0.0817 -1.35342,-0.18418 -2.02451,-0.28115 -0.58297,-0.1267 -1.1518,-0.2674 -1.7204,-0.40713 -0.62086,-0.1486 -1.21583,-0.32164 -1.78062,-0.51183 -0.536,-0.16429 -1.03596,-0.3505 -1.56242,-0.52105 -0.50275,-0.17448 -0.91128,-0.39483 -1.36568,-0.59461 -0.41737,-0.20218 -0.85495,-0.39558 -1.28849,-0.59029 -0.50423,-0.23363 -1.04434,-0.45123 -1.60079,-0.65788 -0.68015,-0.26088 -1.3881,-0.50584 -2.08952,-0.75438 -0.64279,-0.23963 -1.31614,-0.46313 -1.90911,-0.73014 -0.65245,-0.25645 -1.30006,-0.51508 -1.94951,-0.77315 -0.5587,-0.24395 -1.13037,-0.48048 -1.68986,-0.72413 -0.61334,-0.28049 -1.29444,-0.52463 -1.93893,-0.78929 -0.55076,-0.22351 -1.07724,-0.45833 -1.63924,-0.67561 -0.50305,-0.21064 -1.05016,-0.39669 -1.59492,-0.58352 -0.48827,-0.19382 -0.92564,-0.41153 -1.39536,-0.6146 -0.52581,-0.24571 -1.08296,-0.47675 -1.60665,-0.72357 -0.43739,-0.22547 -0.8826,-0.44682 -1.34497,-0.66143 -0.49492,-0.26076 -0.9989,-0.5177 -1.48857,-0.7806 -0.54246,-0.28579 -1.17884,-0.52019 -1.85217,-0.73767 -0.51027,-0.16934 -1.0124,-0.34353 -1.56502,-0.48358 -0.57036,-0.18698 -1.17954,-0.34034 -1.78416,-0.50196 -0.64189,-0.17583 -1.31237,-0.32876 -1.95453,-0.50468 -0.55551,-0.13486 -1.10449,-0.27468 -1.6514,-0.41686 -0.58604,-0.13074 -1.22262,-0.19107 -1.82296,-0.30592 -0.64605,-0.0908 -1.28478,-0.19749 -1.95139,-0.25097 -0.75715,-0.07 -1.51094,-0.0817 -2.28164,-0.0458 -0.7258,0.0291 -1.449,0.0754 -2.09476,0.24315 -0.64652,0.14894 -1.33293,0.26027 -2.01166,0.37349 -0.65331,0.11995 -1.31509,0.22984 -1.99133,0.31829 -0.63263,0.11106 -1.28505,0.19083 -1.9077,0.31458 -0.70289,0.0973 -1.35949,0.24494 -2.04924,0.35933 -0.64749,0.13102 -1.29406,0.26364 -1.96678,0.36444 -0.722,0.11815 -1.47253,0.19793 -2.17649,0.34131 -0.65447,0.11869 -1.32881,0.20963 -1.96737,0.34709 -0.69316,0.10767 -1.37322,0.23168 -2.0587,0.3492 -0.67493,0.0838 -1.31299,0.21333 -1.98638,0.29953 -0.76919,0.13248 -1.55506,0.23941 -2.35638,0.32335 -0.7335,0.0849 -1.46008,0.18822 -2.17201,0.30505 -0.62256,0.11029 -1.27081,0.19069 -1.8876,0.3091 -0.6546,0.12039 -1.27493,0.27766 -1.92763,0.40112 -0.75964,0.13441 -1.49495,0.2961 -2.26458,0.41854 -0.67074,0.12086 -1.36022,0.21356 -2.02564,0.34144 -0.81343,0.11273 -1.62431,0.22838 -2.45362,0.31454 -0.70939,0.0625 -1.39326,0.15778 -2.09219,0.2376 -0.66814,0.0738 -1.294,0.20221 -1.95833,0.2823 -0.6607,0.11334 -1.3403,0.1942 -2.00143,0.30764 -0.75372,0.092 -1.48044,0.21652 -2.21378,0.33785 -0.73299,0.12152 -1.49484,0.20473 -2.20186,0.36051 -0.70379,0.13841 -1.4193,0.26118 -2.12954,0.39258 -0.71073,0.14031 -1.43356,0.2647 -2.14479,0.40477 -0.76627,0.16058 -1.53958,0.31291 -2.29928,0.48031 -2.22379,0.48107 -6.27672,1.33764 3.40126,-0.99459 -18.6815,4.93537 12.55202,-3.391 -6.55909,1.74223 -1.59561,0.42858 7.14654,-1.96455 4.79157,-1.28209 -0.57279,0.23214 0.036,0.002 -0.58618,0.19005 -2.08852,0.63229 -4.2196,1.24273 -6.43632,1.78489 -0.62321,0.11278 -1.19964,0.23831 -1.8873,0.14859 -0.66459,-0.0816 -1.25978,-0.22513 -1.88939,-0.34916 -0.60948,-0.12273 -1.25175,-0.20706 -1.90346,-0.26732 -0.66151,-0.089 -1.30191,-0.20833 -1.96283,-0.29844 -0.61561,-0.10735 -1.25668,-0.1828 -1.88003,-0.2795 -0.68781,-0.0796 -1.365,-0.17804 -2.05251,-0.25744 -0.69234,-0.1251 -1.39687,-0.24993 -2.01748,-0.44129 -0.80038,-0.2397 -1.59384,-0.48484 -2.32798,-0.76722 0,0 5.39717,-1.52555 5.39717,-1.52555 z"
       inkscape:connector-curvature="0" />
    <path
       style="fill:#a05a2c"
       id="path2991"
       d="m 109.46,972.22153 c -1.19016,0.12123 -2.38608,0.19718 -3.58465,0.24377 -0.87785,0.18721 -1.76818,0.30347 -2.67473,0.35921 -0.91827,0.0433 -1.83877,0.042 -2.75835,0.043 -0.940971,-3.5e-4 -1.881952,-0.002 -2.822934,-0.003 -0.941966,-6.4e-4 -1.883942,-6.4e-4 -2.825919,-6.4e-4 -0.941681,-4e-5 -1.883373,-2e-5 -2.825066,-10e-6 -0.813156,-0.15293 -1.630498,-0.26454 -2.464279,-0.31862 -0.903448,-0.0459 -1.809377,-0.0461 -2.714345,-0.0482 -0.941245,-5.5e-4 -1.882489,6.4e-4 -2.823744,0.002 -0.885282,0.0722 -1.72125,-0.14599 -2.583984,-0.25334 -0.864078,-0.0909 -1.737553,-0.0999 -2.608075,-0.10893 -0.936968,-0.006 -1.873983,-0.004 -2.81097,-0.003 -0.884511,0.0225 -1.727238,-0.21943 -2.552807,-0.4338 -0.81397,-0.11417 -1.443865,-0.53931 -2.177034,-0.79505 -0.591613,-0.27991 -1.192291,-0.57478 -1.843527,-0.76597 -0.610855,-0.26392 -1.12155,-0.61494 -1.797823,-0.77562 -0.808355,-0.1378 -1.642002,-0.13741 -2.465732,-0.14582 -0.938252,-0.005 -1.876525,2.2e-4 -2.814779,0.002 -0.94324,0.002 -1.886483,0.002 -2.829724,0.003 -0.941812,2e-4 -1.883624,1.6e-4 -2.825435,1.4e-4 -0.621684,0.0414 -1.263483,-0.0543 -1.883286,-3e-5 -0.0038,3.4e-4 -0.763763,0.14765 -0.773332,0.1495 -0.833834,0.15192 -1.691909,0.18072 -2.544577,0.20306 -0.820545,0.0433 -1.609048,0.2404 -2.434396,0.31084 -0.875072,0.10276 -1.784325,-0.0292 -2.640746,0.14337 -0.80495,0.18236 -1.64176,0.2304 -2.474904,0.26332 -1.036138,0.097 -1.627931,-0.34108 -1.990968,-1.04023 -0.251504,-0.69106 -0.236864,-1.41618 -0.241956,-2.12796 0.01082,-0.71551 -0.04165,-1.43203 0.111072,-2.1401 0.906119,-2.29288 4.635054,-3.47213 7.649594,-3.65088 0.926535,-0.0348 1.854689,-0.0223 2.781914,-0.0172 0.94577,0.005 1.891565,0.008 2.837362,0.009 0.850834,0.008 1.671603,0.21462 2.518216,0.29241 0.833863,-0.006 1.610476,0.22263 2.424077,0.32935 0.854178,0.059 1.681632,0.091 2.514183,0.25243 0.809066,0.15385 1.643038,0.1842 2.471988,0.20699 0.927053,0.0181 1.854516,0.0154 2.781785,0.0146 0.942563,-0.002 1.885129,-0.002 2.827693,-0.002 0.941938,-3.7e-4 1.883879,-3.7e-4 2.825817,-4e-4 0.86451,0.074 1.66859,-0.15918 2.51107,-0.26025 0.571723,-0.0998 1.175058,-0.0257 1.748521,-0.0923 0.25746,-0.0298 0.500817,-0.11026 0.752236,-0.16255 0.775911,-0.0784 1.455156,-0.35286 2.223166,-0.46671 0.865991,-0.18643 1.63558,-0.51369 2.42199,-0.835 0.133597,-0.0408 0.273785,-0.0704 0.40078,-0.12229 0.228862,-0.0934 0.887666,-0.41178 0.663656,-0.31156 -1.786097,0.7991 -7.164756,3.16881 -5.384106,2.36246 2.088035,-0.94554 4.187604,-1.87576 6.281401,-2.81364 -1.89521,0.84367 -3.78629,1.69292 -5.685636,2.531 -0.10073,0.0444 0.1884,-0.10518 0.289028,-0.14976 2.099116,-0.92997 4.179536,-1.88643 6.309435,-2.77355 1.925541,-0.80201 -7.557412,3.40624 -5.696156,2.51811 5.448559,-2.59988 4.038343,-2.21316 6.627015,-2.8872 2.000129,-0.9918 4.945577,-2.15362 -5.106366,2.25954 -0.09892,0.0434 0.179022,-0.10948 0.277261,-0.15379 6.27162,-2.82936 3.950261,-2.32755 6.645916,-2.87972 0.858067,-0.12973 1.736716,-0.13101 2.607648,-0.13825 0.941888,-0.003 1.883788,0.002 2.825678,0.004 0.942916,0.002 1.885832,0.002 2.82876,0.003 0.930991,-0.0242 1.829522,-0.0187 2.736927,0.14315 0.814617,0.14932 1.651687,0.18336 2.485047,0.20733 0.79206,0.17817 1.59785,0.28243 2.41842,0.33502 0.89443,0.0156 1.75738,0.031 2.62873,0.18937 0.81432,0.14919 1.6514,0.18145 2.48437,0.20467 0.9267,0.0185 1.85382,0.0161 2.78075,0.0155 0.94247,-6.4e-4 1.88498,-0.002 2.82746,-0.002 1.05054,-0.072 1.66029,0.34967 2.03354,1.06419 0.26424,0.70291 0.0677,1.44403 -0.11171,2.14652 -0.26798,0.61141 -0.4439,1.23422 -0.53461,1.87507 -0.0774,0.70631 -0.0766,1.41586 -0.0796,2.12413 -0.0515,0.64401 -0.26204,1.27036 -0.36182,1.91073 -0.14906,0.60779 -0.33778,1.20901 -0.4969,1.81614 -0.0356,0.0947 -0.0712,0.18943 -0.10679,0.28417 0,0 -6.31047,2.30477 -6.31047,2.30477 l 0,0 c 0.0386,-0.0907 0.077,-0.18132 0.11563,-0.27198 0.27153,-0.55644 0.23417,-1.1849 0.55886,-1.7362 0.0695,-0.63054 0.19452,-1.25243 0.40132,-1.86553 -3e-5,-0.72156 -0.005,-1.44372 0.0463,-2.16449 0.0619,-0.66584 0.1591,-1.3332 0.47798,-1.95969 0.26529,-0.56259 0.39109,-1.24801 0.30049,-1.83956 -0.27583,-0.61986 -0.80481,-0.5273 -1.56097,-0.52531 -0.94263,5.9e-4 -1.8853,0.002 -2.82793,0.002 -0.9349,-6.3e-4 -1.87035,-1.9e-4 -2.80441,-0.0346 -0.85976,-0.0409 -1.7158,-0.11183 -2.55537,-0.26723 -0.85426,-0.11481 -1.723757,-0.067 -2.583825,-0.14889 -0.805505,-0.0779 -1.589216,-0.23474 -2.392939,-0.31345 -0.858592,-0.0418 -1.712789,-0.1149 -2.552188,-0.26635 -0.875042,-0.11001 -1.76227,-0.0508 -2.645553,-0.0647 -0.943178,-5.2e-4 -1.886346,-0.002 -2.829515,-0.004 -0.938981,-0.002 -1.87816,-0.008 -2.816966,0.009 -0.836984,0.0238 -1.695783,0.0428 -2.4798,0.29619 -2.233788,0.90768 -0.713125,0.29427 5.352848,-2.42423 0.09706,-0.0435 -0.187481,0.0954 -0.284113,0.13949 -1.974661,0.90027 -4.497372,2.22515 -6.868003,3.07793 -3.162733,1.34199 17.129921,-7.26617 5.367298,-2.40787 -2.130872,0.88011 -4.149022,1.91788 -6.285097,2.79042 -1.930988,0.78876 3.780957,-1.69084 5.669434,-2.53893 0.0987,-0.0443 -0.200007,0.0851 -0.300006,0.12758 -2.085697,0.94249 -4.171395,1.88498 -6.257085,2.82746 12.0511,-5.43251 2.129901,-0.8656 -1.955085,0.87015 -0.801673,0.3244 -1.658323,0.56305 -2.534843,0.73586 -0.738856,0.1714 -1.462582,0.36851 -2.229402,0.45925 -0.832623,0.12016 -1.688269,0.0939 -2.519099,0.2324 -0.853194,0.12991 -1.69658,0.2313 -2.571662,0.17837 -0.941831,5e-5 -1.883658,1.1e-4 -2.825485,6.4e-4 -0.942696,6e-4 -1.885391,0.002 -2.828085,0.002 -0.935237,-6.3e-4 -1.871023,3.6e-4 -2.805453,-0.0338 -0.85919,-0.0409 -1.715524,-0.1107 -2.55146,-0.27749 -0.826065,-0.1264 -1.674733,-0.10144 -2.499996,-0.23913 -0.796467,-0.13128 -1.582834,-0.27911 -2.400925,-0.30835 -0.814995,-0.10037 -1.620084,-0.27763 -2.453153,-0.23825 -0.946041,-0.002 -1.892068,-0.007 -2.838099,-0.0105 -0.909495,-0.002 -1.826016,-0.0164 -2.727441,0.0916 -0.249198,0.0461 -0.951783,0.28373 -0.731715,0.18223 1.876574,-0.86559 3.781994,-1.69347 5.656777,-2.56138 0.179559,-0.0831 -0.415263,0.10643 -0.555061,0.22686 -0.07275,0.0626 -0.11252,0.14421 -0.168784,0.21631 -0.209948,0.67721 -0.206219,1.35163 -0.187005,2.04799 -1.43e-4,0.64982 -0.02326,1.30892 0.145344,1.94871 0.269567,0.60836 0.754606,0.50679 1.493656,0.46641 0.82534,-0.0601 1.634181,-0.17962 2.447735,-0.29913 0.882194,-0.0346 1.769368,-0.032 2.64429,-0.13882 0.819725,-0.10811 1.625968,-0.28619 2.465578,-0.26914 0.839379,-0.0434 1.672305,-0.12224 2.492739,-0.27067 0.90198,-0.1032 1.816114,-0.0424 2.725124,-0.0578 0.941722,0 1.883442,3e-5 2.825161,-3.5e-4 0.942859,-5.1e-4 1.885717,-0.002 2.828571,-0.004 0.942597,-0.002 1.885369,-0.008 2.827829,0.008 0.883316,0.0232 1.783083,0.0471 2.620703,0.28889 0.638757,0.22443 1.180344,0.56476 1.816055,0.7948 0.635727,0.24071 1.251395,0.51333 1.861638,0.79025 0.680088,0.28736 1.335087,0.60805 2.107077,0.73493 0.784543,0.19296 1.589733,0.33471 2.419294,0.29774 0.940469,-6e-4 1.881045,-0.003 2.821393,0.0109 0.896432,0.0187 1.795902,0.0455 2.680081,0.17086 0.830523,0.1219 1.64933,0.24096 2.50155,0.18313 0.942403,-6.3e-4 1.884827,-0.003 2.82723,6.4e-4 0.921046,0.007 1.843972,0.013 2.761016,0.0868 0.809255,0.077 1.601677,0.235 2.414647,0.27758 0.941713,-10e-6 1.883417,-10e-6 2.825135,9e-5 0.94209,1.6e-4 1.8842,4.1e-4 2.8263,0.002 0.94037,6.4e-4 1.88075,0.003 2.82112,-4.1e-4 0.90834,-0.006 1.81879,-0.012 2.72275,-0.0888 0.89464,-0.09 1.76902,-0.27 2.66918,-0.3238 1.19978,-0.0571 2.40006,-0.13826 3.58163,-0.3154 0,0 -5.58352,3.24738 -5.58352,3.24738 z"
       inkscape:connector-curvature="0" />
    <path
       style="fill:#c87137"
       d="m 83.378399,960.45735 c -4.086794,1.917 -8.468699,3.44808 -13.124367,4.25543 -1.850809,1.02701 0.186371,2.35002 1.750897,2.37803 3.70378,1.2884 7.34463,2.92391 11.563893,2.77554 8.881114,0.37939 17.874308,0.70762 26.714828,0.43178 1.87803,-1.26303 1.12911,-3.87368 1.79474,-5.70536 0.66441,-1.31692 0.007,-3.04255 -2.11282,-2.96348 -6.12662,-0.34655 -12.1847,-0.89276 -18.303509,-1.25159 -2.751977,0.0109 -5.567239,-0.1949 -8.283662,0.0796 z"
       id="path3003"
       inkscape:connector-curvature="0" />
    <path
       style="fill:#c87137"
       d="m 47.29561,963.56746 c -1.023118,1.01372 -0.725489,2.64839 -0.135971,3.77789 1.455385,1.08579 3.9392,0.33145 5.798247,0.37553 5.612645,-0.73929 11.377348,-0.61328 17.031472,-0.97765 2.006638,-0.44216 0.492266,-2.55687 -1.248908,-2.00479 -6.907508,0.15246 -13.715895,-0.53572 -20.52217,-1.33621 -0.307556,0.0551 -0.615112,0.11016 -0.92267,0.16523 z"
       id="path3007"
       inkscape:connector-curvature="0" />
    <path
       style="fill:#000000"
       id="path2989"
       d="m 201.70789,977.47197 c -1.20394,-0.0296 -2.40848,-0.015 -3.6127,-0.0183 -1.14337,1.7e-4 -2.28673,0.006 -3.43011,0.008 -0.96253,0.003 -1.92508,0.003 -2.88763,0.003 -0.93983,1.1e-4 -1.87966,6e-5 -2.81949,4e-5 -0.94121,-4e-5 -1.88244,-4e-5 -2.82366,-4e-5 -0.94164,0 -1.88332,0 -2.82497,0 -0.94827,-0.042 -1.86234,-0.003 -2.79059,0.16963 -0.93918,0.1748 -1.89514,0.22764 -2.84954,0.25938 -0.9447,0.023 -1.88981,0.0201 -2.83473,0.0195 -0.82972,0.0252 -1.62911,0.27235 -2.46022,0.35978 -0.90355,0.0764 -1.81155,0.0796 -2.71797,0.0847 -0.9414,0.003 -1.88281,2e-5 -2.82423,-7.7e-4 -0.94221,-7.8e-4 -1.88444,-7.8e-4 -2.82666,-0.003 -0.4416,0.0306 -0.91084,-0.0852 -1.33309,0.0921 -0.1082,0.0456 -0.39328,0.24883 -0.28995,0.19411 5.65026,-2.99217 7.42616,-4.40245 5.4996,-2.89537 -0.43683,0.64739 -0.39978,1.46243 -0.41757,2.20389 -0.008,0.89274 0.005,1.78552 0.01,2.67824 0.006,0.89256 0.007,1.78512 0.007,2.6777 4.6e-4,0.8904 3.4e-4,1.7808 3.1e-4,2.67119 -6e-5,0.8903 -9e-5,1.78054 -10e-5,2.67083 -1e-5,0.89028 -1e-5,1.78057 -1e-5,2.67087 -9.7e-4,0.8507 0.10088,1.70139 -0.28795,2.48974 -2.11631,2.68061 -5.1984,3.67883 -8.34815,3.70998 -0.94535,-10e-5 -1.89067,-0.0102 -2.83602,-0.0166 -0.94405,-0.0102 -1.88812,-0.0102 -2.83218,-0.0102 -1.04673,-0.10185 -1.41142,-0.45123 -2.00084,-1.21154 -0.43117,-0.67736 -0.6441,-1.46341 -0.86105,-2.22212 -0.12631,-0.80669 -0.39619,-1.5801 -0.58142,-2.37442 -0.17455,-0.8443 -0.19912,-1.70633 -0.21849,-2.5637 -0.0136,-0.8899 -0.01,-1.77992 -0.007,-2.66988 9.7e-4,-0.89086 0.002,-1.78175 0.002,-2.6726 3.1e-4,-0.89034 3e-4,-1.78068 3e-4,-2.67102 -1e-5,-0.89029 -2e-5,-1.78057 -2e-5,-2.67088 0.0204,-0.78968 0.0384,-1.16618 -0.8253,-1.35017 -0.83927,-0.13995 -1.69513,-0.0176 -2.52778,-0.17603 -0.80644,-0.1979 -1.63441,-0.26811 -2.46343,-0.30979 -0.9184,-0.0348 -1.83778,-0.0328 -2.75676,-0.0333 -0.97454,0.086 -1.90617,-0.0917 -2.85937,-0.24382 -0.92573,-0.14151 -1.86379,-0.17216 -2.7995,-0.19163 -0.93942,-0.0133 -1.87898,-0.01 -2.81847,-0.01 -0.97424,0.0868 -1.90531,-0.0917 -2.85806,-0.24414 -0.92533,-0.14183 -1.86305,-0.17251 -2.79844,-0.19202 -0.85859,0.0408 -1.81872,-0.21946 -2.55798,0.27746 1.90904,-1.02456 3.80917,-2.06409 5.72711,-3.07369 0.0863,-0.0455 -0.16402,0.10771 -0.22786,0.17887 -0.32311,0.36042 -0.33897,0.90806 -0.38463,1.35114 -0.0536,0.87798 -0.0358,1.75816 -0.0293,2.63708 0.0422,0.85631 0.0121,1.69553 -0.16344,2.53622 -0.18309,0.788 -0.23756,1.59312 -0.27219,2.39689 0.002,0.82967 0.0425,1.62975 -0.55853,2.28537 -6.66784,3.88 -4.39185,3.51044 -8.59307,3.08933 -0.79768,-0.26973 -1.61685,-0.42338 -2.45766,-0.49922 -0.8941,-0.0263 -1.7574,-0.0441 -2.62884,-0.23742 -0.92239,-0.14982 -1.56552,-0.13336 -2.23294,-0.82602 -0.46469,-0.63917 -0.74839,-1.3253 -0.90783,-2.08185 -0.14068,-0.86144 -0.14213,-1.73563 -0.14915,-2.60509 -0.002,-0.89259 9.6e-4,-1.78516 0.005,-2.67775 9.6e-4,-0.89081 0.002,-1.78163 0.002,-2.67245 1.5e-4,-0.89029 9e-5,-1.78058 8e-5,-2.67086 0.0732,-0.90547 0.27078,-1.7952 0.37101,-2.69853 0.0234,-0.80347 0.27409,-1.57358 0.41505,-2.36087 0.12808,-0.83144 0.14134,-1.67316 0.15399,-2.51172 0.008,-0.88833 0.006,-1.77671 0.005,-2.66503 -9.7e-4,-0.89099 -9.7e-4,-1.78197 -0.002,-2.67293 -0.0219,-0.85415 -0.0309,-1.6949 0.20001,-2.52506 1.39511,-2.63662 4.94163,-3.98709 7.98637,-4.10678 0.79829,0.20975 1.64943,0.22944 2.4305,0.48318 0.75089,0.27225 1.54937,0.3409 2.34463,0.3867 0.85995,-0.0478 1.66964,0.21808 2.50866,0.34508 0.86508,0.10917 1.73935,0.11883 2.61065,0.12904 0.8456,0.0182 1.66151,0.26549 2.50396,0.35871 0.88687,0.0793 1.77864,0.0833 2.66868,0.0887 0.93708,-0.0344 1.85666,-0.26063 2.79399,-0.35511 0.94744,-0.0813 1.89947,-0.0883 2.85006,-0.0944 0.94259,-0.003 1.88518,-5.1e-4 2.82778,6.2e-4 0.92652,0.22809 1.90574,0.22445 2.82038,0.48049 0.79031,0.28862 1.6464,0.27143 2.455,0.47016 0.89433,0.23274 1.81708,0.31261 2.73962,0.35933 0.84648,0.0447 1.65937,0.29354 2.50474,0.3878 0.83383,-0.008 1.61101,0.26929 2.42471,0.39901 0.86169,0.11272 1.73329,0.12103 2.60157,0.13095 0.88019,-0.0803 1.71204,0.18344 2.57038,0.31247 0.86508,0.10979 1.73934,0.12043 2.61069,0.13127 0.9371,0.006 1.87424,0.005 2.81135,0.003 0.94246,-7.8e-4 1.88493,-0.003 2.82739,-0.003 0.94179,-2.1e-4 1.88358,-1.7e-4 2.82535,-1.7e-4 0.94165,0 1.88332,2e-5 2.82496,2e-5 0.94168,0 1.88332,0 2.82498,0 0.86451,0.0904 1.66858,-0.19463 2.51106,-0.31821 0.85586,-0.15651 1.75144,-0.005 2.59015,-0.22057 0.80242,-0.22751 1.63857,-0.28491 2.47037,-0.32497 0.76637,-0.26792 1.57056,-0.36587 2.37978,-0.42502 0.92644,0.0128 1.81326,-0.23799 2.72595,-0.35818 0.94701,-0.10954 1.90199,-0.1236 2.85474,-0.13402 0.94349,-0.006 1.887,-0.003 2.83051,-0.003 0.94162,7.9e-4 1.88324,0.003 2.82487,0.003 0.44154,-0.0306 0.91072,0.0852 1.3329,-0.0921 0.10821,-0.0456 0.39325,-0.24883 0.28994,-0.19412 -5.65024,2.99215 -7.4262,4.40244 -5.49961,2.89538 0.43684,-0.64739 0.3998,-1.46242 0.41759,-2.20391 -0.0195,-0.83766 -0.0747,-1.64813 0.52389,-2.31791 4.33797,-2.89862 4.9092,-3.45135 8.56388,-3.45102 0.94703,0.006 1.89406,0.0138 2.84112,0.0178 0.93258,-0.0263 1.83292,-0.0195 2.74181,0.17901 0.78113,0.0861 1.47957,0.41773 2.2453,0.56945 0.89819,0.29478 1.21738,1.04813 1.40176,1.86133 0.13767,0.87248 0.12292,1.75795 0.12197,2.63767 -0.0136,0.87275 0.0418,1.74641 -0.1093,2.61029 -0.1418,0.74296 -0.28318,1.47781 -0.50919,2.20218 -0.217,0.77956 -0.42897,1.56469 -0.73717,2.31716 -0.2502,0.67771 -0.61846,1.29951 -0.81618,1.99406 -0.11779,0.73895 -0.37264,1.44573 -0.51395,2.17994 -0.0481,0.77897 -0.23382,1.53119 -0.40396,2.29117 -0.16593,0.80789 -0.19206,1.63241 -0.21305,2.4527 -0.0153,0.88626 -0.0121,1.7727 -0.011,2.65905 -0.0223,0.54444 0.087,1.52903 -0.53069,1.86933 -2.09398,1.15359 -4.22826,2.24055 -6.34239,3.36083 -0.89547,0.10135 -1.79986,0.0845 -2.7,0.0794 -0.15792,-7.7e-4 -0.31583,-0.003 -0.47375,-0.004 0,0 5.63042,-3.86423 5.63042,-3.86423 l 0,0 c 0.15728,4e-5 0.31455,9e-5 0.47183,1e-4 0.85969,-0.008 1.75367,0.0182 2.56664,-0.283 -1.88677,1.03845 -3.78837,2.05323 -5.66033,3.11538 -0.0957,0.0542 0.2195,-0.0446 0.32195,-0.0864 0.52329,-0.21321 0.5433,-0.72976 0.51732,-1.20054 -9.7e-4,-0.88996 -0.005,-1.77994 0.002,-2.66988 0.0121,-0.84997 0.0241,-1.70298 0.14919,-2.54628 0.13511,-0.76327 0.4218,-1.4899 0.41657,-2.27137 0.101,-0.75885 0.34641,-1.47167 0.49265,-2.21547 0.14306,-0.79169 0.42895,-1.37473 0.76822,-2.09311 0.31603,-0.73065 0.60262,-1.4715 0.76495,-2.24941 0.19631,-0.72227 0.4599,-1.41155 0.53453,-2.16162 0.20878,-0.82745 0.20206,-1.65109 0.18377,-2.50161 0.002,-0.83964 0.0199,-1.68262 -0.074,-2.5188 -0.10875,-0.62372 -0.26488,-1.0861 -0.9907,-1.21819 -0.73941,-0.19548 -1.45711,-0.45762 -2.22515,-0.54635 -0.87701,-0.13554 -1.76649,-0.0641 -2.65186,-0.0856 -0.9449,-0.006 -1.88991,-0.0172 -2.83481,-0.006 -3.20725,0.0859 -5.44044,1.90286 3.56597,-2.83453 -1.00746,0.27698 -0.83286,0.89551 -0.82422,1.74932 -0.005,0.84672 0.008,1.70768 -0.22278,2.53245 -1.19638,2.92228 -5.12379,3.99721 -8.15227,3.90806 -0.94174,-4.2e-4 -1.88348,-7.8e-4 -2.82522,-0.003 -0.94076,-7.6e-4 -1.88163,-0.004 -2.82229,0.0123 -0.93565,0.0227 -1.87334,0.0589 -2.7982,0.20536 -0.91478,0.1485 -1.82393,0.30564 -2.75419,0.33864 -0.80552,0.10393 -1.58431,0.32334 -2.39152,0.40569 -0.82315,0.0737 -1.6295,0.21952 -2.43896,0.37527 -0.86381,0.0512 -1.73348,0.0664 -2.58522,0.22814 -0.85321,0.15885 -1.69659,0.2828 -2.57169,0.21808 -0.94164,0 -1.88331,0 -2.82495,0 -0.94167,0 -1.88331,-4e-5 -2.82497,-3e-5 -0.94172,3e-5 -1.88344,3e-5 -2.82517,3.5e-4 -0.94234,4.1e-4 -1.88469,7.8e-4 -2.82704,0.003 -0.94053,7.4e-4 -1.88118,0.004 -2.82159,-0.0129 -0.89705,-0.0224 -1.79713,-0.0544 -2.68218,-0.20636 -0.8293,-0.14781 -1.64773,-0.29296 -2.49845,-0.23691 -0.89684,-0.0216 -1.79787,-0.051 -2.68084,-0.21467 -0.79706,-0.15956 -1.58421,-0.33827 -2.40248,-0.37473 -0.82191,-0.12648 -1.62865,-0.34983 -2.46701,-0.35683 -0.94397,-0.0772 -1.87738,-0.21446 -2.79815,-0.42942 -0.83378,-0.12091 -1.66539,-0.24133 -2.47188,-0.48533 -0.89798,-0.15489 -1.80719,-0.29551 -2.71688,-0.35845 -0.94083,-7.7e-4 -1.8817,-0.004 -2.82248,0.006 -0.9361,0.0148 -1.87405,0.0372 -2.80353,0.15262 -0.94676,0.12581 -1.88842,0.33777 -2.85088,0.28524 -0.91092,-0.0135 -1.82459,-0.0305 -2.72827,-0.15032 -0.81382,-0.12141 -1.61691,-0.33624 -2.44817,-0.30096 -0.8977,-0.0216 -1.79879,-0.052 -2.68415,-0.20638 -0.81776,-0.15057 -1.62608,-0.30663 -2.46518,-0.2985 -0.82804,-0.0806 -1.6401,-0.22479 -2.42917,-0.48231 -0.74791,-0.14153 -1.51318,-0.31022 -2.277,-0.29665 -0.30287,0.0391 -0.51882,0.0539 -0.81006,0.14239 -0.11765,0.0358 -0.4487,0.19435 -0.34253,0.13448 9.42955,-5.31749 7.18576,-3.94445 5.10391,-2.85681 -0.44588,0.69866 -0.33585,1.52169 -0.33878,2.30733 1.9e-4,0.89078 4.7e-4,1.78156 9.7e-4,2.67234 9.7e-4,0.89046 0.005,1.78095 9.7e-4,2.67141 -0.007,0.86272 -0.0109,1.7273 -0.10263,2.58653 -0.10416,0.79134 -0.36487,1.5468 -0.44189,2.33573 -0.0787,0.88871 -0.21775,1.76808 -0.39995,2.64319 3e-5,0.89035 5e-5,1.78068 -5e-5,2.67103 -1.8e-4,0.89121 -4.2e-4,1.78242 -0.002,2.67363 -9.7e-4,0.89091 -0.006,1.78185 -0.006,2.67279 0.002,0.83256 -9.3e-4,1.66843 0.10502,2.49628 0.11063,0.63128 0.31599,1.2006 0.71194,1.72788 0.54515,0.43152 1.34654,0.3163 1.99855,0.51227 0.85649,0.14127 1.72908,0.0827 2.59011,0.1975 0.82991,0.11517 1.62715,0.33925 2.44669,0.49727 0.55208,0.0596 1.19027,0.20644 1.74581,0.1137 0.11305,-0.0188 0.42449,-0.16062 0.32593,-0.10503 -1.87467,1.05795 -3.77362,2.07698 -5.66041,3.11542 1.00213,-0.27173 0.84873,-0.86564 0.85329,-1.72156 0.0219,-0.8322 0.0503,-1.66803 0.21015,-2.48888 0.1738,-0.809 0.34099,-1.58731 0.24157,-2.42262 -0.007,-0.89284 -0.0219,-1.78592 -9.5e-4,-2.67867 0.16269,-3.58674 1.62594,-3.14035 6.60108,-5.48499 0.8953,-0.13839 1.80793,-0.0496 2.7112,-0.0473 0.95513,0.0372 1.90982,0.10123 2.85152,0.26483 0.92746,0.14546 1.85104,0.19319 2.79187,0.15413 0.94388,1e-5 1.888,-0.003 2.83154,0.0262 0.95538,0.037 1.91032,0.10111 2.85235,0.26427 0.92847,0.14519 1.85303,0.19229 2.79478,0.15538 0.92992,0.004 1.8608,0.006 2.78901,0.0653 0.83995,0.067 1.66786,0.19363 2.49537,0.34362 0.8796,0.0543 1.78359,0.006 2.62674,0.29237 0.89348,0.42138 1.31369,1.08541 1.23153,2.04699 0,0.89029 1e-5,1.78058 3e-5,2.67088 0,0.8904 2e-5,1.78083 -2e-4,2.67124 -3.3e-4,0.89115 -8.6e-4,1.78228 -0.002,2.67341 -9.7e-4,0.88579 -0.006,1.77161 0.002,2.65736 0.0136,0.81766 0.0246,1.63964 0.16757,2.44824 0.16654,0.78874 0.45556,1.54752 0.5568,2.34888 0.18532,0.68009 0.39008,1.3825 0.75405,1.99549 0.46488,0.59869 0.80414,0.70761 1.61724,0.71107 0.94467,0 1.88932,0 2.83396,0.01 0.94084,0.007 1.88213,0.0209 2.8227,-0.007 0.428,-0.0239 0.86415,-0.0379 1.28064,-0.14595 0.12199,-0.0318 0.46568,-0.18178 0.35715,-0.12054 -5.47874,3.09372 -7.77509,3.68156 -5.33829,3.02874 0.77187,-0.44595 0.48586,-1.35172 0.51923,-2.08879 0,-0.8903 0,-1.7806 0,-2.6709 2e-5,-0.89029 2e-5,-1.78058 8e-5,-2.67085 5e-5,-0.89028 1.7e-4,-1.78059 -4e-5,-2.67088 -3.6e-4,-0.8917 -8.2e-4,-1.78341 -0.006,-2.67511 -0.005,-0.89615 -0.0137,-1.79227 -0.0171,-2.68839 0.005,-0.84675 -0.008,-1.70771 0.22276,-2.53249 1.19644,-2.9224 5.12392,-3.99705 8.15242,-3.90816 0.94233,2.8e-4 1.88465,7.7e-4 2.82698,0.003 0.94001,7.8e-4 1.8801,0.004 2.82008,-0.006 0.89316,-0.0147 1.78932,-0.0325 2.67443,-0.15751 0.83243,-0.13117 1.65459,-0.34256 2.50733,-0.28038 0.9385,-0.003 1.87755,-0.003 2.81522,-0.0444 0.93999,-0.054 1.87472,-0.15238 2.80042,-0.31982 0.94889,-0.12238 1.90373,-0.0794 2.85941,-0.0839 0.94165,0 1.88332,0 2.82498,-1e-5 0.94125,0 1.88251,0 2.82375,-4e-5 0.93979,-10e-6 1.87959,-6e-5 2.81937,5e-5 0.96008,2.1e-4 1.92015,5.3e-4 2.88023,0.003 1.13596,0.003 2.27192,0.007 3.40787,0.008 1.22206,-0.004 2.44441,0.011 3.66622,-0.0183 0,0 -5.65294,3.88308 -5.65294,3.88308 z"
       inkscape:connector-curvature="0" />
    <path
       style="fill:#000000"
       id="path3011"
       d="m 37.363978,969.89826 c 0.04297,-0.61143 0.02851,-1.22356 0.0231,-1.83529 -0.0053,-0.51938 -0.0082,-1.03877 -0.0095,-1.55816 -0.02983,-0.4633 0.0548,-0.93036 -0.03941,-1.39176 -0.174104,-0.41805 -0.291657,-0.83958 -0.356633,-1.26605 -0.05577,-0.32666 -0.506261,-0.52235 -1.050664,-0.64279 -0.744525,-0.11005 -1.527337,-0.10753 -2.294465,-0.11401 -0.897507,-0.0235 -1.808471,0.0487 -2.692709,-0.0443 -0.766597,-0.1281 -1.586574,-0.10429 -2.35052,-0.22386 -0.737574,-0.0723 -1.4193,-0.22304 -2.135528,-0.33269 -0.703271,-0.0845 -1.360651,-0.25147 -2.010624,-0.41323 -0.703816,-0.0807 -1.297116,-0.26661 -1.907864,-0.45697 -0.625527,-0.14301 -1.289461,-0.25149 -1.8842,-0.42915 -0.612521,-0.15952 -1.263452,-0.28687 -1.846858,-0.47516 -0.628119,-0.1366 -1.254741,-0.28531 -1.906876,-0.39113 -0.749692,-0.14657 -1.473108,-0.32963 -2.231704,-0.46341 -0.80752,-0.0843 -1.442552,-0.2838 -1.883367,-0.65037 -0.387296,-0.40566 -0.393445,-0.83322 -0.254885,-1.26973 0.166782,-0.42809 0.228083,-0.86363 0.265662,-1.2993 0.03136,-0.47644 0.02999,-0.95326 0.03052,-1.42993 0.0016,-0.36779 -0.313669,-0.64595 -0.692368,-0.93554 -0.432098,-0.26979 -0.996235,-0.2707 -1.59667,-0.20358 -0.6559663,0.0702 -1.2389479,0.26434 -1.8324625,0.42209 10.3378065,-3.08434 5.7193765,-2.21306 4.4736005,-1.03954 -0.33914,0.30209 -0.669203,0.61354 -0.908464,0.942 -0.238839,0.40356 -0.214136,0.82947 -0.369639,1.24147 -0.202636,0.41195 -0.282778,0.83429 -0.329704,1.25788 -0.01141,0.45515 -0.09168,0.91454 5.5e-5,1.36817 0.174596,0.4191 0.293591,0.84159 0.359336,1.26913 0.164806,0.40254 0.333652,0.80178 0.423238,1.21157 0.06608,0.47054 0.283774,0.92937 0.404278,1.39648 0.111957,0.48477 0.129118,0.97352 0.141055,1.46125 0.0073,0.48152 0.0042,0.96307 0.0032,1.44461 -0.0013,0.48063 -0.0018,0.96127 -0.002,1.4419 -1.96e-4,0.48068 -1.77e-4,0.96134 -1.75e-4,1.44202 9e-6,0.48068 1.6e-5,0.96137 1.9e-5,1.44205 -0.04885,0.42505 -0.254935,0.83813 -0.352603,1.26063 -0.135686,0.40347 -0.352148,0.79459 -0.455244,1.20181 -0.09345,0.45886 -0.09745,0.92102 -0.103824,1.382 -0.07439,0.48869 -0.262261,0.96921 -0.357672,1.45705 -0.08053,0.47508 -0.08884,0.95238 -0.09572,1.429 0.03246,0.44063 -0.112133,0.89272 0.136798,1.31948 0.359101,0.2845 1.054251,0.43492 1.656378,0.54032 0.456885,0.0357 1.009417,0.15601 1.46427,0.0505 0.192839,-0.0447 0.343485,-0.12915 0.522476,-0.18781 -10.3659804,3.10642 -5.638349,2.25949 -4.590256,1.01427 0.206422,-0.3945 0.272207,-0.80174 0.45089,-1.20068 0.192878,-0.42272 0.236823,-0.85752 0.26746,-1.2903 0.02411,-0.47653 0.02095,-0.9533 0.0203,-1.42995 0.0217,-0.29386 -0.08413,-0.82564 0.512226,-1.00935 2.022031,-0.62291 4.083006,-1.2098 6.12451,-1.81469 0.296404,-0.11675 0.679544,-0.11777 1.008043,-0.18501 0.332084,-0.0679 0.610364,-0.1607 0.960343,-0.21568 0.124056,-0.0133 0.25262,-0.0179 0.372227,-0.0398 0.108374,-0.0198 0.203276,-0.0562 0.304914,-0.0843 0.108461,-0.0228 0.426509,-0.0992 0.325433,-0.0684 -9.50143,2.9016 -6.953332,2.09086 -4.955521,1.48099 2.18198,-0.88237 4.908984,-1.5738 7.163365,-2.23975 1.843853,-0.54468 -3.666106,1.10953 -5.499161,1.6643 15.642688,-4.7727 1.056243,-0.32164 0.563151,-0.17352 -0.09559,0.0288 0.175627,-0.07 0.265156,-0.10375 0.274696,-0.10355 0.524248,-0.21715 0.788562,-0.32831 0.603611,-0.22492 1.17496,-0.47158 1.761256,-0.70843 2.500009,-0.8781 5.039973,-1.56676 7.675558,-2.22252 0.113464,-0.0192 0.233208,-0.0301 0.340395,-0.0575 0.899555,-0.23052 -0.368264,0.0244 0.577778,-0.1786 0.346601,-0.0744 0.670292,-0.0921 1.001585,-0.18801 0.315931,-0.10699 0.706307,-0.0996 1.047336,-0.16029 0.337885,-0.0601 0.636043,-0.15074 0.987196,-0.20204 0.818206,-0.0934 1.659181,-0.0997 2.492562,-0.10794 0.906688,-0.005 1.813454,-0.003 2.720169,-0.002 0.910476,0.002 1.820953,0.002 2.731433,0.002 0.909449,1.6e-4 1.818899,1.3e-4 2.728346,1.3e-4 0.454661,0 0.909323,0 1.363981,-10e-6 0,0 -5.435829,2.0877 -5.435829,2.0877 l 0,0 c -0.454664,0 -0.909328,0 -1.363993,0 -0.90951,-2e-5 -1.819023,-3e-5 -2.728536,-3.4e-4 -0.910603,-3.7e-4 -1.821207,-6.3e-4 -2.73181,-0.002 -0.903041,-6.3e-4 -1.806411,-0.003 -2.709089,0.0127 -0.807562,0.0203 -1.62476,0.0468 -2.391912,0.19414 -0.665325,0.13426 -1.3527,0.23018 -2.001731,0.38714 -0.6641,0.11073 -1.263675,0.29077 -1.897873,0.43979 -2.271368,0.61284 -6.448205,1.35741 3.883509,-1.28566 -0.679676,0.16403 -1.136947,0.48092 -1.796007,0.66437 -0.266434,0.11411 -0.506362,0.23507 -0.76308,0.35103 -2.239246,1.01146 -13.425187,3.99016 -0.815542,0.29583 -19.40491,5.90881 4.730959,-1.49398 -1.693592,0.53369 -0.303391,0.168 -0.146529,0.10547 -0.523502,0.21895 -2.959131,0.89074 -4.435093,1.57848 -7.1007,2.01299 -0.647365,0.1454 -1.31016,0.26479 -1.96084,0.4064 1.822005,-0.5607 3.65829,-1.10863 5.466008,-1.6821 0.09237,-0.0293 -0.211919,0.0241 -0.310814,0.0467 -0.50526,0.11522 -0.524298,0.39428 -0.499202,0.64843 0.0013,0.47964 0.0048,0.95932 -0.0083,1.43893 -0.01859,0.45081 -0.04101,0.90399 -0.197935,1.34853 -0.167494,0.41151 -0.36467,0.8101 -0.417089,1.23279 -0.747733,1.57613 -4.288411,2.00075 -6.788922,2.72219 -0.7598882,0.14202 -1.5629121,0.0352 -2.3037356,-0.10176 -0.7695787,-0.18236 -1.5484483,-0.39447 -1.9550732,-0.80522 -0.3216921,-0.46281 -0.23247,-0.94105 -0.2319989,-1.42782 0.00351,-0.48569 0.00717,-0.97185 0.070015,-1.45663 0.074931,-0.4804 0.2070371,-0.95597 0.3831933,-1.429 0.00219,-0.47127 0.00161,-0.94312 0.063798,-1.41349 0.069416,-0.40847 0.1817197,-0.8137 0.4578798,-1.19962 0.067953,-0.41586 0.1905031,-0.82579 0.3919211,-1.22991 -4.4e-6,-0.48069 -8.8e-6,-0.96137 -2.19e-5,-1.44206 -7.4e-6,-0.48069 -3.08e-5,-0.96139 9.94e-5,-1.44208 1.844e-4,-0.48076 4.755e-4,-0.96151 0.00161,-1.44226 0.00123,-0.48033 0.00395,-0.96065 4.827e-4,-1.44097 -0.00673,-0.47514 -0.014044,-0.9512 -0.1047159,-1.42439 -0.1062081,-0.47084 -0.3311996,-0.93012 -0.4192104,-1.40067 -0.076701,-0.41473 -0.2328254,-0.81912 -0.4309109,-1.22236 -0.053675,-0.42097 -0.152748,-0.83846 -0.3445429,-1.24886 -0.1419034,-0.47118 -0.045087,-0.95185 -0.050237,-1.42752 0.030575,-0.43945 0.072137,-0.88142 0.2669656,-1.31077 0.2010742,-0.41869 0.2239616,-0.83808 0.3441479,-1.26523 0.170701,-0.3721 0.5170419,-0.68677 0.8255442,-1.02865 0.2098532,-0.15059 0.2953039,-0.32351 0.5120211,-0.47084 1.6745171,-1.13842 2.2125986,-1.09696 6.4554206,-2.15321 0.621446,-0.16739 1.291693,-0.29693 1.994217,-0.31253 0.789375,0.0137 1.496266,0.17654 1.985875,0.51395 0.454034,0.34688 0.814133,0.69911 0.863271,1.13158 4.79e-4,0.48037 0.0026,0.9608 -0.01662,1.44109 -0.02491,0.44829 -0.05919,0.89809 -0.209823,1.34048 -0.129059,0.35446 -0.298067,0.68579 0.02409,1.03103 0.367545,0.29174 1.046883,0.35163 1.64165,0.4595 0.740568,0.15623 1.477299,0.31582 2.230003,0.45576 0.667319,0.13458 1.347838,0.25931 1.975363,0.44077 0.60941,0.15651 1.219058,0.31189 1.832205,0.46417 0.63915,0.14666 1.291799,0.27977 1.91051,0.44902 0.59182,0.1866 1.231802,0.2979 1.871221,0.42947 0.627327,0.15692 1.285513,0.27911 1.955596,0.3743 0.691644,0.12372 1.389093,0.22746 2.10284,0.31096 0.770465,0.0634 1.543383,0.11629 2.308462,0.19745 0.881159,0.0244 1.764722,-0.002 2.646522,0.0174 0.846487,0.0189 1.71555,0.0383 2.488915,0.24159 0.681866,0.22422 1.25985,0.51765 1.376622,0.95796 0.05306,0.41977 0.1508,0.83616 0.341626,1.24544 0.14281,0.47461 0.04,0.95856 0.06937,1.43776 -0.0014,0.5211 -0.0041,1.0422 -0.0095,1.5633 -0.0053,0.60757 -0.02029,1.21558 0.0231,1.82285 0,0 -6.01212,1.61931 -6.01212,1.61931 z"
       inkscape:connector-curvature="0" />
    <path
       style="fill:#1a1a1a"
       d="m 11.027459,958.20482 c -1.662504,1.20076 0.134486,2.79923 -0.312584,4.17595 0.246013,3.81544 -0.04095,7.6475 -0.497293,11.4313 1.071479,1.5967 4.264229,0.48433 6.010129,-0.0976 6.853056,-1.7957 12.958896,-4.88514 21.014146,-4.85944 3.136202,-0.55926 1.443678,-2.6985 1.790251,-4.02573 0.2326,-1.64612 -2.679029,-2.73222 -5.569673,-2.65128 -6.802594,-0.13726 -12.74921,-2.09137 -18.911306,-3.40986 -0.826368,-0.57837 -2.115642,-1.13958 -3.52367,-0.5633 z"
       id="path3013"
       inkscape:connector-curvature="0" />
    <path
       style="fill:#000000"
       d="m 11.467915,954.75719 c -1.7073948,1.65988 -0.828761,6.21853 2.216501,5.11117 2.432906,-1.43674 1.190577,-7.2151 -2.216501,-5.11117 z"
       id="path3015"
       inkscape:connector-curvature="0" />
    <path
       style="fill:#1a1a1a"
       d="m 202.27401,953.33996 c -0.82046,1.3944 -1.03269,3.27936 -2.81656,4.01277 -4.12247,1.79474 -8.87079,0.88584 -13.26704,1.46002 -5.24803,0.6103 -10.49895,1.33697 -15.82135,1.3131 -9.13531,0.32035 -18.29522,-0.11774 -27.25822,-1.76544 -3.71174,-0.82798 -7.51256,-0.87847 -11.28969,-0.49135 -4.35728,0.13804 -8.7172,-0.31308 -12.99055,-0.85995 -2.15949,0.41208 -1.0696,3.1754 -1.48186,4.66377 -0.35854,4.86801 -1.09472,9.70541 -0.85385,14.61425 0.29082,2.18934 -0.53657,4.82481 0.96151,6.70326 1.5867,1.17882 3.92079,1.18151 5.82109,1.14379 1.68238,-0.86239 0.65482,-3.17332 0.99696,-4.68823 0.13443,-1.64098 -0.2729,-4.05348 1.87448,-4.66475 2.02017,-0.92565 3.96103,-2.26902 6.32043,-1.69001 7.24325,0.38473 14.63255,0.41213 21.73843,1.59818 0.69849,5.81769 -0.27924,11.84761 1.34029,17.54784 0.53566,2.10497 2.89101,2.8572 4.94357,2.56195 2.59778,0.24142 1.84635,-2.68942 1.92304,-4.21479 0.12631,-3.99334 -0.26349,-8.09173 0.3982,-12.02915 1.09803,-2.00779 3.4938,-2.75283 5.73726,-2.6627 11.03015,-0.67604 22.0719,-1.23886 33.13141,-1.071 1.67455,-0.27281 4.78541,0.86573 5.14442,-1.42494 0.21029,-4.5807 2.61467,-8.72818 3.07219,-13.24317 -0.199,-1.91696 0.57037,-4.39102 -1.06835,-5.87684 -1.89261,-1.00913 -4.48144,-1.3327 -6.55581,-0.93661 z"
       id="path3017"
       inkscape:connector-curvature="0" />
    <path
       style="fill:#666666"
       d="m 283.59456,953.42061 c -6.66515,0.34999 -12.92773,1.93122 -19.42457,2.83764 -7.58934,1.13851 -14.94115,2.58704 -22.57357,3.50948 -6.11762,0.82039 -12.01825,2.19503 -17.81998,3.59442 -2.38966,0.13179 -4.81623,-1.08156 -7.17738,-0.53455 -1.24023,0.58398 -0.64377,1.73696 -1.60964,2.47558 -0.74028,1.38269 -2.88735,2.52817 -2.79006,4.062 1.03412,1.29186 3.18651,0.13406 4.34141,-0.42396 2.60816,-1.02025 5.62674,-2.45633 8.82849,-1.70199 10.05611,1.94092 20.3355,3.55535 30.36068,5.52378 9.22157,1.8219 17.61274,5.30447 27.30898,6.15899 2.14346,0.30188 4.40974,0.74515 6.36936,-0.15551 6.70092,-1.79616 13.53936,-3.40756 19.87025,-5.69721 5.19562,-1.62444 10.65433,-2.94759 16.37032,-3.56278 1.65223,-0.41247 0.94338,-2.01969 -0.72841,-1.98463 -5.08823,-1.28257 -9.37147,-3.59918 -14.16588,-5.27586 -5.22212,-1.89467 -9.89625,-4.29395 -14.92249,-6.36153 -3.83945,-1.13872 -7.87203,-2.54172 -12.23751,-2.46387 z"
       id="path3021"
       inkscape:connector-curvature="0" />
    <path
       style="fill:#000000"
       id="path3023"
       d="m 169.71712,985.64911 c 0.71469,-0.11897 1.40613,-0.32886 2.12829,-0.43172 0.26145,-0.1271 0.56918,-0.14587 0.83899,-0.24482 1.23978,-0.45456 5.43543,-2.89632 -3.31823,1.81349 2.60296,-1.46526 8.38197,-4.52624 0.58711,-0.32729 -0.0659,0.0355 0.12631,-0.0794 0.19068,-0.1175 0.49843,-0.29477 -0.0822,0.063 0.45474,-0.27196 0.43354,-0.29458 0.90823,-0.5485 1.23861,-0.95215 0.27182,-0.45413 0.27847,-0.98609 0.29754,-1.49405 0.0171,-0.57139 -0.028,-1.14227 0.0656,-1.70871 0.1228,-0.50979 0.1823,-1.02788 0.21558,-1.54881 -0.0219,-0.54023 0.0862,-1.06185 0.19373,-1.58823 0.0569,-0.3374 0.0315,-0.16703 0.0756,-0.51115 0,0 4.11886,-1.9343 4.11886,-1.9343 l 0,0 c -0.0325,0.36168 -0.0136,0.18236 -0.058,0.53801 -0.0874,0.51605 -0.26862,1.01276 -0.22489,1.54207 -0.0221,0.53649 -0.0536,1.07518 -0.1809,1.6003 -0.13266,0.54623 -0.11955,1.08835 -0.107,1.6484 -0.008,0.56418 -0.011,1.13874 -0.1904,1.68254 -0.23146,0.51878 -0.65809,0.84877 -1.16864,1.12603 -1.3823,1.03808 -3.70223,2.08603 -4.75949,2.67625 -1.24174,0.69316 2.49346,-1.37026 3.74215,-2.05216 0.0657,-0.036 -0.12874,0.0761 -0.19319,0.11406 -1.89915,1.0325 -3.40397,2.25327 -5.48088,2.61704 -0.72146,0.13287 -1.42392,0.34175 -2.1517,0.44543 0,0 3.68567,-2.62074 3.68567,-2.62074 z"
       inkscape:connector-curvature="0" />
  </g>
</svg>
