<?xml version="1.0" encoding="UTF-8" standalone="no"?>
<!-- Created with Inkscape (http://www.inkscape.org/) -->

<svg
   xmlns:dc="http://purl.org/dc/elements/1.1/"
   xmlns:cc="http://creativecommons.org/ns#"
   xmlns:rdf="http://www.w3.org/1999/02/22-rdf-syntax-ns#"
   xmlns:svg="http://www.w3.org/2000/svg"
   xmlns="http://www.w3.org/2000/svg"
   xmlns:sodipodi="http://sodipodi.sourceforge.net/DTD/sodipodi-0.dtd"
   xmlns:inkscape="http://www.inkscape.org/namespaces/inkscape"
   width="176"
   height="256"
   id="svg3014"
   version="1.1"
   inkscape:version="0.48.5 r10040"
   sodipodi:docname="rpg711.svg"
   inkscape:export-filename="C:\Users\narfman0\Desktop\rpg711.png"
   inkscape:export-xdpi="90"
   inkscape:export-ydpi="90">
  <defs
     id="defs3016" />
  <sodipodi:namedview
     id="base"
     pagecolor="#ffffff"
     bordercolor="#666666"
     borderopacity="1.0"
     inkscape:pageopacity="0.0"
     inkscape:pageshadow="2"
     inkscape:zoom="2.0246816"
     inkscape:cx="148.31962"
     inkscape:cy="115.92287"
     inkscape:document-units="px"
     inkscape:current-layer="layer1"
     showgrid="false"
     inkscape:window-width="1208"
     inkscape:window-height="901"
     inkscape:window-x="459"
     inkscape:window-y="83"
     inkscape:window-maximized="0" />
  <metadata
     id="metadata3019">
    <rdf:RDF>
      <cc:Work
         rdf:about="">
        <dc:format>image/svg+xml</dc:format>
        <dc:type
           rdf:resource="http://purl.org/dc/dcmitype/StillImage" />
        <dc:title></dc:title>
      </cc:Work>
    </rdf:RDF>
  </metadata>
  <g
     inkscape:label="Layer 1"
     inkscape:groupmode="layer"
     id="layer1"
     transform="translate(0,-796.36218)">
    <g
       id="g3024"
       transform="translate(-138.29335,-12.841525)">
      <path
         inkscape:connector-curvature="0"
         id="path3015"
         d="m 155.68876,841.42102 c -2.36413,2.37464 -1.14754,8.89629 3.06905,7.31209 3.36871,-2.05541 1.64853,-10.322 -3.06905,-7.31209 z"
         style="fill:#000000" />
      <path
         inkscape:connector-curvature="0"
         id="path3013"
         d="m 155.07889,846.35323 c -2.30198,1.71782 0.18621,4.00461 -0.43282,5.97416 0.34065,5.45841 -0.0568,10.9406 -0.68857,16.35374 1.48361,2.28426 5.90443,0.69289 8.32187,-0.13963 9.48903,-2.56894 17.94343,-6.98873 29.09707,-6.95196 4.34251,-0.80009 1.99896,-3.86051 2.47885,-5.75925 0.32207,-2.35496 -3.70949,-3.90875 -7.71201,-3.79295 -9.41915,-0.19637 -17.65308,-2.99194 -26.18537,-4.87819 -1.14422,-0.82742 -2.9294,-1.63029 -4.87902,-0.80586 z"
         style="fill:#1a1a1a" />
      <path
         inkscape:connector-curvature="0"
         d="m 191.54553,863.08199 c 0.0595,-0.87471 0.0395,-1.75043 0.032,-2.62558 -0.007,-0.74303 -0.0111,-1.48608 -0.0138,-2.22912 -0.0413,-0.6628 0.0759,-1.33098 -0.0546,-1.99107 -0.24108,-0.59807 -0.40384,-1.20111 -0.49382,-1.81122 -0.0773,-0.46733 -0.70099,-0.74728 -1.45479,-0.91959 -1.0309,-0.15743 -2.11481,-0.15383 -3.17701,-0.1631 -1.24272,-0.0336 -2.50409,0.0697 -3.72843,-0.0634 -1.06146,-0.18326 -2.19684,-0.14919 -3.25463,-0.32025 -1.02128,-0.10344 -1.96522,-0.31909 -2.95694,-0.47595 -0.97378,-0.12089 -1.88401,-0.35976 -2.784,-0.59117 -0.97453,-0.11545 -1.79603,-0.38142 -2.6417,-0.65375 -0.86614,-0.20459 -1.78544,-0.35978 -2.60894,-0.61395 -0.84813,-0.22821 -1.74943,-0.4104 -2.55724,-0.67976 -0.86972,-0.19543 -1.73737,-0.40817 -2.64034,-0.55956 -1.03806,-0.20968 -2.03972,-0.47157 -3.09011,-0.66296 -1.11813,-0.1206 -1.99742,-0.40601 -2.6078,-0.93042 -0.53625,-0.58035 -0.54477,-1.19202 -0.35291,-1.81649 0.23093,-0.61243 0.31581,-1.23552 0.36784,-1.8588 0.0435,-0.6816 0.0415,-1.36374 0.0422,-2.04567 0.003,-0.52616 -0.43432,-0.9241 -0.95868,-1.33839 -0.59829,-0.38597 -1.37943,-0.38727 -2.21082,-0.29125 -0.90827,0.10043 -1.71549,0.37817 -2.5373,0.60385 14.31416,-4.41249 7.91929,-3.16603 6.19433,-1.48718 -0.46958,0.43218 -0.9266,0.87774 -1.25789,1.34764 -0.33071,0.57734 -0.29651,1.18665 -0.51182,1.77606 -0.28058,0.58934 -0.39155,1.19354 -0.45653,1.79953 -0.0158,0.65115 -0.12697,1.30836 9e-5,1.95732 0.24175,0.59957 0.40651,1.20399 0.49755,1.81563 0.22819,0.57588 0.46199,1.14704 0.58602,1.73329 0.0915,0.67316 0.39294,1.32957 0.55979,1.99782 0.15502,0.69352 0.17878,1.39273 0.19531,2.09048 0.01,0.68887 0.006,1.37778 0.004,2.06667 -0.001,0.6876 -0.003,1.37521 -0.003,2.0628 -2.7e-4,0.68767 -2.5e-4,1.3753 -2.5e-4,2.06297 2e-5,0.68766 3e-5,1.37535 3e-5,2.06301 -0.0677,0.60808 -0.35298,1.19904 -0.48822,1.80347 -0.18788,0.57721 -0.4876,1.13675 -0.63036,1.71932 -0.12933,0.65645 -0.135,1.31762 -0.14375,1.97711 -0.10302,0.69912 -0.36314,1.38656 -0.49525,2.08447 -0.11146,0.67965 -0.12295,1.36248 -0.13251,2.04434 0.045,0.63037 -0.15527,1.27714 0.18942,1.88766 0.49723,0.40701 1.45976,0.6222 2.29348,0.77299 0.63263,0.0511 1.39768,0.22319 2.02749,0.0723 0.26701,-0.0639 0.47561,-0.18477 0.72345,-0.26869 -14.35317,4.44408 -7.8071,3.23245 -6.35587,1.45103 0.28583,-0.56438 0.37691,-1.14698 0.62432,-1.71771 0.26707,-0.60474 0.32793,-1.22677 0.37034,-1.84591 0.0334,-0.68173 0.0289,-1.3638 0.0281,-2.0457 0.03,-0.4204 -0.11645,-1.18117 0.70925,-1.44399 2.79979,-0.89114 5.65351,-1.73075 8.48025,-2.59612 0.41041,-0.16702 0.94092,-0.16848 1.39578,-0.26467 0.45982,-0.0971 0.84514,-0.2299 1.32974,-0.30856 0.17176,-0.019 0.34979,-0.0256 0.51539,-0.0569 0.15007,-0.0283 0.28147,-0.0804 0.4222,-0.1206 0.15018,-0.0326 0.59057,-0.14191 0.45061,-0.0978 -13.15608,4.15106 -9.62787,2.99121 -6.86162,2.11872 3.02126,-1.26233 6.79718,-2.2515 9.91869,-3.20421 2.55308,-0.77923 -5.07624,1.58731 -7.61437,2.38096 21.65952,-6.82787 1.46253,-0.46014 0.77976,-0.24823 -0.13237,0.0412 0.24319,-0.10015 0.36715,-0.14843 0.38036,-0.14814 0.7259,-0.31066 1.09188,-0.46968 0.83578,-0.32178 1.62689,-0.67465 2.43871,-1.01349 3.46162,-1.25622 6.97855,-2.24143 10.6279,-3.17956 0.1571,-0.0275 0.3229,-0.0431 0.47132,-0.0823 1.24556,-0.32979 -0.50991,0.0349 0.80001,-0.25551 0.47992,-0.10644 0.92812,-0.13176 1.38683,-0.26897 0.43745,-0.15306 0.97799,-0.14249 1.45019,-0.22931 0.46785,-0.086 0.88069,-0.21565 1.36692,-0.28904 1.13292,-0.13362 2.29737,-0.14263 3.4513,-0.15442 1.25544,-0.007 2.51098,-0.004 3.76646,-0.003 1.26068,0.003 2.52137,0.003 3.78206,0.003 1.25926,2.3e-4 2.51852,1.8e-4 3.77778,1.8e-4 0.62954,0 1.25908,0 1.88863,-10e-6 0,0 -7.52668,2.98669 -7.52668,2.98669 l 0,0 c -0.62955,0 -1.2591,0 -1.88865,0 -1.25935,-3e-5 -2.51869,-5e-5 -3.77804,-4.9e-4 -1.26085,-5.3e-4 -2.52172,-9e-4 -3.78257,-0.003 -1.25039,-9e-4 -2.50123,-0.004 -3.75112,0.0182 -1.11818,0.029 -2.24971,0.067 -3.31194,0.27774 -0.92124,0.19207 -1.87301,0.32929 -2.77168,0.55384 -0.91954,0.15841 -1.74974,0.41598 -2.62788,0.62917 -3.14502,0.87674 -8.92845,1.94193 5.37727,-1.83928 -0.9411,0.23466 -1.57426,0.68801 -2.48682,0.95046 -0.36892,0.16324 -0.70114,0.33629 -1.05659,0.50218 -3.10056,1.44701 -18.58908,5.70837 -1.12925,0.42322 -26.86884,8.45321 6.55069,-2.1373 -2.34501,0.7635 -0.42009,0.24035 -0.20289,0.15089 -0.72486,0.31324 -4.09734,1.2743 -6.14101,2.25819 -9.83192,2.8798 -0.89638,0.20801 -1.81411,0.37881 -2.71507,0.5814 2.52282,-0.80214 5.06543,-1.58602 7.56847,-2.40643 0.12794,-0.0419 -0.29343,0.0345 -0.43038,0.0668 -0.6996,0.16484 -0.72595,0.56406 -0.69121,0.92765 0.001,0.68618 0.007,1.37241 -0.0111,2.05855 -0.0257,0.64493 -0.0568,1.29326 -0.27406,1.92922 -0.23193,0.58871 -0.50494,1.15894 -0.57752,1.76364 -1.03535,2.25483 -5.93791,2.8623 -9.40022,3.8944 -1.05218,0.20317 -2.16408,0.0503 -3.18985,-0.14558 -1.0656,-0.26089 -2.14405,-0.56433 -2.70708,-1.15196 -0.44544,-0.6621 -0.32188,-1.34627 -0.32123,-2.04265 0.005,-0.69484 0.01,-1.39034 0.0969,-2.08387 0.10371,-0.68727 0.28667,-1.36762 0.53059,-2.04435 0.003,-0.6742 0.003,-1.34923 0.0883,-2.02215 0.0961,-0.58436 0.25162,-1.16409 0.634,-1.71619 0.0942,-0.59493 0.26379,-1.18138 0.54267,-1.75952 0,-0.68768 0,-1.37535 -3e-5,-2.06303 0,-0.68768 -4e-5,-1.37537 1.4e-4,-2.06305 2.6e-4,-0.68778 6.7e-4,-1.37555 0.003,-2.06331 0.001,-0.68717 0.005,-1.37432 6.8e-4,-2.06147 -0.01,-0.67974 -0.0194,-1.3608 -0.145,-2.03775 -0.14706,-0.67359 -0.45859,-1.33064 -0.58046,-2.00381 -0.1062,-0.59332 -0.32238,-1.17184 -0.59665,-1.74872 -0.0744,-0.60225 -0.21151,-1.19951 -0.47708,-1.78664 -0.19648,-0.67407 -0.0624,-1.36172 -0.0695,-2.04222 0.0424,-0.62868 0.0998,-1.26097 0.36964,-1.8752 0.27843,-0.59899 0.31012,-1.19897 0.47653,-1.81005 0.23636,-0.53233 0.71591,-0.9825 1.14309,-1.4716 0.29057,-0.21544 0.40888,-0.46282 0.70896,-0.67359 2.3186,-1.62864 3.06366,-1.56932 8.93845,-3.08041 0.86047,-0.23947 1.78852,-0.42479 2.76126,-0.4471 1.09301,0.0196 2.0718,0.25256 2.74973,0.73526 0.62867,0.49625 1.12728,1.00015 1.19532,1.61885 6.7e-4,0.68722 0.004,1.37453 -0.023,2.06164 -0.0345,0.64133 -0.082,1.28481 -0.29052,1.9177 -0.1787,0.5071 -0.41272,0.9811 0.0334,1.475 0.50891,0.41737 1.44955,0.50305 2.27309,0.65737 1.02543,0.2235 2.04554,0.45182 3.08775,0.65201 0.924,0.19254 1.86628,0.37098 2.73517,0.63058 0.84381,0.2239 1.68796,0.44619 2.53695,0.66404 0.885,0.20982 1.78868,0.40024 2.64538,0.64237 0.81945,0.26696 1.7056,0.42618 2.59096,0.61441 0.86863,0.22449 1.77998,0.3993 2.70781,0.53548 0.95767,0.17699 1.92339,0.3254 2.91168,0.44486 1.06681,0.0907 2.13703,0.16636 3.19639,0.28247 1.22009,0.0349 2.4435,-0.003 3.66448,0.0249 1.17209,0.027 2.37542,0.0548 3.44625,0.34562 0.94414,0.32077 1.74444,0.74055 1.90614,1.37046 0.0735,0.60053 0.2088,1.19622 0.47302,1.78174 0.19774,0.67899 0.0554,1.37133 0.0961,2.05688 -0.001,0.74549 -0.006,1.49098 -0.0139,2.23647 -0.007,0.8692 -0.0281,1.73902 0.032,2.60779 0,0 -8.32463,2.3166 -8.32463,2.3166 z"
         id="path3011"
         style="fill:#000000" />
    </g>
    <path
       style="fill:#1a1a1a;fill-opacity:1;stroke:none"
       d="m 47.705357,848.98846 c -1.18884,8.35754 -0.27308,17.017 -0.82051,25.4893 -0.90291,49.10622 -2.62672,98.20637 -3.07642,147.31584 2.90256,2.6865 9.82041,0.9073 14.32909,1.7434 16.0271,0.4873 32.25315,1.0359 48.192123,0.5735 2.28677,-2.4884 -0.39712,-6.2749 0.1607,-9.2928 -3.03712,-53.10809 -3.7709,-106.26378 -5.49183,-159.39366 0.49848,-2.60288 -1.626023,-5.39884 -6.029723,-4.84921 -15.5233,-0.70035 -31.21916,-1.75798 -46.68063,-1.73982 l -0.58277,0.15345 z"
       id="path3226"
       inkscape:connector-curvature="0" />
    <path
       style="fill:#000000"
       id="path2989"
       d="m 136.65098,857.91934 c -1.30807,0.0329 -2.61671,0.0287 -3.92508,0.0279 -1.14887,0.0361 -2.25574,0.38963 -3.40652,0.51471 -1.2511,0.1093 -2.50835,0.11388 -3.76342,0.12117 -1.3035,0.004 -2.60702,3e-5 -3.91054,-10e-4 -1.30463,-10e-4 -2.60928,-10e-4 -3.91392,-0.004 -0.61145,0.0438 -1.26118,-0.12189 -1.84585,0.13176 -0.14982,0.0652 -0.54455,0.35598 -0.40147,0.27769 7.82358,-4.28063 10.28257,-6.29819 7.61497,-4.14214 -0.60485,0.92616 -0.55355,2.09216 -0.57818,3.1529 0.0308,6.46175 2.15889,150.53447 2.15889,156.82097 -0.85683,7.2987 -18.05995,11.0139 -21.50936,7.0972 -0.59702,-0.9691 -0.89185,-2.0936 -1.19225,-3.179 -2.681553,-45.39315 -3.826923,-108.74867 -4.316423,-160.04514 0.0282,-1.12972 0.0532,-1.66835 -1.14275,-1.93156 -1.16208,-0.20022 -2.34714,-0.0252 -3.50007,-0.25183 -1.11663,-0.28312 -2.26307,-0.38356 -3.41096,-0.44319 -1.27166,-0.0498 -2.54467,-0.0469 -3.81713,-0.0476 -1.34939,0.12303 -2.63936,-0.13119 -3.9592,-0.34881 -1.2818,-0.20245 -2.58068,-0.2463 -3.8763,-0.27415 -1.30076,-0.019 -2.60172,-0.0143 -3.90257,-0.0143 -1.34898,0.12418 -2.63818,-0.13118 -3.95739,-0.34927 -1.28125,-0.2029 -2.57966,-0.24679 -3.87484,-0.2747 -1.18884,0.0584 -2.51827,-0.31396 -3.54188,0.39693 2.64333,-1.46574 5.27433,-2.9529 7.92999,-4.39725 0.1195,-0.0651 -0.22711,0.15409 -0.3155,0.25589 -0.4474,0.51563 -0.46936,1.29908 -0.53258,1.93296 -0.0742,1.25605 -0.0496,2.51524 -0.0406,3.77263 0.0584,1.22505 0.0168,2.42565 -0.2263,3.62835 -0.25352,1.12732 -0.32894,2.27913 -0.37689,3.42901 0.003,1.18694 0.0589,2.33154 -0.77336,3.26948 -9.23257,5.55077 -6.08114,5.02207 -11.89832,4.41963 -1.10451,-0.38588 -2.23876,-0.60569 -3.40298,-0.71419 -1.23801,-0.0376 -2.43337,-0.0631 -3.64,-0.33966 -1.27718,-0.21433 -2.16769,-0.19078 -3.09183,-1.18171 -0.64342,-0.9144 -1.03625,-1.89599 -1.25701,-2.97832 -0.1948,-1.23238 -0.1968,-2.48301 -0.20652,-3.72687 -0.003,-1.27695 10e-4,-2.55387 0.007,-3.83081 0.001,-1.27441 0.003,-2.54882 0.003,-3.82324 2.1e-4,-1.27366 1.2e-4,-2.54732 1.1e-4,-3.82096 0.10136,-1.29538 0.37493,-2.56823 0.51372,-3.86055 0.0324,-1.14945 0.37951,-2.25118 0.57469,-3.37748 0.17735,-1.18947 0.19571,-2.39364 0.21322,-3.5933 0.0111,-1.27085 0.008,-2.54178 0.007,-3.81262 -10e-4,-1.27466 -10e-4,-2.5493 -0.003,-3.82392 -0.0303,-1.22195 -0.0428,-2.42474 0.27694,-3.61238 1.93173,-3.77197 6.84238,-5.70397 11.05826,-5.8752 1.10534,0.30007 2.28387,0.32824 3.36537,0.69124 1.03971,0.38949 2.14532,0.4877 3.24647,0.55322 1.19072,-0.0684 2.31185,0.31199 3.4736,0.49368 1.19782,0.15618 2.40837,0.17 3.61481,0.1846 1.17085,0.026 2.3006,0.37981 3.46709,0.51318 1.22799,0.11344 2.46278,0.11917 3.69516,0.12689 1.29752,-0.0492 2.57081,-0.37286 3.86868,-0.50802 1.31186,-0.11631 2.63008,-0.12633 3.94631,-0.13505 1.30515,-0.004 2.6103,-7.3e-4 3.91546,8.8e-4 1.2829,0.32631 2.63877,0.32111 3.90521,0.6874 1.0943,0.4129 2.27968,0.38831 3.3993,0.67261 1.23833,0.33296 2.516,0.44723 3.793393,0.51407 1.17207,0.0639 2.29763,0.41994 3.46817,0.55479 1.15455,-0.0114 2.23067,0.38525 3.35735,0.57082 1.19313,0.16126 2.39999,0.17315 3.60224,0.18734 1.21875,-0.11487 2.37056,0.26243 3.55906,0.44703 1.19782,0.15706 2.40836,0.17228 3.61487,0.18779 1.29755,0.009 2.59515,0.007 3.89271,0.004 6.09512,1.20406 11.21001,-1.30389 20.96028,-1.43019 21.68902,-1.19575 17.46507,3.72189 18.56809,8.5805 1.46069,9.47193 2.16656,12.33837 1.93522,21.52107 -5.74764,-0.61602 -6.46809,0.36245 -9.87726,0.0468 -0.39247,-1.48075 -2.59786,3.47494 -2.25868,-5.25122 9.37453,-25.60764 -10.2755,-3.81774 -23.02096,-19.30265 22.39993,-4.7379 25.76675,0.83477 -3.68746,0.90538 -1.30394,4e-5 -5.19541,0.45666 -6.49937,0.45712 -1.30481,5.8e-4 -2.60962,10e-4 -3.91444,0.004 -1.3023,0.001 -2.60476,0.006 -3.90689,-0.0185 -1.24209,-0.032 -2.48838,-0.0778 -3.71386,-0.29522 -1.14828,-0.21145 -2.28151,-0.41911 -3.45946,-0.33892 -1.2418,-0.0309 -2.4894,-0.073 -3.712,-0.30711 -1.103643,-0.22827 -2.193563,-0.48393 -3.326573,-0.53609 -1.13805,-0.18095 -2.2551,-0.50047 -3.41593,-0.51049 -1.30706,-0.11044 -2.59949,-0.30681 -3.87443,-0.61433 -1.15449,-0.17298 -2.30597,-0.34525 -3.42267,-0.69432 -1.24338,-0.22159 -2.50231,-0.42276 -3.7619,-0.5128 -1.30272,-10e-4 -2.60548,-0.006 -3.90813,0.009 -1.29616,0.0212 -2.59488,0.0532 -3.88188,0.21834 -1.31092,0.17999 -2.61478,0.48322 -3.94745,0.40807 -1.26129,-0.0193 -2.5264,-0.0436 -3.77767,-0.21505 -1.12685,-0.17369 -2.23884,-0.48103 -3.38984,-0.43056 -1.24299,-0.0309 -2.49068,-0.0744 -3.71659,-0.29525 -1.1323,-0.2154 -2.25153,-0.43866 -3.41339,-0.42703 -1.14653,-0.11531 -2.27095,-0.32159 -3.36353,-0.69 -1.03558,-0.20248 -2.09521,-0.44381 -3.15282,-0.42439 -0.41937,0.0559 -0.71838,0.0771 -1.12165,0.2037 -0.1629,0.0512 -0.62129,0.27804 -0.47428,0.19239 13.05655,-7.60726 9.9497,-5.64297 7.06709,-4.08698 -0.61739,0.99951 -0.46503,2.17694 -0.46909,3.30089 2.6e-4,1.27436 6.5e-4,2.54872 10e-4,3.82308 10e-4,1.2739 0.007,2.54784 10e-4,3.82174 -0.01,1.23422 -0.0151,2.4711 -0.1421,3.70032 -0.14423,1.1321 -0.50522,2.21287 -0.61186,3.34152 -0.10897,1.2714 -0.30151,2.52944 -0.55379,3.78138 4e-5,1.27374 7e-5,2.54746 -7e-5,3.8212 -2.5e-4,1.27498 -5.8e-4,2.54995 -0.003,3.82493 -10e-4,1.27454 -0.008,2.54913 -0.008,3.82372 0.003,1.19107 -10e-4,2.38687 0.14541,3.5712 0.15318,0.90312 0.43753,1.71759 0.98578,2.47193 0.75484,0.61733 1.86448,0.4525 2.76728,0.73285 1.18593,0.20211 2.39415,0.11832 3.58637,0.28255 1.14913,0.16476 2.25302,0.48533 3.38779,0.7114 0.76443,0.0853 1.6481,0.29533 2.41732,0.16266 0.15653,-0.0269 0.58777,-0.22978 0.4513,-0.15026 -2.59575,1.51352 -5.22511,2.97135 -7.83764,4.45696 1.38759,-0.38874 1.17519,-1.2384 1.1815,-2.46289 0.0303,-1.19055 0.0696,-2.3863 0.29098,-3.56061 0.24065,-1.15737 0.47215,-2.27083 0.33449,-3.46583 -0.01,-1.27731 -0.0303,-2.55496 -10e-4,-3.83213 0.22527,-5.13123 2.25135,-4.49262 9.14013,-7.84689 1.23967,-0.19798 2.50334,-0.071 3.75404,-0.0677 1.32252,0.0532 2.64442,0.14482 3.94834,0.37887 1.2842,0.2081 2.56302,0.27638 3.86574,0.2205 1.30693,2e-5 2.6142,-0.004 3.92066,0.0375 1.32286,0.0529 2.64511,0.14465 3.94949,0.37807 1.28559,0.20771 2.56578,0.27509 3.86976,0.22229 1.28761,0.006 2.57654,0.009 3.86178,0.0934 1.16303,0.0959 2.30939,0.27701 3.455203,0.49158 1.21793,0.0777 2.46963,0.009 3.63709,0.41827 1.23715,0.60283 1.81899,1.5528 1.70523,2.92845 0,1.27366 1e-5,2.54731 4e-5,3.82099 2.23756,139.22226 11.38702,140.99616 7.99042,0.39132 1.65664,-4.18081 7.09479,-5.71822 11.28818,-5.59105 1.30479,4e-4 2.60956,10e-4 3.91435,0.004 1.30158,10e-4 2.60327,0.006 3.9048,-0.009 1.23671,-0.021 2.47757,-0.0465 3.70313,-0.22534 10.29218,-1.19204 -2.75774,1.52518 7.48005,1.54934 1.5729,0.004 3.14579,0.01 4.71868,0.0115 20.74012,2.17742 -6.55531,3.6829 -12.5944,3.55153 z"
       inkscape:connector-curvature="0"
       sodipodi:nodetypes="cccccccccccccccccccccccccccccccccccccccccccscccccccccccccccccccccccccccccccccccccccccccccccccccccccccccccccccccccccccccccccccccccccccccc" />
    <path
       style="fill:#1a1a1a"
       d="m 148.4498,830.62222 c -7.26664,0.8731 -14.53728,1.91268 -21.90689,1.87853 -12.64913,0.4583 -25.33232,-0.16844 -37.742873,-2.52566 -5.13943,-1.18451 -10.4022,-1.25675 -15.63217,-0.70293 -6.03327,0.19748 -12.0702,-0.44789 -17.98725,-1.23025 -2.99012,0.58952 -1.48102,4.54276 -2.05185,6.67204 -0.49645,6.96422 -1.51579,13.88466 -1.18228,20.9073 0.40269,3.13209 -0.74295,6.90242 1.33135,9.58975 2.19701,1.68644 5.42889,1.69028 8.06012,1.63632 2.3295,-1.23374 0.9067,-4.53978 1.38044,-6.70703 0.18613,-2.3476 -0.37787,-5.79895 2.59548,-6.67344 2.79721,-1.32425 5.48461,-3.24608 8.75153,-2.41775 10.0293,0.5504 20.26083,0.5896 30.099933,2.28638 2.78676,83.76643 -4.940973,171.63892 8.1614,162.56972 11.38265,19.9048 2.83738,-151.40628 3.75358,-157.0392 1.52038,-2.87236 4.83766,-3.93823 7.94405,-3.80928 15.2728,-0.96715 11.32919,-0.54845 26.64264,-0.30831 2.31865,-0.39028 8.02481,2.46237 8.52191,-0.81464 0.29118,-6.5532 -2.3242,-15.28408 -1.6907,-21.74327 -2.59296,-5.00765 -1.4905,-2.49629 -9.04842,-1.56828 z"
       id="path3017"
       inkscape:connector-curvature="0"
       sodipodi:nodetypes="cccccccccccccccccccc" />
    <path
       style="fill:#000000;fill-opacity:1;stroke:none"
       id="path3228"
       d="m 79.242167,867.90701 c -0.009,1.12062 -0.23337,2.2266 -0.34684,3.34021 -0.0414,0.93947 -0.34211,1.83682 -0.47392,2.76333 -0.0665,1.03803 -0.45162,2.00575 -0.74828,2.99012 -0.19093,0.83491 -0.25989,1.6822 -0.46369,2.51608 -0.18002,0.66197 -0.22305,1.34653 -0.25457,2.02833 -0.0326,0.99445 -0.25224,1.98506 -0.52514,2.93927 -0.99229,3.11172 -5.39293,1.70841 -4.40064,-1.40332 l 0,0 c 0.18085,-0.25062 0.28787,-1.38637 0.31213,-1.7576 0.0485,-0.98105 0.13082,-1.96343 0.38452,-2.91634 0.22872,-0.90704 0.23565,-1.85551 0.5289,-2.75248 0.23507,-0.76563 0.55487,-1.51171 0.59772,-2.32138 0.13057,-0.85874 0.38197,-1.69334 0.44822,-2.55846 0.0992,-0.9571 0.2843,-1.90982 0.32262,-2.86776 0,-3.26611 4.61897,-3.26611 4.61897,0 z"
       inkscape:connector-curvature="0" />
    <path
       style="fill:#000000;fill-opacity:1;stroke:none"
       id="path3230"
       d="m 86.632527,868.83081 c 0,1.05349 0,2.10699 0,3.16048 0,1.09305 0,2.1861 0,3.27915 0.0622,1.10662 -0.0593,2.19276 -0.24051,3.2818 -0.29495,0.87114 -0.49074,1.76678 -0.74479,2.64828 -0.19865,0.72004 -0.45167,1.42119 -0.67233,2.13442 -0.0683,0.30346 -0.0379,0.14748 -0.0897,0.46817 -0.58241,3.21376 -5.12735,2.39011 -4.54494,-0.82365 l 0,0 c 0.1351,-0.71014 0.0564,-0.35954 0.23537,-1.05197 0.22888,-0.70268 0.47151,-1.38966 0.66313,-2.10532 0.2812,-0.63298 0.23826,-1.41247 0.59702,-2.02835 0.14014,-0.84168 0.24579,-1.66448 0.17783,-2.52338 0,-1.09305 0,-2.1861 0,-3.27915 0,-1.05349 0,-2.10699 0,-3.16048 0,-3.26611 4.61897,-3.26611 4.61897,0 z"
       inkscape:connector-curvature="0" />
    <path
       style="fill:#000000;fill-opacity:1;stroke:none"
       id="path3232"
       d="m 93.109497,865.1446 c 0.32525,0.98106 0.54195,1.99202 0.82247,2.98633 0.25452,1.08561 0.57975,2.14363 0.77296,3.24375 0.0851,1.06782 0.32234,2.10969 0.4911,3.16536 0.15869,1.16449 0.19011,2.34064 0.20936,3.51412 0.0107,0.96485 0.007,1.92979 0.006,2.89468 -0.002,0.92249 -0.002,1.84498 -0.002,2.76747 -4e-5,0.15372 -7e-5,0.30744 -1.1e-4,0.46116 -7.9e-4,3.26611 -4.61977,3.26499 -4.61898,-10e-4 l 0,0 c 4e-5,-0.15392 8e-5,-0.30784 1.2e-4,-0.46176 3.4e-4,-0.92422 9.3e-4,-1.84843 0.002,-2.77265 0.001,-0.93768 0.005,-1.8754 -0.005,-2.81305 -0.0152,-0.95655 -0.0363,-1.91518 -0.15303,-2.86581 -0.16243,-1.03622 -0.40151,-2.05992 -0.48163,-3.10798 -0.15539,-0.94103 -0.46169,-1.83946 -0.66584,-2.77001 -0.31296,-1.10933 -0.56928,-2.23187 -0.9063,-3.33464 -0.64053,-3.20268 3.88874,-4.10854 4.52928,-0.90585 z"
       inkscape:connector-curvature="0" />
    <path
       style="fill:#000000;fill-opacity:1;stroke:none"
       id="path3234"
       d="m 61.191747,993.86771 c 0,1.0973 0,2.1946 0,3.292 0,1.1254 0,2.2509 0,3.37639 0,1.0366 0,2.0733 0,3.1099 0,0.9332 0,1.8664 0,2.7995 0,0.4612 0,0.9225 0,1.3837 0,3.2661 -4.61898,3.2661 -4.61898,0 l 0,0 c 0,-0.4612 0,-0.9225 0,-1.3837 0,-0.9331 0,-1.8663 0,-2.7995 0,-1.0366 0,-2.0733 0,-3.1099 0,-1.12549 0,-2.25099 0,-3.37639 0,-1.0974 0,-2.1947 0,-3.292 0,-3.26615 4.61898,-3.26615 4.61898,0 z"
       inkscape:connector-curvature="0" />
    <path
       style="fill:#000000;fill-opacity:1;stroke:none"
       id="path3236"
       d="m 69.867697,994.78251 c -0.14068,1.058 -0.43337,2.0856 -0.62771,3.1337 -0.0674,0.9158 -0.34274,1.792 -0.51518,2.68879 -0.2466,0.7921 -0.44377,1.5875 -0.53319,2.4122 -0.1706,0.7909 -0.3852,1.5631 -0.46777,2.3693 -0.0554,0.6658 -0.0607,1.3342 -0.0671,2.0018 -0.0322,3.266 -4.65091,3.2205 -4.61876,-0.045 l 0,0 c 0.008,-0.8189 0.0176,-1.639 0.0939,-2.4551 0.0911,-0.8095 0.21704,-1.6183 0.47064,-2.395 0.1116,-0.945 0.27705,-1.8838 0.59137,-2.78529 0.1781,-0.8825 0.43975,-1.7407 0.50644,-2.6435 0.20199,-1.0658 0.49088,-2.1116 0.6381,-3.1873 0.64053,-3.20275 5.16981,-2.2968 4.52927,0.9059 z"
       inkscape:connector-curvature="0" />
    <path
       style="fill:#000000;fill-opacity:1;stroke:none"
       id="path3238"
       d="m 78.281957,992.48201 c 0,1.0535 0,2.107 0,3.1605 0,0.9998 0,1.9997 0,2.9996 0,1.2918 0,2.58359 0,3.87539 0,1.2356 0,2.4711 0,3.7067 0,0.8404 0,1.6809 0,2.5214 0,3.2661 -4.61898,3.2661 -4.61898,0 l 0,0 c 0,-0.8405 0,-1.681 0,-2.5214 0,-1.2356 0,-2.4711 0,-3.7067 0,-1.2918 0,-2.58359 0,-3.87539 0,-0.9999 0,-1.9998 0,-2.9996 0,-1.0535 0,-2.107 0,-3.1605 0,-3.26615 4.61898,-3.26615 4.61898,0 z"
       inkscape:connector-curvature="0" />
    <path
       style="fill:#000000;fill-opacity:1;stroke:none"
       id="path3240"
       d="m 89.209307,915.3063 c 0.93864,0.17832 1.89129,0.25839 2.84386,0.31386 0.71809,-0.006 1.41961,0.16008 2.11841,0.30334 3.19956,0.65596 2.2719,5.18082 -0.92766,4.52486 l 0,0 c -0.48687,-0.0998 -0.9606,-0.24042 -1.46337,-0.21728 -1.16506,-0.0698 -2.32983,-0.17289 -3.4771,-0.3955 -3.20268,-0.64054 -2.29683,-5.16982 0.90586,-4.52928 z"
       inkscape:connector-curvature="0" />
    <path
       style="fill:#000000;fill-opacity:1;stroke:none"
       id="path3242"
       d="m 91.065867,923.05846 c 0.87452,0 1.74905,0 2.62357,0 3.26611,0 3.26611,4.61898 0,4.61898 l 0,0 c -0.87452,0 -1.74905,0 -2.62357,0 -3.26611,0 -3.26611,-4.61898 0,-4.61898 z"
       inkscape:connector-curvature="0" />
    <path
       style="fill:#000000;fill-opacity:1;stroke:none"
       id="path3256"
       d="m 59.656827,841.7645 c 1.13824,0.071 2.23173,0.38498 3.33281,0.65393 0.86,0.10904 1.67542,0.41171 2.52043,0.58742 0.78101,0.0595 1.52296,0.31856 2.28745,0.46649 0.86194,0.0721 1.70839,0.22541 2.55776,0.38623 0.61923,0.0983 0.26507,0.0293 1.05695,0.23341 3.14387,0.88518 1.89204,5.33128 -1.25183,4.4461 l 0,0 c -0.30928,-0.12065 -0.0942,-0.0484 -0.66595,-0.14146 -0.86897,-0.16512 -1.73022,-0.30262 -2.61065,-0.39658 -0.78892,-0.16303 -1.54844,-0.41029 -2.3545,-0.48054 -0.88481,-0.19702 -1.73991,-0.49061 -2.64068,-0.61524 -0.73982,-0.18231 -1.48448,-0.4036 -2.23179,-0.52079 -3.26611,0 -3.26611,-4.61897 0,-4.61897 z"
       inkscape:connector-curvature="0" />
    <path
       style="fill:#000000;fill-opacity:1;stroke:none"
       id="path3258"
       d="m 62.890117,835.75983 c 1.25658,-0.005 2.49975,0.23438 3.71487,0.53377 1.00927,0.2128 2.021,0.41626 3.03458,0.6099 0.98834,0.15433 1.97874,0.20312 2.95722,0.42059 0.80648,0.12901 1.58936,0.33529 2.37686,0.54835 0.64325,0.14831 1.30651,0.16583 1.96346,0.18651 1.62922,0.0889 2.7371,1.07904 3.53429,2.40391 0.40279,0.99651 0.66323,2.05457 0.8609,3.11095 0.08,0.67072 0.30071,1.31052 0.44121,1.97138 0.66433,3.19783 -3.85808,4.13734 -4.52242,0.93951 l 0,0 c -0.13912,-0.69723 -0.39081,-1.3704 -0.46255,-2.08069 -0.10202,-0.58067 -0.30646,-1.18716 -0.38126,-1.74619 0.0262,0.0151 0.10494,0.052 0.086,0.0284 -0.0427,-0.0532 -0.21521,-0.14637 -0.14708,-0.14245 0.29832,0.0172 0.27877,0.23166 0.5468,0.16753 0.0364,-0.009 -0.0709,-0.0239 -0.10629,-0.0359 -1.01813,-0.0341 -2.04215,-0.0887 -3.03251,-0.34793 -0.72335,-0.1996 -1.43235,-0.38554 -2.17826,-0.49869 -0.92206,-0.21551 -1.87859,-0.18628 -2.80718,-0.3892 -1.09307,-0.21068 -2.18472,-0.4278 -3.27259,-0.66213 -0.85269,-0.21176 -1.72387,-0.4042 -2.60609,-0.39872 -3.26611,0 -3.26611,-4.61898 0,-4.61898 z"
       inkscape:connector-curvature="0" />
    <path
       style="fill:#000000;fill-opacity:1;stroke:none"
       id="path3260"
       d="m 73.975657,832.06465 c 1.05349,0 2.10699,0 3.16048,0 1.11972,-0.0622 2.21902,0.0579 3.32124,0.24012 0.83273,0.14356 1.67694,0.18437 2.52002,0.20744 0.97286,0.10238 1.92628,0.31527 2.90069,0.40606 0.90475,-0.0103 1.77484,0.23042 2.6573,0.38844 0.33263,0.0553 0.66905,0.0774 1.00495,0.10084 3.25744,0.23774 2.92122,4.84447 -0.33623,4.60672 l 0,0 c -0.50162,-0.0377 -1.00377,-0.0756 -1.49976,-0.16396 -0.75834,-0.1407 -1.48777,-0.35614 -2.26736,-0.33417 -0.86994,-0.0852 -1.7333,-0.21329 -2.59027,-0.3868 -1.05177,-0.0306 -2.10427,-0.0886 -3.14299,-0.26749 -0.85623,-0.14165 -1.69424,-0.24593 -2.56759,-0.17822 -1.05349,0 -2.10699,0 -3.16048,0 -3.26611,0 -3.26611,-4.61898 0,-4.61898 z"
       inkscape:connector-curvature="0" />
    <path
       style="fill:#000000;fill-opacity:1;stroke:none"
       id="path3022"
       d="m 50.650027,867.60883 c -0.16811,1.50422 -0.65745,2.93946 -0.96874,4.41438 -0.15476,1.36564 -0.517,2.69315 -0.7457,4.04629 -0.32753,1.14727 -0.69095,2.26484 -0.82687,3.45251 -0.10734,1.21424 -0.10618,2.4347 -0.11146,3.65266 0.0308,1.55058 -0.34542,3.06755 -0.52734,4.60021 -0.13268,1.26828 -0.14968,2.54448 -0.16387,3.81839 -0.009,1.38407 -0.006,2.76819 -0.004,4.15228 0.002,1.39967 0.002,2.79934 0.003,4.199 0.16363,0.9637 -0.25266,2.78992 0.0521,3.6423 0.30671,1.27224 0.46049,2.56969 0.5593,3.87225 0.36099,1.10622 0.51816,2.27245 0.64556,3.4256 0.13241,1.47042 0.13871,2.94806 0.14628,4.42322 0.003,1.40663 -5.3e-4,2.81327 -0.002,4.2199 -0.10218,1.24827 0.19675,2.45128 0.38077,3.67736 0.22193,1.5379 0.27515,3.09188 0.30636,4.64314 0.0197,1.42281 0.0153,2.84582 0.0137,4.26873 -0.002,1.39778 -0.003,2.79555 -0.003,4.19333 -4.2e-4,1.39817 -4.1e-4,2.79634 -4.2e-4,4.19451 0,1.39859 2e-5,2.79718 3e-5,4.19576 0,1.39861 0,2.79722 10e-6,4.19582 0,1.39861 0,2.79721 0,4.19581 0,1.3986 0,2.7972 0,4.1958 -0.10352,1.233 0.0653,2.40903 0.26829,3.61612 0.41397,1.23261 0.072,2.91302 0.44106,4.09976 0.34204,1.30916 0.50436,2.64981 0.60578,3.99591 0.086,1.45183 0.0859,2.90686 0.0888,4.36067 2e-4,1.40301 -0.002,2.80602 -0.004,4.20903 -10e-4,1.39811 -10e-4,2.79622 -10e-4,4.19433 -8e-5,1.3985 -5e-5,2.797 -4e-5,4.1955 2e-5,1.39861 2e-5,2.79721 2e-5,4.19581 1e-5,1.3986 1e-5,2.7972 1e-5,4.1958 0,1.3986 0,2.7972 0,4.1958 0,1.3986 0,2.79719 0,4.19579 0,1.3986 0,2.7972 0,4.1958 0,1.3986 0,2.7972 0,4.1958 -0.061,0.7834 0.17525,1.5033 0.452,2.1819 0.0888,-0.1094 -0.30651,-0.432 -0.1662,-0.3991 0.0369,0.01 0.9092,0.7065 1.04579,0.7778 0.8457,0.5115 1.76905,0.795 2.69366,1.1191 1.17948,0.3245 2.34429,0.6921 3.51923,1.0357 1.18965,0.5485 2.47345,0.7482 3.72515,1.0847 1.09351,0.4053 2.25515,0.4886 3.38683,0.7277 0.98659,0.3225 2.00433,0.4564 3.03435,0.5296 1.28549,0.069 2.57345,0.066 3.86036,0.068 1.39736,-5e-4 2.79471,0 4.19206,0 1.40017,-10e-4 2.80035,-10e-4 4.20052,0 1.39873,-10e-5 2.79745,0 4.19617,0 1.39858,0 2.79716,0 4.19575,0 1.3986,0 2.7972,0 4.19579,0 1.39861,0 2.79721,0 4.19581,0 1.3986,0 2.797203,0 4.195803,0 1.3986,0 2.79721,0 4.19581,0 0.2331,0 0.4662,0 0.6993,0 4.9448,0 4.9448,6.993 0,6.993 l 0,0 c -0.2331,0 -0.4662,0 -0.6993,0 -1.3986,0 -2.79721,0 -4.19581,0 -1.3986,0 -2.797203,0 -4.195803,0 -1.3986,0 -2.7972,0 -4.19581,0 -1.3986,0 -2.7972,0 -4.1958,0 -1.39861,0 -2.79721,0 -4.19582,0 -1.39849,0 -2.79699,-10e-5 -4.19549,0 -1.39805,10e-5 -2.7961,3e-4 -4.19415,10e-4 -1.40292,10e-4 -2.80583,0 -4.20875,0 -1.45762,0 -2.91653,-2e-4 -4.37213,-0.087 -1.39408,-0.1079 -2.78407,-0.2821 -4.12473,-0.6984 -0.98728,-0.3849 -2.67137,-0.2559 -3.71439,-0.8137 -1.22319,-0.4443 -2.61217,-0.4636 -3.78371,-1.1019 -1.28883,-0.389 -2.57013,-0.771 -3.86301,-1.148 -1.35557,-0.4928 -2.68976,-0.9884 -3.9463,-1.7098 -1.53999,-0.9584 -2.97327,-2.0775 -3.77043,-3.7611 -0.61185,-1.528 -1.00745,-3.1396 -0.95976,-4.798 0,-1.3986 0,-2.7972 0,-4.1958 0,-1.3986 0,-2.7972 0,-4.1958 0,-1.3986 0,-2.79719 0,-4.19579 0,-1.3986 0,-2.7972 0,-4.1958 0,-1.3986 0,-2.7972 0,-4.1958 0,-1.39859 -10e-6,-2.79718 -2e-5,-4.19576 -2e-5,-1.39873 -5e-5,-2.79747 3e-5,-4.1962 1.3e-4,-1.40009 3e-4,-2.80018 10e-4,-4.20028 10e-4,-1.39627 0.004,-2.79254 0.004,-4.18882 -0.002,-1.28825 -8.1e-4,-2.5775 -0.0702,-3.8643 -0.0786,-1.12294 -0.24092,-2.22989 -0.52341,-3.32174 -0.20057,-1.37072 -0.21248,-2.75659 -0.44527,-4.12455 -0.26632,-1.58432 -0.45846,-3.16463 -0.36507,-4.7755 0,-1.3986 0,-2.7972 0,-4.1958 0,-1.3986 0,-2.7972 0,-4.1958 0,-1.3986 0,-2.79719 -1e-5,-4.19579 -10e-6,-1.39861 -2e-5,-2.79723 -3e-5,-4.19585 1e-5,-1.39903 0,-2.79806 4.2e-4,-4.1971 5.3e-4,-1.39942 10e-4,-2.79884 0.003,-4.19826 10e-4,-1.37428 0.006,-2.74864 -0.0124,-4.12283 -0.0243,-1.25191 -0.0581,-2.50665 -0.23104,-3.74866 -0.23238,-1.56561 -0.56502,-3.12508 -0.45745,-4.71849 0.002,-1.39206 0.005,-2.78413 0.002,-4.1762 -0.006,-1.23884 -0.008,-2.47962 -0.10677,-3.71534 -0.12554,-1.23913 -0.45521,-2.42864 -0.6662,-3.65424 -0.0825,-1.16264 -0.26027,-2.3072 -0.5146,-3.4454 -0.162,-1.52401 -0.11634,-3.0502 -0.11572,-4.58201 -3.5e-4,-1.39752 -9.3e-4,-2.79504 -0.003,-4.19256 -0.002,-1.41318 -0.006,-2.8264 0.004,-4.23957 0.0175,-1.52752 0.0452,-3.05753 0.21382,-4.57738 0.15473,-1.26554 0.4583,-2.5206 0.47702,-3.79303 0.007,-1.49399 0.0105,-2.9914 0.16415,-4.47916 0.16568,-1.28632 0.40045,-2.56958 0.87567,-3.78262 0.25306,-1.44858 0.62097,-2.87073 0.801,-4.33166 0.31493,-1.44133 0.77843,-2.84256 0.94767,-4.31294 0.96976,-4.84878 7.82696,-3.47734 6.85721,1.37144 z"
       inkscape:connector-curvature="0" />
    <path
       sodipodi:type="arc"
       style="fill:#000000;fill-opacity:1;stroke:none"
       id="path3029"
       sodipodi:cx="204.47659"
       sodipodi:cy="100.66693"
       sodipodi:rx="4.4451432"
       sodipodi:ry="8.1494293"
       d="m 208.92174,100.66693 a 4.4451432,8.1494293 0 1 1 -8.89029,0 4.4451432,8.1494293 0 1 1 8.89029,0 z"
       transform="translate(-145.70192,782.53284)" />
    <path
       sodipodi:type="arc"
       style="fill:#000000;fill-opacity:1;stroke:none"
       id="path3031"
       sodipodi:cx="205.71136"
       sodipodi:cy="128.32561"
       sodipodi:rx="4.1981912"
       sodipodi:ry="11.112859"
       d="m 209.90956,128.32561 a 4.1981912,11.112859 0 1 1 -8.39639,0 4.1981912,11.112859 0 1 1 8.39639,0 z"
       transform="translate(-145.70192,782.53284)" />
    <path
       sodipodi:type="arc"
       style="fill:#000000;fill-opacity:1;stroke:none"
       id="path3033"
       sodipodi:cx="207.19307"
       sodipodi:cy="155.24342"
       sodipodi:rx="3.7042861"
       sodipodi:ry="8.8902864"
       d="m 210.89736,155.24342 a 3.7042861,8.8902864 0 1 1 -7.40858,0 3.7042861,8.8902864 0 1 1 7.40858,0 z"
       transform="translate(-145.70192,782.53284)" />
    <path
       sodipodi:type="arc"
       style="fill:#000000;fill-opacity:1;stroke:none"
       id="path3035"
       sodipodi:cx="206.69917"
       sodipodi:cy="181.42036"
       sodipodi:rx="4.1981912"
       sodipodi:ry="8.3963823"
       d="m 210.89736,181.42036 a 4.1981912,8.3963823 0 1 1 -8.39638,0 4.1981912,8.3963823 0 1 1 8.39638,0 z"
       transform="translate(-145.70192,782.53284)" />
  </g>
</svg>
