<?xml version="1.0" encoding="UTF-8" standalone="no"?>
<!-- Created with Inkscape (http://www.inkscape.org/) -->

<svg
   xmlns:dc="http://purl.org/dc/elements/1.1/"
   xmlns:cc="http://creativecommons.org/ns#"
   xmlns:rdf="http://www.w3.org/1999/02/22-rdf-syntax-ns#"
   xmlns:svg="http://www.w3.org/2000/svg"
   xmlns="http://www.w3.org/2000/svg"
   xmlns:sodipodi="http://sodipodi.sourceforge.net/DTD/sodipodi-0.dtd"
   xmlns:inkscape="http://www.inkscape.org/namespaces/inkscape"
   width="64"
   height="16"
   id="svg2"
   version="1.1"
   inkscape:version="0.48.4 r9939"
   sodipodi:docname="New document 1">
  <defs
     id="defs4" />
  <sodipodi:namedview
     id="base"
     pagecolor="#ffffff"
     bordercolor="#666666"
     borderopacity="1.0"
     inkscape:pageopacity="0.0"
     inkscape:pageshadow="2"
     inkscape:zoom="10.59984"
     inkscape:cx="29.621832"
     inkscape:cy="11.682242"
     inkscape:document-units="px"
     inkscape:current-layer="layer1"
     showgrid="false"
     inkscape:window-width="860"
     inkscape:window-height="844"
     inkscape:window-x="498"
     inkscape:window-y="41"
     inkscape:window-maximized="0" />
  <metadata
     id="metadata7">
    <rdf:RDF>
      <cc:Work
         rdf:about="">
        <dc:format>image/svg+xml</dc:format>
        <dc:type
           rdf:resource="http://purl.org/dc/dcmitype/StillImage" />
        <dc:title></dc:title>
      </cc:Work>
    </rdf:RDF>
  </metadata>
  <g
     inkscape:label="Layer 1"
     inkscape:groupmode="layer"
     id="layer1"
     transform="translate(0,-1036.3622)">
    <path
       style="fill:#808000"
       d="m 28.976186,2.2888357 c -0.958375,0.5837039 -2.10976,0.8036467 -3.042499,1.4681826 -0.833639,0.4634203 -1.64071,1.1787326 -2.665111,1.0487155 -4.764595,0.086372 -9.546,-0.2690333 -14.2985893,0.1836145 C 7.6951909,5.1851749 6.3778466,5.318751 5.1285371,4.9303851 4.0483755,4.7635267 2.9338247,4.7003142 1.8472374,4.6886362 1.4606793,4.9788374 1.8931715,5.5422469 1.8914598,5.9239143 2.1494345,7.3417438 1.8234618,8.774431 1.5052511,10.154521 1.4609081,10.666322 2.137317,10.423853 2.4132268,10.357908 5.0086004,9.5412699 7.7649274,9.7593048 10.449864,9.6407892 c 2.901249,-0.064277 5.806195,-0.1296673 8.703044,0.073239 2.126636,-0.026798 4.252232,-0.1580839 6.379829,-0.1845165 1.330854,0.5979456 2.333383,1.7520726 3.741213,2.1875326 0.352213,-0.147651 0.177731,-0.750332 0.302419,-1.051164 0.2594,-1.9620742 0.342596,-3.9848492 -0.252301,-5.8976435 -0.282155,-0.79965 -0.251592,-1.649874 -0.229956,-2.4705563 l -0.0855,-0.020637 -0.03243,0.011793 z"
       id="path3005"
       inkscape:connector-curvature="0"
       transform="translate(0,1036.3622)" />
    <path
       style="fill:#808000"
       d="m 38.159697,1.9999163 c -1.954186,0.019584 -3.879421,0.4688657 -5.8403,0.3657063 -0.679605,0.028533 -1.386155,-0.053089 -2.04897,0.044088 -0.02747,1.4509699 0.692117,2.8040238 0.637282,4.265922 0.12486,1.7131705 -0.235244,3.4160828 -0.227488,5.1210128 0.08811,0.305846 0.496543,0.207927 0.716402,0.38326 2.228637,0.195592 4.479052,0.06878 6.715891,0.09081 1.613036,-0.03314 3.251331,-0.0073 4.846784,-0.149771 -0.05297,-1.076391 0.673125,-1.996601 0.628726,-3.0831346 C 43.680056,6.9666776 44.39701,4.9731303 44.250592,2.8755191 44.456931,2.2915227 43.922377,2.2064889 43.487019,2.1974428 41.715675,2.0617532 39.936248,1.9951854 38.159697,1.9999163 z"
       id="path3007"
       inkscape:connector-curvature="0"
       transform="translate(0,1036.3622)" />
    <path
       style="fill:#808000"
       d="m 46.007694,2.3065247 c -0.328415,0.3013432 -0.08597,0.877776 -0.173942,1.2824486 -0.104375,1.8411811 -0.692941,3.6213748 -0.681024,5.4776773 -0.09844,0.9437914 -1.002323,1.9397834 -0.344935,2.8744534 0.512526,0.85024 1.635083,0.552452 2.458764,0.598477 1.672729,-0.08286 3.289745,-0.609637 4.937859,-0.882558 2.616441,-0.56471 5.260916,-1.023961 7.854198,-1.6823398 0.521217,-0.2386185 1.25911,-0.4438217 1.400375,-1.064285 C 61.62803,8.7440888 62.045474,8.6988476 61.898264,8.3679372 61.541135,7.5997913 60.670095,7.2367815 60.01734,6.758243 58.219922,5.7293122 56.413615,4.6268088 54.360124,4.204356 51.605321,3.4572855 48.755623,3.0150518 46.007694,2.3065247 z"
       id="path3009"
       inkscape:connector-curvature="0"
       transform="translate(0,1036.3622)" />
    <path
       style="fill:#000000;fill-opacity:1;fill-rule:nonzero;stroke:none"
       id="path2985"
       d="m 63.128532,1044.5422 c -0.0013,0.1771 -0.02166,0.3492 -0.107294,0.516 -0.07139,0.146 -0.213099,0.2451 -0.373189,0.3409 -0.585025,0.3263 -1.195708,0.4894 -1.886751,0.8096 -0.509871,0.2362 1.049966,-0.437 1.576681,-0.6533 -0.105369,0.051 -0.05265,0.027 -0.157998,0.072 -1.040001,0.4837 -3.534784,1.4681 -0.237361,0.1151 0.02795,-0.012 -0.05303,0.026 -0.08018,0.039 -0.129594,0.059 -0.02746,0.01 -0.15241,0.076 -3.457743,1.4454 -1.238654,0.5156 -0.161678,0.074 0.02795,-0.011 -0.05207,0.027 -0.08001,0.039 -0.58204,0.2397 -1.158948,0.4862 -1.749663,0.7147 -0.53371,0.2064 2.095111,-0.8764 1.578594,-0.6485 -0.570992,0.2519 -1.161397,0.4804 -1.742095,0.7206 -0.03222,0.01 -0.0663,0.012 -0.09666,0.023 -0.05739,0.021 -0.221026,0.094 -0.16544,0.071 0.497996,-0.2074 1.998813,-0.821 1.501636,-0.6126 -0.579195,0.2428 -1.161349,0.4819 -1.742023,0.7229 0.525883,-0.2173 1.050732,-0.4359 1.577649,-0.652 0.02796,-0.011 -0.05267,0.027 -0.08062,0.038 -0.582395,0.2393 -1.166224,0.4768 -1.75023,0.714 -0.101422,0.041 -0.210086,0.068 -0.313302,0.1074 -0.238393,0.055 -0.468219,0.1281 -0.70909,0.1777 -0.224536,0.019 -0.426447,0.086 -0.64898,0.1139 -0.03851,0 -0.07789,0 -0.115511,0.01 -0.06717,0.012 -0.128259,0.038 -0.194772,0.052 -0.10782,0.022 -0.203485,0.028 -0.305219,0.064 -0.09285,0.04 -0.206339,0.037 -0.305485,0.061 -0.09756,0.023 -0.184072,0.059 -0.285289,0.08 -0.212668,0.025 -0.423861,0.067 -0.621739,0.1292 -0.22709,0.045 -0.427499,0.1273 -0.658646,0.1642 -0.228549,0.01 -0.43623,0.075 -0.661265,0.1014 -0.03877,0 -0.0784,0 -0.116312,0.01 -0.06751,0.012 -0.129037,0.038 -0.19582,0.051 -0.107988,0.022 -0.203746,0.028 -0.305586,0.064 -0.09283,0.04 -0.206332,0.037 -0.305474,0.061 -0.09756,0.023 -0.184019,0.059 -0.285238,0.08 -0.218452,0.018 -0.413756,0.084 -0.63021,0.1108 -0.196545,0.068 -0.410816,0.1017 -0.619069,0.147 -0.237839,0.027 -0.451586,0.101 -0.687802,0.1335 -0.03939,0 -0.07969,0 -0.118178,0.011 -0.06816,0.013 -0.130262,0.039 -0.197813,0.053 -0.108095,0.023 -0.204391,0.029 -0.306454,0.064 -0.128954,0.053 -0.281511,0.046 -0.419623,0.072 -0.06668,0.013 -0.128049,0.037 -0.193293,0.053 -0.218245,0.019 -0.417516,0.075 -0.629032,0.1129 -0.220504,0.014 -0.417757,0.081 -0.635389,0.108 -0.117987,0.061 -0.265449,0.062 -0.396559,0.093 -0.06369,0.015 -0.121289,0.042 -0.1838,0.059 -0.209045,0.031 -0.392641,0.1007 -0.603418,0.1297 -0.191416,0.081 -0.410077,0.099 -0.626867,0.1123 -0.255362,0.011 -0.511395,0.011 -0.767138,0.011 -0.262902,-4e-4 -0.525805,-8e-4 -0.788706,0 -0.262639,-2e-4 -0.525279,-2e-4 -0.787919,-3e-4 -0.240698,-0.02 -0.435235,-0.093 -0.606619,-0.2123 -0.149581,-0.1205 -0.26775,-0.2555 -0.381355,-0.3941 -0.106791,-0.138 -0.197669,-0.2744 -0.247403,-0.429 -0.04577,-0.1806 -0.04712,-0.365 -0.04987,-0.548 -0.006,-0.1925 0.0459,-0.3839 0.09836,-0.572 0.06423,-0.165 0.131821,-0.3293 0.198199,-0.4939 0.04687,-0.1632 0.133127,-0.3177 0.181133,-0.4806 0.0542,-0.1534 0.119015,-0.3026 0.15025,-0.4598 0.02824,-0.1798 0.02899,-0.3612 0.0307,-0.5419 7.95e-4,-0.1888 -3.9e-5,-0.3775 -4.25e-4,-0.5663 -0.0097,-0.1806 -0.0017,-0.3577 0.04741,-0.535 0.05164,-0.1669 0.0671,-0.3376 0.07694,-0.508 0.02091,-0.1648 0.08031,-0.3247 0.108502,-0.489 0.02905,-0.1832 0.01881,-0.3677 0.04014,-0.5511 0.04481,-0.1868 0.08285,-0.3737 0.103013,-0.5627 0.03697,-0.19 0.09275,-0.3772 0.121512,-0.5681 0.01555,-0.1916 0.08066,-0.3783 0.117604,-0.568 0.03233,-0.1853 0.03697,-0.3723 0.04034,-0.5588 0.002,-0.1884 0.0012,-0.3769 8.95e-4,-0.5653 -3.76e-4,-0.1887 -5.02e-4,-0.3774 -5.79e-4,-0.5661 -5.6e-5,-0.1887 -5e-5,-0.3774 -5e-5,-0.5661 0.0012,-0.1797 -0.02922,-0.36 0.07855,-0.5267 0.558335,-0.4694 1.442161,-0.8825 2.293178,-0.7452 0.214743,0.028 0.431203,0.072 0.624498,0.1457 0.183932,0.054 0.347997,0.1307 0.542128,0.1665 0.18893,0.053 0.366223,0.1243 0.557295,0.1726 0.208643,0.032 0.415982,0.075 0.612798,0.1347 0.222142,0.046 0.424245,0.1248 0.649618,0.1637 0.226251,0.081 0.482712,0.083 0.719016,0.1366 0.216991,0.046 0.435955,0.069 0.651202,0.1187 0.208823,0.027 0.397104,0.094 0.604612,0.1256 0.228407,0.061 0.464797,0.094 0.694952,0.1516 0.212679,0.031 0.40542,0.099 0.617653,0.1317 0.205151,0.04 0.426063,0.068 0.623627,0.1269 0.200119,0.039 0.389617,0.098 0.588305,0.1406 0.228681,0.04 0.450644,0.097 0.669197,0.1593 0.209891,0.037 0.401052,0.1064 0.612723,0.1392 0.206027,0.058 0.409487,0.1224 0.622417,0.1669 0.214399,0.069 0.429358,0.1389 0.654436,0.1876 0.201025,0.074 0.416709,0.1156 0.62547,0.1752 0.202886,0.051 0.400781,0.1273 0.577184,0.216 0.189198,0.065 0.356434,0.1529 0.529106,0.2373 0.183909,0.09 0.357949,0.1905 0.550695,0.2708 0.208059,0.1193 0.420331,0.2344 0.622258,0.3594 0.208333,0.1259 0.438111,0.2316 0.653142,0.3507 0.188082,0.073 0.360559,0.1614 0.537277,0.2472 0.181967,0.084 0.347534,0.1825 0.520886,0.2747 0.183471,0.1144 0.388102,0.2091 0.567817,0.3264 0.150104,0.1367 0.323592,0.2538 0.49888,0.3729 0.159584,0.1302 0.319598,0.2617 0.48866,0.3856 0.163524,0.1274 0.338087,0.2478 0.497299,0.3779 0.123682,0.1323 0.193702,0.289 0.261294,0.4403 0.06863,0.1645 0.08349,0.3297 0.03173,0.4969 -0.05639,0.1365 -0.189198,0.2378 -0.311552,0.3446 0,0 -1.773274,0.5602 -1.773274,0.5602 l 0,0 c 0.08609,-0.122 0.242526,-0.1971 0.328255,-0.3183 0.110463,-0.1283 0.07921,-0.2747 0.02931,-0.4151 -0.05646,-0.1332 -0.117245,-0.272 -0.220385,-0.3898 -0.158308,-0.128 -0.321034,-0.2537 -0.488073,-0.3758 -0.162218,-0.1258 -0.330297,-0.2475 -0.484962,-0.3782 -0.175517,-0.1174 -0.337803,-0.2411 -0.497634,-0.3691 -0.180172,-0.1125 -0.374988,-0.2117 -0.563734,-0.3165 -0.166776,-0.096 -0.338401,-0.1856 -0.517655,-0.2689 -0.173415,-0.09 -0.358553,-0.1667 -0.533595,-0.2551 -0.219244,-0.1177 -0.439878,-0.2334 -0.650072,-0.3596 -0.200967,-0.1165 -0.408006,-0.228 -0.615814,-0.338 -0.19199,-0.088 -0.37494,-0.1846 -0.563964,-0.2755 -0.167144,-0.087 -0.34487,-0.1595 -0.521921,-0.2351 -0.176786,-0.077 -0.362633,-0.1436 -0.55797,-0.1921 -0.203428,-0.059 -0.414346,-0.1033 -0.613125,-0.1709 -0.220757,-0.057 -0.436347,-0.1231 -0.653829,-0.1859 -0.207637,-0.051 -0.411619,-0.1095 -0.620018,-0.1588 -0.2114,-0.045 -0.41525,-0.1066 -0.625376,-0.1545 -0.216311,-0.062 -0.441408,-0.1044 -0.664914,-0.1506 -0.196295,-0.05 -0.394349,-0.094 -0.5912,-0.1431 -0.20305,-0.041 -0.405137,-0.086 -0.611688,-0.117 -0.210279,-0.043 -0.413661,-0.1021 -0.625599,-0.1418 -0.225746,-0.055 -0.45992,-0.089 -0.686894,-0.1411 -0.204958,-0.042 -0.403381,-0.098 -0.611633,-0.1318 -0.212453,-0.045 -0.434071,-0.064 -0.644156,-0.1164 -0.243191,-0.039 -0.486743,-0.074 -0.721197,-0.1373 -0.22252,-0.052 -0.433891,-0.1247 -0.65827,-0.1731 -0.205501,-0.047 -0.411921,-0.091 -0.618356,-0.135 -0.18196,-0.057 -0.361272,-0.1175 -0.548572,-0.1649 -0.192236,-0.05 -0.369465,-0.1242 -0.55798,-0.1814 -0.191698,-0.054 -0.387098,-0.098 -0.59266,-0.115 -0.107785,-0.01 -0.200701,-0.01 -0.306606,0.014 -0.03412,0.01 -0.13036,0.039 -0.09997,0.026 1.517343,-0.6515 2.154389,-0.7763 1.478906,-0.6379 -0.216055,0.095 -0.137747,0.2864 -0.146486,0.4436 -1e-6,0.1887 -8e-6,0.3774 2.9e-5,0.566 5.2e-5,0.1887 1.37e-4,0.3774 4.82e-4,0.566 3.53e-4,0.1889 0.0011,0.3779 1.19e-4,0.5668 -0.0019,0.1912 -0.0044,0.3828 -0.03062,0.5733 -0.03041,0.1896 -0.09599,0.3747 -0.120079,0.5641 -0.02251,0.1903 -0.06189,0.3787 -0.123918,0.5646 -0.01562,0.1913 -0.04271,0.382 -0.09802,0.5698 -0.04383,0.1802 -0.01196,0.365 -0.03849,0.547 -0.01899,0.1629 -0.05205,0.324 -0.116802,0.4812 -0.0059,0.1762 -0.01349,0.3532 -0.05798,0.527 -0.0487,0.1711 -0.09754,0.3354 -0.0706,0.5123 3.27e-4,0.1889 9.74e-4,0.3779 0.0011,0.5668 -3.88e-4,0.1848 2.74e-4,0.3699 -0.01741,0.5544 -0.02018,0.1599 -0.05155,0.3193 -0.144639,0.4671 -0.03462,0.1707 -0.116456,0.3272 -0.176962,0.4923 -0.05678,0.1665 -0.13068,0.3295 -0.195524,0.4943 -0.08581,0.1684 -0.108693,0.3609 -0.125059,0.5384 0.0017,0.1738 0.0012,0.3485 0.03723,0.5207 0.03978,0.1416 0.124267,0.2635 0.220002,0.3896 0.102761,0.1265 0.205753,0.2521 0.349978,0.3572 0.152141,0.088 0.322836,0.1333 0.520633,0.1321 0.262673,10e-5 0.525347,10e-5 0.788022,4e-4 0.262758,4e-4 0.525518,10e-4 0.788277,4e-4 0.252488,0 0.506005,0 0.756718,-0.026 0.213137,-0.026 0.410413,-0.08 0.615272,-0.127 0.198314,-0.045 0.392825,-0.098 0.590987,-0.1438 0.194223,-0.053 0.39775,-0.091 0.595834,-0.1345 0.209721,-0.04 0.417104,-0.083 0.63005,-0.1144 0.206621,-0.046 0.419304,-0.069 0.624782,-0.1178 0.202596,-0.044 0.415179,-0.064 0.610009,-0.1276 0.211963,-0.036 0.416856,-0.089 0.631857,-0.1154 0.226049,-0.047 0.449004,-0.1 0.67763,-0.1399 0.209769,-0.049 0.421337,-0.094 0.632087,-0.1396 0.207132,-0.041 0.41245,-0.084 0.620294,-0.1224 0.19419,-0.053 0.393853,-0.091 0.588571,-0.1432 0.211222,-0.035 0.415887,-0.088 0.63141,-0.1086 0.217155,-0.038 0.433105,-0.077 0.65193,-0.1094 0.217835,-0.055 0.428552,-0.1231 0.649324,-0.1725 0.208895,-0.046 0.417845,-0.087 0.628863,-0.1266 0.194205,-0.053 0.393897,-0.091 0.588573,-0.1432 0.210293,-0.035 0.413784,-0.088 0.627722,-0.1111 0.212408,-0.041 0.423132,-0.085 0.636172,-0.1243 0.231035,-0.062 0.469584,-0.1097 0.689485,-0.191 0.184765,-0.061 0.0498,-0.015 0.221569,-0.075 0.03356,-0.012 0.133086,-0.048 0.100907,-0.035 -0.522274,0.2199 -1.048134,0.4353 -1.571546,0.6537 -0.02735,0.011 0.05556,-0.022 0.08334,-0.033 0.578575,-0.2423 1.15715,-0.4847 1.735725,-0.727 -3.328954,1.3932 -0.62596,0.2435 0.500958,-0.2062 -4.030473,1.6754 -0.02069,0.01 0.170409,-0.065 0.535935,-0.2022 -1.048028,0.4356 -1.571407,0.6541 -0.02727,0.011 0.05582,-0.021 0.08305,-0.033 0.5783,-0.2426 1.15824,-0.4832 1.733531,-0.7294 0.520795,-0.2229 -1.046692,0.4396 -1.570038,0.6594 0.340823,-0.1607 -0.192047,0.096 0.147372,-0.086 0.562187,-0.3011 1.213769,-0.5047 1.81724,-0.7613 0.5217,-0.2218 -1.046016,0.4404 -1.570191,0.6591 -0.02683,0.011 0.05204,-0.024 0.07806,-0.036 0.106553,-0.075 0.02764,-0.029 0.153469,-0.081 0.578486,-0.2423 1.155485,-0.4865 1.733727,-0.7291 0.523444,-0.2197 -1.045471,0.441 -1.569332,0.6601 -0.05451,0.023 0.223305,-0.096 0.146986,-0.086 0.170146,-0.069 0.314941,-0.1485 0.421815,-0.268 0.09227,-0.1503 0.165446,-0.2942 0.125574,-0.4628 0,0 1.735537,-0.6357 1.735537,-0.6357 z"
       inkscape:connector-curvature="0" />
    <path
       style="fill:#000000;fill-opacity:1;fill-rule:nonzero;stroke:none"
       id="path2987"
       d="m 44.112122,1038.6915 c -0.19301,-0.047 -0.392879,-0.058 -0.59109,-0.068 -0.233911,-0.016 -0.464622,-0.062 -0.69885,-0.083 -0.208191,-0.016 -0.41721,-0.018 -0.625974,-0.019 -0.199841,-4e-4 -0.399684,10e-5 -0.599526,4e-4 -0.205567,0.01 -0.404339,0 -0.605954,-0.036 -0.196057,-0.037 -0.395538,-0.048 -0.594794,-0.055 -0.19914,0 -0.39837,0 -0.597559,0 -0.19984,3e-4 -0.39968,5e-4 -0.599521,6e-4 -0.199866,10e-5 -0.399732,10e-5 -0.599598,10e-5 -0.199858,0 -0.399716,0 -0.599574,0 -0.199856,0 -0.399713,0 -0.59957,0 -0.197984,0.01 -0.399278,-0.019 -0.594305,0.018 -0.197935,0.042 -0.399716,0.059 -0.601834,0.07 -0.193346,0.057 -0.399082,0.057 -0.59296,0.1075 -0.197534,0.053 -0.401781,0.071 -0.605958,0.082 -0.184846,-0.012 -0.356461,0.049 -0.536764,0.075 -0.187826,0.022 -0.377428,0.024 -0.566438,0.026 -0.199432,0 -0.398869,5e-4 -0.598303,2e-4 -0.20001,-2e-4 -0.400018,-3e-4 -0.600028,-4e-4 -0.199872,0 -0.399745,0 -0.599619,0 -0.199855,0 -0.39971,0 -0.599566,0 -0.199857,0 -0.399713,0 -0.599569,0 -0.199857,0 -0.399714,0 -0.599571,0 -0.199857,0 -0.399714,0 -0.599571,0 -0.55888,0 -1.537981,0.6892 0.792526,-0.5547 -0.143986,0.08 -0.149255,0.2449 -0.161262,0.3865 -0.0095,0.1866 -0.0065,0.3736 -0.0053,0.5603 -0.01006,0.1885 0.0085,0.3726 0.04153,0.558 0.03193,0.1911 0.0911,0.3761 0.124508,0.5671 0.02909,0.1772 0.09432,0.3435 0.154601,0.5123 0.03491,0.158 0.09481,0.3092 0.13398,0.4662 0.01706,0.1603 0.06805,0.3136 0.102671,0.4707 0.03472,0.1783 0.03959,0.3599 0.04354,0.5406 0.02259,0.1875 0.06023,0.3726 0.08026,0.5605 0.01759,0.1901 0.01949,0.3811 0.02098,0.5718 8.01e-4,0.1889 2.93e-4,0.3777 6.7e-5,0.5665 -0.0028,0.1912 0.0069,0.3827 -0.0085,0.5734 -0.03314,0.187 -0.06271,0.3739 -0.07833,0.5629 -0.01469,0.1824 -0.0022,0.3654 -0.03389,0.5462 -0.04087,0.1631 -0.06009,0.3292 -0.07092,0.4961 -0.01186,0.188 -0.0021,0.3764 -0.0174,0.564 -0.03311,0.1871 -0.06235,0.3742 -0.07779,0.5634 -0.01263,0.1871 -0.01317,0.3747 -0.01388,0.5621 0.01469,0.1654 -0.03522,0.3452 0.03101,0.5028 0.106772,0.082 0.268463,0.1095 0.40255,0.1375 0.193424,0.034 0.390634,0.037 0.586684,0.039 0.200256,0 0.400523,5e-4 0.600783,10e-5 0.199949,-5e-4 0.399898,-6e-4 0.599847,-7e-4 0.199857,0 0.399714,0 0.59957,0 0.199855,0 0.399711,0 0.599566,0 0.199857,0 0.399713,0 0.59957,0 0.199857,0 0.399713,0 0.59957,0 0.199857,0 0.399714,0 0.59957,0 0.199858,0 0.399715,0 0.599571,0 0.199857,0 0.399714,0 0.599571,0 0.199855,0 0.399712,0 0.599569,0 0.199857,0 0.399714,0 0.599571,0 0.199857,0 0.399713,0 0.59957,0 0.199857,0 0.399714,0 0.59957,0 0.199857,0 0.399715,0 0.599571,0 0.176288,-0.01 0.345988,-0.059 0.522652,-0.077 0.191616,-0.016 0.384173,-0.017 0.576393,-0.018 0.199785,-5e-4 0.399568,0 0.599353,2e-4 0.199978,3e-4 0.399955,3e-4 0.599933,3e-4 0.199866,10e-5 0.39973,10e-5 0.599596,10e-5 0.172894,0.039 0.34635,0.068 0.523386,0.082 0.189607,0 0.37288,0.01 0.557696,0.049 0.172609,0.039 0.350046,0.047 0.526641,0.054 0.168509,0.045 0.339541,0.073 0.513813,0.086 0.191808,0.012 0.38414,0.012 0.576265,0.012 0.03318,0 0.06636,0 0.09955,0 0,0 -1.18593,0.8131 -1.18593,0.8131 l 0,0 c -0.0333,-10e-5 -0.06662,-2e-4 -0.09992,-3e-4 -0.195797,0 -0.392006,0 -0.586981,-0.022 -0.171007,-0.02 -0.337438,-0.06 -0.50794,-0.081 -0.182581,-0.011 -0.364428,-0.029 -0.54269,-0.069 -0.180991,-0.03 -0.365158,-0.019 -0.547485,-0.039 -0.17169,-0.02 -0.339764,-0.06 -0.512111,-0.072 -0.199871,0 -0.399741,0 -0.599611,-10e-5 -0.199996,-10e-5 -0.399992,-2e-4 -0.599988,-4e-4 -0.19953,-2e-4 -0.39907,-8e-4 -0.598591,0 -0.189726,0 -0.380097,0.01 -0.56808,0.034 -0.176513,0.028 -0.350764,0.073 -0.531658,0.06 -0.199857,0 -0.399713,0 -0.599569,0 -0.199857,0 -0.399714,0 -0.599571,0 -0.199857,0 -0.399714,0 -0.599571,0 -0.199856,0 -0.399713,0 -0.59957,0 -0.199856,0 -0.399713,0 -0.59957,0 -0.199858,0 -0.399714,0 -0.599571,0 -0.199857,0 -0.399713,0 -0.599569,0 -0.199857,0 -0.399714,0 -0.59957,0 -0.199857,0 -0.399715,0 -0.599571,0 -0.199857,0 -0.399714,0 -0.599571,0 -0.199855,0 -0.399711,0 -0.599566,0 -0.199841,0 -0.399683,0 -0.599525,10e-5 -0.19989,1e-4 -0.399782,3e-4 -0.599674,8e-4 -0.200966,3e-4 -0.401971,0 -0.602899,0 -0.203458,-0.01 -0.408073,-0.016 -0.606432,-0.063 -0.180262,-0.047 -0.374765,-0.087 -0.481534,-0.2458 -0.07531,-0.1773 -0.04725,-0.3653 -0.05069,-0.553 2.59e-4,-0.1901 1.73e-4,-0.3803 0.0096,-0.5703 0.01199,-0.1913 0.03284,-0.3819 0.07454,-0.5698 0.03298,-0.1827 0.0074,-0.3698 0.02041,-0.5545 0.0069,-0.1721 0.01647,-0.345 0.05821,-0.5132 0.0446,-0.1761 0.04327,-0.3513 0.0468,-0.5322 0.01209,-0.1912 0.03317,-0.3816 0.07516,-0.5692 0.03339,-0.1841 0.008,-0.3726 0.01603,-0.5587 2.12e-4,-0.1886 6.57e-4,-0.3771 3.88e-4,-0.5657 -8.01e-4,-0.1872 -0.0014,-0.3745 -0.01505,-0.5613 -0.01704,-0.1914 -0.04974,-0.3802 -0.08592,-0.5692 -0.0029,-0.1725 -0.0057,-0.3458 -0.03523,-0.5165 -0.03216,-0.1566 -0.08846,-0.3077 -0.101245,-0.4677 -0.03524,-0.1538 -0.09749,-0.3 -0.126287,-0.4552 -0.05977,-0.177 -0.125559,-0.3509 -0.162062,-0.5343 -0.02883,-0.1915 -0.088,-0.3755 -0.123386,-0.5654 -0.03454,-0.1922 -0.06818,-0.3815 -0.05275,-0.5776 -0.0012,-0.1891 -0.0038,-0.3782 -4.89e-4,-0.5672 0.006,-0.1697 0.0082,-0.3479 0.09956,-0.4994 0.697774,-0.3795 1.057194,-0.7806 1.766021,-0.7677 0.199856,0 0.399713,0 0.59957,0 0.199857,0 0.399713,0 0.59957,0 0.199857,0 0.399713,0 0.599569,0 0.199855,0 0.399711,0 0.599567,0 0.199881,0 0.399761,0 0.599641,10e-5 0.200026,10e-5 0.400052,2e-4 0.600077,5e-4 0.199039,10e-5 0.398102,8e-4 0.597114,0 0.185993,0 0.372742,-0.012 0.555881,-0.045 0.179675,-0.034 0.357705,-0.062 0.541991,-0.061 0.200472,-0.018 0.397974,-0.05 0.593184,-0.097 0.202082,-0.031 0.403232,-0.068 0.60618,-0.092 0.200531,-0.016 0.398542,-0.046 0.597306,-0.075 0.201451,-0.01 0.403206,0 0.604835,0 0.199857,0 0.399714,0 0.59957,0 0.199856,0 0.399713,0 0.599569,0 0.199846,0 0.399694,0 0.599541,-2e-4 0.199874,-10e-5 0.399747,-4e-4 0.599622,-4e-4 0.200554,3e-4 0.401219,3e-4 0.601592,0.01 0.202781,0.012 0.404567,0.032 0.604281,0.068 0.196516,0.026 0.394334,0.016 0.592323,0.017 0.200066,-3e-4 0.400142,-9e-4 0.600201,0 0.210603,0 0.421463,0.01 0.630832,0.032 0.231888,0.027 0.462032,0.07 0.696178,0.076 0.209033,0.015 0.417553,0.037 0.622943,0.077 0,0 -1.220351,0.7947 -1.220351,0.7947 z"
       inkscape:connector-curvature="0" />
    <path
       style="fill:#000000;fill-opacity:1;fill-rule:nonzero;stroke:none"
       id="path2989"
       d="m 28.511107,1039.0248 c -0.180844,0.032 -0.350484,0.1058 -0.518439,0.1733 -0.161148,0.052 -0.338712,0.087 -0.484112,0.1696 -0.06953,0.046 -0.1585,0.045 -0.235567,0.07 -0.07744,0.025 -0.14361,0.061 -0.22478,0.082 -0.461426,0.238 -1.06456,0.5341 1.128016,-0.5818 0.0221,-0.011 -0.04125,0.027 -0.06321,0.038 -1.400474,0.7287 -0.877699,0.5974 -1.476472,0.74 -0.790747,0.3991 1.874055,-1.0313 0.912469,-0.4609 -0.49836,0.2972 -1.01299,0.5259 -1.54385,0.8114 -0.413526,0.2224 0.835038,-0.4325 1.253613,-0.6472 0.168583,-0.086 -0.0945,0.053 -0.146322,0.081 -4.680759,2.4158 0.85746,-0.4369 -0.229496,0.1281 -0.46621,0.2424 -0.934412,0.4816 -1.401745,0.7222 -0.417962,0.2152 0.835227,-0.4315 1.253637,-0.6459 0.02387,-0.012 -0.04664,0.026 -0.06996,0.039 -0.140299,0.083 -0.281612,0.1672 -0.416914,0.257 -2.857226,1.4848 -0.932675,0.4833 -0.144764,0.079 0.0238,-0.012 -0.04582,0.027 -0.06909,0.04 -0.06479,0.036 -0.124714,0.076 -0.187056,0.1152 -0.475393,0.3639 -1.171955,0.6456 -1.642357,0.8835 -0.422676,0.2138 0.841915,-0.433 1.262872,-0.6495 -0.725874,0.435 -1.102786,0.7483 -1.835607,0.7866 -0.206717,0.01 -0.413665,0.01 -0.620497,0.01 -0.210497,-7e-4 -0.420997,0 -0.631497,0 -0.210125,-10e-5 -0.420251,-10e-5 -0.630377,-10e-5 -0.210041,0 -0.420083,0 -0.630126,0 -0.210043,0 -0.420085,0 -0.630128,0 -0.210044,0 -0.420087,0 -0.630133,0 -0.210044,0 -0.420088,0 -0.630132,0 -0.210043,0 -0.420088,0 -0.630132,0 -0.210044,0 -0.420088,0 -0.630133,0 -0.208311,-0.01 -0.419998,0.019 -0.625222,-0.018 -0.178605,-0.043 -0.362077,-0.06 -0.546097,-0.069 -0.204364,-0.01 -0.408988,-0.01 -0.613506,-0.01 -0.210134,10e-5 -0.420266,4e-4 -0.6304,6e-4 -0.210135,1e-4 -0.420271,1e-4 -0.630407,1e-4 -0.210048,0 -0.420097,0 -0.630145,0 -0.210044,0 -0.420086,0 -0.63013,0 -0.210043,0 -0.420087,0 -0.630132,0 -0.210043,0 -0.420088,0 -0.630132,0 -0.199692,-0.021 -0.382993,0.02 -0.575534,0.055 -0.192092,0.03 -0.387603,0.034 -0.582135,0.038 -0.209002,0 -0.418032,0 -0.627047,0 -0.211756,-0.015 -0.41552,0.039 -0.6237738,0.064 -0.2110628,0.023 -0.4238923,0.027 -0.6362562,0.029 -0.1855788,0.01 -0.3641392,0.059 -0.5502471,0.078 -0.1913231,-0.01 -0.3667994,0.038 -0.5508723,0.073 -0.1940315,0.02 -0.3834342,0.036 -0.5741773,0.074 -0.2083041,0.039 -0.4210745,0.05 -0.6332169,0.056 -0.2109246,0 -0.4219339,0 -0.632903,0 -0.1909246,0.01 -0.3715453,-0.05 -0.5445213,-0.1156 -0.1745047,-0.048 -0.343245,-0.1052 -0.5230419,-0.1364 -0.1834671,-0.031 -0.3578894,-0.086 -0.5443176,-0.108 -0.1917828,0 -0.3721397,-0.037 -0.5579133,-0.072 -0.1864795,-0.031 -0.3766181,-0.036 -0.5657371,-0.039 -0.2081549,0 -0.4163432,0 -0.6245137,0 -0.2085234,-0.01 -0.4203954,0.019 -0.6258507,-0.017 -0.1786637,-0.043 -0.3621708,-0.06 -0.5462302,-0.069 -0.1768412,-0.011 -0.3667695,0 -0.524361,0.082 -0.76557525,0.3555 4.0709155,-2.0642 -0.2688185,0.1384 -0.40231763,0.2042 1.592415,-0.8421 1.2042205,-0.6169 -0.1026717,0.1 -0.2305451,0.1726 -0.3420794,0.2632 -0.1422425,0.083 -0.1862802,0.2078 -0.2135562,0.3509 -0.016966,0.169 0.046521,0.3252 0.1029166,0.4827 0.047512,0.1741 0.082311,0.3506 0.1246602,0.5259 0.044752,0.1888 0.057153,0.3815 0.064723,0.5738 0.00534,0.1895 0.00456,0.379 0.00434,0.5685 -3.562e-4,0.1887 -5.955e-4,0.3774 -7.268e-4,0.5661 -0.00256,0.1839 0.011611,0.3681 -0.020973,0.5502 -0.033184,0.1704 -0.071892,0.3391 -0.1169234,0.5073 -0.030925,0.1661 -0.099677,0.3228 -0.1379277,0.4873 -0.019415,0.1601 -0.076912,0.3128 -0.1089395,0.4709 -0.039464,0.154 -0.09134,0.3034 -0.116232,0.4605 -0.013248,0.1273 -0.062218,0.2816 0.094478,0.3424 0.1464271,0.037 0.3098185,0.011 0.4415021,-0.055 0.1544645,-0.054 0.2866345,-0.1315 0.4501316,-0.1656 0.1495852,-0.086 0.3248235,-0.1037 0.4976683,-0.117 0.1036407,-0.051 0.2257672,-0.049 0.3351774,-0.078 0.052042,-0.014 0.099343,-0.04 0.1502198,-0.057 0.1725855,-0.022 0.3305809,-0.079 0.4984597,-0.1168 0.1213185,-0.033 0.2520268,-0.016 0.3748859,-0.035 0.056819,-0.01 0.1102643,-0.03 0.165767,-0.044 0.1849677,-0.041 0.3760849,-0.047 0.5656046,-0.053 0.1368901,-0.014 0.2783856,0.011 0.414876,0 0.059146,-0.01 0.1154885,-0.026 0.17326,-0.039 0.1905406,-0.027 0.3699021,-0.087 0.5604058,-0.1169 0.2087806,-0.028 0.4201884,-0.03 0.6307945,-0.033 0.2105663,0 0.421138,-3e-4 0.6317054,0 0.2100774,4e-4 0.4201549,5e-4 0.6302335,6e-4 0.2100373,0 0.4200758,0 0.6301142,0 0.210043,0 0.4200863,0 0.6301287,0 0.2100454,0 0.4200899,0 0.6301344,0 0.210043,0 0.420088,0 0.630132,0 0.210043,0 0.420087,0 0.630131,0 0.210046,0 0.420089,0 0.630134,0 0.206183,-0.042 0.415148,-0.068 0.625796,-0.082 0.211121,-0.012 0.422754,-0.012 0.634199,-0.013 0.210152,-1e-4 0.420301,3e-4 0.630452,5e-4 0.21003,2e-4 0.42006,2e-4 0.630091,2e-4 0.21004,0 0.420082,0 0.630124,0 0.210044,0 0.420088,0 0.630133,0 0.210044,0 0.420089,0 0.630133,0 0.204048,-0.018 0.395784,0.016 0.593649,0.053 0.18694,0.031 0.377416,0.036 0.566981,0.04 0.195334,-0.015 0.380027,0.04 0.570501,0.067 0.192768,0.024 0.387615,0.026 0.581807,0.028 0.209013,0 0.418036,9e-4 0.627055,7e-4 0.210226,-3e-4 0.420453,-4e-4 0.63068,-4e-4 0.210072,-10e-5 0.420143,-10e-5 0.630215,-10e-5 0.19311,0.019 0.37261,-0.042 0.560805,-0.068 0.197326,-0.023 0.396569,-0.024 0.595189,-0.027 0.175574,-0.05 0.356576,-0.072 0.539406,-0.084 0.204562,-0.011 0.409577,-0.011 0.61441,-0.011 0.210174,0 0.420347,4e-4 0.630519,6e-4 0.210136,2e-4 0.420273,2e-4 0.63041,2e-4 0.210048,0 0.420096,0 0.630145,0 0.210043,0 0.420085,0 0.630128,0 0.175468,0.025 0.345127,0.087 0.494855,0.1727 0.12901,0.074 0.252979,0.1532 0.385212,0.2234 0.115662,0.083 0.242026,0.1631 0.380145,0.2138 0.141714,0.064 0.25657,0.1601 0.380911,0.2463 0.120688,0.1043 0.246377,0.2032 0.358065,0.3159 0.123464,0.1114 0.273699,0.1928 0.403102,0.2978 0.133195,0.074 0.256551,0.1592 0.384773,0.2395 0.138407,0.055 0.242104,0.1567 0.377488,0.2155 0.147569,0.049 0.288758,0.1121 0.430855,0.1734 0.144417,0.065 0.280915,0.1213 0.441848,0.1455 0.159679,0.066 0.329967,0.09 0.503206,0.1043 0.199108,0 0.39157,0.01 0.585804,0.048 0.17903,0.016 0.345493,0.067 0.518345,0.107 0.08708,0.01 0.164195,0.044 0.244727,0.072 0,0 -1.283887,0.777 -1.283887,0.777 l 0,0 c -0.07735,-0.025 -0.155156,-0.048 -0.236047,-0.062 -0.168559,-0.044 -0.338724,-0.073 -0.511553,-0.1 -0.190765,-0.03 -0.384786,-0.017 -0.576714,-0.04 -0.176234,-0.022 -0.344913,-0.064 -0.513712,-0.1144 -0.164574,-0.039 -0.312013,-0.1069 -0.465388,-0.1715 -0.143139,-0.064 -0.292258,-0.116 -0.435729,-0.1794 -0.131639,-0.073 -0.252213,-0.1615 -0.387908,-0.2293 -0.128131,-0.087 -0.264731,-0.162 -0.389834,-0.2519 -0.136961,-0.1042 -0.288395,-0.1935 -0.412104,-0.3112 -0.109217,-0.1054 -0.229435,-0.1991 -0.348191,-0.2954 -0.112542,-0.083 -0.227617,-0.1635 -0.360363,-0.22 -0.136754,-0.065 -0.266754,-0.1422 -0.390204,-0.2262 -0.127232,-0.074 -0.252606,-0.1495 -0.382066,-0.2195 -0.140305,-0.062 -0.28143,-0.1207 -0.441785,-0.1181 -0.210042,0 -0.420086,0 -0.630128,0 -0.210052,0 -0.420104,0 -0.630154,0 -0.210156,0 -0.420313,-10e-5 -0.630469,-3e-4 -0.210033,-2e-4 -0.420069,-8e-4 -0.630098,3e-4 -0.20281,0 -0.406086,0 -0.607928,0.023 -0.182512,0.021 -0.360924,0.066 -0.544965,0.074 -0.195535,0.01 -0.391783,0.012 -0.584338,0.046 -0.190111,0.034 -0.377946,0.06 -0.572931,0.046 -0.210056,0 -0.420113,0 -0.63017,10e-5 -0.210199,10e-5 -0.420396,2e-4 -0.630594,5e-4 -0.209834,2e-4 -0.41969,7e-4 -0.6295,0 -0.200281,0 -0.401262,-0.011 -0.598883,-0.043 -0.184147,-0.031 -0.365965,-0.063 -0.554947,-0.054 -0.196275,-0.01 -0.392863,-0.019 -0.585297,-0.057 -0.18946,-0.034 -0.378292,-0.04 -0.571499,-0.033 -0.210043,0 -0.420086,0 -0.630131,0 -0.210044,0 -0.420088,0 -0.630132,0 -0.210047,0 -0.420094,0 -0.630141,0 -0.210058,-10e-5 -0.420116,-10e-5 -0.630174,-4e-4 -0.209936,-2e-4 -0.419878,-7e-4 -0.629814,3e-4 -0.20885,0 -0.41803,0 -0.626066,0.022 -0.212057,0.021 -0.421207,0.063 -0.634468,0.072 -0.210045,0 -0.420089,0 -0.630132,0 -0.2100449,0 -0.4200893,0 -0.6301337,0 -0.2100434,0 -0.4200888,0 -0.630133,0 -0.2100441,0 -0.4200881,0 -0.6301321,0 -0.210043,0 -0.420087,0 -0.63013,0 -0.2100507,0 -0.4201014,0 -0.6301522,0 -0.210112,-1e-4 -0.4202251,-3e-4 -0.6303371,-7e-4 -0.2099126,-3e-4 -0.4198544,0 -0.6297393,0 -0.2059027,0.01 -0.4128399,0.013 -0.6146951,0.053 -0.1880592,0.04 -0.3728453,0.092 -0.5645859,0.1183 -0.198194,0.026 -0.3991753,0.011 -0.5987451,0.024 -0.1861578,0.011 -0.3714082,0.03 -0.5515379,0.076 -0.1781871,0.033 -0.3636591,0.031 -0.5377185,0.084 -0.1633012,0.046 -0.3319357,0.071 -0.4928736,0.1247 -0.1626133,0.049 -0.3342479,0.08 -0.5022424,0.1097 -0.1694007,0.027 -0.3243783,0.082 -0.4835705,0.1383 -0.1501753,0.055 -0.291093,0.1292 -0.44813648,0.1701 -0.18356367,0.031 -0.35794972,0.043 -0.52537621,-0.049 -0.17572741,-0.1275 -0.2026131,-0.283 -0.17292099,-0.4789 0.0160915,-0.1588 0.0409585,-0.3171 0.11298312,-0.4646 0.0226233,-0.1621 0.07872,-0.3145 0.10783977,-0.4739 0.0277247,-0.1709 0.0935429,-0.3283 0.13734364,-0.4946 0.039833,-0.1676 0.0900789,-0.3317 0.11483631,-0.502 0.046391,-0.1749 0.0446086,-0.3485 0.0390216,-0.5282 1.0173e-4,-0.1887 2.7924e-4,-0.3774 6.8691e-4,-0.5662 3.423e-4,-0.1882 0.001272,-0.3764 -0.002144,-0.5646 -0.005045,-0.1845 -0.0125055,-0.3698 -0.0520621,-0.5515 -0.0401966,-0.1712 -0.0847589,-0.3409 -0.12125082,-0.5126 -0.0609796,-0.1761 -0.12709171,-0.3492 -0.13321994,-0.5362 0.0155239,-0.1579 0.03173,-0.3258 0.15916648,-0.4463 0.12181351,-0.077 0.22444286,-0.1752 0.34797282,-0.2499 0.36080095,-0.4526 0.001335,-0.019 1.43770505,-0.7853 0.4165213,-0.2223 -0.8377795,0.4372 -1.2573633,0.6548 -0.022075,0.011 0.042692,-0.025 0.064788,-0.037 1.4029443,-0.7241 0.8938656,-0.5513 1.4723022,-0.7428 0.1857481,-0.035 0.3690371,-0.056 0.5592237,-0.032 0.1862622,0.015 0.3695224,0.043 0.5529416,0.075 0.2031622,0.011 0.4070857,10e-4 0.6105173,0 0.2094262,-10e-5 0.4189059,-7e-4 0.6282664,0 0.1964339,0.01 0.3934499,0.018 0.5856681,0.058 0.1826634,0.036 0.366175,0.048 0.5517784,0.067 0.1847696,0.031 0.3619615,0.088 0.5474001,0.116 0.1839347,0.041 0.36469,0.095 0.5431109,0.1519 0.1608699,0.056 0.3309316,0.083 0.5039179,0.076 0.209553,-2e-4 0.4192243,1e-4 0.628597,-0.01 0.2083074,-0.011 0.4157811,-0.031 0.6195689,-0.073 0.1914493,-0.032 0.3872972,-0.036 0.5768466,-0.078 0.1840465,-0.037 0.3698533,-0.043 0.5568161,-0.063 0.185264,-0.028 0.368022,-0.073 0.557798,-0.062 0.208709,-0.01 0.417744,-0.013 0.624212,-0.043 0.211641,-0.031 0.422138,-0.062 0.637653,-0.048 0.208317,0 0.416699,5e-4 0.624924,-0.01 0.19136,-0.01 0.382878,-0.02 0.570142,-0.059 0.195263,-0.035 0.39091,-0.034 0.589613,-0.03 0.210044,0 0.420089,0 0.630134,0 0.210043,0 0.420086,0 0.630131,0 0.210043,0 0.420087,0 0.63013,0 0.210044,0 0.420089,0 0.630134,0 0.210102,0 0.420206,0 0.630307,-2e-4 0.210268,-2e-4 0.420536,-6e-4 0.630805,-3e-4 0.207305,8e-4 0.414851,0 0.621732,0.015 0.186249,0.015 0.369493,0.043 0.552878,0.076 0.202954,0.011 0.40669,0 0.60992,0 0.210044,0 0.420087,0 0.630132,0 0.210044,0 0.420089,0 0.630133,0 0.210045,0 0.420089,0 0.630132,0 0.210045,0 0.420089,0 0.630133,0 0.210042,0 0.420084,0 0.630128,0 0.210044,0 0.420087,0 0.630132,0 0.210153,0 0.420305,0 0.630458,3e-4 0.210477,3e-4 0.420954,10e-4 0.631433,0 0.204766,-3e-4 0.410093,6e-4 0.614081,-0.018 0.595946,-0.073 1.462503,-0.6792 -0.849776,0.541 4.457597,-2.3066 -1.08524,0.5867 0.389773,-0.2102 0.07138,-0.071 0.157855,-0.1283 0.24953,-0.1761 0.39393,-0.2053 3.121743,-1.6341 0.147364,-0.076 0.142439,-0.081 0.281413,-0.1699 0.411172,-0.2663 0.5901,-0.2828 -0.807307,0.3878 1.467635,-0.7603 3.602883,-1.8183 -1.955062,1.0235 -1.169659,0.6092 0.464676,-0.2451 0.939671,-0.475 1.394438,-0.7347 0.403497,-0.2304 -0.827009,0.4312 -1.240513,0.6468 0.474324,-0.2877 1.217829,-0.6415 1.538336,-0.8073 0.416324,-0.2155 -0.829921,0.4351 -1.245583,0.6516 -0.05084,0.026 0.207486,-0.1097 0.142223,-0.094 0.07447,-0.035 0.138411,-0.079 0.210914,-0.1163 0.426313,-0.2215 0.997642,-0.5872 1.53759,-0.7794 0.499615,-0.2301 0.141151,-0.066 -1.186309,0.6236 -0.02181,0.011 0.04229,-0.025 0.06406,-0.036 0.362775,-0.19 0.996753,-0.604 1.53679,-0.78 0.150297,-0.055 0.305714,-0.097 0.449594,-0.1651 0.16271,-0.051 0.323324,-0.1079 0.484061,-0.1635 0.175673,-0.069 0.359814,-0.12 0.545456,-0.1621 0,0 -1.23769,0.8502 -1.23769,0.8502 z"
       inkscape:connector-curvature="0" />
  </g>
</svg>
