<?xml version="1.0" encoding="UTF-8" standalone="no"?>
<!-- Created with Inkscape (http://www.inkscape.org/) -->

<svg
   xmlns:dc="http://purl.org/dc/elements/1.1/"
   xmlns:cc="http://creativecommons.org/ns#"
   xmlns:rdf="http://www.w3.org/1999/02/22-rdf-syntax-ns#"
   xmlns:svg="http://www.w3.org/2000/svg"
   xmlns="http://www.w3.org/2000/svg"
   xmlns:sodipodi="http://sodipodi.sourceforge.net/DTD/sodipodi-0.dtd"
   xmlns:inkscape="http://www.inkscape.org/namespaces/inkscape"
   width="150"
   height="100"
   id="svg2"
   version="1.1"
   inkscape:version="0.48.5 r10040"
   sodipodi:docname="smg.svg"
   inkscape:export-filename="C:\Users\narfman0\Desktop\smg.png"
   inkscape:export-xdpi="90.900002"
   inkscape:export-ydpi="90.900002">
  <defs
     id="defs4" />
  <sodipodi:namedview
     id="base"
     pagecolor="#ffffff"
     bordercolor="#666666"
     borderopacity="1.0"
     inkscape:pageopacity="0.0"
     inkscape:pageshadow="2"
     inkscape:zoom="3.046927"
     inkscape:cx="39.915662"
     inkscape:cy="36.60118"
     inkscape:document-units="px"
     inkscape:current-layer="layer1"
     showgrid="false"
     inkscape:window-width="1108"
     inkscape:window-height="709"
     inkscape:window-x="110"
     inkscape:window-y="110"
     inkscape:window-maximized="0" />
  <metadata
     id="metadata7">
    <rdf:RDF>
      <cc:Work
         rdf:about="">
        <dc:format>image/svg+xml</dc:format>
        <dc:type
           rdf:resource="http://purl.org/dc/dcmitype/StillImage" />
        <dc:title></dc:title>
      </cc:Work>
    </rdf:RDF>
  </metadata>
  <g
     inkscape:label="Layer 1"
     inkscape:groupmode="layer"
     id="layer1"
     transform="translate(0,-952.36218)">
    <path
       style="fill:#000000;fill-opacity:1;stroke:none"
       id="path2998"
       d="m 34.62505,12.895217 c 0,0.748556 0,1.497112 0,2.245669 0,0.697381 0,1.394763 0,2.092145 0,0.657551 0,1.315102 0,1.972653 0.123023,0.520867 0.20619,1.048212 0.262569,1.580058 0.173752,0.529896 0.265592,1.078831 0.328684,1.631274 0.06201,0.67476 0.06417,1.35301 0.06751,2.030024 0.0013,0.65919 -4.84e-4,1.318382 -0.0013,1.977572 -7.73e-4,0.656321 -9.26e-4,1.312642 -0.001,1.968963 -0.05681,0.53985 0.08728,1.047025 0.1803,1.572476 0.109517,0.66727 0.129489,1.344106 0.143282,2.018751 0.0092,0.662455 0.0071,1.324999 0.0064,1.987498 -8.97e-4,0.656656 -0.0013,1.313313 -0.0016,1.96997 0.05947,0.581856 -0.09443,1.2014 0.0286,1.775059 0.106887,0.483293 0.160473,0.970633 0.305899,1.443023 0.216724,0.725282 0.167556,0.120431 -0.40765,-0.04777 0.29066,-0.119 0.578415,-0.348115 0.874112,-0.514867 0.490809,-0.281869 1.04966,-0.415676 1.55874,-0.64747 0.366836,-0.253659 0.953365,-0.169349 1.28484,-0.474004 0.322478,-0.142255 0.49993,-0.398136 0.705489,-0.658208 0.169175,-0.305275 0.371592,-0.595717 0.462639,-0.93705 0.148371,-0.520707 0.28415,-1.049983 0.45379,-1.564958 0.187353,-0.48874 0.266805,-1.003485 0.426148,-1.50175 0.157386,-0.505611 0.165412,-1.037195 0.259341,-1.554972 0.146416,-0.507501 0.2157,-1.02717 0.252884,-1.552352 0.107926,-0.568474 0.249495,-1.12478 0.308532,-1.701386 0.04847,-0.59701 0.04954,-1.196523 0.05252,-1.795092 0.04719,-0.544595 -0.01914,-1.058014 -0.126674,-1.587084 -0.13462,-0.655909 -0.169844,-1.325149 -0.192108,-1.992522 -0.0099,-0.53945 -0.165238,-1.063803 -0.240598,-1.598497 -0.02639,-0.440171 -0.167471,-0.856746 -0.338486,-1.258042 -0.239554,-0.544251 -0.282102,-1.13814 -0.44533,-1.703118 -0.192754,-0.53278 -0.292849,-1.105995 -0.496248,-1.633381 -0.10482,-0.431762 -0.301412,-0.796506 -0.535858,-1.163296 -0.198451,-0.262346 -0.424664,-0.425811 -0.70147,-0.601008 -0.322306,-0.189056 -0.622303,-0.34972 -0.989923,-0.419648 -0.537948,-0.07811 -1.083418,-0.07756 -1.625825,-0.08229 -0.543132,-0.0022 -1.086269,2.04e-4 -1.6294,0.0016 -1.6245,0.0041 -1.630368,-2.29324 -0.0059,-2.29739 l 0,0 c 0.551904,-0.0014 1.103813,-0.0038 1.655717,-0.0015 0.699781,0.0063 1.404146,0.01009 2.095071,0.134991 0.641509,0.148197 1.215303,0.407202 1.773978,0.752288 0.5217,0.355602 1.007274,0.746101 1.363742,1.276097 0.330468,0.517543 0.604785,1.053572 0.770659,1.64813 0.191102,0.578996 0.339858,1.172492 0.533479,1.750964 0.13663,0.477618 0.194197,0.968532 0.351442,1.438498 0.249176,0.586984 0.443156,1.203424 0.499981,1.841835 0.08307,0.613835 0.269136,1.214834 0.261098,1.838386 0.01737,0.539009 0.04017,1.080226 0.147325,1.610384 0.138433,0.681303 0.217887,1.358981 0.172665,2.056146 -0.0034,0.675493 -0.006,1.352096 -0.06527,2.025518 -0.05962,0.549461 -0.147581,1.094796 -0.301848,1.62663 -0.04638,0.621111 -0.12226,1.239603 -0.292418,1.840739 -0.155283,0.584085 -0.07586,1.231192 -0.323377,1.800705 -0.166302,0.517298 -0.238266,1.058079 -0.446935,1.563564 -0.200313,0.468301 -0.266623,1.007375 -0.42903,1.490627 -0.199812,0.601219 -0.498384,1.159331 -0.858038,1.680484 -0.389237,0.481487 -0.792843,0.931261 -1.356054,1.217277 -0.504106,0.268146 -1.034872,0.429859 -1.572087,0.613663 -0.442199,0.169838 -0.894468,0.304932 -1.313377,0.531332 -0.593724,0.304032 -1.107771,0.766041 -1.816394,0.791747 -0.206815,-0.01081 -0.418087,0.01163 -0.620445,-0.03243 -0.751714,-0.163648 -1.164209,-0.849311 -1.330805,-1.540842 -0.179468,-0.591871 -0.265981,-1.198377 -0.385059,-1.804413 -0.07764,-0.692872 -0.04474,-1.388588 -0.04952,-2.085211 2.48e-4,-0.657197 6.87e-4,-1.314395 0.0016,-1.971593 7.01e-4,-0.646219 0.0028,-1.292481 -0.0059,-1.93866 -0.01107,-0.556867 -0.02337,-1.115849 -0.10905,-1.667311 -0.113891,-0.653414 -0.272946,-1.300741 -0.214999,-1.97062 1.02e-4,-0.657162 2.55e-4,-1.314326 0.001,-1.971488 8.21e-4,-0.654492 0.0026,-1.308985 0.0013,-1.963476 -0.0029,-0.596013 -0.0035,-1.193057 -0.05348,-1.787412 -0.05998,-0.560968 -0.203819,-1.098929 -0.330447,-1.647665 -0.06188,-0.61176 -0.213082,-1.206031 -0.27487,-1.817493 0,-0.657551 0,-1.315102 0,-1.972653 0,-0.697382 0,-1.394764 0,-2.092145 0,-0.748557 0,-1.497113 0,-2.245669 0,-1.624505 2.297396,-1.624505 2.297396,0 z"
       inkscape:connector-curvature="0"
       transform="translate(0,952.36218)" />
    <path
       style="fill:#000000;fill-opacity:1;stroke:none"
       id="path3000"
       d="m 44.831428,26.319206 c 0.748556,0 1.497112,0 2.245669,0 0.697381,0 1.394763,0 2.092145,0 0.796666,0 1.593332,0 2.389998,0 0.732357,0 1.464715,0 2.197072,0 0.660549,0 1.321099,0 1.981648,0 0.655475,0 1.31095,0 1.966424,0 0.656276,0 1.312552,0 1.968828,0 0.694339,-0.0438 1.369376,0.03424 2.048131,0.171387 0.530248,0.106609 1.071447,0.129285 1.610455,0.146582 0.593009,0.08292 1.171236,0.22739 1.767804,0.287127 0.706491,0.0073 1.379633,0.08464 2.044528,0.328489 0.837007,0.40618 1.044074,1.210582 1.308351,2.015089 0.211288,0.660864 0.260296,1.353758 0.291162,2.042138 -0.04101,0.551305 0.103645,1.071709 0.197875,1.608609 0.09115,0.546032 0.270058,1.069156 0.363108,1.618303 0.09575,0.678331 0.103412,1.364565 0.110666,2.048304 0.0038,0.660864 0.0015,1.321744 4.54e-4,1.982613 -0.001,0.656393 -0.0013,1.312787 -0.0015,1.969181 -1.22e-4,0.65633 -1.04e-4,1.312659 -9.9e-5,1.968988 9e-6,0.656395 1.4e-5,1.31279 1.7e-5,1.969185 3e-6,0.6564 3e-6,1.312799 3e-6,1.969199 0,0.6564 0,1.312799 0,1.969198 -0.04586,0.546431 0.01852,1.061956 0.125863,1.593029 0.198609,0.382814 0.419409,0.745291 0.583071,1.153764 0.230279,0.692551 0.255334,1.424756 0.274417,2.1475 0.01053,0.665916 0.0061,1.331956 0.0043,1.997922 -0.0019,0.656535 -0.0025,1.313073 -0.0029,1.969611 0.122602,0.521393 0.205926,1.049119 0.262328,1.581393 0.0021,0.561307 0.07593,1.095808 0.190955,1.641474 0.137529,0.658508 0.171037,1.331142 0.19251,2.001528 0.01522,0.664644 0.01308,1.329525 0.01256,1.994297 0.05896,0.582538 -0.09575,1.202629 0.02703,1.777015 0.07103,0.476096 0.284578,0.902967 0.41747,1.364868 0.100362,0.189724 0.202816,0.549058 0.384332,0.623727 0.30895,0.01807 0.646073,0.05578 0.965443,0.06866 0.636099,0.015 1.272474,0.0082 1.908679,0.0054 0.659296,-0.0031 1.318599,-0.0041 1.977902,-0.0047 0.260638,-0.04445 1.176207,0.113338 1.352516,-0.104662 0.384509,-0.129119 0.698374,-0.352607 1.022886,-0.583665 0.49086,-0.279577 0.359142,-0.127574 0.413265,-0.459963 -0.113622,-0.05597 -0.04443,-0.416509 -0.215993,-0.515363 -0.275339,-0.36553 -0.542452,-0.749805 -0.835578,-1.105249 -0.512577,-0.619347 -0.703801,-1.373 -0.804531,-2.151691 -0.06486,-0.689074 -0.05902,-1.382138 -0.05836,-2.073501 0.0022,-0.657986 0.0045,-1.31597 0.0057,-1.973959 0.001,-0.65601 0.0011,-1.312021 0.0011,-1.968032 2.9e-5,-0.65635 -2e-6,-1.3127 -1.7e-5,-1.969049 -1.4e-5,-0.656402 -1.7e-5,-1.312804 -1.8e-5,-1.969206 -0.02723,-0.640951 0.162911,-1.26004 0.248833,-1.889918 0.100572,-0.599902 0.363474,-1.143907 0.569903,-1.708563 0.157564,-0.514035 0.369597,-1.012718 0.601748,-1.497531 0.297897,-0.391045 0.466779,-0.837598 0.670454,-1.278932 0.233372,-0.493201 0.359201,-1.021327 0.53404,-1.53488 0.195933,-0.448657 0.260373,-0.926244 0.299243,-1.409199 0.07582,-0.503219 0.0066,-0.971762 -0.09226,-1.460997 -0.101859,-0.262184 -0.253928,-0.464311 -0.456985,-0.657373 -0.30882,-0.395304 -0.742926,-0.648084 -1.125959,-0.963633 -0.504655,-0.524323 -0.836828,-1.176332 -1.052798,-1.865314 -0.175055,-0.69379 -0.186948,-1.412261 -0.19859,-2.123449 -0.0057,-0.663273 -0.0018,-1.326582 -1.18e-4,-1.989865 0.0017,-0.656353 0.0021,-1.312707 0.0024,-1.969061 1.91e-4,-0.65629 1.59e-4,-1.31258 1.49e-4,-1.96887 -1.4e-5,-0.656393 -2.3e-5,-1.312786 -2.7e-5,-1.969179 -0.02723,-0.640951 0.162908,-1.260041 0.24883,-1.889919 0.119506,-0.649326 0.423843,-1.238159 0.747804,-1.805623 0.331076,-0.636917 0.811352,-1.104151 1.435052,-1.447676 0.457292,-0.291323 0.984021,-0.424076 1.483839,-0.619174 0.553554,-0.152916 1.081177,-0.372448 1.637956,-0.515721 0.580303,-0.138121 1.176733,-0.112165 1.755391,-0.245439 0.638676,-0.158598 1.29448,-0.21119 1.949557,-0.243303 0.714156,-0.02235 1.428011,-0.0476 2.139295,0.02459 0.761492,0.102535 1.508051,0.244105 2.227107,0.517943 0.502336,0.242272 1.047817,0.350801 1.571926,0.534042 0.50313,0.114322 0.997701,0.253516 1.495797,0.390145 0.566338,0.09409 1.116386,0.260493 1.681128,0.363506 0.575071,0.07659 1.11912,0.281064 1.692516,0.36915 0.567601,0.07029 1.140625,0.07363 1.711694,0.07922 0.651438,0.0033 1.302898,0.001 1.954338,1.9e-5 0.6969,0.06725 1.38204,0.207887 2.07956,0.272283 0.62169,0.04848 1.24565,0.05207 1.86885,0.05575 0.6537,0.0019 1.3074,3.59e-4 1.96109,-3.54e-4 0.65675,-6.97e-4 1.31351,-8.64e-4 1.97026,-9.71e-4 0.61208,0.06165 1.20699,0.212884 1.81935,0.274811 0.59748,0.04895 1.19746,0.05118 1.79655,0.05473 0.6538,0.0019 1.30761,3.46e-4 1.96141,-3.68e-4 0.65708,-7e-4 1.31416,-8.68e-4 1.97124,-9.74e-4 0.65648,-7.5e-5 1.31296,-6.1e-5 1.96944,-5.6e-5 0.6564,6e-6 1.31279,9e-6 1.96919,1.1e-5 0.65639,2e-6 1.31279,2e-6 1.96919,2e-6 0.6048,0.04781 1.18585,-0.03304 1.77875,-0.132729 0.70162,-0.121743 1.41279,-0.161259 2.12331,-0.184052 0.4524,0.03525 0.84007,-0.01606 1.23594,-0.200301 0.30224,-0.169132 0.5543,-0.390302 0.79366,-0.625226 0.3144,-0.322405 0.5585,-0.699666 0.82799,-1.058334 0.35055,-0.605185 0.94641,-0.950528 1.53954,-1.276341 0.56737,-0.302902 1.212,-0.334508 1.81995,-0.502136 0,0 9.24612,-0.408024 11.04701,-1.405064 0.29865,-0.186619 0.289,-0.287231 0.33724,-0.595496 0.061,-0.44272 -4.1e-4,-0.166972 -0.014,-0.168072 -0.0162,-0.0013 -0.096,-0.192737 -0.0605,-0.03119 -2.20856,-1.517848 -9.54618,-2.27028 -12.13834,-2.352693 -0.65,-0.007 -1.30005,-0.0045 -1.95007,-0.0035 -0.80754,0.01986 -1.48319,0.04127 -2.26284,-0.2122 -0.68039,-0.283272 -1.19694,-0.808209 -1.66548,-1.359598 -0.36281,-0.382846 -0.74446,-0.747046 -1.10649,-1.130711 -0.32687,-0.237431 -0.6515,-0.487006 -0.98111,-0.725847 -0.32138,-0.02437 -0.71684,-1.043796 -0.97126,-1.077619 -0.31363,-0.03774 -0.63403,-0.06867 -0.95252,-0.08336 -0.63262,-0.01785 -1.26563,-0.01125 -1.89841,-0.0087 -0.83222,0.07062 -1.51544,-0.272002 -2.1521,-0.764078 -0.56303,-0.341314 -0.63244,-1.045117 -1.00796,-1.5169985 -0.28175,-0.4130576 -0.4542,-0.8947347 -0.72427,-1.3127417 -0.35096,-0.2790748 -0.56817,-0.787948 -0.83957,-1.1712927 -0.22444,-0.3716764 -0.37599,-0.7505431 -0.72336,-1.0175333 -0.31401,-0.3297219 -0.55895,-0.6878573 -0.92731,-0.9573368 -0.30242,-0.1033989 -0.62947,-0.1153106 -0.94581,-0.1347924 -0.52285,-0.019657 -1.04147,-0.055004 -1.55428,0.053449 -0.63279,0.1491791 -1.27998,0.2052745 -1.92747,0.2391623 -0.23208,0.024622 -0.77319,-0.00973 -0.92304,0.2453634 -0.31023,0.1975507 -0.4684,0.5335249 -0.70167,0.8257506 -0.39141,0.3049151 -0.67405,0.7023887 -1.00467,1.0659784 -0.448,0.4750499 -1.02207,0.7073795 -1.5899,0.9903386 -0.52054,0.2072514 -1.0503,0.3914588 -1.58287,0.5672838 -0.67573,0.2019625 -1.38203,0.2364667 -2.0821,0.2597855 -0.66629,0.014824 -1.33282,0.011295 -1.999233,0.010076 -0.656795,-0.00149 -1.313591,-0.00219 -1.970388,-0.00259 -0.656273,-3.135e-4 -1.312547,-3.053e-4 -1.968821,-3.118e-4 -0.656385,3.5e-6 -1.31277,1.5e-5 -1.969155,2.08e-5 -0.6564,5.1e-6 -1.3128,5.7e-6 -1.9692,6.2e-6 -0.6564,3e-7 -1.312799,10e-8 -1.969198,10e-8 -0.656399,-10e-8 -1.312799,-10e-8 -1.969198,-10e-8 -0.656399,0 -1.312798,0 -1.969197,0 -0.656399,0 -1.312798,0 -1.969197,0 -0.656399,0 -1.312798,0 -1.969197,0 -0.656399,0 -1.312798,0 -1.969197,0 -0.656399,0 -1.312798,0 -1.969197,0 -0.6564,0 -1.312799,0 -1.969198,0 -0.656399,0 -1.312798,0 -1.969197,0 -0.656399,0 -1.312798,0 -1.969197,0 -0.546431,-0.045854 -1.061956,0.018518 -1.593029,0.1258635 -0.655324,0.1337741 -1.323834,0.1687447 -1.990488,0.1908797 -0.66469,0.015965 -1.32964,0.01399 -1.994473,0.013576 -0.656969,-8.147e-4 -1.313939,-0.00147 -1.970909,-0.00182 -0.80688,0.018307 -1.48221,0.039188 -2.261063,-0.2144875 C 61.25423,9.267846 61.087057,8.4351823 60.837416,7.5985686 60.627245,7.3132715 60.583853,6.9169896 60.331135,6.6593545 60.130554,6.330842 59.789223,6.1606566 59.490498,5.9162163 59.225633,5.6952412 59.024258,5.4713175 58.685746,5.3991265 58.255585,5.3637611 57.780102,5.2392979 57.353125,5.3393847 56.974236,5.3659449 56.696121,5.5291616 56.389067,5.7205825 56.323825,5.9079458 56.175622,6.1512304 56.096611,6.3791413 55.91878,6.8610639 55.781838,7.3581455 55.61206,7.843132 55.379687,8.3165245 55.166537,8.7945567 54.949859,9.2752777 54.46362,10.151886 53.603978,10.420514 52.67199,10.532191 c -0.687447,0.05478 -1.3779,0.04453 -2.066909,0.0416 -0.583683,0.05649 -1.204644,-0.100204 -1.780283,0.02192 0.08307,0.05296 0.0256,0.0019 -0.09425,0.09181 -0.03447,0.02587 0.08546,0.01053 0.07858,0.02641 -0.03855,0.08903 -0.09278,0.170414 -0.139169,0.255621 -0.178084,0.485149 -0.427295,0.929504 -0.703243,1.365268 -0.299103,0.442446 -0.702749,0.794202 -1.050091,1.19397 -0.348517,0.340703 -0.62922,0.721285 -0.974448,1.071341 -0.332477,0.313647 -0.710206,0.586996 -1.015588,0.928317 -0.383437,0.401426 -0.819407,0.734694 -1.279318,1.043965 -0.230657,0.206699 -0.492325,0.377476 -0.700518,0.609435 -1.144867,1.152517 -2.774772,-0.46657 -1.629905,-1.619087 l 0,0 c 0.334812,-0.325858 0.690605,-0.626977 1.064526,-0.907516 0.330404,-0.210329 0.624198,-0.435113 0.892509,-0.722602 0.331638,-0.333773 0.682211,-0.650033 1.040634,-0.953856 0.317766,-0.31688 0.575663,-0.675751 0.899812,-0.992793 0.271751,-0.29401 0.560183,-0.572057 0.812445,-0.881888 0.251281,-0.395479 0.456622,-0.801011 0.629461,-1.2404224 0.486476,-0.8743866 0.869905,-1.291191 1.864547,-1.5451703 0.696002,-0.07634 1.39452,-0.041192 2.094092,-0.042101 0.600778,0.00257 1.202542,0.011444 1.80242,-0.027463 0.138087,-0.013355 0.462705,-0.139315 0.453148,0.04955 0.213254,-0.4079739 0.369894,-0.8530115 0.588152,-1.2557765 0.208865,-0.4746476 0.297005,-1.0128214 0.496028,-1.4942174 0.272432,-0.6736053 0.606111,-1.351176 1.219081,-1.7775296 0.586385,-0.3655309 1.198969,-0.6356168 1.894104,-0.7112097 0.753141,-0.073321 1.516452,-0.035132 2.256509,0.1324888 0.636384,0.199172 1.161253,0.5179183 1.648122,0.9684308 0.40817,0.3754058 0.938588,0.6312814 1.212688,1.1419304 0.352349,0.5109246 0.617778,1.0655321 0.853779,1.6390977 0.02619,0.087785 0.159768,0.5337871 0.172406,0.5849715 0.05826,0.2359521 -0.116007,0.037162 -0.236767,0.03388 -0.121123,0.076848 0.283819,0.051284 0.427263,0.051303 0.216225,2.8e-5 0.440559,6.85e-5 0.656783,1.368e-4 0.109501,3.46e-5 0.219002,8.26e-5 0.328503,1.24e-4 0.65704,3.507e-4 1.314079,0.001 1.971119,0.00182 0.639337,4.007e-4 1.278783,0.00237 1.917994,-0.012351 0.539006,-0.017297 1.080201,-0.039972 1.610446,-0.1465814 0.678749,-0.1371449 1.353781,-0.2151852 2.048114,-0.1713878 0.656399,0 1.312798,0 1.969197,0 0.656399,0 1.312798,0 1.969197,0 0.656399,0 1.312798,0 1.969198,0 0.656399,0 1.312798,0 1.969197,0 0.656399,0 1.312798,0 1.969197,0 0.656399,0 1.312798,0 1.969197,0 0.656399,0 1.312798,0 1.969197,0 0.656399,0 1.312798,0 1.969197,0 0.6564,0 1.312799,0 1.969198,1e-7 0.656399,0 1.312797,2e-7 1.969196,-1e-7 0.656394,-5e-7 1.312788,-1.1e-6 1.969182,-6.2e-6 0.656399,-5.8e-6 1.312798,-1.73e-5 1.969198,-2.08e-5 0.656732,6.5e-6 1.313464,-1.7e-6 1.970196,3.122e-4 0.657732,4.003e-4 1.315463,0.00111 1.973193,0.00259 0.640064,0.00117 1.280244,0.00457 1.920224,-0.00886 0.48468,-0.015379 0.97547,-0.027366 1.44771,-0.148804 0.44578,-0.1406647 0.88602,-0.3026758 1.32309,-0.4651479 0.26777,-0.1207304 0.69425,-0.2308558 0.88127,-0.4768924 0.31012,-0.3074732 0.54263,-0.7231375 0.90975,-0.9579436 0.38102,-0.4216684 0.63243,-0.9724669 1.16134,-1.2494934 0.6429,-0.4107826 1.34213,-0.6706798 2.11803,-0.654412 0.53544,-0.026887 1.07061,-0.070467 1.5933,-0.1972796 0.71445,-0.1387744 1.43134,-0.1379326 2.15657,-0.093438 0.78426,0.053667 1.5694,0.1540741 2.22523,0.628927 0.38219,0.3131822 0.74007,0.6516842 1.033,1.046674 0.44838,0.4204688 0.8256,0.8861158 1.09282,1.442148 0.29421,0.4468296 0.54364,0.9157403 0.92194,1.3028313 0.22762,0.4078073 0.43136,0.828506 0.67292,1.2284685 0.18022,0.2978502 0.35535,0.6239052 0.47705,0.9363871 0.30548,0.236109 0.27856,0.3245628 0.7378,0.2844376 0.67329,-0.00274 1.34684,-0.00988 2.01991,0.01139 0.80719,0.041157 1.6189,0.1170153 2.29835,0.6025293 0.33783,0.30181 0.62461,0.642819 0.87861,1.005427 0.43976,0.3287 0.89731,0.639768 1.30124,1.012343 0.37388,0.419031 0.80331,0.787662 1.17578,1.209013 0.22304,0.265941 0.44661,0.548896 0.7595,0.707617 -0.12117,0.07618 0.28324,0.05102 0.42637,0.0509 0.23049,-2.03e-4 0.42545,-4.28e-4 0.65594,-7.43e-4 0.10941,-1.5e-4 0.21881,-3.23e-4 0.32821,-4.84e-4 0.66443,-10e-4 1.3289,-0.0036 1.9933,0.0038 3.20454,-0.04697 10.98764,1.203878 13.52951,2.852329 0.75025,0.681517 1.08337,1.405018 0.89812,2.438782 -0.15946,0.751319 -0.44417,1.449818 -1.10219,1.902506 -0.50553,0.406387 -1.06198,0.749561 -1.70142,0.900362 -1.79338,0.438582 -8.50012,0.663675 -10.2276,0.971213 -0.44328,0.120993 -0.89699,0.175392 -1.3348,0.307443 -0.35418,0.186106 -0.60927,0.285876 -0.80801,0.651987 -0.34615,0.436239 -0.64581,0.909545 -1.04513,1.303546 -0.4377,0.426939 -0.9152,0.765299 -1.44381,1.072076 -0.6779,0.307372 -1.3735,0.446688 -2.12016,0.407914 -0.60725,0.01892 -1.21536,0.04941 -1.81509,0.153408 -0.71687,0.120508 -1.43053,0.208954 -2.15964,0.164523 -0.6564,0 -1.3128,0 -1.9692,-2e-6 -0.6564,-2e-6 -1.31279,-5e-6 -1.96919,-1.2e-5 -0.65635,-4e-6 -1.31271,-1.8e-5 -1.96906,5.7e-5 -0.65637,1.06e-4 -1.31273,2.73e-4 -1.9691,9.72e-4 -0.65923,7.2e-4 -1.31846,0.0023 -1.97768,3.29e-4 -0.67373,-0.0041 -1.3485,-0.008 -2.02016,-0.06699 -0.53235,-0.05641 -1.06017,-0.139739 -1.58161,-0.262516 -0.65604,1.06e-4 -1.31208,2.73e-4 -1.96813,9.7e-4 -0.65909,7.18e-4 -1.31819,0.0023 -1.97728,3.14e-4 -0.69026,-0.0041 -1.38134,-0.0094 -2.06975,-0.06575 -0.62455,-0.05936 -1.24382,-0.151769 -1.86135,-0.262241 -0.66026,0.001 -1.32052,0.0034 -1.980759,-1.3e-4 -0.684862,-0.0069 -1.372092,-0.01434 -2.051798,-0.107951 -0.592331,-0.09728 -1.15881,-0.284513 -1.749374,-0.37898 -0.629806,-0.118673 -1.245315,-0.293688 -1.875609,-0.408469 -0.546722,-0.152988 -1.090269,-0.293723 -1.640094,-0.435347 -0.558239,-0.19537 -1.142139,-0.309914 -1.676464,-0.573487 -0.508834,-0.243057 -1.092941,-0.250153 -1.636823,-0.365912 -0.576496,-0.09461 -1.174681,0.0043 -1.756157,-0.01099 -0.522603,0.02454 -1.046411,0.06088 -1.55561,0.189925 -0.565012,0.125058 -1.133238,0.152845 -1.704249,0.233316 -0.463311,0.108599 -0.895086,0.316138 -1.358079,0.426639 -0.438514,0.171134 -0.898381,0.280918 -1.298257,0.537123 -0.233306,-0.01633 -0.361964,0.421094 -0.485248,0.570419 -0.199859,0.28303 -0.327178,0.620788 -0.443088,0.94188 -0.07437,0.525212 -0.229038,1.042399 -0.226839,1.57279 5e-6,0.656388 1.4e-5,1.312775 2.8e-5,1.969162 9e-6,0.656615 4.1e-5,1.313229 -1.5e-4,1.969843 -2.69e-4,0.658011 -6.98e-4,1.316022 -0.0024,1.974031 -0.0017,0.649051 -0.0054,1.298127 -1.68e-4,1.947169 0.0079,0.503757 0.0098,1.012192 0.104588,1.508795 0.0697,0.279455 0.226759,0.507965 0.334698,0.763814 0.411473,0.373339 0.931245,0.631425 1.264593,1.0912 0.509687,0.520834 0.900285,1.113808 1.085252,1.827809 0.141246,0.699532 0.216809,1.39487 0.129648,2.108724 -0.05896,0.678118 -0.160997,1.352281 -0.423776,1.985724 -0.221256,0.568291 -0.335377,1.181254 -0.614117,1.731034 -0.206127,0.443816 -0.370137,0.924789 -0.683141,1.305867 -0.204035,0.4259 -0.391393,0.860845 -0.523906,1.31521 -0.15556,0.405646 -0.340644,0.791388 -0.444336,1.215593 -0.07437,0.525215 -0.229039,1.042405 -0.226842,1.572799 2e-6,0.656387 5e-6,1.312774 1.9e-5,1.969162 1.5e-5,0.656443 4.6e-5,1.312886 1.7e-5,1.96933 -6.6e-5,0.65733 -1.31e-4,1.31466 -0.0011,1.97199 -0.0012,0.65734 -0.0035,1.314677 -0.0057,1.972015 -6.02e-4,0.59717 -0.0064,1.195587 0.04124,1.791326 0.04045,0.361636 0.08012,0.715496 0.324135,1.003877 0.338993,0.435912 0.673997,0.878906 0.992408,1.329121 0.400069,0.714581 0.613739,1.470098 0.48316,2.295771 -0.21031,0.735545 -0.570291,1.428809 -1.307898,1.75723 -0.469955,0.331742 -0.948071,0.639616 -1.491632,0.84002 -0.72076,0.255249 -1.448439,0.313762 -2.210904,0.271901 -0.656628,6.03e-4 -1.313257,0.0016 -1.969879,0.0047 -0.672261,0.003 -1.344729,0.01029 -2.016848,-0.0075 -0.812702,-0.03621 -1.631443,-0.101644 -2.320114,-0.584172 -0.545214,-0.493901 -0.921797,-1.079861 -1.144444,-1.785891 -0.148076,-0.562326 -0.434267,-1.084751 -0.48134,-1.674717 -0.07724,-0.693389 -0.04372,-1.389518 -0.04774,-2.086608 5.05e-4,-0.640043 0.0026,-1.280187 -0.01142,-1.920117 -0.01656,-0.535468 -0.03721,-1.073491 -0.144261,-1.600095 -0.131051,-0.621864 -0.223041,-1.24075 -0.228049,-1.877917 -0.06195,-0.612572 -0.213255,-1.207712 -0.274623,-1.82005 3.71e-4,-0.658178 9.91e-4,-1.316356 0.0029,-1.974532 0.0017,-0.644183 0.006,-1.288432 -0.0036,-1.932573 -0.01162,-0.464943 -0.01686,-0.936309 -0.125507,-1.39097 -0.168788,-0.527788 -0.609382,-0.944005 -0.687217,-1.514342 -0.137145,-0.678749 -0.215186,-1.353781 -0.171388,-2.048114 0,-0.656399 0,-1.312798 0,-1.969197 0,-0.656397 0,-1.312793 -3e-6,-1.96919 -3e-6,-0.656392 -8e-6,-1.312784 -1.6e-5,-1.969177 -5e-6,-0.656534 -2.4e-5,-1.313069 9.9e-5,-1.969603 1.71e-4,-0.657383 4.46e-4,-1.314766 0.0015,-1.972147 0.001,-0.651664 0.0033,-1.303338 -3.31e-4,-1.954997 -0.0059,-0.566896 -0.0093,-1.135818 -0.08028,-1.699148 -0.08523,-0.542096 -0.288254,-1.053234 -0.359569,-1.597414 -0.108799,-0.6311 -0.266484,-1.255524 -0.229729,-1.902182 -0.02038,-0.478933 -0.04081,-0.963781 -0.178815,-1.42628 -0.07574,-0.231039 -0.424675,-0.756371 -0.0056,-0.609341 -0.225849,-0.241559 -1.09359,-0.0702 -1.400039,-0.165338 -0.541643,-0.05706 -1.078837,-0.141729 -1.607225,-0.276239 -0.666655,-0.02213 -1.335166,-0.0571 -1.990492,-0.190879 -0.531081,-0.107346 -1.046613,-0.171718 -1.593051,-0.125864 -0.656276,0 -1.312552,0 -1.968828,0 -0.655474,0 -1.310949,0 -1.966424,0 -0.660549,0 -1.321099,0 -1.981648,0 -0.732357,0 -1.464715,0 -2.197072,0 -0.796666,0 -1.593332,0 -2.389998,0 -0.697382,0 -1.394764,0 -2.092145,0 -0.748557,0 -1.497113,0 -2.245669,0 -1.624505,0 -1.624505,-2.297396 0,-2.297396 z"
       inkscape:connector-curvature="0"
       transform="translate(0,952.36218)"
       sodipodi:nodetypes="cssssssccccccccccccssscccccccccccccccccccccccccsccccccccccccccsccccccccccccccccccccccccsscccccccccccccccccccccccccccccccccccccccssssssssssscccccccccccccccccccccccccccccccccccccccccccccccscsscccccsssssssssssccccccccccccccccccccccccccsccccccccccccccssccccccccccccccccccccccccsccccccccccccccscccccccccccccccccccccccccsssccccccccccccssssssscc" />
    <path
       style="fill:#4d4d4d;fill-opacity:1;stroke:none"
       d="m 34.629598,13.885818 c -0.392806,6.473435 0.84803,12.972241 0.795658,19.475593 0.164245,1.79726 -0.04649,3.715531 0.394065,5.447059 2.238194,-0.148482 4.7219,-1.708652 5.210168,-4.092238 1.827583,-6.227546 1.764937,-13.120374 -0.95383,-19.076598 -1.026261,-1.922658 -3.63557,-1.862661 -5.446061,-1.753816 z"
       id="path3006"
       inkscape:connector-curvature="0"
       transform="translate(0,952.36218)" />
    <path
       style="fill:#4d4d4d;fill-opacity:1;stroke:none"
       d="m 57.654846,5.1167368 c -1.462493,-0.033654 -1.921587,1.2786641 -2.184578,2.4204715 -0.387552,1.753193 -1.860637,2.9223877 -3.681617,2.6822317 -1.578123,-0.05106 -3.458724,-0.3610701 -3.887485,1.6459 -1.270029,2.216443 -3.707578,3.594173 -5.128117,5.599904 1.071513,2.801853 1.036275,5.883199 1.620485,8.758825 7.340714,0.503002 14.907043,-0.102728 22.143212,1.169211 2.038848,0.513988 1.712659,3.300499 2.143236,4.930715 1.002592,6.115408 0.214438,12.376447 1.005428,18.48427 1.153812,5.522623 0.530239,11.366472 1.712792,16.89202 1.341884,1.384696 3.693938,0.523396 5.425062,0.710319 1.116187,0.116035 3.470408,-0.555399 2.482495,-2.064142 -1.310813,-1.417727 -1.571062,-3.129166 -1.308384,-5.004695 0.230399,-3.650048 -0.235801,-7.455998 0.430536,-11.008341 0.961463,-2.502649 2.877315,-5.342363 1.85219,-8.078861 -1.22485,-1.301869 -2.397323,-2.726226 -2.225603,-4.615306 0.105165,-3.762586 -0.541358,-7.786479 0.461531,-11.384421 1.428042,-3.089293 5.466324,-3.077273 8.348575,-3.610195 4.440425,-0.09186 8.572346,2.276951 13.055292,2.178054 9.234674,0.504557 18.553114,0.898332 27.764524,0.365492 1.74532,-1.757361 3.54181,-3.719714 6.21555,-3.765292 3.35405,-0.590233 10.77767,0.789277 11.64056,-2.398705 -0.27649,-1.555269 -8.659,-1.14082 -9.85625,-1.82561 -2.65807,-1.007717 -5.72829,-0.328741 -8.33255,-1.043944 -2.1591,-1.628796 -3.90884,-4.844658 -7.06205,-4.299555 -2.95289,0.257551 -3.32133,-3.2053791 -4.91274,-4.9024801 -0.91132,-1.739967 -2.84167,-2.1046275 -4.61531,-1.7743287 -3.09821,-0.138541 -4.23405,3.7985239 -7.3407,3.6321313 C 92.647434,9.5464281 81.822971,9.1374107 71.029182,9.3494145 67.993268,9.3675574 64.957354,9.3857002 61.92144,9.4038431 61.065598,7.6457189 60.043933,4.9728402 57.654846,5.1167368 z"
       id="path3008"
       inkscape:connector-curvature="0"
       transform="translate(0,952.36218)"
       sodipodi:nodetypes="ccccccccccccccccccccccccccccccc" />
    <path
       style="fill:#000000;fill-opacity:1;stroke:none"
       id="path3010"
       d="m 68.789993,48.964973 c 0.821926,0.08731 1.640277,0.192362 2.441186,0.39911 0.538612,0.157412 1.09571,0.209117 1.653321,0.239191 0.678274,0.0097 1.346305,0.0086 2.014504,0.136647 0.521888,0.123465 1.055864,0.164596 1.58984,0.190334 0.555424,-0.03494 1.14859,0.112037 1.695957,-0.0072 0.448891,-0.156717 0.894024,-0.35323 1.370702,-0.471172 1.58078,-0.374368 2.110216,1.861192 0.529436,2.23556 l 0,0 c -0.549901,0.118608 -1.02533,0.450636 -1.591712,0.512211 -0.703534,0.07816 -1.410556,0.04639 -2.117455,0.02525 -0.645292,-0.03238 -1.290495,-0.08578 -1.921804,-0.231067 -0.559467,-0.115748 -1.127362,-0.06359 -1.696793,-0.09666 -0.709498,-0.04029 -1.417918,-0.113546 -2.103929,-0.30954 -0.613326,-0.160782 -1.237516,-0.225779 -1.863253,-0.325229 -1.624504,0 -1.624504,-2.297397 0,-2.297397 z"
       inkscape:connector-curvature="0"
       transform="translate(0,952.36218)" />
    <path
       style="fill:#000000;fill-opacity:1;stroke:none"
       id="path3012"
       d="m 80.174056,30.975564 c 0.722351,0.145318 1.460252,0.165593 2.185302,0.287258 0.566006,0.145592 1.139981,0.233564 1.722008,0.276058 0.615757,0.03461 1.232789,0.03346 1.8493,0.03441 0.655332,-1.83e-4 1.310663,-0.0015 1.965995,-0.0022 0.656934,-5.91e-4 1.313868,-6.68e-4 1.970802,-7.26e-4 0.539946,0.05674 1.047229,-0.08734 1.572777,-0.180361 0.516175,-0.225954 1.071775,-0.329019 1.626782,-0.402839 0.563025,0.0014 1.095941,-0.154003 1.644652,-0.255348 0.439154,-0.230639 0.955595,-0.234446 1.41109,-0.401787 0.396178,-0.189935 0.832611,-0.33439 1.225914,-0.538632 0.419991,-0.139407 0.785341,-0.348083 1.150181,-0.587553 0.429802,-0.205678 0.799572,-0.491273 1.165385,-0.789069 0.217444,-0.309502 0.657316,-0.491612 0.810676,-0.845512 0.30016,-0.438458 0.55793,-0.877999 0.91275,-1.281079 0.11302,-0.200292 0.29134,-0.349629 0.38168,-0.563164 0.76844,-1.431265 2.79255,-0.344531 2.02412,1.086734 l 0,0 c -0.20092,0.353981 -0.43229,0.674988 -0.68237,0.995577 -0.27933,0.316527 -0.47559,0.682582 -0.72846,1.042029 -0.36351,0.506621 -0.81372,0.926406 -1.27052,1.349146 -0.42635,0.344809 -0.8586,0.685183 -1.354196,0.927 -0.45931,0.300289 -0.929264,0.567889 -1.448093,0.752567 -0.505209,0.222551 -1.01138,0.445669 -1.522665,0.651183 -0.554359,0.15581 -1.121614,0.257079 -1.662912,0.462606 -0.586651,0.105435 -1.16348,0.270993 -1.764428,0.273963 -0.526242,0.06403 -1.019402,0.220068 -1.521855,0.386885 -0.653311,0.113856 -1.300535,0.272883 -1.970305,0.21505 -0.656226,5.8e-5 -1.312451,1.35e-4 -1.968677,7.25e-4 -0.657308,6.66e-4 -1.314615,0.002 -1.971923,0.0022 -0.672715,-0.0011 -1.346029,-4.22e-4 -2.017799,-0.04086 -0.660483,-0.05072 -1.315727,-0.140183 -1.958249,-0.306183 -0.731629,-0.150884 -1.498153,-0.112891 -2.227519,-0.295292 -1.592958,-0.318592 -1.142401,-2.571374 0.450557,-2.252783 z"
       inkscape:connector-curvature="0"
       transform="translate(0,952.36218)" />
    <path
       style="fill:#000000;fill-opacity:1;stroke:none"
       id="path3014"
       d="m 86.476934,23.627385 c 0.230254,0.627917 0.509881,1.237595 0.802089,1.839215 0.227836,0.597122 0.486817,1.181514 0.656361,1.799072 0.209489,0.856811 0.209293,1.565688 -0.171894,2.377416 -0.713671,1.459346 -2.777497,0.450063 -2.063827,-1.009282 l 0,0 c 0.164567,-0.301732 -0.0102,-0.0354 0.07422,-0.02627 0.06915,0.0075 -0.0462,-0.696479 -0.05945,-0.754131 -0.117362,-0.477921 -0.34829,-0.917147 -0.502029,-1.383243 -0.315948,-0.65076 -0.614587,-1.31234 -0.868554,-1.989547 -0.603326,-1.508314 1.529753,-2.361546 2.133079,-0.853231 z"
       inkscape:connector-curvature="0"
       transform="translate(0,952.36218)" />
    <path
       style="fill:#000000;fill-opacity:1;stroke:none"
       id="path3016"
       d="m 120.74062,979.69818 c -0.0303,0.64612 0.017,1.27129 0.0896,1.90553 0.0558,0.19153 0.12195,0.56263 0.2439,0.62552 0.23449,0.29548 0.518,0.47876 0.77229,0.7388 0.44088,0.32577 0.72686,0.79048 0.93685,1.44969 0.16797,0.7144 0.17232,1.47475 0.17941,2.22221 -9e-4,0.70439 0.018,1.40858 -0.0369,2.10886 -0.17764,1.14019 -0.79128,1.56716 -1.50856,1.71538 -0.20887,0.0607 -0.42845,-0.01 -0.63489,0.0747 -0.042,0.0172 -0.12683,0.16251 -0.15921,0.19708 -0.0772,0.18796 -0.0747,0.45929 -0.0894,0.6762 -0.0275,0.60035 -0.0218,1.20275 -0.0202,1.8041 0.003,0.65905 0.005,1.31811 0.005,1.97717 6.6e-4,0.65738 6.7e-4,1.31475 6.7e-4,1.97213 0,0.65641 -2e-5,1.31283 -2e-5,1.96925 0.0385,0.24323 -0.0619,0.55853 0.0194,0.79066 0.004,0.0124 0.0102,-0.0236 0.0152,-0.0355 0.0157,0.0434 0.0313,0.0868 0.047,0.13014 0.005,0 0.0105,0 0.0156,-0.01 -0.0212,-0.14091 0.40424,-0.011 0.47281,0 0.42187,0.023 0.84418,0.015 1.26624,0.012 0.44564,0 0.8913,-0.01 1.33695,-0.01 0.44384,-7e-4 0.88768,-6e-4 1.33152,-6e-4 0.37512,-0.01 0.74831,0.042 1.11646,-0.0716 0.0238,-0.0436 0.0391,-0.0563 -0.0385,-0.0213 -0.16268,0.0733 -0.0431,-0.18222 6.8e-4,-0.3802 0.11485,-0.44141 0.1433,-0.9106 0.16414,-1.37814 0.0203,-0.61969 0.0185,-1.24038 0.0185,-1.86062 -5.9e-4,-0.65692 -9e-4,-1.31383 -0.002,-1.97074 -0.0366,-0.50872 -0.18907,-0.96843 -0.28548,-1.45694 -0.14362,-0.44376 -0.22494,-0.9191 -0.34665,-1.37505 -0.11772,-0.2984 -0.28288,-0.54338 -0.43562,-0.80471 -0.18041,-0.22873 -0.39792,-0.38366 -0.60315,-0.56297 -0.37255,-0.24144 -0.69729,-0.53712 -0.9888,-0.95948 -0.36032,-0.67882 -0.41395,-1.50941 -0.44179,-2.3393 -0.0485,-0.73995 0.0613,-1.4636 0.13628,-2.18991 0.0302,-0.7434 0.0991,-1.42752 0.33351,-2.09598 0.27945,-0.60154 0.70677,-1.03437 1.12661,-1.40579 0.23747,-0.3134 0.57638,-0.4107 0.81276,-0.72072 -0.0586,-0.14511 0.009,-0.47212 0.0183,-0.6463 0.0295,-0.30218 0.008,-0.58163 -0.0338,-0.87465 -0.21147,-1.59405 1.31128,-2.03678 1.52274,-0.44273 l 0,0 c 0.0638,0.50095 0.0976,1.00001 0.0574,1.50958 -0.0527,0.87563 -0.17103,1.71871 -0.65177,2.31197 -0.3072,0.31453 -0.64344,0.54365 -0.95182,0.85426 -0.16249,0.12483 -0.40954,0.52754 -0.52934,0.49046 -0.0185,0.0499 -0.0565,0.0812 -0.0725,0.13307 -0.11395,0.37002 -0.005,0.85278 -0.0982,1.2352 -0.06,0.57644 -0.15925,1.14538 -0.12008,1.73261 0.008,0.28226 0.049,0.64313 0.0345,0.894 0.0947,0.25255 0.48389,0.34139 0.65165,0.55019 0.33574,0.32331 0.7094,0.57187 0.97718,1.03388 0.25884,0.45831 0.53693,0.89419 0.69916,1.45297 0.14029,0.52562 0.24182,1.06806 0.39524,1.5867 0.12981,0.6925 0.35219,1.34914 0.34549,2.08736 4.4e-4,0.65775 0.002,1.3155 0.002,1.97325 -5e-5,0.67254 9e-4,1.34559 -0.0222,2.01742 -0.0316,0.66456 -0.0841,1.32951 -0.24254,1.95827 -0.24527,1.0154 -0.35327,1.5711 -1.13106,1.9181 -0.46995,0.1333 -0.94033,0.1293 -1.4175,0.1153 -0.44318,0 -0.88637,-10e-5 -1.32957,5e-4 -0.44376,9e-4 -0.88753,0 -1.3313,0.01 -0.45818,0 -0.9167,0.012 -1.3746,-0.017 -0.59377,-0.06 -1.17265,-0.1945 -1.59749,-0.8782 -0.32985,-0.6955 -0.47655,-1.43256 -0.42363,-2.28841 1e-5,-0.65636 3e-5,-1.31271 3e-5,-1.96907 -3e-5,-0.65598 -3e-5,-1.31197 -6.8e-4,-1.96795 -6.7e-4,-0.65748 -0.002,-1.31496 -0.005,-1.97243 -0.002,-0.6908 -0.008,-1.3831 0.0301,-2.0722 0.0726,-0.88772 0.23421,-1.72111 0.73551,-2.29306 0.45745,-0.47305 0.93413,-0.70114 1.4941,-0.67492 0.34771,-0.052 0.0947,-8.3e-4 0.16747,0.24611 0.083,-0.56877 -0.0144,-1.18298 0.0222,-1.76012 -0.004,-0.45532 -0.005,-0.91377 -0.0584,-1.36371 6.7e-4,-0.0142 0.0252,-0.0726 0.0247,-0.0734 -0.12368,-0.18076 -0.3181,-0.22264 -0.44224,-0.40666 -0.25058,-0.3266 -0.61592,-0.43365 -0.8414,-0.81755 -0.41017,-0.55108 -0.67403,-1.21471 -0.79341,-2.02307 -0.0867,-0.75949 -0.14034,-1.5166 -0.11125,-2.28855 0,-1.6245 1.55183,-1.6245 1.55183,0 z"
       inkscape:connector-curvature="0" />
    <path
       style="fill:#000000;fill-opacity:1;stroke:none"
       id="path3018"
       d="m 132.10031,15.849012 c 0,0.748557 0,1.497113 0,2.24567 0,0.697381 0,1.394763 0,2.092144 0.008,0.08429 -0.0551,1.390856 0.10259,1.224562 0.20154,0.311419 0.5124,0.493371 0.80809,0.699987 1.32574,0.938842 -0.002,2.813724 -1.32772,1.874882 l 0,0 c -0.53443,-0.38743 -1.06414,-0.769743 -1.42028,-1.344102 -0.49745,-0.908297 -0.4882,-1.462924 -0.46008,-2.455329 0,-0.697381 0,-1.394763 0,-2.092144 0,-0.748557 0,-1.497113 0,-2.24567 0,-1.624504 2.2974,-1.624504 2.2974,0 z"
       inkscape:connector-curvature="0"
       transform="translate(0,952.36218)" />
    <path
       style="fill:#000000;fill-opacity:1;stroke:none"
       id="path3022"
       d="m 104.56374,6.6272337 c 0.72085,-0.00547 1.42818,0.1625732 2.142,0.2457009 0.61298,0.040991 1.19652,0.2437499 1.8025,0.3327205 0.55901,0.056684 1.08945,0.2479995 1.64483,0.3298417 0.56885,0.067795 1.14272,0.071553 1.7148,0.077278 0.60646,0.068116 1.19702,0.2147622 1.80479,0.275175 0.59856,0.04809 1.19954,0.050135 1.79964,0.053545 0.65394,0.0018 1.30787,2.455e-4 1.96181,-4.646e-4 0.25864,-0.058349 0.52036,-0.094286 0.77033,-0.1841611 1.54868,-0.4905139 2.24237,1.6996513 0.69369,2.1901652 l 0,0 c -0.47745,0.1429804 -0.96178,0.2588794 -1.46152,0.2913914 -0.65917,7.16e-4 -1.31833,0.0023 -1.97749,4.28e-4 -0.67361,-0.0039 -1.34823,-0.0075 -2.01985,-0.06539 -0.53682,-0.05593 -1.06906,-0.139165 -1.5947,-0.2634072 -0.68061,-0.00699 -1.36337,-0.014562 -2.03927,-0.1036358 -0.55442,-0.087086 -1.08708,-0.2579676 -1.64133,-0.3293069 -0.58093,-0.089989 -1.14247,-0.2672902 -1.72657,-0.3225045 -0.62495,-0.074106 -1.24519,-0.2178694 -1.87366,-0.2299762 -1.6245,0 -1.6245,-2.2973967 0,-2.2973967 z"
       inkscape:connector-curvature="0"
       transform="translate(0,952.36218)" />
    <path
       style="fill:#000000;fill-opacity:1;stroke:none"
       id="path3024"
       d="m 53.467537,8.5794795 c 0.792953,-0.1534694 1.597965,-0.2242791 2.403151,-0.2723212 0.718432,-0.036715 1.43796,-0.039336 2.157141,-0.041103 0.658837,-3.888e-4 1.317672,8.565e-4 1.976508,0.00146 0.640127,-0.026616 1.258281,0.1636637 1.887343,0.2495629 0.608941,0.1539583 1.217383,0.2890462 1.842489,0.3539877 0.615434,0.051866 1.233586,0.053416 1.850748,0.056318 0.108227,1.473e-4 0.216454,2.945e-4 0.324681,4.418e-4 1.624503,0.00224 1.621331,2.299638 -0.0032,2.297395 l 0,0 c -0.110813,-1.56e-4 -0.221626,-3.11e-4 -0.332439,-4.66e-4 -0.694956,-0.0033 -1.391046,-0.0067 -2.083755,-0.06928 -0.64786,-0.07062 -1.289437,-0.179872 -1.916034,-0.363043 -0.524981,-0.07443 -1.041832,-0.229192 -1.57197,-0.227521 -0.656266,-6.03e-4 -1.312532,-0.0018 -1.968798,-0.0015 -0.675827,0.0016 -1.351983,0.0036 -2.027148,0.03711 -0.699491,0.04093 -1.399003,0.100268 -2.088188,0.231712 -1.592958,0.318592 -2.043514,-1.9341909 -0.450556,-2.2527825 z"
       inkscape:connector-curvature="0"
       transform="translate(0,952.36218)" />
    <path
       style="fill:#000000;fill-opacity:1;stroke:none"
       id="path3026"
       d="m 71.409151,7.9593469 c 0.451909,0.3961325 0.916208,0.8093054 1.45088,1.0915307 0.405104,0.3092097 0.883293,0.4564102 1.346062,0.6523825 0.420107,0.2819373 0.88819,0.4490839 1.346323,0.6540679 0.437197,0.118585 0.845818,0.320611 1.287287,0.424871 0.628772,0.166538 1.153603,0.517278 1.667872,0.898514 0.455288,0.391534 0.88572,0.797669 1.236095,1.286167 0.403094,0.688297 0.46128,1.475862 0.495884,2.253546 0.03645,0.435237 -0.04418,0.979729 0.17834,1.382273 0.217603,0.490664 0.304146,1.019022 0.475259,1.524173 0.111169,0.317672 0.17004,0.648098 0.227675,0.978378 0.270302,1.601859 -1.995069,1.984124 -2.265371,0.382265 l 0,0 c -0.03363,-0.210942 -0.06772,-0.421973 -0.138587,-0.624557 -0.166028,-0.491518 -0.256317,-1.001007 -0.459589,-1.479374 -0.218736,-0.668713 -0.3382,-1.358126 -0.313016,-2.064764 -0.01473,-0.360976 -0.02998,-0.723763 -0.111848,-1.077128 -0.110975,-0.309366 -0.519864,-0.454252 -0.697479,-0.718725 -0.273418,-0.204495 -0.522931,-0.414676 -0.858186,-0.513412 -0.568008,-0.148616 -1.107078,-0.374157 -1.664159,-0.555857 -0.4403,-0.19772 -0.911068,-0.34933 -1.303617,-0.635441 -0.538473,-0.228728 -1.101382,-0.412621 -1.576528,-0.765733 -0.608142,-0.353008 -1.189414,-0.773438 -1.701735,-1.2552597 -1.299604,-0.9747029 0.07883,-2.8126202 1.378438,-1.8379174 z"
       inkscape:connector-curvature="0"
       transform="translate(0,952.36218)" />
    <path
       style="fill:#4d4d4d;fill-opacity:1;stroke:none"
       d="m 122.7666,987.47841 c 0.0383,1.12932 -0.1717,2.51927 -1.11536,2.61534 -1.75945,-0.13762 -0.90853,2.98709 -1.14232,4.5837 0.15929,1.74021 -0.42624,4.08536 0.20013,5.46745 1.83037,-0.1017 3.72379,0.2038 5.51453,-0.15389 0.59611,-3.63959 0.4696,-8.4098 -2.00214,-10.49213 -0.67746,-0.31213 -0.77855,-2.26619 -1.45484,-2.02047 z"
       id="path3028"
       inkscape:connector-curvature="0" />
    <path
       style="fill:#4d4d4d;fill-opacity:1;stroke:none"
       d="m 124.26994,979.47854 c -1.11488,0.42101 -2.48432,-0.32356 -3.47083,0.57435 -0.35862,1.08735 -0.0566,2.37874 0.70664,2.77944 0.72596,0.66434 1.17595,1.83841 1.31628,2.94354 0.88928,0.11639 0.55814,-2.0469 0.96989,-2.85123 0.33838,-1.50023 1.66162,-1.93262 2.18919,-3.24097 -0.2228,-0.86561 -1.24457,-0.0519 -1.71117,-0.20513 z"
       id="path3030"
       inkscape:connector-curvature="0" />
    <path
       style="fill:#000000;fill-opacity:1;stroke:none"
       id="path3032"
       d="m 72.056748,4.7931496 c 0.15347,0.7929534 0.224279,1.5979656 0.272321,2.4031508 0.02369,0.3150936 0.0017,0.6287126 0.06157,0.9395833 0.236759,1.6071593 -2.036108,1.9419873 -2.272867,0.3348278 l 0,0 C 70.068612,8.0907157 70.037172,7.7154761 70.035678,7.3318936 69.994748,6.6324027 69.935409,5.9328908 69.803965,5.2437062 69.485374,3.6507482 71.738157,3.2001916 72.056748,4.7931496 z"
       inkscape:connector-curvature="0"
       transform="translate(0,952.36218)" />
    <path
       style="fill:#000000;fill-opacity:1;stroke:none"
       id="path3034"
       d="m 77.619189,6.0030265 c 0,0.2003428 0,0.4006855 0,0.6010283 0,1.6245048 -2.297397,1.6245048 -2.297397,0 l 0,0 c 0,-0.2003428 0,-0.4006855 0,-0.6010283 0,-1.6245048 2.297397,-1.6245048 2.297397,0 z"
       inkscape:connector-curvature="0"
       transform="translate(0,952.36218)" />
    <path
       style="fill:#000000;fill-opacity:1;stroke:none"
       id="path3036"
       d="m 84.183179,5.6748269 c 0,0.1034053 0,0.2068106 0,0.3102159 0,1.6245048 -2.297396,1.6245048 -2.297396,0 l 0,0 c 0,-0.1034053 0,-0.2068106 0,-0.3102159 0,-1.6245047 2.297396,-1.6245047 2.297396,0 z"
       inkscape:connector-curvature="0"
       transform="translate(0,952.36218)" />
    <path
       style="fill:#000000;fill-opacity:1;stroke:none"
       id="path3038"
       d="m 90.74717,6.0030265 c 0,0.357837 0,0.7156739 0,1.0735109 0,1.6245048 -2.297397,1.6245048 -2.297397,0 l 0,0 c 0,-0.357837 0,-0.7156739 0,-1.0735109 0,-1.6245048 2.297397,-1.6245048 2.297397,0 z"
       inkscape:connector-curvature="0"
       transform="translate(0,952.36218)" />
    <path
       style="fill:#000000;fill-opacity:1;stroke:none"
       id="path3040"
       d="m 98.312711,5.1213491 c 0.140473,0.6008903 0.136483,1.2257561 0.268999,1.8263193 0.316605,1.5933541 -1.936738,2.0411007 -2.253343,0.4477466 l 0,0 C 96.215189,6.7904721 96.173222,6.1772294 96.059928,5.5719057 95.741336,3.9789477 97.994119,3.5283911 98.312711,5.1213491 z"
       inkscape:connector-curvature="0"
       transform="translate(0,952.36218)" />
    <path
       style="fill:#000000;fill-opacity:1;stroke:none"
       id="path3042"
       d="m 103.54695,20.443806 c 0.02,0.300957 -0.0433,0.611186 0.0323,0.907888 0.0367,0.144109 0.0813,0.102745 0.0802,0.01748 0.26177,-0.0586 0.6965,0.03076 0.99854,0.03923 0.69425,-0.0076 1.37776,-0.01769 2.06283,0.107061 0.57124,0.132865 1.15764,0.14712 1.73305,0.249447 0.50808,0.146765 1.0279,0.218245 1.55376,0.256175 0.62985,-0.02076 1.23624,0.141506 1.85057,0.249685 0.55087,0.08499 1.10925,0.09609 1.66543,0.106599 0.64677,0.0081 1.29362,0.006 1.94042,0.0052 0.65724,-9.33e-4 1.31448,-0.0014 1.97172,-0.0016 0.6566,-1.89e-4 1.3132,-1.83e-4 1.9698,-1.86e-4 0.5399,0.05676 1.04713,-0.08732 1.57263,-0.180334 0.44172,-0.08911 0.96714,-0.06804 1.3726,-0.295972 0.40394,-0.122271 0.74155,-0.332944 1.0852,-0.564473 0.55856,-0.524324 0.2463,-0.357223 0.14945,0.136377 0.19942,0.6295 0.0595,0.273683 -0.37063,0.10401 -0.5168,-0.132156 -1.0456,-0.178167 -1.56523,-0.305378 -0.50374,-0.133982 -1.02401,-0.167543 -1.54227,-0.191196 -0.61551,1.09e-4 -1.20799,-0.185049 -1.81437,-0.267264 -0.6173,-0.02139 -1.21678,-0.120419 -1.81905,-0.251548 -0.60085,-0.07598 -1.19156,-0.194721 -1.78489,-0.315895 -0.65629,-0.07941 -1.3026,-0.199113 -1.95097,-0.327728 -0.58746,-0.113387 -1.18573,-0.140418 -1.78222,-0.158276 -0.72143,-0.11145 -1.45206,-0.191681 -2.1648,-0.350362 -0.50007,-0.16585 -1.01579,-0.242115 -1.53876,-0.282286 -0.4436,-0.04914 -0.87511,-0.0038 -1.29539,0.148818 -0.55336,0.105291 -0.99384,0.417401 -1.48754,0.663189 -0.47559,0.280082 -0.96113,0.55082 -1.46443,0.778672 -0.0366,0.02294 -0.0732,0.04589 -0.10981,0.06883 -1.4143,0.799231 -2.54458,-1.200892 -1.13028,-2.000123 l 0,0 c 0.10603,-0.05766 0.21207,-0.115324 0.31811,-0.172986 0.48126,-0.195261 0.9194,-0.493243 1.37613,-0.737735 0.59566,-0.283575 1.14624,-0.658582 1.80609,-0.790636 0.70672,-0.210194 1.42944,-0.337847 2.16941,-0.248186 0.64199,0.05246 1.28006,0.140959 1.89558,0.339193 0.54715,0.159254 1.14204,0.143644 1.69568,0.287279 0.72333,0.02239 1.44818,0.06133 2.16001,0.20127 0.65325,0.130023 1.30302,0.245796 1.96406,0.330368 0.60335,0.123835 1.20227,0.239634 1.81302,0.32184 0.54689,0.119195 1.08398,0.20021 1.64627,0.220769 0.5375,0.07604 1.06356,0.23206 1.60554,0.247908 0.66746,0.03188 1.33619,0.08473 1.98498,0.255515 0.65643,0.163412 1.34608,0.172088 1.9747,0.448538 0.79607,0.384795 1.42348,0.848114 1.69453,1.730831 -0.008,0.204328 0.014,0.41209 -0.0242,0.612986 -0.12057,0.634802 -0.66431,1.027798 -1.12691,1.409735 -0.47388,0.3178 -0.95933,0.601377 -1.50234,0.786387 -0.59288,0.221973 -1.20695,0.376587 -1.83958,0.43023 -0.65333,0.113863 -1.30057,0.272898 -1.97035,0.215027 -0.65633,3e-6 -1.31265,-3e-6 -1.96897,1.85e-4 -0.65662,2.42e-4 -1.31325,6.65e-4 -1.96987,0.0016 -0.66238,7.77e-4 -1.3248,0.0029 -1.98715,-0.0056 -0.67653,-0.01314 -1.35542,-0.03177 -2.02455,-0.141827 -0.53974,-0.09712 -1.0633,-0.24671 -1.6178,-0.220362 -0.61887,-0.04711 -1.23495,-0.124012 -1.83372,-0.294418 -0.54993,-0.148466 -1.15818,-0.06587 -1.70792,-0.24457 -0.56363,-0.11201 -1.13397,-0.05032 -1.70701,-0.06842 -0.88298,-0.02819 -1.7647,-0.09171 -2.49347,-0.653043 -0.13205,-0.142275 -0.2837,-0.268599 -0.39615,-0.426824 -0.45658,-0.642468 -0.466,-1.428372 -0.44941,-2.181088 0,-1.624505 2.29739,-1.624505 2.29739,0 z"
       inkscape:connector-curvature="0"
       transform="translate(0,952.36218)" />
    <path
       style="fill:#000000;fill-opacity:1;stroke:none"
       id="path3044"
       d="m 108.46994,18.146409 c 0,0.748556 0,1.497113 0,2.245669 0.0275,0.402134 -0.0423,0.798454 -0.11227,1.192134 -0.29292,1.597878 -2.55266,1.183629 -2.25974,-0.414249 l 0,0 c 0.0505,-0.262526 0.10807,-0.50535 0.0746,-0.777885 0,-0.748556 0,-1.497113 0,-2.245669 0,-1.624505 2.29739,-1.624505 2.29739,0 z"
       inkscape:connector-curvature="0"
       transform="translate(0,952.36218)" />
    <path
       style="fill:#000000;fill-opacity:1;stroke:none"
       id="path3046"
       d="m 113.72114,19.459207 c 0,0.748557 0,1.497113 0,2.245669 -0.0335,0.272535 0.0241,0.515359 0.0746,0.777885 0.29292,1.597879 -1.96682,2.012127 -2.25974,0.414249 l 0,0 c -0.07,-0.39368 -0.13981,-0.79 -0.11228,-1.192134 0,-0.748556 0,-1.497112 0,-2.245669 0,-1.624505 2.2974,-1.624505 2.2974,0 z"
       inkscape:connector-curvature="0"
       transform="translate(0,952.36218)" />
    <path
       style="fill:#000000;fill-opacity:1;stroke:none"
       id="path3048"
       d="m 120.22356,20.997284 c -0.0869,0.450191 -0.13652,0.906001 -0.18206,1.36181 -0.16286,1.616321 -2.44868,1.386 -2.28582,-0.230321 l 0,0 c 0.0538,-0.529607 0.11274,-1.059148 0.2151,-1.582046 0.31859,-1.592958 2.57137,-1.142401 2.25278,0.450557 z"
       inkscape:connector-curvature="0"
       transform="translate(0,952.36218)" />
  </g>
</svg>
