<?xml version="1.0" encoding="UTF-8" standalone="no"?>
<!-- Created with Inkscape (http://www.inkscape.org/) -->

<svg
   xmlns:dc="http://purl.org/dc/elements/1.1/"
   xmlns:cc="http://creativecommons.org/ns#"
   xmlns:rdf="http://www.w3.org/1999/02/22-rdf-syntax-ns#"
   xmlns:svg="http://www.w3.org/2000/svg"
   xmlns="http://www.w3.org/2000/svg"
   xmlns:sodipodi="http://sodipodi.sourceforge.net/DTD/sodipodi-0.dtd"
   xmlns:inkscape="http://www.inkscape.org/namespaces/inkscape"
   width="7"
   height="50"
   id="svg2"
   version="1.1"
   inkscape:version="0.48.5 r10040"
   sodipodi:docname="spear.svg"
   inkscape:export-filename="C:\Users\narfman0\Desktop\wrench.png"
   inkscape:export-xdpi="90"
   inkscape:export-ydpi="90">
  <defs
     id="defs4" />
  <sodipodi:namedview
     id="base"
     pagecolor="#ffffff"
     bordercolor="#666666"
     borderopacity="1.0"
     inkscape:pageopacity="0.0"
     inkscape:pageshadow="2"
     inkscape:zoom="8.64"
     inkscape:cx="16.708507"
     inkscape:cy="34.922808"
     inkscape:document-units="px"
     inkscape:current-layer="layer1"
     showgrid="false"
     inkscape:window-width="1109"
     inkscape:window-height="880"
     inkscape:window-x="386"
     inkscape:window-y="20"
     inkscape:window-maximized="0" />
  <metadata
     id="metadata7">
    <rdf:RDF>
      <cc:Work
         rdf:about="">
        <dc:format>image/svg+xml</dc:format>
        <dc:type
           rdf:resource="http://purl.org/dc/dcmitype/StillImage" />
        <dc:title />
      </cc:Work>
    </rdf:RDF>
  </metadata>
  <g
     inkscape:label="Layer 1"
     inkscape:groupmode="layer"
     id="layer1"
     transform="translate(0,-1002.3622)">
    <path
       style="fill:#000000;fill-opacity:1;stroke:none"
       id="path2995"
       d="m 2.7849345,1013.7954 c -0.00141,0.2136 -0.00135,0.4272 -0.00126,0.6409 -6.129e-4,0.2612 -0.028422,0.5203 -0.042131,0.7806 -0.00565,0.3082 -0.024101,0.6143 -0.042831,0.9212 -0.018961,0.368 -0.025515,0.7364 -0.047124,1.1041 -0.023572,0.3592 -0.034405,0.7197 -0.039779,1.0805 -0.00456,0.3622 -0.0044,0.7245 -0.00383,1.0867 2.047e-4,0.3216 3.391e-4,0.6432 6.113e-4,0.9649 -0.014069,0.2891 -0.03589,0.5769 -0.047024,0.8664 -0.011179,0.2826 -0.00475,0.566 -0.017759,0.8483 -0.021963,0.3181 -0.036804,0.6369 -0.044865,0.9564 -0.00878,0.3111 -2.739e-4,0.6229 -0.013566,0.9336 -0.01924,0.3363 -0.035736,0.6727 -0.061021,1.0081 -0.021344,0.3771 -0.056189,0.7519 -0.079807,1.1286 -0.021565,0.3831 -0.024454,0.7677 -0.02696,1.152 -0.019485,0.408 -0.029895,0.8173 -0.054585,1.2247 -0.027966,0.402 -0.044841,0.8052 -0.071768,1.2074 -0.029161,0.4209 -0.038832,0.8439 -0.04492,1.2668 -0.00538,0.4233 -0.025274,0.8471 -0.052582,1.2685 -0.031668,0.4179 -0.046742,0.8377 -0.076193,1.2558 -0.026578,0.3493 -0.038444,0.7003 -0.044452,1.0515 -0.00365,0.2574 -0.00332,0.5148 -0.00311,0.7722 3.528e-4,0.201 7.482e-4,0.402 9.601e-4,0.603 -1.691e-4,0.2016 4.51e-5,0.4032 -2.402e-4,0.6048 0.00251,0.2158 0.00254,0.4296 -0.015894,0.6437 -0.024878,0.2785 -0.033205,0.5594 -0.038768,0.84 -0.00416,0.26 -0.00407,0.5201 -0.00445,0.7801 1.49e-4,0.2559 4.096e-4,0.5118 8.409e-4,0.7677 -0.00295,0.2208 0.00694,0.4422 -0.00626,0.6624 -0.019308,0.2023 -0.035663,0.405 -0.044479,0.609 -0.00715,0.1994 -0.00711,0.399 -0.00733,0.5986 1.94e-5,0.1831 2.962e-4,0.3662 4.365e-4,0.5494 1.203e-4,0.1755 1.367e-4,0.3511 1.487e-4,0.5266 -5.565e-4,0.2029 -6.42e-5,0.4057 -3.641e-4,0.6086 -5.551e-4,0.2449 -4.64e-4,0.4898 -1.816e-4,0.7347 6.141e-4,0.218 0.028531,0.4331 0.041541,0.6501 0.00414,0.2292 0.03081,0.4547 0.050878,0.6814 0.032827,0.2293 0.056107,0.4607 0.070393,0.6942 0.010485,0.1922 0.011782,0.3851 0.012483,0.5779 -0.00737,0.1983 0.018564,0.3931 0.033607,0.5892 0.016152,0.2169 0.020358,0.435 0.022684,0.6531 -0.00593,0.2131 0.00761,0.4226 0.026786,0.6333 0.018706,0.1916 0.02637,0.3848 0.030477,0.5782 0.00283,0.1765 0.00254,0.353 0.00248,0.5295 -1.375e-4,0.1752 -2.573e-4,0.3505 -3.213e-4,0.5257 0.00386,0.171 -0.00819,0.3436 0.00637,0.5135 0.023011,0.1516 0.037097,0.305 0.044848,0.46 0.00682,0.1721 0.00688,0.3446 0.00718,0.517 0.00622,0.1616 -0.018457,0.3315 0.021592,0.4852 0.058701,0.1147 0.1615039,0.1144 0.2495138,0.1225 0.1153225,0.01 0.2307479,0 0.3461078,0 0.1166162,0 0.2332352,0 0.349854,0 0.1178727,0.014 0.2318405,-0.013 0.3474551,-0.042 0.1076811,-0.01 0.2084989,-0.067 0.3134092,-0.099 0.086316,-0.04 0.1571913,-0.1212 0.242822,-0.1638 0.091062,-0.042 0.1786633,-0.09 0.2732948,-0.1122 0.1015037,0 0.1976072,-0.051 0.2967756,-0.078 0.089352,-0.021 0.1798835,-0.026 0.2701504,-0.03 0,0 -0.1845157,0.2038 -0.1845157,0.2038 l 0,0 c -0.089755,0 -0.1797922,0.01 -0.2683826,0.034 -0.098777,0.029 -0.195871,0.07 -0.2969689,0.078 -0.093248,0.026 -0.1805959,0.076 -0.2711435,0.1172 -0.083274,0.049 -0.1562962,0.1296 -0.2444112,0.1599 -0.104323,0.035 -0.206275,0.085 -0.3135618,0.097 -0.1162178,0.029 -0.2315551,0.048 -0.3497361,0.038 -0.116588,3e-4 -0.2331762,7e-4 -0.3497613,0 -0.115771,0 -0.231649,0 -0.3473449,0 -0.09766,-0.012 -0.2033354,-0.022 -0.2638425,-0.1549 -0.041824,-0.1584 -0.020502,-0.3302 -0.02486,-0.4973 -2.584e-4,-0.1715 -2.466e-4,-0.3433 -0.00666,-0.5146 -0.00736,-0.1544 -0.02081,-0.3072 -0.044353,-0.458 -0.016091,-0.1712 -0.00354,-0.3455 -0.00741,-0.518 5.86e-5,-0.1752 1.665e-4,-0.3504 3.172e-4,-0.5257 8.76e-5,-0.1762 4.159e-4,-0.3524 -0.00204,-0.5286 -0.00364,-0.1924 -0.010485,-0.3848 -0.028687,-0.5755 -0.019215,-0.212 -0.035269,-0.4225 -0.027968,-0.637 -0.00219,-0.217 -0.00603,-0.4342 -0.021557,-0.6502 -0.015372,-0.1969 -0.042891,-0.3926 -0.035639,-0.5919 -4.474e-4,-0.1921 -0.00123,-0.3843 -0.010765,-0.5759 -0.013303,-0.2333 -0.035757,-0.4644 -0.070064,-0.6929 -0.01942,-0.2274 -0.047478,-0.4532 -0.050867,-0.683 -0.012882,-0.218 -0.042134,-0.4338 -0.042637,-0.6527 2.824e-4,-0.2448 3.758e-4,-0.4896 -1.782e-4,-0.7344 -2.984e-4,-0.2027 1.999e-4,-0.4053 -3.717e-4,-0.608 -1.05e-5,-0.1756 -2.67e-5,-0.3511 -1.004e-4,-0.5267 -7.98e-5,-0.1832 -2.456e-4,-0.3665 -8.17e-5,-0.5498 3.668e-4,-0.2001 2.015e-4,-0.4003 0.00652,-0.6003 0.00854,-0.2045 0.024402,-0.4078 0.044718,-0.6105 0.014997,-0.2189 0.00439,-0.4397 0.00746,-0.6596 2.438e-4,-0.2561 1.73e-4,-0.5123 1.879e-4,-0.7684 -2.92e-4,-0.2603 -5.12e-4,-0.5206 0.00389,-0.7809 0.00608,-0.2813 0.014223,-0.5628 0.036807,-0.8424 0.019078,-0.2127 0.020293,-0.425 0.017185,-0.6396 -2.943e-4,-0.2014 -7.89e-5,-0.4028 -4.147e-4,-0.6042 1.6e-6,-0.2013 3.7e-6,-0.4025 2.03e-5,-0.6038 2.52e-5,-0.2581 2.672e-4,-0.5162 0.00426,-0.7742 0.00703,-0.3525 0.018196,-0.7048 0.04548,-1.0552 0.030159,-0.4182 0.045396,-0.838 0.076934,-1.2561 0.027369,-0.4205 0.047606,-0.8435 0.052974,-1.2659 0.00559,-0.4237 0.016125,-0.8475 0.044303,-1.2693 0.026186,-0.402 0.043895,-0.8049 0.071301,-1.2068 0.026027,-0.4064 0.034805,-0.8152 0.055685,-1.2223 0.00171,-0.385 0.00426,-0.7703 0.025501,-1.1541 0.022868,-0.3769 0.059031,-0.7517 0.079331,-1.129 0.024916,-0.3348 0.041192,-0.6705 0.060714,-1.0061 0.013911,-0.3104 0.00474,-0.6218 0.013825,-0.9326 0.00754,-0.3199 0.022243,-0.6389 0.044212,-0.9573 0.013875,-0.282 0.00555,-0.5653 0.017673,-0.8476 0.010363,-0.2892 0.03128,-0.5767 0.047918,-0.865 9.44e-5,-0.3218 -1.193e-4,-0.6435 -1.5e-4,-0.9653 5.509e-4,-0.3625 1.116e-4,-0.725 0.00383,-1.0875 0.00599,-0.3617 0.015248,-0.7231 0.039929,-1.0832 0.021633,-0.3674 0.028294,-0.7356 0.046365,-1.1035 0.017981,-0.3064 0.036772,-0.612 0.041547,-0.9197 0.012941,-0.2594 0.040485,-0.5176 0.042048,-0.7777 9.31e-5,-0.2129 1.575e-4,-0.4259 -0.00126,-0.6389 0,0 0.2049485,-0.1577 0.2049485,-0.1577 z"
       inkscape:connector-curvature="0" />
    <path
       style="fill:#000000;fill-opacity:1;stroke:none"
       id="path2999"
       d="m 2.754592,1013.7461 c 0.1326361,0.064 0.2666495,0.1255 0.4023437,0.1735 0.1421518,0.027 0.2795879,0.078 0.4156309,0.1446 0.1162881,0.055 0.2372045,0.076 0.3556353,0.1171 0.1137284,0.041 0.2303391,0.054 0.3467842,0.062 0.1159657,0.01 0.2320083,0 0.3480157,0 0.1161605,-3e-4 0.2323215,-5e-4 0.3484826,-7e-4 0.1152937,0.01 0.1733411,-0.089 0.2293227,0.1059 0.0281,0.1649 0.024955,0.3373 0.025233,0.5063 -9.27e-4,0.203 -0.00159,0.406 -0.00232,0.609 -5.741e-4,0.2273 -4.264e-4,0.4547 -6.621e-4,0.682 1.84e-4,0.2436 -2.973e-4,0.4873 -1.013e-4,0.7309 1.19e-5,0.2603 -3.516e-4,0.5206 -8.81e-5,0.7809 -0.00245,0.2385 0.00664,0.4775 -0.00629,0.7153 -0.020413,0.216 -0.036331,0.4324 -0.044554,0.6503 -0.00663,0.2094 -0.00693,0.4192 -0.00712,0.6288 0.0049,0.1694 -0.02526,0.3341 -0.040681,0.5007 -0.013521,0.1663 -0.015143,0.3341 -0.016533,0.5015 -9.27e-4,0.175 -5.675e-4,0.3501 -4.33e-4,0.5251 3.9e-5,0.2052 -2.338e-4,0.4104 -2.629e-4,0.6156 -4.569e-4,0.256 -3.781e-4,0.5119 -2.417e-4,0.7679 2.298e-4,0.21 5.012e-4,0.42 6.436e-4,0.63 1.02e-4,0.1774 1.086e-4,0.3547 1.145e-4,0.5321 -0.00212,0.1933 0.00536,0.3871 -0.00669,0.5797 -0.019685,0.1856 -0.035946,0.3716 -0.044554,0.5592 -0.019758,0.2096 -0.05289,0.4155 -0.080671,0.6229 -0.018665,0.2115 -0.053552,0.4182 -0.075391,0.6288 -0.024419,0.2269 -0.064318,0.4482 -0.098061,0.6719 -0.025578,0.227 -0.046401,0.4555 -0.082897,0.6793 -0.042773,0.2407 -0.057194,0.4894 -0.086021,0.7343 -0.022055,0.2309 -0.057763,0.4578 -0.080343,0.6886 -0.018718,0.2049 -0.023558,0.4116 -0.026001,0.6181 -0.00212,0.221 -0.028458,0.4395 -0.042601,0.6593 -0.00516,0.215 -0.019566,0.4271 -0.041376,0.6396 -0.022506,0.2303 -0.027352,0.4634 -0.031166,0.6958 -0.00238,0.2194 -0.00212,0.4388 -0.00205,0.6582 4.416e-4,0.2112 2.648e-4,0.4224 3.992e-4,0.6336 -0.014878,0.2105 -0.035774,0.4195 -0.047037,0.6307 -0.00975,0.208 -0.010448,0.4167 -0.011077,0.6251 -2.29e-4,0.2014 -2.218e-4,0.4028 -3.3e-6,0.6041 0.00851,0.2109 -0.00855,0.4183 -0.025842,0.627 -0.018765,0.2166 -0.026299,0.4348 -0.030146,0.653 -0.00298,0.2305 -0.00252,0.4611 -0.00278,0.6916 3.78e-5,0.2478 5.119e-4,0.4955 4.211e-4,0.7433 7.49e-5,0.2357 3.179e-4,0.4715 1.225e-4,0.7072 -0.00238,0.2347 -0.00185,0.4679 0.015811,0.7012 0.019453,0.2124 0.032126,0.4258 0.038761,0.64 -0.0045,0.1804 0.020923,0.3561 0.038721,0.5333 0.019493,0.204 0.020506,0.4104 0.021989,0.6161 -0.00932,0.2452 0.018599,0.4863 0.035549,0.729 0.011342,0.2253 0.04715,0.4452 0.064371,0.6695 0.011945,0.2114 0.013812,0.4224 0.033318,0.6326 0.013779,0.2087 0.050513,0.4108 0.072771,0.6173 0.015295,0.2399 0.032351,0.479 0.052235,0.7182 0.034093,0.2352 0.062339,0.4714 0.078741,0.711 0.026127,0.1973 0.049143,0.3942 0.060438,0.5948 0.012686,0.1939 0.00305,0.3895 0.017341,0.5829 0.021717,0.1799 0.037317,0.3608 0.044501,0.5434 0.00616,0.2395 0.00616,0.4793 0.00672,0.7189 -1.245e-4,0.2194 3.3e-6,0.4388 7.22e-5,0.6583 5.69e-5,0.1811 7.08e-5,0.3623 7.94e-5,0.5435 5.3e-6,0.1751 4e-6,0.3502 3.3e-6,0.5254 0,0.1753 -6e-7,0.3506 -6e-7,0.5259 0,0.1755 0,0.3509 0,0.5264 0,0.1754 0,0.3508 0,0.5263 0,0.1754 0,0.3509 0,0.5263 0,0.1754 0,0.3509 0,0.5263 4.072e-4,0.1693 0.0055,0.3372 -0.015288,0.5042 0,0 -0.2060717,0.151 -0.2060717,0.151 l 0,0 c 0.022717,-0.1651 0.019301,-0.3304 0.017791,-0.4985 0,-0.1755 0,-0.3509 0,-0.5264 0,-0.1754 0,-0.3508 0,-0.5263 0,-0.1754 0,-0.3508 0,-0.5263 0,-0.1754 0,-0.3509 -7e-7,-0.5263 -7e-7,-0.1753 -2e-6,-0.3507 -4.6e-6,-0.526 -2e-6,-0.1751 -8e-6,-0.3502 1.12e-5,-0.5253 3.05e-5,-0.1813 8.21e-5,-0.3626 3.231e-4,-0.5439 3.04e-4,-0.2196 8.608e-4,-0.4391 6.046e-4,-0.6587 6e-7,-0.2389 1.959e-4,-0.4779 -0.00676,-0.7166 -0.00736,-0.1819 -0.021711,-0.3624 -0.044124,-0.5415 -0.016063,-0.1936 -0.00483,-0.3899 -0.017248,-0.5843 -0.010925,-0.2004 -0.033444,-0.3975 -0.060068,-0.5945 -0.015308,-0.2397 -0.042872,-0.4759 -0.077564,-0.7109 -0.019718,-0.2387 -0.039111,-0.4767 -0.052831,-0.7163 -0.021896,-0.207 -0.059597,-0.4089 -0.072911,-0.618 -0.020095,-0.2106 -0.023353,-0.4213 -0.033629,-0.6334 -0.017036,-0.2245 -0.051996,-0.4448 -0.063901,-0.6702 -0.017328,-0.2436 -0.045415,-0.4857 -0.03641,-0.7319 -0.00212,-0.2039 -0.00351,-0.4084 -0.022009,-0.6108 -0.017566,-0.1784 -0.044726,-0.355 -0.039588,-0.5367 -0.00589,-0.2137 -0.017487,-0.4268 -0.036814,-0.6388 -0.018321,-0.2345 -0.021069,-0.4684 -0.017262,-0.7045 -2.013e-4,-0.2357 3.71e-5,-0.4715 1.06e-5,-0.7073 -2.172e-4,-0.2478 1.72e-5,-0.4956 -2.218e-4,-0.7434 -4.264e-4,-0.2306 -7.946e-4,-0.4613 0.00179,-0.6919 0.00351,-0.2193 0.010448,-0.4386 0.02955,-0.6563 0.016937,-0.2073 0.034755,-0.4131 0.026419,-0.6226 -3.31e-5,-0.2014 -5.846e-4,-0.4028 -1.251e-4,-0.6042 7.945e-4,-0.2093 0.00139,-0.4187 0.010461,-0.6276 0.010991,-0.2104 0.029815,-0.4192 0.047964,-0.6283 1.26e-5,-0.2112 -3.88e-4,-0.4225 -2.814e-4,-0.6337 -1.318e-4,-0.2197 -4.542e-4,-0.4395 0.00212,-0.6592 0.00318,-0.2335 0.00877,-0.4676 0.029186,-0.6994 0.022108,-0.2121 0.038721,-0.423 0.042263,-0.638 0.014004,-0.2188 0.040184,-0.4366 0.04278,-0.6563 0.00245,-0.2081 0.00732,-0.4164 0.025783,-0.6228 0.021936,-0.2314 0.057267,-0.4587 0.080156,-0.6898 0.029603,-0.2453 0.04368,-0.4942 0.084677,-0.7361 0.038886,-0.2227 0.059074,-0.4514 0.083393,-0.6785 0.03212,-0.2235 0.074922,-0.4431 0.098518,-0.6696 0.020963,-0.2116 0.056651,-0.4184 0.075317,-0.6305 0.02726,-0.2061 0.058737,-0.4106 0.080883,-0.6181 0.00816,-0.1881 0.023432,-0.3748 0.04464,-0.5606 0.014461,-0.1912 0.00457,-0.384 0.00721,-0.5761 6e-6,-0.1774 1.26e-5,-0.3549 1.166e-4,-0.5323 1.423e-4,-0.2103 4.165e-4,-0.4206 6.475e-4,-0.631 1.364e-4,-0.2558 2.212e-4,-0.5117 -2.814e-4,-0.7675 -8.21e-5,-0.205 -4.211e-4,-0.4099 -7.283e-4,-0.6148 -1.384e-4,-0.1752 -4.681e-4,-0.3503 2.543e-4,-0.5255 0.00119,-0.1685 0.00245,-0.3374 0.01499,-0.5051 0.014414,-0.1659 0.045885,-0.3292 0.042985,-0.4973 3.9e-4,-0.2102 1.371e-4,-0.4206 0.00672,-0.6306 0.008,-0.2184 0.02228,-0.4355 0.04464,-0.6516 0.015103,-0.2368 0.00404,-0.4752 0.0076,-0.7128 2.616e-4,-0.2603 -1.039e-4,-0.5205 -1.039e-4,-0.7808 1.854e-4,-0.2436 -3.198e-4,-0.4872 -10e-5,-0.7308 -1.907e-4,-0.2273 1.85e-5,-0.4546 3.046e-4,-0.6818 1.542e-4,-0.2028 0.00126,-0.4055 0.00159,-0.6083 -1.053e-4,-0.1645 0.00318,-0.332 -0.021989,-0.4931 -0.042501,-0.1536 -0.1220956,-0.059 -0.2139264,-0.073 -0.1161611,10e-5 -0.2323228,4e-4 -0.3484839,7e-4 -0.1162206,0 -0.2324883,6e-4 -0.3486474,-0.01 -0.1173277,-0.01 -0.234625,-0.024 -0.3490638,-0.067 -0.118786,-0.041 -0.2404701,-0.061 -0.3563965,-0.1198 -0.1354952,-0.066 -0.2731928,-0.1112 -0.4140511,-0.143 -0.1368155,-0.05 -0.2723275,-0.1108 -0.4063733,-0.1754 0,0 0.1909505,-0.1932 0.1909505,-0.1932 z"
       inkscape:connector-curvature="0" />
    <path
       style="fill:#4d4d4d;fill-opacity:1;stroke:none"
       id="path3005"
       d="m 4.1087277,1002.4856 c -0.053367,0.1906 -0.1232729,0.3684 -0.1886222,0.5497 -0.060591,0.1418 -0.1108072,0.2911 -0.1741694,0.4301 -0.052819,0.1294 -0.1073146,0.2571 -0.1588263,0.3878 -0.059847,0.124 -0.1215501,0.2477 -0.1696331,0.3833 -0.053837,0.1212 -0.105152,0.2443 -0.1551235,0.3694 -0.04239,0.1196 -0.082058,0.2411 -0.1244515,0.3607 -0.054112,0.103 -0.085228,0.2244 -0.1217899,0.3422 -0.039692,0.1495 -0.087452,0.2945 -0.1363568,0.4376 -0.044142,0.1324 -0.079775,0.2719 -0.1130764,0.4114 -0.042575,0.134 -0.086737,0.2658 -0.1269286,0.4015 -0.036434,0.1517 -0.084106,0.297 -0.1146832,0.4519 -0.030089,0.154 -0.067852,0.3033 -0.1033247,0.4544 -0.025376,0.1349 -0.059154,0.2663 -0.098865,0.393 -0.04278,0.1444 -0.078626,0.2928 -0.1149566,0.4411 -0.038604,0.1734 -0.076813,0.3469 -0.1164782,0.5198 -0.047237,0.1395 -0.080179,0.2876 -0.1208814,0.4313 -0.025814,0.1323 -0.057324,0.2577 -0.1032265,0.3771 -0.036364,0.1221 -0.07511,0.2436 -0.099927,0.3726 -0.035481,0.1274 -0.057841,0.2611 -0.090521,0.3901 -0.047937,0.1364 -0.075582,0.2847 -0.1130965,0.4277 -0.028759,0.1349 -0.055905,0.2711 -0.093748,0.4011 -0.035904,0.1238 -0.067386,0.2509 -0.097381,0.3784 -0.02927,0.1316 -0.055551,0.2652 -0.086142,0.3962 -0.044872,0.1155 -0.094095,0.1587 -0.030258,0.2816 0.083753,0.1047 0.1870847,0.1591 0.2874988,0.2163 0.1061038,0.036 0.204795,0.091 0.3004122,0.1685 0.084419,0.049 0.1649969,0.111 0.2529509,0.1457 0.091388,0.025 0.1787286,0.075 0.2633461,0.1312 0.096948,0.06 0.1949527,0.1155 0.2935153,0.1696 0.1028141,0.064 0.1834976,0.154 0.2425415,0.2966 0.054777,0.1301 0.1239798,0.2446 0.1753866,0.3778 0,0 -0.1983406,0.1731 -0.1983406,0.1731 l 0,0 c -0.051159,-0.1329 -0.1205698,-0.2469 -0.1748577,-0.3769 -0.056439,-0.1358 -0.1360711,-0.2182 -0.2341445,-0.2777 -0.098949,-0.055 -0.1978637,-0.1093 -0.295128,-0.1707 -0.083902,-0.056 -0.1711832,-0.1004 -0.2612769,-0.1271 -0.088383,-0.038 -0.1711776,-0.099 -0.2558894,-0.152 -0.094664,-0.076 -0.1942735,-0.1244 -0.2979625,-0.1657 -0.1037783,-0.06 -0.2113086,-0.1171 -0.2953591,-0.2314 -0.067365,-0.1342 -0.045676,-0.1905 0.019602,-0.3129 0.03422,-0.1281 0.055269,-0.2656 0.086476,-0.3953 0.028317,-0.1293 0.062782,-0.2555 0.096224,-0.3817 0.042125,-0.1264 0.066243,-0.2651 0.094644,-0.3994 0.037542,-0.1428 0.06452,-0.2913 0.1129628,-0.4272 0.032743,-0.1284 0.054435,-0.2611 0.091614,-0.3871 0.02283,-0.1327 0.063107,-0.2541 0.097168,-0.3805 0.04567,-0.1189 0.083727,-0.2383 0.1046502,-0.3735 0.040554,-0.1436 0.072727,-0.2919 0.1224524,-0.4296 0.039348,-0.1731 0.078621,-0.3462 0.1161009,-0.5202 0.035725,-0.1491 0.072034,-0.2976 0.1132184,-0.4434 0.039413,-0.1261 0.076627,-0.2546 0.100279,-0.3898 0.033908,-0.1515 0.074759,-0.2986 0.1039262,-0.4528 0.028579,-0.1577 0.078214,-0.3024 0.113544,-0.4567 0.040578,-0.1344 0.079687,-0.2689 0.1272677,-0.3982 0.031619,-0.1419 0.070251,-0.2812 0.1120389,-0.4166 0.051388,-0.1398 0.096491,-0.2874 0.13625,-0.4354 0.035798,-0.1184 0.064696,-0.2434 0.1212721,-0.3439 0.041733,-0.1208 0.083885,-0.2407 0.1242463,-0.3624 0.048637,-0.1259 0.0988,-0.2496 0.1557019,-0.3674 0.04473,-0.1387 0.1073775,-0.2639 0.1695164,-0.3857 0.051911,-0.1308 0.1052121,-0.26 0.1580206,-0.3897 0.063045,-0.1393 0.1153607,-0.2855 0.1760574,-0.4273 0.063954,-0.1807 0.136124,-0.3549 0.1879283,-0.5449 0,0 0.2086116,-0.1457 0.2086116,-0.1457 z"
       inkscape:connector-curvature="0" />
    <path
       style="fill:#4d4d4d;fill-opacity:1;stroke:none"
       id="path3007"
       d="m 4.0219025,1002.6347 c 0.080333,0.1255 0.1514309,0.261 0.222632,0.3979 0.049374,0.1179 0.1190877,0.2113 0.1677581,0.3294 0.051175,0.1001 0.095029,0.2067 0.142203,0.3108 0.048017,0.1042 0.094373,0.2093 0.1381534,0.318 0.040866,0.1267 0.09304,0.2432 0.1298232,0.3731 0.052705,0.158 0.080138,0.3302 0.1139317,0.4986 0.025591,0.1506 0.064636,0.2955 0.108695,0.4357 0.032914,0.1273 0.059419,0.2591 0.099074,0.3822 0.035099,0.1237 0.079878,0.2392 0.1066193,0.368 0.045276,0.1248 0.057472,0.2653 0.084206,0.3991 0.033073,0.1443 0.047474,0.2953 0.072331,0.4429 0.047196,0.1622 0.065418,0.3373 0.098562,0.5055 0.033106,0.1421 0.046156,0.2908 0.075733,0.4344 0.029093,0.1334 0.067484,0.2584 0.086746,0.3969 0.03694,0.1327 0.047779,0.276 0.073677,0.4129 0.022823,0.1366 0.053135,0.2687 0.081435,0.4027 0.041051,0.1199 0.066119,0.2489 0.1000828,0.3733 0.028312,0.1297 0.053314,0.2622 0.09207,0.386 0.043852,0.1325 0.072339,0.275 0.1124234,0.4097 0.040528,0.13 0.058664,0.2714 0.1072152,0.3957 0.042515,0.1173 0.078322,0.2418 0.1090803,0.3674 0.034682,0.1431 0.088385,0.2713 0.1209257,0.4156 0.026955,0.1435 0.060683,0.2815 0.077577,0.429 0.00918,0.142 0.037502,0.2785 0.073952,0.4093 0.041389,0.098 0.09802,0.1983 0.057075,0.3142 -0.1087678,0.1754 -0.2688486,0.2846 -0.4202557,0.357 -0.1036397,0.026 -0.2019162,0.081 -0.3047448,0.1129 -0.093456,0.019 -0.1819507,0.07 -0.2676211,0.1275 0.05385,-0.045 0.1072026,-0.092 0.1615494,-0.1362 0.012362,-0.01 -0.023353,0.024 -0.035503,0.034 -0.07797,0.068 -0.1569073,0.133 -0.2348236,0.2009 -0.053407,0.047 0.1071953,-0.092 0.1612985,-0.1368 0.012401,-0.01 -0.023836,0.023 -0.036152,0.033 -0.078513,0.067 -0.1575323,0.1323 -0.2362988,0.1984 0.4130743,-0.3539 -0.040972,0.035 -0.073276,0.065 -0.052559,0.049 0.10748,-0.093 0.162573,-0.1355 0.012415,-0.01 -0.022254,0.026 -0.034265,0.036 -0.077424,0.069 -0.1569278,0.1327 -0.2339165,0.2028 -0.052824,0.048 0.1075978,-0.091 0.1613964,-0.1368 -0.012017,0.011 -0.02373,0.023 -0.036046,0.034 -0.7094891,0.6046 -0.028551,0.019 -0.075907,0.061 -0.077601,0.068 -0.157476,0.1309 -0.2338808,0.2023 -0.052632,0.049 0.1074602,-0.093 0.1625095,-0.1356 0.012415,-0.01 -0.022896,0.024 -0.034351,0.036 -0.076727,0.082 -0.160096,0.1515 -0.2238476,0.2577 -0.056108,0.081 -0.08646,0.1785 -0.1064657,0.2898 0,0 -0.2066411,0.1495 -0.2066411,0.1495 l 0,0 c 0.017712,-0.1151 0.043064,-0.2213 0.1020162,-0.304 0.05916,-0.1153 0.1435027,-0.1831 0.2212707,-0.2663 0.1088307,-0.1105 0.022717,-0.024 0.2641535,-0.2449 0.051321,-0.051 -0.2124207,0.1853 -0.1589287,0.14 0.7853906,-0.665 -0.125244,0.097 0.1123453,-0.093 0.7729996,-0.6919 -0.1202927,0.1106 0.1071688,-0.1007 0.076166,-0.071 0.1547421,-0.1357 0.229424,-0.21 0.023704,-0.024 -0.5927334,0.5251 0.074173,-0.063 -0.052447,0.047 -0.1049878,0.095 -0.1573463,0.1422 -0.012057,0.011 0.024306,-0.021 0.036436,-0.032 0.077211,-0.069 0.1541536,-0.1379 0.2315872,-0.206 0.052963,-0.046 -0.1051864,0.095 -0.1581633,0.1415 -0.012117,0.011 0.023704,-0.023 0.035556,-0.034 0.077403,-0.068 0.1548058,-0.1365 0.2322083,-0.2047 0.086337,-0.057 0.176855,-0.1 0.2701159,-0.1216 0.1017044,-0.035 0.2008993,-0.084 0.3030558,-0.1158 0.049639,-0.026 0.049162,-0.024 0.096079,-0.057 0.014044,-0.01 0.054711,-0.044 0.041594,-0.032 -0.3041112,0.2903 -0.1633325,0.1642 -0.1097471,0.082 0.063127,-0.085 -0.014606,-0.1992 -0.045481,-0.2823 -0.037144,-0.133 -0.066882,-0.272 -0.076109,-0.4165 -0.016075,-0.1461 -0.049515,-0.2823 -0.075897,-0.4242 -0.031846,-0.1443 -0.085832,-0.2721 -0.1209104,-0.4146 -0.029978,-0.1239 -0.065547,-0.2463 -0.1071828,-0.3619 -0.048569,-0.126 -0.068275,-0.2673 -0.1080236,-0.3993 -0.040003,-0.1345 -0.06887,-0.2765 -0.1125982,-0.4088 -0.03898,-0.1243 -0.064752,-0.257 -0.092593,-0.3876 -0.034205,-0.1253 -0.0595,-0.2551 -0.100913,-0.3759 -0.028099,-0.1345 -0.059082,-0.2665 -0.081677,-0.4035 -0.026703,-0.1375 -0.036412,-0.2823 -0.074403,-0.4154 -0.018469,-0.1377 -0.056938,-0.2613 -0.085808,-0.3938 -0.029719,-0.1438 -0.043025,-0.2923 -0.075481,-0.4351 -0.033408,-0.1686 -0.050125,-0.3448 -0.098859,-0.5067 -0.025058,-0.147 -0.040037,-0.2971 -0.072359,-0.4412 -0.027279,-0.1334 -0.038289,-0.2745 -0.084167,-0.3989 -0.025833,-0.1275 -0.070751,-0.241 -0.1050898,-0.3632 -0.039706,-0.1232 -0.066761,-0.2549 -0.099049,-0.3827 -0.04439,-0.1419 -0.083812,-0.2885 -0.1095193,-0.4409 -0.033497,-0.1671 -0.060552,-0.3383 -0.113214,-0.4948 -0.036165,-0.1286 -0.088751,-0.2428 -0.1287314,-0.3684 -0.043659,-0.1081 -0.089789,-0.2127 -0.1375959,-0.3164 -0.047025,-0.1048 -0.091819,-0.211 -0.1425923,-0.3121 -0.048309,-0.1167 -0.1176892,-0.2094 -0.1659293,-0.3268 -0.070686,-0.138 -0.1423234,-0.2733 -0.2239364,-0.3975 0,0 0.1978091,-0.1773 0.1978091,-0.1773 z"
       inkscape:connector-curvature="0" />
    <path
       style="fill:#4d4d4d;fill-opacity:1;stroke:none"
       d="m 3.8477046,1002.9559 c -1.2197417,2.5997 -1.8115953,5.7034 -2.5658153,8.6445 -0.082792,0.3213 -0.2136205,0.869 0.1246099,0.9498 0.5604016,0.4105 1.2959178,0.5319 1.6425956,1.4008 0.4975297,0.3647 1.0979803,0.4797 1.6407805,0.3454 0.4252614,-0.5846 0.9571671,-1.0456 1.4992093,-1.3515 0.1940165,-0.021 0.4673888,-0.1853 0.3412237,-0.5455 -0.3925917,-1.7603 -0.8983543,-3.4596 -1.2025032,-5.263 -0.3208926,-1.4632 -0.5995447,-3.0778 -1.335216,-4.2001 -0.043618,-0.087 -0.096611,0.014 -0.1448845,0.02 z"
       id="path3011"
       inkscape:connector-curvature="0" />
    <path
       style="fill:#803300;fill-opacity:1;stroke:none"
       d="m 2.7931766,1013.951 c -0.2203496,0.2824 -0.073019,0.8691 -0.1502808,1.2651 -0.1698626,3.1048 -0.1066654,6.2265 -0.3034749,9.3297 -0.2435234,4.9217 -0.4913631,9.8461 -0.5343807,14.7832 -0.035429,2.2782 -0.098223,4.5712 0.1070203,6.8311 0.1188818,1.9463 0.1092296,3.926 0.258874,5.856 0.3630686,0.2965 0.8598926,0.1695 1.2732716,0.1162 0.4165125,-0.074 0.8185712,-0.2934 1.2129989,-0.462 0.1925982,-0.4911 0.057293,-1.141 0.099393,-1.6886 -0.027054,-2.2802 0.021135,-4.5788 -0.2636954,-6.8289 -0.2524321,-2.7716 -0.373606,-5.5814 -0.2604126,-8.3822 0.062491,-2.9718 0.1579495,-5.9581 0.6152925,-8.8542 0.2207152,-2.6865 0.1616461,-5.4242 0.2294618,-8.1328 -7.945e-4,-1.1038 0.062762,-2.2262 0.022201,-3.3187 -0.2660784,-0.2805 -0.6844298,-0.105 -1.0152086,-0.2107 -0.4407701,-0.01 -0.8562766,-0.2751 -1.2910579,-0.3032 z"
       id="path3013"
       inkscape:connector-curvature="0" />
    <path
       style="fill:#000000;fill-opacity:1;stroke:none"
       id="path3017"
       d="m 3.9188018,1002.7952 c -6.509e-4,0.087 -4.695e-4,0.1744 -4.211e-4,0.2616 5.76e-5,0.081 9.14e-5,0.1622 1.086e-4,0.2433 1.39e-5,0.077 1.32e-5,0.153 1.39e-5,0.2294 0,0.076 -7e-7,0.1526 -1.4e-6,0.2289 0,0.076 0,0.1527 0,0.2291 0,0.076 0,0.1527 0,0.2291 0,0.076 0,0.1527 0,0.2291 -6.31e-4,0.076 -0.00832,0.1527 -0.020691,0.2262 -0.01405,0.062 -0.020307,0.1267 -0.033351,0.1891 -0.011183,0.066 -0.021108,0.1327 -0.031371,0.1993 -0.0055,0.069 -0.01993,0.1354 -0.029782,0.2033 -0.014938,0.059 -0.025796,0.1198 -0.031411,0.1829 -0.00483,0.074 -0.016944,0.1472 -0.023379,0.2214 -0.00576,0.076 -0.00649,0.1523 -0.007,0.2285 -0.00172,0.075 0.00291,0.1507 -0.00271,0.2255 -0.00957,0.066 -0.01603,0.1322 -0.01948,0.1993 -0.00305,0.075 -0.00305,0.1494 -0.00318,0.2241 4.648e-4,0.074 -0.012183,0.1464 -0.017996,0.2197 -0.00556,0.079 -0.00649,0.1583 -0.00706,0.2376 -3.688e-4,0.077 -2.232e-4,0.1535 -1.622e-4,0.2303 6.48e-5,0.076 8.74e-5,0.1527 1.006e-4,0.229 5.89e-5,0.088 -1.914e-4,0.1754 -2.264e-4,0.2631 0.00285,0.085 -5.059e-4,0.1686 -0.01074,0.2523 -0.00912,0.07 -0.011738,0.141 -0.013373,0.212 0.00244,0.077 -0.00843,0.1522 -0.016002,0.2279 -0.0035,0.072 -0.010213,0.1421 -0.020746,0.2124 -0.016917,0.056 -0.025256,0.1157 -0.036924,0.1742 -0.014565,0.059 -0.019966,0.1206 -0.032196,0.1803 -0.012029,0.058 -0.029207,0.1119 -0.037851,0.1716 -0.015262,0.06 -0.02229,0.1231 -0.032206,0.1853 -0.015347,0.071 -0.017517,0.145 -0.027118,0.2173 -0.00688,0.062 -0.025701,0.1177 -0.037302,0.1773 -0.011083,0.068 -0.012118,0.1386 -0.013209,0.2084 -0.00659,0.066 -0.01609,0.1312 -0.020773,0.1978 -0.00425,0.074 -0.00448,0.1477 -0.00479,0.2216 -1.557e-4,0.076 -3.26e-5,0.1528 2.31e-5,0.2291 5.45e-5,0.076 6.76e-5,0.1528 7.6e-5,0.2292 5.9e-6,0.076 4.7e-6,0.1528 4.4e-6,0.2291 -0.00336,0.077 0.00263,0.1522 0.011055,0.228 0.00689,0.068 0.023321,0.1331 0.03139,0.2013 0.00807,0.074 0.00871,0.1472 0.00138,0.2209 -0.00818,0.067 -0.021878,0.1337 -0.037183,0.198 -0.016507,0.053 -0.033495,0.1045 -0.049398,0.1577 -0.01635,0.055 -0.026691,0.1128 -0.043867,0.1674 -0.019978,0.059 -0.042199,0.1167 -0.060966,0.1772 -0.024692,0.069 -0.048634,0.1381 -0.073192,0.2071 -0.021108,0.066 -0.039119,0.1351 -0.062457,0.1999 -0.019294,0.057 -0.042355,0.1119 -0.056474,0.1728 -0.013605,0.054 -0.032664,0.1035 -0.051902,0.1528 -0.018895,0.05 -0.032741,0.1047 -0.045832,0.1588 -0.016388,0.059 -0.039903,0.113 -0.062044,0.1674 -0.011955,0.036 -0.00569,0.018 -0.018768,0.052 0,0 -0.091288,0.061 -0.091288,0.061 l 0,0 c 0.013848,-0.033 0.00752,-0.016 0.018812,-0.052 0.02151,-0.054 0.045372,-0.1071 0.062881,-0.1645 0.012348,-0.055 0.027431,-0.1099 0.044839,-0.1617 0.020526,-0.047 0.037319,-0.099 0.053033,-0.1497 0.012964,-0.063 0.036286,-0.1174 0.055866,-0.1757 0.024794,-0.063 0.04177,-0.133 0.062522,-0.1995 0.024289,-0.069 0.048399,-0.1379 0.073435,-0.2063 0.01813,-0.061 0.040162,-0.1185 0.060712,-0.1774 0.018171,-0.054 0.02842,-0.1115 0.043788,-0.1672 0.017215,-0.052 0.030758,-0.1064 0.049817,-0.1567 0.016893,-0.062 0.028472,-0.13 0.038375,-0.1953 0.00775,-0.072 0.00794,-0.1438 -5.36e-5,-0.2164 -0.0078,-0.068 -0.024308,-0.133 -0.031242,-0.2015 -0.00853,-0.077 -0.015562,-0.1522 -0.011839,-0.2302 4e-7,-0.076 1.5e-6,-0.1527 -3.5e-6,-0.2291 -7.3e-6,-0.076 -1.84e-5,-0.1528 -7.03e-5,-0.2292 -5.45e-5,-0.076 -1.716e-4,-0.1527 -6.27e-5,-0.2291 2.398e-4,-0.074 3.966e-4,-0.1488 0.00424,-0.2229 0.00424,-0.066 0.012469,-0.1315 0.021226,-0.1968 9.27e-4,-0.071 0.00176,-0.1421 0.011857,-0.2116 0.010636,-0.06 0.030199,-0.1151 0.037675,-0.1766 0.011343,-0.072 0.011086,-0.1472 0.027029,-0.2178 0.010651,-0.062 0.015053,-0.1256 0.032274,-0.1846 0.0078,-0.061 0.024014,-0.1151 0.037343,-0.1729 0.012571,-0.06 0.018219,-0.1213 0.032152,-0.1804 0.013164,-0.057 0.017601,-0.119 0.037408,-0.1731 0.010401,-0.07 0.019024,-0.1394 0.021304,-0.2115 0.00732,-0.075 0.019099,-0.1497 0.01645,-0.2264 0.00145,-0.072 0.00367,-0.1433 0.012621,-0.2139 0.010424,-0.083 0.015794,-0.1653 0.012157,-0.2503 -3.5e-5,-0.088 -2.816e-4,-0.1751 -2.431e-4,-0.2627 -1.23e-5,-0.076 -3.29e-5,-0.1527 -9.5e-5,-0.229 -5.89e-5,-0.077 -1.985e-4,-0.1536 1.364e-4,-0.2305 5.639e-4,-0.08 0.0014,-0.1596 0.00665,-0.239 0.00542,-0.073 0.017559,-0.1448 0.018418,-0.2181 1.03e-4,-0.075 9.08e-5,-0.1501 0.0028,-0.225 0.00311,-0.067 0.0086,-0.1343 0.019143,-0.2001 0.0076,-0.074 0.00116,-0.1494 0.00344,-0.2239 4.707e-4,-0.077 0.00107,-0.1537 0.00648,-0.2301 0.00608,-0.074 0.018153,-0.147 0.023219,-0.2213 0.00503,-0.063 0.013977,-0.1251 0.031007,-0.184 0.00927,-0.068 0.025108,-0.134 0.029875,-0.2037 0.00995,-0.067 0.020698,-0.1333 0.030749,-0.2001 0.013388,-0.062 0.01985,-0.1265 0.033695,-0.1887 0.014024,-0.071 0.020254,-0.1486 0.021996,-0.2228 0,-0.076 0,-0.1527 0,-0.229 0,-0.076 0,-0.1528 0,-0.2291 0,-0.076 0,-0.1527 0,-0.2291 -6e-7,-0.076 -6e-7,-0.1526 -1.3e-6,-0.2289 7e-7,-0.077 0,-0.153 1.39e-5,-0.2295 1.79e-5,-0.081 5.1e-5,-0.1623 1.086e-4,-0.2434 4.83e-5,-0.087 2.317e-4,-0.174 -4.211e-4,-0.2609 0,0 0.089204,-0.069 0.089204,-0.069 z"
       inkscape:connector-curvature="0" />
    <path
       style="fill:#000000;fill-opacity:1;stroke:none"
       id="path3019"
       d="m 4.0957614,1002.7188 c -6.509e-4,0.087 -4.695e-4,0.1744 -4.218e-4,0.2616 5.83e-5,0.081 9.14e-5,0.1622 1.093e-4,0.2433 1.32e-5,0.077 1.32e-5,0.153 1.32e-5,0.2295 0,0.076 -7e-7,0.1526 -7e-7,0.2289 0,0.076 0,0.1527 0,0.229 0,0.076 0,0.1528 0,0.2291 0,0.076 0,0.1527 0,0.2291 0,0.076 0,0.1527 0,0.2291 0,0.076 0,0.1527 0,0.2291 0,0.076 0,0.1527 0,0.229 0,0.076 0,0.1528 0,0.2291 0.00172,0.074 -0.00351,0.1496 0.00278,0.2236 0.010018,0.066 0.016149,0.1327 0.019519,0.2002 0.00298,0.075 0.00298,0.15 0.00311,0.225 3.58e-5,0.076 -6.09e-5,0.1529 -1.079e-4,0.2293 -4.3e-5,0.076 -5.03e-5,0.1528 -5.56e-5,0.2291 -3.3e-6,0.076 -2e-6,0.1528 -1.3e-6,0.2291 -0.00139,0.075 0.00311,0.1507 -0.00265,0.2254 -0.00965,0.066 -0.016123,0.1322 -0.019579,0.1994 -0.00265,0.065 -0.011382,0.1311 -0.02373,0.1938 -0.016209,0.06 -0.022903,0.1237 -0.026803,0.188 -0.00971,0.075 -0.018904,0.1489 -0.02385,0.2245 -0.010872,0.064 -0.016838,0.1305 -0.02767,0.1947 -0.014547,0.062 -0.020877,0.1264 -0.024512,0.1915 -0.00946,0.075 -0.018678,0.1491 -0.023631,0.2247 -3.953e-4,0.078 -0.011673,0.1534 -0.019605,0.2298 -0.0074,0.076 -0.00893,0.152 -0.00992,0.2283 -0.0075,0.065 -0.012984,0.1309 -0.023439,0.1948 -0.014375,0.062 -0.020784,0.1264 -0.024459,0.1915 -0.00922,0.064 -0.018784,0.128 -0.023598,0.1934 -0.00589,0.061 -0.021724,0.1179 -0.036019,0.1754 -0.012733,0.058 -0.028345,0.1135 -0.036324,0.1737 -0.013666,0.061 -0.023545,0.122 -0.028703,0.1856 -0.00622,0.061 -0.021943,0.1176 -0.036172,0.1751 -0.010104,0.062 -0.018566,0.1232 -0.029213,0.1847 -0.010051,0.065 -0.010978,0.1319 -0.02112,0.1971 -0.011693,0.066 -0.015404,0.1339 -0.017738,0.2019 -0.00193,0.075 -0.00179,0.1508 -0.00179,0.2262 -0.00326,0.072 0.00188,0.1407 0.011264,0.2107 0.00665,0.073 0.027106,0.1397 0.042387,0.2088 0.013309,0.067 0.030861,0.1314 0.039648,0.2007 0.00746,0.073 0.00778,0.1466 0.00826,0.2201 -9.932e-4,0.068 0.011859,0.1335 0.01799,0.2003 0.00179,0.068 0.00843,0.1343 0.018082,0.2009 0.00665,0.059 0.021512,0.1152 0.038191,0.1692 0.012084,0.052 0.03733,0.094 0.06024,0.1356 0.021347,0.043 0.044554,0.084 0.07035,0.1216 0.025763,0.041 0.042257,0.091 0.061577,0.1387 0.0253,0.049 0.047957,0.1006 0.071666,0.1514 0.021618,0.055 0.047342,0.107 0.066937,0.1641 0.017692,0.051 0.042164,0.094 0.065749,0.1382 0.019215,0.046 0.039502,0.092 0.064246,0.1314 0.025452,0.04 0.04715,0.083 0.067201,0.1292 0.021631,0.044 0.041065,0.087 0.06606,0.1275 0.02177,0.043 0.043223,0.087 0.068446,0.1255 0.024008,0.04 0.048103,0.08 0.074436,0.1161 0.024439,0.041 0.053148,0.075 0.073443,0.1206 0.022221,0.041 0.049215,0.077 0.076414,0.1107 0.021095,0.036 0.041727,0.074 0.060988,0.112 0,0 -0.085726,0.077 -0.085726,0.077 l 0,0 c -0.018983,-0.037 -0.039058,-0.074 -0.059981,-0.1088 -0.027617,-0.035 -0.055631,-0.071 -0.077883,-0.1145 -0.019983,-0.045 -0.048454,-0.078 -0.072258,-0.1175 -0.026147,-0.037 -0.050666,-0.077 -0.074715,-0.1168 -0.024916,-0.039 -0.046686,-0.083 -0.068518,-0.1257 -0.025472,-0.041 -0.044826,-0.085 -0.066936,-0.1298 -0.019824,-0.045 -0.041263,-0.088 -0.066376,-0.127 -0.024538,-0.041 -0.045296,-0.086 -0.064583,-0.1324 -0.024108,-0.045 -0.048573,-0.089 -0.066591,-0.1409 -0.019301,-0.057 -0.044879,-0.1075 -0.06634,-0.1623 -0.023631,-0.051 -0.046646,-0.1027 -0.072058,-0.1521 -0.018791,-0.047 -0.034973,-0.096 -0.060313,-0.1354 -0.025737,-0.038 -0.04946,-0.08 -0.070955,-0.1232 -0.023207,-0.043 -0.049229,-0.086 -0.061431,-0.1388 -0.016983,-0.055 -0.032292,-0.1121 -0.039125,-0.1722 -0.00968,-0.067 -0.017063,-0.1333 -0.018381,-0.2021 -0.006,-0.067 -0.019141,-0.1337 -0.018394,-0.2021 -4.145e-4,-0.073 -6.099e-4,-0.1456 -0.00759,-0.2176 -0.00837,-0.069 -0.025778,-0.1323 -0.038814,-0.1991 -0.015265,-0.07 -0.036385,-0.1369 -0.043214,-0.2102 -0.00953,-0.071 -0.015522,-0.1407 -0.011962,-0.2135 -1.6e-5,-0.076 -1.777e-4,-0.1513 0.0015,-0.2269 0.00208,-0.069 0.00519,-0.1375 0.016718,-0.2042 0.010769,-0.065 0.012325,-0.1315 0.021049,-0.1974 0.010338,-0.062 0.020671,-0.1232 0.028741,-0.1859 0.013324,-0.057 0.03045,-0.1117 0.037361,-0.172 0.00461,-0.064 0.012782,-0.1264 0.028317,-0.1865 0.00723,-0.061 0.022188,-0.1174 0.035509,-0.1759 0.013381,-0.057 0.030617,-0.1117 0.037271,-0.1722 0.00437,-0.066 0.012468,-0.1296 0.023737,-0.1931 0.00331,-0.066 0.00859,-0.1314 0.023485,-0.1939 0.01215,-0.062 0.014646,-0.1285 0.024796,-0.1917 8.608e-4,-0.077 0.00225,-0.1539 0.00934,-0.2301 0.00766,-0.076 0.019824,-0.1514 0.019844,-0.2289 0.00463,-0.076 0.012918,-0.1503 0.023585,-0.2245 0.00324,-0.066 0.00849,-0.1315 0.023505,-0.194 0.012527,-0.063 0.015328,-0.1297 0.028716,-0.1925 0.00463,-0.076 0.012878,-0.1501 0.02377,-0.2243 0.00351,-0.065 0.00898,-0.13 0.025624,-0.1909 0.014077,-0.061 0.021195,-0.1272 0.024982,-0.1908 0.00311,-0.067 0.00863,-0.1343 0.019241,-0.2001 0.00767,-0.074 0.00139,-0.1493 0.00338,-0.2237 0,-0.076 -1.3e-6,-0.1527 2e-6,-0.2291 4.7e-6,-0.076 1.13e-5,-0.1527 5.3e-5,-0.2291 4.57e-5,-0.076 1.39e-4,-0.1529 1.179e-4,-0.2293 -1.126e-4,-0.075 -1.073e-4,-0.1494 -0.00291,-0.224 -0.00318,-0.067 -0.00906,-0.1337 -0.019301,-0.1993 -0.00701,-0.075 -0.00152,-0.1504 -0.00324,-0.2255 0,-0.076 0,-0.1527 0,-0.2291 0,-0.076 0,-0.1527 0,-0.2291 0,-0.076 0,-0.1527 0,-0.229 0,-0.076 0,-0.1528 0,-0.2291 0,-0.076 0,-0.1527 0,-0.2291 0,-0.076 0,-0.1527 0,-0.2291 0,-0.076 0,-0.1527 0,-0.229 0,-0.076 -6e-7,-0.1526 -6e-7,-0.2289 0,-0.077 0,-0.153 1.32e-5,-0.2295 1.79e-5,-0.081 5.1e-5,-0.1623 1.093e-4,-0.2435 4.76e-5,-0.087 2.31e-4,-0.1739 -4.218e-4,-0.2609 0,0 0.089205,-0.069 0.089205,-0.069 z"
       inkscape:connector-curvature="0" />
    <path
       style="fill:#000000;fill-opacity:1;stroke:none"
       id="path3021"
       d="m 4.6213883,1015.9318 c -0.022837,0.085 -0.044322,0.1706 -0.057902,0.2605 -0.0075,0.081 -0.0146,0.1621 -0.024353,0.243 -0.010164,0.095 -0.011938,0.1914 -0.013401,0.2874 -9.269e-4,0.082 -7.945e-4,0.1641 -7.283e-4,0.2462 4.64e-5,0.091 -1.079e-4,0.1829 -4.9e-5,0.2743 -9.932e-4,0.088 -9.932e-4,0.1752 0.00699,0.2625 0.00865,0.09 0.013315,0.1809 0.023518,0.2708 0.018142,0.1174 0.030285,0.2364 0.045852,0.3546 0.025869,0.129 0.047011,0.26 0.071538,0.3896 0.025147,0.1486 0.056287,0.2949 0.079041,0.4444 0.023148,0.1423 0.050652,0.2829 0.077924,0.4235 0.025088,0.1427 0.056499,0.2823 0.0813,0.4251 0.031391,0.1363 0.047686,0.2784 0.068047,0.4189 0.022241,0.1413 0.040138,0.2842 0.056419,0.4273 0.017857,0.1199 0.032378,0.2404 0.04029,0.3628 0.0049,0.097 0.00543,0.1945 0.00576,0.2918 8.67e-5,0.079 -9.14e-5,0.1577 -1.788e-4,0.2366 0.00298,0.088 -0.00252,0.1741 -0.011289,0.2609 -0.00775,0.076 -0.032629,0.1423 -0.048428,0.2139 -0.01742,0.056 -0.0281,0.1153 -0.043064,0.1726 -0.018996,0.063 -0.039019,0.1246 -0.05387,0.1897 -0.012561,0.068 -0.029246,0.1334 -0.037814,0.2031 -0.00903,0.07 -0.024479,0.1366 -0.039456,0.2039 -0.011693,0.07 -0.022042,0.1402 -0.035973,0.2092 0,0 -0.089913,0.064 -0.089913,0.064 l 0,0 c 0.014712,-0.069 0.024691,-0.1393 0.035688,-0.2093 0.014355,-0.067 0.031265,-0.1324 0.040138,-0.202 0.00792,-0.071 0.024452,-0.1365 0.037324,-0.2051 0.013898,-0.066 0.033682,-0.128 0.053301,-0.1902 0.014977,-0.057 0.025346,-0.1165 0.043528,-0.1719 0.014772,-0.072 0.040542,-0.1372 0.049421,-0.212 0.00885,-0.086 0.015639,-0.1714 0.011806,-0.2588 1.013e-4,-0.079 3.006e-4,-0.1577 3.847e-4,-0.2366 -7.22e-5,-0.097 -2.523e-4,-0.1941 -0.00497,-0.2909 -0.00729,-0.1223 -0.0213,-0.2427 -0.039211,-0.3625 -0.015798,-0.1429 -0.034013,-0.2855 -0.056492,-0.4264 -0.019817,-0.1406 -0.036039,-0.2825 -0.067419,-0.4187 -0.025147,-0.1425 -0.055883,-0.2822 -0.081222,-0.4247 -0.027326,-0.1408 -0.054976,-0.2817 -0.078271,-0.4242 -0.022399,-0.1494 -0.053281,-0.2955 -0.078631,-0.4438 -0.024995,-0.1298 -0.046229,-0.2611 -0.072553,-0.3902 -0.015427,-0.1182 -0.027445,-0.2374 -0.046461,-0.3545 -0.010389,-0.09 -0.015427,-0.1806 -0.02377,-0.2711 -0.00853,-0.088 -0.00891,-0.1756 -0.00746,-0.2645 10e-6,-0.091 -2.125e-4,-0.1827 -3.529e-4,-0.274 -3.97e-5,-0.082 -1.384e-4,-0.1645 8.608e-4,-0.2467 0.00152,-0.097 0.00338,-0.1936 0.012441,-0.2894 0.00971,-0.081 0.01793,-0.1619 0.024419,-0.2437 0.01309,-0.09 0.034371,-0.176 0.056386,-0.2621 0,0 0.090799,-0.063 0.090799,-0.063 z"
       inkscape:connector-curvature="0" />
    <path
       style="fill:#000000;fill-opacity:1;stroke:none"
       id="path3023"
       d="m 3.1603161,1016.1629 c -0.00173,0.1101 0.00185,0.2203 -0.00345,0.3301 -0.00996,0.1245 -0.016238,0.2495 -0.019668,0.3747 -0.00291,0.1356 -0.00301,0.2712 -0.0032,0.4069 -0.00515,0.1419 -0.014633,0.2834 -0.02749,0.4242 -0.014633,0.1406 -0.015557,0.2832 -0.024164,0.4247 -0.011548,0.1404 -0.0177,0.2815 -0.021225,0.4229 -0.00303,0.1404 -0.00284,0.2809 -0.00295,0.4214 -0.00434,0.1402 0.01498,0.2775 0.029542,0.415 0.0097,0.1276 0.03364,0.2511 0.049726,0.3768 0.016949,0.1342 0.047902,0.2629 0.071441,0.3946 0.022062,0.1095 0.044498,0.2186 0.064522,0.3289 0.022617,0.107 0.039706,0.2153 0.056149,0.3246 0.013847,0.1014 0.033503,0.2004 0.044882,0.3025 0.010019,0.1071 0.010524,0.215 0.019786,0.3222 0.010702,0.099 0.014681,0.198 0.016888,0.2977 0.00152,0.1022 0.00175,0.2044 0.00187,0.3066 7.018e-4,0.09 0.00139,0.1794 -0.00701,0.2686 -0.015416,0.099 -0.030001,0.1981 -0.051397,0.2946 -0.02104,0.1049 -0.055555,0.2015 -0.083824,0.302 -0.029346,0.092 -0.059966,0.1826 -0.090414,0.2736 -0.031185,0.069 -0.053408,0.1458 -0.077142,0.2211 -0.022308,0.063 -0.043881,0.1256 -0.0616,0.1922 -0.018935,0.069 -0.025603,0.1436 -0.037428,0.2159 -0.012787,0.074 -0.017107,0.151 -0.019621,0.2275 -0.00201,0.073 -0.00407,0.145 0.00523,0.2167 0.00142,0.011 0.00285,0.021 0.00428,0.032 0,0 -0.087901,0.071 -0.087901,0.071 l 0,0 c -0.00143,-0.011 -0.00287,-0.021 -0.0043,-0.032 -0.00972,-0.073 -0.0083,-0.146 -0.00612,-0.2201 0.00231,-0.077 0.00622,-0.1549 0.018786,-0.2302 0.011947,-0.073 0.018712,-0.1475 0.036676,-0.2177 0.018122,-0.067 0.037579,-0.1309 0.061605,-0.1933 0.024588,-0.075 0.044283,-0.1535 0.077171,-0.2216 0.031568,-0.09 0.060144,-0.1824 0.091064,-0.2727 0.027859,-0.1005 0.062921,-0.1964 0.083985,-0.3011 0.022163,-0.095 0.035876,-0.1939 0.051908,-0.2919 0.00893,-0.089 0.00874,-0.177 0.0077,-0.2666 1.213e-4,-0.1021 3.245e-4,-0.2043 -0.0014,-0.3064 -0.00212,-0.099 -0.00622,-0.1983 -0.016384,-0.2964 -0.00925,-0.1071 -0.010502,-0.2147 -0.01968,-0.3217 -0.011248,-0.1019 -0.030966,-0.2007 -0.04445,-0.3019 -0.01658,-0.109 -0.033274,-0.2174 -0.055872,-0.3241 -0.020385,-0.1102 -0.042316,-0.2196 -0.064396,-0.3291 -0.023101,-0.1323 -0.054194,-0.2612 -0.071615,-0.3957 -0.016244,-0.1258 -0.040432,-0.2495 -0.049739,-0.3773 -0.014627,-0.1382 -0.034438,-0.2761 -0.030302,-0.417 5.6e-5,-0.1407 1.86e-4,-0.2813 0.00264,-0.4219 0.00387,-0.1416 0.00936,-0.283 0.021171,-0.4237 0.00904,-0.1416 0.00948,-0.2845 0.024042,-0.4254 0.012787,-0.1403 0.022383,-0.281 0.028077,-0.4224 4.82e-5,-0.1357 -1.525e-4,-0.2715 0.00283,-0.4072 0.0031,-0.1253 0.009,-0.2504 0.019156,-0.375 0.00612,-0.109 0.00234,-0.2187 0.0026,-0.3281 0,0 0.089026,-0.068 0.089026,-0.068 z"
       inkscape:connector-curvature="0" />
    <path
       style="fill:#000000;fill-opacity:1;stroke:none"
       id="path3025"
       d="m 3.0365639,1027.8019 c 0.010434,0.087 0.015749,0.1746 0.019321,0.2625 0.00328,0.094 0.00298,0.1883 0.00293,0.2824 0.0066,0.1107 0.015601,0.2208 0.020444,0.3318 0.00434,0.1015 0.00452,0.2032 0.00481,0.3049 -1.069e-4,0.1187 -1.31e-4,0.2375 -4.06e-5,0.3563 -6.4e-5,0.1157 -1.757e-4,0.2315 -1.919e-4,0.3473 -2.34e-5,0.1284 -1.781e-4,0.2569 -6.31e-5,0.3853 -9.402e-4,0.1256 -0.00142,0.2506 0.00701,0.3756 0.00846,0.1148 0.026266,0.2271 0.034802,0.3419 0.00925,0.1089 0.03014,0.2141 0.044626,0.3214 0.010831,0.083 0.013615,0.1673 0.015022,0.2516 0.00124,0.082 0.00345,0.1623 -0.00941,0.242 -0.017193,0.085 -0.037246,0.1691 -0.064112,0.2481 -0.028466,0.083 -0.056851,0.1656 -0.080802,0.2518 -0.031396,0.1021 -0.057511,0.2076 -0.083566,0.3129 -0.01828,0.091 -0.039681,0.1808 -0.053064,0.2739 -0.00693,0.086 -0.027182,0.1663 -0.041785,0.2491 -0.013452,0.084 -0.016367,0.1694 -0.027158,0.2537 -0.012112,0.083 -0.015526,0.1686 -0.017812,0.2537 -0.00189,0.09 -0.00171,0.1806 -0.00165,0.2709 1.164e-4,0.08 2.169e-4,0.1601 2.7e-4,0.2401 2.27e-5,0.038 3e-5,0.076 3.77e-5,0.1147 0,0 -0.088604,0.068 -0.088604,0.068 l 0,0 c -4.4e-6,-0.038 -8.7e-6,-0.077 -1.94e-5,-0.1147 -2.39e-5,-0.08 -7.13e-5,-0.1602 -7.63e-5,-0.2403 3.61e-5,-0.091 -1.404e-4,-0.181 0.00148,-0.2715 0.0022,-0.086 0.00496,-0.1716 0.017007,-0.2556 0.011172,-0.085 0.014504,-0.1705 0.027116,-0.2547 0.01406,-0.083 0.034984,-0.163 0.04185,-0.2484 0.012939,-0.094 0.034826,-0.1843 0.053083,-0.2763 0.025822,-0.1055 0.051639,-0.2113 0.083211,-0.3132 0.023454,-0.087 0.051257,-0.1698 0.080016,-0.2528 0.027255,-0.078 0.047624,-0.161 0.0651,-0.245 0.014018,-0.078 0.011599,-0.1575 0.010416,-0.2382 -0.00119,-0.083 -0.00354,-0.1672 -0.013803,-0.2495 -0.014063,-0.1079 -0.035179,-0.2135 -0.044685,-0.3228 -0.00849,-0.1149 -0.026041,-0.2273 -0.03473,-0.3421 -0.00873,-0.1255 -0.00843,-0.2509 -0.00738,-0.377 1.141e-4,-0.1285 -4.26e-5,-0.2569 -5.46e-5,-0.3853 -7e-7,-0.1157 -8.91e-5,-0.2314 -4.35e-5,-0.3472 2.091e-4,-0.1187 4.152e-4,-0.2374 1.67e-5,-0.3561 -2.777e-4,-0.1015 -8.012e-4,-0.2029 -0.00446,-0.3042 -0.00461,-0.1113 -0.013495,-0.2217 -0.020728,-0.3326 -2.666e-4,-0.094 -2.343e-4,-0.1876 -0.0031,-0.2813 -0.00328,-0.087 -0.00799,-0.1743 -0.019503,-0.26 0,0 0.088273,-0.071 0.088273,-0.071 z"
       inkscape:connector-curvature="0" />
    <path
       style="fill:#000000;fill-opacity:1;stroke:none"
       id="path3027"
       d="m 3.4436615,1025.1713 c 0.027205,0.096 0.044615,0.1976 0.069134,0.2953 0.030713,0.1056 0.050038,0.216 0.068134,0.3276 0.01748,0.1195 0.03517,0.2389 0.046266,0.3602 0.0092,0.1211 0.010397,0.2427 0.01977,0.3637 0.01005,0.1182 0.014392,0.2371 0.016829,0.3561 0.00184,0.1122 0.00168,0.2245 0.00183,0.3368 0.0032,0.1111 -0.00301,0.221 -0.011417,0.3312 -0.013557,0.1064 -0.02525,0.2132 -0.040629,0.319 -0.018517,0.1089 -0.038043,0.2175 -0.054355,0.3272 -0.021127,0.1073 -0.032444,0.218 -0.047292,0.3275 -0.015069,0.1117 -0.030754,0.223 -0.040267,0.3362 -0.00667,0.086 -0.00788,0.172 -0.00844,0.2582 -2.428e-4,0.076 -1.39e-5,0.1529 9.25e-5,0.2293 0.00439,0.068 0.021652,0.132 0.038214,0.1949 0.015408,0.072 0.042362,0.1361 0.063505,0.2042 0.021541,0.073 0.034417,0.1496 0.042205,0.2289 0.010777,0.1127 0.032399,0.2219 0.050212,0.3323 0.019208,0.1489 0.043515,0.2959 0.067314,0.4432 0.023909,0.2056 0.055658,0.4087 0.086008,0.6123 0.03492,0.2367 0.080043,0.4692 0.1271966,0.7008 0.010005,0.047 0.020009,0.094 0.030014,0.1412 0,0 -0.082897,0.069 -0.082897,0.069 l 0,0 c -0.010356,-0.047 -0.020711,-0.094 -0.031067,-0.1406 -0.047408,-0.2318 -0.092303,-0.4648 -0.1279534,-0.7015 -0.030511,-0.2032 -0.062466,-0.406 -0.087002,-0.6112 -0.024034,-0.1471 -0.048855,-0.2938 -0.067997,-0.4426 -0.018111,-0.1107 -0.040116,-0.22 -0.051545,-0.3329 -0.00738,-0.078 -0.020085,-0.1524 -0.041167,-0.2247 -0.021019,-0.068 -0.048032,-0.1328 -0.063676,-0.2051 -0.0173,-0.064 -0.034874,-0.1303 -0.039962,-0.1999 -1.042e-4,-0.076 -3.29e-4,-0.153 -9.48e-5,-0.2295 5.558e-4,-0.087 0.00174,-0.1738 0.00845,-0.2602 0.00951,-0.1135 0.024898,-0.2252 0.040099,-0.3373 0.014649,-0.1096 0.025929,-0.2204 0.047162,-0.3277 0.016059,-0.1097 0.035671,-0.2182 0.054201,-0.327 0.015608,-0.1054 0.02711,-0.2119 0.041228,-0.3178 0.00865,-0.1097 0.015265,-0.2189 0.011792,-0.3295 1.556e-4,-0.1122 2.18e-4,-0.2245 -0.00143,-0.3367 -0.00221,-0.1186 -0.00644,-0.2371 -0.016386,-0.3549 -0.00959,-0.121 -0.010899,-0.2425 -0.01951,-0.3636 -0.010961,-0.1208 -0.028706,-0.2397 -0.04599,-0.3586 -0.018247,-0.111 -0.036774,-0.221 -0.067692,-0.3259 -0.024917,-0.098 -0.041322,-0.1997 -0.070354,-0.295 0,0 0.087464,-0.073 0.087464,-0.073 z"
       inkscape:connector-curvature="0" />
    <path
       style="fill:#000000;fill-opacity:1;stroke:none"
       id="path3029"
       d="m 3.5396038,1035.2102 c -7.482e-4,0.1001 -6.557e-4,0.2002 -6.362e-4,0.3003 -3.75e-5,0.1223 -2.264e-4,0.2446 -1.377e-4,0.3669 -2.387e-4,0.1389 -1.178e-4,0.2778 -1.646e-4,0.4167 3.57e-5,0.1419 -1.417e-4,0.2837 9.4e-5,0.4255 6.405e-4,0.1342 -0.011701,0.2675 -0.018142,0.4012 -0.00511,0.1138 -0.00629,0.2279 -0.00686,0.3419 9.3e-5,0.1072 -0.011934,0.2133 -0.018231,0.3199 -0.00491,0.087 -0.00614,0.1739 -0.00675,0.261 -2.763e-4,0.08 -2.534e-4,0.1608 -2.6e-4,0.2412 -0.00361,0.1041 0.015624,0.2045 0.029188,0.3054 0.010205,0.1057 0.031397,0.2075 0.049667,0.3103 0.019713,0.092 0.03847,0.1852 0.059882,0.2767 0.016836,0.081 0.031506,0.161 0.053317,0.2392 0.018241,0.078 0.038827,0.1552 0.05828,0.2328 0.023538,0.074 0.039125,0.1522 0.053844,0.2307 0.015189,0.085 0.020393,0.1723 0.02334,0.2596 0.00199,0.078 0.00172,0.156 0.00166,0.234 -2.701e-4,0.099 -6.045e-4,0.1981 -5.893e-4,0.2971 -0.00712,0.1093 -0.013037,0.2191 -0.023459,0.3279 -0.011998,0.1127 -0.03149,0.2229 -0.042362,0.336 -0.012163,0.087 -0.022413,0.1754 -0.037317,0.2618 -0.013779,0.075 -0.018725,0.1516 -0.021486,0.2286 -0.00113,0.051 -6.622e-4,0.025 -0.00139,0.076 0,0 -0.088692,0.068 -0.088692,0.068 l 0,0 c 5.903e-4,-0.051 1.856e-4,-0.026 0.00121,-0.076 0.00254,-0.078 0.00702,-0.1559 0.020704,-0.2314 0.015078,-0.086 0.02557,-0.1736 0.038273,-0.2607 0.010747,-0.1132 0.029996,-0.2235 0.042469,-0.3361 0.010812,-0.108 0.015904,-0.2174 0.024068,-0.3259 9.8e-5,-0.099 -1.377e-4,-0.1978 -6.68e-5,-0.2966 9.86e-5,-0.078 3.88e-4,-0.1557 -0.00132,-0.2334 -0.00258,-0.086 -0.00724,-0.1729 -0.022148,-0.2567 -0.014778,-0.078 -0.030073,-0.1562 -0.053618,-0.2295 -0.019329,-0.077 -0.039775,-0.1543 -0.058012,-0.2323 -0.0219,-0.079 -0.037124,-0.1587 -0.053428,-0.2402 -0.021565,-0.092 -0.040044,-0.1852 -0.060138,-0.2778 -0.017953,-0.1032 -0.039679,-0.2053 -0.049709,-0.3113 -0.013727,-0.1017 -0.033577,-0.2028 -0.030542,-0.3077 -1.15e-4,-0.08 -4.02e-4,-0.1608 2.5e-5,-0.2412 6.309e-4,-0.087 0.0019,-0.1751 0.00688,-0.2624 0.0063,-0.1063 0.018133,-0.2121 0.018711,-0.3189 6.38e-4,-0.1144 0.00155,-0.2289 0.00697,-0.3431 0.00628,-0.1334 0.018961,-0.2664 0.018497,-0.4002 2.351e-4,-0.1419 5.87e-5,-0.2838 9.4e-5,-0.4257 -4.69e-5,-0.1388 7.42e-5,-0.2776 -1.646e-4,-0.4165 8.85e-5,-0.1222 -1e-4,-0.2444 -1.376e-4,-0.3667 1.94e-5,-0.1 1.177e-4,-0.1995 -6.363e-4,-0.2992 0,0 0.089205,-0.069 0.089205,-0.069 z"
       inkscape:connector-curvature="0" />
    <path
       style="fill:#000000;fill-opacity:1;stroke:none"
       id="path3031"
       d="m 2.2554466,1040.5911 c 0.020274,0.1049 0.050077,0.2054 0.081729,0.3035 0.028961,0.093 0.054292,0.1876 0.08414,0.2797 0.031154,0.1035 0.064332,0.2056 0.091571,0.3117 0.02682,0.104 0.051874,0.2089 0.077264,0.3137 0.019995,0.111 0.037369,0.2228 0.058696,0.3333 0.018607,0.1018 0.023832,0.2072 0.036006,0.3109 0.015165,0.1092 0.025151,0.2199 0.039495,0.3293 0.015932,0.1072 0.023574,0.2163 0.028256,0.3257 0.00634,0.093 0.025831,0.1828 0.038639,0.2744 0.01219,0.08 0.010196,0.1631 0.017457,0.2442 0.010079,0.076 0.016473,0.1527 0.019985,0.2299 0.00281,0.076 0.00285,0.1529 0.00296,0.2293 -0.00104,0.077 0.00257,0.1536 -0.00289,0.2299 -0.00569,0.079 -0.023157,0.153 -0.034497,0.2297 -0.018029,0.08 -0.024436,0.1638 -0.043406,0.2429 -0.018903,0.075 -0.041206,0.1471 -0.063156,0.2198 -0.020716,0.083 -0.042141,0.1654 -0.070791,0.2433 -0.027041,0.084 -0.058382,0.164 -0.084423,0.2483 -0.022341,0.076 -0.046962,0.1503 -0.071354,0.2249 -0.018398,0.077 -0.043309,0.1495 -0.061783,0.2262 -0.015527,0.086 -0.024693,0.1749 -0.033852,0.2631 -0.00911,0.091 -0.012219,0.1823 -0.013833,0.2738 0.00105,0.082 0.021265,0.1563 0.041447,0.2306 0.014796,0.074 0.040316,0.1408 0.060857,0.211 0.014661,0.069 0.028425,0.1394 0.037885,0.2109 0.00748,0.077 0.0208,0.1525 0.035763,0.2269 0.014294,0.084 0.019129,0.1702 0.030919,0.2549 0.011653,0.079 0.016117,0.1606 0.01867,0.2417 0.00122,0.078 0.013421,0.1535 0.019722,0.2303 0.00177,0.077 0.013693,0.1526 0.021865,0.2288 0.00763,0.076 0.00917,0.1531 0.010163,0.23 6.612e-4,0.076 4.841e-4,0.1528 4.183e-4,0.2292 -0.00179,0.062 -5.51e-5,0.1224 0.00671,0.1834 0,0 -0.087867,0.071 -0.087867,0.071 l 0,0 c -0.00726,-0.062 -0.00951,-0.1229 -0.00745,-0.1857 6.87e-5,-0.076 2.465e-4,-0.1527 -3.282e-4,-0.229 -8.806e-4,-0.076 -0.0022,-0.1526 -0.0095,-0.2281 -0.00801,-0.076 -0.020544,-0.1516 -0.022047,-0.2293 -0.00612,-0.077 -0.018515,-0.1535 -0.02004,-0.2313 -0.00231,-0.08 -0.00635,-0.1609 -0.017847,-0.2397 -0.011936,-0.084 -0.016432,-0.17 -0.030551,-0.2536 -0.015078,-0.075 -0.028904,-0.1507 -0.036325,-0.2282 -0.00908,-0.071 -0.022962,-0.1393 -0.036954,-0.2079 -0.02035,-0.07 -0.045935,-0.1375 -0.06072,-0.2116 -0.02068,-0.076 -0.04157,-0.1524 -0.043388,-0.2361 0.0016,-0.092 0.00473,-0.1844 0.013704,-0.2758 0.00892,-0.089 0.018094,-0.1782 0.032616,-0.2653 0.017677,-0.078 0.043787,-0.1498 0.0613,-0.2277 0.023381,-0.075 0.049996,-0.1481 0.071556,-0.2247 0.025374,-0.085 0.057923,-0.1651 0.084346,-0.2496 0.029204,-0.077 0.050997,-0.1583 0.070762,-0.2418 0.021571,-0.073 0.044514,-0.1446 0.063501,-0.2191 0.020756,-0.078 0.024804,-0.1619 0.043895,-0.2407 0.010824,-0.077 0.028638,-0.1504 0.034886,-0.2284 0.00668,-0.076 0.00201,-0.1522 0.00342,-0.2283 -8.42e-5,-0.076 -7.62e-5,-0.1523 -0.00267,-0.2284 -0.00328,-0.077 -0.00931,-0.1534 -0.019603,-0.229 -0.00792,-0.081 -0.00507,-0.1634 -0.016905,-0.2435 -0.01257,-0.092 -0.032511,-0.1824 -0.039154,-0.2765 -0.00418,-0.1089 -0.011416,-0.2175 -0.027374,-0.3241 -0.014459,-0.1094 -0.024257,-0.2202 -0.039823,-0.3294 -0.012048,-0.1032 -0.017369,-0.2081 -0.035353,-0.3096 -0.02103,-0.1102 -0.03871,-0.2216 -0.058298,-0.3324 -0.025493,-0.1047 -0.050399,-0.2096 -0.077009,-0.3136 -0.027111,-0.1058 -0.060366,-0.2072 -0.091517,-0.3103 -0.030215,-0.092 -0.055051,-0.1872 -0.083788,-0.2801 -0.03182,-0.098 -0.061414,-0.1989 -0.083457,-0.3032 0,0 0.087344,-0.074 0.087344,-0.074 z"
       inkscape:connector-curvature="0" />
    <path
       style="fill:#000000;fill-opacity:1;stroke:none"
       id="path3033"
       d="m 3.6634103,1047.9637 c -0.012791,0.086 -0.014119,0.1745 -0.022944,0.2613 -0.011201,0.08 -0.018594,0.1611 -0.022505,0.2427 -0.00499,0.077 -0.02132,0.1501 -0.034641,0.2244 -0.012863,0.076 -0.01604,0.1545 -0.017995,0.2326 -0.00134,0.077 -0.00108,0.1533 -9.865e-4,0.23 1.19e-4,0.076 1.833e-4,0.1527 2.192e-4,0.2291 0.00238,0.095 -0.00162,0.1888 -0.01425,0.2819 -0.015309,0.083 -0.026631,0.1677 -0.032404,0.2538 -0.00364,0.087 -0.015692,0.1734 -0.022349,0.2604 -0.00591,0.087 -0.00642,0.1751 -0.00692,0.2627 -2.585e-4,0.08 -8.86e-5,0.1596 -7.7e-6,0.2393 -1.597e-4,0.073 -0.00233,0.1452 0.00697,0.217 0.00923,0.06 0.026371,0.1156 0.034761,0.1763 0.014839,0.071 0.024177,0.143 0.02954,0.2166 0.00299,0.068 0.016484,0.1337 0.02301,0.2012 0.00595,0.073 0.00646,0.1464 0.00698,0.2197 3.1e-4,0.076 1.519e-4,0.1527 8.43e-5,0.229 -0.00336,0.072 0.00167,0.1406 0.010999,0.2105 0.00869,0.036 0.00413,0.018 0.013682,0.054 0,0 -0.087148,0.074 -0.087148,0.074 l 0,0 c -0.00988,-0.037 -0.00506,-0.018 -0.014445,-0.056 -0.00948,-0.071 -0.015369,-0.1407 -0.011696,-0.2134 6.73e-5,-0.076 2.221e-4,-0.1525 -5.06e-5,-0.2287 -4.665e-4,-0.073 -8.872e-4,-0.1456 -0.00652,-0.2179 -0.00634,-0.068 -0.019986,-0.1334 -0.02302,-0.2017 -0.00507,-0.073 -0.013971,-0.1452 -0.029313,-0.2152 -0.00813,-0.061 -0.025456,-0.1163 -0.034787,-0.1765 -0.00969,-0.073 -0.00815,-0.1457 -0.00763,-0.2197 -5.58e-5,-0.08 -1.793e-4,-0.1597 1.372e-4,-0.2396 5.369e-4,-0.088 9.468e-4,-0.1763 0.00641,-0.2641 0.00646,-0.087 0.018849,-0.1728 0.022312,-0.2601 0.00546,-0.087 0.016217,-0.1719 0.032417,-0.2556 0.013744,-0.092 0.01702,-0.1848 0.014637,-0.2787 -3.34e-5,-0.076 -9.27e-5,-0.1528 -2.123e-4,-0.2291 -9.45e-5,-0.077 -3.614e-4,-0.1537 8.409e-4,-0.2306 0.00179,-0.079 0.00469,-0.1584 0.017038,-0.2356 0.01266,-0.074 0.029819,-0.1454 0.03545,-0.2218 0.00369,-0.082 0.010608,-0.1636 0.022343,-0.244 0.00978,-0.086 0.010424,-0.175 0.021927,-0.2612 0,0 0.090067,-0.066 0.090067,-0.066 z"
       inkscape:connector-curvature="0" />
    <path
       style="fill:#000000;fill-opacity:1;stroke:none"
       id="path3035"
       d="m 4.025039,1022.4937 c 0.026531,0.098 0.055863,0.1946 0.088392,0.2887 0.035013,0.1069 0.071841,0.2131 0.1004371,0.3244 0.026895,0.099 0.052473,0.1989 0.074894,0.3006 0.024565,0.09 0.041171,0.1834 0.059948,0.276 0.015725,0.076 0.020824,0.1553 0.023618,0.2344 0.00192,0.076 0.00159,0.1526 0.00152,0.2289 -9.27e-4,0.078 0.00205,0.1565 -0.00318,0.2344 -0.00802,0.088 -0.027061,0.1717 -0.037589,0.2588 -0.013891,0.077 -0.024869,0.1541 -0.030716,0.2331 -0.00457,0.076 -0.0047,0.1521 -0.00497,0.2283 -3.112e-4,0.073 -0.00232,0.145 0.00703,0.2167 0.010541,0.067 0.014428,0.1363 0.016798,0.2052 0.00973,0.074 0.017698,0.1477 0.02236,0.2226 0.00457,0.093 0.00424,0.1855 0.00457,0.2783 2.046e-4,0.086 1.596e-4,0.1729 1.364e-4,0.2594 -2.52e-5,0.077 -3.71e-5,0.1538 -4.37e-5,0.2307 -4.6e-6,0.076 -4.6e-6,0.1525 -4.6e-6,0.2287 0,0.076 0,0.1527 0,0.2291 6e-7,0.076 6e-7,0.1527 6e-7,0.2291 0,0.076 0,0.1527 0,0.229 0,0.076 0,0.1528 0,0.2291 0,0.076 0,0.1527 0,0.2291 0,0.025 0,0.051 0,0.076 0,0 -0.088604,0.068 -0.088604,0.068 l 0,0 c 0,-0.025 0,-0.051 0,-0.076 0,-0.076 0,-0.1527 0,-0.2291 0,-0.076 0,-0.1527 0,-0.2291 0,-0.076 0,-0.1527 0,-0.2291 0,-0.076 0,-0.1527 -7e-7,-0.229 0,-0.076 0,-0.1527 -1.3e-6,-0.2291 -7e-7,-0.076 -3.3e-6,-0.1525 2.6e-6,-0.2287 9.3e-6,-0.077 2.25e-5,-0.1539 1.066e-4,-0.2308 1.026e-4,-0.086 3e-4,-0.1731 2.655e-4,-0.2596 -1.926e-4,-0.092 -1.873e-4,-0.1847 -0.00457,-0.2769 -0.00444,-0.075 -0.012229,-0.1492 -0.022671,-0.223 -0.00219,-0.068 -0.00583,-0.1365 -0.016268,-0.2032 -0.00973,-0.073 -0.00836,-0.1455 -0.00773,-0.2195 1.702e-4,-0.077 2.391e-4,-0.1533 0.0045,-0.2296 0.0055,-0.08 0.015566,-0.1575 0.03053,-0.2342 0.010091,-0.087 0.028928,-0.1707 0.037953,-0.2579 0.00589,-0.077 0.00232,-0.1551 0.00344,-0.2328 1.02e-4,-0.076 4.257e-4,-0.1522 -0.00126,-0.2282 -0.00252,-0.078 -0.00706,-0.1562 -0.022294,-0.2313 -0.018573,-0.093 -0.034801,-0.1865 -0.059319,-0.2762 -0.02228,-0.1015 -0.048295,-0.2007 -0.074613,-0.2999 -0.02808,-0.111 -0.064934,-0.2167 -0.099983,-0.3229 -0.032557,-0.095 -0.061577,-0.1916 -0.090052,-0.2891 0,0 0.087344,-0.074 0.087344,-0.074 z"
       inkscape:connector-curvature="0" />
    <path
       style="fill:#000000;fill-opacity:1;stroke:none"
       id="path3037"
       d="m 3.6578888,1014.8042 c 0.021069,-0.081 0.03005,-0.167 0.046505,-0.25 0.01511,-0.07 0.020135,-0.1436 0.022943,-0.2169 0.00119,-0.05 7.283e-4,-0.025 0.00139,-0.075 0,0 0.088713,-0.068 0.088713,-0.068 l 0,0 c -5.741e-4,0.05 -1.728e-4,0.025 -0.00119,0.075 -0.00252,0.074 -0.00693,0.1488 -0.022002,0.2202 -0.01691,0.083 -0.02669,0.1685 -0.045541,0.2507 0,0 -0.090799,0.064 -0.090799,0.064 z"
       inkscape:connector-curvature="0" />
  </g>
</svg>
