<?xml version="1.0" encoding="UTF-8" standalone="no"?>
<!-- Created with Inkscape (http://www.inkscape.org/) -->

<svg
   xmlns:dc="http://purl.org/dc/elements/1.1/"
   xmlns:cc="http://creativecommons.org/ns#"
   xmlns:rdf="http://www.w3.org/1999/02/22-rdf-syntax-ns#"
   xmlns:svg="http://www.w3.org/2000/svg"
   xmlns="http://www.w3.org/2000/svg"
   xmlns:xlink="http://www.w3.org/1999/xlink"
   xmlns:sodipodi="http://sodipodi.sourceforge.net/DTD/sodipodi-0.dtd"
   xmlns:inkscape="http://www.inkscape.org/namespaces/inkscape"
   width="30"
   height="70"
   id="svg2"
   version="1.1"
   inkscape:version="0.48.5 r10040"
   sodipodi:docname="staffWill.svg"
   inkscape:export-filename="C:\Users\narfman0\Desktop\staffWill.png"
   inkscape:export-xdpi="90"
   inkscape:export-ydpi="90">
  <defs
     id="defs4">
    <linearGradient
       inkscape:collect="always"
       id="linearGradient3921">
      <stop
         style="stop-color:#5f8dd3;stop-opacity:1;"
         offset="0"
         id="stop3923" />
      <stop
         style="stop-color:#5f8dd3;stop-opacity:0;"
         offset="1"
         id="stop3925" />
    </linearGradient>
    <inkscape:perspective
       sodipodi:type="inkscape:persp3d"
       inkscape:vp_x="3.8871948 : 36.637141 : 1"
       inkscape:vp_y="0 : 857.00865 : 0"
       inkscape:vp_z="26.082476 : 36.637141 : 1"
       inkscape:persp3d-origin="14.984836 : 28.781231 : 1"
       id="perspective3135" />
    <radialGradient
       inkscape:collect="always"
       xlink:href="#linearGradient3921"
       id="radialGradient3929"
       cx="5.077805"
       cy="7.9484029"
       fx="5.077805"
       fy="7.9484029"
       r="4.9140048"
       gradientTransform="matrix(1,0,0,1.275,0,-2.1858107)"
       gradientUnits="userSpaceOnUse" />
  </defs>
  <sodipodi:namedview
     id="base"
     pagecolor="#ffffff"
     bordercolor="#666666"
     borderopacity="1.0"
     inkscape:pageopacity="0.0"
     inkscape:pageshadow="2"
     inkscape:zoom="12.21"
     inkscape:cx="3.358794"
     inkscape:cy="32.547061"
     inkscape:document-units="px"
     inkscape:current-layer="layer1"
     showgrid="false"
     inkscape:window-width="1109"
     inkscape:window-height="880"
     inkscape:window-x="386"
     inkscape:window-y="20"
     inkscape:window-maximized="0" />
  <metadata
     id="metadata7">
    <rdf:RDF>
      <cc:Work
         rdf:about="">
        <dc:format>image/svg+xml</dc:format>
        <dc:type
           rdf:resource="http://purl.org/dc/dcmitype/StillImage" />
        <dc:title />
      </cc:Work>
    </rdf:RDF>
  </metadata>
  <g
     inkscape:label="Layer 1"
     inkscape:groupmode="layer"
     id="layer1"
     transform="translate(0,-982.3622)">
    <path
       sodipodi:type="arc"
       style="fill:url(#radialGradient3929);fill-opacity:1;stroke:none"
       id="path3151"
       sodipodi:cx="5.077805"
       sodipodi:cy="7.9484029"
       sodipodi:rx="4.9140048"
       sodipodi:ry="6.2653561"
       d="m 9.9918098,7.9484029 a 4.9140048,6.2653561 0 1 1 -9.82800956,0 4.9140048,6.2653561 0 1 1 9.82800956,0 z"
       transform="matrix(3.0166667,0,0,2.503268,-0.41223061,981.31861)" />
    <path
       style="fill:#000000;fill-opacity:1;stroke:none"
       id="path3041"
       d="m 14.194627,1007.1925 c -0.0023,0.2643 -0.0016,0.5286 -0.0015,0.7929 3.73e-4,0.2849 -1.56e-4,0.5699 -7.57e-4,0.8548 -2.29e-4,0.3637 -6.25e-4,0.7274 -3.18e-4,1.0911 6.54e-4,0.3053 0.0011,0.6107 5.42e-4,0.916 -2.95e-4,0.2939 7.34e-4,0.5877 3.49e-4,0.8816 -0.0011,0.321 -0.04175,0.6394 -0.06395,0.9589 -0.01964,0.2986 -0.02279,0.5985 -0.02486,0.898 -0.0013,0.3365 -0.0016,0.673 -0.0011,1.0095 1.37e-4,0.3264 9.56e-4,0.6529 4.97e-4,0.9793 -2.1e-5,0.2952 5.58e-4,0.5905 8.75e-4,0.8857 2.39e-4,0.2382 2.8e-4,0.4763 3.06e-4,0.7144 1.43e-4,0.2718 -8.94e-4,0.5436 -8.29e-4,0.8154 2.28e-4,0.2658 5.34e-4,0.5317 6.94e-4,0.7975 1.13e-4,0.2571 -3.55e-4,0.5141 -2.53e-4,0.7711 1.56e-4,0.2458 2.75e-4,0.4917 3.39e-4,0.7375 -2.81e-4,0.2671 -0.04468,0.5296 -0.06439,0.7951 -0.02065,0.3105 -0.02305,0.6222 -0.02548,0.9336 -0.0015,0.3095 1.66e-4,0.6189 6.3e-5,0.9284 0.01383,0.3147 -0.02547,0.625 -0.05248,0.9365 -0.02634,0.3112 -0.03151,0.6245 -0.03488,0.9373 -0.0027,0.2956 -0.0018,0.5913 -0.0012,0.8869 5.82e-4,0.3065 -0.04175,0.6099 -0.06376,0.9146 -0.01944,0.2992 -0.02251,0.5996 -0.02495,0.8997 -0.0012,0.3076 -4.59e-4,0.6152 -6.49e-4,0.9228 -5.25e-4,0.3181 3.57e-4,0.6362 8.59e-4,0.9543 -3.17e-4,0.2991 -4.18e-4,0.5983 -1.12e-4,0.8974 2.23e-4,0.2984 -3.81e-4,0.5968 -1.7e-4,0.8951 5.84e-4,0.2733 3.89e-4,0.5465 2.81e-4,0.8197 6.5e-5,0.258 2.99e-4,0.5159 4.21e-4,0.7738 9.9e-5,0.2339 1.11e-4,0.4677 1.2e-4,0.7015 5e-6,0.2313 3e-6,0.4625 10e-7,0.6937 -2.8e-5,0.2548 -4.87e-4,0.5095 -3.94e-4,0.7643 4.7e-5,0.2509 5.64e-4,0.5018 2.7e-5,0.7527 -2.4e-4,0.2618 4.4e-5,0.5236 1.88e-4,0.7854 -6.3e-5,0.2814 -7.26e-4,0.5629 -5.9e-4,0.8443 1.31e-4,0.2662 8.36e-4,0.5325 3.43e-4,0.7987 -5e-6,0.2785 1.49e-4,0.557 -4.98e-4,0.8354 -2.14e-4,0.2903 3.21e-4,0.5806 6.12e-4,0.8709 2.29e-4,0.2386 2.77e-4,0.4772 3.05e-4,0.7157 1.8e-5,0.231 1.2e-5,0.462 10e-6,0.693 -3e-6,0.2314 -4e-6,0.4627 -4e-6,0.6941 -1e-6,0.2315 -1e-6,0.4629 -1e-6,0.6944 0,0.2315 0,0.463 0,0.6945 -0.005,0.2276 0.01083,0.4567 -0.0093,0.6831 -0.03389,0.1996 -0.05664,0.4008 -0.06879,0.6044 -0.01068,0.2262 -0.0108,0.4529 -0.01131,0.6793 -1.51e-4,0.2317 1.94e-4,0.4633 3.61e-4,0.6949 1.53e-4,0.2316 1.8e-4,0.4632 1.99e-4,0.6947 1.2e-5,0.2315 8e-6,0.463 7e-6,0.6945 -0.0042,0.1978 -0.02137,0.3918 0.121732,0.5054 0.150143,0.083 0.309846,0.024 0.464601,0 0.198468,-0.035 0.393822,-0.098 0.587009,-0.1664 0.19032,-0.051 0.379053,-0.1084 0.568916,-0.1624 0.148686,-0.084 0.302737,-0.1351 0.462989,-0.1616 0.174742,-0.038 0.346297,0.018 0.518613,0.05 0.08378,0 0.162829,0.039 0.242511,0.068 0,0 -0.288804,0.2579 -0.288804,0.2579 l 0,0 c -0.07861,-0.028 -0.157121,-0.059 -0.239257,-0.064 -0.170564,-0.033 -0.340585,-0.081 -0.513257,-0.039 -0.159037,0.031 -0.309881,0.092 -0.460645,0.1639 -0.189029,0.056 -0.378408,0.1071 -0.567244,0.1635 -0.19425,0.068 -0.391056,0.1286 -0.590627,0.1627 -0.161749,0.029 -0.327181,0.08 -0.480299,-0.022 -0.146474,-0.1348 -0.146248,-0.3266 -0.137502,-0.5456 2e-6,-0.2315 5e-6,-0.463 -4e-6,-0.6945 -1.6e-5,-0.2315 -3.8e-5,-0.4631 -1.82e-4,-0.6946 -1.59e-4,-0.2317 -4.83e-4,-0.4634 -4.32e-4,-0.6951 3.6e-4,-0.2273 3.13e-4,-0.4549 0.0098,-0.682 0.01096,-0.2044 0.03031,-0.4073 0.0676,-0.6067 0.02696,-0.2236 0.0049,-0.4524 0.01198,-0.678 0,-0.2315 0,-0.463 0,-0.6945 0,-0.2315 0,-0.463 -10e-7,-0.6944 0,-0.2314 -1e-6,-0.4627 -4e-6,-0.6941 -2e-6,-0.231 -8e-6,-0.462 10e-6,-0.693 2.8e-5,-0.2387 7.6e-5,-0.4774 3.05e-4,-0.7161 2.91e-4,-0.2906 8.29e-4,-0.5811 6.12e-4,-0.8717 -6.48e-4,-0.2783 -4.91e-4,-0.5565 -4.98e-4,-0.8348 -4.96e-4,-0.2664 2.13e-4,-0.5327 3.43e-4,-0.7991 1.36e-4,-0.2812 -5.27e-4,-0.5624 -5.9e-4,-0.8436 1.44e-4,-0.2618 4.28e-4,-0.5237 1.88e-4,-0.7856 -5.38e-4,-0.2509 -1.8e-5,-0.5018 2.7e-5,-0.7528 9.3e-5,-0.2546 -3.65e-4,-0.5091 -3.94e-4,-0.7637 -10e-7,-0.2312 -4e-6,-0.4624 1e-6,-0.6937 9e-6,-0.2338 2.1e-5,-0.4677 1.2e-4,-0.7016 1.22e-4,-0.2581 3.56e-4,-0.5163 4.21e-4,-0.7744 -1.07e-4,-0.2733 -3.02e-4,-0.5467 2.83e-4,-0.8201 2.12e-4,-0.2983 -3.89e-4,-0.5966 -1.64e-4,-0.8949 3.07e-4,-0.2991 2.14e-4,-0.5981 -1.72e-4,-0.8972 3.96e-4,-0.3183 0.0011,-0.6366 1.67e-4,-0.9549 -5.92e-4,-0.3077 -9.03e-4,-0.6154 4.19e-4,-0.9231 0.0014,-0.3012 0.0043,-0.6026 0.02352,-0.903 0.02049,-0.3035 0.06472,-0.6051 0.0641,-0.9101 9.7e-5,-0.2961 2.8e-4,-0.5922 0.0021,-0.8883 0.0037,-0.314 0.0074,-0.6287 0.03333,-0.9412 0.02656,-0.31 0.06875,-0.6185 0.05382,-0.9317 -5.53e-4,-0.3099 2.19e-4,-0.6197 0.0011,-0.9296 0.0012,-0.3123 0.0028,-0.625 0.0231,-0.9364 0.01843,-0.2643 0.06056,-0.5253 0.06433,-0.7903 6.3e-5,-0.2459 1.82e-4,-0.4919 3.39e-4,-0.7379 1.02e-4,-0.2569 -3.67e-4,-0.5138 -2.54e-4,-0.7707 1.61e-4,-0.2662 4.67e-4,-0.5324 6.94e-4,-0.7985 7.1e-5,-0.2715 -9.73e-4,-0.5429 -8.28e-4,-0.8143 2.7e-5,-0.2383 7.1e-5,-0.4765 3.13e-4,-0.7148 3.18e-4,-0.2956 8.94e-4,-0.5912 8.13e-4,-0.8868 -5.5e-4,-0.3265 8.6e-5,-0.653 -1.95e-4,-0.9795 1.62e-4,-0.3364 -0.0013,-0.6728 -7e-6,-1.0092 0.0019,-0.3007 0.0041,-0.6017 0.02372,-0.9015 0.02238,-0.3181 0.06251,-0.6353 0.06476,-0.9548 -3.85e-4,-0.2941 6.45e-4,-0.5881 3.49e-4,-0.8821 -6e-4,-0.3056 -1.09e-4,-0.6111 5.42e-4,-0.9167 3.08e-4,-0.3636 -8.8e-5,-0.7271 -3.17e-4,-1.0907 -6.02e-4,-0.2846 -0.0011,-0.5692 -7.57e-4,-0.8538 1.68e-4,-0.2636 8.13e-4,-0.5273 -0.0015,-0.7909 0,0 0.313373,-0.2081 0.313373,-0.2081 z"
       inkscape:connector-curvature="0" />
    <path
       style="fill:#000000;fill-opacity:1;stroke:none"
       id="path3043"
       d="m 16.456664,1047.6556 c 0.0023,-0.2643 0.0017,-0.5286 0.0014,-0.7929 -4.71e-4,-0.2569 -1.17e-4,-0.5139 5.1e-5,-0.7708 -0.0098,-0.298 0.0058,-0.5915 0.03893,-0.886 0.02909,-0.2336 0.04017,-0.4697 0.0462,-0.7059 0.0043,-0.2302 0.0038,-0.4604 0.0037,-0.6906 0.0035,-0.2322 -0.0097,-0.4652 0.0092,-0.6964 0.03223,-0.2297 0.05577,-0.4606 0.06848,-0.6935 0.0103,-0.2307 0.0106,-0.462 0.0111,-0.6931 0.02039,-0.2014 0.05458,-0.3992 0.07129,-0.6015 0.01602,-0.2211 0.06112,-0.435 0.08125,-0.656 0.01995,-0.2689 0.02287,-0.5392 0.02478,-0.8091 9.74e-4,-0.2374 3.97e-4,-0.4747 1.28e-4,-0.7121 1.25e-4,-0.2593 1.27e-4,-0.5186 -6e-5,-0.7779 -1.95e-4,-0.2418 -2.73e-4,-0.4837 -3.18e-4,-0.7256 0.02104,-0.233 0.05456,-0.4632 0.07196,-0.697 0.01469,-0.2302 0.01601,-0.4613 0.01715,-0.6922 5.93e-4,-0.2314 1.58e-4,-0.4628 -3.8e-5,-0.6942 -1.06e-4,-0.2362 -5e-4,-0.4724 4.4e-5,-0.7086 0.01241,-0.2946 -0.0065,-0.5843 -0.03893,-0.8753 -0.02935,-0.2422 -0.0408,-0.4868 -0.04699,-0.7316 -0.02836,-0.2038 -0.06133,-0.4051 -0.07569,-0.6117 -0.0027,-0.2841 -0.02353,-0.5636 -0.05531,-0.8444 -0.02054,-0.2724 -0.06644,-0.5394 -0.09896,-0.8095 -0.03327,-0.2445 -0.02421,-0.4942 -0.04855,-0.7395 -0.04248,-0.2466 -0.04973,-0.4995 -0.07937,-0.7482 -0.02814,-0.2539 -0.07355,-0.5022 -0.118232,-0.7517 -0.04051,-0.2307 -0.05121,-0.4671 -0.05752,-0.7028 -0.02263,-0.2215 -0.04847,-0.4416 -0.09907,-0.6552 -0.05106,-0.2019 -0.06602,-0.4133 -0.07535,-0.6241 0.0057,-0.2315 -0.03257,-0.457 -0.05879,-0.6844 -0.02531,-0.2311 -0.03089,-0.4646 -0.03444,-0.6977 -0.03097,-0.2162 -0.05869,-0.4316 -0.07349,-0.651 -0.01534,-0.2618 -0.01534,-0.5245 -0.01639,-0.7868 -0.02722,-0.2865 -0.05613,-0.5721 -0.07165,-0.8603 -0.03118,-0.2409 -0.06993,-0.4792 -0.08962,-0.7224 -0.01538,-0.2276 -0.01617,-0.4564 -0.0171,-0.6847 -3.86e-4,-0.2311 9.7e-5,-0.4623 3.24e-4,-0.6934 0.01565,-0.2118 -0.02415,-0.4147 -0.05216,-0.621 -0.02694,-0.216 -0.03156,-0.4351 -0.03506,-0.6533 -0.0026,-0.2309 -0.0019,-0.4619 -0.0018,-0.6928 9e-6,-0.2427 5.89e-4,-0.4855 8.44e-4,-0.7282 8.6e-5,-0.2566 -1.39e-4,-0.5131 -2.54e-4,-0.7696 -9.8e-5,-0.2342 -1.16e-4,-0.4685 -1.27e-4,-0.7027 -7e-6,-0.2313 -6e-6,-0.4625 -5e-6,-0.6938 7.44e-4,-0.263 4.03e-4,-0.5261 2.49e-4,-0.7892 -1.49e-4,-0.2386 -2.01e-4,-0.4771 -2.31e-4,-0.7157 -2.1e-5,-0.2315 -1.9e-5,-0.4629 -1.9e-5,-0.6943 10e-7,-0.2314 2e-6,-0.4628 3e-6,-0.6941 0,-0.2315 1e-6,-0.463 1e-6,-0.6945 0,-0.2315 0,-0.4629 0,-0.6944 -0.01311,-0.2359 0.02544,-0.4659 0.05236,-0.6975 0.01249,-0.2351 0.05683,-0.4633 0.08749,-0.6948 0.02808,-0.2287 0.0334,-0.4604 0.03691,-0.6914 0.0073,-0.2275 -0.0092,-0.4564 0.01065,-0.6828 0.03359,-0.1996 0.05622,-0.4008 0.06829,-0.6044 0.01063,-0.2261 0.01075,-0.4528 0.01126,-0.6793 -0.0055,-0.2078 0.04013,-0.4093 0.06262,-0.6137 0.02087,-0.2191 0.02323,-0.4401 0.02535,-0.6606 -0.0042,-0.2073 0.04124,-0.4083 0.06363,-0.6123 0.02009,-0.2232 0.06482,-0.4405 0.08862,-0.6633 0.02133,-0.2294 0.02382,-0.4606 0.02577,-0.6913 0.0083,-0.4749 -0.108832,-0.3301 0.31261,-0.5212 -0.0313,0.1689 -0.04954,0.3423 -0.08223,0.5107 -0.03511,0.1818 -0.0799,0.3585 -0.124566,0.5366 -0.03481,0.1753 -0.08546,0.345 -0.144674,0.5086 -0.04932,0.1669 -0.09208,0.3375 -0.148939,0.5005 -0.06973,0.1713 -0.1313,0.3474 -0.198325,0.5204 -0.05738,0.1647 -0.117824,0.3278 -0.182656,0.4878 -0.07483,0.1374 -0.133436,0.2876 -0.210146,0.4233 -0.07453,0.1326 -0.160711,0.254 -0.250302,0.3695 -0.199564,0.2175 -0.435585,0.4259 -0.694482,0.4893 -0.137865,0 -0.205531,-0.1414 -0.277744,-0.2719 -0.05907,-0.152 -0.123997,-0.2972 -0.196048,-0.4394 -0.01048,-0.026 -0.02097,-0.052 -0.03146,-0.078 0,0 0.304575,-0.227 0.304575,-0.227 l 0,0 c 0.0099,0.025 0.01983,0.05 0.02975,0.074 0.07192,0.1415 0.136418,0.2865 0.195492,0.4377 0.06564,0.1188 0.126703,0.2456 0.2546,0.2282 0.108584,-0.035 0.252944,-0.1436 0.207575,-0.1061 -0.452114,0.3737 -0.20488,0.1687 -0.116995,0.067 0.09309,-0.1089 0.176519,-0.2342 0.252358,-0.3633 0.08273,-0.1291 0.132331,-0.2845 0.212942,-0.4157 0.06382,-0.1608 0.128284,-0.3212 0.18337,-0.4873 0.06618,-0.1735 0.128718,-0.3482 0.198033,-0.5196 0.06312,-0.1588 0.101319,-0.333 0.149126,-0.5 0.05866,-0.1625 0.11459,-0.3283 0.146886,-0.5033 0.04243,-0.1787 0.0925,-0.3525 0.125166,-0.5351 0.03755,-0.1631 0.04365,-0.3363 0.08514,-0.499 0.423231,-0.3709 0.304943,-0.3779 0.312358,0.1069 -0.0017,0.2323 -0.0037,0.4652 -0.02381,0.6963 -0.02242,0.2232 -0.06664,0.4403 -0.08799,0.6631 -0.02067,0.2031 -0.06707,0.4021 -0.06613,0.6075 -0.0018,0.222 -0.0037,0.4446 -0.02285,0.6654 -0.02075,0.2033 -0.06737,0.4029 -0.06531,0.6086 -3.61e-4,0.2273 -3.16e-4,0.4549 -0.0098,0.682 -0.01089,0.2043 -0.03013,0.4072 -0.06713,0.6067 -0.02668,0.2238 -0.0039,0.4526 -0.01304,0.6784 -0.0032,0.233 -0.0078,0.4667 -0.03466,0.6975 -0.02951,0.2317 -0.07659,0.4589 -0.08777,0.6941 -0.02602,0.2298 -0.0679,0.4574 -0.05462,0.6914 0,0.2315 0,0.4629 0,0.6944 0,0.2315 0,0.463 10e-7,0.6945 0,0.2313 1e-6,0.4627 2e-6,0.6941 10e-7,0.2314 3e-6,0.4628 -1.9e-5,0.6943 -2.9e-5,0.2387 -8.1e-5,0.4774 -2.31e-4,0.716 -1.53e-4,0.263 -4.96e-4,0.526 2.49e-4,0.7889 10e-7,0.2313 4e-6,0.4625 -2e-6,0.6938 -1.1e-5,0.2343 -2.4e-5,0.4686 -1.2e-4,0.7028 -1.18e-4,0.2567 -3.45e-4,0.5134 -3.6e-4,0.7701 1.56e-4,0.2425 5.2e-4,0.4851 8e-6,0.7277 -1.95e-4,0.2306 -7.57e-4,0.4612 0.0015,0.6918 0.0032,0.216 0.0073,0.4328 0.03319,0.6466 0.02794,0.2089 0.07021,0.4143 0.05428,0.6287 -2.18e-4,0.231 -6.77e-4,0.462 -3.85e-4,0.6931 7.67e-4,0.227 0.0013,0.4543 0.01561,0.6807 0.01871,0.2441 0.05658,0.4834 0.08821,0.7251 0.01508,0.289 0.04403,0.5753 0.07349,0.8623 8.44e-4,0.2611 0.0017,0.5225 0.01569,0.783 0.01442,0.2205 0.04241,0.4367 0.07497,0.6535 0.0032,0.2313 0.008,0.4631 0.03231,0.6925 0.02589,0.2288 0.06675,0.4552 0.06058,0.6879 0.0086,0.2073 0.02201,0.4154 0.07175,0.614 0.05153,0.2176 0.07755,0.4413 0.102777,0.6665 0.0057,0.233 0.01502,0.4668 0.05405,0.6951 0.04425,0.2508 0.09103,0.4997 0.118726,0.755 0.03141,0.2485 0.03725,0.5019 0.08056,0.7485 0.02684,0.2449 0.0151,0.4947 0.04746,0.7394 0.03159,0.2704 0.07952,0.5371 0.09899,0.8099 0.03139,0.2813 0.05485,0.5612 0.05707,0.8459 0.01465,0.2074 0.04672,0.4097 0.07674,0.614 0.0055,0.2434 0.01588,0.4868 0.04432,0.7278 0.03228,0.293 0.05314,0.5842 0.04152,0.8809 5.97e-4,0.236 2.88e-4,0.472 5.7e-4,0.708 1.92e-4,0.2315 6.13e-4,0.4631 1.51e-4,0.6946 -9.74e-4,0.232 -0.002,0.4643 -0.01578,0.6958 -0.01632,0.2327 -0.04694,0.4622 -0.07348,0.6932 -4.6e-5,0.242 -1.31e-4,0.484 -2.62e-4,0.726 -9.9e-5,0.2591 1.1e-5,0.5182 6.61e-4,0.7774 2.2e-4,0.2376 7.16e-4,0.4752 -4.12e-4,0.7128 -0.002,0.2713 -0.0055,0.543 -0.02361,0.8134 -0.01742,0.2215 -0.06026,0.435 -0.08002,0.6548 -0.01516,0.2016 -0.04496,0.399 -0.07334,0.5978 -3.87e-4,0.232 -5.32e-4,0.4641 -0.01006,0.6958 -0.01188,0.2336 -0.03335,0.4656 -0.06773,0.6955 -0.02322,0.229 -0.0064,0.4611 -0.01104,0.6916 1.33e-4,0.2306 6.69e-4,0.4613 -0.0032,0.6918 -0.0055,0.238 -0.01565,0.476 -0.04512,0.7113 -0.03429,0.2926 -0.05465,0.5833 -0.0415,0.8801 1.68e-4,0.2569 5.22e-4,0.5138 5.1e-5,0.7707 -1.68e-4,0.2636 -8.45e-4,0.5273 0.0014,0.7909 0,0 -0.313373,0.2081 -0.313373,0.2081 z"
       inkscape:connector-curvature="0" />
    <path
       style="fill:#000000;fill-opacity:1;stroke:none"
       id="path3045"
       d="m 14.012009,1007.2167 c -0.05276,-0.1063 -0.110727,-0.2076 -0.172054,-0.3077 -0.04902,-0.093 -0.100951,-0.1853 -0.154168,-0.2762 -0.04981,-0.088 -0.08765,-0.1822 -0.142694,-0.2657 -0.05307,-0.078 -0.104253,-0.1569 -0.151729,-0.2392 -0.03323,-0.078 -0.08727,-0.143 -0.13713,-0.2091 -0.04421,-0.078 -0.08917,-0.154 -0.143457,-0.2238 -0.0589,-0.082 -0.09484,-0.179 -0.151565,-0.2628 -0.05567,-0.084 -0.09739,-0.1782 -0.145854,-0.2674 -0.04188,-0.075 -0.08579,-0.148 -0.127136,-0.2233 -0.04216,-0.09 -0.07361,-0.1848 -0.111295,-0.277 -0.04827,-0.1008 -0.08915,-0.206 -0.122285,-0.3136 -0.03422,-0.1085 -0.0799,-0.2109 -0.124005,-0.3145 -0.044,-0.1063 -0.07188,-0.2189 -0.112901,-0.3259 -0.03451,-0.085 -0.08003,-0.1661 -0.123153,-0.2472 -0.03652,-0.079 -0.07354,-0.1564 -0.111336,-0.2342 -0.04449,-0.088 -0.08732,-0.1774 -0.122462,-0.2702 -0.0382,-0.081 -0.08418,-0.1554 -0.12393,-0.2353 -0.03342,-0.093 -0.07352,-0.1813 -0.12141,-0.2665 -0.03575,-0.085 -0.07352,-0.1697 -0.09665,-0.2604 -0.02018,-0.1029 -0.01963,-0.208 -0.0405,-0.3109 -0.0237,-0.1041 -0.0313,-0.2111 -0.03608,-0.3179 -0.0039,-0.1171 -0.0037,-0.2343 -0.0037,-0.3515 5.53e-4,-0.1346 4.92e-4,-0.2691 4.79e-4,-0.4038 3.5e-5,-0.1243 -2.16e-4,-0.2486 1.28e-4,-0.3729 -0.0085,-0.1378 0.01585,-0.2729 0.03204,-0.4087 0.02807,-0.1316 0.05023,-0.2643 0.07973,-0.3955 0.02692,-0.1416 0.05286,-0.2834 0.08531,-0.4236 0.04316,-0.1396 0.09223,-0.2777 0.147736,-0.412 0.04882,-0.096 0.103416,-0.1901 0.147486,-0.2896 0.05051,-0.092 0.107049,-0.1789 0.158592,-0.26978 0.0591,-0.10406 0.127401,-0.20221 0.187335,-0.30605 0.06201,-0.0953 0.120326,-0.19256 0.179196,-0.29016 0.05735,-0.0964 0.114593,-0.19376 0.174923,-0.28824 0.04816,-0.0871 0.09814,-0.17193 0.156661,-0.25124 0.05888,-0.092 0.13135,-0.17091 0.200477,-0.25335 0.06904,-0.0821 0.148766,-0.14974 0.229088,-0.21759 0.06195,-0.0632 0.114747,-0.13569 0.172805,-0.20288 0.04971,-0.0647 0.09175,-0.13625 0.138228,-0.204 0.03689,-0.0716 0.11133,-0.13412 0.120717,-0.21889 -0.03101,-0.0549 -0.11338,-0.0205 -0.161225,-0.0135 -0.101557,0.0317 -0.201403,0.0711 -0.299408,0.11422 -0.0998,0.0334 -0.192229,0.0863 -0.293065,0.11612 -0.08993,0.0342 -0.180535,0.0719 -0.263326,0.12381 -0.07661,0.0307 -0.378827,0.22271 -0.07871,0.0341 -0.784977,0.48037 0.109444,-0.0658 -0.140267,0.0904 -0.07519,0.0471 -0.15082,0.0932 -0.226439,0.13946 -0.04784,0.0293 0.09389,-0.0621 0.143085,-0.0885 0.0126,-0.007 -0.0217,0.0195 -0.03256,0.0292 -0.0529,0.0638 -0.118707,0.11288 -0.172559,0.17514 -0.06066,0.0783 -0.138203,0.13708 -0.200649,0.21312 -0.06356,0.0765 -0.134427,0.14306 -0.197408,0.22016 -0.06268,0.0748 -0.10228,0.166 -0.145229,0.25478 -0.05279,0.0791 -0.08757,0.1694 -0.131506,0.25396 -0.04324,0.0844 -0.08378,0.17088 -0.121825,0.25851 -0.04927,0.10187 -0.08016,0.21042 -0.116088,0.31776 -0.0297,0.0909 -0.06203,0.18074 -0.101064,0.26724 -0.04779,0.082 -0.05541,0.1785 -0.07588,0.2707 -0.01748,0.092 -0.05664,0.1761 -0.08075,0.2661 -0.01275,0.099 -0.0406,0.1926 -0.05946,0.2895 -0.01834,0.1084 -0.0205,0.2194 -0.02246,0.3296 -0.0013,0.1179 -9.18e-4,0.236 -7.55e-4,0.354 1.86e-4,0.1184 2.59e-4,0.2368 3.02e-4,0.3552 3.3e-5,0.1183 3.1e-5,0.2366 3.1e-5,0.3549 -1e-6,0.1182 -2e-6,0.2365 -3e-6,0.3548 0,0.1183 -10e-7,0.2366 -10e-7,0.3549 0,0.1183 0,0.2366 0,0.3549 3.79e-4,0.1141 0.0051,0.2273 -0.01421,0.3399 -0.01032,0.1007 -0.0441,0.1919 -0.08204,0.2831 -0.04228,0.103 -0.05412,0.2136 -0.06155,0.3244 -0.0094,0.1062 0.01849,0.2077 0.0481,0.3071 0.03094,0.1135 0.06784,0.2261 0.119553,0.3302 0.04588,0.1052 0.09104,0.2112 0.136477,0.3169 0.05566,0.091 0.0987,0.1899 0.14727,0.2853 0.04311,0.094 0.09307,0.1829 0.145844,0.2704 0.05947,0.1019 0.112437,0.2076 0.168885,0.3112 0.04901,0.103 0.111487,0.1955 0.171806,0.2899 0.04207,0.086 0.09539,0.162 0.147585,0.2398 0.0461,0.083 0.10385,0.1575 0.158168,0.2345 0.07172,0.096 0.141975,0.1936 0.214634,0.2891 0.06867,0.067 0.112679,0.1556 0.171234,0.2318 0.04724,0.066 0.09807,0.1293 0.154019,0.1864 0.0574,0.058 0.103969,0.1252 0.147074,0.1966 0.05675,0.072 0.116046,0.1415 0.171354,0.2153 0.05203,0.08 0.104749,0.1611 0.167133,0.2323 0.0436,0.074 0.1001,0.1349 0.15549,0.1989 0.06364,0.08 0.128359,0.1593 0.190294,0.2409 0.05801,0.088 0.122051,0.17 0.182127,0.2561 0.06137,0.081 0.09865,0.183 0.16462,0.2597 0.04963,0.067 0.09957,0.1345 0.14838,0.2026 0.02683,0.03 0.05051,0.06 0.07793,0.09 0,0 -0.181824,0.1225 -0.181824,0.1225 l 0,0 c -0.02765,-0.03 -0.05251,-0.061 -0.07938,-0.092 -0.04873,-0.068 -0.09769,-0.1347 -0.147322,-0.2012 -0.06491,-0.079 -0.103784,-0.1793 -0.164956,-0.2619 -0.06026,-0.086 -0.123946,-0.1678 -0.182211,-0.2549 -0.06173,-0.081 -0.12517,-0.161 -0.189638,-0.2395 -0.05586,-0.063 -0.111389,-0.1249 -0.155627,-0.199 -0.06183,-0.072 -0.115189,-0.1531 -0.167505,-0.234 -0.05618,-0.073 -0.116289,-0.1437 -0.173003,-0.2169 -0.04239,-0.07 -0.08814,-0.135 -0.144615,-0.192 -0.05583,-0.058 -0.107811,-0.1221 -0.155209,-0.1889 -0.05774,-0.077 -0.102633,-0.1647 -0.170364,-0.2324 -0.07267,-0.095 -0.142836,-0.1935 -0.215575,-0.2893 -0.05476,-0.077 -0.111942,-0.1517 -0.158508,-0.235 -0.05263,-0.078 -0.105454,-0.1552 -0.147518,-0.2405 -0.06042,-0.095 -0.123211,-0.1888 -0.172453,-0.2916 -0.05576,-0.1041 -0.108962,-0.2087 -0.168585,-0.31 -0.05331,-0.088 -0.103231,-0.1778 -0.14675,-0.272 -0.04846,-0.096 -0.09226,-0.1947 -0.147623,-0.2867 -0.0452,-0.1052 -0.09049,-0.2108 -0.135921,-0.3158 -0.05189,-0.1052 -0.09032,-0.219 -0.12161,-0.3338 -0.0307,-0.1019 -0.06051,-0.2065 -0.05175,-0.3152 0.0067,-0.1128 0.01718,-0.2263 0.05797,-0.3316 0.0369,-0.09 0.07527,-0.1781 0.08402,-0.2783 0.02112,-0.1112 0.01794,-0.2227 0.01654,-0.3361 0,-0.1183 0,-0.2366 0,-0.3549 0,-0.1183 0,-0.2366 0,-0.3548 10e-7,-0.1183 2e-6,-0.2366 3e-6,-0.3549 1e-6,-0.1183 3e-6,-0.2366 -2.6e-5,-0.3549 -3.8e-5,-0.1184 -1.02e-4,-0.2368 -2.86e-4,-0.3552 -1.7e-4,-0.1181 -5.88e-4,-0.2361 5.06e-4,-0.3543 0.0017,-0.1113 0.0034,-0.2232 0.02028,-0.3332 0.01762,-0.097 0.04833,-0.1916 0.0587,-0.2909 0.02208,-0.091 0.06251,-0.1737 0.08091,-0.2658 0.02392,-0.092 0.02506,-0.1919 0.07363,-0.2754 0.0427,-0.083 0.07148,-0.1757 0.102657,-0.2651 0.03893,-0.10621 0.06448,-0.21804 0.115175,-0.31925 0.03889,-0.0876 0.07749,-0.17515 0.121046,-0.26037 0.04676,-0.0821 0.07551,-0.17657 0.131912,-0.25281 0.04245,-0.0903 0.08256,-0.18222 0.142963,-0.26028 0.06439,-0.0758 0.130154,-0.14732 0.19795,-0.21961 0.05919,-0.0795 0.137845,-0.13595 0.199937,-0.21302 0.04972,-0.0676 0.120918,-0.11079 0.171806,-0.178 0.09047,-0.0955 0.03296,-0.0401 0.252859,-0.17441 0.04673,-0.0286 -0.0918,0.0602 -0.137815,0.0902 -0.01478,0.01 0.02931,-0.0196 0.04409,-0.0293 0.07566,-0.0491 0.151343,-0.0983 0.227229,-0.14692 0.04377,-0.028 -0.08726,0.0567 -0.13089,0.0851 0.145847,-0.0921 0.289609,-0.18733 0.442808,-0.26377 0.08561,-0.0473 0.173998,-0.0894 0.265939,-0.11967 0.09919,-0.0329 0.192518,-0.0831 0.29133,-0.11745 0.09948,-0.0415 0.199234,-0.0851 0.303348,-0.11049 0.06635,-0.01 0.146565,-0.0338 0.181743,0.0478 2.46e-4,0.0911 -0.07597,0.15727 -0.116148,0.23157 -0.04531,0.0694 -0.09219,0.13757 -0.137049,0.20721 -0.06114,0.0647 -0.111969,0.14009 -0.172399,0.20577 -0.07846,0.0697 -0.16211,0.1318 -0.230733,0.21427 -0.06857,0.0826 -0.142915,0.15919 -0.200312,0.25223 -0.06125,0.0767 -0.11065,0.1622 -0.157508,0.24978 -0.06282,0.0922 -0.117008,0.19217 -0.175604,0.28758 -0.05962,0.0975 -0.114794,0.1964 -0.179363,0.28939 -0.05814,0.10516 -0.128358,0.20155 -0.187417,0.30604 -0.05132,0.0909 -0.103916,0.17951 -0.159032,0.26701 -0.04147,0.1008 -0.09782,0.1942 -0.148175,0.2901 -0.05856,0.1316 -0.103691,0.2711 -0.150196,0.4083 -0.033,0.14 -0.05903,0.2816 -0.08494,0.4232 -0.02968,0.1305 -0.05052,0.2627 -0.08094,0.3932 -0.01496,0.1351 -0.04216,0.2689 -0.033,0.4058 3.36e-4,0.1243 7.1e-5,0.2487 -2.4e-5,0.373 -1.72e-4,0.1346 -5.23e-4,0.2691 -1.83e-4,0.4036 -9e-6,0.1168 -3.14e-4,0.2337 0.0033,0.3504 0.0045,0.1052 0.0114,0.2113 0.03475,0.3142 0.02117,0.103 0.02181,0.2067 0.04008,0.3099 0.02203,0.089 0.05934,0.1711 0.09382,0.2545 0.04797,0.086 0.08814,0.174 0.121767,0.2676 0.04058,0.08 0.08689,0.1559 0.125069,0.2376 0.03451,0.092 0.07703,0.1814 0.121744,0.268 0.03767,0.078 0.07455,0.1553 0.110905,0.2334 0.04355,0.082 0.08931,0.1633 0.123944,0.2502 0.04077,0.1074 0.06874,0.2194 0.112447,0.3251 0.04482,0.1041 0.08981,0.2084 0.124994,0.3169 0.0325,0.1074 0.07357,0.2115 0.121774,0.3113 0.03719,0.091 0.06849,0.1853 0.11038,0.2744 0.04141,0.076 0.08529,0.1487 0.127009,0.2237 0.0477,0.089 0.08903,0.1817 0.144326,0.2655 0.05641,0.083 0.09272,0.1794 0.15118,0.2613 0.05383,0.07 0.09993,0.1462 0.143982,0.2238 0.04995,0.068 0.105099,0.1324 0.13828,0.2118 0.04722,0.082 0.09793,0.1604 0.150833,0.2381 0.05524,0.084 0.09313,0.1793 0.142862,0.2671 0.05314,0.091 0.105844,0.1817 0.154106,0.2757 0.06079,0.1 0.117451,0.202 0.172512,0.3058 0,0 -0.183894,0.1196 -0.183894,0.1196 z"
       inkscape:connector-curvature="0" />
    <path
       style="fill:#000000;fill-opacity:1;stroke:none"
       id="path3047"
       d="m 16.256181,1004.238 c 0.07007,-0.094 0.117263,-0.2101 0.170238,-0.3208 0.04078,-0.103 0.08853,-0.1981 0.137322,-0.2939 0.0438,-0.1018 0.101821,-0.1908 0.156556,-0.2821 0.04824,-0.087 0.09567,-0.1749 0.145374,-0.2606 0.0433,-0.07 0.09122,-0.1338 0.137338,-0.2002 0.05127,-0.077 0.09378,-0.1629 0.130945,-0.2536 0.04499,-0.1018 0.08753,-0.2077 0.123366,-0.3166 0.03694,-0.1 0.0839,-0.1884 0.108842,-0.2961 0.01778,-0.1042 0.04307,-0.2037 0.05588,-0.3091 0.0053,-0.1209 0.02579,-0.2387 0.04003,-0.3579 0.0137,-0.1237 0.01634,-0.2486 0.01809,-0.3735 -0.0054,-0.1099 0.02668,-0.2133 0.02813,-0.3221 -0.0039,-0.098 -0.03671,-0.1891 -0.07954,-0.2673 -0.04515,-0.094 -0.101449,-0.1748 -0.162526,-0.2492 -0.05896,-0.089 -0.123425,-0.1707 -0.183791,-0.258 -0.06813,-0.072 -0.11702,-0.169 -0.180141,-0.2472 -0.05357,-0.095 -0.117646,-0.1757 -0.185337,-0.2508 -0.06011,-0.09 -0.129203,-0.1666 -0.192375,-0.252 -0.06266,-0.083 -0.136894,-0.1473 -0.202353,-0.226 -0.05754,-0.074 -0.11769,-0.1444 -0.171176,-0.2246 -0.05329,-0.072 -0.109953,-0.1395 -0.161361,-0.2139 -0.0497,-0.059 -0.08952,-0.1314 -0.145177,-0.1804 -0.05354,-0.0544 -0.109728,-0.10183 -0.149962,-0.17567 -0.04809,-0.0787 -0.08068,-0.17421 -0.116568,-0.26437 -0.03714,-0.10534 -0.07548,-0.21055 -0.122289,-0.30814 -0.03851,-0.0897 -0.07995,-0.17688 -0.1046,-0.2758 -0.03169,-0.0881 -0.04908,-0.18279 -0.07492,-0.27392 -0.03087,-0.0981 -0.07617,-0.18441 -0.10355,-0.2847 -0.03555,-0.0933 -0.0742,-0.18455 -0.112128,-0.2763 -0.04336,-0.0822 -0.07909,-0.16949 -0.122107,-0.25208 -0.0066,-0.0155 -0.01303,-0.0313 -0.01985,-0.0467 -0.01179,-0.0266 -0.03052,-0.0674 -0.02547,-0.0705 0.184257,-0.11194 0.13551,-0.1576 0.205353,-0.0591 0.05982,0.075 0.122082,0.14691 0.17863,0.22656 0.04887,0.0639 0.09919,0.12637 0.144946,0.19454 0.05693,0.0632 0.111169,0.12612 0.162759,0.1974 0.0524,0.0588 0.107,0.11459 0.155338,0.17974 0.0562,0.063 0.1129,0.12734 0.17725,0.17438 0.06257,0.05 0.117919,0.1139 0.179695,0.16553 0.06971,0.038 0.127334,0.10476 0.193654,0.15084 0.06018,0.0597 0.131642,0.0909 0.195606,0.14136 0.05229,0.0669 0.113923,0.11736 0.167099,0.18271 0.0484,0.0613 0.10034,0.11343 0.155865,0.16228 0.05321,0.0521 0.09896,0.11632 0.148393,0.1749 0.05001,0.0602 0.08945,0.1316 0.126098,0.20753 0.04326,0.0706 0.08323,0.14541 0.131588,0.20971 0.05618,0.081 0.105217,0.1713 0.153968,0.2612 0.0617,0.087 0.113816,0.1843 0.171288,0.2758 0.05754,0.087 0.112063,0.1769 0.174838,0.257 0.05286,0.074 0.102816,0.1519 0.158073,0.2224 0.05879,0.045 0.0976,0.1215 0.143954,0.186 0.05759,0.057 0.108787,0.1251 0.164503,0.1857 0.0562,0.07 0.114232,0.1365 0.165865,0.2128 0.05867,0.068 0.108412,0.1487 0.164085,0.2209 0.06413,0.059 0.111558,0.1438 0.172149,0.2079 0.0556,0.062 0.10923,0.1286 0.160254,0.1983 0.05705,0.06 0.101207,0.1345 0.145375,0.2107 0.04667,0.082 0.06024,0.1701 0.04343,0.2694 -0.03669,0.1053 -0.09387,0.1943 -0.14385,0.2884 -0.05236,0.092 -0.112282,0.1724 -0.170263,0.2563 -0.05511,0.067 -0.09879,0.1483 -0.142367,0.2289 -0.04219,0.076 -0.09008,0.1427 -0.136787,0.212 -0.04353,0.068 -0.09519,0.1225 -0.149757,0.1735 -0.05298,0.051 -0.100141,0.1123 -0.148188,0.1718 -0.04702,0.064 -0.09501,0.125 -0.138749,0.1926 -0.04937,0.078 -0.08466,0.1705 -0.129994,0.253 -0.04908,0.078 -0.08471,0.1706 -0.135509,0.2462 -0.04475,0.066 -0.08493,0.1386 -0.126813,0.2084 -0.04259,0.067 -0.08901,0.1288 -0.133639,0.1929 -0.04567,0.062 -0.09253,0.1239 -0.137463,0.1875 -0.04952,0.067 -0.100399,0.1325 -0.150708,0.1987 -0.04925,0.071 -0.100929,0.1384 -0.148105,0.212 -0.04989,0.077 -0.08143,0.1711 -0.130212,0.248 -0.04514,0.066 -0.09417,0.127 -0.14326,0.1874 -0.08396,0.086 -0.175006,0.1498 -0.267656,0.2193 -0.04256,0.032 0.168614,-0.1316 0.126747,-0.098 -0.06111,0.049 -0.122989,0.096 -0.184484,0.1442 -0.01081,0.011 -0.02198,0.011 -0.03243,0.018 -0.01001,0.011 -0.01901,0.016 -0.02878,0.023 -0.125134,0.095 0.192474,-0.1472 0.07065,-0.05 -0.06125,0.049 -0.123259,0.096 -0.184889,0.144 -0.04449,0.021 -0.02318,0.011 -0.06402,0.038 0,0 0.141513,-0.1542 0.141513,-0.1542 l 0,0 c 0.04186,-0.027 0.02064,-0.013 0.06368,-0.038 -0.317719,0.256 0.07104,-0.073 0.175251,-0.136 -0.326049,0.2591 0.0363,-0.029 0.05828,-0.045 0.04251,-0.032 -0.08284,0.068 -0.124437,0.1019 -0.08859,0.072 0.168619,-0.1506 0.08264,-0.074 0.05068,-0.058 0.09746,-0.1219 0.144096,-0.1851 0.05354,-0.072 0.0812,-0.1703 0.130678,-0.2473 0.04675,-0.076 0.09852,-0.1423 0.147409,-0.2143 0.05136,-0.064 0.09953,-0.1328 0.150867,-0.1968 0.04291,-0.066 0.09173,-0.125 0.137505,-0.1874 0.04262,-0.066 0.09106,-0.1254 0.134142,-0.1912 0.04053,-0.072 0.08415,-0.1409 0.126146,-0.2111 0.05518,-0.07 0.08668,-0.1671 0.13664,-0.2436 0.0473,-0.081 0.08131,-0.1738 0.129435,-0.2543 0.04328,-0.07 0.09114,-0.1306 0.137559,-0.1956 0.04983,-0.056 0.09461,-0.122 0.147314,-0.1748 0.0557,-0.049 0.107028,-0.1007 0.151544,-0.1676 0.04482,-0.072 0.09528,-0.1355 0.137803,-0.2097 0.04223,-0.082 0.08595,-0.1651 0.141449,-0.2316 0.05624,-0.085 0.118976,-0.1638 0.171872,-0.2541 0.04916,-0.093 0.102224,-0.1816 0.145721,-0.2796 0.02059,-0.093 0.0085,-0.1728 -0.03561,-0.2492 -0.04341,-0.077 -0.08821,-0.1481 -0.143978,-0.2084 -0.05094,-0.068 -0.104083,-0.1339 -0.159305,-0.196 -0.0599,-0.066 -0.109178,-0.1492 -0.173,-0.2099 -0.05532,-0.073 -0.106243,-0.1527 -0.164575,-0.222 -0.05137,-0.076 -0.108726,-0.1409 -0.164504,-0.2098 -0.05581,-0.061 -0.108731,-0.1285 -0.165958,-0.1881 -0.04572,-0.065 -0.08575,-0.1382 -0.143422,-0.1852 -0.05456,-0.072 -0.104873,-0.1487 -0.15767,-0.2226 -0.06313,-0.081 -0.117441,-0.1723 -0.175639,-0.2596 -0.05729,-0.093 -0.110833,-0.1892 -0.172084,-0.2771 -0.04845,-0.089 -0.09664,-0.1777 -0.152796,-0.2575 -0.04872,-0.066 -0.09051,-0.1414 -0.133794,-0.21406 -0.03592,-0.074 -0.07448,-0.14318 -0.123633,-0.20186 -0.04831,-0.0579 -0.09422,-0.1205 -0.146964,-0.1719 -0.05567,-0.0497 -0.108462,-0.10417 -0.157296,-0.16551 -0.05282,-0.0637 -0.112281,-0.11459 -0.164721,-0.17852 -0.06451,-0.0486 -0.135048,-0.0819 -0.195503,-0.14055 -0.06573,-0.0484 -0.124983,-0.11215 -0.194167,-0.15249 -0.06103,-0.0524 -0.116878,-0.11482 -0.179267,-0.16442 -0.06471,-0.0501 -0.123418,-0.11425 -0.180135,-0.17974 -0.04898,-0.0645 -0.103492,-0.12033 -0.155337,-0.18034 -0.05144,-0.0718 -0.10746,-0.13256 -0.163256,-0.19789 -0.04606,-0.0674 -0.09583,-0.13023 -0.144443,-0.19419 -0.05682,-0.0792 -0.118468,-0.1519 -0.17852,-0.22646 -0.06772,-0.0916 -0.03953,-0.0296 0.110737,-0.18595 0.0036,-0.004 0.02389,0.11493 0.03925,0.10834 0.04341,0.0832 0.07976,0.1711 0.123111,0.2543 0.03829,0.093 0.07747,0.18528 0.113483,0.27976 0.02687,0.10036 0.07264,0.18628 0.103624,0.28421 0.02595,0.0915 0.04344,0.18653 0.0752,0.27498 0.02361,0.0972 0.06476,0.18236 0.102116,0.27056 0.04667,0.0985 0.08584,0.20419 0.122781,0.31 0.03565,0.0891 0.06861,0.18207 0.115935,0.26054 0.03942,0.0706 0.09516,0.11622 0.146746,0.16876 0.05533,0.052 0.09736,0.12409 0.147221,0.18513 0.05182,0.074 0.107985,0.1423 0.161243,0.2144 0.05344,0.079 0.112839,0.1488 0.170174,0.2223 0.06604,0.078 0.139851,0.1437 0.202442,0.2276 0.06316,0.084 0.131458,0.1614 0.19185,0.2499 0.06727,0.077 0.13154,0.158 0.18591,0.2519 0.06243,0.079 0.113091,0.1754 0.180489,0.2488 0.06032,0.087 0.12418,0.168 0.183303,0.2562 0.06124,0.076 0.118815,0.1585 0.164709,0.2533 0.04438,0.082 0.07937,0.1775 0.08519,0.2811 0.0011,0.1099 -0.03239,0.2127 -0.02866,0.3227 -0.0016,0.1257 -0.0039,0.2518 -0.01697,0.3766 -0.01368,0.1193 -0.0357,0.2367 -0.0397,0.3576 -0.01171,0.1066 -0.03673,0.2076 -0.05485,0.3123 -0.02281,0.1099 -0.06689,0.2001 -0.107938,0.2985 -0.03405,0.1112 -0.0782,0.2158 -0.122636,0.3191 -0.03734,0.092 -0.07743,0.1797 -0.128778,0.2584 -0.04412,0.068 -0.0943,0.1295 -0.138141,0.1984 -0.04854,0.087 -0.09948,0.1716 -0.145504,0.2613 -0.05349,0.093 -0.114723,0.1775 -0.157255,0.2807 -0.04907,0.096 -0.0983,0.1899 -0.137731,0.2936 -0.0545,0.1088 -0.09702,0.2301 -0.168563,0.3213 0,0 -0.166747,0.098 -0.166747,0.098 z"
       inkscape:connector-curvature="0" />
    <path
       style="fill:#000000;fill-opacity:1;stroke:none"
       id="path3049"
       d="m 14.461758,1003.9733 c 0.02327,0.1098 0.06704,0.202 0.122575,0.2879 0.0504,0.072 0.119531,0.088 0.190499,0.098 0.07786,0.01 0.154289,0.01 0.23066,-0.012 0.09167,-0.058 -0.05753,0.046 -0.08798,0.064 -0.0089,0.01 0.01559,-0.016 0.02279,-0.024 0.02213,-0.027 0.03633,-0.06 0.05274,-0.092 0.02785,-0.054 0.05406,-0.1097 0.08052,-0.1652 0,0 0.149931,-0.086 0.149931,-0.086 l 0,0 c -0.02824,0.054 -0.05141,0.1122 -0.08041,0.1656 -0.07414,0.1395 -0.112569,0.2037 -0.267816,0.2665 -0.0773,0.019 -0.155382,0.015 -0.233561,0.01 -0.07457,-0.012 -0.145459,-0.034 -0.197247,-0.1111 -0.0562,-0.088 -0.09995,-0.1828 -0.12584,-0.2932 0,0 0.143143,-0.1042 0.143143,-0.1042 z"
       inkscape:connector-curvature="0" />
    <path
       style="fill:#000000;fill-opacity:1;stroke:none"
       id="path3051"
       d="m 14.784812,1004.3549 c -0.0011,0.1233 -7.68e-4,0.2466 -6.91e-4,0.3699 9.5e-5,0.1147 1.49e-4,0.2294 1.78e-4,0.3441 0.01073,0.093 0.02602,0.1852 0.03366,0.2792 0.007,0.1046 0.0074,0.2097 0.008,0.3147 2.66e-4,0.108 6.4e-5,0.216 -2.7e-5,0.3241 -8.9e-5,0.108 -1.11e-4,0.216 -1.25e-4,0.3241 0.005,0.1023 -0.0024,0.2013 -0.01786,0.3013 -0.007,0.09 -0.03064,0.1758 -0.04618,0.2638 -0.01371,0.095 -0.01351,0.1912 -0.02934,0.2858 -0.01831,0.094 -0.02446,0.1902 -0.02827,0.2866 -0.0031,0.1066 -0.003,0.2133 -0.003,0.3199 3.5e-5,0.072 1.19e-4,0.1442 1.83e-4,0.2163 0,0 -0.145199,0.096 -0.145199,0.096 l 0,0 c -6.2e-5,-0.072 -1.42e-4,-0.1442 -1.94e-4,-0.2162 -1.4e-5,-0.107 -2.56e-4,-0.214 0.0025,-0.3209 0.0034,-0.097 0.0086,-0.1948 0.02672,-0.2897 0.01695,-0.094 0.01787,-0.1899 0.02938,-0.2856 0.01444,-0.088 0.04009,-0.1729 0.04633,-0.2635 0.01541,-0.099 0.02603,-0.1961 0.01968,-0.2978 1.3e-5,-0.108 3.4e-5,-0.2161 1.21e-4,-0.3241 9e-5,-0.108 2.87e-4,-0.216 6.1e-5,-0.324 -4.52e-4,-0.1042 -7.82e-4,-0.2087 -0.0074,-0.3127 -0.0074,-0.095 -0.02254,-0.1874 -0.03418,-0.2813 2.9e-5,-0.1148 8.4e-5,-0.2296 1.79e-4,-0.3444 7.8e-5,-0.123 3.79e-4,-0.246 -6.91e-4,-0.369 0,0 0.146193,-0.097 0.146193,-0.097 z"
       inkscape:connector-curvature="0" />
    <path
       style="fill:#4d4d4d;fill-opacity:1;stroke:none"
       d="m 15.934996,1005.9703 c -0.344768,0.4305 -0.458404,1.147 -0.848359,1.5561 -0.24119,0.2639 -0.534857,0.5541 -0.864442,0.4406 -0.266063,0.3062 -0.06464,0.9605 -0.138307,1.4045 -0.07977,5.3392 -0.103584,10.6812 -0.270062,16.0167 -0.07279,7.4447 -0.137842,14.8906 -0.11363,22.3358 0.02749,0.4803 0.512122,0.2789 0.748207,0.2585 0.68846,-0.1265 1.363141,-0.4459 2.058657,-0.4629 0.207878,-0.3569 0.04314,-0.9437 0.09972,-1.3952 0.01741,-2.0022 0.142849,-3.997 0.274765,-5.989 0.126515,-3.1369 0.232013,-6.3023 -0.157574,-9.4162 -0.150081,-1.478 -0.362487,-2.949 -0.511178,-4.4157 -0.113245,-1.6741 -0.268874,-3.3446 -0.348494,-5.0205 -0.05823,-3.4543 -0.115458,-6.9221 -0.02553,-10.3706 0.147138,-1.5945 0.211727,-3.2189 0.298496,-4.8116 -0.02843,-0.1053 -0.121188,-0.1661 -0.202271,-0.1305 z"
       id="path3053"
       inkscape:connector-curvature="0" />
    <path
       style="fill:#4d4d4d;fill-opacity:1;stroke:none"
       d="m 13.519523,995.82785 c -1.038252,0.24752 -1.974094,1.00121 -2.356328,2.10805 -0.650665,1.3846 -0.411783,2.9972 -0.54236,4.4938 -0.122293,1.1326 0.66847,2.033 1.194762,2.9118 0.564568,0.7479 1.054384,1.6123 1.744876,2.2188 0.399159,0.158 0.675509,-0.4624 0.389025,-0.7711 -0.716812,-1.1351 -1.324307,-2.3394 -1.824836,-3.6135 -0.358862,-0.6269 -0.57671,-1.3236 -0.527232,-2.0718 -0.111226,-1.358 0.41823,-2.6562 1.202908,-3.6809 0.281069,-0.4931 0.785785,-0.82529 0.970004,-1.37368 -0.0197,-0.13798 -0.118232,-0.24952 -0.250819,-0.22147 z"
       id="path3055"
       inkscape:connector-curvature="0" />
    <path
       style="fill:#4d4d4d;fill-opacity:1;stroke:none"
       d="m 15.449991,996.81136 c -0.246319,0.46032 0.220504,0.92328 0.395676,1.28302 0.522639,0.81812 1.11649,1.55092 1.679716,2.32232 0.0232,0.9368 -0.196282,1.8627 -0.645398,2.5706 -0.276103,0.4865 -0.63074,1.102 -0.421637,1.7486 0.354143,0.1376 0.528615,-0.5614 0.78452,-0.8176 0.421155,-0.6331 0.784666,-1.3012 1.253928,-1.8574 0.167259,-0.3671 0.620903,-0.6806 0.506352,-1.1407 -0.900288,-1.118 -1.695029,-2.3957 -2.614342,-3.47784 -0.280857,-0.24752 -0.590429,-0.65226 -0.938815,-0.631 z"
       id="path3057"
       inkscape:connector-curvature="0" />
    <path
       style="fill:#000000;fill-opacity:1;stroke:none"
       id="path3063"
       d="m 14.674457,1011.797 c -0.0015,0.1995 -0.0015,0.3989 -0.0014,0.5984 -3e-5,0.2078 7.6e-5,0.4156 2.97e-4,0.6233 3e-5,0.031 5.9e-5,0.061 8.9e-5,0.092 0,0 -0.2198,0.146 -0.2198,0.146 l 0,0 c 3e-5,-0.031 5.9e-5,-0.061 8.9e-5,-0.092 2.2e-4,-0.2079 3.27e-4,-0.4158 2.97e-4,-0.6238 1.01e-4,-0.1988 1.7e-4,-0.3977 -0.0014,-0.5965 0,0 0.221748,-0.1473 0.221748,-0.1473 z"
       inkscape:connector-curvature="0" />
    <path
       style="fill:#000000;fill-opacity:1;stroke:none"
       id="path3065"
       d="m 15.742763,1015.1549 c 0.0083,0.1889 -0.0163,0.3708 -0.0553,0.5515 -0.03228,0.1767 -0.06241,0.3538 -0.09359,0.5309 -0.01735,0.1526 -0.04437,0.3022 -0.08244,0.4483 -0.0065,0.024 -0.01284,0.048 -0.01927,0.072 0,0 -0.224158,0.1367 -0.224158,0.1367 l 0,0 c 0.0064,-0.024 0.01274,-0.048 0.01912,-0.072 0.04049,-0.1441 0.06748,-0.2935 0.08428,-0.4453 0.03068,-0.1778 0.06304,-0.3547 0.0934,-0.5325 0.03852,-0.1779 0.06927,-0.3554 0.0562,-0.5422 0,0 0.221748,-0.1473 0.221748,-0.1473 z"
       inkscape:connector-curvature="0" />
    <path
       style="fill:#000000;fill-opacity:1;stroke:none"
       id="path3067"
       d="m 14.416645,1021.7917 c -0.02912,0.1842 -0.04143,0.3717 -0.05005,0.5591 -0.0068,0.1735 -0.0072,0.3473 -0.0075,0.5211 -8e-6,0.028 -1.6e-5,0.055 -2.4e-5,0.083 0,0 -0.220228,0.1463 -0.220228,0.1463 l 0,0 c 1.1e-5,-0.028 2.1e-5,-0.055 3.1e-5,-0.083 3.31e-4,-0.1744 7.83e-4,-0.3489 0.0075,-0.5231 0.0084,-0.1881 0.02103,-0.376 0.04646,-0.5617 0,0 0.22389,-0.1415 0.22389,-0.1415 z"
       inkscape:connector-curvature="0" />
    <path
       style="fill:#000000;fill-opacity:1;stroke:none"
       id="path3069"
       d="m 15.18991,1026.9431 c 0.03828,0.1742 0.09591,0.3391 0.134241,0.5131 0.0047,0.028 0.0094,0.055 0.01412,0.083 0,0 -0.217705,0.1523 -0.217705,0.1523 l 0,0 c -0.0045,-0.027 -0.0089,-0.054 -0.01328,-0.081 -0.03715,-0.1732 -0.09365,-0.3374 -0.134482,-0.509 0,0 0.217122,-0.1581 0.217122,-0.1581 z"
       inkscape:connector-curvature="0" />
    <path
       style="fill:#000000;fill-opacity:1;stroke:none"
       id="path3071"
       d="m 15.686279,1031.9416 c 0.02594,0.1861 0.03915,0.3745 0.04803,0.5631 -0.0012,0.09 0.01195,0.1789 0.02364,0.2674 0,0 -0.217995,0.151 -0.217995,0.151 l 0,0 c -0.01202,-0.09 -0.02641,-0.1793 -0.02462,-0.2709 -0.0081,-0.1868 -0.01986,-0.3739 -0.04848,-0.5577 0,0 0.21943,-0.1529 0.21943,-0.1529 z"
       inkscape:connector-curvature="0" />
    <path
       style="fill:#000000;fill-opacity:1;stroke:none"
       id="path3073"
       d="m 14.528923,1036.7027 c -0.06455,0.1675 -0.135427,0.3317 -0.18437,0.5085 -0.04454,0.1397 -0.09004,0.2792 -0.126434,0.423 0,0 -0.223827,0.1374 -0.223827,0.1374 l 0,0 c 0.03461,-0.1449 0.07979,-0.2854 0.12662,-0.4241 0.04698,-0.1792 0.120149,-0.3421 0.180863,-0.5136 0,0 0.227148,-0.1312 0.227148,-0.1312 z"
       inkscape:connector-curvature="0" />
    <path
       style="fill:#000000;fill-opacity:1;stroke:none"
       id="path3075"
       d="m 14.240925,1042.0153 c 0.03327,0.1559 0.08362,0.3032 0.126607,0.4545 0.02529,0.1409 0.06519,0.2762 0.09025,0.4171 0.03744,0.1505 0.06219,0.3051 0.09503,0.4572 0.02081,0.1085 0.01131,0.054 0.02851,0.1635 0,0 -0.217921,0.1519 -0.217921,0.1519 l 0,0 c -0.0165,-0.1079 -0.0073,-0.054 -0.0276,-0.1614 -0.03305,-0.1525 -0.05794,-0.3075 -0.09624,-0.4581 -0.0242,-0.14 -0.06434,-0.2737 -0.08834,-0.4138 -0.04284,-0.153 -0.09269,-0.3021 -0.129723,-0.458 0,0 0.219431,-0.1529 0.219431,-0.1529 z"
       inkscape:connector-curvature="0" />
    <path
       style="fill:#000000;fill-opacity:1;stroke:none"
       id="path3077"
       d="m 16.407241,1047.0605 c 0.02912,-0.1842 0.04143,-0.3717 0.05005,-0.5591 0.0067,-0.1735 0.0073,-0.3474 0.0075,-0.5211 0,0 0.220222,-0.1461 0.220222,-0.1461 l 0,0 c -3.31e-4,0.1744 -7.68e-4,0.3488 -0.0074,0.523 -0.0084,0.1882 -0.02104,0.3761 -0.04646,0.5618 0,0 -0.223891,0.1415 -0.223891,0.1415 z"
       inkscape:connector-curvature="0" />
    <path
       style="fill:#000000;fill-opacity:1;stroke:none"
       id="path3079"
       d="m 14.993831,1046.749 c -0.08307,0.036 -0.03992,0.016 -0.129148,0.063 0,0 0.193548,-0.1985 0.193548,-0.1985 l 0,0 c 0.09109,-0.047 0.04734,-0.026 0.131081,-0.065 0,0 -0.195481,0.2004 -0.195481,0.2004 z"
       inkscape:connector-curvature="0" />
    <path
       style="fill:#000000;fill-opacity:1;stroke:none"
       id="path3081"
       d="m 15.478024,1044.5983 c 0.07994,-0.1807 0.147441,-0.3703 0.22729,-0.551 0.05822,-0.1341 0.114027,-0.2696 0.165378,-0.4084 0.03205,-0.07 0.05995,-0.1414 0.08597,-0.215 0,0 0.224789,-0.134 0.224789,-0.134 l 0,0 c -0.02487,0.074 -0.05104,0.1476 -0.08523,0.2157 -0.05247,0.1393 -0.106154,0.2769 -0.165789,0.4114 -0.08266,0.1776 -0.148294,0.3682 -0.225266,0.5501 0,0 -0.227148,0.1312 -0.227148,0.1312 z"
       inkscape:connector-curvature="0" />
    <path
       style="fill:#000000;fill-opacity:1;stroke:none"
       id="path3083"
       d="m 16.18791,1039.9707 c -0.01388,-0.017 -0.02778,-0.035 -0.04166,-0.052 0,0 0.210655,-0.1696 0.210655,-0.1696 l 0,0 c 0.01378,0.016 0.02756,0.032 0.04135,0.049 0,0 -0.210333,0.1734 -0.210333,0.1734 z"
       inkscape:connector-curvature="0" />
    <path
       style="fill:#000000;fill-opacity:1;stroke:none"
       id="path3085"
       d="m 16.023746,1037.8905 c 8.45e-4,-0.1692 0.03028,-0.3355 0.04573,-0.5032 0.0313,-0.1655 0.04819,-0.3348 0.07557,-0.5012 0.02126,-0.1168 0.0093,-0.055 0.03655,-0.1847 0,0 0.222086,-0.1379 0.222086,-0.1379 l 0,0 c -0.02656,0.128 -0.01467,0.067 -0.03607,0.1828 -0.02957,0.1647 -0.04182,0.3346 -0.07675,0.4982 -0.01472,0.1663 -0.04493,0.3313 -0.04536,0.4988 0,0 -0.221747,0.1472 -0.221747,0.1472 z"
       inkscape:connector-curvature="0" />
    <path
       style="fill:#000000;fill-opacity:1;stroke:none"
       id="path3087"
       d="m 15.466083,1034.3955 c -0.111775,0.1237 -0.202055,0.2767 -0.287642,0.4308 0,0 -0.225789,0.1276 -0.225789,0.1276 l 0,0 c 0.08407,-0.1561 0.17546,-0.3075 0.282174,-0.4385 0,0 0.231257,-0.1199 0.231257,-0.1199 z"
       inkscape:connector-curvature="0" />
    <path
       style="fill:#000000;fill-opacity:1;stroke:none"
       id="path3089"
       d="m 14.064731,1046.1761 c 0.0577,0.1297 0.127751,0.249 0.204248,0.3606 0,0 -0.21125,0.1664 -0.21125,0.1664 l 0,0 c -0.07612,-0.1132 -0.146182,-0.2333 -0.207021,-0.3615 0,0 0.214023,-0.1655 0.214023,-0.1655 z"
       inkscape:connector-curvature="0" />
    <path
       style="fill:#000000;fill-opacity:1;stroke:none"
       id="path3091"
       d="m 15.622338,1029.9789 c -0.102692,-0.1004 -0.215862,-0.18 -0.317613,-0.2819 -0.01703,-0.015 -0.03405,-0.031 -0.05108,-0.046 0,0 0.208488,-0.1732 0.208488,-0.1732 l 0,0 c 0.01718,0.016 0.03436,0.032 0.05156,0.047 0.102528,0.1006 0.214841,0.1827 0.318983,0.2804 0,0 -0.210333,0.1734 -0.210333,0.1734 z"
       inkscape:connector-curvature="0" />
    <path
       style="fill:#000000;fill-opacity:1;stroke:none"
       id="path3093"
       d="m 14.171725,1030.4702 c -0.0097,0.1762 0.0042,0.3482 0.02674,0.5215 0.01359,0.1373 0.05065,0.2681 0.09463,0.3932 0,0 -0.216084,0.1591 -0.216084,0.1591 l 0,0 c -0.04481,-0.1278 -0.083,-0.2612 -0.09686,-0.4013 -0.02257,-0.1746 -0.03733,-0.3476 -0.03017,-0.5252 0,0 0.221748,-0.1473 0.221748,-0.1473 z"
       inkscape:connector-curvature="0" />
    <path
       style="fill:#000000;fill-opacity:1;stroke:none"
       id="path3095"
       d="m 15.715984,1023.5551 c 0.02912,-0.1841 0.04143,-0.3717 0.05005,-0.559 0.0049,-0.1179 0.006,-0.2359 0.007,-0.3538 0,0 0.220213,-0.1459 0.220213,-0.1459 l 0,0 c -9.73e-4,0.1186 -0.0022,0.2371 -0.0069,0.3555 -0.0084,0.1881 -0.02104,0.3761 -0.04646,0.5617 0,0 -0.223888,0.1415 -0.223888,0.1415 z"
       inkscape:connector-curvature="0" />
    <path
       style="fill:#000000;fill-opacity:1;stroke:none"
       id="path3097"
       d="m 14.817037,1019.796 c -0.05369,-0.2013 -0.09274,-0.4084 -0.141027,-0.6118 -0.05293,-0.1786 -0.06727,-0.3687 -0.09605,-0.5546 -0.02344,-0.166 -0.05466,-0.3292 -0.08469,-0.4933 -0.0064,-0.023 -0.01286,-0.047 -0.01929,-0.07 0,0 0.216507,-0.1562 0.216507,-0.1562 l 0,0 c 0.0068,0.024 0.01351,0.049 0.02027,0.074 0.02973,0.1645 0.06202,0.3277 0.08492,0.4942 0.02964,0.1847 0.04089,0.3748 0.09375,0.5526 0.04816,0.2023 0.08599,0.4089 0.142731,0.6077 0,0 -0.217122,0.158 -0.217122,0.158 z"
       inkscape:connector-curvature="0" />
    <path
       style="fill:#000000;fill-opacity:1;stroke:none"
       id="path3099"
       d="m 15.722592,1009.3018 c 0.04389,-0.1734 0.08457,-0.3481 0.126146,-0.5226 0.02519,-0.1477 0.047,-0.2951 0.07565,-0.4418 0.0073,-0.066 0.02542,-0.1291 0.04244,-0.1919 0,0 0.224802,-0.1368 0.224802,-0.1368 l 0,0 c -0.01723,0.062 -0.03839,0.1227 -0.0437,0.1891 -0.02801,0.1478 -0.05437,0.2943 -0.07583,0.4439 -0.04084,0.175 -0.0859,0.3478 -0.123787,0.5241 0,0 -0.225711,0.136 -0.225711,0.136 z"
       inkscape:connector-curvature="0" />
    <g
       sodipodi:type="inkscape:box3d"
       style="fill:#5f8dd3;fill-opacity:1;stroke:none"
       id="g3137"
       inkscape:perspectiveID="#perspective3135"
       inkscape:corner0="0.27187499 : 0.032210938 : 0 : 1"
       inkscape:corner7="0.071052632 : 0.028835527 : 0.25 : 1">
      <path
         sodipodi:type="inkscape:box3dside"
         id="path3149"
         style="fill:#e9e9ff;fill-rule:evenodd;stroke:none"
         inkscape:box3dsidetype="11"
         d="m 14.825322,1002.7482 1.66278,-1.9727 0,2.1897 -1.66278,1.6838 z" />
      <path
         sodipodi:type="inkscape:box3dside"
         id="path3139"
         style="fill:#353564;fill-rule:evenodd;stroke:none"
         inkscape:box3dsidetype="6"
         d="m 12.612613,1000.1975 0,2.2744 2.212709,2.1771 0,-1.9008 z" />
      <path
         sodipodi:type="inkscape:box3dside"
         id="path3141"
         style="fill:#4d4d9f;fill-rule:evenodd;stroke:none"
         inkscape:box3dsidetype="5"
         d="m 12.612613,1000.1975 1.636016,-2.91144 2.239473,3.48944 -1.66278,1.9727 z" />
      <path
         sodipodi:type="inkscape:box3dside"
         id="path3147"
         style="fill:#afafde;fill-rule:evenodd;stroke:none"
         inkscape:box3dsidetype="13"
         d="m 12.612613,1002.4719 1.636016,-2.48499 2.239473,2.97829 -1.66278,1.6838 z" />
      <path
         sodipodi:type="inkscape:box3dside"
         id="path3145"
         style="fill:#d7d7ff;fill-rule:evenodd;stroke:none"
         inkscape:box3dsidetype="14"
         d="m 14.248629,997.28606 0,2.70085 2.239473,2.97829 0,-2.1897 z" />
      <path
         sodipodi:type="inkscape:box3dside"
         id="path3143"
         style="fill:#8686bf;fill-rule:evenodd;stroke:none"
         inkscape:box3dsidetype="3"
         d="m 12.612613,1000.1975 1.636016,-2.91144 0,2.70085 -1.636016,2.48499 z" />
    </g>
  </g>
</svg>
