<?xml version="1.0" encoding="UTF-8" standalone="no"?>
<!-- Created with Inkscape (http://www.inkscape.org/) -->

<svg
   xmlns:dc="http://purl.org/dc/elements/1.1/"
   xmlns:cc="http://creativecommons.org/ns#"
   xmlns:rdf="http://www.w3.org/1999/02/22-rdf-syntax-ns#"
   xmlns:svg="http://www.w3.org/2000/svg"
   xmlns="http://www.w3.org/2000/svg"
   xmlns:sodipodi="http://sodipodi.sourceforge.net/DTD/sodipodi-0.dtd"
   xmlns:inkscape="http://www.inkscape.org/namespaces/inkscape"
   width="20"
   height="35"
   id="svg2"
   version="1.1"
   inkscape:version="0.48.4 r9939"
   sodipodi:docname="wrench.svg"
   inkscape:export-filename="C:\Users\narfman0\Desktop\wrench.png"
   inkscape:export-xdpi="90"
   inkscape:export-ydpi="90">
  <defs
     id="defs4" />
  <sodipodi:namedview
     id="base"
     pagecolor="#ffffff"
     bordercolor="#666666"
     borderopacity="1.0"
     inkscape:pageopacity="0.0"
     inkscape:pageshadow="2"
     inkscape:zoom="5.6990943"
     inkscape:cx="33.783654"
     inkscape:cy="34.782507"
     inkscape:document-units="px"
     inkscape:current-layer="layer1"
     showgrid="false"
     inkscape:window-width="1109"
     inkscape:window-height="880"
     inkscape:window-x="386"
     inkscape:window-y="20"
     inkscape:window-maximized="0" />
  <metadata
     id="metadata7">
    <rdf:RDF>
      <cc:Work
         rdf:about="">
        <dc:format>image/svg+xml</dc:format>
        <dc:type
           rdf:resource="http://purl.org/dc/dcmitype/StillImage" />
        <dc:title />
      </cc:Work>
    </rdf:RDF>
  </metadata>
  <g
     inkscape:label="Layer 1"
     inkscape:groupmode="layer"
     id="layer1"
     transform="translate(0,-1017.3622)">
    <path
       style="fill:#000000;fill-opacity:1;stroke:none"
       id="path2985"
       d="m 4.7305173,1027.4042 c -0.0054,0.1858 -0.005,0.3716 -0.0046,0.5574 5.6e-4,0.2128 -0.0012,0.4256 -6.65e-4,0.6384 -0.0016,0.2679 -0.0023,0.5359 -0.0036,0.8038 -8.1e-5,0.3248 -0.0016,0.6497 -0.0014,0.9745 0.0052,0.3754 -9.4e-4,0.75 -0.02989,1.1249 -0.03663,0.4288 -0.05102,0.8584 -0.05876,1.288 -0.01125,0.4548 0.0044,0.9099 -0.01911,1.3645 -0.0341,0.4694 -0.057,0.9392 -0.06826,1.4091 -0.01022,0.4873 -0.01066,0.9747 -0.0101,1.4619 4.1e-4,0.4592 0.001,0.9184 0.0021,1.3776 2.34e-4,0.4095 0.0028,0.8189 0.0022,1.2284 -0.02269,0.3567 -0.05567,0.7129 -0.07188,1.0699 -0.0085,0.3064 -0.0083,0.612 -0.04145,0.9175 -0.03815,0.2459 -0.03247,0.4943 -0.06713,0.7401 -0.03426,0.2263 -0.05829,0.4527 -0.101532,0.6781 -0.03844,0.2091 -0.05371,0.4191 -0.09337,0.628 -0.03369,0.1918 -0.04767,0.3842 -0.08926,0.5752 -0.03679,0.1649 -0.05174,0.3318 -0.05953,0.4986 -0.03415,0.1542 -0.06406,0.3086 -0.08037,0.4644 0.0034,0.1389 -0.02682,0.2733 -0.05867,0.4095 -0.02981,0.1295 -0.03718,0.2608 -0.04173,0.3919 0.01187,0.1354 -0.0176,0.266 -0.04792,0.3987 -0.02939,0.1297 -0.03698,0.2612 -0.04165,0.3924 -0.0033,0.1316 -0.0028,0.2632 -0.0026,0.3949 2.55e-4,0.1318 4.06e-4,0.2637 4.91e-4,0.3956 6.7e-5,0.1319 6.8e-5,0.2638 7e-5,0.3956 1e-6,0.1319 -2e-6,0.2638 -3e-6,0.3957 -10e-7,0.1319 -10e-7,0.2637 -10e-7,0.3956 0.03695,0.112 0.06307,0.2247 0.07693,0.3394 0.0124,0.1283 0.01272,0.257 0.01339,0.3856 2.51e-4,0.1319 -1.48e-4,0.2639 -3.38e-4,0.3958 -1.77e-4,0.132 -2.11e-4,0.2639 -2.34e-4,0.3958 -1.5e-5,0.1319 -1.1e-5,0.2638 -1e-5,0.3957 2e-6,0.1319 3e-6,0.2637 4e-6,0.3956 -4.78e-4,0.1685 -0.0056,0.3368 -0.0057,0.5053 0,0 -0.659762,-0.414 -0.659762,-0.414 l 0,0 c -1.3e-4,-0.1709 -0.0052,-0.3416 -0.0057,-0.5124 0,-0.1319 -2e-6,-0.2638 -3e-6,-0.3957 -1e-6,-0.1319 -5e-6,-0.2638 2.1e-5,-0.3956 3.5e-5,-0.132 9.3e-5,-0.264 2.98e-4,-0.3959 2.02e-4,-0.1319 6.65e-4,-0.2637 -1.46e-4,-0.3956 -0.0014,-0.1271 -0.0027,-0.2546 -0.01989,-0.3812 -0.01874,-0.1154 -0.05785,-0.2281 -0.07002,-0.3439 0,-0.1319 1e-6,-0.2638 1e-6,-0.3957 2e-6,-0.1319 4e-6,-0.2637 2e-6,-0.3956 -6e-6,-0.1319 -1.1e-5,-0.2638 -1e-4,-0.3956 -1.05e-4,-0.1319 -3.04e-4,-0.2638 -4.97e-4,-0.3957 -5.6e-5,-0.1321 -4.95e-4,-0.2643 0.0044,-0.3964 0.0066,-0.1335 0.01774,-0.2671 0.04961,-0.3989 0.02958,-0.1303 0.04541,-0.2598 0.03991,-0.3922 0.0064,-0.1334 0.01744,-0.267 0.05009,-0.3986 0.03169,-0.1344 0.04948,-0.2684 0.05461,-0.4047 0.01979,-0.1547 0.05553,-0.3077 0.07819,-0.4621 0.0114,-0.1683 0.03191,-0.3362 0.06872,-0.5027 0.04077,-0.1901 0.05226,-0.3823 0.09043,-0.5727 0.03924,-0.2086 0.05054,-0.419 0.09485,-0.6271 0.0425,-0.2245 0.06494,-0.4504 0.09974,-0.6755 0.02891,-0.2451 0.03199,-0.4917 0.07092,-0.7363 0.03227,-0.304 0.02952,-0.6084 0.04294,-0.9131 0.02003,-0.3552 0.05401,-0.7097 0.07507,-1.0648 -6.1e-4,-0.4087 0.0019,-0.8173 0.0018,-1.2259 6.7e-4,-0.4585 6.2e-4,-0.917 0.0012,-1.3756 0.0015,-0.4876 0.0013,-0.9752 0.01102,-1.4628 0.01277,-0.4703 0.03326,-0.9404 0.06855,-1.4101 0.01808,-0.455 0.0051,-0.9103 0.01524,-1.3654 0.0091,-0.4309 0.02242,-0.8616 0.05801,-1.2918 0.02611,-0.3752 0.02605,-0.7502 0.02121,-1.1259 1.65e-4,-0.3254 -0.0014,-0.6508 -0.0015,-0.9762 -0.0013,-0.2695 -0.0019,-0.5389 -0.0036,-0.8084 5.05e-4,-0.2131 -0.0012,-0.4261 -6.65e-4,-0.6392 3.25e-4,-0.1878 6.2e-4,-0.3755 -0.0046,-0.5632 0,0 0.674309,0.4231 0.674309,0.4231 z"
       inkscape:connector-curvature="0" />
    <path
       style="fill:#000000;fill-opacity:1;stroke:none"
       id="path2987"
       d="m 2.9794613,1051.4852 c 0.223401,-0.053 0.448144,-0.1031 0.676975,-0.1417 0.224506,-0.032 0.447135,-0.068 0.673665,-0.091 0.163052,-0.029 0.324646,-0.059 0.491408,-0.074 0.174533,-0.013 0.350154,-0.013 0.525384,-0.014 0.17944,-3e-4 0.358882,10e-5 0.538322,3e-4 0.180486,0.01 0.356562,-0.016 0.533752,-0.037 0.179658,-0.02 0.36133,-0.025 0.542692,-0.028 0.179696,0 0.359427,0 0.539141,0 0.179473,10e-5 0.358947,3e-4 0.538421,3e-4 0.179477,0 0.358955,0 0.538433,0 0.179481,0 0.358963,0 0.538444,0 0.179482,0 0.358964,0 0.538445,0 0.179482,0 0.3589637,0 0.5384457,0 0.179482,0 0.358963,0 0.538444,0 0.179482,0 0.358964,0 0.538446,0 0.179482,0 0.358964,0 0.538445,0 0.179482,0 0.358963,0 0.538445,0 0.144264,-0.01 0.316614,0.029 0.437519,-0.043 0.07608,-0.092 0.06793,-0.2077 0.07192,-0.3118 0.0349,-0.1643 0.05973,-0.3294 0.07451,-0.4953 0.01258,-0.1587 0.01194,-0.3176 0.01343,-0.4765 4.5e-4,-0.155 -7.5e-4,-0.3099 -0.0014,-0.4649 -5e-4,-0.1346 -6e-4,-0.2692 -6.5e-4,-0.4038 1.61e-4,-0.1342 -5.5e-4,-0.2683 6.5e-4,-0.4025 6e-4,-0.1488 2.2e-5,-0.2976 -2.78e-4,-0.4463 -2.61e-4,-0.1476 7.5e-4,-0.2953 4.7e-4,-0.443 -3.53e-4,-0.1403 -6e-4,-0.2807 -7.5e-4,-0.4211 -6.3e-5,-0.1453 9.5e-4,-0.2906 7.5e-4,-0.436 -9.6e-5,-0.1429 -0.0012,-0.2857 -5.3e-5,-0.4286 -5e-4,-0.165 0.0012,-0.3301 0.0015,-0.4951 -2.28e-4,-0.176 -9.5e-4,-0.3519 -2.83e-4,-0.5278 0.01682,-0.1791 -0.01451,-0.3543 -0.04426,-0.5312 -0.03036,-0.1797 -0.03784,-0.3608 -0.04308,-0.5415 0.01207,-0.1894 -0.03428,-0.3758 -0.05954,-0.5635 -0.02235,-0.1911 -0.0278,-0.3829 -0.03188,-0.5746 -0.03134,-0.1829 -0.06151,-0.3659 -0.07627,-0.5501 -7e-5,-0.1888 -0.04302,-0.3748 -0.07162,-0.562 -0.01753,-0.1713 -0.02756,-0.3411 -0.06128,-0.5111 -0.03354,-0.1555 -0.04974,-0.3125 -0.05824,-0.4696 -0.0078,-0.135 -0.05303,-0.267 -0.07365,-0.4014 -0.0014,-0.1337 -0.03457,-0.2626 -0.06616,-0.3936 -0.02394,-0.1326 -0.03573,-0.2641 -0.07252,-0.3951 -0.03927,-0.147 -0.04897,-0.2974 -0.05671,-0.4468 0.0067,-0.1479 -0.04119,-0.2914 -0.06101,-0.4379 -0.02128,-0.1638 -0.02843,-0.3282 -0.03221,-0.4927 -0.0023,-0.1362 -0.0018,-0.2725 -0.0016,-0.4088 2.15e-4,-0.1316 3.24e-4,-0.2633 3.85e-4,-0.3949 9.5e-4,-0.1476 0.001,-0.2952 7.5e-4,-0.4428 -3.49e-4,-0.138 -5e-4,-0.276 -6e-4,-0.414 -7.4e-5,-0.132 -7.1e-5,-0.2641 -7.2e-5,-0.3961 10e-7,-0.1318 4e-6,-0.2636 5e-6,-0.3954 -0.0038,-0.1292 -0.0062,-0.2555 0.03039,-0.3821 0.03678,-0.1145 0.04772,-0.2318 0.05473,-0.3489 0.0058,-0.1297 0.0053,-0.2596 0.0052,-0.3895 -1.83e-4,-0.132 -4.12e-4,-0.264 -5e-4,-0.3959 -1.02e-4,-0.132 -1.1e-4,-0.2639 -1.18e-4,-0.3958 0.03083,-0.1323 0.0606,-0.2642 0.07621,-0.398 0.0127,-0.1309 0.01334,-0.2622 0.01408,-0.3934 2.99e-4,-0.1318 -1.07e-4,-0.2637 -2.98e-4,-0.3955 0.0023,-0.134 0.04762,-0.2654 0.06835,-0.3986 0.01776,-0.1306 0.01973,-0.2619 0.02131,-0.393 -4.72e-4,-0.1187 0.04801,-0.2337 0.06857,-0.3513 0.01813,-0.1243 0.01957,-0.2493 0.02113,-0.3742 0.03156,-0.1141 0.06147,-0.2277 0.07617,-0.3437 0.01285,-0.1268 0.01323,-0.254 0.01397,-0.381 3.14e-4,-0.1319 -9.2e-5,-0.2637 -2.83e-4,-0.3956 -1.81e-4,-0.1319 -2.17e-4,-0.2639 -2.41e-4,-0.3958 -1.7e-5,-0.1319 -1.2e-5,-0.2638 -1.1e-5,-0.3957 2e-6,-0.1319 3e-6,-0.2637 3e-6,-0.3956 10e-7,-0.1319 10e-7,-0.2638 10e-7,-0.3957 -0.0166,-0.1231 0.03071,-0.2406 0.05834,-0.3606 0.02459,-0.1212 0.02787,-0.2439 0.03068,-0.3661 0.002,-0.1313 0.0014,-0.2626 0.0012,-0.3938 -2.52e-4,-0.132 -3.57e-4,-0.264 -4.18e-4,-0.396 -0.04426,-0.107 -0.04308,-0.2228 -0.09281,-0.3278 -0.03081,-0.1039 -0.08686,-0.2004 -0.127543,-0.3019 -0.04466,-0.1029 -0.09537,-0.2011 -0.117816,-0.3092 -0.03854,-0.066 -0.06155,-0.1348 -0.08007,-0.2049 0,0 0.68538,0.4114 0.68538,0.4114 l 0,0 c 0.02384,0.069 0.05593,0.1369 0.07775,0.2066 0.0307,0.1039 0.08763,0.2008 0.125715,0.3032 0.04746,0.1002 0.08761,0.2014 0.124823,0.304 0.03117,0.1122 0.06124,0.2257 0.07572,0.3397 7.4e-5,0.132 2.1e-4,0.264 4.5e-4,0.396 1.73e-4,0.1316 7.5e-4,0.2633 -0.0022,0.395 -0.0039,0.1252 -0.0095,0.2508 -0.03831,0.3744 -0.02893,0.1166 -0.06479,0.2315 -0.04978,0.3512 0,0.1319 0,0.2638 -10e-7,0.3957 -10e-7,0.1318 -2e-6,0.2637 -3e-6,0.3956 -1e-6,0.1319 -5e-6,0.2638 1.9e-5,0.3956 3.2e-5,0.132 8.4e-5,0.2639 2.83e-4,0.3958 2e-4,0.132 6.5e-4,0.264 -3.2e-5,0.396 -0.0012,0.1288 -0.0024,0.2579 -0.01861,0.3863 -0.01729,0.1139 -0.05171,0.2253 -0.07179,0.3388 -0.0023,0.1271 -0.0051,0.2547 -0.02726,0.381 -0.02296,0.1146 -0.06775,0.2277 -0.06257,0.3444 -0.0026,0.1329 -0.0064,0.2661 -0.02776,0.3983 -0.02306,0.1306 -0.06591,0.2603 -0.06118,0.3926 2.02e-4,0.1319 6.5e-4,0.2639 -1.07e-4,0.3958 -0.0014,0.1327 -0.0031,0.2655 -0.01919,0.3978 -0.01835,0.1318 -0.0534,0.2616 -0.07075,0.3934 1.1e-5,0.1319 2.5e-5,0.2638 1.48e-4,0.3957 1.38e-4,0.132 4.11e-4,0.264 4.77e-4,0.396 -1.72e-4,0.1308 8.3e-5,0.2616 -0.0076,0.3923 -0.0092,0.1199 -0.02473,0.2395 -0.06203,0.3567 -0.03051,0.1229 -0.01978,0.247 -0.02072,0.3715 10e-7,0.1318 4e-6,0.2636 5e-6,0.3954 -1e-6,0.132 2e-6,0.264 -6.9e-5,0.396 -9.6e-5,0.1377 -2.72e-4,0.2755 -6e-4,0.4132 -3.08e-4,0.1479 -1.82e-4,0.2958 6e-4,0.4437 -7.2e-5,0.1316 -1.95e-4,0.2633 -4.78e-4,0.3949 -2.47e-4,0.1357 -8e-4,0.2715 0.0014,0.4072 0.0038,0.1623 0.01047,0.3249 0.0356,0.4864 0.02631,0.1473 0.06599,0.2934 0.05893,0.4428 0.0092,0.1476 0.02322,0.2954 0.06644,0.4401 0.03304,0.1312 0.03903,0.2645 0.07168,0.3958 0.03239,0.1316 0.05141,0.2631 0.06311,0.3965 0.02425,0.1348 0.06751,0.2682 0.0684,0.4047 0.0099,0.1551 0.02809,0.3098 0.06134,0.4633 0.0325,0.17 0.03363,0.3412 0.05852,0.5119 0.02867,0.1878 0.06624,0.3749 0.06891,0.5642 0.01863,0.1849 0.05242,0.3684 0.07386,0.553 0.0034,0.1901 0.0099,0.3804 0.03612,0.5696 0.02839,0.1889 0.06339,0.3773 0.05566,0.5679 0.0061,0.1793 0.01675,0.3587 0.0492,0.5366 0.03148,0.1787 0.04684,0.357 0.03702,0.5374 6.5e-4,0.1758 -5.1e-5,0.3516 -2.83e-4,0.5274 2.3e-4,0.1657 0.002,0.3314 0.0015,0.497 0.0011,0.1428 5.4e-5,0.2857 -5.2e-5,0.4285 -2.06e-4,0.1456 8e-4,0.2913 7.5e-4,0.4369 -1.38e-4,0.1401 -3.96e-4,0.2802 -7.5e-4,0.4203 -2.43e-4,0.1478 7.5e-4,0.2956 4.68e-4,0.4435 -3e-4,0.1486 -9.5e-4,0.2972 -2.84e-4,0.4459 0.0012,0.1344 4.92e-4,0.2689 6.5e-4,0.4034 -7e-6,0.1343 -1.5e-5,0.2687 -1.64e-4,0.4032 -2.02e-4,0.1546 -5.5e-4,0.3092 -9.5e-4,0.4639 -2.48e-4,0.1601 -0.0023,0.3204 -0.01675,0.4803 -0.01817,0.1651 -0.04866,0.3291 -0.07078,0.494 -0.0055,0.1235 -0.0091,0.2539 -0.119126,0.3548 -0.14219,0.088 -0.308911,0.073 -0.485519,0.071 -0.179482,0 -0.358964,0 -0.538446,0 -0.179481,0 -0.358962,0 -0.538444,0 -0.179482,0 -0.358964,0 -0.538446,0 -0.179481,0 -0.358963,0 -0.538445,0 -0.179481,0 -0.358963,0 -0.538445,0 -0.179482,0 -0.3589637,0 -0.5384447,0 -0.179482,0 -0.358964,0 -0.538445,0 -0.179486,0 -0.358972,0 -0.538458,-10e-5 -0.17949,0 -0.358979,-10e-5 -0.538468,-3e-4 -0.179248,-10e-5 -0.358503,0 -0.537744,0 -0.178381,0 -0.357154,0.01 -0.534242,0.023 -0.180843,0.019 -0.359559,0.053 -0.543624,0.043 -0.179288,-2e-4 -0.358577,0 -0.537865,0 -0.17255,0 -0.34536,3e-4 -0.517506,0.01 -0.16759,0.013 -0.330578,0.038 -0.492859,0.071 -0.225773,0.019 -0.446427,0.056 -0.669516,0.086 -0.22443,0.034 -0.443959,0.083 -0.659221,0.1402 0,0 -0.601887,-0.4796 -0.601887,-0.4796 z"
       inkscape:connector-curvature="0" />
    <path
       style="fill:#000000;fill-opacity:1;stroke:none"
       id="path2989"
       d="m 3.4538483,1025.982 c 0.215803,0.072 0.419512,0.1621 0.622596,0.2517 0.1955,0.079 0.397376,0.15 0.587917,0.2355 0.17081,0.082 0.346372,0.1578 0.524649,0.2304 0.176565,0.068 0.347937,0.1417 0.524033,0.2101 0.146216,0.055 0.283712,0.1217 0.426479,0.1813 0.141104,0.051 0.278382,0.1079 0.418578,0.1605 0.11769,0.043 0.22953,0.098 0.354593,0.1282 0.09748,0 0.173597,-0.055 0.221603,-0.1114 0.07448,-0.077 0.139806,-0.1607 0.188109,-0.2482 0.08024,-0.094 0.141246,-0.1945 0.204992,-0.2947 0.07724,-0.1051 0.130025,-0.2181 0.197114,-0.3264 0.06372,-0.1065 0.110925,-0.2176 0.168887,-0.3257 0.05575,-0.1269 0.107376,-0.2553 0.151049,-0.3849 0.04544,-0.106 0.134657,-0.1891 0.294974,-0.1765 0.374899,0.1272 0.653783,0.3908 0.912128,0.6203 0.108773,0.1166 0.249918,0.2143 0.369776,0.3247 0.121332,0.098 0.24077,0.1983 0.363104,0.2964 0.1343187,0.1081 0.2597087,0.2227 0.4019597,0.3253 -1.1269947,-0.8726 -0.6552797,-0.3779 -0.36184,-0.344 0.05648,0.01 0.06813,0 0.12392,-0.01 0.137771,-0.03 0.262736,-0.086 0.38632,-0.1392 0.114699,-0.065 0.238152,-0.1195 0.348381,-0.1885 0.126551,-0.064 0.215252,-0.1556 0.305248,-0.2449 0.106445,-0.077 0.177281,-0.1741 0.272302,-0.2579 0.08028,-0.08 0.123387,-0.1756 0.189435,-0.2624 0.06602,-0.1027 0.125544,-0.2073 0.190679,-0.3103 0.0528,-0.1115 0.106506,-0.223 0.153076,-0.3361 0.03049,-0.095 0.06983,-0.2008 0.189643,-0.2537 0.288667,-0.027 0.737861,0.4314 0.890384,0.6827 0.08211,0.1351 0.177381,0.2649 0.280373,0.3921 0.126558,0.1411 0.197923,0.3013 0.320269,0.445 0.118018,0.1569 0.265579,0.3002 0.400574,0.4492 0.159148,0.1552 0.301976,0.3178 0.441798,0.4825 0.106563,0.1323 0.231047,0.2534 0.36019,0.374 0.09981,0.1077 0.205857,0.2128 0.320774,0.3124 0.05467,0.056 0.112107,0.1114 0.172847,0.1637 0.01773,0.015 0.07682,0.057 0.05763,0.043 -0.576591,-0.4296 -0.777998,-0.529 -0.500386,-0.3866 0.125776,0.053 0.25766,0.051 0.392772,0.022 0.127136,-0.027 0.237812,-0.075 0.34607,-0.1294 0.125177,-0.05 0.236528,-0.1157 0.338784,-0.1877 0.124296,-0.084 0.215049,-0.1878 0.310962,-0.2886 0.09096,-0.081 0.147184,-0.1704 0.203467,-0.2655 0.04584,-0.1106 0.115366,-0.2141 0.153943,-0.3264 0.03897,-0.1049 0.06934,-0.2149 0.121791,-0.317 0.05207,-0.1001 0.07379,-0.2049 0.11888,-0.3066 0.05879,-0.094 0.155969,-0.1479 0.293154,-0.1116 0.319087,0.1686 -0.340069,-0.1822 0.709922,0.5067 0.203045,0.1332 -0.765085,-0.5692 -0.576636,-0.4249 1.467913,1.1243 0.36982,0.24 0.732445,0.5706 0.08013,0.089 0.172141,0.1743 0.268003,0.2557 0.109913,0.1164 0.238237,0.2225 0.364074,0.33 0.103037,0.1103 0.238897,0.2006 0.351906,0.305 0.01866,0.013 0.03855,0.025 0.05598,0.038 0.05363,0.042 0.09232,0.09 0.138044,0.1361 0.01502,0.015 0.06782,0.056 0.04982,0.043 -0.192619,-0.1416 -0.382532,-0.2851 -0.573798,-0.4277 0.09258,0.067 0.105123,0.01 0.121444,-0.062 0.01992,-0.1219 0.01792,-0.2451 0.01809,-0.3678 -4.53e-4,-0.1328 -0.0012,-0.2657 -0.0016,-0.3986 -3.53e-4,-0.1321 -3.88e-4,-0.2642 -4.16e-4,-0.3962 -1.5e-5,-0.1319 -5e-6,-0.2638 0,-0.3957 0.01356,-0.1328 -0.0328,-0.2614 -0.0582,-0.3919 -0.06438,-0.1242 -0.06734,-0.2602 -0.122383,-0.3853 -0.04448,-0.1162 -0.105756,-0.2271 -0.140336,-0.3455 -0.03326,-0.115 -0.08576,-0.2246 -0.108048,-0.342 -0.04725,-0.1244 -0.08028,-0.2504 -0.126613,-0.3749 -0.05432,-0.1295 -0.04608,-0.2665 -0.08305,-0.3978 -0.04252,-0.1308 -0.06131,-0.2645 -0.07204,-0.3985 -0.01169,-0.1324 -0.05604,-0.262 -0.07648,-0.3942 0.0018,-0.1219 -0.05285,-0.2361 -0.08064,-0.3549 -0.02838,-0.1087 -0.0782,-0.2122 -0.0992,-0.323 -0.06199,-0.1179 -0.06112,-0.2471 -0.11241,-0.3662 -0.04931,-0.1111 -0.08452,-0.2282 -0.15455,-0.3334 -0.05923,-0.096 -0.104708,-0.1989 -0.181869,-0.2877 -0.05803,-0.092 -0.112369,-0.1857 -0.209957,-0.2594 -0.101262,-0.089 -0.180305,-0.1895 -0.290436,-0.2723 1.077217,0.7868 0.589907,0.4147 0.304942,0.2688 -0.110062,-0.053 -0.225192,-0.1 -0.342943,-0.1431 -0.12094,-0.054 -0.250326,-0.085 -0.385777,-0.1116 -0.148093,-0.036 -0.298744,-0.066 -0.449013,-0.097 -0.160158,-0.019 -0.315194,-0.054 -0.472787,-0.081 -0.169759,-0.025 -0.338567,-0.053 -0.507045,-0.083 -0.170464,-0.041 -0.348544,-0.055 -0.524416,-0.078 -0.152461,-0.032 -0.307467,-0.051 -0.465132,-0.062 -0.178683,0 -0.352991,-0.037 -0.529789,-0.054 -0.181913,-0.01 -0.361275,-0.023 -0.540707,-0.046 -0.176051,-0.024 -0.354913,-0.032 -0.533611,-0.037 -0.173197,0 -0.346302,0 -0.517747,-0.017 -0.156399,-0.027 -0.315664,-0.039 -0.475634,-0.046 -0.176729,-0.01 -0.353698,-0.01 -0.53057,-0.01 -0.179639,0 -0.359278,2e-4 -0.538918,3e-4 -0.179532,10e-5 -0.359064,10e-5 -0.5385957,10e-5 -0.179482,0 -0.358965,0 -0.538448,0 -0.162877,-0.011 -0.319247,0.015 -0.477921,0.037 -0.132829,0.031 -0.267755,0.057 -0.398057,0.094 -0.153582,0.037 -0.310215,0.068 -0.46425,0.104 -0.171432,0.05 -0.347522,0.09 -0.520518,0.1356 -0.158926,0.04 -0.314676,0.086 -0.469309,0.1344 -0.155827,0.045 -0.30802,0.096 -0.463034,0.1429 -0.133986,0.048 -0.262846,0.1043 -0.39849,0.15 -0.118459,0.046 -0.226847,0.1029 -0.344971,0.1498 -0.153243,0.066 -0.307035,0.1316 -0.457827,0.2009 -0.148978,0.07 -0.303378,0.1332 -0.453743,0.2016 -0.143237,0.069 -0.287842,0.1385 -0.417562,0.2214 -0.127258,0.073 -0.242836,0.1547 -0.363604,0.2329 -0.156365,0.099 -0.301577,0.2071 -0.435241,0.3228 -0.09858,0.082 -0.206061,0.1586 -0.305284,0.2403 -0.09796,0.081 -0.207252,0.153 -0.306323,0.233 -0.08762,0.089 -0.183582,0.1731 -0.27654,0.2591 -0.109764,0.073 -0.182947,0.1689 -0.278454,0.2512 -0.0915,0.084 -0.166519,0.1766 -0.261289,0.2587 -0.08713,0.087 -0.183193,0.1707 -0.251876,0.2667 -0.07971,0.094 -0.159009,0.1874 -0.239081,0.281 -0.06751,0.09 -0.134055,0.1801 -0.200012,0.2709 -0.06096,0.093 -0.124173,0.1845 -0.178159,0.2799 -0.04996,0.1058 -0.113725,0.2078 -0.180368,0.3084 -0.04324,0.098 -0.104255,0.19 -0.137111,0.2903 -0.06956,0.098 -0.08479,0.2071 -0.12521498,0.3112 -0.05161,0.1229 -0.07027,0.2504 -0.08132,0.3781 -0.0086,0.1314 -0.008,0.2629 -0.008,0.3944 2.63e-4,0.1319 6.05e-4,0.2639 8.05e-4,0.3958 1.51e-4,0.1319 1.63e-4,0.2638 1.74e-4,0.3957 6e-6,0.1319 1e-6,0.2638 -10e-7,0.3956 -0.0043,0.1265 -0.0065,0.2492 0.03193,0.3726 0.02859,0.1121 0.04267,0.2227 0.08607,0.3323 0.0058,0.018 0.0089,0.036 0.01733,0.053 0.01521,0.031 0.04141,0.059 0.05749,0.089 0.0261,0.05 0.03734,0.099 0.06948,0.1468 0.05107,0.095 0.104369,0.1893 0.164742,0.2817 0.06724,0.1159 0.104071,0.2414 0.177447,0.3551 0.05953,0.098 0.105056,0.2039 0.183415,0.2949 0.03724,0.043 0.04469,0.093 0.09023,0.1328 0.01048,0.01 0.04847,0.032 0.03711,0.023 -0.565936,-0.4242 -0.80871194,-0.5672 -0.571592,-0.4267 0.09895,-0.024 0.172578,-0.1185 0.225574,-0.1812 0.0913,-0.086 0.170536,-0.178 0.255481,-0.2672 0.08826,-0.075 0.137484,-0.1629 0.198199,-0.2494 0.06527,-0.092 0.142516,-0.1821 0.22616,-0.2662 0.08096,-0.085 0.13854,-0.1811 0.210945,-0.27 0.06424,-0.087 0.114496,-0.1787 0.181192,-0.2641 0.0508,-0.092 0.121885,-0.1732 0.196474,-0.2549 0.09389,-0.078 0.177535,-0.1615 0.258425,-0.2465 0.09803,-0.083 0.184997,-0.172 0.269501,-0.2623 0.08305,-0.081 0.181481,-0.1517 0.272459,-0.2274 0.09449,-0.062 0.196479,-0.1286 0.323352,-0.1473 0.472265,0.045 0.726301,0.4119 0.787353,0.7132 0.01508,0.1265 0.01483,0.2505 0.05365,0.3745 0.0372,0.1175 0.04642,0.2382 0.05275,0.3583 0.005,0.1307 0.0044,0.2614 0.0044,0.3921 0,0 -0.671143,-0.4212 -0.671143,-0.4212 l 0,0 c -1.63e-4,-0.13 1.35e-4,-0.2601 -0.0076,-0.39 -0.0092,-0.1182 -0.02518,-0.2359 -0.06249,-0.3513 -0.03028,-0.1242 -0.02172,-0.2507 -0.05173,-0.3751 -0.01655,-0.055 -0.03232,-0.11 -0.07172,-0.1594 -0.0106,-0.013 -0.05205,-0.048 -0.03688,-0.037 0.592906,0.4162 0.668122,0.6205 0.578007,0.3964 -0.08637,-0.036 -0.201192,0.072 -0.267235,0.1053 -0.08937,0.073 -0.185067,0.1424 -0.266416,0.221 -0.08611,0.09 -0.171224,0.1802 -0.269793,0.2628 -0.08177,0.084 -0.162919,0.1686 -0.255949,0.2462 -0.0738,0.08 -0.137846,0.1623 -0.19135,0.2507 -0.06363,0.087 -0.117545,0.1783 -0.182741,0.265 -0.0713,0.092 -0.135045,0.187 -0.217693,0.2739 -0.07963,0.082 -0.15315,0.1694 -0.215328,0.2593 -0.05959,0.091 -0.12071,0.177 -0.207091,0.256 -0.08321,0.089 -0.166028,0.1775 -0.254154,0.2641 -0.07657,0.088 -0.163618,0.1789 -0.288923,0.2323 -0.420577,0.067 -0.660983,-0.3869 -0.83290294,-0.6273 -0.06122,-0.099 -0.123779,-0.1971 -0.175937,-0.2988 -0.05848,-0.1184 -0.110915,-0.2387 -0.180126,-0.3541 -0.05506,-0.095 -0.115769,-0.1873 -0.163626,-0.2841 -0.04526,-0.099 -0.102029,-0.1943 -0.136887,-0.2954 -0.0377,-0.1105 -0.04587,-0.2246 -0.0818,-0.3355 -0.02887,-0.1262 -0.01772,-0.2537 -0.01916,-0.3812 2e-6,-0.1319 6e-6,-0.2638 -5e-6,-0.3957 -1.8e-5,-0.1318 -4.4e-5,-0.2637 -2.29e-4,-0.3956 -2.07e-4,-0.132 -6.23e-4,-0.2639 -6.49e-4,-0.3959 3.6e-4,-0.1327 3.13e-4,-0.2655 0.01205,-0.3979 0.01461,-0.1311 0.0397,-0.2612 0.0911,-0.3876 0.03397,-0.1058 0.06323,-0.2119 0.124133,-0.3119 0.03914,-0.1027 0.09835,-0.2004 0.148728,-0.3003 0.06668,-0.099 0.126508,-0.2008 0.177986,-0.3047 0.05604,-0.097 0.118093,-0.1916 0.182605,-0.2857 0.06813,-0.091 0.13400994,-0.1834 0.20527994,-0.2735 0.08034,-0.092 0.155955,-0.1856 0.235072,-0.278 0.07579,-0.098 0.171857,-0.1865 0.263817,-0.2764 0.09461,-0.082 0.168743,-0.1754 0.261046,-0.2591 0.09442,-0.082 0.168862,-0.1755 0.276931,-0.2487 0.09273,-0.088 0.191908,-0.1719 0.280782,-0.2621 0.09794,-0.081 0.209112,-0.1519 0.30511,-0.234 0.09988,-0.081 0.207111,-0.1564 0.307412,-0.2369 0.13873,-0.1159 0.286566,-0.2257 0.442697,-0.329 0.119464,-0.08 0.235257,-0.1626 0.363334,-0.2347 0.133992,-0.085 0.283219,-0.155 0.428526,-0.2286 0.151447,-0.067 0.304837,-0.1311 0.453703,-0.201 0.152999,-0.068 0.307404,-0.1346 0.459509,-0.2041 0.119045,-0.05 0.231966,-0.1041 0.350612,-0.1541 0.138522,-0.043 0.267384,-0.101 0.401867,-0.1501 0.155227,-0.046 0.306327,-0.099 0.462694,-0.1417 0.155857,-0.048 0.309846,-0.099 0.47141,-0.1369 0.172444,-0.049 0.353277,-0.082 0.523081,-0.1364 0.150848,-0.04 0.306409,-0.069 0.459253,-0.1039 0.13561,-0.039 0.274877,-0.065 0.411785,-0.102 0.163352,-0.02 0.3232,-0.055 0.490852,-0.043 0.179481,0 0.358962,0 0.538444,0 0.17952,0 0.35904,0 0.538559,-10e-5 0.1796607,-1e-4 0.3593207,-3e-4 0.5389817,-3e-4 0.177817,-10e-5 0.35568,-4e-4 0.533438,0 0.16248,0 0.325562,0.012 0.484484,0.039 0.168241,0.028 0.33569,0.026 0.508051,0.025 0.181795,0 0.364022,0.01 0.543661,0.031 0.178693,0.023 0.35461,0.047 0.536979,0.048 0.176464,0.015 0.349263,0.046 0.525816,0.056 0.160421,0.01 0.321013,0.019 0.474808,0.055 0.172313,0.036 0.358198,0.03 0.528059,0.077 0.164029,0.036 0.335884,0.056 0.502376,0.083 0.160985,0.023 0.312879,0.068 0.476541,0.08 0.152171,0.027 0.30159,0.061 0.451952,0.092 0.12986,0.038 0.279216,0.038 0.391626,0.1077 0.124056,0.034 0.241943,0.084 0.35104,0.1383 0.385637,0.1359 0.571036,0.5084 0.947218,0.6336 0.09721,0.091 0.18838,0.1851 0.288609,0.2742 0.07941,0.085 0.137844,0.1778 0.200882,0.2696 0.0605,0.097 0.1231,0.1925 0.174916,0.292 0.05471,0.1121 0.106556,0.2251 0.146276,0.3407 0.03422,0.1239 0.06286,0.2485 0.107747,0.3708 0.02808,0.1085 0.08052,0.2123 0.100553,0.3219 0.03301,0.1184 0.07058,0.2355 0.07548,0.357 0.02426,0.1325 0.0676,0.2632 0.07338,0.3971 0.01388,0.1324 0.03952,0.2634 0.07766,0.3933 0.0248,0.1315 0.03421,0.2652 0.08826,0.393 0.04619,0.126 0.08053,0.2541 0.122446,0.3809 0.02933,0.1143 0.08318,0.2235 0.111332,0.3379 0.04198,0.1162 0.103578,0.2277 0.142217,0.3446 0.03753,0.1302 0.07045,0.2611 0.115029,0.3902 0.02816,0.1325 0.06294,0.2644 0.0499,0.3993 -5e-6,0.1319 -1.5e-5,0.2638 10e-6,0.3957 4.1e-5,0.132 9.7e-5,0.264 4.92e-4,0.3961 4.45e-4,0.1329 0.0014,0.2659 0.0014,0.3989 -7.5e-4,0.1268 0.0014,0.2547 -0.02784,0.3801 -0.03276,0.092 -0.102602,0.2007 -0.257586,0.1537 -0.319075,-0.2347 -0.623597,-0.4506 -0.905656,-0.7014 -0.119832,-0.099 -0.240428,-0.198 -0.349925,-0.3035 -0.12446,-0.1085 -0.249256,-0.2168 -0.364663,-0.3307 -0.09438,-0.084 -0.18422,-0.1711 -0.268319,-0.2611 -0.02396,-0.026 -0.106788,-0.098 -0.07617,-0.076 0.194506,0.1393 0.772648,0.5611 0.578254,0.4218 -2.232881,-1.6006 0.412433,0.2675 -0.123301,-0.085 -0.07587,-0.077 -0.122975,-0.057 -0.172897,0.027 -0.04405,0.1021 -0.06422,0.2087 -0.120478,0.3081 -0.04543,0.1027 -0.08226,0.2082 -0.118311,0.3128 -0.04474,0.1133 -0.11251,0.2205 -0.16181,0.3328 -0.05581,0.1004 -0.125003,0.1901 -0.216236,0.2757 -0.09925,0.104 -0.198634,0.2076 -0.323177,0.2969 -0.1041,0.075 -0.218523,0.1465 -0.347974,0.197 -0.114747,0.057 -0.228918,0.1113 -0.363359,0.1409 -0.1461,0.042 -0.301658,0.053 -0.451191,0.013 -0.41996,-0.1403 -0.689193,-0.4624 -0.977403,-0.721 -0.11169,-0.1019 -0.215253,-0.2083 -0.319644,-0.3142 -0.126603,-0.1215 -0.244263,-0.2467 -0.35185,-0.3779 -0.138021,-0.164 -0.288229,-0.3217 -0.440589,-0.4787 -0.138717,-0.1487 -0.28228,-0.2955 -0.400605,-0.4539 -0.113162,-0.1468 -0.191241,-0.3065 -0.321274,-0.4465 -0.09962,-0.1297 -0.19321,-0.2613 -0.278657,-0.3964 -0.04237,-0.057 -0.08743,-0.1101 -0.141623,-0.1611 -0.01359,-0.013 -0.05882,-0.048 -0.04276,-0.037 0.606441,0.4207 0.664892,0.6233 0.592184,0.3978 -0.05806,-0.02 -0.1243,0.1746 -0.136332,0.2065 -0.05104,0.1145 -0.101147,0.2293 -0.160589,0.3414 -0.06253,0.1056 -0.127791,0.21 -0.194245,0.3142 -0.06473,0.092 -0.112576,0.1911 -0.200926,0.2723 -0.09338,0.083 -0.165347,0.1779 -0.269639,0.2543 -0.09257,0.094 -0.189234,0.1878 -0.319667,0.2549 -0.113026,0.073 -0.240828,0.1301 -0.359316,0.1981 -0.131208,0.055 -0.261947,0.1143 -0.404577,0.1514 -0.470012,0.1087 -0.7960607,-0.3173 -1.0665037,-0.5173 -0.133721,-0.1083 -0.266974,-0.2167 -0.39906,-0.326 -0.12179,-0.099 -0.245089,-0.1974 -0.362243,-0.2995 -0.126649,-0.1069 -0.254415,-0.2131 -0.373522,-0.3247 -0.21934,-0.1737 -0.22512,-0.1771 0.529601,0.3819 0.10904,0.081 -0.109942,-0.07 -0.13376,-0.084 -0.01252,-0.01 -0.02264,-0.017 -0.03396,-0.025 -0.02341,-0.01 -0.04406,-0.023 -0.06959,-0.024 -0.08017,0 -0.110782,0.089 -0.130195,0.1266 -0.04738,0.1311 -0.09568,0.2625 -0.157112,0.3905 -0.05455,0.1104 -0.105754,0.2219 -0.170414,0.3295 -0.06392,0.1097 -0.127134,0.2188 -0.19921,0.3259 -0.06085,0.1009 -0.12659,0.1993 -0.201509,0.295 -0.05472,0.09 -0.119947,0.1776 -0.198302,0.2574 -0.07335,0.078 -0.169494,0.1401 -0.297485,0.1635 -0.141567,-0.01 -0.252098,-0.075 -0.379626,-0.1157 -0.130664,-0.063 -0.279442,-0.1058 -0.415173,-0.1631 -0.151111,-0.051 -0.280372,-0.1289 -0.431241,-0.1808 -0.16919,-0.077 -0.351383,-0.1395 -0.524693,-0.2113 -0.177786,-0.075 -0.359049,-0.1449 -0.529637,-0.2287 -0.184874,-0.093 -0.388438,-0.162 -0.586382,-0.2383 -0.200427,-0.086 -0.395481,-0.1785 -0.605489,-0.2517 0,0 -0.550521,-0.5118 -0.550521,-0.5118 z"
       inkscape:connector-curvature="0" />
    <path
       style="fill:#000000;fill-opacity:1;stroke:none"
       id="path2991"
       d="m 12.32492,1031.9744 c 0.205539,0 0.411176,0 0.616758,0 0.190453,-3e-4 0.380907,-3e-4 0.571362,-6e-4 0.179767,-10e-5 0.359535,-10e-5 0.539303,-10e-5 0.179328,0 0.358656,0 0.537984,0 0.179468,0 0.358936,0 0.538403,0 0.179484,0 0.358967,0 0.53845,0 0.179482,0 0.358964,0 0.538446,0 0.179482,0 0.358964,0 0.538445,0 0.179482,0 0.358963,0 0.538445,0 0.179482,0 0.358964,0 0.538446,0 0.179482,0 0.358963,0 0.538445,0 0.171742,0 0.345977,-0.013 0.514016,0.018 0.400941,0.1291 0.77174,0.3784 0.831552,0.6994 0.05663,0.1055 0.07726,0.2171 0.09012,0.3293 0.0113,0.1289 0.01093,0.2581 0.01121,0.3871 -7.8e-5,0.132 -4.87e-4,0.2641 -7.5e-4,0.3962 0.0036,0.1292 0.006,0.2556 -0.03061,0.3823 -0.03459,0.1166 -0.09166,0.2292 -0.155162,0.3389 -0.05861,0.1105 -0.11564,0.221 -0.180367,0.3296 -0.03792,0.1013 -0.133408,0.1807 -0.196546,0.2727 -0.06925,0.087 -0.160337,0.162 -0.232663,0.2473 -0.08747,0.087 -0.169608,0.1772 -0.287293,0.2439 -0.09306,0.066 -0.186715,0.13 -0.291002,0.187 -0.119672,0.065 -0.248271,0.1196 -0.374212,0.1774 -0.131809,0.062 -0.281424,0.097 -0.423444,0.1427 -0.1379,0.043 -0.279281,0.08 -0.420765,0.1165 -0.146087,0.022 -0.287025,0.059 -0.432194,0.084 -0.156481,0.036 -0.316884,0.059 -0.472034,0.097 -0.146719,0.03 -0.293682,0.056 -0.439969,0.087 -0.147689,0.018 -0.288903,0.054 -0.434311,0.079 -0.167191,0.025 -0.338252,0.028 -0.508243,0.031 -0.179378,0 -0.358783,0 -0.538172,0 -0.179639,-3e-4 -0.359277,0 -0.538917,0 -0.179492,-10e-5 -0.358986,-10e-5 -0.538479,-10e-5 -0.179479,0 -0.35896,0 -0.538439,0 -0.119665,0 -0.05981,0 -0.179482,0 0,0 -0.573197,-0.4931 -0.573197,-0.4931 l 0,0 c 0.119654,0 0.05983,0 0.179481,0 0.17948,0 0.35896,0 0.53844,0 0.179504,0 0.359007,0 0.538509,0 0.179672,0 0.359343,10e-5 0.539014,0 0.178873,2e-4 0.357752,0 0.536621,0 0.164877,0 0.33067,0 0.493676,-0.024 0.145225,-0.022 0.282848,-0.063 0.430356,-0.077 0.145855,-0.029 0.289046,-0.061 0.436908,-0.084 0.158093,-0.04 0.320709,-0.063 0.47895,-0.1024 0.143818,-0.022 0.279799,-0.062 0.424927,-0.08 0.140201,-0.033 0.277283,-0.073 0.414761,-0.1115 0.136911,-0.047 0.28426,-0.078 0.413706,-0.1371 0.123205,-0.058 0.253317,-0.1082 0.369061,-0.1749 0.105348,-0.056 0.196879,-0.121 0.290736,-0.1863 0.111508,-0.059 0.183513,-0.1468 0.265504,-0.2264 0.07226,-0.083 0.158702,-0.159 0.226855,-0.2442 0.06613,-0.089 0.153149,-0.1699 0.193605,-0.2687 0.06541,-0.1081 0.11941,-0.2193 0.17954,-0.329 0.06152,-0.1059 0.112668,-0.2157 0.142792,-0.3289 0.03055,-0.1231 0.01986,-0.2472 0.02102,-0.3718 2.38e-4,-0.132 7.5e-4,-0.2639 3.74e-4,-0.3959 -9.5e-4,-0.1277 -0.0012,-0.2556 -0.01779,-0.3828 -0.01833,-0.111 -0.05462,-0.2181 -0.09553,-0.3256 -0.01326,-0.04 -0.01745,-0.063 -0.04349,-0.099 -0.0099,-0.014 -0.051,-0.049 -0.03562,-0.039 1.155667,0.8056 0.721206,0.4733 0.480392,0.3623 -0.147165,-0.063 -0.326726,-0.027 -0.490301,-0.035 -0.179481,0 -0.358963,0 -0.538445,0 -0.179481,0 -0.358962,0 -0.538444,0 -0.179482,0 -0.358964,0 -0.538446,0 -0.179481,0 -0.358963,0 -0.538445,0 -0.179482,0 -0.358964,0 -0.538446,0 -0.179483,0 -0.358967,0 -0.53845,0 -0.179466,0 -0.358933,0 -0.538399,0 -0.179325,0 -0.358649,0 -0.537974,0 -0.179826,0 -0.359651,0 -0.539477,0 -0.190922,-10e-5 -0.381843,-3e-4 -0.572765,0 -0.203771,-3e-4 -0.4076,0 -0.611327,0 0,0 -0.577065,-0.4965 -0.577065,-0.4965 z"
       inkscape:connector-curvature="0" />
    <path
       style="fill:#cccccc;fill-opacity:1;stroke:none"
       d="m 13.100355,1032.5068 c -0.189593,1.1823 -0.120705,2.3777 -0.297267,3.5607 1.18918,0.117 2.505449,0.025 3.666529,-0.2801 1.378334,-0.2565 2.584519,-1.1355 2.60131,-2.2215 -0.01419,-0.3585 0.107688,-0.7587 -0.0028,-1.0921 -1.972429,0 -3.944858,0 -5.917288,0 l -0.05048,0.033 z"
       id="path2993"
       inkscape:connector-curvature="0" />
    <path
       style="fill:#cccccc;fill-opacity:1;stroke:none"
       d="m 10.164146,1019.6794 c -1.9663117,-0.032 -3.8213507,0.6321 -5.3917427,1.447 -1.761818,1.0417 -3.313503,2.4198 -3.84034798,4.0673 -0.08581,0.8696 -0.08412,1.76 0.09255,2.6231 0.142522,0.165 0.135063,0.5944 0.46553,0.5873 0.664445,-0.6382 1.106223,-1.4316 1.817253,-2.04 0.152834,-0.075 0.170211,-0.2932 0.277636,-0.3318 0.723924,0.075 1.168288,0.558 1.831274,0.7542 0.527525,0.1811 1.034835,0.5082 1.606922,0.5646 0.559248,-0.5157 0.73304,-1.2156 1.175044,-1.7804 0.301382,-0.1454 0.524158,0.2508 0.748776,0.3462 0.383148,0.2693 0.716072,0.6109 1.1301737,0.8366 1.126925,-0.2982 1.62806,-1.1491 2.027582,-1.9019 0.195116,-0.2299 0.496862,0.1325 0.633795,0.2328 0.785564,0.8646 1.42545,1.8153 2.305218,2.6294 0.711989,0.03 1.229872,-0.5093 1.491942,-0.9438 0.249209,-0.2905 0.18634,-0.7348 0.538446,-0.9561 0.571698,0.1347 0.876845,0.6129 1.305653,0.906 0.444578,0.5604 0.521054,0.1114 0.448861,-0.3084 0.07311,-0.8531 -0.08508,-1.6977 -0.411724,-2.5153 -0.36314,-1.0653 -0.321479,-2.2344 -1.053938,-3.2132 -0.719707,-0.5367 -1.833959,-0.5578 -2.781966,-0.7336 -1.456561,-0.1849 -2.938414,-0.2816 -4.416933,-0.27 z"
       id="path2995"
       inkscape:connector-curvature="0" />
    <path
       style="fill:#a0892c;fill-opacity:1;stroke:none"
       d="m 8.7226843,1026.0261 c -0.268778,0.6286 -0.546399,1.3203 -1.144196,1.8072 -0.826804,-0.091 -1.510071,-0.5375 -2.257743,-0.8008 -0.26725,-0.1467 -0.775873,-0.3742 -0.625903,0.063 -0.02183,5.003 -0.08365,10.0074 -0.318981,15.0074 -0.284297,2.1959 -0.76305,4.3893 -0.589896,6.6022 0.02178,0.8607 0.04567,1.7213 0.06828,2.582 0.732562,-0.046 1.568903,-0.1404 2.349922,-0.1458 2.183056,-0.077 4.3691967,-0.064 6.5540537,-0.064 0.262773,-0.6934 0.08392,-1.4767 0.14022,-2.2049 -0.027,-2.8265 0.05696,-5.6657 -0.501236,-8.471 -0.472637,-2.5997 -0.226485,-5.2291 -0.0344,-7.8367 0.139203,-1.858 0.273793,-3.7215 0.232766,-5.5822 -0.07122,-0.2698 -0.09106,-0.6575 -0.342137,-0.8222 -0.411662,0.4441 -0.942679,1.0077 -1.749947,1.0324 -0.6907527,-0.2535 -1.1218057,-0.804 -1.6966627,-1.1828 l -0.08413,0.016 z"
       id="path2997"
       inkscape:connector-curvature="0" />
    <path
       style="fill:#000000;fill-opacity:1;stroke:none"
       id="path2999"
       d="m 2.4364663,1028.3064 c -0.0048,0.1314 -0.0035,0.263 -0.0031,0.3944 4.26e-4,0.1232 6.7e-4,0.2464 8.05e-4,0.3696 9.8e-5,0.116 9.7e-5,0.2321 9.9e-5,0.3481 -1e-6,0.1157 -5e-6,0.2314 -6e-6,0.3471 -2e-6,0.1158 -2e-6,0.2316 -2e-6,0.3474 0,0.1158 0,0.2316 0,0.3474 0,0.1158 0,0.2317 0,0.3475 0,0.1158 0,0.2316 0,0.3474 -0.03015,0.1161 -0.05924,0.232 -0.0745,0.3494 -0.01241,0.115 -0.01303,0.2303 -0.01376,0.3456 -2.91e-4,0.1157 1.05e-4,0.2315 2.92e-4,0.3472 1.75e-4,0.1158 2.1e-4,0.2317 2.34e-4,0.3475 0.0063,0.1185 0.0016,0.2342 -0.02967,0.3509 -0.0338,0.1138 -0.04648,0.2293 -0.05373,0.345 -0.0054,0.1153 -0.005,0.2309 -0.005,0.3463 1.92e-4,0.1158 4.11e-4,0.2316 5.25e-4,0.3474 9.7e-5,0.1158 1.04e-4,0.2316 1.11e-4,0.3475 3e-6,0.1158 0,0.2316 -2e-6,0.3474 -10e-7,0.1158 -10e-7,0.2316 -10e-7,0.3474 -0.0048,0.1168 0.0127,0.2343 -0.01389,0.35 -0.03538,0.1143 -0.05515,0.23 -0.06591,0.3463 -0.0084,0.1153 -0.0083,0.2307 -0.0086,0.346 0.01623,0.1082 -0.0297,0.2113 -0.05654,0.3167 -0.005,0.1092 -0.09415,0.169 -0.23069,0.2187 -0.0061,0 -0.02423,0.011 -0.01817,0.01 0.267395,-0.1252 0.01973,-0.01 -0.553526,-0.4215 -0.0087,-0.01 0.02501,0 0.03783,0.01 0.02989,0 0.09705,0 0.124662,0 0.168931,6e-4 0.337866,-3e-4 0.506797,-7e-4 0.142403,0 0.277288,-0.013 0.396257,-0.065 0.100057,-0.055 0.132446,-0.13 0.184861,-0.2039 0.06348,-0.086 0.07726,-0.1816 0.08729,-0.276 0.01263,-0.1083 0.01308,-0.2133 -0.02381,-0.319 -0.04467,-0.1032 -0.09487,-0.2037 -0.120433,-0.3104 -0.05934,-0.095 -0.08595,-0.1956 -0.100962,-0.2975 -0.02123,-0.1094 0.0062,-0.2217 -0.0276,-0.3297 -0.03244,-0.1006 -0.05583,-0.2009 -0.0942,-0.3005 -0.0217,-0.1057 -0.0872,-0.2025 -0.120232,-0.3064 -0.03194,-0.096 -0.08066,-0.1869 -0.101344,-0.285 -0.05811,-0.091 -0.08123,-0.1869 -0.09528,-0.2841 -0.01251,-0.1127 -0.01224,-0.2258 -0.01262,-0.3388 1.5e-5,-0.1159 4.57e-4,-0.2319 6.75e-4,-0.3478 0.03479,-0.1011 0.04885,-0.2053 0.08878,-0.3054 0.03568,-0.1132 0.08364,-0.2241 0.124095,-0.3366 0.0376,-0.1127 0.04478,-0.2282 0.04946,-0.3431 0.0031,-0.1156 0.0022,-0.2312 0.0018,-0.3468 -4e-4,-0.1159 -5.65e-4,-0.2317 -6.6e-4,-0.3475 -7.4e-5,-0.1158 -7e-5,-0.2316 -7.1e-5,-0.3474 2e-6,-0.1158 5e-6,-0.2317 6e-6,-0.3475 0.0166,-0.1091 -0.01336,-0.2115 -0.0461,-0.3173 -0.03011,-0.1058 -0.03563,-0.2136 -0.03982,-0.3209 -0.0031,-0.1152 -0.0025,-0.2305 -0.0024,-0.3458 2.54e-4,-0.1159 4.01e-4,-0.2318 4.82e-4,-0.3477 6.5e-5,-0.1158 6.5e-5,-0.2317 6.8e-5,-0.3475 0,-0.1158 -2e-6,-0.2316 -3e-6,-0.3474 -1e-6,-0.019 -1e-6,-0.039 -1e-6,-0.058 0,0 0.656114,0.3698 0.656114,0.3698 l 0,0 c 0,0.019 0,0.039 0,0.058 2e-6,0.1159 4e-6,0.2317 1e-6,0.3475 -6e-6,0.1158 -1.2e-5,0.2316 -1.02e-4,0.3475 -1.06e-4,0.1159 -3.07e-4,0.2318 -4.88e-4,0.3477 -3.8e-5,0.1148 -5.1e-4,0.2297 0.0046,0.3445 0.0063,0.1054 0.0162,0.211 0.05039,0.3144 0.03265,0.1077 0.04078,0.2152 0.03336,0.3251 -2e-6,0.1158 -5e-6,0.2316 -4e-6,0.3474 3e-6,0.1158 4e-6,0.2316 1.04e-4,0.3474 1.24e-4,0.1158 3.48e-4,0.2316 7.2e-4,0.3474 2.54e-4,0.1161 0.0011,0.2323 -0.0038,0.3484 -0.007,0.1181 -0.01865,0.2366 -0.06146,0.3518 -0.04262,0.1121 -0.08507,0.2239 -0.122653,0.3368 -0.03056,0.098 -0.05602,0.1964 -0.07645,0.2951 -2.52e-4,0.1158 -7.9e-4,0.2317 -2.95e-4,0.3476 0.0011,0.1116 0.0016,0.2234 0.01984,0.3345 0.02,0.096 0.0605,0.1884 0.09829,0.2822 0.02773,0.095 0.07916,0.1863 0.105049,0.282 0.04045,0.1018 0.09327,0.2012 0.119941,0.3053 0.03738,0.1008 0.05959,0.2036 0.08936,0.3056 0.0137,0.1099 0.0049,0.2208 0.02598,0.3305 0.021,0.1006 0.06342,0.1967 0.103701,0.2945 0.03224,0.1052 0.09038,0.2052 0.12271,0.3103 0.02772,0.1095 0.0178,0.2202 0.0075,0.3306 -0.01404,0.1004 -0.03649,0.2003 -0.105299,0.2917 -0.0556,0.084 -0.108231,0.1645 -0.217395,0.2262 -0.129061,0.06 -0.278098,0.091 -0.437509,0.086 -0.168375,4e-4 -0.336749,0 -0.505109,0 -0.01835,10e-5 -0.158924,0.011 -0.172862,0 -0.220357,-0.1325 -0.830305,-0.3506 -0.574937,-0.4521 0.125043,-0.038 0.170989,-0.085 0.177663,-0.1787 0.02811,-0.1024 0.06283,-0.2033 0.04837,-0.3084 6.3e-4,-0.1163 0.0012,-0.2327 0.01233,-0.3489 0.01352,-0.117 0.03825,-0.2328 0.06882,-0.3484 0.01469,-0.1147 0.0038,-0.23 0.0071,-0.3449 0,-0.1158 0,-0.2316 2e-6,-0.3474 1e-6,-0.1159 5e-6,-0.2317 -2e-6,-0.3475 -1.2e-5,-0.1158 -2.7e-5,-0.2316 -1.49e-4,-0.3474 -1.37e-4,-0.1158 -4.1e-4,-0.2316 -4.61e-4,-0.3474 1.93e-4,-0.1162 8.2e-5,-0.2324 0.0076,-0.3484 0.0096,-0.1174 0.02672,-0.2344 0.06043,-0.3499 0.02642,-0.1142 0.02148,-0.2287 0.02026,-0.344 -3.3e-5,-0.1158 -8.7e-5,-0.2316 -2.86e-4,-0.3474 -1.97e-4,-0.1158 -6.45e-4,-0.2317 1.04e-4,-0.3475 0.0014,-0.1165 0.0031,-0.2332 0.01877,-0.3493 0.01793,-0.1158 0.0522,-0.2298 0.06917,-0.3455 0,-0.1158 0,-0.2316 0,-0.3474 0,-0.1158 0,-0.2316 0,-0.3474 0,-0.1158 0,-0.2316 0,-0.3474 0,-0.1158 -1e-6,-0.2316 -2e-6,-0.3474 -2e-6,-0.1157 -6e-6,-0.2314 -6e-6,-0.3471 2e-6,-0.116 0,-0.232 9.9e-5,-0.348 1.31e-4,-0.1229 3.77e-4,-0.2458 8.05e-4,-0.3687 3.56e-4,-0.1326 0.0017,-0.2653 -0.0031,-0.3979 0,0 0.66054,0.3723 0.66054,0.3723 z"
       inkscape:connector-curvature="0" />
    <path
       style="fill:#000000;fill-opacity:1;stroke:none"
       id="path3001"
       d="m 4.0257713,1035.0534 c -0.05096,-0.1296 -0.143393,-0.2056 -0.269776,-0.3035 0.182437,0.1218 0.366755,0.2425 0.547311,0.3656 0.01643,0.011 -0.03524,-0.021 -0.05464,-0.03 -0.0839,-0.038 -0.180567,-0.05 -0.279249,-0.059 -0.168201,-0.013 -0.337807,-0.01 -0.50632,-0.013 -0.149817,-0.021 -0.301899,-0.032 -0.452648,-0.048 -0.363426,-0.083 -0.774269,-0.4406 -0.949122,-0.5569 1.356855,0.9011 0.04912,0.034 -0.09449,-0.066 -0.18112,-0.1261 0.738007,0.4957 0.556263,0.37 -0.212012,-0.1466 -0.435685,-0.2858 -0.647083,-0.4329 -0.02994,-0.021 -0.04453,-0.05 -0.07206,-0.072 -0.08394,-0.083 -0.09675,-0.1821 -0.10787,-0.2786 -0.01682,-0.1116 -0.0089,-0.2183 0.05193,-0.3234 0.05171,-0.1019 0.145084,-0.1862 0.268898,-0.2546 0.10443,-0.065 0.22061,-0.1186 0.337812,-0.1725 0.105234,-0.049 0.212678,-0.096 0.32289,-0.1409 0.128136,-0.04 0.267375,-0.064 0.403149,-0.091 0.146526,-0.02 0.292237,-0.036 0.437369,-0.06 0.159287,-0.025 0.323308,-0.031 0.486435,-0.035 0.02887,-4e-4 0.05775,-8e-4 0.08662,-10e-4 0,0 0.561741,0.4325 0.561741,0.4325 l 0,0 c -0.02856,3e-4 -0.05713,6e-4 -0.08569,9e-4 -0.157747,0 -0.316537,0.01 -0.471385,0.028 -0.144571,0.023 -0.286571,0.047 -0.434367,0.059 -0.130087,0.024 -0.259482,0.051 -0.385833,0.082 -0.10959,0.043 -0.214736,0.09 -0.318996,0.1381 -0.114668,0.054 -0.232275,0.1037 -0.334186,0.1686 -0.113146,0.061 -0.191839,0.1399 -0.236153,0.2321 -0.0465,0.1 -0.0461,0.2011 -0.02763,0.3046 0.01743,0.093 0.04563,0.1819 0.139143,0.2554 0.02413,0.023 0.106615,0.088 0.07605,0.068 -0.188848,-0.1215 -0.742484,-0.4946 -0.560904,-0.3684 0.21166,0.1472 0.439858,0.2838 0.651178,0.4312 0.09808,0.068 -1.77214598,-1.1686 0.09493,0.065 -1.056162,-0.6909 -0.579438,-0.3477 -0.295622,-0.2236 0.144733,0.029 0.301418,0.022 0.446794,0.052 0.165946,0.021 0.337645,0 0.505698,0.014 0.501315,0.029 0.641654,0.2021 1.03452,0.5005 0.118498,0.095 0.19483,0.2039 0.256276,0.3195 0,0 -0.681,-0.3552 -0.681,-0.3552 z"
       inkscape:connector-curvature="0" />
    <path
       style="fill:#b3b3b3;fill-opacity:1;stroke:none"
       d="m 3.8245593,1033.3419 c -0.424279,0.063 -0.858062,0.1996 -1.137791,0.4198 0.217573,0.2775 0.02721,0.8444 0.676294,0.8311 0.735027,0.2499 0.527746,-0.3355 0.586144,-0.6356 -0.05343,-0.1865 0.162912,-0.4888 -0.06159,-0.6171 -0.02104,4e-4 -0.04227,0 -0.06306,0 z"
       id="path3003"
       inkscape:connector-curvature="0" />
    <path
       style="fill:#b3b3b3;fill-opacity:1;stroke:none"
       d="m 2.3001943,1034.6773 c -0.0683,0.4827 -0.105053,0.991 -0.120634,1.4748 0.653844,-0.2434 0.437649,-0.869 0.294392,-1.2759 -0.04551,-0.052 -0.02471,-0.2359 -0.173758,-0.1989 z"
       id="path3005"
       inkscape:connector-curvature="0" />
  </g>
</svg>
