<?xml version="1.0" encoding="UTF-8" standalone="no"?>
<!-- Created with Inkscape (http://www.inkscape.org/) -->

<svg
   xmlns:dc="http://purl.org/dc/elements/1.1/"
   xmlns:cc="http://creativecommons.org/ns#"
   xmlns:rdf="http://www.w3.org/1999/02/22-rdf-syntax-ns#"
   xmlns:svg="http://www.w3.org/2000/svg"
   xmlns="http://www.w3.org/2000/svg"
   xmlns:sodipodi="http://sodipodi.sourceforge.net/DTD/sodipodi-0.dtd"
   xmlns:inkscape="http://www.inkscape.org/namespaces/inkscape"
   sodipodi:docname="cave1BL.svg"
   inkscape:version="0.48.5 r10040"
   version="1.1"
   id="svg2"
   height="1024"
   width="1024"
   inkscape:export-filename="C:\Users\narfman0\Desktop\cave1BL.png"
   inkscape:export-xdpi="90"
   inkscape:export-ydpi="90">
  <sodipodi:namedview
     id="base"
     pagecolor="#ffffff"
     bordercolor="#666666"
     borderopacity="1.0"
     inkscape:pageopacity="0.0"
     inkscape:pageshadow="2"
     inkscape:zoom="0.51"
     inkscape:cx="475.37716"
     inkscape:cy="490.05911"
     inkscape:document-units="px"
     inkscape:current-layer="layer2"
     showgrid="false"
     inkscape:window-width="1318"
     inkscape:window-height="830"
     inkscape:window-x="132"
     inkscape:window-y="132"
     inkscape:window-maximized="0" />
  <defs
     id="defs4" />
  <metadata
     id="metadata7">
    <rdf:RDF>
      <cc:Work
         rdf:about="">
        <dc:format>image/svg+xml</dc:format>
        <dc:type
           rdf:resource="http://purl.org/dc/dcmitype/StillImage" />
        <dc:title />
      </cc:Work>
    </rdf:RDF>
  </metadata>
  <g
     inkscape:groupmode="layer"
     id="layer2"
     inkscape:label="base">
    <path
       style="fill:#000000;fill-opacity:1;stroke:none"
       d="M -5.7230373,7.7518358 C 21.152023,17.523576 46.953023,30.070736 73.259853,41.268996 c 2.84752,19.55577 51.344697,25.64222 51.409307,45.343144 41.4385,40.81548 57.55792,48.54125 91.2929,67.37289 55.17273,4.8205 61.54106,7.76558 153.80514,43.53396 0.69318,31.78602 31.9467,23.19276 38.29623,78.00945 17.61212,28.11141 -2.01498,50.33065 15.62534,78.42437 28.71731,10.37583 47.63073,30.55555 76.34804,40.93138 6.44378,30.72547 67.82043,47.71892 74.32598,78.43137 84.74315,23.47335 124.92313,73.82345 209.43627,97.30392 146.41596,94.90047 146.11443,171.647 217.21814,259.06863 9.2525,10.53468 17.1517,22.73668 15.5923,37.4209 3.5094,53.00331 8.0999,106.29153 9.6528,159.20909 -24.9052,4.6955 -51.178,1.6382 -76.59314,2.8799 -319.66788,1.0468 -639.33824,1.0144 -959.0073973,1.4706 1.1979,-340.98277 0.9259,-682.04806 3.4314,-1022.9780342 l 0.1838,0.0613 z"
       id="path3092"
       inkscape:connector-curvature="0"
       sodipodi:nodetypes="cccccccccccccccccc" />
  </g>
  <g
     transform="translate(0,-28.362183)"
     id="layer1"
     inkscape:groupmode="layer"
     inkscape:label="Layer 1">
    <path
       inkscape:connector-curvature="0"
       id="path3079"
       d="m 516.70091,759.81993 c 27.30961,1.73392 54.58758,5.35354 81.35902,10.57066 29.0773,2.15742 59.03992,3.71961 85.75824,16.66838 7.99801,3.32376 17.82623,3.60105 22.3667,12.31511 10.44803,12.63351 11.85882,32.53455 28.62018,39.43906 8.21803,2.93892 16.30043,9.48547 14.96229,19.18242 -0.10584,14.41839 -4.39966,28.12629 -10.66543,40.97366 -10.80139,23.3353 -21.84465,46.66082 -31.5359,70.39948 -10.66622,1.3378 -21.29363,-4.2579 -31.71814,-6.36304 -18.96918,-6.06162 -38.43004,-10.62788 -58.43924,-10.82441 -16.08418,-1.6992 -30.33656,-10.51049 -46.2689,-13.22993 -19.91624,-6.50468 -40.89326,-5.10824 -61.45011,-6.6035 -26.71585,-6.34877 -54.45903,-3.03918 -81.41967,-7.21378 -7.01426,-0.36882 -9.27696,-7.31957 -7.9427,-13.31204 1.44439,-36.72956 9.02218,-72.87561 11.51063,-109.53219 2.0965,-8.01992 -0.69506,-20.77026 9.51448,-23.82457 22.74655,-8.22277 46.10547,-16.08684 70.24603,-18.72204 1.70157,0.002 3.40291,-0.0274 5.10252,0.0767 z"
       style="fill:#574438;fill-opacity:1;stroke:#000000;stroke-width:2.45534992;stroke-miterlimit:4;stroke-opacity:1;stroke-dasharray:none" />
    <path
       inkscape:connector-curvature="0"
       id="path3081"
       d="m 703.93911,501.73197 c 16.80802,1.31708 31.79376,10.99609 46.56291,18.75317 18.47017,11.16343 37.47391,21.34614 56.82928,30.6552 4.77915,4.52633 4.60448,12.49734 7.04117,18.52378 1.30213,9.88818 -5.92951,18.39251 -7.14081,28.02942 -3.54421,16.54375 -9.1156,35.0445 -0.65353,51.02857 3.67762,9.9096 9.44326,19.34011 8.01942,30.40821 -0.0316,13.55116 1.41521,27.75538 -1.68646,40.88288 -7.16786,0.19494 -9.68206,9.68336 -14.61373,14.03212 -7.90393,10.73593 -18.20382,19.2125 -30.39736,23.92208 -17.67459,9.1987 -37.5729,11.52919 -57.05223,10.29007 -10.34309,-0.93198 -21.38848,1.21461 -31.28704,-2.45709 -9.38296,-6.31572 -20.85939,-8.08325 -31.15383,-12.43044 -29.53486,-10.15207 -61.84466,-4.84942 -90.89874,-17.09856 -11.09423,-2.45702 -22.84146,0.45228 -34.21479,-0.1021 -15.18784,-0.16649 -29.95962,-5.34835 -45.26925,-4.13211 -8.54057,-0.78583 -20.61787,1.02689 -25.6738,-7.95013 -4.43882,-21.47677 2.13869,-45.83074 -10.47362,-65.0251 -3.76203,-5.76648 -7.25296,-11.60207 -6.32937,-18.90662 -0.71715,-23.28948 -3.73788,-46.42646 -9.70102,-68.88951 -3.09704,-9.52888 1.21577,-19.39482 9.03394,-24.7216 16.13759,-11.24902 34.67389,-18.53979 53.17663,-24.29098 30.20305,-6.45228 61.20063,-7.08021 91.79374,-10.43024 27.93176,-1.85462 56.08986,-1.79787 83.62702,-7.68556 13.42441,-1.42509 26.97164,-2.23102 40.46147,-2.40546 z"
       style="fill:#18170e;fill-opacity:1;stroke:#000000;stroke-width:2.17642331;stroke-miterlimit:4;stroke-opacity:1;stroke-dasharray:none" />
    <path
       inkscape:connector-curvature="0"
       id="path3083"
       d="m 221.96053,559.78563 c 22.46221,2.89155 43.04586,13.51755 65.45043,16.84217 18.07518,3.96542 34.31553,16.08866 53.48059,14.04153 18.57334,-2.62059 33.31145,10.54031 48.49246,18.88588 9.96199,7.20965 25.36921,10.38317 29.50326,23.31545 4.76279,22.58609 -3.82769,45.7981 2.839,68.13596 5.28739,21.97149 14.26626,44.69882 10.01323,67.56049 -4.57719,9.40278 -17.53642,7.99591 -26.20746,10.49774 -17.76436,3.8341 -36.57407,4.22713 -53.60731,-2.89952 -22.67654,-9.00448 -47.36701,-1.60417 -70.15341,3.02884 -30.96162,7.41699 -64.8695,10.56867 -95.10644,-1.34277 -14.29743,-6.2517 -12.36182,-24.58659 -13.65304,-37.47997 -0.54533,-27.54565 -1.6773,-55.22212 -0.0816,-82.71708 2.90834,-4.72428 9.35739,-6.94129 12.39185,-12.0082 10.04976,-13.5935 8.17246,-32.28577 17.15199,-46.60323 7.29275,-12.20183 11.17803,-26.38827 16.76253,-39.06546 0.86738,-0.29842 1.82307,-0.21364 2.7239,-0.19183 z"
       style="fill:#392c24;fill-opacity:1;stroke:#000000;stroke-width:2.45534992;stroke-miterlimit:4;stroke-opacity:1;stroke-dasharray:none" />
    <path
       inkscape:connector-curvature="0"
       id="path3085"
       d="m 304.02293,797.53257 c 20.99462,1.20591 42.06262,4.77441 62.18941,10.85725 12.92947,10.4498 22.93886,24.17081 34.95146,35.68394 11.3388,11.16465 10.876,27.91657 12.16057,42.61871 0.89431,27.44732 -12.83488,54.46113 -33.64597,71.89571 -13.14421,8.91712 -29.8625,8.51982 -44.81013,11.58622 -32.76682,0.9933 -65.00123,-9.33871 -97.78337,-4.8969 -12.42205,2.2588 -26.45627,0.9412 -35.02161,-9.48359 -7.61958,-6.74614 -14.35726,-15.54577 -14.01728,-26.17118 -1.39546,-7.85973 -9.34318,-10.79882 -14.88556,-14.80883 0.55319,-16.58413 6.82713,-32.76548 7.32769,-49.52902 1.17638,-15.65301 2.63196,-31.55263 5.52453,-46.88184 10.12387,-17.76095 33.28764,-18.95384 51.48371,-19.43272 22.16745,-0.66129 44.34642,-1.56403 66.52655,-1.43775 z"
       style="fill:#18170e;fill-opacity:1;stroke:#000000;stroke-width:2.45534992;stroke-miterlimit:4;stroke-opacity:1;stroke-dasharray:none" />
    <path
       inkscape:connector-curvature="0"
       id="path3087"
       d="m 150.90884,762.54383 c 12.12655,19.25186 23.79242,42.47009 17.26418,65.71898 -1.03763,15.80383 -3.36991,31.49248 -9.303,46.29226 -4.4696,11.76108 -7.30192,25.16416 -15.9027,34.65756 -16.46402,6.17474 -34.69817,3.49755 -51.945997,4.1434 -11.77897,-0.77044 -28.950786,0.47053 -33.607596,-13.35096 -14.11965,-29.32054 -31.55538,-60.58786 -25.89629,-94.37752 3.0589,-19.75006 17.45928,-34.5539 29.77114,-49.22209 26.822446,-0.76895 53.953983,1.46104 80.564103,-2.4074 5.06005,-2.65883 6.10113,5.9499 9.05616,8.54577 z"
       style="fill:#18170e;fill-opacity:1;stroke:#000000;stroke-width:2.45534992;stroke-miterlimit:4;stroke-opacity:1;stroke-dasharray:none" />
    <path
       inkscape:connector-curvature="0"
       id="path3089"
       d="m 65.892357,602.44734 c 12.4154,-0.4505 19.073646,12.17237 18.713296,23.12939 1.80298,10.76951 -0.49248,22.80224 4.19051,32.76819 11.393387,4.59217 25.201197,-2.05713 35.532457,6.25684 10.30592,5.11095 20.99228,10.8099 31.75948,14.07652 1.76658,21.96523 1.37233,44.30721 2.41698,66.40955 -18.66445,0.58744 -36.4894,7.76965 -55.3221,6.10001 -11.378817,-0.5308 -23.676507,0.67015 -34.528353,-1.57296 -0.74495,-2.91411 6.75732,-7.97372 0.57547,-7.78806 -3.59736,-1.20478 -12.96645,0.87044 -10.4736,-5.79309 3.22713,-18.69692 12.57337,-36.76214 8.93901,-56.2045 -3.05734,-17.69361 -22.8935,-24.58501 -31.03717,-39.09378 0.4175,-12.93435 5.83243,-26.66044 15.53777,-35.41075 4.10925,-2.38959 9.00145,-3.13666 13.69625,-2.87736 z"
       style="fill:#574438;fill-opacity:1;stroke:#000000;stroke-width:2.45534992;stroke-miterlimit:4;stroke-opacity:1;stroke-dasharray:none" />
    <path
       inkscape:connector-curvature="0"
       id="path3091"
       d="m 170.7051,484.01507 c 6.687,3.42064 14.74558,0.77775 21.33086,2.80063 3.10427,10.78249 11.97852,19.56225 12.75828,31.33476 1.45114,10.0283 4.76397,20.55275 3.27822,30.5861 -6.74899,19.21801 -14.23683,38.14798 -22.90381,56.58814 -5.0473,10.64936 -4.74129,23.40504 -10.78052,33.45415 -4.39612,2.46079 -12.37571,-1.41365 -13.3126,5.94655 -1.28254,4.62329 -2.08193,10.03728 -8.13335,10.51197 -14.23965,5.34567 -26.24591,-7.71125 -37.65529,-14.07721 -8.2744,-4.91774 -17.066677,-11.98404 -16.093857,-22.71468 -0.65643,-26.09659 9.695207,-50.86444 16.228327,-75.7322 3.13064,-17.10307 16.0098,-30.25442 30.8837,-38.21138 6.7838,-4.63606 12.76651,-11.00412 14.11826,-19.25916 2.6489,-5.94608 5.58488,-2.45471 10.28178,-1.22767 z"
       style="fill:#18170e;fill-opacity:1;stroke:#000000;stroke-width:2.45534992;stroke-miterlimit:4;stroke-opacity:1;stroke-dasharray:none" />
    <path
       inkscape:connector-curvature="0"
       id="path3095"
       d="m 284.99694,225.59058 c 31.20199,1.45292 64.48247,-0.30479 92.42091,16.15159 6.31107,3.26416 12.43424,8.63483 19.60443,8.517 -4.71147,22.379 -28.03816,38.38609 -26.1932,62.64975 -1.14757,20.14624 6.24562,39.24397 8.23846,59.0819 0.80556,6.08973 4.27602,11.27824 8.78555,15.30757 -5.68745,-1.20933 -12.15417,-2.51921 -16.07487,2.87736 -6.1854,4.97297 -16.06486,4.29347 -20.90884,10.70379 -2.68468,25.79322 3.77602,52.93735 -6.94404,77.53535 -5.92116,13.98676 -10.36906,31.01694 -23.93966,39.55416 -15.45228,7.22219 -33.10862,17.92863 -50.60323,11.81637 -16.91098,-11.82136 -29.79081,-29.29438 -49.39941,-37.30255 -13.03112,-7.41111 -30.5555,-12.66428 -35.15671,-28.68498 -2.15982,-17.43689 0.35618,-35.29757 1.91825,-52.75166 4.28189,-18.63974 0.59942,-38.48459 6.06164,-56.8567 1.50312,-4.21959 3.88174,-8.58368 7.0975,-11.20253 1.09321,-12.62365 9.34062,-23.67598 13.38488,-35.60121 8.55892,-20.45675 14.05128,-42.65065 28.62462,-60.00398 5.64851,-7.42552 9.50313,-17.85172 17.53233,-22.45015 8.51713,0.21964 17.03426,0.43928 25.55139,0.65892 z"
       style="fill:#18170e;fill-opacity:1;stroke:#000000;stroke-width:2.45534992;stroke-miterlimit:4;stroke-opacity:1;stroke-dasharray:none" />
    <path
       inkscape:connector-curvature="0"
       id="path3149"
       d="m 462.08867,340.1007 c 6.73986,5.95318 14.02206,7.79857 20.58664,15.19247 3.88948,3.22319 7.47293,8.2684 10.89503,13.4277 0.97427,-0.5187 1.99629,-0.57146 1.21948,2.76227 -4.8219,30.16459 -2.89237,63.13447 -2.93744,94.64434 0.11145,14.44715 0.499,29.53252 0.73918,43.62255 -7.4251,0.98333 -14.89509,-4.01008 -22.38376,-3.83648 -10.46248,-1.36691 -20.56503,6.24092 -30.77566,10.01322 -11.90289,2.30161 -23.1666,-9.4378 -34.94555,-11.11906 -1.76521,-1.20178 -5.40581,1.98834 -4.86385,-5.56965 -0.52024,-16.87214 0.0748,-34.1154 -0.83254,-50.77572 -2.67773,-20.72048 -6.62659,-40.81189 -8.05678,-62.28547 0.57401,-9.11021 5.63768,-9.48506 8.42399,-13.23587 8.64913,-7.9814 15.99437,-21.67575 23.65138,-33.7227 4.66926,-4.19204 9.95935,-1.58224 14.87434,-2.55087 7.16556,0.21416 14.44514,-0.69504 21.53845,0.43414 0.9557,0.99971 1.9114,1.99942 2.86709,2.99913 z"
       style="fill:#574438;fill-opacity:1;stroke:#000000;stroke-width:1.58791077;stroke-miterlimit:4;stroke-opacity:1;stroke-dasharray:none" />
    <path
       inkscape:connector-curvature="0"
       id="path3157"
       d="M 88.394593,84.216381 C 68.200497,82.987874 54.004697,96.653867 35.182577,99.804227 c -7.05233,1.373583 -15.65773,3.855233 -15.38423,10.587963 -6.3994,18.19085 -17.6193005,35.90469 -15.8062005,55.23392 -1.0522,11.21565 2.3991,22.43507 10.7421005,31.75549 7.53,10.90331 17.69273,20.9753 23.36402,32.50762 -1.93139,1.94518 5.2803,2.83825 6.5294,4.09225 9.12283,2.97313 18.19263,8.50239 28.38263,8.05451 7.601596,-8.10044 5.524496,-19.2411 6.982396,-28.73458 2.2478,-31.71134 3.1213,-63.51106 5.0642,-95.20352 2.5398,-5.44293 12.7022,-3.87034 18.662497,-5.24634 10.3816,-1.49545 21.92653,-1.58884 31.51873,-4.60636 -5.0225,-5.5185 -14.90243,-7.87225 -20.94723,-12.999663 -5.7005,-3.204704 -9.714,-8.698184 -15.614497,-11.081687 -3.4272,0.01756 -6.8545,0.03503 -10.2818,0.05259 z"
       style="fill:#392c24;fill-opacity:1;stroke:#000000;stroke-width:2.14981866;stroke-miterlimit:4;stroke-opacity:1;stroke-dasharray:none" />
    <path
       inkscape:connector-curvature="0"
       id="path3161"
       d="m 44.739297,333.07739 c 8.4861,2.48753 23.0775,-0.17147 25.4742,11.2409 3.00102,15.38246 -3.0426,30.17282 -4.5654,45.23215 -1.9072,9.86336 8.28345,14.69066 16.266686,16.45852 6.46028,1.50134 0.25445,8.9235 -0.15346,12.73713 -7.517996,20.16667 -3.363046,42.40406 -7.826426,63.22526 -1.18339,17.41136 -3.096,35.10135 -1.18931,52.4831 2.45712,10.09229 10.446586,17.05331 19.297516,21.71451 -7.44872,-1.07734 -12.72881,-0.30443 -10.01323,8.36353 -0.37332,10.06624 -13.571676,10.51827 -20.640276,13.92644 -8.2039,3.70586 -18.4933,5.3587 -25.20566,-2.22516 -10.35099,-13.67764 -11.72999,-31.87328 -14.71159,-48.28933 -4.5108,-31.43096 -9.9745,-62.91713 -8.4637,-94.81143 0.8007,-27.90629 0.3126,-57.44194 12.5482,-83.17509 5.37549,-6.05601 10.51369,-13.51211 17.99305,-16.88053 l 0.5755,-0.0384 0.6139,0.0384 z"
       style="fill:#392c24;fill-opacity:1;stroke:#000000;stroke-width:2.45534992;stroke-miterlimit:4;stroke-opacity:1;stroke-dasharray:none" />
    <path
       inkscape:connector-curvature="0"
       id="path3173"
       d="m 927.12954,775.19505 c 12.17029,2.77113 24.51027,9.4535 33.17225,20.17991 7.32123,14.93787 12.71799,31.12875 21.15728,45.2951 4.3162,9.73094 11.5817,19.5741 21.53403,18.96601 -0.4041,13.00957 -1.7151,27.03077 -2.0944,40.41873 -1.04233,6.86726 2.0425,17.25778 -6.20673,17.97256 -15.7769,7.89679 -28.03321,23.2571 -43.97327,30.57678 -16.14967,3.14264 -32.93939,-0.49823 -49.06573,1.29532 -16.15986,8.05292 -29.61319,22.69762 -46.81908,27.86042 -7.9288,2.3819 -14.75577,11.9384 -23.27888,9.9764 -9.2477,-5.4193 -19.3004,-9.144 -27.01855,-17.7246 -11.82864,-7.5472 -26.15295,-4.81 -38.42853,-11.2025 -6.13201,-0.8869 -10.37569,-6.8874 -10.0959,-14.27171 -0.80264,-18.59237 -1.86977,-37.73754 2.75884,-55.76693 0.6349,-10.86337 1.31795,-21.78981 5.60633,-31.66655 4.95964,-13.99505 2.38163,-31.4109 10.54461,-43.62083 19.19844,-8.67754 40.02071,-11.29199 59.56695,-18.8974 11.72812,-4.50146 23.35059,-10.85676 36.00743,-9.13047 19.16595,-0.55574 37.64631,-8.4669 56.63335,-10.26024 z"
       style="fill:#574438;fill-opacity:1;stroke:#000000;stroke-width:2.24421239;stroke-miterlimit:4;stroke-opacity:1;stroke-dasharray:none" />
    <path
       inkscape:connector-curvature="0"
       id="path3175"
       d="m 516.29561,940.70594 c 30.27686,3.60505 59.36966,13.85482 89.77374,16.65035 15.62335,5.52138 28.59926,18.02171 44.73339,21.75971 26.75309,0.074 53.50618,0.1489 80.25927,0.2233 6.08888,7.9661 14.63275,13.0887 24.4384,15.0007 18.08224,7.6512 37.69596,11.6471 57.35544,11.2793 -27.81256,13.7122 -57.98329,22.1015 -87.82005,30.2174 -78.97321,20.1564 -161.04315,17.1736 -241.72601,22.9231 -64.73681,3.1635 -129.60706,3.4331 -194.40151,2.6668 -16.51051,1.0492 -30.87246,-7.4371 -44.88796,-14.8337 -19.88566,-11.2542 -45.16842,-9.8662 -63.45545,-24.0931 -2.80056,-3.365 -6.99473,-8.5169 -6.21511,-12.8139 24.21423,-10.4205 49.78557,-17.8317 75.34855,-24.2465 19.35483,-3.7748 37.96925,4.9738 54.17116,14.5786 15.5593,6.6669 34.38496,3.9324 47.11203,-7.3661 20.35014,-12.0231 41.56518,-23.5254 64.37954,-30.0623 23.79099,-5.18511 47.91405,-8.79408 71.23667,-16.02024 9.82425,-2.06202 19.56885,-5.93667 29.6979,-5.86342 z"
       style="fill:#392c24;fill-opacity:1;stroke:#000000;stroke-width:2.45534992;stroke-miterlimit:4;stroke-opacity:1;stroke-dasharray:none" />
    <path
       inkscape:connector-curvature="0"
       id="path3177"
       d="m 952.35119,960.97017 c 1.90813,0.22443 12.59149,-0.27613 10.5887,0.92076 -11.77216,0.002 5.1857,6.12632 8.53464,9.34633 8.57994,4.68401 18.29094,11.44953 16.80914,22.64837 2.3978,14.47747 -5.5334,28.80067 -18.47647,35.37397 -12.68393,8.5155 -28.33857,12.431 -43.37394,8.5453 -11.38298,-3.2859 -23.57179,-3.8772 -34.58343,-8.1233 -5.67977,-3.4596 -13.36947,-6.526 -10.43524,-14.5402 -0.0893,-13.1806 9.0509,-23.72597 17.45601,-32.64855 12.78464,-7.93639 25.16845,-18.15837 40.12963,-21.33086 4.44372,-0.31018 8.90027,-0.22809 13.35096,-0.19182 z"
       style="fill:#392c24;fill-opacity:1;stroke:#000000;stroke-width:2.45534992;stroke-miterlimit:4;stroke-opacity:1;stroke-dasharray:none" />
    <path
       inkscape:connector-curvature="0"
       id="path3179"
       d="m 153.59438,919.72038 c 10.37541,1.21523 13.44149,13.72309 19.62002,20.48071 1.48292,11.38923 -0.65771,23.85131 -0.71847,35.64381 0.66272,5.848 -2.23914,10.3536 -6.35624,14.0448 -4.40152,7.8908 -10.0095,15.1804 -18.93417,18.2039 -33.31893,16.552 -70.065713,27.1388 -107.285983,29.12 -8.77,0.3218 -17.46009,-1.0546 -26.01149,-2.8591 0.3056,-21.1509 1.771,-42.3013 7.0114,-62.8599 2.3589,-8.4483 1.3724,-18.53389 5.6873,-26.06978 3.30079,0.33071 1.96249,-2.38001 0.9975,-3.33774 7.45539,-8.2389 17.11088,-15.27013 28.77363,-14.8472 30.004446,-3.45567 60.785413,1.66727 90.173013,-6.91059 2.31853,-0.41495 4.68016,-0.90288 7.04349,-0.60891 z"
       style="fill:#574438;fill-opacity:1;stroke:#000000;stroke-width:2.45534992;stroke-miterlimit:4;stroke-opacity:1;stroke-dasharray:none" />
    <path
       inkscape:connector-curvature="0"
       id="path3181"
       d="m 149.5049,330.21431 c 3.8978,7.92087 -0.5598,17.76249 -0.1535,26.35664 -2.5129,10.56682 5.1872,18.98844 13.58119,24.0164 6.7869,3.75392 10.36307,10.68293 9.28427,18.41512 -0.72727,23.35324 -5.27297,46.75083 -12.92897,68.78816 -4.92929,5.39789 -13.82199,5.37365 -20.48679,7.8648 -9.9769,1.87219 -21.1243,4.20282 -30.8453,0.80566 -12.651797,-10.78935 -7.4523,-29.35304 -5.7308,-43.60171 5.4729,-27.09079 11.065,-54.7345 22.9949,-79.81799 6.9249,-8.2479 14.4614,-18.22035 24.285,-22.82708 z"
       style="fill:#392c24;fill-opacity:1;stroke:#000000;stroke-width:2.45534992;stroke-miterlimit:4;stroke-opacity:1;stroke-dasharray:none" />
    <path
       inkscape:connector-curvature="0"
       id="path3183"
       d="m 146.15117,172.48314 c 17.3057,1.29441 29.3876,15.07035 42.6233,24.59187 3.6218,9.96683 8.6741,19.52486 12.3535,29.34911 1.2785,18.39034 2.9556,37.07398 1.0742,55.4372 -2.7368,11.43325 -10.7301,22.90723 -23.5176,23.51765 -24.5228,3.79714 -47.6278,13.91762 -72.241,16.99562 -7.491897,-0.35304 -16.363297,1.81751 -23.026597,-0.44503 -5.118796,-7.45385 -11.317596,-15.40543 -13.030896,-24.18382 0.389,-17.10043 0.1331,-34.68393 7.6267,-50.53069 7.821096,-20.12295 14.923396,-40.51762 22.023893,-60.88219 3.1763,-7.56304 11.1279,-10.61059 18.7604,-10.32015 9.1103,-1.13512 18.1322,-3.6327 27.3541,-3.52957 z"
       style="fill:#574438;fill-opacity:1;stroke:#000000;stroke-width:2.45534992;stroke-miterlimit:4;stroke-opacity:1;stroke-dasharray:none" />
  </g>
</svg>
