<?xml version="1.0" encoding="UTF-8" standalone="no"?>
<!-- Created with Inkscape (http://www.inkscape.org/) -->

<svg
   xmlns:dc="http://purl.org/dc/elements/1.1/"
   xmlns:cc="http://creativecommons.org/ns#"
   xmlns:rdf="http://www.w3.org/1999/02/22-rdf-syntax-ns#"
   xmlns:svg="http://www.w3.org/2000/svg"
   xmlns="http://www.w3.org/2000/svg"
   xmlns:sodipodi="http://sodipodi.sourceforge.net/DTD/sodipodi-0.dtd"
   xmlns:inkscape="http://www.inkscape.org/namespaces/inkscape"
   width="32"
   height="16"
   id="svg2"
   version="1.1"
   inkscape:version="0.48.5 r10040"
   sodipodi:docname="chain.svg"
   inkscape:export-filename="C:\Users\narfman0\Desktop\chain.png"
   inkscape:export-xdpi="90"
   inkscape:export-ydpi="90">
  <defs
     id="defs4" />
  <sodipodi:namedview
     id="base"
     pagecolor="#ffffff"
     bordercolor="#666666"
     borderopacity="1.0"
     inkscape:pageopacity="0.0"
     inkscape:pageshadow="2"
     inkscape:zoom="27.96"
     inkscape:cx="16.748133"
     inkscape:cy="9.7236221"
     inkscape:document-units="px"
     inkscape:current-layer="layer1"
     showgrid="false"
     inkscape:window-width="1385"
     inkscape:window-height="877"
     inkscape:window-x="242"
     inkscape:window-y="28"
     inkscape:window-maximized="0" />
  <metadata
     id="metadata7">
    <rdf:RDF>
      <cc:Work
         rdf:about="">
        <dc:format>image/svg+xml</dc:format>
        <dc:type
           rdf:resource="http://purl.org/dc/dcmitype/StillImage" />
        <dc:title></dc:title>
      </cc:Work>
    </rdf:RDF>
  </metadata>
  <g
     inkscape:label="Layer 1"
     inkscape:groupmode="layer"
     id="layer1"
     transform="translate(0,-1036.3622)">
    <path
       style="fill:#000000;fill-opacity:1;stroke:none"
       id="path3002"
       d="m 1.5394468,1044.4354 c 0.041809,0.3431 0.1774227,0.6396 0.2791143,0.9405 0.2588641,5.0892 9.5870109,5.981 14.6591049,5.9475 0.153534,-10e-5 0.307068,-10e-5 0.460602,-10e-5 0.153419,0 0.306839,0 0.460259,0 5.762403,0.089 13.526914,-1.0524 13.640569,-7.3371 -0.01242,-0.1327 -0.0562,-0.2558 -0.08437,-0.3854 -0.04181,-0.097 -0.06385,-0.2019 -0.100515,-0.3013 -0.05514,-0.073 -0.09803,-0.2039 -0.141408,-0.3041 0.08425,-3.8358 -8.826254,-5.4687 -13.82296,-5.4802 -0.15355,4e-4 -0.3071,6e-4 -0.460649,7e-4 -0.153491,0 -0.306981,0 -0.460471,0 -0.153415,0 -0.30683,0 -0.460246,0 -0.168056,10e-5 -0.335496,0.01 -0.502695,-0.013 -0.124849,-0.029 -0.250397,-0.05 -0.377927,-0.059 -0.141125,-0.01 -0.282531,-0.01 -0.423825,-0.01 -0.153092,-10e-5 -0.306184,2e-4 -0.459276,4e-4 -0.153572,1e-4 -0.307144,1e-4 -0.460717,2e-4 -0.153427,0 -0.306855,0 -0.460283,0 -0.153411,0 -0.306822,0 -0.460233,0 -0.153412,0 -0.306824,0 -0.460237,0 -0.120577,-0.011 -0.232792,0 -0.349528,0.028 -8.2243255,0.4193 -8.003418,2.3642 -9.9969106,6.9811 -0.3879546,0.885 -0.5448102,0.3714 -0.83907881,0.2204 0.0156483,-0.1411 0.0635794,-0.2779 0.0902736,-0.3946 1.89024141,-5.5954 3.07763761,-6.5925 10.59377081,-7.5948 0.166047,-0.035 0.331697,-0.055 0.501474,-0.044 0.153413,0 0.306826,0 0.460239,0 0.153412,0 0.306825,0 0.460238,0 0.1534,0 0.306801,0 0.460202,0 0.153363,0 0.306726,0 0.460088,-10e-5 0.153962,-2e-4 0.307923,-5e-4 0.461884,-4e-4 0.15949,4e-4 0.319112,6e-4 0.478373,0.011 0.142877,0.011 0.285194,0.029 0.424746,0.064 0.09346,0.035 0.293759,-0.013 0.39943,0.01 0.15341,0 0.30682,0 0.46023,0 0.153335,0 0.30667,0 0.460005,-10e-5 0.153275,-10e-5 0.306549,-2e-4 0.459824,-6e-4 5.58256,0.3918 14.650838,2.3237 14.681337,6.2982 0.05049,0.1371 0.08669,0.2784 0.133794,0.4168 0.02676,0.1337 0.07522,0.2621 0.08717,0.3991 0.192698,6.7032 -8.436342,8.2162 -14.39235,8.298 -0.153406,0 -0.306811,0 -0.460217,0 -0.153364,0 -0.306728,0 -0.460093,10e-5 -0.153678,10e-5 -0.307357,3e-4 -0.461036,5e-4 -0.15787,-10e-5 -0.315801,3e-4 -0.473586,-0.01 -0.158357,-0.01 -0.31678,-0.022 -0.471444,-0.061 -0.130696,-0.031 -0.265931,-0.018 -0.3985,-0.043 -0.12982,-0.023 -0.253647,-0.066 -0.382218,-0.09 -4.6824387,0.095 -13.56215258,-1.8944 -13.3492523,-6.7097 -0.25884517,-0.8911 -0.0897784,-0.9006 0.5972986,-0.7883 z"
       inkscape:connector-curvature="0"
       sodipodi:nodetypes="cccscccccccsccccccsscccccccssscccccsscccccsscccccccc" />
    <path
       style="fill:#000000;fill-opacity:1;stroke:none"
       id="path3004"
       d="m 14.740089,4.1872292 c -0.176714,-0.00989 -0.348684,0.00601 -0.51834,0.054102 -0.141265,0.032234 -0.278717,0.07164 -0.41738,0.1126338 -0.133092,0.038004 -0.261657,0.08495 -0.398851,0.1111907 -0.09478,0.026504 -0.180899,0.067465 -0.272718,0.102647 -0.08229,0.019064 -0.155271,0.05983 -0.235841,0.084781 -0.10704,0.033148 -0.05914,0.00779 -0.102705,0.03226 -0.09459,0.050047 -0.206267,0.1000813 -0.317289,0.1452946 -0.141734,0.047057 -0.283992,0.09053 -0.426744,0.1344858 -0.108519,0.016282 -0.205973,0.046511 -0.285393,0.088534 -0.151358,0.069404 -0.309268,0.1237164 -0.471189,0.1623539 -0.105583,0.032097 -0.203614,0.078222 -0.306181,0.1181508 -0.08314,0.019686 -0.157027,0.060916 -0.238509,0.086168 -0.107259,0.033241 -0.05919,0.0078 -0.102789,0.032273 -0.102661,0.045017 -0.214105,0.059847 -0.312924,0.1132414 C 10.207935,5.6207713 10.08271,5.6750742 9.9581469,5.7323921 9.8315304,5.7896186 9.7086809,5.8550731 9.5811162,5.9115074 9.4508939,5.9706985 9.3240387,6.0346892 9.1998082,6.1051853 9.0855554,6.1638405 8.9725037,6.2241864 8.8595894,6.2852836 8.8224001,6.3493077 8.6741522,6.3713864 8.637006,6.4328667 8.5456941,6.5025555 8.4795143,6.5181284 8.4410839,6.5862261 8.3608523,6.673439 8.2997924,6.7642528 8.2152837,6.8535529 8.1547275,6.9435911 8.0805114,7.0279134 8.0095989,7.1122165 c -0.034982,0.072985 -0.06568,0.1473521 -0.08378,0.2269944 -0.043585,0.1128122 -0.077793,0.2253735 -0.091235,0.3454115 -0.011393,0.1335415 -0.011034,0.2677319 -0.011469,0.4016521 -4.32e-5,0.1528646 4.273e-4,0.3057289 6.604e-4,0.4585933 0.020877,0.084437 0.034599,0.1682477 0.063375,0.2496853 2.831e-4,-0.00325 -0.00111,-0.012378 8.492e-4,-0.00976 0.043616,0.058166 0.1145981,0.2072597 0.1470071,0.2742252 0.042974,0.1338599 0.059397,0.1154841 0.1478646,0.2581579 0.065444,0.097489 0.1062886,0.2135592 0.1809175,0.3044403 0.045609,0.034128 0.1570485,0.2325574 0.2066944,0.2357991 0.086414,0.06412 0.1642801,0.1421944 0.2579391,0.1962066 0.1063746,0.08134 0.2246777,0.141975 0.3335408,0.220036 0.066579,0.04038 0.1401664,0.07473 0.2150755,0.09943 0.1108289,0.04171 0.2245815,0.07413 0.3376547,0.109532 0.1352945,0.052 0.2708873,0.10433 0.4053245,0.158799 0.122376,0.04516 0.245232,0.08491 0.3637,0.140905 0.110833,0.04798 0.221201,0.09824 0.339014,0.126615 0.136015,0.05143 0.276413,0.08671 0.412397,0.137871 0.09885,0.06961 0.200696,0.09531 0.312541,0.129239 0.135549,0.04036 0.274984,0.05855 0.411101,0.09747 0.11288,0.02577 0.212366,0.08659 0.326525,0.106719 0.14409,0.04809 0.294266,0.06761 0.441989,0.09948 0.131781,0.03707 0.266848,0.05494 0.403013,0.06445 0.14429,0.0078 0.288856,0.0075 0.433309,0.0076 0.154959,-0.0076 0.304548,0.03825 0.456745,0.0586 0.149846,0.01082 0.297749,0.01683 0.445313,0.04756 0.114076,0.0285 0.231237,0.03677 0.348229,0.0423 0.145391,0.0051 0.290903,0.0047 0.436362,0.0048 0.153449,-1.36e-4 0.306898,-3.48e-4 0.460347,-4.58e-4 0.153535,-9.4e-5 0.30707,-1.03e-4 0.460604,-1.1e-4 0.195676,-0.01022 0.388292,0.0095 0.581314,0.03919 0.141669,0.02316 0.285005,0.03077 0.428265,0.03518 0.159028,-0.0098 0.312893,0.02799 0.468106,0.0548 0.141053,0.0097 0.278236,0.03619 0.415809,0.06786 0.113457,0.02393 0.229706,0.02763 0.3452,0.03116 0.148351,0.0032 0.296749,0.0026 0.445124,0.0025 0.153628,-2.35e-4 0.307256,-3.86e-4 0.460883,-4.69e-4 0.153503,-6.7e-5 0.307006,-6.8e-5 0.460509,-7.1e-5 0.118223,-6.38e-4 0.234071,-0.03516 0.351719,-0.05191 0.117818,-0.03775 0.317552,0.0073 0.4258,-0.02953 0.141277,-0.0349 0.28556,-0.05186 0.430387,-0.06265 0.106489,-0.0086 0.21831,-0.02703 0.320485,-0.06051 0.134982,-0.04453 0.276243,-0.05913 0.411794,-0.09963 0.129301,-0.02803 0.254982,-0.06053 0.382115,-0.09603 0.115856,-0.0127 0.216893,-0.05145 0.322455,-0.09602 0.13464,-0.05248 0.270576,-0.100446 0.403063,-0.157825 0.12116,-0.07246 0.256402,-0.11873 0.379795,-0.185875 0.105567,-0.056 0.227957,-0.08954 0.330108,-0.139428 0.104745,-0.06769 0.225461,-0.09997 0.33382,-0.160438 0.08189,-0.06932 0.183131,-0.13105 0.274791,-0.193914 0.130182,-0.06968 0.240308,-0.167214 0.362055,-0.249926 0.09778,-0.07437 0.19393,-0.150648 0.288922,-0.228848 0.09435,-0.08794 0.188345,-0.1792119 0.271814,-0.2779698 0.08689,-0.1242117 0.19096,-0.2320338 0.306116,-0.3305961 0.04824,-0.046948 0.08413,-0.1182938 0.123476,-0.1818449 0.06778,-0.1188887 0.157066,-0.224039 0.250719,-0.3231018 0.04973,-0.071141 0.122688,-0.132674 0.156224,-0.213798 0.05219,-0.089952 0.117044,-0.1780636 0.15236,-0.2766546 0.05335,-0.079129 0.07994,-0.154017 0.09145,-0.2460671 0.03229,-0.1214991 0.06445,-0.2410945 0.07712,-0.3663045 -7.22e-4,-0.053505 0.01932,-0.1129626 -0.0056,-0.1631854 -0.0028,-0.0057 -3.5e-4,0.012721 -5.24e-4,0.019081 -0.0054,-0.011481 -0.01082,-0.022961 -0.01623,-0.034442 -0.04083,-0.095442 -0.09334,-0.1861146 -0.144074,-0.277691 C 26.027357,7.3672269 25.977723,7.3008711 25.927307,7.2348507 25.844195,7.137419 25.763352,7.040096 25.681086,6.9417131 25.607407,6.8708147 25.531521,6.7989955 25.450898,6.7350727 25.392175,6.6865881 25.327805,6.6048168 25.250187,6.5853249 25.123791,6.5384803 25.040212,6.4129919 24.92012,6.358711 24.806921,6.2865796 24.698928,6.2078146 24.584704,6.1370969 24.47158,6.0781688 24.360115,6.013163 24.252823,5.9437513 24.156372,5.8832167 24.054197,5.8329646 23.954727,5.7777372 23.851244,5.7148818 23.741603,5.6653638 23.633499,5.6111775 23.531145,5.5761113 23.42961,5.5387291 23.323334,5.5167884 23.177606,5.4853013 23.049562,5.4051359 22.906378,5.3671901 22.785098,5.3084929 22.654591,5.2853633 22.52639,5.2494419 22.409742,5.224862 22.306554,5.159276 22.19157,5.1311264 22.081783,5.1073609 21.978723,5.0640295 21.867305,5.0471122 21.74923,5.0123708 21.633381,4.9783423 21.510882,4.9652237 21.358193,4.9453011 21.218844,4.8831291 21.075285,4.8330116 20.956135,4.8119793 20.838222,4.7847044 20.719691,4.7597614 20.59143,4.7346084 20.460601,4.7295689 20.330322,4.7258 20.163389,4.7062539 19.998344,4.6725814 19.839467,4.6176682 19.729678,4.5823889 19.613499,4.5787738 19.50035,4.5599212 c -0.135465,-0.03246 -0.273166,-0.049758 -0.411921,-0.058897 -0.145027,-0.00751 -0.290305,-0.00737 -0.435483,-0.0076 -0.153127,2.62e-5 -0.306253,3.203e-4 -0.45938,4.677e-4 -0.153524,1.314e-4 -0.307048,1.491e-4 -0.460572,1.623e-4 -0.155317,0.00768 -0.305131,-0.038694 -0.457625,-0.059256 -0.129703,-0.014585 -0.2604,-0.01585 -0.390764,-0.017338 -0.153397,0.006 -0.30137,-0.039522 -0.452107,-0.059612 -0.132896,-0.010815 -0.258442,-0.058067 -0.390021,-0.077154 -0.14747,-0.011092 -0.293046,-0.017143 -0.438363,-0.047174 -0.114359,-0.028355 -0.231764,-0.036615 -0.349004,-0.042125 -0.145437,-0.00509 -0.290993,-0.0047 -0.436498,-0.00473 -0.127835,9.85e-5 -0.25567,2.825e-4 -0.383505,3.998e-4 -0.542396,4.978e-4 -0.5431,-0.7665649 -7.04e-4,-0.7670627 l 0,0 c 0.128119,-1.176e-4 0.256238,-3.025e-4 0.384357,-4.001e-4 0.15788,3.19e-5 0.315821,-3.184e-4 0.473616,0.00563 0.158325,0.0079 0.316714,0.021012 0.471339,0.058007 0.129718,0.029058 0.263875,0.017365 0.395602,0.039337 0.127694,0.020344 0.250563,0.059384 0.377914,0.075387 0.1192,0.01679 0.236447,0.051325 0.356278,0.05248 0.16279,0.00192 0.325977,0.00447 0.487747,0.02463 0.117633,0.016751 0.233466,0.051276 0.351672,0.051913 0.1533,-1.31e-5 0.3066,-3.07e-5 0.4599,-1.619e-4 0.153782,-1.479e-4 0.307565,-4.45e-4 0.461348,-4.671e-4 0.162129,2.639e-4 0.324375,3.02e-4 0.486307,0.00937 0.167394,0.01166 0.334068,0.031173 0.497698,0.069613 0.14927,0.034352 0.309577,0.024685 0.453278,0.087835 0.08529,0.02993 0.173226,0.044204 0.261651,0.065897 0.176096,0.00535 0.35267,0.014674 0.525706,0.050309 0.153307,0.032707 0.307362,0.061337 0.458427,0.1026805 0.08826,0.032707 0.169315,0.070774 0.261527,0.091147 0.133578,0.016056 0.269306,0.036659 0.394782,0.087298 0.139639,0.02435 0.271799,0.068763 0.408402,0.1029687 0.119236,0.035686 0.228168,0.088934 0.347392,0.1220177 0.11656,0.049612 0.258174,0.044662 0.369368,0.1146056 0.126517,0.037781 0.246153,0.089477 0.368697,0.1373772 0.167944,0.037926 0.332376,0.091425 0.490914,0.1585113 0.121316,0.061242 0.244454,0.1182005 0.36122,0.1881956 0.106205,0.074149 0.237858,0.1131617 0.341393,0.1930887 0.09443,0.073116 0.211797,0.1183377 0.31301,0.1810508 0.107808,0.068727 0.212459,0.1418454 0.31898,0.2115325 0.09661,0.060545 0.185118,0.1300675 0.27664,0.1975675 0.126026,0.0663 0.251871,0.1450763 0.351633,0.2477415 0.116996,0.099147 0.234822,0.1996326 0.336624,0.3145839 0.07267,0.091436 0.148656,0.1783942 0.224691,0.2676348 0.08902,0.1070792 0.172726,0.2219972 0.225816,0.3517098 0.0594,0.1085025 0.119453,0.2172338 0.170332,0.3299334 0.08313,0.1855337 0.116225,0.3763327 0.08697,0.579006 -0.015,0.1337602 -0.0349,0.2684448 -0.08086,0.3955981 -0.02382,0.1518465 -0.05786,0.3086562 -0.145904,0.4379738 -0.05383,0.1194316 -0.116072,0.2364594 -0.186815,0.3465971 -0.07993,0.136059 -0.174944,0.263092 -0.281137,0.3800047 -0.06525,0.047034 -0.105104,0.1317327 -0.149284,0.196206 -0.08806,0.1247343 -0.157095,0.2638175 -0.281309,0.3602915 -0.09164,0.06596 -0.146802,0.16 -0.219075,0.246229 -0.113948,0.127086 -0.232031,0.251876 -0.360849,0.363979 -0.114706,0.09394 -0.230777,0.186043 -0.350003,0.274113 -0.120867,0.07759 -0.225029,0.180275 -0.354501,0.244823 -0.116354,0.07946 -0.233911,0.156062 -0.348295,0.238379 -0.0998,0.05181 -0.204714,0.09052 -0.303178,0.143261 -0.121173,0.06587 -0.248594,0.109829 -0.37462,0.163788 -0.140099,0.06862 -0.283069,0.131048 -0.420733,0.205056 -0.134756,0.05836 -0.272592,0.107976 -0.409614,0.160627 -0.134675,0.05682 -0.270269,0.109836 -0.416336,0.12866 -0.12246,0.03336 -0.244095,0.06703 -0.368486,0.09212 -0.140127,0.04131 -0.283803,0.06155 -0.423773,0.103078 -0.153981,0.04046 -0.311983,0.07744 -0.471135,0.0867 -0.12537,0.0087 -0.248954,0.027 -0.37137,0.05607 -0.144517,0.01776 -0.289498,0.016 -0.434358,0.03078 -0.152479,0.02056 -0.302277,0.06692 -0.457577,0.05926 -0.15337,3e-6 -0.30674,4e-6 -0.46011,7.1e-5 -0.153511,8.3e-5 -0.307022,2.34e-4 -0.460534,4.69e-4 -0.15668,1.55e-4 -0.313387,7.19e-4 -0.470038,-0.0029 -0.165418,-0.0053 -0.331499,-0.01389 -0.493519,-0.05042 -0.124823,-0.02886 -0.247231,-0.04988 -0.37577,-0.05973 -0.120697,-0.02138 -0.235784,-0.05447 -0.359796,-0.04367 -0.174185,-0.0056 -0.348391,-0.01576 -0.520649,-0.0437 -0.154849,-0.02381 -0.307379,-0.04126 -0.464771,-0.03029 -0.153364,7e-6 -0.306728,1.6e-5 -0.460092,1.1e-4 -0.153682,1.1e-4 -0.307363,3.23e-4 -0.461044,4.58e-4 -0.157909,-3.2e-5 -0.315879,3.21e-4 -0.473701,-0.0057 -0.158403,-0.008 -0.316872,-0.02115 -0.471521,-0.05842 -0.127659,-0.02883 -0.259622,-0.01784 -0.389508,-0.03774 -0.117925,-0.01664 -0.234075,-0.05102 -0.352608,-0.05139 -0.162688,-1.81e-4 -0.325513,-3.5e-5 -0.487982,-0.0096 -0.174522,-0.01301 -0.348157,-0.03541 -0.51743,-0.0815 -0.140888,-0.03564 -0.288857,-0.04437 -0.426217,-0.09607 -0.13332,-0.02889 -0.256976,-0.07856 -0.384441,-0.120968 -0.140623,-0.04079 -0.287434,-0.05366 -0.426555,-0.102089 -0.118403,-0.03843 -0.267461,-0.06982 -0.355297,-0.143913 -0.110176,-0.04151 -0.225097,-0.0671 -0.334051,-0.113077 -0.166971,-0.04463 -0.327327,-0.107748 -0.484139,-0.180236 -0.104012,-0.05601 -0.2215509,-0.07325 -0.3279577,-0.124543 -0.106322,-0.0554 -0.2301461,-0.08555 -0.3396941,-0.134245 C 9.3563276,11.170318 9.2309912,11.135672 9.1090318,11.0918 8.9667356,11.036637 8.8234603,10.974816 8.6992216,10.885419 8.6266789,10.802936 8.4892778,10.787945 8.4176728,10.701438 8.306526,10.628752 8.2030579,10.54645 8.099899,10.463165 7.964528,10.350051 7.8547678,10.215773 7.746471,10.07692 7.6656681,9.9636573 7.601457,9.8408851 7.5308699,9.7212523 7.4624165,9.6107495 7.3736317,9.5076456 7.3386479,9.3806834 7.2952677,9.263885 7.2033491,9.1671161 7.1631599,9.0479788 7.1067795,8.885841 7.0720427,8.7170951 7.0567128,8.5460372 7.0564779,8.3919336 7.0559992,8.2378302 7.0560558,8.0837263 7.0566132,7.9195601 7.0566872,7.7550164 7.0731941,7.5915 7.0924707,7.4410068 7.1216792,7.2916569 7.1820727,7.151522 7.2325444,6.960016 7.3052874,6.7735246 7.4259808,6.6144457 7.5072867,6.5199077 7.584374,6.4227561 7.6607374,6.3235868 7.7167469,6.2653376 7.779503,6.1781031 7.855342,6.0909564 7.9457561,5.9891054 8.0433167,5.8943963 8.1635266,5.8293744 8.2709091,5.7499408 8.3864541,5.6862567 8.4958836,5.609929 8.6042187,5.5519793 8.7126476,5.4947765 8.8214499,5.4379292 8.9686688,5.3545216 9.11927,5.2789827 9.2733333,5.2089013 9.3985999,5.1548685 9.5177762,5.0892858 9.6420271,5.0334973 9.7606779,4.9804032 9.8791873,4.9273204 9.9982347,4.8753024 10.11936,4.8186182 10.244696,4.7785245 10.370964,4.7361071 c 0.114344,-0.040895 0.230888,-0.075595 0.34408,-0.1195051 0.135608,-0.048729 0.265218,-0.1142107 0.406244,-0.1485392 0.09836,-0.02114 0.191808,-0.05737 0.28542,-0.093238 0.133157,-0.070172 0.271079,-0.122385 0.420651,-0.1441754 0.121976,-0.036192 0.242769,-0.07599 0.364451,-0.1126017 0.112276,-0.044483 0.218747,-0.095036 0.327114,-0.149151 0.11465,-0.041026 0.231513,-0.075924 0.345154,-0.1195468 0.134258,-0.047535 0.26296,-0.1110073 0.404062,-0.1388553 0.111115,-0.017963 0.211448,-0.06749 0.320815,-0.092725 0.142223,-0.040969 0.283499,-0.082511 0.427843,-0.1156148 0.236648,-0.064636 0.477589,-0.09385 0.723291,-0.081989 0.542395,0 0.542395,0.7670631 0,0.7670631 z"
       inkscape:connector-curvature="0"
       transform="translate(0,1036.3622)" />
    <path
       style="fill:#b3b3b3;fill-opacity:1;stroke:none"
       d="M 13.274868,0.99047843 C 11.278356,0.99541356 9.2697697,1.1086448 7.3129871,1.5203071 5.9330526,1.8219438 4.5079669,2.3874658 3.6273661,3.5478468 2.7608049,4.6900024 2.331567,6.0806537 1.759328,7.3797284 1.610533,7.7559141 1.3747945,8.1794763 1.5804963,8.5829298 c 0.2262769,0.5389657 0.1918717,1.1462647 0.436101,1.6819582 0.5316832,1.342428 1.7529704,2.259332 3.0172889,2.861049 2.1619143,1.012364 4.5435398,1.442011 6.9018288,1.698216 2.672484,0.275423 5.365545,0.247185 8.04735,0.163296 2.445656,-0.15888 4.935343,-0.51761 7.166535,-1.580796 1.422522,-0.687371 2.727094,-1.742147 3.386664,-3.207392 C 30.928856,9.3829731 31.122693,8.4669917 31.100557,7.5612492 31.064354,7.1021505 30.771944,6.7100636 30.75855,6.2479892 30.619669,5.2201565 29.845282,4.4181252 29.011083,3.8707682 27.491882,2.8696933 25.723936,2.3364013 23.969092,1.9147549 21.507738,1.3444552 18.978101,1.0806279 16.4513,1.0627582 c -0.673613,-0.00397 -1.348036,0.00162 -2.018528,-0.0644561 -0.385883,-0.0108282 -0.771914,-0.009734 -1.157904,-0.007824 z M 14.888781,3.507467 c 0.889377,-0.025296 1.748225,0.2525452 2.637579,0.2531463 0.958917,0.042236 1.93253,0.038842 2.864184,0.268157 0.938082,0.1177083 1.848303,0.4159569 2.74998,0.6902489 0.691168,0.2075293 1.345936,0.5282654 1.946966,0.9318222 0.678587,0.425396 1.357779,0.9349639 1.683615,1.6934367 0.240284,0.4016352 0.106511,0.8949589 -0.0341,1.3044521 -0.214368,0.5532565 -0.619352,1.0152017 -0.994546,1.4630378 -0.61354,0.72976 -1.428024,1.255593 -2.294673,1.634402 -0.843343,0.409407 -1.758587,0.625935 -2.680687,0.761365 -0.995096,0.148917 -2.007978,0.11357 -3.008144,0.04187 -1.029343,-0.186679 -2.07766,-0.13494 -3.117176,-0.183298 -0.693508,-0.09604 -1.399243,-0.111953 -2.087804,-0.226886 C 11.910963,11.996729 11.271941,11.83082 10.663723,11.57764 10.058254,11.346893 9.4332983,11.150663 8.8487339,10.873775 8.3542572,10.601727 7.8829067,10.238926 7.623499,9.7245156 7.3350129,9.2691115 7.0892304,8.7665832 7.1355172,8.2128497 7.1415694,7.606512 7.2093105,6.9459037 7.6384678,6.4826995 8.0152089,5.9271701 8.6228405,5.6124663 9.2099092,5.329266 10.224174,4.832698 11.299353,4.502342 12.359498,4.1244198 c 0.67729,-0.2655933 1.370219,-0.5124635 2.097863,-0.6057761 0.14355,-0.011138 0.287576,-0.00876 0.43142,-0.011177 z"
       id="path3786"
       inkscape:connector-curvature="0"
       transform="translate(0,1036.3622)" />
  </g>
</svg>
