<?xml version="1.0" encoding="UTF-8" standalone="no"?>
<!-- Created with Inkscape (http://www.inkscape.org/) -->

<svg
   xmlns:dc="http://purl.org/dc/elements/1.1/"
   xmlns:cc="http://creativecommons.org/ns#"
   xmlns:rdf="http://www.w3.org/1999/02/22-rdf-syntax-ns#"
   xmlns:svg="http://www.w3.org/2000/svg"
   xmlns="http://www.w3.org/2000/svg"
   xmlns:sodipodi="http://sodipodi.sourceforge.net/DTD/sodipodi-0.dtd"
   xmlns:inkscape="http://www.inkscape.org/namespaces/inkscape"
   width="744.09448819"
   height="1052.3622047"
   id="svg2"
   version="1.1"
   inkscape:version="0.48.4 r9939"
   sodipodi:docname="crate1.svg"
   inkscape:export-filename="C:\Users\jrobison\Desktop\crate1.png"
   inkscape:export-xdpi="8.7608604"
   inkscape:export-ydpi="8.7608604">
  <defs
     id="defs4" />
  <sodipodi:namedview
     id="base"
     pagecolor="#ffffff"
     bordercolor="#666666"
     borderopacity="1.0"
     inkscape:pageopacity="0.0"
     inkscape:pageshadow="2"
     inkscape:zoom="1.43"
     inkscape:cx="392.27698"
     inkscape:cy="554.20625"
     inkscape:document-units="px"
     inkscape:current-layer="layer1"
     showgrid="false"
     inkscape:window-width="1920"
     inkscape:window-height="1018"
     inkscape:window-x="-8"
     inkscape:window-y="-8"
     inkscape:window-maximized="1" />
  <metadata
     id="metadata7">
    <rdf:RDF>
      <cc:Work
         rdf:about="">
        <dc:format>image/svg+xml</dc:format>
        <dc:type
           rdf:resource="http://purl.org/dc/dcmitype/StillImage" />
        <dc:title></dc:title>
      </cc:Work>
    </rdf:RDF>
  </metadata>
  <g
     inkscape:label="Layer 1"
     inkscape:groupmode="layer"
     id="layer1">
    <rect
       style="fill:#c87137;fill-rule:evenodd;stroke:#000000;stroke-width:1.05642521px;stroke-linecap:butt;stroke-linejoin:miter;stroke-opacity:1"
       id="rect2987"
       width="472.31586"
       height="475.83603"
       x="138.18402"
       y="253.59686" />
    <path
       style="fill:#000000"
       id="path3047"
       d="m 145.54658,247.19676 c 3.39005,0.11376 6.78261,0.1008 10.17389,0.12386 4.63859,0.12138 9.30888,-0.22643 13.87222,-1.17825 4.17135,-0.91757 8.39985,-1.383 12.63967,-1.6428 3.23385,-0.0288 6.40089,-0.18639 9.59083,-0.72392 3.98625,-0.45496 7.90983,-1.29501 11.90139,-1.72773 4.54075,-0.47497 9.10579,-0.55029 13.66331,-0.58593 5.1917,-0.0178 10.38333,0.0202 15.5749,0.0564 6.36436,0.34865 12.64573,1.55095 18.98568,2.21406 6.31157,0.33827 12.58596,1.16414 18.88759,1.66183 5.28208,0.31578 10.52152,1.18329 15.73999,2.11243 4.87193,0.9827 9.84146,0.83884 14.74049,1.47333 4.59299,0.67405 9.11445,1.8648 13.66742,2.81425 5.37561,1.15094 10.86495,1.02204 16.28817,1.62051 4.78568,0.36043 9.5064,1.21392 14.25634,1.904 3.94646,0.5584 7.92466,0.7051 11.89804,0.77398 3.58026,0.0397 7.16052,0.0154 10.74086,0.0347 4.30488,-0.67022 8.63707,-1.00179 12.97681,-1.2082 5.33696,-0.20908 10.63555,-1.00544 15.96962,-1.31908 5.50989,-0.28476 11.02646,-0.326 16.54119,-0.35484 4.68773,-0.003 9.37537,-0.0595 14.0631,-0.0619 3.95484,-0.0243 7.90971,0.0111 11.86454,0.005 4.69085,0.61282 9.39257,1.04254 14.1091,1.29964 5.56323,0.21789 11.13153,0.25756 16.69777,0.24782 4.70113,0.0116 9.40207,-0.0855 14.10308,-0.062 4.46585,-0.62527 8.98401,-0.75452 13.43533,-1.48343 4.34077,-0.7323 8.71484,-1.13014 13.09728,-1.35862 3.64352,-0.16187 7.29097,-0.14623 10.93666,-0.15126 3.12202,-0.002 6.24407,-0.0343 9.36604,-0.008 3.19038,-0.003 6.38068,0.0157 9.57107,0.009 3.03075,-0.023 6.06142,-0.0111 9.09216,-0.004 4.09721,-0.7848 8.2352,-0.98265 12.3809,-1.13248 5.17857,-0.20278 10.36124,-0.24097 15.54255,-0.26687 4.77149,-0.25146 9.49316,0.21667 14.23263,0.7377 3.93283,0.59564 7.92875,0.30811 11.85233,0.90588 2.93747,0.57974 5.89773,0.93619 8.87515,1.1056 1.74922,0.0821 3.50011,0.0928 5.25054,0.10358 0,0 -15.67275,12.68274 -15.67275,12.68274 l 0,0 c -1.76893,-0.0308 -3.53872,-0.066 -5.30391,-0.20896 -2.95968,-0.26939 -5.88832,-0.7723 -8.82343,-1.26636 -3.91094,-0.37478 -7.84907,-0.37522 -11.74529,-0.96425 -4.68134,-0.54914 -9.35913,-0.76334 -14.06775,-0.59557 -5.14088,0.0116 -10.28311,0.0262 -15.42023,0.2777 -4.25021,0.27631 -8.45948,0.90564 -12.6998,1.27255 -3.02706,0.006 -6.054,0.0187 -9.08107,-0.004 -3.19681,-0.006 -6.39355,0.012 -9.59035,0.003 -3.10348,0.0183 -6.20685,-0.0264 -9.31032,-0.0309 -3.61157,0.003 -7.22438,0.0193 -10.83312,0.19545 -4.33596,0.25377 -8.65662,0.72423 -12.95184,1.44188 -4.5195,0.54156 -9.05809,0.96389 -13.59374,1.28156 -4.65511,0.0298 -9.31029,-0.0523 -13.96543,-0.0588 -5.59402,-0.0451 -11.1898,-0.0369 -16.78045,-0.29662 -4.7432,-0.24031 -9.45691,-0.83907 -14.19624,-1.10618 -3.95496,-0.007 -7.90998,0.0259 -11.86493,-0.006 -4.63406,-0.0112 -9.26804,-0.084 -13.9022,-0.0532 -5.49148,0.0333 -10.98639,0.0767 -16.46978,0.44529 -5.35244,0.42474 -10.68807,1.10438 -16.04997,1.35699 -4.39569,0.29335 -8.76142,0.89554 -13.15235,1.2191 -3.5955,0.0277 -7.19194,0.034 -10.78668,-0.0628 -3.98451,-0.1406 -7.97009,-0.38866 -11.91671,-1.05192 -4.69645,-0.74285 -9.39419,-1.43901 -14.12194,-1.89168 -5.47835,-0.49137 -10.99959,-0.59369 -16.41269,-1.76567 -4.54117,-0.93227 -9.06574,-2.02986 -13.65479,-2.61804 -4.91061,-0.50559 -9.85743,-0.65686 -14.7251,-1.6242 -5.16997,-0.91015 -10.36545,-1.6577 -15.59109,-2.03292 -6.25781,-0.64448 -12.51157,-1.32135 -18.78294,-1.78278 -6.3213,-0.69466 -12.61088,-1.849 -18.9727,-1.97857 -5.24017,0.0268 -10.48053,0.0337 -15.72051,0.0945 -4.51853,0.0818 -9.04333,0.18126 -13.53881,0.74584 -4.0255,0.56383 -8.01344,1.40009 -12.04397,1.9252 -3.18637,0.46902 -6.39457,0.29845 -9.59895,0.51712 -4.17891,0.30906 -8.33097,0.89299 -12.45072,1.74167 -4.67374,0.67444 -9.37298,1.07296 -14.0894,0.94236 -3.49314,0.0234 -6.98738,0.0127 -10.47936,0.12389 0,0 15.78267,-12.8002 15.78267,-12.8002 z"
       inkscape:connector-curvature="0" />
    <path
       style="fill:#000000"
       id="path3049"
       d="m 144.38538,252.35148 c 1.33385,5.10415 2.24404,10.28106 2.83834,15.55205 0.57121,5.56065 0.68439,11.15645 0.80335,16.74605 0.0946,3.73845 0.0813,7.47764 0.0714,11.21688 0.16415,3.60513 0.81893,7.12841 1.66705,10.60096 0.97128,3.63216 2.29484,7.10175 2.94985,10.83267 0.5784,4.42968 0.44209,8.9168 0.71245,13.37143 0.51847,4.69067 0.84409,9.40055 1.00411,14.12224 0.15295,4.52657 0.17773,9.05677 0.20473,13.58594 -0.35395,4.61795 -0.6727,9.2505 -1.20005,13.84853 -0.54828,4.68714 -1.20395,9.3512 -1.86727,14.01907 -0.56099,5.80174 -1.26804,11.57703 -2.10318,17.33719 -0.82675,6.64065 -1.33081,13.32405 -1.97944,19.98936 -0.73604,5.35794 -1.39075,10.72832 -2.16034,16.08033 -0.73091,4.66099 -1.00755,9.38559 -1.1473,14.10823 -0.14226,4.55222 -0.10503,9.10756 -0.11279,13.66157 -0.0291,5.00812 -0.0334,10.01623 -0.001,15.02432 -0.0535,4.97457 -0.0714,9.93071 0.31911,14.88843 0.55044,5.92471 0.71944,11.88171 0.80473,17.83393 0.0593,6.84767 0.10429,13.69632 0.0875,20.54443 0.17163,7.44234 -0.78669,14.81274 -1.55935,22.18105 -0.43857,7.08815 -1.17229,14.12599 -2.13804,21.14626 -0.82492,5.7378 -1.22789,11.52814 -1.3866,17.33193 -0.11408,4.63037 -0.0874,9.26295 -0.0405,13.89417 0.1473,4.57554 -0.16212,9.114 -0.59265,13.65799 -0.49125,5.19592 -0.66121,10.42015 -0.71257,15.64177 -0.0184,4.24232 -0.0167,8.48466 -0.004,12.72701 0.19608,4.27047 -0.38515,8.49927 -0.76412,12.73463 -0.32641,4.37667 -1.00433,8.70585 -1.42033,13.07227 -0.38109,4.24025 -0.44631,8.5028 -0.50299,12.76035 -0.0144,4.17994 0.0516,8.35948 0.0902,12.53906 -0.15246,3.34519 0.34102,6.63412 0.74435,9.93315 0.37309,3.09182 0.39729,6.2053 0.87892,9.2797 0,0 -17.07471,10.14747 -17.07471,10.14747 l 0,0 c -0.52635,-3.1184 -0.64039,-6.24076 -0.88249,-9.40014 -0.37676,-3.38809 -1.05389,-6.75065 -0.85244,-10.18181 0.0286,-4.22034 0.079,-8.44049 0.0933,-12.66093 -0.0113,-4.29092 -0.10315,-8.59855 0.26587,-12.87501 0.44379,-4.37325 1.22116,-8.69896 1.49537,-13.09038 0.3734,-4.1667 0.96735,-8.31935 0.80637,-12.51836 0.01,-4.27586 0.003,-8.55251 0.10031,-12.82738 0.12286,-5.26799 0.20738,-10.54009 0.63493,-15.7917 0.37708,-4.46769 0.82231,-8.90478 0.56796,-13.4029 0.0381,-4.68608 0.0539,-9.37272 0.17255,-14.05739 0.21762,-5.90717 0.48683,-11.82303 1.45635,-17.64939 0.98345,-7.01144 1.86047,-14.0325 2.27256,-21.12023 0.6921,-7.28734 1.77364,-14.56266 1.55386,-21.91668 -0.0192,-6.82891 0.0354,-13.65842 -0.10133,-20.48641 -0.14117,-5.8755 -0.30581,-11.7549 -0.90701,-17.5994 -0.45972,-5.00996 -0.50392,-10.01242 -0.43425,-15.04857 0.0273,-5.00282 0.0154,-10.00563 -0.026,-15.00837 -0.0143,-4.57131 -0.005,-9.14323 0.0534,-13.71409 0.16089,-4.8204 0.43373,-9.64202 1.12616,-14.40948 0.8388,-5.33642 1.40799,-10.71383 2.31329,-16.03893 0.71494,-6.69958 1.3784,-13.39684 2.01975,-20.10431 0.74967,-5.72442 1.49008,-11.43953 1.89461,-17.20974 0.57796,-4.66948 1.37164,-9.29481 1.83806,-13.98341 0.61299,-4.48958 0.83238,-9.04497 1.28175,-13.558 0.015,-4.52035 0.0227,-9.04162 -0.0899,-13.5607 -0.1717,-4.68703 -0.44619,-9.36612 -0.99805,-14.01933 -0.38667,-4.3583 -0.14081,-8.7629 -0.73694,-13.10607 -0.60081,-3.68068 -1.8112,-7.1226 -2.81684,-10.67841 -1.00229,-3.62505 -1.66678,-7.33275 -1.97216,-11.1152 0.007,-3.75776 0.0277,-7.51491 0.0791,-11.27239 0.0177,-5.54614 -0.0508,-11.10217 -0.54341,-16.62558 -0.556,-5.09273 -1.37568,-10.12512 -3.10951,-14.90637 0,0 17.03578,-10.47336 17.03578,-10.47336 z"
       inkscape:connector-curvature="0" />
    <path
       style="fill:#000000"
       id="path3053"
       d="m 135.02146,720.09554 c 3.44634,0.41448 6.88269,0.97824 10.35199,1.26501 5.66801,0.62849 11.25185,1.69241 16.84453,2.86734 5.33227,1.11931 10.74543,1.47953 16.11439,2.29913 4.69678,0.80689 9.35284,1.71551 14.09767,2.14121 4.93221,0.15035 9.8172,0.91686 14.73031,1.37024 4.97715,0.27852 9.93448,0.42165 14.89278,0.9894 5.11954,0.65615 10.19664,1.57869 15.33999,2.03065 5.29813,0.41217 10.61198,0.4089 15.91996,0.4598 5.40304,0.0154 10.80625,0.006 16.20911,-0.0479 4.15694,-0.25368 8.20651,-1.27772 12.29523,-2.05719 4.10587,-0.51292 8.21164,-0.80811 12.3091,-1.39963 4.72852,-0.45611 9.32585,-1.8224 13.98371,-2.76277 4.21814,-0.78215 8.48449,-1.02715 12.751,-1.16865 4.26599,-0.0663 8.53355,0.008 12.80002,0.0306 5.53506,-0.0853 11.11154,-0.50338 16.60625,-1.2937 4.32648,-0.78694 8.68302,-1.29113 13.05734,-1.57782 3.39745,-0.16991 6.80035,-0.15124 10.20035,-0.12291 4.88935,0.0286 9.77849,0.0897 14.66779,0.11906 6.72006,0.0467 13.44034,0.0269 20.16041,0.0627 7.00348,0.0949 14.03361,0.50791 21.00437,1.30168 6.77599,0.87853 13.58825,1.23943 20.40256,1.46292 6.89019,0.0687 13.76217,0.15892 20.63883,0.65001 6.08305,0.50799 12.17879,0.70523 18.27618,0.81416 3.99811,-0.25268 7.92533,0.56869 11.88711,1.00062 4.48725,0.29887 8.95593,0.501 13.42787,1.02384 4.79222,0.5563 9.60798,0.77954 14.42305,0.87864 3.61448,0.0662 7.22983,0.0491 10.84469,0.0424 3.52312,0.18614 6.99207,-0.55345 10.48245,-0.9847 3.30172,-0.43746 6.62223,-0.46927 9.9413,-0.46352 4.18458,0.016 8.36918,0.002 12.55371,-0.0259 3.26724,-0.0274 6.53448,-0.0112 9.8018,-0.0214 2.92483,-0.0235 5.84958,-0.006 8.77439,9.1e-4 2.79261,-0.21217 5.83042,-0.41971 8.4862,-1.48905 2.45968,-0.93808 5.03278,-1.26041 7.56208,-1.89514 2.80014,-0.68807 5.6626,-0.89026 8.51955,-1.00299 1.8449,-0.0434 0.90114,-0.0316 2.83132,-0.0321 0,0 -15.60121,12.69592 -15.60121,12.69592 l 0,0 c -1.94054,0.0689 -0.99843,0.0309 -2.82635,0.11251 -2.79015,0.18825 -5.57101,0.52749 -8.29145,1.27545 -2.53406,0.62643 -5.09585,1.10001 -7.57071,2.00011 -2.87965,0.54471 -5.78179,1.10718 -8.71398,0.99099 -2.9252,0.007 -5.85034,0.0245 -8.77555,-8.3e-4 -3.24429,-0.0127 -6.48855,-4.3e-4 -9.73271,-0.0356 -4.17037,-0.0353 -8.34153,-0.0638 -12.5115,0.0289 -3.29626,0.10241 -6.59471,0.25425 -9.87325,0.66969 -3.53168,0.44881 -7.05713,1.01285 -10.62399,0.80282 -3.60226,-0.006 -7.20449,-0.0252 -10.80537,-0.15426 -4.80364,-0.22743 -9.59888,-0.58568 -14.38661,-1.08279 -4.52002,-0.45433 -9.05381,-0.47273 -13.57368,-0.92491 -3.87961,-0.47682 -7.75048,-1.04027 -11.66408,-0.9722 -6.03066,-0.22535 -12.05682,-0.6099 -18.07638,-1.07218 -6.88368,-0.46577 -13.76991,-0.37638 -20.66209,-0.55384 -6.82582,-0.26645 -13.63806,-0.79651 -20.43119,-1.59588 -6.93608,-0.6484 -13.89772,-1.21898 -20.86114,-1.17831 -6.76913,0.0352 -13.53846,0.0152 -20.3076,0.0554 -4.97552,0.0238 -9.95094,0.0725 -14.92653,0.0946 -3.38669,0.0346 -6.77532,0.0356 -10.15807,0.2449 -4.27238,0.29142 -8.51786,0.85251 -12.76075,1.47727 -5.58202,0.62956 -11.19483,1.13179 -16.80715,1.15435 -4.30403,0.008 -8.60818,0.022 -12.91109,0.14426 -4.16927,0.14708 -8.34114,0.46343 -12.44692,1.33069 -4.68667,1.02747 -9.35876,2.18269 -14.11878,2.71955 -4.08688,0.58145 -8.21421,0.68869 -12.27664,1.49232 -4.10701,0.81534 -8.214,1.68628 -12.40577,1.69355 -5.37072,-0.0421 -10.74154,-0.0276 -16.11234,-0.0474 -5.36764,-0.0133 -10.74121,-0.077 -16.09552,-0.53939 -5.12612,-0.58188 -10.21031,-1.50036 -15.33843,-2.04798 -4.95194,-0.49852 -9.92074,-0.53672 -14.87762,-0.96941 -4.91703,-0.46823 -9.81717,-1.13802 -14.75125,-1.37082 -4.75342,-0.53555 -9.44555,-1.41794 -14.16642,-2.2105 -5.33028,-0.83796 -10.7124,-1.25805 -15.98483,-2.52032 -5.60729,-1.1546 -11.24261,-2.00624 -16.92914,-2.50753 -3.541,-0.27121 -7.06281,-0.97134 -10.61599,-0.86354 0,0 15.78269,-12.80018 15.78269,-12.80018 z"
       inkscape:connector-curvature="0" />
    <path
       style="fill:#000000"
       id="path3055"
       d="m 620.56806,255.4354 c 0.42839,4.53131 0.75657,9.06017 0.89088,13.61413 0.11545,4.82359 0.19152,9.64714 0.22803,14.4721 0.0319,3.46568 0.0518,6.93145 0.0618,10.39727 -0.0408,3.36069 -0.0194,6.72185 -0.009,10.08267 0.0262,3.16301 -10e-4,6.32572 -0.0135,9.48858 -0.0478,3.65409 -0.0131,7.30876 0.005,10.96297 -0.0558,3.81985 -0.0364,7.63984 -0.0138,11.45989 0.0173,3.11506 -0.0866,6.21686 0.33536,9.30275 0.31454,3.36499 0.81722,6.67858 1.42225,9.99082 0.61585,3.17838 0.75594,6.41932 0.83619,9.65784 0.067,3.25964 0.0737,6.52027 0.0781,9.7806 -0.0475,3.6726 -0.0577,7.34526 -0.0428,11.01816 0.0176,3.2062 0.0293,6.41242 0.0354,9.61866 -0.043,3.34787 -0.0213,6.69626 -0.0112,10.04431 -0.13852,3.00727 0.0914,5.94734 0.53406,8.90693 0.5925,3.36128 0.51603,6.79601 0.80608,10.19034 0.52593,3.58181 0.9105,7.17149 1.10335,10.7938 0.11957,4.21679 0.12205,8.43639 0.14042,12.65484 0.0363,3.70679 0.0499,7.41287 0.007,11.11955 0.003,3.80244 0.008,7.6047 0.009,11.4071 0.21353,3.41843 -0.25824,6.77517 -0.69448,10.14265 -0.38068,2.90683 -0.4857,5.84333 -0.5479,8.77618 -0.0883,3.85588 -0.119,7.71312 -0.10293,11.57019 -0.24252,4.26435 -0.80276,8.49119 -1.05619,12.75536 -0.57858,4.86911 -1.07709,9.73985 -1.36465,14.64207 -0.0826,4.66657 -0.71875,9.28611 -1.49683,13.86181 -0.54243,4.21691 -1.35107,8.38132 -1.95929,12.58572 -0.55941,4.05947 -0.65296,8.17228 -0.689,12.27166 -0.0534,3.85428 -4.9e-4,7.70907 0.0293,11.56332 -0.0231,3.45116 0.004,6.90242 0.018,10.35359 0.0259,3.46229 -0.0299,6.92427 -0.0364,10.38652 0.002,3.93642 -0.0108,7.87283 -0.006,11.80927 -0.0427,3.92173 0.57776,7.79839 0.91388,11.69308 0.51912,4.45064 1.08502,8.88598 1.43312,13.35943 0.3869,3.83462 0.23366,7.6428 -0.21028,11.45487 -0.41853,3.1689 -0.62546,6.36367 -0.73047,9.56253 0.0232,3.44958 -0.64558,6.83329 -0.98593,10.24836 -0.28457,3.24427 -0.33393,6.50544 -0.36318,9.76255 -0.006,3.25391 -0.0198,6.50762 -0.0519,9.76137 -0.0141,3.91766 0.0106,7.83542 -0.008,11.75303 0.069,3.37018 -0.95716,6.52391 -1.70855,9.73179 -0.55785,2.96499 -1.2376,5.90297 -2.05336,8.79245 -0.95286,3.11763 -1.24146,6.38397 -1.39946,9.65159 0,0 -17.17141,9.66349 -17.17141,9.66349 l 0,0 c 0.0973,-3.40143 0.14233,-6.82848 1.07839,-10.10523 0.805,-2.85303 1.62181,-5.71529 2.10204,-8.66194 0.64135,-3.13299 1.80785,-6.1021 2.02999,-9.33296 -0.0202,-3.91193 0.003,-7.82402 -0.0185,-11.736 -0.0379,-3.2456 -0.0683,-6.49146 -0.0388,-9.73735 0.0323,-3.32512 0.0909,-6.65246 0.34235,-9.96762 0.27371,-3.38424 0.91104,-6.71384 1.03353,-10.10121 0.0578,-3.27046 0.15396,-6.54245 0.63536,-9.77738 0.49921,-3.69685 0.87782,-7.34422 0.47775,-11.09083 -0.24957,-4.46783 -0.72037,-8.91018 -1.44106,-13.31588 -0.30266,-3.95963 -0.97772,-7.89215 -0.99292,-11.86642 0.005,-3.93417 -0.008,-7.86834 -0.006,-11.80249 -0.007,-3.44786 -0.0621,-6.8954 -0.0379,-10.3433 0.0116,-3.45355 0.0346,-6.90732 6e-4,-10.36077 0.0174,-3.88205 0.0489,-7.76403 0.0529,-11.64613 0.0619,-4.18031 0.0471,-8.37425 0.51875,-12.52943 0.61513,-4.24378 1.51797,-8.42533 2.04671,-12.68588 0.72354,-4.51639 1.51888,-9.04821 1.64433,-13.64672 0.21922,-4.88919 0.64176,-9.76016 1.27603,-14.60528 0.2269,-4.22492 0.61314,-8.41989 1.08552,-12.6188 0.0107,-3.84396 -0.0425,-7.68697 -0.0539,-11.53084 0.0431,-3.01277 0.1116,-6.03133 0.46341,-9.02283 0.41457,-3.2982 1.11315,-6.55625 0.89064,-9.91167 10e-4,-3.80732 0.007,-7.61444 0.0144,-11.42178 -0.0387,-3.71056 -0.0129,-7.42024 0.0214,-11.13083 0.008,-4.17181 0.0176,-8.34636 -0.15851,-12.51457 -0.16371,-3.58559 -0.49455,-7.15415 -1.02109,-10.69755 -0.39872,-3.3331 -0.33544,-6.71297 -0.86145,-10.03352 -0.46118,-3.07454 -0.88733,-6.10383 -0.65755,-9.23829 0.01,-3.3438 0.0318,-6.68794 -0.0113,-10.03156 0.006,-3.22052 0.018,-6.44101 0.038,-9.66147 0.0178,-3.66076 0.0128,-7.32133 -0.0244,-10.98195 0.0119,-3.24974 0.0365,-6.49988 -0.011,-9.74942 -0.0759,-3.11977 -0.19817,-6.24964 -0.70543,-9.32593 -0.57341,-3.33941 -1.15187,-6.65548 -1.4812,-10.03918 -0.49407,-3.20755 -0.51843,-6.39526 -0.41386,-9.64872 0.0224,-3.81482 0.0424,-7.62958 -0.0138,-11.44419 0.018,-3.65608 0.0528,-7.31261 0.005,-10.96857 -0.0126,-3.15785 -0.0399,-6.31553 -0.0134,-9.47352 0.0105,-3.35899 0.0328,-6.71824 -0.004,-10.07711 0.0154,-3.48942 0.0455,-6.9787 0.0735,-10.46802 0.0216,-4.8214 0.0622,-9.64548 -0.0855,-14.46489 -0.17611,-4.40287 -0.36526,-8.8347 -1.12961,-13.16815 0,0 17.19029,-10.18001 17.19029,-10.18001 z"
       inkscape:connector-curvature="0" />
    <path
       style="fill:#000000"
       id="path3057"
       d="m 162.92812,305.97163 c 9.75459,0.42611 19.52,0.50404 29.28068,0.63304 17.81513,0.0122 35.59573,-1.17362 53.36326,-2.4811 13.24984,-1.07387 26.51926,-1.71773 39.79883,-2.06099 9.70874,-0.43741 19.39735,0.002 29.0923,0.52826 8.47689,0.1578 16.87565,1.43575 25.28804,2.46567 7.51807,0.81618 15.02378,1.76743 22.53001,2.71277 7.67649,0.93678 15.39826,1.19594 23.11336,1.3486 8.37185,0.61244 16.74691,1.09537 25.13382,1.34503 8.99512,0.4505 17.9541,1.40533 26.92823,2.18057 8.82654,0.70882 17.63305,1.59909 26.47548,2.05414 8.78624,0.45758 17.5873,0.17581 26.37183,0.60583 7.28267,0.48004 14.56958,0.84266 21.86322,1.01878 5.43019,0.0759 10.86088,0.0779 16.29139,0.0799 5.74357,0.0128 11.48716,0.0262 17.23072,0.0466 5.81828,0.0368 11.63613,-0.045 17.4543,-0.0627 4.15673,-0.049 8.31364,-0.0432 12.47049,-0.0571 4.07564,0.0236 8.15128,0.006 12.22695,0.0136 3.46765,-0.15077 6.97484,0.25425 10.41619,-0.29992 3.3264,-0.44074 6.5461,-1.46405 9.8463,-2.08251 3.19464,-0.60519 6.48005,-0.22643 9.65535,-0.88562 2.74867,-0.66182 5.54145,-0.98327 8.34755,-1.09001 0,0 -15.55375,12.77257 -15.55375,12.77257 l 0,0 c -2.77501,0.2625 -5.52149,0.71688 -8.27081,1.20707 -3.19102,0.2579 -6.40969,0.25518 -9.56239,0.94471 -3.304,0.70525 -6.57383,1.64811 -9.93842,1.94221 -3.472,0.20639 -6.95082,0.009 -10.42648,0.0515 -4.08684,0.007 -8.17368,-0.009 -12.2605,0.0136 -4.10994,-0.0139 -8.21995,-0.007 -12.32978,-0.057 -5.76876,-0.017 -11.5372,-0.0982 -17.30608,-0.0567 -5.78912,0.0252 -11.57828,0.0492 -17.36742,0.0603 -5.38634,-0.0116 -10.77387,-0.033 -16.15727,-0.25538 -7.22159,-0.25896 -14.43211,-0.73089 -21.64344,-1.22888 -8.77528,-0.34898 -17.56208,-0.16545 -26.33496,-0.65329 -8.84712,-0.46894 -17.65694,-1.40431 -26.48877,-2.12082 -8.96553,-0.77554 -17.92187,-1.71388 -26.91275,-2.06732 -8.41147,-0.27053 -16.81133,-0.75333 -25.21356,-1.25762 -7.76256,-0.17044 -15.52775,-0.44117 -23.24381,-1.48287 -7.51831,-0.94278 -15.04363,-1.80983 -22.5681,-2.68827 -8.30289,-1.11254 -16.60017,-2.37889 -24.97741,-2.54253 -9.62227,-0.49086 -19.2411,-0.85022 -28.87566,-0.53947 -13.01095,0.18495 -26.01868,0.63671 -39.00773,1.52352 -17.85457,1.18619 -35.71974,2.22561 -53.60694,2.52946 -10.28113,0.13159 -20.56602,0.22018 -30.84177,0.63305 0,0 15.7095,-12.74083 15.7095,-12.74083 z"
       inkscape:connector-curvature="0" />
    <path
       style="fill:#000000"
       id="path3059"
       d="m 150.85122,656.64062 c 6.27959,-0.87954 12.582,-1.44202 18.90788,-1.77573 12.00185,-0.69847 23.99521,0.30815 35.96905,1.11461 18.61131,1.76183 37.27371,2.51967 55.94153,2.9786 19.28652,0.29881 38.5405,-1.05233 57.80138,-1.90538 14.69423,-1.00972 29.39407,-1.82025 44.11199,-2.21118 13.67379,-0.021 27.33412,-0.67487 40.9963,-1.23729 9.78243,-0.41596 19.57032,-0.64172 29.35904,-0.75403 6.41501,0.0633 12.84673,-0.39732 19.25128,0.0938 5.49092,0.59155 10.99653,0.94238 16.51014,1.10225 4.46519,0.0778 8.89606,0.83112 13.34807,1.21106 5.22508,0.32859 10.33594,1.69068 15.46417,2.76861 8.34275,1.28301 16.6958,2.48137 25.01961,3.9256 8.44858,1.32473 16.89999,2.61487 25.40575,3.38385 6.73519,0.56228 13.49083,0.64892 20.24152,0.61748 3.90711,-0.0282 7.81408,-0.0731 11.72113,-0.11164 2.76359,-0.0264 5.52728,-0.0319 8.29094,-0.0349 2.66633,0.002 5.33271,-0.0135 7.99894,0.0141 3.08432,0.002 6.1686,0.009 9.25289,0.0146 2.97821,-0.003 5.95641,-0.0162 8.93463,-0.0228 0.38182,-0.10192 0.76365,-0.20357 1.14548,-0.30535 0,0 -15.53425,12.94736 -15.53425,12.94736 l 0,0 c -0.41854,0.0152 -0.83705,0.0307 -1.25558,0.0459 -2.95951,-0.006 -5.91903,-0.019 -8.87854,-0.0228 -3.09625,0.004 -6.19246,0.0127 -9.28871,0.0144 -2.67793,0.027 -5.35598,0.0114 -8.03401,0.0157 -2.74297,-6e-5 -5.48593,9e-5 -8.2289,-0.009 -3.82688,-0.0168 -7.65425,-0.0287 -11.48045,-0.1148 -6.68521,-0.17456 -13.37721,-0.33948 -20.04204,-0.98713 -8.46542,-0.95123 -16.9,-2.203 -25.31351,-3.61271 -8.42298,-1.42096 -16.88631,-2.45496 -25.3209,-3.76084 -5.21762,-1.02575 -10.44009,-2.02235 -15.74184,-2.31665 -4.35681,-0.51014 -8.70346,-1.21367 -13.09218,-1.26906 -5.50857,-0.26303 -11.00897,-0.63179 -16.5023,-1.1677 -6.29449,-0.31684 -12.6016,-0.11692 -18.90074,-0.21392 -9.59484,0.0169 -19.19003,0.0698 -28.78225,0.34938 -13.63508,0.40415 -27.26388,1.04908 -40.90542,1.14317 -14.57293,0.3822 -29.13339,1.09201 -43.69205,1.89997 -19.12584,0.71793 -38.2517,1.7339 -57.39469,1.441 -18.90651,-0.39867 -37.81052,-0.97036 -56.67793,-2.46183 -12.18562,-0.61453 -24.39948,-1.2944 -36.58806,-0.33761 -6.56117,0.50012 -13.10741,1.1951 -19.5694,2.6083 0,0 15.55203,-13.05652 15.55203,-13.05652 z"
       inkscape:connector-curvature="0" />
    <path
       style="fill:#000000"
       id="path3065"
       d="m 204.82483,317.11785 c 0.37854,5.50511 1.09438,10.96903 1.58154,16.4631 0.90099,9.48539 0.14734,18.9654 -0.57216,28.42423 -1.54428,16.17829 -2.84459,32.37677 -3.67692,48.62037 -0.62022,14.1633 -0.64698,28.34492 -0.58735,42.52108 0.0636,10.33834 0.04,20.67704 0.0646,31.01556 -0.006,10.10799 0.008,20.2159 0.0398,30.32383 0.11033,8.8938 -0.14395,17.79621 0.23577,26.68278 0.29344,6.70998 0.96414,13.36805 1.68953,20.03164 0.63008,6.45794 0.74278,12.95394 0.84539,19.44263 -0.0742,5.82728 0.21567,11.62228 0.66493,17.42306 0.23046,5.64059 0.94311,11.22858 1.46858,16.8385 0.39443,4.07018 0.607,8.15673 0.70939,12.24779 0.0124,3.41702 0.0255,6.83404 0.0328,10.25108 0.005,3.31158 -0.0253,6.62264 -0.0188,9.9343 0.006,2.18083 0.003,1.09766 0.009,3.24944 0,0 -17.21541,9.79135 -17.21541,9.79135 l 0,0 c 0.007,-2.15964 0.003,-1.07255 0.0105,-3.26129 0.009,-3.30827 -0.0191,-6.61612 -0.004,-9.92432 0.0163,-3.40801 0.049,-6.81652 -0.002,-10.22434 -0.0211,-4.07908 -0.0914,-8.16058 -0.40324,-12.22712 -0.47187,-5.62962 -1.20243,-11.22728 -1.44895,-16.87849 -0.46104,-5.87094 -0.81965,-11.71923 -0.61884,-17.62007 -0.0734,-6.41331 -0.20652,-12.83613 -0.82085,-19.21844 -0.66772,-6.75357 -1.32631,-13.50061 -1.52225,-20.29865 -0.31899,-8.95082 -0.005,-17.91638 -0.081,-26.87267 0.0282,-10.11727 0.0373,-20.23453 0.0127,-30.35182 0.006,-10.37232 -0.0579,-20.74561 0.0832,-31.11711 0.22882,-14.33456 0.56436,-28.66891 1.22301,-42.98787 0.76287,-16.13308 2.00567,-32.22437 3.08979,-48.3333 0.51692,-9.24186 0.99638,-18.48935 0.0437,-27.72427 -0.47128,-5.37959 -1.19327,-10.71839 -2.02395,-16.04097 0,0 17.19027,-10.18001 17.19027,-10.18001 z"
       inkscape:connector-curvature="0" />
    <path
       style="fill:#000000"
       id="path3067"
       d="m 566.56526,328.83796 c -0.22625,5.75968 -0.30337,11.5252 -0.41194,17.28879 -0.50625,10.5865 -0.94119,21.17206 -1.10664,31.77258 -0.0814,7.49679 0.0501,14.97506 -0.44625,22.45528 -0.45086,8.14793 -1.27565,16.25897 -1.77579,24.40264 -0.36133,9.54044 -0.70527,19.07463 -1.2004,28.60864 -0.7449,9.07853 -1.35029,18.1685 -2.15033,27.24117 -1.07494,9.45016 -1.82885,18.93154 -2.19678,28.44769 -0.28009,7.58164 -0.22608,15.17067 -0.23292,22.75651 0.0111,6.22765 0.0603,12.45464 0.0609,18.68224 0.19281,5.86588 -0.30739,11.7037 -0.71917,17.54288 -0.22905,4.79819 -0.96039,9.53749 -1.39711,14.31345 -0.29649,4.49733 -0.93256,8.95184 -1.33055,13.43872 -0.32598,4.01031 -0.34172,8.04058 -0.34893,12.064 -0.0197,3.43643 -0.0126,6.87269 0.004,10.30914 0.0162,3.05966 0.0224,6.11937 0.0259,9.17906 -0.1802,3.0647 0.12292,6.04979 0.51134,9.07229 0.45746,3.96184 0.6136,7.95147 0.67923,11.94174 0.0645,3.69986 0.0992,7.4002 0.11746,11.10066 0.0102,2.51974 0.0106,5.03953 0.011,7.55929 0,0 -17.24594,9.80732 -17.24594,9.80732 l 0,0 c 0.004,-2.52634 0.009,-5.05267 0.0242,-7.57895 0.0219,-3.70686 0.0611,-7.41412 0.0136,-11.12091 -0.0894,-3.88364 -0.17065,-7.78013 -0.67343,-11.63087 -0.45218,-3.10511 -0.89029,-6.17947 -0.68099,-9.34227 0.002,-3.06657 0.006,-6.13314 0.0148,-9.19969 0.009,-3.44642 -10e-4,-6.89287 0.008,-10.33912 0.0536,-4.09401 0.15619,-8.18738 0.37385,-12.27512 0.33228,-4.50287 1.09553,-8.94789 1.34525,-13.45442 0.36901,-4.80867 1.24322,-9.53766 1.5208,-14.35151 0.43007,-5.80076 1.09104,-11.59062 0.85378,-17.42499 -0.0102,-6.24776 0.0169,-12.49509 0.0331,-18.74289 0.0211,-7.65992 0.1371,-15.32037 0.42481,-22.97412 0.46305,-9.55042 1.15872,-19.07723 2.24474,-28.56747 0.64576,-9.06218 1.35634,-18.1187 2.13987,-27.16792 0.52448,-9.532 1.00263,-19.05728 1.18365,-28.60711 0.41837,-8.10225 1.09912,-16.1786 1.51822,-24.27963 0.4723,-7.50806 0.60391,-15.0238 0.7908,-22.54755 0.37505,-10.55635 0.81214,-21.1112 1.04778,-31.67283 -0.10795,-5.60739 -0.18292,-11.21693 -0.41194,-16.82019 0,0 17.38219,-9.88653 17.38219,-9.88653 z"
       inkscape:connector-curvature="0" />
    <path
       style="fill:#000000"
       id="path3069"
       d="m 244.21067,665.37258 c 6.82638,-6.01182 13.61514,-12.05596 20.23052,-18.36389 14.00147,-14.17878 27.821,-28.58269 41.54939,-43.09017 10.4564,-11.16495 20.64138,-22.64855 30.67335,-34.2879 6.71822,-7.77762 14.21667,-14.61371 22.0382,-20.94811 7.22174,-5.62025 14.61814,-10.94403 21.83035,-16.57928 5.85377,-4.70999 11.69265,-9.44635 17.32245,-14.48687 5.68941,-5.41996 11.61377,-10.53544 17.70428,-15.38002 5.38223,-4.16058 10.77174,-8.31979 15.94948,-12.79458 4.35335,-4.11139 8.87064,-7.93769 13.63595,-11.42914 4.0316,-2.86898 8.11308,-5.64775 11.98828,-8.77763 3.93892,-2.96371 7.22752,-6.80151 10.66974,-10.41557 4.1911,-3.96413 8.46708,-7.81363 12.82517,-11.5462 4.52403,-3.79062 8.73703,-8.01312 13.0504,-12.0911 4.05378,-3.93039 8.23704,-7.67688 12.54719,-11.24925 2.97156,-2.39764 6.13378,-4.45624 9.07281,-6.90331 7.74861,-6.23742 15.73166,-12.97524 24.8612,-16.2473 2.6784,-1.32586 5.33927,-2.74315 7.90271,-4.33437 6.68792,-3.44957 2.04719,-1.10811 -14.07572,9.14516 -0.73899,0.46995 1.45666,-0.98076 2.19249,-1.4569 17.91003,-11.58915 11.5804,-8.06535 18.9817,-12.13861 0.45894,-0.29722 0.91787,-0.59446 1.37681,-0.8917 -0.87406,0.7235 3.84399,-2.3131 2.89755,-1.70531 -27.64862,17.75556 -17.5656,12.3924 -12.70376,7.63989 1.7295,-1.92971 2.10719,-4.49562 2.40261,-7.08637 0,0 17.29193,-9.58046 17.29193,-9.58046 l 0,0 c -0.22084,2.87625 -0.44054,5.88198 -1.86873,8.37322 -6.09949,8.35741 -16.23273,11.37448 -24.45115,16.74757 -5.98097,3.71503 -8.04775,5.01038 14.1219,-9.1845 0.74469,-0.47682 -1.44688,1.03326 -2.19122,1.51075 -18.31062,11.7466 -11.64988,7.91175 -19.02528,12.1251 -2.6443,1.47187 -5.27233,3.00446 -8.05161,4.14201 -6.63077,3.36287 -1.47019,0.8039 13.85229,-9.18181 3.27463,-2.13409 -9.02817,5.75875 -5.61813,4.19171 -3.01722,2.48321 -6.04756,4.86611 -9.2828,7.00144 -4.35838,3.57089 -8.67947,7.19182 -12.73775,11.18844 -4.32169,4.04033 -8.45986,8.33797 -12.95694,12.13504 -4.27571,3.78076 -8.61125,7.46752 -12.81602,11.35763 -3.51189,3.51474 -6.61262,7.57372 -10.51029,10.58225 -3.84469,3.27186 -7.94004,6.12436 -12.05675,8.94782 -4.81424,3.4793 -9.54282,7.04514 -13.84396,11.30801 -5.12028,4.65961 -10.62158,8.77916 -16.04724,12.97855 -6.16669,4.69946 -12.09414,9.83026 -17.76988,15.24224 -5.59132,5.16183 -11.45695,9.91512 -17.33535,14.65961 -7.28843,5.65129 -14.69877,11.0838 -22.04181,16.64568 -7.92697,6.23901 -15.5005,13.04162 -22.37133,20.70117 -10.3653,11.88393 -21.07832,23.39206 -31.78265,34.89288 -13.55143,14.31148 -27.22996,28.47261 -40.75486,42.81543 -4.24748,4.20328 -8.46889,8.49638 -12.90652,12.45366 -1.48366,1.32309 -3.21289,2.52868 -4.61247,3.99773 -0.38065,0.39953 -0.68595,0.87999 -1.02893,1.31999 0,0 -18.1276,8.04737 -18.1276,8.04737 z"
       inkscape:connector-curvature="0" />
    <path
       style="fill:#000000"
       id="path3071"
       d="m 516.72713,338.59539 c 5.20133,-3.3185 20.78491,-13.31348 15.60395,-9.95551 -6.05288,3.92312 -12.13334,7.79319 -18.21982,11.65097 -1.45677,0.92333 -2.94446,1.78499 -4.40127,2.70825 -0.88996,0.56402 -3.56801,2.23993 -2.67816,1.67571 4.43228,-2.81031 8.87029,-5.60933 13.30543,-8.414 -5.76478,4.14592 -11.32127,8.62602 -16.91811,13.04416 -5.12672,3.96013 -10.27352,7.89509 -15.21503,12.14087 -4.9584,4.02444 -9.58564,8.5078 -14.20439,12.99708 -4.12745,4.07026 -8.37597,7.98757 -12.61275,11.91623 -3.11815,2.8407 -6.28841,5.61454 -9.27786,8.6244 -3.30419,3.2206 -6.27999,6.81839 -9.51402,10.12239 -3.83707,3.63832 -7.54593,7.4368 -11.34356,11.12636 -3.0374,3.14176 -6.14801,6.18727 -9.12858,9.39742 -2.96588,2.9714 -5.97943,5.88881 -9.01446,8.77279 -3.49867,3.34764 -7.4018,6.09867 -11.24384,8.9171 -4.11151,3.08418 -8.17381,6.2493 -12.28784,9.32801 -4.55659,3.18008 -8.91948,6.6745 -13.23019,10.24998 -4.29231,3.12852 -8.52654,6.35266 -12.7485,9.59778 -4.11144,3.19161 -8.06392,6.58014 -11.78646,10.31746 -3.89077,4.02671 -7.29432,8.5801 -10.95001,12.86192 -3.84888,4.27526 -7.4446,8.8222 -11.4201,12.9534 -3.34249,3.29254 -6.91063,6.30012 -10.55724,9.15931 -60.40071,38.71699 10.67626,-6.5831 -4.71244,3.15564 -6.05496,3.83187 -12.08587,7.71217 -18.18219,11.4614 -0.59462,0.3657 -3.61638,1.6214 -4.1316,1.84081 -5.17373,2.51991 -10.53247,4.60375 -15.57726,7.436 -6.72205,3.7252 -6.1826,3.48704 11.90184,-7.74497 0.70461,-0.43762 -1.36469,0.9596 -2.03448,1.46075 -1.86703,1.39702 -3.62309,2.9305 -5.36772,4.50857 -3.25122,2.94847 -6.02307,6.45294 -8.62075,10.10134 -2.31902,3.11529 -4.51679,6.33333 -6.71103,9.5581 -2.663,3.68112 -4.92138,7.69324 -7.37807,11.54293 -2.17814,3.7055 -4.2501,7.47583 -6.50617,11.12428 -1.55526,2.59629 -3.06446,5.23756 -4.89423,7.60668 -5.11069,6.27698 -20.19841,14.15577 -22.65768,15.73137 28.2387,-19.60071 15.39481,-9.56032 8.87977,-5.27275 -3.08098,2.07375 -6.13646,4.21146 -9.05809,6.55744 -2.72277,2.14483 -5.29375,4.51307 -7.9044,6.82128 -2.25926,1.80919 -4.21633,4.01047 -6.32499,6.01628 -1.71262,1.54529 -0.83533,0.78702 -2.63322,2.27284 0,0 -17.89735,7.91949 -17.89735,7.91949 l 0,0 c 1.77626,-1.43795 0.8926,-0.7384 2.65002,-2.1002 2.12176,-2.05546 4.12369,-4.21408 6.31821,-6.17244 2.73198,-2.14473 5.14026,-4.77043 7.92851,-6.82556 2.84794,-2.49124 5.92248,-4.58853 8.95266,-6.78611 8.14454,-5.17157 15.25552,-11.78602 24.11383,-15.9403 -28.45401,18.40287 -16.05305,10.98176 -10.20856,6.23597 1.77569,-2.43981 3.70499,-4.75196 5.10619,-7.51705 2.35558,-3.63672 4.55243,-7.36184 6.64791,-11.19305 2.42495,-3.86319 4.68243,-7.8458 7.25506,-11.57747 2.22337,-3.1884 4.22483,-6.57516 6.68512,-9.54933 2.55262,-3.80117 5.34924,-7.4131 8.53308,-10.57223 8.39787,-7.96707 18.06526,-14.12874 28.02875,-19.37017 5.19695,-2.59657 10.4911,-4.94245 15.73679,-7.41331 6.58906,-3.11609 15.34349,-9.30296 -10.57723,7.5481 -0.52194,0.3393 1.03574,-0.69407 1.55826,-1.03224 5.97885,-3.86944 11.8936,-7.86586 17.94576,-11.59057 4.97285,-3.06049 -9.80467,6.39821 -14.707,9.59731 3.69364,-2.84198 7.35895,-5.74469 10.78735,-8.98189 4.14291,-3.97567 7.71358,-8.57727 11.59536,-12.85793 3.66817,-4.25253 7.03987,-8.79153 10.79091,-12.95842 3.73522,-3.7535 7.50982,-7.38962 11.67444,-10.55671 4.2181,-3.28614 8.43647,-6.6025 12.83876,-9.57009 4.32761,-3.54093 8.58211,-7.19233 13.14274,-10.36398 4.20995,-2.8623 8.11878,-6.27076 12.25113,-9.27607 3.78556,-2.8161 7.71833,-5.42436 11.22933,-8.66879 3.08608,-2.75506 5.93549,-5.82842 9.02162,-8.58794 3.00466,-3.28744 6.17263,-6.3578 9.22548,-9.5724 3.80443,-3.67569 7.53226,-7.44321 11.36067,-11.08058 3.23493,-3.26431 6.19755,-6.81498 9.44572,-10.05371 2.9081,-3.17973 6.11303,-5.9676 9.29041,-8.80467 4.3829,-3.83012 8.60983,-7.87758 12.82933,-11.91988 4.6021,-4.53347 9.19325,-9.10112 14.18421,-13.10166 4.85574,-4.41117 10.07338,-8.30644 15.22439,-12.27134 5.61898,-4.40289 11.16561,-8.90613 16.89954,-13.12505 6.28186,-4.13841 12.55637,-8.29071 18.84555,-12.41523 1.15901,-0.76008 3.87054,-2.45861 5.14149,-3.22364 0.74914,-0.45093 2.99022,-1.81446 2.26033,-1.32575 -0.96567,0.6466 -43.23621,28.39423 2.89967,-1.93483 0,0 -15.25292,13.61965 -15.25292,13.61965 z"
       inkscape:connector-curvature="0" />
    <path
       style="fill:#000000"
       id="path3073"
       d="m 312.53818,583.1847 c -1.12353,2.30831 -2.23507,4.57075 -3.84759,6.49702 0,0 -17.94228,8.10576 -17.94228,8.10576 l 0,0 c 1.93958,-1.4234 3.03017,-3.28156 3.99412,-5.6152 0,0 17.79575,-8.98758 17.79575,-8.98758 z"
       inkscape:connector-curvature="0" />
    <path
       style="fill:#000000"
       id="path3075"
       d="m 395.68798,495.73876 c -2.57621,1.87625 -5.70424,2.76599 -8.75394,2.8929 0,0 15.50678,-12.84092 15.50678,-12.84092 l 0,0 c 3.05733,-0.58637 5.85546,-1.86555 8.50007,-3.6716 0,0 -15.25291,13.61962 -15.25291,13.61962 z"
       inkscape:connector-curvature="0" />
    <path
       style="fill:#000000"
       id="path3077"
       d="m 513.93954,378.77136 c -0.1522,2.35563 -0.8082,4.61346 -1.48326,6.83461 0,0 -17.50701,9.03917 -17.50701,9.03917 l 0,0 c 0.79305,-1.89202 1.38602,-3.9037 1.60808,-5.98723 0,0 17.38219,-9.88655 17.38219,-9.88655 z"
       inkscape:connector-curvature="0" />
    <path
       style="fill:#000000"
       id="path3079"
       d="m 168.02232,263.70391 c 1.44293,0.27865 2.82661,0.82677 4.23779,1.25537 0,0 -15.87114,12.19061 -15.87114,12.19061 l 0,0 c -1.44241,-0.40615 -2.88617,-0.81604 -4.36893,-0.9989 0,0 16.00228,-12.44708 16.00228,-12.44708 z"
       inkscape:connector-curvature="0" />
    <path
       style="fill:#000000"
       id="path3081"
       d="m 195.66641,289.54629 c 0.22007,0.34462 0.44014,0.68925 0.66023,1.03387 0,0 -16.67998,11.137 -16.67998,11.137 l 0,0 c -0.21438,-0.25748 -0.42878,-0.51496 -0.64317,-0.77244 0,0 16.66292,-11.39843 16.66292,-11.39843 z"
       inkscape:connector-curvature="0" />
    <path
       style="fill:#000000"
       id="path3083"
       d="m 166.72226,674.32728 c 0.91903,1.43913 0.46362,0.67201 1.35385,2.31051 0,0 -16.74011,10.90149 -16.74011,10.90149 l 0,0 c -0.81041,-1.33191 -0.37761,-0.73383 -1.27665,-1.81357 0,0 16.66291,-11.39843 16.66291,-11.39843 z"
       inkscape:connector-curvature="0" />
    <path
       style="fill:#000000"
       id="path3085"
       d="m 203.56026,709.57439 c 0.87326,0.81263 1.65958,1.70526 2.53963,2.51154 0,0 -16.42516,11.46551 -16.42516,11.46551 l 0,0 c -0.91969,-0.8678 -1.81363,-1.77112 -2.77738,-2.57862 0,0 16.66291,-11.39843 16.66291,-11.39843 z"
       inkscape:connector-curvature="0" />
    <path
       style="fill:#000000"
       id="path3087"
       d="m 569.30904,687.54495 c 1.12874,1.17273 2.22204,2.29218 3.53802,3.20105 0,0 -16.31379,11.6581 -16.31379,11.6581 l 0,0 c -1.35575,-1.07761 -2.58568,-2.30556 -3.88716,-3.46072 0,0 16.66293,-11.39843 16.66293,-11.39843 z"
       inkscape:connector-curvature="0" />
    <path
       style="fill:#000000"
       id="path3089"
       d="m 594.29073,712.04293 c 1.32966,0.65434 0.61801,0.34016 2.14233,0.92136 0,0 -16.0305,12.0994 -16.0305,12.0994 l 0,0 c -1.69534,-0.68146 -0.8867,-0.33306 -2.42897,-1.03623 0,0 16.31714,-11.98453 16.31714,-11.98453 z"
       inkscape:connector-curvature="0" />
    <path
       style="fill:#000000"
       id="path3091"
       d="m 577.18738,269.98538 c 1.20693,1.09315 0.57414,0.58032 1.90067,1.53491 0,0 -16.2964,11.70865 -16.2964,11.70865 l 0,0 c -1.35202,-0.93893 -0.70836,-0.52541 -1.92141,-1.25904 0,0 16.31714,-11.98452 16.31714,-11.98452 z"
       inkscape:connector-curvature="0" />
    <path
       style="fill:#000000"
       id="path3093"
       d="m 599.56883,298.35807 c 0.25022,0.31438 0.50046,0.62874 0.75068,0.94311 0,0 -16.54614,11.31854 -16.54614,11.31854 l 0,0 c -0.28915,-0.28775 -0.57831,-0.57549 -0.86747,-0.86323 0,0 16.66293,-11.39842 16.66293,-11.39842 z"
       inkscape:connector-curvature="0" />
    <path
       style="fill:#000000"
       id="path3097"
       d="m 252.33132,323.65124 c -0.0463,3.93313 -0.0431,7.86675 -0.0384,11.80013 0.17149,4.95065 -0.18376,9.86329 -0.59901,14.78552 -0.3961,4.84673 -0.48012,9.70179 -1.03526,14.53055 -0.53168,4.12955 -0.77962,8.29016 -0.91047,12.45633 -0.0969,4.04136 -0.0902,8.08483 -0.1027,12.12735 -6e-4,5.13733 -0.01,10.27458 7.1e-4,15.4119 0.0147,5.14557 0.001,10.29111 -0.007,15.43667 -0.006,5.99814 -0.004,11.9963 -0.003,17.99444 0.33744,5.90959 0.82082,11.80388 1.07312,17.72009 0.20503,5.93512 0.23295,11.87572 0.25044,17.81454 0.013,5.26401 0.006,10.52802 0.0164,15.79204 0.009,3.5653 0.0164,7.1306 0.0199,10.69591 -0.004,3.30487 -0.006,6.60973 -0.003,9.9146 0.003,3.06115 0.004,6.12232 0.005,9.18347 5.4e-4,2.93933 5.1e-4,5.87864 5.2e-4,8.81796 -0.0222,3.75243 -0.01,7.50492 -0.0151,11.25737 0.005,3.67636 0.004,7.35272 0.004,11.02907 0.002,3.31475 0.007,6.62952 0.009,9.94429 0,0 -4.59484,2.61343 -4.59484,2.61343 l 0,0 c 0.002,-3.31822 0.007,-6.63646 0.009,-9.95469 -5.7e-4,-3.67779 -8.9e-4,-7.35559 0.004,-11.03338 -0.006,-3.74673 0.007,-7.49348 -0.0151,-11.24015 1e-5,-2.93952 -2e-5,-5.87903 5.1e-4,-8.81855 7.1e-4,-3.06297 0.002,-6.12593 0.005,-9.18891 0.002,-3.30382 10e-4,-6.60762 -0.003,-9.91144 0.005,-3.57445 0.0138,-7.14889 0.0277,-10.72333 0.0169,-5.26997 0.0216,-10.54 0.0193,-15.81 -0.0146,-5.93198 -0.0257,-11.86588 -0.23738,-17.79412 -0.24604,-5.92523 -0.71703,-11.82887 -1.08124,-17.74523 8.4e-4,-5.99689 0.003,-11.9938 -0.003,-17.99068 -0.009,-5.14196 -0.0225,-10.28387 -0.0112,-15.42584 0.006,-5.13438 -0.009,-10.26869 -0.0166,-15.40308 -0.013,-4.04436 -0.0225,-8.08913 0.0716,-12.13261 0.13607,-4.18529 0.36952,-8.36529 0.90532,-12.51427 0.58323,-4.82518 0.6944,-9.67632 1.06673,-14.52535 0.42585,-4.90109 0.78177,-9.79066 0.59258,-14.72116 0.005,-3.91884 0.008,-7.83791 -0.0384,-11.75646 0,0 4.63525,-2.63641 4.63525,-2.63641 z"
       inkscape:connector-curvature="0" />
    <path
       style="fill:#000000"
       id="path3099"
       d="m 309.03576,319.38189 c 0.66426,6.08854 0.71304,12.22793 1.0956,18.33972 0.69587,8.33311 0.96367,16.69741 1.1587,25.0603 0.52456,8.76048 0.99185,17.52195 1.21518,26.29912 0.42225,8.56255 -0.11933,17.11162 -0.52695,25.65809 -0.1441,7.49147 -0.83452,14.94384 -1.29306,22.41463 -0.32547,7.04989 -1.05707,14.06369 -1.46772,21.108 -0.4787,4.59826 -1.09537,9.17354 -1.42178,13.79005 -0.21777,3.67436 -0.23027,7.35828 -0.2527,11.03899 -0.009,4.25245 -0.006,8.50494 0.005,12.75739 0.0104,3.40748 0.0172,6.81498 0.0206,10.2225 -0.0166,2.03519 -0.033,4.05703 0.14138,6.0831 0,0 -4.56272,2.66385 -4.56272,2.66385 l 0,0 c -0.21486,-2.04247 -0.20098,-4.07699 -0.17373,-6.13331 0.003,-3.41351 0.007,-6.82702 0.012,-10.24051 0.003,-4.25234 -0.009,-8.50464 -0.01,-12.75697 -10e-4,-3.6936 0.0173,-7.38954 0.23648,-11.07676 0.30822,-4.63231 0.96013,-9.21694 1.48909,-13.82208 0.44513,-7.04998 1.18721,-14.07183 1.50745,-21.13014 0.44635,-7.47302 1.16106,-14.92398 1.31196,-22.41649 0.41235,-8.54059 1.01136,-17.08192 0.58757,-25.64039 -0.25172,-8.77303 -0.69197,-17.53186 -1.241,-26.28782 -0.17352,-8.35129 -0.4643,-16.70128 -1.1753,-25.02047 -0.41411,-6.06461 -0.43658,-12.16984 -1.23964,-18.19612 0,0 4.58407,-2.71468 4.58407,-2.71468 z"
       inkscape:connector-curvature="0" />
    <path
       style="fill:#000000"
       id="path3101"
       d="m 368.24099,325.06937 c 0.68211,4.94927 0.82314,9.96272 0.96125,14.95948 0.15102,7.47239 0.13052,14.94723 0.13246,22.42102 -0.007,7.40332 0.0138,14.80661 0.0175,22.20993 0.23041,5.56088 -0.3507,11.08425 -0.7653,16.61438 -0.37281,5.211 -0.45784,10.43944 -0.51444,15.66428 -0.0458,4.93478 -0.0251,9.86984 -0.007,14.80475 0.0785,3.39359 -0.12562,6.79925 0.16049,10.18112 0.55404,3.29419 0.65976,6.66166 1.16367,9.95804 0.61416,2.88014 0.98599,5.80051 1.18428,8.74952 0,0 -4.58366,2.65403 -4.58366,2.65403 l 0,0 c -0.18494,-2.9336 -0.53705,-5.8413 -1.14963,-8.70561 -0.51976,-3.30799 -0.60644,-6.69147 -1.17316,-9.99792 -0.33107,-3.40016 -0.11538,-6.8266 -0.16696,-10.24225 0.0113,-4.94413 0.022,-9.88828 0.0422,-14.83237 0.0462,-5.23708 0.13523,-10.47664 0.49714,-15.70059 0.41388,-5.52433 1.01827,-11.03956 0.82531,-16.59565 0.009,-7.41191 0.04,-14.82376 0.0292,-22.23569 -0.01,-7.45812 -0.014,-14.91746 -0.18105,-22.3737 -0.14698,-4.94297 -0.28376,-9.91491 -1.05925,-14.79536 0,0 4.58668,-2.73741 4.58668,-2.73741 z"
       inkscape:connector-curvature="0" />
    <path
       style="fill:#000000"
       id="path3103"
       d="m 416.91977,325.06937 c 1.31344,4.88692 2.27108,9.84895 3.132,14.85558 1.07151,6.00498 1.53546,12.10231 1.79592,18.20832 0.0879,5.06174 0.35041,10.13993 0.0309,15.19527 -0.2237,4.04393 -1.13562,7.96392 -1.7926,11.93186 -0.51046,3.45646 -0.61649,6.9625 -0.67967,10.45799 0.0143,3.06043 -0.62437,6.06157 -0.95648,9.08965 -0.18074,2.62924 -0.92515,5.1431 -1.29484,7.7423 -0.18264,1.75795 -0.15172,0.87655 -0.0929,2.64419 0,0 -4.59296,2.64616 -4.59296,2.64616 l 0,0 c -0.11046,-1.85547 -0.12762,-0.94 0.0416,-2.74666 0.34022,-2.60835 1.08945,-5.11229 1.31329,-7.73209 0.31724,-3.01738 0.96618,-6.00081 0.98754,-9.04326 0.0644,-3.52434 0.17642,-7.05639 0.65242,-10.54689 0.65338,-3.96097 1.60235,-7.86101 1.8483,-11.89533 0.37908,-5.03544 0.0874,-10.10584 0.031,-15.15213 -0.23979,-6.08322 -0.66734,-12.16343 -1.74566,-18.14403 -0.88622,-4.985 -1.77741,-9.95603 -3.26452,-14.77352 0,0 4.58667,-2.73741 4.58667,-2.73741 z"
       inkscape:connector-curvature="0" />
    <path
       style="fill:#000000"
       id="path3105"
       d="m 480.07065,328.00662 c 0.53756,3.33854 0.81583,6.71634 1.00215,10.09881 0.16081,3.41714 0.15351,6.84042 0.16338,10.26121 0.006,3.12956 0.003,6.25915 0.001,9.38873 0.0117,1.98425 0.0442,3.95478 -0.14563,5.92827 0,0 -4.62615,2.55407 -4.62615,2.55407 l 0,0 c 0.23247,-1.95144 0.18218,-3.90042 0.17408,-5.86786 0.004,-3.13159 0.0107,-6.26316 0.0129,-9.39474 -0.003,-3.41113 -0.007,-6.82383 -0.15014,-10.23202 -0.1703,-3.35056 -0.4136,-6.70573 -1.01832,-9.99905 0,0 4.58666,-2.73742 4.58666,-2.73742 z"
       inkscape:connector-curvature="0" />
    <path
       style="fill:#000000"
       id="path3107"
       d="m 311.52988,611.6814 c -0.2205,4.66387 0.10938,9.29327 0.54192,13.92693 0.35448,4.1704 0.50271,8.34168 1.06058,12.48534 0.516,3.41718 0.78664,6.86696 0.93114,10.32568 0.0992,2.98674 0.0951,5.97607 0.0955,8.96439 -0.002,1.95524 -5.9e-4,0.97775 -0.003,2.93244 0,0 -4.59963,2.61529 -4.59963,2.61529 l 0,0 c 0.002,-1.95441 10e-4,-0.9771 0.003,-2.93192 9.3e-4,-2.98187 0.007,-5.96461 -0.0788,-8.94533 -0.12833,-3.44357 -0.37249,-6.88101 -0.88465,-10.28333 -0.57631,-4.15755 -0.69717,-8.34037 -1.04141,-12.52843 -0.41737,-4.63719 -0.76894,-9.26386 -0.64965,-13.93076 0,0 4.6245,-2.6303 4.6245,-2.6303 z"
       inkscape:connector-curvature="0" />
    <path
       style="fill:#000000"
       id="path3109"
       d="m 383.89561,538.07119 c -0.0475,4.57044 -0.0561,9.14137 -0.0653,13.71209 -0.0201,7.59497 -0.0358,15.18994 -0.0319,22.78492 0.23586,6.87509 -0.30976,13.71896 -0.75004,20.56706 -0.0291,4.34035 -0.7336,8.59205 -1.25755,12.8746 -0.39976,3.53924 -1.13175,7.00321 -1.48996,10.55291 -0.30291,3.55757 -0.35219,7.13281 -0.37904,10.70361 -0.027,3.47047 -0.004,6.94106 -0.007,10.41159 -0.004,3.75327 5.7e-4,7.50653 0.007,11.25979 0.003,1.6192 0.005,3.2384 0.006,4.8576 0,0 -4.59317,2.61248 -4.59317,2.61248 l 0,0 c 0.002,-1.62134 0.003,-3.24272 0.005,-4.86408 0.005,-3.75344 0.008,-7.50684 -0.005,-11.26024 -0.0116,-3.47031 -0.007,-6.94066 -0.006,-10.41099 0.0316,-3.59124 0.0912,-7.18566 0.37705,-10.76504 0.32316,-3.56133 1.03945,-7.02697 1.47731,-10.56413 0.51927,-4.28943 1.29733,-8.53377 1.33883,-12.88124 0.47666,-6.84676 1.04893,-13.69065 0.83495,-20.56806 0.004,-7.58292 -0.0118,-15.16581 -0.0319,-22.74867 -0.009,-4.54595 -0.0177,-9.09211 -0.0653,-13.63779 0,0 4.63524,-2.63641 4.63524,-2.63641 z"
       inkscape:connector-curvature="0" />
    <path
       style="fill:#000000"
       id="path3111"
       d="m 433.88468,503.0028 c 0.0713,7.62305 0.92333,15.21832 1.39646,22.82239 0.6541,11.49418 0.90096,23.00977 1.06972,34.5234 0.31875,6.54529 -0.0965,13.05612 -0.63948,19.5665 -0.34632,3.9497 -0.45991,7.91644 -0.51494,11.88231 -0.0519,4.00506 -0.0375,8.01059 -0.0271,12.01589 0.005,3.99577 0.001,7.99147 -0.008,11.98723 -0.005,4.32459 0.004,8.64917 0.0138,12.97375 0.0114,3.37782 0.0109,6.75558 -10e-4,10.13339 -0.0106,3.97951 -0.004,7.95901 0.003,11.93852 9.6e-4,0.57258 0.002,1.14517 0.003,1.71775 0,0 -4.5838,2.60715 -4.5838,2.60715 l 0,0 c 9.7e-4,-0.57369 0.002,-1.14738 0.003,-1.72107 0.007,-3.98054 0.0134,-7.9611 0.003,-11.94165 -0.012,-3.37742 -0.0123,-6.75479 -0.001,-10.13221 0.01,-4.32945 0.0191,-8.65889 0.0122,-12.98836 -0.0107,-3.99025 -0.0181,-7.98048 -0.0206,-11.97076 0.004,-4.00861 0.003,-8.0173 0.0254,-12.02584 0.0603,-3.98466 0.15967,-7.97044 0.52125,-11.9381 0.60274,-6.51835 1.11246,-13.03766 0.82585,-19.60192 -0.0977,-11.51435 -0.29225,-23.03347 -1.0028,-34.52439 -0.53287,-7.56805 -1.42329,-15.10983 -1.70195,-22.69368 0,0 4.6245,-2.6303 4.6245,-2.6303 z"
       inkscape:connector-curvature="0" />
    <path
       style="fill:#000000"
       id="path3113"
       d="m 489.14706,448.48477 c -0.15851,4.99008 0.006,9.96161 0.28383,14.94135 0.36544,9.25321 0.86887,18.49214 1.413,27.73449 0.50695,8.27817 0.71707,16.5728 0.80761,24.86801 0.13018,7.34016 0.11255,14.66422 -0.3182,21.98994 -0.4533,7.32848 -0.66001,14.66369 -1.23132,21.98236 -0.50178,5.63178 -0.77456,11.28172 -0.92228,16.93733 -0.0772,3.98778 -0.079,7.97681 -0.0737,11.96531 0.001,3.85929 0.002,7.71858 0.008,11.57786 0.007,3.28686 0.0112,6.57374 0.0135,9.86061 8e-5,3.01125 0.006,6.02252 -0.004,9.03374 0.16822,3.78351 -0.42605,7.51642 -0.7924,11.26313 -0.33291,3.47971 -0.44456,6.97751 -0.50155,10.4742 -0.0344,2.97692 -0.0266,5.95418 -0.0236,8.93127 0,0 -4.59902,2.61651 -4.59902,2.61651 l 0,0 c -0.003,-2.98166 -0.0103,-5.96349 0.0255,-8.94497 0.0591,-3.51749 0.17605,-7.03568 0.50987,-10.53614 0.35741,-3.72467 0.95878,-7.43476 0.79262,-11.19413 -0.01,-3.00981 -0.004,-6.01968 -0.004,-9.0295 0.002,-3.29112 0.006,-6.58224 0.01,-9.87335 0.002,-3.85888 -0.005,-7.71771 -0.0107,-11.57658 0.004,-4 -10e-4,-8.00055 0.10021,-11.99941 0.15273,-5.67968 0.46106,-11.35366 0.98098,-17.00713 0.58474,-7.31644 0.80267,-14.64949 1.24822,-21.97746 0.4234,-7.31443 0.46001,-14.62595 0.34189,-21.955 -0.0908,-8.29702 -0.2511,-16.59517 -0.73402,-24.8773 -0.5352,-9.22833 -1.06171,-18.45324 -1.49044,-27.68821 -0.32488,-4.95851 -0.52363,-9.90684 -0.46539,-14.88051 0,0 4.63525,-2.63642 4.63525,-2.63642 z"
       inkscape:connector-curvature="0" />
    <path
       style="fill:#000000"
       id="path3115"
       d="m 209.4887,541.21021 c 3.18925,0.0274 6.37871,0.026 9.56805,0.0242 3.38267,0.005 6.76534,-0.002 10.14798,-0.006 2.75556,0.0114 5.45862,-0.73786 8.1904,-1.09675 2.33023,-0.14108 4.6243,-0.39001 6.92759,-0.80583 0,0 -4.11327,3.4479 -4.11327,3.4479 l 0,0 c -2.31043,0.4032 -4.62207,0.60034 -6.95225,0.80024 -2.73392,0.38465 -5.4493,1.10926 -8.21678,1.03182 -3.37754,-0.004 -6.75509,-0.0117 -10.13264,-0.006 -3.20926,-0.002 -6.41863,-0.003 -9.6278,0.0242 0,0 4.20872,-3.41341 4.20872,-3.41341 z"
       inkscape:connector-curvature="0" />
    <path
       style="fill:#000000"
       id="path3117"
       d="m 256.85185,429.59436 c 4.12209,0.0441 8.24445,0.0399 12.36671,0.0412 4.33957,-8e-5 8.67916,-0.005 13.01874,-0.0138 3.2457,0.0632 6.45329,0.0573 9.66794,-0.45665 2.89612,-0.51175 5.68542,-1.51727 8.58691,-2.03195 2.24039,-0.46048 4.42782,-0.37967 6.66215,-0.001 0,0 -4.21781,3.31965 -4.21781,3.31965 l 0,0 c -2.20154,-0.32959 -4.37182,-0.31079 -6.56657,0.14167 -2.88684,0.55565 -5.67826,1.56697 -8.58154,2.00752 -3.22234,0.47254 -6.44599,0.43196 -9.69238,0.3797 -4.32818,-0.007 -8.65639,-0.0137 -12.9846,-0.0138 -4.15609,0.001 -8.31232,-0.002 -12.46827,0.0412 0,0 4.20872,-3.41339 4.20872,-3.41339 z"
       inkscape:connector-curvature="0" />
    <path
       style="fill:#000000"
       id="path3119"
       d="m 371.31279,425.18846 c 3.11558,0.0266 6.23133,0.0234 9.34699,0.0241 3.80923,0.0136 7.61846,2.3e-4 11.42768,0.002 3.26051,2.6e-4 6.52102,-0.0118 9.78153,-0.006 2.65936,-0.41624 5.29393,-0.95819 7.97041,-1.23233 0.42968,-0.0316 0.85936,-0.0631 1.28903,-0.0949 0,0 -4.15619,3.42084 -4.15619,3.42084 l 0,0 c -0.42705,0.0356 -0.85407,0.0714 -1.28111,0.10703 -2.67359,0.30303 -5.30631,0.89892 -7.98137,1.17261 -3.25519,0.005 -6.51037,-0.006 -9.76557,-0.006 -3.81119,0.002 -7.62241,-0.0111 -11.43361,0.002 -3.1355,7.6e-4 -6.27108,-0.002 -9.40651,0.0241 0,0 4.20872,-3.41338 4.20872,-3.41338 z"
       inkscape:connector-curvature="0" />
    <path
       style="fill:#000000"
       id="path3121"
       d="m 439.75552,597.2409 c 3.23347,1.22438 6.59684,1.93347 9.92052,2.78251 3.75072,0.95297 7.59636,1.19884 11.42755,1.35725 3.23992,0.0992 6.48152,0.0886 9.72236,0.0815 2.87284,-0.009 5.74568,-0.0177 8.61853,-0.0217 1.76742,-0.002 3.53483,-0.002 5.30225,-0.003 0,0 -4.17582,3.38682 -4.17582,3.38682 l 0,0 c -1.76659,2.5e-4 -3.53318,5e-4 -5.29977,0.001 -2.86783,0.002 -5.73567,0.005 -8.6035,0.009 -3.24008,0.002 -6.4812,0.02 -9.71972,-0.11304 -3.84958,-0.18727 -7.71206,-0.463 -11.47622,-1.44819 -3.33961,-0.85491 -6.70052,-1.61014 -9.98346,-2.71422 0,0 4.26728,-3.31922 4.26728,-3.31922 z"
       inkscape:connector-curvature="0" />
    <path
       style="fill:#000000"
       id="path3123"
       d="m 498.93017,501.55722 c 4.42575,0.16511 8.83052,-0.0291 13.24402,-0.3782 6.33111,-0.53656 12.62193,-1.49427 18.95565,-2.02125 4.18549,-0.33563 8.38004,-0.47633 12.57515,-0.52808 0.49204,-0.003 0.98408,-0.005 1.47611,-0.008 0,0 -4.16478,3.38115 -4.16478,3.38115 l 0,0 c -0.48938,0.002 -0.97876,0.004 -1.46814,0.006 -4.15898,0.0411 -8.31817,0.1592 -12.46806,0.48617 -6.33231,0.53375 -12.62355,1.48554 -18.95452,2.01824 -4.46622,0.36467 -8.9254,0.52207 -13.40415,0.45814 0,0 4.20872,-3.41337 4.20872,-3.41337 z"
       inkscape:connector-curvature="0" />
    <path
       style="fill:#784421"
       id="path3125"
       d="m 178.23274,411.28906 c -0.01,4.06663 -0.0111,8.13328 -0.0131,12.19993 -0.0529,6.57724 0.12569,13.15805 -0.1633,19.72897 -0.39151,7.49122 -0.91497,14.96279 -1.76581,22.40724 -1.04405,9.97893 -1.98118,19.97266 -2.64399,29.99315 -0.26812,8.39632 -0.82349,16.74976 -1.86266,25.06993 -1.26344,7.70152 -2.01023,15.4879 -2.82682,23.25934 -1.03478,7.14692 -1.57788,14.35843 -2.25373,21.55293 0,0 -1.10822,0.61417 -1.10822,0.61417 l 0,0 c 0.67227,-7.19374 1.21053,-14.4047 2.24584,-21.55045 0.81278,-7.77082 1.55761,-15.55641 2.81717,-23.25756 1.04947,-8.32102 1.62256,-16.67496 1.88865,-25.07425 0.66967,-10.01891 1.5996,-20.01236 2.62776,-29.99227 0.84886,-7.43979 1.36574,-14.90663 1.76103,-22.39254 0.29438,-6.56595 0.10807,-13.14199 0.15146,-19.71446 -0.002,-4.06168 -0.003,-8.12336 -0.0131,-12.18504 0,0 1.15882,-0.65909 1.15882,-0.65909 z"
       inkscape:connector-curvature="0" />
    <path
       style="fill:#784421"
       id="path3127"
       d="m 251.32664,692.29048 c 15.01417,2.13729 30.16062,2.74016 45.27239,3.36356 25.63458,0.87349 51.28292,1.01057 76.92738,1.10287 15.74392,-0.34752 31.44549,0.16586 47.13755,1.53843 1.43043,0.12972 2.86088,0.25945 4.29131,0.38918 0,0 -1.00367,0.79998 -1.00367,0.79998 l 0,0 c -1.42554,-0.13345 -2.85108,-0.26691 -4.27661,-0.40037 -15.65606,-1.40501 -31.32357,-1.94075 -47.03423,-1.60948 -25.6413,-0.11438 -51.28611,-0.2695 -76.91809,-1.11525 -15.16998,-0.60075 -30.36293,-1.21712 -45.4482,-3.21559 0,0 1.05217,-0.85333 1.05217,-0.85333 z"
       inkscape:connector-curvature="0" />
    <path
       style="fill:#784421"
       id="path3129"
       d="m 266.11103,729.0082 c 0.8173,-0.057 1.63997,-0.0516 2.45189,-0.17071 3.0126,-0.44158 6.33088,-1.35799 9.25085,-2.08475 6.98989,-1.73969 13.98004,-3.4674 20.98349,-5.13808 11.37565,-2.68802 22.67696,-5.79107 34.20696,-7.54737 13.44173,-1.60073 26.99158,-0.98611 40.46718,-0.37785 17.8803,1.15814 35.74488,2.59181 53.62334,3.77978 12.51289,0.86917 24.97929,2.36123 37.48346,3.35185 6.40691,0.48079 12.88909,0.97246 19.25597,-0.2144 0.57522,-0.13681 1.15046,-0.27364 1.7257,-0.41045 0,0 -1.02116,0.86494 -1.02116,0.86494 l 0,0 c -0.57517,0.13402 -1.15031,0.26806 -1.72548,0.40208 -6.3623,1.13814 -12.82692,0.64283 -19.22342,0.14745 -12.48876,-1.00616 -24.94035,-2.50185 -37.43797,-3.38635 -17.87351,-1.20594 -35.73357,-2.64704 -53.61099,-3.78651 -13.49462,-0.59148 -27.06223,-1.17821 -40.52005,0.45006 -11.51014,1.75837 -22.79784,4.83355 -34.15499,7.5162 -7.01496,1.67771 -14.01584,3.41427 -21.01597,5.16709 -3.01575,0.75514 -6.21893,1.64869 -9.30822,2.10577 -0.82054,0.1214 -1.65193,0.12041 -2.4779,0.18063 0,0 1.04731,-0.84938 1.04731,-0.84938 z"
       inkscape:connector-curvature="0" />
    <path
       style="fill:#784421"
       id="path3131"
       d="m 373.68145,686.41596 c 10.33018,-0.1572 20.64127,-1.08539 30.95672,-1.69177 16.28473,-0.89042 32.59119,-1.03223 48.89191,-1.14371 16.01401,-0.42112 32.06826,0.53638 48.06643,-0.43954 0,0 -0.96923,0.79488 -0.96923,0.79488 l 0,0 c -15.98609,0.91851 -32.02309,-0.0279 -48.02327,0.39673 -16.30841,0.12069 -32.62264,0.26884 -48.91471,1.1698 -10.35093,0.61727 -20.69516,1.54528 -31.06003,1.76695 0,0 1.05218,-0.85334 1.05218,-0.85334 z"
       inkscape:connector-curvature="0" />
    <path
       style="fill:#784421"
       id="path3133"
       d="m 377.9095,490.44934 c -2.3152,4.78435 -5.49158,8.91568 -8.66572,13.00175 -7.67716,8.59408 -16.59968,15.60486 -25.25799,22.88471 -13.88791,10.82803 -26.96829,22.84827 -40.1733,34.67086 -8.90531,7.91085 -17.81271,15.91459 -27.92648,21.81808 -5.52211,2.6411 -11.52621,3.39759 -17.35968,4.73975 -3.94107,1.05055 -7.86376,2.11339 -11.6904,3.60499 0,0 0.99681,-0.86664 0.99681,-0.86664 l 0,0 c 3.83024,-1.47467 7.75256,-2.54006 11.69353,-3.58446 5.82718,-1.33622 11.82362,-2.10638 17.33233,-4.76282 9.45715,-4.96358 17.4807,-13.69203 25.88013,-20.46774 13.20394,-11.81313 26.27295,-23.83859 40.15364,-34.6663 8.6341,-7.26856 17.52935,-14.2669 25.19975,-22.82723 3.16203,-4.068 6.32871,-8.17884 8.63101,-12.94578 0,0 1.18637,-0.59917 1.18637,-0.59917 z"
       inkscape:connector-curvature="0" />
    <path
       style="fill:#784421"
       id="path3135"
       d="m 447.34969,438.03045 c 6.67406,-2.71062 12.29919,-7.8611 17.96498,-12.49233 8.6486,-7.01216 16.26246,-15.39362 23.55261,-24.07195 2.78722,-3.5766 1.53668,-1.78474 3.79211,-5.34007 0,0 1.15744,-0.56113 1.15744,-0.56113 l 0,0 c -2.26056,3.57866 -1.00524,1.77705 -3.80751,5.36844 -7.30734,8.67708 -14.9177,17.07975 -23.57052,24.10731 -6.33345,5.18326 -12.6893,10.79984 -20.12575,13.86587 0,0 1.03664,-0.87614 1.03664,-0.87614 z"
       inkscape:connector-curvature="0" />
    <path
       style="fill:#784421"
       id="path3137"
       d="m 227.50551,278.51542 c 6.00796,2.95593 12.89407,3.35748 19.34138,4.30676 17.62929,2.0309 35.38041,2.3067 53.08256,2.95505 24.28698,1.03099 48.58315,0.89203 72.87859,0.5084 19.25964,-0.27244 38.51804,-0.94013 57.77089,-0.0978 13.81184,0.61364 27.43132,3.21722 41.0254,5.81443 1.35131,0.24992 2.70263,0.49984 4.05395,0.74977 0,0 -1.01268,0.79303 -1.01268,0.79303 l 0,0 c -1.34656,-0.25393 -2.69313,-0.50787 -4.0397,-0.76179 -13.56951,-2.63249 -27.17021,-5.23008 -40.9633,-5.8423 -19.23536,-0.84663 -38.47674,-0.19529 -57.71929,0.0644 -24.29815,0.36759 -48.5965,0.49806 -72.8865,-0.50901 -17.73491,-0.63505 -35.51778,-0.88729 -53.18205,-2.89128 -6.48249,-0.94282 -13.38829,-1.34243 -19.43705,-4.29059 0,0 1.0878,-0.79897 1.0878,-0.79897 z"
       inkscape:connector-curvature="0" />
    <path
       style="fill:#784421"
       id="path3139"
       d="m 425.14769,298.69869 c 11.12355,0.89414 22.27163,1.41167 33.40761,2.09833 19.87349,1.25565 39.77425,1.80064 59.67465,2.1486 9.46084,0.15029 18.92261,0.20069 28.38432,0.19365 2.23762,-0.002 4.47524,-0.008 6.71287,-0.0137 0,0 -1.03167,0.83701 -1.03167,0.83701 l 0,0 c -2.23471,0.003 -4.46942,0.006 -6.70414,0.006 -9.43186,-0.0149 -18.86355,-0.10883 -28.29431,-0.2692 -19.89707,-0.37891 -39.79423,-0.93518 -59.66605,-2.16148 -11.1774,-0.66554 -22.36383,-1.17842 -33.53303,-1.98809 0,0 1.04975,-0.85138 1.04975,-0.85138 z"
       inkscape:connector-curvature="0" />
    <path
       style="fill:#784421"
       id="path3141"
       d="m 583.29474,410.18252 c -1.26251,12.24752 -1.6288,24.57114 -2.18495,36.87486 -1.05138,22.67487 -1.34332,45.38026 -1.55104,68.08049 0.008,22.58154 -0.67343,45.15223 -1.84934,67.69294 -1.04049,17.5444 -1.65704,35.11365 -2.00797,52.6906 -0.11299,6.21364 -0.15762,12.42836 -0.17846,18.64307 0,0 -1.12122,0.63683 -1.12122,0.63683 l 0,0 c 0.0428,-6.22604 0.10963,-12.45188 0.23294,-18.67668 0.38203,-17.58763 1.01726,-35.16776 2.0574,-52.72353 1.18555,-22.54415 1.89524,-45.11818 1.88131,-67.70416 0.19532,-22.69269 0.48981,-45.38986 1.50274,-68.05884 0.53381,-12.28323 0.88944,-24.58221 2.05713,-36.81797 0,0 1.16146,-0.63761 1.16146,-0.63761 z"
       inkscape:connector-curvature="0" />
    <path
       style="fill:#784421"
       id="path3143"
       d="m 592.96288,390.70418 c 2.77088,9.28717 4.35313,18.96494 5.77078,28.60341 2.37665,18.40957 2.80211,37.02081 2.40804,55.58504 -0.58588,20.88485 -2.16735,41.72354 -3.97719,62.5154 -1.55629,14.55571 -4.05772,28.94991 -5.92379,43.45422 -0.502,5.61296 -1.61424,11.11944 -2.19912,16.7191 -0.382,2.45954 -0.7882,4.91242 -1.11667,7.38179 0,0 -1.15385,0.63257 -1.15385,0.63257 l 0,0 c 0.32776,-2.469 0.73294,-4.92151 1.12116,-7.37935 0.59006,-5.61216 1.72512,-11.12509 2.24503,-16.74869 1.90697,-14.51538 4.42747,-28.92306 6.00729,-43.49336 1.81699,-20.78809 3.3973,-41.62436 3.97968,-62.50632 0.38701,-18.55014 -0.0409,-37.14756 -2.43862,-55.53997 -1.4324,-9.61305 -3.0212,-19.2755 -5.85725,-28.51665 0,0 1.13451,-0.70719 1.13451,-0.70719 z"
       inkscape:connector-curvature="0" />
    <path
       style="fill:#784421"
       id="path3145"
       d="m 219.01632,370.34386 c -0.32183,7.02691 -0.76775,14.04783 -0.98575,21.08667 -0.34912,13.37128 -0.43989,26.74161 0.007,40.10942 0.19943,8.97786 0.74385,17.91694 1.46217,26.85728 0.75922,6.0494 1.46214,12.10141 1.86129,18.19474 0.14997,2.31273 0.19621,4.63085 0.24382,6.94816 0,0 -1.1352,0.64933 -1.1352,0.64933 l 0,0 c -0.0476,-2.31586 -0.0943,-4.63238 -0.2372,-6.9441 -0.38859,-6.09588 -1.08478,-12.15054 -1.845,-18.2015 -0.71298,-8.94991 -1.23653,-17.89972 -1.42553,-26.88658 -0.42773,-13.36859 -0.34016,-26.73885 -0.0226,-40.11105 0.20104,-7.02411 0.628,-14.03232 0.92108,-21.0448 0,0 1.15612,-0.65757 1.15612,-0.65757 z"
       inkscape:connector-curvature="0" />
    <path
       style="fill:#784421"
       id="path3147"
       d="m 236.11967,377.68699 c -0.14522,8.14889 0.0201,16.27556 0.48972,24.40788 1.29453,16.44439 3.36136,32.79744 5.04719,49.19546 1.08582,11.7632 2.3518,23.50273 3.20477,35.29127 0.1958,2.69316 0.31046,5.39171 0.40937,8.09091 0,0 -1.13584,0.65229 -1.13584,0.65229 l 0,0 c -0.0901,-2.70234 -0.19532,-5.40412 -0.38118,-8.10089 -0.81269,-11.80156 -2.06249,-23.55238 -3.13527,-35.32638 -1.67552,-16.39698 -3.74301,-32.74593 -5.08063,-49.18317 -0.49225,-8.11914 -0.67043,-16.23217 -0.57425,-24.36977 0,0 1.15612,-0.6576 1.15612,-0.6576 z"
       inkscape:connector-curvature="0" />
    <path
       style="fill:#784421"
       id="path3149"
       d="m 279.53456,370.52029 c -0.0991,6.16072 -0.0219,12.30301 0.35493,18.44986 0.25794,3.69059 0.50745,7.38161 0.71245,11.07633 0,0 -1.13379,0.65456 -1.13379,0.65456 l 0,0 c -0.19655,-3.69816 -0.43696,-7.39281 -0.69274,-11.08646 -0.37781,-6.14315 -0.45742,-12.281 -0.3943,-18.43825 0,0 1.15345,-0.65604 1.15345,-0.65604 z"
       inkscape:connector-curvature="0" />
    <path
       style="fill:#784421"
       id="path3151"
       d="m 332.31395,362.99016 c 2.05897,8.1074 4.90053,15.91519 7.02102,24.00458 2.06297,7.88299 2.87955,16.00848 3.24138,24.17742 0.34011,8.69458 -0.17576,17.40161 -0.82049,26.0644 -0.43829,5.03788 -0.88614,10.0739 -1.25458,15.11882 0,0 -1.12925,0.62924 -1.12925,0.62924 l 0,0 c 0.37862,-5.05007 0.8358,-10.09108 1.282,-15.13417 0.64574,-8.65354 1.14594,-17.35188 0.80822,-26.03694 -0.35374,-8.16141 -1.1567,-16.28306 -3.20423,-24.16249 -2.11928,-8.09191 -4.95367,-15.89884 -7.09009,-23.9822 0,0 1.14602,-0.67866 1.14602,-0.67866 z"
       inkscape:connector-curvature="0" />
    <path
       style="fill:#784421"
       id="path3153"
       d="m 361.41031,592.08662 c 2.38876,5.57185 3.73906,11.6159 5.12679,17.5716 1.40438,6.23816 2.01052,12.64042 2.34998,19.04609 0.19487,2.28478 0.0485,4.54151 -0.59383,6.71603 0,0 -1.17095,0.61308 -1.17095,0.61308 l 0,0 c 0.67208,-2.153 0.81961,-4.40214 0.63345,-6.67644 -0.32247,-6.40156 -0.91568,-12.79997 -2.31731,-19.03402 -1.38654,-5.94837 -2.73896,-11.99232 -5.16385,-17.53812 0,0 1.13572,-0.69822 1.13572,-0.69822 z"
       inkscape:connector-curvature="0" />
    <path
       style="fill:#784421"
       id="path3155"
       d="m 328.51862,615.40454 c 1.47272,5.01244 3.10811,9.9513 4.84642,14.85749 1.15314,2.7247 2.04781,5.56924 3.18058,8.3012 0,0 -1.11796,0.70537 -1.11796,0.70537 l 0,0 c -1.12698,-2.73867 -2.01637,-5.58879 -3.16875,-8.31777 -1.73219,-4.906 -3.36801,-9.84306 -4.87478,-14.83909 0,0 1.13449,-0.7072 1.13449,-0.7072 z"
       inkscape:connector-curvature="0" />
    <path
       style="fill:#784421"
       id="path3157"
       d="m 412.41584,549.51669 c 0.009,9.35857 1.05323,18.6708 1.8776,27.97102 1.13678,14.25306 1.57327,28.56068 1.90349,42.86068 0,0 -1.08627,0.62155 -1.08627,0.62155 l 0,0 c -0.28842,-14.30161 -0.71209,-28.61127 -1.8809,-42.8623 -0.83658,-9.2898 -1.89061,-18.58559 -1.97003,-27.93339 0,0 1.15611,-0.65756 1.15611,-0.65756 z"
       inkscape:connector-curvature="0" />
    <path
       style="fill:#784421"
       id="path3159"
       d="m 462.5626,509.85313 c 1.28317,9.92022 3.47487,19.67661 5.38326,29.46652 1.27235,6.62261 2.78144,13.18341 4.2168,19.76316 0,0 -1.06565,0.64218 -1.06565,0.64218 l 0,0 c -1.42254,-6.58657 -2.9194,-13.1539 -4.19741,-19.77829 -1.91796,-9.77889 -4.1242,-19.51725 -5.48303,-29.4149 0,0 1.14603,-0.67867 1.14603,-0.67867 z"
       inkscape:connector-curvature="0" />
    <path
       style="fill:#784421"
       id="path3161"
       d="m 524.24685,553.74614 c 1.05157,10.76781 2.13403,21.5395 3.29789,32.29565 1.51081,13.72422 2.69783,27.47466 2.03447,41.30129 0,0 -1.10281,0.61865 -1.10281,0.61865 l 0,0 c 0.71548,-13.82729 -0.44536,-27.58257 -1.97607,-41.30807 -1.17418,-10.74463 -2.25712,-21.50338 -3.41229,-32.24842 0,0 1.15881,-0.6591 1.15881,-0.6591 z"
       inkscape:connector-curvature="0" />
    <path
       style="fill:#784421"
       id="path3163"
       d="m 507.1408,565.84804 c -0.075,10.16264 0.46474,20.31649 0.74814,30.47243 0.53158,10.88149 -0.0251,21.74253 -1.01625,32.56404 -0.10013,1.06163 -0.20027,2.12324 -0.30038,3.18488 0,0 -1.12926,0.62545 -1.12926,0.62545 l 0,0 c 0.10347,-1.06332 0.20694,-2.12664 0.31041,-3.18996 1.02293,-10.82217 1.60302,-21.68762 1.07076,-32.57406 -0.29414,-10.14172 -0.83082,-20.27863 -0.83687,-30.42673 0,0 1.15345,-0.65605 1.15345,-0.65605 z"
       inkscape:connector-curvature="0" />
    <path
       style="fill:#784421"
       id="path3165"
       d="m 322.249,529.28382 c 3.38171,-5.3824 7.92632,-9.70818 12.18375,-14.19756 6.32017,-6.40811 13.01579,-12.26579 20.01806,-17.70571 4.90761,-4.2753 10.44271,-7.36569 16.11649,-10.13364 5.802,-2.59219 11.629,-5.11391 17.42142,-7.7344 4.13475,-1.7863 8.27078,-3.56466 12.40683,-5.3464 0,0 -1.00276,0.87802 -1.00276,0.87802 l 0,0 c -4.12928,1.77826 -8.26149,3.54484 -12.38771,5.33262 -5.79691,2.62078 -11.62868,5.14234 -17.43064,7.74742 -4.92821,2.40841 -9.76115,4.90214 -13.96785,8.74866 -7.0059,5.43599 -13.71062,11.27994 -20.03161,17.6895 -4.23692,4.47284 -8.77745,8.77744 -12.13162,14.14694 0,0 -1.19436,0.57455 -1.19436,0.57455 z"
       inkscape:connector-curvature="0" />
    <path
       style="fill:#784421"
       id="path3167"
       d="m 390.80556,484.97138 c -5.22949,2.03327 -10.47595,4.00899 -15.64866,6.24742 -6.13027,2.5985 -12.09458,5.58933 -17.79638,9.20432 -3.80867,2.50555 -7.50803,5.20291 -11.02708,8.1897 -2.72904,2.31607 -4.91413,5.29138 -7.35082,7.95902 -1.42531,2.05295 -3.49171,3.31532 -5.05698,5.19351 0,0 -1.19408,0.55896 -1.19408,0.55896 l 0,0 c 1.54395,-1.91012 3.63603,-3.13902 5.05871,-5.2031 2.45537,-2.65755 4.62837,-5.65595 7.35974,-7.98189 4.17926,-3.55953 8.62193,-6.70634 13.1927,-9.60259 5.70428,-3.59957 11.66844,-6.5794 17.79426,-9.17631 5.18875,-2.24285 10.45422,-4.21528 15.69002,-6.28566 0,0 -1.02143,0.89662 -1.02143,0.89662 z"
       inkscape:connector-curvature="0" />
    <path
       style="fill:#784421"
       id="path3169"
       d="m 314.46976,533.49137 c 8.10267,-2.48143 16.09854,-5.41183 24.05757,-8.42079 11.08264,-4.64422 22.2463,-9.38608 32.33979,-16.40334 5.06221,-3.51939 8.48734,-6.87966 13.14447,-11.07298 6.68478,-6.15051 11.8562,-13.75167 16.58902,-21.75425 0,0 1.11728,-0.54629 1.11728,-0.54629 l 0,0 c -4.75302,8.02125 -9.93638,15.64963 -16.6382,21.82145 -6.63018,5.97859 -7.47599,7.09823 -15.09741,12.34977 -10.13097,6.98074 -21.27724,11.7813 -32.38522,16.41327 -7.99423,3.03074 -16.0241,5.99087 -24.16396,8.48932 0,0 1.03666,-0.87616 1.03666,-0.87616 z"
       inkscape:connector-curvature="0" />
    <path
       style="fill:#483737"
       id="path3171"
       d="m 531.73902,357.20627 c -4.21779,2.20484 -8.66543,3.85195 -13.05597,5.5773 -4.98088,2.1443 -9.90541,4.59866 -14.49642,7.66086 -1.70222,1.13538 -4.8029,3.75128 -6.23184,4.91981 -6.60909,5.74717 -11.7444,13.13579 -16.96854,20.35211 -2.92915,4.26437 -6.0233,8.41004 -9.66769,11.9318 0,0 -1.1748,0.53175 -1.1748,0.53175 l 0,0 c 3.66433,-3.50203 6.76153,-7.65449 9.6965,-11.91783 5.23657,-7.21692 10.36444,-14.62417 16.97,-20.39128 7.03565,-5.77226 14.62301,-10.62855 22.86049,-13.94684 4.40249,-1.73519 8.86389,-3.38939 13.08513,-5.62566 0,0 -1.01686,0.90798 -1.01686,0.90798 z"
       inkscape:connector-curvature="0" />
    <path
       style="fill:#241c1c"
       id="path3179"
       d="m 212.82487,527.21017 c 0.48418,0.89815 1.24851,1.39878 2.01414,1.95057 0,0 -4.02563,2.88654 -4.02563,2.88654 l 0,0 c -0.79217,-0.57127 -1.56611,-1.13574 -2.12122,-2.01009 0,0 4.13271,-2.82702 4.13271,-2.82702 z"
       inkscape:connector-curvature="0" />
    <path
       style="fill:#241c1c"
       id="path3181"
       d="m 236.59845,527.9907 c 0.13851,0.16331 0.27701,0.3266 0.41551,0.4899 0,0 -4.10375,2.80721 -4.10375,2.80721 l 0,0 c -0.14815,-0.1567 -0.29631,-0.31339 -0.44448,-0.47009 0,0 4.13272,-2.82702 4.13272,-2.82702 z"
       inkscape:connector-curvature="0" />
    <path
       style="fill:#241c1c"
       id="path3183"
       d="m 237.29768,553.74821 c 0.57649,0.67972 0.26213,0.3441 0.95033,0.99833 0,0 -4.0699,2.83544 -4.0699,2.83544 l 0,0 c -0.72453,-0.68376 -0.38849,-0.34608 -1.01314,-1.00675 0,0 4.13271,-2.82702 4.13271,-2.82702 z"
       inkscape:connector-curvature="0" />
    <path
       style="fill:#241c1c"
       id="path3185"
       d="m 211.42642,553.74821 c 0.74581,0.83418 1.61607,1.47408 2.45426,2.17925 0,0 -4.06315,2.86982 -4.06315,2.86982 l 0,0 c -0.86356,-0.71412 -1.72523,-1.41626 -2.52381,-2.22205 0,0 4.1327,-2.82702 4.1327,-2.82702 z"
       inkscape:connector-curvature="0" />
    <path
       style="fill:#241c1c"
       id="path3187"
       d="m 263.90891,419.3309 c 0.61978,0.40027 1.16752,0.91646 1.74912,1.38033 0,0 -4.04428,2.87034 -4.04428,2.87034 l 0,0 c -0.56762,-0.45184 -1.11411,-0.95164 -1.75181,-1.27828 0,0 4.04697,-2.97239 4.04697,-2.97239 z"
       inkscape:connector-curvature="0" />
    <path
       style="fill:#241c1c"
       id="path3189"
       d="m 295.37393,419.3309 c 1.16913,0.97871 2.45574,1.75741 3.66497,2.67048 0,0 -4.02703,2.87855 -4.02703,2.87855 l 0,0 c -1.21218,-0.88717 -2.46672,-1.69938 -3.6849,-2.57664 0,0 4.04696,-2.97239 4.04696,-2.97239 z"
       inkscape:connector-curvature="0" />
    <path
       style="fill:#241c1c"
       id="path3191"
       d="m 298.17082,438.84417 c 0.64917,0.5384 0.32885,0.23812 0.95358,0.91055 0,0 -4.09007,2.8229 -4.09007,2.8229 l 0,0 c -0.58958,-0.57916 -0.28365,-0.32915 -0.91046,-0.76105 0,0 4.04695,-2.9724 4.04695,-2.9724 z"
       inkscape:connector-curvature="0" />
    <path
       style="fill:#241c1c"
       id="path3193"
       d="m 265.92072,440.74031 c 0.54763,0.99469 1.14662,1.95122 1.83888,2.82717 0,0 -4.11813,2.77184 -4.11813,2.77184 l 0,0 c -0.70419,-0.92414 -1.32325,-1.9183 -1.93057,-2.9233 0,0 4.20982,-2.67571 4.20982,-2.67571 z"
       inkscape:connector-curvature="0" />
    <path
       style="fill:#241c1c"
       id="path3195"
       d="m 381.33758,418.71642 c 0.60085,0.8252 1.39374,1.36001 2.22823,1.83629 0,0 -4.00962,2.92837 -4.00962,2.92837 l 0,0 c -0.86079,-0.53175 -1.67464,-1.12756 -2.35132,-1.93764 0,0 4.13271,-2.82702 4.13271,-2.82702 z"
       inkscape:connector-curvature="0" />
    <path
       style="fill:#241c1c"
       id="path3197"
       d="m 380.74737,436.48704 c 1.28512,0.77359 2.58393,1.52259 3.81097,2.40836 0,0 -4.0295,2.88566 -4.0295,2.88566 l 0,0 c -1.19982,-0.88619 -2.48528,-1.63518 -3.79764,-2.29053 0,0 4.01617,-3.00349 4.01617,-3.00349 z"
       inkscape:connector-curvature="0" />
    <path
       style="fill:#241c1c"
       id="path3199"
       d="m 447.06453,588.87208 c 0.62683,0.66461 1.41469,1.01662 2.21374,1.33586 0,0 -3.98062,2.9889 -3.98062,2.9889 l 0,0 c -0.85019,-0.37808 -1.68083,-0.79989 -2.36583,-1.49774 0,0 4.13271,-2.82702 4.13271,-2.82702 z"
       inkscape:connector-curvature="0" />
    <path
       style="fill:#241c1c"
       id="path3201"
       d="m 449.24756,615.09335 c 0.74271,0.0929 1.50104,0.39349 2.25393,0.37868 1.40138,-0.0276 5.61826,-3.10337 -2.28667,1.73826 0.52308,-0.64605 0.29898,-0.29119 0.67019,-1.06625 0,0 4.37517,-2.23252 4.37517,-2.23252 l 0,0 c -0.31364,0.91476 -0.1201,0.4799 -0.5788,1.30561 -4.57328,3.05292 -4.16725,3.82806 -8.40267,2.96331 0,0 3.96885,-3.08709 3.96885,-3.08709 z"
       inkscape:connector-curvature="0" />
    <path
       style="fill:#241c1c"
       id="path3203"
       d="m 475.07422,591.04762 c 0.83191,0.31671 1.48951,0.89445 2.06863,1.61259 0,0 -4.12458,2.7877 -4.12458,2.7877 l 0,0 c -0.54778,-0.68226 -1.21001,-1.13326 -1.99102,-1.4279 0,0 4.04697,-2.97239 4.04697,-2.97239 z"
       inkscape:connector-curvature="0" />
    <path
       style="fill:#241c1c"
       id="path3205"
       d="m 476.47266,611.34142 c 0.6606,0.54787 0.31826,0.25141 1.02332,0.89471 0,0 -4.06228,2.85458 -4.06228,2.85458 l 0,0 c -0.69585,-0.58302 -0.35717,-0.32845 -1.008,-0.7769 0,0 4.04696,-2.97239 4.04696,-2.97239 z"
       inkscape:connector-curvature="0" />
    <path
       style="fill:#241c1c"
       id="path3207"
       d="m 504.44158,491.92024 c 0.75186,0.52316 0.37162,0.23026 1.13389,0.88964 0,0 -4.05252,2.86475 -4.05252,2.86475 l 0,0 c -0.7465,-0.58897 -0.36861,-0.33155 -1.12833,-0.78199 0,0 4.04696,-2.9724 4.04696,-2.9724 z"
       inkscape:connector-curvature="0" />
    <path
       style="fill:#241c1c"
       id="path3209"
       d="m 501.64469,512.21404 c 0.64574,0.45544 1.27786,0.92684 1.93265,1.36661 0,0 -4.01316,2.89776 -4.01316,2.89776 l 0,0 c -0.65168,-0.43765 -1.28706,-0.90881 -1.96645,-1.29197 0,0 4.04696,-2.9724 4.04696,-2.9724 z"
       inkscape:connector-curvature="0" />
    <path
       style="fill:#241c1c"
       id="path3211"
       d="m 532.38384,510.16716 c 0.56727,0.84708 0.25474,0.42731 0.94564,1.25173 0,0 -4.08871,2.77825 -4.08871,2.77825 l 0,0 c -0.73021,-0.85947 -0.39297,-0.43293 -1.01786,-1.27355 0,0 4.16093,-2.75643 4.16093,-2.75643 z"
       inkscape:connector-curvature="0" />
    <path
       style="fill:#241c1c"
       id="path3213"
       d="m 535.12152,489.91372 c 0.24145,0.94127 0.80297,1.66041 1.32217,2.41997 0,0 -4.13039,2.74096 -4.13039,2.74096 l 0,0 c -0.53407,-0.78353 -1.10226,-1.54207 -1.40159,-2.48521 0,0 4.20981,-2.67572 4.20981,-2.67572 z"
       inkscape:connector-curvature="0" />
  </g>
</svg>
