<?xml version="1.0" encoding="UTF-8" standalone="no"?>
<!-- Created with Inkscape (http://www.inkscape.org/) -->

<svg
   xmlns:dc="http://purl.org/dc/elements/1.1/"
   xmlns:cc="http://creativecommons.org/ns#"
   xmlns:rdf="http://www.w3.org/1999/02/22-rdf-syntax-ns#"
   xmlns:svg="http://www.w3.org/2000/svg"
   xmlns="http://www.w3.org/2000/svg"
   xmlns:sodipodi="http://sodipodi.sourceforge.net/DTD/sodipodi-0.dtd"
   xmlns:inkscape="http://www.inkscape.org/namespaces/inkscape"
   width="744.09448819"
   height="1052.3622047"
   id="svg2"
   version="1.1"
   inkscape:version="0.48.4 r9939"
   sodipodi:docname="New document 1">
  <defs
     id="defs4" />
  <sodipodi:namedview
     id="base"
     pagecolor="#ffffff"
     bordercolor="#666666"
     borderopacity="1.0"
     inkscape:pageopacity="0.0"
     inkscape:pageshadow="2"
     inkscape:zoom="0.76"
     inkscape:cx="375"
     inkscape:cy="520"
     inkscape:document-units="px"
     inkscape:current-layer="layer1"
     showgrid="false"
     inkscape:window-width="1000"
     inkscape:window-height="1002"
     inkscape:window-x="530"
     inkscape:window-y="0"
     inkscape:window-maximized="0" />
  <metadata
     id="metadata7">
    <rdf:RDF>
      <cc:Work
         rdf:about="">
        <dc:format>image/svg+xml</dc:format>
        <dc:type
           rdf:resource="http://purl.org/dc/dcmitype/StillImage" />
        <dc:title></dc:title>
      </cc:Work>
    </rdf:RDF>
  </metadata>
  <g
     inkscape:label="Layer 1"
     inkscape:groupmode="layer"
     id="layer1">
    <path
       style="fill:#a05a2c"
       d="m 351.05082,707.67187 c -8.68725,-0.57754 -7.86329,0.58469 -18.09682,-25.52612 -7.8113,-19.93048 -8.86838,-24.88806 -17.44246,-81.80276 -10.75488,-71.39098 -13.60265,-85.13073 -29.94184,-144.46163 -9.06533,-32.918 -13.79002,-56.44728 -17.94491,-89.36671 -3.75867,-29.7801 -3.95566,-31.08847 -5.09488,-33.83765 -1.27686,-3.08136 2.15959,-4.69292 19.13448,-8.97335 13.78362,-3.47571 14.26935,-3.49894 86.40383,-4.13268 63.33887,-0.55646 73.21862,-0.36726 77.87318,1.49128 2.93199,1.17073 5.72142,3.10112 6.1987,4.28976 0.4773,1.18866 -0.79206,6.62939 -2.82078,12.09055 -2.02875,5.46115 -4.11232,12.69363 -4.6302,16.07216 -0.51788,3.37854 -3.09589,14.78279 -5.72894,25.34278 -2.63306,10.55999 -5.48852,25.3714 -6.34548,32.91424 -2.41782,21.28123 -6.67331,46.86099 -15.85664,95.31419 -4.64618,24.51427 -10.09529,58.14852 -12.10914,74.74279 -6.4167,52.87424 -15.86593,115.27935 -18.84496,124.45701 -0.67608,2.08282 -2.52058,2.36647 -13.9568,2.14632 -7.24777,-0.13953 -16.60613,-0.48162 -20.79634,-0.76018 l 0,0 z"
       id="path2987"
       inkscape:connector-curvature="0" />
    <path
       style="fill:#000000"
       id="path2985"
       d="m 270.59913,340.84963 c 0.96224,9.51724 2.0961,19.01522 3.22783,28.5134 1.97235,19.17221 5.13975,38.16418 8.89979,57.05685 4.463,19.99316 10.3107,39.63344 15.33673,59.48513 4.90852,18.86579 8.96877,37.91554 12.28554,57.12022 3.26402,18.86875 5.91316,37.83321 8.56754,56.79432 1.66625,15.02087 3.80967,29.96479 6.33894,44.86092 1.92095,12.35489 5.82791,24.19945 10.63038,35.6987 2.17179,5.14064 4.7137,10.13505 6.20619,15.52955 0.71421,3.23537 1.90883,4.01375 5.03062,4.53257 3.46747,0.37715 6.96619,0.31274 10.44879,0.28159 3.07868,0.38689 6.14442,0.83463 9.24103,1.05415 2.63447,0.15456 5.2745,0.15834 7.91253,0.16498 2.9792,0.0319 5.95867,0.0129 8.93795,0.004 2.7129,-0.0843 5.37115,-0.77233 8.07968,-1.05959 1.13261,-0.0876 1.42032,-0.008 2.44241,-0.4536 0.3508,-0.15297 1.33113,-0.75589 0.99808,-0.56738 -31.01387,17.5544 -18.24971,12.15894 -14.14026,7.41828 1.86575,-2.56137 2.61408,-5.65287 3.15705,-8.7192 1.21099,-6.81586 2.62967,-13.59357 3.89023,-20.40061 1.84388,-9.01284 2.8271,-18.16626 4.03616,-27.27716 1.87727,-9.65194 3.25198,-19.35298 4.36527,-29.11962 1.11101,-10.9513 2.19712,-21.90645 3.50143,-32.83677 1.12087,-10.59303 2.86426,-21.10052 3.90156,-31.70236 0.69475,-8.10245 2.32765,-16.08346 3.82622,-24.06575 1.09271,-6.47451 2.57397,-12.87477 3.64393,-19.35261 1.13784,-6.43133 2.13798,-12.88749 3.59456,-19.25622 1.59771,-7.10537 2.5098,-14.34104 3.70117,-21.52295 1.4039,-7.57783 2.63058,-15.18704 3.89547,-22.78923 1.51532,-8.33013 2.67603,-16.72433 3.58064,-25.1417 0.55617,-7.03915 0.96317,-14.08118 2.2267,-21.03702 1.07526,-6.00154 2.36377,-11.95088 3.88415,-17.85491 0.93436,-4.53474 2.41384,-8.90926 3.72262,-13.33929 1.06671,-3.3561 1.16165,-6.87443 1.54997,-10.34022 0.36136,-2.8814 0.96081,-5.70834 1.62434,-8.53131 0.60534,-2.75422 1.74568,-5.34282 2.74957,-7.96641 1.06066,-2.97424 2.2949,-5.88263 3.39115,-8.84257 1.00061,-2.42696 0.654,-4.48729 -0.90267,-6.53445 -2.06689,-1.57654 -4.58872,-2.55406 -7.05683,-3.32686 -3.40133,-0.80441 -6.9163,-0.83727 -10.39211,-0.91523 -5.4896,-0.0884 -10.97989,-0.1045 -16.47009,-0.10193 -6.22809,0.0186 -12.45632,-0.004 -18.68435,0.0305 -6.36658,5.5e-4 -12.73314,-0.0327 -19.09972,-0.0299 -7.44038,-0.005 -14.8806,-0.0489 -22.32097,-0.0584 -7.62612,-0.0195 -15.25202,0.0398 -22.87812,0.0392 -5.69235,0.38374 -11.36859,0.92886 -17.06827,1.20441 -4.35238,0.0415 -8.66437,0.18486 -12.92048,1.14341 -3.64216,0.7447 -7.1927,1.83465 -10.84916,2.51211 -3.49876,0.19245 -6.68536,1.53654 -9.9143,2.74758 -3.10239,0.64052 -5.77313,2.09106 -8.52205,3.56273 -1.58007,0.58966 -1.62193,0.52935 -3.06476,1.3607 -0.46576,0.26837 -1.82923,1.12928 -1.36234,0.86289 26.32433,-15.0199 17.70777,-10.72016 12.23905,-6.73451 -2.03198,1.30531 -3.98563,2.7106 -5.91391,4.16057 -1.48434,1.41331 -2.67608,3.14121 -3.60715,4.96209 -0.1418,0.42241 -0.2836,0.84482 -0.42541,1.26723 0,0 -17.46648,8.31772 -17.46648,8.31772 l 0,0 c 0.10555,-0.47823 0.2111,-0.95647 0.31665,-1.43471 0.63155,-2.19286 1.90358,-3.90144 3.17529,-5.74994 1.67869,-1.8234 3.88829,-3.14536 5.98678,-4.43479 0.92122,-0.6506 1.73061,-1.46224 2.69907,-2.04018 7.48222,-4.46514 14.6205,-9.03693 22.45813,-12.62732 2.7548,-1.4601 5.67472,-2.3774 8.63555,-3.32812 3.28817,-1.22279 6.63957,-2.08526 10.12914,-2.52169 3.60297,-0.76791 7.14613,-1.79517 10.77585,-2.44388 4.3029,-0.70199 8.62938,-0.73472 12.97993,-0.85096 5.62873,-0.28842 11.24365,-0.81862 16.87959,-0.95025 7.5901,-5.7e-4 15.17999,0.0588 22.77012,0.0393 7.49382,-0.01 14.98751,-0.0537 22.48135,-0.0581 6.39495,0.003 12.78986,-0.03 19.18481,-0.0328 6.21316,0.03 12.42648,10e-5 18.63969,-5.9e-4 5.58397,-0.0134 11.16817,-0.0876 16.75197,-0.0429 3.64794,0.0926 7.34346,0.20932 10.85379,1.31442 2.75881,1.03121 5.70353,2.11343 7.77307,4.28463 1.71619,2.48956 2.74139,5.22806 1.68338,8.22693 -1.0051,3.01017 -2.44279,5.85516 -3.31598,8.91211 -1.08899,2.50694 -2.00533,5.09268 -2.93443,7.66228 -0.5077,2.82419 -1.35263,5.57045 -1.69126,8.43178 -0.62572,3.52739 -0.46154,7.18978 -1.5538,10.64454 -1.29282,4.47855 -2.96603,8.83333 -3.96187,13.40053 -1.60124,5.86933 -2.91939,11.79315 -4.0094,17.77735 -1.45579,6.92081 -1.91945,13.96991 -2.51273,21.00653 -0.98132,8.43729 -2.03549,16.87604 -3.56109,25.23398 -1.19745,7.59313 -2.30305,15.20304 -3.78079,22.74674 -1.23377,7.18748 -2.09461,14.42982 -3.54685,21.57506 -1.49062,6.3256 -2.49172,12.73516 -3.62572,19.13093 -1.04136,6.52138 -2.51361,12.95589 -3.71614,19.44768 -1.56988,8.00331 -3.35669,15.98155 -4.26183,24.09431 -1.08793,10.62781 -2.88594,21.15179 -3.96893,31.77959 -1.35818,10.9167 -2.49787,21.85807 -3.5065,32.81226 -1.00263,9.75164 -2.13528,19.4704 -4.15855,29.07424 -1.27866,9.10198 -2.14075,18.2673 -3.9,27.2966 -1.16284,6.6935 -2.37331,13.37926 -3.3969,20.09519 -0.39542,3.28854 -0.94069,6.51002 -2.52241,9.46365 -4.73093,7.50766 -13.89718,12.06282 -22.63863,12.86556 -2.72165,0.37514 -5.42913,0.99201 -8.19394,0.85489 -2.99137,-0.003 -5.98278,-0.0103 -8.97412,0.006 -2.66416,-0.0239 -5.33148,-0.0597 -7.98661,-0.30186 -3.01851,-0.3029 -6.0105,-0.85793 -9.04383,-0.98591 -3.59886,-0.011 -7.24345,0.0959 -10.79084,-0.6014 -3.29568,-0.99513 -5.44742,-2.84132 -6.0597,-6.37585 -1.16621,-5.44016 -3.46889,-10.50303 -5.33929,-15.72277 -4.33011,-11.83608 -8.28763,-23.84565 -10.23513,-36.34022 -2.45988,-14.97827 -4.68097,-29.98009 -5.9973,-45.11231 -2.30196,-19.03223 -4.96011,-38.0179 -8.16653,-56.92119 -3.41077,-19.13294 -7.58466,-38.1086 -12.33747,-56.95425 -4.93798,-19.91925 -10.54215,-39.66971 -15.15974,-59.66818 -3.86985,-18.80418 -7.23082,-37.69414 -9.74245,-56.73219 -1.44425,-9.22785 -2.75687,-18.51224 -4.78851,-27.62872 0,0 17.19927,-9.12432 17.19927,-9.12432 z"
       inkscape:connector-curvature="0" />
    <path
       style="fill:#502d16"
       id="path2989"
       d="m 326.01311,523.63419 c -0.74642,4.74301 -0.9043,9.55462 -1.0573,14.34587 -0.0179,6.26206 1.0155,12.44729 1.70752,18.65322 0.40607,4.96908 0.72038,9.92166 1.51123,14.84866 1.0246,5.13406 2.0433,10.2478 2.67056,15.44993 0.46142,3.97871 0.95347,7.97503 1.67568,11.91643 0.73894,4.13401 1.1664,8.30406 2.10979,12.40131 0.69963,3.69418 1.87046,7.22367 3.38274,10.65874 0.55419,1.60726 1.32977,3.12174 2.04214,4.66133 0,0 -2.23994,1.26599 -2.23994,1.26599 l 0,0 c -0.70859,-1.54319 -1.47973,-3.06139 -2.03839,-4.66852 -1.51914,-3.45054 -2.69914,-6.99469 -3.39358,-10.70767 -0.94796,-4.09881 -1.38201,-8.27045 -2.12459,-12.40636 -0.73018,-3.94728 -1.21043,-7.95505 -1.66313,-11.94153 -0.60684,-5.2028 -1.63349,-10.31084 -2.662,-15.44188 -0.81843,-4.92975 -1.11602,-9.88915 -1.50641,-14.86613 -0.6754,-6.21953 -1.71574,-12.41401 -1.71875,-18.68694 0.13153,-4.7913 0.30901,-9.59363 0.96342,-14.34729 0,0 2.34101,-1.13516 2.34101,-1.13516 z"
       inkscape:connector-curvature="0" />
    <path
       style="fill:#502d16"
       id="path2991"
       d="m 298.81525,365.50507 c 1.89068,5.07484 3.28442,10.28917 4.47939,15.5647 2.13314,12.29419 3.94118,24.63864 6.05534,36.93756 2.68366,14.65866 5.78072,29.23598 8.80573,43.82652 1.61187,6.49969 2.50999,13.18119 4.85744,19.47379 0.31481,0.60774 0.62962,1.21549 0.94443,1.82323 0,0 -2.21851,1.26658 -2.21851,1.26658 l 0,0 c -0.31618,-0.61862 -0.63235,-1.23723 -0.94853,-1.85585 -2.34035,-6.32205 -3.19874,-13.0301 -4.77163,-19.56422 -2.93969,-14.61872 -5.98665,-29.21635 -8.73295,-43.87337 -2.14417,-12.27393 -4.00529,-24.59109 -6.17405,-36.85942 -1.21507,-5.24104 -2.61094,-10.42731 -4.56076,-15.45038 0,0 2.2641,-1.28914 2.2641,-1.28914 z"
       inkscape:connector-curvature="0" />
    <path
       style="fill:#502d16"
       id="path2993"
       d="m 365.63041,357.98031 c 0.70744,9.48566 1.66364,18.95059 2.50634,28.42576 1.75842,19.47575 3.29476,38.97557 4.66053,58.48357 1.13137,16.30642 1.35566,32.6728 0.58656,48.99854 0,0 -2.16178,1.08775 -2.16178,1.08775 l 0,0 c 0.88474,-16.3397 0.70764,-32.72814 -0.41453,-49.05489 -1.36235,-19.49306 -2.92586,-38.97692 -4.75061,-58.4313 -0.88342,-9.44764 -1.87331,-18.88234 -2.73996,-28.33067 0,0 2.31345,-1.17876 2.31345,-1.17876 z"
       inkscape:connector-curvature="0" />
    <path
       style="fill:#502d16"
       id="path2995"
       d="m 365.4868,588.10787 c -1.67507,8.21042 -2.76289,16.52786 -3.71596,24.84864 -0.78465,8.45746 -1.48749,16.9601 -1.25644,25.45969 0.44294,4.11161 0.13512,2.09327 0.91112,6.05687 0,0 -2.2226,1.1872 -2.2226,1.1872 l 0,0 c -0.78318,-3.99243 -0.47297,-1.95956 -0.91826,-6.1005 -0.22044,-8.5213 0.52364,-17.04313 1.30294,-25.52199 0.94787,-8.29618 2.03578,-16.58234 3.55819,-24.79474 0,0 2.34101,-1.13517 2.34101,-1.13517 z"
       inkscape:connector-curvature="0" />
    <path
       style="fill:#502d16"
       id="path2997"
       d="m 372.20675,587.0864 c 0.4199,5.90098 1.13577,11.78618 1.98191,17.64059 0.91885,5.55532 1.49884,11.15019 1.7789,16.77148 0.30965,4.40598 -0.46257,8.82631 -1.69221,13.04681 0,0 -2.31792,1.09755 -2.31792,1.09755 l 0,0 c 1.27964,-4.18447 2.03596,-8.59819 1.75499,-12.98132 -0.27233,-5.61748 -0.82706,-11.21199 -1.74123,-16.76425 -0.84735,-5.8565 -1.5437,-11.74115 -2.07267,-17.63476 0,0 2.30823,-1.1761 2.30823,-1.1761 z"
       inkscape:connector-curvature="0" />
    <path
       style="fill:#502d16"
       id="path2999"
       d="m 358.60989,582.88606 c -3.36402,5.07126 -5.36288,10.77309 -7.05447,16.57306 -2.19227,8.98342 -2.65459,18.24778 -2.98011,27.45138 -0.10428,4.72517 -0.0654,2.426 -0.12029,6.89743 0,0 -2.23818,1.13646 -2.23818,1.13646 l 0,0 c 0.0708,-4.48408 0.0228,-2.17815 0.1479,-6.9177 0.34798,-9.21894 0.8099,-18.49615 2.95302,-27.50568 1.66122,-5.79185 3.61267,-11.49335 6.91748,-16.58248 0,0 2.37465,-1.05247 2.37465,-1.05247 z"
       inkscape:connector-curvature="0" />
    <path
       style="fill:#502d16"
       id="path3001"
       d="m 371.04142,545.95685 c 0.74798,5.49663 0.8353,11.0573 0.97522,16.59484 0.0999,4.7344 0.15367,9.4696 0.17572,14.20495 0,0 -2.2685,1.15684 -2.2685,1.15684 l 0,0 c -0.0104,-4.74069 -0.0262,-9.48167 -0.1313,-14.22142 -0.14138,-5.50942 -0.23494,-11.04789 -1.04552,-16.50853 0,0 2.29438,-1.22668 2.29438,-1.22668 z"
       inkscape:connector-curvature="0" />
    <path
       style="fill:#502d16"
       id="path3003"
       d="m 423.52514,343.50662 c -0.0509,7.35029 -0.0578,14.70083 -0.0778,22.05125 -0.03,12.75771 -0.0228,25.51548 0.001,38.27319 -0.18459,6.16909 0.05,3.17356 -0.66101,8.98986 0,0 -2.21692,1.09494 -2.21692,1.09494 l 0,0 c 0.74733,-5.80529 0.49328,-2.81177 0.71785,-8.98418 0.0238,-12.75808 0.0311,-25.51621 0.001,-38.27428 -0.0199,-7.32401 -0.0268,-14.64814 -0.0777,-21.97202 0,0 2.31344,-1.17876 2.31344,-1.17876 z"
       inkscape:connector-curvature="0" />
    <path
       style="fill:#502d16"
       id="path3005"
       d="m 314.45924,351.70461 c 1.24191,9.7218 4.6391,18.97558 8.10974,28.0811 2.90612,7.86681 1.42752,4.02137 4.42539,11.54032 0,0 -2.10409,1.17431 -2.10409,1.17431 l 0,0 c -2.98139,-7.53335 -1.50887,-3.6834 -4.40801,-11.55351 -3.49439,-9.10426 -6.89562,-18.34256 -8.31094,-28.0404 0,0 2.28791,-1.20182 2.28791,-1.20182 z"
       inkscape:connector-curvature="0" />
  </g>
</svg>
