<?xml version="1.0" encoding="UTF-8" standalone="no"?>
<!-- Created with Inkscape (http://www.inkscape.org/) -->

<svg
   xmlns:dc="http://purl.org/dc/elements/1.1/"
   xmlns:cc="http://creativecommons.org/ns#"
   xmlns:rdf="http://www.w3.org/1999/02/22-rdf-syntax-ns#"
   xmlns:svg="http://www.w3.org/2000/svg"
   xmlns="http://www.w3.org/2000/svg"
   xmlns:sodipodi="http://sodipodi.sourceforge.net/DTD/sodipodi-0.dtd"
   xmlns:inkscape="http://www.inkscape.org/namespaces/inkscape"
   width="1024"
   height="1024"
   id="svg3254"
   version="1.1"
   inkscape:version="0.48.5 r10040"
   sodipodi:docname="mudBrick2.svg"
   inkscape:export-filename="C:\Users\narfman0\Desktop\mudBrick2.png"
   inkscape:export-xdpi="90"
   inkscape:export-ydpi="90">
  <sodipodi:namedview
     id="base"
     pagecolor="#ffffff"
     bordercolor="#666666"
     borderopacity="1.0"
     inkscape:pageopacity="0.0"
     inkscape:pageshadow="2"
     inkscape:zoom="0.55048947"
     inkscape:cx="78.899877"
     inkscape:cy="539.52615"
     inkscape:document-units="px"
     inkscape:current-layer="layer1"
     showgrid="false"
     inkscape:window-width="1709"
     inkscape:window-height="956"
     inkscape:window-x="110"
     inkscape:window-y="25"
     inkscape:window-maximized="0" />
  <defs
     id="defs3256" />
  <metadata
     id="metadata3259">
    <rdf:RDF>
      <cc:Work
         rdf:about="">
        <dc:format>image/svg+xml</dc:format>
        <dc:type
           rdf:resource="http://purl.org/dc/dcmitype/StillImage" />
        <dc:title></dc:title>
      </cc:Work>
    </rdf:RDF>
  </metadata>
  <g
     inkscape:label="Layer 1"
     inkscape:groupmode="layer"
     id="layer1"
     transform="translate(0,-28.362183)">
    <rect
       style="fill:#784421;fill-opacity:1;stroke:none"
       id="rect2984"
       width="1033.6256"
       height="1031.8091"
       x="-3.6331303"
       y="-4.1758981"
       transform="translate(0,28.362183)" />
    <path
       style="fill:#713b1c;fill-opacity:1;stroke:none"
       d="m 682.51042,276.30294 c -23.29083,-0.95109 -44.97858,13.69 -67.83735,10.21818 -14.77514,21.79804 -37.27064,43.22747 -33.54969,71.92463 -0.14348,14.31763 16.09009,20.7088 25.43191,28.55413 13.29608,10.88544 14.31881,29.90531 20.36773,45.0604 7.67097,26.23817 12.5534,53.68424 14.77145,80.56644 9.18244,16.64172 26.38983,27.02164 45.18706,29.00828 48.21984,8.07746 98.17169,-7.24067 145.86359,6.2288 13.15135,0.95842 29.35234,8.58027 41.07232,-0.21143 12.79485,-16.75324 5.29022,-40.1567 11.29677,-59.03837 21.15018,-25.66356 56.07631,-39.47233 72.03816,-70.2216 9.73592,-19.82891 12.50466,-44.32435 5.7903,-65.56665 -9.98315,-21.16587 -36.44269,-26.11015 -56.81492,-32.90053 -50.41272,-13.22774 -103.5591,-13.43939 -152.92351,-31.19532 -22.99748,-6.58705 -46.63302,-12.93493 -70.69382,-12.42696 z"
       id="path2988"
       inkscape:connector-curvature="0" />
    <path
       style="fill:#713b1c;fill-opacity:1;stroke:none"
       d="m 774.53081,758.79296 c -26.64117,2.47729 -47.34345,22.76005 -69.66119,35.74955 -13.27535,10.79418 -32.95119,17.58668 -39.27596,34.64235 -5.39436,17.77686 6.16562,33.46097 16.46262,46.77655 3.93158,8.15528 15.22385,14.05074 14.9299,23.33151 -7.63796,15.31031 -22.75438,26.66464 -29.81554,42.96566 -11.25258,16.62417 -14.31926,37.77335 -26.55475,53.65291 -12.34746,9.08491 -26.39096,17.18551 -36.89898,28.32701 6.30115,4.8635 16.91663,1.3917 24.63686,2.8153 104.39137,0.9483 208.79222,0.3722 313.1875,0.5908 7.98424,-21.2462 -6.10143,-43.31682 -8.0284,-64.85913 -9.27199,-41.63146 0.0594,-86.8837 -18.53887,-126.33435 -11.9228,-26.94002 -40.35359,-39.26089 -66.85508,-47.59776 -15.79267,-4.72192 -31.86279,-10.85569 -41.79822,-24.89454 -8.18228,-7.28452 -21.64556,-4.44448 -31.78989,-5.16586 z"
       id="path2996"
       inkscape:connector-curvature="0"
       transform="translate(0,28.362183)" />
    <path
       style="fill:#713b1c;fill-opacity:1;stroke:none"
       d="m 429.15635,476.63604 c -60.71405,0.73693 -118.10612,26.07809 -178.87229,26.19422 -38.26054,1.54369 -76.7497,0.36754 -114.90037,1.5084 -20.39526,17.64989 -31.43305,43.78801 -31.27898,70.61897 0.77122,19.38623 7.60764,39.50572 2.78162,58.75453 -10.758857,17.22971 -27.503367,30.5579 -37.324787,48.83445 -15.08287,22.39036 -37.13608,46.18671 -31.47762,75.65703 4.2438,26.53264 32.05198,38.56719 54.32665,47.00363 28.639687,6.2433 59.109107,10.43133 88.046647,4.31434 27.26931,-9.1138 49.78375,-28.14548 77.33461,-37.23185 23.5481,-8.19739 28.51617,-36.83836 31.19033,-58.52275 -0.26907,-10.45966 5.38923,-21.49647 16.93159,-22.15184 16.28231,-4.9798 35.86417,-2.06136 50.01231,-12.37535 11.00468,-15.06864 8.8884,-35.68627 10.84262,-53.41837 1.33193,-13.17684 -3.91751,-33.80204 11.80768,-40.1915 29.69441,-7.16694 60.99335,-1.41943 91.26857,-5.42578 12.47111,-1.51897 31.25156,-2.24512 33.62028,-18.1328 3.49791,-19.79478 4.62405,-40.97169 1.4192,-60.68463 -11.24124,-17.34937 -35.17465,-21.94456 -54.60461,-24.15875 -7.02511,-0.57078 -14.0772,-0.77847 -21.12345,-0.59195 z"
       id="path2998"
       inkscape:connector-curvature="0" />
    <path
       style="fill:#713b1c;fill-opacity:1;stroke:none"
       d="m 601.73004,26.41172 c -6.28898,14.2768 -5.18751,31.4568 -1.98687,46.3224 8.06482,18.0148 28.26837,23.904 46.26565,26.4537 40.77304,6.9808 81.94273,12.835 123.5832,10.4453 24.22855,-0.1953 49.24754,-5.4179 72.36108,4.2601 28.09928,6.0969 55.49537,17.5415 84.31767,18.8443 14.25649,-2.7549 10.54634,-20.038 8.57191,-30.2004 -2.10592,-18.6186 -13.75677,-36.7211 -10.89939,-55.462 7.40129,-4.9883 20.50563,-6.8672 20.66343,-18.563 -7.83159,-3.6507 -19.57198,-0.7574 -28.61075,-2.0664 -104.44867,-1.078 -208.90532,-0.5098 -313.35764,-0.6585 l -0.90829,0.6245 z"
       id="path3000"
       inkscape:connector-curvature="0" />
    <path
       style="fill:#a95e21;fill-opacity:1;stroke:none"
       d="m 1015.396,359.53958 c -17.3442,6.3126 -40.00992,10.57013 -46.72064,30.41428 -15.19762,30.5964 -21.12617,64.91855 -21.74116,98.67538 -0.42619,14.43509 -16.12955,17.12111 -27.58909,17.88182 -12.54107,2.39262 -8.66357,18.7585 -9.4802,27.81615 0.44875,12.15491 -2.54275,30.12545 -18.10888,30.03009 -13.73774,1.63115 -26.89878,-9.91555 -40.24827,-2.04363 -10.36168,3.59124 -20.86722,17.50636 -32.18727,9.4802 -12.5905,-10.4816 -33.20902,-14.49141 -46.20887,-2.89515 -8.87447,12.36563 -7.90597,29.85377 -4.65495,44.0517 10.7779,23.90328 39.97218,29.01738 63.35271,32.47111 23.92583,0.29135 48.46118,3.26046 72.03816,-1.36243 18.19122,-6.76336 33.91529,-26.83406 55.17817,-20.09575 19.73782,5.0333 43.22749,7.55081 61.30909,-3.23576 14.1721,-13.76073 8.09,-34.69599 9.3265,-52.33978 0.046,-70.50543 0.043,-141.01087 0.04,-211.51631 -4.0947,-1.89634 -9.7289,2.22804 -14.3054,2.66808 z"
       id="path3008"
       inkscape:connector-curvature="0"
       transform="translate(0,28.362183)" />
    <path
       style="fill:#a95e21;fill-opacity:1;stroke:none"
       d="m 29.511972,382.79451 c -10.2303,0.59516 -21.3824003,0.28167 -30.6545003,4.38876 0.58909996,78.9836 -1.3083,158.07689 1.30569996,236.99271 2.54780004,5.6092 4.03140004,-4.6418 5.50640004,-6.72942 17.6321003,-29.15807 45.0062003,-50.98839 66.1514003,-77.58623 12.5094,-15.59059 25.6062,-32.28106 45.437498,-37.91902 18.4949,-9.41093 40.3252,-8.4594 59.1115,-16.56698 12.3972,-7.58241 10.8611,-25.53177 9.026,-38.21143 -5.5966,-24.27329 -22.1388,-47.04436 -46.6062,-52.8406 -31.078,-8.77651 -63.842898,-7.07389 -95.539998,-11.41075 -4.5765,-0.19551 -9.1587,-0.22389 -13.7378,-0.11704 z"
       id="path3010"
       inkscape:connector-curvature="0" />
    <path
       style="fill:#a95e21;fill-opacity:1;stroke:none"
       d="m 373.63758,783.13987 c -32.0741,3.30407 -60.78669,19.71348 -91.03317,29.42244 -32.93778,13.19999 -65.7224,29.11004 -92.78052,52.323 -14.231,12.07531 -11.52377,32.40968 -19.69838,47.51453 -11.80868,12.98984 -32.11134,14.04559 -45.83761,25.12635 -7.98647,6.56339 -20.75952,8.88811 -26.370859,17.67647 2.628419,12.45619 13.257639,20.04307 25.034539,22.76383 11.15554,1.74389 14.19672,13.05391 14.36222,22.65031 1.9183,7.826 -2.27541,19.669 4.71171,25.0913 44.40353,3.6786 89.64916,1.2791 134.36903,2.1465 49.35002,0.038 98.70007,0.043 148.05009,0.067 -1.38513,-5.9709 -6.55335,-13.3013 -6.01737,-20.9472 -4.50157,-28.70594 21.64285,-48.80958 30.25618,-74.11997 6.35633,-16.29057 6.40456,-34.26379 12.20603,-50.71215 2.19692,-13.42005 4.19759,-33.65605 -12.20504,-38.82908 -14.38313,-5.47189 -31.79727,-10.4855 -36.56445,-27.14588 -5.37877,-15.48052 -15.34074,-34.58144 -34.50867,-33.08461 -1.32462,0.0172 -2.65098,-0.0462 -3.97373,0.0568 z"
       id="path3014"
       inkscape:connector-curvature="0"
       transform="translate(0,28.362183)" />
    <path
       style="fill:#a95e21;fill-opacity:1;stroke:none"
       d="m 145.20451,23.226289 c -1.10696,13.2587 -15.80624,26.7096 -4.59818,39.2832 4.99292,7.7092 2.89199,19.1351 -7.2095,20.8338 -13.1417,4.6705 -27.91953,16.127 -24.58039,32.016901 -1.17937,6.4999 3.445,12.201 10.26916,10.8172 27.55511,2.8566 56.07996,0.5143 83.11364,5.8158 12.07267,7.7586 22.22972,19.3472 37.63696,20.8337 28.50009,9.4214 59.69504,16.7032 89.06846,6.9256 33.31697,-5.3452 69.13984,1.0123 100.89579,-12.1913 8.35372,-1.8494 15.56477,-9.6819 10.65267,-18.2929 -7.62031,-18.9746 -14.59932,-38.710801 -11.18323,-59.606001 1.00798,-15.5833 6.04468,-32.7608 -1.70303,-47.2307 -93.79911,0 -187.5982,0 -281.3973,0 l -0.96505,0.7947 z"
       id="path3016"
       inkscape:connector-curvature="0" />
    <path
       style="fill:#a05a2c;fill-opacity:1;stroke:none"
       d="m 104.39487,135.12763 c -16.849507,3.16897 -36.221157,3.792 -50.645242,14.37652 -11.749179,18.5867 -8.364293,43.20736 -7.657931,64.42312 11.082322,34.43951 47.00262,48.54612 74.569043,65.70568 19.82773,13.4555 45.53032,24.77536 55.16517,49.0353 2.72233,17.385 -4.10312,35.76034 -2.76715,52.96258 25.94782,8.36638 39.53936,35.61581 49.13378,60.30167 5.11351,11.30064 1.15493,26.5862 9.49114,35.99394 35.9761,8.53463 72.48968,-3.79091 106.65048,-15.31232 39.6321,-12.66655 79.52241,-29.65041 121.73575,-24.83345 32.94339,-0.0203 65.48517,11.19576 98.26593,7.12044 9.00172,-19.94682 13.13306,-43.4647 9.45979,-65.16906 -12.67081,-24.04018 -37.52008,-37.80946 -56.00963,-56.20077 -6.68963,-8.59434 -20.74573,-13.54662 -22.6932,-25.17581 6.86925,-16.45387 26.37939,-22.04005 36.03727,-36.61946 12.73009,-16.11732 25.87505,-34.94624 22.39459,-57.30267 -0.94213,-13.3693 -4.48697,-34.28795 -21.36495,-32.82188 -38.20987,-4.24218 -66.91419,28.37143 -100.45391,41.56987 -15.12571,7.20148 -31.80204,10.84248 -47.94245,4.4757 -27.03242,-1.77953 -54.41007,3.85363 -81.66117,1.4425 -15.31417,1.64442 -29.35484,-2.3114 -42.35193,-10.85627 -47.46714,-24.45358 -90.65629,-61.57025 -143.43496,-72.91219 -1.95904,-0.26774 -3.94906,-0.35762 -5.92042,-0.20344 z"
       id="path3020"
       inkscape:connector-curvature="0" />
    <path
       style="fill:#a05a2c;fill-opacity:1;stroke:none"
       d="m 598.43753,600.21282 c -20.4659,0.19602 -29.0436,22.9958 -41.2128,35.87647 -9.6822,15.40846 -29.6306,7.23141 -44.5631,9.87826 -16.8094,1.91633 -32.4799,10.75349 -49.8988,8.62869 -7.82,-0.375 -19.1429,-1.0458 -19.7283,9.77452 -8.5875,18.01941 -15.2529,40.43283 -3.0923,58.51698 4.9722,12.13555 21.8463,23.3268 14.5325,37.52342 -6.7599,13.3789 -21.4776,31.08728 -9.0261,45.6412 14.6099,17.68573 40.9045,14.97021 57.65,29.90947 12.0343,8.56651 25.988,17.75464 34.0362,29.91969 2.2033,11.7606 -1.1967,26.2248 6.2948,36.27849 13.0956,12.05715 27.6143,22.87881 39.9077,35.6501 9.001,0.28487 14.8475,-10.58753 21.1176,-15.89495 16.9838,-17.38237 7.5429,-44.50541 15.9517,-65.50988 6.2202,-19.27109 16.1688,-39.49573 36.2177,-47.45777 20.0811,-11.20537 44.8336,-8.24922 64.3267,-21.12919 19.5921,-7.68501 28.2234,-28.86014 27.2964,-48.7518 1.572,-35.73955 -9.3356,-72.22052 -33.2091,-99.28664 -9.8678,-19.99895 -34.8844,-24.15236 -54.4565,-29.727 -20.4619,-4.56882 -40.9188,-11.30199 -62.1443,-9.84006 z"
       id="path3024"
       inkscape:connector-curvature="0" />
  </g>
</svg>
