<?xml version="1.0" encoding="UTF-8" standalone="no"?>
<!-- Created with Inkscape (http://www.inkscape.org/) -->

<svg
   xmlns:dc="http://purl.org/dc/elements/1.1/"
   xmlns:cc="http://creativecommons.org/ns#"
   xmlns:rdf="http://www.w3.org/1999/02/22-rdf-syntax-ns#"
   xmlns:svg="http://www.w3.org/2000/svg"
   xmlns="http://www.w3.org/2000/svg"
   xmlns:sodipodi="http://sodipodi.sourceforge.net/DTD/sodipodi-0.dtd"
   xmlns:inkscape="http://www.inkscape.org/namespaces/inkscape"
   width="1024"
   height="1024"
   id="svg3254"
   version="1.1"
   inkscape:version="0.48.5 r10040"
   sodipodi:docname="mudBrick2Right.svg"
   inkscape:export-filename="C:\Users\narfman0\Desktop\mudBrick2.png"
   inkscape:export-xdpi="90"
   inkscape:export-ydpi="90">
  <sodipodi:namedview
     id="base"
     pagecolor="#ffffff"
     bordercolor="#666666"
     borderopacity="1.0"
     inkscape:pageopacity="0.0"
     inkscape:pageshadow="2"
     inkscape:zoom="0.55981979"
     inkscape:cx="78.899877"
     inkscape:cy="640.34969"
     inkscape:document-units="px"
     inkscape:current-layer="layer1"
     showgrid="false"
     inkscape:window-width="1709"
     inkscape:window-height="956"
     inkscape:window-x="110"
     inkscape:window-y="25"
     inkscape:window-maximized="0" />
  <defs
     id="defs3256" />
  <metadata
     id="metadata3259">
    <rdf:RDF>
      <cc:Work
         rdf:about="">
        <dc:format>image/svg+xml</dc:format>
        <dc:type
           rdf:resource="http://purl.org/dc/dcmitype/StillImage" />
        <dc:title></dc:title>
      </cc:Work>
    </rdf:RDF>
  </metadata>
  <g
     inkscape:label="Layer 1"
     inkscape:groupmode="layer"
     id="layer1"
     transform="translate(0,-28.362183)">
    <path
       style="fill:none;stroke:#000000;stroke-width:1px;stroke-linecap:butt;stroke-linejoin:miter;stroke-opacity:1"
       d="M 634.59029,29.605714 1030.6015,25.972583 1021.5187,1077.7638 598.25899,1057.7816"
       id="path2995"
       inkscape:connector-curvature="0" />
    <path
       style="fill:#784421;fill-opacity:1;stroke:none"
       d="m 1033.5079,26.772391 c -3.8729,341.372229 -6.5729,682.759829 -8.858,1024.145409 -2.7974,7.9465 6.5468,28.4231 -6.5587,26.357 -133.92595,-7.1305 -267.9807,-11.9021 -401.88295,-19.4881 -1.35279,-10.6674 -6.45194,-20.703 -11.60117,-30.314 -6.55266,-12.8499 -6.47242,-27.2126 -1.82876,-40.64562 2.26289,-18.66086 -0.43845,-37.98281 -2.8003,-56.31352 8.11301,-15.80762 21.0788,-30.51172 21.88795,-49.16079 3.64549,-20.98255 -13.29043,-42.87176 0.15557,-62.38036 14.42969,-18.17753 18.17705,-45.92829 3.84485,-64.89274 -6.12671,-11.04201 -1.87054,-24.58229 -9.71241,-35.12779 -5.58338,-9.33709 -11.35085,-18.88603 -2.18533,-28.16886 9.26507,-13.30894 11.32765,-28.85699 9.66893,-44.67544 1.96643,-19.23926 -12.93987,-33.115 -22.68802,-47.79837 -4.3538,-12.23366 -4.93825,-25.72556 -7.20074,-38.43171 3.0901,-9.70518 8.86386,-18.63889 7.25788,-29.46242 0.66016,-14.34354 0.43128,-28.78142 -7.07566,-41.33356 -3.87007,-9.4114 -5.24938,-19.34689 -1.89668,-29.00157 5.56832,-44.26328 -0.004,-89.47721 4.6862,-133.74461 3.07078,-21.43979 23.38045,-37.8534 19.88774,-60.62786 -1.89105,-21.20766 12.03373,-38.90665 14.21645,-59.62179 2.92407,-19.03865 15.01386,-38.18762 6.01418,-57.3196 -6.48353,-13.02498 2.05489,-28.4224 -7.25789,-40.92948 -9.77173,-10.848867 -2.4238,-19.011821 7.37218,-26.056355 14.79336,-12.338134 18.94925,-32.006768 17.14462,-50.636754 26.92097,-2.623773 55.68779,-0.881867 83.31877,-1.82636 98.35731,-0.918931 196.71297,-2.033057 295.06259,-3.566568 l 1.0287,1.021818 z"
       id="path2997"
       inkscape:connector-curvature="0" />
    <path
       style="fill:#713b1c;fill-opacity:1;stroke:none"
       d="m 590.54575,476.60576 c 60.71405,0.73693 118.10612,26.07809 178.87229,26.19422 38.26054,1.54369 76.7497,0.36754 114.90037,1.5084 20.39526,17.64989 31.43306,43.78801 31.27899,70.61897 -0.77122,19.38623 -7.60764,39.50572 -2.78162,58.75453 10.75886,17.22971 27.50337,30.5579 37.32479,48.83445 15.08287,22.39036 37.13608,46.18671 31.47762,75.65703 -4.2438,26.53264 -32.05198,38.56719 -54.32665,47.00363 -28.6397,6.2433 -59.10912,10.43133 -88.04666,4.31434 -27.26931,-9.1138 -49.78375,-28.14548 -77.33461,-37.23185 -23.5481,-8.19739 -28.51617,-36.83836 -31.19033,-58.52275 0.26907,-10.45966 -5.38923,-21.49647 -16.93159,-22.15184 -16.28231,-4.9798 -35.86417,-2.06136 -50.01231,-12.37535 -11.00468,-15.06864 -8.8884,-35.68627 -10.84262,-53.41837 -1.33193,-13.17684 3.91751,-33.80204 -11.80768,-40.1915 -29.69441,-7.16694 -60.99335,-1.41943 -91.26857,-5.42578 -12.47111,-1.51897 -31.25156,-2.24512 -33.62028,-18.1328 -3.49791,-19.79478 -4.62405,-40.97169 -1.4192,-60.68463 11.24124,-17.34937 35.17465,-21.94456 54.60461,-24.15875 7.02511,-0.57078 14.0772,-0.77847 21.12345,-0.59195 z"
       id="path2998"
       inkscape:connector-curvature="0" />
    <path
       style="fill:#a95e21;fill-opacity:1;stroke:none"
       d="m 998.59584,382.76423 c 10.23026,0.59516 21.38236,0.28167 30.65446,4.38876 -0.5891,78.9836 1.3083,158.07689 -1.3057,236.99271 -2.5478,5.6092 -4.0314,-4.6418 -5.5064,-6.72942 -17.6321,-29.15807 -45.00616,-50.98839 -66.15136,-77.58623 -12.5094,-15.59059 -25.6062,-32.28106 -45.43751,-37.91902 -18.4949,-9.41093 -40.3252,-8.4594 -59.1115,-16.56698 -12.3972,-7.58241 -10.8611,-25.53177 -9.026,-38.21143 5.5966,-24.27329 22.1388,-47.04436 46.6062,-52.8406 31.07802,-8.77651 63.84291,-7.07389 95.54001,-11.41075 4.5765,-0.19551 9.1587,-0.22389 13.7378,-0.11704 z"
       id="path3010"
       inkscape:connector-curvature="0" />
    <path
       style="fill:#a95e21;fill-opacity:1;stroke:none"
       d="m 646.06452,811.47178 c 32.0741,3.30407 60.78669,19.71348 91.03317,29.42244 32.93778,13.19999 65.7224,29.11004 92.78052,52.323 14.231,12.07531 11.52377,32.40968 19.69838,47.51453 11.80868,12.98984 32.11134,14.04559 45.83761,25.12635 7.98647,6.56339 20.75953,8.88811 26.37087,17.67647 -2.62842,12.4562 -13.25764,20.04313 -25.03455,22.76383 -11.15554,1.7439 -14.19672,13.0539 -14.36222,22.6503 -1.9183,7.826 2.27541,19.669 -4.71171,25.0913 -44.40353,3.6786 -89.64916,1.2791 -134.36903,2.1465 -49.35002,0.038 -98.70007,0.043 -148.05009,0.067 1.38513,-5.9709 6.55335,-13.3013 6.01737,-20.9472 4.50157,-28.7059 -21.64285,-48.80953 -30.25618,-74.11996 -6.35633,-16.29057 -6.40456,-34.26379 -12.20603,-50.71215 -2.19692,-13.42005 -4.19759,-33.65605 12.20504,-38.82908 14.38313,-5.47189 31.79727,-10.4855 36.56445,-27.14588 5.37877,-15.48052 15.34074,-34.58144 34.50867,-33.08461 1.32462,0.0172 2.65098,-0.0462 3.97373,0.0568 z"
       id="path3014"
       inkscape:connector-curvature="0" />
    <path
       style="fill:#a95e21;fill-opacity:1;stroke:none"
       d="m 874.49759,23.196013 c 1.10696,13.2587 15.80624,26.7096 4.59818,39.2832 -4.99292,7.7092 -2.89199,19.1351 7.2095,20.833799 13.1417,4.6705 27.91954,16.127 24.5804,32.016898 1.17937,6.4999 -3.445,12.201 -10.26917,10.8172 -27.55511,2.8566 -56.07996,0.5143 -83.11364,5.8158 -12.07267,7.7586 -22.22972,19.3472 -37.63696,20.8337 -28.50009,9.4214 -59.69504,16.7032 -89.06846,6.9256 -33.31697,-5.3452 -69.13984,1.0123 -100.89579,-12.1913 -8.35372,-1.8494 -15.56477,-9.6819 -10.65267,-18.2929 7.62031,-18.9746 14.59932,-38.710798 11.18323,-59.605997 -1.00798,-15.5833 -6.04468,-32.7608 1.70303,-47.2307 93.79911,0 187.5982,0 281.3973,0 l 0.96505,0.7947 z"
       id="path3016"
       inkscape:connector-curvature="0" />
    <path
       style="fill:#a05a2c;fill-opacity:1;stroke:none"
       d="m 915.30724,135.09735 c 16.84951,3.16897 36.22116,3.792 50.64524,14.37652 11.74918,18.5867 8.3643,43.20736 7.65794,64.42312 -11.08233,34.43951 -47.00262,48.54612 -74.56906,65.70568 -19.82773,13.4555 -45.53032,24.77536 -55.16517,49.0353 -2.72233,17.385 4.10312,35.76034 2.76715,52.96258 -25.94782,8.36638 -39.53936,35.61581 -49.13378,60.30167 -5.11351,11.30064 -1.15493,26.5862 -9.49114,35.99394 -35.9761,8.53463 -72.48968,-3.79091 -106.65048,-15.31232 -39.6321,-12.66655 -79.52241,-29.65041 -121.73575,-24.83345 -32.94339,-0.0203 -65.48517,11.19576 -98.26593,7.12044 -9.00172,-19.94682 -13.13306,-43.4647 -9.45979,-65.16906 12.67081,-24.04018 37.52008,-37.80946 56.00963,-56.20077 6.68963,-8.59434 20.74573,-13.54662 22.6932,-25.17581 -6.86925,-16.45387 -26.37939,-22.04005 -36.03727,-36.61946 -12.73009,-16.11732 -25.87505,-34.94624 -22.39459,-57.30267 0.94213,-13.3693 4.48697,-34.28795 21.36495,-32.82188 38.20987,-4.24218 66.91419,28.37143 100.45391,41.56987 15.12571,7.20148 31.80204,10.84248 47.94245,4.4757 27.03242,-1.77953 54.41007,3.85363 81.66117,1.4425 15.31417,1.64442 29.35484,-2.3114 42.35193,-10.85627 47.46714,-24.45358 90.65629,-61.57025 143.43497,-72.91219 1.95904,-0.26774 3.94906,-0.35762 5.92042,-0.20344 z"
       id="path3020"
       inkscape:connector-curvature="0" />
  </g>
</svg>
