<?xml version="1.0" encoding="UTF-8" standalone="no"?>
<!-- Created with Inkscape (http://www.inkscape.org/) -->

<svg
   xmlns:dc="http://purl.org/dc/elements/1.1/"
   xmlns:cc="http://creativecommons.org/ns#"
   xmlns:rdf="http://www.w3.org/1999/02/22-rdf-syntax-ns#"
   xmlns:svg="http://www.w3.org/2000/svg"
   xmlns="http://www.w3.org/2000/svg"
   xmlns:sodipodi="http://sodipodi.sourceforge.net/DTD/sodipodi-0.dtd"
   xmlns:inkscape="http://www.inkscape.org/namespaces/inkscape"
   width="64"
   height="32"
   id="svg2"
   version="1.1"
   inkscape:version="0.48.4 r9939"
   sodipodi:docname="New document 1">
  <defs
     id="defs4" />
  <sodipodi:namedview
     id="base"
     pagecolor="#ffffff"
     bordercolor="#666666"
     borderopacity="1.0"
     inkscape:pageopacity="0.0"
     inkscape:pageshadow="2"
     inkscape:zoom="9.91"
     inkscape:cx="33.106014"
     inkscape:cy="20.771931"
     inkscape:document-units="px"
     inkscape:current-layer="layer1"
     showgrid="false"
     inkscape:window-width="821"
     inkscape:window-height="819"
     inkscape:window-x="625"
     inkscape:window-y="131"
     inkscape:window-maximized="0" />
  <metadata
     id="metadata7">
    <rdf:RDF>
      <cc:Work
         rdf:about="">
        <dc:format>image/svg+xml</dc:format>
        <dc:type
           rdf:resource="http://purl.org/dc/dcmitype/StillImage" />
        <dc:title></dc:title>
      </cc:Work>
    </rdf:RDF>
  </metadata>
  <g
     inkscape:label="Layer 1"
     inkscape:groupmode="layer"
     id="layer1"
     transform="translate(0,-1020.3622)">
    <path
       style="fill:#784421"
       d="m 60.882198,1020.5737 c -1.676823,0.4427 -3.331152,1.0792 -5.031845,1.3372 -5.777716,1.09 -11.645695,1.4479 -17.480589,1.9267 -7.082937,0.4345 -14.190213,0.3699 -21.24464,-0.6006 -3.687874,-0.4283 -7.3768845,-0.8965 -11.0826437,-0.8786 -1.0746521,0.045 -1.3439837,1.7134 -1.8626028,2.7067 -0.9707932,2.3401 -1.7154103,4.8721 -1.9085471,7.5496 -0.2938213,2.1896 -0.2454412,4.4157 -0.355464,6.6227 -0.4234095,3.0459 -1.24631307,6.0031 -1.45406929,9.1025 -0.12774103,1.1309 0.38895579,2.3344 1.28825429,2.2584 4.3528723,0.195 8.7220146,-0.1096 13.0522816,0.6115 3.600697,0.4578 7.206831,0.9828 10.825062,1.0611 3.76393,-0.052 7.539732,0.1345 11.29455,-0.2754 2.911382,-0.4095 5.801124,-1.1004 8.663829,-1.9285 4.365738,-0.4699 8.570502,1.9533 12.942977,1.6682 0.943158,-0.1291 1.922879,-0.2681 2.774363,-0.841 0.457447,-0.5934 0.350493,-1.4846 0.06057,-2.1514 -0.12835,-2.6716 -0.06146,-5.4066 -0.04364,-8.0919 0.548844,-3.8327 1.686965,-7.5044 2.020657,-11.3774 0.252399,-2.5471 -0.575926,-4.9501 -1.16033,-7.3057 -0.193517,-0.7927 -0.63462,-1.4684 -1.29819,-1.3941 z"
       id="path2999"
       inkscape:connector-curvature="0" />
    <path
       style="fill:#916f6f"
       id="path2985"
       d="m 6.8935414,1021.8658 c -0.1385102,0.2409 -0.2723302,0.4865 -0.4026103,0.7358 -0.1636569,0.3203 -0.3268224,0.6407 -0.4951311,0.9566 -0.1580544,0.3367 -0.3344917,0.6569 -0.4883655,0.9972 -0.1630868,0.3264 -0.3087645,0.6649 -0.4432581,1.0138 -0.1392835,0.3432 -0.2851645,0.6811 -0.4116762,1.0333 -0.1272611,0.3454 -0.2437596,0.6975 -0.3639104,1.0476 -0.1140217,0.3065 -0.2147827,0.621 -0.3140654,0.9363 -0.084604,0.286 -0.1566428,0.5777 -0.2335354,0.8674 -0.074598,0.2925 -0.1426367,0.5874 -0.208549,0.8837 -0.064902,0.323 -0.1014495,0.6547 -0.1491934,0.9831 -0.031869,0.2892 -0.060433,0.5773 -0.1030471,0.8641 -0.040385,0.2725 -0.046853,0.55 -0.084205,0.8228 -0.043604,0.2663 -0.063268,0.5371 -0.074259,0.8088 -0.00199,0.2798 -0.050798,0.5532 -0.078217,0.8296 -0.00608,0.2533 -0.04586,0.4979 -0.084287,0.7446 -0.036216,0.2491 -0.042366,0.5033 -0.047108,0.7563 -0.00348,0.2728 -0.00276,0.5458 -0.00253,0.8187 0.024973,0.2344 0.062647,0.4653 0.081991,0.701 0.016045,0.2719 0.026692,0.5456 0.012725,0.818 -0.023894,0.2826 -0.070588,0.5585 -0.1212219,0.834 -0.049329,0.3232 -0.093783,0.6477 -0.1440574,0.9707 -0.054849,0.3489 -0.1272264,0.6922 -0.1810126,1.0414 -0.04118,0.3315 -0.087176,0.662 -0.1523021,0.9867 -0.046982,0.2818 -0.1099575,0.5582 -0.1568811,0.8401 -0.053163,0.2985 -0.121885,0.5913 -0.1779022,0.8887 -0.062669,0.3226 -0.1255829,0.6438 -0.1995852,0.9617 -0.062175,0.3233 -0.1160011,0.6492 -0.1796997,0.9719 -0.052032,0.2917 -0.092414,0.5865 -0.1419734,0.8792 -0.044895,0.2714 -0.051301,0.5495 -0.08878,0.8226 -0.043556,0.2662 -0.063036,0.537 -0.073937,0.8086 0.00734,0.2387 -0.043878,0.4992 0.023406,0.7269 0.1311954,0.1402 0.4267022,0.1194 0.5913672,0.1276 0.327097,0.013 0.6542776,0 0.9814215,0.013 0.5176529,0 1.0351948,0.014 1.5528747,0.014 0.6402213,0 1.2804421,-6e-4 1.9206597,10e-4 0.695881,0 1.3917571,0 2.0876445,0 0.7287912,-0.013 1.456585,0 2.184542,0.042 0.763002,0.08 1.523706,0.1901 2.286449,0.2717 0.788464,0.062 1.575642,0.157 2.359745,0.2844 0.797172,0.112 1.593931,0.227 2.390791,0.3421 0.817618,0.1223 1.638402,0.1888 2.458193,0.2756 0.835823,0.076 1.670028,0.1784 2.506635,0.238 0.846706,0.094 1.695016,0.1459 2.544098,0.1776 0.84992,0.02 1.70007,0.026 2.550119,0.023 0.847882,0 1.695748,0 2.543626,-3e-4 0.832812,0 1.665618,0 2.498429,0 0.788959,0.013 1.576939,-0.061 2.362828,-0.1481 0.706599,-0.051 1.41021,-0.1434 2.112472,-0.2578 0.599165,-0.083 1.195487,-0.1988 1.79316,-0.2985 0.508632,-0.081 1.016335,-0.174 1.521661,-0.2867 0.390651,-0.1182 0.786274,-0.202 1.180633,-0.2941 0.326949,-0.07 0.658081,-0.121 0.97924,-0.2316 0.288131,-0.091 0.57849,-0.1653 0.871723,-0.2199 0.242001,-0.1195 0.509778,-0.1223 0.751012,-0.2352 0.17679,-0.074 0.357753,-0.112 0.536554,-0.1735 0.202888,-0.037 0.398557,-0.1085 0.598729,-0.1624 0.204824,-0.051 0.413323,-0.059 0.620967,-0.065 0.20463,0 0.409284,0 0.613925,0 0.204072,6e-4 0.408144,9e-4 0.612215,9e-4 0.204072,10e-5 0.408141,10e-5 0.612212,10e-5 0.207298,0.014 0.410528,0.081 0.617432,0.1108 0.196489,0 0.381865,0.051 0.57224,0.105 0.189671,0.02 0.371301,0.083 0.557308,0.1345 0.205921,0.029 0.402675,0.1131 0.606764,0.1564 0.208366,0.014 0.408794,0.07 0.613058,0.1197 0.204528,0.054 0.403186,0.1332 0.611,0.1687 0.205019,0.038 0.404849,0.1085 0.611454,0.1399 0.199395,0.081 0.404031,0.1237 0.611056,0.1474 0.201194,0.083 0.414153,0.092 0.616754,0.1636 0.197805,0.075 0.401998,0.1039 0.60645,0.1182 0.201525,0.068 0.406283,0.1097 0.61316,0.1306 0.205975,0.025 0.40698,0.096 0.61355,0.1264 0.201877,0.024 0.40476,0.025 0.6073,0.028 0.176303,0.058 0.353383,0.099 0.534002,0.1183 0.195677,0.017 0.391891,0.017 0.5879,0.017 0.203982,4e-4 0.407965,-3e-4 0.611945,-5e-4 0.2042,-4e-4 0.408399,-4e-4 0.612598,-4e-4 0.194087,0.031 0.372218,-0.029 0.559348,-0.081 0.186605,-0.045 0.376527,-0.051 0.565499,-0.057 0.161661,-0.088 0.344308,-0.069 0.504252,-0.1549 0.166881,-0.085 0.345734,-0.1004 0.522224,-0.1131 0.165953,-0.083 0.340466,-0.1131 0.515896,-0.1305 0.129839,-0.025 0.264734,0.013 0.394322,-0.014 0.05712,-0.014 0.111433,-0.039 0.16724,-0.059 0.111112,-0.037 0.227466,-0.059 0.339472,-0.013 0.218219,0.092 -0.03068,0.021 0.129627,0.062 0.387182,-0.478 0.06059,-0.069 -1.258277,0.9189 -0.01085,0.013 0.0266,0 0.03536,-0.016 0.04225,-0.058 0.03862,-0.1907 0.04376,-0.261 0.01647,-0.2145 -0.02724,-0.4209 -0.08643,-0.6174 -0.06686,-0.1908 -0.11971,-0.3898 -0.181586,-0.5836 -0.07956,-0.2199 -0.106439,-0.4596 -0.123245,-0.7003 -0.03953,-0.2296 -0.07558,-0.4585 -0.09492,-0.6929 -0.01799,-0.2689 -0.01879,-0.5389 -0.01993,-0.8086 -5.25e-4,-0.2745 7e-6,-0.5492 2.51e-4,-0.8239 2.36e-4,-0.2743 2.87e-4,-0.5488 3.21e-4,-0.8231 2.3e-5,-0.2744 1.8e-5,-0.5485 1.7e-5,-0.8229 -3e-6,-0.2742 -4e-6,-0.5484 -4e-6,-0.8228 -1e-6,-0.2743 -1e-6,-0.5485 -1e-6,-0.8228 0.0025,-0.3077 0.0028,-0.6156 0.0019,-0.9237 0.0208,-0.3195 0.05599,-0.6383 0.09346,-0.9554 0.05291,-0.3293 0.0708,-0.6656 0.10585,-0.9984 0.04582,-0.2685 0.0616,-0.5446 0.112234,-0.8112 0.04598,-0.242 0.08324,-0.4863 0.127314,-0.729 0.04094,-0.2739 0.09192,-0.5447 0.141178,-0.8159 0.06681,-0.2247 0.09413,-0.4614 0.125771,-0.6978 0.03756,-0.2736 0.104655,-0.5369 0.152898,-0.807 0.05652,-0.2981 0.125879,-0.5914 0.182427,-0.8895 0.05552,-0.2833 0.119863,-0.5621 0.194617,-0.8371 0.05992,-0.2527 0.116089,-0.5069 0.179638,-0.758 0.05597,-0.2678 0.116809,-0.5344 0.162579,-0.8059 0.04814,-0.2803 0.113072,-0.5543 0.173968,-0.8299 0.04727,-0.2702 0.07772,-0.5444 0.12045,-0.8163 0.02205,-0.2513 0.07119,-0.4938 0.114512,-0.7392 0.02984,-0.257 0.05374,-0.5139 0.09125,-0.7698 0.03994,-0.2654 0.05182,-0.5359 0.05899,-0.8059 0.0052,-0.2735 0.0046,-0.5472 0.0044,-0.8207 -2.94e-4,-0.2743 -5.21e-4,-0.5487 -6.43e-4,-0.823 0.01736,-0.2466 -0.02561,-0.4829 -0.05775,-0.7233 -0.03659,-0.2017 -0.106577,-0.3851 -0.163181,-0.5769 -0.0655,-0.2329 -0.101761,-0.4784 -0.159604,-0.714 -0.04886,-0.2189 -0.104569,-0.4336 -0.157507,-0.6506 -0.03817,-0.2121 -0.07066,-0.428 -0.13514,-0.6292 -0.0589,-0.2003 -0.116637,-0.4017 -0.16928,-0.6052 -0.05235,-0.2038 -0.0949,-0.4138 -0.150879,-0.616 -0.07623,-0.2112 -0.08595,-0.4462 -0.124977,-0.6705 -0.03229,-0.1984 -0.05396,-0.357 -0.206718,-0.4247 -0.152624,0.016 -0.289551,0.1016 -0.436193,0.1533 -0.214894,0.052 -0.420399,0.1567 -0.630494,0.2357 -0.250933,0.095 -0.504059,0.1799 -0.757585,0.2644 -0.308934,0.1062 -0.622472,0.18 -0.934668,0.2667 -0.438285,0.091 -0.876813,0.181 -1.310948,0.3041 -0.44929,0.1142 -0.901657,0.2132 -1.356474,0.2785 -0.511062,0.091 -1.017606,0.2111 -1.530559,0.2825 -0.546871,0.087 -1.090017,0.2058 -1.638545,0.2726 -0.603797,0.087 -1.207481,0.1717 -1.811817,0.2499 -0.660685,0.074 -1.320558,0.1482 -1.982975,0.1879 -0.694465,0.074 -1.389898,0.121 -2.084411,0.1926 -0.718782,0.068 -1.435573,0.1633 -2.155273,0.2149 -0.6372,0.036 -1.27226,0.1131 -1.909572,0.1498 -0.607885,0.074 -1.216883,0.1225 -1.826874,0.1487 -0.60184,0.076 -1.207573,0.083 -1.809099,0.1608 -0.526358,0.077 -1.055137,0.112 -1.584259,0.1292 -0.543965,0.015 -1.088038,0.013 -1.632071,0.013 -0.544174,0.042 -1.087831,0.091 -1.632653,0.1156 -0.470329,0.022 -0.940931,0.024 -1.411448,0.031 -0.442133,0 -0.884281,0 -1.326417,0 -0.460626,7e-4 -0.921249,0 -1.381875,-10e-5 -0.439838,0 -0.87967,0 -1.319507,7e-4 -0.45754,5e-4 -0.915042,0 -1.372578,0 -0.455264,0.023 -0.907298,-0.023 -1.360709,-0.068 -0.438125,-0.045 -0.87737,-0.061 -1.316575,-0.068 -0.402403,0 -0.802438,-0.066 -1.203717,-0.1004 -0.317508,-0.025 -0.635679,-0.028 -0.953644,-0.029 -0.284224,0 -0.565052,-0.074 -0.848216,-0.105 -0.234182,-0.023 -0.469051,-0.025 -0.703729,-0.028 -0.205912,-0.057 -0.412869,-0.098 -0.622253,-0.1196 -0.22372,-0.025 -0.449153,9e-4 -0.671091,-0.045 -0.215214,-0.056 -0.432844,-0.084 -0.65142,-0.099 -0.203786,-0.013 -0.407783,-0.013 -0.611691,-0.013 -0.203516,-0.058 -0.408442,-0.098 -0.615632,-0.1196 -0.196815,0.014 -0.382352,-0.04 -0.573113,-0.095 -0.181482,-0.045 -0.366447,-0.052 -0.550479,-0.058 -0.208015,0.013 -0.409168,0 -0.613236,-0.056 -0.200438,-0.053 -0.40433,-0.069 -0.607985,-0.08 -0.197477,0.021 -0.383433,-0.03 -0.574976,-0.082 -0.181616,-0.045 -0.366622,-0.052 -0.550741,-0.058 -0.231173,-0.017 -0.464116,0.018 -0.693136,-0.03 -0.208379,-0.057 -0.419383,-0.084 -0.631316,-0.1004 -0.203058,-0.013 -0.406337,-0.013 -0.609524,-0.013 -0.203572,-0.058 -0.408558,-0.098 -0.615806,-0.1197 -0.19683,0.013 -0.382383,-0.04 -0.573159,-0.095 -0.181481,-0.045 -0.366447,-0.052 -0.550477,-0.058 -0.202094,0 -0.404221,0 -0.6063297,0 -0.2042726,4e-4 -0.408545,7e-4 -0.6128166,7e-4 -0.2041231,10e-5 -0.408246,10e-5 -0.612368,10e-5 -0.2040795,0 -0.4081591,0 -0.6122392,0 -0.2040792,0 -0.4081584,0 -0.6122375,0 -0.2097792,0.021 -0.412297,-0.057 -0.6185284,-0.095 -0.2012644,-0.035 -0.4042724,-0.037 -0.6068155,-0.042 -0.197853,0.024 -0.384022,-0.024 -0.5759863,-0.077 -0.1816463,-0.045 -0.3666742,-0.052 -0.5508287,-0.059 -0.1898046,0.022 -0.3693132,-0.059 -0.5543935,-0.098 -0.1859674,-0.043 -0.3768022,-0.013 -0.5606838,-0.068 -0.084131,-0.031 -0.169841,-0.052 -0.2558094,-0.069 0,0 1.2286338,-1.1555 1.2286338,-1.1555 l 0,0 c 0.084736,0.022 0.1690245,0.047 0.2540128,0.068 0.1873114,0.023 0.3767441,0.018 0.5620697,0.069 0.1788879,0.046 0.3555096,0.092 0.5390957,0.077 0.190697,0.013 0.3817103,0.028 0.5687312,0.082 0.1843412,0.048 0.3681279,0.058 0.5560751,0.052 0.2065068,0.013 0.4133244,0.018 0.6176639,0.063 0.201179,0.043 0.4010174,0.089 0.6059504,0.07 0.2040796,0 0.4081591,0 0.6122386,0 0.2040786,0 0.4081567,0 0.6122353,0 0.2041021,0 0.4082061,0 0.6123081,-2e-4 0.204265,-10e-5 0.408528,-5e-4 0.612791,-8e-4 0.203369,0 0.40679,-9e-4 0.610092,0.014 0.190856,0.013 0.382156,0.025 0.569089,0.083 0.184946,0.053 0.370256,0.066 0.558864,0.081 0.203351,0.03 0.403941,0.087 0.608063,0.105 0.205044,0 0.410285,0 0.614935,0.022 0.212068,0.023 0.421784,0.066 0.632129,0.1096 0.229849,0.016 0.460288,0 0.690372,0.013 0.190728,0.013 0.38181,0.028 0.568813,0.082 0.184629,0.051 0.368996,0.06 0.557283,0.061 0.207239,0.016 0.413488,0.046 0.617625,0.098 0.200148,0.038 0.401594,0.023 0.603185,0.034 0.190856,0.013 0.382157,0.026 0.569089,0.082 0.184934,0.053 0.37023,0.066 0.558825,0.081 0.203286,0.03 0.403812,0.087 0.607869,0.1051 0.2056,0 0.411391,0 0.616605,0.022 0.218393,0.024 0.434514,0.068 0.651189,0.1097 0.224568,0.018 0.450121,0 0.6742,0.038 0.205306,0.03 0.407711,0.088 0.613693,0.1074 0.234563,0 0.469195,0.016 0.702763,0.047 0.27867,0.038 0.556244,0.1062 0.837286,0.095 0.317967,0 0.63609,0.014 0.953369,0.045 0.392504,0.046 0.784567,0.1143 1.179219,0.1108 0.442742,0.013 0.885852,0.016 1.326984,0.074 0.450302,0.051 0.900684,0.072 1.352634,0.058 0.457543,0 0.915052,-6e-4 1.372598,0 0.439334,-7e-4 0.878665,0 1.317998,7e-4 0.460492,10e-4 0.92098,-6e-4 1.381472,7e-4 0.444668,0 0.889346,10e-4 1.33401,0 0.463613,0 0.927333,-7e-4 1.390774,-0.019 0.544742,-0.029 1.088506,-0.08 1.633172,-0.1085 0.54436,0 1.088825,0 1.633047,-0.018 0.525791,-0.023 1.05071,-0.063 1.574498,-0.1318 0.601978,-0.052 1.204604,-0.089 1.806341,-0.1474 0.609676,-0.03 1.21787,-0.087 1.826115,-0.1504 0.633571,-0.039 1.265675,-0.1096 1.899513,-0.1419 0.71695,-0.051 1.431335,-0.1397 2.147103,-0.2122 0.697063,-0.07 1.394727,-0.1291 2.092137,-0.1934 0.664408,-0.043 1.326356,-0.1251 1.988814,-0.2051 0.606954,-0.077 1.212751,-0.1703 1.818927,-0.2575 0.549344,-0.077 1.09461,-0.1946 1.643257,-0.2798 0.513917,-0.077 1.022454,-0.2042 1.535627,-0.2903 0.451443,-0.081 0.902313,-0.1724 1.349113,-0.2908 0.442162,-0.1154 0.886928,-0.2098 1.329261,-0.3236 0.314409,-0.087 0.628532,-0.1742 0.939333,-0.2827 0.254714,-0.088 0.509065,-0.1775 0.761108,-0.2792 0.210253,-0.091 0.424251,-0.1661 0.638371,-0.2388 0.165797,-0.067 0.338092,-0.1447 0.50482,-0.039 0.167457,0.1367 0.236286,0.3228 0.271716,0.5781 0.04129,0.2155 0.04381,0.4442 0.117931,0.6484 0.05786,0.2032 0.09899,0.4166 0.152841,0.6217 0.04987,0.1994 0.108451,0.3947 0.164421,0.5908 0.06666,0.2068 0.10695,0.4271 0.140801,0.6473 0.05103,0.2176 0.108699,0.431 0.154298,0.6511 0.05699,0.232 0.09107,0.474 0.159257,0.7017 0.05909,0.2047 0.134307,0.3999 0.174704,0.6145 0.03216,0.2518 0.08381,0.4989 0.06537,0.757 9.5e-5,0.2745 2.64e-4,0.5487 6e-4,0.823 2.63e-4,0.2755 0.001,0.551 -0.0024,0.8263 -0.005,0.2791 -0.01297,0.5589 -0.04838,0.8345 -0.03506,0.2568 -0.07508,0.5089 -0.08581,0.7706 -0.03454,0.2502 -0.10681,0.4854 -0.11984,0.7412 -0.04043,0.2769 -0.08568,0.5503 -0.116368,0.8297 -0.05404,0.2745 -0.124752,0.5419 -0.1779,0.8169 -0.03913,0.2806 -0.107071,0.5497 -0.154925,0.8273 -0.06122,0.2515 -0.12452,0.5022 -0.175535,0.7576 -0.06711,0.2772 -0.158292,0.5412 -0.210047,0.826 -0.05081,0.2968 -0.111435,0.5909 -0.177947,0.8819 -0.04056,0.2724 -0.111833,0.5318 -0.150836,0.8043 -0.04451,0.2366 -0.03954,0.4888 -0.11764,0.7149 -0.07675,0.2516 -0.10447,0.5383 -0.149312,0.802 -0.03912,0.2461 -0.08728,0.4879 -0.120673,0.7356 -0.06022,0.2624 -0.08436,0.5296 -0.126678,0.7986 -0.05279,0.3293 -0.05342,0.6718 -0.113104,1.0005 -0.03886,0.306 -0.05029,0.6176 -0.09803,0.9221 -8.67e-4,0.307 -5.41e-4,0.614 0.0019,0.9209 0,0.2743 0,0.5487 0,0.8229 0,0.2742 1e-6,0.5486 4e-6,0.8227 2e-6,0.2744 7e-6,0.5486 -1.3e-5,0.823 -2.7e-5,0.2743 -6.6e-5,0.5489 -2.82e-4,0.8233 -2.35e-4,0.2742 -7.22e-4,0.5484 -4.66e-4,0.8228 7.47e-4,0.263 9.08e-4,0.5265 0.01583,0.7888 0.01708,0.2363 0.05151,0.4667 0.09573,0.6964 0.01278,0.2197 0.03192,0.4395 0.105421,0.64 0.06259,0.1947 0.11407,0.3959 0.182676,0.5872 0.06743,0.2215 0.1216,0.455 0.116035,0.6971 -0.0086,0.8387 -0.18108,1.995 -1.408815,1.4115 -0.139323,-0.069 -0.276905,-0.028 -0.417847,0.018 -0.18809,0.039 -0.379609,0.021 -0.568484,0.054 -0.174421,0.034 -0.342974,0.099 -0.51759,0.1265 -0.173699,0.025 -0.342654,0.074 -0.508841,0.1464 -0.173757,0.037 -0.344974,0.099 -0.520661,0.1131 -0.18596,0.013 -0.372072,0.03 -0.554052,0.085 -0.189676,0.051 -0.379731,0.051 -0.572748,0.044 -0.204163,0 -0.408325,0 -0.612488,3e-4 -0.204251,5e-4 -0.408502,0 -0.612752,-3e-4 -0.199723,0 -0.399838,0 -0.598743,-0.031 -0.175592,-0.029 -0.347367,-0.085 -0.523384,-0.1062 -0.206059,0 -0.412582,-0.014 -0.617178,-0.046 -0.20385,-0.039 -0.404695,-0.1062 -0.610931,-0.1209 -0.205317,-0.031 -0.40673,-0.089 -0.611318,-0.1263 -0.208769,-0.025 -0.414903,-0.07 -0.618029,-0.142 -0.202825,-0.047 -0.405134,-0.097 -0.607725,-0.1449 -0.207037,-0.035 -0.409021,-0.098 -0.613421,-0.1522 -0.205251,-0.042 -0.406496,-0.112 -0.613021,-0.1432 -0.206314,-0.048 -0.406744,-0.1304 -0.613675,-0.1741 -0.203313,-0.053 -0.407791,-0.081 -0.612554,-0.1184 -0.20317,-0.054 -0.404337,-0.1209 -0.609653,-0.1596 -0.18665,-0.053 -0.374622,-0.087 -0.56225,-0.1317 -0.185132,-0.054 -0.371082,-0.074 -0.559821,-0.093 -0.201728,-0.037 -0.402191,-0.1027 -0.607049,-0.09 -0.204086,-2e-4 -0.408174,-2e-4 -0.61226,-3e-4 -0.204096,-10e-5 -0.40819,-6e-4 -0.612287,-9e-4 -0.203682,-2e-4 -0.407422,0 -0.611037,0.013 -0.202783,0.014 -0.405935,0.031 -0.604081,0.094 -0.198508,0.061 -0.39931,0.105 -0.597174,0.1703 -0.178098,0.061 -0.36031,0.098 -0.535719,0.1739 -0.247756,0.06 -0.492976,0.1332 -0.740031,0.1981 -0.292201,0.066 -0.582246,0.1511 -0.871649,0.2365 -0.322935,0.083 -0.648053,0.1483 -0.973136,0.2141 -0.390303,0.093 -0.782352,0.173 -1.170896,0.2798 -0.501383,0.1005 -1.004231,0.1874 -1.507765,0.2659 -0.592704,0.105 -1.186823,0.1961 -1.781109,0.2835 -0.699375,0.105 -1.399724,0.1869 -2.102447,0.239 -0.785742,0.08 -1.573324,0.1376 -2.361555,0.1291 -0.830408,0 -1.660811,0 -2.491219,0 -0.848511,0 -1.697017,3e-4 -2.545529,0 -0.85013,0 -1.700361,7e-4 -2.550296,-0.03 -0.849518,-0.03 -1.697925,-0.091 -2.545083,-0.1827 -0.839989,-0.061 -1.677837,-0.1577 -2.517098,-0.2336 -0.819706,-0.085 -1.639967,-0.1606 -2.457374,-0.2823 -0.800066,-0.1108 -1.599695,-0.2264 -2.399685,-0.3368 -0.781955,-0.1223 -1.566018,-0.2173 -2.35182,-0.2828 -0.765511,-0.081 -1.529285,-0.1873 -2.295483,-0.2556 -0.7265747,-0.042 -1.4531332,-0.04 -2.1803317,-0.036 -0.6997855,0 -1.3995593,0 -2.0993383,0 -0.641084,0 -1.2821713,-5e-4 -1.9232585,0 -0.5290976,0 -1.0580279,0.014 -1.5870805,0.021 -0.3338955,0 -0.6679465,0.013 -1.00178236,-6e-4 -0.24314098,-0.02 -0.54668957,-0.013 -0.70050046,-0.3057 -0.07686757,-0.259 -0.04804185,-0.5339 -0.04594964,-0.8077 0.0080695,-0.2801 0.02162687,-0.5606 0.06473499,-0.8355 0.0423305,-0.2744 0.0550456,-0.5505 0.0881629,-0.8273 0.0472925,-0.2981 0.1018713,-0.5927 0.14503404,-0.8917 0.0660901,-0.3214 0.12246208,-0.6452 0.17555849,-0.9705 0.0581976,-0.3225 0.15903149,-0.6288 0.2044183,-0.9574 0.0503039,-0.2955 0.1104451,-0.5883 0.17438771,-0.8791 0.0405993,-0.2894 0.11161115,-0.5671 0.15633695,-0.8552 0.068592,-0.3195 0.1307912,-0.6432 0.158687,-0.9745 0.051548,-0.3532 0.130442,-0.6971 0.1842538,-1.0496 0.05965,-0.3172 0.08724,-0.6438 0.1331254,-0.9651 0.046002,-0.2704 0.1040753,-0.5352 0.1281313,-0.8118 0.032031,-0.2562 0.00741,-0.5189 -8.134e-4,-0.777 -0.017721,-0.2435 -0.054972,-0.481 -0.086154,-0.7213 -3.085e-4,-0.2741 -0.00104,-0.5481 4.879e-4,-0.822 0.00249,-0.2617 0.005,-0.5243 0.032264,-0.7839 0.030972,-0.247 0.095908,-0.4826 0.093129,-0.7359 0.02269,-0.2735 0.072611,-0.5419 0.083008,-0.8161 0.00815,-0.28 0.021852,-0.5605 0.065087,-0.8355 0.042136,-0.273 0.05514,-0.5471 0.084593,-0.823 0.041297,-0.2888 0.086043,-0.5739 0.1077821,-0.8672 0.048547,-0.334 0.096433,-0.6672 0.1445076,-1.0008 0.064464,-0.2985 0.1258521,-0.5965 0.2008708,-0.8901 0.075862,-0.2953 0.1551681,-0.5882 0.2355949,-0.8812 0.096778,-0.3183 0.1938933,-0.6378 0.3122311,-0.9428 0.1191629,-0.3536 0.2495053,-0.7005 0.3678011,-1.0548 0.1273712,-0.3528 0.2608233,-0.6991 0.4075041,-1.0386 0.1402564,-0.3487 0.2675404,-0.7063 0.4438099,-1.0261 0.1520642,-0.3439 0.3251611,-0.6652 0.4800714,-1.0072 0.1620298,-0.3189 0.3405502,-0.6224 0.4924917,-0.951 0.1175828,-0.2468 0.2483928,-0.4826 0.3763188,-0.7196 0,0 1.3880434,-0.8162 1.3880434,-0.8162 z"
       inkscape:connector-curvature="0" />
    <path
       style="fill:#916f6f"
       id="path2987"
       d="m 9.8545578,1028.7598 c 0.2512642,-0.066 0.5070762,-0.092 0.7626972,-0.1004 0.444923,-0.014 0.889941,-0.014 1.33494,-0.014 0.541715,-0.013 1.08218,-10e-5 1.622748,0.047 0.637923,0.053 1.27615,0.082 1.913924,0.138 0.694138,0.059 1.38662,0.1499 2.078798,0.2407 0.718977,0.078 1.439333,0.1208 2.157374,0.2171 0.73255,0.092 1.463459,0.2015 2.197734,0.2666 0.803667,0.045 1.602745,0.1692 2.404922,0.2436 0.727583,0.043 1.454394,0.091 2.181279,0.1527 0.516362,0.047 1.033831,0.052 1.551053,0.061 0.390187,0 0.780322,0 1.170499,0 0.296401,0 0.592807,0 0.889211,0 0.116508,-0.015 0.236432,0.013 0.352714,0 0.08759,-0.013 0.178845,-0.058 0.265412,-0.082 0.02949,0 0.05984,-0.013 0.08846,-0.018 0.05087,-0.02 0.09619,-0.061 0.146588,-0.083 0.08168,-0.035 0.154849,-0.046 0.231904,-0.099 0.09909,-0.08 0.217113,-0.068 0.323843,-0.1062 0.05178,-0.019 0.09941,-0.054 0.1501,-0.077 0.176572,-0.066 0.361006,-0.075 0.54317,-0.082 0.168404,0 0.336863,0 0.505297,0 0,0 -1.209132,1.1808 -1.209132,1.1808 l 0,0 c -0.167438,7e-4 -0.334987,10e-4 -0.502226,0.014 -0.177955,0.017 -0.355621,0.045 -0.524034,0.129 -0.156526,0.065 -0.320946,0.093 -0.470073,0.1915 -0.160583,0.057 -0.313992,0.1435 -0.479537,0.1717 -0.206573,0.053 -0.413872,0.047 -0.623657,0.04 -0.292444,0 -0.584884,0 -0.877331,0 -0.384419,5e-4 -0.768794,-0.014 -1.153176,-0.014 -0.512476,-0.013 -1.024877,-0.039 -1.535974,-0.089 -0.714353,-0.074 -1.428947,-0.1332 -2.144204,-0.1891 -0.807036,-0.083 -1.614322,-0.1627 -2.422411,-0.2256 -0.735201,-0.069 -1.468095,-0.174 -2.201587,-0.2695 -0.720421,-0.091 -1.443446,-0.1263 -2.164166,-0.2115 -0.691089,-0.095 -1.383275,-0.1769 -2.076647,-0.2344 -0.643824,-0.053 -1.288562,-0.07 -1.932588,-0.1196 -0.541015,-0.042 -1.081882,-0.038 -1.623668,-0.031 -0.451322,0 -0.9030787,0 -1.3537892,0.04 -0.2676446,0.031 -0.5328289,0.082 -0.799348,0.1238 0,0 1.22088,-1.1922 1.22088,-1.1922 z"
       inkscape:connector-curvature="0" />
    <path
       style="fill:#916f6f"
       id="path2989"
       d="m 9.1298127,1042.4719 c 0.025068,0 0.050268,0.013 0.075215,0 0.059985,-0.013 0.1176994,-0.037 0.1773551,-0.049 0.1169745,-0.024 0.2313167,-0.04 0.347056,-0.076 0.4559475,-0.088 0.9062085,-0.2225 1.3578965,-0.3449 0.51718,-0.1264 1.036916,-0.229 1.556888,-0.3321 0.44144,-0.098 0.878486,-0.2275 1.320014,-0.3233 0.343024,-0.1051 0.690442,-0.1729 1.035564,-0.2619 0.335356,-0.051 0.66583,-0.1439 1.000936,-0.1966 0.298591,-0.057 0.595207,-0.1224 0.896014,-0.1602 0.344062,-0.027 0.689039,-0.024 1.033574,-0.027 0.406895,-0.052 0.813638,-0.098 1.222351,-0.1073 0.424796,0 0.851288,-0.053 1.275355,-0.013 0.312154,0.043 0.623454,0.07 0.932045,0.1481 0.228916,0.053 0.449699,0.1546 0.669596,0.2528 0.20157,0.1236 0.413434,0.2084 0.613976,0.3347 0.243424,0.1728 0.499161,0.3089 0.747443,0.4682 0.345289,0.1801 0.687783,0.3691 1.03165,0.5541 0.396279,0.2186 0.799093,0.414 1.197551,0.6254 0.386141,0.2043 0.783984,0.3599 1.181231,0.5187 0.372176,0.1369 0.747194,0.2569 1.123276,0.3724 0.317375,0.098 0.634027,0.1872 0.958237,0.2328 0.282413,0.083 0.567891,0.1292 0.855949,0.1544 0.283679,0.016 0.567764,0.016 0.851663,0.016 0.23819,-7e-4 0.476366,0 0.714554,0 0.259891,0 0.519818,0 0.779718,-4e-4 0.212713,-0.015 0.429537,0.028 0.639185,-0.029 0.222468,-0.06 0.447517,-0.1182 0.662815,-0.2149 0.24155,-0.076 0.472768,-0.1904 0.706893,-0.2996 0.270779,-0.1264 0.536771,-0.2723 0.80936,-0.3904 0.271581,-0.1369 0.541802,-0.2776 0.812632,-0.4168 0.180376,-0.057 0.346228,-0.1631 0.523236,-0.232 0,0 -1.183789,1.2333 -1.183789,1.2333 l 0,0 c -0.167861,0.081 -0.338142,0.1485 -0.506021,0.2286 -0.269212,0.1411 -0.541,0.2733 -0.812268,0.407 -0.271581,0.1333 -0.54427,0.2635 -0.815615,0.3983 -0.234541,0.1108 -0.472685,0.2038 -0.712381,0.2925 -0.225472,0.077 -0.45144,0.158 -0.683164,0.1936 -0.214952,0.013 -0.430243,0 -0.645375,0 -0.259801,0 -0.519633,0 -0.77942,3e-4 -0.236906,0 -0.473821,-1e-4 -0.710731,0 -0.283532,0 -0.567096,-0.013 -0.850121,-0.034 -0.290454,-0.028 -0.575499,-0.089 -0.8615,-0.1616 -0.324456,-0.059 -0.642961,-0.1578 -0.961603,-0.2572 -0.374415,-0.1222 -0.747902,-0.2494 -1.119042,-0.3893 -0.399542,-0.1572 -0.796661,-0.3247 -1.182209,-0.5373 -0.402823,-0.2056 -0.806426,-0.4082 -1.207967,-0.6184 -0.348482,-0.186 -0.696465,-0.3735 -1.046982,-0.5523 -0.25367,-0.15 -0.508267,-0.2963 -0.759234,-0.4544 -0.200694,-0.1119 -0.405103,-0.2108 -0.606934,-0.3187 -0.212944,-0.096 -0.429568,-0.1826 -0.651015,-0.2358 -0.30068,-0.074 -0.605983,-0.1004 -0.909874,-0.1412 -0.415329,-0.031 -0.832061,0 -1.24759,0.014 -0.413793,0.033 -0.826487,0.083 -1.240167,0.1168 -0.34601,0 -0.692739,0 -1.037416,0.052 -0.297804,0.042 -0.591269,0.1196 -0.889104,0.1605 -0.332385,0.062 -0.663677,0.136 -0.995193,0.2051 -0.342492,0.084 -0.686521,0.1565 -1.027845,0.2493 -0.434854,0.1028 -0.868804,0.2095 -1.30468,0.3032 -0.517896,0.1027 -1.035776,0.2051 -1.549988,0.3379 -0.4655856,0.1278 -0.9312748,0.2549 -1.3968486,0.3828 -0.2117517,0.049 -0.4242327,0.1085 -0.6395103,0.112 0,0 1.2243601,-1.1957 1.2243601,-1.1957 z"
       inkscape:connector-curvature="0" />
    <path
       style="fill:#916f6f"
       id="path2991"
       d="m 25.150084,1037.5844 c 0.203483,0.013 0.407272,0.013 0.610894,0.013 0.213156,-2e-4 0.426311,-6e-4 0.639466,-8e-4 0.219726,-0.014 0.438491,0.031 0.64996,0.083 0.277433,0.074 0.553001,0.1566 0.825663,0.2455 0.374631,0.1097 0.750572,0.2177 1.122665,0.3359 0.443201,0.1389 0.883464,0.2876 1.32717,0.4254 0.458206,0.1475 0.916588,0.2932 1.377232,0.4339 0.470729,0.1472 0.945575,0.2823 1.419877,0.4189 0.434308,0.1073 0.866255,0.224 1.307556,0.303 0.441735,0.1155 0.895079,0.1781 1.339166,0.2829 0.378151,0.08 0.75201,0.1735 1.134476,0.2311 0.270351,0.052 0.535902,0.1196 0.804738,0.1773 0.216873,0.025 0.425037,0.088 0.640686,0.121 0.197164,0.063 0.401382,0.098 0.608423,0.1143 0.221797,0.015 0.444201,0.015 0.666384,0.015 0.217702,-7e-4 0.435403,0 0.653106,0 0.22368,0.013 0.441881,0 0.66297,-0.034 0.304996,-0.027 0.588933,-0.14 0.87795,-0.226 0.327823,-0.1108 0.653287,-0.2282 0.968802,-0.3688 0.368265,-0.1224 0.712863,-0.2956 1.067406,-0.4475 0.378953,-0.184 0.75662,-0.3706 1.129735,-0.5652 0.371333,-0.1857 0.732159,-0.3891 1.100387,-0.5803 -0.124579,0.077 0.491713,-0.2607 0.369647,-0.1941 -0.341265,0.1863 -0.682365,0.3727 -1.023929,0.5587 -0.07866,0.042 0.156663,-0.087 0.235225,-0.1292 1.478294,-0.8081 0.983019,-0.5444 1.700614,-0.925 -0.337465,0.1838 -0.673731,0.3694 -1.012394,0.5511 -0.0657,0.036 0.128078,-0.076 0.193403,-0.1108 0.475186,-0.2608 0.955369,-0.5136 1.428074,-0.7784 0.355232,-0.1991 -0.715661,0.3897 -1.075619,0.581 -0.09999,0.054 0.194115,-0.1155 0.290756,-0.1739 0.634813,-0.3852 -0.302506,0.1805 1.536831,-0.8515 0.374793,-0.2103 -1.5149,0.8156 -1.132388,0.6179 0.579642,-0.2992 1.064922,-0.6355 1.65409,-0.8611 0.246826,-0.1073 0.485953,-0.2289 0.728274,-0.3452 0.169834,-0.069 0.08419,-0.035 0.256942,-0.1028 0,0 -1.161234,0.8689 -1.161234,0.8689 l 0,0 c -0.171181,0.07 -0.08783,0.036 -0.250223,0.1096 -0.241026,0.121 -0.486264,0.2326 -0.735084,0.3381 -0.08642,0.038 -0.338786,0.1642 -0.256733,0.1182 0.379607,-0.2114 1.52675,-0.8327 1.143121,-0.6277 -0.466982,0.2495 -0.925976,0.5124 -1.3932,0.7614 -0.376889,0.2009 0.746903,-0.4131 1.122168,-0.6167 0.04842,-0.028 -0.09434,0.057 -0.141508,0.084 -0.126888,0.077 -0.167804,0.1062 -0.301162,0.1799 -2.838481,1.5763 -1.094518,0.5989 -0.361633,0.2019 0.06796,-0.037 -0.132845,0.077 -0.199269,0.1182 -0.48323,0.2639 -0.966459,0.5277 -1.449687,0.7915 -0.490329,0.2625 -0.635223,0.3411 0.756018,-0.416 0.07678,-0.042 -0.152519,0.084 -0.22912,0.1277 -0.606509,0.3332 -1.207972,0.6752 -1.825333,0.9906 -0.366668,0.1934 -0.729761,0.393 -1.100603,0.5796 -0.374228,0.1927 -0.75164,0.3809 -1.134835,0.5572 -0.355171,0.1594 -0.710743,0.317 -1.07662,0.4536 -0.321878,0.1358 -0.652675,0.2523 -0.98576,0.3609 -0.294152,0.093 -0.591653,0.184 -0.902408,0.2109 -0.226701,0.027 -0.45394,0.027 -0.682155,0.023 -0.216596,0 -0.433194,2e-4 -0.649785,-9e-4 -0.226759,0 -0.45433,3e-4 -0.680002,-0.024 -0.208231,-0.025 -0.410413,-0.075 -0.613868,-0.1236 -0.214014,-0.04 -0.425928,-0.091 -0.640464,-0.1305 -0.261914,-0.063 -0.524467,-0.1249 -0.789294,-0.1776 -0.374814,-0.074 -0.7442,-0.1687 -1.116476,-0.2522 -0.446328,-0.098 -0.898254,-0.1689 -1.342708,-0.2745 -0.44045,-0.089 -0.87432,-0.2043 -1.308045,-0.3187 -0.4738,-0.1357 -0.94477,-0.2799 -1.415954,-0.4232 -0.465048,-0.1359 -0.923326,-0.289 -1.385974,-0.4316 -0.441976,-0.1446 -0.885221,-0.2846 -1.329636,-0.4222 -0.378438,-0.1143 -0.760078,-0.217 -1.140121,-0.3255 -0.274119,-0.083 -0.549436,-0.1641 -0.829385,-0.2272 -0.210212,-0.037 -0.420994,-0.065 -0.635685,-0.054 -0.212384,-2e-4 -0.424768,-4e-4 -0.63715,-9e-4 -0.209592,-10e-5 -0.419323,0 -0.628792,0.014 0,0 1.224361,-0.8417 1.224361,-0.8417 z"
       inkscape:connector-curvature="0" />
    <path
       style="fill:#916f6f"
       id="path2993"
       d="m 39.964983,1030.476 c 0.272327,0.1933 0.551885,0.3684 0.831208,0.5437 0.383531,0.2711 0.768507,0.537 1.158912,0.7899 0.415975,0.2901 0.84947,0.5256 1.284861,0.7563 0.433324,0.2497 0.881004,0.4444 1.332329,0.6246 0.480693,0.2054 0.96925,0.373 1.455304,0.5527 0.415787,0.1514 0.836618,0.2714 1.258758,0.3858 0.375952,0.075 0.753297,0.1412 1.131078,0.1998 0.303949,0.047 0.609864,0.056 0.915456,0.063 0.247614,0 0.495227,0 0.742841,-5e-4 0.199475,-0.017 0.374694,-0.1292 0.561844,-0.2056 0.02681,-0.017 0.05361,-0.035 0.08042,-0.052 -0.05728,0.027 0.230312,-0.175 0.173041,-0.1305 -2.066552,1.606 -1.47412,1.1606 -1.036762,0.781 0.183334,-0.1578 0.335625,-0.3678 0.48931,-0.5726 0.183256,-0.278 0.370949,-0.5503 0.544097,-0.8397 0.169644,-0.2752 0.33113,-0.5585 0.486022,-0.8488 0.13948,-0.2624 0.270709,-0.5315 0.395888,-0.8064 0.09673,-0.1896 0.190107,-0.3817 0.285766,-0.572 0.105174,-0.2056 0.18786,-0.4292 0.285572,-0.6409 0.08352,-0.1887 0.15232,-0.3882 0.232551,-0.5791 0.07339,-0.1801 0.169917,-0.3424 0.278901,-0.4856 0.470961,-0.5511 -0.125134,0.1363 1.426758,-1.1349 0.397626,-0.3259 -1.612964,1.2519 -1.211405,0.9352 0.496864,-0.3923 0.958759,-0.9386 1.526969,-1.1164 0.176583,-0.06 0.317325,-0.1304 0.502969,-0.1595 0.207109,0.03 0.409787,0.1143 0.603107,0.2176 0.204434,0.1074 0.406866,0.2213 0.612856,0.3243 0.198389,0.085 0.39441,0.1785 0.58732,0.2846 0,0 -1.245717,1.1184 -1.245717,1.1184 l 0,0 c -0.189667,-0.1085 -0.386668,-0.1893 -0.579938,-0.2845 -0.203591,-0.1074 -0.406485,-0.218 -0.611638,-0.32 -0.182364,-0.08 -0.370348,-0.172 -0.564448,-0.1305 -0.166427,0.047 -0.325585,0.1277 -0.490216,0.1838 -0.05167,0.029 -0.200128,0.1346 -0.151766,0.097 0.402881,-0.3151 1.615615,-1.2512 1.2102,-0.942 -4.547538,3.4691 0.847243,-0.5969 -0.224569,0.1628 -0.112553,0.1278 -0.208638,0.2653 -0.297821,0.4222 -0.07593,0.1992 -0.160919,0.3904 -0.234355,0.5912 -0.09311,0.2137 -0.188235,0.4253 -0.279958,0.6405 -0.08766,0.2052 -0.191972,0.3924 -0.293432,0.5853 -0.144535,0.2589 -0.249347,0.5565 -0.401063,0.8101 -0.147383,0.3029 -0.316496,0.5862 -0.487405,0.8651 -0.169692,0.2898 -0.352133,0.563 -0.528257,0.8457 -0.139815,0.2263 -0.307623,0.4243 -0.473689,0.6146 -0.558355,0.5387 -1.155542,1.031 -1.794538,1.3715 -0.187134,0.088 -0.380504,0.1446 -0.580031,0.1452 -0.246754,0 -0.493527,-0 -0.740238,-0.014 -0.304368,-0.013 -0.608648,-0.037 -0.910461,-0.094 -0.378756,-0.068 -0.760058,-0.1169 -1.135003,-0.2167 -0.419271,-0.1264 -0.839756,-0.2442 -1.252578,-0.4061 -0.48635,-0.1826 -0.971446,-0.3711 -1.457525,-0.555 -0.454453,-0.1823 -0.899979,-0.3972 -1.339258,-0.6381 -0.438801,-0.2296 -0.868999,-0.486 -1.290418,-0.7686 -0.391816,-0.2515 -0.780255,-0.5107 -1.165837,-0.779 -0.291633,-0.174 -0.582232,-0.3514 -0.878589,-0.5102 0,0 1.262576,-1.1166 1.262576,-1.1166 z"
       inkscape:connector-curvature="0" />
    <path
       style="fill:#916f6f"
       id="path2995"
       d="m 40.553641,1047.283 c 0.06281,-0.2972 0.220754,-0.5046 0.404071,-0.6756 0.660603,-0.5314 1.313865,-1.1047 2.042397,-1.453 0.392635,-0.1676 0.779849,-0.3579 1.174521,-0.5167 0.432138,-0.1736 0.863051,-0.3555 1.303933,-0.4853 0.460786,-0.1634 0.925917,-0.2999 1.395929,-0.4055 0.497728,-0.1467 1.003743,-0.2322 1.510413,-0.2984 0.549655,-0.07 1.100926,-0.095 1.650499,-0.1654 0.46675,-0.061 0.935769,-0.083 1.404444,-0.097 0.385911,-0.013 0.771879,-0.013 1.157847,-0.013 0.311558,0 0.623113,-0 0.934677,0 0.246244,0.013 0.494599,-0.031 0.738504,0.021 0.229496,0.055 0.461381,0.086 0.69405,0.1005 0.206018,0.065 0.414383,0.1085 0.625236,0.1305 0.202322,0.017 0.405141,0.016 0.607768,0.017 0.201994,-0.013 0.407432,0.028 0.60637,-0.028 0.131997,-0.054 0.274513,-0.045 0.40807,-0.084 0.05841,-0.016 0.113188,-0.052 0.170208,-0.076 0.173696,-0.029 0.332362,-0.112 0.500479,-0.1686 0.116766,-0.033 0.233413,-0.029 0.346034,-0.082 0,0 -1.193092,1.2237 -1.193092,1.2237 l 0,0 c -0.115455,0.022 -0.231578,0.04 -0.343124,0.088 -0.16446,0.068 -0.333255,0.105 -0.498817,0.167 -0.192763,0.064 -0.392711,0.084 -0.588088,0.1306 -0.205716,0.014 -0.411786,0 -0.617697,0 -0.205324,0 -0.410994,0 -0.615509,-0.034 -0.208349,-0.034 -0.412807,-0.092 -0.620699,-0.1265 -0.23254,-0.024 -0.463002,-0.069 -0.694203,-0.1097 -0.240481,-0.013 -0.481348,0 -0.721994,-0.013 -0.308823,0 -0.617645,2e-4 -0.926457,0 -0.381058,-8e-4 -0.762157,0 -1.143186,0 -0.463986,0.013 -0.927761,0.038 -1.389924,0.098 -0.545616,0.059 -1.093376,0.075 -1.63757,0.1584 -0.507155,0.088 -1.0148,0.1746 -1.515298,0.3186 -0.469563,0.1197 -0.935108,0.2604 -1.39804,0.4199 -0.438316,0.1423 -0.868951,0.3242 -1.300313,0.5001 -0.396798,0.1721 -0.793038,0.3484 -1.183957,0.5437 -0.55491,0.3134 -1.782377,1.1889 0.500508,-0.4946 -0.16961,0.1385 -0.337887,0.2674 -0.423597,0.5225 0,0 -1.364393,0.8786 -1.364393,0.8786 z"
       inkscape:connector-curvature="0" />
    <path
       style="fill:#916f6f"
       id="path2997"
       d="m 54.118139,1035.9903 c 0.199639,-0.112 0.398595,-0.2223 0.609136,-0.2934 0.08546,-0.072 0.189167,-0.09 0.280216,-0.1413 0.07918,-0.045 0.145655,-0.1039 0.228891,-0.1397 0.167011,-0.085 0.325819,-0.1976 0.4961,-0.2708 0.145727,-0.1182 0.308068,-0.2079 0.4723,-0.2706 0.177112,-0.074 0.33684,-0.155 0.52349,-0.1879 0.204074,-0.039 0.401357,-0.023 0.593825,0.077 0.204472,0.075 0.276172,0.2936 0.357792,0.5286 0.08074,0.2252 0.103806,0.4719 0.118524,0.718 0.01214,0.2263 0.122171,0.2601 0.267625,0.2865 0.185303,0.013 0.378799,0.051 0.559959,-0.013 0.111615,-0.037 0.05534,-0.02 0.168811,-0.053 0,0 -1.195005,1.2181 -1.195005,1.2181 l 0,0 c -0.114853,0.031 -0.0569,0.017 -0.173869,0.042 -0.197714,0.013 -0.397915,0.013 -0.592765,-0.044 -0.194858,-0.077 -0.337777,-0.2207 -0.363592,-0.5095 -0.01086,-0.222 -0.02556,-0.4462 -0.09766,-0.6503 -0.06765,-0.1976 -0.112693,-0.3402 -0.288206,-0.3904 -0.183207,-0.058 -0.367776,-0.047 -0.552002,0 -0.173465,0.054 -0.337491,0.1462 -0.508848,0.2106 -0.159739,0.085 -0.313626,0.1881 -0.471704,0.2778 -0.164287,0.095 -0.331276,0.1803 -0.496264,0.2735 -0.165183,0.099 -0.334322,0.187 -0.507997,0.2569 -0.213095,0.092 -0.415676,0.2222 -0.630549,0.3069 0,0 1.201781,-1.2349 1.201781,-1.2349 z"
       inkscape:connector-curvature="0" />
  </g>
</svg>
