<?xml version="1.0" encoding="UTF-8" standalone="no"?>
<!-- Created with Inkscape (http://www.inkscape.org/) -->

<svg
   xmlns:dc="http://purl.org/dc/elements/1.1/"
   xmlns:cc="http://creativecommons.org/ns#"
   xmlns:rdf="http://www.w3.org/1999/02/22-rdf-syntax-ns#"
   xmlns:svg="http://www.w3.org/2000/svg"
   xmlns="http://www.w3.org/2000/svg"
   xmlns:sodipodi="http://sodipodi.sourceforge.net/DTD/sodipodi-0.dtd"
   xmlns:inkscape="http://www.inkscape.org/namespaces/inkscape"
   width="2048"
   height="2048"
   id="svg2"
   version="1.1"
   inkscape:version="0.48.5 r10040"
   sodipodi:docname="baseWest.svg"
   inkscape:export-filename="C:\Users\narfman0\Desktop\baseWest.png"
   inkscape:export-xdpi="90"
   inkscape:export-ydpi="90">
  <defs
     id="defs4">
    <filter
       inkscape:label="Noise transparency"
       inkscape:menu="ABCs"
       inkscape:menu-tooltip="Basic noise transparency texture"
       color-interpolation-filters="sRGB"
       id="filter3071">
      <feTurbulence
         type="fractalNoise"
         numOctaves="5"
         baseFrequency="0.02"
         result="result1"
         id="feTurbulence3073" />
      <feComposite
         operator="in"
         in2="result1"
         result="result2"
         in="SourceGraphic"
         id="feComposite3075" />
      <feColorMatrix
         result="result3"
         values="1 0 0 0 0 0 1 0 0 0 0 0 1 0 0 0 0 0 3 -1 "
         in="result2"
         id="feColorMatrix3077" />
    </filter>
  </defs>
  <sodipodi:namedview
     id="base"
     pagecolor="#ffffff"
     bordercolor="#666666"
     borderopacity="1.0"
     inkscape:pageopacity="0.0"
     inkscape:pageshadow="2"
     inkscape:zoom="0.57875767"
     inkscape:cx="834.0956"
     inkscape:cy="658.79381"
     inkscape:document-units="px"
     inkscape:current-layer="layer1"
     showgrid="false"
     inkscape:window-width="1490"
     inkscape:window-height="957"
     inkscape:window-x="2234"
     inkscape:window-y="66"
     inkscape:window-maximized="0" />
  <metadata
     id="metadata7">
    <rdf:RDF>
      <cc:Work
         rdf:about="">
        <dc:format>image/svg+xml</dc:format>
        <dc:type
           rdf:resource="http://purl.org/dc/dcmitype/StillImage" />
        <dc:title></dc:title>
      </cc:Work>
    </rdf:RDF>
  </metadata>
  <g
     inkscape:label="Layer 1"
     inkscape:groupmode="layer"
     id="layer1"
     transform="translate(0,995.63782)">
    <path
       style="fill:#6d5d1d;fill-opacity:1;stroke:none"
       d="m 969.33897,-319.59137 c -103.5115,46.7325 -206.08867,95.9066 -308.78272,144.293 -16.49124,30.1499 -14.29411,16.90253 -25.76093,49.32383 -4.32649,13.0164 -7.84993,44.227668 -6.75458,74.48789 -0.34654,24.122908 1.42533,49.3040414 10.99495,67.573447 10.77371,14.8646 23.10148,52.486833 37.87709,63.847733 2.83487,108.0208 0.26566,243.66422 1.48024,351.71792 -144.59064,0.2378 -299.82062,-0.4739 -444.24159,0.3555 -34.02893,79.7474 -51.12411,131.76838 -85.05656,211.51548 6.92359,50.4897 16.77341,100.8476 22.09032,151.3939 -3.28483,48.9816 -6.71764,98.3885 -10.64075,147.0771 24.4068,5.0042 50.56837,1.1503 75.59524,2.1873 520.58228,-4.6176 1041.18062,10.87392 1561.76392,6.41762 -1.6936,-104.9225 -6.5846,-229.06302 -9.6882,-334.36582 -7.3,-207.5833 15.7565,-414.06106 7.9841,-621.2607611 -178.5944,0.5073 -386.562,-0.6754389 -565.1561,-0.092239 -2.1095,-71.3035 -2.9229,-142.894 -3.3425,-214.0571 -86.3106,-32.8817 -171.6615,-68.9555 -258.36193,-100.4148 z"
       id="path3011"
       inkscape:connector-curvature="0"
       sodipodi:nodetypes="cccccccccccccccccc" />
    <path
       style="fill:#504416;fill-opacity:1;stroke:none"
       id="path4079"
       d="m 387.52367,1874.3522 c -4.452,0 -8.90399,0 -13.35599,0 -4.18231,0 -8.36463,0 -12.54694,0 -3.52779,0 -7.05559,0 -10.58338,0 -3.24943,0.1769 -6.5681,-0.3213 -9.79051,0.183 -2.29043,0.4368 -4.36168,1.65 -6.38628,2.7706 -1.70643,2.1861 -1.84077,-1.6167 0.39969,-0.9283 3.78864,1.0819 7.58504,2.0494 11.48541,2.6298 5.42707,0.2797 10.8188,0.7418 16.22052,1.3444 4.65039,0.2647 9.22227,0.9431 13.81321,1.6799 3.99557,0.6353 8.03717,0.8148 12.07491,0.915 3.8648,0.071 7.73046,0.062 11.59573,0.057 3.38455,-0.1347 6.80784,0.2488 10.17095,-0.1992 0.44111,-0.1372 0.88395,-0.269 1.32334,-0.4116 1.22924,-0.399 1.74577,-0.5032 2.8003,-1.1601 0.3288,-0.2048 1.0101,-0.5628 0.77216,-0.8685 -0.0643,-0.083 -0.18019,0.1068 -0.27028,0.1601 -0.28622,-1.4419 -1.34461,-2.7124 -2.17946,-3.9173 -1.1826,-2.0575 -2.47438,-4.098 -4.1232,-5.8172 -1.39243,-1.9171 -3.19868,-3.3172 -5.05203,-4.7321 -1.16488,-0.856 -2.34091,-1.5054 -3.52655,-0.5037 -2.31519,1.7161 -4.6496,3.3494 -7.21326,4.7039 -1.97545,0.8075 -3.84299,1.8116 -5.82624,2.6031 -3.40949,1.3453 -5.31202,-3.4764 -1.90253,-4.8217 l 0,0 c 1.81787,-0.7067 3.50787,-1.6646 5.32387,-2.3733 2.51699,-1.3035 4.72496,-2.9712 7.02522,-4.6004 3.27489,-1.6851 6.32251,-1.4018 9.27861,0.8825 2.07046,1.6058 4.11371,3.1922 5.69707,5.3207 1.76068,1.9445 3.32043,4.0839 4.58046,6.3871 1.69743,2.4524 3.25975,4.8938 2.97128,8.0233 -1.61672,4.5205 -4.7771,5.1109 -9.05997,6.2716 -3.58066,0.3981 -7.18535,0.1762 -10.78408,0.2363 -3.91027,0 -7.82094,0.014 -11.73072,-0.059 -4.26988,-0.1071 -8.5433,-0.305 -12.76808,-0.9791 -4.50915,-0.7257 -8.99629,-1.3908 -13.56547,-1.6461 -5.46721,-0.61 -10.92376,-1.0521 -16.41426,-1.3698 -4.35396,-0.6571 -8.60938,-1.7149 -12.8158,-3.0165 -4.60797,-2.2758 -5.23632,-5.344 -0.81017,-8.3468 2.58288,-1.4284 5.25168,-2.8856 8.19671,-3.3712 3.47836,-0.4288 6.99009,-0.1582 10.48945,-0.2303 3.52779,0 7.05559,0 10.58338,0 4.18231,0 8.36463,0 12.54694,0 4.452,0 8.90399,0 13.35599,0 3.6653,0 3.6653,5.1835 0,5.1835 z"
       inkscape:connector-curvature="0"
       transform="translate(0,-995.63782)" />
    <path
       style="fill:#504416;fill-opacity:1;stroke:none"
       id="path4081"
       d="m 352.19805,1865.713 c 4.26891,-0.3032 8.37144,-1.5585 12.54813,-2.4042 2.51791,-1.2471 5.85722,-1.0326 8.1157,-2.7449 2.03583,-1.474 4.24803,-2.6644 6.34196,-4.042 3.74199,-2.266 6.29397,-2.8455 9.13948,1.0655 1.30218,3.2859 1.47057,6.9342 1.1011,10.4168 -0.10215,0.54 -0.2043,1.08 -0.30644,1.6201 -0.69473,3.5988 -5.78428,2.6164 -5.08955,-0.9825 l 0,0 c 0.0836,-0.422 0.16713,-0.844 0.25069,-1.266 0.35235,-2.3553 0.0514,-4.7985 -0.40297,-7.1255 0.0699,-0.1121 0.63532,-0.3858 0.58143,-0.4027 -0.82503,-0.259 -1.80409,0.7837 -2.47187,1.0353 -2.12786,1.3452 -4.30724,2.5945 -6.36404,4.0561 -3.03974,1.7935 -6.54868,2.3131 -9.869,3.4507 -4.51304,0.9096 -8.94847,2.2809 -13.57462,2.5068 -3.6653,0 -3.6653,-5.1835 0,-5.1835 z"
       inkscape:connector-curvature="0"
       transform="translate(0,-995.63782)" />
    <path
       style="fill:#504416;fill-opacity:1;stroke:none"
       id="path4083"
       d="m 391.3555,1890.2789 c -0.009,4.1088 -0.17697,8.193 0.46144,12.2606 0.2326,2.7384 1.12636,4.2947 2.94404,6.1558 1.72934,1.4557 4.03131,1.6096 6.19098,1.8104 3.36923,0.6849 6.7404,1.2796 10.16583,1.5901 3.85585,0.2521 7.72207,0.2649 11.58454,0.2804 3.73498,0.2578 7.37496,-0.2209 11.05533,-0.7614 3.71445,-1.0865 7.53486,-1.6764 11.30918,-2.4855 3.98709,-0.9667 8.05051,-1.4808 12.13649,-1.766 3.09052,-0.1019 6.07501,-0.996 9.13174,-1.4277 3.38951,-0.4081 6.80774,-0.447 10.21703,-0.483 3.26266,-0.1976 6.59236,0.3096 9.82868,-0.1901 1.88581,-1.0413 0.79439,-1.1574 0.52056,-1.7073 -1.21439,-1.716 -3.10597,-2.5971 -4.74825,-3.8523 -2.13454,-1.4912 -4.55548,-2.6474 -6.99192,-3.5749 -3.14587,-0.8157 -6.10649,-2.1711 -9.18494,-3.188 -3.11605,-0.9466 -6.37288,-1.1399 -9.60553,-1.2691 -3.3141,0.031 -6.66894,-0.3178 -9.96188,0.1274 -3.1593,0.3213 -6.15415,1.1783 -9.18823,2.0466 -2.99846,0.4908 -5.65903,1.9079 -8.4339,3.0405 -2.33799,1.4377 -4.95565,2.2482 -7.46666,3.3126 -3.14876,1.2884 -6.40831,1.6591 -9.75628,1.1961 -3.07997,-0.3293 -5.67897,-2.0865 -8.48746,-3.2203 -4.07879,-1.9901 -5.86768,-4.4385 -5.47643,-9.0173 0.2948,-0.6376 0.58959,-1.2753 0.88438,-1.913 1.7704,-3.2094 6.30914,-0.7057 4.53874,2.5037 l 0,0 c -0.10266,0.083 -0.20531,0.1656 -0.30797,0.2485 -1.01357,1.3313 1.34478,2.9565 2.32257,3.38 2.40989,0.9948 4.66312,2.5046 7.27231,2.8889 2.39746,0.3733 4.71882,0.072 6.98762,-0.8393 2.53881,-1.0756 5.16738,-1.9067 7.5409,-3.3434 2.94869,-1.1869 5.78112,-2.6918 8.95845,-3.2212 3.29338,-0.9389 6.5612,-1.8454 9.98416,-2.2077 3.58444,-0.4045 7.19684,-0.2064 10.79916,-0.1614 3.71741,0.1521 7.45598,0.4127 11.0308,1.5295 3.15673,1.0546 6.20398,2.4151 9.42681,3.275 2.89149,1.1397 5.77753,2.4899 8.29705,4.3147 2.33447,1.8612 5.0306,3.1691 6.38269,6.0278 1.59154,4.3787 -0.25737,7.4215 -4.64699,8.7613 -3.47089,0.4221 -6.97283,0.1441 -10.464,0.2359 -3.18717,0.033 -6.38278,0.064 -9.55267,0.4333 -3.17583,0.4403 -6.27464,1.3919 -9.49222,1.4653 -3.84456,0.2643 -7.66637,0.7508 -11.41662,1.6651 -3.88516,0.8204 -7.803,1.4701 -11.63416,2.5438 -3.93349,0.5777 -7.84058,1.0676 -11.82948,0.8164 -4.01286,-0.016 -8.0298,-0.031 -12.03528,-0.3019 -3.43119,-0.3159 -6.82265,-0.8572 -10.18984,-1.5924 -3.41216,-0.3366 -6.80884,-0.8985 -9.4045,-3.3492 -2.48339,-2.5452 -4.01064,-5.3728 -4.35726,-8.9832 -0.66362,-4.3341 -0.5631,-8.6779 -0.52252,-13.0541 0,-3.6653 5.18351,-3.6653 5.18351,0 z"
       inkscape:connector-curvature="0"
       transform="translate(0,-995.63782)" />
    <path
       style="fill:#504416;fill-opacity:1;stroke:none"
       id="path4085"
       d="m 507.12071,1650.1093 c 0,4.3831 0,8.7662 0,13.1493 0.23891,1.9106 -0.97367,5.6496 1.40455,6.5668 2.422,0.9079 4.84949,0.3679 7.30968,-0.025 3.00133,-0.3927 5.84962,-1.5261 8.67615,-2.5662 3.11378,-0.8579 6.22253,-1.67 9.33667,-2.5353 3.25663,-0.5839 6.43484,-1.4975 9.68798,-2.1048 3.08278,-0.4746 6.02968,-1.4773 9.1166,-1.977 3.40893,-0.4583 6.85445,-0.4903 10.28798,-0.5245 3.46267,-0.018 6.92541,-0.01 10.3881,-6e-4 3.45676,0.01 6.91352,0.01 10.37029,0.01 3.45563,6e-4 6.91127,5e-4 10.36691,5e-4 3.03636,-0.4027 5.92194,1.164 8.9174,1.0453 0.68039,-0.7939 0.67788,-2.6649 0.79501,-3.748 0.0346,-2.0369 0.0956,-4.8461 -1.34681,-6.4658 -1.97949,-1.5167 -4.39021,-1.9854 -6.68679,-2.797 -2.65661,-1.114 -5.48754,-1.4815 -8.33304,-1.7035 -3.96159,-0.1963 -7.93002,-0.1748 -11.89529,-0.175 -4.82872,0.01 -9.65743,0.013 -14.48614,0.017 -4.02339,0 -8.04678,0 -12.07017,0 -4.09667,2e-4 -8.19333,10e-5 -12.29,0 -3.13978,0.4674 -6.24627,1.0771 -9.40755,1.4013 -2.68435,0.3066 -5.5002,0.7567 -8.05925,1.6617 -2.23236,1.0943 -4.56292,2.0427 -6.80528,3.1382 -1.49349,0.6781 -0.85493,0.3037 -1.95479,1.0538 -3.08837,1.9739 -5.87992,-2.3937 -2.79154,-4.3676 l 0,0 c 1.73726,-1.071 0.88703,-0.627 2.52951,-1.3718 2.46186,-1.1397 4.93712,-2.2444 7.39642,-3.3746 2.95801,-0.9355 6.07635,-1.5969 9.16015,-1.8965 3.33618,-0.3365 6.60104,-1.0686 9.93239,-1.428 4.09654,10e-5 8.19308,2e-4 12.28961,0 4.02193,-2e-4 8.04385,-5e-4 12.06578,-0 4.83036,-0 9.66071,-0.012 14.49107,-0.017 4.10186,2e-4 8.20725,-0.022 12.30491,0.1912 3.30086,0.2657 6.58698,0.7215 9.67431,1.992 3.30512,1.2104 6.7794,1.9348 9.20886,4.7417 1.86988,2.9824 2.54153,6.4823 2.22302,9.9938 -0.46763,3.8737 -1.50513,7.6831 -5.96283,8.3376 -3.01983,-0.075 -5.87409,-1.1263 -8.89891,-1.0453 -3.45609,0 -6.91218,10e-5 -10.36827,-5e-4 -3.45905,-9e-4 -6.91809,-0 -10.37713,-0.01 -3.44283,-0.01 -6.88572,-0.017 -10.32853,3e-4 -3.17693,0.031 -6.36494,0.054 -9.52107,0.4598 -3.04463,0.4795 -5.94156,1.5201 -8.9896,1.9551 -3.1067,0.5721 -6.13748,1.4658 -9.25004,2.0038 -2.97765,0.8213 -5.94535,1.622 -8.93006,2.4043 -3.14123,1.1556 -6.31525,2.3771 -9.6502,2.8205 -3.79326,0.6034 -7.53676,1.0842 -11.07435,-0.831 -3.88059,-3.0316 -3.79014,-6.2237 -3.63923,-10.8298 0,-4.3831 0,-8.7662 0,-13.1493 0,-3.6653 5.18352,-3.6653 5.18352,0 z"
       inkscape:connector-curvature="0"
       transform="translate(0,-995.63782)" />
    <path
       style="fill:#504416;fill-opacity:1;stroke:none"
       id="path4087"
       d="m 530.51738,1649.5052 c 4.00643,-1.5512 8.23354,-2.3149 12.48075,-2.821 1.562,-0.3945 3.10392,-0.7189 4.70144,-0.9202 3.64206,-0.4122 4.22491,4.7385 0.58285,5.1506 l 0,0 c -1.59526,0.1468 -3.09623,0.6464 -4.6756,0.9172 -3.79699,0.4452 -7.57859,1.1117 -11.16433,2.4861 -3.40315,1.3613 -5.32826,-3.4515 -1.92511,-4.8127 z"
       inkscape:connector-curvature="0"
       transform="translate(0,-995.63782)" />
    <path
       style="fill:#504416;fill-opacity:1;stroke:none"
       id="path4089"
       d="m 564.73812,1636.5062 c 1.84687,-4.1446 5.24179,-6.5765 9.37215,-8.1103 3.64793,-1.0809 7.46913,-1.1347 11.24138,-1.1818 3.48404,-0.01 6.96805,0.022 10.45204,0.038 3.45284,0.014 6.90571,0.017 10.35857,0.018 3.45505,0 6.91011,8e-4 10.36516,6e-4 3.45568,-10e-5 6.91137,-2e-4 10.36705,-2e-4 3.56264,0.051 7.12998,-0.1669 10.67489,0.225 3.90528,0.8216 6.27693,3.786 7.98434,7.1742 1.3285,3.4686 1.80011,7.0855 0.66889,10.6412 -2.13357,3.641 -6.0313,4.1032 -9.87086,4.3882 -3.54698,0.2011 -7.05584,0.2304 -10.54508,-0.4698 -3.15404,-0.5081 -6.17135,-1.5596 -9.29526,-2.2053 -3.22236,-0.5877 -6.50375,-0.6721 -9.7696,-0.7376 -2.58445,-0.333 -5.11305,-0.9493 -7.69564,-1.301 -3.63116,-0.4991 -2.9254,-5.6343 0.70576,-5.1353 l 0,0 c 2.3829,0.3301 4.72971,0.8222 7.09467,1.2538 3.5859,0.073 7.18771,0.1808 10.72263,0.8456 3.11576,0.6543 6.12812,1.6803 9.27202,2.2005 3.02025,0.6265 6.06405,0.5247 9.13891,0.3789 1.8034,-0.1245 3.74409,-0.1859 5.38529,-1.0282 1.09367,-1.8972 -0.017,-4.607 -0.47451,-6.5666 -0.81335,-1.7882 -1.99441,-3.6745 -3.93721,-4.2918 -3.32672,-0.4412 -6.71133,-0.063 -10.05919,-0.1883 -3.45563,0 -6.91126,10e-5 -10.36689,2e-4 -3.45596,2e-4 -6.91192,5e-4 -10.36788,-5e-4 -3.45994,-0 -6.91989,-0 -10.3798,-0.019 -3.45487,-0.016 -6.90975,-0.048 -10.36467,-0.039 -3.1973,0.038 -6.43989,0.05 -9.55204,0.8768 -2.75469,0.9416 -5.03664,2.4287 -6.31234,5.1573 -1.36126,3.4032 -6.17404,1.4781 -4.81278,-1.9251 z"
       inkscape:connector-curvature="0"
       transform="translate(0,-995.63782)" />
    <path
       style="fill:#504416;fill-opacity:1;stroke:none"
       id="path4091"
       d="m 598.69617,1626.8951 c 0,-4.3831 0,-8.7662 0,-13.1493 0.003,-2.5159 0.45423,-4.2658 -2.1576,-5.045 -2.84849,-0.6066 -5.7907,-0.5244 -8.68769,-0.5223 -3.73242,0.6342 -7.47409,1.1523 -11.24702,1.4765 -4.52566,0.3836 -9.00353,1.1726 -13.53136,1.5869 -3.9465,-0.026 -7.76296,0.8341 -11.62678,1.4861 -3.29587,1.0201 -6.65399,1.7056 -10.07741,2.1029 -3.52095,0.3341 -7.06116,0.3459 -10.59463,0.3623 -3.35436,0.1312 -6.74436,-0.2592 -10.07807,0.1782 -2.20424,0.5852 -2.56896,2.4583 -2.94409,4.4542 -0.13986,1.7073 -0.98901,4.2193 1.038,4.9935 2.43529,0.8559 4.92648,0.7124 7.42377,0.3261 3.41525,-0.764 6.94433,-0.748 10.37344,-1.3649 3.5048,-0.8059 7.06429,-1.2521 10.64683,-1.5038 3.02303,-0.1171 5.94084,-1.0031 8.93291,-1.4297 3.39332,-0.4117 6.81584,-0.451 10.22927,-0.4874 3.46245,-0.022 6.925,-0.011 10.38749,-0.01 2.98156,-0.2137 5.75281,0.684 8.5012,1.7004 3.43732,1.2725 1.63774,6.1336 -1.79958,4.8611 l 0,0 c -2.18228,-0.8089 -4.3268,-1.5999 -6.70822,-1.378 -3.44195,-0 -6.88396,-0.015 -10.32587,0.01 -3.1893,0.034 -6.38717,0.065 -9.55894,0.4367 -3.11254,0.4354 -6.14544,1.3819 -9.29777,1.4682 -3.41012,0.2357 -6.79419,0.6727 -10.1295,1.4414 -3.47495,0.576 -7.01756,0.6584 -10.47627,1.3815 -3.77118,0.5594 -7.5695,0.5927 -11.07379,-1.1382 -3.82078,-2.8695 -3.97108,-5.8713 -3.24162,-10.344 0.91209,-4.2396 2.83506,-7.638 7.4147,-8.5646 3.54146,-0.386 7.10355,-0.1585 10.66216,-0.2138 3.34404,-0.015 6.6944,-0.023 10.02738,-0.3286 3.33788,-0.3785 6.585,-1.1177 9.80801,-2.0648 3.99155,-0.6704 7.94311,-1.5476 12.01724,-1.5367 4.53731,-0.4112 9.02295,-1.2146 13.55952,-1.5893 3.92062,-0.3341 7.79239,-0.9537 11.68579,-1.4954 3.55916,-0 7.19104,-0.1024 10.64159,0.9034 4.56337,2.0514 5.59716,4.9999 5.39043,9.8474 0,4.3831 0,8.7662 0,13.1493 0,3.6653 -5.18352,3.6653 -5.18352,0 z"
       inkscape:connector-curvature="0"
       transform="translate(0,-995.63782)" />
    <path
       style="fill:#504416;fill-opacity:1;stroke:none"
       id="path4093"
       d="m 726.18009,1791.4159 c -4.13963,0.444 -8.24459,0.9576 -12.31046,1.8469 -3.8375,0.6429 -7.63123,1.4171 -11.43557,2.2296 -3.22015,0.3312 -6.27135,1.3775 -9.42112,2.0518 -2.58979,0.3599 -5.06023,1.2461 -7.4393,2.2972 -2.72094,0.8792 -5.31853,2.0569 -8.08677,2.794 -1.96487,0.567 -2.17942,2.1654 -2.49954,3.9637 0.007,1.8293 0.40168,2.6313 2.0639,3.1948 2.78668,0.6936 5.69157,0.6548 8.54473,0.6829 3.46183,0.01 6.92359,-0.024 10.38537,-0.038 2.59822,-0.4019 5.15185,-0.907 7.63032,-1.7774 3.0971,-1.1107 6.37398,-1.3991 9.63268,-1.5864 3.26439,-0.3152 6.59778,0.1914 9.83809,-0.3095 1.9615,-0.4454 4.48816,-0.5942 5.82219,-2.3079 1.01756,-2.1724 0.93506,-4.6459 1.36267,-6.9673 0.35013,-1.4074 0.62721,-2.8285 0.87719,-4.2563 0.63646,-3.6096 5.74123,-2.7095 5.10477,0.9001 l 0,0 c -0.25818,1.4552 -0.53143,2.9066 -0.8928,4.3407 -0.68711,3.3162 -0.42777,6.8679 -2.77128,9.6328 -2.48431,2.3125 -5.46091,3.3489 -8.80914,3.7948 -3.39657,0.4166 -6.82299,0.145 -10.2378,0.3478 -2.77456,0.1554 -5.5727,0.3626 -8.21285,1.3033 -3.01743,1.0547 -6.14648,1.6969 -9.32265,2.0688 -3.48624,0.014 -6.97247,0.044 -10.45875,0.038 -3.54416,-0.036 -7.16451,-0 -10.57062,-1.1173 -4.05256,-1.9391 -5.33629,-4.4806 -5.07453,-8.9315 0.76677,-3.7444 2.31689,-6.8829 6.27688,-7.9908 2.50604,-0.6394 4.83314,-1.7699 7.30366,-2.5206 2.70351,-1.1938 5.52268,-2.1871 8.45697,-2.6261 3.14786,-0.6619 6.19911,-1.7243 9.41608,-2.0507 3.79562,-0.809 7.58172,-1.5857 11.4101,-2.2241 4.42725,-0.9676 8.90488,-1.5406 13.41758,-1.9665 3.6653,0 3.6653,5.1835 0,5.1835 z"
       inkscape:connector-curvature="0"
       transform="translate(0,-995.63782)" />
    <path
       style="fill:#504416;fill-opacity:1;stroke:none"
       id="path4095"
       d="m 711.24764,1785.4302 c 0.5884,-4.2997 1.9312,-8.4827 3.79165,-12.3936 1.59223,-3.7357 2.89965,-6.2222 6.64687,-8.1158 3.37875,-1.21 7.00307,-1.1798 10.54507,-1.2149 3.52444,0.072 7.06546,-0.1701 10.56684,0.2783 2.92842,0.686 5.89023,1.1066 8.88667,1.3267 3.32163,0.1914 6.65031,0.1911 9.97626,0.1992 3.45528,0 6.91055,-0 10.36582,-0.01 3.45762,-0 6.91525,-0 10.37287,-0 4.68693,0.465 7.2026,2.404 6.7307,7.3009 -0.84159,2.5134 -2.51982,4.6776 -3.93133,6.907 -1.2923,3.3065 -3.93603,4.935 -7.20041,5.8869 -3.4401,0.7094 -6.97278,0.6732 -10.46873,0.6878 -3.47413,-0 -6.9482,-0.026 -10.42231,-0.037 -3.45697,-0.01 -6.91394,-0.011 -10.37092,-0.012 -3.45547,-5e-4 -6.91094,-3e-4 -10.36641,-2e-4 -0.57594,0 -1.15187,10e-5 -1.7278,10e-5 -3.6653,1e-4 -3.66545,-5.1834 -1.5e-4,-5.1835 l 0,0 c 0.57592,-10e-5 1.15185,-10e-5 1.72778,-10e-5 3.45598,-10e-5 6.91196,-4e-4 10.36794,2e-4 3.46192,9e-4 6.92385,0 10.38576,0.012 3.46158,0.011 6.92312,0.032 10.38472,0.037 3.04047,-0.012 6.10899,0.027 9.1138,-0.5019 2.22179,-0.5511 3.35128,-1.4353 4.20278,-3.671 1.08774,-1.7041 2.27879,-3.3869 3.22298,-5.1448 0.84435,0.4305 -0.36726,-1.7151 -1.6479,-1.098 -3.45619,4e-4 -6.91238,8e-4 -10.36857,0 -3.46109,0 -6.92217,0.01 -10.38326,0.01 -3.44974,-0.01 -6.90237,-0.01 -10.34738,-0.2134 -3.10737,-0.2328 -6.18948,-0.6376 -9.22453,-1.363 -3.22174,-0.5169 -6.54455,-0.058 -9.79497,-0.228 -2.80317,0.026 -5.6672,-0.022 -8.39244,0.7237 -2.49791,0.9782 -3.07545,3.4171 -4.18402,5.682 -1.70169,3.4362 -2.8033,7.1949 -3.34439,10.9874 -0.60257,3.6155 -5.71556,2.7633 -5.11299,-0.8521 z"
       inkscape:connector-curvature="0"
       transform="translate(0,-995.63782)" />
    <path
       style="fill:#504416;fill-opacity:1;stroke:none"
       id="path4097"
       d="m 735.5716,1803.5108 c 4.3831,0 8.76621,0 13.14931,0 3.74006,0 7.48011,0 11.22017,0 3.45917,0 6.91835,0 10.37752,0 3.45145,0 6.90291,0 10.35437,0 3.45535,0 6.91071,0 10.36606,0 3.45573,0 6.91145,0 10.36717,0 3.45569,0 6.91137,0 10.36706,0 2.14548,-0.1064 2.29234,-1.3326 2.64781,-3.1571 0.40527,-3.1187 0.33393,-6.276 0.32083,-9.4141 0.0584,-2.7933 -0.0774,-5.6668 -1.14248,-8.2858 -1.20371,-1.3508 -3.34489,-1.3565 -5.02302,-1.5199 -3.37958,-0.2075 -6.76875,-0.1471 -10.1527,-0.1303 -3.98382,-0.2039 -7.8734,0.1382 -11.7929,0.7884 -3.40129,0.3434 -6.72442,0.9777 -10.06948,1.6585 -2.67305,0.4439 -5.33114,0.6889 -7.9568,1.3655 -3.55049,0.9102 -4.8377,-4.111 -1.28722,-5.0212 l 0,0 c 2.71209,-0.6921 5.44756,-1.0077 8.21092,-1.4238 3.40524,-0.692 6.7941,-1.3384 10.25461,-1.6927 4.18932,-0.6943 8.36015,-1.0598 12.6151,-0.8582 3.56853,-0.018 7.14319,-0.082 10.70618,0.1572 3.78538,0.4021 7.46565,1.1783 9.35534,4.874 1.13955,3.2415 1.62703,6.6271 1.46593,10.0668 0.0145,3.5202 0.0952,7.0663 -0.44329,10.5559 -0.97658,4.1189 -3.14913,7.0599 -7.70883,7.2203 -3.45569,0 -6.91137,0 -10.36706,0 -3.45572,0 -6.91144,0 -10.36717,0 -3.45535,0 -6.91071,0 -10.36606,0 -3.45146,0 -6.90292,0 -10.35437,0 -3.45917,0 -6.91835,0 -10.37752,0 -3.74006,0 -7.48011,0 -11.22017,0 -4.3831,0 -8.76621,0 -13.14931,0 -3.6653,0 -3.6653,-5.1835 0,-5.1835 z"
       inkscape:connector-curvature="0"
       transform="translate(0,-995.63782)" />
    <path
       style="fill:#504416;fill-opacity:1;stroke:none"
       id="path4099"
       d="m 712.73354,1810.7983 c -0.11297,2.805 0.046,5.7229 2.66688,7.2509 2.50875,1.1333 5.23063,0.4063 7.84862,0.069 3.15447,-0.1 6.13091,-1.0867 9.19384,-1.7211 3.35973,-0.6205 6.78243,-0.7084 10.18861,-0.7764 3.46318,-0.044 6.92677,-0.031 10.39013,-0.025 3.25833,-0.1713 6.58537,0.3296 9.81689,-0.1735 2.90596,-0.6572 5.68103,-1.8577 8.46313,-2.9223 3.20671,-1.215 6.62602,-1.4761 9.91333,-2.3744 1.8935,-0.5895 3.88188,-0.6972 5.77673,-1.2558 3.53261,-0.9773 4.91469,4.0186 1.38208,4.9959 l 0,0 c -1.91925,0.5088 -3.87575,0.7484 -5.79562,1.261 -3.12711,0.8505 -6.35696,1.1447 -9.42492,2.2149 -3.15207,1.2047 -6.30039,2.5634 -9.61944,3.2174 -3.48873,0.4278 -7.01051,0.1539 -10.52004,0.2204 -3.42651,-0.01 -6.85323,-0.019 -10.27956,0.024 -3.08989,0.061 -6.19575,0.1273 -9.24653,0.671 -3.18745,0.651 -6.29542,1.6739 -9.57585,1.7849 -3.93995,0.5079 -7.86272,1.1909 -11.48067,-0.9608 -4.02548,-3.0274 -5.08477,-6.5401 -4.88113,-11.4997 0,-3.6653 5.18352,-3.6653 5.18352,0 z"
       inkscape:connector-curvature="0"
       transform="translate(0,-995.63782)" />
    <path
       style="fill:#504416;fill-opacity:1;stroke:none"
       id="path4101"
       d="m 906.25149,1555.0782 c -0.066,3.6183 0.57736,7.2029 1.63164,10.65 0.80606,2.4097 1.22725,5.3629 3.46837,6.8726 2.37069,1.0716 5.04638,1.0699 7.60024,1.1498 3.77351,0.051 7.54765,0.01 11.3213,-0.014 3.92041,-0.02 7.84087,-0.025 11.76132,-0.028 4.28434,-0 8.56868,-0 12.85301,-0 3.98013,10e-5 7.96027,2e-4 11.9404,3e-4 4.07861,0 8.15722,0 12.23583,0 3.59942,-0.041 7.15529,-0.1457 10.6997,0.5407 1.12907,0.05 3.8368,1.4861 4.01778,-0.2338 0.57618,-1.7072 0.41045,-2.9827 -1.05335,-4.0575 -2.5576,-1.329 -5.54404,-1.3025 -8.35587,-1.424 -3.73073,-0.1021 -7.46345,-0.061 -11.19499,-0.042 -3.48924,0.02 -6.97853,0.026 -10.46782,0.03 -3.92516,0 -7.85033,0 -11.77549,0 -3.5618,-10e-5 -7.12359,-3e-4 -10.68539,-3e-4 -3.45505,-10e-5 -6.91011,-10e-5 -10.36516,-10e-5 -0.57542,0 -1.15084,0 -1.72626,0 -3.6653,0 -3.6653,-5.1835 0,-5.1835 l 0,0 c 0.57542,0 1.15084,0 1.72626,0 3.45509,0 6.91017,0 10.36526,10e-5 3.56178,0 7.12356,10e-5 10.68535,3e-4 3.92317,0 7.84635,3e-4 11.76953,-0 3.48226,-0 6.96452,-0.011 10.44674,-0.03 3.81647,-0.02 7.6342,-0.062 11.44976,0.046 4.06431,0.1816 8.25631,0.3229 11.67061,2.8185 3.01811,3.0749 3.80274,6.622 1.89965,10.5997 -2.68544,3.6644 -5.29768,3.5521 -9.40696,2.5618 -3.20657,-0.6427 -6.43943,-0.4357 -9.69935,-0.4433 -4.07864,0 -8.15727,0 -12.2359,0 -3.98017,-10e-5 -7.96034,-10e-5 -11.94051,-3e-4 -4.28313,-2e-4 -8.56626,-5e-4 -12.84939,0 -3.91271,0 -7.82543,0.01 -11.7381,0.028 -3.83794,0.02 -7.67642,0.066 -11.5142,0.011 -3.67932,-0.1207 -7.45777,-0.2576 -10.66943,-2.2808 -2.90658,-2.4863 -4.27425,-5.7385 -5.19154,-9.4121 -1.19511,-3.9381 -1.92042,-8.0304 -1.85656,-12.1603 0,-3.6653 5.18352,-3.6653 5.18352,0 z"
       inkscape:connector-curvature="0"
       transform="translate(0,-995.63782)" />
    <path
       style="fill:#504416;fill-opacity:1;stroke:none"
       id="path4103"
       d="m 944.26394,1577.5401 c 0.12343,4.3646 -0.81205,8.6552 -2.43881,12.683 -1.31011,3.3193 -3.45845,6.0455 -6.23433,8.2408 -2.50694,2.4517 -5.61783,3.5679 -8.99057,4.1963 -3.47903,0.4795 -7.00048,0.4544 -10.50476,0.461 -3.22094,0.1007 -6.33418,-0.8636 -9.5025,-1.3091 -3.36858,-0.1586 -6.6369,-0.9914 -9.95365,-1.53 -3.30621,-0.4919 -6.65164,-0.5797 -9.98788,-0.6412 -3.44053,-0.042 -6.88143,-0.03 -10.32214,-0.025 -3.4567,0.01 -6.91341,0.01 -10.37012,0.01 -4.60002,-0.3486 -6.98673,-2.6393 -7.27822,-7.2236 -0.0223,-3.3531 1.70917,-6.2035 2.99045,-9.175 1.41509,-3.3081 4.48416,-4.6475 7.5458,-6.0428 3.39052,-1.4086 7.07166,-1.5393 10.68734,-1.6862 3.7584,-0.108 7.51889,-0.089 11.27838,-0.081 3.48301,0.01 6.96601,0.015 10.44902,0.018 3.45259,0 6.90518,0 10.35777,0 3.45506,0 6.91011,0 10.36517,-1e-4 2.30378,0 4.60757,0 6.91136,0 3.6653,0 3.66531,5.1835 10e-6,5.1835 l 0,0 c -2.30377,0 -4.60754,0 -6.91131,0 -3.45511,10e-5 -6.91022,2e-4 -10.36533,2e-4 -3.45401,-10e-5 -6.90801,-10e-5 -10.36201,-0 -3.48508,-0 -6.97016,-0.01 -10.45523,-0.018 -3.68652,-0.01 -7.37401,-0.026 -11.0595,0.077 -2.94599,0.1173 -5.9676,0.1557 -8.75615,1.2282 -1.87779,0.8451 -3.97756,1.4211 -4.93103,3.3868 -0.99206,2.2696 -2.40572,4.4513 -2.5628,6.982 -0.14615,1.5048 0.41573,2.0796 2.09433,2.1678 3.45504,-0 6.91008,-0 10.36511,-0.01 3.47506,-0 6.95032,-0.017 10.4252,0.026 3.58333,0.067 7.17591,0.1705 10.72573,0.7078 3.28262,0.537 6.51295,1.3595 9.84749,1.5139 2.92474,0.4178 5.8014,1.2969 8.76513,1.2577 3.19938,-0.01 6.41335,0.022 9.59341,-0.3785 2.60394,-0.4499 4.84761,-1.2709 6.74991,-3.203 2.11744,-1.5589 3.62419,-3.6819 4.60752,-6.1181 1.44537,-3.3632 2.12321,-7.0381 2.0437,-10.698 0,-3.6653 5.18351,-3.6653 5.18351,0 z"
       inkscape:connector-curvature="0"
       transform="translate(0,-995.63782)" />
    <path
       style="fill:#504416;fill-opacity:1;stroke:none"
       id="path4105"
       d="m 939.45658,1594.4423 c 4.85468,0 9.70935,0 14.56402,0 3.84683,0 7.69367,0 11.5405,0 3.7465,-0 7.41906,0.8767 11.13906,1.2664 4.05951,0.3841 8.13929,0.4235 12.21334,0.4584 4.22655,0.023 8.45319,0.015 12.6798,0.01 3.5446,-0 7.0891,-0.01 10.6337,-0.01 2.7563,-0.4043 6.1397,0.8413 8.689,-0.5147 0.8412,-1.6923 1.1472,-3.6586 1.6907,-5.481 0.89,-2.4479 0.7221,-4.7605 0.3186,-7.2556 -0.5256,-1.7275 -2.3272,-1.8109 -3.8848,-2.0651 -3.1885,-0.3516 -6.4047,-0.2964 -9.6075,-0.2873 -3.7335,0.023 -7.467,0.037 -11.20057,0.045 -3.75615,0.01 -7.51231,0.01 -11.26846,0.01 -2.34483,10e-5 -1.17484,10e-5 -3.50999,10e-5 -3.6653,-10e-5 -3.66525,-5.1836 5e-5,-5.1835 l 0,0 c 2.33479,0 1.16501,0 3.50935,-10e-5 3.75262,-4e-4 7.50523,-10e-4 11.25784,-0.01 3.73238,-0.01 7.46478,-0.022 11.19708,-0.045 3.5094,-0.01 7.0357,-0.069 10.525,0.3665 3.8271,0.7124 7.1532,2.1917 8.0996,6.3455 0.5211,3.2504 0.6205,6.3898 -0.4689,9.5609 -0.9933,3.3307 -1.4098,6.9282 -4.7374,8.8141 -3.4441,1.2193 -6.9977,0.8803 -10.6082,0.8838 -3.5432,9e-4 -7.0864,0 -10.6295,0.01 -4.24334,0 -8.48669,0.013 -12.72995,-0.01 -4.24045,-0.037 -8.48674,-0.082 -12.71161,-0.4868 -3.54038,-0.3746 -7.03763,-1.1947 -10.59624,-1.2379 -3.84683,0 -7.69367,0 -11.5405,0 -4.85467,0 -9.70934,0 -14.56402,0 -3.6653,0 -3.6653,-5.1835 0,-5.1835 z"
       inkscape:connector-curvature="0"
       transform="translate(0,-995.63782)" />
    <path
       style="fill:#504416;fill-opacity:1;stroke:none"
       id="path4107"
       d="m 931.36683,1566.5549 c -4.2834,-0.7953 -8.66009,-0.8312 -12.94955,-1.5346 -3.25772,-0.5391 -6.40369,-1.5823 -9.3713,-3.0169 -1.87297,-1.1222 -4.03089,-1.4368 -6.07308,-2.1013 -3.47519,-1.1651 -1.82747,-6.0798 1.64772,-4.9147 l 0,0 c 2.24923,0.7878 4.67794,1.0831 6.74207,2.379 2.46188,1.2981 5.20015,2.0291 7.92059,2.5433 4.27191,0.754 8.6686,0.6751 12.93572,1.5322 3.61543,0.6026 2.76326,5.7156 -0.85217,5.113 z"
       inkscape:connector-curvature="0"
       transform="translate(0,-995.63782)" />
    <path
       style="fill:#504416;fill-opacity:1;stroke:none"
       id="path4109"
       d="m 1004.8059,1727.3439 c 2.4763,2.5123 5.5924,3.1518 8.9584,3.524 3.4197,-0.073 6.6036,-1.4119 9.8847,-2.2357 3.5408,-0.5521 6.8434,-1.9518 10.2339,-3.0369 3.2349,-0.6381 6.3297,-1.771 9.542,-2.4984 3.3115,-0.6536 6.5538,-1.5359 9.903,-2.0175 3.541,-0.4359 7.113,-0.4785 10.6757,-0.5129 3.4681,-0.018 6.9362,-0.01 10.4043,0 3.137,0.2653 6.0478,-0.2567 8.9587,-1.3588 1.9214,-0.9787 2.1304,-2.9943 2.4046,-4.9367 0.027,-2.7927 -1.2799,-5.1489 -2.4595,-7.5857 -0.7857,-2.5198 -1.9017,-3.9199 -4.3904,-4.6294 -3.2283,-0.635 -6.5463,-0.5436 -9.8213,-0.5517 -3.4616,0.1 -7.0596,0.4745 -10.4048,1.4206 -2.99,0.99 -6.0906,1.506 -9.1304,2.3081 -3.1394,0.5122 -6.0954,1.6678 -9.1808,2.3985 -2.7431,1.0374 -5.3328,2.3437 -8.1496,3.1907 -2.6238,1.4052 -5.595,1.7314 -8.379,2.6187 -2.7423,0.9546 -5.4659,2.1367 -7.9482,3.653 -2.2185,1.2871 -4.3054,2.876 -6.0927,4.7214 -1.308,0.9237 -2.0735,2.2569 -3.0183,3.5004 -2.2267,2.9114 -6.344,-0.2377 -4.1172,-3.1491 l 0,0 c 1.0821,-1.4027 2.0013,-2.9428 3.4606,-4.007 2.1355,-2.1094 4.4946,-4.0297 7.1095,-5.5158 2.8727,-1.6881 5.9355,-3.1118 9.0989,-4.1624 2.8238,-0.8306 5.754,-1.2748 8.4148,-2.6294 2.9178,-0.8468 5.5384,-2.3646 8.4386,-3.2673 3.0397,-0.7031 5.9479,-1.8736 9.041,-2.3637 3.033,-0.8002 6.1244,-1.3184 9.108,-2.3022 3.8171,-0.9883 7.8237,-1.5436 11.7627,-1.598 3.8057,0.01 7.6686,-0.088 11.3956,0.8007 3.702,1.2666 6.2463,3.487 7.4688,7.3057 1.6387,3.3863 3.2197,6.731 2.9195,10.6153 -0.6082,3.866 -1.8639,7.3176 -5.7038,9.0163 -3.4942,1.3095 -7.0429,1.9656 -10.7935,1.6913 -3.4488,-0.01 -6.8976,-0.017 -10.3464,-2e-4 -3.3347,0.032 -6.6783,0.065 -9.994,0.4612 -3.215,0.4536 -6.3211,1.3269 -9.5014,1.9441 -3.0654,0.6778 -6.01,1.7968 -9.1,2.3787 -3.497,1.111 -6.9025,2.5563 -10.552,3.1273 -3.882,0.9655 -7.6519,2.5631 -11.7321,2.3566 -4.5135,-0.5325 -8.7333,-1.6631 -12.0332,-5.0085 -2.59174,-2.5918 1.0736,-6.2571 3.6653,-3.6653 z"
       inkscape:connector-curvature="0"
       transform="translate(0,-995.63782)" />
    <path
       style="fill:#504416;fill-opacity:1;stroke:none"
       id="path4111"
       d="m 1059.4304,1719.9787 c -1.1735,3.4413 -2.2627,7.0348 -2.2618,10.6977 0.3975,1.7531 2.3761,1.6876 3.8873,1.89 3.2618,0.2724 6.5408,0.1936 9.8104,0.1672 3.4792,-0.034 6.9585,-0.049 10.4378,-0.058 3.2606,-0.1839 6.5904,0.3152 9.824,-0.1898 2.7142,-0.3368 5.2469,-1.2086 7.8382,-2.0159 3.129,-0.8294 6.3532,-0.995 9.5173,-1.649 3.4632,-0.5127 6.8663,-1.2299 10.2875,-1.9631 2.9519,-1.2151 5.9982,-2.0024 9.1526,-2.4467 1.8724,-0.3624 4.8414,0.4459 5.7045,-1.737 -0.2242,-0.8839 0.1322,0.1883 -0.281,-0.066 -0.2653,-0.1633 -0.2922,-0.5828 -0.5527,-0.7535 -0.1331,-0.087 -0.2831,-0.1452 -0.4246,-0.2178 -0.3234,-0.2119 -0.6468,-0.4238 -0.9702,-0.6358 -2.5604,-1.3412 -5.4579,-1.7412 -8.2019,-2.5884 -2.635,-0.794 -5.0704,-1.9802 -7.786,-2.5148 -3.0757,-0.4746 -6.1973,-0.4878 -9.302,-0.5203 -3.337,0.1053 -6.7119,-0.2531 -10.0272,0.192 -2.9336,0.4411 -5.8178,1.4415 -8.2531,3.1552 -1.4777,0.9844 -0.8384,0.4753 -1.9543,1.4804 -2.7719,2.3982 -6.1634,-1.5218 -3.3916,-3.92 l 0,0 c 1.6381,-1.3827 0.8143,-0.7699 2.4538,-1.8621 3.1816,-2.079 6.7319,-3.5046 10.5207,-3.9992 3.5543,-0.3994 7.1337,-0.1961 10.7065,-0.2296 3.4312,0.037 6.8816,0.062 10.2759,0.6232 2.8812,0.5958 5.5094,1.7423 8.287,2.6426 3.2141,0.993 6.6254,1.4405 9.5421,3.2245 3.1345,2.1062 5.3663,4.8824 3.7139,8.8005 -2.5756,3.5648 -5.1902,3.8848 -9.3487,4.0608 -3.0392,0.4124 -5.9128,1.2926 -8.7786,2.3809 -3.4333,0.734 -6.8512,1.4561 -10.3254,1.971 -3.0022,0.6182 -6.0451,0.8286 -9.0283,1.523 -2.8635,0.8846 -5.6838,1.822 -8.6764,2.2016 -3.4848,0.4293 -7.0031,0.1577 -10.5089,0.237 -3.4698,0.01 -6.9395,0.024 -10.4091,0.058 -3.5338,0.029 -7.0796,0.1159 -10.6022,-0.2216 -4.2551,-0.6586 -7.8709,-2.3066 -8.3201,-7.1076 0.1233,-4.2973 1.1504,-8.504 2.6318,-12.5341 1.3613,-3.4031 6.1741,-1.478 4.8128,1.9251 z"
       inkscape:connector-curvature="0"
       transform="translate(0,-995.63782)" />
    <path
       style="fill:#504416;fill-opacity:1;stroke:none"
       id="path4113"
       d="m 1082.8672,1696.3848 c 4.8005,0 9.601,0 14.4014,0 3.8976,0 7.7952,0 11.6928,0 3.4627,0 6.9253,0 10.3879,0 3.4492,0 6.8984,0 10.3476,0 2.764,-0.4027 6.1504,0.8403 8.7083,-0.5149 0.9323,-1.3121 0.8487,-2.8973 0.6242,-4.4045 -0.8973,-1.9171 -1.6372,-3.8916 -2.9728,-5.5586 -1.1357,-1.9862 -3.117,-2.7358 -5.0761,-3.7119 -2.5006,-0.7674 -5.0275,-1.4697 -7.5562,-2.1692 -2.8697,-0.6996 -5.8338,-0.796 -8.7721,-0.8846 -3.3017,-0.1328 -6.5543,-0.1391 -9.8132,0.4085 -3.4657,0.4211 -6.8497,1.1574 -10.2565,1.8953 -3.228,0.4159 -6.368,1.0217 -9.5277,1.783 -2.6497,0.2805 -5.0116,1.0208 -7.3429,2.2519 -2.6581,1.1007 -5.4238,1.9619 -8.1779,2.8125 -2.0357,0.6989 -3.3364,1.9078 -4.6035,3.5939 -0.9561,1.6656 -1.1147,3.6007 -1.2968,5.4725 -0.3667,3.6469 -5.5242,3.1285 -5.1576,-0.5185 l 0,0 c 0.2947,-2.8555 0.7009,-5.7142 2.3672,-8.142 1.9465,-2.4395 4.1373,-4.3906 7.1714,-5.3618 2.4483,-0.7439 4.8917,-1.5399 7.2783,-2.4411 2.7067,-1.427 5.4911,-2.3646 8.5489,-2.7071 3.1966,-0.7685 6.3796,-1.4006 9.6444,-1.8096 3.4875,-0.7538 6.9566,-1.5026 10.5019,-1.9422 3.5947,-0.5929 7.1833,-0.6342 10.8217,-0.4764 3.3546,0.103 6.7348,0.2405 10.0039,1.0719 2.8475,0.7963 5.7158,1.5294 8.4917,2.5301 2.6184,1.3219 5.3297,2.5848 6.8853,5.218 1.7775,2.4272 3.1028,5.1329 3.9786,8.0152 0.4647,3.9093 -0.2575,7.6825 -3.8471,9.8907 -3.4498,1.2191 -7.0094,0.8792 -10.6254,0.8824 -3.4492,0 -6.8984,0 -10.3476,0 -3.4626,0 -6.9252,0 -10.3879,0 -3.8976,0 -7.7952,0 -11.6928,0 -4.8004,0 -9.6009,0 -14.4014,0 -3.6653,0 -3.6653,-5.1835 0,-5.1835 z"
       inkscape:connector-curvature="0"
       transform="translate(0,-995.63782)" />
    <path
       style="fill:#504416;fill-opacity:1;stroke:none"
       id="path4115"
       d="m 1194.8505,1888.3463 c -4.1369,0.4176 -8.1775,1.1796 -12.2293,2.0825 -3.5493,0.8012 -7.1812,1.0283 -10.806,1.1546 -3.4669,0.084 -6.9352,0.068 -10.4028,0.062 -3.4538,-0.01 -6.9077,-0.011 -10.3615,-0.013 -3.3693,-0.2478 -6.6295,0.1889 -9.9365,0.7448 -2.7127,0.5066 -5.6667,1.0441 -8.0398,2.5265 -1.1295,1.0705 -1.9565,2.7349 -1.1945,4.2411 0.5969,1.9473 1.1625,3.2125 3.0961,3.9025 2.7262,0.7566 5.4082,1.6851 8.0844,2.6095 2.9791,1.0003 6.1127,1.2587 9.2285,1.4304 3.4064,0.1359 6.8165,0.118 10.225,0.114 3.1551,-0 6.2784,0.1688 9.3798,-0.4593 3.0978,-0.4712 6.123,-1.2014 9.1754,-1.895 2.6496,-0.8074 5.1009,-2.0579 7.6584,-3.089 2.3063,-1.6392 5.0914,-2.0368 7.6874,-2.9399 1.4963,-1.0108 1.5265,-3.1082 1.7146,-4.7443 0.1402,-1.5671 0.1545,-3.1409 0.1788,-4.7128 0.058,-3.6648 5.2406,-3.5832 5.1829,0.082 l 0,0 c -0.028,1.7535 -0.047,3.5093 -0.216,5.2566 -0.4777,3.7734 -1.4306,7.3506 -5.2202,9.036 -2.5356,0.8215 -5.1535,1.2884 -7.406,2.837 -2.8132,1.1083 -5.5,2.5198 -8.4332,3.3298 -3.097,0.7011 -6.1709,1.4379 -9.3112,1.9239 -3.4401,0.6738 -6.889,0.6009 -10.3846,0.5588 -3.5067,0 -7.0153,0.022 -10.5198,-0.122 -3.5942,-0.2027 -7.2017,-0.5391 -10.6329,-1.7066 -2.7932,-0.9657 -5.5917,-1.9133 -8.4282,-2.7423 -3.2809,-1.5095 -5.0754,-3.783 -6.0461,-7.2549 -0.9239,-4.0215 0.1784,-7.6139 3.585,-10.1416 3.0055,-1.665 6.3865,-2.628 9.7769,-3.1519 3.5878,-0.603 7.148,-1.0568 10.799,-0.8165 3.4555,0 6.9109,0.01 10.3663,0.013 3.4053,0.01 6.8112,0.022 10.2158,-0.059 3.3057,-0.1132 6.6198,-0.3052 9.8577,-1.0337 4.1419,-0.9226 8.277,-1.7073 12.5044,-2.136 3.6155,-0.6025 4.4676,4.5104 0.8522,5.113 z"
       inkscape:connector-curvature="0"
       transform="translate(0,-995.63782)" />
    <path
       style="fill:#504416;fill-opacity:1;stroke:none"
       id="path4117"
       d="m 1160.0724,1881.3135 c -0.3112,-3.7585 -1.8998,-7.1503 -3.2261,-10.6164 -0.5531,-2.4746 -1.3182,-3.8765 -3.7232,-4.5457 -2.8603,0.094 -5.5566,1.2 -8.3187,1.8754 -3.3652,1.0647 -6.7699,1.9711 -10.0355,3.3231 -3.4835,1.3588 -7.0737,2.4768 -10.6814,3.4642 -3.2198,0.481 -6.2924,1.5388 -9.4672,2.222 -3.361,0.6299 -6.7883,0.7036 -10.1968,0.765 -2.966,-0.013 -5.8463,0.8404 -8.7767,1.2456 -2.7794,0.9477 -5.6273,1.5366 -8.5378,1.8837 -1.8651,0.321 -4.7829,-0.4821 -5.6422,1.6857 -0.4289,1.8882 -1.2691,4.3426 -0.2425,6.1445 1.6204,0.9424 3.6337,0.9876 5.4559,1.1177 3.3735,0.1438 6.7517,0.088 10.1272,0.066 3.4732,-0.025 6.9466,-0.034 10.4199,-0.039 3.458,-0 6.916,-0 10.374,-0 3.3453,0.062 6.6418,0.094 9.9444,-0.457 3.0747,-0.5716 5.9629,-1.7575 9.0438,-2.3634 3.5983,-0.6975 4.5847,4.3913 0.9864,5.0888 l 0,0 c -3.1286,0.5957 -6.0402,1.8945 -9.1859,2.3889 -3.5845,0.5867 -7.1609,0.6115 -10.7888,0.5262 -3.4554,0 -6.9107,-3e-4 -10.3661,0 -3.4647,0.01 -6.9295,0.014 -10.3941,0.039 -3.5147,0.023 -7.0326,0.082 -10.545,-0.081 -3.8543,-0.2959 -7.7487,-0.7895 -9.9083,-4.4223 -1.1986,-3.5998 -0.8506,-7.3646 0.7273,-10.8253 2.5877,-3.5716 5.2138,-3.8916 9.3888,-4.0176 2.8856,-0.3335 5.6592,-1.0333 8.4383,-1.871 3.1326,-0.4262 6.2094,-1.3511 9.3887,-1.2928 3.0767,-0.055 6.171,-0.1075 9.2086,-0.6519 3.0811,-0.6498 6.0596,-1.7051 9.1856,-2.1537 3.4048,-0.923 6.7893,-1.9855 10.0773,-3.259 3.5137,-1.4293 7.1524,-2.4534 10.7757,-3.5635 3.6827,-0.8926 7.2902,-2.4882 11.1524,-1.767 3.7438,1.3136 6.0737,3.6682 6.9584,7.6248 1.4431,3.7888 3.136,7.5132 3.4966,11.6131 0.6025,3.6154 -4.5104,4.4676 -5.113,0.8522 z"
       inkscape:connector-curvature="0"
       transform="translate(0,-995.63782)" />
    <path
       style="fill:#504416;fill-opacity:1;stroke:none"
       id="path4119"
       d="m 1128.0107,1906.5824 c -3.4099,-1.3347 -6.6638,-2.9187 -10.2359,-3.7975 -3.2725,-0.6878 -6.6258,-0.7536 -9.956,-0.8075 -3.4415,-0.028 -6.8832,-0 -10.3247,0.01 -3.4572,0.01 -6.9144,0.013 -10.3715,0.014 -3.456,0 -6.912,9e-4 -10.368,8e-4 -2.9514,-0.2594 -5.5769,0.9991 -8.3007,1.9032 -3.1094,0.7038 -6.1913,1.3955 -9.2799,2.1927 -3.2859,0.7948 -6.6708,0.9431 -10.0349,1.0475 -4.6343,0.2979 -7.2347,-1.0891 -9.0337,-5.3911 -0.9446,-3.6056 -1.2316,-7.31 -0,-10.8525 1.9134,-3.1933 4.7468,-4.7504 8.264,-5.6101 3.4414,-0.6128 6.9519,-0.591 10.4353,-0.6075 3.4717,9e-4 6.9435,0.02 10.4152,0.029 3.4323,-0.226 6.7495,0.1661 10.1014,0.8442 2.9122,0.2749 5.6446,1.3185 8.4839,1.939 1.4104,0.2826 2.8443,0.3903 4.2752,0.5041 3.6534,0.2947 3.2365,5.4615 -0.4169,5.1667 l 0,0 c -1.6668,-0.1363 -3.3367,-0.2693 -4.9778,-0.6096 -2.81,-0.6279 -5.5096,-1.6426 -8.3924,-1.9196 -3.0229,-0.6117 -5.985,-0.9729 -9.0873,-0.7413 -3.459,-0.01 -6.918,-0.028 -10.377,-0.029 -3.0954,0.014 -6.2126,-0.012 -9.2786,0.4713 -1.9046,0.4156 -3.2812,1.0346 -4.6248,2.4694 -1.1417,2.0833 -0.2349,4.8803 0.026,7.103 0.6755,2.3158 1.5645,2.1618 4.0293,2.0531 2.9819,-0.091 5.9852,-0.2008 8.9019,-0.8863 2.9752,-0.764 5.9409,-1.4617 8.944,-2.094 3.2456,-1.0702 6.4182,-2.4601 9.9292,-2.1656 3.4552,10e-5 6.9104,3e-4 10.3656,-8e-4 3.4527,-0 6.9054,-0 10.3581,-0.014 3.475,-0.01 6.9501,-0.034 10.4251,-0 3.7248,0.062 7.4734,0.1576 11.1273,0.9612 3.7945,0.9595 7.2899,2.561 10.905,4.0138 3.4031,1.3613 1.478,6.1741 -1.9251,4.8128 z"
       inkscape:connector-curvature="0"
       transform="translate(0,-995.63782)" />
    <path
       style="fill:#504416;fill-opacity:1;stroke:none"
       id="path4121"
       d="m 1305.5537,1770.6319 c 0.6651,4.0034 1.8822,7.8775 2.5765,11.8832 0.6279,3.4096 1.0724,6.9372 2.0736,10.2633 0.9383,1.7416 3.0524,1.7917 4.8194,1.9973 2.9292,0.4505 5.706,0.019 8.5589,-0.577 3.2093,-0.4231 6.3552,-1.0608 9.5225,-1.7207 3.5404,-0.7176 7.1511,-0.9029 10.7519,-1.0154 3.4107,0.1861 6.7263,-0.5748 10.0766,-1.0723 3.1501,-0.116 6.1365,-1.0597 9.2036,-1.6721 3.3521,-0.5956 6.7627,-0.6786 10.1578,-0.7437 3.4624,-0.043 6.9253,-0.03 10.3879,-0.024 3.4575,0.01 6.9151,0.01 10.3726,0.01 2.7644,-0.402 6.1517,0.8415 8.7099,-0.5139 0.976,-1.5726 0.9815,-3.6178 1.1003,-5.4105 0.257,-2.2357 7e-4,-3.3229 -2.0694,-3.9441 -2.878,-0.6204 -5.8503,-0.5587 -8.7792,-0.5679 -3.8173,0.016 -7.6345,0.041 -11.4518,0.055 -3.6847,0.012 -7.3694,0.014 -11.0541,0.015 -3.2444,0.6304 -6.5031,1.1091 -9.7958,1.4045 -3.0191,0.2444 -6.0696,0.8599 -8.9859,1.6944 -3.3778,1.1086 -6.8863,1.5986 -10.4152,1.884 -3.0965,-0.1196 -6.0507,0.6845 -9.068,1.2205 -3.3428,0.5388 -6.7331,0.6241 -10.1113,0.6886 -3.4623,0.044 -6.9251,0.033 -10.3876,0.028 -1.7295,-0 -3.4589,-0 -5.1883,-0.01 -3.6653,-0 -3.6606,-5.1869 0,-5.1835 l 0,0 c 1.7299,0 3.4598,0 5.1897,0.01 3.4277,0 6.8556,0.015 10.2832,-0.028 3.1085,-0.059 6.2288,-0.1271 9.3066,-0.6102 3.1749,-0.5591 6.3024,-1.3888 9.5575,-1.2833 3.2004,-0.253 6.3795,-0.6933 9.4396,-1.711 3.2336,-0.8802 6.5731,-1.6092 9.9144,-1.8634 3.4481,-0.3057 6.8372,-0.9089 10.2547,-1.425 3.679,-0 7.3579,-0 11.0369,-0.015 3.8292,-0.014 7.6583,-0.04 11.4875,-0.055 3.5553,0.012 7.1763,-0.057 10.6287,0.9155 4.3204,1.8279 5.7557,4.4609 5.3743,9.1376 -0.2746,3.8373 -0.745,7.7055 -4.3544,9.8688 -3.451,1.2195 -7.0119,0.8791 -10.629,0.8815 -3.4594,-0 -6.9187,-0 -10.3781,-0.01 -3.4272,-0 -6.8547,-0.018 -10.2817,0.023 -3.0897,0.059 -6.1945,0.1218 -9.2479,0.6457 -3.1476,0.6198 -6.2217,1.5888 -9.4521,1.7151 -3.5463,0.5247 -7.0668,1.306 -10.6759,1.1258 -3.3,0.1016 -6.6105,0.2581 -9.8565,0.9092 -3.1645,0.6578 -6.312,1.3014 -9.5181,1.7197 -3.4059,0.7118 -6.7733,1.1516 -10.2577,0.6473 -3.9635,-0.5146 -7.5775,-1.6462 -9.162,-5.706 -0.9873,-3.5353 -1.5837,-7.2048 -2.201,-10.8185 -0.6873,-4.0157 -1.9439,-7.8915 -2.5813,-11.9112 -0.6026,-3.6154 4.5104,-4.4676 5.113,-0.8522 z"
       inkscape:connector-curvature="0"
       transform="translate(0,-995.63782)" />
    <path
       style="fill:#504416;fill-opacity:1;stroke:none"
       id="path4123"
       d="m 1280.5938,1804.6428 c -0.5048,2.3188 -2.9012,6.079 -1.2105,8.3262 1.8468,0.7971 3.9034,0.8528 5.8812,0.9508 3.0617,0.3178 5.9745,-0.1048 8.9511,-0.7286 3.2761,-0.6917 6.6231,-0.8665 9.9595,-0.9807 3.4627,-0.085 6.9269,-0.074 10.3904,-0.072 3.4586,0 6.9172,0.01 10.3758,0.01 3.1526,0.01 6.2728,0.1835 9.3725,-0.441 3.0533,-0.6328 6.1375,-0.9214 9.18,-1.6028 3.1817,-0.4781 6.2659,-1.1995 9.3734,-2.0096 1.9889,-1.3001 4.734,-1.2144 6.5488,-2.736 0.8739,-1.3402 0.9773,-3.0046 1.1422,-4.5523 0.4082,-3.6425 5.5595,-3.0652 5.1513,0.5773 l 0,0 c -0.3582,3.0784 -0.8917,6.0688 -3.3354,8.2316 -2.5365,1.6372 -5.4587,2.2561 -8.2014,3.4959 -3.164,0.8219 -6.311,1.5644 -9.5476,2.0516 -3.0858,0.6891 -6.208,1.0066 -9.3058,1.6294 -3.4397,0.6698 -6.8867,0.5909 -10.3809,0.5394 -3.4588,-0 -6.9176,-0.01 -10.3764,-0.01 -3.4037,-0 -6.808,-0.013 -10.2109,0.069 -3.0383,0.1024 -6.088,0.2472 -9.0723,0.8734 -3.4088,0.7143 -6.7842,1.1582 -10.2811,0.832 -3.9161,-0.2086 -7.9207,-0.511 -10.351,-4.022 -1.701,-4.5242 -0.4395,-7.9871 1.1343,-12.3568 1.3613,-3.4031 6.1741,-1.478 4.8128,1.9251 z"
       inkscape:connector-curvature="0"
       transform="translate(0,-995.63782)" />
    <path
       style="fill:#504416;fill-opacity:1;stroke:none"
       id="path4125"
       d="m 1274.6573,1796.5994 c 3.6381,-0.6772 7.3842,-0.7739 10.9952,-1.566 2.812,-0.8282 5.3758,-2.1789 8.2497,-2.8832 3.3803,-0.668 6.8386,-0.7026 10.271,-0.7478 3.665,-0.048 3.7327,5.1352 0.068,5.1831 l 0,0 c -3.0491,0.04 -6.1211,0.057 -9.1307,0.6055 -2.9239,0.6796 -5.4679,2.2524 -8.3922,2.9152 -3.9738,0.8074 -8.051,1.0723 -12.0607,1.6768 -3.6653,0 -3.6653,-5.1836 0,-5.1836 z"
       inkscape:connector-curvature="0"
       transform="translate(0,-995.63782)" />
    <path
       style="fill:#504416;fill-opacity:1;stroke:none"
       id="path4127"
       d="m 1353.7618,1773.7614 c -0.1551,-4.2142 0.2977,-8.4713 -0.1918,-12.6653 -0.1615,-2.4963 -0.9779,-3.3593 -3.2329,-3.9038 -3.0215,-0.4949 -6.1018,-0.4178 -9.1535,-0.4082 -3.7334,0.031 -7.4667,0.052 -11.2002,0.063 -3.6494,-0.036 -7.2578,-0.1122 -10.8645,0.4713 -3.2422,0.5972 -6.5182,0.748 -9.7124,1.568 -2.7299,0.7993 -5.2924,1.9379 -8.0998,2.5274 -3.3884,0.5718 -6.8347,0.6007 -10.2614,0.6399 -2.8964,0.5584 -5.7825,1.0988 -8.7195,1.3996 -3.4262,0.2884 -6.8671,0.3047 -10.303,0.3243 -3.1029,-0.2299 -6.067,0.1228 -9.0922,0.7295 -2.9251,0.3163 -5.7374,0.9285 -8.5837,1.6393 -2.3721,1.3364 -5.0882,1.6679 -7.6176,2.5285 -1.5939,0.4033 -3.0381,1.2874 -2.9065,3.1192 0.2677,1.8583 1.3501,3.5807 2.2569,5.2216 1.1727,1.6824 3.2385,1.8576 5.1229,2.106 3.244,0.2929 6.5067,0.2491 9.7604,0.2417 3.2686,-0.1917 6.608,0.2927 9.8488,-0.219 3.031,-0.7171 6.1077,-1.1192 9.2095,-1.3505 2.6946,-0.2324 5.5282,-0.6542 8.0955,-1.5458 2.9253,-1.1857 6.0293,-1.6351 9.1506,-1.9078 0.5711,-0.032 1.1423,-0.065 1.7135,-0.097 3.6596,-0.2051 3.9495,4.9703 0.2899,5.1754 l 0,0 c -0.5196,0.029 -1.0392,0.057 -1.5588,0.086 -2.7342,0.2315 -5.4439,0.615 -7.9999,1.6754 -3.0032,0.9285 -6.1758,1.5676 -9.3088,1.7832 -2.9948,0.219 -5.9551,0.6377 -8.8834,1.316 -3.4957,0.4381 -7.0275,0.1777 -10.545,0.2676 -3.4955,0.01 -7.0015,0.054 -10.4844,-0.2908 -3.5678,-0.5133 -6.9462,-1.4609 -8.9479,-4.7337 -1.4316,-2.5915 -2.9523,-5.3013 -2.8657,-8.3515 0.6447,-3.733 2.6568,-6.4421 6.4545,-7.4271 2.6718,-0.8377 5.4352,-1.3398 7.9612,-2.6269 2.9214,-0.7274 5.8203,-1.367 8.8189,-1.6921 3.3462,-0.671 6.6572,-1.0552 10.0819,-0.8306 3.2709,-0.019 6.5467,-0.031 9.809,-0.2979 3.0935,-0.3107 6.1105,-0.9888 9.1841,-1.4258 3.0962,-0.035 6.2098,-0.051 9.2759,-0.5339 2.7306,-0.5465 5.1801,-1.776 7.8624,-2.4727 3.3518,-0.8509 6.7708,-1.0761 10.1741,-1.6637 3.8757,-0.6155 7.749,-0.5974 11.668,-0.5365 3.7336,-0.012 7.4671,-0.033 11.2006,-0.064 3.5332,-0.011 7.1071,-0.099 10.5875,0.6058 4.4421,1.3643 6.4651,3.6259 6.9687,8.335 0.4426,4.3899 0.1316,8.8128 0.2216,13.22 0,3.6653 -5.1835,3.6653 -5.1835,0 z"
       inkscape:connector-curvature="0"
       transform="translate(0,-995.63782)" />
    <path
       style="fill:#504416;fill-opacity:1;stroke:none"
       id="path4129"
       d="m 1305.5537,1492.4499 c 0.8871,3.6018 2.2213,7.0405 3.4201,10.5405 0.9484,2.8293 3.0665,4.974 4.6193,7.4578 1.223,1.8856 3.1232,3.0004 4.9333,4.2246 2.1024,1.1275 4.3808,2.0037 6.6487,2.7679 2.5616,0.7723 4.9952,1.7736 7.6438,2.2408 3.0102,0.4931 5.987,0.494 8.9859,0.016 3.2188,-0.5866 6.4678,-0.7519 9.6371,-1.57 3.1841,-0.8897 6.4767,-1.1653 9.7637,-1.3344 3.3611,-0.6407 6.7256,-1.1995 10.1332,-1.5215 3.1033,-0.3716 5.8834,-1.7938 8.8509,-2.6707 3.385,-0.8778 6.8912,-0.9953 10.3675,-1.0833 3.4684,-0.054 6.9373,-0.034 10.4059,-0.026 3.4569,0.01 6.9138,0.012 10.3707,0.014 3.0968,0.24 6.053,-0.1199 9.0708,-0.7298 2.0835,-0.5284 5.007,-0.2714 6.549,-2.0406 0.9941,-2.0106 1.008,-4.3473 1.1099,-6.5424 -0.1058,-2.2265 -1.6936,-2.1605 -3.5429,-2.4784 -3.5319,-0.4276 -7.0991,-0.377 -10.6502,-0.3665 -3.9883,0.023 -7.9767,0.043 -11.9651,0.054 -3.3647,0.1958 -6.8026,-0.3243 -10.1402,0.1932 -3.0261,0.7103 -6.0964,1.1121 -9.192,1.3428 -2.9534,0.1415 -5.8023,1.0177 -8.7287,1.4389 -3.2883,0.3344 -6.5579,0.3614 -9.8147,0.943 -3.5257,0.7077 -7.1075,1 -10.6932,1.1678 -3.1367,-0.1289 -6.1406,0.2325 -9.1979,0.851 -3.2631,0.6606 -6.5921,0.8214 -9.9104,0.9281 -3.3734,-0.1709 -6.6417,0.2598 -9.9537,0.814 -0.5925,0.088 -1.185,0.176 -1.7774,0.264 -3.6257,0.5375 -4.3858,-4.59 -0.7601,-5.1275 l 0,0 c 0.5606,-0.083 1.1213,-0.1659 1.682,-0.2489 3.5361,-0.5917 7.0458,-1.0426 10.6437,-0.8824 3.0287,-0.096 6.0688,-0.2293 9.0482,-0.8279 3.3123,-0.67 6.5932,-1.0688 9.9849,-0.9483 3.3628,-0.1552 6.7219,-0.4253 10.0278,-1.0936 3.3173,-0.5859 6.6385,-0.6831 9.989,-0.9709 3.0419,-0.4291 6.0002,-1.3675 9.0788,-1.4767 2.993,-0.2188 5.9513,-0.6386 8.8791,-1.3102 3.5875,-0.4402 7.2114,-0.1504 10.8201,-0.2399 3.9882,-0.011 7.9764,-0.032 11.9645,-0.054 3.8777,-0.011 7.7751,-0.063 11.6266,0.4564 4.698,0.9397 7.5392,2.6264 7.7594,7.819 -0.1767,3.6153 -0.3837,7.3411 -2.8802,10.2016 -2.6239,2.0971 -5.625,2.8366 -8.9295,3.2152 -3.3518,0.6773 -6.6685,1.0676 -10.1004,0.8325 -3.46,-0 -6.92,-0 -10.38,-0.014 -3.4212,-0.01 -6.8428,-0.028 -10.2638,0.024 -3.0283,0.075 -6.086,0.1516 -9.0433,0.8768 -3.2838,0.9466 -6.3604,2.563 -9.8208,2.8561 -3.4829,0.3244 -6.9061,0.9653 -10.3538,1.5375 -2.9413,0.1482 -5.8901,0.3765 -8.7388,1.1784 -3.334,0.8513 -6.734,1.0896 -10.1209,1.6698 -3.5739,0.5545 -7.1334,0.5619 -10.7128,-0.035 -2.9027,-0.5348 -5.5976,-1.5658 -8.3998,-2.4372 -2.6975,-0.9339 -5.4259,-1.9546 -7.8913,-3.3899 -2.4031,-1.6571 -4.8456,-3.2424 -6.429,-5.7932 -1.6987,-2.8352 -4.1733,-5.2211 -5.1082,-8.4962 -1.2832,-3.7682 -2.7252,-7.4734 -3.6278,-11.3638 -0.6026,-3.6154 4.5104,-4.4676 5.113,-0.8521 z"
       inkscape:connector-curvature="0"
       transform="translate(0,-995.63782)" />
    <path
       style="fill:#504416;fill-opacity:1;stroke:none"
       id="path4131"
       d="m 1356.4244,1488.8161 c 3.3799,-1.2477 6.6676,-2.7485 9.9088,-4.3226 3.2546,-1.5794 6.8149,-2.0199 10.3762,-2.263 3.4743,-0.164 6.954,-0.1337 10.4311,-0.1247 3.457,0.013 6.9139,0.02 10.3709,0.024 3.4554,0 6.9109,0 10.3664,0 3.4556,0 6.9113,-10e-5 10.3669,-2e-4 3.4557,0 6.9114,0 10.367,0 3.5477,0.4194 7.0499,1.0933 10.6099,1.4261 3.3728,0.2677 6.7583,0.2889 10.1396,0.3089 3.6908,0.3041 6.8882,1.0473 9.4501,3.8304 2.1594,3.4298 2.0507,7.0091 -0.1475,10.3221 -2.7923,2.6854 -6.5845,2.9059 -10.2498,3.1023 -3.5057,0.1116 -7.0139,0.066 -10.5207,0.048 -3.5316,-0.02 -7.0634,-0.026 -10.5951,-0.03 -4.0617,-0 -8.1234,-0 -12.1851,-0 -3.5981,-0.33 -7.1617,-0.9133 -10.597,-2.0352 -0.4356,-0.1294 -0.8712,-0.2588 -1.3068,-0.3881 -3.5128,-1.0462 -2.0333,-6.0141 1.4795,-4.9679 l 0,0 c 0.4804,0.1434 0.9608,0.2868 1.4413,0.4302 2.9153,0.9587 5.9332,1.4309 8.9829,1.7775 4.0635,0 8.1269,-3e-4 12.1904,0 3.5389,0 7.0779,0.01 10.6169,0.03 3.4074,0.018 6.8162,0.061 10.2227,-0.041 2.1488,-0.1095 4.3871,-0.1652 6.3861,-1.0521 1.1977,-0.8607 0.746,-2.7331 0.2936,-3.8853 -1.0072,-1.8342 -3.7178,-1.4934 -5.4923,-1.9575 -3.5332,-0.021 -7.0706,-0.046 -10.5944,-0.3317 -3.3977,-0.3216 -6.7529,-0.888 -10.1243,-1.4033 -3.4556,0 -6.9113,0 -10.3669,0 -3.4557,10e-5 -6.9115,2e-4 -10.3672,2e-4 -3.4574,-10e-5 -6.9148,-10e-5 -10.3723,-0 -3.4594,-0 -6.9188,-0.011 -10.3781,-0.024 -3.3569,-0.01 -6.7162,-0.038 -10.0707,0.1131 -2.8949,0.1905 -5.8045,0.4816 -8.459,1.7539 -3.3521,1.6276 -6.7569,3.1713 -10.248,4.4726 -3.4032,1.3613 -5.3283,-3.4515 -1.9251,-4.8128 z"
       inkscape:connector-curvature="0"
       transform="translate(0,-995.63782)" />
    <path
       style="fill:#504416;fill-opacity:1;stroke:none"
       id="path4133"
       d="m 1402.74,1479.2729 c 1.5313,-3.6662 3.7066,-7.0046 5.0896,-10.7318 1.4801,-3.8286 2.9168,-6.1824 6.7692,-7.8965 3.3932,-1.0561 6.9812,-1.0117 10.4986,-1.0369 3.4739,0 6.9477,0.032 10.4216,0.047 3.211,-0.093 6.3171,0.8553 9.4773,1.2932 3.2335,0.8539 6.4854,1.526 9.8114,1.8773 2.9656,0.7238 5.9086,1.4192 8.9475,1.7457 2.8585,0.7401 5.7015,1.4092 8.6404,1.7267 3.3048,0.3409 6.6325,0.1022 9.9244,0.5297 4.3112,1.174 5.9039,4.6782 4.9937,8.8086 -1.0746,3.1277 -3.2349,5.3553 -6.124,6.8455 -2.6227,1.1518 -5.4603,1.7141 -8.1263,2.7098 -2.9415,1.2399 -6.0851,1.6729 -9.2388,1.9377 -3.4553,0.2168 -6.9195,0.2045 -10.3799,0.2069 -3.4624,-0 -6.9248,-0.012 -10.3872,-0.015 -2.3042,-0 -4.6085,-0 -6.9127,-0 -3.6653,-9e-4 -3.6639,-5.1844 0,-5.1835 l 0,0 c 2.3057,6e-4 4.6115,0 6.9173,0 3.4591,0 6.9183,0.012 10.3775,0.015 3.3191,-0 6.6417,0.011 9.9562,-0.1893 2.7091,-0.2203 5.4058,-0.5677 7.9266,-1.6547 2.5203,-0.8701 5.1256,-1.4863 7.603,-2.4904 1.6286,-0.688 2.7662,-1.9835 3.4094,-3.6288 0.6787,-0.8239 0.1789,-1.8796 -0.7449,-2.2297 -3.2135,-0.5176 -6.5294,-0.044 -9.7606,-0.5092 -2.9318,-0.3255 -5.8063,-0.8874 -8.637,-1.7262 -3.0304,-0.3343 -5.9976,-0.9296 -8.9362,-1.7446 -3.3779,-0.364 -6.7045,-0.9785 -9.9785,-1.8979 -2.9305,-0.4125 -5.8132,-1.2812 -8.782,-1.2433 -3.4545,-0.015 -6.9089,-0.044 -10.3634,-0.047 -2.8561,0.02 -5.7626,-0.032 -8.556,0.6445 -2.3349,0.8065 -2.9994,2.7327 -3.8964,4.9307 -1.4274,3.7524 -3.5103,7.1635 -5.1285,10.8317 -1.3612,3.4032 -6.174,1.478 -4.8127,-1.9251 z"
       inkscape:connector-curvature="0"
       transform="translate(0,-995.63782)" />
    <path
       style="fill:#504416;fill-opacity:1;stroke:none"
       id="path4135"
       d="m 1441.6396,1577.9661 c -0.2655,2.4194 0.3229,4.2453 2.5541,5.2634 2.692,1.0678 5.3809,0.5849 8.1385,0.162 3.483,-0.3312 6.8826,-0.9943 10.3043,-1.6943 3.0673,-0.4061 6.082,-1.0783 8.9949,-2.1306 3.3082,-1.3251 6.8105,-1.8701 10.3366,-2.1883 3.0973,0.1002 6.0539,-0.7027 9.0732,-1.238 3.3435,-0.5371 6.7343,-0.6215 10.1129,-0.6855 3.2641,-0.2189 6.595,0.2884 9.8329,-0.2116 2.8086,-0.802 5.7885,-0.7764 8.6025,-1.4814 1.483,-0.8788 1.4801,-2.974 1.659,-4.5134 -0.035,-1.8194 -1.5087,-1.8469 -3.0058,-2.1489 -3.7344,-0.4806 -7.5189,-0.3692 -11.2764,-0.3632 -3.4468,0.4348 -6.8514,1.1004 -10.3105,1.4526 -3.3203,0.535 -6.5053,1.5737 -9.7407,2.4507 -3.5728,0.9288 -7.2602,1.1595 -10.9326,1.2947 -3.0664,-0.2309 -5.9917,0.5451 -8.9798,1.0654 -3.2629,0.2632 -6.4489,0.8102 -9.6603,1.4238 -3.2436,0.6058 -6.5272,0.6309 -9.7383,1.3884 -1.9796,0.4438 -0.9721,0.2353 -3.0232,0.6226 -3.6024,0.6764 -4.5589,-4.4181 -0.9566,-5.0945 l 0,0 c 1.8582,-0.3468 0.9253,-0.1556 2.7984,-0.5752 3.287,-0.7642 6.6236,-0.8799 9.9474,-1.4328 3.2376,-0.618 6.4571,-1.1811 9.7463,-1.4394 3.2128,-0.5555 6.3836,-1.36 9.6772,-1.1384 3.2792,-0.1184 6.5749,-0.3019 9.7686,-1.1185 3.5073,-0.9457 6.9642,-2.0723 10.572,-2.604 3.6298,-0.3645 7.1933,-1.134 10.824,-1.4789 4.1433,-0.01 8.3229,-0.1372 12.4308,0.4916 4.1162,0.9956 7.2093,3.1845 7.0039,7.8401 -0.5013,3.8803 -1.5604,7.5098 -5.6344,8.9273 -2.9995,0.6584 -6.0922,0.8139 -9.0812,1.5688 -3.4583,0.4211 -6.9472,0.1441 -10.4256,0.2568 -3.1094,0.058 -6.2306,0.1259 -9.3094,0.6075 -3.1613,0.5554 -6.2747,1.3827 -9.5145,1.2965 -3.0958,0.2717 -6.1687,0.7335 -9.0688,1.9123 -3.1465,1.094 -6.3759,1.9061 -9.6842,2.3219 -3.5049,0.7161 -6.9933,1.3927 -10.5587,1.7398 -3.8949,0.5944 -7.7161,0.9747 -11.4197,-0.7436 -4.2688,-2.53 -5.6645,-5.7163 -5.1698,-10.6578 0.6026,-3.6154 5.7156,-2.7633 5.113,0.8521 z"
       inkscape:connector-curvature="0"
       transform="translate(0,-995.63782)" />
    <path
       style="fill:#504416;fill-opacity:1;stroke:none"
       id="path4137"
       d="m 1468.0498,1579.4556 c 2.0351,2.6057 4.2389,5.1625 7.1778,6.7499 2.7533,1.697 5.8284,2.4012 8.9937,2.7953 3.3371,0.3139 6.6936,0.2924 10.0419,0.2933 3.456,-0.01 6.912,-0.022 10.3681,-0.029 2.8887,-0.547 5.7627,-1.1003 8.6897,-1.4076 2.9396,-0.2293 5.7654,-1.1247 8.6853,-1.5587 3.3979,-0.425 6.8271,-0.4621 10.2463,-0.4981 3.4642,-0.021 6.9284,-0.01 10.3925,-0.01 1.9057,-0.035 2.3223,-1.5139 1.1258,0.1049 -1.6003,-1.8599 -4.0536,-2.7078 -6.224,-3.7349 -2.6283,-1.1338 -5.4914,-1.3268 -8.3119,-1.4806 -3.3762,-0.1245 -6.7556,-0.098 -10.1334,-0.089 -2.3061,0.01 -1.1528,0 -3.4599,0.01 -3.6653,0.01 -3.6795,-5.1734 -0.014,-5.1835 l 0,0 c 2.3069,-0.01 1.1533,-0 3.461,-0.01 3.4779,-0.01 6.9576,-0.036 10.4337,0.097 3.4933,0.1969 7.0147,0.5189 10.2477,1.9736 3.2291,1.5372 6.6793,2.9021 8.6343,6.0934 0.2369,0.6538 0.6371,1.2698 0.7109,1.9613 0.3988,3.7394 -3.4758,5.2497 -6.4769,5.4415 -3.4438,-0 -6.8875,-0.015 -10.3312,0.01 -3.1851,0.033 -6.3795,0.062 -9.5462,0.4432 -2.9918,0.4349 -5.8829,1.3875 -8.9036,1.5862 -3.1036,0.3194 -6.1279,1.0215 -9.2158,1.4353 -3.4599,0.01 -6.9197,0.02 -10.3796,0.029 -3.5664,-0 -7.1419,0.018 -10.695,-0.3347 -3.824,-0.4958 -7.5485,-1.3931 -10.8832,-3.4211 -3.668,-2.1232 -6.6102,-5.1657 -9.0786,-8.5993 -1.8858,-3.143 2.559,-5.8099 4.4448,-2.6669 z"
       inkscape:connector-curvature="0"
       transform="translate(0,-995.63782)" />
    <path
       style="fill:#504416;fill-opacity:1;stroke:none"
       id="path4139"
       d="m 1571.4195,1772.2383 c 4.1805,-0.6625 8.3919,-0.8826 12.5281,-1.7938 3.448,-0.8604 6.9788,-1.2017 10.5174,-1.3867 3.625,-0.1395 7.2536,-0.1213 10.8806,-0.1198 3.8297,0 7.6594,0.01 11.4891,0.013 3.4969,0 6.9938,0 10.4907,0 2.8842,-0.542 5.753,-1.0943 8.6747,-1.4008 3.4236,-0.296 6.8628,-0.3136 10.2966,-0.3343 3.3549,-0.1359 6.7455,0.2512 10.0797,-0.1869 2.8588,-0.4017 5.7342,-1.0797 8.3426,-2.3482 2.1424,-1.1804 2.7145,-3.3093 3.1504,-5.5536 0.5003,-2.5099 -0.012,-3.7061 -1.5188,-5.5135 -1.6271,-1.4666 -3.8992,-1.6031 -5.9809,-1.8056 -3.3049,-0.2185 -6.6202,-0.1803 -9.9304,-0.1712 -3.5324,-0.2191 -6.9571,0.1582 -10.4214,0.7736 -3.2634,0.4331 -6.5039,1.0831 -9.6485,2.0664 -3.4041,1.1596 -6.9562,1.7055 -10.4336,2.5858 -3.2354,0.5709 -6.3941,1.3017 -9.5699,2.1305 -3.289,0.812 -6.6801,0.969 -10.0508,1.077 -3.0214,0.036 -5.236,-0.3205 -7.953,1.0586 -1.5189,1.3332 -2.3441,3.2226 -3.3454,4.9393 -1.3262,2.6612 -3.2498,4.8561 -5.5707,6.6823 -2.5211,1.6054 -5.1941,2.9064 -7.8422,4.2787 -3.2554,1.6843 -5.6373,-2.9195 -2.3819,-4.6038 l 0,0 c 2.3814,-1.2299 4.7768,-2.4034 7.0717,-3.7897 1.8514,-1.3574 3.2311,-3.1577 4.2605,-5.2046 1.5419,-2.5627 2.8292,-5.3217 5.5005,-6.9438 3.2544,-1.5938 6.5141,-1.7347 10.0958,-1.5979 2.9853,-0.094 5.9917,-0.2106 8.9088,-0.9122 3.1864,-0.8284 6.3593,-1.5752 9.6047,-2.1394 3.3943,-0.8591 6.8596,-1.3944 10.1842,-2.5161 3.3544,-1.0147 6.7865,-1.7692 10.2635,-2.2148 3.7558,-0.6668 7.4881,-1.0677 11.3134,-0.8534 3.4884,-0.01 6.9826,-0.049 10.4646,0.1973 3.4851,0.3612 6.9446,0.9702 9.4517,3.655 2.5388,3.0767 3.3368,5.8822 2.6057,9.8642 -0.8275,3.8798 -2.3402,7.3114 -6.0543,9.2167 -3.1472,1.4072 -6.4769,2.3812 -9.9069,2.79 -3.54,0.387 -7.1008,0.1621 -10.6581,0.2228 -3.2652,0.019 -6.5355,0.033 -9.7916,0.3065 -3.1015,0.3191 -6.1242,1.0213 -9.2109,1.4286 -3.4982,-10e-5 -6.9963,-3e-4 -10.4945,-0 -3.8291,-0 -7.6582,-0.01 -11.4872,-0.014 -3.5369,-0 -7.0754,-0.02 -10.6104,0.1129 -3.2556,0.1669 -6.5039,0.474 -9.6748,1.2732 -4.2251,0.9232 -8.5142,1.2021 -12.7866,1.8437 -3.6154,0.6025 -4.4676,-4.5104 -0.8522,-5.113 z"
       inkscape:connector-curvature="0"
       transform="translate(0,-995.63782)" />
    <path
       style="fill:#504416;fill-opacity:1;stroke:none"
       id="path4141"
       d="m 1216.8863,1590.9866 c -4.8065,-0.2487 -9.5495,0.222 -14.3142,0.7658 -4.396,0.5252 -8.8156,0.7761 -13.2389,0.9039 -3.4447,0.023 -6.8451,-0.039 -10.2471,0.5269 -3.5114,0.6773 -7.0718,0.976 -10.6385,1.146 -2.1888,0.1743 -2.3975,1.3981 -2.765,3.2818 -0.3982,2.3657 0.4344,4.6843 1.6052,6.7186 1.0719,1.9417 2.2829,3.8902 4.3669,4.8123 2.5296,0.7392 5.2516,1.0068 7.8672,0.6893 3.685,-0.8066 7.5037,-0.7723 11.1889,-1.5127 3.2174,-0.8716 6.5033,-1.3351 9.82,-1.5902 3.1528,-0.2976 6.4192,-0.6782 9.469,-1.5709 2.8461,-1.1938 5.9728,-1.2475 8.9118,-2.0147 1.5105,-0.8794 1.5111,-2.9693 1.6928,-4.5291 0.1192,-2.513 -0.3336,-5.218 -1.1679,-7.5991 -0.544,-1.3591 -0.9176,-2.7691 -1.2767,-4.1847 -0.8907,-3.5554 4.1374,-4.8151 5.0281,-1.2596 l 0,0 c 0.3216,1.304 0.6776,2.5955 1.1792,3.845 0.9735,3.1499 1.6636,6.5341 1.3815,9.8359 -0.5012,3.8703 -1.5605,7.4821 -5.6048,8.9266 -2.9139,0.6821 -5.9412,0.8624 -8.7569,1.9742 -3.4028,0.9106 -6.9571,1.46 -10.4627,1.745 -3.1238,0.2349 -6.2102,0.6914 -9.2395,1.5128 -3.8502,0.7093 -7.7924,0.8085 -11.6403,1.5786 -3.6078,0.319 -7.3076,0.084 -10.7219,-1.2171 -2.9633,-1.5831 -5.0579,-3.9706 -6.5882,-6.9649 -1.6845,-3.2067 -2.8347,-6.6558 -2.113,-10.3145 0.9663,-4.0829 3.0899,-7.0146 7.5811,-7.3403 3.3669,-0.1583 6.7275,-0.4388 10.0414,-1.083 3.6346,-0.5935 7.2627,-0.596 10.9403,-0.5936 4.2767,-0.1226 8.5499,-0.3642 12.8002,-0.8726 4.9587,-0.566 9.9011,-1.0436 14.902,-0.7992 3.6653,0 3.6653,5.1835 0,5.1835 z"
       inkscape:connector-curvature="0"
       transform="translate(0,-995.63782)" />
    <path
       style="fill:#504416;fill-opacity:1;stroke:none"
       id="path4143"
       d="m 752.09767,1584.0753 c -3.89722,-0 -7.74468,0.8086 -11.613,1.2365 -3.18358,0.249 -6.23656,1.2295 -9.39229,1.7112 -2.61954,0.2088 -5.12265,1.0273 -7.52323,2.0494 -1.13634,0.8512 -3.39442,0.4554 -4.30015,1.6634 -0.16551,0.2207 0.44698,-0.3369 0.60981,-0.5596 -0.002,-0.374 -0.0933,-0.7584 -0.005,-1.1219 0.0768,-0.3174 0.60831,0.2478 0.88317,0.4242 1.10441,0.7088 2.06784,1.4002 3.25953,1.9595 2.65506,1.0345 5.2844,2.1357 7.94883,3.1572 2.641,1.2105 5.12652,2.753 7.7952,3.8958 2.63776,0.922 5.45724,1.0063 8.22161,1.1081 3.3167,0.3198 6.52224,-0.1448 9.7761,-0.6996 3.21343,-1.175 6.65139,-1.5205 9.91381,-2.4686 3.07961,-1.0884 6.29502,-1.5436 9.53391,-1.8046 2.96079,-0.1453 5.81858,-1.0125 8.75322,-1.4293 3.3958,-0.4088 6.82046,-0.4473 10.23607,-0.4832 3.46358,-0.021 6.92725,-0.011 10.39086,-0.01 1.17885,0.016 2.47285,0.093 3.59099,-0.394 0.0767,-0.033 -0.18771,-0.033 -0.24992,0.023 -0.37344,0.3359 -0.82264,0.6498 -1.01466,1.1139 -0.1762,0.4258 -0.0122,0.9216 -0.0182,1.3825 0.042,0.1335 0.22267,0.2992 0.12612,0.4005 -0.0507,0.053 -3.32829,-1.4114 -4.856,-1.8037 -2.95353,-0.5663 -5.80256,-1.6039 -8.63328,-2.6043 -2.93147,-0.6771 -5.69977,-1.8737 -8.62176,-2.5799 -3.00577,-0.3368 -5.93562,-0.8845 -8.88309,-1.5603 -2.94184,-0.6332 -5.95582,-0.7479 -8.95311,-0.8386 -3.40806,-0.072 -6.81719,-0.059 -10.2258,-0.056 -1.72994,0 -3.45988,0 -5.18982,0.01 -3.66529,0 -3.67139,-5.1792 -0.006,-5.1835 l 0,0 c 1.73017,-0 3.46034,-0 5.19051,-0.01 3.46313,-0 6.92679,-0.016 10.38934,0.058 3.33429,0.1025 6.68472,0.2494 9.95444,0.9675 2.97621,0.6837 5.92861,1.1954 8.96013,1.5786 3.08488,0.7676 6.02154,1.98 9.11276,2.7267 2.70079,0.9549 5.41204,1.9572 8.23408,2.481 2.8301,0.7676 5.78637,1.8192 7.91856,3.8708 0.18015,0.7916 0.66718,1.573 0.54046,2.3749 -0.5287,3.3457 -4.95612,3.2105 -7.37219,3.2256 -3.44331,-0 -6.88668,-0.015 -10.32996,0.01 -3.19229,0.033 -6.39308,0.064 -9.56809,0.4329 -3.03738,0.4229 -5.99255,1.3469 -9.06464,1.4636 -2.90902,0.2279 -5.789,0.6363 -8.55036,1.6298 -3.45604,0.9377 -7.02771,1.4389 -10.43713,2.586 -3.60106,0.6139 -7.17501,1.0918 -10.84077,0.7697 -3.41332,-0.1292 -6.87805,-0.2979 -10.10339,-1.5381 -2.58473,-1.1459 -5.04049,-2.5609 -7.57841,-3.8069 -2.79983,-1.0771 -5.5618,-2.2344 -8.35081,-3.3313 -1.64678,-0.8153 -5.4629,-2.763 -6.33016,-4.3868 -0.36933,-0.6915 -0.45407,-1.5007 -0.68111,-2.2511 1.35442,-4.1388 3.15484,-3.8388 6.79571,-5.1623 2.79973,-1.1901 5.73187,-2.1259 8.77771,-2.4048 3.22391,-0.4816 6.3385,-1.5207 9.59855,-1.7382 4.05686,-0.4463 8.09054,-1.2977 12.18137,-1.2678 3.6653,0 3.6653,5.1836 0,5.1836 z"
       inkscape:connector-curvature="0"
       transform="translate(0,-995.63782)" />
    <path
       style="fill:#504416;fill-opacity:1;stroke:none"
       id="path4145"
       d="m 254.61429,1705.8262 c -0.3955,2.3974 -0.98158,5.4825 1.47463,6.8978 2.50817,0.9923 5.27221,0.9618 7.92907,1.0158 3.54399,-0.6434 7.14858,-0.9475 10.6833,-1.6256 4.22989,-1.1202 8.60973,-1.2649 12.9133,-1.8988 4.11166,-0.7613 8.2545,-1.2775 12.42533,-1.553 3.13918,0.1525 6.1321,-0.6538 9.18907,-1.1991 3.38634,-0.4848 6.82226,-0.8158 10.23185,-0.468 3.0408,0.7157 6.16237,0.9382 9.21877,1.5393 2.73398,0.4994 5.54571,1.5676 8.34449,1.0287 -1.60148,-0.1398 -0.63499,1.571 -1.96436,-0.725 -1.54181,-1.3794 -3.22627,-2.6568 -4.90007,-3.8951 -1.96071,-1.4862 -4.20628,-2.2647 -6.42724,-3.232 -2.4073,-0.8604 -4.62401,-2.1453 -7.0878,-2.8468 -2.89456,-0.6539 -5.87877,-0.6921 -8.83192,-0.7514 -3.43122,-0.04 -6.86279,-0.022 -10.29415,-0.014 -3.10285,-0.2318 -6.06529,0.131 -9.08852,0.7434 -2.88321,0.2775 -5.58318,1.2924 -8.39361,1.9204 -3.00497,0.4964 -5.94374,1.301 -8.79055,2.3719 -3.07612,1.3067 -6.43484,1.3242 -9.65844,1.948 -2.11208,0.5141 -4.28154,0.7074 -6.36521,1.3237 -3.52811,0.9934 -4.93301,-3.9961 -1.40491,-4.9895 l 0,0 c 2.24976,-0.6117 4.54409,-0.9365 6.82284,-1.4304 2.93586,-0.5288 5.97267,-0.5897 8.78211,-1.704 3.07607,-1.1551 6.25116,-2.0346 9.49451,-2.5808 2.8395,-0.6206 5.572,-1.6644 8.48434,-1.9397 3.35321,-0.6791 6.67175,-1.0726 10.10558,-0.8465 3.47033,-0.01 6.94088,-0.027 10.41106,0.015 3.41149,0.07 6.85762,0.1383 10.18851,0.9606 2.6762,0.8042 5.12216,2.0983 7.73018,3.0827 2.54694,1.1631 5.16014,2.0961 7.42407,3.8155 2.20986,1.6613 4.57559,3.2711 6.2884,5.4574 1.81349,3.1495 2.46266,6.8776 -1.71784,8.4368 -3.45814,0.4853 -6.82254,-0.2585 -10.18402,-1.0694 -2.90309,-0.6161 -5.90238,-0.7326 -8.79029,-1.4707 -2.8816,-0.4129 -5.84909,0.116 -8.72106,0.4234 -3.23994,0.5732 -6.43268,1.4063 -9.75618,1.2679 -4.03636,0.2633 -8.04305,0.7756 -12.02197,1.5106 -4.23616,0.6043 -8.53742,0.7749 -12.69963,1.8633 -3.88791,0.7171 -7.83565,1.1578 -11.74828,1.7135 -3.76478,-0.081 -7.64422,-0.1344 -10.98849,-2.0953 -3.92061,-3.3251 -4.33169,-6.9465 -3.41986,-11.8528 0.60257,-3.6155 5.71556,-2.7633 5.11299,0.8521 z"
       inkscape:connector-curvature="0"
       transform="translate(0,-995.63782)" />
    <path
       style="fill:#504416;fill-opacity:1;stroke:none"
       id="path4147"
       d="m 969.19215,1373.054 c -1.82788,3.4845 -4.00108,6.8666 -4.70689,10.7915 0.0426,0.2668 0.0259,0.5503 0.12795,0.8005 0.013,0.032 3.46601,0.9033 3.46939,0.9043 3.45052,0.9129 6.99674,1.2664 10.49373,1.9629 4.5694,0.9177 9.24205,1.0752 13.8864,1.2234 4.36823,-0.01 8.66467,0.8902 12.99217,1.3767 3.4094,0.3522 6.8386,0.407 10.2629,0.4435 3.2448,-0.077 6.3753,0.8963 9.5789,1.2787 3.8227,0.1282 7.5718,0.6272 11.3375,1.266 3.2941,0.2264 6.4136,1.2876 9.6229,1.958 3.2207,0.4682 6.4421,0.6069 9.6461,1.2066 2.5689,0.1366 5.8711,1.7588 8.3357,0.5357 0.7042,-1.4148 0.9491,-3.1312 0.7618,-4.6869 -0.8439,-1.281 -3.0199,-1.2607 -4.3882,-1.4093 -3.9039,-0.2776 -7.8221,-0.2161 -11.7329,-0.1999 -3.9182,0.022 -7.8364,0.038 -11.7547,0.046 -3.9852,0.039 -7.9349,0.1642 -11.8705,-0.5256 -2.9143,-0.667 -5.8208,-1.6374 -8.6101,-2.7329 -2.5152,-1.2501 -5.3189,-1.4253 -8.0182,-2.0001 -3.4425,-0.645 -6.7387,-1.8317 -10.15753,-2.5744 -3.16785,-0.29 -6.19156,-1.2679 -9.29747,-1.8843 -3.25548,-0.3164 -6.41525,-1.1654 -9.63416,-1.7116 -3.51964,-0.4542 -6.96838,-1.3335 -10.29717,-2.5491 -2.72933,-1.0352 -5.63093,-1.2939 -8.51824,-1.4666 -3.65856,-0.2222 -3.34442,-5.3962 0.31414,-5.174 l 0,0 c 3.38779,0.2084 6.78407,0.5579 9.98418,1.7723 3.03359,1.1108 6.17734,1.9051 9.38857,2.3077 3.26821,0.56 6.47542,1.4097 9.78035,1.7387 3.13689,0.6328 6.18846,1.6027 9.38853,1.9033 3.4164,0.7532 6.7158,1.9115 10.1534,2.5736 2.9764,0.6692 6.0848,0.8492 8.8598,2.2603 2.418,1.0273 5.0354,1.7913 7.5711,2.4336 3.6262,0.6554 7.2781,0.4422 10.9525,0.4456 3.9147,-0.01 7.8294,-0.024 11.744,-0.046 4.1217,-0.017 8.2521,-0.083 12.365,0.236 4.0844,0.5145 7.9728,1.6611 8.9496,6.2108 0.1626,3.9228 -0.5861,7.8882 -4.296,9.9508 -3.6448,1.0349 -7.2629,0.3609 -10.9305,-0.3593 -3.2385,-0.6108 -6.5078,-0.6843 -9.7578,-1.2288 -3.1433,-0.6672 -6.1928,-1.7004 -9.4211,-1.9197 -3.6878,-0.6256 -7.3515,-1.1018 -11.0963,-1.2308 -3.0149,-0.3724 -5.9652,-1.2544 -9.0088,-1.2412 -3.5997,-0.039 -7.2044,-0.1011 -10.788,-0.4758 -4.1898,-0.4736 -8.34973,-1.3451 -12.57732,-1.3467 -4.92875,-0.1584 -9.88504,-0.3416 -14.73312,-1.3206 -3.63525,-0.7241 -7.32674,-1.0784 -10.90787,-2.0633 -4.36536,-1.251 -7.521,-2.3649 -7.25318,-7.7062 0.95922,-4.4869 3.1013,-8.4694 5.34461,-12.4403 1.88578,-3.143 6.33061,-0.4761 4.44483,2.6669 z"
       inkscape:connector-curvature="0"
       transform="translate(0,-995.63782)" />
    <path
       style="fill:#504416;fill-opacity:1;stroke:none"
       id="path4149"
       d="m 1304.7835,1248.2787 c -1.3744,3.5858 -2.0409,7.3674 -2.4861,11.1644 -0.026,2.1835 -1.0213,5.6927 0.8401,7.4325 1.8451,1.5167 4.1539,2.5527 6.3869,3.3999 2.7837,0.8721 5.7211,0.9545 8.6128,1.046 3.4128,0.067 6.8265,0.043 10.2397,0.033 3.2621,-0.1871 6.5938,0.3073 9.8287,-0.1997 3.0287,-0.7134 6.1026,-1.1144 9.2015,-1.3452 2.9552,-0.1411 5.8058,-1.0175 8.7338,-1.4389 2.9904,-0.055 5.8287,-0.9271 8.742,-1.4858 3.2951,-0.307 6.4889,-1.1605 9.7442,-1.7202 3.5495,-0.5584 7.1456,-0.6598 10.7312,-0.7262 3.4756,-0.042 6.9516,-0.029 10.4274,-0.024 3.1519,0.01 6.2713,0.1895 9.3705,-0.4336 2.9023,-0.5747 5.8571,-1.1563 8.6158,-2.2501 2.371,-0.9892 4.5679,-2.374 6.7856,-3.674 2.3686,-2.0687 1.0581,-1.0343 0.4156,-1.1317 -2.3123,-0.9253 -4.8447,-0.9993 -7.3004,-1.1137 -3.5077,-0.102 -7.0177,-0.065 -10.5264,-0.053 -3.9094,0.015 -7.8189,0.021 -11.7283,0.024 -3.4148,-0.054 -6.7828,-0.1009 -10.1545,0.46 -3.3739,0.3652 -6.6345,1.1635 -9.9406,1.8819 -3.6417,0.7555 -7.3594,0.9519 -11.0664,1.0698 -3.8313,0.6294 -7.6738,1.1449 -11.5433,1.4657 -3.6734,0.2677 -7.3578,0.2974 -11.0391,0.317 -2.6645,0.6224 -5.4678,0.7623 -8.0914,1.5278 -2.965,1.0472 -6.0652,1.4694 -9.1825,1.7238 -3.451,0.2146 -6.9107,0.2073 -10.3669,0.2121 -3.4621,-0 -6.9242,-0.01 -10.3863,-0.013 -2.3047,-0 -1.1524,-0 -3.4569,-0 -3.6653,-0 -3.6622,-5.1856 0,-5.1835 l 0,0 c 2.306,0 1.1529,6e-4 3.4593,0 3.4579,0 6.9157,0.011 10.3736,0.013 3.3197,-0 6.6428,0 9.9579,-0.1954 2.8032,-0.2225 5.5822,-0.6028 8.2438,-1.5603 3.0825,-0.7949 6.2811,-1.1856 9.4188,-1.7079 3.5481,-0.019 7.0993,-0.045 10.6401,-0.2995 3.9583,-0.3253 7.8778,-0.9078 11.8062,-1.4807 3.3928,-0.1064 6.7969,-0.2722 10.1319,-0.9547 3.3896,-0.7328 6.741,-1.5449 10.1962,-1.9307 3.6517,-0.5963 7.2968,-0.6073 10.9922,-0.5289 3.9049,-0 7.8099,-0.01 11.7148,-0.024 3.5968,-0.013 7.195,-0.051 10.7907,0.058 3.6546,0.1766 7.4456,0.3473 10.5677,2.4802 3.4583,3.7317 2.5921,6.6067 -1.3115,9.4171 -2.4648,1.4386 -4.9133,2.9656 -7.5588,4.0442 -3.0594,1.1323 -6.249,1.9062 -9.4565,2.4911 -3.4402,0.6685 -6.8872,0.5872 -10.3815,0.5317 -3.4415,-0.01 -6.8831,-0.018 -10.3244,0.023 -3.3246,0.061 -6.6596,0.1454 -9.9522,0.6528 -3.2227,0.5489 -6.3861,1.4042 -9.6483,1.7029 -2.9895,0.5656 -5.9143,1.4607 -8.9807,1.5255 -3.0436,0.4294 -6.0038,1.3678 -9.084,1.4768 -2.994,0.2186 -5.9536,0.6368 -8.8817,1.3115 -3.4867,0.4319 -7.0076,0.164 -10.5155,0.2474 -3.4734,0.01 -6.9474,0.034 -10.4203,-0.036 -3.4758,-0.1128 -6.9963,-0.2628 -10.3195,-1.3934 -3.126,-1.23 -6.3644,-2.673 -8.6864,-5.1574 -2.2484,-3.3991 -2.3604,-7.1442 -1.8154,-11.1171 0.5061,-4.2473 1.2699,-8.4744 2.821,-12.4808 1.3612,-3.4031 6.174,-1.478 4.8127,1.9251 z"
       inkscape:connector-curvature="0"
       transform="translate(0,-995.63782)" />
    <path
       style="fill:#504416;fill-opacity:1;stroke:none"
       id="path4151"
       d="m 1315.0108,1259.4665 c 1.8914,-3.2643 3.8611,-6.3919 4.9835,-10.0176 1.2109,-4.1551 4.1638,-6.1512 8.1876,-7.1023 3.1859,-0.5119 6.3873,-0.2793 9.5533,-0.8971 3.14,-0.4654 6.1492,-1.4647 9.255,-2.1006 3.5345,-0.6499 7.1328,-0.7572 10.716,-0.8297 2.9826,0.013 5.878,-0.844 8.8243,-1.2514 3.391,-0.4037 6.8098,-0.4475 10.2202,-0.4858 3.4629,-0.024 6.9259,-0.014 10.3888,-0.01 3.4571,0 6.9142,0.01 10.3713,0.01 3.4556,6e-4 6.9113,5e-4 10.3669,5e-4 3.4557,0 6.9114,0 10.367,0 2.9598,0.048 5.8356,-0.8172 8.7572,-1.2274 3.1173,-0.1 5.9751,-1.2375 9.0774,-0.7772 3.977,1.3324 5.3544,4.0285 4.7073,8.0538 -0.8555,2.9514 -3.5724,4.257 -5.7585,6.0732 -2.0501,1.7429 -4.2834,3.2551 -6.3985,4.9151 -1.1737,0.7494 -2.1913,1.6891 -3.2875,2.542 -2.8974,2.245 -6.0722,-1.8525 -3.1749,-4.0975 l 0,0 c 1.0985,-0.8468 2.1146,-1.7952 3.2873,-2.5418 2.1036,-1.6145 4.2876,-3.1209 6.3073,-4.8428 1.3436,-1.0732 3.1495,-1.9127 4.0189,-3.3934 0.4886,0.2549 0,-1.9103 -0.8309,-1.6497 -0.3688,-0.4363 -6.0208,0.9921 -7.2324,0.8522 -3.158,0.4365 -6.2639,1.3817 -9.4727,1.277 -3.4556,0 -6.9113,0 -10.3669,0 -3.4561,10e-5 -6.9122,10e-5 -10.3683,-5e-4 -3.4587,-9e-4 -6.9174,-0 -10.3762,-0.01 -3.4415,-0 -6.8831,-0.014 -10.3246,0.01 -3.1942,0.035 -6.3963,0.071 -9.5734,0.438 -3.1447,0.4279 -6.2332,1.355 -9.4249,1.2984 -3.2715,0.065 -6.5577,0.1501 -9.7873,0.7269 -3.1238,0.6302 -6.1489,1.6541 -9.3087,2.1112 -3.1254,0.5941 -6.2534,0.5302 -9.4071,0.8668 -2.3092,0.4615 -3.6961,1.1479 -4.3702,3.6036 -1.2833,4.0003 -3.3463,7.5287 -5.4814,11.1233 -1.8858,3.1429 -6.3306,0.476 -4.4449,-2.6669 z"
       inkscape:connector-curvature="0"
       transform="translate(0,-995.63782)" />
    <path
       style="fill:#504416;fill-opacity:1;stroke:none"
       id="path4153"
       d="m 1385.1048,1239.4331 c 0.3606,-4.1 2.0535,-7.8243 3.4966,-11.6131 1.4131,-3.5646 3.4352,-5.9807 7.0112,-7.4237 3.403,-0.9676 6.9717,-0.9286 10.4791,-0.9528 3.4737,0 6.9474,0.029 10.4212,0.043 3.4572,0.012 6.9144,0.014 10.3717,0.015 3.4554,8e-4 6.9109,4e-4 10.3664,3e-4 3.4557,-2e-4 6.9113,-2e-4 10.367,-2e-4 3.5972,-0.04 7.1223,0.8379 10.6817,1.2713 3.3479,0.3638 6.718,0.4152 10.0821,0.4536 3.197,-0.078 6.2911,0.8557 9.4395,1.2866 3.1756,0.3694 6.3765,0.4057 9.5695,0.4417 3.0714,0.4398 6.0851,1.1245 9.1766,1.4378 3.8442,0.162 6.7666,-0.015 9.9833,2.3952 2.4229,2.9665 1.6958,6.3362 -0.01,9.4252 -1.4355,2.0758 -2.9705,4.0654 -4.3475,6.19 -1.8988,2.4882 -4.4183,4.2669 -7.3128,5.3915 -3.3351,0.995 -6.84,1.0344 -10.2907,1.0982 -3.4747,0.032 -6.9497,0.01 -10.4245,-0 -3.7803,0.076 -7.4837,-0.8228 -11.0904,-1.86 -2.8728,-1.341 -5.8598,-2.3635 -8.7682,-3.6139 -2.9977,-0.8818 -5.9242,-1.945 -8.8374,-3.0766 -0.5173,-0.1718 -1.0345,-0.3437 -1.5518,-0.5155 -3.4763,-1.1619 -1.8331,-6.0781 1.6432,-4.9162 l 0,0 c 0.5953,0.2001 1.1906,0.4001 1.7859,0.6001 2.971,1.1547 5.9622,2.2084 9.0075,3.1461 2.7089,1.1648 5.5048,2.0851 8.1543,3.3947 3.1462,0.9061 6.373,1.7365 9.673,1.6578 3.4379,0.011 6.8759,0.034 10.3138,0 2.8682,-0.052 5.7814,-0.059 8.5782,-0.7738 1.8897,-0.6497 3.4865,-1.8525 4.78,-3.3676 1.3499,-2.0544 2.8186,-4.0126 4.2334,-6.0071 0.6338,-0.8824 0.8049,-1.8596 1.1143,-2.8181 -1.3749,-1.9792 -5.1629,-0.5992 -7.1614,-1.1943 -2.9335,-0.3033 -5.8153,-0.8476 -8.7074,-1.4111 -3.4102,-0.039 -6.8288,-0.084 -10.2193,-0.4901 -2.9339,-0.4079 -5.8193,-1.2673 -8.7903,-1.2382 -3.5545,-0.041 -7.1152,-0.1006 -10.652,-0.4917 -3.3509,-0.4116 -6.6716,-1.2316 -10.0523,-1.2329 -3.4556,0 -6.9112,10e-5 -10.3668,2e-4 -3.4561,10e-5 -6.9123,5e-4 -10.3685,-3e-4 -3.4634,-0 -6.9268,-0 -10.3902,-0.015 -3.4552,-0.014 -6.9104,-0.041 -10.3657,-0.043 -2.8997,0.019 -5.8441,-0.027 -8.6874,0.6203 -2.2389,0.7232 -3.0797,2.2932 -3.9955,4.4217 -1.3263,3.466 -2.9149,6.8579 -3.2261,10.6164 -0.6026,3.6154 -5.7156,2.7632 -5.113,-0.8522 z"
       inkscape:connector-curvature="0"
       transform="translate(0,-995.63782)" />
    <path
       style="fill:#504416;fill-opacity:1;stroke:none"
       id="path4155"
       d="m 973.26105,1228.1405 c -4.04667,0.4751 -8.08347,0.8664 -12.04497,1.8332 -3.45218,0.9451 -7.0041,1.3147 -10.56517,1.5139 -3.39002,-0.1217 -6.68352,0.6403 -10.01412,1.1385 -3.54394,0.5015 -7.12446,0.6094 -10.6978,0.6772 -3.4733,0.045 -6.94701,0.034 -10.4205,0.03 -3.20868,0.1003 -6.31322,-0.8477 -9.47092,-1.2854 -2.94606,-0.3061 -5.75036,-1.2852 -8.67912,-1.7312 -3.15525,-0.394 -6.34043,-0.4198 -9.51536,-0.4526 -3.35894,-0.2643 -6.60806,0.1846 -9.90385,0.7426 -3.43806,0.5402 -6.89134,0.7004 -10.30614,1.3751 -3.32566,0.9043 -6.83179,0.7183 -10.17927,1.4031 -3.05399,0.8387 -6.18198,1.2448 -9.33217,1.4795 -3.37346,-0.064 -6.64852,0.7092 -9.96313,1.2129 -3.54895,0.508 -7.13552,0.6151 -10.71455,0.6828 0.67004,-0.054 -3.70182,0.1853 -3.20579,0.4743 0.13935,0.081 0.37056,-0.02 0.45815,-0.1555 0.3163,-0.4889 0.47084,-1.0653 0.70626,-1.5979 0.93149,1.45 3.14058,2.1016 4.646,2.749 2.89863,0.9426 5.80951,1.8543 8.73425,2.7278 3.08358,1.2666 6.32367,2.0346 9.50964,2.9877 3.11116,0.5821 6.04792,1.7771 9.12274,2.4946 2.80061,0.541 5.45882,1.5342 8.28352,1.9892 2.72881,0.8939 5.47466,1.5617 8.32723,1.886 3.24396,0.2873 6.50421,0.2883 9.75817,0.3024 3.45394,0 6.90787,-0 10.36181,-0.01 2.89012,-0.5453 5.76524,-1.099 8.69331,-1.4064 3.31674,-0.4115 6.68614,-0.064 9.99027,-0.5207 3.47779,-0.6741 6.98676,-1.0992 10.5189,-1.3394 2.63159,-0.5482 5.24387,-1.0697 7.77753,-1.9655 3.09921,-1.1129 6.37979,-1.3958 9.64096,-1.5802 2.87811,-0.6781 5.76743,-1.2175 8.7092,-1.5236 3.4297,-0.2893 6.87439,-0.3014 10.31378,-0.319 3.35513,-0.1335 6.74596,0.2538 10.08036,-0.1841 2.68279,-0.3344 5.26377,-0.6601 6.95613,-2.9408 1.2724,-2.4033 1.33801,-5.1871 1.45561,-7.8441 -0.20639,-2.4657 -0.93302,-4.7246 -2.09192,-6.8928 -0.94916,-1.1512 -0.43763,-0.5101 -1.52093,-1.9341 -2.2192,-2.9171 1.90623,-6.0555 4.12543,-3.1384 l 0,0 c 1.25529,1.6501 0.58991,0.761 1.98968,2.672 1.53854,2.9933 2.55059,6.1339 2.67592,9.5283 -0.17696,3.8134 -0.45295,7.6954 -2.67152,10.9511 -2.79575,3.1262 -6.16148,4.3905 -10.30921,4.7464 -3.54164,0.387 -7.1042,0.1617 -10.66309,0.22 -3.27098,0.017 -6.54694,0.025 -9.80929,0.2917 -3.02592,0.3079 -5.96926,0.9672 -8.95102,1.5429 -2.77127,0.1527 -5.56748,0.3538 -8.20484,1.2927 -2.97425,1.048 -6.0508,1.6919 -9.15341,2.2492 -3.4327,0.2303 -6.83816,0.6625 -10.2187,1.3104 -3.35553,0.3955 -6.73791,0.2118 -10.10356,0.5337 -3.10568,0.3197 -6.13228,1.0225 -9.22264,1.4342 -3.4638,0 -6.92761,0.014 -10.39142,0.01 -3.44527,-0.015 -6.8974,-0.019 -10.33114,-0.3367 -2.92536,-0.3434 -5.79089,-0.9238 -8.57081,-1.9201 -2.94288,-0.4901 -5.72659,-1.4671 -8.63748,-2.06 -3.17122,-0.7585 -6.20795,-1.9518 -9.41537,-2.5729 -3.18685,-0.9536 -6.43223,-1.7178 -9.51479,-2.9892 -3.11194,-0.9391 -6.2177,-1.885 -9.29174,-2.9307 -2.81381,-1.211 -5.37562,-2.4786 -7.17525,-5.0788 -2.23773,-5.1969 2.45179,-6.4337 6.52166,-6.3353 3.35157,-0.063 6.7107,-0.1555 10.03493,-0.6251 3.44387,-0.5209 6.85521,-1.3112 10.35918,-1.2575 2.95635,-0.2154 5.88327,-0.6137 8.7482,-1.4029 3.35922,-0.6026 6.80848,-0.5858 10.14248,-1.396 3.46245,-0.6799 6.95489,-0.8861 10.44256,-1.4 3.59525,-0.6087 7.16335,-1.0735 10.82302,-0.8151 3.42161,0.036 6.85428,0.07 10.2528,0.5131 2.90467,0.454 5.69282,1.3799 8.60542,1.7203 2.92253,0.4115 5.79838,1.2792 8.75919,1.2354 3.43891,0 6.87802,0.015 10.31674,-0.029 3.34998,-0.063 6.70719,-0.1567 10.03037,-0.6213 3.48694,-0.5194 6.94486,-1.2998 10.4929,-1.1874 3.2454,-0.1777 6.48234,-0.5052 9.62698,-1.375 4.36127,-1.0569 8.80923,-1.5245 13.26971,-1.9801 3.6653,0 3.6653,5.1836 0,5.1836 z"
       inkscape:connector-curvature="0"
       transform="translate(0,-995.63782)" />
    <path
       style="fill:#504416;fill-opacity:1;stroke:none"
       id="path4157"
       d="m 736.68134,905.83682 c -0.20184,2.5707 -1.76643,6.53603 0.61464,8.52428 2.18915,1.05866 4.715,1.03936 7.09512,1.11485 3.33102,0.10895 6.61563,0.0754 9.89914,-0.49371 3.16923,-0.29747 6.1257,-1.44556 9.2021,-2.16877 3.36711,-0.6959 6.81335,-0.78579 10.23846,-0.85679 3.46396,-0.0448 6.92835,-0.0289 10.3925,-0.0226 3.50745,0.0796 7.02767,-0.18956 10.51396,0.24137 2.92831,0.67419 5.88799,1.0924 8.88202,1.31108 3.32184,0.1905 6.65066,0.19054 9.97678,0.19874 3.45532,0.002 6.91062,-0.005 10.36593,-0.008 3.34741,0.0593 6.64617,0.0902 9.95069,-0.46102 2.66045,-0.2954 5.07322,-0.68421 7.06755,-2.56018 1.23068,-1.86891 1.26846,-4.23388 1.40487,-6.39689 -0.0473,-1.8002 0.83638,-4.60427 -1.29008,-5.43011 -2.42045,-0.69971 -5.02404,-0.89535 -7.51866,-0.58111 -4.26445,0.79511 -8.44926,1.92852 -12.74557,2.6071 -3.49411,0.15384 -6.842,1.08592 -10.25787,1.7282 -3.3572,0.56866 -6.76738,0.6496 -10.16368,0.7112 -3.45701,0.0399 -6.91436,0.0269 -10.37152,0.0219 -3.45707,-0.006 -6.91415,-0.008 -10.37122,-0.009 -3.45575,-9.7e-4 -6.9115,-9e-4 -10.36725,-9.1e-4 -3.2088,0.10475 -6.31463,-0.84041 -9.4726,-1.27684 -3.0689,-0.0625 -5.9937,-0.96538 -8.98425,-1.53501 -3.05705,-0.50713 -6.16219,-0.57034 -9.25328,-0.62851 -3.66464,-0.0694 -3.56647,-5.252 0.0982,-5.18258 l 0,0 c 3.38575,0.0645 6.78612,0.14621 10.13185,0.72043 2.90689,0.56129 5.73773,1.43938 8.72297,1.49176 2.92155,0.41015 5.79737,1.27532 8.75714,1.22724 3.45639,0 6.91277,-6e-5 10.36915,9.1e-4 3.45894,0.001 6.91788,0.003 10.37682,0.009 3.42353,0.005 6.84724,0.0178 10.27062,-0.021 3.10798,-0.0556 6.22947,-0.1183 9.30387,-0.62365 3.46383,-0.64435 6.86508,-1.59183 10.40585,-1.75367 4.38251,-0.68587 8.63877,-1.89613 13.00228,-2.64092 3.68724,-0.34581 7.52197,-0.18186 10.92765,1.41272 3.75075,2.79052 3.93394,5.67959 3.60221,10.08925 -0.23958,3.59148 -0.60596,7.2367 -3.19325,9.98687 -2.82603,2.33213 -5.94619,3.46094 -9.60692,3.74806 -3.5851,0.58719 -7.16223,0.61254 -10.79079,0.53034 -3.46117,0.003 -6.92234,0.01 -10.38351,0.008 -3.44909,-0.009 -6.90103,-0.01 -10.34543,-0.21278 -3.0985,-0.23078 -6.17206,-0.63167 -9.20058,-1.34452 -3.23323,-0.5061 -6.56302,-0.0104 -9.82336,-0.19388 -3.42547,-0.006 -6.85117,-0.022 -10.27646,0.0215 -3.06527,0.0625 -6.1508,0.12638 -9.16876,0.72265 -3.17492,0.73198 -6.23013,1.92979 -9.50064,2.22914 -3.63182,0.61917 -7.26577,0.69673 -10.94687,0.56579 -3.85538,-0.13025 -7.81343,-0.28544 -10.87719,-2.94144 -3.2312,-4.23831 -2.6136,-7.74051 -1.77559,-12.73058 0.60257,-3.61543 5.71556,-2.76327 5.11299,0.85216 z"
       inkscape:connector-curvature="0"
       transform="translate(0,-995.63782)" />
    <path
       style="fill:#504416;fill-opacity:1;stroke:none"
       id="path4159"
       d="m 784.31339,918.63238 c -1.75914,3.14303 -3.011,6.49168 -3.12118,10.10373 0.28745,1.59954 1.9893,2.42229 3.40687,3.02302 2.24232,1.55367 4.85846,1.95152 7.42425,2.63897 3.10185,0.96186 6.3171,1.34731 9.54265,1.57548 3.39748,0.18545 6.80155,0.1774 10.20292,0.18 3.45621,-0.003 6.91241,-0.0104 10.36862,-0.0141 3.45657,-0.003 6.91313,-0.004 10.3697,-0.004 3.45572,-1.5e-4 6.91145,-6e-5 10.36718,-2e-5 3.45566,4e-5 6.91133,6e-5 10.367,6e-5 3.45567,10e-6 6.91135,10e-6 10.36703,10e-6 3.45567,0 6.91135,0 10.36703,0 3.45568,0 6.91135,0 10.36703,0 3.45568,0 6.91136,0 10.36704,0 2.14548,-0.10637 2.29233,-1.33258 2.64781,-3.15708 -0.16047,-2.78719 -0.62952,-5.50077 -1.46691,-8.15668 -0.86913,-1.80441 -3.00341,-2.26165 -4.73787,-2.99345 -2.59199,-0.94523 -5.36927,-1.06635 -8.09725,-1.1883 -3.38628,-0.10231 -6.77476,-0.0807 -10.16214,-0.074 -3.60293,0.0494 -7.13558,-0.82317 -10.70079,-1.25412 -3.34962,-0.36175 -6.72109,-0.41325 -10.08664,-0.45163 -3.44467,-0.0241 -6.88947,-0.0143 -10.3342,-0.0103 -3.45646,0.004 -6.91292,0.006 -10.36938,0.007 -1.72801,3.7e-4 -3.45602,4.5e-4 -5.18403,5.4e-4 -3.6653,1.9e-4 -3.66557,-5.18333 -2.7e-4,-5.18352 l 0,0 c 1.72766,-9e-5 3.45533,-1.7e-4 5.18299,-5.4e-4 3.45487,-8.7e-4 6.90974,-0.002 10.36461,-0.007 3.46654,-0.004 6.93316,-0.0139 10.39965,0.0106 3.55449,0.0409 7.11504,0.10047 10.65206,0.48909 3.35488,0.40903 6.68116,1.22485 10.0658,1.21634 3.46906,-0.007 6.9393,-0.0288 10.40716,0.0794 3.34503,0.15365 6.73278,0.36728 9.88795,1.59511 3.2003,1.36554 6.39848,2.64332 7.65795,6.21244 1.0938,3.49829 1.76581,7.14909 1.58233,10.82932 -0.97658,4.11896 -3.14914,7.05991 -7.70883,7.22035 -3.45568,0 -6.91136,0 -10.36704,0 -3.45568,0 -6.91135,0 -10.36703,0 -3.45568,0 -6.91136,0 -10.36703,0 -3.45568,0 -6.91136,0 -10.36704,0 -3.45569,-10e-6 -6.91137,-2e-5 -10.36705,-6e-5 -3.45557,-4e-5 -6.91114,-1.3e-4 -10.36671,2e-5 -3.45486,2.7e-4 -6.90972,6.1e-4 -10.36459,0.004 -3.45938,0.004 -6.91876,0.0109 -10.37814,0.0141 -3.52336,-0.003 -7.04956,0.004 -10.56866,-0.1932 -3.55857,-0.25699 -7.10603,-0.6927 -10.53054,-1.74323 -2.82445,-0.77868 -5.75356,-1.2372 -8.23397,-2.93288 -3.36309,-1.61686 -6.21504,-3.9241 -6.41865,-7.94488 0.21882,-4.47996 1.61463,-8.66673 3.85548,-12.55741 1.88578,-3.14297 6.33061,-0.47608 4.44483,2.66689 z"
       inkscape:connector-curvature="0"
       transform="translate(0,-995.63782)" />
    <path
       style="fill:#504416;fill-opacity:1;stroke:none"
       id="path4161"
       d="m 832.1824,938.79828 c 1.36435,3.15803 2.62359,6.23395 5.6287,8.11164 2.8344,1.20352 5.97393,1.33593 8.97613,1.92218 3.29536,0.68229 6.65227,0.91206 10.00682,1.04809 3.42189,0.10335 6.84588,0.093 10.26894,0.0915 3.62781,-0.09 7.20387,-0.0693 10.78886,0.51516 3.32342,0.6462 6.69347,0.93031 10.07003,1.09053 3.41325,0.12526 6.82948,0.11955 10.24449,0.12109 3.45467,-0.002 6.90934,-0.007 10.36401,-0.01 3.45625,-0.002 6.9125,-0.002 10.36875,-0.003 2.95984,0.048 5.83571,-0.81718 8.75733,-1.22733 1.99656,-0.66615 5.7046,0.63303 7.07344,-1.34517 -1.10209,-0.94041 -1.83752,-2.30034 -2.73368,-3.4749 -1.71097,-1.88849 -3.60503,-3.59175 -5.36262,-5.43418 -1.58201,-1.63492 -3.76982,-1.89497 -5.92166,-2.14884 -3.2561,-0.26762 -6.5276,-0.23267 -9.79191,-0.22816 -3.46489,0.0125 -6.92978,0.0241 -10.39469,0.0303 -2.88299,0.004 -5.76599,0.005 -8.64899,0.006 -3.6653,7e-4 -3.66629,-5.18281 -9.9e-4,-5.18351 l 0,0 c 2.88024,-5.5e-4 5.76047,-0.001 8.6407,-0.006 3.46564,-0.006 6.93126,-0.0179 10.39688,-0.0303 3.4774,-0.005 6.9631,-0.0406 10.43034,0.26675 3.36554,0.42559 6.63645,1.16759 9.06062,3.73657 1.85446,1.99591 3.94082,3.76835 5.71333,5.84716 2.44761,3.20798 4.81351,6.68536 2.00782,10.53598 -3.1305,2.40774 -5.98248,2.29782 -9.75315,2.56222 -3.15794,0.43642 -6.26373,1.38155 -9.47249,1.27694 -3.45511,1.8e-4 -6.91021,4e-4 -10.36531,0.003 -3.45669,0.002 -6.91338,0.007 -10.37007,0.01 -3.49672,-0.002 -6.99471,0.004 -10.48956,-0.127 -3.57524,-0.17197 -7.144,-0.47405 -10.66377,-1.15333 -3.30323,-0.54863 -6.59977,-0.51277 -9.94535,-0.44645 -3.49439,0.002 -6.98974,0.0118 -10.4829,-0.0958 -3.61713,-0.14882 -7.23586,-0.40623 -10.78924,-1.13997 -3.67405,-0.71834 -7.53277,-0.8419 -10.87203,-2.70634 -3.77659,-2.64197 -5.88678,-6.24012 -7.55155,-10.48969 -1.36126,-3.40314 3.45152,-5.32825 4.81277,-1.92511 z"
       inkscape:connector-curvature="0"
       transform="translate(0,-995.63782)" />
    <path
       style="fill:#504416;fill-opacity:1;stroke:none"
       id="path4163"
       d="m 1109.7603,1048.4452 c -4.3831,0 -8.7662,0 -13.1493,0 -3.8089,0 -7.6179,0 -11.4268,0 -3.8302,-0.2737 -7.5744,0.4866 -11.3445,1.0157 -3.5527,0.2083 -6.992,1.101 -10.4883,1.6938 -2.9576,0.4885 -5.9258,1.211 -8.7995,2.0839 -3.0751,0.7529 -6.0722,1.6885 -9.1,2.6032 -1.6129,0.5872 -2.3597,2.0176 -2.2304,3.7056 0.088,2.4724 0.9409,4.7187 1.6722,7.0427 0.8038,2.6184 2.233,4.8637 3.7571,7.0994 1.3022,1.7752 2.7771,1.17 4.658,0.7348 2.9262,-0.7063 5.6777,-2.0299 8.4626,-3.1647 2.7581,-1.5653 5.6301,-2.9396 8.61,-4.025 2.9997,-1.1282 5.878,-2.528 8.7739,-3.8987 2.7522,-1.4013 5.9099,-1.7197 8.5845,-3.2766 2.7042,-1.5062 5.6706,-2.5378 8.6298,-3.426 3.1759,-0.5935 6.309,-1.1989 9.4508,-1.9573 3.2889,-0.7537 6.6661,-0.9024 10.0256,-1.0054 3.4615,-0.073 6.924,-0.059 10.3861,-0.054 3.4582,0.01 6.9165,0.01 10.3748,0.011 2.8988,-0.2167 5.9531,0.4854 8.7696,-0.3963 -3.3908,0.6942 1.0464,4.1132 -2.7939,2.2339 -2.5186,-0.8846 -4.8029,-2.1604 -7.0447,-3.5912 -2.4018,-1.5434 -5.1351,-2.2303 -7.7708,-3.2154 -2.7013,-0.9602 -5.3838,-2.01 -7.9403,-3.3121 -2.2912,-1.2517 -4.8789,-1.6838 -7.3337,-2.5197 -2.2397,-0.4831 -4.3568,-1.3407 -6.5367,-2.0264 -3.4939,-1.1075 -1.9277,-6.0487 1.5663,-4.9412 l 0,0 c 2.215,0.7066 4.3634,1.564 6.6415,2.0609 2.7037,0.9209 5.5583,1.4006 8.0659,2.8337 2.3365,1.2759 4.898,2.1206 7.3801,3.0601 2.946,1.1477 6.0378,1.9158 8.7178,3.6916 2.0908,1.3362 4.2118,2.498 6.5684,3.3212 0.7507,0.3854 1.5935,0.6006 2.2931,1.0724 2.579,1.7392 2.6067,5.0915 -0.4285,6.3274 -3.3321,0.8638 -6.7437,0.5503 -10.1569,0.5846 -3.4596,-0 -6.9191,-0.01 -10.3786,-0.011 -3.4073,-0 -6.8152,-0.018 -10.222,0.052 -3.0033,0.091 -6.025,0.2043 -8.9684,0.8635 -3.0521,0.7345 -6.0946,1.3602 -9.1872,1.8864 -2.6148,0.7698 -5.2354,1.6799 -7.6211,3.0057 -2.834,1.4938 -5.919,2.1848 -8.8598,3.4165 -3.0466,1.4333 -6.0723,2.9096 -9.2289,4.0876 -2.9251,1.0391 -5.6861,2.475 -8.4126,3.9492 -3.051,1.2402 -6.0689,2.6745 -9.2849,3.4221 -3.9385,0.8587 -7.5322,0.6867 -10.0735,-2.8745 -1.8085,-2.6559 -3.4555,-5.3702 -4.4193,-8.4667 -0.9037,-2.8911 -1.8959,-5.7364 -1.9051,-8.8146 0.3247,-3.9025 2.0142,-7.1143 5.9155,-8.4487 3.0341,-0.909 6.0391,-1.8522 9.1167,-2.6082 3.0864,-0.9021 6.2429,-1.7126 9.413,-2.2264 3.5435,-0.5963 7.0323,-1.5017 10.6321,-1.716 4.0065,-0.5612 7.9951,-1.3391 12.0642,-1.0659 3.8089,0 7.6179,0 11.4268,0 4.3831,0 8.7662,0 13.1493,0 3.6653,0 3.6653,5.1835 0,5.1835 z"
       inkscape:connector-curvature="0"
       transform="translate(0,-995.63782)" />
    <path
       style="fill:#504416;fill-opacity:1;stroke:none"
       id="path4165"
       d="m 1090.9053,1061.5295 c 3.5667,2.0699 7.2165,3.8515 11.194,4.9607 3.456,0.8442 7.0212,0.935 10.5592,0.9929 3.8864,0.03 7.773,0 11.6594,-0.013 3.524,-0.013 7.048,-0.016 10.572,-0.018 3.4534,-0 6.9067,-10e-4 10.36,-9e-4 3.3442,0.062 6.6397,0.093 9.9411,-0.4571 3.5201,-0.6813 7.0895,-0.9836 10.6654,-1.1558 3.1353,0.125 6.1379,-0.2386 9.1937,-0.8578 2.7996,-0.5879 5.4492,-1.6196 8.2794,-2.1408 2.7254,-0.8489 6.049,0.3023 8.5867,-1.0767 0.4225,-0.4612 0.7813,-1.7944 -0.097,-1.9738 -2.0191,-0.7372 -4.1706,-0.8405 -6.2955,-0.9519 -3.4104,-0.1096 -6.8235,-0.07 -10.235,-0.055 -3.731,0.019 -7.4621,0.024 -11.1931,0.028 -3.7532,0 -7.5064,0 -11.2596,0 -3.6262,-0.1363 -7.013,-1.2412 -10.4322,-2.3175 -1.938,-0.395 -3.8188,-0.923 -5.6966,-1.5448 -3.4791,-1.1531 -1.8484,-6.0734 1.6308,-4.9203 l 0,0 c 1.8565,0.6159 3.7118,1.1087 5.6253,1.5217 2.9172,0.922 5.7787,1.9131 8.8727,2.0773 3.7516,1e-4 7.5031,1e-4 11.2547,-0 3.7249,-0 7.4498,-0.01 11.1747,-0.028 3.5121,-0.016 7.0258,-0.056 10.5366,0.062 3.6335,0.1997 7.4197,0.393 10.1907,3.0537 2.3803,3.8479 1.7594,7.2227 -2.0713,9.8279 -3.1394,1.1814 -6.3738,0.9846 -9.6682,1.3973 -2.7957,0.496 -5.3916,1.597 -8.1739,2.1206 -3.3091,0.6705 -6.5868,1.0715 -9.9755,0.9551 -3.3762,0.1603 -6.7458,0.4445 -10.0685,1.0924 -3.5835,0.5867 -7.1589,0.6118 -10.7857,0.5264 -3.4524,-10e-5 -6.9047,-4e-4 -10.357,9e-4 -3.5186,0 -7.0372,0.01 -10.5558,0.018 -3.9215,0.014 -7.8432,0.043 -11.7647,0.012 -3.9854,-0.067 -7.9977,-0.2005 -11.8827,-1.1875 -4.4102,-1.2601 -8.4965,-3.1855 -12.4512,-5.5041 -3.1429,-1.8858 -0.476,-6.3306 2.6669,-4.4448 z"
       inkscape:connector-curvature="0"
       transform="translate(0,-995.63782)" />
    <path
       style="fill:#504416;fill-opacity:1;stroke:none"
       id="path4167"
       d="m 1017.4319,1379.0582 c 1.6066,-3.6835 3.3604,-7.3118 4.8523,-11.0441 1.6487,-3.3752 3.6278,-6.5779 5.3915,-9.9042 1.7391,-2.816 3.7758,-5.4918 5.2251,-8.475 1.2384,-3.9414 3.1172,-6.0431 7.4789,-5.5741 2.7452,0.4079 5.1838,1.7503 7.8338,2.485 3.3499,0.579 6.4763,1.9376 9.6982,2.9605 3.8716,0.713 7.747,1.4185 11.6307,2.084 4.0526,0.4028 8.0497,1.0067 12.054,1.742 3.6662,0.6746 7.2263,1.6906 10.9318,2.1704 4.1248,0.2179 8.1738,1.0334 12.2625,1.5702 3.8761,0.2327 7.6802,0.7764 11.4974,1.4649 3.4844,0.5886 6.8574,1.6232 10.357,2.1529 3.4186,0.4887 6.8779,0.3122 10.298,0.7306 4.5524,0.9568 6.4704,4.339 7.3812,8.5659 0.5205,3.5446 0.4494,7.1401 0.4348,10.7127 0.014,4.1661 0.454,7.0404 -2.1353,10.579 -3.1659,2.8353 -6.9809,2.5172 -10.8902,1.9743 -3.384,-0.2943 -6.6641,-1.1526 -9.8584,-2.2794 -3.0749,-1.1743 -6.3303,-1.6895 -9.507,-2.5116 -3.2598,-0.7931 -6.5858,-1.0164 -9.8372,-1.8443 -2.8866,-0.5081 -5.6871,-1.2522 -8.5116,-2.0239 -2.9221,-0.7648 -5.9582,-0.6596 -8.9177,-1.1524 -2.8579,-0.7554 -5.7727,-1.1393 -8.7145,-1.3494 -3.327,-0.1839 -6.6605,-0.1808 -9.9915,-0.1871 -3.4564,-4e-4 -6.9127,0.01 -10.3691,0.01 -3.2106,0.1077 -6.3187,-0.837 -9.4784,-1.2733 -1.5242,-0.1934 -3.059,-0.266 -4.5922,-0.3423 -3.6607,-0.1839 -3.4007,-5.3608 0.26,-5.177 l 0,0 c 1.6853,0.085 3.3721,0.1681 5.0471,0.3853 2.9219,0.4099 5.7985,1.2746 8.7587,1.2238 3.4613,-0 6.9225,-0.01 10.3838,-0.01 3.4522,0.01 6.9071,0 10.355,0.2005 3.1189,0.2275 6.2181,0.6156 9.2489,1.4161 3.0894,0.6043 6.3349,0.3014 9.3803,1.2567 2.7972,0.7691 5.5633,1.4976 8.4253,2.001 3.2507,0.8351 6.5995,0.9921 9.8518,1.8481 3.3283,0.8614 6.7398,1.4039 9.9579,2.6504 2.8513,1.0444 5.7979,1.756 8.8257,2.0251 2.0959,0.2944 4.1782,0.7869 6.1847,-0.1511 1.9924,-1.3774 0.5248,-5.2949 0.9404,-7.2899 0.013,-3.2179 0.08,-6.4537 -0.3296,-9.6523 -0.3788,-2.0129 -0.7543,-3.8713 -2.972,-4.4647 -3.4443,-0.4859 -6.9686,-0.1513 -10.412,-0.7468 -3.5446,-0.5462 -6.9696,-1.5546 -10.4941,-2.1757 -3.7376,-0.6743 -7.4564,-1.1992 -11.2532,-1.4268 -4.0882,-0.5388 -8.1343,-1.3523 -12.2587,-1.5697 -3.7935,-0.5005 -7.4478,-1.4983 -11.196,-2.212 -3.9861,-0.7323 -7.9625,-1.3219 -11.9965,-1.7317 -4.1178,-0.711 -8.2358,-1.4216 -12.3268,-2.2541 -3.1662,-1.0137 -6.2415,-2.339 -9.5352,-2.9114 -2.455,-0.7061 -4.722,-1.8728 -7.236,-2.3533 -0.301,-0.121 -0.3309,-0.5747 -0.4225,-0.51 -0.975,0.6881 -1.0813,2.3487 -1.6008,3.2728 -1.5174,3.0018 -3.4457,5.7862 -5.2873,8.596 -1.6799,3.1659 -3.5429,6.2251 -5.1612,9.4085 -1.5044,3.7249 -3.2335,7.3594 -4.849,11.0361 -1.3613,3.4031 -6.1741,1.478 -4.8128,-1.9252 z"
       inkscape:connector-curvature="0"
       transform="translate(0,-995.63782)" />
    <path
       style="fill:#504416;fill-opacity:1;stroke:none"
       id="path4169"
       d="m 1627.6859,1388.5875 c -4.4007,-0.7311 -8.707,-1.8924 -13.1207,-2.5743 -3.5967,-0.5113 -7.2317,-0.5987 -10.8582,-0.648 -3.0154,-0.046 -5.1991,-0.3989 -7.8997,0.994 -1.4842,1.2486 -1.5523,3.391 -1.7457,5.1882 -0.071,3.0875 -0.4839,6.2571 0.01,9.3221 0.6792,1.8666 0.1256,4.8817 2.0306,6.0456 2.2322,0.8911 4.7011,0.8849 7.0686,0.9578 3.7737,0.051 7.5479,0.01 11.3217,-0.01 3.6891,-0.018 7.3783,-0.023 11.0675,-0.026 3.6626,-0.2409 7.2339,0.211 10.8331,0.8169 3.3075,0.5745 6.6609,0.7485 10.0102,0.8539 3.6367,0 7.21,0.779 10.634,1.9517 2.8208,0.934 5.7628,1.2272 8.618,2.0374 2.1032,0.5143 4.4608,1.3213 6.5376,0.3239 1.0202,-1.4065 1.8138,-2.8757 2.2901,-4.5623 0.4948,-1.9221 -0.021,-4.0146 -1.5749,-5.3102 -1.6516,-1.916 -4.0669,-2.5436 -6.3735,-3.3486 -3.1096,-1.5788 -6.515,-2.172 -9.8489,-3.0369 -3.2313,-0.9845 -6.5683,-1.4195 -9.925,-1.6612 -3.3921,-0.1879 -6.7909,-0.1781 -10.1869,-0.1799 -3.1886,-0.1178 -6.0781,-1.2904 -9.0333,-2.3303 -2.6643,-0.5369 -5.1853,-1.5637 -7.8339,-2.163 -2.835,-0.6688 -4.6006,-2.769 -6.2064,-5.03 -2.0888,-3.0118 2.1705,-5.966 4.2594,-2.9542 l 0,0 c 0.8287,1.2426 1.6134,2.5105 3.1092,2.9327 2.8384,0.6617 5.5518,1.7125 8.4011,2.328 2.403,0.8546 4.7173,1.8603 7.3066,2.0333 3.5206,0 7.0442,-0.01 10.5605,0.1936 3.6723,0.27 7.3249,0.7504 10.8626,1.8167 3.4614,0.9179 7.0169,1.5188 10.2503,3.1597 3.0443,1.0719 6.1751,2.087 8.3592,4.6109 2.6508,2.914 3.9213,6.4997 2.8395,10.4264 -0.9841,3.1684 -2.5466,6.2029 -5.4894,7.9485 -3.2696,1.0536 -6.4538,0.8362 -9.7221,-0.2113 -2.9393,-0.8384 -5.9913,-1.0911 -8.884,-2.1209 -2.9334,-1.0111 -5.9933,-1.6885 -9.1139,-1.6731 -3.5826,-0.1141 -7.1689,-0.3086 -10.7066,-0.9232 -3.3176,-0.5586 -6.5883,-0.9934 -9.9684,-0.745 -3.6823,0 -7.3645,0.01 -11.0467,0.026 -3.8367,0.019 -7.6738,0.063 -11.5103,0.01 -3.6011,-0.1162 -7.3342,-0.196 -10.4094,-2.3194 -2.5427,-2.5877 -3.1232,-5.6522 -3.6598,-9.1474 -0.4454,-3.5184 -0.2267,-7.0867 -0.027,-10.6204 0.4252,-3.641 1.2099,-7.1721 4.5609,-9.2349 3.4455,-1.7124 6.5269,-1.7385 10.3064,-1.5496 3.8688,0.053 7.7461,0.1557 11.5821,0.7089 4.4322,0.6907 8.7617,1.833 13.178,2.5835 3.6154,0.6026 2.7632,5.7156 -0.8522,5.113 z"
       inkscape:connector-curvature="0"
       transform="translate(0,-995.63782)" />
    <path
       style="fill:#504416;fill-opacity:1;stroke:none"
       id="path4171"
       d="m 1631.9438,1413.3954 c 0.1203,3.8064 -0.6304,7.8472 1.2273,11.3319 1.5088,1.9218 3.2135,2.9023 5.552,3.4335 3.271,0.2773 6.4952,0.7276 9.733,1.281 3.2302,0.2157 6.2907,1.2533 9.4388,1.9051 3.0454,0.5455 6.1467,0.608 9.2314,0.6671 3.2973,-0.261 6.472,0.5445 9.6879,1.1012 3.0821,0.4815 6.206,0.5554 9.3187,0.6165 3.4271,0.045 6.8546,0.034 10.2819,0.031 2.4806,0.052 3.4941,0.256 4.1815,-2.1117 0.507,-2.4944 -0.2584,-5.0588 -1.0698,-7.4119 -1.215,-2.0536 -2.5562,-4.0402 -3.9698,-5.9664 -1.044,-2.0874 -2.5257,-2.7133 -4.689,-3.1551 -2.6549,-0.98 -5.3796,-1.5505 -8.1857,-1.8443 -3.2642,-0.2632 -6.5421,-0.26 -9.8146,-0.2707 -3.8703,-0.5206 -7.7232,-1.0987 -11.6192,-1.4115 -0.6295,-0.038 -1.2591,-0.076 -1.8886,-0.1133 -3.6586,-0.2206 -3.3468,-5.3947 0.3119,-5.1742 l 0,0 c 0.6644,0.04 1.3289,0.081 1.9933,0.1207 3.7615,0.3045 7.4948,0.7933 11.2195,1.3949 3.4502,0.011 6.9063,0.011 10.3469,0.2998 2.9892,0.3232 5.9305,0.867 8.7538,1.9369 3.2753,0.7585 6.1169,2.0936 7.7795,5.1897 1.6724,2.3574 3.4042,4.7008 4.6653,7.3123 1.1983,3.5119 2.0628,7.2692 1.0116,10.9354 -1.7994,4.3014 -4.398,5.6606 -9.021,5.4529 -3.4633,0 -6.9268,0.015 -10.3899,-0.032 -3.3757,-0.067 -6.7627,-0.1578 -10.1035,-0.692 -2.962,-0.5162 -5.8607,-1.2914 -8.9007,-1.0256 -3.407,-0.066 -6.8312,-0.1502 -10.1911,-0.7757 -3.0874,-0.6495 -6.0827,-1.6605 -9.2526,-1.8697 -3.3595,-0.5745 -6.7029,-0.9859 -10.0879,-1.3545 -3.8325,-0.9773 -6.8084,-2.8549 -8.9994,-6.232 -1.9554,-4.348 -1.8853,-8.8709 -1.735,-13.5693 0,-3.6653 5.1835,-3.6653 5.1835,0 z"
       inkscape:connector-curvature="0"
       transform="translate(0,-995.63782)" />
  </g>
</svg>
