<?xml version="1.0" encoding="UTF-8" standalone="no"?>
<!-- Created with Inkscape (http://www.inkscape.org/) -->

<svg
   xmlns:dc="http://purl.org/dc/elements/1.1/"
   xmlns:cc="http://creativecommons.org/ns#"
   xmlns:rdf="http://www.w3.org/1999/02/22-rdf-syntax-ns#"
   xmlns:svg="http://www.w3.org/2000/svg"
   xmlns="http://www.w3.org/2000/svg"
   xmlns:sodipodi="http://sodipodi.sourceforge.net/DTD/sodipodi-0.dtd"
   xmlns:inkscape="http://www.inkscape.org/namespaces/inkscape"
   width="450"
   height="128"
   id="svg2"
   version="1.1"
   inkscape:version="0.48.5 r10040"
   sodipodi:docname="cartBody.svg"
   inkscape:export-filename="C:\Users\narfman0\Desktop\cartBody.png"
   inkscape:export-xdpi="90"
   inkscape:export-ydpi="90">
  <defs
     id="defs4" />
  <sodipodi:namedview
     id="base"
     pagecolor="#ffffff"
     bordercolor="#666666"
     borderopacity="1.0"
     inkscape:pageopacity="0.0"
     inkscape:pageshadow="2"
     inkscape:zoom="2.18"
     inkscape:cx="249.04527"
     inkscape:cy="18.265075"
     inkscape:document-units="px"
     inkscape:current-layer="layer1"
     showgrid="false"
     inkscape:window-width="1362"
     inkscape:window-height="892"
     inkscape:window-x="2205"
     inkscape:window-y="71"
     inkscape:window-maximized="0" />
  <metadata
     id="metadata7">
    <rdf:RDF>
      <cc:Work
         rdf:about="">
        <dc:format>image/svg+xml</dc:format>
        <dc:type
           rdf:resource="http://purl.org/dc/dcmitype/StillImage" />
        <dc:title></dc:title>
      </cc:Work>
    </rdf:RDF>
  </metadata>
  <g
     inkscape:label="Layer 1"
     inkscape:groupmode="layer"
     id="layer1"
     transform="translate(0,-924.36218)">
    <path
       style="fill:#000000;fill-opacity:1;stroke:none"
       id="path2985"
       d="m 100.06136,957.81655 c -0.909445,1.73802 -1.594557,3.62228 -2.363545,5.44848 -0.70475,1.55373 -1.413581,3.10518 -2.120883,4.65765 -0.696676,1.47461 -1.292146,3.00697 -1.859068,4.55621 -0.480484,1.62134 -1.138561,3.15079 -1.773848,4.69177 -0.663584,1.58669 -1.328455,3.16816 -1.89786,4.80563 -0.526415,1.64736 -1.109743,3.26382 -1.617434,4.91982 -0.593126,1.51364 -1.067439,3.0907 -1.690045,4.58746 -0.538522,1.17637 -0.98078,2.40458 -1.467161,3.61088 -0.405696,1.36624 -1.074391,2.58597 -1.654922,3.85151 -0.41372,1.15324 -0.965089,2.22494 -1.450083,3.33594 -0.551183,1.1243 -1.112635,2.2413 -1.663819,3.366 -0.602619,1.0751 -1.146644,2.1894 -1.727912,3.2804 -0.593892,1.1064 -1.028462,2.3143 -1.614088,3.4257 -0.385285,0.8377 -0.829416,1.6366 -1.217215,2.4731 -0.357297,0.9051 -0.810058,1.762 -1.253216,2.6132 -0.413773,0.8482 -0.926216,1.6228 -1.419365,2.4083 -0.426619,0.8345 -0.928112,1.5975 -1.41892,2.378 -0.521316,0.724 -0.99173,1.4967 -1.465038,2.2663 -0.483033,0.8441 -1.007095,1.6594 -1.44989,2.5355 -0.534739,0.7799 -0.845838,1.7171 -1.267928,2.5774 -0.06429,0.1355 -0.137048,0.2658 -0.192893,0.4065 -0.03091,0.077 -0.04803,0.3374 -0.02329,0.2565 0.02979,-0.097 -0.0678,-0.2518 0.0043,-0.3105 0.03468,-0.028 0.08361,0.012 0.125419,0.018 0.963021,0.154 1.942198,0.1222 2.912051,0.1227 1.771124,0.017 3.535931,0.017 5.300588,-0.1696 1.975226,-0.2043 3.953874,-0.2953 5.927397,-0.5231 2.267014,-0.2841 4.547001,-0.353 6.824536,-0.4055 2.45869,-0.042 4.917727,-0.037 7.376609,-0.036 2.714171,0 5.428346,0 8.142516,0 3.04924,-0.084 6.09173,0.1712 9.13564,0.3368 3.24272,0.2439 6.47673,0.6105 9.7148,0.9229 3.60597,0.3682 7.20945,0.7772 10.81813,1.1065 3.79714,0.2572 7.59738,0.3797 11.39026,0.7263 4.16251,0.3589 8.32316,0.7434 12.48385,1.131 4.20499,0.3849 8.41315,0.7224 12.61692,1.1256 3.77681,0.4452 7.57242,0.5235 11.35883,0.7765 2.72666,0.1593 5.44228,0.4524 8.15958,0.751 2.19152,0.2211 4.37093,0.5628 6.56554,0.7472 1.9635,0.064 3.91706,0.2161 5.87306,0.4233 2.11049,0.2822 4.20707,0.6849 6.31417,0.9954 2.65239,0.3529 5.30704,0.6414 7.97271,0.8061 2.90919,0.07 5.8106,0.3274 8.71579,0.5053 2.81638,0.1603 5.63641,0.1904 8.4555,0.2109 2.79603,0.013 5.59209,0.01 8.38813,0.01 2.74606,0 5.49212,0 8.23817,0 2.6921,0.015 5.38034,0.039 8.06799,-0.1572 2.43109,-0.1837 4.85066,-0.5475 7.26579,-0.9179 2.29712,-0.2878 4.59687,-0.5432 6.89622,-0.8088 2.12572,-0.2687 4.2668,-0.2195 6.39656,-0.3946 2.0187,-0.2656 4.05155,-0.3035 6.07338,-0.5085 1.99528,-0.2627 3.99853,-0.4083 6.00427,-0.4918 1.84163,0.015 3.67105,-0.1153 5.50371,-0.3122 1.67212,-0.1721 3.32764,-0.5008 4.99944,-0.6853 1.53857,-0.2683 3.0781,-0.5056 4.63007,-0.63 1.36982,-0.1014 2.74158,-0.3014 4.09649,-0.564 1.38876,-0.2397 2.7662,-0.5405 4.14842,-0.8263 1.56227,-0.306 3.14969,-0.2626 4.7216,-0.4294 1.34546,-0.2517 2.71603,-0.2664 4.0609,-0.5054 1.12357,-0.2786 2.26049,-0.4226 3.40523,-0.4965 1.19721,-0.061 2.39578,-0.063 3.59388,-0.065 1.1377,3e-4 2.27542,0 3.41313,0 1.14394,10e-4 2.28787,10e-4 3.43182,10e-4 1.14494,0 2.28988,0 3.43482,0 1.18877,0.076 2.35515,-0.043 3.52902,-0.2434 1.32027,-0.2135 2.65392,-0.2585 3.98437,-0.2943 1.21094,-0.026 2.42213,-0.023 3.63321,-0.022 1.11811,9e-4 2.23622,0 3.35433,0 1.06275,0.079 2.10585,-0.1627 3.15389,-0.3273 1.07483,-0.1689 2.15923,-0.1994 3.24178,-0.2209 1.13948,-0.015 2.27907,-0.012 3.41861,-0.011 1.12808,0 2.25617,0 3.38425,0 1.32975,3e-4 2.65949,2e-4 3.98924,2e-4 1.33592,0 2.67185,0 4.00778,0 1.27946,0 2.55892,0 3.83838,0 1.17602,0 2.35204,0 3.52807,0 1.09676,0.015 2.18358,0.038 3.27001,-0.1497 0.91826,-0.1874 1.84565,-0.2324 2.74932,-0.5035 0.69559,-0.1859 1.40768,-0.3746 2.051,-0.7508 0.69064,-0.3436 1.39045,-0.6698 2.099,-0.9619 0.78384,-0.1851 1.53237,-0.5122 2.31187,-0.7195 0.85642,-0.2526 1.75304,-0.1253 2.61358,-0.3058 0.82652,-0.2434 1.66863,-0.3684 2.51654,-0.4411 0.93826,-0.063 1.87845,-0.063 2.81789,-0.066 0.84277,0.1306 1.6677,0.3589 2.51435,0.4627 0.17391,0.2024 0.46446,-0.2328 0.29547,-0.1356 -0.22096,0.1271 -0.14131,0.2848 -0.23084,-0.1689 -0.27313,-0.8283 -0.64255,-1.6036 -0.98312,-2.3966 -0.53095,-0.8159 -0.90744,-1.7464 -1.31735,-2.6489 -0.56387,-0.9926 -1.08648,-2.0129 -1.59885,-3.044 -0.42976,-0.9063 -0.94395,-1.7494 -1.39132,-2.6432 -0.37827,-0.8925 -0.82121,-1.7529 -1.27318,-2.5968 -0.39721,-0.8124 -0.74344,-1.6534 -1.0841,-2.5007 -0.42395,-0.7606 -0.85399,-1.5253 -1.19717,-2.342 -0.37448,-0.6531 -0.57545,-1.4178 -0.97957,-2.0475 -0.42827,-0.7773 -0.76984,-1.6135 -1.15945,-2.4185 -0.44116,-0.8062 -0.82674,-1.653 -1.26463,-2.4604 -0.45524,-0.9155 -0.98442,-1.7726 -1.43679,-2.69098 -0.57179,-0.86202 -1.07107,-1.78872 -1.62504,-2.66539 -0.50153,-0.76318 -0.96006,-1.56911 -1.46082,-2.33292 -0.46848,-0.70748 -0.9051,-1.43514 -1.3122,-2.19524 -0.29119,-0.7815 -0.70558,-1.46002 -1.14839,-2.12525 -0.52678,-0.93537 -1.00952,-1.90389 -1.54695,-2.83071 -0.52402,-0.99104 -1.10617,-1.93736 -1.69297,-2.87725 -0.45476,-0.67817 -0.81042,-1.44042 -1.27433,-2.10936 -0.48668,-0.85774 -1.04868,-1.64265 -1.68457,-2.34962 -0.56021,-0.71146 -1.03388,-1.51164 -1.5878,-2.23136 -0.59378,-0.84981 -1.15881,-1.72883 -1.76678,-2.56381 -0.58129,-0.80061 -1.02074,-1.72716 -1.59978,-2.52802 -0.48866,-0.65826 -0.92901,-1.35162 -1.33503,-2.08535 -0.37547,-0.60508 -0.82256,-1.13395 -1.24238,-1.69416 -0.39695,-0.53821 -0.76563,-0.9153 -1.34805,-1.10683 -0.82168,-0.27786 -1.61903,-0.63052 -2.42999,-0.94638 -0.77565,-0.2686 -1.58672,-0.30738 -2.38899,-0.34079 -0.824,-0.16403 -1.63523,-0.37768 -2.46797,-0.47649 -0.88806,-0.0851 -1.77978,-0.0884 -2.67017,-0.094 -0.93949,-0.003 -1.87901,-3e-5 -2.8185,9.2e-4 -0.9414,9.1e-4 -1.88279,0.002 -2.82417,0.002 -0.94078,1.2e-4 -1.88155,9e-5 -2.82231,8e-5 -0.48325,0.14686 -1.21647,0.0405 -1.49047,0.63011 -0.23021,0.67302 -0.0841,1.43491 0.0675,2.11476 0.30177,1.02736 0.53744,2.12315 1.00635,3.06614 0.43785,0.82431 0.76998,1.73252 1.23705,2.53276 0.4282,0.87861 0.89821,1.71689 1.39568,2.5414 0.47938,0.80087 0.94092,1.61619 1.44492,2.39716 0.55695,0.89594 1.10549,1.79243 1.61256,2.7301 0.54359,0.77094 0.99137,1.6255 1.46674,2.45553 0.37723,0.83599 0.92581,1.53046 1.33634,2.33928 0.44969,0.79655 0.90544,1.58759 1.35323,2.38611 0.46927,0.97884 1.04766,1.87548 1.57293,2.8116 0.54095,0.72184 0.87089,1.61722 1.37699,2.36703 0.45431,0.75297 0.77597,1.62377 1.05274,2.4878 0.30034,0.95614 0.44318,1.97216 0.71481,2.9356 0.20808,0.88873 0.56938,1.69993 0.79028,2.58363 0.3056,0.9507 0.47556,1.956 0.85125,2.8741 0.68853,1.572 0.3885,2.3964 -1.08304,2.8551 -1.211,0.2097 -2.44105,0.1851 -3.66209,0.1849 -1.16362,-0.01 -2.32723,-0.013 -3.49085,-0.016 -1.31359,0 -2.62719,0 -3.94077,0 -1.16103,-10e-5 -2.32206,0 -3.48308,0 -1.07956,0 -2.15909,0 -3.23864,0 -1.00033,0 -2.00067,0 -3.00101,0 -1.05854,0 -2.11708,0 -3.17562,0 -1.2616,0 -2.5232,0 -3.78481,0 -1.18372,0 -2.36745,0 -3.55118,0 -1.50728,0 -3.01455,0 -4.52183,0 -1.31257,0 -2.62514,0 -3.9377,0 -1.22967,0 -2.45934,0 -3.68901,0 -1.30342,0.084 -2.59014,-0.1654 -3.88013,-0.3404 -1.20189,-0.1484 -2.4102,-0.1868 -3.61758,-0.2086 -1.26693,0.067 -2.51605,-0.186 -3.7703,-0.3503 -1.31607,-0.087 -2.61473,-0.3517 -3.9208,-0.5477 -1.2668,-0.1717 -2.54226,-0.198 -3.81579,-0.2173 -1.35057,-0.013 -2.7012,-0.01 -4.0518,-0.01 -1.21754,0.081 -2.41678,-0.1819 -3.62213,-0.3369 -1.1955,-0.1518 -2.39804,-0.1859 -3.59926,-0.2087 -1.23546,-0.015 -2.47102,-0.012 -3.70653,-0.01 -1.34416,0 -2.68834,0 -4.03251,0 -1.33652,3e-4 -2.67305,3e-4 -4.00956,3e-4 -1.2693,0 -2.53857,0 -3.80786,0 -1.25394,0 -2.50788,0 -3.76181,0 -1.21183,0 -2.42366,0 -3.63548,0 -1.1734,0 -2.34679,0 -3.52018,0 -1.20274,0 -2.40547,0 -3.60822,0 -1.13249,0 -2.26497,0 -3.39746,0 -1.19931,-0.081 -2.38137,0.1594 -3.56706,0.329 -1.17312,0.1634 -2.35521,0.1978 -3.53513,0.2197 -1.42215,0.015 -2.8444,0.012 -4.26661,0.01 -1.26986,0 -2.53971,0 -3.80958,0 -1.13573,-3e-4 -2.27145,-3e-4 -3.40718,-3e-4 -1.09722,0 -2.19443,0 -3.29165,0 -1.03265,0.1426 -2.05755,0.3415 -3.09357,0.452 -1.08209,0.096 -2.16815,0.1 -3.2527,0.1065 -1.09956,0 -2.19914,5e-4 -3.29871,-6e-4 -1.40211,-0.077 -2.79127,0.1643 -4.18256,0.3293 -1.16222,0.1413 -2.32966,0.1944 -3.49721,0.2177 -1.09112,0.015 -2.18233,0.012 -3.2735,0.01 -1.26135,0 -2.52271,0 -3.78406,0 -1.44244,-3e-4 -2.88488,-3e-4 -4.32731,-3e-4 -1.21507,0 -2.43015,0 -3.64523,0 -1.1993,0 -2.39861,0 -3.59791,0 -1.06497,0 -2.12995,0 -3.19492,0 -1.13426,0 -2.26852,0 -3.40278,0 -1.0599,0 -2.11983,0 -3.17974,0 -1.23244,0.087 -2.44563,-0.1737 -3.66432,-0.3406 -1.21868,-0.1701 -2.41821,-0.4663 -3.64053,-0.6159 -1.21261,-0.1017 -2.42011,-0.1387 -3.62646,-0.3233 -1.25751,-0.2078 -2.49047,-0.5658 -3.75023,-0.7662 -1.19032,-0.083 -2.36725,-0.2497 -3.54829,-0.4417 -1.34019,-0.1085 -2.6597,-0.4004 -3.98816,-0.6214 -1.11793,-0.1625 -2.24453,-0.2023 -3.36956,-0.2248 -1.13572,-0.031 -2.27249,0.046 -3.40439,-0.077 -1.32272,-0.2639 -2.66723,-0.2863 -3.99418,-0.4941 -1.0219,-0.2263 -2.04826,-0.4019 -3.08536,-0.4876 -1.22412,-0.066 -2.45012,-0.06 -3.67525,-0.062 -1.26687,0.038 -2.51821,-0.2455 -3.77377,-0.4041 -1.05903,-0.1201 -2.12402,-0.1335 -3.18702,-0.1462 -0.97829,-0.01 -1.95662,0 -2.93492,0 -0.94122,9e-4 -1.88243,0 -2.82365,0 -0.94015,3e-4 -1.88031,2e-4 -2.82047,2e-4 -0.76943,0 -1.55364,0.1901 -2.29365,0.4396 -0.91593,0.3554 -1.86709,0.5138 -2.82392,0.6066 -0.9272,0.051 -1.84414,0.038 -2.76068,0.2194 -0.95939,0.2185 -1.93232,0.3135 -2.90678,0.3676 -0.9512,0.041 -1.90321,0.039 -2.8549,0.039 -0.94094,-8e-4 -1.8819,0 -2.82285,0 -0.98519,-7e-4 -1.97038,-8e-4 -2.95558,-8e-4 -1.17106,0 -2.34213,0 -3.5132,0 -1.0215,0.094 -2.01509,-0.1878 -3.0204,-0.3421 -1.05658,-0.134 -2.11202,-0.1341 -3.1558,-0.3817 -0.81223,-0.2283 -1.64308,-0.309 -2.47444,-0.3567 -0.88234,0.059 -1.73033,-0.2055 -2.59045,-0.3839 -0.83789,-0.07 -1.64875,-0.2485 -2.46574,-0.4709 -0.99871,-0.1313 -1.779476,-0.4228 -2.306589,-1.4915 -0.247807,-1.11106 0.144534,-2.24282 0.622839,-3.1918 0.44087,-1.02383 0.97475,-1.97489 1.50146,-2.93841 0.40719,-1.1304 1.10856,-2.03518 1.66209,-3.05515 0.4717,-0.72399 0.90512,-1.47182 1.34289,-2.22221 0.45876,-0.75103 0.98966,-1.42977 1.49126,-2.13888 0.50636,-0.54517 0.92325,-1.16135 1.33412,-1.8012 0.32536,-0.66965 0.85116,-1.16344 1.17863,-1.82712 0.46651,-0.79337 0.92508,-1.59256 1.37716,-2.39789 0.46376,-1.04563 1.01345,-2.01438 1.58244,-2.98084 0.48993,-0.89511 1.02895,-1.74406 1.57299,-2.59305 0.4145,-0.73897 0.78859,-1.51206 1.21254,-2.24358 0.59542,-0.83808 1.06908,-1.77583 1.66331,-2.61412 0.50389,-0.83011 1.06965,-1.62345 1.48052,-2.52549 0.36849,-0.79536 0.85556,-1.48479 1.33153,-2.18867 0.32268,-0.67481 0.55347,-1.40547 0.84722,-2.09794 0.33463,-0.72665 0.71597,-1.42215 1.07372,-2.13492 0.3522,-0.79588 0.77655,-1.55164 1.18627,-2.31037 0.39688,-0.70867 0.7941,-1.41188 1.1664,-2.1405 -0.0163,-0.47925 0.0243,0.22806 -0.004,0.23976 -0.13356,0.0565 -0.28055,-0.0496 -0.42101,-0.073 -0.95012,-0.0989 -1.90618,-0.0771 -2.85906,-0.0749 -1.05277,0.005 -2.10555,0.009 -3.15832,0.0116 -1.17553,0.002 -2.35106,0.002 -3.52659,0.002 -1.05126,3e-5 -2.10252,-3e-5 -3.15377,-6e-5 -1.02015,-2e-5 -2.04029,-2e-5 -3.06044,-2e-5 -0.94621,-10e-6 -1.89241,-10e-6 -2.83862,-10e-6 -0.93982,0 -1.87963,0 -2.81945,0 -0.66251,-0.0681 -1.221617,0.23848 -1.759566,0.67203 -0.839154,0.63835 -1.602526,-0.76507 -0.763372,-1.40341 l 0,0 c 0.769397,-0.56625 1.590088,-1.02969 2.522938,-0.93731 0.93982,0 1.87963,0 2.81945,0 0.94621,0 1.89242,0 2.83863,0 1.02015,0 2.0403,10e-6 3.06046,4e-5 1.0512,2e-5 2.10241,8e-5 3.15362,4e-5 1.17476,-1.1e-4 2.34952,-2.7e-4 3.52428,-0.002 1.05269,-0.002 2.10536,-0.006 3.15804,-0.0116 1.02819,-0.003 2.06059,-0.0279 3.0848,0.0959 1.12232,0.22869 1.99033,0.8394 1.40742,2.34716 -0.3814,0.73945 -0.78536,1.45679 -1.18683,2.17909 -0.40749,0.73642 -0.81721,1.48025 -1.15974,2.2598 -0.3447,0.68166 -0.71086,1.34797 -1.03086,2.04347 -0.35213,0.7806 -0.57364,1.6476 -1.00277,2.3811 -0.42809,0.62623 -0.86497,1.23789 -1.1952,1.9482 -0.46883,0.98959 -1.0642,1.88758 -1.63719,2.79519 -0.56973,0.79481 -1.00878,1.69968 -1.58357,2.49101 -0.4444,0.74247 -0.81049,1.55218 -1.24807,2.30136 -0.53445,0.82912 -1.05979,1.66108 -1.53893,2.53776 -0.56429,0.9553 -1.10149,1.91672 -1.56426,2.94924 -0.44374,0.79027 -0.89368,1.57505 -1.35258,2.35256 -0.37625,0.69667 -0.88041,1.26762 -1.25826,1.96371 -0.42883,0.65573 -0.84989,1.30541 -1.37558,1.86222 -0.47803,0.66698 -0.97638,1.31123 -1.41314,2.01855 -0.43648,0.72823 -0.84682,1.47395 -1.31642,2.17569 -0.56183,1.01479 -1.24656,1.92759 -1.66129,3.05371 -0.52182,0.95162 -1.0483,1.89128 -1.48331,2.90436 -0.27062,0.49775 -0.40211,1.0426 -0.55445,1.59402 -0.15903,0.45498 1.20377,0.53048 1.35228,0.59018 0.79418,0.2164 1.57864,0.3833 2.3939,0.4536 0.80347,0.168 1.58958,0.4228 2.4146,0.3606 0.90211,0.053 1.80363,0.1428 2.68534,0.3878 1.00988,0.2442 2.03675,0.2133 3.05868,0.3627 0.94565,0.1469 1.87681,0.4182 2.83764,0.328 1.17109,0 2.34218,0 3.51327,0 0.9855,0 1.971,1e-4 2.95651,8e-4 0.94046,8e-4 1.88091,0 2.82136,0 0.92994,-4e-4 1.86018,0 2.78966,-0.038 0.91901,-0.05 1.83654,-0.1393 2.74115,-0.3469 0.95621,-0.1866 1.91101,-0.196 2.87794,-0.2365 0.86905,-0.082 1.73207,-0.2253 2.56305,-0.552 0.86642,-0.2754 1.76938,-0.5034 2.66862,-0.4996 0.94005,0 1.88008,0 2.82012,-2e-4 0.94078,-3e-4 1.88157,-8e-4 2.82235,0 0.98362,-9e-4 1.96726,0 2.95086,0 1.10839,0.013 2.21879,0.029 3.32288,0.1556 1.2062,0.153 2.40843,0.4278 3.62511,0.3947 1.25766,0 2.51628,0 3.77285,0.066 1.06696,0.089 2.12413,0.2631 3.17529,0.4985 1.30797,0.2141 2.63739,0.217 3.94141,0.4869 1.09257,0.134 2.19521,0.022 3.29209,0.07 1.18281,0.024 2.36725,0.067 3.54235,0.2409 1.32699,0.2212 2.64478,0.5124 3.98357,0.6206 1.18024,0.1919 2.35546,0.3555 3.54499,0.4412 1.25718,0.2016 2.4888,0.5511 3.74274,0.765 1.19429,0.1834 2.39049,0.2106 3.59093,0.3185 1.2279,0.1515 2.43366,0.443 3.65726,0.618 1.16508,0.1599 2.32341,0.4152 3.50176,0.3294 1.05992,0 2.11984,0 3.17974,0 1.13426,0 2.26853,0 3.40278,0 1.06497,0 2.12995,0 3.19492,0 1.19931,0 2.3986,0 3.59792,0 1.21507,0 2.43015,0 3.64524,0 1.44255,0 2.88509,0 4.32765,4e-4 1.26166,4e-4 2.52332,9e-4 3.78499,0 1.08283,0 2.16571,0 3.24849,-0.01 1.12848,-0.022 2.25688,-0.073 3.3802,-0.2097 1.43828,-0.1704 2.87503,-0.4139 4.32445,-0.3376 1.09669,0 2.19338,0 3.29008,6e-4 1.0449,-0.01 2.09126,-0.01 3.13391,-0.1 1.07803,-0.114 2.14266,-0.3388 3.21982,-0.4588 1.09723,0 2.19445,0 3.29167,0 1.13586,0 2.27172,0 3.40757,4e-4 1.27008,4e-4 2.54016,0 3.81023,0 1.41449,0 2.82903,0.01 4.24347,-0.01 1.13066,-0.021 2.2635,-0.052 3.38774,-0.2079 1.24165,-0.1776 2.4808,-0.4222 3.73654,-0.341 1.13249,0 2.26497,0 3.39746,0 1.20275,0 2.40548,0 3.60822,0 1.17339,0 2.34678,0 3.52018,0 1.21183,0 2.42365,0 3.63548,0 1.25395,0 2.50788,0 3.76182,0 1.26928,0 2.53855,0 3.80784,0 1.33639,0 2.67279,0 4.00919,-4e-4 1.3439,-4e-4 2.68779,0 4.03169,0 1.24349,0 2.48704,-0.01 3.73049,0.01 1.24466,0.024 2.49063,0.06 3.7293,0.2184 1.15453,0.1489 2.30169,0.4072 3.4678,0.3271 1.35714,0 2.71432,-0.01 4.07143,0.01 1.3269,0.02 2.65578,0.049 3.97549,0.2304 1.2987,0.1953 2.58977,0.4589 3.89849,0.5446 1.21004,0.1588 2.414,0.4083 3.63637,0.3405 1.25392,0.023 2.50879,0.064 3.75691,0.2191 1.23688,0.1679 2.46936,0.4137 3.71924,0.3296 1.22967,0 2.45934,0 3.68901,0 1.31256,0 2.62514,0 3.9377,0 1.50728,0 3.01456,0 4.52183,0 1.18373,0 2.36746,0 3.55118,0 1.26161,0 2.52321,0 3.78482,0 1.05853,0 2.11707,0 3.17561,0 1.00033,0 2.00067,0 3.001,0 1.07953,0 2.15907,0 3.23859,0 1.16112,0 2.32224,-10e-5 3.48335,0 1.31477,2e-4 2.62954,4e-4 3.94431,0 1.16246,0 2.3249,0.011 3.48736,0.016 1.11539,2e-4 2.23724,0.02 3.34599,-0.1426 0.41031,-0.076 0.27676,-0.1174 0.3403,0.2774 0.035,0.2171 -0.12133,-1.3914 -0.21925,-0.7983 -0.38961,-1.0065 -0.61784,-2.0752 -0.92862,-3.1171 -0.20777,-0.8694 -0.58763,-1.6601 -0.77842,-2.53761 -0.25076,-0.94681 -0.41274,-1.92564 -0.69358,-2.86331 -0.2193,-0.71061 -0.48692,-1.42437 -0.84603,-2.04881 -0.51272,-0.79794 -0.89277,-1.69824 -1.43857,-2.46863 -0.5222,-0.93749 -1.10453,-1.83059 -1.57197,-2.80992 -0.46197,-0.82405 -0.93278,-1.63962 -1.39425,-2.46378 -0.3772,-0.78793 -0.94491,-1.43085 -1.28781,-2.24832 -0.48215,-0.84273 -0.93839,-1.70616 -1.48699,-2.49195 -0.48622,-0.89912 -1.01067,-1.76003 -1.54636,-2.61804 -0.51182,-0.79615 -0.98345,-1.62509 -1.47172,-2.4402 -0.50521,-0.8406 -0.98711,-1.69269 -1.42231,-2.58722 -0.46516,-0.85157 -0.85122,-1.76118 -1.28931,-2.63353 -0.50862,-1.09211 -0.82992,-2.29966 -1.14742,-3.48472 -0.24534,-1.21572 -0.39199,-2.47461 0.21519,-3.58211 0.6978,-0.8985 1.57003,-1.1403 2.57716,-1.23431 0.94069,1e-5 1.88138,4e-5 2.82207,-8e-5 0.94095,-1.7e-4 1.88188,-4.3e-4 2.82283,-0.002 0.94252,-9.2e-4 1.88504,-0.004 2.82756,-9.2e-4 0.93544,0.005 1.87229,0.0103 2.80514,0.10249 0.80128,0.0971 1.5885,0.27028 2.37574,0.46903 0.93615,0.0399 1.88054,0.0981 2.78264,0.42445 0.7988,0.31472 1.58408,0.66081 2.39486,0.93322 0.82246,0.30883 1.43998,0.82973 1.9995,1.60279 0.45893,0.62543 0.96128,1.20553 1.36553,1.88639 0.37076,0.6816 0.77864,1.31488 1.23248,1.92149 0.56578,0.80784 1.0292,1.70325 1.59084,2.51556 0.59695,0.82851 1.1631,1.6883 1.74405,2.53317 0.52314,0.6941 0.99313,1.44107 1.51087,2.13784 0.67314,0.76333 1.29359,1.58665 1.80899,2.50894 0.4724,0.69659 0.84896,1.47108 1.31595,2.17324 0.59047,0.95907 1.18988,1.91256 1.71931,2.92124 0.51823,0.89761 0.99348,1.82809 1.4915,2.74136 0.47202,0.71041 0.92289,1.43508 1.23327,2.26761 0.38091,0.72039 0.79394,1.40313 1.23834,2.06971 0.49897,0.77739 0.96963,1.58179 1.47433,2.35409 0.5801,0.9319 1.1227,1.89777 1.71211,2.82201 0.44013,0.90277 0.9669,1.73729 1.40955,2.63773 0.43991,0.835 0.85004,1.6907 1.29607,2.5223 0.36487,0.7555 0.68987,1.5363 1.08002,2.2724 0.42837,0.7262 0.7136,1.5364 1.10242,2.2907 0.33263,0.8296 0.80573,1.5719 1.20378,2.3583 0.31597,0.7898 0.63732,1.5733 1.00557,2.331 0.45148,0.8625 0.9106,1.728 1.29286,2.6352 0.44321,0.8969 0.96515,1.7363 1.39225,2.645 0.52027,1.0506 1.0583,2.0835 1.62521,3.0996 0.41484,0.9154 0.80463,1.8476 1.33256,2.6833 0.39233,0.917 0.83173,1.811 1.10241,2.7914 0.27204,1.5143 -0.23826,2.3371 -1.58957,2.3238 -0.79636,-0.1 -1.57824,-0.2785 -2.36437,-0.4537 -0.90671,0 -1.81412,0 -2.71975,0.061 -0.80795,0.067 -1.60799,0.1941 -2.39561,0.4245 -0.83921,0.1467 -1.6939,0.091 -2.52957,0.2869 -0.72779,0.1884 -1.42404,0.5081 -2.15753,0.668 -0.66393,0.2675 -1.31741,0.5785 -1.96362,0.8972 -0.73582,0.3909 -1.51087,0.6689 -2.3017,0.856 -0.95224,0.2825 -1.92431,0.3519 -2.89217,0.537 -1.15404,0.1961 -2.30769,0.1895 -3.47221,0.167 -1.17603,0 -2.35205,0 -3.52807,0 -1.27946,0 -2.55892,0 -3.83837,0 -1.33594,0 -2.67186,10e-5 -4.0078,10e-5 -1.32987,-10e-5 -2.65974,0 -3.98962,-4e-4 -1.1284,-4e-4 -2.2568,-9e-4 -3.38519,0 -1.13119,-9e-4 -2.26245,-0.01 -3.39359,0.01 -1.02837,0.02 -2.05865,0.047 -3.07979,0.2067 -1.10943,0.1741 -2.21544,0.4218 -3.34025,0.3418 -1.11814,-6e-4 -2.23627,0 -3.35441,0 -1.20013,-8e-4 -2.40037,0 -3.60036,0.022 -1.27368,0.035 -2.55057,0.075 -3.81469,0.2775 -1.24022,0.2119 -2.47544,0.3353 -3.73078,0.2605 -1.14496,0 -2.28995,0 -3.43492,0 -1.1443,0 -2.28859,-10e-5 -3.43289,0 -1.13675,-9e-4 -2.27349,0 -3.41024,0 -1.17325,0 -2.34694,0 -3.51935,0.062 -1.10213,0.07 -2.19542,0.213 -3.27706,0.4813 -1.37349,0.2326 -2.76755,0.2714 -4.1413,0.5165 -1.53282,0.1575 -3.07872,0.1271 -4.60279,0.411 -1.38769,0.2865 -2.77081,0.5881 -4.16483,0.8296 -1.39915,0.267 -2.81372,0.4789 -4.22797,0.5818 -1.54013,0.1223 -3.06694,0.3651 -4.59418,0.6267 -1.67287,0.1838 -3.32915,0.516 -5.00259,0.6856 -1.85856,0.1997 -3.71436,0.3331 -5.5819,0.318 -1.98236,0.082 -3.96215,0.227 -5.93416,0.4868 -2.02974,0.2028 -4.06971,0.2469 -6.09625,0.5106 -2.11663,0.1702 -4.2435,0.1297 -6.35617,0.3906 -2.28457,0.2637 -4.56946,0.5182 -6.85188,0.8029 -2.44651,0.3752 -4.89759,0.7428 -7.36028,0.9287 -2.7166,0.198 -5.43372,0.1764 -8.15479,0.1602 -2.7459,4e-4 -5.4918,9e-4 -8.23772,0 -2.79913,0 -5.59829,0.01 -8.3974,-0.01 -2.84055,-0.021 -5.68205,-0.051 -8.51984,-0.2131 -2.90546,-0.1779 -5.8071,-0.4353 -8.71656,-0.5053 -2.6994,-0.1673 -5.38776,-0.4588 -8.07369,-0.8167 -2.09077,-0.3089 -4.17135,-0.7064 -6.26526,-0.9893 -1.94753,-0.2061 -3.89238,-0.3565 -5.84742,-0.4207 -2.20474,-0.1859 -4.39442,-0.5268 -6.59596,-0.7501 -2.70039,-0.2969 -5.399,-0.5887 -8.10872,-0.7466 -3.79781,-0.2547 -7.605,-0.3319 -11.39319,-0.7793 -4.20266,-0.4034 -8.40976,-0.7403 -12.61364,-1.1253 -4.16003,-0.3876 -8.32,-0.772 -12.48184,-1.1308 -3.79279,-0.3475 -7.59313,-0.4664 -11.39009,-0.7263 -3.61072,-0.3299 -7.21629,-0.7384 -10.82429,-1.107 -3.22143,-0.311 -6.43883,-0.6754 -9.66483,-0.9192 -3.02244,-0.1645 -6.04342,-0.4191 -9.07117,-0.335 -2.7141,-9e-4 -5.428198,0 -8.142297,0 -2.449688,-3e-4 -4.89953,-0.01 -7.34903,0.036 -2.240959,0.051 -4.484401,0.1182 -6.715006,0.3981 -1.977469,0.2279 -3.959882,0.3213 -5.939102,0.5244 -1.806653,0.1898 -3.613374,0.1955 -5.426544,0.1761 -1.115215,-7e-4 -2.249489,0.052 -3.348336,-0.2048 -1.249554,-0.5634 -1.356155,-1.5373 -0.692628,-2.8036 0.434612,-0.8566 0.728526,-1.8154 1.275466,-2.5924 0.469717,-0.9154 1.009704,-1.7768 1.519937,-2.66 0.479629,-0.7703 0.949426,-1.5507 1.472935,-2.2788 0.494065,-0.7794 0.989575,-1.5466 1.420109,-2.38 0.47512,-0.7417 0.95539,-1.4847 1.350685,-2.2894 0.437723,-0.8205 0.86846,-1.66 1.216,-2.5382 0.404931,-0.8623 0.857787,-1.6916 1.258695,-2.5562 0.596144,-1.1028 1.006083,-2.3306 1.614607,-3.4267 0.573181,-1.0722 1.106673,-2.1702 1.70052,-3.2268 0.540262,-1.1013 1.088303,-2.1968 1.631249,-3.2957 0.491056,-1.1202 1.042972,-2.20388 1.463504,-3.36599 0.570296,-1.23924 1.224306,-2.43408 1.621204,-3.77328 0.489599,-1.21301 0.935457,-2.44805 1.475778,-3.63187 0.604534,-1.4381 1.048718,-2.96391 1.628421,-4.41674 0.514515,-1.67826 1.105206,-3.31665 1.639061,-4.98595 0.581219,-1.66994 1.257163,-3.28425 1.934542,-4.90223 0.626446,-1.51832 1.274295,-3.02496 1.747121,-4.62307 0.583041,-1.593 1.196983,-3.16813 1.911984,-4.68527 0.700802,-1.53642 1.402141,-3.07252 2.100127,-4.61032 0.782341,-1.85348 1.477069,-3.76731 2.401231,-5.53185 0.495032,-1.02448 1.720177,-0.19658 1.225147,0.8279 z"
       inkscape:connector-curvature="0" />
    <path
       style="fill:#552200;fill-opacity:1;stroke:none"
       d="m 99.682789,957.25323 c -5.299022,11.77325 -9.847851,23.92109 -14.331093,36.12023 -4.941823,12.18394 -10.963461,23.60344 -17.41779,34.60794 -1.281185,1.8348 0.35752,3.4678 1.969607,2.8159 21.48018,-1.6496 43.061207,-1.3206 64.490847,1.1268 23.24312,2.0442 46.5305,3.4866 69.73341,6.1144 20.01122,2.86 40.21842,2.2912 60.31115,1.2936 15.97071,-2.0754 32.09559,-2.2543 48.01485,-5.0201 25.02164,-3.0496 50.23959,-2.0603 75.33242,-3.4905 4.54811,-0.8355 8.82403,-3.3382 13.53959,-3.1329 1.64846,-0.5686 4.78547,0.6528 5.27757,-1.8626 -6.03113,-12.3938 -12.02434,-25.004 -19.07169,-36.62694 -4.72892,-7.88954 -9.39187,-16.08117 -15.64629,-22.42038 -4.82065,-2.342 -10.29374,-1.23954 -15.38939,-1.61655 -1.67365,0.0541 -5.42693,-0.59312 -4.68885,2.72901 1.9906,7.74718 7.11878,13.67658 10.50101,20.56698 3.20156,5.45172 5.98018,11.59268 6.84329,18.12588 -15.46223,1.2772 -31.01482,0.7495 -46.50535,0.3407 -34.00174,-2.8764 -68.11755,-1.3975 -102.15585,-0.4103 -14.06912,0.2651 -28.21609,0.78 -42.16664,-1.8386 -14.30025,-1.8236 -28.74583,-3.4922 -43.12909,-2.4374 -11.07831,2.1974 -22.57594,1.1482 -33.5568,-0.9734 -1.63338,0.077 -2.135858,-1.70679 -1.21998,-3.11143 3.62235,-8.50251 9.55212,-15.33497 13.63422,-23.52555 3.22557,-5.54981 6.66691,-11.16946 9.00156,-17.25311 -2.50212,-1.43886 -5.89454,-0.18993 -8.73095,-0.60839 -4.7621,0.19041 -9.70268,-0.38584 -14.353011,0.28468 l -0.28675,0.20203 z"
       id="path2987"
       inkscape:connector-curvature="0" />
    <path
       style="fill:#000000;fill-opacity:1;stroke:none"
       id="path2991"
       d="m 105.26861,1016.8647 c 1.25071,0 2.50143,0 3.75215,0 1.23091,0.071 2.45095,-0.1148 3.6733,-0.2493 1.1282,-0.1737 2.24237,-0.4388 3.36007,-0.685 1.08715,-0.2145 2.18818,-0.243 3.27871,-0.4241 1.08181,-0.1091 2.14601,-0.361 3.22023,-0.5384 1.0165,-0.1547 2.0433,-0.1761 3.06678,-0.193 0.90171,-0.01 1.80348,-0.01 2.70521,-0.01 0.89465,0 1.78931,0 2.68396,0 0.7363,3e-4 1.47258,3e-4 2.20887,3e-4 0.70649,0 1.413,-1e-4 2.11949,-1e-4 0.70206,-0.056 1.38054,0.038 2.06621,0.2019 0.61011,0.1243 1.18941,0.4081 1.76661,0.6654 0.70472,0.2679 1.37105,0.6627 2.04463,1.0244 0.91396,0.5011 1.80931,1.0391 2.69828,1.5984 0.70836,0.5328 1.50509,0.8574 2.24456,1.3172 0.53667,0.3241 1.07453,0.6399 1.61884,0.9459 0.58839,0.2695 1.10123,0.706 1.60866,1.1402 0.55074,0.4061 1.01738,0.9414 1.56224,1.3596 0.51914,0.4082 0.98078,0.8989 1.45847,1.3684 0.4219,0.4753 0.85768,0.929 1.25242,1.4373 0.40824,0.4816 0.89358,0.8524 1.32848,1.2977 0.45734,0.4395 0.95754,0.807 1.40957,1.2544 0.51213,0.4951 1.15334,0.7255 1.75034,1.0368 0.9808,0.4596 1.98255,0.8574 2.97174,1.2933 0.76805,0.3002 0.35857,0.1521 1.23054,0.4361 0.72339,0.2365 0.44055,1.4464 -0.28284,1.2099 l 0,0 c -0.93544,-0.3069 -0.49666,-0.1473 -1.31863,-0.47 -1.00851,-0.4452 -2.03067,-0.849 -3.02984,-1.3213 -0.69012,-0.3614 -1.42473,-0.6391 -2.00855,-1.2283 -0.44895,-0.461 -0.97151,-0.807 -1.42202,-1.267 -0.45866,-0.4839 -0.99313,-0.8615 -1.41417,-1.3973 -0.3577,-0.4716 -0.76537,-0.8777 -1.14817,-1.3189 -0.44404,-0.4417 -0.87593,-0.8977 -1.35933,-1.2813 -0.55577,-0.4345 -1.04243,-0.9696 -1.60289,-1.3928 -0.45536,-0.3906 -0.91165,-0.7871 -1.44258,-1.0237 -0.55808,-0.3153 -1.10999,-0.6388 -1.66091,-0.971 -0.73444,-0.4693 -1.54117,-0.7741 -2.24462,-1.3171 -0.86948,-0.5474 -1.74508,-1.074 -2.63921,-1.564 -0.65186,-0.3515 -1.29671,-0.7343 -1.97956,-0.9924 -0.52403,-0.2339 -1.04842,-0.4987 -1.60236,-0.6095 -0.61745,-0.1477 -1.22227,-0.2349 -1.8559,-0.177 -0.70649,0 -1.413,0 -2.1195,0 -0.73642,0 -1.47284,0 -2.20926,-2e-4 -0.89503,-5e-4 -1.79007,0 -2.68512,0 -0.8963,0 -1.79263,-0.01 -2.6889,0.01 -0.97942,0.015 -1.96214,0.035 -2.93502,0.181 -1.07395,0.1768 -2.13795,0.4293 -3.21946,0.5383 -1.0751,0.1778 -2.15929,0.2129 -3.23175,0.4151 -1.14942,0.2529 -2.29538,0.5256 -3.45599,0.7008 -1.25496,0.1379 -2.50799,0.3252 -3.77163,0.2546 -1.25072,0 -2.50144,0 -3.75215,0 -0.75054,0 -0.75054,-1.2551 0,-1.2551 z"
       inkscape:connector-curvature="0" />
    <path
       style="fill:#000000;fill-opacity:1;stroke:none"
       id="path2993"
       d="m 163.21008,1019.8459 c 0.17146,1.0626 0.43767,2.0945 0.86322,3.0531 0.3123,0.7619 0.76491,1.4328 1.26581,2.0331 0.44175,0.5001 0.97779,0.8384 1.45878,1.2764 0.49625,0.3687 0.99051,0.7495 1.50526,1.0838 0.63072,0.367 1.30338,0.604 1.93671,0.9621 0.65443,0.3652 1.34345,0.6516 2.03826,0.8906 0.6504,0.2042 1.32402,0.2414 1.99301,0.2666 0.6506,-0.01 1.27989,0.2159 1.92133,0.3185 0.67287,0.1 1.35163,0.062 2.02368,0.1601 0.69003,0.1601 1.3858,0.2639 2.087,0.3195 0.7256,0.039 1.43391,0.2493 2.15406,0.3548 0.68502,0.088 1.37466,0.099 2.06298,0.1077 0.7055,0.01 1.41101,0 2.11652,0 0.7078,-9e-4 1.41558,0 2.12337,0 0.58631,0.055 1.09715,-0.026 1.59507,-0.4027 0.44254,-0.2711 0.70451,-0.7739 0.98284,-1.2434 0.35756,-0.4934 0.71581,-1.0092 0.9612,-1.5942 0.14675,-0.6176 0.4773,-1.1314 0.70578,-1.7029 0.14027,-0.6202 0.27344,-1.2426 0.41123,-1.8655 0.13844,-0.701 0.15873,-1.4231 0.17669,-2.1395 0.0738,-0.6492 -0.16647,-1.1738 -0.36684,-1.7485 -0.1662,-0.6494 -0.56083,-1.0861 -0.88548,-1.6166 -0.28467,-0.4358 -0.67327,-0.7144 -1.07367,-0.9761 -0.45098,-0.442 -0.98525,-0.7035 -1.5077,-0.9993 -0.50912,-0.1902 -0.99505,-0.4561 -1.51456,-0.6081 -0.57204,-0.1636 -1.15331,-0.3308 -1.71175,-0.5543 -0.51525,-0.2638 -1.06591,-0.351 -1.62001,-0.4057 -0.62801,-0.032 -1.23217,-0.2545 -1.85343,-0.3566 -0.65069,-0.089 -1.30665,-0.097 -1.96088,-0.1047 -0.6441,0.1464 -1.31307,0.1791 -1.94798,0.3733 -0.56765,0.2074 -1.15293,0.2987 -1.7189,0.5088 -0.47579,0.095 -0.79163,0.3859 -1.11263,0.7737 -0.45445,0.5383 -0.8001,1.1877 -1.1954,1.7844 -0.32919,0.385 -0.55963,0.856 -0.82479,1.2987 -0.43514,0.7231 -1.29994,0 -0.8648,-0.7278 l 0,0 c 0.27674,-0.4574 0.51544,-0.948 0.8559,-1.3477 0.422,-0.6288 0.78354,-1.3207 1.27064,-1.8857 0.44202,-0.5339 0.92059,-0.9377 1.55385,-1.0934 0.58837,-0.2175 1.19416,-0.3206 1.78468,-0.5305 0.72483,-0.2005 1.47412,-0.2853 2.2105,-0.409 0.6999,0.01 1.40165,0.018 2.09751,0.1169 0.60211,0.1009 1.1882,0.3106 1.79541,0.3489 0.64268,0.066 1.28279,0.1725 1.88201,0.4721 0.52104,0.2289 1.0832,0.3592 1.6206,0.5218 0.58636,0.1788 1.14134,0.462 1.713,0.6931 0.5387,0.306 1.09876,0.5747 1.56231,1.0326 0.53929,0.3526 1.04748,0.7572 1.42482,1.3467 0.35878,0.611 0.81582,1.1295 1.00266,1.8679 0.25342,0.7338 0.52883,1.4414 0.44587,2.2627 -0.0207,0.8114 -0.0487,1.6283 -0.21106,2.4209 -0.15632,0.7008 -0.29085,1.407 -0.48259,2.0938 -0.24056,0.5773 -0.55854,1.106 -0.71727,1.7301 -0.27963,0.6272 -0.63506,1.2134 -1.03591,1.7404 -0.36297,0.612 -0.73338,1.242 -1.30695,1.5998 -0.67078,0.4562 -1.36161,0.6635 -2.13971,0.5807 -0.70742,2e-4 -1.41485,6e-4 -2.12227,0 -0.7097,10e-4 -1.41941,0 -2.1291,0 -0.7284,-0.01 -1.45815,-0.022 -2.18291,-0.1172 -0.70034,-0.1037 -1.38954,-0.305 -2.09435,-0.348 -0.72355,-0.058 -1.44246,-0.1607 -2.1544,-0.3274 -0.67079,-0.1138 -1.35644,-0.037 -2.02836,-0.161 -0.60528,-0.098 -1.19946,-0.3051 -1.81192,-0.3075 -0.75845,-0.029 -1.52125,-0.078 -2.25728,-0.3165 -0.75011,-0.2614 -1.49499,-0.5682 -2.20164,-0.9651 -0.64728,-0.3746 -1.34807,-0.5976 -1.98871,-0.9939 -0.56084,-0.369 -1.10452,-0.7781 -1.64212,-1.1905 -0.51435,-0.4765 -1.09958,-0.8352 -1.56554,-1.3887 -0.57194,-0.6918 -1.09024,-1.4609 -1.45052,-2.3343 -0.47311,-1.0881 -0.7876,-2.2488 -0.97186,-3.4537 -0.10614,-0.8786 0.9446,-1.0562 1.05073,-0.1775 z"
       inkscape:connector-curvature="0" />
    <path
       style="fill:#000000;fill-opacity:1;stroke:none"
       id="path2995"
       d="m 181.37651,1020.9924 c -0.7737,-0.052 -1.54294,-0.036 -2.28596,0.2403 -0.49326,0.1586 -0.92613,0.5028 -1.18736,1.0287 -0.32292,0.5109 -0.53653,1.1068 -0.70514,1.7096 -0.13612,0.6841 -0.25667,1.4105 -0.18167,2.1141 0.054,0.4414 0.19282,0.8585 0.55146,1.0449 0.51975,0.3544 1.10512,0.4722 1.6923,0.5508 0.6872,0.07 1.37777,0.067 2.06696,0.069 0.70834,-9e-4 1.41668,0 2.12503,-0.01 0.70794,-9e-4 1.41588,-9e-4 2.12382,0 0.46664,-0.063 0.91328,-0.2764 1.31478,-0.5622 0.41882,-0.3189 0.53215,-0.8475 0.6191,-1.3929 0.062,-0.6242 0.15494,-1.2917 -0.0793,-1.8809 -0.17989,-0.4668 -0.47735,-0.8714 -0.7943,-1.2192 -0.3603,-0.3774 -0.79203,-0.5478 -1.22224,-0.7717 -0.502,-0.2192 -1.00695,-0.4349 -1.51738,-0.6288 -0.0826,-0.024 -0.16518,-0.047 -0.24778,-0.071 -0.72827,-0.2146 -0.47164,-1.4326 0.25662,-1.2179 l 0,0 c 0.10622,0.032 0.21244,0.064 0.31866,0.095 0.5459,0.2111 1.08737,0.4374 1.62389,0.6772 0.53542,0.2909 1.07807,0.5269 1.52218,1.0104 0.41848,0.4832 0.81591,1.017 1.04605,1.6605 0.263,0.8441 0.26743,1.7071 0.13482,2.5903 -0.15721,0.907 -0.43437,1.7341 -1.13441,2.2393 -0.57205,0.3738 -1.17874,0.6844 -1.84052,0.7271 -0.7074,1e-4 -1.41479,3e-4 -2.12219,0 -0.70949,0 -1.41898,0 -2.12847,0.01 -0.72929,-9e-4 -1.46006,8e-4 -2.18703,-0.078 -0.72457,-0.1005 -1.44371,-0.2636 -2.08469,-0.6996 -0.64274,-0.4562 -1.00521,-1.1295 -1.09361,-2.0197 -0.062,-0.8863 0.0302,-1.7808 0.23192,-2.6376 0.20137,-0.699 0.44719,-1.3941 0.82006,-1.9913 0.43054,-0.7506 1.01873,-1.3116 1.77185,-1.5484 0.89526,-0.3099 1.81327,-0.3705 2.74268,-0.2813 0.74298,0.1255 0.59288,1.3681 -0.1501,1.2425 z"
       inkscape:connector-curvature="0" />
    <path
       style="fill:#000000;fill-opacity:1;stroke:none"
       id="path2997"
       d="m 182.23907,1023.3571 c 0.77789,0.4094 1.59718,0.7865 2.45409,0.8495 0.57648,-0.3353 0.32459,1.0933 -0.0101,1.0939 -0.15053,2e-4 -0.29998,-0.03 -0.45022,-0.042 -0.44284,-0.025 -0.88625,-0.026 -1.32947,-0.029 -0.75053,0 -0.74455,-1.2602 0.007,-1.2551 l 0,0 c 0.46428,0 0.92878,0 1.39263,0.032 0.10331,0.01 0.90284,0.023 0.93265,0.1807 0.25274,1.3412 0.0383,1.254 -0.62393,1.271 -0.99312,-0.1042 -1.94578,-0.4776 -2.84635,-0.9781 -0.6713,-0.397 -0.19662,-1.5197 0.47467,-1.1228 z"
       inkscape:connector-curvature="0" />
    <path
       style="fill:#000000;fill-opacity:1;stroke:none"
       id="path2999"
       d="m 196.90381,1032.3456 c 0.98808,0 1.97615,0 2.96423,0 0.6973,-0.01 1.32516,-0.3524 1.98376,-0.5715 0.54617,-0.1887 1.11787,-0.3356 1.64987,-0.5769 0.41594,-0.1729 0.78904,-0.4824 1.10027,-0.8496 0.28744,-0.4286 0.50413,-0.9057 0.72669,-1.3842 0.23294,-0.5289 0.44892,-1.035 0.55234,-1.6223 0.22767,-0.6593 0.31258,-1.3604 0.45415,-2.0465 0.19026,-0.7591 0.27305,-1.5423 0.32097,-2.3291 0.0389,-0.8219 0.0376,-1.6455 0.0384,-2.4684 -5e-4,-0.8368 -0.002,-1.6736 -0.003,-2.5103 3e-5,-0.876 -0.0698,-1.7383 0.17989,-2.5741 0.44294,-0.8741 1.23505,-0.988 2.0208,-1.0544 0.71706,-0.035 1.43506,-0.02 2.15249,-0.015 0.7093,0.01 1.41861,0.01 2.12792,0.01 0.74115,0 1.4823,8e-4 2.22345,8e-4 0.78431,-10e-5 1.56861,-10e-5 2.35292,-10e-5 0.71606,0 1.43214,0 2.14821,0 0.70694,0 1.41389,0 2.12083,0 0.804,0 1.60799,0 2.41198,0 0.76307,0 1.52611,0 2.28916,0 0.85506,0.024 1.70154,0.01 2.55054,-0.1147 1.09851,-0.1682 2.20504,-0.2335 3.31128,-0.2763 0.90619,0.027 1.80245,-0.1145 2.70212,-0.2168 0.74708,-0.085 0.84859,1.1646 0.10149,1.2494 l 0,0 c -0.92174,0.1047 -1.84066,0.2481 -2.76897,0.2219 -1.07567,0.041 -2.15167,0.1043 -3.21981,0.2681 -0.89096,0.1255 -1.77961,0.1495 -2.67665,0.1236 -0.76305,0 -1.52609,0 -2.28916,0 -0.80399,0 -1.60798,0 -2.41198,0 -0.70694,0 -1.41389,0 -2.12083,0 -0.71606,0 -1.43213,0 -2.14819,0 -0.7843,0 -1.56861,10e-5 -2.35292,10e-5 -0.74168,0 -1.48335,2e-4 -2.22503,-8e-4 -0.71127,0 -1.42256,0 -2.13383,-0.01 -0.69053,-0.01 -1.38155,-0.02 -2.0718,0.011 -0.36707,0.029 -0.78581,0.03 -1.10784,0.2664 -0.27746,0.6193 -0.0228,1.4393 -0.10466,2.1086 7.5e-4,0.8376 0.002,1.6753 0.003,2.513 -7.7e-4,0.8528 2.5e-4,1.7064 -0.0412,2.5581 -0.0533,0.8582 -0.14432,1.7127 -0.3496,2.5413 -0.14486,0.6709 -0.21315,1.366 -0.44676,2.0089 -0.13254,0.7044 -0.37648,1.33 -0.66076,1.9639 -0.27549,0.5871 -0.5459,1.1751 -0.922,1.684 -0.42907,0.4733 -0.90969,0.8956 -1.4707,1.122 -0.56491,0.2352 -1.15132,0.4167 -1.7275,0.6064 -0.75137,0.2461 -1.4714,0.6308 -2.26934,0.6178 -0.98807,0 -1.97616,0 -2.96422,0 -0.75054,0 -0.75054,-1.2553 0,-1.2553 z"
       inkscape:connector-curvature="0" />
    <path
       style="fill:#000000;fill-opacity:1;stroke:none"
       id="path3001"
       d="m 210.13822,1033.5329 c 0.87162,-0.2663 1.72391,-0.5804 2.55243,-0.9962 0.57382,-0.2647 1.12555,-0.5933 1.67017,-0.9325 0.51691,-0.3662 1.02419,-0.7473 1.42194,-1.2886 0.41732,-0.549 0.90248,-1.0439 1.23489,-1.6739 0.33992,-0.5222 0.55672,-1.1286 0.87902,-1.6654 0.29295,-0.5071 0.46086,-1.1093 0.60827,-1.6951 0.2342,-0.8938 0.61521,-1.5075 1.34238,-1.8932 0.69629,-0.2605 1.43344,-0.2533 2.15618,-0.2611 0.71209,-7e-4 1.42417,0.01 2.13625,0.01 0.70794,0 1.41589,0 2.12383,0 0.70756,2e-4 1.41512,10e-5 2.12268,10e-5 0.79306,-10e-5 1.58613,-10e-5 2.37919,-10e-5 0.73988,0 1.47974,0 2.2196,0 0.72242,0 1.44484,0 2.16726,0 0.88318,0 1.76634,0 2.64952,0 0.75387,0 1.50775,0 2.26163,0 0.63433,0.058 1.23971,-0.029 1.85777,-0.1769 0.66727,-0.1609 1.34811,-0.2009 2.02683,-0.2273 0.64665,-0.017 1.2868,0.026 1.9228,-0.1242 0.74571,-0.1678 1.47883,-0.3877 2.22957,-0.5262 0.89437,-0.2549 1.80078,-0.4348 2.7025,-0.6476 0.99563,-0.3169 2.02502,-0.4805 2.99284,-0.9106 0.80283,-0.3234 1.61808,-0.6203 2.44371,-0.8525 0.82087,-0.1331 1.59523,-0.4784 2.38351,-0.7599 0.38834,-0.107 0.76676,-0.2529 1.15131,-0.3771 0.72414,-0.2332 1.00308,0.9779 0.27893,1.2111 l 0,0 c -0.37549,0.1206 -0.74478,0.2644 -1.12404,0.3679 -0.80921,0.2876 -1.6044,0.6419 -2.44648,0.7798 -0.78439,0.2159 -1.55693,0.5051 -2.3197,0.8083 -1.0241,0.4399 -2.09887,0.6466 -3.15241,0.964 -0.91661,0.2163 -1.83754,0.4011 -2.7473,0.6569 -0.73673,0.1345 -1.4554,0.3549 -2.1874,0.5175 -0.69378,0.1591 -1.38851,0.1414 -2.09315,0.1471 -0.61958,0.024 -1.24144,0.057 -1.85075,0.203 -0.68645,0.1644 -1.36564,0.2585 -2.06854,0.202 -0.75388,0 -1.50776,0 -2.26163,0 -0.88318,0 -1.76634,0 -2.64952,0 -0.72242,0 -1.44484,0 -2.16726,0 -0.73986,0 -1.47972,0 -2.21959,0 -0.79305,0 -1.58611,0 -2.37916,0 -0.70772,10e-5 -1.41543,2e-4 -2.12314,-10e-5 -0.70928,-3e-4 -1.41856,-8e-4 -2.12782,0 -0.70742,0 -1.41485,-0.01 -2.12227,-0.01 -0.5868,0.01 -1.18411,0 -1.7573,0.1645 -0.44742,0.1855 -0.58313,0.5794 -0.73456,1.0968 -0.18531,0.7199 -0.39792,1.4538 -0.76711,2.0728 -0.32533,0.5038 -0.49908,1.1195 -0.84557,1.608 -0.37798,0.6739 -0.86381,1.2455 -1.33502,1.8289 -0.49408,0.6394 -1.08238,1.134 -1.71822,1.5618 -0.57078,0.3551 -1.15001,0.6976 -1.75025,0.9775 -0.85436,0.4283 -1.73184,0.7599 -2.63117,1.0313 -0.71201,0.2807 -1.04767,-0.9101 -0.33565,-1.1908 z"
       inkscape:connector-curvature="0" />
    <path
       style="fill:#000000;fill-opacity:1;stroke:none"
       id="path3003"
       d="m 255.63526,1008.9151 c 1.10938,0.016 2.21196,0.206 3.31818,0.305 1.22561,0.028 2.44153,0.1596 3.66021,0.3053 1.47168,0.1257 2.94024,0.3023 4.40415,0.5215 1.73852,0.3102 3.49299,0.4229 5.24807,0.4924 1.93966,0.1188 3.86826,0.3864 5.80197,0.5893 2.10682,0.341 4.22817,0.485 6.34621,0.6805 2.33246,0.1842 4.66212,0.4061 6.99381,0.6029 2.50479,0.3118 5.01668,0.4968 7.53309,0.6024 2.65419,0.2081 5.31072,0.3521 7.96975,0.4329 2.64154,0.067 5.2838,0.07 7.92582,0.074 2.47039,0 4.94078,0 7.41117,0 2.10365,0.041 4.20788,-0.049 6.30109,-0.3002 0.87076,-0.111 1.7399,-0.2307 2.60784,-0.369 0.74384,-0.1183 0.88536,1.1257 0.14153,1.2441 l 0,0 c -0.87963,0.1397 -1.7604,0.2616 -2.64289,0.3737 -2.12862,0.2527 -4.26798,0.3495 -6.40717,0.3066 -2.47095,0 -4.94189,0 -7.41283,0 -2.65069,0 -5.30161,-0.01 -7.95183,-0.074 -2.66248,-0.081 -5.32252,-0.2242 -7.98013,-0.4332 -2.52906,-0.1063 -5.05369,-0.2913 -7.57106,-0.6048 -2.33404,-0.1972 -4.66604,-0.4193 -7.00086,-0.6036 -2.12173,-0.1962 -4.24692,-0.3397 -6.35741,-0.6815 -1.91431,-0.2011 -3.82358,-0.4657 -5.74369,-0.5852 -1.78783,-0.071 -3.57504,-0.1866 -5.34609,-0.5016 -1.45493,-0.2188 -2.91468,-0.3924 -4.37734,-0.5179 -1.20995,-0.1447 -2.41672,-0.2745 -3.6336,-0.3026 -1.07956,-0.097 -2.15574,-0.2805 -3.23799,-0.3013 -0.75053,0 -0.75053,-1.2553 0,-1.2553 z"
       inkscape:connector-curvature="0" />
    <path
       style="fill:#000000;fill-opacity:1;stroke:none"
       id="path3005"
       d="m 252.34929,1028.4672 c 0.7791,0.6702 1.61292,1.1537 2.5011,1.5788 0.85024,0.4143 1.71681,0.7304 2.62456,0.9004 0.90627,0.085 1.80598,0.21 2.70792,0.3459 0.96243,0.1458 1.93287,0.1834 2.90192,0.2056 1.07342,0.017 2.14699,0.015 3.22048,0.014 1.17534,-9e-4 2.35068,0 3.52602,0 1.19484,-4e-4 2.38968,-4e-4 3.58452,-4e-4 1.22708,0.01 2.4468,-0.1981 3.66984,-0.3016 1.20943,-0.016 2.39963,-0.2078 3.58499,-0.476 1.16193,-0.2456 2.33005,-0.4456 3.46364,-0.8425 1.06953,-0.3984 2.1755,-0.6335 3.24566,-1.0275 0.97783,-0.2995 1.94103,-0.6561 2.90974,-0.9932 0.97442,-0.366 1.93149,-0.794 2.9229,-1.093 0.92453,-0.3545 1.86701,-0.636 2.79874,-0.9602 0.73705,-0.3783 1.50166,-0.6659 2.26199,-0.969 0.68918,-0.3794 1.38006,-0.7474 2.11067,-1.0004 0.59703,-0.2769 1.20804,-0.5046 1.79356,-0.8155 0.72023,-0.3245 1.43773,-0.6693 2.18449,-0.9025 0.74719,-0.3334 1.52202,-0.4983 2.31375,-0.5833 0.97289,-0.077 1.94871,-0.079 2.92338,-0.082 0.94523,-3e-4 1.89047,0 2.8357,0 0.76107,0 1.52214,0 2.28322,0 0.65691,-0.026 1.29252,0.2033 1.93889,0.3093 0.57708,0.2318 1.18187,0.333 1.76618,0.5259 0.54429,0.1499 1.03239,0.4755 1.56838,0.6528 0.57656,0.087 1.12577,0.3127 1.69374,0.4491 0.63339,0.1075 1.26504,0.1225 1.89127,0.2868 0.60306,0.1565 1.21212,0.2139 1.80943,0.4024 0.53825,0.175 1.03161,0.4648 1.58202,0.5945 0.65227,0.1688 1.27222,0.4459 1.9037,0.6934 0.51033,0.3134 1.05714,0.5101 1.58642,0.7696 0.59377,0.2686 1.19182,0.5214 1.79063,0.7748 0.68562,0.3365 1.37469,0.6718 2.08261,0.9377 0.7516,0.1575 1.44762,0.5327 2.16666,0.8166 0.63031,0.2311 1.29007,0.2779 1.94491,0.3089 0.6482,-9e-4 1.27479,0.2209 1.91414,0.3232 0.69025,0.034 1.36004,0.2347 2.03949,0.3644 0.67723,0.1187 1.3624,0.14 2.04573,0.1549 0.73813,0.01 1.47633,0.01 2.21449,0.01 0.85556,-9e-4 1.71112,0 2.56667,0 0.8325,-3e-4 1.66499,-2e-4 2.49748,-2e-4 0.71488,-0.038 1.38578,-0.3022 2.0712,-0.5121 0.66134,-0.3157 1.36573,-0.4816 2.01309,-0.8386 0.62871,-0.3813 1.32142,-0.5686 1.97303,-0.881 0.6446,-0.3825 1.33401,-0.6316 1.99891,-0.9519 0.5684,-0.2366 1.13481,-0.4769 1.70761,-0.6995 0.61539,-0.3179 1.26964,-0.5 1.91078,-0.728 0.67807,-0.2187 1.38057,-0.3589 2.03972,-0.6523 0.60941,-0.3037 1.26124,-0.4401 1.89666,-0.6435 0.30725,-0.055 0.58913,-0.2034 0.87712,-0.332 0.70215,-0.3135 1.07707,0.8608 0.37492,1.1743 l 0,0 c -0.31917,0.1424 -0.63629,0.3007 -0.97461,0.3692 -0.60667,0.1943 -1.22916,0.3225 -1.81108,0.6115 -0.68313,0.2869 -1.39454,0.4671 -2.09702,0.6748 -0.63351,0.2253 -1.27919,0.4052 -1.88734,0.7193 -0.55163,0.2109 -1.09605,0.4459 -1.64289,0.6717 -0.66896,0.3116 -1.35258,0.5732 -1.99932,0.9522 -0.63908,0.2979 -1.31041,0.495 -1.92747,0.858 -0.70865,0.3735 -1.46132,0.589 -2.18662,0.9111 -0.77171,0.235 -1.53104,0.5241 -2.33669,0.552 -0.83238,0 -1.66476,0 -2.49714,2e-4 -0.85526,3e-4 -1.71053,8e-4 -2.5658,0 -0.74513,10e-4 -1.4903,0.01 -2.23539,-0.01 -0.73359,-0.016 -1.46903,-0.041 -2.19581,-0.1708 -0.67097,-0.129 -1.33145,-0.3269 -2.01324,-0.3598 -0.60616,-0.099 -1.20058,-0.3053 -1.81369,-0.3126 -0.7551,-0.037 -1.5144,-0.1004 -2.23952,-0.3732 -0.71385,-0.2845 -1.40581,-0.6525 -2.15228,-0.811 -0.71861,-0.2734 -1.42156,-0.6058 -2.11716,-0.9515 -0.61509,-0.2607 -1.22915,-0.5215 -1.83933,-0.7971 -0.50562,-0.248 -1.03121,-0.4305 -1.51534,-0.7382 -0.5913,-0.2341 -1.17044,-0.4948 -1.78151,-0.6546 -0.57044,-0.1413 -1.09099,-0.4122 -1.64355,-0.6117 -0.58187,-0.1854 -1.1794,-0.2257 -1.76623,-0.3899 -0.61876,-0.1652 -1.2485,-0.1525 -1.87323,-0.2822 -0.59459,-0.1459 -1.17012,-0.3738 -1.77295,-0.4722 -0.53676,-0.1857 -1.02937,-0.4908 -1.57195,-0.6539 -0.52979,-0.1937 -1.09609,-0.2445 -1.61676,-0.4882 -0.59787,-0.1 -1.18629,-0.3097 -1.79213,-0.2972 -0.76147,-2e-4 -1.52294,-4e-4 -2.28442,0 -0.94384,0 -1.88768,0 -2.83153,0 -0.94411,0 -1.88931,0 -2.83179,0.078 -0.73418,0.076 -1.44727,0.2382 -2.13973,0.5474 -0.69196,0.2112 -1.35353,0.54 -2.02122,0.8349 -0.63121,0.3299 -1.28509,0.5854 -1.93001,0.8744 -0.7175,0.2424 -1.38541,0.6296 -2.06689,0.9841 -0.77407,0.3084 -1.55011,0.6061 -2.30275,0.9843 -0.94485,0.3257 -1.89818,0.6162 -2.83583,0.9721 -0.9792,0.2923 -1.92172,0.7248 -2.88486,1.0807 -0.96409,0.3345 -1.92217,0.6911 -2.89532,0.9881 -1.07621,0.3915 -2.18421,0.6388 -3.26014,1.0326 -1.16786,0.4029 -2.36639,0.6251 -3.56343,0.8711 -1.2261,0.277 -2.45799,0.4758 -3.70871,0.4952 -1.24819,0.1053 -2.49291,0.3127 -3.74546,0.3047 -1.19474,0 -2.38948,0 -3.58423,4e-4 -1.17523,5e-4 -2.35046,9e-4 -3.52569,0 -1.0806,7e-4 -2.16125,0 -3.24176,-0.014 -1.007,-0.023 -2.01536,-0.064 -3.01545,-0.2154 -0.91332,-0.1377 -1.8241,-0.262 -2.74156,-0.3516 -0.98612,-0.1886 -1.93114,-0.5247 -2.85497,-0.9764 -0.95448,-0.4568 -1.85168,-0.9861 -2.69164,-1.6979 -0.62448,-0.4923 -0.0357,-1.5367 0.58877,-1.0444 z"
       inkscape:connector-curvature="0" />
    <path
       style="fill:#000000;fill-opacity:1;stroke:none"
       id="path3007"
       d="m 326.74985,1017.2832 c 0.98807,0 1.97614,0 2.96421,0 0.80886,-0.025 1.60297,0.1947 2.40277,0.3076 0.68624,0.088 1.37691,0.1007 2.06641,0.11 0.70423,0.01 1.40849,0 2.11273,0 0.7077,0 1.41539,0 2.1231,0 0.70766,-2e-4 1.41533,-2e-4 2.12299,-2e-4 0.60608,0.012 1.19495,-0.1978 1.79318,-0.2971 0.52158,-0.2435 1.08864,-0.2943 1.61919,-0.4881 0.56314,-0.2818 1.18346,-0.2825 1.76571,-0.4592 0.47151,-0.2125 0.9574,-0.4281 1.41654,-0.6836 0.47214,-0.2844 1.01311,-0.3545 1.46324,-0.6917 0.49559,-0.3212 1.02187,-0.5893 1.55223,-0.8229 0.5458,-0.2294 1.10083,-0.4241 1.65152,-0.6383 0.55299,-0.2652 1.12609,-0.4955 1.67295,-0.7804 0.48391,-0.2804 1.03555,-0.3477 1.49455,-0.6893 0.49537,-0.3195 1.02056,-0.5875 1.5501,-0.8208 0.51969,-0.2312 1.06906,-0.3869 1.58472,-0.6283 0.5384,-0.2086 1.06901,-0.4365 1.60741,-0.6461 0.5967,-0.1421 1.18449,-0.2899 1.7752,-0.4654 0.56814,-0.107 1.12478,-0.2734 1.66451,-0.5108 0.67435,-0.3243 1.3903,-0.454 2.11033,-0.5308 0.72051,-0.059 1.44324,-0.057 2.16508,-0.057 0.74862,-0.057 1.4785,0.056 2.21392,0.2026 0.72109,0.083 1.41791,0.3178 2.12904,0.4694 0.64604,0.1919 1.26083,0.496 1.89588,0.7276 0.6743,0.2447 1.36344,0.4242 2.04272,0.6463 0.6732,0.1928 1.32593,0.468 1.96755,0.7748 0.63947,0.3142 1.28053,0.621 1.9093,0.9644 0.59641,0.3722 1.17834,0.7685 1.8244,1.0066 0.62247,0.3023 1.23799,0.6199 1.85705,0.9316 0.63409,0.3218 1.31859,0.4479 1.98343,0.6504 0.65907,0.2056 1.33839,0.2686 2.01646,0.3063 0.82549,0.056 1.65674,0.1896 2.46647,0.3911 0.80247,0.2709 1.63879,0.3116 2.45642,0.4777 0.84225,0.1863 1.69192,0.2858 2.53013,0.4965 0.72908,0.1837 1.4314,0.47 2.16795,0.617 0.73983,0.1493 0.56125,1.3866 -0.17858,1.2373 l 0,0 c -0.75045,-0.1529 -1.469,-0.4311 -2.21036,-0.6266 -0.82551,-0.2081 -1.66337,-0.301 -2.49265,-0.4878 -0.82919,-0.1766 -1.68158,-0.2041 -2.49567,-0.4868 -0.75111,-0.1952 -1.52764,-0.309 -2.29406,-0.3646 -0.75043,-0.043 -1.50174,-0.1168 -2.23095,-0.3446 -0.71661,-0.2183 -1.45395,-0.3566 -2.13543,-0.7115 -0.58736,-0.2977 -1.17424,-0.5929 -1.76183,-0.8898 -0.68602,-0.2619 -1.31735,-0.6533 -1.94783,-1.0632 -0.61409,-0.3355 -1.23999,-0.6357 -1.86498,-0.9417 -0.60285,-0.2936 -1.21895,-0.546 -1.85261,-0.7281 -0.68746,-0.2304 -1.38837,-0.4067 -2.07174,-0.6565 -0.59353,-0.2194 -1.17055,-0.4939 -1.77036,-0.6913 -0.70715,-0.1522 -1.39985,-0.3841 -2.11699,-0.467 -0.6774,-0.1356 -1.34539,-0.2435 -2.03578,-0.1849 -0.69078,7e-4 -1.38239,0 -2.07199,0.053 -0.62844,0.065 -1.25324,0.1732 -1.841,0.4598 -0.57552,0.2441 -1.16471,0.4407 -1.76978,0.5489 -0.56634,0.1675 -1.12961,0.3198 -1.70379,0.4412 -0.52358,0.2003 -1.03912,0.4247 -1.56173,0.627 -0.5254,0.2276 -1.06802,0.4051 -1.59355,0.6322 -0.47353,0.2023 -0.94042,0.4468 -1.38288,0.7278 -0.51247,0.3376 -1.0692,0.5037 -1.61097,0.7586 -0.58182,0.2878 -1.17646,0.5473 -1.76263,0.8201 -0.53917,0.2045 -1.08048,0.3953 -1.61275,0.6224 -0.47329,0.2021 -0.9402,0.4462 -1.38205,0.7279 -0.49744,0.3302 -1.03754,0.4965 -1.5616,0.7519 -0.52663,0.2752 -1.06467,0.5414 -1.60752,0.7611 -0.57124,0.1541 -1.16514,0.1859 -1.71653,0.4436 -0.58517,0.1931 -1.19084,0.2944 -1.7689,0.5261 -0.64664,0.1057 -1.28263,0.3345 -1.93969,0.3092 -0.70758,0 -1.41515,0 -2.12273,0 -0.70736,3e-4 -1.41473,7e-4 -2.1221,0 -0.70873,10e-4 -1.41749,0 -2.12621,0 -0.72758,-0.01 -1.45635,-0.025 -2.18037,-0.1188 -0.75797,-0.1076 -1.51075,-0.3157 -2.27659,-0.2987 -0.98807,0 -1.97614,0 -2.96421,0 -0.75054,0 -0.75054,-1.2553 0,-1.2553 z"
       inkscape:connector-curvature="0" />
    <path
       style="fill:#000000;fill-opacity:1;stroke:none"
       id="path3009"
       d="m 340.1944,1024.8143 c 0.98807,0 1.97614,0 2.96421,0 0.7799,0 1.55978,0 2.33968,0 0.70779,0 1.41559,0 2.12339,0 0.70649,0 1.41298,0 2.11947,0 0.66674,-0.043 1.34761,0.078 2.00884,-0.045 0.473,-0.1614 0.95707,-0.3753 1.40586,-0.6248 0.47399,-0.2514 0.96851,-0.4644 1.42168,-0.7671 0.43792,-0.2989 0.8604,-0.6298 1.29431,-0.9406 0.50359,-0.2543 0.91586,-0.6881 1.34676,-1.0766 0.45038,-0.5425 1.01746,-0.9064 1.60704,-1.1902 0.53085,-0.4047 1.15337,-0.5073 1.73835,-0.7359 0.61302,-0.276 1.26033,-0.3756 1.90975,-0.4357 0.70688,-0.049 1.41538,-0.047 2.1232,-0.047 0.70879,8e-4 1.41759,0 2.1264,0 0.74431,-0.062 1.47057,0.1307 2.20155,0.2598 0.63666,0.086 1.24014,0.3458 1.87274,0.4652 0.62361,0.025 1.21874,0.2412 1.82747,0.3772 0.62622,0.1217 1.26214,0.1366 1.89521,0.1504 0.50625,0.021 0.69925,0.062 0.83904,-0.504 0.12263,-0.6256 0.12627,-1.2539 0.02,-1.8794 -0.13682,-0.4761 -0.4009,-0.7498 -0.739,-1.0317 -0.43876,-0.4282 -0.96725,-0.5831 -1.51617,-0.6825 -0.588,-0.2051 -1.17922,-0.3615 -1.78887,-0.4372 -0.70112,-0.067 -1.40529,-0.065 -2.10822,-0.067 -0.78385,-9e-4 -1.56771,0 -2.35157,0 -0.7166,0 -1.4332,0 -2.1498,0 -0.70699,10e-5 -1.41397,10e-5 -2.12096,10e-5 -0.70743,0 -1.41486,0 -2.12228,0 -0.53595,-0.067 -0.94793,0.2394 -1.40203,0.5304 -0.55359,0.3334 -1.12637,0.6385 -1.62068,1.0889 -0.46284,0.3447 -0.91109,0.7066 -1.35286,1.0875 -0.59659,0.4236 -1.1794,0.8472 -1.83422,1.1337 -0.64263,0.2324 -1.26537,0.5006 -1.9298,0.6379 -0.58303,0.067 -1.14161,0.2947 -1.69317,0.5169 -0.69633,0.2183 -1.38155,0.481 -2.08716,0.6569 -0.72229,0.154 -1.42858,0.3793 -2.15663,0.5016 -0.70526,0.089 -1.40804,0.089 -2.10712,0.2342 -0.72218,0.1695 -1.45547,0.2402 -2.18966,0.2806 -0.65227,0.1754 -1.33305,0.207 -1.97968,0.4037 -0.47191,0.093 -0.59243,0.3519 -0.68986,0.8576 -0.0162,0.3208 0.14436,0.4835 0.29242,0.7249 0.43699,0.7216 -0.42596,1.4524 -0.86295,0.7309 l 0,0 c -0.32863,-0.548 -0.56285,-1.0721 -0.45706,-1.7702 0.21489,-0.9195 0.63406,-1.5755 1.46684,-1.7629 0.7172,-0.1979 1.45733,-0.2764 2.18129,-0.4378 0.6895,-0.037 1.37813,-0.1031 2.05619,-0.2634 0.71112,-0.1459 1.42386,-0.1633 2.1415,-0.2405 0.70499,-0.1164 1.38771,-0.3413 2.08749,-0.4874 0.66379,-0.1627 1.3065,-0.4163 1.96218,-0.6164 0.60416,-0.2434 1.21799,-0.4859 1.85569,-0.5657 0.60269,-0.1199 1.16298,-0.3767 1.74682,-0.5806 0.56518,-0.2374 1.05398,-0.621 1.573,-0.9695 0.43875,-0.3754 0.88048,-0.7393 1.34049,-1.0767 0.54561,-0.474 1.14561,-0.8422 1.75437,-1.1898 0.59907,-0.3783 1.19996,-0.7604 1.9046,-0.6801 0.70742,0 1.41486,0 2.12229,0 0.70693,0 1.41387,10e-5 2.1208,0 0.71622,0 1.43244,-2e-4 2.14866,0 0.78545,0 1.57089,0 2.35633,0 0.73932,0 1.47998,8e-4 2.21724,0.075 0.62616,0.08 1.24015,0.2209 1.84167,0.4454 0.71269,0.1359 1.4024,0.3615 1.97593,0.908 0.5407,0.4756 0.97906,1.0096 1.15565,1.8053 0.1385,0.8561 0.13047,1.7223 -0.0699,2.5673 -0.36913,1.0418 -0.90202,1.3753 -1.85058,1.3119 -0.69309,-0.016 -1.38916,-0.035 -2.07421,-0.1722 -0.5996,-0.1361 -1.18374,-0.3475 -1.79838,-0.3712 -0.62844,-0.1218 -1.22971,-0.3673 -1.86013,-0.4629 -0.67998,-0.1205 -1.35316,-0.3071 -2.04569,-0.2461 -0.7082,-9e-4 -1.41639,0 -2.12458,0 -0.68081,5e-4 -1.36223,0 -2.04222,0.043 -0.56854,0.051 -1.13448,0.1342 -1.67012,0.3806 -0.56636,0.2068 -1.15339,0.3224 -1.66577,0.7051 -0.50808,0.2339 -0.9748,0.5608 -1.35869,1.024 -0.46132,0.4131 -0.90465,0.877 -1.44065,1.152 -0.44869,0.3186 -0.88409,0.66 -1.33633,0.9691 -0.48347,0.3025 -0.98895,0.5551 -1.49189,0.8082 -0.54825,0.2843 -1.11706,0.5664 -1.69907,0.7242 -0.71353,0.1039 -1.4339,0.038 -2.15173,0.056 -0.70649,0 -1.41298,0 -2.11947,0 -0.7078,0 -1.4156,0 -2.12339,0 -0.7799,0 -1.55978,0 -2.33968,0 -0.98807,0 -1.97614,0 -2.96421,0 -0.75054,0 -0.75054,-1.2552 0,-1.2552 z"
       inkscape:connector-curvature="0" />
    <path
       style="fill:#000000;fill-opacity:1;stroke:none"
       id="path3011"
       d="m 378.68397,1024.3522 c 0.99795,-0.2293 1.97238,-0.5697 2.96109,-0.8432 0.92521,-0.3419 1.87981,-0.5346 2.82043,-0.8031 0.75827,-0.2383 1.52581,-0.4511 2.27938,-0.7104 0.64898,-0.1531 1.23948,-0.4714 1.83473,-0.7981 0.60621,-0.2688 1.15089,-0.6858 1.7464,-0.9837 0.67541,-0.4136 1.40405,-0.6256 2.15202,-0.7486 0.51445,0.01 0.26668,-0.013 0.74367,0.056 0.74452,0.1121 0.61043,1.3572 -0.13409,1.2451 l 0,0 c -0.31788,-0.052 -0.16257,-0.034 -0.46573,-0.057 -0.65829,0.1046 -1.29415,0.2949 -1.88651,0.6631 -0.58493,0.2847 -1.11221,0.7105 -1.70908,0.9642 -0.64428,0.3533 -1.28804,0.6933 -1.98801,0.8658 -0.76979,0.2593 -1.54988,0.4836 -2.3237,0.7242 -0.94339,0.2693 -1.90046,0.4632 -2.82851,0.8054 -1.01897,0.2799 -2.02234,0.6351 -3.05199,0.8634 -0.74299,0.1256 -0.89309,-1.117 -0.1501,-1.2426 z"
       inkscape:connector-curvature="0" />
    <path
       style="fill:#000000;fill-opacity:1;stroke:none"
       id="path3013"
       d="m 360.54801,973.58089 c -0.0768,0.94938 0.062,1.86325 0.31097,2.76005 0.17267,0.66227 0.43912,1.28541 0.71178,1.89706 0.3212,0.65403 0.73462,1.23264 1.05693,1.88495 0.37621,0.62338 0.81718,1.19605 1.25866,1.75604 0.46422,0.53619 0.96201,1.04325 1.51102,1.45578 0.44172,0.45597 0.98378,0.69309 1.50955,0.97465 0.56106,0.17916 1.08481,0.46444 1.61199,0.74872 0.56347,0.28642 1.17412,0.35323 1.77904,0.40033 0.59137,0.0416 1.17032,-0.16735 1.75364,-0.26511 0.69504,-0.10197 1.39617,-0.11495 2.09556,-0.12553 0.7094,-0.006 1.41884,-0.005 2.12826,-0.004 0.80238,-0.032 1.58037,0.21503 2.30539,0.6031 0.58377,0.30002 1.05781,0.80616 1.54565,1.27597 0.55215,0.44991 1.04397,1.00253 1.5323,1.54454 0.45052,0.55285 0.79741,1.18966 1.12722,1.84606 0.29576,0.68932 0.57183,1.39372 0.88653,2.07082 0.28164,0.66806 0.6093,1.30258 0.9584,1.92375 0.33699,0.70244 0.76073,1.32823 1.11842,2.01633 0.3559,0.75493 0.82784,1.41434 1.21785,2.14118 0.33872,0.63717 0.52463,1.34817 0.76883,2.03362 0.24922,0.5444 0.44321,1.1211 0.67094,1.6789 0.11589,0.2821 0.19202,0.5777 0.31533,0.8553 0.33734,0.7928 -0.61081,1.3571 -0.94816,0.5642 l 0,0 c -0.1212,-0.2928 -0.21955,-0.5886 -0.32853,-0.8875 -0.22594,-0.5833 -0.43739,-1.169 -0.69204,-1.7358 -0.21167,-0.6253 -0.38401,-1.26177 -0.68534,-1.84137 -0.38434,-0.73435 -0.86994,-1.39049 -1.22308,-2.15118 -0.35101,-0.67522 -0.76874,-1.28945 -1.0987,-1.97978 -0.36549,-0.6526 -0.71061,-1.31888 -1.00704,-2.01943 -0.30279,-0.66765 -0.58351,-1.35121 -0.86716,-2.0304 -0.27709,-0.55813 -0.56622,-1.0968 -0.94179,-1.57162 -0.46714,-0.52426 -0.94318,-1.05184 -1.47425,-1.48435 -0.42005,-0.40459 -0.82207,-0.85117 -1.32366,-1.11148 -0.57647,-0.33149 -1.21603,-0.50722 -1.85832,-0.48565 -0.70451,-9.1e-4 -1.40903,-0.004 -2.11354,0.004 -0.65442,0.01 -1.3105,0.0205 -1.96107,0.11337 -0.65577,0.10843 -1.30529,0.34209 -1.97249,0.27457 -0.73299,-0.0588 -1.46926,-0.15632 -2.14904,-0.51092 -0.527,-0.28491 -1.05021,-0.56145 -1.60958,-0.74742 -0.57084,-0.30664 -1.16346,-0.57231 -1.64569,-1.06239 -0.61968,-0.47664 -1.19218,-1.04014 -1.71471,-1.65765 -0.49317,-0.63173 -0.99412,-1.26892 -1.40038,-1.98353 -0.31948,-0.67089 -0.76698,-1.24513 -1.07594,-1.92579 -0.30026,-0.67402 -0.58947,-1.36362 -0.78172,-2.09242 -0.29709,-1.08029 -0.45292,-2.18746 -0.35276,-3.32738 0.10614,-0.87864 1.15688,-0.70113 1.05073,0.17751 z"
       inkscape:connector-curvature="0" />
    <path
       style="fill:#000000;fill-opacity:1;stroke:none"
       id="path3015"
       d="m 371.98834,992.82627 c 0.35887,1.03443 0.83712,1.99962 1.23779,3.0097 0.34704,0.70629 0.64454,1.44763 0.87511,2.21756 0.2214,0.60212 0.51213,1.15799 0.77213,1.73807 0.2748,0.6673 0.52079,1.3597 0.89986,1.9559 0.35933,0.6227 0.71566,1.2392 1.1044,1.8361 0.26744,0.5772 0.60958,1.046 1.01584,1.4813 0.44499,0.3471 0.93565,0.609 1.40433,0.9121 0.5547,0.3653 1.15833,0.5593 1.75744,0.7866 0.61175,0.2329 1.17079,0.5896 1.80138,0.7553 0.58617,0.12 1.1461,0.3501 1.73571,0.4561 0.65729,0.2125 1.32089,0.3686 1.99844,0.4513 0.68817,0.068 1.37933,0.07 2.0694,0.074 0.70709,0 1.41417,0 2.12126,0 0.34055,0.029 0.6731,0.1214 1.00678,0.2008 0.73576,0.1752 0.5262,1.4057 -0.20957,1.2305 l 0,0 c -0.26449,-0.063 -0.52814,-0.1338 -0.7958,-0.1761 -0.70912,0 -1.41824,0 -2.12737,0 -0.72524,0 -1.45163,-0.01 -2.17474,-0.081 -0.69417,-0.087 -1.37849,-0.2319 -2.05043,-0.4591 -0.61432,-0.1138 -1.19982,-0.342 -1.8096,-0.4728 -0.65992,-0.1814 -1.25626,-0.5212 -1.89134,-0.7846 -0.66171,-0.2541 -1.32833,-0.4764 -1.94127,-0.8802 -0.54087,-0.3504 -1.11554,-0.6408 -1.60798,-1.0836 -0.45202,-0.4859 -0.84669,-1.0059 -1.1437,-1.6453 -0.39388,-0.606 -0.7573,-1.2297 -1.12067,-1.8618 -0.39635,-0.6557 -0.69756,-1.3766 -0.98049,-2.1085 -0.28387,-0.63505 -0.6058,-1.24373 -0.8358,-1.91042 -0.21389,-0.7329 -0.51112,-1.42806 -0.83497,-2.10107 -0.39376,-1.00141 -0.87319,-1.95404 -1.22551,-2.97964 -0.33563,-0.79386 0.61372,-1.35521 0.94937,-0.56134 z"
       inkscape:connector-curvature="0" />
    <path
       style="fill:#000000;fill-opacity:1;stroke:none"
       id="path3017"
       d="m 160.14827,1013.0427 c -0.99553,-0.1634 -1.97128,-0.4525 -2.96634,-0.6248 -0.69084,-0.2372 -1.40171,-0.3698 -2.09934,-0.5683 -0.67827,-0.2158 -1.37249,-0.3243 -2.05509,-0.5179 -0.66205,-0.1978 -1.34224,-0.2636 -2.02191,-0.3024 -0.69883,-0.03 -1.39827,-0.027 -2.09745,-0.027 -0.7076,0 -1.4152,0 -2.12282,0 -0.70774,5e-4 -1.41548,5e-4 -2.12322,5e-4 -0.68554,0.03 -1.37861,-0.061 -2.05981,0.046 -0.76026,0.1777 -1.52756,0.2754 -2.30057,0.3248 -0.88343,0.045 -1.76779,0.048 -2.65185,0.051 -0.68967,0.047 -1.39437,-0.082 -2.07855,0.043 -0.71768,0.1677 -1.44315,0.2663 -2.17244,0.3245 -0.70622,0.1641 -1.413,0.3088 -2.12962,0.391 -0.63792,-0.017 -1.24561,0.1863 -1.86684,0.3205 -0.5881,0.1144 -1.14874,0.3482 -1.73905,0.4644 -0.61275,0.025 -1.19527,0.235 -1.79317,0.3704 -0.7193,0.1447 -1.4503,0.1584 -2.17788,0.1722 -0.73985,0.1141 -1.47413,0.2449 -2.1996,0.4505 -0.68451,0.2071 -1.38804,0.2532 -2.07058,0.4638 -0.65225,0.2161 -1.32708,0.2811 -2.00049,0.3209 -0.78663,-0.015 -1.52941,-0.3129 -2.28643,-0.5214 -0.81887,-0.3285 -1.62538,-0.6712 -2.47189,-0.8881 -0.85401,-0.2997 -1.72948,-0.4816 -2.61442,-0.5864 -0.68681,-0.1593 -1.36933,-0.3363 -2.0421,-0.5642 -0.63049,-0.2181 -1.285,-0.282 -1.9377,-0.3221 -0.61959,-0.1348 -1.23037,-0.2977 -1.85809,-0.3731 -0.66352,0 -1.30521,-0.113 -1.95254,-0.2735 -0.68607,-0.1749 -1.39052,-0.141 -2.08213,-0.2576 -0.733199,-0.1717 -1.474196,-0.2741 -2.219452,-0.331 -0.716783,-0.062 -1.437402,0 -2.150506,-0.1021 -0.599045,-0.1628 -1.204699,-0.2626 -1.817159,-0.3148 -0.475728,-0.092 -0.946361,-0.2129 -1.422244,-0.304 -0.740799,-0.1424 -0.570419,-1.3814 0.17038,-1.2389 l 0,0 c 0.444907,0.086 0.886372,0.1902 1.328963,0.2911 0.634668,0.055 1.264362,0.1511 1.884779,0.3232 0.682958,0.1265 1.386815,0 2.074595,0.093 0.774884,0.06 1.54588,0.1639 2.308324,0.3422 0.70867,0.1347 1.43944,0.067 2.14225,0.2704 0.61219,0.1518 1.2149,0.2513 1.84337,0.2534 0.60945,0.075 1.20766,0.2092 1.80515,0.3681 0.73272,0.046 1.46672,0.1238 2.17423,0.369 0.61245,0.2075 1.2331,0.3657 1.85648,0.522 0.92474,0.1112 1.8413,0.2956 2.73397,0.6089 0.85105,0.2207 1.6688,0.5461 2.48827,0.8925 0.66095,0.1846 1.30754,0.443 1.99134,0.4897 0.60111,-0.035 1.20403,-0.087 1.78619,-0.2821 0.69019,-0.2112 1.39721,-0.2723 2.09038,-0.4697 0.80041,-0.2263 1.61199,-0.3747 2.4298,-0.4848 0.66674,-0.013 1.33677,-0.022 1.99646,-0.1502 0.60608,-0.1353 1.19864,-0.3505 1.81942,-0.3758 0.58437,-0.1116 1.13697,-0.3571 1.72128,-0.4609 0.64964,-0.1388 1.28849,-0.3474 1.95493,-0.3349 0.72724,-0.082 1.44141,-0.2449 2.16034,-0.3939 0.70592,-0.056 1.40736,-0.1547 2.10207,-0.3162 0.73535,-0.1059 1.47795,-0.034 2.21756,-0.054 0.86594,0 1.73218,-0.01 2.59751,-0.049 0.75008,-0.047 1.49333,-0.1473 2.2312,-0.3178 0.72586,-0.095 1.45633,-0.042 2.18583,-0.055 0.70747,0 1.41494,-10e-5 2.12241,-6e-4 0.70767,-7e-4 1.41535,0 2.12301,0 0.71666,-6e-4 1.43359,0 2.14986,0.027 0.74564,0.044 1.4915,0.1191 2.21779,0.3357 0.6842,0.1942 1.38091,0.3001 2.06051,0.5193 0.66291,0.1973 1.3454,0.3043 2.00064,0.5456 0.99356,0.1732 1.96855,0.4572 2.9621,0.624 0.74299,0.1255 0.59288,1.3681 -0.15011,1.2426 z"
       inkscape:connector-curvature="0" />
    <path
       style="fill:#000000;fill-opacity:1;stroke:none"
       id="path3019"
       d="m 147.69653,1028.2295 c -0.85619,0.2627 -1.70348,0.5503 -2.55353,0.8397 -0.7059,0.342 -1.43851,0.5568 -2.1926,0.6765 -0.72344,0.092 -1.45206,0.093 -2.17877,0.096 -0.70835,10e-5 -1.41669,0 -2.12501,-0.01 -0.70737,-9e-4 -1.41474,0 -2.1221,0 -0.70758,-10e-5 -1.41516,-10e-5 -2.12275,0 -0.7442,0.063 -1.47041,-0.13 -2.2013,-0.2589 -0.60058,-0.2152 -1.1972,-0.4103 -1.82085,-0.5014 -0.61395,-0.059 -1.20189,-0.2864 -1.81127,-0.3903 -0.57612,-0.2337 -1.18075,-0.3314 -1.76483,-0.5226 -0.58193,-0.2503 -1.1376,-0.543 -1.74709,-0.692 -0.64528,-0.3062 -1.33402,-0.3869 -2.00768,-0.5552 -0.736,-0.2093 -1.43894,-0.5315 -2.18458,-0.6987 -0.70509,-0.1291 -1.39325,-0.3469 -2.1015,-0.4588 -0.61954,-0.1851 -1.24058,-0.3499 -1.84169,-0.6073 -0.55008,-0.2451 -1.14207,-0.2427 -1.71175,-0.3754 -0.62581,-0.1502 -1.21708,-0.4349 -1.83863,-0.6043 -0.69874,-0.1858 -1.40501,-0.3514 -2.09851,-0.5646 -0.66063,-0.2452 -1.34311,-0.3593 -2.03096,-0.4222 -0.70137,-0.036 -1.39406,-0.018 -2.08497,-0.1787 -0.59593,-0.1656 -1.20558,-0.2221 -1.81518,-0.2571 -0.69023,-0.03 -1.38106,-0.028 -2.07164,-0.028 -0.66727,0.044 -1.3488,-0.076 -2.0105,0.047 -0.49359,0.101 -0.98445,0.2787 -1.426821,0.5611 -0.54903,0.3615 -1.171404,0.4965 -1.770302,0.6961 -0.589474,0.1671 -1.198162,0.3011 -1.752593,0.6016 -0.587273,0.3562 -1.231032,0.4816 -1.880053,0.5564 -0.719715,0.1069 -1.375539,-0.1343 -1.969855,-0.598 -0.477573,-0.348 -0.817487,-0.8816 -1.221507,-1.3273 -0.414178,-0.5523 -0.799171,-1.111 -1.24647,-1.625 -0.4037,-0.5069 -0.71763,-1.0855 -1.018863,-1.6801 -0.137973,-0.2032 -0.25667,-0.4168 -0.406923,-0.6079 -0.500244,-0.6617 0.291025,-1.4983 0.791269,-0.8366 l 0,0 c 0.189877,0.2571 0.360712,0.5233 0.52757,0.8022 0.251725,0.5035 0.511367,0.9907 0.84724,1.4229 0.443735,0.5117 0.836147,1.0563 1.23701,1.6143 0.360167,0.4095 0.671598,0.8853 1.096786,1.207 0.363161,0.3344 0.809058,0.4401 1.262411,0.3791 0.539375,-0.06 1.072234,-0.1552 1.558337,-0.4582 0.606556,-0.3014 1.244697,-0.4996 1.887823,-0.6586 0.53176,-0.1771 1.086862,-0.29 1.575695,-0.606 0.557871,-0.3254 1.147756,-0.5794 1.765636,-0.6867 0.71437,-0.1047 1.43577,-0.04 2.15449,-0.058 0.70777,3e-4 1.41581,0 2.1232,0.03 0.66157,0.038 1.32314,0.102 1.97014,0.2798 0.64824,0.1547 1.30223,0.1097 1.96069,0.1584 0.7511,0.07 1.49701,0.1948 2.21901,0.4598 0.68189,0.2164 1.38084,0.3704 2.06891,0.5559 0.61303,0.1707 1.1982,0.4399 1.81363,0.5978 0.61384,0.1632 1.26631,0.1261 1.85739,0.4243 0.53027,0.2274 1.0778,0.3661 1.62181,0.5434 0.72763,0.1168 1.43562,0.3344 2.15969,0.4701 0.75276,0.1725 1.46714,0.4789 2.20734,0.7041 0.67056,0.1734 1.36272,0.2406 2.00416,0.5542 0.63323,0.1608 1.22183,0.4364 1.82189,0.7141 0.53229,0.193 1.10114,0.2418 1.62401,0.4867 0.60254,0.105 1.18477,0.321 1.7904,0.3869 0.63035,0.095 1.24329,0.2633 1.84542,0.5054 0.67952,0.1203 1.35228,0.3068 2.04434,0.2451 0.70765,0 1.4153,0 2.12295,10e-5 0.70795,0 1.4159,2e-4 2.12384,0 0.70646,0 1.41291,0 2.11937,0 0.68142,0 1.36459,0 2.04321,-0.085 0.70329,-0.1083 1.38011,-0.3231 2.03865,-0.6384 0.83592,-0.2837 1.66851,-0.5698 2.51111,-0.8242 0.71202,-0.2807 1.04767,0.9101 0.33565,1.1907 z"
       inkscape:connector-curvature="0" />
    <path
       style="fill:#000000;fill-opacity:1;stroke:none"
       id="path3021"
       d="m 96.463569,1015.5532 c -1.051527,-0.1716 -2.111497,-0.2553 -3.171177,-0.3157 -0.803546,-0.042 -1.607937,-0.046 -2.412106,-0.049 -0.707915,-4e-4 -1.415829,0 -2.123745,0 -0.479161,0.022 -0.835045,0.2936 -1.212949,0.6031 -0.339467,0.4228 -0.789973,0.6797 -1.160176,1.0582 -0.510154,0.4779 -1.142213,0.7355 -1.757893,0.9597 -0.697489,0.2584 -1.43459,0.2114 -2.147366,0.3457 -0.656629,0.1541 -1.319762,0.2227 -1.964968,0.4348 -0.581588,0.1274 -1.122429,0.4045 -1.694442,0.5747 -0.279255,0.032 -0.537809,0.1507 -0.802027,0.2519 -0.71411,0.2731 -1.040742,-0.9212 -0.326633,-1.1943 l 0,0 c 0.28653,-0.1094 0.572106,-0.2341 0.873065,-0.2759 0.563016,-0.1623 1.094112,-0.4458 1.666892,-0.5662 0.687075,-0.224 1.390538,-0.3087 2.089956,-0.4662 0.664296,-0.1134 1.344076,-0.094 1.99629,-0.3053 0.480759,-0.1708 0.981885,-0.3629 1.386311,-0.7219 0.404083,-0.3912 0.862159,-0.6932 1.236807,-1.1272 0.555175,-0.4546 1.121855,-0.8027 1.816156,-0.8262 0.709089,-9e-4 1.418178,0 2.127268,0 0.820405,0 1.641031,0.01 2.460792,0.05 1.092751,0.063 2.185755,0.1494 3.27005,0.3269 0.742988,0.1255 0.592882,1.3681 -0.150105,1.2426 z"
       inkscape:connector-curvature="0" />
    <path
       style="fill:#000000;fill-opacity:1;stroke:none"
       id="path3023"
       d="m 126.02369,1021.1898 c 0.006,0.9321 0.25989,1.6879 0.67857,2.4507 0.315,0.5189 0.71507,0.8954 1.16413,1.2381 0.46319,0.2823 0.99267,0.3074 1.50268,0.341 0.68917,0.029 1.37899,0.022 2.06847,0.019 0.70937,0 1.41875,0 2.12812,-0.01 0.70799,-7e-4 1.41599,-6e-4 2.12398,-6e-4 0.70761,0 1.41521,0 2.12281,0 0.70761,0 1.4152,0 2.12282,0 0.7076,0 1.4152,0 2.12282,0 0.7429,-0.021 1.47525,-0.015 2.20928,0.1275 0.64414,0.1197 1.24034,0.4342 1.88097,0.5785 0.40374,0.091 0.85655,0.4323 1.25427,0.3666 -0.83048,0.4371 0.0781,1.0362 -0.92462,0.3129 -0.44138,-0.3849 -0.92746,-0.6384 -1.41758,-0.9157 -0.52589,-0.2258 -1.00375,-0.5424 -1.47114,-0.9015 -0.39229,-0.4191 -0.85825,-0.713 -1.27028,-1.1018 -0.36973,-0.3787 -0.75737,-0.7164 -1.17005,-1.0279 -0.48083,-0.2946 -1.03425,-0.2945 -1.55611,-0.4082 -0.66933,-0.19 -1.35122,-0.2848 -2.03677,-0.3379 -0.69705,-0.043 -1.39527,-0.042 -2.09304,-0.043 -0.7074,3e-4 -1.4148,0 -2.1222,0 -0.68049,0.031 -1.33909,-0.1695 -1.96466,-0.467 -0.59058,-0.277 -1.18434,-0.5425 -1.78091,-0.8022 -0.63584,-0.4089 -1.34345,-0.5567 -2.02613,-0.801 -0.55916,-0.2524 -1.14669,-0.3474 -1.73924,-0.4014 -0.62934,-0.027 -1.23497,-0.25 -1.85718,-0.3521 -0.45359,-0.085 -0.85962,-0.1254 -1.21369,0.256 -0.0214,0.042 -0.0427,0.083 -0.0642,0.1247 -0.46694,0.6948 -1.29792,-0.086 -0.83099,-0.781 l 0,0 c 0.082,-0.1122 0.16396,-0.2245 0.24594,-0.3367 0.6157,-0.5271 1.25856,-0.6783 2.01021,-0.506 0.60092,0.1005 1.18633,0.3099 1.79266,0.3437 0.67023,0.063 1.33616,0.1731 1.96978,0.4535 0.69665,0.2616 1.42965,0.3973 2.07986,0.8226 0.60643,0.2646 1.20983,0.5356 1.81081,0.8157 0.49911,0.2387 1.02181,0.4088 1.56666,0.376 0.70823,-8e-4 1.41647,0 2.12471,0 0.72064,9e-4 1.44177,8e-4 2.16162,0.046 0.72824,0.058 1.45317,0.1567 2.16448,0.3571 0.65534,0.1524 1.34653,0.1523 1.93325,0.5863 0.44321,0.3402 0.86527,0.7055 1.26627,1.1107 0.37277,0.3733 0.82641,0.6162 1.17791,1.0219 0.4308,0.3317 0.86897,0.619 1.35619,0.8248 0.51695,0.3033 1.03869,0.5733 1.50984,0.9755 0.45149,0.332 1.31254,0.7756 0.9574,1.6269 -0.0743,0.1782 -0.26596,0.2429 -0.39893,0.3643 -0.57498,0.086 -1.10883,-0.1504 -1.64621,-0.3692 -0.63087,-0.1468 -1.22226,-0.4339 -1.85189,-0.5724 -0.67626,-0.1333 -1.35133,-0.1257 -2.03636,-0.1107 -0.70761,0 -1.41522,0 -2.12282,0 -0.70762,0 -1.41522,0 -2.12282,-10e-5 -0.7076,0 -1.41519,0 -2.12279,0 -0.70763,0 -1.41527,0 -2.1229,7e-4 -0.70864,9e-4 -1.41728,0 -2.1259,0.01 -0.71066,0 -1.42169,0.01 -2.13199,-0.022 -0.69756,-0.047 -1.40644,-0.1177 -2.02376,-0.5439 -0.56673,-0.4434 -1.08206,-0.9388 -1.47388,-1.6062 -0.52789,-0.9668 -0.83744,-1.9653 -0.84895,-3.1328 0,-0.8875 1.06141,-0.8875 1.06141,0 z"
       inkscape:connector-curvature="0" />
    <path
       style="fill:#000000;fill-opacity:1;stroke:none"
       id="path3025"
       d="m 111.04458,973.351 c -1.02165,0 -2.04331,0 -3.06496,0 -0.77576,0.0156 -1.50065,0.30969 -2.22399,0.60952 -0.68842,0.35606 -1.38576,0.67475 -2.04625,1.10095 -0.5448,0.29445 -1.01286,0.73628 -1.48658,1.162 -0.34484,0.41167 -0.6414,0.88302 -0.80326,1.43336 -0.15345,0.68841 -0.15619,1.40655 -0.16692,2.11366 -0.006,0.83185 -9.3e-4,1.66377 0.001,2.49564 0.002,0.83837 0.003,1.67674 0.003,2.51511 2.5e-4,0.83698 2e-4,1.67396 1.8e-4,2.51094 -2e-5,0.83679 -3e-5,1.67357 -4e-5,2.51036 0,0.83681 0,1.6736 0,2.5104 0.002,0.79996 -0.14263,1.60323 -0.3178,2.37398 -0.1755,0.73443 -0.46844,1.42432 -0.7672,2.0983 -0.246383,0.63082 -0.535447,1.24677 -0.859761,1.82674 -0.348445,0.57434 -0.691409,1.15821 -1.05293,1.72194 -0.33503,0.5016 -0.646705,1.0153 -0.933989,1.5575 -0.339948,0.563 -0.747131,1.0594 -1.162434,1.5444 -0.522365,0.4755 -1.114971,0.8409 -1.744503,1.0709 -0.689751,0.2021 -1.403864,0.2136 -2.110281,0.2277 -0.710379,0.01 -1.4208,0 -2.131191,0 -0.650359,-0.089 -1.290993,-0.2448 -1.908752,-0.5001 -0.772401,-0.2045 -1.169683,-0.8297 -1.389423,-1.6844 -0.08038,-0.9122 0.07702,-1.8188 0.268123,-2.69814 0.14863,-0.83507 0.474111,-1.60575 0.808748,-2.35535 0.351135,-0.7916 0.66471,-1.60866 1.050518,-2.37767 0.305737,-0.61169 0.561076,-1.25589 0.855806,-1.87408 0.226037,-0.58744 0.51143,-1.13822 0.765432,-1.70913 0.187017,-0.65367 0.563471,-1.18912 0.823404,-1.79674 0.31587,-0.50632 0.472742,-1.10288 0.679933,-1.67449 0.150637,-0.74079 0.442679,-1.41755 0.673581,-2.12463 0.283743,-0.80996 0.62079,-1.59016 0.827068,-2.43434 0.243881,-0.7559 0.517493,-1.4968 0.784841,-2.2414 0.240692,-0.80594 0.658075,-1.509 1.014593,-2.24692 0.288471,-0.73353 0.68867,-1.38047 1.11327,-2.00835 0.320942,-0.51632 0.597346,-1.06055 0.866801,-1.61605 0.288716,-0.48258 0.585284,-0.97364 0.791964,-1.51427 0.238571,-0.68206 0.564142,-1.29922 0.914554,-1.90611 0.413124,-0.55413 0.778949,-1.15347 1.177058,-1.72138 0.38094,-0.72655 0.93642,-1.24393 1.47973,-1.78528 0.58261,-0.5972 1.29658,-0.80814 2.04153,-0.91873 0.64131,-0.008 1.25907,-0.0929 1.88601,-0.24064 0.56665,-0.0816 1.1182,-0.24725 1.65305,-0.48291 0.67349,-0.32506 1.38867,-0.4555 2.10807,-0.53263 0.48283,-0.0427 0.9671,-0.0492 1.451,-0.0556 0.75048,-0.01 0.76218,1.24534 0.0117,1.25513 l 0,0 c -0.45623,0.005 -0.9128,0.0116 -1.36808,0.0506 -0.62799,0.0655 -1.25215,0.17441 -1.83922,0.46174 -0.58702,0.24883 -1.18855,0.44758 -1.80906,0.53459 -0.65209,0.15368 -1.29842,0.25024 -1.96476,0.25558 -0.54182,0.0756 -1.06277,0.1959 -1.48757,0.63393 -0.4981,0.49343 -1.00361,0.95825 -1.34752,1.62846 -0.37979,0.53359 -0.7167,1.11006 -1.115687,1.62542 -0.318827,0.551 -0.616983,1.10743 -0.829701,1.73042 -0.229597,0.5661 -0.516458,1.10544 -0.833402,1.60828 -0.297865,0.60901 -0.603566,1.20743 -0.95774,1.77364 -0.390604,0.57687 -0.758978,1.16952 -1.020502,1.84699 -0.336616,0.69608 -0.732774,1.35595 -0.959604,2.11601 -0.252691,0.69868 -0.503946,1.39716 -0.742765,2.10248 -0.219896,0.87695 -0.551789,1.6967 -0.85622,2.53571 -0.237798,0.72045 -0.528604,1.41093 -0.687515,2.16497 -0.217092,0.5982 -0.383891,1.22725 -0.713237,1.75774 -0.270621,0.6063 -0.630678,1.15312 -0.827409,1.80578 -0.261966,0.58266 -0.550552,1.14672 -0.783042,1.7469 -0.307741,0.61779 -0.548547,1.28252 -0.866205,1.89504 -0.383195,0.74442 -0.673969,1.55264 -1.022927,2.31988 -0.297923,0.66111 -0.589552,1.34173 -0.718587,2.08025 -0.146219,0.6706 -0.25671,1.3464 -0.275155,2.0416 0.107222,0.5078 0.254684,0.7337 0.719452,0.8433 0.506935,0.2105 1.029203,0.3328 1.560697,0.4296 0.703552,0 1.407133,0.01 2.110673,10e-5 0.609152,-0.012 1.225048,-0.017 1.822444,-0.1747 0.471147,-0.1607 0.901391,-0.4454 1.307327,-0.7656 0.360239,-0.4128 0.706855,-0.8426 1.007512,-1.3175 0.306833,-0.5717 0.636037,-1.1188 0.98897,-1.65082 0.353205,-0.53818 0.677732,-1.10767 1.014739,-1.65908 0.311242,-0.53457 0.566738,-1.12359 0.800561,-1.70927 0.263957,-0.59511 0.528258,-1.20088 0.683972,-1.84894 0.158731,-0.65831 0.276721,-1.35594 0.279631,-2.04042 0,-0.8368 0,-1.67361 10e-6,-2.51041 0,-0.8368 1e-5,-1.67359 4e-5,-2.51038 1e-5,-0.83677 6e-5,-1.67353 -1.9e-4,-2.5103 -3.4e-4,-0.83716 -9.2e-4,-1.67434 -0.003,-2.51151 -0.002,-0.84089 -0.008,-1.68181 -0.001,-2.52268 0.0132,-0.84712 0.0238,-1.70683 0.23225,-2.52496 0.24762,-0.76679 0.64173,-1.44538 1.15715,-1.99879 0.51656,-0.46379 1.03083,-0.94045 1.62248,-1.26576 0.71192,-0.45447 1.45906,-0.80721 2.20224,-1.18258 0.83576,-0.3444 1.67828,-0.66952 2.57412,-0.67978 1.02166,0 2.04331,0 3.06496,0 0.75054,0 0.75054,1.25521 0,1.25521 z"
       inkscape:connector-curvature="0" />
    <path
       style="fill:#000000;fill-opacity:1;stroke:none"
       id="path3027"
       d="m 97.365574,986.46257 c 0,1.16848 0,2.33695 0,3.50542 -0.0235,0.86516 -0.270559,1.67022 -0.611159,2.4254 -0.348079,0.48931 -0.730747,0.92216 -1.078508,1.40977 -0.351834,0.36146 -0.694834,0.76288 -0.912172,1.25611 -0.162035,0.55197 -0.250049,1.16696 -0.18497,1.74899 0.121429,0.30273 0.413406,0.22154 0.639958,0.13246 0.462657,-0.19883 0.881454,-0.534 1.302924,-0.83583 0.32541,-0.40585 0.679865,-0.78304 1.014731,-1.18387 0.352987,-0.45647 0.628324,-0.9028 0.766814,-1.50166 0.155092,-0.62618 0.01201,-1.22874 -0.07505,-1.85095 -0.02234,-0.0764 -0.04467,-0.15278 -0.06701,-0.22917 -0.226521,-0.84617 0.785393,-1.22502 1.011915,-0.37884 l 0,0 c 0.03409,0.13442 0.0682,0.26885 0.102293,0.40327 0.112447,0.80504 0.258923,1.59869 0.04735,2.405 -0.201788,0.79394 -0.552263,1.43351 -1.032035,2.03548 -0.395998,0.47209 -0.803326,0.93386 -1.219912,1.37495 -0.518793,0.37012 -1.036796,0.78051 -1.621011,0.98673 -0.884614,0.19174 -1.695108,-0.0936 -1.927244,-1.23445 -0.057,-0.84214 0.02225,-1.7025 0.313433,-2.48171 0.267044,-0.54878 0.609677,-1.06362 1.030909,-1.45893 0.305352,-0.42161 0.608295,-0.83282 0.958265,-1.20374 0.274522,-0.55564 0.442169,-1.17692 0.479083,-1.81901 0,-1.16847 0,-2.33694 0,-3.50542 0,-0.88756 1.061412,-0.88756 1.061412,0 z"
       inkscape:connector-curvature="0" />
    <path
       style="fill:#000000;fill-opacity:1;stroke:none"
       id="path3029"
       d="m 119.39681,959.14617 c -0.48636,0.90491 -0.96562,1.81325 -1.42952,2.73495 -0.3524,0.58506 -0.80912,1.05965 -1.17974,1.63001 -0.35913,0.47596 -0.82673,0.80044 -1.21122,1.24537 -0.48937,0.48401 -0.87547,1.07421 -1.30586,1.62561 -0.43326,0.48826 -0.91532,0.9145 -1.33661,1.41693 -0.46322,0.55387 -1.05411,0.90144 -1.59168,1.33432 -0.50038,0.39606 -1.05733,0.67733 -1.57445,1.03659 -0.53226,0.3146 -1.01372,0.72862 -1.54139,1.05106 -0.44526,0.20466 -0.21814,0.11564 -0.68151,0.26654 -0.72506,0.22928 -0.99925,-0.98332 -0.27419,-1.2126 l 0,0 c 0.3251,-0.0985 0.16708,-0.0404 0.47442,-0.1727 0.51547,-0.3034 0.97474,-0.7254 1.49503,-1.02142 0.50097,-0.33355 1.02415,-0.62099 1.50925,-0.98863 0.48606,-0.38366 1.01357,-0.69944 1.4375,-1.18485 0.41684,-0.48225 0.87056,-0.917 1.30435,-1.37746 0.4439,-0.56647 0.84612,-1.1716 1.34575,-1.67394 0.3528,-0.40258 0.75696,-0.72408 1.1135,-1.11652 0.34893,-0.52382 0.75069,-0.98758 1.10504,-1.50085 0.47383,-0.93932 0.96243,-1.86575 1.45818,-2.78867 0.41632,-0.7385 1.29946,-0.0422 0.88315,0.69626 z"
       inkscape:connector-curvature="0" />
    <path
       style="fill:#000000;fill-opacity:1;stroke:none"
       id="path3031"
       d="m 104.03087,961.69843 c -0.66263,0.57159 -1.33133,1.14483 -1.93618,1.80185 -0.36653,0.50248 -0.91382,0.79246 -1.27636,1.28866 -0.33195,0.48741 -0.75351,0.85454 -1.141057,1.27496 -0.50374,0.53896 -0.979041,1.09328 -1.431091,1.69084 -0.301724,0.52493 -0.59356,1.05737 -0.900558,1.5798 -0.277053,0.5157 -0.51039,1.05259 -0.715538,1.61401 -0.352718,0.77839 -0.698228,1.55746 -1.000105,2.3664 -0.310343,0.95838 -0.694119,1.89216 -0.886648,2.89655 -0.1714,0.86411 -1.204762,0.57745 -1.033363,-0.28666 l 0,0 c 0.219436,-1.07778 0.603178,-2.09051 0.949413,-3.11789 0.302192,-0.80536 0.639905,-1.58698 0.99735,-2.35898 0.235235,-0.63628 0.50332,-1.24609 0.818382,-1.83161 0.332993,-0.56261 0.638819,-1.14506 0.980682,-1.6994 0.476756,-0.62767 0.976377,-1.21259 1.50556,-1.77976 0.370119,-0.3985 0.773202,-0.73773 1.084013,-1.20849 0.41225,-0.49675 0.92383,-0.85312 1.33476,-1.35658 0.62607,-0.66925 1.30281,-1.27203 1.98768,-1.85385 0.58607,-0.55446 1.24913,0.42569 0.66306,0.98015 z"
       inkscape:connector-curvature="0" />
    <path
       style="fill:#000000;fill-opacity:1;stroke:none"
       id="path3033"
       d="m 88.817303,1008.1409 c -0.705669,0.6092 -1.477991,1.0948 -2.220908,1.6332 -0.636264,0.4232 -1.226857,0.9307 -1.858555,1.3635 -0.537641,0.4862 -1.098111,0.9287 -1.672548,1.352 -0.393115,0.4099 -0.884454,0.6496 -1.288699,1.0398 -0.437552,0.3272 -0.863449,0.6667 -1.282967,1.0254 -0.04556,0.051 -0.09114,0.1024 -0.136708,0.1536 -0.554048,0.5987 -1.270048,-0.3279 -0.715998,-0.9267 l 0,0 c 0.07743,-0.082 0.154862,-0.1635 0.232293,-0.2453 0.408813,-0.3467 0.819541,-0.6843 1.248197,-0.9945 0.445472,-0.4034 0.948468,-0.6981 1.383858,-1.1185 0.585875,-0.4287 1.1486,-0.8887 1.702206,-1.373 0.625827,-0.4249 1.206063,-0.9336 1.836825,-1.3483 0.706922,-0.5065 1.434828,-0.974 2.109945,-1.5413 0.586067,-0.5545 1.249126,0.4257 0.663059,0.9801 z"
       inkscape:connector-curvature="0" />
    <path
       style="fill:#000000;fill-opacity:1;stroke:none"
       id="path3035"
       d="m 75.902882,1024.3959 c 0.988074,0 1.976147,0 2.964219,0 0.77989,0 1.559781,0 2.339673,0 0.633138,0.097 1.252813,0.2685 1.888735,0.346 0.784566,0.019 1.553571,0.2048 2.328475,0.3322 0.608643,0.067 1.20875,0.1213 1.80576,0.2815 0.73167,0.1977 0.495209,1.4214 -0.236461,1.2237 l 0,0 c -0.566685,-0.1545 -1.138011,-0.1892 -1.715762,-0.262 -0.763015,-0.1259 -1.519424,-0.3094 -2.292067,-0.327 -0.599034,-0.075 -1.187029,-0.2099 -1.77868,-0.3391 -0.779892,0 -1.559783,0 -2.339673,0 -0.988072,0 -1.976145,0 -2.964219,0 -0.750532,0 -0.750532,-1.2553 0,-1.2553 z"
       inkscape:connector-curvature="0" />
    <path
       style="fill:#000000;fill-opacity:1;stroke:none"
       id="path3037"
       d="m 229.37872,1012.2186 c 0.90889,-0.1469 1.79185,-0.4481 2.69789,-0.6227 0.70227,-0.2626 1.44672,-0.3217 2.15411,-0.5455 0.5738,-0.2103 1.17569,-0.302 1.72293,-0.6044 0.61234,-0.3866 1.28283,-0.5439 1.9652,-0.6337 0.71141,-0.07 1.42605,-0.066 2.13935,-0.067 0.74876,-0.057 1.47877,0.057 2.21428,0.2035 0.7825,0.1532 1.55633,0.3714 2.31099,0.6605 0.63649,0.3474 1.3081,0.5749 1.95875,0.878 0.57009,0.3315 1.07585,0.7619 1.46269,1.3586 0.34184,0.5153 0.61626,1.1026 0.83968,1.7017 0.21846,0.681 0.45168,1.3025 0.45335,2.0432 0.0308,0.037 -0.34199,1.3535 -0.11659,0.9862 0.48769,0.1267 0.98922,0.1277 1.486,0.1363 0.70768,0 1.41537,0 2.12304,-0.01 0.62408,0.07 1.2182,-0.12 1.82579,-0.2469 0.64012,-0.2265 1.29155,-0.3922 1.93388,-0.6083 0.72715,-0.2505 1.48069,-0.3333 2.23353,-0.3807 0.71726,-0.033 1.43527,-0.029 2.15295,-0.028 0.70766,0 1.41531,0 2.12297,0 0.70745,5e-4 1.4149,6e-4 2.12235,6e-4 0.63415,0.058 1.2395,-0.029 1.85745,-0.177 0.66792,-0.1608 1.34937,-0.2008 2.02873,-0.2272 0.70869,-0.02 1.41766,-0.017 2.12651,-0.017 0.73012,0.014 1.46129,-0.038 2.18773,0.057 0.70544,0.1421 1.41221,0.2318 2.10229,0.4596 0.63838,0.1863 1.28073,0.37 1.89727,0.6425 0.54926,0.2264 1.09217,0.4736 1.64438,0.6907 0.52912,0.2893 1.05815,0.5837 1.61183,0.8019 0.60236,0.1328 1.1777,0.3854 1.77598,0.5382 0.2934,0.068 0.59159,0.094 0.88915,0.121 0.74828,0.068 0.66609,1.3201 -0.0822,1.2514 l 0,0 c -0.34613,-0.032 -0.6929,-0.064 -1.03383,-0.1461 -0.63589,-0.1664 -1.24948,-0.4245 -1.88851,-0.5752 -0.55134,-0.2223 -1.08792,-0.497 -1.61034,-0.8012 -0.56571,-0.2265 -1.12293,-0.4762 -1.68666,-0.7088 -0.5803,-0.2734 -1.20121,-0.416 -1.80338,-0.6058 -0.63704,-0.2119 -1.29147,-0.2845 -1.94254,-0.422 -0.68184,-0.1073 -1.37565,-0.016 -2.06184,-0.048 -0.69707,-5e-4 -1.39426,0 -2.09118,0.016 -0.62037,0.024 -1.243,0.057 -1.85314,0.203 -0.68618,0.164 -1.36518,0.2586 -2.06775,0.2019 -0.70774,0 -1.4155,0 -2.12325,-6e-4 -0.70771,-8e-4 -1.41541,0 -2.12312,0 -0.69871,0 -1.39775,0 -2.09609,0.026 -0.67343,0.042 -1.3481,0.1105 -1.99877,0.3343 -0.67725,0.228 -1.36336,0.4067 -2.0402,0.6372 -0.66556,0.1382 -1.32246,0.3367 -2.00536,0.266 -0.71453,0 -1.42909,0.012 -2.14362,0.01 -0.7076,-0.013 -1.4465,0.01 -2.09389,-0.3758 -0.62968,-0.6644 -0.59118,-1.1378 -0.32089,-2.019 0.021,-0.5564 -0.23604,-1.0052 -0.36648,-1.5283 -0.18375,-0.5193 -0.43077,-1.019 -0.72371,-1.4613 -0.23354,-0.429 -0.63328,-0.6717 -0.99327,-0.9289 -0.6302,-0.2936 -1.28216,-0.5105 -1.89706,-0.8518 -0.70559,-0.2708 -1.429,-0.4753 -2.16098,-0.6169 -0.67749,-0.1358 -1.3456,-0.2441 -2.0361,-0.1858 -0.67512,6e-4 -1.35144,0 -2.02494,0.059 -0.57479,0.073 -1.13537,0.2 -1.64884,0.5327 -0.60972,0.311 -1.2534,0.4667 -1.89162,0.6737 -0.74271,0.2173 -1.50997,0.313 -2.24703,0.5684 -0.91274,0.1743 -1.80122,0.4843 -2.71776,0.6263 -0.743,0.1255 -0.8931,-1.1171 -0.15012,-1.2426 z"
       inkscape:connector-curvature="0" />
    <path
       style="fill:#000000;fill-opacity:1;stroke:none"
       id="path3039"
       d="m 258.2374,1024.1099 c 0.89724,0.4438 1.81278,0.8408 2.70035,1.3103 0.59867,0.2955 1.20437,0.581 1.8194,0.8273 0.49146,0.3495 1.04009,0.473 1.58282,0.6507 0.62879,0.2374 1.2821,0.331 1.93742,0.3869 0.69514,0.046 1.39167,0.044 2.08762,0.044 0.70777,-8e-4 1.41552,0 2.1233,0 0.70779,-8e-4 1.41559,0 2.1234,0 0.54503,0.032 1.06789,-0.138 1.56717,-0.3768 0.5573,-0.1973 1.0834,-0.4848 1.64586,-0.6634 0.4842,-0.2365 0.94684,-0.5203 1.41751,-0.7952 0.58308,-0.2913 1.1812,-0.5477 1.78243,-0.7848 0.56109,-0.1761 1.10036,-0.4411 1.64352,-0.6834 0.69713,-0.3022 1.43575,-0.3861 2.17109,-0.437 0.70257,0.029 1.38564,-0.1544 2.07614,-0.2753 0.26899,-0.066 0.50556,-0.231 0.75033,-0.3702 0.67657,-0.3842 1.13605,0.7473 0.45948,1.1315 l 0,0 c -0.34049,0.1932 -0.67683,0.4067 -1.05453,0.4803 -0.72121,0.1259 -1.43659,0.3134 -2.17017,0.2868 -0.62829,0.043 -1.26108,0.1045 -1.85813,0.3586 -0.55657,0.2477 -1.11024,0.5167 -1.6843,0.7004 -0.55694,0.2158 -1.10905,0.4579 -1.65016,0.721 -0.53386,0.3055 -1.05324,0.6423 -1.61237,0.8809 -0.52047,0.1586 -1.00298,0.4403 -1.51964,0.6139 -0.62541,0.2976 -1.28383,0.4979 -1.96415,0.4679 -0.70745,10e-5 -1.41489,2e-4 -2.12235,9e-4 -0.70841,9e-4 -1.41682,0 -2.12523,0 -0.72138,-6e-4 -1.44336,9e-4 -2.16383,-0.047 -0.72605,-0.063 -1.44988,-0.1698 -2.14704,-0.4302 -0.55832,-0.1881 -1.13545,-0.3055 -1.63968,-0.6716 -0.64532,-0.2632 -1.28323,-0.5571 -1.91182,-0.8704 -0.85246,-0.4579 -1.73912,-0.8281 -2.6001,-1.2641 -0.71201,-0.2807 -0.37636,-1.4714 0.33566,-1.1908 z"
       inkscape:connector-curvature="0" />
    <path
       style="fill:#000000;fill-opacity:1;stroke:none"
       id="path3041"
       d="m 263.13929,1022.6385 c 0.89722,-0.5219 1.86086,-0.8255 2.84222,-1.0215 0.78831,-0.1378 1.58611,-0.1512 2.3813,-0.1582 0.71011,0 1.42021,0 2.13031,0.01 0.70631,0 1.41261,0 2.11893,0 0.11787,0 0.23575,0 0.35362,10e-5 0.75054,1e-4 0.75036,1.2554 -1.6e-4,1.2552 l 0,0 c -0.11792,0 -0.23585,0 -0.35378,-10e-5 -0.70718,-2e-4 -1.41435,-5e-4 -2.12154,0 -0.70654,0 -1.41308,-0.01 -2.11963,-0.01 -0.73908,0.01 -1.48068,0.016 -2.21373,0.141 -0.87787,0.1721 -1.73978,0.4417 -2.54287,0.9062 -0.67129,0.3969 -1.14596,-0.7258 -0.47467,-1.1227 z"
       inkscape:connector-curvature="0" />
    <path
       style="fill:#000000;fill-opacity:1;stroke:none"
       id="path3043"
       d="m 299.75383,1027.6625 c 0.65516,0.5881 1.32648,1.1443 2.01914,1.6695 0.48583,0.3878 1.02137,0.6226 1.55444,0.8918 0.46681,0.266 0.88144,0.5874 1.39057,0.7305 0.61357,0.131 1.23993,0.1323 1.86138,0.1407 0.72363,0.1081 1.43935,0.2651 2.16636,0.3433 0.69187,0.063 1.3862,0.067 2.07971,0.072 0.6656,-0.04 1.34558,0.079 2.00557,-0.045 0.61592,-0.1209 1.19541,-0.394 1.80203,-0.5637 0.54482,-0.3066 1.14974,-0.381 1.71685,-0.5934 0.61073,-0.268 1.25334,-0.3687 1.8986,-0.4294 0.70672,-0.05 1.41512,-0.047 2.12282,-0.048 0.70886,7e-4 1.41769,0 2.12654,0 0.7077,7e-4 1.4154,8e-4 2.1231,9e-4 0.11794,0 0.23587,0 0.35379,0 0.75054,0 0.7505,1.2552 -4e-5,1.2551 l 0,0 c -0.11794,0 -0.23589,0 -0.35383,0 -0.70806,-10e-5 -1.41611,-10e-5 -2.12417,-9e-4 -0.70813,0 -1.41628,0 -2.12441,0 -0.68035,8e-4 -1.36131,0 -2.04078,0.045 -0.57024,0.052 -1.137,0.1386 -1.67566,0.3801 -0.59375,0.2042 -1.20898,0.316 -1.78048,0.6134 -0.63902,0.1754 -1.24814,0.4747 -1.90021,0.5853 -0.7147,0.1051 -1.43659,0.041 -2.15569,0.057 -0.7238,0 -1.44844,-0.01 -2.17045,-0.078 -0.69872,-0.076 -1.3891,-0.2097 -2.0819,-0.3381 -0.70343,-0.01 -1.41264,-0.015 -2.10525,-0.1778 -0.56383,-0.1709 -1.04867,-0.4807 -1.55781,-0.7975 -0.57999,-0.306 -1.17295,-0.5613 -1.70495,-0.9868 -0.72245,-0.5503 -1.4243,-1.1307 -2.10833,-1.7454 -0.58607,-0.5545 0.077,-1.5346 0.66306,-0.9801 z"
       inkscape:connector-curvature="0" />
    <path
       style="fill:#000000;fill-opacity:1;stroke:none"
       id="path3045"
       d="m 307.29063,1025.6512 c 0.99163,0.025 1.98721,-0.058 2.97542,0.053 0.68116,0.1407 1.36276,0.2613 2.05266,0.3197 0.6807,0.046 1.36281,0.047 2.04437,0.048 0.70242,0 1.38816,0.2104 2.08473,0.3055 0.72508,0.1065 1.4584,0.051 2.18137,0.166 0.60122,0.1669 1.20978,0.2666 1.82506,0.3189 0.68022,0.045 1.36182,0.045 2.0429,0.047 0.47033,10e-5 0.23502,2e-4 0.70597,-2e-4 0.75052,-6e-4 0.75129,1.2545 7.6e-4,1.2552 l 0,0 c -0.4727,3e-4 -0.23634,3e-4 -0.70911,10e-5 -0.70587,0 -1.41231,0 -2.11727,-0.05 -0.64031,-0.056 -1.27562,-0.1524 -1.90108,-0.3287 -0.70813,-0.1357 -1.43986,-0.027 -2.15094,-0.1612 -0.65706,-0.09 -1.3043,-0.288 -1.96503,-0.2972 -0.70616,0 -1.41289,0 -2.11809,-0.051 -0.69992,-0.06 -1.39284,-0.1745 -2.08334,-0.3228 -0.95055,-0.1224 -1.9139,-0.01 -2.86838,-0.046 -0.75052,0 -0.75052,-1.2552 0,-1.2552 z"
       inkscape:connector-curvature="0" />
  </g>
</svg>
