<?xml version="1.0" encoding="UTF-8" standalone="no"?>
<!-- Created with Inkscape (http://www.inkscape.org/) -->

<svg
   xmlns:dc="http://purl.org/dc/elements/1.1/"
   xmlns:cc="http://creativecommons.org/ns#"
   xmlns:rdf="http://www.w3.org/1999/02/22-rdf-syntax-ns#"
   xmlns:svg="http://www.w3.org/2000/svg"
   xmlns="http://www.w3.org/2000/svg"
   xmlns:sodipodi="http://sodipodi.sourceforge.net/DTD/sodipodi-0.dtd"
   xmlns:inkscape="http://www.inkscape.org/namespaces/inkscape"
   width="160"
   height="48"
   id="svg2"
   version="1.1"
   inkscape:version="0.48.5 r10040"
   sodipodi:docname="desertTrolley.svg"
   inkscape:export-filename="C:\Users\narfman0\Desktop\desertTrolley.png"
   inkscape:export-xdpi="90"
   inkscape:export-ydpi="90">
  <defs
     id="defs4" />
  <sodipodi:namedview
     id="base"
     pagecolor="#ffffff"
     bordercolor="#666666"
     borderopacity="1.0"
     inkscape:pageopacity="0.0"
     inkscape:pageshadow="2"
     inkscape:zoom="3.2852773"
     inkscape:cx="111.30511"
     inkscape:cy="12.626889"
     inkscape:document-units="px"
     inkscape:current-layer="layer1"
     showgrid="false"
     inkscape:window-width="995"
     inkscape:window-height="774"
     inkscape:window-x="2069"
     inkscape:window-y="148"
     inkscape:window-maximized="0" />
  <metadata
     id="metadata7">
    <rdf:RDF>
      <cc:Work
         rdf:about="">
        <dc:format>image/svg+xml</dc:format>
        <dc:type
           rdf:resource="http://purl.org/dc/dcmitype/StillImage" />
        <dc:title />
      </cc:Work>
    </rdf:RDF>
  </metadata>
  <g
     inkscape:label="Layer 1"
     inkscape:groupmode="layer"
     id="layer1"
     transform="translate(0,-1004.3622)">
    <path
       style="fill:#000000;fill-opacity:1"
       id="path2985"
       d="m 4.1766944,1013.1344 c -0.037871,1.3972 -0.035453,2.7964 -0.042327,4.1947 -0.00203,1.8614 -0.00564,3.723 8.307e-4,5.5844 0.00686,1.4592 0.011948,2.9184 0.014543,4.3776 0.00549,1.3624 -0.00456,2.7246 -0.00473,4.0869 -0.015078,1.3716 0.042616,2.7474 -0.032282,4.1147 -0.1290675,1.2575 -0.2336052,2.5179 -0.2892116,3.7909 -0.044962,1.2519 -0.046552,2.5065 -0.048873,3.7602 -0.010257,1.0189 -0.1094842,2.0813 0.4870186,2.6375 0.6215529,0.3457 1.28954,0.3148 1.9368194,0.3238 0.7518173,0 1.5036065,-0.017 2.2554129,-0.02 0.7507963,0 1.5016015,0 2.2524026,0 0.749131,-4e-4 1.498262,-2e-4 2.247392,-2e-4 0.719397,-0.2843 1.478015,-0.2875 2.184938,-0.6418 0.636615,-0.372 1.304302,-0.4938 1.972431,-0.5679 0.735077,-0.061 1.471332,-0.056 2.20708,-0.056 0.679761,-0.017 1.333482,-0.3658 2.011667,-0.4748 0.900746,-0.1126 1.805047,-0.1244 2.707927,-0.1412 0.900712,0 1.801422,0 2.702133,0 0.774109,0 1.548218,0 2.322328,0 0.882942,0 1.765915,0.017 2.648871,0.017 1.011448,-0.097 2.006238,0.1059 3.007009,0.3137 1.109996,0.2282 2.228746,0.2741 3.345521,0.3117 1.063646,0.017 2.127387,0.019 3.191069,0.017 0.927982,-0.1295 1.832602,0.2019 2.747568,0.3902 0.881701,0.1648 1.769118,0.1918 2.65517,0.2194 0.962806,0.2174 1.925594,0.4229 2.894796,0.5385 1.002615,0.3284 2.015929,0.5249 3.034403,0.6374 0.905638,-0.024 1.787798,0.1648 2.678591,0.405 0.935589,0.1463 1.849363,0.5071 2.781075,0.7079 0.927218,0.1765 1.860668,0.2127 2.792847,0.2303 0.928774,0.3053 1.878939,0.3549 2.808277,0.6364 0.853052,0.3216 1.718693,0.4891 2.590161,0.5722 1.02241,0.081 2.046235,0.071 3.069454,0.065 0.960634,0 1.921266,0 2.881908,0 0.939418,-6e-4 1.878833,0 2.818254,0 0.896695,0 1.793373,0 2.690066,0 0.880854,0 1.761703,0 2.642556,-0.017 0.86159,0.017 1.723211,0 2.584811,0 0.771922,0 1.543845,0 2.315768,0 0.751136,-0.024 1.48815,-0.3375 2.235488,-0.4804 0.745837,-0.1683 1.50458,-0.039 2.245281,-0.249 0.750358,-0.2202 1.497288,-0.3868 2.237899,-0.6849 0.741956,-0.3025 1.50353,-0.3945 2.263652,-0.4484 0.857244,-0.045 1.715069,-0.022 2.572564,-0.019 0.881225,3e-4 1.762448,0 2.643672,0 0.734105,0.027 1.448335,0.047 2.165115,-0.2265 0.67218,-0.2655 1.36184,-0.3388 2.04969,-0.3702 0.92589,-0.027 1.85206,-0.027 2.77809,-0.032 0.80091,0 1.60183,0 2.40275,0 0.82305,4e-4 1.64607,0 2.46913,0 0.85236,0 1.7047,0 2.55706,0 0.9244,0 1.84878,0 2.77318,0 0.88593,0 1.77185,-0.017 2.65778,-0.017 0.82076,-0.2626 1.6451,-0.4368 2.47897,-0.52 0.91105,-0.082 1.82348,-0.1026 2.73564,-0.111 0.85896,8e-4 1.71793,0 2.57691,0 0.78331,0 1.56662,0 2.34992,0 0.63963,-0.2515 1.28195,-0.442 1.93626,-0.5404 0.72597,-0.087 1.45426,-0.089 2.1817,-0.094 0.74927,0 1.49855,10e-4 2.24782,0 0.74943,0 1.49885,0 2.24828,0 0.74908,0 1.49816,0 2.24725,0 0.74905,0 1.49811,0 2.24717,0 0.74907,0 1.49813,0 2.24719,0 0.74907,0 1.49813,0 2.24719,0 0.74907,0 1.49813,0 2.24719,0 0.74907,0 1.49813,0 2.2472,0 0.74906,0 1.49812,0 2.24719,0 0.68885,0.121 1.34022,-0.2343 2.01135,-0.4197 0.60144,-0.1093 1.16145,-0.5167 1.7071,-0.9298 0.37325,-0.1948 0.79119,-0.497 1.19128,-0.3463 0.15688,0.059 0.29927,0.1997 0.45359,0.2754 0.98316,-0.6332 0.36781,-0.2465 -2.36652,2.1946 -0.0376,0.034 0.0755,-0.077 0.097,-0.1395 0.12143,-0.3506 0.0924,-0.8269 0.0804,-1.2067 -0.0574,-1.1433 -0.25225,-2.2232 -0.44241,-3.3164 -0.16692,-1.024 -0.40293,-1.9946 -0.52151,-3.0429 -0.10955,-1.1994 -0.11499,-2.416 -0.1227,-3.6268 -0.004,-1.2603 -9.8e-4,-2.5206 4.1e-4,-3.7807 0.001,-1.2604 0.002,-2.5208 0.002,-3.7811 0.0164,-1.2426 -0.0357,-2.4902 0.0317,-3.7288 0.14597,-1.0688 0.20491,-2.1627 0.32424,-3.2381 0.13058,-1.0029 0.30347,-1.9776 0.49557,-2.9506 0.1985,-1.0778 0.23261,-2.2087 0.25956,-3.3281 0.003,-0.205 0.006,-0.4098 0.009,-0.6147 0,0 2.59515,-2.2123 2.59515,-2.2123 l 0,0 c -0.002,0.2066 -0.004,0.4134 -0.006,0.6201 -0.0194,1.1515 -0.0411,2.3141 -0.21144,3.4364 -0.17288,0.9759 -0.39399,1.913 -0.50808,2.9186 -0.17482,1.0418 -0.14779,2.158 -0.34051,3.2006 -0.13254,1.2077 -0.0224,2.4548 -0.0581,3.6774 -1.9e-4,1.2605 -4.9e-4,2.5212 -0.002,3.7816 -0.001,1.2583 -0.004,2.5167 -0.001,3.775 0.007,1.1823 0.01,2.37 0.10918,3.5429 0.11087,1.0357 0.34653,1.9898 0.50724,3.001 0.19056,1.1204 0.38628,2.2262 0.47137,3.3883 0.21576,2.401 -0.73025,5.0459 -2.84221,4.2222 -0.52018,-0.3023 -1.01236,-0.034 -1.50123,0.3381 -0.55494,0.4074 -1.14199,0.6934 -1.74324,0.8255 -0.67397,0.2122 -1.34024,0.4395 -2.03183,0.339 -0.74906,0 -1.49813,0 -2.24719,0 -0.74906,0 -1.49813,0 -2.24719,0 -0.74906,0 -1.49813,0 -2.24719,0 -0.74906,0 -1.49813,0 -2.24719,0 -0.74907,0 -1.49813,0 -2.24719,0 -0.74906,0 -1.49812,0 -2.24718,0 -0.74909,10e-5 -1.49818,10e-5 -2.24726,0 -0.74946,-4e-4 -1.49891,-7e-4 -2.24837,0 -0.74904,0 -1.49809,0 -2.24713,10e-4 -0.72411,0.017 -1.44962,0.02 -2.17086,0.1395 -0.65318,0.1312 -1.29175,0.4012 -1.94699,0.4906 -0.78064,-10e-4 -1.56128,0 -2.34191,0 -0.85921,0 -1.7184,0 -2.5776,0 -0.90383,0 -1.80843,0.017 -2.71051,0.1211 -0.8406,0.1227 -1.66852,0.3751 -2.50736,0.5111 -0.8793,0 -1.75858,-0.017 -2.63788,-0.017 -0.92815,8e-4 -1.85628,0.017 -2.78443,0 -0.85332,-9e-4 -1.70662,0.017 -2.55994,0 -0.82626,0 -1.65248,0 -2.47873,0 -0.79667,0 -1.59334,0 -2.39001,-0.017 -0.9264,0 -1.85325,-0.017 -2.77899,0.059 -0.68561,0.072 -1.369016,0.1824 -2.039158,0.4491 -0.722752,0.2063 -1.453277,0.121 -2.183713,0.1311 -0.875322,0 -1.750635,-0.017 -2.625959,-0.017 -0.862177,0 -1.724725,0 -2.586311,0.066 -0.75086,0.072 -1.499951,0.2021 -2.230758,0.516 -0.745357,0.2831 -1.503785,0.4287 -2.25638,0.6483 -0.747299,0.1194 -1.501438,0.076 -2.246911,0.246 -0.75047,0.1664 -1.495863,0.4691 -2.256588,0.4324 -0.769821,-5e-4 -1.539641,0 -2.30946,0 -0.862256,0 -1.724532,-0.017 -2.586779,0 -0.874706,0 -1.749408,-0.017 -2.624116,-0.017 -0.90053,0 -1.801046,0.017 -2.701579,0 -0.935922,0 -1.871833,0 -2.807753,0 -0.961848,0 -1.923668,0.017 -2.885508,0 -1.028193,-0.017 -2.056874,-0.017 -3.084398,-0.084 -0.876345,-0.099 -1.742322,-0.3013 -2.600673,-0.6211 -0.927658,-0.2384 -1.865971,-0.3609 -2.796736,-0.5617 -0.932337,-0.037 -1.865068,-0.1042 -2.791192,-0.2996 -0.938628,-0.2093 -1.865806,-0.5397 -2.809019,-0.6934 -0.876582,-0.2426 -1.752307,-0.3594 -2.640915,-0.3966 -1.023106,-0.1345 -2.036791,-0.3709 -3.051864,-0.6212 -0.962844,-0.143 -1.917939,-0.3989 -2.881955,-0.5162 -0.892094,-0.022 -1.784249,-0.089 -2.670942,-0.2633 -0.901908,-0.1858 -1.797033,-0.4689 -2.711068,-0.3615 -1.062556,-2e-4 -2.125162,0.017 -3.187532,-0.034 -1.127463,-0.04 -2.256174,-0.1093 -3.376691,-0.3358 -0.995511,-0.212 -1.988498,-0.3295 -2.99306,-0.2564 -0.88901,0 -1.778035,0 -2.667033,0.017 -0.771654,-10e-4 -1.543308,0 -2.314957,0 -0.898413,0 -1.796894,-0.017 -2.695275,0 -0.901192,0.017 -1.804857,0.025 -2.701183,0.2003 -0.676092,0.1681 -1.343786,0.4867 -2.03283,0.4284 -0.732869,0 -1.466726,0 -2.198055,0.092 -0.661465,0.1042 -1.310705,0.3023 -1.946751,0.6325 -0.733414,0.2338 -1.477961,0.4079 -2.219713,0.5398 -0.7490827,-10e-5 -1.4981654,-3e-4 -2.2472479,2e-4 -0.7504148,8e-4 -1.5008322,0 -2.2512386,0.017 -0.7533036,0 -1.5066242,0.022 -2.259942,0.017 -0.692026,-0.022 -1.415266,0 -2.0497688,-0.5326 -0.6257032,-0.7828 -0.6533962,-1.837 -0.6096288,-3.0797 0.00139,-1.2632 0.00162,-2.5273 0.040375,-3.7893 0.048879,-1.2807 0.1373692,-2.5538 0.2859768,-3.8138 0.1136284,-1.3462 0.028185,-2.7161 0.057319,-4.0726 -1.713e-4,-1.3596 -0.010234,-2.7191 -0.00473,-4.0788 0.0026,-1.4675 0.0077,-2.9351 0.014543,-4.4026 0.00644,-1.8619 0.00289,-3.7238 8.306e-4,-5.5859 -0.00681,-1.3741 -0.00392,-2.7491 -0.042327,-4.1221 0,0 2.6414536,-2.2628 2.6414536,-2.2628 z"
       inkscape:connector-curvature="0" />
    <path
       style="fill:#000000;fill-opacity:1"
       id="path2993"
       d="m 157.70216,1013.6156 c -0.65434,-0.032 -1.30915,-0.027 -1.96372,-0.029 -0.86731,-0.017 -1.73468,0 -2.60201,0 -0.77582,0 -1.55165,0 -2.32747,0 -0.49955,3e-4 -0.9991,3e-4 -1.49865,3e-4 0,0 2.35269,-2.8739 2.35269,-2.8739 l 0,0 c 0.49937,0 0.99874,0 1.49811,4e-4 0.77345,5e-4 1.54691,0 2.32036,0 0.86926,0 1.73855,0.017 2.60779,0 0.67043,-10e-4 1.34107,0 2.01129,-0.029 0,0 -2.39839,2.9297 -2.39839,2.9297 z"
       inkscape:connector-curvature="0" />
    <path
       style="fill:#000000;fill-opacity:1"
       id="path2995"
       d="m 150.64037,1011.8048 c 0.11798,0.9863 0.28771,1.9633 0.5336,2.8819 0.32587,0.9577 0.37168,2.0565 0.53247,3.0985 0.21007,1.0574 0.29533,2.1572 0.346,3.2633 0.0433,1.2407 0.0417,2.4842 0.0426,3.7267 0.0265,1.1087 -0.10867,2.1965 -0.34714,3.2244 -0.19867,0.9513 -0.34563,1.9282 -0.52402,2.892 -0.0937,0.515 -0.13596,1.0478 -0.17842,1.5794 0,0 -2.61432,2.1746 -2.61432,2.1746 l 0,0 c 0.034,-0.5529 0.0669,-1.1073 0.14947,-1.6476 0.1629,-0.9845 0.36162,-1.9418 0.50902,-2.9332 0.24317,-0.9762 0.44294,-1.9929 0.41443,-3.0694 -6.4e-4,-1.2302 10e-4,-2.4615 -0.0381,-3.6903 -0.0459,-1.0768 -0.12295,-2.1486 -0.32906,-3.1773 -0.15979,-1.0155 -0.19216,-2.0917 -0.50949,-3.0279 -0.24591,-0.9306 -0.41877,-1.9136 -0.5824,-2.892 0,0 2.59529,-2.4031 2.59529,-2.4031 z"
       inkscape:connector-curvature="0" />
    <path
       style="fill:#000000;fill-opacity:1"
       id="path2997"
       d="m 147.93279,1036.9149 c -0.66295,-0.032 -1.32637,-0.027 -1.98954,-0.029 -0.77633,-6e-4 -1.55264,2e-4 -2.32896,7e-4 -0.76151,4e-4 -1.52302,4e-4 -2.28454,5e-4 -0.7588,0 -1.51761,0 -2.27642,0 -0.75887,0 -1.51773,0 -2.2766,0 -0.75891,0 -1.51782,0 -2.27675,0 -0.75891,0 -1.51783,0 -2.27674,0 -0.75891,0 -1.51783,0 -2.27675,0 -0.75891,0 -1.51783,0 -2.27674,0 -0.75892,0 -1.51783,0 -2.27675,0 -0.75892,0 -1.51783,0 -2.27674,0 -0.75892,0 -1.51783,0 -2.27676,0 -0.75891,0 -1.51782,0 -2.27674,0 -0.76905,-0.1076 -1.50841,0.1059 -2.26166,0.3173 -0.75669,0.2091 -1.52361,0.2641 -2.28906,0.2977 -0.76969,-0.086 -1.51041,0.1261 -2.26448,0.336 -0.75679,0.2073 -1.52367,0.2613 -2.28906,0.2942 -0.73243,-0.017 -1.44433,-0.025 -2.15967,0.2425 -0.66884,0.2594 -1.35511,0.3271 -2.039,0.373 -0.66499,0.051 -1.30613,0.3857 -1.9691,0.5216 -0.72503,0.121 -1.45458,0.1294 -2.18259,0.1395 -0.75856,0 -1.517117,0 -2.275667,0 -0.759392,0 -1.518785,0 -2.278177,0 -0.752565,0.229 -1.505952,0.4261 -2.268519,0.5337 -0.760241,0.089 -1.522787,0.094 -2.284549,0.099 -0.759117,0 -1.518236,-7e-4 -2.277353,0 -0.758889,0 -1.517777,0 -2.276666,0 -0.75891,-2e-4 -1.51782,0 -2.276731,0 -0.758915,0 -1.517831,0 -2.276747,0 -0.758914,0 -1.51783,0 -2.276745,0 -0.758915,0 -1.517831,0 -2.276746,0 -0.758916,0 -1.51783,0 -2.276746,0 -0.758915,0 -1.51783,0 -2.276746,0 -0.758915,0 -1.51783,0 -2.276745,0 -0.758916,0 -1.517831,0 -2.276746,0 -0.758916,0 -1.51783,0 -2.276746,0 -0.758916,0 -1.51783,0 -2.276746,0 -0.758915,0 -1.51783,0 -2.276745,0 -0.758916,0 -1.517831,0 -2.276746,0 -0.758916,0 -1.51783,0 -2.276746,0 -0.758916,0 -1.51783,0 -2.276746,0 -0.758915,0 -1.51783,0 -2.276746,0 -0.758915,0 -1.51783,0 -2.276745,0 -0.758916,0 -1.517831,0 -2.276746,0 -0.758916,0 -1.51783,0 -2.276746,0 -0.758915,0 -1.51783,0 -2.276746,0 -0.758915,0 -1.51783,0 -2.276745,0 -0.758916,0 -1.517831,0 -2.276746,0 -0.673358,0 -1.324704,0.3509 -1.993735,0.4886 -0.724235,0.1227 -1.453079,0.1328 -2.180384,0.1429 -0.758372,0 -1.516755,0 -2.275131,7e-4 -0.759393,0 -1.518784,0 -2.278177,0 -0.758954,-2e-4 -1.517908,-2e-4 -2.276862,-2e-4 -0.75891,0 -1.517821,0 -2.276731,0 -0.758915,0 -1.517828,0 -2.276743,0 -0.758915,0 -1.517831,0 -2.276746,0 -0.758915,0 -1.517831,0 -2.276745,0 -0.758916,0 -1.517831,0 -2.276746,0 -0.758916,0 -1.517831,0 -2.276746,0 -0.758915,0 -1.517831,0 -2.276746,0 -0.758915,0 -1.517831,0 -2.276744,0 -0.7589154,0 -1.517831,0 -2.2767458,0 -0.6979163,-0.1211 -1.3578497,0.2342 -2.0378042,0.4196 0,0 2.3627916,-2.9544 2.3627916,-2.9544 l 0,0 c 0.6828356,-0.2122 1.3578672,-0.4395 2.0585484,-0.3389 0.758913,0 1.517829,0 2.276745,0 0.758914,0 1.51783,0 2.276745,0 0.758915,0 1.517831,0 2.276746,0 0.758915,0 1.51783,0 2.276746,0 0.758915,0 1.51783,0 2.276746,0 0.758914,0 1.51783,0 2.276745,0 0.758915,0 1.517831,0 2.276746,0 0.758914,0 1.517828,0 2.276743,0 0.75891,0 1.51782,0 2.276731,0 0.758962,0 1.517925,-2e-4 2.276887,10e-5 0.759424,4e-4 1.518848,0 2.278271,0 0.75794,0 1.515908,0 2.273825,0 0.722928,-0.018 1.448022,-0.039 2.165517,-0.2017 0.667857,-0.1717 1.327901,-0.4863 2.009789,-0.424 0.758915,0 1.51783,0 2.276746,0 0.758915,0 1.51783,0 2.276745,0 0.758916,0 1.517831,0 2.276746,0 0.758916,0 1.51783,0 2.276746,0 0.758916,0 1.51783,0 2.276746,0 0.758915,0 1.51783,0 2.276745,0 0.758916,0 1.517831,0 2.276746,0 0.758916,0 1.51783,0 2.276746,0 0.758916,0 1.51783,0 2.276746,0 0.758915,0 1.51783,0 2.276746,0 0.758915,0 1.51783,0 2.276745,0 0.758916,0 1.51783,0 2.276746,0 0.758916,0 1.51783,0 2.276746,0 0.758915,0 1.51783,0 2.276746,0 0.758915,0 1.51783,0 2.276745,0 0.758916,0 1.517831,0 2.276746,0 0.758916,0 1.51783,0 2.276746,0 0.758916,0 1.51783,0 2.276746,0 0.758915,0 1.51783,0 2.276745,0 0.758915,0 1.517831,0 2.276746,0 0.75892,0 1.517841,0 2.27676,1e-4 0.758942,2e-4 1.517885,7e-4 2.276827,0 0.758709,0 1.517426,0 2.276132,-6e-4 0.75677,-0.017 1.514595,-0.022 2.268912,-0.1346 0.765308,-0.1311 1.519147,-0.3867 2.285213,-0.4969 0.759425,3e-4 1.518853,10e-4 2.278293,0 0.75813,0 1.51629,0 2.27442,0 0.72357,-0.017 1.4494,-0.037 2.16757,-0.1986 0.65946,-0.1713 1.30761,-0.4883 1.97997,-0.4804 0.67956,-0.067 1.35635,-0.1822 2.02076,-0.4391 0.72095,-0.2031 1.44922,-0.1211 2.17773,-0.1648 0.7581,-0.045 1.51647,-0.1244 2.26443,-0.3462 0.76027,-0.2105 1.51687,-0.3189 2.28902,-0.2843 0.75815,-0.047 1.51651,-0.1261 2.26442,-0.3495 0.76127,-0.2112 1.51852,-0.3218 2.29183,-0.2531 0.75891,0 1.51783,0 2.27675,0 0.75891,0 1.51783,0 2.27674,0 0.75891,0 1.51783,0 2.27675,0 0.75892,0 1.51783,0 2.27674,0 0.75892,0 1.51783,0 2.27674,0 0.75893,0 1.51784,0 2.27675,0 0.75892,0 1.51783,0 2.27675,0 0.75892,0 1.51783,0 2.27675,0 0.75887,0 1.51774,0 2.27661,0 0.75879,0 1.51759,0 2.27638,0 0.76124,0 1.52249,0 2.28373,5e-4 0.77599,4e-4 1.55199,0 2.32799,5e-4 0.67925,0 1.35871,0 2.03774,-0.029 0,0 -2.42993,2.9298 -2.42993,2.9298 z"
       inkscape:connector-curvature="0" />
    <path
       style="fill:#000000;fill-opacity:1"
       id="path2999"
       d="m 6.7786865,1040.1336 c 0.028298,-1.1204 0.024971,-2.2427 0.026199,-3.3639 5.759e-4,-1.2879 -1.695e-4,-2.5758 -5.25e-4,-3.8637 0.0023,-1.2223 -0.039149,-2.4408 0.087648,-3.6487 0.1205342,-0.9851 0.3443933,-1.9295 0.5444786,-2.8764 0.2604173,-0.9163 0.3468147,-1.9228 0.5290965,-2.8825 0.173448,-0.9545 0.4339173,-1.8386 0.569013,-2.8139 0.093603,-1.0498 0.2956645,-2.0541 0.4015155,-3.1005 0.052199,-0.9639 0.257237,-2.0911 -0.1675491,-2.8793 -0.5034057,-0.5694 -1.0382913,-0.3438 -1.5889288,-0.1757 -0.6816999,0.2047 -1.3741826,0.2578 -2.0648749,0.2948 -0.6867899,-0.092 -1.3361045,0.2621 -2.0055149,0.4464 -0.6756207,0.1177 -1.3359686,0.153 -1.9957627,0.4292 -0.3120032,0.097 -0.60533532,0.1873 -0.90023836,0.3838 0,0 2.31238866,-3.0147 2.31238866,-3.0147 l 0,0 c 0.3028791,-0.1295 0.6080279,-0.2329 0.9133866,-0.3449 0.6617179,-0.2266 1.3378151,-0.2032 2.0022275,-0.4077 0.670244,-0.212 1.3333121,-0.444 2.0211804,-0.3833 0.688529,-0.054 1.3764974,-0.1396 2.0545172,-0.3592 0.6344783,-0.163 1.2552783,-0.158 1.7684633,0.5937 0.446641,0.9735 0.353858,2.0912 0.271257,3.2559 -0.0869,1.0638 -0.284972,2.0702 -0.392602,3.1209 -0.108368,1.0101 -0.340104,1.9099 -0.550652,2.8601 -0.19134,0.9678 -0.283183,1.9695 -0.518031,2.9131 -0.2454041,0.8835 -0.3928976,1.8765 -0.5752765,2.7963 -0.154746,1.1832 -0.139613,2.3641 -0.1256364,3.5738 -3.554e-4,1.2882 -0.0011,2.5762 -5.25e-4,3.8645 0.00121,1.1063 -0.00248,2.2136 0.026199,3.3192 0,0 -2.6414536,2.2627 -2.6414536,2.2627 z"
       inkscape:connector-curvature="0" />
    <path
       style="fill:#c83737;fill-opacity:1"
       d="m 152.45794,1012.8898 c -1.33627,-0.4384 -1.84331,1.7916 -1.24064,3.483 0.44415,5.1737 0.66325,11.13 -0.66713,15.9003 -0.79109,0.8747 -0.72445,2.8458 -1.93118,3.1485 -5.3806,1.477 -11.07855,0.3926 -16.57303,0.7757 -9.95846,-0.3263 -19.87845,1.0408 -29.79824,2.2468 -24.24563,1.5692 -48.519847,0.6461 -72.776689,1.3462 -7.572668,0.1362 -15.145126,0.3025 -22.7176955,0.4525 0.046338,-7.9527 1.4472569,-15.5211 2.4344569,-23.2009 0.393448,-4.0859 -2.8384895,-2.7281 -4.2134831,-2.9123 -2.4571421,0.2427 -0.7151794,6.7632 -1.3041739,9.6409 0.1591071,7.0947 -0.6398775,14.4658 0.2625072,21.4116 1.558106,2.3391 4.0939588,0.9263 6.027121,1.2528 7.5682804,-0.7633 15.0994624,-2.3132 22.7179804,-1.5177 11.20238,0.3786 22.327264,2.5599 33.438691,4.516 9.862802,0.3201 19.747116,0.1463 29.564802,-1.3583 19.804003,-1.5322 39.641723,-1.3145 59.445243,-2.696 1.49021,0.5509 2.26324,-2.0329 1.61516,-4.1127 -1.44412,-9.2279 0.0111,-18.904 0.32772,-28.1206 -1.42163,-0.6419 -3.11671,-0.1277 -4.61142,-0.2558 z"
       id="path3001"
       inkscape:connector-curvature="0" />
    <path
       style="fill:#c83737;fill-opacity:1"
       id="path3003"
       d="m 153.20529,1018.9842 c 0.0636,0.5353 0.12843,1.0779 0.22201,1.6015 0.0615,0.4124 0.18094,0.787 0.25291,1.193 0.0618,0.3684 0.1149,0.7467 0.19048,1.1081 0.10386,0.2691 0.30958,0.3996 0.48572,0.5003 0.24503,0.1093 0.50032,0.1143 0.75211,0.1244 0.28284,0 0.56572,0 0.84857,0 0.18744,0 0.37242,-0.017 0.55745,0.035 0,0 -0.91245,1.0836 -0.91245,1.0836 l 0,0 c -0.18192,-0.029 -0.36402,-0.017 -0.54665,-0.017 -0.28367,0 -0.56739,0 -0.85102,0 -0.26117,-0.017 -0.52649,-0.029 -0.77654,-0.1704 -0.20587,-0.1396 -0.42604,-0.2988 -0.53662,-0.6405 -0.0782,-0.3635 -0.13023,-0.7473 -0.19274,-1.1185 -0.0687,-0.4079 -0.19013,-0.7821 -0.24776,-1.1965 -0.0929,-0.5288 -0.15093,-1.0762 -0.23586,-1.6087 0,0 0.99039,-0.8903 0.99039,-0.8903 z"
       inkscape:connector-curvature="0" />
    <path
       style="fill:#000000;fill-opacity:1"
       id="path3009"
       d="m 135.83894,1047.0535 c 0.0474,-0.3641 0.0616,-0.7373 0.0733,-1.1084 0.009,-0.3243 0.009,-0.649 0.01,-0.9735 -0.0144,-0.2737 0.0196,-0.5373 0.0487,-0.804 0.0278,-0.2636 0.0198,-0.3949 -0.15456,-0.4065 -0.22302,0.017 -0.44379,0.087 -0.65996,0.176 -0.24606,0.091 -0.4784,0.2584 -0.72143,0.3667 -0.22161,0.079 -0.44545,0.1446 -0.66446,0.2423 -0.23944,0.099 -0.48547,0.1395 -0.73101,0.1664 -0.19069,0.017 -0.38171,0.017 -0.57261,0.017 -0.17483,-5e-4 -0.34965,0 -0.52448,0 -0.17462,-3e-4 -0.34925,-3e-4 -0.52387,-3e-4 -0.17575,-0.017 -0.35279,0.022 -0.52693,-0.024 -0.17282,-0.061 -0.34777,-0.092 -0.52367,-0.111 -0.19244,-0.022 -0.38592,0 -0.57723,-0.037 -0.18475,-0.056 -0.3709,-0.091 -0.55817,-0.1093 -0.1749,-0.017 -0.35005,-0.017 -0.5251,-0.017 -0.17472,0 -0.34943,5e-4 -0.52415,9e-4 -0.17486,10e-5 -0.34973,10e-5 -0.52459,3e-4 -0.17488,0 -0.34976,0 -0.52465,0 -0.1767,-0.022 -0.34792,0.054 -0.52155,0.096 -0.21787,0.1396 -0.60791,0.5386 0.39829,-0.4043 0.0184,-0.017 -0.0353,0.039 -0.0511,0.062 -0.0374,0.056 -0.0537,0.1042 -0.0824,0.1732 -0.0752,0.2217 -0.11673,0.4724 -0.16384,0.7147 -0.0607,0.2189 -0.1056,0.4407 -0.12831,0.6792 -0.0113,0.1778 -0.007,0.087 -0.014,0.2692 0,0 -0.61409,0.5184 -0.61409,0.5184 l 0,0 c 0.006,-0.186 0.002,-0.094 0.0108,-0.2769 0.0179,-0.2438 0.0478,-0.4814 0.12313,-0.6958 0.0439,-0.252 0.0969,-0.5012 0.15553,-0.7438 0.20154,-0.555 0.539,-0.8329 0.91513,-0.9879 0.17513,-0.045 0.34934,-0.1026 0.52772,-0.082 0.17488,0 0.34976,0 0.52464,0 0.17486,0 0.34971,-2e-4 0.52457,-4e-4 0.17476,-3e-4 0.34952,-10e-4 0.52428,-5e-4 0.17586,0 0.35185,0 0.52743,0.02 0.18725,0.024 0.3728,0.067 0.55832,0.1143 0.19208,0.027 0.38511,0 0.57738,0.032 0.17649,0.024 0.35125,0.064 0.52562,0.1143 0.17362,0.025 0.34818,0 0.52226,0.017 0.17465,2e-4 0.3493,2e-4 0.52394,5e-4 0.17474,4e-4 0.34947,0 0.5242,0 0.18913,-3e-4 0.37841,-8e-4 0.56727,-0.02 0.24357,-0.029 0.48699,-0.076 0.72348,-0.1824 0.21993,-0.087 0.44165,-0.1597 0.66186,-0.2431 0.24098,-0.1194 0.47624,-0.2742 0.72276,-0.3618 0.22316,-0.084 0.45184,-0.173 0.68173,-0.148 0.18932,0.081 0.24278,0.2431 0.21036,0.5646 -0.0261,0.2626 -0.0722,0.5184 -0.0559,0.7879 -6.1e-4,0.3272 -0.002,0.6545 -0.0111,0.9814 -0.012,0.3731 -0.028,0.7466 -0.061,1.1165 0,0 -0.62224,0.5073 -0.62224,0.5073 z"
       inkscape:connector-curvature="0" />
    <path
       style="fill:#000000;fill-opacity:1"
       id="path3011"
       d="m 129.86494,1043.8798 c -0.13928,-0.2675 -0.24729,-0.5796 -0.3492,-0.8901 -0.10987,-0.3006 -0.20692,-0.616 -0.32285,-0.9101 -0.10316,-0.2179 -0.15141,-0.4945 -0.25718,-0.7067 -0.11413,-0.158 -0.26578,-0.163 -0.40685,-0.1746 -0.1876,-0.03 -0.37025,0.024 -0.55486,0.071 -0.19815,0.027 -0.38025,0.1631 -0.56823,0.2596 -0.19178,0.057 -0.37519,0.1664 -0.56297,0.2491 -0.21831,0.111 -0.44485,0.1762 -0.66355,0.2823 -0.18437,0.067 -0.35914,0.1856 -0.54332,0.2539 -0.17099,0.042 -0.34114,0.056 -0.51083,0.1127 -0.17324,0.059 -0.34971,0.079 -0.52599,0.091 -0.17518,0 -0.35046,0 -0.5257,0 -0.18779,10e-5 -0.37559,0 -0.56338,0 -0.1901,10e-5 -0.3802,5e-4 -0.5703,8e-4 -0.17609,2e-4 -0.35218,2e-4 -0.52826,2e-4 -0.17472,0 -0.34944,0 -0.52415,0 -0.17485,0 -0.3497,0 -0.52455,0 -0.17488,0 -0.34976,0 -0.52464,0 -0.1618,0.017 -0.33562,-0.057 -0.48262,0.079 0.8183,-0.7813 0.49452,-0.6539 0.38978,0.042 -0.0257,0.2589 -0.0746,0.5079 -0.10034,0.767 -0.0255,0.2724 -0.01,0.3872 0.15355,0.4533 0.18131,0.051 0.36602,0.047 0.54925,0.045 0.21613,-8e-4 0.43227,0 0.6484,0 0.22,-5e-4 0.44,0 0.66,0 0.24584,0.02 0.48877,-0.047 0.73226,-0.092 0.1979,-0.037 0.39695,-0.049 0.59591,-0.054 0.17551,0 0.35104,0 0.52656,0 0.17454,5e-4 0.34908,7e-4 0.52363,7e-4 0.17485,2e-4 0.34969,2e-4 0.52454,2e-4 0.17488,0 0.34976,0 0.52465,0 0.17488,0 0.34975,0 0.52463,0 0.17488,0 0.34976,0 0.52464,0 0.17488,0 0.34976,0 0.52463,0 0.14574,0 0.29147,0 0.4372,0 0,0 -0.55533,0.6782 -0.55533,0.6782 l 0,0 c -0.14573,0 -0.29146,0 -0.43719,0 -0.17488,0 -0.34976,0 -0.52464,0 -0.17488,0 -0.34976,0 -0.52463,0 -0.17488,0 -0.34976,0 -0.52464,0 -0.17488,0 -0.34977,0 -0.52465,0 -0.17485,0 -0.34971,0 -0.52456,0 -0.17457,-2e-4 -0.34913,-3e-4 -0.52369,-8e-4 -0.17512,-2e-4 -0.35026,-10e-4 -0.52536,0 -0.19663,0 -0.39324,0.022 -0.58878,0.059 -0.24514,0.045 -0.49018,0.1026 -0.73754,0.084 -0.22,10e-4 -0.44,-2e-4 -0.65999,0 -0.21693,8e-4 -0.43384,0 -0.65077,0 -0.18821,0 -0.37912,10e-4 -0.56334,-0.072 -0.16398,-0.1059 -0.2343,-0.2949 -0.20223,-0.5948 0.0218,-0.264 0.0708,-0.5142 0.0989,-0.7753 0.0985,-0.8033 0.2228,-0.7504 0.77117,-1.2586 0.16165,-0.072 0.33038,-0.03 0.49594,-0.04 0.17488,0 0.34976,0 0.52464,0 0.17485,0 0.3497,0 0.52455,0 0.17472,0 0.34943,0 0.52415,0 0.17597,0 0.35195,2e-4 0.52792,3e-4 0.18963,2e-4 0.37925,7e-4 0.56888,0 0.18838,1e-4 0.37676,0 0.56514,-2e-4 0.17463,-2e-4 0.34933,3e-4 0.52384,-0.017 0.17463,-0.017 0.34882,-0.042 0.52023,-0.1026 0.1691,-0.05 0.34121,-0.054 0.50902,-0.1177 0.18098,-0.079 0.35734,-0.1846 0.54004,-0.253 0.22133,-0.089 0.44214,-0.1799 0.66166,-0.2818 0.18715,-0.092 0.37424,-0.1816 0.56421,-0.2554 0.18802,-0.1026 0.37482,-0.2164 0.57364,-0.244 0.18803,-0.047 0.37554,-0.086 0.566,-0.054 0.15932,0.022 0.32088,0.052 0.43933,0.2534 0.10265,0.2216 0.15688,0.4938 0.25799,0.7194 0.11388,0.2998 0.213,0.6159 0.3231,0.9199 0.0994,0.3072 0.20629,0.616 0.35197,0.8682 0,0 -0.59483,0.5935 -0.59483,0.5935 z"
       inkscape:connector-curvature="0" />
    <path
       style="fill:#000000;fill-opacity:1"
       id="path3013"
       d="m 114.83666,1037.3092 c -0.10379,0.2273 -0.16171,0.4872 -0.21999,0.7526 -0.0654,0.2464 -0.0907,0.5136 -0.13105,0.773 -0.0267,0.2645 -0.0805,0.517 -0.11891,0.7765 -0.0228,0.2552 -0.0431,0.5077 -0.0783,0.7594 -0.0362,0.2604 -0.0441,0.5281 -0.0496,0.7946 -0.0166,0.2314 -0.0325,0.473 -0.12402,0.6572 -0.68299,0.6628 -0.49756,0.7102 -0.98626,0.4081 -0.14346,-0.1278 -0.28934,-0.2524 -0.44322,-0.3415 -0.15805,-0.096 -0.31202,-0.2102 -0.47092,-0.302 -0.13798,-0.076 -0.26917,-0.1664 -0.41358,-0.2056 -0.15819,-0.057 -0.30708,-0.1563 -0.46055,-0.2377 -0.15161,-0.082 -0.3128,-0.057 -0.4665,-0.1127 -0.14756,-0.071 -0.29949,-0.097 -0.45191,-0.1126 -0.15884,0.017 -0.30971,-0.066 -0.46454,-0.1093 -0.16937,-0.042 -0.34087,-0.045 -0.51169,-0.05 -0.1934,0 -0.38682,0 -0.58024,-10e-4 -0.21316,-0.017 -0.42605,0.032 -0.63303,0.116 -0.22104,0.089 -0.44599,0.1395 -0.67262,0.163 -0.18284,0.064 -0.36579,0.1211 -0.5523,0.143 -0.17608,0.017 -0.34644,0.099 -0.52169,0.1361 -0.16739,0.02 -0.3388,0.054 -0.49651,0.1547 -0.14656,0.106 -0.30363,0.1396 -0.46104,0.1598 -0.17178,0.017 -0.34394,0.017 -0.51593,0.017 -0.17503,-5e-4 -0.35005,0 -0.52508,0 -0.15192,-0.05 -0.29842,0.1059 -0.44368,0.02 -0.11801,-0.1597 -0.11801,-0.425 -0.12537,-0.6592 0.007,-0.3 -0.0135,-0.5928 -0.0378,-0.8889 -0.0279,-0.3329 -0.0391,-0.6687 -0.0456,-1.0044 -0.005,-0.3003 -0.004,-0.6008 -0.004,-0.9012 1.6e-4,-0.2938 3.5e-4,-0.5877 4.5e-4,-0.8814 4e-5,-0.1463 6e-5,-0.2939 7e-5,-0.4408 0,0 0.61162,-0.5239 0.61162,-0.5239 l 0,0 c -1e-5,0.1463 -2e-5,0.2939 -6e-5,0.4408 -8e-5,0.2937 -2.3e-4,0.5876 -4.8e-4,0.8814 -1.8e-4,0.2996 -7.2e-4,0.5992 0.002,0.8988 0.005,0.3321 0.0134,0.6645 0.0412,0.9935 0.0266,0.2984 0.0535,0.593 0.0434,0.8961 0.004,0.1648 -0.0105,0.4278 0.0835,0.5278 0.14186,0.022 0.28606,-0.081 0.42991,-0.037 0.17501,5e-4 0.35001,0 0.52502,0 0.171,-7e-4 0.34231,-2e-4 0.51284,-0.024 0.15527,-0.029 0.3065,-0.082 0.45224,-0.1799 0.16504,-0.074 0.33334,-0.116 0.50349,-0.1379 0.17408,-0.044 0.34541,-0.1193 0.52202,-0.1294 0.18524,-0.032 0.36691,-0.097 0.5513,-0.1379 0.22465,-0.03 0.44756,-0.086 0.66668,-0.1762 0.21249,-0.071 0.42695,-0.1143 0.64401,-0.097 0.1933,0 0.38662,-3e-4 0.57991,0 0.17416,0 0.34904,0.017 0.5211,0.061 0.15251,0.049 0.30299,0.1093 0.45958,0.1009 0.15428,0.02 0.30676,0.059 0.457,0.1227 0.15755,0.039 0.31972,0.035 0.4719,0.1261 0.14998,0.086 0.29891,0.1747 0.45528,0.2248 0.14504,0.051 0.27938,0.1446 0.41975,0.2213 0.15703,0.099 0.31218,0.2068 0.47002,0.3033 0.15216,0.097 0.29749,0.2203 0.44331,0.3413 0.073,0.044 0.14487,0.089 0.22107,0.116 0.0196,0 0.0392,0.017 0.0592,0.017 0.015,9e-4 0.0573,-0.025 0.0446,-0.017 -0.18045,0.1917 -0.36725,0.3659 -0.55087,0.549 0.12911,-0.1026 0.12468,-0.3617 0.15396,-0.5688 0.004,-0.2722 0.01,-0.5459 0.0421,-0.8136 0.0339,-0.2527 0.0675,-0.5002 0.0786,-0.7598 0.0338,-0.2638 0.0964,-0.5123 0.11929,-0.7803 0.0406,-0.2631 0.0648,-0.5338 0.12713,-0.7858 0.0658,-0.2571 0.0978,-0.5421 0.21267,-0.7576 0,0 0.63094,-0.4801 0.63094,-0.4801 z"
       inkscape:connector-curvature="0" />
    <path
       style="fill:#000000;fill-opacity:1"
       id="path3015"
       d="m 67.986084,1049.4056 c 0.04358,-0.329 0.06042,-0.6656 0.0725,-1.0014 0.0095,-0.311 0.01001,-0.6224 0.01043,-0.9336 6.9e-5,-0.2944 -2.75e-4,-0.5888 -4.44e-4,-0.8834 -1.52e-4,-0.2937 -1.76e-4,-0.5874 -1.93e-4,-0.8813 0.0059,-0.2774 -0.0068,-0.4155 -0.171215,-0.4995 -0.135091,0.024 -0.273625,0.044 -0.404788,0.1059 -0.191273,0.079 -0.378955,0.1758 -0.57372,0.2288 -0.247507,0.092 -0.497568,0.158 -0.746565,0.2364 -0.271936,0.087 -0.541679,0.1769 -0.817322,0.2273 -0.260086,0.04 -0.521287,0.042 -0.78221,0.045 -0.239191,-0.024 -0.474343,0.047 -0.710658,0.096 -0.193756,0.04 -0.388951,0.047 -0.583908,0.05 -0.193883,0 -0.387777,0 -0.581666,0 -0.17686,-2e-4 -0.353719,-4e-4 -0.530579,-4e-4 -0.174707,-10e-5 -0.349413,-10e-5 -0.524119,-10e-5 -0.174837,0 -0.349674,0 -0.52451,0 -0.174879,0 -0.349757,0 -0.524636,0 -0.0686,0 -0.09741,-0.017 -0.162255,0.025 -0.02397,0.017 -0.09074,0.072 -0.069,0.05 0.935467,-0.9079 0.580227,-0.6648 0.437186,-0.3285 -0.07264,0.2537 -0.11346,0.5259 -0.139156,0.8028 -0.04017,0.2929 -0.07583,0.5858 -0.09484,0.8847 -0.01539,0.2921 -0.01611,0.5855 -0.01699,0.8785 -4.5e-5,0.049 -9e-5,0.098 -1.35e-4,0.1463 0,0 -0.611637,0.5239 -0.611637,0.5239 l 0,0 c 1.3e-5,-0.049 2.7e-5,-0.098 4e-5,-0.1479 5.6e-4,-0.2961 8.46e-4,-0.5927 0.01415,-0.8883 0.01664,-0.3006 0.04634,-0.5975 0.09351,-0.8892 0.02285,-0.2896 0.06443,-0.5685 0.125884,-0.8419 0.167665,-0.5836 0.602701,-0.9054 0.978572,-0.8953 0.174879,0 0.349758,0 0.524636,0 0.174839,0 0.349678,0 0.524518,0 0.174708,0 0.349416,-10e-5 0.524125,0 0.176709,2e-4 0.353419,5e-4 0.530128,10e-4 0.193197,7e-4 0.386407,0 0.579591,0 0.193472,0 0.387057,-0.02 0.57923,-0.06 0.236679,-0.049 0.473081,-0.1026 0.712318,-0.081 0.259356,0 0.519163,-0.017 0.777408,-0.054 0.274414,-0.054 0.543155,-0.1513 0.81475,-0.2349 0.249596,-0.081 0.501056,-0.1446 0.749181,-0.2384 0.193992,-0.064 0.382864,-0.1614 0.575316,-0.2384 0.139945,-0.045 0.288923,-0.1026 0.430203,-0.052 0.161558,0.121 0.225392,0.3226 0.210773,0.6224 1.7e-5,0.2937 4.1e-5,0.5875 1.81e-4,0.8812 1.53e-4,0.2945 4.7e-4,0.5893 3.37e-4,0.8839 -4.84e-4,0.3137 -0.0012,0.6274 -0.01041,0.9408 -0.01162,0.3381 -0.02953,0.6757 -0.06178,1.0103 0,0 -0.622234,0.5074 -0.622234,0.5074 z"
       inkscape:connector-curvature="0" />
    <path
       style="fill:#000000;fill-opacity:1"
       id="path3017"
       d="m 60.522319,1046.0534 c -0.198412,0 -0.396873,0 -0.595306,0 -0.186054,5e-4 -0.372109,7e-4 -0.558163,8e-4 -0.175217,2e-4 -0.350435,2e-4 -0.525652,2e-4 -0.174725,0 -0.34945,0 -0.524176,0 -0.174863,0 -0.349727,0 -0.52459,0 -0.167483,0.017 -0.333731,-0.032 -0.492524,-0.1194 -0.152964,-0.099 -0.314266,-0.1378 -0.476693,-0.1597 -0.170856,-0.069 -0.343711,-0.116 -0.518715,-0.1412 -0.171587,-0.032 -0.346038,0 -0.515996,-0.045 -0.130418,-0.069 -0.265872,-0.1497 -0.389983,-0.249 -0.137926,-0.1581 -0.199414,-0.3958 -0.239071,-0.6578 -0.05453,-0.2851 -0.08728,-0.5777 -0.106078,-0.8749 -0.03674,-0.2529 -0.06966,-0.5052 -0.08683,-0.7642 -0.01528,-0.2861 -0.01577,-0.5738 -0.01665,-0.8608 8.48e-4,-0.2729 -0.02384,-0.5496 0.06351,-0.7914 0.300175,-0.5456 0.636192,-0.711 1.026548,-0.725 0.207515,-0.027 0.407029,0.064 0.606343,0.1463 0.224989,0.1059 0.459774,0.1059 0.68878,0.1681 0.232205,0.047 0.458063,0.1497 0.688313,0.2159 0.184045,0.05 0.370542,0.059 0.556539,0.064 0.15078,0.054 0.30121,0.1026 0.454816,0.1261 0.185457,0.022 0.371526,0.022 0.557354,0.024 0.203574,2e-4 0.407146,5e-4 0.61072,-3e-4 0.194995,0 0.389988,-7e-4 0.584982,-2e-4 0.182004,-0.029 0.356936,0.047 0.534833,0.094 0.163424,0.04 0.328741,0.045 0.493553,0.05 0.176202,0 0.348977,0.081 0.524326,0.1143 0.176492,0.034 0.348413,0.111 0.525163,0.1463 0.173472,0.03 0.34806,0.034 0.522293,0.035 0.17054,0 0.337094,-0.017 0.504185,0.05 0.152364,0.061 0.308524,0.077 0.464345,0.089 0.16018,-0.019 0.312528,0.061 0.468653,0.1042 0.143924,0.064 0.205548,0.2275 0.195057,0.4686 -0.02461,0.2132 -0.09275,0.3986 -0.135127,0.6014 -0.06392,0.2574 -0.102043,0.5251 -0.123575,0.8007 -0.01775,0.2817 -0.0099,0.5639 -0.04037,0.843 0,0 -0.619402,0.5049 -0.619402,0.5049 l 0,0 c 0.03627,-0.2768 0.0332,-0.554 0.04435,-0.8361 0.01825,-0.2805 0.04778,-0.5582 0.115824,-0.8183 0.0345,-0.2062 0.09937,-0.3831 0.136049,-0.5868 0.03987,-0.187 -0.03011,-0.2788 -0.136559,-0.3136 -0.153554,-0.047 -0.305093,-0.1059 -0.462728,-0.094 -0.158363,-0.017 -0.316287,-0.04 -0.471151,-0.1009 -0.163955,-0.049 -0.32936,-0.03 -0.49529,-0.034 -0.175942,0 -0.352306,-0.017 -0.527082,-0.047 -0.175683,-0.042 -0.347815,-0.1177 -0.524703,-0.1463 -0.173318,-0.037 -0.345136,-0.1076 -0.520603,-0.1042 -0.167173,0 -0.334823,-0.017 -0.500095,-0.062 -0.17435,-0.05 -0.346972,-0.1076 -0.525317,-0.082 -0.195032,5e-4 -0.390062,0 -0.585094,5e-4 -0.203747,0 -0.407493,0 -0.611238,10e-5 -0.187961,0 -0.376368,-5e-4 -0.563725,-0.029 -0.151513,-0.029 -0.299542,-0.086 -0.450486,-0.1194 -0.187632,0 -0.375619,-0.024 -0.560584,-0.081 -0.228479,-0.072 -0.454278,-0.1692 -0.685783,-0.2137 -0.231485,-0.049 -0.465978,-0.072 -0.692137,-0.1771 -0.1973,-0.079 -0.395541,-0.1462 -0.599708,-0.116 -0.08048,0 -0.161907,0.017 -0.240893,0.04 -0.02334,0.017 -0.08908,0.056 -0.06891,0.034 0.416685,-0.4474 0.729482,-0.6793 0.472692,-0.4854 -0.126267,0.1829 -0.0829,0.4677 -0.08713,0.721 6.74e-4,0.2833 8.33e-4,0.5671 0.01438,0.8497 0.01578,0.2598 0.04758,0.5128 0.08591,0.7658 0.01646,0.2922 0.04582,0.5809 0.102508,0.8597 0.03204,0.2293 0.08092,0.442 0.208816,0.5656 0.122833,0.086 0.247096,0.1807 0.377574,0.2238 0.170294,0.03 0.342595,0.017 0.512997,0.042 0.174728,0.03 0.346251,0.087 0.519012,0.1396 0.165551,0.029 0.32822,0.081 0.484847,0.1785 0.157321,0.071 0.317018,0.1093 0.480292,0.092 0.174865,0 0.34973,0 0.524594,0 0.17473,0 0.349459,0 0.524188,0 0.175154,0 0.350307,0 0.525461,2e-4 0.18554,10e-5 0.371079,3e-4 0.556619,8e-4 0.200425,5e-4 0.400876,0 0.601281,0 0,0 -0.559584,0.6836 -0.559584,0.6836 z"
       inkscape:connector-curvature="0" />
    <path
       style="fill:#000000;fill-opacity:1"
       id="path3019"
       d="m 54.842897,1041.3756 c -0.199564,0.045 -0.398029,0.082 -0.595266,0.1514 -0.177271,0.034 -0.346078,0.1126 -0.518295,0.1842 -0.147692,0.027 -0.283597,0.1244 -0.428855,0.1727 -0.162086,0.044 -0.326679,0.047 -0.490448,0.05 -0.172012,-0.017 -0.3465,0.027 -0.51658,-0.022 -0.162894,-0.099 -0.197685,-0.3597 -0.218859,-0.6198 -0.01509,-0.2907 -0.01151,-0.583 -0.01042,-0.8744 0.0014,-0.2954 0.0021,-0.5907 0.0025,-0.8861 3.16e-4,-0.294 3.1e-4,-0.5883 3.18e-4,-0.8825 -10e-7,-0.1959 0,-0.097 -4e-6,-0.2939 0,0 0.611607,-0.5241 0.611607,-0.5241 l 0,0 c 5e-6,0.1961 3e-6,0.098 6e-6,0.2941 -4e-6,0.2942 6e-6,0.5885 -2.77e-4,0.8827 -3.65e-4,0.2956 -0.001,0.591 -0.0024,0.8866 -0.0012,0.2865 -0.0047,0.5736 0.0075,0.8598 0.01461,0.2103 0.02883,0.4356 0.171988,0.4906 0.169065,0.029 0.339745,0 0.509394,0.017 0.161872,0 0.324897,-0.017 0.483789,-0.071 0.142409,-0.059 0.281752,-0.1362 0.427012,-0.1754 0.170736,-0.076 0.343192,-0.1261 0.517292,-0.1752 0.199553,-0.066 0.402173,-0.089 0.601321,-0.158 0,0 -0.551327,0.7018 -0.551327,0.7018 z"
       inkscape:connector-curvature="0" />
    <path
       style="fill:#000000;fill-opacity:1"
       id="path3021"
       d="m 60.371381,1041.4772 c 0.0051,-0.3361 0.0037,-0.6725 0.0033,-1.0088 0.0081,-0.1895 -0.017,-0.3743 -0.03816,-0.5589 0,0 0.606837,-0.5444 0.606837,-0.5444 l 0,0 c 0.0218,0.1919 0.0498,0.384 0.04104,0.5811 -3.74e-4,0.3342 -0.0018,0.6688 0.0033,1.0031 0,0 -0.616295,0.5279 -0.616295,0.5279 z"
       inkscape:connector-curvature="0" />
    <path
       style="fill:#000000;fill-opacity:1"
       id="path3023"
       d="m 55.188525,1045.1712 c -0.21459,0 -0.429226,0 -0.643838,0 -0.231758,7e-4 -0.463515,0 -0.695274,0 -0.199184,3e-4 -0.398368,0 -0.597552,0 -0.176615,2e-4 -0.353231,2e-4 -0.529846,3e-4 -0.174608,0 -0.349217,0 -0.523825,0 -0.167576,0.025 -0.326719,-0.019 -0.489686,-0.076 -0.154311,-0.061 -0.314651,-0.037 -0.468701,-0.092 -0.171536,-0.069 -0.346948,-0.097 -0.522561,-0.1143 -0.204948,0 -0.405608,-0.044 -0.608101,-0.087 -0.203979,-0.044 -0.409475,-0.06 -0.614929,-0.069 -0.153677,-0.054 -0.306745,-0.1042 -0.463194,-0.1278 -0.156346,0 -0.304312,-0.074 -0.456674,-0.1177 -0.144309,-0.042 -0.281305,-0.1261 -0.427129,-0.1614 -0.188204,-0.034 -0.377715,-0.035 -0.56675,-0.037 -0.180315,-6e-4 -0.360631,4e-4 -0.540947,9e-4 -0.180972,-0.024 -0.250545,-0.2364 -0.288043,-0.5061 -0.0262,-0.2848 -0.02229,-0.5743 -0.02166,-0.8617 0.0013,-0.2955 0.0023,-0.5913 0.0029,-0.8869 -0.006,-0.8949 0.10044,-0.6812 0.712452,-1.2936 0.184574,-0.079 0.376424,-0.072 0.565421,-0.074 0.198525,0 0.397045,0 0.595568,0 0.190171,5e-4 0.38034,0 0.570512,0 0.189885,-2e-4 0.379771,-7e-4 0.569657,-9e-4 0.176905,0.017 0.355158,-0.022 0.530452,0.024 0.172653,0.059 0.347439,0.092 0.523172,0.1109 0.178748,-0.017 0.351305,0.039 0.526476,0.089 0.172524,0.049 0.347425,0.061 0.521962,0.069 0.141631,0 0.278063,0 0.416376,0.054 0,0 -0.564711,0.6619 -0.564711,0.6619 l 0,0 c -0.135343,-0.04 -0.270971,-0.039 -0.408225,-0.04 -0.176533,-0.017 -0.35317,-0.029 -0.527314,-0.081 -0.173541,-0.05 -0.346344,-0.077 -0.52263,-0.079 -0.176331,-0.024 -0.35092,-0.064 -0.525132,-0.116 -0.174668,-0.025 -0.350295,0 -0.525427,-0.017 -0.189407,-2e-4 -0.378815,-5e-4 -0.568222,0 -0.190631,-2e-4 -0.381262,0 -0.57189,0 -0.197724,0 -0.395451,0 -0.59318,0 -0.184239,0 -0.37722,0 -0.548973,0.1244 0.174165,-0.1773 0.346509,-0.3598 0.522495,-0.5321 0.0139,-0.017 -0.04775,0.025 -0.07361,0.158 -0.02658,0.1345 -0.0079,0.2793 -0.01356,0.4178 -5.21e-4,0.2958 -0.0015,0.5914 -0.0029,0.8871 -8.25e-4,0.2791 -0.0048,0.5599 0.01654,0.8373 0.02863,0.2347 0.08055,0.3766 0.236659,0.3754 0.180193,-3e-4 0.360391,0 0.54058,0 0.191909,0 0.384481,0 0.575136,0.049 0.144621,0.044 0.282628,0.1278 0.428017,0.1631 0.150363,0.049 0.298554,0.1126 0.452987,0.1109 0.154269,0.03 0.304911,0.089 0.458553,0.1228 0.205986,0.017 0.411765,0.034 0.616098,0.081 0.202588,0.044 0.404419,0.076 0.608856,0.079 0.177743,0.022 0.354266,0.061 0.528707,0.1227 0.156074,0.037 0.315478,0.032 0.469754,0.094 0.159306,0.054 0.317347,0.074 0.480134,0.059 0.17461,0 0.349221,0 0.523831,0 0.17644,0 0.352881,0 0.529321,4e-4 0.198359,3e-4 0.396717,10e-4 0.595076,0 0.231165,0 0.462328,3e-4 0.693494,10e-4 0.21762,-10e-4 0.435261,0 0.652861,0 0,0 -0.559585,0.6836 -0.559585,0.6836 z"
       inkscape:connector-curvature="0" />
    <path
       style="fill:#000000;fill-opacity:1"
       id="path3025"
       d="m 27.585889,1040.096 c -0.0051,0.3361 -0.0037,0.6725 -0.0033,1.0088 -0.0057,0.1126 -0.0036,0.1777 -0.02847,0.2829 -0.01451,0.062 -0.04781,0.1514 -0.08342,0.1865 -0.628558,0.6241 -0.412775,0.5479 -0.729177,0.6386 -0.172795,0.042 -0.342329,0.1076 -0.517015,0.1328 -0.233711,0.022 -0.464964,0.087 -0.690664,0.1895 -0.181632,0.091 -0.369579,0.1143 -0.557703,0.1278 -0.19259,0.017 -0.385301,0.017 -0.577962,0.017 -0.176919,-5e-4 -0.353839,0 -0.530758,0 -0.174729,-2e-4 -0.349458,-2e-4 -0.524187,-2e-4 -0.174838,0 -0.349675,0 -0.524512,0 -0.174878,0 -0.349756,0 -0.524634,0 -0.174879,0 -0.349759,0 -0.524638,0 -0.174878,0 -0.349757,0 -0.524635,0 -0.168463,-0.017 -0.341176,0.045 -0.497972,-0.076 -0.139494,-0.1076 -0.211211,-0.3494 -0.285034,-0.5634 -0.08823,-0.2746 -0.140076,-0.5747 -0.219954,-0.855 -0.07182,-0.27 -0.139032,-0.5449 -0.198393,-0.8235 -0.03128,-0.245 -0.0827,-0.4804 -0.115677,-0.7245 -0.0043,-0.044 -0.0086,-0.086 -0.01297,-0.1295 0,0 0.608004,-0.5417 0.608004,-0.5417 l 0,0 c 0.0038,0.04 0.0077,0.082 0.01149,0.1228 0.03091,0.2406 0.08353,0.4707 0.111198,0.7127 0.05656,0.2759 0.12161,0.5481 0.191986,0.8146 0.08068,0.2766 0.131769,0.5735 0.218871,0.8457 0.06781,0.1932 0.133224,0.409 0.263192,0.496 0.154414,0.084 0.320914,0.027 0.480586,0.042 0.174879,0 0.349757,0 0.524636,0 0.174879,0 0.349758,0 0.524637,0 0.174878,0 0.349756,0 0.524635,0 0.17484,0 0.34968,0 0.52452,0 0.174737,0 0.349474,0 0.524211,3e-4 0.176765,4e-4 0.353529,10e-4 0.530294,0 0.191609,4e-4 0.383324,0 0.574794,-0.017 0.185643,-0.019 0.369846,-0.057 0.549033,-0.1446 0.228706,-0.094 0.462853,-0.1446 0.697366,-0.1765 0.173057,-0.035 0.343053,-0.096 0.514505,-0.148 0.265797,-0.1429 0.06995,-0.047 -0.459261,0.4911 -0.01818,0.019 0.03956,-0.029 0.05674,-0.049 0.06456,-0.079 0.07979,-0.1994 0.08662,-0.3257 3.74e-4,-0.3344 0.0018,-0.6688 -0.0033,-1.0031 0,0 0.616295,-0.5281 0.616295,-0.5281 z"
       inkscape:connector-curvature="0" />
    <path
       style="fill:#000000;fill-opacity:1"
       id="path3027"
       d="m 23.920673,1042.4381 c 0.03837,0.3277 0.04045,0.6637 0.07531,0.9916 0.03264,0.2492 0.08955,0.4989 0.01761,0.7398 -0.293896,0.559 -0.630739,0.6989 -1.016398,0.7107 -0.194393,-0.017 -0.386493,-0.082 -0.580458,-0.116 -0.19062,-0.017 -0.380608,-0.064 -0.563618,-0.1547 -0.169318,-0.097 -0.345558,-0.1396 -0.523076,-0.1614 -0.149155,-0.067 -0.299634,-0.116 -0.453442,-0.1396 -0.168331,-0.02 -0.337236,-0.02 -0.50592,-0.022 -0.174859,-2e-4 -0.349718,5e-4 -0.524576,8e-4 -0.174974,3e-4 -0.349948,3e-4 -0.524922,3e-4 -0.165503,-0.027 -0.321194,0.022 -0.481769,0.077 -0.15904,0.05 -0.321105,0.06 -0.482471,0.067 -0.173875,0 -0.347791,0 -0.521687,0 -0.175039,-3e-4 -0.350078,-6e-4 -0.525118,-8e-4 -0.174904,0 -0.349808,0 -0.524712,0 -0.180625,-0.024 -0.250082,-0.2376 -0.287656,-0.5067 -0.02636,-0.2849 -0.0225,-0.5744 -0.02191,-0.8619 0.0061,-0.1547 0.02556,-0.3415 0.114403,-0.4277 0.638444,-0.6196 0.413449,-0.5448 0.730861,-0.6298 0.169183,-0.03 0.339693,-0.024 0.509539,-0.022 0.176685,0.017 0.354789,-0.019 0.529814,0.029 0.179282,0.037 0.351847,0.1177 0.5272,0.1856 0.195053,0.062 0.393871,0.076 0.59187,0.084 0.184001,-0.019 0.362648,0.055 0.543539,0.099 0.173103,0.039 0.34779,0.045 0.522106,0.049 0.116379,0 0.232768,0 0.349153,0 0,0 -0.555347,0.6784 -0.555347,0.6784 l 0,0 c -0.116641,-3e-4 -0.233289,-3e-4 -0.349916,0 -0.176096,0 -0.352498,-0.019 -0.526977,-0.062 -0.178687,-0.045 -0.356274,-0.1025 -0.538137,-0.089 -0.201176,-0.017 -0.403061,-0.032 -0.600556,-0.1025 -0.173039,-0.071 -0.345767,-0.1396 -0.523022,-0.1749 -0.174529,-0.025 -0.350137,-0.017 -0.525172,-0.017 -0.167448,-7e-4 -0.336774,0 -0.50203,0.045 -0.269165,0.1328 -0.06067,0.04 0.459672,-0.4935 0.01778,-0.019 -0.03932,0.025 -0.05689,0.044 -0.06163,0.066 -0.08093,0.1665 -0.08842,0.2832 -7.99e-4,0.2791 -0.0047,0.56 0.01676,0.8374 0.02872,0.2342 0.08055,0.3768 0.236449,0.3761 0.174909,2e-4 0.349818,2e-4 0.524727,2e-4 0.175041,3e-4 0.350081,5e-4 0.525121,8e-4 0.173563,2e-4 0.347168,9e-4 0.520676,0 0.159867,-0.017 0.320074,-0.027 0.476887,-0.084 0.161899,-0.054 0.323128,-0.069 0.488338,-0.057 0.174956,0 0.349913,-2e-4 0.524869,-5e-4 0.174963,-3e-4 0.349926,0 0.524888,-3e-4 0.170365,0 0.341061,0 0.51082,0.03 0.152754,0.03 0.301266,0.089 0.451757,0.1396 0.180016,0.03 0.35738,0.084 0.529626,0.1794 0.182558,0.077 0.368255,0.1244 0.55627,0.1412 0.191878,0.037 0.38322,0.1076 0.576933,0.1009 0.08,0 0.161042,-0.017 0.239763,-0.037 0.02279,0 0.087,-0.052 0.06738,-0.032 -0.448355,0.4817 -0.734976,0.6629 -0.480469,0.497 0.121223,-0.1648 0.03375,-0.4412 0.01239,-0.6568 -0.03536,-0.326 -0.03259,-0.6616 -0.0799,-0.985 0,0 0.609841,-0.5482 0.609841,-0.5482 z"
       inkscape:connector-curvature="0" />
    <path
       style="fill:#000000;fill-opacity:1"
       id="path3029"
       d="m 5.9009607,1041.8602 c -0.00615,0.321 -0.01108,0.6401 0.019893,0.9577 0.018475,0.2624 0.054762,0.5148 0.095915,0.7688 0.052546,0.2356 0.1396839,0.4542 0.2294846,0.6551 0.098028,0.2424 0.2522167,0.3011 0.4061034,0.3906 0.1657286,0.096 0.3399759,0.126 0.5138641,0.1429 0.1876418,0.017 0.3755113,0.017 0.5632743,0.017 0.1901586,-10e-4 0.3803168,0 0.5704759,0 0.1760903,-5e-4 0.3521808,-5e-4 0.5282712,-5e-4 0.1752579,0 0.3472357,-0.079 0.5216328,-0.1127 0.1719683,-0.081 0.3472507,-0.1311 0.5248978,-0.1597 0.1785032,-0.022 0.3576432,-0.024 0.5365442,-0.024 0.213562,10e-5 0.427124,10e-4 0.640685,0 0.216159,5e-4 0.432317,-5e-4 0.648476,0 0.179551,-5e-4 0.359102,-5e-4 0.538653,-7e-4 0.173028,-0.054 0.346284,-0.099 0.521656,-0.1244 0.08325,-0.019 0.170202,0 0.250648,-0.044 0.02093,-0.017 0.07779,-0.074 0.05823,-0.056 -0.555392,0.5188 -0.668495,0.7852 -0.512509,0.4427 0.04667,-0.2314 -0.01614,-0.442 -0.07061,-0.651 -0.05841,-0.2541 -0.15166,-0.4792 -0.228121,-0.7191 -0.08743,-0.2667 -0.120692,-0.5621 -0.139723,-0.861 -0.01545,-0.2633 -0.112789,-0.3361 -0.252719,-0.3778 -0.159344,-0.039 -0.314459,-0.032 -0.470496,0.029 -0.154913,0.064 -0.314111,0.081 -0.472819,0.092 -0.201495,0.017 -0.402944,0 -0.603715,0.027 -0.248312,0.054 -0.4977194,0.089 -0.7476584,0.1127 -0.1882674,0.059 -0.376506,0.1126 -0.567444,0.1412 -0.1749669,0.02 -0.3504752,0.022 -0.5257912,0.022 -0.1548069,0 -0.3046309,0.081 -0.4584498,0.1126 -0.1695121,0 -0.3326039,0.086 -0.4995817,0.1295 -0.1746356,0.04 -0.3510654,0.047 -0.5270369,0.05 -0.1705178,0.017 -0.3445583,-0.029 -0.5127667,0.025 -0.1501387,0.066 -0.3040965,0.092 -0.4585196,0.1093 -0.1135861,0.017 -0.2273323,0.017 -0.3410368,0.017 0,0 0.5549823,-0.6795 0.5549823,-0.6795 l 0,0 c 0.1130921,0 0.2262542,0 0.3391096,-0.02 0.1538027,-0.022 0.3052081,-0.064 0.4565254,-0.116 0.1716683,-0.022 0.3442281,0 0.5162692,-0.017 0.1742139,0 0.3488901,-0.017 0.5212067,-0.064 0.1668904,-0.049 0.3321981,-0.111 0.5017882,-0.1278 0.1537791,-0.04 0.3057446,-0.1127 0.462668,-0.099 0.1740758,0 0.3484081,0 0.5219168,-0.03 0.189981,-0.034 0.376944,-0.097 0.5665509,-0.1345 0.248954,-0.024 0.496996,-0.062 0.744581,-0.1126 0.203119,-0.024 0.406675,-0.017 0.610032,-0.03 0.157474,-0.017 0.314161,-0.045 0.467892,-0.1076 0.161533,-0.047 0.326168,-0.035 0.487601,0.017 0.160623,0.072 0.27425,0.2065 0.295442,0.5032 0.01569,0.2847 0.04317,0.567 0.126814,0.8207 0.07843,0.2416 0.172504,0.4696 0.231571,0.7263 0.06312,0.2374 0.127054,0.4679 0.09988,0.7359 -0.107903,0.6552 -0.628323,0.7916 -0.976187,0.8266 -0.175984,0.03 -0.349315,0.091 -0.525492,0.116 -0.179193,0 -0.358387,-2e-4 -0.53758,-7e-4 -0.215275,-7e-4 -0.430549,0 -0.645822,0 -0.214328,7e-4 -0.428657,-2e-4 -0.6429842,0 -0.1779882,0 -0.3563431,0 -0.5336499,0.034 -0.1770274,0.035 -0.3498204,0.1009 -0.5242037,0.1614 -0.1751506,0.039 -0.3491172,0.1093 -0.5266636,0.1009 -0.1759625,0 -0.351925,0 -0.5278876,2e-4 -0.1896814,2e-4 -0.3793627,3e-4 -0.5690441,5e-4 -0.1892876,0 -0.3787877,0 -0.5678159,-0.017 -0.177984,-0.024 -0.3551553,-0.066 -0.5241134,-0.1665 -0.1674116,-0.092 -0.3237067,-0.1953 -0.4294301,-0.4489 -0.093405,-0.2152 -0.1862093,-0.4423 -0.2430011,-0.6917 -0.041059,-0.2586 -0.080236,-0.5138 -0.097051,-0.7809 -0.032028,-0.3224 -0.027883,-0.6445 -0.029901,-0.9705 0,0 0.6162956,-0.5279 0.6162956,-0.5279 z"
       inkscape:connector-curvature="0" />
    <path
       style="fill:#000000;fill-opacity:1"
       id="path3031"
       d="m 7.7974551,1027.9137 c -0.1611828,-0.1177 -0.3341928,-0.172 -0.5010018,-0.2633 -0.1496338,-0.05 -0.2880663,-0.158 -0.4367445,-0.2148 -0.1545948,-0.054 -0.316699,-0.025 -0.4646375,0.064 -0.023749,0.017 -0.047289,0.03 -0.071247,0.044 -0.1266087,0.071 -0.021476,0 -0.134044,0.092 -0.020478,0.017 -0.08213,0.069 -0.062235,0.05 0.6322847,-0.6149 0.6997954,-0.6932 0.4826804,-0.4511 -0.2160273,0.2086 -0.4319696,0.4175 -0.6480819,0.6258 -0.042985,0.042 -0.1755087,0.1547 -0.1328002,0.1126 0.1740502,-0.1721 0.3493451,-0.3408 0.5263867,-0.504 0.039502,-0.037 -0.06977,0.097 -0.099794,0.153 -0.085163,0.2222 -0.088892,0.4912 -0.095424,0.7471 -0.00333,0.2479 0.024322,0.5031 0.06896,0.7395 0.057135,0.2199 0.095335,0.4647 0.1852632,0.654 0.1130324,0.1581 0.2647906,0.1614 0.4047561,0.1735 0.1732876,0.017 0.3466915,0 0.5200218,0 0.1753898,0 0.3507828,0 0.5261756,0 0.087489,0 0.1749771,-10e-5 0.2624657,-10e-5 0,0 -0.5553139,0.6785 -0.5553139,0.6785 l 0,0 c -0.087471,0 -0.1749423,10e-5 -0.2624134,3e-4 -0.1753192,3e-4 -0.3506382,0 -0.5259542,0 -0.1744965,0 -0.3491754,0 -0.5235207,-0.017 -0.1588726,-0.022 -0.3210644,-0.052 -0.4383552,-0.2541 -0.09072,-0.2053 -0.1372991,-0.455 -0.1969395,-0.6884 -0.048596,-0.2473 -0.077757,-0.517 -0.078121,-0.7769 0.00457,-0.2734 0.00744,-0.555 0.075801,-0.8086 0.022848,-0.062 0.050948,-0.1547 0.090308,-0.1952 0.2147223,-0.2204 0.4352126,-0.4245 0.6536698,-0.6342 0.043341,-0.042 0.1753808,-0.1597 0.1323842,-0.1177 -0.1769421,0.1754 -0.3547246,0.3484 -0.532087,0.5226 0.3088517,-0.3361 0.6160148,-0.6946 0.9721982,-0.8625 0.1612204,-0.062 0.3245977,-0.091 0.4865661,-0.017 0.1475712,0.067 0.2892044,0.1647 0.43809,0.2236 0.170227,0.094 0.3475868,0.1479 0.5115058,0.272 0,0 -0.5785173,0.6399 -0.5785173,0.6399 z"
       inkscape:connector-curvature="0" />
    <path
       style="fill:#000000;fill-opacity:1"
       id="path3033"
       d="m 6.3339359,1027.0699 c 0.00521,-0.3011 -0.037355,-0.5977 -0.058902,-0.8957 -0.019893,-0.2996 -0.023491,-0.601 -0.025828,-0.9022 0.00468,-0.2774 -0.00732,-0.4166 -0.1719499,-0.5007 -0.1580346,-0.05 -0.3201966,-0.044 -0.4804236,-0.044 -0.1782519,-0.024 -0.3495505,0.029 -0.5239591,0.079 -0.1745925,0.05 -0.351622,0.062 -0.5282989,0.071 -0.1750781,0 -0.3501996,0 -0.5253002,0 -0.1606185,-0.029 -0.3126048,0.054 -0.4691146,0.096 -0.1441301,0.025 -0.2929268,0.064 -0.4239279,0.1728 -0.3538266,0.3007 0.8242991,-0.8978 0.3748981,-0.351 0,0 -0.6398598,0.4351 -0.6398598,0.4351 l 0,0 c 0.2220667,-0.365 0.5246536,-0.5896 0.8067028,-0.8011 0.1407986,-0.077 0.2844813,-0.1261 0.4318639,-0.1514 0.1574965,-0.049 0.3132185,-0.1025 0.4747935,-0.079 0.1746616,2e-4 0.3493626,9e-4 0.5239733,0 0.1749565,-0.017 0.3499656,-0.03 0.5224647,-0.082 0.1763229,-0.05 0.3518953,-0.079 0.5311824,-0.064 0.1662208,0 0.336203,0 0.4970754,0.076 0.1615621,0.1211 0.2247894,0.323 0.2110717,0.6224 0.00173,0.2976 0.00416,0.5956 0.022007,0.8918 0.020379,0.3016 0.06084,0.5997 0.067828,0.903 0,0 -0.6162956,0.5281 -0.6162956,0.5281 z"
       inkscape:connector-curvature="0" />
    <path
       style="fill:#000000;fill-opacity:1"
       id="path3035"
       d="m 3.6473527,1027.2604 c 0.2016235,-0.039 0.396057,-0.1362 0.5955482,-0.1972 0.1677559,-0.045 0.3270189,-0.1413 0.4959954,-0.1811 0.1628583,-0.045 0.3304155,0 0.4915895,-0.059 0.1445872,-0.079 0.3001758,-0.064 0.4446631,-0.1345 0.1455085,-0.081 0.297886,-0.1059 0.4499465,-0.1227 0.1718008,-0.017 0.3438565,-0.017 0.5158044,-0.017 0.1704617,-0.017 0.3444987,0.032 0.5126317,-0.024 0.024006,-0.017 0.048011,-0.019 0.072016,-0.027 0,0 -0.5489375,0.6985 -0.5489375,0.6985 l 0,0 c -0.024707,0 -0.049414,0.017 -0.074121,0.022 -0.1718612,0.022 -0.3446196,0 -0.5168709,0.017 -0.1711991,9e-4 -0.3426051,7e-4 -0.5134787,0.02 -0.1508668,0.023 -0.2993008,0.064 -0.4447983,0.1379 -0.1490335,0.044 -0.2997746,0.069 -0.4474517,0.1261 -0.1632898,0.025 -0.3285001,0.017 -0.4907691,0.06 -0.1654874,0.05 -0.324935,0.1429 -0.4920567,0.1799 -0.2007069,0.066 -0.3988093,0.153 -0.6010385,0.2058 0,0 0.5513273,-0.702 0.5513273,-0.702 z"
       inkscape:connector-curvature="0" />
    <path
       style="fill:#000000;fill-opacity:1"
       id="path3037"
       d="m 9.1954899,1016.9446 c -0.1730428,-0.067 -0.3491811,-0.1043 -0.5259481,-0.1278 -0.1805081,-0.03 -0.3630214,8e-4 -0.5421794,-0.045 -0.1697351,-0.05 -0.3387398,-0.081 -0.5044835,-0.1614 -0.1504784,-0.074 -0.3070481,-0.091 -0.4627554,-0.1026 -0.1477215,-0.062 -0.2963086,-0.1092 -0.4479758,-0.1328 -0.1567798,0 -0.3052495,-0.074 -0.4580653,-0.1177 -0.1612858,-0.04 -0.3246372,-0.045 -0.4873695,-0.049 -0.082241,0 -0.1677184,-0.025 -0.2477155,0.023 -0.02084,0.017 -0.077292,0.072 -0.057996,0.054 0.5605909,-0.5252 0.6813871,-0.7678 0.5042479,-0.4354 -0.071964,0.2303 -0.066975,0.5006 -0.069839,0.7542 -0.00105,0.2952 0.00101,0.5903 0.00199,0.8854 0.00293,0.2303 0.0092,0.4929 0.091578,0.6861 0.1207121,0.1547 0.2859085,0.1413 0.4307018,0.1497 0.1889053,0 0.3778757,0 0.5668006,5e-4 0.1822798,0.025 0.3577435,-0.032 0.5367561,-0.076 0.2349127,-0.052 0.472371,-0.059 0.7089439,-0.069 0.2319767,0 0.4640082,0 0.6960111,0 0.1374766,-2e-4 0.2749533,-5e-4 0.41243,-9e-4 0,0 -0.5543135,0.6771 -0.5543135,0.6771 l 0,0 c -0.1366775,-7e-4 -0.2733546,0 -0.4100319,0 -0.231629,-7e-4 -0.4632729,-3e-4 -0.6948718,0 -0.2358793,0.017 -0.4724565,0.022 -0.705989,0.082 -0.1806678,0.049 -0.3601863,0.079 -0.5436357,0.064 -0.189365,0 -0.378827,0 -0.5681103,0 -0.1666144,-0.017 -0.3457424,-0.018 -0.4696091,-0.234 -0.086263,-0.2184 -0.107345,-0.4915 -0.108039,-0.7497 -8.939e-4,-0.2958 -0.00268,-0.5915 -0.0028,-0.8873 0.00141,-0.2717 -0.00139,-0.5504 0.049957,-0.8114 0.1825675,-0.6182 0.6229423,-0.81 0.9898213,-0.7833 0.165511,0 0.3316998,0.017 0.4951277,0.062 0.1508448,0.049 0.2995412,0.1126 0.4544311,0.111 0.1502607,0.029 0.2966602,0.086 0.4455025,0.1277 0.1594731,0.017 0.3188993,0.044 0.4723544,0.1228 0.1629522,0.074 0.3309436,0.099 0.4970217,0.1479 0.1795565,0.027 0.3605864,0.017 0.5401817,0.044 0.1767267,0.029 0.3512168,0.081 0.5274534,0.1127 0,0 -0.5595847,0.6834 -0.5595847,0.6834 z"
       inkscape:connector-curvature="0" />
    <path
       style="fill:#000000;fill-opacity:1"
       id="path3039"
       d="m 86.15658,1042.4547 c -0.111947,0.3107 -0.188197,0.651 -0.273503,0.9831 -0.06675,0.2577 -0.125383,0.5225 -0.177915,0.7894 -0.02899,0.2735 -0.07493,0.5403 -0.109804,0.8117 -0.01913,0.2039 0.06555,0.3173 0.166581,0.3961 0.16566,0.076 0.333484,0.1379 0.503533,0.1813 0.184291,0.04 0.370355,0.047 0.555965,0.05 0.175681,0 0.351368,7e-4 0.52705,2e-4 0.198467,0 0.396935,3e-4 0.595402,-2e-4 0.180418,-3e-4 0.360835,-5e-4 0.541253,-7e-4 0.174861,0 0.349721,0 0.524581,0 0.02491,0 0.0505,-0.017 0.07473,-0.025 0.03873,-0.02 0.401664,-0.3761 0.211458,-0.1962 -0.536649,0.5078 -0.682021,0.6917 -0.455701,0.4151 0.328323,-0.4398 0.649278,-0.7285 1.047361,-0.7757 0.174471,0 0.344813,0 0.516663,-0.059 0.06365,-0.017 0.104717,-0.02 0.162458,-0.071 0.02128,-0.019 0.07956,-0.089 0.05849,-0.071 -0.828202,0.7514 -0.586044,0.7475 -0.472922,0.3171 0.04516,-0.2643 0.04117,-0.5431 0.0419,-0.8156 -0.02565,-0.2845 -0.04133,-0.5757 -0.08164,-0.8557 -0.03037,-0.2328 -0.05913,-0.4171 -0.197109,-0.5112 -0.126965,-0.017 -0.245777,0.044 -0.363232,0.116 -0.151055,0.074 -0.304351,0.1395 -0.452039,0.2311 -0.171438,0.1093 -0.352504,0.1497 -0.534414,0.1688 -0.188473,0.076 -0.380529,0.1144 -0.573502,0.1396 -0.18467,0.02 -0.369804,0.022 -0.554787,0.022 -0.175391,3e-4 -0.350781,-4e-4 -0.526171,-7e-4 -0.174753,-4e-4 -0.349506,-4e-4 -0.524259,-4e-4 -0.158998,-0.028 -0.30639,-0.1277 -0.458875,-0.1999 -0.170496,-0.05 -0.335606,-0.1361 -0.506191,-0.1873 -0.172492,-0.045 -0.347291,-0.05 -0.521443,-0.054 -0.116531,0 -0.233069,0 -0.349604,0 0,0 0.55529,-0.6785 0.55529,-0.6785 l 0,0 c 0.116787,0 0.23358,-3e-4 0.350356,0 0.176582,0 0.353826,0.017 0.528016,0.071 0.17124,0.057 0.339821,0.1345 0.510664,0.1955 0.146801,0.074 0.292518,0.1614 0.447125,0.174 0.174769,0 0.349538,2e-4 0.524307,5e-4 0.175252,4e-4 0.350505,0 0.525757,4e-4 0.18355,0 0.367294,0 0.550383,-0.029 0.192973,-0.03 0.38282,-0.086 0.573765,-0.1396 0.179505,-0.03 0.356405,-0.082 0.525172,-0.1938 0.150977,-0.081 0.303167,-0.1547 0.454601,-0.2339 0.126439,-0.067 0.265543,-0.1143 0.394785,-0.044 0.144576,0.1345 0.194898,0.3336 0.226335,0.6 0.04301,0.2886 0.05472,0.5895 0.08839,0.8816 1.46e-4,0.2834 0.0035,0.5701 -0.02948,0.8494 -0.108004,0.63 -0.563384,0.8907 -0.920769,1.0057 -0.172854,0.042 -0.346217,0.034 -0.520249,0.052 -0.355821,0.065 -0.616618,0.43 0.212256,-0.3987 0.02216,-0.022 -0.0453,0.042 -0.06794,0.062 -0.269578,0.3205 -0.06776,0.084 -0.717745,0.7358 -0.09566,0.096 -0.193417,0.1758 -0.307542,0.1731 -0.174835,0 -0.349671,0 -0.524506,-10e-5 -0.180104,0 -0.360207,-2e-4 -0.540311,-4e-4 -0.19878,-3e-4 -0.397564,-0 -0.596341,0 -0.175835,4e-4 -0.351681,0 -0.527506,0 -0.187266,0 -0.37495,-0.017 -0.560363,-0.065 -0.175455,-0.049 -0.353772,-0.1026 -0.520742,-0.2073 -0.119886,-0.1177 -0.220584,-0.2761 -0.208153,-0.528 0.03139,-0.276 0.08754,-0.5412 0.107791,-0.821 0.04285,-0.2765 0.115274,-0.5407 0.176877,-0.8066 0.09264,-0.323 0.157194,-0.6695 0.26451,-0.9808 0,0 0.630941,-0.48 0.630941,-0.48 z"
       inkscape:connector-curvature="0" />
    <path
       style="fill:#000000;fill-opacity:1"
       id="path3041"
       d="m 89.492867,1046.2706 c -0.0051,0.3361 -0.0037,0.6724 -0.0033,1.0087 0.003,0.2654 -0.02238,0.4869 0.168664,0.5027 0.19674,-0.03 0.392024,-0.1547 0.578545,-0.2662 0.187161,-0.1429 0.395862,-0.1496 0.590018,-0.2421 0.156283,-0.066 0.30452,-0.1664 0.46236,-0.2228 0.194143,-0.029 0.384888,-0.081 0.577129,-0.1345 0.181558,-0.02 0.356068,-0.089 0.53413,-0.1463 0.199462,-0.099 0.403526,-0.1597 0.610092,-0.1963 0.198832,-0.029 0.39861,-0.025 0.59798,-0.027 0.189593,-2e-4 0.379189,-5e-4 0.568779,0 0.254984,0 0.509973,0 0.76496,0 0.256705,0 0.513411,-10e-4 0.770114,0 0.185655,-10e-4 0.371312,0 0.556968,0 0.222135,-0.086 0.684426,-0.501 -0.42048,0.4375 -0.01422,0.017 0.01967,-0.044 0.02551,-0.067 0.01867,-0.079 0.01247,-0.1042 0.009,-0.1841 -0.03869,-0.2027 -0.09464,-0.4033 -0.150172,-0.5967 -0.06665,-0.2243 -0.09286,-0.4729 -0.155649,-0.6999 -0.05886,-0.2268 -0.114863,-0.457 -0.164347,-0.6902 -0.02562,-0.246 -0.09261,-0.3623 -0.232272,-0.4239 -0.159714,-0.047 -0.322763,-0.042 -0.484302,-0.042 -0.184603,-0.017 -0.365523,0 -0.547784,0.052 -0.19349,0.054 -0.389033,0.079 -0.58486,0.092 -0.163212,-0.02 -0.317552,0.062 -0.476587,0.1059 -0.157293,0.027 -0.311135,0.035 -0.464781,0.099 -0.15256,0.072 -0.312575,0.057 -0.466329,0.1127 -0.175989,0.049 -0.342878,0.153 -0.517615,0.2128 -0.162421,0.019 -0.314471,0.1127 -0.473667,0.1614 -0.163496,0.042 -0.329234,0.045 -0.494257,0.049 -0.148352,0.062 -0.297942,0.1042 -0.450073,0.1261 -0.144237,0.071 -0.28935,0.1261 -0.43329,0.197 -0.154957,0.056 -0.307895,0.1312 -0.454437,0.2326 0.09746,-0.1598 -0.348318,0.3026 -0.210335,0.1693 0.925916,-0.8943 0.591262,-0.6804 0.443153,-0.3482 -0.0613,0.189 -0.06707,0.4052 -0.07427,0.6153 0,0 -0.61355,0.5194 -0.61355,0.5194 l 0,0 c 0.0051,-0.2246 0.0096,-0.4533 0.05734,-0.6661 0.172288,-0.5742 0.605115,-0.7504 0.938931,-1.0029 0.150341,-0.087 0.302036,-0.1665 0.457363,-0.225 0.145117,-0.072 0.292786,-0.1328 0.441215,-0.1804 0.152106,-0.03 0.300608,-0.091 0.452753,-0.1177 0.163231,0 0.327369,-0.017 0.488046,-0.067 0.15682,-0.059 0.311454,-0.1294 0.471356,-0.1614 0.173637,-0.069 0.34295,-0.1664 0.519948,-0.2098 0.15551,-0.037 0.31334,-0.049 0.465651,-0.1194 0.154175,-0.054 0.311638,-0.047 0.466473,-0.096 0.159131,-0.05 0.316622,-0.1042 0.47991,-0.093 0.194127,-0.017 0.387605,-0.047 0.5795,-0.1008 0.184692,-0.042 0.369441,-0.045 0.5557,-0.04 0.166633,0 0.336073,0 0.498581,0.067 0.147641,0.092 0.23796,0.2458 0.265384,0.5149 0.04762,0.2305 0.103294,0.4572 0.160246,0.6813 0.06266,0.2267 0.09297,0.4716 0.156442,0.6973 0.0588,0.2047 0.116489,0.4157 0.161518,0.6286 0.07023,0.6818 -0.420697,0.9731 -0.780201,1.0332 -0.184888,-2e-4 -0.369776,-5e-4 -0.554663,0 -0.255377,0 -0.510755,0 -0.766133,0 -0.256631,6e-4 -0.513262,6e-4 -0.769891,0 -0.189455,8e-4 -0.378907,0 -0.568363,-9e-4 -0.198147,0 -0.396727,0 -0.59403,0.037 -0.205719,0.042 -0.407358,0.116 -0.60766,0.2051 -0.17721,0.061 -0.35437,0.1076 -0.534105,0.1413 -0.191848,0.055 -0.384777,0.087 -0.576387,0.1429 -0.155372,0.067 -0.305016,0.1664 -0.462065,0.2234 -0.196408,0.066 -0.395019,0.116 -0.582006,0.245 -0.194877,0.1076 -0.397686,0.2554 -0.60556,0.2278 -0.198518,-0.092 -0.219218,-0.3292 -0.213312,-0.6458 3.73e-4,-0.3342 0.0018,-0.6688 -0.0033,-1.0031 0,0 0.616296,-0.5279 0.616296,-0.5279 z"
       inkscape:connector-curvature="0" />
    <path
       style="fill:#000000;fill-opacity:1"
       id="path3043"
       d="m 145.45399,1035.5386 c -0.0189,0.3121 0.0157,0.6083 0.07,0.9044 0.0408,0.2734 0.0851,0.5434 0.13163,0.8141 0.0465,0.2101 0.1113,0.4057 0.16266,0.612 0.0305,0.2406 0.10147,0.35 0.23867,0.4094 0.16351,0.035 0.32551,0.042 0.48799,0.092 0.20099,0.066 0.40579,0.077 0.6098,0.089 0.25211,0.017 0.50429,0 0.75645,0 0.22042,0.044 0.43961,0.096 0.66109,0.1227 0.19672,0.02 0.39385,0.022 0.59085,0.022 0.17664,10e-5 0.35328,-6e-4 0.52993,-9e-4 0.17464,-3e-4 0.34929,-3e-4 0.52394,-3e-4 0.17483,0 0.34967,0 0.52451,0 0.17671,0.022 0.34793,-0.054 0.52155,-0.096 0.16616,0 0.32335,-0.067 0.48434,-0.1277 0.15899,-0.054 0.32143,-0.062 0.48299,-0.069 0.17388,0 0.34779,0 0.52168,0 0.22043,-0.081 0.66968,-0.5027 -0.41012,0.4306 -0.0172,0.017 0.0281,-0.045 0.0389,-0.072 0.0281,-0.071 0.0327,-0.1261 0.046,-0.2078 0.0281,-0.2616 0.0314,-0.5256 0.001,-0.7862 -0.0214,-0.2458 -0.0586,-0.4822 -0.0984,-0.7208 -0.0452,-0.2554 -0.0374,-0.5242 -0.0635,-0.7843 -0.0518,-0.2475 -0.21543,-0.2408 -0.34797,-0.2606 -0.19865,-0.019 -0.39776,-0.017 -0.59662,-0.017 -0.21305,0 -0.42609,0 -0.63914,0 -0.18421,0 -0.36842,0 -0.55263,0 -0.17487,0 -0.34975,0 -0.52463,0 -0.17473,0 -0.34947,0 -0.5242,0 -0.17487,0 -0.34974,0 -0.52461,0 -0.14573,0 -0.29147,0 -0.4372,0 0,0 0.55533,-0.6784 0.55533,-0.6784 l 0,0 c 0.14573,0 0.29147,0 0.4372,0 0.17487,0 0.34974,0 0.52461,0 0.17474,0 0.34948,0 0.52422,0 0.17483,0 0.34967,2e-4 0.5245,2e-4 0.18367,2e-4 0.36735,3e-4 0.55102,3e-4 0.21283,-1e-4 0.42565,0 0.63847,0 0.2009,0 0.40229,-0.017 0.60267,0.02 0.16753,0.035 0.33558,0.082 0.39657,0.3847 0.0287,0.2559 0.0184,0.5212 0.0609,0.7742 0.0396,0.2415 0.0799,0.4794 0.10032,0.7285 0.034,0.2748 0.0341,0.5505 0.0121,0.8291 -0.0703,0.6714 -0.45639,0.9708 -0.85031,1.0312 -0.17356,-2e-4 -0.34717,0 -0.52069,0 -0.15979,0.017 -0.32018,0.025 -0.47637,0.087 -0.16056,0.062 -0.3219,0.091 -0.48574,0.1177 -0.17513,0.045 -0.34934,0.1025 -0.52772,0.082 -0.17484,0 -0.34968,0 -0.52451,10e-5 -0.17464,0 -0.34927,2e-4 -0.52391,5e-4 -0.17656,2e-4 -0.35313,0 -0.52969,-5e-4 -0.19725,0 -0.39463,0 -0.59145,-0.032 -0.2197,-0.03 -0.43699,-0.091 -0.65676,-0.116 -0.25235,10e-5 -0.50474,0 -0.75704,-0.017 -0.2076,-0.017 -0.41553,-0.027 -0.61981,-0.096 -0.16492,-0.044 -0.33284,-0.035 -0.49558,-0.1025 -0.14458,-0.089 -0.23781,-0.2336 -0.27071,-0.4952 -0.0517,-0.2108 -0.11861,-0.4099 -0.16543,-0.6248 -0.0451,-0.2708 -0.09,-0.54 -0.12855,-0.8139 -0.0566,-0.3043 -0.0962,-0.6085 -0.0851,-0.9303 0,0 0.61629,-0.5281 0.61629,-0.5281 z"
       inkscape:connector-curvature="0" />
    <path
       style="fill:#000000;fill-opacity:1"
       id="path3045"
       d="m 152.99771,1035.5199 c 0.19841,0 0.39687,0 0.5953,0 0.18606,-5e-4 0.37211,-8e-4 0.55817,-10e-4 0.17521,-10e-5 0.35043,-10e-5 0.52565,-10e-5 0.17472,0 0.34945,0 0.52417,0 0.17487,0 0.34973,0 0.52459,0 0.22018,-0.082 0.66971,-0.5029 -0.41036,0.4302 -0.0172,0.017 0.0281,-0.045 0.0388,-0.072 0.0219,-0.055 0.019,-0.091 0.0229,-0.1547 0.005,-0.2137 -0.0769,-0.3761 -0.13179,-0.5558 -0.0807,-0.1811 -0.12214,-0.3965 -0.1755,-0.6016 -0.0831,-0.2381 -0.12601,-0.4982 -0.15181,-0.7684 -0.0477,-0.2374 -0.0638,-0.488 -0.10238,-0.7285 -0.0311,-0.2254 -0.0618,-0.3959 -0.19525,-0.486 -0.15294,-0.064 -0.3123,0.025 -0.45927,0.097 -0.16118,0.1479 -0.34615,0.1769 -0.5158,0.2789 -0.1556,0.116 -0.32735,0.1009 -0.4894,0.1648 -0.17913,0.037 -0.34928,0.1227 -0.5231,0.199 -0.16181,0.064 -0.32833,0.074 -0.49371,0.081 -0.1739,0 -0.34784,0 -0.52176,0 -0.17498,-7e-4 -0.34996,0 -0.52494,0 -0.1749,-1e-4 -0.3498,-1e-4 -0.5247,-1e-4 -0.16272,0.027 -0.31763,-0.051 -0.47617,-0.096 -0.1613,-0.04 -0.3246,-0.045 -0.48733,-0.05 0,0 0.55635,-0.6767 0.55635,-0.6767 l 0,0 c 0.16537,0 0.33133,0.017 0.49471,0.062 0.15526,0.049 0.3084,0.1059 0.46777,0.081 0.1749,0 0.34981,0 0.52472,10e-5 0.17499,4e-4 0.34999,7e-4 0.52499,0 0.17353,5e-4 0.34712,0 0.5206,0 0.16304,-0.017 0.32684,-0.029 0.48491,-0.1025 0.17326,-0.081 0.34796,-0.1396 0.525,-0.1919 0.16398,-0.044 0.32985,-0.071 0.48563,-0.1762 0.17464,-0.079 0.34845,-0.158 0.51612,-0.2747 0.15996,-0.072 0.33092,-0.1412 0.49094,-0.034 0.13969,0.1294 0.19195,0.315 0.22476,0.5716 0.0412,0.2441 0.0541,0.5009 0.10457,0.7422 0.0226,0.2614 0.0622,0.5123 0.14551,0.7397 0.0527,0.2033 0.0939,0.4153 0.17352,0.5952 0.06,0.1961 0.14667,0.3744 0.14923,0.6058 0.0134,0.6475 -0.47603,0.9457 -0.82304,1.0012 -0.17486,0 -0.34972,0 -0.52459,0 -0.17473,0 -0.34946,0 -0.52419,0 -0.17515,0 -0.3503,0 -0.52546,-10e-5 -0.18554,-2e-4 -0.37108,-4e-4 -0.55662,-9e-4 -0.20042,-5e-4 -0.40087,0 -0.60128,0 0,0 0.55959,-0.6836 0.55959,-0.6836 z"
       inkscape:connector-curvature="0" />
    <path
       style="fill:#000000;fill-opacity:1"
       id="path3047"
       d="m 156.53061,1017.3856 c -0.20642,0 -0.41288,0 -0.61933,0 -0.23052,0 -0.46104,-3e-4 -0.69157,-3e-4 -0.25226,0 -0.50452,10e-5 -0.75678,-4e-4 -0.23735,2e-4 -0.4747,10e-4 -0.71204,5e-4 -0.23348,-6e-4 -0.46695,0 -0.70043,10e-4 -0.17136,5e-4 -0.34692,-0.03 -0.50371,0.1043 0.18056,-0.1697 0.35832,-0.3481 0.54168,-0.5091 0.0172,-0.017 -0.0293,0.044 -0.0409,0.069 -0.0566,0.1278 -0.0623,0.3016 -0.0717,0.4536 -0.0109,0.2892 -0.008,0.579 -0.007,0.8686 0.001,0.2952 0.002,0.5904 0.002,0.8857 0.0257,0.2656 0.0229,0.5563 0.10032,0.7973 0.12362,0.195 0.32493,0.173 0.4843,0.1846 0.19682,0 0.39372,0 0.59056,5e-4 0.14909,-0.017 0.31154,-0.05 0.45157,-0.1429 0.13872,-0.099 0.28825,-0.1245 0.43689,-0.1429 0.16502,0 0.32553,0 0.48678,-0.066 0.1545,-0.061 0.31302,-0.076 0.47097,-0.087 0.17306,-0.017 0.34622,0 0.51933,0 0.0875,10e-5 0.17506,3e-4 0.2626,5e-4 0,0 -0.55537,0.6782 -0.55537,0.6782 l 0,0 c -0.0875,-2e-4 -0.17503,-3e-4 -0.26255,-3e-4 -0.17263,3e-4 -0.34534,-2e-4 -0.51783,0.017 -0.1567,0.017 -0.31283,0.042 -0.46599,0.1025 -0.16243,0.047 -0.32663,0.03 -0.49055,0.054 -0.14708,0.025 -0.29094,0.072 -0.42892,0.1648 -0.1507,0.064 -0.30528,0.1194 -0.46147,0.1126 -0.19699,0 -0.3941,0 -0.59098,0 -0.18507,-0.019 -0.4003,-0.017 -0.52722,-0.2796 -0.081,-0.2612 -0.0839,-0.5622 -0.11398,-0.8485 -2.6e-4,-0.2951 -6.8e-4,-0.5902 -0.002,-0.8852 -0.001,-0.2924 -0.004,-0.5851 0.003,-0.8773 0.0319,-0.7874 0.18438,-0.8024 0.72796,-1.2461 0.16822,-0.084 0.34109,-0.067 0.51488,-0.064 0.23293,0 0.46587,0 0.69881,0 0.23711,-6e-4 0.47422,4e-4 0.71133,5e-4 0.25244,-5e-4 0.50488,0 0.75732,-3e-4 0.2307,0 0.46141,0 0.69211,-3e-4 0.20902,-2e-4 0.41806,3e-4 0.62706,0 0,0 -0.55959,0.6834 -0.55959,0.6834 z"
       inkscape:connector-curvature="0" />
  </g>
</svg>
