<?xml version="1.0" encoding="UTF-8" standalone="no"?>
<!-- Created with Inkscape (http://www.inkscape.org/) -->

<svg
   xmlns:dc="http://purl.org/dc/elements/1.1/"
   xmlns:cc="http://creativecommons.org/ns#"
   xmlns:rdf="http://www.w3.org/1999/02/22-rdf-syntax-ns#"
   xmlns:svg="http://www.w3.org/2000/svg"
   xmlns="http://www.w3.org/2000/svg"
   xmlns:sodipodi="http://sodipodi.sourceforge.net/DTD/sodipodi-0.dtd"
   xmlns:inkscape="http://www.inkscape.org/namespaces/inkscape"
   width="32"
   height="64"
   id="svg2"
   version="1.1"
   inkscape:version="0.48.5 r10040"
   sodipodi:docname="microphone.svg"
   inkscape:export-filename="C:\Users\narfman0\Desktop\microphone.png"
   inkscape:export-xdpi="90"
   inkscape:export-ydpi="90">
  <defs
     id="defs4" />
  <sodipodi:namedview
     id="base"
     pagecolor="#ffffff"
     bordercolor="#666666"
     borderopacity="1.0"
     inkscape:pageopacity="0.0"
     inkscape:pageshadow="2"
     inkscape:zoom="9.93"
     inkscape:cx="30.638469"
     inkscape:cy="32.767493"
     inkscape:document-units="px"
     inkscape:current-layer="layer1"
     showgrid="false"
     inkscape:window-width="1516"
     inkscape:window-height="962"
     inkscape:window-x="230"
     inkscape:window-y="30"
     inkscape:window-maximized="0" />
  <metadata
     id="metadata7">
    <rdf:RDF>
      <cc:Work
         rdf:about="">
        <dc:format>image/svg+xml</dc:format>
        <dc:type
           rdf:resource="http://purl.org/dc/dcmitype/StillImage" />
        <dc:title></dc:title>
      </cc:Work>
    </rdf:RDF>
  </metadata>
  <g
     inkscape:label="Layer 1"
     inkscape:groupmode="layer"
     id="layer1"
     transform="translate(0,-988.36218)">
    <path
       style="fill:#1a1a1a;fill-opacity:1;stroke:none"
       id="path2985"
       d="M 11.562551,3.7796878 C 11.372372,3.9835562 11.223907,4.2202126 11.07104,4.452208 10.960758,4.6246991 10.853163,4.7963254 10.767086,4.9824565 10.666525,5.1500939 10.58592,5.326294 10.505017,5.5035434 10.434255,5.6863913 10.34858,5.8630765 10.281641,6.0474926 10.220782,6.2436872 10.139599,6.4306441 10.100574,6.6330781 10.046391,6.8537106 9.9700402,7.0673751 9.9212597,7.2893784 9.8564691,7.5048659 9.8109794,7.7248023 9.7509452,7.9414995 9.7107929,8.1547461 9.6457585,8.3598889 9.5712768,8.5632416 9.4940432,8.7556188 9.4435598,8.9567184 9.3766727,9.1522983 9.3086022,9.3063529 9.2376633,9.4567627 9.1757645,9.6137658 9.1161474,9.8056138 9.0445455,9.9926815 8.9698922,10.179137 8.8973003,10.35148 8.8337448,10.525704 8.772109,10.702202 c -0.056,0.19941 -0.1286482,0.392487 -0.2050428,0.584807 -0.048251,0.17545 -0.1242301,0.341783 -0.1681972,0.51841 -0.023645,0.180631 -0.1108333,0.341891 -0.1709642,0.511259 -0.034416,0.166373 -0.096872,0.324836 -0.1336765,0.490583 -0.061253,0.189535 -0.1023021,0.383985 -0.1562975,0.575535 -0.08995,0.22889 -0.151115,0.467148 -0.2277325,0.70054 -0.077608,0.241178 -0.1399792,0.487614 -0.1945176,0.735026 -0.041755,0.230698 -0.1033854,0.457387 -0.1726223,0.681193 -0.055072,0.213489 -0.1116198,0.426743 -0.1504216,0.643951 -0.030428,0.225592 -0.087305,0.446685 -0.1526226,0.664392 -0.046274,0.197238 -0.091437,0.394642 -0.1359291,0.592447 -0.032607,0.208247 -0.075665,0.414956 -0.1351903,0.617252 -0.064764,0.182238 -0.094901,0.371966 -0.1112787,0.563784 -0.037285,0.174733 -0.07762,0.347337 -0.095936,0.525327 -0.048256,0.17457 -0.075309,0.353679 -0.1167245,0.52961 -0.062912,0.197472 -0.1181764,0.398761 -0.1868888,0.594398 -0.064457,0.159406 -0.090487,0.328717 -0.1428726,0.491973 -0.031661,0.155048 -0.097333,0.299492 -0.1342316,0.453028 -0.032034,0.158882 -0.088902,0.309658 -0.1146495,0.470223 -0.023174,0.180597 -0.024194,0.363044 -0.025939,0.544824 -0.01165,0.131859 0.038737,0.240964 0.1136381,0.347564 0.1012906,0.08738 0.2033041,0.174859 0.3059526,0.261571 0.1379924,0.0814 0.2700952,0.175034 0.4152496,0.243467 0.1519217,0.07447 0.281166,0.180533 0.4126017,0.284777 0.1203898,0.06154 0.2143615,0.163585 0.3334157,0.226339 0.1355196,0.07799 0.2521414,0.180517 0.3730488,0.278167 0.120574,0.102874 0.2563322,0.183067 0.388695,0.268847 0.1079572,0.0915 0.2100563,0.197972 0.337888,0.261969 0.1405399,0.08889 0.290836,0.160523 0.4377204,0.238819 0.1806779,0.11164 0.3808964,0.184497 0.572891,0.273516 0.1866657,0.07771 0.3733003,0.156852 0.5699354,0.205752 0.210711,0.06462 0.424587,0.115804 0.626604,0.205091 0.165868,0.07989 0.341921,0.137811 0.520562,0.181501 0.231822,0.03263 0.442294,0.138369 0.665499,0.20256 0.18211,0.02793 0.356318,0.08865 0.536357,0.125814 0.171646,0.01285 0.334859,0.0674 0.502777,0.100614 0.193484,0.02964 0.382736,0.08166 0.565853,0.150117 0.169333,0.04949 0.341203,0.09208 0.513148,0.132616 0.18937,0.03632 0.380321,0.0439 0.568398,0.08763 0.165548,0.02328 0.318729,0.09106 0.480393,0.129552 0.175238,0.03606 0.354618,0.02812 0.530903,0.05411 0.166929,0.04161 0.3365,0.06437 0.507809,0.07647 0.19471,-0.0035 0.383236,0.02159 0.573314,0.06056 0.170832,0.03445 0.345212,0.04181 0.518888,0.04726 0.197943,0.0044 0.395955,0.0038 0.593935,0.0037 0.20161,-2.61e-4 0.40322,-4.57e-4 0.60483,-5.63e-4 0.18728,-0.0119 0.379689,0.02049 0.565264,-0.01031 0.161653,-0.04786 0.334559,-0.04388 0.496447,-0.08599 0.154402,-0.03222 0.293765,-0.103815 0.444881,-0.147577 0.180898,-0.05323 0.353737,-0.117811 0.52492,-0.19629 0.182911,-0.07152 0.367986,-0.137229 0.549349,-0.212924 0.191177,-0.06038 0.371817,-0.141468 0.548256,-0.236247 0.195862,-0.104913 0.392597,-0.209955 0.584189,-0.322441 0.142626,-0.08413 0.281122,-0.174715 0.423143,-0.260373 0.102112,-0.09234 0.233041,-0.143053 0.337977,-0.231273 0.113383,-0.11919 0.265036,-0.189288 0.390483,-0.29326 0.143707,-0.09094 0.283759,-0.183449 0.420542,-0.285091 0.147201,-0.09139 0.279202,-0.203409 0.415471,-0.309841 0.149978,-0.115226 0.298443,-0.232498 0.4363,-0.362329 0.13167,-0.104668 0.226496,-0.244099 0.341492,-0.366306 0.117419,-0.156352 0.238333,-0.309544 0.356185,-0.465598 0.12849,-0.18215 0.25731,-0.365845 0.369778,-0.558584 0.148626,-0.223608 0.271431,-0.460222 0.390751,-0.700127 0.111796,-0.253509 0.256539,-0.490714 0.372827,-0.741771 0.100503,-0.213097 0.192058,-0.431596 0.274067,-0.652567 0.109746,-0.218659 0.173962,-0.454401 0.264697,-0.680544 0.09052,-0.245889 0.173672,-0.494128 0.273017,-0.736585 0.05534,-0.171639 0.105221,-0.346004 0.146634,-0.521806 0.03846,-0.225759 0.118732,-0.441118 0.178128,-0.661652 0.05392,-0.257404 0.118013,-0.512671 0.182859,-0.767547 0.06611,-0.274632 0.08056,-0.557379 0.121496,-0.836306 0.02792,-0.295687 0.09331,-0.585464 0.132628,-0.879527 0.03584,-0.297744 0.03934,-0.598079 0.04307,-0.897568 -0.0015,-0.308026 0.04928,-0.613143 0.0748,-0.919617 0.0056,-0.274713 0.05341,-0.545064 0.08854,-0.816857 0.02863,-0.233965 0.0338,-0.469929 0.03761,-0.705349 0.0025,-0.257257 0.0017,-0.514532 0.0015,-0.771798 -2.84e-4,-0.220528 -4.38e-4,-0.441056 -5.19e-4,-0.661584 -6e-5,-0.211433 -5.6e-5,-0.422866 -5.6e-5,-0.6342991 1e-6,-0.2229791 3e-6,-0.4459582 5e-6,-0.6689373 0,-0.2037948 1e-6,-0.4075896 1e-6,-0.6113844 0,-0.2012237 0,-0.4024474 0,-0.6036711 -3.26e-4,-0.1803656 0.01113,-0.3590507 -0.02485,-0.5363293 -0.0215,-0.1638789 -0.06388,-0.3200543 -0.107719,-0.4787089 -0.0583,-0.1784694 -0.03805,-0.3701222 -0.07513,-0.5512052 C 27.969537,6.105344 27.925203,5.9733476 27.854531,5.8385267 27.760202,5.7230441 27.701845,5.5834434 27.606375,5.4690562 27.50256,5.3522926 27.401469,5.2342874 27.285898,5.1287764 27.15314,5.0328321 27.028463,4.926748 26.899375,4.8258799 26.761349,4.7488659 26.653609,4.6275224 26.516531,4.5502409 26.374021,4.4714544 26.224428,4.400872 26.071735,4.3433531 25.90637,4.265942 25.749762,4.1719648 25.586714,4.0900772 25.414758,4.0245974 25.261034,3.9213538 25.090792,3.8523243 24.918153,3.7663437 24.730626,3.7226284 24.550211,3.6570526 24.365303,3.6037753 24.193599,3.5155546 24.012676,3.4515044 23.826719,3.384265 23.645481,3.3048714 23.459602,3.237713 23.316032,3.1589307 23.160293,3.1118282 23.009701,3.0494409 22.856339,3.0033607 22.705143,2.9497167 22.556162,2.8906032 22.380439,2.8066636 22.194116,2.7525829 22.012484,2.6846695 21.854014,2.6201884 21.685662,2.5895902 21.52123,2.5441626 21.354693,2.4608858 21.175485,2.4218591 20.997935,2.3723427 20.803221,2.3245151 20.609368,2.2736843 20.4144,2.2265414 20.19182,2.1516345 19.960626,2.1106704 19.733681,2.0517927 19.535544,1.9930386 19.327966,1.9917903 19.126235,1.9553036 18.943542,1.9216792 18.771679,1.8508479 18.591028,1.8093435 c -0.194198,-0.03192 -0.389373,-0.040518 -0.583099,-0.076584 -0.189997,-0.039642 -0.38335,-0.054803 -0.576827,-0.063563 -0.211318,0.0078 -0.417376,-0.038243 -0.625022,-0.069194 -0.191593,-0.026837 -0.385156,-0.032248 -0.5783,-0.035902 -0.200042,-0.00256 -0.400108,-0.00192 -0.600161,-0.0017 -0.19229,-0.0031 -0.381796,-0.00536 -0.571573,0.026457 -0.171429,0.045257 -0.329873,0.1261402 -0.488811,0.2033692 -0.187519,0.076965 -0.359187,0.188807 -0.519201,0.3121994 -0.133204,0.1128227 -0.282995,0.2040385 -0.416232,0.3165675 -0.12957,0.083531 -0.229809,0.1918311 -0.326509,0.30877 -0.09794,0.1434007 -0.189969,0.2911116 -0.279311,0.4401187 -0.07957,0.1854801 -0.192258,0.3414778 -0.333788,0.4831589 -0.141417,0.119012 -0.302976,0.2104266 -0.478141,0.268588 -0.159057,0.080925 -0.33144,0.1173105 -0.506912,0.1398457 -0.135032,0.014234 -0.270857,0.016658 -0.406485,0.019082 -0.284793,0.00504 -0.291915,-0.3977206 -0.0071,-0.4027568 l 0,0 c 0.12128,-0.00212 0.242733,-0.00403 0.363541,-0.016021 0.152262,-0.018454 0.296687,-0.054514 0.434702,-0.1239619 0.116031,-0.034225 0.218267,-0.098998 0.315455,-0.1694859 0.118381,-0.1184662 0.207301,-0.2495254 0.273662,-0.4062392 0.100307,-0.165985 0.20142,-0.3321041 0.314514,-0.4896879 0.112875,-0.1351829 0.229962,-0.2623745 0.378285,-0.3606723 0.139174,-0.1151437 0.292325,-0.211299 0.430511,-0.3279456 0.182862,-0.1376144 0.375087,-0.2670233 0.587748,-0.3542426 0.193679,-0.093184 0.387052,-0.1913026 0.598328,-0.2381006 0.211593,-0.034627 0.422737,-0.036724 0.636885,-0.031862 0.202764,-2.291e-4 0.40554,-8.675e-4 0.608292,0.00177 0.210504,0.00404 0.421422,0.010553 0.630174,0.040255 0.194198,0.029102 0.386161,0.073634 0.583877,0.065188 0.212131,0.00979 0.424097,0.0269 0.632462,0.070005 0.19934,0.037457 0.40133,0.04125 0.600572,0.080253 0.175478,0.041431 0.343093,0.1066751 0.519814,0.1426851 0.208253,0.044091 0.427878,0.033549 0.632488,0.1021412 0.224866,0.058345 0.454166,0.098536 0.674565,0.1732034 0.199808,0.048656 0.398523,0.100465 0.598135,0.1496359 0.176013,0.050661 0.35717,0.084775 0.521183,0.171229 0.176531,0.048983 0.357499,0.081812 0.527458,0.1524023 0.182263,0.07174 0.372942,0.1226372 0.550145,0.2084675 0.149929,0.061249 0.303537,0.1112812 0.45756,0.1604783 0.145159,0.06015 0.296438,0.1043445 0.433946,0.1820551 0.184695,0.068068 0.365494,0.145482 0.55053,0.2128716 0.181233,0.065383 0.354319,0.1515766 0.539461,0.2062426 0.185835,0.067556 0.379245,0.1126389 0.557012,0.2016551 0.178791,0.075092 0.343334,0.1781656 0.523425,0.2503655 0.15071,0.076425 0.297124,0.1607246 0.447961,0.2368501 0.173548,0.06764 0.34495,0.145758 0.507019,0.2371655 0.148556,0.091603 0.275776,0.2115794 0.424154,0.3039657 0.137414,0.1073751 0.270449,0.219556 0.410662,0.3233338 0.130872,0.1203207 0.246893,0.2537002 0.364053,0.3871047 0.106275,0.1379283 0.1876,0.2913392 0.289218,0.4326479 0.08965,0.1711328 0.146481,0.3443052 0.174883,0.5359126 0.02816,0.1710849 0.0236,0.3462277 0.06696,0.5151643 0.04609,0.1680146 0.09058,0.3344886 0.114523,0.5075073 0.03949,0.2036439 0.03579,0.4076401 0.0325,0.6144873 0,0.2012237 0,0.4024475 0,0.6036712 0,0.2037955 0,0.407591 -10e-7,0.6113864 -1e-6,0.2229781 -3e-6,0.4459562 -4e-6,0.6689342 0,0.2113843 -5e-6,0.4227681 5.6e-5,0.6341531 8e-5,0.220434 2.34e-4,0.440868 5.19e-4,0.661303 2.76e-4,0.259596 0.001,0.519202 -0.0015,0.77879 -0.0041,0.250513 -0.01007,0.501568 -0.04089,0.750493 -0.03445,0.265792 -0.0816,0.529995 -0.08661,0.798694 -0.02491,0.29699 -0.0739,0.592709 -0.07343,0.891103 -0.004,0.315764 -0.0082,0.63239 -0.04663,0.946243 -0.04,0.295656 -0.104797,0.587088 -0.133309,0.884364 -0.04302,0.292597 -0.05762,0.589392 -0.129658,0.877091 -0.06535,0.256821 -0.129684,0.514031 -0.184378,0.773341 -0.05873,0.216517 -0.137088,0.428158 -0.17512,0.649812 -0.04702,0.195824 -0.101366,0.390642 -0.165762,0.581256 -0.09904,0.241705 -0.181312,0.489444 -0.272132,0.734408 -0.09017,0.222682 -0.151707,0.456032 -0.261049,0.671153 -0.08682,0.230439 -0.180878,0.459186 -0.286276,0.681671 -0.118979,0.253632 -0.263165,0.494684 -0.37724,0.750928 -0.12351,0.248191 -0.250823,0.493054 -0.404045,0.724676 -0.121548,0.205902 -0.257831,0.403642 -0.396377,0.598283 -0.127302,0.166768 -0.254254,0.33317 -0.383784,0.498186 -0.120964,0.128155 -0.221161,0.275293 -0.360191,0.38489 -0.147675,0.136275 -0.303032,0.263316 -0.462813,0.38495 -0.138798,0.108402 -0.273712,0.222326 -0.423313,0.315814 -0.132747,0.09846 -0.268196,0.190902 -0.409113,0.276284 -0.129184,0.101095 -0.275343,0.178641 -0.392363,0.294754 -0.122612,0.09385 -0.259776,0.163752 -0.380267,0.260492 -0.144132,0.08607 -0.283935,0.1781 -0.428312,0.263424 -0.196788,0.113194 -0.395954,0.222988 -0.596551,0.329329 -0.188239,0.100128 -0.380618,0.189039 -0.584203,0.25323 -0.177071,0.07264 -0.356445,0.139224 -0.535366,0.206831 -0.189941,0.08708 -0.382782,0.157917 -0.583023,0.217692 -0.15736,0.04311 -0.301641,0.123674 -0.463599,0.152396 -0.176299,0.03826 -0.357636,0.0487 -0.533256,0.09275 -0.205489,0.02464 -0.412605,0.01041 -0.619293,0.01397 -0.201585,1.06e-4 -0.40317,3.01e-4 -0.604754,5.63e-4 -0.202332,1.44e-4 -0.404697,7.74e-4 -0.606989,-0.0039 -0.196573,-0.0063 -0.393795,-0.01583 -0.587044,-0.05527 -0.173242,-0.03553 -0.343308,-0.0576 -0.521204,-0.05338 -0.183069,-0.01329 -0.364987,-0.03584 -0.543371,-0.08062 -0.184596,-0.03475 -0.378653,-0.009 -0.561878,-0.06038 -0.160522,-0.03977 -0.312694,-0.104308 -0.476959,-0.128731 -0.187872,-0.04446 -0.380763,-0.04489 -0.569354,-0.08785 -0.188227,-0.04479 -0.37672,-0.09056 -0.561489,-0.147327 -0.162955,-0.06108 -0.331329,-0.10693 -0.503802,-0.132409 -0.169196,-0.03427 -0.333236,-0.08787 -0.506243,-0.101325 -0.189959,-0.0403 -0.37419,-0.101793 -0.566134,-0.133249 -0.217925,-0.06386 -0.423958,-0.164725 -0.649984,-0.198385 -0.202315,-0.05067 -0.402309,-0.115445 -0.590602,-0.205891 -0.177469,-0.08472 -0.373284,-0.117691 -0.558587,-0.181208 C 9.7818602,25.41535 9.5707503,25.330365 9.3615145,25.241008 9.1631186,25.148282 8.9555715,25.073426 8.7687246,24.957554 8.6213042,24.878595 8.4701716,24.806039 8.3285834,24.717432 8.1951955,24.642122 8.0688369,24.54807 7.9618587,24.438203 7.8193979,24.34282 7.6701107,24.257425 7.5395766,24.144723 7.4370066,24.060366 7.3381679,23.972574 7.222927,23.905109 7.0880451,23.826136 6.9711131,23.722593 6.8363853,23.64286 6.7287382,23.556377 6.6241469,23.46781 6.4993627,23.405775 6.3252809,23.319703 6.1606671,23.214043 5.9990126,23.106767 5.8673053,22.994179 5.728858,22.888446 5.6153691,22.756468 5.5079368,22.582744 5.4192049,22.397319 5.4375728,22.186865 c 0.00197,-0.202367 0.00369,-0.405488 0.031268,-0.606346 0.028699,-0.170963 0.084847,-0.332656 0.1210387,-0.501332 0.040849,-0.162377 0.1062659,-0.315921 0.1418015,-0.479712 0.053876,-0.167467 0.079062,-0.342136 0.1474095,-0.505291 0.067445,-0.180322 0.1129041,-0.37043 0.1744025,-0.552845 0.039936,-0.157722 0.056274,-0.321242 0.1075595,-0.476603 0.018641,-0.175314 0.05102,-0.347528 0.095256,-0.518232 0.019326,-0.219051 0.053841,-0.436113 0.126725,-0.644558 0.059207,-0.192769 0.094613,-0.391737 0.1281062,-0.590247 0.046798,-0.206889 0.093342,-0.413501 0.1430509,-0.619578 0.06097,-0.203143 0.1144417,-0.409274 0.1419925,-0.61995 0.04223,-0.23322 0.1017937,-0.462598 0.1620502,-0.69167 0.065981,-0.213265 0.1248974,-0.429164 0.1641329,-0.649132 0.057802,-0.260533 0.1232216,-0.520153 0.2052558,-0.774126 0.07535,-0.227592 0.1334461,-0.460848 0.2225979,-0.683738 0.0521,-0.184824 0.091039,-0.372687 0.1511481,-0.555267 0.041766,-0.181517 0.1064027,-0.356097 0.1474464,-0.537775 0.056986,-0.157119 0.1375038,-0.306879 0.1597297,-0.474596 0.050096,-0.19298 0.1283294,-0.376338 0.1841718,-0.567607 0.074475,-0.18737 0.1449626,-0.375404 0.1994144,-0.569776 C 8.4566164,10.386963 8.5219746,10.207142 8.5959568,10.02935 8.6705,9.843339 8.7411598,9.6565749 8.8012849,9.4653449 8.8618189,9.3135813 8.9289731,9.1668887 8.996516,9.0190895 9.0675514,8.8234014 9.1132573,8.6179148 9.1930302,8.4247018 9.263818,8.2314344 9.324855,8.0367689 9.3627486,7.8339491 9.4209134,7.6240142 9.464474,7.410797 9.5279812,7.2022249 9.5768342,6.9833737 9.6480833,6.7716031 9.7053926,6.5550075 9.7502547,6.3320955 9.8335079,6.1239235 9.9035902,5.9084204 9.9756391,5.7146197 10.063224,5.5275454 10.139002,5.3353265 c 0.08225,-0.1774455 0.161068,-0.3556482 0.26304,-0.5231833 0.09549,-0.2032447 0.211164,-0.3930676 0.332636,-0.5815752 0.1678,-0.2546519 0.332355,-0.5135694 0.543036,-0.7357168 0.20141,-0.2014099 0.486246,0.083427 0.284837,0.2848366 z"
       inkscape:connector-curvature="0"
       transform="translate(0,988.36218)" />
    <path
       style="fill:#1a1a1a;fill-opacity:1;stroke:none"
       id="path2987"
       d="m 11.667702,25.844931 c -0.07378,0.282841 -0.113129,0.572751 -0.174397,0.858002 -0.05114,0.226534 -0.140511,0.440401 -0.179392,0.669914 -0.03104,0.220915 -0.08343,0.437484 -0.110462,0.659286 -0.02949,0.213124 -0.09813,0.414472 -0.163444,0.618033 -0.03677,0.177673 -0.07323,0.355247 -0.110654,0.533043 -0.02185,0.189412 -0.05794,0.373968 -0.101938,0.55933 -0.07343,0.151267 -0.10444,0.314934 -0.15367,0.473846 -0.04309,0.154507 -0.09643,0.30506 -0.144672,0.457994 -0.0073,0.03013 -0.04653,0.179033 0.02239,0.157414 0.206619,0.07907 0.409714,0.169412 0.620655,0.236841 0.263665,0.119032 0.541354,0.192333 0.817196,0.274572 0.259862,0.111732 0.53703,0.166395 0.80501,0.252543 0.300374,0.08839 0.603023,0.170057 0.911161,0.226817 0.253108,0.04239 0.49103,0.139287 0.738491,0.202694 0.195207,0.0295 0.385851,0.08127 0.580323,0.114929 0.192519,0.02307 0.377611,0.08608 0.55996,0.149424 0.176101,0.06262 0.363799,0.06671 0.546091,0.09815 0.163787,0.01992 0.344845,0.104101 0.507904,0.04657 0.07465,-0.07562 0.118685,-0.174043 0.171111,-0.266338 0.05977,-0.130422 0.110761,-0.266635 0.155471,-0.403413 0.04397,-0.161954 0.108022,-0.318324 0.167038,-0.475439 0.08636,-0.150349 0.142014,-0.313392 0.210573,-0.471816 0.05958,-0.16267 0.146625,-0.314646 0.230944,-0.465674 0.06927,-0.156808 0.157568,-0.305524 0.20668,-0.470469 0.07224,-0.170054 0.165121,-0.331197 0.254641,-0.492874 0.09579,-0.148059 0.207113,-0.284779 0.305155,-0.431768 0.0766,-0.166171 0.163962,-0.323218 0.265509,-0.475329 0.07904,-0.142727 0.139063,-0.295081 0.21288,-0.440404 0.07313,-0.132889 0.156135,-0.260043 0.233753,-0.390633 0.07268,-0.146436 0.129207,-0.299086 0.195899,-0.448248 0.05964,-0.139647 0.128881,-0.269482 0.159647,-0.419237 0.03874,-0.12249 0.01973,-0.06461 0.05665,-0.173764 0.09128,-0.269816 0.472853,-0.14073 0.381576,0.129085 l 0,0 c -0.03127,0.09242 -0.0164,0.04922 -0.04447,0.129645 -0.03933,0.176551 -0.112014,0.334921 -0.185684,0.498729 -0.07315,0.163513 -0.134174,0.331636 -0.217867,0.490477 -0.07422,0.123597 -0.153115,0.244307 -0.222346,0.37023 -0.08479,0.155474 -0.140372,0.327065 -0.235021,0.477787 -0.101826,0.152511 -0.183435,0.312628 -0.266259,0.476449 -0.09256,0.136775 -0.193774,0.266967 -0.287159,0.402363 -0.07643,0.137586 -0.153131,0.275298 -0.222064,0.416493 -0.06058,0.191111 -0.154806,0.36746 -0.240073,0.548313 -0.07808,0.138887 -0.158796,0.278707 -0.212726,0.428863 -0.06593,0.152232 -0.117764,0.310438 -0.20321,0.453602 -0.05736,0.152303 -0.120253,0.303446 -0.161842,0.460772 -0.05451,0.16177 -0.113013,0.32403 -0.188419,0.476932 -0.109442,0.187456 -0.206072,0.375155 -0.424059,0.456798 -0.229353,0.04805 -0.449098,0.01296 -0.675339,-0.0412 -0.202183,-0.03825 -0.412482,-0.03814 -0.607179,-0.114134 -0.161951,-0.05627 -0.325722,-0.114182 -0.497,-0.13311 -0.205041,-0.03602 -0.406322,-0.08907 -0.611939,-0.121763 -0.238242,-0.06208 -0.467635,-0.153554 -0.710948,-0.196592 -0.325238,-0.06045 -0.645029,-0.145697 -0.962015,-0.239703 -0.264637,-0.08654 -0.540032,-0.137801 -0.796552,-0.249904 -0.27826,-0.084 -0.559709,-0.156002 -0.825589,-0.27719 -0.24941,-0.08162 -0.496787,-0.179461 -0.732558,-0.293622 -0.211636,-0.177725 -0.240398,-0.345129 -0.17018,-0.60622 0.0493,-0.153332 0.102295,-0.304118 0.145156,-0.459504 0.05084,-0.146458 0.06781,-0.305202 0.145068,-0.443119 0.04336,-0.182213 0.07726,-0.363097 0.0997,-0.549368 0.04049,-0.1914 0.07786,-0.382897 0.121381,-0.573394 0.058,-0.179379 0.120062,-0.35573 0.147042,-0.543632 0.0283,-0.228564 0.08093,-0.45195 0.113472,-0.679518 0.042,-0.234652 0.1243,-0.455732 0.18256,-0.686083 0.06067,-0.275425 0.09482,-0.556684 0.169261,-0.829438 0.04028,-0.281974 0.439053,-0.225007 0.398771,0.05697 z"
       inkscape:connector-curvature="0"
       transform="translate(0,988.36218)" />
    <path
       style="fill:#1a1a1a;fill-opacity:1;stroke:none"
       id="path2989"
       d="m 10.38263,1018.4025 c 0.04042,0.3208 0.06379,0.6437 0.07907,0.9672 0.01171,0.2364 0.04085,0.4767 0.09178,0.7069 0.07183,0.2659 0.09459,0.5418 0.109588,0.8178 0.03566,0.2306 0.07371,0.4601 0.09425,0.6933 0.01203,0.1946 0.06422,0.3818 0.08965,0.5749 0.05719,0.1818 0.09018,0.3693 0.110398,0.5602 0.0034,0.2181 0.02984,0.4301 0.06297,0.6444 0.03671,0.2348 0.04767,0.4729 0.05413,0.7107 -0.01004,0.2014 0.01024,0.3936 0.04539,0.5898 0.03897,0.2165 0.04869,0.4373 0.05505,0.6575 0.0047,0.227 0.0041,0.4542 0.004,0.6812 -2.52e-4,0.2263 -4.49e-4,0.4527 -5.55e-4,0.679 -8.7e-5,0.2261 -9.1e-5,0.4522 -9.6e-5,0.6783 -10e-7,0.2261 2e-6,0.4522 3e-6,0.6783 0.0067,0.2126 -0.04923,0.4184 -0.0749,0.6276 -0.03266,0.2198 -0.101961,0.4263 -0.164027,0.6365 -0.03719,0.1981 -0.07345,0.3963 -0.110637,0.5947 -0.02992,0.2338 -0.07286,0.4655 -0.132037,0.6923 0.0318,-0.011 -0.03753,0.092 -0.009,0.1118 0.01395,0.01 9.43e-4,-0.036 0.002,-0.055 9.64e-4,-0.017 0.03075,-0 0.04587,-0 0.162086,0.017 0.326205,-0.036 0.481068,-0.087 0.201625,-0.055 0.40304,-0.1094 0.60512,-0.1625 0.223403,-0.064 0.455582,-0.05 0.682029,-0.085 0.213925,-0.043 0.42955,-0.064 0.641468,-0.1187 0.209704,-0.059 0.424705,-0.081 0.639961,-0.091 0.228911,-0.01 0.457984,-0.01 0.686989,-0.01 0.190522,-0.038 0.385448,-0.053 0.574251,-0.1003 0.20658,-0.062 0.417901,-0.094 0.630666,-0.1119 0.181814,0 0.356004,-0.02 0.533198,-0.061 0.171966,-0.038 0.346157,-0.041 0.516321,-0.088 0.140389,-0.023 0.250066,-0.1213 0.372381,-0.1926 0.126065,-0.1047 0.276158,-0.1581 0.418501,-0.2274 0.07827,-0.06 0.136634,-0.1434 0.166655,-0.2446 0.05923,-0.1583 0.128856,-0.3121 0.182984,-0.4728 0.04663,-0.1701 0.05103,-0.3495 0.05653,-0.526 0.02963,-0.2294 0.06746,-0.4566 0.08615,-0.6876 0.0152,-0.224 0.01599,-0.4488 0.01693,-0.6733 4.89e-4,-0.2546 2e-5,-0.5093 -2.14e-4,-0.7639 -2.2e-4,-0.2414 -2.63e-4,-0.4828 -2.91e-4,-0.7242 -2e-5,-0.2505 -1.6e-5,-0.5009 -1.5e-5,-0.7514 2e-6,-0.2287 3e-6,-0.4574 4e-6,-0.6862 0,-0.2486 0,-0.4972 0,-0.7457 0.01437,-0.2321 -0.0094,-0.4569 -0.04292,-0.6849 -0.0345,-0.2294 -0.0931,-0.4523 -0.125084,-0.6827 -0.04869,-0.1844 -0.08767,-0.3709 -0.136603,-0.5551 -0.0548,-0.1799 -0.09905,-0.3682 -0.163834,-0.5441 -0.06759,-0.094 -0.03331,-0.329 -0.143264,-0.3764 -0.213875,-0.2111 0.05217,-0.5507 0.266043,-0.3395 l 0,0 c 0.151948,0.168 0.187595,0.3334 0.252397,0.5512 0.06409,0.1904 0.118459,0.3864 0.174677,0.5796 0.05416,0.2038 0.09904,0.4101 0.148702,0.6154 0.03104,0.2289 0.09243,0.4496 0.12442,0.6781 0.037,0.2519 0.06217,0.5023 0.04829,0.7584 0,0.2485 0,0.4971 0,0.7457 -1e-6,0.2288 -2e-6,0.4575 -4e-6,0.6862 -2e-6,0.2505 -5e-6,0.5009 1.5e-5,0.7513 2.8e-5,0.2413 7.1e-5,0.4826 2.91e-4,0.7238 2.35e-4,0.2555 7.06e-4,0.511 2.09e-4,0.7666 -0.001,0.2375 -0.0021,0.4754 -0.0186,0.7124 -0.01833,0.2225 -0.04953,0.4425 -0.08472,0.6623 -0.0073,0.227 -0.01691,0.4568 -0.08349,0.6735 -0.05616,0.16 -0.12263,0.3149 -0.183037,0.4729 -0.07754,0.2109 -0.199367,0.3871 -0.382086,0.496 -0.13523,0.066 -0.27596,0.1156 -0.395722,0.2153 -0.150915,0.084 -0.286897,0.2042 -0.45993,0.2291 -0.175622,0.048 -0.353456,0.058 -0.531229,0.091 -0.193514,0.044 -0.385518,0.072 -0.583629,0.069 -0.194818,0.016 -0.387992,0.046 -0.577004,0.1033 -0.216981,0.05 -0.438573,0.078 -0.658103,0.1101 -0.222894,-10e-5 -0.445853,-7e-4 -0.668661,0.01 -0.191379,0.01 -0.38256,0.028 -0.568933,0.081 -0.224196,0.057 -0.451886,0.082 -0.678257,0.1261 -0.213973,0.03 -0.431518,0.023 -0.642908,0.077 -0.195209,0.051 -0.389699,0.1042 -0.58452,0.1564 -0.2228,0.072 -0.457901,0.1372 -0.6903,0.091 -0.2938,-0.093 -0.40924,-0.283 -0.327722,-0.6236 0.05841,-0.2142 0.09348,-0.4353 0.123878,-0.6563 0.04053,-0.2152 0.07777,-0.4306 0.122663,-0.6444 0.05495,-0.184 0.116606,-0.3637 0.147182,-0.5559 0.02364,-0.1885 0.07331,-0.3742 0.07105,-0.5651 -1e-6,-0.2261 -4e-6,-0.4522 -2e-6,-0.6784 4e-6,-0.2261 8e-6,-0.4523 9.5e-5,-0.6785 1.07e-4,-0.2263 3.03e-4,-0.4526 5.55e-4,-0.679 1.28e-4,-0.2221 7.34e-4,-0.4443 -0.0038,-0.6664 -0.0055,-0.1951 -0.01312,-0.3909 -0.04735,-0.5829 -0.03953,-0.2207 -0.06257,-0.4394 -0.05312,-0.6652 -0.0058,-0.2165 -0.0151,-0.4334 -0.04839,-0.6471 -0.03436,-0.2223 -0.06269,-0.4432 -0.06618,-0.6693 -0.01902,-0.1873 -0.06005,-0.367 -0.108893,-0.5473 -0.0256,-0.2001 -0.08228,-0.3938 -0.09195,-0.5962 -0.0206,-0.2388 -0.06442,-0.4729 -0.09543,-0.7101 -0.01332,-0.2498 -0.03299,-0.4993 -0.09926,-0.7398 -0.05351,-0.258 -0.09097,-0.5237 -0.102272,-0.7883 -0.01455,-0.31 -0.03691,-0.6196 -0.075585,-0.9271 -0.040282,-0.3166 0.358489,-0.3805 0.398771,-0.064 z"
       inkscape:connector-curvature="0" />
    <path
       style="fill:#1a1a1a;fill-opacity:1;stroke:none"
       id="path2991"
       d="m 12.60797,42.655537 c 0.107235,0.287726 0.220203,0.57357 0.301791,0.869901 0.08248,0.254349 0.167311,0.506169 0.220947,0.768437 0.05975,0.255501 0.131348,0.508162 0.185675,0.764857 0.07208,0.277586 0.125654,0.55872 0.156674,0.843733 0.01148,0.205583 0.05955,0.406405 0.116563,0.603427 0.06388,0.210418 0.08686,0.42876 0.09963,0.647278 0.04209,0.189337 0.05586,0.384296 0.09785,0.573286 0.05495,0.235049 0.08265,0.474631 0.09899,0.715057 0.0087,0.224086 0.0065,0.446227 0.03879,0.66839 0.03746,0.219138 0.05636,0.440446 0.06662,0.662316 0.0078,0.229221 0.0071,0.458633 0.0072,0.687957 -1.91e-4,0.240259 -4.42e-4,0.480519 -5.7e-4,0.720779 -1.15e-4,0.240315 -1.35e-4,0.480631 -1.45e-4,0.720947 -6e-6,0.230088 -2e-6,0.460177 0,0.690265 10e-7,0.205048 2e-6,0.410096 2e-6,0.615144 0,0.24225 0,0.4845 0,0.72675 0,0.255178 0,0.510355 0,0.765533 0,0.207782 0,0.415564 0,0.623345 0,0.200973 0,0.401946 0,0.602919 0,0.201282 0,0.402565 0,0.603848 0,0.231186 0,0.462373 0,0.69356 -0.004,0.230348 0.04543,0.457337 0.07167,0.685535 0.02245,0.210561 0.0264,0.422402 0.02884,0.633948 0.0014,0.201906 8.55e-4,0.403819 6.16e-4,0.605728 -0.01467,0.193538 0.01055,0.380511 0.04243,0.570437 0.05547,0.233161 0.02947,0.437466 -0.101805,0.637027 -0.149955,0.179737 -0.367178,0.175612 -0.57425,0.22498 -0.180347,0.05168 -0.366202,0.07312 -0.552706,0.086 -0.194799,0.04093 -0.39056,0.07311 -0.588696,0.09219 -0.183151,4.25e-4 -0.358929,0.02323 -0.537389,0.06033 -0.193283,0.03987 -0.390639,0.04934 -0.587317,0.05558 -0.202212,0.0046 -0.404496,0.0039 -0.606746,0.0038 -0.253811,-3.2e-4 -0.507623,-4.79e-4 -0.7614344,-5.72e-4 -0.2742235,-7.9e-5 -0.5484469,-8.9e-5 -0.8226703,-9.4e-5 -0.2046262,-0.01616 -0.4034145,0.02851 -0.6043444,0.05847 -0.2010656,0.01388 -0.3973419,0.04577 -0.5950618,0.08303 -0.2027602,0.0232 -0.4016853,0.05909 -0.6016933,0.09887 -0.2014084,0.04819 -0.4106876,0.03581 -0.613548,0.06894 -0.2047376,0.04325 -0.4120308,0.06824 -0.6205893,0.08247 -0.1916981,0.0046 -0.3786611,0.05248 -0.5618227,0.105522 -0.1901638,0.05785 -0.3881602,0.07084 -0.5794597,0.122281 -0.1467024,0.02132 -0.2749739,0.07098 -0.4020907,0.143101 -0.172145,0.08366 -0.3414334,0.172588 -0.5200059,0.241928 -0.103322,0.04926 -0.2018886,0.116658 -0.243588,0.226625 0.01177,0.07582 0.00835,0.03412 0.062658,0.04621 0.1826447,0.0796 0.3831285,0.101316 0.5797507,0.117592 0.2403934,0.04172 0.4811976,0.07791 0.7190913,0.132384 0.1977713,0.049 0.4003333,0.06804 0.6032236,0.07836 0.1981897,0.0075 0.3965703,0.0067 0.5948657,0.0065 0.201253,-3.7e-4 0.4025059,-6.96e-4 0.6037591,-8.7e-4 0.2014496,-1.45e-4 0.4028992,-1.53e-4 0.6043489,-1.61e-4 0.2014148,-4e-6 0.4028297,10e-7 0.6042445,3e-6 0.2014095,2e-6 0.4028191,3e-6 0.6042287,3e-6 0.2014097,0 0.4028195,0 0.6042293,0 0.2014099,0 0.4028197,0 0.6042296,0 0.2014103,0 0.4028193,0 0.6042293,0 0.214984,0 0.429967,0 0.64495,0 0.249025,0 0.49805,0 0.747075,0 0.232145,0 0.46429,0 0.696435,0 0.210253,0 0.420506,0 0.63076,0 0.221709,0 0.443418,0 0.665127,0 0.21418,0 0.428359,0 0.642539,0 0.202026,0 0.404052,0 0.606077,0 0.20125,0 0.402499,0 0.603748,0 0.20139,0 0.40278,0 0.604171,0 0.201411,0 0.402822,0 0.604233,0 0.20141,0 0.40282,0 0.604231,0 0.224885,-0.0039 0.447233,-0.0053 0.669534,0.03145 0.182633,0.03766 0.368087,0.05394 0.554001,0.06299 0.196263,0.0073 0.392704,0.0069 0.589071,0.007 0.201359,-1.4e-4 0.402717,-4.21e-4 0.604076,-5.66e-4 0.201484,-1.26e-4 0.402968,-1.38e-4 0.604452,-1.49e-4 0.201415,-6e-6 0.402831,-2e-6 0.604246,0 0.201409,1e-6 0.402818,2e-6 0.604227,2e-6 0.20141,0 0.40282,0 0.60423,0 0.225736,0 0.451472,0 0.677208,0 0.210592,0 0.421184,0 0.631776,0 0.170289,0.0024 0.335843,-0.04735 0.504015,-0.07105 0.199627,-0.02434 0.400962,-0.02712 0.60179,-0.02946 0.202053,-0.0014 0.404114,-8.55e-4 0.606171,-6.16e-4 0.201479,2.55e-4 0.402959,3.41e-4 0.604438,3.92e-4 0.201404,3.9e-5 0.402809,3.5e-5 0.604213,3.5e-5 0.192236,0.0034 0.381675,0.0058 0.571413,-0.02599 0.200953,-0.02398 0.397048,-0.06657 0.59453,-0.109274 0.198175,-0.03228 0.396491,-0.06839 0.588652,-0.127687 0.164983,-0.0643 0.335435,-0.123317 0.49709,-0.196374 0.156902,-0.05866 0.309162,-0.123312 0.45737,-0.201012 0.143223,-0.06773 0.283243,-0.141754 0.422949,-0.216645 0.149067,-0.04934 0.265099,-0.148525 0.38575,-0.24393 0.08542,-0.104036 0.181853,-0.20397 0.247324,-0.32294 0.09622,-0.11948 0.139815,-0.251531 0.162602,-0.40035 0.01687,-0.124662 0.02837,-0.25156 -0.05025,-0.356247 -0.09332,-0.102674 -0.205507,-0.167614 -0.329823,-0.226484 -0.158575,-0.06564 -0.330442,-0.07759 -0.499778,-0.0869 -0.210605,0.007 -0.416193,-0.03781 -0.623313,-0.06805 -0.191982,-0.02637 -0.385862,-0.03171 -0.579338,-0.03531 -0.279302,-0.0026 -0.558624,-0.0019 -0.837934,-0.0017 -0.25658,2.39e-4 -0.51316,4.01e-4 -0.76974,4.77e-4 -0.265553,6.1e-5 -0.531106,5.6e-5 -0.796658,5.7e-5 -0.277849,0.01339 -0.551261,-0.0072 -0.825708,-0.04777 -0.208199,-0.03392 -0.418755,-0.04401 -0.629255,-0.04968 -0.220786,-0.0044 -0.441629,-0.004 -0.662447,-0.0039 -0.203682,2.45e-4 -0.407363,4.49e-4 -0.611044,5.58e-4 -0.245802,1e-4 -0.491604,9.2e-5 -0.737406,9.7e-5 -0.223449,2e-6 -0.446898,-1e-6 -0.670348,-3e-6 -0.202235,-1e-6 -0.404471,-1e-6 -0.606707,-1e-6 -0.201118,0 -0.402235,0 -0.603353,0 -0.173995,-0.01758 -0.339201,0.02772 -0.508604,0.05762 -0.191655,0.01631 -0.377053,0.06663 -0.566124,0.09947 -0.188335,0.03675 -0.384044,0.06266 -0.567477,0.120282 -0.182704,0.06821 -0.374311,0.09719 -0.567533,0.113816 -0.171837,0.0094 -0.337743,0.05949 -0.508193,0.08378 -0.200074,0.0242 -0.40186,0.02649 -0.603112,0.0286 -0.202063,0.0012 -0.404131,6.25e-4 -0.606196,3.68e-4 -0.201474,-2.65e-4 -0.402947,-3.45e-4 -0.604421,-3.94e-4 -0.228295,0.02031 -0.424414,-0.02705 -0.609474,-0.160705 -0.170969,-0.165227 -0.196284,-0.391356 -0.211409,-0.616196 -0.0085,-0.204499 -0.0058,-0.40926 -0.0048,-0.613877 0.0011,-0.201769 0.0016,-0.40354 0.0018,-0.605311 1.95e-4,-0.201386 1.83e-4,-0.402773 1.84e-4,-0.604159 -6e-6,-0.228888 -1.3e-5,-0.457775 -1.7e-5,-0.686663 0.02109,-0.22132 0.0548,-0.440929 0.120062,-0.65356 0.05253,-0.158639 0.06636,-0.324943 0.07557,-0.49064 0.0078,-0.194956 0.0069,-0.390129 0.0068,-0.585203 -3.54e-4,-0.201578 -6.87e-4,-0.403155 -8.65e-4,-0.604733 0.02236,-0.182132 0.06466,-0.360129 0.08337,-0.542901 0.01569,-0.188214 0.01647,-0.377237 0.0176,-0.565973 5.93e-4,-0.200968 1.11e-4,-0.401938 -1.08e-4,-0.602907 -2.15e-4,-0.201571 -2.66e-4,-0.403143 -2.99e-4,-0.604715 -2.3e-5,-0.201427 -1.9e-5,-0.402854 -1.7e-5,-0.604281 2e-6,-0.201408 3e-6,-0.402816 3e-6,-0.604225 1e-6,-0.201409 1e-6,-0.402819 1e-6,-0.604228 0.01396,-0.177278 -0.0067,-0.346068 -0.04161,-0.518729 -0.03496,-0.163261 -0.09477,-0.318074 -0.125489,-0.483313 -0.0082,-0.174317 -0.05905,-0.340033 -0.09186,-0.510324 -0.01452,-0.174442 -0.0439,-0.342553 -0.08286,-0.512739 -0.07241,-0.18369 -0.113598,-0.375244 -0.13905,-0.570361 -0.05384,-0.161855 -0.07132,-0.332243 -0.112655,-0.496729 -0.05077,-0.181531 -0.06962,-0.368265 -0.121743,-0.549123 -0.05823,-0.185264 -0.119594,-0.367141 -0.154641,-0.558868 -0.0641,-0.154832 -0.0748,-0.324955 -0.12394,-0.483096 -0.03895,-0.154635 -0.111631,-0.29517 -0.156445,-0.448076 -0.04172,-0.168682 -0.09866,-0.330849 -0.128049,-0.502996 -0.0249,-0.160978 -0.06163,-0.323399 -0.108489,-0.479802 -0.04076,-0.178272 -0.117771,-0.343453 -0.166335,-0.519386 -0.0403,-0.172009 -0.09837,-0.337058 -0.128122,-0.512036 -0.013,-0.149028 -0.05922,-0.291467 -0.117075,-0.428303 -0.08284,-0.167823 -0.07395,-0.357949 -0.116331,-0.534971 -0.02311,-0.08277 -0.04016,-0.166862 -0.05644,-0.251169 -0.05353,-0.279761 0.342111,-0.355466 0.395642,-0.0757 l 0,0 c 0.01538,0.08132 0.03261,0.16216 0.05458,0.242023 0.03122,0.154472 0.0322,0.315629 0.09363,0.463097 0.06991,0.165694 0.124923,0.339104 0.143339,0.518843 0.02623,0.161833 0.08425,0.313246 0.119545,0.472755 0.04607,0.173949 0.126594,0.336305 0.164515,0.51289 0.04864,0.172278 0.09194,0.348626 0.118848,0.52535 0.02556,0.157262 0.08161,0.30415 0.11802,0.458596 0.04224,0.153109 0.121689,0.292456 0.156489,0.448229 0.04713,0.173369 0.07199,0.352408 0.133085,0.522497 0.03139,0.178498 0.09302,0.346085 0.14535,0.518958 0.05343,0.186704 0.07612,0.378264 0.126164,0.565872 0.04203,0.17953 0.0689,0.362374 0.120605,0.539903 0.02296,0.18277 0.06731,0.35908 0.132179,0.531777 0.03992,0.17464 0.07213,0.348124 0.08585,0.527004 0.03235,0.17125 0.08438,0.338562 0.09251,0.513766 0.02877,0.162727 0.09416,0.313501 0.124015,0.475643 0.04012,0.198548 0.06317,0.395284 0.0496,0.598522 0,0.20141 0,0.40282 -10e-7,0.604229 0,0.201409 -2e-6,0.402818 -3e-6,0.604227 -2e-6,0.201404 -6e-6,0.402809 1.7e-5,0.604213 3.2e-5,0.201447 8.4e-5,0.402894 2.98e-4,0.604341 2.2e-4,0.20192 7.06e-4,0.403842 1.01e-4,0.605762 -0.0012,0.201815 -0.0023,0.40394 -0.01975,0.605149 -0.01772,0.1687 -0.04833,0.33467 -0.08121,0.500955 1.77e-4,0.201608 5.11e-4,0.403217 8.65e-4,0.604825 1.31e-4,0.202743 0.001,0.405593 -0.0074,0.608203 -0.01138,0.198215 -0.03041,0.396794 -0.0928,0.586571 -0.05401,0.174308 -0.07956,0.353832 -0.102186,0.534884 4e-6,0.22889 1.1e-5,0.457781 1.6e-5,0.686671 0,0.201556 1.2e-5,0.403112 -1.84e-4,0.604667 -2.55e-4,0.202261 -6.95e-4,0.404521 -0.0018,0.606778 -9.58e-4,0.195241 -0.0035,0.390605 0.004,0.585751 0.0068,0.108725 0.0099,0.223753 0.05658,0.324253 0.09876,0.0978 0.233294,0.07747 0.362426,0.07598 0.201612,4.9e-5 0.403225,1.29e-4 0.604837,3.94e-4 0.200495,2.55e-4 0.400995,8.53e-4 0.601489,-3.46e-4 0.183878,-0.0019 0.368247,-0.0036 0.551145,-0.02469 0.177783,-0.02466 0.350616,-0.07907 0.530432,-0.08629 0.166283,-0.01375 0.330412,-0.03871 0.48724,-0.09871 0.200514,-0.05702 0.408162,-0.09438 0.613141,-0.130938 0.188623,-0.03236 0.373749,-0.08315 0.564933,-0.09927 0.191894,-0.03358 0.381515,-0.08144 0.578346,-0.0637 0.201118,0 0.402236,0 0.603354,0 0.202236,0 0.404472,0 0.606709,2e-6 0.223446,10e-7 0.446892,4e-6 0.670337,2e-6 0.245733,-4e-6 0.491466,3e-6 0.737199,-9.7e-5 0.203672,-1.09e-4 0.407345,-3.13e-4 0.611018,-5.57e-4 0.224542,-1.35e-4 0.44911,-5.3e-4 0.673618,0.0041 0.226557,0.0062 0.453144,0.01759 0.677238,0.05387 0.255061,0.03773 0.508388,0.05693 0.766793,0.04344 0.265514,-10e-7 0.531027,4e-6 0.79654,-5.7e-5 0.256518,-7.6e-5 0.513036,-2.38e-4 0.769553,-4.76e-4 0.281927,-2.15e-4 0.563865,-9.87e-4 0.845782,0.0017 0.210481,0.004 0.42136,0.01037 0.630157,0.03949 0.195456,0.02869 0.388732,0.07218 0.587563,0.06444 0.222307,0.01273 0.446172,0.03459 0.652151,0.126256 0.190317,0.09299 0.364367,0.202955 0.495175,0.373824 0.118004,0.199146 0.14793,0.406983 0.107608,0.635822 -0.03248,0.194684 -0.08866,0.379958 -0.211818,0.538329 -0.0951,0.159293 -0.21671,0.305248 -0.346353,0.437169 -0.13871,0.109047 -0.275617,0.223937 -0.445143,0.282805 -0.140805,0.07519 -0.282159,0.149269 -0.42597,0.218246 -0.156949,0.08227 -0.317973,0.15185 -0.483991,0.213746 -0.178252,0.07544 -0.359922,0.145848 -0.54132,0.212573 -0.203049,0.06005 -0.410541,0.103842 -0.619807,0.135729 -0.203856,0.04396 -0.406683,0.08753 -0.613928,0.112968 -0.211658,0.03456 -0.422842,0.03652 -0.637038,0.03137 -0.201439,1e-6 -0.402877,5e-6 -0.604316,-3.4e-5 -0.201605,-5.1e-5 -0.403209,-1.37e-4 -0.604813,-3.92e-4 -0.200339,-2.37e-4 -0.400682,-8.15e-4 -0.601017,5.88e-4 -0.183777,0.0021 -0.368027,0.0042 -0.550792,0.02563 -0.186566,0.02574 -0.370023,0.08174 -0.55969,0.07491 -0.210592,0 -0.421184,0 -0.631776,0 -0.225736,0 -0.451472,0 -0.677208,0 -0.20141,0 -0.40282,0 -0.60423,0 -0.20141,-10e-7 -0.40282,-10e-7 -0.60423,-3e-6 -0.201407,-10e-7 -0.402815,-5e-6 -0.604222,1e-6 -0.201394,10e-6 -0.402789,2.3e-5 -0.604184,1.49e-4 -0.201515,1.44e-4 -0.403029,4.27e-4 -0.604544,5.66e-4 -0.202907,-9.1e-5 -0.405893,2.71e-4 -0.608687,-0.0075 -0.201582,-0.01002 -0.402736,-0.02769 -0.600843,-0.06805 -0.199966,-0.03418 -0.400426,-0.02742 -0.602897,-0.0259 -0.201411,0 -0.402821,0 -0.604231,0 -0.201411,0 -0.402822,0 -0.604233,0 -0.201391,0 -0.402781,0 -0.604171,0 -0.201249,0 -0.402498,0 -0.603748,0 -0.202025,0 -0.404051,0 -0.606077,0 -0.21418,0 -0.428359,0 -0.642539,0 -0.221709,0 -0.443418,0 -0.665127,0 -0.210254,0 -0.420507,0 -0.63076,0 -0.232145,0 -0.46429,0 -0.696435,0 -0.249025,0 -0.49805,0 -0.747075,0 -0.214983,0 -0.429966,0 -0.64495,0 -0.20141,0 -0.402819,0 -0.6042293,0 -0.2014099,0 -0.4028197,0 -0.6042296,0 -0.2014099,0 -0.4028199,0 -0.6042299,0 -0.2014108,-10e-7 -0.4028216,-10e-7 -0.6042325,-3e-6 -0.2014076,-2e-6 -0.4028153,-7e-6 -0.604223,-3e-6 -0.201339,8e-6 -0.4026781,1.5e-5 -0.6040171,1.61e-4 -0.2012649,1.74e-4 -0.4025295,5e-4 -0.6037942,8.7e-4 -0.2053046,1.59e-4 -0.4106998,9.64e-4 -0.6158875,-0.0071 -0.2261915,-0.01178 -0.4519725,-0.03374 -0.6725078,-0.08801 -0.2194949,-0.05035 -0.44163,-0.08266 -0.6630396,-0.123636 C 4.0362481,62.65403 3.7946728,62.623916 3.5732239,62.527075 3.307745,62.401987 3.2194472,62.224353 3.3013597,61.938898 c 0.1005121,-0.200339 0.2559541,-0.344614 0.4642808,-0.432245 0.1604393,-0.06056 0.3104309,-0.143655 0.4655473,-0.216216 0.1564428,-0.08871 0.3180699,-0.152951 0.4966661,-0.181837 0.1890792,-0.05041 0.3830978,-0.06738 0.5716509,-0.120107 0.2107566,-0.06094 0.4262881,-0.113561 0.6466379,-0.120479 0.1976825,-0.01321 0.3938428,-0.03804 0.587886,-0.07891 0.1976466,-0.02799 0.398618,-0.02511 0.594888,-0.06568 0.2012267,-0.03995 0.401687,-0.07664 0.6056421,-0.09964 0.2026422,-0.03815 0.4043817,-0.07135 0.610334,-0.0856 0.2203331,-0.03273 0.4393759,-0.07906 0.6636457,-0.06286 0.2742704,4e-6 0.5485409,1.4e-5 0.8228113,9.3e-5 0.2538662,9.4e-5 0.5077332,2.52e-4 0.7615992,5.72e-4 0.197922,1.54e-4 0.395876,8.02e-4 0.593763,-0.0036 0.173382,-0.0054 0.347498,-0.01264 0.51799,-0.04735 0.192606,-0.04004 0.383854,-0.06599 0.581123,-0.06695 0.201939,-0.01906 0.400143,-0.05716 0.59959,-0.09308 0.166668,-0.01117 0.332414,-0.03048 0.493379,-0.07749 0.111304,-0.02333 0.226604,-0.0284 0.334152,-0.06712 0.09348,-0.08902 0.04664,-0.222714 0.03134,-0.334817 -0.03555,-0.211792 -0.06208,-0.42213 -0.04799,-0.637605 2.38e-4,-0.200208 8.12e-4,-0.40042 -5.89e-4,-0.600625 -0.0023,-0.197772 -0.0056,-0.395836 -0.02625,-0.592721 -0.02778,-0.243411 -0.08026,-0.485465 -0.07429,-0.731387 0,-0.231187 0,-0.462374 0,-0.69356 0,-0.201283 0,-0.402566 0,-0.603848 0,-0.200973 0,-0.401946 0,-0.602919 0,-0.207781 0,-0.415563 0,-0.623345 0,-0.255178 0,-0.510355 0,-0.765533 0,-0.24225 0,-0.4845 0,-0.72675 0,-0.205047 -1e-6,-0.410094 -2e-6,-0.615141 -2e-6,-0.230095 -5e-6,-0.46019 0,-0.690285 10e-6,-0.240382 3.1e-5,-0.480764 1.45e-4,-0.721145 1.29e-4,-0.240146 3.79e-4,-0.480291 5.7e-4,-0.720436 -7e-5,-0.22321 6.19e-4,-0.446503 -0.0068,-0.669616 -0.0095,-0.208847 -0.02742,-0.417114 -0.06293,-0.623348 -0.0332,-0.232385 -0.03518,-0.464427 -0.04199,-0.698747 -0.01478,-0.221367 -0.04019,-0.441926 -0.09107,-0.658274 -0.04325,-0.209669 -0.06655,-0.42343 -0.106005,-0.633959 -0.0107,-0.18851 -0.02908,-0.377037 -0.08444,-0.558558 -0.06342,-0.219427 -0.115849,-0.443378 -0.130093,-0.672093 -0.02909,-0.271814 -0.08206,-0.539425 -0.150392,-0.80414 -0.05372,-0.257776 -0.127699,-0.51093 -0.186258,-0.767677 -0.05087,-0.253618 -0.137304,-0.495689 -0.214691,-0.742137 -0.07573,-0.278756 -0.184298,-0.546604 -0.283504,-0.81754 -0.112202,-0.261806 0.258047,-0.420484 0.37025,-0.158678 z"
       inkscape:connector-curvature="0"
       transform="translate(0,988.36218)" />
    <path
       style="fill:#1a1a1a;fill-opacity:1;stroke:none"
       id="path2993"
       d="m 12.286002,42.566232 c 0,-0.09188 0,-0.183753 0,-0.275629 0,-0.284837 0.40282,-0.284837 0.40282,0 l 0,0 c 0,0.09188 0,0.183752 0,0.275629 0,0.284836 -0.40282,0.284836 -0.40282,0 z"
       inkscape:connector-curvature="0"
       transform="translate(0,988.36218)" />
    <path
       style="fill:#cccccc;fill-opacity:1;stroke:none"
       d="m 13.379532,42.261586 c -0.398326,-0.05124 -0.984987,0.316923 -0.686053,0.742699 0.572236,1.83878 0.94479,3.767704 1.184617,5.680354 0.01753,3.844793 0.199981,7.70289 0.08993,11.54019 -0.102381,0.367846 -0.679416,0.261305 -0.977714,0.379297 -2.953562,0.36897 -6.0584609,0.08108 -8.8913694,1.156453 -0.2640186,0.03791 -0.5844511,0.408981 -0.1667925,0.506672 2.0113022,0.310689 4.0735587,0.17103 6.1051939,0.249524 5.753938,0.03539 11.513818,0.167684 17.264285,-0.0755 1.016,-0.10885 2.057352,-0.486116 2.861009,-1.118133 0.325745,-0.311931 0.622854,-0.973702 0.05035,-1.211606 -1.345732,-0.409236 -2.805216,-0.23588 -4.198107,-0.327647 -1.88958,-0.0045 -3.790585,-0.12675 -5.673377,-0.04835 -1.529869,0.308682 -3.154081,0.673026 -4.692967,0.38544 -0.460839,-0.382631 -0.187792,-1.131413 -0.273792,-1.652191 0.0049,-1.922932 0.291914,-3.823605 0.266973,-5.75267 0.08866,-1.5368 0.01096,-3.077987 -0.421177,-4.563291 -0.441671,-1.953072 -1.005134,-3.902225 -1.520015,-5.822004 -0.08251,-0.08507 -0.213228,-0.07439 -0.320997,-0.06923 z"
       id="path2999"
       inkscape:connector-curvature="0"
       transform="translate(0,988.36218)" />
    <path
       style="fill:#cccccc;fill-opacity:1;stroke:none"
       d="m 11.585725,26.082709 c -0.396176,1.557209 -0.631119,3.156549 -1.129783,4.685926 0.498292,0.399104 1.281717,0.474474 1.900805,0.72067 1.372847,0.389244 2.768436,0.798686 4.172961,1.013343 0.546926,-0.377079 0.550794,-1.192323 0.890609,-1.734013 0.500102,-1.280902 1.398017,-2.353661 1.878777,-3.634818 -0.285171,-0.297296 -0.85637,-0.07149 -1.243077,-0.151058 -2.168556,0.05032 -4.268624,-0.530803 -6.372734,-0.975579 l -0.07963,0.06165 -0.01793,0.01388 z"
       id="path3001"
       inkscape:connector-curvature="0"
       transform="translate(0,988.36218)" />
    <path
       style="fill:#cccccc;fill-opacity:1;stroke:none"
       d="M 15.59504,1.5201459 C 14.328228,1.5155207 13.39375,2.5601377 12.706067,3.5090683 12.364901,3.9356168 11.831034,3.980879 11.355992,4.0975628 10.102361,5.4709803 9.9675199,7.4414082 9.3119237,9.1146205 8.0226112,12.472871 7.1639121,15.965804 6.3907316,19.474087 c -0.1660855,0.967281 -0.6712454,1.936096 -0.5420408,2.926598 0.4514738,0.629955 1.2774696,0.910336 1.8538849,1.424118 1.8739569,1.423593 4.2450603,1.887801 6.4868263,2.416656 1.731505,0.344128 3.549265,0.618566 5.30166,0.297569 2.072368,-0.597608 4.027982,-1.732321 5.501007,-3.313822 2.097353,-2.788628 2.926964,-6.329505 3.125,-9.768378 C 28.25065,11.024162 28.476562,8.5375951 27.981747,6.1336907 27.600446,5.002657 26.37775,4.4577877 25.385448,3.9622405 22.296784,2.6278877 18.99479,1.5196222 15.59504,1.5201459 z"
       id="path3003"
       inkscape:connector-curvature="0"
       transform="translate(0,988.36218)" />
    <path
       style="fill:#cccccc;fill-opacity:1;stroke:none"
       d="m 10.46853,31.24069 c 0.122128,1.505861 0.508722,3.062758 0.559968,4.603525 0.09922,1.973615 0.278239,3.980708 -0.293234,5.902502 -0.124218,0.217566 -0.124044,0.656677 0.23679,0.52431 1.482163,-0.319004 2.978801,-0.458015 4.476775,-0.643274 0.881803,-0.167744 2.17765,-0.224412 2.402631,-1.314178 0.303857,-1.91117 0.218772,-3.871597 0.191993,-5.80273 -0.04922,-0.900761 -0.191118,-1.833484 -0.594813,-2.637602 -0.344679,0.202342 -0.404952,1.026992 -0.988167,0.909491 -2.031066,-0.306246 -4.039284,-0.96189 -5.991943,-1.542044 z"
       id="path3005"
       inkscape:connector-curvature="0"
       transform="translate(0,988.36218)" />
    <path
       style="fill:#000000;fill-opacity:1;stroke:none"
       id="path3007"
       d="m 13.73482,60.003644 c 0.255317,0.06897 0.499873,0.16811 0.758799,0.224616 0.175692,0.06033 0.352153,0.109016 0.536691,0.130719 0.111788,0.0144 0.227035,-0.0024 0.314896,-0.07732 0.102773,-0.07511 0.198683,-0.16366 0.283364,-0.25914 0.05488,-0.05363 0.109594,-0.106923 0.163487,-0.161532 0.02948,-0.02987 0.0619,-0.09911 0.01543,-0.0085 -0.07983,0.03267 0.06555,0.14806 0.05773,0.154775 -0.02941,0.02528 -0.179239,0.02115 -0.214024,0.02525 -0.175813,0.02068 -0.343839,0.07843 -0.51894,0.107583 -0.185786,0.04999 -0.373984,0.08672 -0.559523,0.137393 -0.190103,0.0538 -0.387005,0.06391 -0.577596,0.113738 -0.09143,0.02563 -0.185064,0.04045 -0.278731,0.05477 -0.281658,0.04243 -0.341669,-0.355891 -0.06001,-0.398324 l 0,0 c 0.07983,-0.01181 0.159575,-0.02427 0.237398,-0.04631 0.189419,-0.049 0.383317,-0.06382 0.572828,-0.112468 0.198977,-0.05433 0.400682,-0.09474 0.600416,-0.146305 0.181091,-0.02917 0.354196,-0.09306 0.537067,-0.110136 0.169694,-0.01997 0.427661,-0.08422 0.547023,0.08655 0.03272,0.04682 0.03882,0.107444 0.05823,0.161166 -0.0098,0.04259 -0.0135,0.0871 -0.02949,0.127785 -0.04647,0.118224 -0.174764,0.193472 -0.254092,0.28649 -0.107128,0.114952 -0.221334,0.226191 -0.349631,0.317278 -0.179852,0.117731 -0.376776,0.179382 -0.594085,0.14719 -0.197022,-0.02426 -0.388368,-0.06939 -0.575212,-0.137276 -0.266762,-0.05938 -0.520133,-0.157209 -0.782685,-0.230657 -0.273877,-0.07825 -0.163214,-0.465571 0.110663,-0.387321 z"
       inkscape:connector-curvature="0"
       transform="translate(0,988.36218)" />
    <path
       style="fill:#000000;fill-opacity:1;stroke:none"
       id="path3009"
       d="m 13.110158,31.370363 c 0.199834,-0.205839 0.454301,-0.274594 0.730251,-0.301645 0.321372,-7.11e-4 0.462013,0.160857 0.535905,0.455091 0.02037,0.144837 0.01261,0.07268 0.02347,0.21645 0.02051,0.284098 -0.381268,0.313099 -0.401775,0.029 l 0,0 c -0.0073,-0.107268 -0.0024,-0.05563 -0.01422,-0.154961 -0.01635,-0.08678 -0.0011,-0.1416 -0.105829,-0.144516 -0.184405,0.0162 -0.348681,0.04545 -0.482966,0.185416 -0.20141,0.20141 -0.486247,-0.08343 -0.284837,-0.284836 z"
       inkscape:connector-curvature="0"
       transform="translate(0,988.36218)" />
    <path
       style="fill:#000000;fill-opacity:1;stroke:none"
       id="path3011"
       d="m 16.555055,30.781729 c -0.194135,0.137919 -0.370172,0.293846 -0.525243,0.47452 -0.08992,0.134362 -0.188025,0.262947 -0.251252,0.412695 -0.04267,0.145962 -0.07785,0.306097 -0.0564,0.458427 0.03107,0.03327 0.116774,0.03787 0.163512,0.03017 0.124878,-0.0044 0.221072,-0.06155 0.323153,-0.125296 0.13383,-0.09188 0.283836,-0.147665 0.429175,-0.216542 0.09242,-0.04181 0.198366,-0.08383 0.23718,-0.184122 0.0419,-0.144417 0.04173,-0.296913 0.04493,-0.446054 0.01641,-0.154361 -0.0071,-0.288656 -0.07128,-0.426451 -0.0571,-0.09261 -0.108716,-0.136804 -0.211464,-0.163758 -0.166369,-0.03197 -0.336917,-0.03046 -0.505666,-0.03178 -0.119856,-1.25e-4 -0.0666,-0.0056 -0.160291,0.01029 -0.282152,0.03902 -0.33733,-0.360006 -0.05518,-0.399023 l 0,0 c 0.150454,-0.0183 0.07752,-0.01424 0.218688,-0.01408 0.207808,0.0017 0.418217,8.34e-4 0.621497,0.04976 0.207139,0.06866 0.354168,0.185509 0.458061,0.379568 0.08885,0.193478 0.126603,0.390555 0.108361,0.604288 -0.0047,0.211393 -0.0078,0.427846 -0.09165,0.625731 -0.09914,0.172227 -0.239869,0.289957 -0.426272,0.36224 -0.13147,0.05839 -0.263745,0.107947 -0.382724,0.191605 -0.165083,0.103076 -0.33497,0.181125 -0.533786,0.186428 -0.266653,-0.0093 -0.503579,-0.110249 -0.567238,-0.394804 -0.01648,-0.222844 0.01091,-0.447653 0.08842,-0.658208 0.08305,-0.185267 0.196821,-0.351274 0.316023,-0.515136 0.180384,-0.206054 0.381277,-0.388495 0.60601,-0.545641 0.236998,-0.157999 0.460442,0.177167 0.223444,0.335166 z"
       inkscape:connector-curvature="0"
       transform="translate(0,988.36218)" />
    <path
       style="fill:#000000;fill-opacity:1;stroke:none"
       id="path3013"
       d="m 15.638256,31.455964 c 0.183791,-0.04768 0.08856,-0.02427 0.285805,-0.06974 0.277585,-0.06386 0.367896,0.328707 0.09031,0.392566 l 0,0 c -0.18333,0.04208 -0.09488,0.02042 -0.265452,0.06449 -0.273877,0.07825 -0.384541,-0.30907 -0.110663,-0.38732 z"
       inkscape:connector-curvature="0"
       transform="translate(0,988.36218)" />
    <path
       style="fill:#e6e6e6;fill-opacity:1;stroke:none"
       d="m 13.250504,42.198645 c -0.403206,0.05157 -0.912561,0.408858 -0.599342,0.857641 0.69003,2.292024 1.17092,4.644119 1.172713,7.044333 0.100363,3.277193 0.132268,6.556082 0.137857,9.834683 0.389571,0.153575 1.060922,-0.131735 1.466485,-0.305224 0.08373,-2.962104 0.307689,-5.942212 0.232911,-8.912425 -0.212483,-2.669645 -1.104723,-5.22742 -1.764488,-7.809379 -0.08767,-0.354994 -0.190056,-0.773653 -0.646136,-0.709629 z"
       id="path3017"
       inkscape:connector-curvature="0"
       transform="translate(0,988.36218)" />
    <path
       style="fill:#e6e6e6;fill-opacity:1;stroke:none"
       d="m 11.746224,26.03865 c -0.418077,0.0973 -0.287433,0.741322 -0.440585,1.057402 -0.215515,1.258907 -0.712374,2.504019 -0.78361,3.766994 0.705015,0.408788 1.563995,0.548645 2.328802,0.843404 0.331752,-0.26856 0.84315,-0.786467 1.321752,-0.46576 0.362527,0.237104 -0.05231,0.765565 0.377644,0.90005 0.256924,0.108033 0.905438,0.342164 0.821374,-0.179381 -0.0079,-0.537266 0.487331,-0.891249 0.651435,-1.340634 -0.04973,-0.131524 -0.413229,-0.193689 -0.151057,-0.346173 0.461389,-0.159582 1.22221,-0.02931 1.353222,0.506671 0.381154,0.0023 0.45767,-0.600619 0.680599,-0.850085 0.452728,-0.926981 1.075429,-1.80271 1.374411,-2.78788 -0.248193,-0.321346 -0.827029,-0.128307 -1.199018,-0.217145 -2.128726,0.01122 -4.191551,-0.555458 -6.272029,-0.89061 l -0.05035,0 -0.01259,0.0031 z"
       id="path3019"
       inkscape:connector-curvature="0"
       transform="translate(0,988.36218)" />
    <path
       style="fill:#000000;fill-opacity:1;stroke:none"
       id="path3021"
       d="m 12.150972,21.156726 c 0.205133,0.141351 0.445484,0.201463 0.67673,0.282468 0.176317,0.0691 0.363578,0.09788 0.546299,0.144747 0.202155,0.03561 0.399645,0.07383 0.591781,0.148014 0.191509,0.08244 0.393373,0.135235 0.591056,0.199743 0.210045,0.0816 0.426465,0.1447 0.63845,0.220197 0.163673,0.05789 0.3304,0.109268 0.498457,0.153424 0.202921,0.05662 0.373871,0.169175 0.540372,0.293257 0.147291,0.08062 0.260428,0.212494 0.38081,0.327861 0.15543,0.128268 0.299995,0.270167 0.445384,0.40975 0.115448,0.154802 0.258649,0.281712 0.399147,0.412021 0.15634,0.146639 0.304812,0.29709 0.446704,0.457522 0.09387,0.110964 0.178418,0.234079 0.286565,0.332066 0.06649,0.06133 0.109612,0.140738 0.164712,0.211285 0.299984,0.398091 -0.263001,0.822332 -0.562985,0.424242 l 0,0 c -0.03458,-0.04672 -0.06032,-0.08935 -0.09598,-0.132891 -0.114701,-0.116229 -0.222029,-0.240141 -0.321813,-0.369345 -0.125631,-0.143628 -0.258694,-0.276585 -0.398202,-0.407545 -0.142253,-0.13395 -0.293944,-0.260287 -0.408321,-0.42074 -0.143243,-0.140145 -0.289097,-0.27897 -0.442958,-0.407413 -0.102862,-0.09858 -0.188484,-0.206529 -0.315353,-0.272365 -0.09457,-0.07097 -0.183638,-0.142151 -0.299732,-0.176578 -0.188625,-0.05086 -0.376273,-0.107577 -0.560243,-0.172985 -0.201458,-0.07878 -0.414928,-0.130131 -0.615698,-0.212263 -0.211834,-0.07076 -0.429269,-0.125974 -0.6346,-0.215704 -0.159531,-0.07174 -0.335269,-0.07342 -0.502694,-0.118723 -0.2031,-0.0521 -0.411257,-0.08499 -0.606951,-0.163248 -0.284922,-0.102997 -0.580573,-0.181595 -0.83196,-0.360256 -0.414747,-0.276498 -0.02372,-0.863039 0.391027,-0.586541 z"
       inkscape:connector-curvature="0"
       transform="translate(0,988.36218)" />
    <path
       style="fill:#000000;fill-opacity:1;stroke:none"
       id="path3023"
       d="m 12.923695,19.050835 c 0.288193,0.06587 0.578897,0.116847 0.863058,0.198772 0.185648,0.04141 0.3682,0.09023 0.551542,0.140856 0.161693,0.06033 0.316323,0.138557 0.480562,0.191912 0.18998,0.06669 0.369707,0.158508 0.564364,0.211268 0.17184,0.06996 0.350748,0.115672 0.523885,0.181562 0.135999,0.08419 0.283862,0.138939 0.428896,0.20427 0.171963,0.0659 0.33639,0.145402 0.482769,0.25702 0.135635,0.100554 0.264828,0.199737 0.375162,0.328964 0.08155,0.08217 0.169536,0.162565 0.261221,0.23504 0.130027,0.0925 0.255026,0.191732 0.382163,0.288395 0.167987,0.08747 0.296646,0.232787 0.417794,0.374949 0.130621,0.164333 0.263311,0.327563 0.372027,0.50736 0.09903,0.140192 0.211321,0.268886 0.303067,0.414146 0.07031,0.11533 0.15856,0.215499 0.244181,0.319087 0.315319,0.386058 -0.23065,0.831985 -0.545968,0.445928 l 0,0 c -0.104251,-0.130317 -0.214456,-0.255613 -0.300901,-0.399365 -0.08287,-0.153474 -0.226275,-0.269057 -0.308883,-0.423909 -0.08119,-0.150294 -0.205326,-0.274264 -0.30512,-0.412021 -0.08666,-0.109156 -0.181928,-0.202162 -0.306538,-0.267839 -0.132159,-0.102762 -0.264649,-0.204228 -0.400112,-0.302701 -0.128341,-0.107839 -0.258192,-0.217262 -0.367866,-0.344351 -0.005,-0.05981 -0.239641,-0.170826 -0.277231,-0.226952 -0.05847,-0.05943 -0.222994,-0.106182 -0.315707,-0.151204 -0.13114,-0.05926 -0.272081,-0.104209 -0.389748,-0.188004 -0.153312,-0.05838 -0.312723,-0.09644 -0.463819,-0.161733 -0.205283,-0.05901 -0.39931,-0.144282 -0.598025,-0.221641 -0.151439,-0.05187 -0.300686,-0.112874 -0.445311,-0.181094 -0.185503,-0.05201 -0.370118,-0.09974 -0.55812,-0.142722 -0.252636,-0.07321 -0.511538,-0.11569 -0.767034,-0.178143 -0.493455,-0.07049 -0.393762,-0.768343 0.09969,-0.69785 z"
       inkscape:connector-curvature="0"
       transform="translate(0,988.36218)" />
    <path
       style="fill:#000000;fill-opacity:1;stroke:none"
       id="path3025"
       d="m 13.818332,17.18649 c 0.255115,0.104442 0.524336,0.16411 0.785814,0.249639 0.210159,0.0511 0.413965,0.119608 0.61599,0.196343 0.174136,0.04826 0.347746,0.09736 0.522012,0.145954 0.188173,0.04534 0.372161,0.113004 0.545216,0.199448 0.169252,0.08343 0.341341,0.16153 0.507984,0.250062 0.134576,0.0689 0.270663,0.133795 0.407725,0.197754 0.172784,0.07901 0.348674,0.149472 0.52121,0.229019 0.1986,0.108057 0.362948,0.262163 0.517619,0.424625 0.137134,0.124902 0.271017,0.253086 0.408403,0.377752 0.13224,0.0927 0.260435,0.192024 0.380176,0.300603 0.113742,0.0996 0.223396,0.204623 0.327623,0.314254 0.048,0.0059 0.06488,0.126428 0.117716,0.147384 0.364439,0.340075 -0.1165,0.855468 -0.480938,0.515394 l 0,0 c -0.05072,-0.05104 -0.126615,-0.112832 -0.154014,-0.183821 -0.08808,-0.101666 -0.19376,-0.188406 -0.292616,-0.279024 -0.110379,-0.114144 -0.254591,-0.191822 -0.374416,-0.295261 -0.148085,-0.136813 -0.295861,-0.273584 -0.442923,-0.411666 -0.09369,-0.09879 -0.18863,-0.193453 -0.30187,-0.27011 -0.173951,-0.08026 -0.351375,-0.151441 -0.52571,-0.231114 -0.15016,-0.07119 -0.2994,-0.142261 -0.447271,-0.217875 -0.156842,-0.09291 -0.331954,-0.154707 -0.492186,-0.241647 -0.127741,-0.07077 -0.272462,-0.111184 -0.412965,-0.147278 -0.194057,-0.05514 -0.388205,-0.106659 -0.581107,-0.165464 -0.191835,-0.07288 -0.385313,-0.136403 -0.584881,-0.185351 -0.281148,-0.09203 -0.571337,-0.155063 -0.844278,-0.271683 -0.458161,-0.196355 -0.180474,-0.844292 0.277687,-0.647937 z"
       inkscape:connector-curvature="0"
       transform="translate(0,988.36218)" />
    <path
       style="fill:#000000;fill-opacity:1;stroke:none"
       id="path3027"
       d="m 15.026791,15.172391 c 0.272773,0.106171 0.550956,0.19755 0.825921,0.297631 0.21489,0.09085 0.437751,0.158495 0.656513,0.238023 0.155935,0.0639 0.321937,0.08931 0.482101,0.140426 0.138319,0.08644 0.290134,0.123536 0.441874,0.174615 0.216148,0.06739 0.385314,0.203906 0.528732,0.374245 0.116796,0.11115 0.224803,0.230289 0.323692,0.358688 0.12003,0.116803 0.23643,0.237009 0.347303,0.362542 0.101993,0.08688 0.208748,0.170929 0.316901,0.251151 0.112262,0.07394 0.211887,0.174199 0.341512,0.216737 0.146407,0.08227 0.28447,0.17174 0.432111,0.251448 0.134623,0.06542 0.271853,0.126006 0.404758,0.195083 0.08905,0.04155 0.176133,0.08626 0.263375,0.131843 0.441506,0.231384 0.114279,0.855768 -0.327227,0.624384 l 0,0 c -0.09046,-0.04753 -0.18052,-0.09318 -0.272959,-0.136961 -0.128233,-0.08 -0.27957,-0.121666 -0.410165,-0.198054 -0.117577,-0.06956 -0.243799,-0.128756 -0.348518,-0.211964 -0.185956,-0.07762 -0.349246,-0.188763 -0.508904,-0.310874 -0.144684,-0.111151 -0.293853,-0.219523 -0.422238,-0.349549 -0.119706,-0.140319 -0.257583,-0.26265 -0.378886,-0.401482 -0.09182,-0.127642 -0.207141,-0.22858 -0.312653,-0.344425 -0.04805,-0.07824 -0.127646,-0.121075 -0.212789,-0.14854 -0.138114,-0.05628 -0.30056,-0.07023 -0.420647,-0.167453 -0.170616,-0.0547 -0.349278,-0.07932 -0.514674,-0.151727 -0.21411,-0.0847 -0.43982,-0.142809 -0.6513,-0.236094 -0.286587,-0.105372 -0.577663,-0.198821 -0.86152,-0.311756 -0.458161,-0.196354 -0.180473,-0.844291 0.277687,-0.647937 z"
       inkscape:connector-curvature="0"
       transform="translate(0,988.36218)" />
    <path
       style="fill:#000000;fill-opacity:1;stroke:none"
       id="path3029"
       d="m 15.794292,13.697885 c 0.325377,0.02586 0.650477,0.05179 0.97025,0.118718 0.196268,0.02422 0.378557,0.102275 0.569529,0.147372 0.199303,0.07542 0.399676,0.150435 0.597577,0.230117 0.166996,0.06293 0.335989,0.114089 0.497856,0.190819 0.145534,0.05488 0.278963,0.139329 0.429144,0.181461 0.170096,0.07665 0.35015,0.118332 0.52113,0.192269 0.175017,0.07437 0.347404,0.155997 0.531957,0.204017 0.174443,0.06926 0.355462,0.116359 0.534466,0.171633 0.207161,0.08094 0.418125,0.150483 0.622537,0.238373 0.181601,0.07098 0.360765,0.149667 0.550582,0.196289 0.198703,0.06166 0.391233,0.131763 0.56947,0.239726 0.01982,0.01261 0.03964,0.02522 0.05945,0.03783 0.42048,0.267701 0.0419,0.862348 -0.378585,0.594648 l 0,0 c -0.02159,-0.01375 -0.04318,-0.0275 -0.06477,-0.04125 -0.09367,-0.08883 -0.249772,-0.08705 -0.359368,-0.147784 -0.225919,-0.05877 -0.442239,-0.144986 -0.658114,-0.233099 -0.179676,-0.07959 -0.367812,-0.136124 -0.549289,-0.211214 -0.170916,-0.05283 -0.344835,-0.09612 -0.510477,-0.164684 -0.219706,-0.06088 -0.428757,-0.149294 -0.636947,-0.241555 -0.140407,-0.06858 -0.299665,-0.08605 -0.438098,-0.161055 -0.184084,-0.05851 -0.354151,-0.146492 -0.53156,-0.221746 -0.147164,-0.0754 -0.308759,-0.106647 -0.45961,-0.173596 -0.162008,-0.07124 -0.334577,-0.121124 -0.495026,-0.196499 -0.183503,-0.04595 -0.358753,-0.11723 -0.547361,-0.142321 -0.271908,-0.0579 -0.54839,-0.07585 -0.824751,-0.103539 -0.498464,0 -0.498464,-0.704935 0,-0.704935 z"
       inkscape:connector-curvature="0"
       transform="translate(0,988.36218)" />
    <path
       style="fill:#000000;fill-opacity:1;stroke:none"
       id="path3031"
       d="m 15.995702,11.885196 c 0.333978,-0.0048 0.666283,-0.0036 0.998704,0.03056 0.2588,0.0332 0.516962,0.09231 0.768384,0.162826 0.178142,0.0608 0.363689,0.09071 0.545534,0.137925 0.174926,0.07334 0.354719,0.131562 0.529652,0.204521 0.164811,0.04179 0.317534,0.114287 0.471371,0.18498 0.173897,0.0709 0.350136,0.134176 0.522481,0.208865 0.174281,0.05234 0.32874,0.149843 0.494696,0.220871 0.133846,0.0863 0.284071,0.133218 0.429511,0.194792 0.135099,0.07815 0.270193,0.157807 0.418135,0.209303 0.125569,0.0547 0.256066,0.09401 0.382766,0.145589 0.459381,0.193482 0.185756,0.843145 -0.273625,0.649663 l 0,0 c -0.114458,-0.05161 -0.2385,-0.0785 -0.35196,-0.133458 -0.155269,-0.05856 -0.313984,-0.126749 -0.450334,-0.222022 -0.148338,-0.0629 -0.304111,-0.110389 -0.439989,-0.199332 -0.163143,-0.07367 -0.317695,-0.164445 -0.489516,-0.218602 -0.177217,-0.07681 -0.359038,-0.140755 -0.537313,-0.215497 -0.146449,-0.0677 -0.290626,-0.133717 -0.447574,-0.174536 -0.144411,-0.06023 -0.294586,-0.103871 -0.435497,-0.172837 -0.188665,-0.04901 -0.381449,-0.0798 -0.566204,-0.143629 -0.207737,-0.06555 -0.428679,-0.105144 -0.64332,-0.138257 -0.308135,-0.0324 -0.616244,-0.03012 -0.925902,-0.02679 -0.498464,0 -0.498464,-0.704935 0,-0.704935 z"
       inkscape:connector-curvature="0"
       transform="translate(0,988.36218)" />
    <path
       style="fill:#000000;fill-opacity:1;stroke:none"
       id="path3033"
       d="m 16.499227,9.7703927 c 0.290798,0 0.581596,0 0.872394,0 0.302615,-0.017241 0.594327,0.057709 0.885136,0.1286239 0.228562,0.045336 0.460154,0.056385 0.687908,0.1062904 0.227206,0.0346 0.451723,0.06663 0.670245,0.14011 0.163059,0.07109 0.336987,0.104878 0.504667,0.162547 0.174699,0.03647 0.335775,0.109249 0.497332,0.182539 0.205536,0.07607 0.40473,0.166986 0.604155,0.257546 0.246932,0.109204 0.500167,0.20324 0.751019,0.30339 0.241541,0.08378 0.479664,0.177598 0.711579,0.28523 0.03259,0.01445 0.06518,0.0289 0.09777,0.04336 0.45554,0.202359 0.169361,0.846591 -0.286179,0.644232 l 0,0 c -0.03678,-0.01637 -0.07357,-0.03273 -0.110349,-0.04909 -0.218969,-0.103582 -0.446359,-0.188171 -0.674495,-0.269157 -0.260852,-0.104402 -0.524375,-0.202011 -0.78103,-0.316201 -0.199416,-0.09071 -0.398934,-0.180617 -0.60422,-0.257576 -0.141925,-0.06464 -0.280538,-0.127545 -0.435031,-0.157719 -0.170229,-0.05866 -0.347927,-0.09164 -0.513248,-0.165563 -0.184734,-0.0776 -0.392334,-0.06622 -0.584631,-0.115382 -0.231907,-0.05207 -0.470919,-0.0531 -0.702555,-0.109698 -0.236314,-0.05767 -0.471624,-0.125531 -0.718074,-0.108542 -0.290798,0 -0.581596,0 -0.872394,0 -0.498464,0 -0.498464,-0.7049343 0,-0.7049343 z"
       inkscape:connector-curvature="0"
       transform="translate(0,988.36218)" />
    <path
       style="fill:#000000;fill-opacity:1;stroke:none"
       id="path3035"
       d="m 17.606981,7.6555891 c 0.296673,-0.014466 0.590241,0.029198 0.883995,0.062969 0.266281,0.016835 0.52051,0.099068 0.776596,0.1667355 0.265936,0.033384 0.51941,0.1167795 0.776339,0.1888759 0.232558,0.047507 0.462409,0.107882 0.69677,0.1469899 0.234396,0.02959 0.464204,0.087584 0.690244,0.1549985 0.212247,0.050689 0.428841,0.066908 0.641216,0.1174443 0.199956,0.037651 0.39754,0.075245 0.590825,0.1403495 0.188763,0.063063 0.379513,0.1221809 0.571996,0.1732677 0.21578,0.034567 0.408034,0.1423071 0.615779,0.2038741 0.218196,0.072832 0.440381,0.1357113 0.66326,0.1931717 0.201468,0.041751 0.397124,0.1093582 0.584841,0.1928327 0.126234,0.053026 0.251122,0.1126213 0.372225,0.1767829 0.435833,0.2419014 0.09373,0.8582621 -0.3421,0.6163601 l 0,0 C 25.031978,10.127988 24.916469,10.08956 24.8123,10.041168 24.659866,9.9733161 24.501274,9.9185249 24.336886,9.8865871 24.104758,9.825993 23.87308,9.7607773 23.645464,9.6854779 23.445537,9.6235443 23.258854,9.5260493 23.052238,9.4880605 22.843275,9.431498 22.635695,9.368375 22.430574,9.2994795 22.261413,9.2363411 22.082667,9.2205509 21.907778,9.1791077 21.683597,9.1248402 21.451705,9.116845 21.22938,9.0516669 21.030904,8.9924248 20.829425,8.940712 20.623301,8.9162528 20.364324,8.8720967 20.109742,8.8074884 19.853035,8.7527704 19.599296,8.6812468 19.349715,8.6005767 19.087056,8.5667235 c -0.223232,-0.059269 -0.444307,-0.1341324 -0.67663,-0.147848 -0.267114,-0.030738 -0.533604,-0.072927 -0.803445,-0.058352 -0.498464,0 -0.498464,-0.7049346 0,-0.7049346 z"
       inkscape:connector-curvature="0"
       transform="translate(0,988.36218)" />
    <path
       style="fill:#000000;fill-opacity:1;stroke:none"
       id="path3037"
       d="m 24.393127,3.4149693 c -0.231673,0.1590414 -0.465553,0.3149949 -0.691102,0.4828522 -0.174648,0.1146148 -0.336635,0.2450673 -0.494873,0.3805619 -0.08857,0.091027 -0.190177,0.1704667 -0.242724,0.2890058 -0.0915,0.1298852 -0.133057,0.2804201 -0.182528,0.4291813 -0.04952,0.1955612 -0.0961,0.3922837 -0.162196,0.5830329 -0.06547,0.1581389 -0.09369,0.3262843 -0.146886,0.4885305 -0.03384,0.1568748 -0.07677,0.3106276 -0.119196,0.4655155 -0.05569,0.1398147 -0.02923,0.077316 -0.07794,0.1880974 C 22.074946,7.1780049 21.4297,6.8941216 21.630436,6.4378635 l 0,0 c 0.03332,-0.075676 0.01743,-0.04554 0.04381,-0.092327 0.04624,-0.1656464 0.089,-0.3299678 0.12883,-0.4973653 0.05556,-0.1688506 0.08285,-0.3453839 0.15414,-0.5094996 0.07319,-0.1809593 0.09594,-0.3801313 0.156059,-0.5654356 0.06145,-0.1833018 0.117225,-0.3712873 0.226741,-0.5330275 0.106176,-0.1924388 0.244842,-0.3525896 0.409408,-0.4979414 0.170846,-0.1453355 0.344599,-0.2867704 0.532311,-0.4103901 0.235445,-0.1745228 0.478721,-0.3378436 0.72036,-0.5034489 0.414747,-0.2764981 0.805775,0.3100429 0.391028,0.586541 z"
       inkscape:connector-curvature="0"
       transform="translate(0,988.36218)" />
    <path
       style="fill:#000000;fill-opacity:1;stroke:none"
       id="path3039"
       d="m 21.403967,2.6279818 c -0.231181,0.1368811 -0.485693,0.2282968 -0.72026,0.3580828 -0.173791,0.077929 -0.333799,0.169724 -0.488566,0.2798442 -0.127135,0.086126 -0.263108,0.1688566 -0.370367,0.2802457 -0.10555,0.077959 -0.182309,0.1767183 -0.259647,0.2791313 -0.06912,0.1118656 -0.123839,0.2319255 -0.186391,0.3476608 -0.06244,0.1257728 -0.104368,0.26277 -0.141456,0.3983072 -0.04671,0.2037962 -0.105934,0.4046812 -0.169462,0.603858 -0.05434,0.1678846 -0.07002,0.3433926 -0.07973,0.5184743 -0.0056,0.1280487 -0.006,0.2562388 -0.0065,0.3843835 -0.0021,0.4984598 -0.706983,0.4955544 -0.704928,-0.00291 l 0,0 c 5.89e-4,-0.1406051 0.0011,-0.2812618 0.0077,-0.4217479 0.01372,-0.2341239 0.03897,-0.468188 0.111919,-0.6924212 0.061,-0.1912287 0.117926,-0.3839093 0.162245,-0.5797488 0.05375,-0.1889762 0.113261,-0.3798343 0.20577,-0.5536271 0.08699,-0.1387817 0.139158,-0.3003829 0.241273,-0.4309039 0.101762,-0.1294266 0.200795,-0.2588712 0.332633,-0.3604806 0.138961,-0.1284682 0.28909,-0.245522 0.449828,-0.3456759 0.177663,-0.1251708 0.362074,-0.2345844 0.560132,-0.3243142 0.255546,-0.1363441 0.525142,-0.2444599 0.77818,-0.3860999 0.458161,-0.1963546 0.735848,0.4515825 0.277687,0.6479371 z"
       inkscape:connector-curvature="0"
       transform="translate(0,988.36218)" />
    <path
       style="fill:#000000;fill-opacity:1;stroke:none"
       id="path3041"
       d="m 18.472679,1.5286157 c -0.168633,0.2291895 -0.352317,0.446506 -0.545113,0.6556057 -0.114725,0.1464821 -0.224268,0.2971394 -0.345712,0.4386899 -0.0954,0.1366188 -0.228463,0.239851 -0.337525,0.3636907 -0.113337,0.098438 -0.204532,0.2123137 -0.293755,0.3308598 -0.07316,0.113314 -0.172286,0.2081911 -0.226324,0.3332376 -0.09373,0.1517036 -0.169264,0.3111158 -0.242365,0.4731433 -0.06603,0.1722051 -0.117453,0.3509579 -0.163385,0.5297319 -0.04337,0.1904525 -0.101174,0.3760359 -0.130002,0.5696529 -0.01573,0.1196945 -0.01975,0.2404024 -0.02349,0.3609201 C 16.1492,6.0823608 15.44462,6.0600032 15.460429,5.56179 l 0,0 c 0.0048,-0.1487543 0.01059,-0.2977091 0.03126,-0.4453006 0.03396,-0.217247 0.09373,-0.4269458 0.144576,-0.6403704 0.05702,-0.2171804 0.118624,-0.4349522 0.203385,-0.6429139 0.07606,-0.1674484 0.151984,-0.3342578 0.250382,-0.4902449 0.08294,-0.1637945 0.190875,-0.3066585 0.300053,-0.4530346 0.104944,-0.1343739 0.207095,-0.2690901 0.336635,-0.3818793 0.109339,-0.1155865 0.230223,-0.2199608 0.324507,-0.3492135 0.130115,-0.1433846 0.232443,-0.3089033 0.359862,-0.4543885 0.168843,-0.179895 0.325759,-0.3705856 0.475047,-0.5668559 0.276499,-0.41474713 0.86304,-0.02372 0.586541,0.3910273 z"
       inkscape:connector-curvature="0"
       transform="translate(0,988.36218)" />
    <path
       style="fill:#000000;fill-opacity:1;stroke:none"
       id="path3043"
       d="m 15.496152,1.8724028 c -0.15641,0.1797115 -0.332454,0.3432212 -0.453507,0.5503209 -0.105674,0.1527739 -0.182999,0.3215489 -0.27663,0.4816973 -0.08289,0.1434155 -0.167719,0.2852461 -0.249831,0.4292776 -0.0987,0.1355336 -0.195979,0.2715993 -0.27567,0.4193422 -0.05471,0.1637835 -0.169692,0.296985 -0.24291,0.4507222 -0.08157,0.1267818 -0.114703,0.2670467 -0.134064,0.4141515 -0.0098,0.086802 -0.0124,0.1741308 -0.01539,0.2613521 -0.01759,0.4981536 -0.722085,0.4732779 -0.704496,-0.024876 l 0,0 c 0.004,-0.1116203 0.0079,-0.22337 0.02177,-0.3343276 0.03257,-0.2236076 0.08652,-0.4425544 0.204941,-0.6380325 0.08325,-0.1573348 0.188876,-0.301515 0.252766,-0.4692529 0.08353,-0.1495311 0.173562,-0.2970114 0.281713,-0.4300828 0.08414,-0.1457872 0.170765,-0.2896685 0.253685,-0.4359065 0.09661,-0.1625172 0.17329,-0.3359171 0.282205,-0.4910029 0.156725,-0.2511234 0.355646,-0.4659531 0.556948,-0.681847 0.352467,-0.3524673 0.850931,0.1459967 0.498464,0.498464 z"
       inkscape:connector-curvature="0"
       transform="translate(0,988.36218)" />
    <path
       style="fill:#000000;fill-opacity:1;stroke:none"
       id="path3045"
       d="m 19.580434,2.3342552 c -0.172229,0.2215893 -0.370995,0.4231571 -0.575199,0.61549 -0.118612,0.1171314 -0.234817,0.2368335 -0.356707,0.3505593 -0.09998,0.1062135 -0.214411,0.1969172 -0.31062,0.3070075 -0.103093,0.1105043 -0.218844,0.210053 -0.317954,0.3241721 -0.106847,0.090335 -0.172954,0.2131521 -0.259457,0.3219084 -0.05683,0.088886 -0.125237,0.1733174 -0.153571,0.2766417 -0.0188,0.1595659 -0.05306,0.3152649 -0.08902,0.471831 -0.03021,0.1573486 -0.09497,0.3034529 -0.121565,0.4617663 -0.01153,0.077978 -0.01525,0.1567279 -0.01945,0.2353345 -0.02748,0.4977062 -0.731338,0.4588506 -0.703863,-0.038856 l 0,0 c 0.0061,-0.1070124 0.01192,-0.2141901 0.02931,-0.3201374 0.03131,-0.1698336 0.0898,-0.3295779 0.128655,-0.4964798 0.04155,-0.1796431 0.06973,-0.3590596 0.108167,-0.5393236 0.06521,-0.1812581 0.161727,-0.3459055 0.277734,-0.4995796 0.101364,-0.1091804 0.159264,-0.2576324 0.282375,-0.348307 0.103018,-0.1104196 0.211272,-0.2158185 0.317202,-0.3233461 0.114098,-0.1229563 0.239064,-0.2339202 0.35665,-0.3531297 0.123587,-0.1077167 0.231546,-0.2333755 0.351176,-0.3454527 0.166442,-0.1532093 0.323047,-0.319147 0.4696,-0.4911266 0.276498,-0.4147472 0.863039,-0.02372 0.586541,0.3910273 z"
       inkscape:connector-curvature="0"
       transform="translate(0,988.36218)" />
    <path
       style="fill:#000000;fill-opacity:1;stroke:none"
       id="path3047"
       d="m 22.702287,3.1398947 c -0.168784,0.2053963 -0.30295,0.4352411 -0.463861,0.646382 -0.10842,0.1477262 -0.211657,0.2987088 -0.317398,0.448409 -0.06847,0.1459819 -0.200732,0.2529295 -0.273811,0.3947033 -0.08965,0.1271423 -0.175144,0.2556506 -0.260767,0.385039 -0.05348,0.1033815 -0.122884,0.1998719 -0.153634,0.3133583 -0.03755,0.1675696 -0.09712,0.3303608 -0.166497,0.4872496 -0.03958,0.1404649 -0.08289,0.2800128 -0.123021,0.4206792 -0.02365,0.092093 -0.03087,0.186982 -0.03802,0.2814229 -0.03915,0.4969238 -0.741911,0.4415504 -0.702756,-0.055373 l 0,0 c 0.01153,-0.1421205 0.02529,-0.2845351 0.06375,-0.4224539 0.05008,-0.1706421 0.09739,-0.341454 0.155348,-0.5094106 0.05912,-0.13365 0.108406,-0.2716224 0.13919,-0.4150618 0.05897,-0.1762643 0.146787,-0.3381777 0.242751,-0.4968683 0.08239,-0.1134277 0.151042,-0.2365149 0.237012,-0.3476384 0.0945,-0.1528961 0.214689,-0.2864996 0.304794,-0.442528 0.111663,-0.1578649 0.220554,-0.3171582 0.335394,-0.4727446 0.154456,-0.1951065 0.271936,-0.4173191 0.43498,-0.6061917 0.276498,-0.4147471 0.863039,-0.02372 0.586541,0.3910274 z"
       inkscape:connector-curvature="0"
       transform="translate(0,988.36218)" />
    <path
       style="fill:#000000;fill-opacity:1;stroke:none"
       id="path3049"
       d="m 17.163515,1.6293206 c -0.141059,0.2306239 -0.353448,0.4012467 -0.521146,0.6085377 -0.07041,0.066659 -0.119772,0.1497971 -0.190199,0.2164551 -0.04273,0.040439 -0.126222,0.088828 -0.160042,0.1447485 -0.09205,0.1073835 -0.193374,0.2073962 -0.283467,0.3165085 -0.07981,0.079665 -0.163041,0.1686284 -0.206004,0.2750171 -0.08141,0.1730807 -0.164381,0.344316 -0.257109,0.5117142 -0.07319,0.1443126 -0.148276,0.2875295 -0.224552,0.4303812 -0.05612,0.112982 -0.116284,0.2162677 -0.140288,0.3408298 -0.0549,0.1474767 -0.09341,0.2960519 -0.110559,0.4522014 -0.002,0.026748 -0.004,0.053496 -0.006,0.080244 -0.03862,0.4969655 -0.741437,0.4423455 -0.702815,-0.05462 l 0,0 c 0.0028,-0.035525 0.0057,-0.071051 0.0085,-0.1065766 0.02129,-0.1781328 0.05306,-0.3552506 0.12219,-0.5219394 0.04319,-0.1868991 0.118518,-0.3547092 0.207653,-0.5232315 0.07827,-0.1455102 0.155427,-0.2912709 0.229277,-0.4390471 0.08762,-0.1579813 0.165319,-0.3198605 0.242262,-0.4834367 0.07979,-0.1523484 0.176702,-0.3031689 0.302987,-0.4212478 0.09438,-0.1076261 0.192193,-0.2119474 0.286314,-0.3197969 0.112006,-0.1209663 0.244405,-0.2152176 0.34149,-0.3509611 0.157198,-0.1839749 0.341514,-0.3422809 0.474923,-0.5468073 0.276498,-0.41474709 0.863039,-0.02372 0.586541,0.3910273 z"
       inkscape:connector-curvature="0"
       transform="translate(0,988.36218)" />
    <path
       style="fill:#000000;fill-opacity:1;stroke:none"
       id="path3051"
       d="m 9.751996,7.4541793 c 0.28124,0 0.56248,0 0.84372,0 0.148898,-0.00968 0.335837,0.022981 0.474536,-0.052114 0.18127,-0.082518 0.376411,-0.1151313 0.572878,-0.1349683 0.14912,-0.051217 0.308091,-0.060903 0.459539,-0.1004634 0.209632,-0.059756 0.425378,-0.087374 0.64211,-0.1036835 0.209778,-0.012478 0.420023,-0.012296 0.630088,-0.012569 0.201786,1.094e-4 0.403573,5.356e-4 0.605359,7.506e-4 0.21358,0.00172 0.426881,-0.00834 0.639309,0.015489 0.185939,0.036547 0.372025,0.063083 0.553623,0.1181435 0.147567,0.067573 0.08307,0.035223 0.194837,0.094305 0.440489,0.2333163 0.110529,0.8562607 -0.329959,0.6229443 l 0,0 c -0.06437,-0.034174 -0.04407,-0.015503 -0.07066,-0.043018 -0.144963,-0.044624 -0.294515,-0.061061 -0.442822,-0.093868 -0.176164,-0.03778 -0.366406,0.00942 -0.545084,-0.00906 -0.201236,-2.145e-4 -0.402471,-6.378e-4 -0.603707,-7.509e-4 -0.193078,2.432e-4 -0.386314,-1.022e-4 -0.57916,0.010661 -0.179368,0.012883 -0.357576,0.035761 -0.530754,0.086444 -0.18412,0.041679 -0.370946,0.070588 -0.554353,0.1162879 -0.139823,0.012922 -0.275935,0.035173 -0.403829,0.097107 -0.230817,0.07466 -0.468857,0.1069165 -0.711956,0.093299 -0.28124,0 -0.56248,0 -0.84372,0 -0.498464,0 -0.498464,-0.7049345 0,-0.7049345 z"
       inkscape:connector-curvature="0"
       transform="translate(0,988.36218)" />
    <path
       style="fill:#000000;fill-opacity:1;stroke:none"
       id="path3053"
       d="M 8.8075129,9.9641632 C 9.0397485,9.8291311 9.2905079,9.7326677 9.5350546,9.6232594 9.7246011,9.5277392 9.9338689,9.4835416 10.130037,9.4079062 c 0.19437,-0.081001 0.401307,-0.1122181 0.609522,-0.1300119 0.206761,-0.013166 0.414071,-0.012259 0.621151,-0.012287 0.167999,0.014275 0.326584,-0.00495 0.489955,-0.037704 0.212182,-0.053212 0.422285,-0.043991 0.635619,-0.00778 0.18766,0.027623 0.366444,0.097683 0.537239,0.1777902 0.09448,0.030281 0.186313,0.066787 0.278052,0.1049327 0.460253,0.1913974 0.189576,0.8422939 -0.270677,0.6508969 l 0,0 c -0.101586,-0.04225 -0.203715,-0.07879 -0.306747,-0.117622 -0.113803,-0.053389 -0.230724,-0.1053232 -0.356424,-0.1211044 -0.129876,-0.022297 -0.2477,-0.034672 -0.378532,0.00408 -0.208298,0.041738 -0.415424,0.065198 -0.6284,0.05145 -0.187727,1.95e-5 -0.375644,-9.484e-4 -0.563133,0.00989 -0.147558,0.011649 -0.29338,0.031136 -0.430363,0.091283 -0.182501,0.0628 -0.3693076,0.11121 -0.5444564,0.195061 C 9.5748012,10.377654 9.3217391,10.47699 9.0852002,10.6121 8.6270395,10.808455 8.3493522,10.160518 8.8075129,9.9641632 z"
       inkscape:connector-curvature="0"
       transform="translate(0,988.36218)" />
    <path
       style="fill:#000000;fill-opacity:1;stroke:none"
       id="path3055"
       d="m 8.241422,11.683787 c 0.2613229,0.01238 0.51432,-0.05367 0.7668607,-0.110101 0.2299117,-0.04957 0.4539381,-0.117871 0.6864615,-0.156247 0.1636062,-0.01384 0.3198678,-0.06707 0.4743648,-0.119573 0.184737,-0.04397 0.360049,-0.115249 0.544054,-0.161857 0.174503,-0.03766 0.342235,-0.09461 0.519176,-0.124592 0.18513,-0.04572 0.384438,-0.0011 0.568578,-0.04133 0.181776,-0.04413 0.367014,-0.0665 0.553227,-0.08017 0.182678,-0.02347 0.361211,0.0049 0.53992,0.04 0.489091,0.09621 0.353025,0.787891 -0.136065,0.691678 l 0,0 c -0.119029,-0.02344 -0.230546,-0.04939 -0.353267,-0.02856 -0.168804,0.01183 -0.335518,0.03547 -0.500414,0.07437 -0.185438,0.02337 -0.372078,0.01699 -0.55775,0.03964 -0.158694,0.02475 -0.307217,0.08329 -0.464578,0.113394 -0.16483,0.03884 -0.320245,0.109195 -0.486085,0.144894 -0.191424,0.06504 -0.386432,0.127147 -0.5884601,0.147984 -0.2189455,0.03454 -0.42837,0.105122 -0.6454429,0.14835 -0.3029663,0.06769 -0.6074517,0.139904 -0.92058,0.127065 -0.498464,0 -0.498464,-0.704934 0,-0.704934 z"
       inkscape:connector-curvature="0"
       transform="translate(0,988.36218)" />
    <path
       style="fill:#000000;fill-opacity:1;stroke:none"
       id="path3057"
       d="m 7.1275179,15.018062 c 0.2180378,-0.175578 0.4565098,-0.325275 0.6942423,-0.472663 0.1529048,-0.09287 0.3317276,-0.160317 0.4634638,-0.28484 0.1252815,-0.111318 0.2806749,-0.178423 0.4187187,-0.269585 0.1531561,-0.06555 0.2828858,-0.166915 0.4282063,-0.246677 0.1488286,-0.103742 0.3196007,-0.168602 0.4814616,-0.248338 0.2198573,-0.112884 0.4599884,-0.160169 0.7033254,-0.186235 0.175658,-0.0116 0.345455,-0.06134 0.519962,-0.08606 0.206348,-0.02492 0.414444,-0.02733 0.622004,-0.02942 0.145727,-0.01 0.288421,0.02334 0.430059,0.0521 0.488491,0.09921 0.348186,0.790041 -0.140305,0.690831 l 0,0 c -0.09416,-0.01913 -0.185601,-0.04749 -0.282734,-0.03803 -0.177496,0.0017 -0.355454,0.0031 -0.532074,0.02275 -0.182514,0.02465 -0.359758,0.08045 -0.544281,0.08901 -0.161436,0.01592 -0.320985,0.04233 -0.4666154,0.118488 -0.1552572,0.07533 -0.3171448,0.138226 -0.4596408,0.237208 -0.135468,0.06716 -0.2507693,0.170898 -0.3928204,0.226513 -0.1127067,0.06644 -0.2297937,0.125709 -0.3324675,0.207726 C 8.5699078,14.936268 8.3851807,15.048458 8.1921775,15.145169 7.960713,15.287451 7.730927,15.434804 7.5185452,15.604603 7.1037981,15.881101 6.7127708,15.29456 7.1275179,15.018062 z"
       inkscape:connector-curvature="0"
       transform="translate(0,988.36218)" />
    <path
       style="fill:#000000;fill-opacity:1;stroke:none"
       id="path3059"
       d="m 6.4575239,17.265563 c 0.2348136,-0.235447 0.4615513,-0.477726 0.7259071,-0.680402 0.1821742,-0.127376 0.3492655,-0.275159 0.5334703,-0.399172 0.1682239,-0.145332 0.3731385,-0.210761 0.5878769,-0.248429 0.195647,-0.01043 0.3864579,-0.03406 0.5793458,-0.0669 0.1796576,-0.03023 0.3511581,-0.09095 0.531358,-0.122922 0.1650738,-0.06376 0.3387221,-0.09513 0.5136011,-0.116277 0.1413389,-0.01156 0.070788,-0.0068 0.2116479,-0.01427 0.4978,-0.02573 0.534188,0.678264 0.03639,0.703995 l 0,0 c -0.112671,0.0056 -0.05733,0.0021 -0.16603,0.01042 -0.1634772,0.01825 -0.3189247,0.06134 -0.4756934,0.11079 -0.1807571,0.02989 -0.3510136,0.09989 -0.5329717,0.123199 -0.1936334,0.03296 -0.3864578,0.06096 -0.5829883,0.06751 -0.1250049,0.018 -0.2210853,0.05395 -0.3169083,0.142988 -0.1750464,0.106857 -0.3220049,0.259598 -0.4943226,0.371649 -0.2416412,0.178235 -0.4361804,0.409174 -0.6522178,0.616283 -0.3524673,0.352467 -0.8509313,-0.145997 -0.498464,-0.498464 z"
       inkscape:connector-curvature="0"
       transform="translate(0,988.36218)" />
    <path
       style="fill:#000000;fill-opacity:1;stroke:none"
       id="path3061"
       d="m 6.2781819,18.623923 c 0.2380488,-0.03158 0.4834477,-0.05473 0.7110756,-0.136044 0.1870208,-0.06347 0.3751637,-0.124902 0.5653881,-0.178322 0.1872528,-0.03422 0.371427,-0.06887 0.5562927,-0.113761 0.1562268,-0.0824 0.3305014,-0.117989 0.5035662,-0.143477 0.2088946,-0.02404 0.4195007,-0.02427 0.6294779,-0.02528 0.2023829,-2.57e-4 0.4047656,4.28e-4 0.607148,7.59e-4 0.1470314,-0.0034 0.2920866,-8.3e-4 0.4381506,0.01562 0.493896,0.06733 0.39868,0.765802 -0.09522,0.698474 l 0,0 c -0.112303,-0.02408 -0.23009,-6.58e-4 -0.3440861,-0.0092 -0.2008893,-3.29e-4 -0.4017788,-0.001 -0.6026685,-7.66e-4 -0.1781106,8.28e-4 -0.3567025,5.17e-4 -0.534112,0.01834 -0.1535128,0.02024 -0.2937558,0.07027 -0.4364008,0.13063 -0.1770595,0.0427 -0.3535619,0.08027 -0.5335302,0.107847 -0.1801728,0.04926 -0.3575996,0.109155 -0.5344408,0.168959 -0.2701178,0.08464 -0.549428,0.135343 -0.8309519,0.164027 -0.4934542,0.07049 -0.593147,-0.627356 -0.099693,-0.69785 z"
       inkscape:connector-curvature="0"
       transform="translate(0,988.36218)" />
    <path
       style="fill:#000000;fill-opacity:1;stroke:none"
       id="path3063"
       d="m 5.3248536,20.93811 c 0.2652951,-0.07499 0.5219324,-0.172525 0.7916417,-0.232922 0.1784187,-0.05187 0.3518412,-0.117987 0.5292994,-0.17262 0.187278,-0.03377 0.3663072,-0.09652 0.5517946,-0.137939 0.208795,-0.0408 0.4219763,-0.04596 0.6339879,-0.04982 0.2031807,-0.0023 0.4063802,-0.0014 0.6095687,-0.001 0.1984071,-0.0117 0.3828293,0.04099 0.5612151,0.122083 0.452931,0.208134 0.1585846,0.848675 -0.2943463,0.640541 l 0,0 c -0.087299,-0.04078 -0.1654033,-0.07125 -0.2681097,-0.05769 -0.1985578,-3.5e-4 -0.3971257,-0.0012 -0.5956765,9.17e-4 -0.1657075,0.0029 -0.3324206,0.0052 -0.496145,0.03369 -0.167266,0.03532 -0.3278674,0.09676 -0.4971232,0.123674 -0.1953538,0.05843 -0.3848384,0.135404 -0.5826043,0.186585 -0.2560017,0.05534 -0.4972029,0.155234 -0.7498419,0.22235 C 5.039229,21.75286 4.8455686,21.075049 5.3248536,20.93811 z"
       inkscape:connector-curvature="0"
       transform="translate(0,988.36218)" />
    <path
       style="fill:#000000;fill-opacity:1;stroke:none"
       id="path3065"
       d="m 8.509567,22.896004 c 0,0.28124 0,0.56248 0,0.84372 0,0.187694 0,0.375388 0,0.563082 0,0.498464 -0.7049346,0.498464 -0.7049346,0 l 0,0 c 0,-0.187694 0,-0.375388 0,-0.563082 0,-0.28124 0,-0.56248 0,-0.84372 0,-0.498464 0.7049346,-0.498464 0.7049346,0 z"
       inkscape:connector-curvature="0"
       transform="translate(0,988.36218)" />
    <path
       style="fill:#000000;fill-opacity:1;stroke:none"
       id="path3067"
       d="m 10.221551,23.298824 c 0,0.28124 0,0.56248 0,0.84372 0,0.221984 0,0.443968 0,0.665952 0.0023,0.170357 -0.01302,0.339902 0.02192,0.50707 0.0033,0.0025 0.0066,0.0051 0.0099,0.0076 0.187351,0.461916 -0.4658964,0.72687 -0.6532476,0.264955 l 0,0 c -0.016023,-0.04509 -0.032047,-0.09018 -0.04807,-0.135271 -0.041078,-0.213614 -0.039668,-0.427449 -0.035424,-0.644365 0,-0.221984 0,-0.443968 0,-0.665952 0,-0.28124 0,-0.56248 0,-0.84372 0,-0.498464 0.7049347,-0.498464 0.7049347,0 z"
       inkscape:connector-curvature="0"
       transform="translate(0,988.36218)" />
    <path
       style="fill:#000000;fill-opacity:1;stroke:none"
       id="path3069"
       d="m 11.83283,23.802348 c -0.0063,0.2587 0.0099,0.519102 0.06539,0.77226 0.02577,0.171448 0.08162,0.324996 0.166403,0.473469 0.05434,0.140223 0.173075,0.223593 0.266815,0.336531 0.01345,0.01477 0.02689,0.02954 0.04034,0.04431 0.332129,0.371695 -0.193527,0.841396 -0.525655,0.469701 l 0,0 c -0.02199,-0.0249 -0.04399,-0.04979 -0.06598,-0.07469 -0.102682,-0.146275 -0.271796,-0.245551 -0.327873,-0.426636 -0.121241,-0.21284 -0.203072,-0.437409 -0.244342,-0.679766 -0.06001,-0.301173 -0.09005,-0.607804 -0.08003,-0.915181 0,-0.498463 0.704935,-0.498463 0.704935,0 z"
       inkscape:connector-curvature="0"
       transform="translate(0,988.36218)" />
    <path
       style="fill:#000000;fill-opacity:1;stroke:none"
       id="path3071"
       d="m 13.444109,24.104463 c 0.01313,0.242286 0.08527,0.474082 0.135468,0.71004 0.07583,0.158893 0.08596,0.340217 0.144301,0.503293 0.0425,0.155017 0.113977,0.296829 0.159978,0.451098 0.05572,0.07947 0.04509,0.214808 0.135221,0.267397 0.343495,0.361216 -0.167342,0.846992 -0.510838,0.485775 l 0,0 c -0.145635,-0.16566 -0.233386,-0.350247 -0.301967,-0.558717 -0.03989,-0.151076 -0.12234,-0.287338 -0.15688,-0.440613 -0.05335,-0.187392 -0.08924,-0.379282 -0.159456,-0.562192 -0.05978,-0.283833 -0.145127,-0.563482 -0.150762,-0.856081 0,-0.498464 0.704935,-0.498464 0.704935,0 z"
       inkscape:connector-curvature="0"
       transform="translate(0,988.36218)" />
    <path
       style="fill:#000000;fill-opacity:1;stroke:none"
       id="path3073"
       d="m 14.965213,24.712568 c 0.0837,0.231629 0.183705,0.456352 0.272724,0.685806 0.05291,0.153838 0.105043,0.31763 0.197059,0.453618 0.05443,0.113149 0.1611,0.172235 0.254275,0.25263 0.07484,0.04763 0.146483,0.104353 0.229632,0.137787 0.451474,0.211277 0.152684,0.849757 -0.29879,0.638481 l 0,0 c -0.140175,-0.06874 -0.274369,-0.151401 -0.39733,-0.247759 -0.139352,-0.129456 -0.306971,-0.233516 -0.389591,-0.414036 -0.104756,-0.178766 -0.193405,-0.368504 -0.253081,-0.56735 -0.09516,-0.249426 -0.206689,-0.492368 -0.292709,-0.745517 -0.136939,-0.479285 0.540873,-0.672945 0.677811,-0.19366 z"
       inkscape:connector-curvature="0"
       transform="translate(0,988.36218)" />
    <path
       style="fill:#000000;fill-opacity:1;stroke:none"
       id="path3075"
       d="m 19.661525,1012.239 c 0.311107,0.1331 0.598618,0.3019 0.880707,0.4793 0.178976,0.1152 0.326504,0.2631 0.490092,0.394 0.102812,0.087 0.215492,0.162 0.32297,0.2439 0.457184,0.3524 -0.08947,0.9419 -0.546653,0.5895 l 0,0 c -0.113477,-0.089 -0.237071,-0.167 -0.34552,-0.2619 -0.132613,-0.1117 -0.258471,-0.2293 -0.401747,-0.3302 -0.235779,-0.1484 -0.474319,-0.2914 -0.733371,-0.405 -0.550284,-0.2151 -0.216761,-0.9246 0.333522,-0.7096 z"
       inkscape:connector-curvature="0" />
    <path
       style="fill:#000000;fill-opacity:1;stroke:none"
       id="path3077"
       d="m 20.941557,1010.2244 c 0.32443,0.122 0.668164,0.185 1.003329,0.2741 0.251591,0.055 0.482111,0.1472 0.701456,0.2708 0.03858,0.028 0.07709,0.055 0.115723,0.083 0.06236,0.045 0.09621,0.065 0.155026,0.1252 0.01902,0.02 0.103208,0.1478 0.154707,0.1703 0.0896,0.084 0.199078,0.1579 0.31984,0.2013 0.207642,0.098 0.369136,0.2559 0.521894,0.4136 0.04074,0.052 0.08165,0.096 0.142287,0.1264 0.48314,0.3224 -0.01688,0.9453 -0.500015,0.623 l 0,0 c -0.104169,-0.074 -0.20779,-0.1463 -0.284334,-0.2462 -0.07032,-0.08 -0.155699,-0.1585 -0.237575,-0.2172 -0.194803,-0.087 -0.38695,-0.1927 -0.538707,-0.3356 -0.105718,-0.096 -0.177446,-0.2044 -0.293857,-0.2871 -0.15584,-0.088 -0.315766,-0.1518 -0.497908,-0.1876 -0.330507,-0.092 -0.674575,-0.1467 -0.994472,-0.2717 -0.575656,-0.15 -0.343056,-0.8922 0.2326,-0.7423 z"
       inkscape:connector-curvature="0" />
    <path
       style="fill:#000000;fill-opacity:1;stroke:none"
       id="path3079"
       d="m 23.222784,1008.3158 c 0.283644,0.18 0.53629,0.3905 0.764239,0.6267 0.131844,0.1343 0.269747,0.2632 0.401997,0.3971 0.139893,0.1083 0.246644,0.2413 0.359374,0.3716 0.108373,0.1385 0.168042,0.3015 0.297875,0.426 0.08846,0.1202 0.207077,0.2049 0.33001,0.2907 0.473351,0.3342 -0.04505,0.9445 -0.5184,0.6103 l 0,0 c -0.167072,-0.1203 -0.330748,-0.2406 -0.456122,-0.4004 -0.127619,-0.1419 -0.23785,-0.2934 -0.326111,-0.4579 -0.09737,-0.1181 -0.196527,-0.2308 -0.320886,-0.3289 -0.129623,-0.1388 -0.276529,-0.2643 -0.407149,-0.4025 -0.174676,-0.1876 -0.375206,-0.3472 -0.594478,-0.4904 -0.498141,-0.3028 -0.02849,-0.9451 0.469651,-0.6423 z"
       inkscape:connector-curvature="0" />
    <path
       style="fill:#000000;fill-opacity:1;stroke:none"
       id="path3081"
       d="m 23.955118,1006.2456 c 0.307515,0.099 0.614857,0.1994 0.924762,0.2923 0.2672,0.089 0.511527,0.2208 0.741945,0.3714 0.201173,0.149 0.344402,0.3402 0.477294,0.5398 0.116095,0.1384 0.215042,0.2922 0.298352,0.4491 0.08708,0.1397 0.177502,0.2767 0.271551,0.4126 0.31883,0.462 -0.397798,0.8731 -0.716629,0.4111 l 0,0 c -0.112588,-0.1639 -0.222542,-0.3286 -0.323068,-0.499 -0.06104,-0.1369 -0.166352,-0.2563 -0.256785,-0.3775 -0.07317,-0.1144 -0.147158,-0.2219 -0.252117,-0.3141 -0.154114,-0.1086 -0.327108,-0.192 -0.506399,-0.2605 -0.33249,-0.1007 -0.663377,-0.2063 -0.992428,-0.3157 -0.550284,-0.215 -0.216762,-0.9245 0.333522,-0.7095 z"
       inkscape:connector-curvature="0" />
    <path
       style="fill:#000000;fill-opacity:1;stroke:none"
       id="path3083"
       d="m 25.114196,1004.4516 c 0.326422,0.071 0.651443,0.1515 0.965083,0.261 0.243328,0.081 0.453128,0.2189 0.641875,0.3774 0.153431,0.1063 0.27399,0.2446 0.413999,0.3637 0.144308,0.1398 0.295744,0.2693 0.418298,0.4261 0.01232,0.014 0.02465,0.029 0.03697,0.043 0.362981,0.434 -0.310334,0.9021 -0.673315,0.468 l 0,0 c -0.02275,-0.028 -0.04551,-0.055 -0.06826,-0.083 -0.05658,-0.1225 -0.22712,-0.1852 -0.301319,-0.2984 -0.13692,-0.1224 -0.262575,-0.2546 -0.413617,-0.3634 -0.09592,-0.099 -0.233239,-0.166 -0.36531,-0.2154 -0.284567,-0.1078 -0.590259,-0.1648 -0.887003,-0.2369 -0.575656,-0.1499 -0.343056,-0.8922 0.2326,-0.7422 z"
       inkscape:connector-curvature="0" />
    <path
       style="fill:#000000;fill-opacity:1;stroke:none"
       id="path3085"
       d="m 26.004724,1001.1476 c 0.258119,0.1496 0.517214,0.2971 0.78028,0.4396 0.194071,0.107 0.35636,0.25 0.528014,0.3826 0.150976,0.084 0.29178,0.1857 0.423627,0.2933 0.162993,0.1205 0.304765,0.2601 0.428112,0.4145 0.01542,0.017 0.03086,0.034 0.04628,0.051 0.375527,0.4251 -0.283881,0.9093 -0.659409,0.4842 l 0,0 c -0.02658,-0.03 -0.05315,-0.061 -0.07973,-0.092 -0.08088,-0.1161 -0.199707,-0.2038 -0.31217,-0.2932 -0.114534,-0.1112 -0.271841,-0.1804 -0.401477,-0.2751 -0.131802,-0.1056 -0.25831,-0.2155 -0.406665,-0.3026 -0.274946,-0.1498 -0.546248,-0.304 -0.816518,-0.4605 -0.498142,-0.3028 -0.02849,-0.9451 0.469652,-0.6423 z"
       inkscape:connector-curvature="0" />
    <path
       style="fill:#000000;fill-opacity:1;stroke:none"
       id="path3087"
       d="m 27.082985,999.03833 c 0.307987,0.17805 0.605149,0.37096 0.911554,0.55159 0.104986,0.0795 0.225591,0.14029 0.322555,0.22884 0.05929,0.0541 0.115796,0.14271 0.189009,0.18744 0.44846,0.3617 -0.112456,0.9399 -0.560918,0.5783 l 0,0 c -0.138957,-0.1185 -0.243322,-0.2574 -0.411268,-0.3469 -0.292666,-0.1734 -0.578563,-0.35577 -0.871001,-0.52903 -0.519809,-0.27082 -0.09974,-0.94106 0.420069,-0.67024 z"
       inkscape:connector-curvature="0" />
  </g>
</svg>
