<?xml version="1.0" encoding="UTF-8" standalone="no"?>
<!-- Created with Inkscape (http://www.inkscape.org/) -->

<svg
   xmlns:dc="http://purl.org/dc/elements/1.1/"
   xmlns:cc="http://creativecommons.org/ns#"
   xmlns:rdf="http://www.w3.org/1999/02/22-rdf-syntax-ns#"
   xmlns:svg="http://www.w3.org/2000/svg"
   xmlns="http://www.w3.org/2000/svg"
   xmlns:sodipodi="http://sodipodi.sourceforge.net/DTD/sodipodi-0.dtd"
   xmlns:inkscape="http://www.inkscape.org/namespaces/inkscape"
   width="256"
   height="256"
   id="svg2"
   version="1.1"
   inkscape:version="0.48.5 r10040"
   sodipodi:docname="satelliteDish.svg"
   inkscape:export-filename="C:\Users\narfman0\workspace\ledgeArt\desert\satelliteDish.png"
   inkscape:export-xdpi="90"
   inkscape:export-ydpi="90">
  <defs
     id="defs4" />
  <sodipodi:namedview
     id="base"
     pagecolor="#ffffff"
     bordercolor="#666666"
     borderopacity="1.0"
     inkscape:pageopacity="0.0"
     inkscape:pageshadow="2"
     inkscape:zoom="2.4972322"
     inkscape:cx="129.19181"
     inkscape:cy="142.95718"
     inkscape:document-units="px"
     inkscape:current-layer="layer1"
     showgrid="false"
     showguides="true"
     inkscape:guide-bbox="true"
     inkscape:window-width="1534"
     inkscape:window-height="945"
     inkscape:window-x="44"
     inkscape:window-y="44"
     inkscape:window-maximized="0" />
  <metadata
     id="metadata7">
    <rdf:RDF>
      <cc:Work
         rdf:about="">
        <dc:format>image/svg+xml</dc:format>
        <dc:type
           rdf:resource="http://purl.org/dc/dcmitype/StillImage" />
        <dc:title></dc:title>
      </cc:Work>
    </rdf:RDF>
  </metadata>
  <g
     inkscape:label="Layer 1"
     inkscape:groupmode="layer"
     id="layer1"
     transform="translate(0,-796.36218)">
    <path
       style="fill:#000000;fill-opacity:1;stroke:none"
       id="path2985"
       d="m 34.06349,798.03568 c 1.751774,1.10616 3.5804,2.07531 5.388717,3.07661 2.040526,1.20626 4.145935,2.29537 6.297975,3.26547 2.237043,1.17841 4.548365,2.18315 6.840575,3.23495 2.092666,1.10391 4.280354,1.97522 6.427716,2.94943 2.167141,0.8754 4.25656,1.94857 6.385333,2.9247 2.210435,1.01465 4.447384,1.97756 6.584384,3.15526 2.38252,1.28151 4.769855,2.55251 7.185206,3.76579 3.014298,1.54063 5.977099,3.1872 8.958326,4.79564 3.416234,1.78625 6.785983,3.66507 10.162167,5.53201 3.426921,1.86747 6.871351,3.70151 10.274381,5.61629 3.74391,1.92087 7.35849,4.09234 11.0525,6.11298 3.68823,2.20439 7.44112,4.28508 11.17276,6.40691 3.62874,2.08413 7.33968,4.00784 11.04069,5.94671 3.40496,1.8267 6.76952,3.73457 10.13504,5.63961 2.89592,1.57067 5.73715,3.25217 8.56812,4.94804 2.42363,1.3478 4.85212,2.68334 7.26487,4.05225 1.91745,1.2141 3.8893,2.32809 5.83322,3.49397 1.66171,1.18197 3.38856,2.25951 4.99914,3.51909 1.39554,1.02905 2.8311,1.9947 4.26462,2.96612 1.49834,1.0045 2.85892,2.2085 4.25473,3.35867 1.50694,0.99 2.99198,2.01527 4.49722,3.00841 1.67311,1.01409 3.2395,2.19916 4.86047,3.29903 1.64692,1.14891 3.27848,2.32179 4.92801,3.46655 1.69132,0.99556 3.26697,2.18631 4.92218,3.24012 1.65928,0.9922 3.27229,2.05982 4.85305,3.1835 1.37102,1.07836 2.82891,2.02156 4.27798,2.97729 1.31202,0.9615 2.62873,1.90918 3.9855,2.80005 1.05842,0.71766 2.10738,1.4497 3.11364,2.24685 1.10235,0.70723 2.0671,1.60922 3.09349,2.42376 1.01478,0.68608 1.93877,1.5253 2.96737,2.18671 0.78348,0.55153 1.58034,1.06296 2.36325,1.61747 0.84916,0.56852 1.6533,1.21211 2.52001,1.75255 0.75999,0.57774 1.52495,1.13691 2.2956,1.69574 0.63618,0.48009 1.28113,0.93403 1.95253,1.36034 0.78984,0.37209 1.51152,0.8867 2.1681,1.47474 0.68181,0.58277 1.41955,1.08238 2.09155,1.67832 0.57813,0.55032 1.18696,1.03614 1.84416,1.47861 0.68918,0.50406 1.27385,1.13503 1.90686,1.70778 0.29685,0.32681 0.60874,0.62703 0.90393,0.95552 1.06049,1.20069 -0.55935,2.77285 -1.61984,1.57217 l 0,0 c -0.23659,-0.27565 -0.50802,-0.50922 -0.74049,-0.78867 -0.54736,-0.5095 -1.06513,-1.05037 -1.65506,-1.50759 -0.73339,-0.50551 -1.42831,-1.05162 -2.08122,-1.66535 -0.66331,-0.61872 -1.44386,-1.07917 -2.11049,-1.69564 -0.53618,-0.53 -1.20277,-0.89511 -1.85839,-1.23518 -0.70763,-0.45617 -1.39283,-0.93837 -2.0693,-1.44053 -0.71965,-0.5403 -1.46069,-1.04372 -2.16576,-1.60724 -0.89735,-0.5706 -1.74191,-1.22481 -2.62273,-1.82142 -0.75757,-0.54192 -1.53116,-1.03681 -2.29368,-1.56991 -1.07658,-0.71605 -2.06808,-1.56882 -3.13221,-2.30608 -1.02286,-0.81778 -1.99194,-1.7105 -3.09054,-2.42141 -0.95269,-0.75837 -1.94975,-1.44858 -2.95263,-2.13042 -1.35801,-0.89172 -2.67858,-1.83657 -3.98936,-2.80259 -1.47039,-0.97008 -2.94989,-1.92739 -4.34167,-3.02092 -1.55088,-1.10364 -3.13506,-2.14909 -4.76344,-3.12303 -1.67484,-1.07554 -3.28008,-2.26926 -4.99117,-3.2861 -1.64292,-1.14067 -3.26869,-2.30817 -4.90876,-3.45333 -1.61323,-1.09463 -3.17205,-2.27393 -4.837,-3.28333 -1.56993,-1.03624 -3.12351,-2.09853 -4.6854,-3.14748 -1.34244,-1.10619 -2.64958,-2.26619 -4.08905,-3.23465 -1.47597,-1.00049 -2.95274,-1.99716 -4.38954,-3.05734 -1.53309,-1.20948 -3.19338,-2.22179 -4.77193,-3.3626 -1.92885,-1.15687 -3.88597,-2.26135 -5.78777,-3.46745 -2.42759,-1.3775 -4.87185,-2.71984 -7.30936,-4.07818 -2.81557,-1.68674 -5.64113,-3.35951 -8.52167,-4.92101 -3.34502,-1.89344 -6.68907,-3.78973 -10.07304,-5.60582 -3.7231,-1.9505 -7.456,-3.88615 -11.10648,-5.98265 -3.72096,-2.11637 -7.464,-4.19015 -11.14137,-6.38939 -3.7017,-2.02492 -7.3241,-4.20029 -11.07554,-6.12576 -3.39774,-1.91312 -6.83845,-3.74251 -10.260088,-5.60833 -3.369541,-1.86351 -6.73284,-3.73848 -10.142459,-5.52123 -2.962511,-1.59869 -5.907037,-3.23461 -8.902181,-4.76639 -2.440393,-1.2265 -4.852937,-2.51035 -7.260334,-3.80542 -2.087114,-1.15636 -4.280674,-2.08542 -6.439791,-3.08227 -2.126484,-0.97509 -4.212625,-2.04883 -6.378182,-2.92145 -2.149111,-0.97704 -4.340311,-1.84789 -6.43543,-2.95294 -2.288331,-1.05014 -4.596481,-2.05224 -6.829264,-3.22979 -2.203754,-0.99826 -4.364766,-2.10686 -6.45545,-3.34453 -1.829398,-1.01385 -3.679564,-1.99492 -5.452539,-3.11339 -1.355289,-0.81184 -0.26005,-2.82104 1.095238,-2.0092 z"
       inkscape:connector-curvature="0" />
    <path
       style="fill:#000000;fill-opacity:1;stroke:none"
       id="path2991"
       d="m 34.534916,799.56574 c -0.608053,1.56274 -0.94519,3.20844 -1.361162,4.83086 -0.41329,1.41611 -0.845393,2.82217 -1.21489,4.25327 -0.308345,1.5018 -0.828686,2.94112 -1.222758,4.41798 -0.227415,1.3278 -0.56062,2.61798 -0.979995,3.89216 -0.396607,1.0946 -0.42699,2.26692 -0.612137,3.40655 -0.244529,1.07817 -0.381776,2.17277 -0.45325,3.27682 -0.05769,1.14371 -0.05538,2.28951 -0.05671,3.43447 4.05e-4,1.35904 0.0025,2.71809 0.0036,4.07714 8.8e-4,1.30589 0.0011,2.61178 0.0012,3.91766 5.2e-5,1.17007 2.7e-5,2.34014 1.6e-5,3.51021 0.127233,0.93122 0.511019,1.78683 0.746348,2.69226 0.288179,1.07258 0.443405,2.19638 0.769981,3.25583 0.405167,1.36236 0.770405,2.73474 1.146895,4.10594 0.189439,1.44372 0.716158,2.76542 1.145841,4.13616 0.539492,1.27492 0.751159,2.64675 1.073319,3.98649 0.420376,1.21943 0.868821,2.42175 1.354389,3.61391 0.516554,1.39053 0.952848,2.8115 1.518232,4.18172 0.402095,1.15665 0.944942,2.24871 1.289827,3.42661 0.329901,0.8977 0.772291,1.74068 1.172072,2.60482 0.445574,1.06669 0.81163,2.1626 1.251449,3.23076 0.51952,0.83998 0.940627,1.74472 1.277861,2.67995 0.49595,0.90537 0.97509,1.81834 1.396859,2.76698 0.566659,0.89986 1.132401,1.79843 1.614503,2.75269 0.598339,1.16683 1.266744,2.2895 1.78113,3.50152 0.537854,1.01244 1.180202,1.95123 1.660817,2.99806 0.544815,1.11015 1.113115,2.20934 1.689907,3.30212 0.676978,0.86763 1.12852,1.87951 1.606329,2.87264 0.324183,0.86859 0.782538,1.68443 1.279528,2.45721 0.538994,0.93871 1.100421,1.86205 1.643499,2.79808 0.574678,1.14614 1.227649,2.24483 1.793969,3.397 0.63242,1.20034 1.353637,2.34286 1.902676,3.58978 0.518581,0.91182 1.034131,1.82415 1.541229,2.74403 0.449754,1.01394 0.965493,1.99762 1.550985,2.93247 0.621123,1.01817 1.288148,2.00238 1.904751,3.02513 0.525997,1.03022 1.260821,1.91433 1.859092,2.89832 0.546459,0.94117 1.253391,1.75705 1.950881,2.57419 0.632245,0.86674 1.289006,1.71242 1.936309,2.56799 0.789916,0.81785 1.485506,1.72788 2.156828,2.65247 0.631291,0.66871 1.196449,1.40459 1.842315,2.05771 0.721975,0.58317 1.440901,1.17335 2.161104,1.7622 0.917538,0.63329 1.729907,1.4286 2.677999,2.01184 1.028337,0.75759 2.072333,1.48365 3.142749,2.17422 0.986029,0.76322 2.084876,1.31717 3.157179,1.92288 1.083659,0.63583 2.180466,1.25095 3.297229,1.82109 1.045718,0.60217 2.127365,1.15925 3.225343,1.65268 1.471381,0.69121 3.011216,1.21045 4.527429,1.78309 1.236389,0.41457 2.497446,0.74625 3.731809,1.16737 1.32648,0.37516 2.677968,0.67001 4.029688,0.93258 1.51158,0.29153 3.01313,0.60024 4.54301,0.77441 1.44348,0.0663 2.862,0.35167 4.29524,0.52369 1.31919,0.26366 2.63086,0.54894 3.96783,0.69345 1.22619,0.0748 2.44258,0.10142 3.65986,0.28578 1.35899,0.20142 2.72156,0.30525 4.07606,0.54116 1.26782,0.23681 2.55052,0.34774 3.83581,0.40113 1.30419,0.0408 2.60913,0.0376 3.91375,0.0373 1.44287,-0.0156 2.8672,0.27968 4.30061,0.42025 1.2954,0.11456 2.59563,0.13941 3.89489,0.15236 1.46147,-0.0163 2.90545,0.271 4.35549,0.42887 1.27118,0.11486 2.54758,0.13624 3.8227,0.14985 1.13219,0.007 2.26442,0.004 3.39663,0.003 1.10297,-10e-4 2.20594,-10e-4 3.3089,-0.003 1.15566,-2.2e-4 2.31131,-1.9e-4 3.46697,-1.9e-4 1.22342,0 2.44685,2e-5 3.67027,2e-5 1.13898,10e-6 2.27796,10e-6 3.41693,10e-6 1.18751,0.0454 2.35291,-0.21207 3.4898,-0.54214 1.22486,-0.36712 2.49551,-0.46351 3.74206,-0.71962 1.16363,-0.24446 2.3431,-0.32921 3.50408,-0.58333 1.15079,-0.16157 2.25901,-0.51942 3.39435,-0.76216 1.05572,-0.28038 2.167,-0.13219 3.2267,-0.33735 1.1323,-0.25052 2.28083,-0.38339 3.43411,-0.46293 1.01843,0.0514 1.98882,-0.23763 2.98406,-0.40246 1.12541,-0.38329 2.28959,-0.57378 3.46295,-0.7009 1.15213,-0.2588 2.30887,-0.47044 3.48168,-0.59108 1.09744,-0.25884 2.20142,-0.4604 3.32073,-0.57734 0.88981,-0.22458 1.77858,-0.434 2.65708,-0.70237 1.14112,-0.25408 2.27993,-0.48151 3.41735,-0.75931 0.97918,-0.1215 1.90394,-0.46804 2.86284,-0.68883 0.82583,-0.34545 1.68716,-0.57363 2.53444,-0.85197 1.01042,-0.22651 1.98272,-0.52034 2.92657,-0.95775 1.0351,-0.40844 2.07866,-0.79485 3.15789,-1.05484 1.09521,-0.37054 2.23573,-0.58495 3.30786,-1.0268 0.98877,-0.37236 1.96763,-0.76896 2.96072,-1.12845 0.94669,-0.19814 1.79387,-0.66561 2.67798,-1.04376 0.97109,-0.42675 2.01625,-0.62345 3.00443,-0.98435 0.89134,-0.42833 1.84293,-0.70401 2.74801,-1.09112 0.96216,-0.37782 1.95125,-0.69123 2.94389,-0.97175 0.97175,-0.16253 1.84039,-0.65867 2.75307,-1.01375 0.99077,-0.56039 2.11153,-0.69963 3.16847,-1.03959 0.91604,-0.40966 1.93003,-0.39981 2.87629,-0.65812 0.8486,-0.18403 1.61597,-0.59298 2.44673,-0.8429 0.6152,-0.19774 0.99474,-0.52702 1.37627,-1.05371 0.98224,-1.27174 2.69792,0.18441 1.71568,1.45616 l 0,0 c -0.68082,0.85432 -1.45269,1.51877 -2.49535,1.82554 -0.8607,0.24508 -1.65136,0.70199 -2.53624,0.86712 -0.92016,0.21456 -1.87413,0.26359 -2.76253,0.6266 -1.01851,0.30338 -2.07582,0.46657 -3.02741,0.99079 -0.97699,0.37221 -1.90429,0.90719 -2.94407,1.07723 -0.91333,0.25421 -1.82204,0.54471 -2.70689,0.88992 -0.95131,0.38274 -1.92472,0.70108 -2.85877,1.13325 -0.95428,0.32308 -1.93863,0.54348 -2.87388,0.93396 -0.9226,0.38668 -1.80584,0.88251 -2.79096,1.08794 -0.97046,0.34405 -1.92377,0.73941 -2.88827,1.10097 -1.17732,0.4611 -2.40443,0.74328 -3.60725,1.12171 -0.94253,0.21979 -1.84759,0.57091 -2.75374,0.91475 -1.01922,0.47152 -2.06684,0.81289 -3.15853,1.04922 -0.91081,0.29904 -1.83041,0.55807 -2.72643,0.90519 -0.94805,0.21217 -1.86269,0.56503 -2.83053,0.68123 -1.09785,0.26741 -2.19656,0.496 -3.30004,0.72711 -1.00839,0.30801 -2.02984,0.55833 -3.058,0.78361 -1.12134,0.11456 -2.22037,0.34418 -3.32389,0.57765 -1.16987,0.11789 -2.31807,0.35307 -3.47056,0.58993 -1.13775,0.12063 -2.25309,0.33314 -3.34807,0.68537 -1.05863,0.16955 -2.09737,0.47606 -3.17989,0.42509 -1.08521,0.0735 -2.16486,0.20217 -3.23003,0.43893 -1.04068,0.15872 -2.09984,0.10864 -3.13628,0.32022 -1.13153,0.23825 -2.236,0.59943 -3.38249,0.75959 -1.17044,0.25487 -2.35605,0.35408 -3.53005,0.58883 -1.19199,0.2443 -2.40468,0.34231 -3.57797,0.67907 -1.32842,0.38428 -2.69196,0.66944 -4.07797,0.62579 -1.13898,0 -2.27796,0 -3.41694,0 -1.22342,-10e-6 -2.44684,-10e-6 -3.67026,-3e-5 -1.15548,0 -2.31094,-3e-5 -3.46641,1.9e-4 -1.10228,3e-4 -2.20458,7.8e-4 -3.30685,0.003 -1.14058,10e-4 -2.28117,0.004 -3.42174,-0.003 -1.34395,-0.0145 -2.68926,-0.0381 -4.02886,-0.16217 -1.38107,-0.15113 -2.75662,-0.42597 -4.14788,-0.41654 -1.3613,-0.013 -2.7236,-0.0409 -4.08076,-0.16244 -1.3645,-0.13537 -2.72094,-0.4133 -4.09322,-0.41007 -1.33428,3.1e-4 -2.66889,0.003 -4.0027,-0.0392 -1.37686,-0.0585 -2.75101,-0.17754 -4.10928,-0.43059 -1.33946,-0.2335 -2.68808,-0.32935 -4.03184,-0.53392 -1.18699,-0.18225 -2.37499,-0.18621 -3.57074,-0.27414 -1.34413,-0.14795 -2.66739,-0.4133 -3.99104,-0.69612 -1.42942,-0.17252 -2.8433,-0.45642 -4.28294,-0.52223 -1.585,-0.18219 -3.14194,-0.49743 -4.70797,-0.79992 -1.44743,-0.28427 -2.896319,-0.59542 -4.314502,-1.00911 -1.251287,-0.43641 -2.539054,-0.75322 -3.790933,-1.18872 -1.56059,-0.58969 -3.144775,-1.12564 -4.659155,-1.83793 -1.12375,-0.51777 -2.240045,-1.0768 -3.314153,-1.69563 -1.144202,-0.58752 -2.271232,-1.21395 -3.382345,-1.8671 -1.101727,-0.63447 -2.244358,-1.19434 -3.260222,-1.9854 -1.066139,-0.68797 -2.109688,-1.40636 -3.130359,-2.1663 -1.009031,-0.65552 -1.917326,-1.45693 -2.891589,-2.16633 -0.785785,-0.64351 -1.570704,-1.28413 -2.349916,-1.93568 -0.712546,-0.74307 -1.370644,-1.54131 -2.055548,-2.31205 -0.656241,-0.91592 -1.358154,-1.79535 -2.126488,-2.61141 -0.619946,-0.82042 -1.248935,-1.63268 -1.85295,-2.46414 -0.776348,-0.91369 -1.559344,-1.82913 -2.170004,-2.87866 -0.590457,-0.98883 -1.343329,-1.86168 -1.859461,-2.89892 -0.610599,-1.01303 -1.270862,-1.98842 -1.887218,-2.99651 -0.602713,-0.97278 -1.155397,-1.98567 -1.614838,-3.04149 -0.539973,-0.98457 -1.101979,-1.95266 -1.637115,-2.93923 -0.522814,-1.2197 -1.26428,-2.31239 -1.858136,-3.49342 -0.539189,-1.10547 -1.170779,-2.15461 -1.71784,-3.25422 -0.526989,-0.91459 -1.078754,-1.81254 -1.602178,-2.72939 -0.525917,-0.85667 -1.054986,-1.73302 -1.405274,-2.68579 -0.464147,-0.97037 -0.912596,-1.94081 -1.566474,-2.79344 -0.597673,-1.13565 -1.189929,-2.27591 -1.752705,-3.43058 -0.473815,-1.07286 -1.192084,-1.99444 -1.686301,-3.05656 -0.484802,-1.17145 -1.159887,-2.23675 -1.720281,-3.36828 -0.477278,-0.99674 -1.127356,-1.8806 -1.65754,-2.8446 -0.442488,-1.00674 -0.983914,-1.9502 -1.4635,-2.93458 -0.312851,-0.90528 -0.767388,-1.74278 -1.235281,-2.56871 -0.427425,-1.03809 -0.786874,-2.10091 -1.212027,-3.1404 -0.448076,-0.97462 -0.95245,-1.92304 -1.298722,-2.94584 -0.305463,-1.09696 -0.849226,-2.09888 -1.203749,-3.17875 -0.561063,-1.37438 -1.014579,-2.79039 -1.520554,-4.1874 -0.531505,-1.30535 -1.026323,-2.62217 -1.466638,-3.965 -0.301458,-1.28924 -0.51248,-2.60272 -1.029898,-3.8276 -0.428831,-1.39677 -0.974915,-2.74591 -1.168368,-4.21323 -0.37208,-1.35886 -0.734122,-2.71831 -1.136118,-4.06788 -0.308913,-1.09584 -0.512787,-2.22672 -0.790809,-3.33176 -0.277973,-1.09997 -0.783316,-2.13642 -0.822204,-3.29369 1.1e-5,-1.17001 3.5e-5,-2.34001 -1.8e-5,-3.51002 -9.8e-5,-1.30534 -2.7e-4,-2.61069 -0.0012,-3.91603 -10e-4,-1.3606 -0.0032,-2.72119 -0.0036,-4.08179 0.0014,-1.19694 -5.02e-4,-2.39478 0.06191,-3.59033 0.07861,-1.18532 0.220136,-2.36268 0.481708,-3.52066 0.221995,-1.25447 0.236352,-2.55565 0.699223,-3.75884 0.405583,-1.23199 0.715916,-2.47974 0.941404,-3.76276 0.39477,-1.46949 0.907758,-2.90358 1.217434,-4.39774 0.370035,-1.43014 0.799816,-2.83703 1.214463,-4.2516 0.422921,-1.63153 0.752757,-3.29205 1.3697,-4.86307 0.428826,-1.57334 2.551414,-0.93761 2.122586,0.63573 z"
       inkscape:connector-curvature="0" />
    <path
       style="fill:#000000;fill-opacity:1;stroke:none"
       id="path2995"
       d="m 74.587243,933.46099 c -0.804529,1.45943 -1.517282,2.97378 -2.321384,4.43352 -0.539447,1.1556 -1.2708,2.20183 -1.818049,3.35033 -0.46734,0.81187 -0.954324,1.60835 -1.450861,2.3996 -0.199301,0.34877 -0.362333,0.70765 -0.55799,1.06011 -0.798767,1.40585 -2.695372,0.22168 -1.896603,-1.18417 l 0,0 c 0.22469,-0.38014 0.375829,-0.79693 0.621209,-1.16488 0.463792,-0.7023 0.874066,-1.44267 1.316749,-2.16006 0.579938,-1.1792 1.303493,-2.27473 1.875255,-3.46067 0.80564,-1.4534 1.512136,-2.96682 2.315006,-4.42189 0.77445,-1.42072 2.691118,-0.27261 1.916668,1.14811 z"
       inkscape:connector-curvature="0" />
    <path
       style="fill:#000000;fill-opacity:1;stroke:none"
       id="path2997"
       d="m 85.932871,939.35192 c -0.9919,1.06604 -1.864671,2.23384 -2.761229,3.38491 -0.614418,0.87285 -1.096297,1.8342 -1.75042,2.67734 -0.60761,0.71492 -0.931467,1.60929 -1.334597,2.45112 -0.409105,0.82626 -0.878833,1.61823 -1.325599,2.42373 -0.4228,0.71235 -0.674661,1.49254 -0.981144,2.26001 -0.303463,0.68834 -0.666325,1.34705 -0.999826,2.02183 -0.719447,1.45215 -2.678516,0.38556 -1.959069,-1.06657 l 0,0 c 0.310795,-0.62557 0.649046,-1.23458 0.931467,-1.87074 0.362221,-0.84056 0.634683,-1.72014 1.102204,-2.51134 0.427987,-0.76574 0.876674,-1.51925 1.264501,-2.30639 0.490037,-0.99061 0.877656,-2.04745 1.609264,-2.88694 0.678255,-0.8066 1.068803,-1.83854 1.735219,-2.6581 0.946104,-1.2073 1.863899,-2.43567 2.90828,-3.55516 1.103753,-1.15706 2.664716,0.47926 1.560949,1.6363 z"
       inkscape:connector-curvature="0" />
    <path
       style="fill:#000000;fill-opacity:1;stroke:none"
       id="path2999"
       d="m 115.83592,946.77151 c -0.0311,1.63147 0.074,3.26845 -0.0717,4.89443 -0.1312,1.33142 -0.52105,2.60708 -0.77263,3.91422 -0.12349,1.18992 -0.41328,2.34781 -0.60402,3.52602 -0.0881,1.12667 -0.32417,2.2265 -0.66065,3.29858 -0.36041,0.95512 -0.50433,1.96323 -0.58866,2.97949 -0.0504,0.73644 -0.0577,1.47494 -0.0656,2.21288 -0.0174,1.63622 -2.2248,1.61041 -2.2074,-0.0259 l 0,0 c 0.008,-0.79758 0.0174,-1.59575 0.074,-2.39155 0.10309,-1.19771 0.27897,-2.38733 0.69603,-3.51533 0.31913,-0.95358 0.48629,-1.94376 0.57616,-2.94785 0.1969,-1.20185 0.48752,-2.38309 0.61663,-3.59678 0.23984,-1.23213 0.60215,-2.43471 0.73976,-3.68723 0.16468,-1.54378 0.003,-3.11064 0.0604,-4.66107 0,-1.63633 2.20752,-1.63633 2.20752,0 z"
       inkscape:connector-curvature="0" />
    <path
       style="fill:#000000;fill-opacity:1;stroke:none"
       id="path3001"
       d="m 120.25098,948.50709 c 0,1.61564 0,3.23129 0,4.84695 0,1.27524 0,2.55047 0,3.82572 0,1.15736 0,2.31471 0,3.47208 0.0972,1.12914 -0.16527,2.21685 -0.34912,3.31763 -0.16993,1.04857 -0.12831,2.11426 -0.27565,3.16375 -0.13998,1.00042 -0.43764,1.9485 -0.71883,2.91028 -0.12224,0.53694 -0.0682,0.26382 -0.16112,0.81956 -0.27721,1.6103 -2.44964,1.19934 -2.17243,-0.41096 l 0,0 c 0.12982,-0.73851 0.0547,-0.37502 0.2241,-1.09073 0.25448,-0.86014 0.52837,-1.70054 0.64915,-2.59814 0.1892,-1.0479 0.0524,-2.14637 0.28064,-3.19467 0.1637,-0.97149 0.41196,-1.91884 0.31574,-2.91672 0,-1.15737 0,-2.31472 0,-3.47208 0,-1.27525 0,-2.55048 0,-3.82572 0,-1.61566 0,-3.23131 0,-4.84695 0,-1.63633 2.20752,-1.63633 2.20752,0 z"
       inkscape:connector-curvature="0" />
    <path
       style="fill:#000000;fill-opacity:1;stroke:none"
       id="path3003"
       d="m 104.24642,946.77151 c 0,1.61565 0,3.2313 0,4.84696 0.0336,1.3343 -0.25778,2.64408 -0.40776,3.96328 -0.24258,1.07138 -0.4969,2.13845 -0.79865,3.19321 -0.43113,1.06771 -0.70903,2.18576 -1.09788,3.26889 -0.29415,0.92491 -0.37762,1.89197 -0.62456,2.83115 -0.13741,0.57748 -0.0759,0.2891 -0.18517,0.86502 -0.30885,1.60396 -2.472743,1.1461 -2.163894,-0.45786 l 0,0 c 0.136026,-0.69837 0.06174,-0.35714 0.221404,-1.02402 0.265822,-1.00357 0.330651,-2.04928 0.686179,-3.02945 0.371071,-1.03335 0.629961,-2.10284 1.049441,-3.11848 0.26562,-0.92843 0.47987,-1.86771 0.72127,-2.80359 0.14089,-1.22799 0.41283,-2.44762 0.3921,-3.68815 0,-1.61566 0,-3.23131 0,-4.84696 0,-1.63632 2.20752,-1.63632 2.20752,0 z"
       inkscape:connector-curvature="0" />
    <path
       style="fill:#000000;fill-opacity:1;stroke:none"
       id="path3005"
       d="m 107.4806,946.35662 c -0.22795,1.77262 -0.54712,3.53203 -1.01155,5.25325 -0.27528,1.18401 -0.54932,2.36763 -0.81275,3.55511 -0.15327,1.13864 -0.45218,2.24556 -0.64527,3.37649 -0.16087,1.2236 -0.4715,2.42006 -0.8152,3.59936 -0.29734,1.0754 -0.38838,2.18564 -0.66246,3.26686 -0.12238,0.44429 -0.1906,0.90017 -0.2554,1.35645 -0.23416,1.61779 -2.4167,1.27065 -2.18255,-0.34714 l 0,0 c 0.0794,-0.53983 0.1614,-1.07949 0.30503,-1.60581 0.28265,-1.10562 0.35268,-2.2511 0.6842,-3.34655 0.31845,-1.09246 0.61021,-2.19939 0.75393,-3.33397 0.20259,-1.16929 0.50471,-2.31469 0.66794,-3.49155 0.27295,-1.22239 0.55282,-2.44132 0.83861,-3.66008 0.43897,-1.62115 0.73549,-3.27969 0.95014,-4.94969 0.22076,-1.61986 2.40609,-1.29261 2.18533,0.32727 z"
       inkscape:connector-curvature="0" />
    <path
       style="fill:#ececec;fill-opacity:1;stroke:none"
       d="m 62.267291,935.11231 c -5.619746,4.44225 -4.702375,12.81283 -6.208661,19.29017 -2.674192,17.15807 -11.143821,32.27303 -19.229605,47.16782 -3.999915,8.6074 -8.508112,17.5467 -7.79532,27.4437 0.321571,6.3343 -1.318191,13.2109 1.155501,19.1817 1.50186,2.0259 4.538409,-0.3148 6.583546,0.1664 17.686613,-0.945 35.273329,-3.4263 52.950555,-4.3871 13.449823,0 27.031313,1.4187 40.390853,0.8941 -9.9e-4,-15.7154 2.61044,-31.2141 4.19085,-46.78805 0.56886,-8.46743 0.86912,-17.12225 0.77609,-25.50931 -8.49662,-0.63026 -17.12885,-0.31886 -25.33657,-3.02052 -13.443083,-3.39505 -27.190641,-7.7443 -38.302216,-16.68545 -4.612157,-4.72667 -6.565278,-11.6811 -8.778358,-17.75346 -0.106643,-0.0758 -0.280484,-0.0391 -0.396665,0 z"
       id="path3007"
       inkscape:connector-curvature="0" />
    <rect
       style="fill:#cccccc;fill-opacity:1;stroke:none"
       id="rect3051"
       width="86.093445"
       height="39.918156"
       x="45.747036"
       y="1005.8751"
       ry="0" />
    <path
       style="fill:#ececec;fill-opacity:1;stroke:none"
       d="m 34.224836,801.65406 c -1.786916,6.07358 -3.998404,12.21622 -5.039643,18.45852 0.200796,7.11412 -0.482419,14.3588 0.243361,21.3954 4.339754,17.02371 10.553459,33.54767 19.451424,48.55114 7.552938,13.19602 13.706008,27.79367 24.49392,38.50864 10.111527,8.76384 22.608033,14.5286 35.700412,15.90175 19.26106,2.65902 38.79166,3.97722 58.20256,2.8578 17.29755,-2.84281 34.83728,-5.01147 51.42255,-11.21583 8.74258,-3.03546 17.86023,-6.0564 26.37847,-9.0985 -14.97068,-12.3494 -31.33062,-22.73246 -47.09707,-33.93355 -14.86907,-10.26052 -29.48647,-20.99387 -45.42924,-29.39676 -35.59688,-19.6589 -70.786145,-40.26182 -107.720281,-57.09309 -3.564472,-1.49894 -6.903031,-3.97836 -10.606463,-4.93552 z"
       id="path3009"
       inkscape:connector-curvature="0" />
    <path
       style="fill:#ececec;fill-opacity:1;stroke:none"
       d="m 75.35722,934.02758 c -2.712913,2.71878 -4.692757,6.64712 -5.84649,10.39536 0.01639,3.47943 3.657562,5.76898 5.587795,7.99085 2.022114,-4.80913 5.298796,-9.14984 7.484885,-13.68571 -2.342691,-1.6 -4.768776,-3.3776 -7.22619,-4.7005 z"
       id="path3011"
       inkscape:connector-curvature="0" />
    <path
       style="fill:#ececec;fill-opacity:1;stroke:none"
       d="m 116.85178,948.12911 c -1.71394,1.11457 -0.51693,4.1747 -1.4142,5.87563 -0.42378,4.51078 -2.46326,9.11581 -1.84535,13.61339 1.48269,1.44858 4.53411,0.28768 3.81142,-2.2237 0.22104,-5.63984 1.08829,-11.49094 0.22421,-17.04837 -0.18213,-0.24081 -0.5061,-0.26405 -0.77608,-0.21695 z"
       id="path3013"
       inkscape:connector-curvature="0" />
    <path
       style="fill:#000000;fill-opacity:1;stroke:none"
       id="path3015"
       d="m 131.39008,847.93089 c 0.91583,-1.08796 1.94482,-2.05122 2.89889,-3.10184 0.53131,-0.81352 1.37775,-1.29039 1.9638,-2.04721 0.63202,-0.74823 1.27778,-1.48258 1.95051,-2.19137 0.60456,-0.71922 1.3031,-1.34006 1.90994,-2.05791 0.58439,-0.78231 1.03008,-1.63226 1.63982,-2.40247 0.46475,-0.64012 0.85596,-1.32162 1.23912,-2.01814 0.52054,-0.70413 0.90058,-1.49669 1.41388,-2.2064 0.53551,-0.83017 1.33186,-1.43195 2.1643,-1.89932 1.24637,-0.47142 2.35529,-0.0929 3.44854,0.56507 0.78836,0.54506 1.56095,1.09537 2.38504,1.57879 1.34462,0.96123 1.86935,1.84458 1.16623,3.47795 -0.46975,0.75261 -1.10575,1.38559 -1.73991,1.98668 -0.60149,0.66269 -1.23488,1.28491 -1.94785,1.8147 -0.67354,0.53024 -1.36684,0.96478 -1.98967,1.55628 -0.5283,0.61567 -1.41624,0.83678 -1.91895,1.45474 -0.57111,0.65023 -1.20608,1.21377 -1.8931,1.72812 -0.58542,0.48094 -1.11077,1.03003 -1.66524,1.54819 -0.49131,0.66553 -0.91798,1.34991 -1.52382,1.91573 -0.57461,0.44356 -1.0372,0.94762 -1.44927,1.55563 -0.48574,0.80139 -1.02388,1.56037 -1.56423,2.32204 -0.33973,0.73454 -0.91742,1.3113 -1.27717,2.02934 -0.15274,0.44385 -0.0543,0.18957 -0.31803,0.75282 -0.69877,1.46319 -2.67275,0.42727 -1.97397,-1.03593 l 0,0 c 0.23316,-0.47352 0.10502,-0.19395 0.36597,-0.84765 0.43697,-0.79165 1.01187,-1.48147 1.43514,-2.2842 0.53917,-0.75283 1.0676,-1.50772 1.55049,-2.30252 0.5262,-0.74101 1.10729,-1.41092 1.81503,-1.96479 0.64343,-0.46 0.85051,-1.38687 1.48072,-1.87697 0.62148,-0.56356 1.1936,-1.18566 1.85347,-1.70382 0.60835,-0.43926 1.13876,-0.93557 1.63693,-1.50706 0.60991,-0.57457 1.32947,-0.95609 1.9646,-1.4993 0.69653,-0.66028 1.46245,-1.15815 2.21295,-1.74212 0.65327,-0.45807 1.18385,-1.06632 1.7395,-1.64289 0.46912,-0.42482 0.92622,-0.89702 1.29498,-1.41466 0.0991,0.57005 0.36217,0.12309 -0.3329,-0.30095 -0.83221,-0.48828 -1.61703,-1.03577 -2.40796,-1.59243 -0.43498,-0.26308 -0.82189,-0.51868 -1.33942,-0.51208 -0.57228,0.28058 -1.08412,0.71632 -1.43402,1.26688 -0.47888,0.60164 -0.7491,1.35136 -1.24339,1.94243 -0.44817,0.80424 -0.90796,1.59405 -1.44947,2.33395 -0.62588,0.79009 -1.05597,1.69185 -1.69718,2.47205 -0.6424,0.74064 -1.35466,1.40613 -1.99298,2.14949 -0.63692,0.65746 -1.23347,1.35457 -1.82826,2.05282 -0.64268,0.76982 -1.44955,1.33161 -2.04648,2.14337 -0.96819,1.06259 -2.00683,2.04062 -2.93564,3.14129 -1.10375,1.15703 -2.66471,-0.47927 -1.56094,-1.63633 z"
       inkscape:connector-curvature="0" />
    <path
       style="fill:#000000;fill-opacity:1;stroke:none"
       id="path3017"
       d="m 147.20359,829.83722 c -0.44558,-1.64951 -0.71113,-3.34098 -0.88391,-5.04315 -0.0987,-1.61612 0.31938,-2.59048 1.35054,-3.74994 0.73825,-0.82746 1.60913,-1.34724 2.58959,-1.79033 1.09834,-0.49946 2.28053,-0.66591 3.46285,-0.76424 1.26633,-0.19808 2.34459,0.0995 3.41363,0.79754 0.82285,0.4435 1.59752,0.95721 2.36007,1.50532 0.61604,0.60056 1.35569,1.01818 2.01256,1.56425 0.62907,0.72828 1.25833,1.45412 1.85039,2.21541 0.71441,1.01719 1.13445,2.15696 1.38572,3.38193 0.24939,1.36496 0.27577,2.47743 -0.30035,3.75236 -0.67784,1.13531 -1.81967,1.66575 -3.00109,2.0239 -1.15759,0.28633 -2.35118,0.30982 -3.53434,0.32963 -0.99966,0.0116 -1.99017,-0.0633 -2.97359,0.14187 -1.0215,0.24574 -2.0651,0.33643 -3.10908,0.39149 -1.55903,0.0813 -1.66875,-2.22991 -0.1097,-2.31123 l 0,0 c 0.93995,-0.0484 1.87955,-0.12743 2.79873,-0.35208 1.11393,-0.22181 2.22835,-0.19439 3.35887,-0.18391 0.99404,-0.0162 1.99713,-0.0272 2.9738,-0.24417 0.57391,-0.16015 1.17146,-0.37513 1.61085,-0.80686 0.40955,-0.84715 0.24627,-1.31886 0.12514,-2.26713 -0.16708,-0.87056 -0.4523,-1.66746 -0.9418,-2.40117 -0.49039,-0.6435 -1.04119,-1.2333 -1.52851,-1.87653 -0.58895,-0.5306 -1.32086,-0.86401 -1.86819,-1.45084 -0.74141,-0.53545 -1.49809,-1.02645 -2.29845,-1.4625 -0.72027,-0.50452 -1.15266,-0.56264 -2.05311,-0.44022 -0.94049,0.0753 -1.88493,0.18814 -2.76069,0.58225 -0.70663,0.31916 -1.31942,0.62634 -1.84943,1.24406 -0.54349,0.60982 -0.85378,1.01091 -0.76914,1.92775 0.15726,1.56975 0.40169,3.12941 0.81119,4.65076 0.42883,1.57335 -1.69375,2.20908 -2.12258,0.63573 z"
       inkscape:connector-curvature="0" />
    <path
       style="fill:#000000;fill-opacity:1;stroke:none"
       id="path3019"
       d="m 146.27916,831.16082 c -1.54124,0 -3.08249,0 -4.62373,0 -1.29255,0.0797 -2.55673,-0.0579 -3.82878,-0.27734 -1.04695,-0.18904 -2.108,-0.24769 -3.16797,-0.28266 -1.24788,-0.0436 -2.47799,-0.31066 -3.71971,-0.44795 -1.0247,-0.23817 -2.03458,-0.50761 -3.07939,-0.62966 -1.10923,-0.0202 -2.19349,-0.18289 -3.28418,-0.38191 -1.08568,-0.21382 -2.19307,-0.19821 -3.28346,-0.35938 -1.13483,-0.22258 -2.27468,-0.37296 -3.39954,-0.64734 -1.00545,-0.27593 -2.01538,-0.59756 -2.99136,-0.97747 -0.81439,-0.35973 -1.68512,-0.50007 -2.52359,-0.78488 -0.74162,-0.50097 -1.57559,-0.70293 -2.39437,-0.99752 -0.81787,-0.37711 -1.71306,-0.41772 -2.57209,-0.62163 -0.86139,-0.29064 -1.75292,-0.41022 -2.65122,-0.47912 -1.12723,0.0175 -2.22529,-0.24714 -3.33338,-0.42204 -0.93613,-0.29175 -1.863684,-0.56429 -2.834595,-0.68801 -1.03534,-0.0194 -2.038941,-0.17263 -3.050053,-0.39447 -0.933562,-0.1988 -1.887052,-0.23934 -2.836381,-0.27001 -1.158287,-0.15665 -2.308843,-0.34962 -3.425702,-0.71031 -0.870193,-0.3004 -1.782421,-0.3782 -2.690901,-0.43051 -1.099769,-0.0228 -2.18369,-0.006 -3.266867,-0.22513 -0.918113,-0.22568 -1.857146,-0.30307 -2.796235,-0.35099 -1.082392,0.0389 -2.130432,-0.0997 -3.187484,-0.32421 -0.978619,-0.1319 -1.934793,-0.3926 -2.847885,-0.78242 -0.725544,-0.40035 -1.520749,-0.52146 -2.325261,-0.60034 -1.55377,-0.15682 -1.342209,-2.46026 0.211562,-2.30344 l 0,0 c 1.028597,0.10619 2.050774,0.2811 2.983504,0.77689 0.75391,0.37573 1.602339,0.49658 2.41656,0.64132 0.950307,0.2019 1.881993,0.32382 2.857632,0.28091 1.045787,0.0546 2.091436,0.14433 3.114441,0.39185 0.979607,0.20723 1.967373,0.13898 2.963229,0.18507 1.087835,0.0647 2.178026,0.17241 3.219885,0.53021 0.92827,0.3022 1.882243,0.44963 2.842224,0.60812 1.07823,0.0355 2.160331,0.0888 3.219955,0.31798 0.953518,0.20923 1.892414,0.34317 2.870422,0.3631 0.986883,0.13118 1.94993,0.356 2.8917,0.69626 1.05399,0.16743 2.09494,0.42447 3.16755,0.40247 1.0157,0.0805 2.02688,0.21419 3.00242,0.53662 0.92307,0.25577 1.91598,0.24673 2.79628,0.69136 0.78442,0.30971 1.63927,0.44461 2.33625,0.97682 0.87455,0.29776 1.78835,0.43573 2.63519,0.82634 0.86605,0.37096 1.80154,0.61793 2.69955,0.88347 1.06701,0.26103 2.14936,0.39709 3.22564,0.61248 1.10195,0.18845 2.23748,0.11717 3.33498,0.36814 1.04907,0.19146 2.08671,0.34347 3.15446,0.36238 1.03782,0.12526 2.05259,0.35114 3.06302,0.62778 1.18787,0.13248 2.36527,0.38456 3.55727,0.43625 1.15657,0.0389 2.31403,0.10633 3.45638,0.3122 1.15487,0.19927 2.29522,0.32874 3.4703,0.24662 1.54124,0 3.08249,0 4.62373,0 1.56096,0 1.56096,2.3141 0,2.3141 z"
       inkscape:connector-curvature="0" />
    <path
       style="fill:#000000;fill-opacity:1;stroke:none"
       id="path3021"
       d="m 81.832745,820.9303 c 1.321339,0.5806 2.668712,1.05858 4.076807,1.33839 1.038648,0.16084 1.918021,0.77749 2.90037,1.1047 0.932956,0.27303 1.855258,0.5499 2.815694,0.69759 1.16245,0.22526 2.284711,0.60558 3.423387,0.92737 1.024467,0.17873 2.030714,0.39983 3.039786,0.65852 0.950472,0.23716 1.931001,0.20808 2.890501,0.37045 0.90352,0.24924 1.82423,0.37809 2.75409,0.44754 1.12778,-0.0182 2.2261,0.24794 3.33453,0.42366 1.03516,0.0449 2.02119,0.36956 3.03035,0.57663 0.96004,0.17092 1.93597,0.19103 2.90718,0.21017 1.16309,-0.0709 2.29869,0.19193 3.44157,0.36869 1.05159,0.15366 2.11382,0.18563 3.17384,0.20702 0.98829,0.14769 1.95644,0.38449 2.95108,0.48997 1.01055,-0.013 1.97835,0.27786 2.96315,0.46595 0.95277,0.0602 1.8569,0.37925 2.7867,0.57381 0.8988,0.15491 1.74905,0.4918 2.65039,0.64299 0.91945,0.28308 1.84724,0.51351 2.7468,0.86064 0.84506,0.2209 1.67869,0.47122 2.51826,0.71823 0.89125,0.23096 1.8127,0.26276 2.72583,0.29274 1.08576,0.0241 2.17184,0.0188 3.25776,0.0172 0.73689,-10e-4 0.36839,-6.8e-4 1.10546,-10e-4 1.56097,-0.003 1.56449,2.31146 0.004,2.31409 l 0,0 c -0.73701,10e-4 -0.36844,5.9e-4 -1.10571,10e-4 -1.11034,10e-4 -2.22088,0.007 -3.33102,-0.0184 -1.09247,-0.0367 -2.19308,-0.0877 -3.25616,-0.37877 -0.8944,-0.26645 -1.78371,-0.52111 -2.6811,-0.7737 -0.76863,-0.29709 -1.56177,-0.48042 -2.34081,-0.74845 -0.92813,-0.16248 -1.80906,-0.48358 -2.73074,-0.65841 -0.91775,-0.19654 -1.80688,-0.50641 -2.74791,-0.56598 -0.92917,-0.18006 -1.83536,-0.45826 -2.7899,-0.43998 -0.93294,-0.10171 -1.85071,-0.27772 -2.76841,-0.4783 -1.15379,-0.0236 -2.30974,-0.0618 -3.45402,-0.23149 -1.05098,-0.16331 -2.09057,-0.41641 -3.16049,-0.3442 -1.10083,-0.0221 -2.20662,-0.051 -3.29348,-0.25371 -0.9778,-0.20438 -1.92939,-0.5183 -2.93333,-0.55887 -1.05234,-0.16789 -2.09154,-0.42619 -3.16264,-0.4035 -1.00382,-0.0771 -2.00161,-0.2073 -2.97727,-0.4765 -0.995722,-0.21123 -2.047641,-0.0899 -3.033519,-0.40197 -1.026685,-0.26428 -2.050049,-0.4772 -3.091054,-0.67237 -1.056095,-0.3007 -2.096452,-0.65197 -3.1726,-0.87237 -1.083687,-0.17204 -2.128688,-0.47462 -3.180939,-0.7886 -0.891417,-0.31548 -1.696588,-0.83046 -2.625478,-1.02984 -1.469011,-0.29893 -2.893506,-0.75809 -4.266954,-1.38591 -1.500894,-0.44954 -0.894436,-2.67459 0.606452,-2.22506 z"
       inkscape:connector-curvature="0" />
    <path
       style="fill:#000000;fill-opacity:1;stroke:none"
       id="path3023"
       d="m 155.68016,834.66058 c 0.66412,1.27998 1.3232,2.56829 2.05027,3.81035 0.45907,0.93417 0.97911,1.83286 1.45487,2.75808 0.48756,0.71228 0.93541,1.45047 1.42152,2.16312 0.4259,0.73785 1.01573,1.33583 1.46088,2.05979 0.52003,0.65512 1.09482,1.25249 1.63975,1.89007 0.60293,0.78057 1.22954,1.54046 1.78853,2.3582 0.58811,0.78498 1.14831,1.58608 1.83784,2.27876 0.66334,0.66916 1.06216,1.56649 1.68574,2.26734 0.57901,0.78932 1.15932,1.5385 1.83636,2.23246 0.71904,0.51462 1.15074,1.32199 1.72341,1.98419 0.64998,0.44601 1.07133,1.15397 1.60476,1.72881 0.52324,0.65633 1.10829,1.25006 1.63889,1.90087 0.5173,0.72597 1.00476,1.48902 1.61292,2.13661 0.51887,0.597 1.03207,1.21073 1.60589,1.75177 0.55208,0.64243 1.1677,1.21185 1.78883,1.77948 0.84988,0.66552 1.76707,1.22316 2.6025,1.90919 0.69583,0.49012 1.39164,0.99344 2.1257,1.42248 0.81507,0.50237 1.51402,1.16063 2.23879,1.78741 0.68118,0.43533 1.30455,0.96031 1.94152,1.46331 0.85586,0.5001 1.53781,1.18612 2.18406,1.9434 0.57207,0.69828 1.05676,1.45515 1.51754,2.23756 0.49997,0.60305 0.92187,1.26012 1.37561,1.89984 0.4843,0.65514 0.86027,1.39056 1.3622,2.03163 0.5977,0.62432 0.91533,1.5398 1.54611,2.11865 0.64622,0.64567 1.08326,1.45445 1.57521,2.22068 0.397,0.73919 0.97243,1.33403 1.40466,2.04886 0.47693,0.64296 0.87505,1.33895 1.3206,2.00392 0.60724,0.57521 1.11095,1.2965 1.51476,2.04041 0.28909,0.40476 0.62441,0.7563 0.91384,1.16939 0.90373,1.33419 -0.89621,2.67394 -1.79992,1.33975 l 0,0 c -0.31444,-0.49837 -0.79073,-0.85793 -1.05094,-1.3992 -0.33736,-0.70586 -0.90162,-1.26616 -1.40083,-1.84546 -0.45308,-0.70793 -0.89543,-1.41723 -1.38172,-2.1031 -0.38171,-0.71097 -1.02477,-1.23939 -1.36562,-1.98424 -0.39753,-0.6446 -0.76055,-1.31353 -1.29112,-1.8548 -0.64203,-0.7087 -1.09938,-1.56008 -1.70488,-2.30411 -0.51529,-0.68027 -0.92345,-1.43319 -1.42796,-2.12174 -0.47676,-0.69767 -0.96069,-1.37877 -1.47244,-2.05173 -0.38735,-0.66993 -0.79361,-1.31232 -1.28243,-1.90585 -0.54893,-0.64662 -1.12619,-1.21494 -1.86517,-1.63567 -0.66617,-0.52628 -1.31924,-1.06588 -2.02556,-1.53312 -0.61929,-0.54424 -1.21756,-1.10992 -1.9125,-1.5512 -0.83081,-0.49719 -1.63033,-1.05577 -2.41479,-1.62692 -0.8466,-0.72491 -1.83221,-1.24606 -2.67785,-1.97503 -0.63684,-0.58199 -1.26946,-1.16799 -1.83691,-1.82474 -0.59693,-0.58842 -1.16186,-1.21522 -1.70669,-1.85595 -0.61798,-0.695 -1.17408,-1.45031 -1.69232,-2.22895 -0.5059,-0.62193 -1.06498,-1.18879 -1.56525,-1.8149 -0.54194,-0.61273 -1.00393,-1.29835 -1.65927,-1.79161 -0.52214,-0.63656 -0.94347,-1.36501 -1.60831,-1.8567 -0.71289,-0.73342 -1.33999,-1.51281 -1.94193,-2.34862 -0.56656,-0.68679 -1.0092,-1.46918 -1.57953,-2.15051 -0.77057,-0.80175 -1.43796,-1.68849 -2.09404,-2.59332 -0.50429,-0.75462 -1.09183,-1.44103 -1.63832,-2.16025 -0.62291,-0.73927 -1.31346,-1.40773 -1.86605,-2.20819 -0.38375,-0.70759 -1.03586,-1.22238 -1.39442,-1.95397 -0.52272,-0.79674 -1.0471,-1.58835 -1.55757,-2.39538 -0.45156,-0.89072 -0.95898,-1.74986 -1.39526,-2.64869 -0.77199,-1.34115 -1.5005,-2.71257 -2.19299,-4.10086 -0.6149,-1.504 1.41415,-2.41557 2.02903,-0.91157 z"
       inkscape:connector-curvature="0" />
    <path
       style="fill:#000000;fill-opacity:1;stroke:none"
       id="path3025"
       d="m 152.33876,836.71945 c 0.89856,1.10686 1.56522,2.38988 2.41768,3.53189 0.63464,0.91508 1.22769,1.8504 1.88339,2.74801 0.48228,0.85736 1.11771,1.59808 1.60097,2.45231 0.45914,0.65265 0.85204,1.34933 1.29441,2.01307 0.37292,0.75056 0.78463,1.4621 1.2403,2.15902 0.54818,0.56064 0.85698,1.31285 1.35228,1.91695 0.53956,0.66512 1.02702,1.36473 1.48162,2.09815 0.5247,0.584 0.8082,1.34686 1.29637,1.95842 0.54059,0.72058 0.9602,1.5335 1.53647,2.22412 0.52489,0.71612 1.12607,1.36237 1.7122,2.02237 0.60628,0.61777 1.22982,1.21876 1.81308,1.86099 0.6242,0.39328 1.06464,1.03977 1.65981,1.46597 0.77468,0.55307 1.35745,1.28984 1.96568,2.02297 0.62426,0.75974 1.27502,1.49487 1.90084,2.25314 0.54892,0.60697 1.12765,1.18335 1.67121,1.79579 0.55393,0.57304 1.12038,1.135 1.65259,1.73111 0.47556,0.55054 1.01863,0.98313 1.61079,1.38642 0.66696,0.51252 1.24589,1.1367 1.94029,1.60992 0.75416,0.54199 1.42118,1.19346 2.12066,1.80569 0.59843,0.60136 1.24846,1.09963 1.84129,1.71295 0.52083,0.60094 1.00436,1.24499 1.57067,1.80053 0.47058,0.62033 1.04543,1.09291 1.63941,1.56621 0.73429,0.64871 1.22991,1.50021 1.80297,2.2896 0.45641,0.68047 0.94632,1.35466 1.52208,1.93069 0.55949,0.64286 1.16466,1.23451 1.71123,1.89107 0.54089,0.82783 1.19849,1.55678 1.70359,2.40905 0.0649,0.0945 0.12996,0.18904 0.19487,0.28357 0.90098,1.33621 -0.9017,2.6719 -1.80268,1.33569 l 0,0 c -0.0947,-0.14216 -0.18927,-0.28433 -0.28389,-0.42649 -0.40645,-0.75434 -1.04736,-1.33993 -1.47641,-2.0818 -0.50939,-0.61422 -1.07638,-1.16478 -1.59878,-1.76552 -0.63739,-0.67429 -1.22607,-1.40589 -1.73736,-2.18967 -0.44384,-0.62898 -0.83404,-1.29829 -1.37962,-1.84042 -0.65403,-0.53337 -1.3052,-1.05436 -1.8295,-1.738 -0.55947,-0.57763 -1.07961,-1.19744 -1.5908,-1.82117 -0.54636,-0.56991 -1.15415,-1.02853 -1.71132,-1.58825 -0.6317,-0.56377 -1.24136,-1.15081 -1.92345,-1.65006 -0.68218,-0.48681 -1.29259,-1.05906 -1.93102,-1.60345 -0.73116,-0.51308 -1.42074,-1.06669 -2.01667,-1.74872 -0.5211,-0.60847 -1.1106,-1.15125 -1.65611,-1.73514 -0.54806,-0.64139 -1.16563,-1.21575 -1.71927,-1.85258 -0.61752,-0.76272 -1.27687,-1.48866 -1.89728,-2.24881 -0.50051,-0.61223 -0.96231,-1.23242 -1.61646,-1.68142 -0.67499,-0.55082 -1.24476,-1.21803 -1.94762,-1.73593 -0.57401,-0.65717 -1.22504,-1.23845 -1.82267,-1.87178 -0.60465,-0.68942 -1.23194,-1.35848 -1.7786,-2.10106 -0.57433,-0.72755 -1.05315,-1.52379 -1.58416,-2.28538 -0.50535,-0.69312 -0.87974,-1.47128 -1.41854,-2.13794 -0.40456,-0.66727 -0.84384,-1.29209 -1.33712,-1.8894 -0.51115,-0.67655 -0.90086,-1.43847 -1.46321,-2.07264 -0.45488,-0.70009 -0.8837,-1.40836 -1.24495,-2.16618 -0.45843,-0.72205 -0.90685,-1.44604 -1.3812,-2.15863 -0.40362,-0.78224 -1.04407,-1.40791 -1.44043,-2.19948 -0.65264,-0.89566 -1.24918,-1.82298 -1.87628,-2.7383 -0.87303,-1.19429 -1.59122,-2.50306 -2.50812,-3.66383 -0.86587,-1.36149 0.97091,-2.64511 1.83677,-1.28362 z"
       inkscape:connector-curvature="0" />
    <path
       style="fill:#ececec;fill-opacity:1;stroke:none"
       d="m 153.43115,820.85382 c -3.07861,-0.0848 -5.63317,2.88119 -4.54469,6.08687 -0.57516,4.14172 3.92629,5.62188 7.02757,4.91457 2.14763,-0.48687 5.79536,0.31401 6.89908,-2.17895 -0.71188,-4.37991 -4.82505,-7.90077 -8.81285,-8.85866 -0.1898,0.0101 -0.38219,-0.0227 -0.56911,0.0361 z"
       id="path3029"
       inkscape:connector-curvature="0" />
    <path
       style="fill:#ececec;fill-opacity:1;stroke:none"
       d="m 147.53292,832.27967 c -3.8573,4.44902 -6.96999,9.73186 -11.27907,13.79418 -0.73852,1.13413 -4.29627,3.67901 -1.75913,4.77283 2.24737,0.1571 2.68081,-3.4034 4.43229,-4.44741 3.37289,-4.37846 8.46938,-7.1685 11.83096,-11.51625 0.21939,-1.52769 -2.12449,-2.38107 -3.22505,-2.60335 z"
       id="path3031"
       inkscape:connector-curvature="0" />
    <path
       style="fill:#ececec;fill-opacity:1;stroke:none"
       d="m 176.36869,867.28037 c -0.84789,1.36953 2.05365,2.61693 2.72267,3.71182 6.68079,5.40415 12.1158,12.07274 17.90389,18.39865 1.59704,0.19646 -0.56758,-2.26802 -0.82782,-2.85646 -3.53564,-5.49073 -7.2425,-10.94208 -12.95567,-14.12594 -2.46223,-1.39533 -4.35031,-4.03126 -6.84307,-5.12807 z"
       id="path3033"
       inkscape:connector-curvature="0" />
    <path
       style="fill:#ececec;fill-opacity:1;stroke:none"
       d="m 87.722804,821.93855 c -1.005503,1.23207 2.050063,1.53777 2.792513,1.88463 7.494792,1.79565 15.254213,3.53768 22.956193,3.6475 0.5303,-1.50008 -2.56339,-1.31041 -3.43201,-1.93443 -7.30766,-1.76739 -14.857737,-2.97853 -22.316696,-3.5977 z"
       id="path3035"
       inkscape:connector-curvature="0" />
    <path
       style="fill:#000000;fill-opacity:1;stroke:none"
       id="path3037"
       d="m 114.18028,1028.922 c 0,1.6156 0,3.2312 0,4.8468 0,1.2753 0,2.5505 0,3.8258 0.0492,0.4865 0.25281,0.8898 0.70616,1.0439 0.81704,0.2206 1.67092,0.2141 2.50897,0.2273 1.09922,0 2.19845,0 3.29766,-0.014 0.32675,-0.097 2.0972,0.2807 2.14467,-0.2361 0.14116,-0.5215 0.039,-0.9847 -0.0467,-1.5094 -0.19567,-1.0978 -0.26164,-2.2128 -0.30354,-3.3267 -0.17111,-0.4356 -0.0251,-1.4855 -0.55863,-1.6439 -0.6966,-0.2157 -1.42944,-0.225 -2.14962,-0.2456 -1.12175,0 -2.22684,0.036 -3.33293,-0.1803 -0.91421,-0.235 -1.82475,-0.5613 -2.70358,-0.9215 -1.44607,-0.616 -0.61487,-2.7598 0.8312,-2.1438 l 0,0 c 0.72807,0.3326 1.52338,0.5698 2.28473,0.7919 0.98725,0.2021 1.98041,0.1213 2.98316,0.1401 1.20716,0.036 2.44947,0.068 3.49764,0.7788 0.98308,0.9657 1.1964,1.9728 1.35387,3.3336 0.0375,1.0149 0.0947,2.0309 0.27431,3.0311 0.21414,1.3404 0.2114,2.6119 -0.72222,3.6779 -1.25112,0.9338 -2.09131,0.7764 -3.54319,0.7676 -1.11352,0 -2.22706,0.014 -3.34059,0.014 -1.1598,-0.019 -2.34662,-0.022 -3.44528,-0.4625 -1.17778,-0.6647 -1.86506,-1.6917 -1.94359,-3.1224 0,-1.2753 0,-2.5505 0,-3.8258 0,-1.6157 0,-3.2314 0,-4.847 0,-1.6362 2.20752,-1.6362 2.20752,0 z"
       inkscape:connector-curvature="0" />
    <path
       style="fill:#000000;fill-opacity:1;stroke:none"
       id="path3039"
       d="m 49.05832,1010.9876 c -0.06848,1.6464 -0.376903,3.2473 -0.730267,4.8462 -0.161898,1.1105 -0.38089,2.1968 -0.640521,3.2861 -0.14571,0.9989 -0.412347,1.9705 -0.737723,2.9205 -0.387088,1.0597 -0.791555,2.1122 -1.243424,3.1437 -0.306798,0.987 -0.832233,1.8693 -1.227277,2.814 -0.302103,0.8795 -0.655367,1.7406 -1.042921,2.583 -0.303278,0.8828 -0.824863,1.6494 -1.340832,2.4067 -0.598179,0.8572 -0.214244,1.1801 -0.340367,0.519 0.734414,0.1213 1.479107,0.1415 2.222239,0.1538 0.710254,0.074 1.109656,-0.071 1.422852,-0.7245 0.514373,-0.6891 0.705337,-1.4753 0.814789,-2.3229 0.252606,-0.9455 0.456486,-1.8919 0.552586,-2.869 0.0999,-1.1132 0.03145,-2.2317 0.164644,-3.3407 0.196702,-1.0195 0.327621,-2.0414 0.61477,-3.0384 0.213476,-0.9847 0.438467,-1.9658 0.65365,-2.9511 0.261572,-1.1583 0.503017,-2.3274 0.797689,-3.4778 0.266754,-1.0323 0.760018,-1.9622 0.981064,-3.0098 0.157003,-0.9509 0.462859,-1.8576 0.601288,-2.814 0.116704,-1.1488 0.386666,-2.2734 0.758251,-3.3586 0.232176,-0.9249 0.486843,-1.8393 0.737595,-2.7599 0.03444,-0.3416 0.241282,-0.7293 0.131037,-1.0787 -0.01089,-0.035 -0.06268,0.068 -0.0926,0.049 -0.08393,-0.052 -0.133725,-0.148 -0.200579,-0.2219 -0.20746,-0.3251 -1.070434,-0.2151 -0.529878,-0.2037 -0.457712,0.3916 -0.509232,1.0117 -0.586445,1.5884 -0.246063,0.9899 -0.443612,1.9856 -0.765973,2.9519 -0.263755,0.9074 -0.346887,1.846 -0.58773,2.7611 -0.150498,0.9182 -0.514256,1.7709 -0.719837,2.6737 -0.23737,0.6948 -0.121651,0.3688 -0.344617,0.9787 -0.558875,1.5277 -2.620059,0.6992 -2.061185,-0.8286 l 0,0 c 0.185341,-0.5065 0.09756,-0.2735 0.261505,-0.6999 0.219747,-0.9252 0.573988,-1.8012 0.736697,-2.7417 0.255304,-0.962 0.315312,-1.9612 0.631767,-2.9085 0.277411,-0.8288 0.434823,-1.6833 0.666028,-2.5282 0.173175,-1.1679 0.4705,-2.2971 1.399539,-3.06133 0.219401,-0.14159 0.41754,-0.32824 0.658204,-0.4246 1.020192,-0.40828 2.102707,0.18463 2.85738,0.86553 0.979598,1.1153 1.051981,2.0503 0.668242,3.4679 -0.267244,0.9685 -0.526618,1.9315 -0.781859,2.9033 -0.325449,0.9465 -0.558495,1.9269 -0.654147,2.9307 -0.152325,1.0101 -0.454467,1.9729 -0.630799,2.9751 -0.24085,1.077 -0.685595,2.0561 -1.003342,3.1029 -0.297017,1.1165 -0.518214,2.2603 -0.775836,3.3867 -0.228002,1.0366 -0.460817,2.0693 -0.6925,3.1041 -0.256238,0.882 -0.356289,1.7893 -0.541516,2.6906 -0.172988,1.0706 -0.0013,2.1821 -0.155099,3.2596 -0.102302,1.0019 -0.274441,1.9879 -0.56229,2.9512 -0.161072,1.1538 -0.445403,2.2636 -1.122507,3.2147 -0.795403,1.2573 -1.854156,1.9505 -3.336746,1.8219 -1.18134,-0.02 -2.406904,0 -3.479886,-0.5925 -0.189378,-0.1809 -0.420191,-0.3233 -0.568132,-0.5426 -0.710618,-1.0534 -0.188125,-2.2611 0.407069,-3.1986 0.445701,-0.651 0.897495,-1.2991 1.14762,-2.0652 0.378343,-0.8219 0.720715,-1.661 1.015164,-2.5203 0.40882,-0.9485 0.918956,-1.8449 1.237151,-2.8368 0.42759,-0.9761 0.811854,-1.9708 1.176757,-2.9743 0.313237,-0.8703 0.526257,-1.7693 0.669039,-2.6861 0.257604,-1.0768 0.467339,-2.1484 0.631405,-3.2466 0.31574,-1.4283 0.601316,-2.853 0.673299,-4.3237 0,-1.6364 2.207526,-1.6364 2.207526,0 z"
       inkscape:connector-curvature="0" />
    <path
       style="fill:#000000;fill-opacity:1;stroke:none"
       id="path2993"
       d="m 64.60055,931.41202 c 0.366485,1.63449 0.743628,3.26536 1.110652,4.90005 0.144064,1.15678 0.650194,2.19484 1.027906,3.27577 0.394684,1.08917 0.79322,2.16041 1.270192,3.21285 0.437851,1.0347 0.9205,2.04589 1.3419,3.08991 0.433934,0.86059 0.920005,1.68436 1.419624,2.50313 0.570318,0.66057 1.106265,1.35828 1.719072,1.97697 0.565027,0.80866 1.326271,1.37729 2.061537,1.99448 0.799247,0.58745 1.593125,1.18486 2.433722,1.70662 0.842558,0.59084 1.683308,1.22068 2.605106,1.67072 0.800775,0.53233 1.644522,0.95918 2.504131,1.37114 1.258136,0.51816 2.468807,1.17234 3.68094,1.80391 1.318045,0.65958 2.683693,1.20552 4.05229,1.73777 1.347593,0.47733 2.67512,1.02054 4.002068,1.55858 1.310397,0.55347 2.654917,0.99987 4.009319,1.41743 1.32149,0.28753 2.610361,0.67088 3.882461,1.14105 1.17124,0.34264 2.33048,0.70533 3.46811,1.15745 1.01772,0.3325 2.05646,0.60418 3.09473,0.86211 1.02827,0.14513 2.03368,0.35297 3.04282,0.60469 0.94439,0.3784 1.9104,0.63306 2.91188,0.7646 1.10631,0.1111 2.18545,0.39935 3.28869,0.54484 1.23627,0.0589 2.45427,0.22203 3.67653,0.42028 1.32211,0.12613 2.61701,0.43217 3.92674,0.64759 1.09969,0.17139 2.21178,0.20744 3.32153,0.22902 1.09643,0.0145 2.19299,0.009 3.28946,0.007 0.98832,-0.004 1.96747,0.0613 2.93876,-0.14596 1.65682,-0.23959 2.31545,0.74979 2.59707,2.29826 0.12831,1.16253 0.10364,2.33615 0.0987,3.50434 -0.01,1.39046 -0.0124,2.78091 -0.015,4.17144 -0.003,1.57791 -0.003,3.15582 -0.003,4.73374 -3e-5,1.56476 5e-5,3.12967 8e-5,4.69458 0.0295,1.5181 0.011,3.02363 -0.16541,4.53147 -0.20161,1.43084 -0.29567,2.8741 -0.35164,4.31809 -0.016,1.26369 -0.30242,2.49966 -0.44671,3.75096 -0.25155,1.1423 -0.48227,2.2826 -0.59768,3.4495 -0.0209,1.2268 -0.16263,2.4275 -0.36541,3.6343 -0.23104,1.3008 -0.19929,2.6269 -0.33746,3.9377 -0.15292,1.4882 -0.53369,2.9317 -0.78666,4.4016 -0.19136,1.1715 -0.23344,2.3602 -0.25735,3.546 -0.14572,1.1886 -0.35944,2.3633 -0.46359,3.5578 -0.2204,1.1543 -0.441,2.3031 -0.55112,3.4758 -0.0868,1.1181 -0.0908,2.2407 -0.0959,3.3618 -0.003,1.1546 8.3e-4,2.3094 0.003,3.464 0.0757,1.1681 -0.0503,2.2987 -0.27003,3.4397 -0.18906,0.982 -0.23159,1.9842 -0.26242,2.9825 -0.0252,1.1364 -0.0219,2.2732 -0.0212,3.4098 -0.11853,1.8668 -1.07732,2.5333 -2.71454,2.8755 -1.24343,0.1728 -2.5012,0.1529 -3.75273,0.1478 -1.23334,-0.014 -2.46671,-0.016 -3.70008,-0.019 -1.22589,0 -2.45177,0 -3.67767,0 -1.22651,-10e-5 -2.45303,0 -3.67954,0 -1.17299,0.019 -2.32211,-0.2798 -3.48222,-0.4276 -1.05816,-0.1199 -2.12331,-0.1372 -3.18653,-0.1498 -1.23219,-0.014 -2.4644,0 -3.6966,0 -1.18232,-0.022 -2.36806,0.069 -3.54381,-0.077 -1.080948,-0.2217 -2.171911,-0.3599 -3.270179,-0.4364 -1.223557,-0.065 -2.449334,-0.064 -3.674159,-0.067 -1.153505,-7e-4 -2.306997,0 -3.460502,0 -1.215826,10e-4 -2.431652,0 -3.647492,0 -1.111567,-0.092 -2.189189,0.1714 -3.281462,0.3366 -1.169423,0.1691 -2.350037,0.2097 -3.528721,0.2341 -1.062643,0.2251 -2.154468,0.2938 -3.212923,0.5306 -1.240788,0.3368 -2.516116,0.4784 -3.791426,0.5692 -1.168359,0.068 -2.338937,0.069 -3.508708,0.071 -0.913262,0.187 -1.824518,0.3624 -2.750722,0.4635 -1.1018,0.1 -2.208506,0.1054 -3.313545,0.1127 -1.106472,0 -2.212952,5e-4 -3.319426,-8e-4 -1.066182,-0.087 -2.101842,0.1699 -3.148737,0.3342 -1.094311,0.1466 -2.188705,0.1688 -3.273707,0.3804 -1.118321,0.1546 -2.194841,0.5045 -3.299398,0.7333 -1.178103,0.2231 -2.376502,0.2601 -3.570294,0.2826 -1.252112,0.014 -2.504333,0.014 -3.756492,0 -1.125211,0 -2.250425,0 -3.375639,0 -1.065015,-0.085 -2.099343,0.1709 -3.145001,0.3353 -1.01451,0.066 -1.992186,0.2347 -2.980327,0.4687 -1.09276,0.2346 -2.207796,0.3594 -3.319898,0.2612 -1.294126,-0.2902 -2.030106,-1.1891 -2.628467,-2.3569 -0.428715,-1.1534 -0.766805,-2.3494 -1.005196,-3.5628 -0.238867,-1.3897 -0.2447,-2.8065 -0.262003,-4.2138 -0.01089,-1.4509 -0.0056,-2.902 -0.0032,-4.3529 0.0022,-1.2962 0.0032,-2.5924 0.0036,-3.8886 3.11e-4,-1.3105 2.84e-4,-2.6211 2.74e-4,-3.9316 -1.6e-5,-1.1786 -3e-5,-2.3572 -3.8e-5,-3.5356 0.128942,-1.1967 0.34986,-2.3766 0.456719,-3.5765 0.216111,-1.5579 0.466753,-3.1023 0.917401,-4.6059 0.365022,-1.2224 0.72923,-2.4475 1.0448,-3.6853 0.230784,-0.9954 0.867302,-1.7954 1.182718,-2.7492 0.367912,-1.0101 0.687266,-2.0273 1.147356,-2.998 0.428,-1.0321 0.852138,-2.0668 1.276579,-3.1011 0.551744,-1.1244 1.201978,-2.1939 1.696116,-3.3481 0.438997,-0.942 0.949623,-1.85561 1.330455,-2.82588 0.428343,-0.90005 0.9248,-1.75575 1.434084,-2.60625 0.406859,-0.84039 0.930319,-1.6029 1.3835,-2.41555 0.558867,-1.17816 1.221848,-2.2981 1.860617,-3.43003 0.606019,-1.12326 1.221472,-2.23309 1.732211,-3.40937 0.43089,-0.87954 0.94493,-1.72296 1.315055,-2.63327 0.443433,-1.10462 0.998,-2.14843 1.575833,-3.1811 0.615696,-1.12341 1.213347,-2.2565 1.831971,-3.3773 0.408769,-0.82156 0.752693,-1.69079 1.039828,-2.56884 0.324385,-0.8273 0.758526,-1.60307 1.076951,-2.4315 0.276851,-0.79703 0.588739,-1.55699 0.732951,-2.39637 0.155565,-0.94998 0.71414,-1.72933 0.991056,-2.63062 0.228709,-0.85419 0.530958,-1.66952 0.670137,-2.54886 0.273817,-0.95949 0.489853,-1.92957 0.818534,-2.87022 0.197665,-0.86122 0.557724,-1.66539 0.758783,-2.5252 0.09298,-0.9574 0.390496,-1.86853 0.569418,-2.80846 0.100496,-1.08388 0.370699,-2.13602 0.543689,-3.20782 0.05452,-1.07333 0.36159,-2.09678 0.556424,-3.14484 0.137363,-1.04477 0.163595,-2.08534 0.382693,-3.11752 0.228404,-0.94494 0.296349,-1.91665 0.340766,-2.88657 0.206846,-1.05266 0.354691,-2.12068 0.582728,-3.16828 0.298227,-1.03195 0.656209,-2.06021 1.045093,-3.06095 0.311587,-1.00679 0.82536,-1.89369 1.441651,-2.72528 0.510514,-0.80454 1.233092,-1.41241 1.84656,-2.11962 0.47436,-0.47605 0.266324,-0.24736 0.633006,-0.67699 1.050057,-1.21074 2.683435,0.34596 1.633377,1.55669 l 0,0 c -0.450603,0.51378 -0.231809,0.28452 -0.649083,0.69534 -0.587946,0.65403 -1.251246,1.23613 -1.736618,1.98565 -0.517863,0.65435 -0.878756,1.37329 -1.133304,2.17957 -0.3653,0.86956 -0.647524,1.79839 -0.932177,2.69711 -0.21403,0.90601 -0.294986,1.84496 -0.526314,2.74915 -0.05175,1.1029 -0.135295,2.20712 -0.391975,3.28202 -0.219385,1.00877 -0.197909,2.03769 -0.370475,3.0568 -0.195049,1.02936 -0.493941,2.03132 -0.546182,3.08636 -0.179131,1.09561 -0.449842,2.17071 -0.55624,3.27841 -0.190755,0.9762 -0.487601,1.92194 -0.592665,2.91564 -0.23017,0.93631 -0.596404,1.81923 -0.826501,2.75526 -0.28329,0.80943 -0.456636,1.64492 -0.715312,2.4642 -0.166661,0.99757 -0.485801,1.93241 -0.754858,2.89982 -0.265198,0.79826 -0.69078,1.50363 -0.912418,2.31523 -0.182801,0.99563 -0.525395,1.91363 -0.86387,2.85747 -0.316101,0.78321 -0.699016,1.53267 -1.031978,2.30807 -0.343046,1.01423 -0.730051,2.02446 -1.216926,2.97117 -0.628344,1.11705 -1.214591,2.26155 -1.835609,3.38395 -0.536011,0.95379 -1.050958,1.91669 -1.45805,2.93954 -0.391097,0.91436 -0.871734,1.78581 -1.328703,2.66535 -0.54724,1.24736 -1.192965,2.43245 -1.839544,3.62448 -0.636944,1.12861 -1.297192,2.24494 -1.854755,3.41963 -0.465521,0.83475 -1.002601,1.61677 -1.42065,2.4797 -0.447297,0.74417 -0.880177,1.49281 -1.268801,2.27382 -0.402711,0.98386 -0.892575,1.92816 -1.354176,2.88266 -0.49658,1.1368 -1.106415,2.2111 -1.67892,3.3072 -0.442784,1.0759 -0.880649,2.1541 -1.331898,3.2255 -0.432714,0.8866 -0.696133,1.8303 -1.046235,2.753 -0.319462,0.8875 -0.827545,1.6585 -1.123979,2.5547 -0.327365,1.2713 -0.697543,2.5316 -1.073501,3.7877 -0.415774,1.3422 -0.612408,2.7295 -0.822825,4.12 -0.102095,1.1275 -0.277049,2.2417 -0.446993,3.3596 7e-6,1.1784 2e-5,2.357 3.7e-5,3.5356 9e-6,1.3108 3.7e-5,2.6217 -2.73e-4,3.9325 -4.27e-4,1.2972 -0.0013,2.5944 -0.0036,3.8918 -0.0023,1.4396 -0.0076,2.8794 0.003,4.3192 0.01533,1.2624 0.01464,2.5336 0.217817,3.7818 0.19227,1.0045 0.484408,1.9836 0.798332,2.9523 0.24017,0.5043 0.416761,0.8737 0.902534,1.1276 0.860188,0.1343 1.753391,-0.081 2.603117,-0.217 1.039773,-0.246 2.074119,-0.4307 3.140039,-0.5 1.15286,-0.1805 2.298805,-0.448 3.472645,-0.3609 1.126149,4e-4 2.252298,0 3.378445,0 1.237873,0 2.475805,0.014 3.713633,0 1.064264,-0.02 2.133067,-0.048 3.184303,-0.2397 1.112573,-0.227 2.196537,-0.5851 3.323134,-0.7379 1.111187,-0.2143 2.227829,-0.2623 3.349062,-0.3937 1.154351,-0.1803 2.301885,-0.4475 3.477143,-0.3595 1.101337,0 2.202681,0 3.304018,6e-4 1.034031,0 2.069604,-0.014 3.100837,-0.1 1.000931,-0.1069 1.976135,-0.3467 2.973438,-0.4754 1.121213,0 2.243192,0 3.363122,-0.065 1.177798,-0.082 2.355085,-0.2131 3.500118,-0.5281 1.192888,-0.2454 2.408851,-0.3768 3.60965,-0.5767 1.087862,-0.022 2.177682,-0.056 3.257248,-0.2107 1.194809,-0.18 2.380329,-0.4549 3.595934,-0.3604 1.21522,0 2.430453,-2e-4 3.645673,0 1.155793,0 2.311572,0 3.467365,0 1.272496,0 2.546013,0 3.817104,0.072 1.146407,0.081 2.286938,0.2183 3.415198,0.4516 1.06694,0.1817 2.17247,-0.014 3.24865,0.056 1.24142,0 2.48286,0 3.72427,0 1.14431,0.014 2.29061,0.035 3.42919,0.1667 1.07129,0.1387 2.13327,0.4121 3.21412,0.4108 1.22663,-2e-4 2.45326,-2e-4 3.67988,-2e-4 1.22779,2e-4 2.45558,3e-4 3.68337,0 1.23429,0 2.46857,0.014 3.70283,0.019 1.11447,0 2.23364,0.023 3.34279,-0.1098 0.53122,-0.09 0.86001,0.055 0.90826,-0.5985 -6.9e-4,-1.1623 -0.004,-2.3249 0.0225,-3.4868 0.0354,-1.1269 0.0899,-2.2571 0.3049,-3.365 0.191,-0.9915 0.30395,-1.9607 0.22636,-2.9787 -0.001,-1.1594 -0.004,-2.3188 -0.003,-3.4782 0.006,-1.1939 0.011,-2.3894 0.1068,-3.58 0.11191,-1.1659 0.30362,-2.3158 0.54958,-3.459 0.10116,-1.1396 0.27583,-2.2661 0.45476,-3.3945 0.0269,-1.3076 0.0783,-2.6178 0.29218,-3.9091 0.24634,-1.4206 0.61058,-2.816 0.76573,-4.2532 0.15545,-1.3543 0.0959,-2.7314 0.35653,-4.0751 0.19411,-1.1551 0.3233,-2.2996 0.34402,-3.4747 0.11949,-1.1782 0.32436,-2.3383 0.60176,-3.4871 0.13886,-1.19 0.4079,-2.36587 0.43239,-3.56599 0.059,-1.50712 0.15715,-3.01366 0.36643,-4.5072 0.16783,-1.41336 0.17319,-2.82426 0.14878,-4.24788 -4e-5,-1.56491 -1.1e-4,-3.12981 -9e-5,-4.69472 8e-5,-1.57936 1.1e-4,-3.15857 0.003,-4.73793 0.003,-1.39255 0.006,-2.78516 0.015,-4.17775 0.004,-1.03292 0.0245,-2.0694 -0.0663,-3.09911 -0.0187,-0.14274 -0.14017,-0.32287 -0.0477,-0.42952 0.0161,-0.0185 0.73023,0.068 0.0551,0.007 -1.11495,0.22728 -2.23197,0.20701 -3.3646,0.19015 -1.11144,10e-4 -2.22295,0.007 -3.33433,-0.007 -1.21086,-0.024 -2.42399,-0.0673 -3.62352,-0.25677 -1.30786,-0.21648 -2.60056,-0.52117 -3.92101,-0.64665 -1.20326,-0.19518 -2.39988,-0.35101 -3.61705,-0.41151 -1.10396,-0.14814 -2.18488,-0.42813 -3.29089,-0.54514 -1.07603,-0.14687 -2.13168,-0.38674 -3.14339,-0.8089 -1.00972,-0.25262 -2.01395,-0.44899 -3.04234,-0.60458 -1.12971,-0.28315 -2.26162,-0.57494 -3.36611,-0.94952 -1.12158,-0.4459 -2.26655,-0.79319 -3.41946,-1.13881 -1.235933,-0.45682 -2.488749,-0.81996 -3.772009,-1.10361 -1.413099,-0.43675 -2.816288,-0.90331 -4.184113,-1.47983 -1.315909,-0.53686 -2.634808,-1.07277 -3.972245,-1.54671 -1.441474,-0.56177 -2.880206,-1.13779 -4.267629,-1.83556 -1.19033,-0.62242 -2.377159,-1.26799 -3.616194,-1.77147 -0.870813,-0.41887 -1.734355,-0.84146 -2.540956,-1.38926 -0.972417,-0.49963 -1.891519,-1.12007 -2.778921,-1.76851 -0.926677,-0.5816 -1.810922,-1.23334 -2.688591,-1.89241 -0.78552,-0.66802 -1.615712,-1.28033 -2.22418,-2.14625 -0.719665,-0.75144 -1.391913,-1.55627 -2.032245,-2.38193 -0.565105,-0.92927 -1.119562,-1.86359 -1.593258,-2.84963 -0.406005,-1.01366 -0.876662,-1.99269 -1.301772,-2.99603 -0.506795,-1.11855 -0.929505,-2.25884 -1.350773,-3.4148 -0.401585,-1.16768 -0.946205,-2.28953 -1.102278,-3.53718 -0.358182,-1.59925 -0.729981,-3.194 -1.084295,-4.79387 -0.428827,-1.57336 1.69376,-2.20909 2.122587,-0.63573 z"
       inkscape:connector-curvature="0" />
    <path
       style="fill:#000000;fill-opacity:1;stroke:none"
       id="path3041"
       d="m 84.385498,966.06329 c 1.091266,0.99844 2.090581,2.09988 3.173413,3.10838 0.773294,0.64101 1.597925,1.19244 2.441644,1.72359 0.852884,0.4334 1.752501,0.78781 2.654393,1.09909 1.022633,0.19291 2.000352,0.49697 2.954986,0.92544 0.850693,0.28568 1.704651,0.56323 2.563048,0.82834 0.909278,0.15155 1.798325,0.36089 2.692458,0.5927 0.93303,0.38405 1.89129,0.63247 2.88368,0.76269 1.08057,0.0874 2.15015,0.0808 3.21593,0.3043 1.02601,0.21593 2.03718,0.25728 3.00288,0.70304 1.17206,0.79102 1.13052,2.00692 1.04313,3.29719 -0.21631,1.151 -0.44018,2.29766 -0.79423,3.41139 -0.29024,1.35904 -0.62437,2.16923 -1.80672,2.91224 -1.21851,0.48152 -2.41617,-0.0795 -3.61521,-0.3567 -1.1203,-0.23303 -2.11089,-0.84139 -3.19244,-1.19072 -1.02458,-0.17525 -2.026992,-0.4665 -3.049116,-0.6598 -1.011815,-0.16918 -2.038031,-0.19157 -3.060279,-0.20977 -1.095263,-0.0145 -2.190623,0 -3.285928,0 -1.104511,10e-4 -2.209008,0 -3.313518,0 -1.103946,4.3e-4 -2.207878,2.8e-4 -3.311824,2.8e-4 -1.193955,0.0145 -2.35617,0.0953 -3.496361,-0.31595 -1.069492,-0.59652 -1.468322,-1.58976 -1.938335,-2.67647 -0.417718,-0.96261 -0.558748,-2.01421 -0.808097,-3.03114 -0.254965,-1.03144 -0.63186,-2.00988 -0.830094,-3.06078 -0.351455,-1.06598 -0.45177,-2.1923 -0.695562,-3.28285 -0.300137,-1.21889 -0.524272,-2.45643 -0.484812,-3.71721 0.395539,-1.92188 1.631012,-2.34801 3.236221,-1.57485 0.733451,0.40832 1.486252,0.80179 2.263253,1.11402 0.116594,0.0345 0.233229,0.0691 0.349836,0.10358 1.497194,0.46289 0.872729,2.68246 -0.624465,2.21958 l 0,0 c -0.177385,-0.0563 -0.354784,-0.11269 -0.532168,-0.16912 -0.848116,-0.35485 -1.67888,-0.77017 -2.48364,-1.21969 -0.05652,-0.061 -0.249761,-0.0743 -0.201626,-0.14274 0.05962,-0.0848 0.343479,-0.10778 0.332522,-0.29482 -0.0033,-0.0555 -0.245699,-0.0238 -0.13553,0.0871 -0.09491,1.03693 0.237809,2.0769 0.433248,3.08236 0.23615,1.11855 0.366705,2.26087 0.709994,3.35483 0.180569,1.00607 0.579289,1.93081 0.800858,2.9246 0.219226,0.89424 0.340781,1.81944 0.688991,2.67124 0.156216,0.37663 0.457513,1.21196 0.73589,1.46248 0.641155,0.44237 1.929101,0.0144 2.679889,0.15183 1.103657,0 2.207327,1.5e-4 3.310997,-2.8e-4 1.103574,-4.4e-4 2.207147,-10e-4 3.310721,0 1.109128,-10e-4 2.218297,0 3.327383,0 1.142067,0.0202 2.288253,0.0506 3.417737,0.24675 1.112295,0.21396 2.206415,0.51648 3.317805,0.72958 1.01883,0.34254 1.95981,0.8804 3.00565,1.13843 0.69393,0.16166 1.43851,0.31971 2.09372,0.57716 0.64295,-0.19373 0.53545,-1.05276 0.75712,-1.60637 0.29729,-0.9314 0.46983,-1.88766 0.68619,-2.84333 0.0187,-0.27291 -0.0255,-0.73189 0.0633,-0.99815 0.0152,-0.0462 0.10226,0.0592 0.13575,0.0274 0.0208,-0.0202 -0.0138,-0.0578 -0.0201,-0.0867 -0.58991,-0.47228 -1.76583,-0.18016 -2.46245,-0.50898 -1.00964,-0.21916 -2.03287,-0.15819 -3.05648,-0.27651 -1.07361,-0.1465 -2.12799,-0.38354 -3.13506,-0.81213 -0.927721,-0.24182 -1.849417,-0.44158 -2.79009,-0.62058 -0.93924,-0.29483 -1.877047,-0.58757 -2.803773,-0.91958 -0.899439,-0.40472 -1.824194,-0.65347 -2.784052,-0.85728 -1.051809,-0.37184 -2.107285,-0.77479 -3.092225,-1.31042 -0.961773,-0.60571 -1.898795,-1.24183 -2.774528,-1.98054 -1.11041,-1.04207 -2.146425,-2.16622 -3.264815,-3.19886 -1.103752,-1.15705 0.457196,-2.79337 1.560963,-1.63632 z"
       inkscape:connector-curvature="0" />
    <path
       style="fill:#000000;fill-opacity:1;stroke:none"
       id="path3043"
       d="m 92.105042,1014.0685 c 0.0798,-1.5831 -0.153198,-3.1475 -0.325208,-4.7147 -0.166166,-0.489 0.175373,-2.0268 -0.537819,-2.154 -0.76417,-0.1981 -1.558744,-0.189 -2.340665,-0.1969 -1.130834,-0.017 -2.262343,0.077 -3.387485,-0.056 -1.530436,-0.3807 -2.000477,-1.701 -2.191037,-3.1753 -0.117834,-1.5473 -0.243648,-2.4735 0.662048,-3.80119 0.952553,-0.96044 2.113004,-0.75342 3.302025,-0.62527 0.963468,0.0809 1.876178,0.43182 2.829572,0.58944 0.988,0.22262 1.871659,0.74112 2.841246,1.02342 1.021586,0.2582 2.025077,0.5604 3.067294,0.7189 0.93279,0.2771 1.861611,0.5221 2.8261,0.6345 1.112104,0.1329 2.236777,0.3252 3.319147,0.6303 1.32451,0.3391 2.11042,0.7533 2.77695,2.053 0.60508,1.7081 0.0551,2.7968 -1.50572,3.4746 -1.2613,0.2348 -2.52794,-0.033 -3.751951,-0.3556 -0.910822,-0.4161 -1.811914,-0.7858 -2.794829,-0.9517 -0.301958,0.016 -1.346421,-0.364 -1.304484,0.1854 -0.185447,0.8058 -0.183724,1.6409 -0.194736,2.4647 0.207609,0.8611 0.244254,1.7743 0.491954,2.6221 0.34537,1.0136 0.485007,2.0747 0.569117,3.1415 0.02357,1.5308 -0.80156,2.9167 -2.420613,1.7857 -0.329632,-0.1748 -0.127481,-0.056 -0.586248,-0.3908 -1.263759,-0.9605 0.03197,-2.834 1.295746,-1.8735 l 0,0 c 0.265354,0.2232 0.09689,0.097 0.526615,0.3469 0.407182,0.2956 -0.06285,-0.087 -0.47751,0.071 -0.74212,0.2824 -0.659774,1.1796 -0.53826,0.2479 -0.07015,-0.9231 -0.190836,-1.8374 -0.496557,-2.7123 -0.266222,-1.0703 -0.417656,-2.1794 -0.571529,-3.2722 0.01778,-1.2558 0.01103,-2.5507 0.556907,-3.7017 1.031702,-1.421 1.928742,-1.4294 3.512141,-1.1977 1.03614,0.1854 2.028784,0.4979 2.972797,0.9908 0.80849,0.2145 1.61692,0.357 2.44765,0.4282 0.31796,-0.071 0.41421,0.341 0.28283,-0.2946 -0.18433,-0.6521 -0.83545,-0.6358 -1.38837,-0.8343 -0.95609,-0.3031 -1.983214,-0.4233 -2.970345,-0.5585 -0.986126,-0.1199 -1.951731,-0.3268 -2.898371,-0.6445 -1.136885,-0.1777 -2.2354,-0.4951 -3.349324,-0.7825 -0.885547,-0.2684 -1.70902,-0.6807 -2.587841,-0.9644 -0.912407,-0.1561 -1.789202,-0.4693 -2.70522,-0.5723 -0.439197,-0.048 -1.020676,-0.068 -1.377293,-0.1991 -0.508009,0.082 -0.123484,1.6775 -0.171128,2.031 0.03804,0.3453 0.0124,0.9555 0.282402,1.1727 1.028601,0.1704 2.091394,-0.03 3.128554,0.038 1.206826,0.014 2.450616,-4e-4 3.55186,0.5918 1.37575,1.1082 1.375736,2.1117 1.497456,3.8087 0.181506,1.6547 0.419062,3.3079 0.339652,4.9792 0,1.6362 -2.20752,1.6362 -2.20752,0 z"
       inkscape:connector-curvature="0" />
    <path
       style="fill:#cccccc;fill-opacity:1;stroke:none"
       d="m 55.59334,901.28675 c -0.715638,2.19453 1.892117,4.51906 2.577223,6.55402 6.646091,11.64032 14.861101,22.83084 26.671676,28.90727 15.466441,8.80371 33.500231,8.72202 50.558571,10.38026 11.9058,0.50151 23.91851,0.9785 35.78282,-0.3007 18.52992,-2.98197 37.03559,-6.49606 54.70921,-13.25961 6.15978,-2.27436 12.50196,-4.15711 18.51244,-6.79744 -0.61585,-2.07195 -3.46583,-2.98623 -5.05066,-4.33884 -2.54841,-2.3189 -5.60002,0.8963 -8.38744,1.01189 -7.84088,2.28413 -16.14759,3.21739 -23.8884,5.68858 -18.48128,0.62205 -37.06323,0.53418 -55.48816,-1.33643 -17.8598,-2.04078 -35.33266,-6.67225 -53.082025,-9.49888 -11.5493,-2.53063 -23.18292,-6.04365 -33.660623,-11.82146 -3.093479,-1.5815 -5.92483,-4.36427 -9.254632,-5.18866 z"
       id="path3049"
       inkscape:connector-curvature="0" />
  </g>
</svg>
