<?xml version="1.0" encoding="UTF-8" standalone="no"?>
<!-- Created with Inkscape (http://www.inkscape.org/) -->

<svg
   xmlns:dc="http://purl.org/dc/elements/1.1/"
   xmlns:cc="http://creativecommons.org/ns#"
   xmlns:rdf="http://www.w3.org/1999/02/22-rdf-syntax-ns#"
   xmlns:svg="http://www.w3.org/2000/svg"
   xmlns="http://www.w3.org/2000/svg"
   xmlns:sodipodi="http://sodipodi.sourceforge.net/DTD/sodipodi-0.dtd"
   xmlns:inkscape="http://www.inkscape.org/namespaces/inkscape"
   width="104"
   height="104"
   id="svg2"
   version="1.1"
   inkscape:version="0.48.5 r10040"
   sodipodi:docname="stone1.svg"
   inkscape:export-filename="C:\Users\narfman0\Desktop\stone1.png"
   inkscape:export-xdpi="90"
   inkscape:export-ydpi="90">
  <defs
     id="defs4" />
  <sodipodi:namedview
     id="base"
     pagecolor="#ffffff"
     bordercolor="#666666"
     borderopacity="1.0"
     inkscape:pageopacity="0.0"
     inkscape:pageshadow="2"
     inkscape:zoom="8.0700037"
     inkscape:cx="41.347925"
     inkscape:cy="57.990776"
     inkscape:document-units="px"
     inkscape:current-layer="layer1"
     showgrid="false"
     inkscape:window-width="1579"
     inkscape:window-height="980"
     inkscape:window-x="66"
     inkscape:window-y="28"
     inkscape:window-maximized="0" />
  <metadata
     id="metadata7">
    <rdf:RDF>
      <cc:Work
         rdf:about="">
        <dc:format>image/svg+xml</dc:format>
        <dc:type
           rdf:resource="http://purl.org/dc/dcmitype/StillImage" />
        <dc:title />
      </cc:Work>
    </rdf:RDF>
  </metadata>
  <g
     inkscape:label="Layer 1"
     inkscape:groupmode="layer"
     id="layer1"
     transform="translate(0,-948.36218)">
    <path
       sodipodi:type="arc"
       style="fill:#d3bc5f;fill-opacity:1;stroke:none"
       id="path2985"
       sodipodi:cx="32.042782"
       sodipodi:cy="32.223137"
       sodipodi:rx="31.776865"
       sodipodi:ry="31.51095"
       d="m 63.819647,32.223137 a 31.776865,31.51095 0 1 1 -63.55373018,0 31.776865,31.51095 0 1 1 63.55373018,0 z"
       transform="matrix(1.5999036,0,0,1.6110664,0.75929419,948.32186)" />
    <path
       style="fill:#504416;fill-opacity:1;stroke:none"
       id="path3765"
       d="m 50.939724,950.06838 c -0.422602,0.13497 -0.860923,0.20478 -1.291049,0.31024 -0.36095,0.0704 -0.719648,0.14481 -1.079068,0.22275 -0.333945,0.12732 -0.687323,0.17381 -1.03417,0.24836 -0.38298,0.0935 -0.773323,0.14356 -1.165976,0.17137 -0.251209,0.0747 -0.515838,0.0918 -0.768254,0.15745 -0.339937,0.0969 -0.689757,0.14168 -1.041232,0.16819 -0.341039,0.0204 -0.682844,0.02 -1.024357,0.0206 -0.328219,-1.7e-4 -0.656437,-8.6e-4 -0.984657,-0.001 -0.327426,-3e-4 -0.654856,-3.5e-4 -0.982285,-3.7e-4 -0.327584,-10e-6 -0.655168,-10e-6 -0.982752,0 -0.327607,0 -0.655212,0 -0.982818,0 -0.272722,-0.0228 -0.530017,0.009 -0.795073,0.0627 -0.327068,0.0666 -0.660718,0.084 -0.99344,0.0951 -0.276705,-0.0163 -0.538733,0.0156 -0.807817,0.0695 -0.221391,0.0149 -0.409279,0.0726 -0.599418,0.17301 -0.215248,0.10386 -0.423875,0.22068 -0.633627,0.33599 -0.263565,0.10487 -0.500827,0.2577 -0.738622,0.40911 -0.214283,0.10476 -0.389827,0.26224 -0.569614,0.41811 -0.235227,0.16332 -0.481191,0.31458 -0.732088,0.45379 -0.230972,0.15532 -0.474409,0.29718 -0.726367,0.41628 -0.218167,0.13618 -0.426522,0.27343 -0.666473,0.37201 -0.221054,0.12304 -0.466631,0.18448 -0.700681,0.27628 -0.252713,0.059 -0.482827,0.16343 -0.717284,0.27057 -0.313873,0.13142 -0.633507,0.24665 -0.953607,0.36196 -0.268542,0.15107 -0.562908,0.24524 -0.852623,0.34645 -0.320731,0.0996 -0.639393,0.20529 -0.957339,0.31355 -0.299812,0.11221 -0.590376,0.24513 -0.888542,0.36105 -0.2272,0.0743 -0.467457,0.15464 -0.666363,0.29073 -0.297673,0.18261 -0.615539,0.32294 -0.950616,0.42016 -0.239965,0.0902 -0.454691,0.2215 -0.696874,0.30966 -0.263097,0.12136 -0.557836,0.16394 -0.81496,0.29794 -0.255982,0.10126 -0.489382,0.24409 -0.731141,0.37379 -0.252587,0.11589 -0.49642,0.25931 -0.72977,0.41047 -0.225515,0.11255 -0.438517,0.23721 -0.646028,0.37827 -0.157106,0.16065 -0.341553,0.28683 -0.517829,0.4251 -0.122035,0.14062 -0.25101,0.28352 -0.36985,0.43117 -0.145384,0.18872 -0.264623,0.38729 -0.364654,0.60336 -0.152456,0.27807 -0.31944,0.54662 -0.48962,0.81389 -0.102801,0.22348 -0.192587,0.45338 -0.299017,0.67545 -0.122348,0.26636 -0.317553,0.48896 -0.480419,0.72995 -0.172172,0.24481 -0.38139,0.45852 -0.573974,0.68617 -0.177804,0.2118 -0.387059,0.39296 -0.571873,0.59841 -0.214235,0.20645 -0.422881,0.41753 -0.649135,0.61111 -0.201086,0.15887 -0.427977,0.29326 -0.607587,0.47753 -0.162971,0.15099 -0.337772,0.2947 -0.483895,0.46276 -0.166488,0.15404 -0.352832,0.26326 -0.488806,0.44522 -0.146149,0.2124 -0.303423,0.41664 -0.458092,0.62328 -0.178247,0.18646 -0.308025,0.40747 -0.46052,0.61512 -0.130205,0.19671 -0.245481,0.40062 -0.360262,0.60684 -0.157814,0.22748 -0.317701,0.45278 -0.472737,0.68199 -0.122568,0.23736 -0.311614,0.43403 -0.479966,0.64006 -0.151247,0.20263 -0.321363,0.39204 -0.500476,0.57062 -0.16261,0.17098 -0.327202,0.34097 -0.499322,0.50274 -0.18094,0.19966 -0.379365,0.37991 -0.598184,0.5376 -0.179862,0.17213 -0.334882,0.36282 -0.529569,0.52225 -0.185863,0.11552 -0.300867,0.27852 -0.44748,0.43476 -0.170356,0.22199 -0.319853,0.45777 -0.495286,0.6761 -0.150731,0.17317 -0.288039,0.35004 -0.410799,0.54394 -0.165179,0.20457 -0.291665,0.43167 -0.4444772,0.64609 -0.1095177,0.21166 -0.200669,0.43266 -0.3070252,0.64609 -0.1369065,0.201 -0.2338427,0.41469 -0.3369308,0.63259 -0.1166404,0.22065 -0.2469211,0.43131 -0.3503712,0.65929 -0.1468962,0.25378 -0.2766192,0.51534 -0.4283899,0.76646 -0.1441667,0.20742 -0.3352435,0.39495 -0.44132,0.62672 -0.152578,0.28229 -0.3425126,0.53578 -0.5630025,0.76836 -0.1556489,0.20296 -0.3129203,0.40615 -0.4823384,0.59925 -0.1413769,0.17342 -0.2421322,0.37292 -0.3550719,0.56468 -0.127056,0.20184 -0.2572115,0.40012 -0.3791473,0.60542 -0.075237,0.22024 -0.2530926,0.38561 -0.350244,0.59267 -0.094824,0.21859 -0.1893482,0.4382 -0.276404,0.66084 -0.099848,0.28488 -0.2891258,0.52874 -0.3832346,0.81474 -0.1195181,0.28134 -0.2327613,0.5607 -0.3972336,0.81938 -0.1019231,0.17039 -0.1872631,0.3559 -0.2534552,0.54395 -0.1264028,0.22522 -0.1982428,0.47082 -0.2960097,0.70834 -0.1401528,0.21217 -0.2258342,0.44691 -0.3296125,0.67694 -0.067735,0.26412 -0.1824677,0.50555 -0.3191215,0.74059 -0.070862,0.19066 -0.1716878,0.36899 -0.2213198,0.56731 -0.052821,0.24543 -0.1431588,0.47787 -0.1818307,0.72668 -0.081799,0.28787 -0.1509507,0.57795 -0.2542269,0.85893 -0.072915,0.24803 -0.1001252,0.50345 -0.169222,0.75329 -0.059003,0.28632 -0.1514726,0.56419 -0.2676712,0.83207 -0.1058245,0.21546 -0.1462054,0.45232 -0.2231662,0.67893 -0.076591,0.2867 -0.1520415,0.5743 -0.2535569,0.85348 -0.095321,0.2601 -0.2115556,0.51201 -0.2774043,0.78184 -0.051886,0.26879 -0.1504191,0.52357 -0.1926303,0.79469 -0.00937,0.2906 -0.09456,0.56847 -0.1472562,0.85232 -0.085692,0.24633 -0.1603024,0.48956 -0.1914035,0.74874 -0.028991,0.31225 -0.016179,0.62517 -0.053432,0.93651 -0.062047,0.26935 -0.101168,0.5413 -0.1205736,0.81663 -0.016869,0.30683 -0.01675,0.61433 -0.017459,0.9215 0.021697,0.34532 -0.016714,0.68094 -0.084643,1.01836 -0.053006,0.26427 -0.064337,0.53395 -0.072955,0.80263 -0.007326,0.31823 -0.006354,0.63657 -0.006157,0.9548 -0.0225865,0.27239 0.009896,0.52944 0.0636639,0.79405 0.017483,0.21731 0.1404542,0.38212 0.2331918,0.57211 0.1139387,0.14946 0.178882,0.3258 0.2414168,0.5005 0.2592906,0.7662 -0.82711084,1.132 -1.08640111,0.3658 l 0,0 c -0.0392209,-0.1375 -0.11473094,-0.2543 -0.19067889,-0.3755 -0.12378042,-0.2732 -0.29718571,-0.52613 -0.32131304,-0.8359 -0.06867133,-0.33809 -0.10796342,-0.67439 -0.08649614,-1.02027 -2.0392e-4,-0.33099 -0.001182,-0.66186 0.006764,-0.99285 0.0110092,-0.33177 0.0284078,-0.66445 0.09478322,-0.99058 0.05342074,-0.26529 0.08488526,-0.5229 0.06220985,-0.79575 7.8253e-4,-0.3338 9.3946e-4,-0.66784 0.02042541,-1.00119 0.02221983,-0.30107 0.05857117,-0.60079 0.12897014,-0.89498 0.0636246,-0.2979 -0.0119594,-0.61896 0.051124,-0.91941 0.0366222,-0.27904 0.0884775,-0.55783 0.20224461,-0.8174 0.0527842,-0.27503 0.13376463,-0.542 0.14226774,-0.8239 0.0511326,-0.30396 0.14823625,-0.59274 0.21310648,-0.8928 0.0815429,-0.3115 0.20121127,-0.60806 0.31741328,-0.90788 0.1116584,-0.25866 0.1487066,-0.54653 0.2388715,-0.81273 0.08986,-0.26411 0.1361712,-0.54225 0.2682097,-0.79144 0.1162819,-0.19689 0.1382369,-0.44361 0.2036952,-0.65828 0.078023,-0.27814 0.09375,-0.56912 0.1976434,-0.84142 0.078651,-0.21337 0.1245874,-0.43401 0.1990551,-0.64946 0.048859,-0.28852 0.1409853,-0.56172 0.2077902,-0.84518 0.083463,-0.2902 0.2088992,-0.56448 0.3351092,-0.83814 0.1175129,-0.20205 0.1998117,-0.40984 0.2656712,-0.63674 0.097946,-0.21631 0.1727802,-0.44896 0.3142313,-0.64132 0.092821,-0.22541 0.1579166,-0.46248 0.2824355,-0.67378 0.1040765,-0.27019 0.2215624,-0.54074 0.3778556,-0.7847 0.1425395,-0.15124 0.1522562,-0.39317 0.2669997,-0.56266 0.1094882,-0.29519 0.2701886,-0.56095 0.3959781,-0.8487 0.1046312,-0.26453 0.2178808,-0.52444 0.3335521,-0.78403 0.1219372,-0.217 0.2788484,-0.40983 0.3773126,-0.64018 0.124442,-0.20503 0.2557663,-0.40484 0.3809122,-0.60833 0.1586288,-0.24528 0.2804761,-0.51711 0.4812534,-0.73504 0.1869644,-0.20042 0.3355569,-0.43152 0.5169396,-0.63621 0.1533258,-0.14434 0.2603015,-0.31882 0.3669656,-0.49851 0.1336877,-0.24467 0.2935713,-0.48202 0.4778538,-0.69137 0.1312018,-0.21326 0.2373153,-0.43821 0.3672516,-0.65183 0.1097079,-0.23437 0.239353,-0.45663 0.3614246,-0.68252 0.1167859,-0.21901 0.2095953,-0.45041 0.349013,-0.65653 0.146054,-0.25132 0.2209694,-0.54438 0.3914274,-0.7838 0.1429328,-0.19953 0.2619065,-0.41355 0.4161209,-0.60451 0.1495965,-0.22675 0.3107678,-0.44261 0.487506,-0.64844 0.2006963,-0.22914 0.3357903,-0.50928 0.5451123,-0.73257 0.186628,-0.19692 0.357547,-0.4055 0.58479,-0.5587 0.213335,-0.10318 0.33443,-0.4614 0.571367,-0.55278 0.184687,-0.11746 0.32372,-0.29005 0.478546,-0.44182 0.17092,-0.14761 0.317797,-0.32281 0.477362,-0.48206 0.158488,-0.14037 0.285767,-0.31599 0.416898,-0.48068 0.153182,-0.17599 0.307146,-0.34538 0.413901,-0.55263 0.137821,-0.20044 0.272547,-0.40363 0.419947,-0.59693 0.139193,-0.24636 0.279308,-0.49077 0.437209,-0.72591 0.155414,-0.20985 0.288841,-0.43699 0.469152,-0.62667 0.16634,-0.21784 0.328495,-0.43754 0.487698,-0.66072 0.15837,-0.18556 0.328502,-0.3615 0.53217,-0.49477 0.171029,-0.17979 0.350996,-0.35189 0.536825,-0.51622 0.20415,-0.18722 0.42276,-0.35938 0.650892,-0.51644 0.1891,-0.16104 0.361864,-0.33783 0.542703,-0.50761 0.180182,-0.19899 0.38085,-0.37708 0.555766,-0.58018 0.168786,-0.19266 0.344238,-0.37856 0.496208,-0.58543 0.136394,-0.1965 0.296611,-0.38079 0.401166,-0.59582 0.14153,-0.24624 0.201827,-0.5376 0.357338,-0.778 0.145141,-0.2264 0.285165,-0.45487 0.419839,-0.68786 0.14171,-0.29474 0.3078,-0.57169 0.507499,-0.831 0.177748,-0.22045 0.365392,-0.43276 0.572042,-0.62697 0.195801,-0.1449 0.38105,-0.29737 0.565256,-0.45902 0.220276,-0.1485 0.444184,-0.28663 0.683408,-0.40256 0.259894,-0.15826 0.520094,-0.32304 0.796864,-0.44913 0.258767,-0.13609 0.508466,-0.2892 0.780643,-0.39861 0.301958,-0.13642 0.619402,-0.22437 0.927877,-0.34403 0.265648,-0.0816 0.488063,-0.27037 0.763996,-0.33073 0.235207,-0.0616 0.452636,-0.16989 0.660952,-0.29383 0.269193,-0.15812 0.554221,-0.29692 0.855198,-0.38371 0.312808,-0.11694 0.6146,-0.26248 0.92926,-0.37574 0.315399,-0.10724 0.631705,-0.21176 0.949646,-0.31092 0.287179,-0.0997 0.572927,-0.19834 0.841708,-0.34257 0.290542,-0.1042 0.580683,-0.20818 0.865832,-0.32626 0.252256,-0.11473 0.503017,-0.23159 0.774354,-0.29475 0.236658,-0.0928 0.482422,-0.15633 0.706766,-0.27864 0.223183,-0.0673 0.384236,-0.26298 0.603105,-0.34537 0.231604,-0.0965 0.438805,-0.24918 0.652072,-0.37908 0.188447,-0.10047 0.367494,-0.21971 0.549387,-0.32967 0.219838,-0.17899 0.430835,-0.37805 0.687219,-0.50382 0.258571,-0.16405 0.517126,-0.33354 0.803166,-0.44722 0.215414,-0.11734 0.430632,-0.23478 0.649636,-0.34459 0.287028,-0.15099 0.584234,-0.25213 0.908984,-0.28304 0.330233,-0.0664 0.658683,-0.10589 0.996518,-0.0913 0.269014,-0.009 0.539121,-0.0199 0.803764,-0.0729 0.338759,-0.0683 0.675663,-0.10702 1.0222,-0.0852 0.327603,0 0.655206,0 0.982807,0 0.327623,-10e-6 0.655244,-10e-6 0.982868,0 0.327803,2e-5 0.655604,6e-5 0.983408,3.7e-4 0.327313,3.5e-4 0.654627,0.001 0.981941,0.001 0.313755,-4e-4 0.627769,1.6e-4 0.941142,-0.0174 0.291304,-0.0209 0.58062,-0.0584 0.861846,-0.14058 0.315379,-0.0708 0.635775,-0.12057 0.952473,-0.18541 0.340508,-0.0233 0.678559,-0.0676 1.010384,-0.14977 0.345531,-0.0709 0.693346,-0.12499 1.026727,-0.24678 0.349145,-0.0753 0.697578,-0.14876 1.048319,-0.21565 0.40028,-0.0981 0.807395,-0.165 1.202113,-0.2846 0.769174,-0.25573 1.131765,0.82921 0.362592,1.08492 z"
       inkscape:connector-curvature="0" />
    <path
       style="fill:#504416;fill-opacity:1;stroke:none"
       id="path3769"
       d="m 1.4895515,999.76028 c 0.059993,0.35202 0.1023952,0.70652 0.1321633,1.06232 0.026664,0.3576 0.030184,0.7162 0.032311,1.0745 0.05535,0.309 0.1018993,0.6191 0.1314817,0.9318 0.019759,0.2811 0.10331,0.5522 0.1450413,0.8315 0.069813,0.2978 -0.00153,0.6182 0.063901,0.914 0.072249,0.2946 0.1087625,0.5951 0.1310995,0.8972 0.019487,0.3333 0.019585,0.6675 0.020341,1.0013 0.060908,0.2605 0.1023906,0.5243 0.1303338,0.7902 0.029117,0.3342 0.031018,0.67 0.033017,1.0053 0.04112,0.2093 0.078282,0.415 0.1487429,0.6156 0.1315043,0.2815 0.096435,0.6043 0.1757016,0.8953 0.086681,0.2998 0.1247368,0.6086 0.1479952,0.9189 0.019492,0.3137 0.094649,0.621 0.133977,0.9334 0.090719,0.2775 0.144121,0.5631 0.178511,0.8523 0.063261,0.215 0.1058393,0.4319 0.1818035,0.6424 0.1082428,0.256 0.096996,0.5505 0.2205806,0.8001 0.1035319,0.2655 0.2099719,0.5297 0.306001,0.798 0.060524,0.228 0.1511895,0.446 0.2516832,0.6587 0.1130953,0.2619 0.2109427,0.5288 0.3267554,0.7892 0.1078522,0.2339 0.1450057,0.5054 0.2741511,0.7298 0.1090104,0.2523 0.2079849,0.5096 0.2990028,0.7693 0.040115,0.2311 0.171981,0.4161 0.2730966,0.6221 0.1480131,0.2082 0.2234556,0.4543 0.323608,0.6868 0.080424,0.2196 0.1848229,0.4295 0.2918151,0.6375 0.1059185,0.2522 0.1922514,0.5115 0.2992589,0.7637 0.1241238,0.2444 0.2128147,0.508 0.3320876,0.7543 0.1034436,0.2621 0.2313617,0.5097 0.3155441,0.7794 0.1087931,0.2124 0.1841771,0.4426 0.2973251,0.6522 0.085619,0.222 0.1997738,0.4214 0.3306216,0.6177 0.1110506,0.2262 0.213029,0.4497 0.3457234,0.6632 0.080497,0.1789 0.199499,0.3077 0.3553301,0.4315 0.1937428,0.1701 0.3719051,0.3583 0.5681665,0.5252 0.1696229,0.2174 0.3682194,0.4027 0.5395718,0.6173 0.1380736,0.1725 0.2449312,0.3541 0.3904112,0.5124 0.1784867,0.2128 0.323301,0.4468 0.4644844,0.6848 0.117116,0.2203 0.263776,0.418 0.412455,0.6171 0.151162,0.2262 0.283546,0.4621 0.416221,0.6994 0.150544,0.1982 0.280273,0.4194 0.390073,0.6433 0.08672,0.1723 0.212517,0.3134 0.332867,0.462 0.09997,0.1901 0.22788,0.3342 0.379539,0.4698 0.173868,0.1687 0.306002,0.3783 0.484121,0.5422 0.210124,0.2354 0.40184,0.4888 0.559632,0.7618 0.138862,0.1676 0.304725,0.3106 0.441543,0.4856 0.130132,0.1787 0.277869,0.3415 0.420737,0.5098 0.153685,0.1602 0.314174,0.314 0.466585,0.4759 0.165125,0.1612 0.332152,0.3211 0.490957,0.4889 0.200878,0.1467 0.295485,0.3874 0.460403,0.5647 0.166953,0.1962 0.317462,0.403 0.458388,0.6192 0.152078,0.1628 0.272167,0.3495 0.407464,0.5258 0.159021,0.2111 0.243819,0.468 0.383646,0.6892 0.145532,0.1095 0.278265,0.2885 0.405409,0.4385 0.166462,0.1978 0.304765,0.4185 0.465269,0.6206 0.13251,0.1788 0.266359,0.3655 0.43268,0.5154 0.159284,0.1602 0.306733,0.3355 0.478073,0.4834 0.140686,0.1684 0.30635,0.2994 0.479141,0.4292 0.164867,0.1875 0.371073,0.3239 0.558544,0.4864 0.160113,0.1259 0.29266,0.2851 0.482205,0.3685 0.248845,0.1468 0.511849,0.2599 0.753475,0.4194 0.194508,0.1181 0.410092,0.1963 0.612524,0.303 0.250347,0.1472 0.497905,0.3091 0.765519,0.4241 0.278242,0.1305 0.554921,0.2655 0.823966,0.4139 0.251467,0.1508 0.50342,0.3004 0.721889,0.4962 0.234546,0.1837 0.349856,0.4658 0.538197,0.6863 0.200548,0.261 0.353004,0.5539 0.520784,0.8359 0.122932,0.1785 0.274415,0.3317 0.418215,0.4929 0.160147,0.16 0.324533,0.3162 0.480627,0.4805 0.169049,0.1285 0.351546,0.2431 0.524276,0.3691 0.22632,0.1455 0.465924,0.2657 0.707882,0.3827 0.263523,0.122 0.520437,0.2584 0.776252,0.3959 0.185422,0.1541 0.402423,0.2357 0.618232,0.3354 0.198955,0.1444 0.425402,0.2249 0.647426,0.3247 0.227985,0.06 0.453898,0.1272 0.68157,0.191 0.304803,0.043 0.596429,0.099 0.88125,0.2193 0.21285,0.095 0.427211,0.1926 0.647913,0.2691 0.235617,0.096 0.453818,0.2341 0.690742,0.3265 0.209982,0.076 0.408018,0.1647 0.629021,0.2028 0.249128,0.082 0.497888,0.1486 0.758944,0.1772 0.306434,0.043 0.586542,0.1663 0.87476,0.268 0.250198,0.045 0.495376,0.1072 0.742094,0.1709 0.290414,0.095 0.551923,0.2553 0.809411,0.4153 0.23629,0.141 0.446348,0.3224 0.642561,0.5139 0.177476,0.1539 0.3703,0.2883 0.560837,0.4259 0.200839,0.105 0.392705,0.233 0.612524,0.2954 0.25039,0.1169 0.516754,0.1846 0.779441,0.2665 0.280821,0.094 0.561823,0.186 0.843278,0.2783 0.278031,0.1073 0.576247,0.1233 0.864897,0.1845 0.29265,0.061 0.568676,0.1777 0.859899,0.2436 0.251901,0.096 0.503823,0.1718 0.771431,0.204 0.290237,0.082 0.589118,0.1271 0.880867,0.2019 0.262169,0.064 0.515485,0.1541 0.77298,0.2343 0.249891,0.041 0.485302,0.1352 0.732121,0.1879 0.30317,0.024 0.559271,0.1803 0.83052,0.2962 0.265167,0.075 0.532348,0.1436 0.795115,0.2267 0.336063,0.1016 0.677089,0.1745 1.003742,0.3058 0.247197,0.1207 0.517187,0.1735 0.776246,0.2631 0.225026,0.076 0.46303,0.088 0.69817,0.099 0.332624,-0.012 0.65605,0.028 0.981233,0.095 0.289025,0.031 0.569311,0.093 0.851084,0.1622 0.214855,0.024 0.459829,0.1073 0.675111,0.058 0.245441,-0.078 0.5176,-0.053 0.761205,-0.1272 0.300475,-0.095 0.611876,-0.1345 0.924609,-0.1593 0.335375,-0.02 0.671553,-0.019 1.007414,-0.02 0.328462,0 0.656921,8e-4 0.985381,10e-4 0.208283,-0.041 0.412873,-0.078 0.612561,-0.1478 0.32242,-0.1155 0.663223,-0.148 1.002625,-0.1677 0.3345,-0.015 0.669405,-0.014 1.004131,-0.014 0.269955,0.028 0.523739,-0.043 0.786592,-0.088 0.278275,-0.02 0.544673,-0.068 0.815344,-0.1304 0.276371,-0.036 0.542769,-0.093 0.812581,-0.1589 0.251671,-0.1362 0.535665,-0.1931 0.815891,-0.2346 0.282666,0 0.550593,-0.08 0.826304,-0.1305 0.33485,-0.056 0.674757,-0.065 1.0134,-0.07 0.27232,0.026 0.528836,-0.045 0.794013,-0.093 0.276616,-0.016 0.53664,-0.1016 0.806106,-0.1573 0.336452,-0.062 0.67911,-0.07 1.020165,-0.078 0.240737,0 0.490298,-0.051 0.721493,-0.1194 0.239939,-0.044 0.448559,-0.1357 0.655375,-0.2562 0.255376,-0.1095 0.502136,-0.2322 0.75131,-0.3546 0.2294,-0.1439 0.465899,-0.2812 0.711306,-0.3968 0.290892,-0.097 0.591188,-0.1582 0.888565,-0.2346 0.255588,-0.025 0.482182,-0.1095 0.715708,-0.2068 0.300356,-0.094 0.589115,-0.217 0.893533,-0.2981 0.22086,-0.076 0.428531,-0.1773 0.645079,-0.2634 0.199523,-0.1313 0.439571,-0.1855 0.642149,-0.3099 0.224432,-0.1342 0.477545,-0.222 0.698854,-0.3605 0.211492,-0.093 0.403256,-0.2056 0.592533,-0.3337 0.220929,-0.1329 0.44574,-0.2568 0.67151,-0.3816 0.196249,-0.079 0.331583,-0.2009 0.49608,-0.3425 0.209773,-0.1374 0.420994,-0.2683 0.625693,-0.4128 0.222327,-0.1381 0.450925,-0.2629 0.680173,-0.389 0.256818,-0.1169 0.493255,-0.2681 0.752531,-0.3809 0.305354,-0.1155 0.604361,-0.23 0.926219,-0.2929 0.217212,-0.071 0.410997,-0.1856 0.628862,-0.2624 0.231898,-0.055 0.454817,-0.1387 0.671318,-0.2364 0.25075,-0.097 0.47617,-0.2436 0.723305,-0.3509 0.274458,-0.1039 0.52302,-0.2575 0.780399,-0.3961 0.19924,-0.1464 0.410864,-0.2749 0.610035,-0.4211 0.200648,-0.1774 0.424355,-0.3223 0.639374,-0.4804 0.209361,-0.1538 0.45653,-0.257 0.651657,-0.4298 0.167559,-0.1339 0.340386,-0.2708 0.482304,-0.4329 0.168737,-0.1375 0.297746,-0.3017 0.426318,-0.4725 0.175219,-0.1929 0.322601,-0.4038 0.471319,-0.6161 0.18472,-0.2269 0.347398,-0.4706 0.509812,-0.7135 0.186474,-0.2701 0.412996,-0.5124 0.649613,-0.7395 0.207387,-0.1207 0.3457,-0.303 0.508238,-0.4725 0.157073,-0.208 0.358815,-0.3651 0.560485,-0.5265 0.201778,-0.1308 0.379863,-0.2905 0.559291,-0.449 0.231112,-0.1856 0.483102,-0.3374 0.738844,-0.4859 0.151514,-0.1492 0.372281,-0.206 0.526683,-0.3503 0.205614,-0.1313 0.406842,-0.2647 0.604122,-0.4076 0.161463,-0.1444 0.330902,-0.2785 0.474746,-0.4417 0.227942,-0.2201 0.491319,-0.4034 0.762922,-0.5658 0.1775,-0.1369 0.382163,-0.2483 0.536649,-0.4128 0.202061,-0.2125 0.433779,-0.3894 0.657617,-0.5775 0.191784,-0.1194 0.33426,-0.2757 0.472934,-0.446 0.11653,-0.1937 0.266559,-0.3697 0.363557,-0.5745 0.144864,-0.2574 0.314822,-0.4996 0.469939,-0.7513 0.113232,-0.2081 0.221835,-0.4183 0.33325,-0.6277 0.139108,-0.1908 0.260543,-0.3933 0.339514,-0.6164 0.128658,-0.2841 0.246456,-0.5689 0.415526,-0.8321 0.138704,-0.1996 0.218209,-0.4303 0.320303,-0.6489 0.158731,-0.2694 0.334776,-0.5274 0.508604,-0.7868 0.09125,-0.2173 0.318833,-0.3531 0.418522,-0.5611 0.152097,-0.2085 0.265007,-0.4419 0.387942,-0.6687 0.125581,-0.2581 0.253787,-0.5152 0.386522,-0.7701 0.07241,-0.2402 0.257965,-0.4221 0.362865,-0.644 0.145548,-0.2235 0.257947,-0.4624 0.410916,-0.6816 0.125489,-0.1818 0.223535,-0.3794 0.333345,-0.5704 0.102857,-0.2304 0.234954,-0.4421 0.375806,-0.6511 0.114985,-0.1907 0.220793,-0.3859 0.327896,-0.5817 0.148588,-0.2119 0.305402,-0.4146 0.454843,-0.625 0.106333,-0.2077 0.23461,-0.4013 0.366441,-0.5942 0.133906,-0.2134 0.237147,-0.4409 0.374723,-0.6524 0.143775,-0.2096 0.261655,-0.4339 0.390261,-0.6523 0.10537,-0.2305 0.238066,-0.4433 0.379758,-0.6532 0.114842,-0.1903 0.22041,-0.3851 0.327298,-0.5804 0.11988,-0.1889 0.269691,-0.3682 0.35573,-0.5763 0.127931,-0.2623 0.257373,-0.5242 0.399244,-0.7791 0.08792,-0.1936 0.215837,-0.3702 0.272692,-0.5766 0.0633,-0.2488 0.249655,-0.4427 0.32333,-0.6849 0.120023,-0.2313 0.186155,-0.4812 0.281373,-0.7225 0.05902,-0.2393 0.128164,-0.4753 0.194252,-0.7132 0.1137,-0.2507 0.19226,-0.5128 0.29628,-0.7672 0.0675,-0.272 0.13634,-0.536 0.25686,-0.791 0.0978,-0.2017 0.19168,-0.4085 0.26565,-0.6205 0.0813,-0.253 0.1592,-0.5034 0.19984,-0.7664 0.0814,-0.3018 0.15069,-0.6053 0.25707,-0.8995 0.083,-0.2413 0.0873,-0.4982 0.1339,-0.7472 0.0737,-0.2511 0.10771,-0.5086 0.12613,-0.7688 0.0166,-0.3068 0.0161,-0.6143 0.0165,-0.9217 0.0443,-0.3265 0.0935,-0.6559 0.17258,-0.9761 0.0852,-0.233 0.11867,-0.476 0.13781,-0.7216 0.0179,-0.3049 0.0171,-0.6105 0.0175,-0.9157 -0.007,-0.3517 -0.01,-0.698 0.0561,-1.0444 0.0619,-0.2602 0.0831,-0.5265 0.0962,-0.7928 -0.0104,-0.3322 0.0307,-0.6551 0.0966,-0.9795 0.0567,-0.2857 0.0556,-0.5768 0.10025,-0.8639 0.0467,-0.2891 0.13758,-0.5646 0.22297,-0.8436 0.0552,-0.2664 0.0755,-0.5349 0.14074,-0.8001 0.067,-0.2474 0.0839,-0.5033 0.096,-0.7583 0.0109,-0.314 0.01,-0.628 0.01,-0.942 -3.9e-4,-0.327 -8.5e-4,-0.65392 -0.001,-0.98107 -2.1e-4,-0.32692 -2.2e-4,-0.65384 -2.3e-4,-0.98076 0.0229,-0.27206 -0.009,-0.52877 -0.0628,-0.79315 -0.0591,-0.2654 -0.15411,-0.51906 -0.205,-0.78875 -0.0132,-0.28244 -0.0954,-0.54987 -0.14903,-0.82577 -0.0294,-0.30987 -0.0792,-0.61264 -0.13735,-0.91811 -0.15103,-0.7945 0.97551,-1.00763 1.12655,-0.21302 l 0,0 c 0.0578,0.30446 0.11136,0.60767 0.13707,0.91665 0.0522,0.27838 0.13799,0.55066 0.15087,0.83559 0.0452,0.26246 0.15648,0.50449 0.20081,0.76696 0.0684,0.33776 0.10739,0.67382 0.0855,1.01948 2e-5,0.3267 3e-5,0.65351 2.3e-4,0.98009 2.4e-4,0.32726 7e-4,0.65441 0.001,0.98166 6e-5,0.3325 0.001,0.6653 -0.0112,0.9975 -0.0163,0.3292 -0.043,0.6588 -0.12833,0.9784 -0.0718,0.2845 -0.0714,0.5801 -0.15818,0.8624 -0.0732,0.2341 -0.15252,0.4615 -0.1894,0.7055 -0.071,0.2879 -0.0164,0.6038 -0.10552,0.8916 -0.0548,0.2694 -0.0875,0.5322 -0.0752,0.8095 -0.0164,0.3209 -0.0436,0.6417 -0.11621,0.9558 -0.0564,0.2723 -0.0312,0.5483 -0.0347,0.8255 -4.7e-4,0.3354 1.4e-4,0.6714 -0.0212,1.0062 -0.0262,0.3147 -0.0689,0.6283 -0.1738,0.9282 -0.0763,0.2153 -0.0623,0.4604 -0.13287,0.6797 -5.5e-4,0.3341 -2.3e-4,0.6687 -0.0196,1.0026 -0.0231,0.3099 -0.061,0.6184 -0.147,0.918 -0.0794,0.294 -0.043,0.6203 -0.1783,0.9039 -0.0823,0.2267 -0.12984,0.4613 -0.2032,0.6913 -0.0551,0.3345 -0.14858,0.6561 -0.25484,0.9775 -0.0957,0.2554 -0.20316,0.5079 -0.32353,0.7524 -0.14498,0.1608 -0.0886,0.5175 -0.21445,0.6992 -0.0876,0.2142 -0.14706,0.4385 -0.25409,0.6445 -0.0781,0.2749 -0.15011,0.5491 -0.23122,0.8228 -0.0906,0.2297 -0.15091,0.4701 -0.26855,0.6885 -0.0856,0.2268 -0.2084,0.4265 -0.30959,0.6441 -0.0938,0.2818 -0.23444,0.5392 -0.371666,0.8018 -0.137338,0.2206 -0.234399,0.4665 -0.355823,0.696 -0.109549,0.2228 -0.238871,0.4434 -0.388908,0.641 -0.124905,0.2254 -0.249052,0.4499 -0.38234,0.6704 -0.131844,0.1937 -0.248587,0.391 -0.348489,0.6045 -0.149627,0.2298 -0.262025,0.4848 -0.4256,0.7069 -0.158779,0.1895 -0.219988,0.4574 -0.375207,0.6533 -0.138686,0.2002 -0.262221,0.4062 -0.383549,0.6182 -0.128152,0.167 -0.239519,0.346 -0.378192,0.5045 -0.124931,0.2255 -0.249178,0.4499 -0.382338,0.6705 -0.12945,0.1905 -0.244428,0.3841 -0.340258,0.5952 -0.140281,0.2144 -0.236235,0.4589 -0.394856,0.6631 -0.1435,0.1549 -0.18192,0.3848 -0.323331,0.5428 -0.118608,0.2132 -0.272912,0.4028 -0.35771,0.6342 -0.136443,0.2609 -0.267983,0.5238 -0.39645,0.7887 -0.134102,0.2447 -0.258749,0.4976 -0.420666,0.7247 -0.138475,0.2106 -0.314511,0.3884 -0.446003,0.6033 -0.148066,0.2071 -0.27748,0.4274 -0.421911,0.6371 -0.135501,0.2646 -0.22358,0.5559 -0.405799,0.797 -0.14631,0.1648 -0.169029,0.4101 -0.290379,0.5913 -0.102042,0.2624 -0.222565,0.5314 -0.400946,0.7518 -0.123957,0.2311 -0.244906,0.4627 -0.370797,0.6929 -0.140752,0.2248 -0.290883,0.4436 -0.424711,0.6714 -0.144718,0.2711 -0.320188,0.5244 -0.496076,0.776 -0.188021,0.226 -0.381874,0.4403 -0.630317,0.6035 -0.20446,0.1662 -0.411731,0.3254 -0.59201,0.5192 -0.231942,0.2146 -0.487406,0.401 -0.751157,0.5749 -0.177929,0.1005 -0.344455,0.2237 -0.499845,0.354 -0.201904,0.2142 -0.420601,0.4087 -0.648127,0.5952 -0.18654,0.1325 -0.372135,0.2649 -0.568736,0.3812 -0.213282,0.1586 -0.447002,0.2808 -0.659731,0.4398 -0.191636,0.1095 -0.37933,0.219 -0.55393,0.3534 -0.197236,0.1715 -0.391417,0.3471 -0.610371,0.4915 -0.164854,0.1272 -0.321615,0.2542 -0.447527,0.4257 -0.175958,0.1705 -0.320132,0.3892 -0.54221,0.5056 -0.180572,0.1611 -0.341167,0.3496 -0.483456,0.5442 -0.169459,0.2503 -0.335268,0.504 -0.52685,0.7381 -0.16104,0.219 -0.308801,0.4468 -0.494334,0.6473 -0.156439,0.1985 -0.305525,0.4004 -0.50268,0.5625 -0.186608,0.1924 -0.384232,0.3764 -0.597437,0.5393 -0.224013,0.174 -0.465113,0.321 -0.705832,0.4708 -0.221531,0.155 -0.439911,0.3109 -0.647252,0.4858 -0.241601,0.1651 -0.479519,0.3342 -0.726314,0.4925 -0.288946,0.1533 -0.568627,0.3241 -0.875451,0.4415 -0.240944,0.096 -0.450892,0.2562 -0.697781,0.3399 -0.250505,0.1129 -0.509848,0.2117 -0.776848,0.2778 -0.268297,0.08 -0.498582,0.2644 -0.783415,0.3026 -0.242223,0.042 -0.4605,0.1413 -0.691332,0.2222 -0.226419,0.089 -0.422356,0.2393 -0.648218,0.3304 -0.192927,0.105 -0.385565,0.2078 -0.57241,0.3221 -0.183672,0.1272 -0.366776,0.2546 -0.56108,0.3641 -0.210461,0.1666 -0.416054,0.3555 -0.667034,0.4575 -0.195895,0.1061 -0.391213,0.2122 -0.582025,0.3269 -0.214414,0.144 -0.43201,0.278 -0.669275,0.3813 -0.232962,0.1271 -0.473031,0.2403 -0.707127,0.3651 -0.25597,0.1363 -0.52729,0.2378 -0.782668,0.3757 -0.259757,0.096 -0.506195,0.228 -0.774096,0.3051 -0.252859,0.062 -0.488067,0.1772 -0.738863,0.2462 -0.282701,0.1182 -0.566945,0.2248 -0.873819,0.2596 -0.232098,0.059 -0.462497,0.1207 -0.696971,0.1673 -0.240587,0.1016 -0.455344,0.2587 -0.683453,0.3836 -0.2239,0.1072 -0.442939,0.2271 -0.67615,0.3143 -0.292966,0.1709 -0.59815,0.3018 -0.931801,0.3722 -0.326463,0.085 -0.663984,0.1577 -1.002191,0.1603 -0.271736,0 -0.544892,0.012 -0.813614,0.054 -0.27946,0.055 -0.551331,0.1477 -0.837885,0.1634 -0.321527,0.055 -0.639971,0.1338 -0.96945,0.1095 -0.276756,0 -0.554674,0.014 -0.828773,0.052 -0.289498,0.052 -0.573964,0.1339 -0.870322,0.1377 -0.24733,0.033 -0.472734,0.1129 -0.701713,0.2124 -0.27507,0.068 -0.548668,0.1285 -0.830152,0.1631 -0.29017,0.068 -0.578983,0.122 -0.876545,0.1428 -0.326458,0.055 -0.649966,0.1347 -0.984515,0.105 -0.312785,-2e-4 -0.625723,0 -0.938325,0.012 -0.232517,0.014 -0.467629,0.027 -0.689146,0.105 -0.32068,0.1118 -0.654108,0.1795 -0.992277,0.212 -0.327466,-5e-4 -0.65493,-0 -0.982398,0 -0.307021,6e-4 -0.614313,-10e-5 -0.920952,0.017 -0.255376,0.019 -0.507831,0.053 -0.75255,0.1328 -0.298583,0.062 -0.603675,0.087 -0.902542,0.1511 -0.359247,0.027 -0.718731,0 -1.070472,-0.085 -0.26557,-0.067 -0.5271,-0.1221 -0.800301,-0.1509 -0.271045,-0.054 -0.535381,-0.086 -0.813963,-0.072 -0.343399,-0.018 -0.688534,-0.048 -1.015703,-0.1613 -0.282678,-0.097 -0.578637,-0.1548 -0.847809,-0.2906 -0.286517,-0.1368 -0.615155,-0.1541 -0.909709,-0.2708 -0.299729,-0.099 -0.612144,-0.1608 -0.908933,-0.2701 -0.20321,-0.093 -0.382435,-0.2106 -0.612959,-0.2245 -0.279608,-0.063 -0.547896,-0.1616 -0.830056,-0.2142 -0.244117,-0.078 -0.482947,-0.1629 -0.733035,-0.2226 -0.230057,-0.08 -0.490128,-0.072 -0.718164,-0.1691 -0.304581,-0.041 -0.604664,-0.1028 -0.888244,-0.225 -0.28873,-0.069 -0.564813,-0.1735 -0.853354,-0.2421 -0.319204,-0.086 -0.666168,-0.077 -0.974166,-0.2151 -0.272558,-0.094 -0.547714,-0.1814 -0.821039,-0.2712 -0.263858,-0.081 -0.53411,-0.149 -0.784581,-0.268 -0.332136,-0.1106 -0.640638,-0.2756 -0.937724,-0.4592 -0.241281,-0.1743 -0.485928,-0.3457 -0.704223,-0.5485 -0.126685,-0.1427 -0.289489,-0.2566 -0.449776,-0.3574 -0.14649,-0.1061 -0.313546,-0.1835 -0.471503,-0.2676 -0.282676,-0.072 -0.564923,-0.1327 -0.847992,-0.2036 -0.204564,-0.076 -0.399268,-0.1643 -0.614696,-0.2069 -0.28575,-0.034 -0.569883,-0.085 -0.839067,-0.1893 -0.299534,-0.059 -0.577052,-0.1641 -0.860674,-0.272 -0.217566,-0.094 -0.427368,-0.2038 -0.640233,-0.3067 -0.250301,-0.094 -0.496457,-0.1979 -0.739776,-0.3072 -0.145011,-0.1367 -0.532317,-0.06 -0.708638,-0.1553 -0.282029,-0.08 -0.56512,-0.1535 -0.841959,-0.2494 -0.22352,-0.1016 -0.463124,-0.1796 -0.659107,-0.3301 -0.232991,-0.1083 -0.481791,-0.1978 -0.679728,-0.366 -0.241134,-0.1303 -0.4826,-0.2605 -0.73232,-0.3735 -0.304002,-0.1476 -0.604986,-0.3018 -0.886252,-0.4901 -0.229755,-0.1698 -0.48132,-0.3132 -0.686437,-0.5138 -0.155692,-0.1779 -0.341178,-0.3291 -0.501267,-0.5032 -0.18575,-0.2176 -0.391328,-0.4189 -0.542696,-0.6643 -0.140605,-0.238 -0.270192,-0.484 -0.432457,-0.7079 -0.149334,-0.1937 -0.261574,-0.4168 -0.444354,-0.5819 -0.125244,-0.1233 -0.331488,-0.2133 -0.486298,-0.3181 -0.230471,-0.142 -0.487462,-0.242 -0.728121,-0.3651 -0.287449,-0.1333 -0.565046,-0.2911 -0.83404,-0.4578 -0.239751,-0.1315 -0.504256,-0.2122 -0.727238,-0.3733 -0.17835,-0.1539 -0.435123,-0.1922 -0.619856,-0.3392 -0.269943,-0.1449 -0.500504,-0.3302 -0.7256,-0.5356 -0.152635,-0.15 -0.367594,-0.2507 -0.488915,-0.4289 -0.196551,-0.1545 -0.396573,-0.3013 -0.557931,-0.495 -0.174299,-0.1638 -0.341142,-0.3358 -0.505415,-0.5093 -0.196981,-0.1985 -0.382377,-0.4108 -0.54269,-0.6402 -0.146062,-0.1956 -0.281799,-0.3988 -0.438439,-0.5864 -0.167074,-0.2061 -0.355871,-0.3886 -0.517463,-0.6016 -0.104781,-0.1922 -0.196749,-0.3915 -0.311618,-0.5779 -0.14284,-0.1994 -0.290658,-0.3918 -0.44656,-0.5827 -0.113183,-0.1807 -0.236384,-0.3478 -0.377201,-0.5081 -0.13981,-0.1752 -0.246429,-0.3732 -0.419594,-0.518 -0.152,-0.1745 -0.332502,-0.3237 -0.492479,-0.4906 -0.157682,-0.1809 -0.344016,-0.3362 -0.502418,-0.5169 -0.154397,-0.1901 -0.32278,-0.3688 -0.466346,-0.568 -0.09981,-0.215 -0.452552,-0.3531 -0.518784,-0.6063 -0.09255,-0.1881 -0.243223,-0.3433 -0.369395,-0.5089 -0.153604,-0.1591 -0.29991,-0.3274 -0.43792,-0.4985 -0.197253,-0.1784 -0.386589,-0.3655 -0.508059,-0.6056 -0.173852,-0.2203 -0.353498,-0.4356 -0.475651,-0.691 -0.08558,-0.2074 -0.234568,-0.3863 -0.3545918,-0.5741 -0.107088,-0.1944 -0.2133107,-0.3874 -0.3346148,-0.573 -0.1717829,-0.2329 -0.3415311,-0.4655 -0.4807286,-0.7201 -0.098546,-0.1706 -0.1974982,-0.3383 -0.3215213,-0.4912 -0.1733951,-0.1898 -0.3040356,-0.397 -0.4609222,-0.5972 -0.0917,-0.1685 -0.2927625,-0.2731 -0.3822289,-0.4473 -0.1899989,-0.1706 -0.372956,-0.3487 -0.5622786,-0.5201 -0.2214288,-0.1993 -0.4501186,-0.4177 -0.5763514,-0.6911 -0.1257835,-0.2029 -0.2440232,-0.4087 -0.3263445,-0.633 -0.1560046,-0.2352 -0.2956591,-0.476 -0.400705,-0.7384 -0.1330707,-0.2745 -0.255355,-0.5549 -0.370725,-0.8373 -0.0603,-0.2244 -0.189203,-0.4222 -0.2644699,-0.6416 -0.1126379,-0.2623 -0.2180389,-0.5261 -0.3442419,-0.7826 -0.091287,-0.2242 -0.1781794,-0.4508 -0.2597658,-0.6782 -0.1183973,-0.2309 -0.2318777,-0.4658 -0.3249496,-0.708 -0.094758,-0.2203 -0.1655755,-0.4479 -0.3052604,-0.6462 -0.1104166,-0.2464 -0.2774774,-0.4696 -0.32254,-0.7431 -0.072623,-0.2191 -0.1599231,-0.4344 -0.2488681,-0.6468 -0.1117344,-0.2468 -0.2033937,-0.5022 -0.2877656,-0.7593 -0.1123072,-0.2527 -0.2084045,-0.5107 -0.3158158,-0.7654 -0.1171287,-0.248 -0.2223095,-0.5038 -0.2965461,-0.7679 -0.085299,-0.2505 -0.1888616,-0.495 -0.2844306,-0.7415 -0.1069046,-0.2769 -0.1664837,-0.5622 -0.239193,-0.8484 -0.1050626,-0.2925 -0.1734014,-0.5948 -0.2417113,-0.8977 -0.031917,-0.2874 -0.108647,-0.5623 -0.1773328,-0.8426 -0.040639,-0.3316 -0.1237434,-0.657 -0.1396606,-0.9909 -0.018454,-0.2599 -0.052476,-0.5171 -0.1266729,-0.7678 -0.047577,-0.2513 -0.052815,-0.5101 -0.1363928,-0.754 -0.1105456,-0.3184 -0.1779762,-0.6493 -0.212401,-0.9846 -0.00174,-0.2986 -0.00283,-0.5976 -0.027031,-0.8953 -0.03054,-0.3043 -0.1049012,-0.6003 -0.1363371,-0.9043 -6.8226e-4,-0.3073 -5.1297e-4,-0.6147 -0.0173617,-0.9215 -0.0192946,-0.2735 -0.0578355,-0.5435 -0.12145927,-0.8105 -0.0388983,-0.3051 -0.0288184,-0.6122 -0.0644926,-0.9179 -0.0424696,-0.2988 -0.13916415,-0.5881 -0.15213153,-0.8907 -0.0317733,-0.3461 -0.10101701,-0.6859 -0.13640133,-1.0312 -0.001921,-0.329 -0.00464,-0.6584 -0.0284248,-0.9868 -0.0318383,-0.3874 -0.0932604,-0.7706 -0.13606935,-1.15663 0,-0.80873 1.1466171,-0.80873 1.1466171,0 z"
       inkscape:connector-curvature="0" />
    <path
       style="fill:#504416;fill-opacity:1;stroke:none"
       id="path3775"
       d="m 50.923998,948.61559 c 0.392059,0.0636 0.787974,0.0966 1.184283,0.1185 0.344119,0.0165 0.688699,0.0178 1.033135,0.0185 0.327296,1.8e-4 0.654591,-4.3e-4 0.981887,-7.3e-4 0.327362,-2.7e-4 0.654723,-3.2e-4 0.982086,-3.5e-4 0.327594,-2e-5 0.655189,-10e-6 0.982783,-10e-6 0.3639,-0.022 0.720083,0.0219 1.077871,0.0819 0.296729,0.0377 0.573573,0.15378 0.868123,0.20308 0.306429,0.03 0.609755,0.0385 0.912124,0.10171 0.27877,0.0686 0.566007,0.0745 0.847629,0.12421 0.253953,0.0727 0.513718,0.10815 0.776453,0.12693 0.353278,0.0345 0.685803,0.14591 1.021531,0.25158 0.267531,0.0481 0.529931,0.11153 0.793604,0.17822 0.290673,0.0415 0.577406,0.0991 0.865276,0.15767 0.265666,0.0924 0.526826,0.18034 0.806313,0.21655 0.26633,0.0708 0.529611,0.13869 0.804044,0.16753 0.322523,0.0166 0.640493,0.0207 0.958224,0.0838 0.318428,0.0384 0.608902,0.1594 0.898523,0.28907 0.243809,0.072 0.472958,0.18638 0.720188,0.24714 0.301529,0.0811 0.590157,0.19726 0.88525,0.29696 0.256869,0.0901 0.519132,0.16764 0.775491,0.25955 0.283677,0.0935 0.555295,0.20986 0.820263,0.34719 0.244233,0.0961 0.49038,0.18931 0.72822,0.30081 0.204414,0.0799 0.388013,0.20834 0.600668,0.26625 0.250283,0.0857 0.483543,0.21281 0.730585,0.30506 0.262498,0.066 0.493109,0.21312 0.745057,0.30661 0.242838,0.13495 0.507304,0.21369 0.763149,0.31837 0.274813,0.0665 0.526202,0.18074 0.770202,0.32132 0.191275,0.0708 0.370252,0.17158 0.56919,0.22116 0.284194,0.0936 0.546512,0.241 0.802973,0.39231 0.179107,0.0867 0.343457,0.20696 0.537152,0.25993 0.283891,0.12149 0.55214,0.27838 0.822395,0.4278 0.239276,0.0782 0.42128,0.26463 0.644339,0.37039 0.241997,0.13153 0.4834,0.26148 0.730081,0.38408 0.260609,0.17391 0.534206,0.32452 0.784424,0.51339 0.193757,0.16709 0.40108,0.3162 0.603378,0.4725 0.23523,0.16556 0.478325,0.3178 0.703339,0.4974 0.211365,0.16427 0.408583,0.34762 0.594812,0.53968 0.161903,0.11473 0.320842,0.23828 0.482729,0.35579 0.185179,0.17131 0.389092,0.32017 0.596204,0.46362 0.194895,0.17608 0.425458,0.3 0.633515,0.45925 0.207323,0.15528 0.398586,0.33269 0.579379,0.51786 0.162536,0.11446 0.321666,0.23828 0.483811,0.35602 0.170761,0.16387 0.350782,0.30831 0.539685,0.44775 0.173411,0.13294 0.352714,0.25184 0.540311,0.36418 0.198118,0.15349 0.394149,0.30391 0.59758,0.44854 0.186951,0.11472 0.386809,0.20661 0.579647,0.31125 0.209023,0.12409 0.411662,0.25701 0.621176,0.38094 0.240567,0.10679 0.438437,0.29244 0.642676,0.45568 0.162323,0.13701 0.332782,0.2554 0.514047,0.36615 0.169912,0.006 0.405332,0.49927 0.535258,0.53557 0.182118,0.0612 0.308503,0.43702 0.475726,0.4873 0.211758,0.17731 0.391279,0.39166 0.568379,0.60274 0.190864,0.13104 0.351416,0.30466 0.501619,0.48297 0.148214,0.16675 0.305946,0.3244 0.456358,0.48932 0.146198,0.21613 0.299474,0.42317 0.465013,0.62384 0.191806,0.23639 0.277842,0.53556 0.429278,0.79389 0.117972,0.24907 0.276359,0.47382 0.403459,0.71772 0.136136,0.22524 0.263631,0.45829 0.37149,0.69863 0.110657,0.17124 0.204639,0.35538 0.324386,0.52107 0.103106,0.16115 0.217039,0.32625 0.361481,0.45436 0.158732,0.17068 0.343072,0.30358 0.511864,0.4683 0.157608,0.16527 0.294793,0.3533 0.465607,0.5056 0.175069,0.19959 0.32512,0.41997 0.484195,0.63237 0.180223,0.12995 0.24147,0.38596 0.42258,0.50866 0.191487,0.19592 0.365452,0.40939 0.538935,0.62129 0.133077,0.22502 0.308518,0.41931 0.470147,0.62344 0.13511,0.23082 0.327769,0.4058 0.481732,0.62566 0.157593,0.23758 0.291295,0.49452 0.459601,0.72472 0.166371,0.22695 0.269699,0.4933 0.419059,0.72941 0.12271,0.19579 0.246339,0.39876 0.389866,0.5812 0.137939,0.22318 0.276896,0.44255 0.428645,0.65622 0.172367,0.22899 0.262918,0.49754 0.387357,0.75052 0.09935,0.25735 0.191349,0.51727 0.278521,0.77924 0.09597,0.21037 0.203548,0.41497 0.29497,0.62775 0.09922,0.23349 0.108902,0.50974 0.233368,0.73336 0.126203,0.2497 0.170422,0.52571 0.258866,0.78825 0.0661,0.27184 0.135532,0.53919 0.210822,0.80854 0.04454,0.22061 0.131583,0.42894 0.226548,0.63188 0.100615,0.2728 0.178817,0.55276 0.261494,0.83179 0.03076,0.22776 0.158863,0.40696 0.256753,0.60838 0.11736,0.25677 0.20363,0.52291 0.29663,0.78905 0.0809,0.29394 0.16914,0.58341 0.25735,0.87516 0.14629,0.26101 0.21114,0.55276 0.25528,0.84544 0.0999,0.22764 0.093,0.48826 0.17377,0.7189 0.0642,0.24932 0.17875,0.47645 0.25228,0.72356 0.10303,0.21544 0.15898,0.44673 0.24549,0.6684 0.053,0.2235 0.13277,0.42246 0.24619,0.61819 0.12925,0.27008 0.21662,0.55951 0.30588,0.8453 0.0647,0.31188 0.12106,0.62389 0.18525,0.93604 0.0573,0.29513 0.15754,0.57716 0.21063,0.87438 0.0508,0.34043 0.0548,0.68501 0.0584,1.02844 0.002,0.32875 5.2e-4,0.6575 -5e-5,0.98638 -5.6e-4,0.32668 -7e-4,0.65335 -7.9e-4,0.98 0.006,0.10386 -0.0146,0.37862 0.10988,0.44184 0.15538,0.18085 0.32598,0.34792 0.48799,0.52323 0.14233,0.1095 0.23331,0.26472 0.34317,0.40301 0.49528,0.6403 -0.41253,1.33873 -0.90781,0.69855 l 0,0 c -0.0915,-0.11944 -0.16056,-0.23932 -0.28439,-0.33291 -0.19045,-0.21561 -0.40583,-0.4091 -0.58047,-0.63916 -0.21214,-0.33268 -0.33848,-0.69404 -0.31498,-1.0949 9e-5,-0.32721 2.3e-4,-0.65442 7.9e-4,-0.98173 5.6e-4,-0.32409 0.002,-0.64829 10e-5,-0.97251 -0.003,-0.28202 -0.005,-0.56509 -0.0417,-0.84517 -0.0474,-0.28606 -0.15863,-0.55407 -0.2042,-0.84038 -0.0564,-0.27632 -0.11305,-0.55173 -0.15813,-0.82986 -0.0613,-0.20468 -0.13179,-0.40767 -0.20237,-0.60832 -0.14222,-0.24542 -0.25734,-0.49838 -0.32194,-0.77561 -0.0994,-0.25478 -0.16936,-0.51772 -0.27934,-0.76861 -0.0663,-0.24984 -0.20175,-0.47605 -0.2544,-0.73096 -0.0738,-0.28631 -0.116735,-0.57964 -0.204182,-0.86308 -0.0324,-0.24207 -0.110545,-0.46115 -0.218978,-0.68101 -0.08251,-0.27862 -0.169429,-0.55487 -0.244681,-0.83547 -0.07549,-0.22614 -0.14423,-0.45219 -0.247519,-0.66782 -0.114478,-0.25581 -0.282508,-0.49031 -0.320606,-0.77627 -0.06433,-0.22376 -0.134542,-0.44573 -0.199833,-0.66858 -0.121711,-0.26008 -0.229437,-0.5301 -0.292682,-0.81076 -0.06841,-0.2494 -0.137889,-0.49695 -0.192709,-0.74947 -0.07762,-0.23091 -0.118074,-0.4717 -0.221889,-0.69276 -0.1004,-0.24404 -0.181947,-0.4962 -0.241853,-0.75317 -0.09518,-0.24291 -0.235212,-0.46726 -0.32649,-0.71259 -0.07147,-0.22467 -0.154,-0.44626 -0.23519,-0.66711 -0.08351,-0.19353 -0.147888,-0.38831 -0.278071,-0.55885 -0.144636,-0.20651 -0.285016,-0.41421 -0.411181,-0.63214 -0.162373,-0.22319 -0.318395,-0.45381 -0.461424,-0.68946 -0.122348,-0.21725 -0.23186,-0.44171 -0.368792,-0.65066 -0.160778,-0.23602 -0.308078,-0.48213 -0.459187,-0.72414 -0.139321,-0.20014 -0.324997,-0.3603 -0.443964,-0.57466 -0.15556,-0.20128 -0.335466,-0.3896 -0.460702,-0.61155 -0.135094,-0.17267 -0.280501,-0.33937 -0.427107,-0.5013 -0.208936,-0.20671 -0.364158,-0.44971 -0.563002,-0.66565 -0.118777,-0.16336 -0.243144,-0.32387 -0.357637,-0.48849 -0.16636,-0.16451 -0.324011,-0.33838 -0.476022,-0.51573 -0.165125,-0.16394 -0.354588,-0.29612 -0.513244,-0.46966 -0.189723,-0.19443 -0.369363,-0.40248 -0.510326,-0.63535 -0.146718,-0.22854 -0.294453,-0.45704 -0.420508,-0.69813 -0.08905,-0.2235 -0.225923,-0.42761 -0.342643,-0.63717 -0.11427,-0.24097 -0.287344,-0.45152 -0.393184,-0.69791 -0.102563,-0.20071 -0.191181,-0.40865 -0.302922,-0.6043 -0.153936,-0.18849 -0.312036,-0.37751 -0.434151,-0.58781 -0.155592,-0.18231 -0.334915,-0.34425 -0.489351,-0.52795 -0.141566,-0.18926 -0.335895,-0.30904 -0.49889,-0.47964 -0.115519,-0.14635 -0.24377,-0.28721 -0.374851,-0.41699 -0.186002,-0.152 -0.334747,-0.33057 -0.496574,-0.50344 -0.161681,-0.13874 -0.306291,-0.30057 -0.430537,-0.46166 -0.219664,-0.13912 -0.431376,-0.28661 -0.632298,-0.45097 -0.165599,-0.14301 -0.308756,-0.27274 -0.505734,-0.35942 -0.199954,-0.1207 -0.394919,-0.24869 -0.595537,-0.36603 -0.221595,-0.1394 -0.478925,-0.22408 -0.690444,-0.38246 -0.173741,-0.13267 -0.358325,-0.24967 -0.520308,-0.397 -0.217217,-0.13393 -0.427936,-0.27487 -0.632397,-0.42667 -0.182719,-0.1426 -0.372685,-0.27383 -0.532959,-0.44274 -0.213291,-0.15975 -0.434588,-0.31106 -0.633461,-0.48853 -0.135186,-0.15453 -0.301068,-0.28418 -0.46197,-0.41012 -0.175731,-0.15988 -0.415245,-0.24082 -0.578415,-0.41797 -0.212632,-0.15097 -0.430265,-0.29976 -0.619009,-0.48008 -0.213822,-0.16015 -0.435786,-0.31188 -0.634509,-0.49053 -0.144388,-0.16463 -0.320192,-0.3033 -0.4893,-0.44107 -0.208762,-0.18519 -0.467682,-0.3054 -0.683947,-0.48178 -0.197474,-0.16106 -0.409293,-0.30566 -0.602434,-0.47177 -0.1763,-0.15647 -0.408822,-0.23496 -0.587608,-0.38887 -0.256468,-0.12823 -0.507107,-0.26375 -0.759527,-0.3993 -0.222491,-0.12395 -0.420976,-0.28402 -0.659743,-0.37879 -0.20411,-0.11357 -0.410162,-0.22323 -0.613254,-0.33759 -0.27934,-0.0937 -0.534363,-0.233 -0.790762,-0.37613 -0.155225,-0.10837 -0.334958,-0.18368 -0.505256,-0.26305 -0.290416,-0.0832 -0.564577,-0.20821 -0.838509,-0.33352 -0.200148,-0.11525 -0.405043,-0.1954 -0.631965,-0.25357 -0.248089,-0.10149 -0.507281,-0.17579 -0.741236,-0.30969 -0.252603,-0.0995 -0.488804,-0.23672 -0.751426,-0.30908 -0.219055,-0.0882 -0.429892,-0.19145 -0.650038,-0.27685 -0.268527,-0.087 -0.513364,-0.21779 -0.769668,-0.33354 -0.233336,-0.13408 -0.510999,-0.18501 -0.748752,-0.31118 -0.225832,-0.11708 -0.456736,-0.21503 -0.69975,-0.29327 -0.23479,-0.10487 -0.500778,-0.15402 -0.741067,-0.24709 -0.267196,-0.0929 -0.528307,-0.19712 -0.801878,-0.27181 -0.307299,-0.0829 -0.598811,-0.2082 -0.89969,-0.31028 -0.214655,-0.0963 -0.418763,-0.19159 -0.657948,-0.21174 -0.281456,-0.0596 -0.568011,-0.0373 -0.854045,-0.0675 -0.283155,-0.0319 -0.563978,-0.0799 -0.834738,-0.17132 -0.301727,-0.0427 -0.598803,-0.10826 -0.879969,-0.22907 -0.306348,-0.0625 -0.611245,-0.11941 -0.919689,-0.17014 -0.285265,-0.073 -0.56936,-0.13368 -0.85718,-0.19639 -0.250847,-0.08 -0.494938,-0.16896 -0.758663,-0.20092 -0.308891,-0.0234 -0.616405,-0.0614 -0.915379,-0.14581 -0.278495,-0.0744 -0.58643,-0.0324 -0.863723,-0.12757 -0.286807,-0.0631 -0.580521,-0.0447 -0.870614,-0.0936 -0.291847,-0.0525 -0.569218,-0.15197 -0.860104,-0.2017 -0.295918,-0.0496 -0.585923,-0.09 -0.887781,-0.066 -0.327555,0 -0.65511,-2e-5 -0.982664,10e-6 -0.327047,3e-5 -0.654095,8e-5 -0.981141,3.5e-4 -0.328578,3e-4 -0.657154,9.2e-4 -0.985732,7.3e-4 -0.364817,-9e-4 -0.729788,-0.002 -1.094253,-0.0203 -0.438029,-0.0245 -0.875599,-0.0616 -1.308877,-0.13234 -0.799749,-0.13295 -0.611246,-1.26102 0.188502,-1.12807 z"
       inkscape:connector-curvature="0" />
    <path
       style="fill:#504416;fill-opacity:1;stroke:none"
       id="path3777"
       d="m 25.091576,978.43876 c -0.332235,0.26787 -0.684161,0.50969 -0.996606,0.80146 -0.21512,0.19341 -0.436598,0.37974 -0.627888,0.59713 -0.236267,0.21676 -0.429001,0.473 -0.635468,0.71628 -0.158811,0.17877 -0.273401,0.36616 -0.328025,0.59781 -0.04916,0.27065 -0.04872,0.54703 -0.05116,0.82116 -0.01301,0.23471 0.06595,0.45858 0.138882,0.67836 0.116984,0.26829 0.302196,0.49961 0.472316,0.73571 0.26337,0.40865 0.292205,0.90524 -0.121049,1.23685 -0.06993,0.0558 -0.15912,0.0831 -0.238688,0.12461 -0.325711,0.10769 -0.653895,0.18507 -0.994421,0.22829 -0.255347,0.0947 -0.539879,0.0935 -0.795798,0.17872 0.122491,0.0246 0.144393,-0.20727 0.186302,-0.0428 0.08286,0.27255 0.190747,0.53433 0.26444,0.81026 0.03908,0.0843 0.05523,0.17599 0.110329,0.25152 0.390873,0.70852 -0.613702,1.25986 -1.004575,0.55134 l 0,0 c -0.08618,-0.16716 -0.163518,-0.3329 -0.215358,-0.5146 -0.07409,-0.29436 -0.209194,-0.56795 -0.277144,-0.86439 -0.09254,-0.58963 0.02367,-1.05739 0.634215,-1.29521 0.316285,-0.0797 0.640554,-0.12615 0.9563,-0.21038 0.235166,-0.0281 0.468551,-0.0751 0.692033,-0.14793 -0.107828,0.11447 -0.188652,0.2714 -0.1123,0.4269 0.01008,0.0207 -0.0051,-0.16637 -0.01593,-0.067 -0.236843,-0.33006 -0.488673,-0.65756 -0.629199,-1.04309 -0.1123,-0.33879 -0.211282,-0.68716 -0.196859,-1.04803 0.0034,-0.36927 0.0076,-0.74169 0.0894,-1.10376 0.110092,-0.39314 0.290576,-0.74132 0.564572,-1.04759 0.213314,-0.24563 0.405174,-0.51186 0.648208,-0.73091 0.218668,-0.24537 0.464212,-0.46255 0.709793,-0.68054 0.33589,-0.30555 0.700393,-0.57393 1.057451,-0.85357 0.633114,-0.50518 1.349401,0.38785 0.716287,0.89301 z"
       inkscape:connector-curvature="0" />
    <path
       style="fill:#504416;fill-opacity:1;stroke:none"
       id="path3779"
       d="m 31.266042,1022.8795 c 0.370224,0.1781 0.73922,0.3503 1.137992,0.4538 0.39762,0.099 0.792681,0.2092 1.190388,0.3089 0.298331,0.071 0.605104,0.087 0.910564,0.096 0.362897,0.012 0.725888,0 1.088829,0 0.498825,-0.038 0.817912,0.1643 1.181136,0.4718 0.268154,0.253 0.479442,0.5572 0.703709,0.848 0.229967,0.3123 0.495794,0.5875 0.766333,0.8637 0.259703,0.2902 0.552862,0.5415 0.852017,0.7892 0.225912,0.2419 0.50352,0.4218 0.755688,0.6332 0.161803,0.1456 0.330122,0.2728 0.514677,0.388 0.211208,0.079 0.422784,0.1624 0.628139,0.257 0.242604,0.132 0.493284,0.2442 0.749364,0.3477 0.313005,0.086 0.595892,0.2438 0.893715,0.3662 0.4712,0.207 0.574759,0.4998 0.744149,0.9413 0.05498,0.1616 0.04277,0.2269 0.196385,0.2544 0.174661,0.046 0.344462,-0.012 0.520477,-0.041 0.800502,-0.1285 0.982529,1.0008 0.182031,1.1292 l 0,0 c -0.386535,0.062 -0.768201,0.1207 -1.144725,-0.034 -0.409448,-0.1886 -0.709966,-0.4704 -0.831113,-0.917 -0.01884,-0.053 -0.04014,-0.105 -0.05654,-0.1581 -0.02847,-0.094 0.07829,-0.052 -0.05554,-0.1221 -0.292937,-0.1246 -0.574024,-0.2746 -0.88261,-0.3614 -0.278392,-0.1143 -0.552677,-0.2358 -0.817547,-0.3782 -0.234028,-0.1344 -0.518051,-0.1762 -0.746934,-0.3238 -0.225228,-0.1468 -0.439894,-0.3046 -0.641382,-0.4822 -0.239045,-0.2151 -0.526857,-0.3756 -0.740479,-0.6203 -0.329858,-0.2731 -0.652268,-0.5525 -0.940291,-0.8703 -0.301613,-0.3083 -0.596331,-0.6195 -0.854793,-0.9656 -0.175323,-0.2274 -0.34142,-0.4628 -0.536823,-0.6734 -0.177451,-0.1502 -0.173676,-0.2246 -0.43661,-0.2 -0.375204,9e-4 -0.750458,0 -1.12561,0 -0.388555,-0.014 -0.778126,-0.036 -1.156977,-0.1302 -0.402487,-0.1027 -0.802591,-0.2115 -1.20523,-0.3128 -0.47241,-0.1285 -0.916776,-0.3197 -1.355169,-0.5358 -0.725185,-0.3616 -0.212402,-1.3845 0.512781,-1.0229 z"
       inkscape:connector-curvature="0" />
    <path
       style="fill:#504416;fill-opacity:1;stroke:none"
       id="path3781"
       d="m 83.971725,1008.4647 c -0.235483,-0.1791 -0.493425,-0.3404 -0.762974,-0.4644 -0.228606,-0.087 -0.47534,-0.096 -0.717155,-0.1061 -0.47743,0 -0.829153,-0.091 -1.013579,-0.5993 -0.03108,-0.086 -0.0065,-0.1822 -0.0099,-0.2733 0.09398,-0.4158 0.359972,-0.7764 0.622899,-1.1061 0.202406,-0.2281 0.328406,-0.5007 0.45387,-0.774 0.170765,-0.2494 0.286765,-0.5209 0.39365,-0.8012 0.08737,-0.2497 0.104895,-0.514 0.118271,-0.7759 -0.01986,-0.1856 -0.134412,-0.3034 -0.225455,-0.4634 -0.182767,-0.3446 -0.227337,-0.7286 -0.251435,-1.1113 -0.04455,-0.2996 0.03617,-0.6178 -0.02528,-0.9139 -0.01247,-0.1906 -0.09209,-0.3309 -0.187978,-0.4853 -0.07238,-0.1872 -0.189442,-0.308 -0.324977,-0.4296 -0.202088,-0.1473 -0.371449,-0.33368 -0.56388,-0.49307 -0.414015,-0.38506 -0.414429,-0.78107 0.07022,-1.13971 0.07555,-0.0553 0.181718,-0.0508 0.267688,-0.0892 -0.01142,0 -0.02268,0 -0.03401,0 0.685904,-0.43112 1.297298,0.53632 0.611394,0.96755 l 0,0 c -0.06865,0.0373 -0.137305,0.0745 -0.205958,0.11176 -0.356104,0.11289 0.05225,0 0.114933,-0.26348 0.08252,-0.34137 0.01208,-0.34126 -0.118724,-0.5011 -0.01168,-0.0147 0.02535,0.0271 0.03802,0.0406 0.197596,0.17046 0.379724,0.35831 0.588587,0.51477 0.216817,0.19631 0.411648,0.40549 0.531582,0.67642 0.180295,0.29061 0.312091,0.59401 0.349807,0.93731 0.03625,0.3309 0.01891,0.6625 0.03312,0.9949 0.0122,0.2099 0.02136,0.4263 0.107351,0.6216 0.190014,0.3459 0.393878,0.6675 0.370054,1.0825 -0.02071,0.3814 -0.05839,0.764 -0.192698,1.1252 -0.116231,0.3002 -0.233148,0.6039 -0.421801,0.8681 -0.165939,0.3609 -0.34398,0.7157 -0.606669,1.019 -0.132151,0.1556 -0.2146,0.3505 -0.347764,0.5024 -0.0097,0.012 -0.02193,-0.06 -0.02085,-0.038 -0.131437,-0.5016 -0.629533,-0.3582 -0.07202,-0.3485 0.397052,0.017 0.796089,0.053 1.163739,0.2174 0.382602,0.1865 0.758162,0.4064 1.078711,0.6873 0.57331,0.5716 -0.237471,1.3804 -0.810781,0.8085 z"
       inkscape:connector-curvature="0" />
    <path
       style="fill:#504416;fill-opacity:1;stroke:none"
       id="path3783"
       d="m 64.576814,984.02412 c -0.222414,0.29895 -0.439417,0.59992 -0.654407,0.90376 -0.179777,0.28514 -0.445006,0.58222 -0.800716,0.63532 -0.107691,0.0156 -0.217748,0 -0.326621,0 -0.398746,-0.0597 -0.562029,-0.38768 -0.796745,-0.65686 -0.126593,-0.16419 -0.254323,-0.3355 -0.41049,-0.4736 -0.161852,-0.0312 -0.310619,-0.10645 -0.468569,-0.15419 -0.324894,-0.11421 -0.573348,-0.35911 -0.833343,-0.57464 -0.167189,-0.14428 -0.3425,-0.26961 -0.53056,-0.38529 -0.182813,-0.0917 -0.298878,-0.30972 -0.498943,-0.36386 -0.213253,-0.12589 -0.451818,-0.1862 -0.680746,-0.27612 -0.209206,-0.0288 -0.433658,-0.23756 -0.652055,-0.19762 0.207351,0.0657 0.279745,-0.22623 0.250127,0.0642 -0.01053,0.16528 -0.0063,0.0796 -0.0122,0.25725 -0.02937,0.80814 -1.175243,0.7667 -1.145865,-0.0414 l 0,0 c 0.0092,-0.23973 0.0024,-0.11874 0.02103,-0.36284 0.08394,-0.58718 0.300912,-1.00728 0.960376,-1.05851 0.350799,0.0357 0.67255,0.14546 0.998812,0.27482 0.239873,0.0943 0.492067,0.15813 0.715532,0.29046 0.245348,0.11433 0.456329,0.26614 0.656093,0.44657 0.22977,0.14663 0.45038,0.30295 0.658405,0.4787 0.142295,0.12356 0.286859,0.24745 0.435757,0.35684 0.322116,0.10273 0.657603,0.20644 0.922405,0.42268 0.183145,0.18174 0.357587,0.37445 0.510064,0.58259 0.0357,0.046 0.184,0.2154 0.210758,0.28017 0.0169,0.0415 -0.125308,-0.0831 -0.127359,-0.0389 -0.295681,0.0519 -0.173347,0.15186 0.01098,-0.1672 0.20072,-0.27709 0.391068,-0.56097 0.605032,-0.82856 0.417141,-0.69343 1.400357,-0.10498 0.983215,0.58839 z"
       inkscape:connector-curvature="0" />
    <path
       style="fill:#504416;fill-opacity:1;stroke:none"
       id="path3785"
       d="m 40.661657,996.27726 c -0.05843,0.12462 -0.14402,0.24688 -0.160763,0.38709 -0.0088,0.0734 0.02839,0.0576 0.03447,-0.001 0.12736,0.0553 0.262512,0.079 0.399218,0.0982 0.459505,0.0835 0.788847,0.33505 1.017655,0.73207 0.169595,0.35244 0.08644,0.72034 0.04132,1.08767 -0.0325,0.29091 -0.03821,0.58386 -0.04283,0.87624 -0.02381,0.22159 0.06595,0.31461 -0.01367,0.0802 0.01813,0 0.03625,0 0.05438,0 0.791369,0.17599 0.541963,1.29214 -0.249405,1.11634 l 0,0 c -0.07137,-0.018 -0.142734,-0.036 -0.214109,-0.053 -0.531774,-0.2368 -0.754746,-0.5818 -0.723736,-1.16733 0.0053,-0.33313 0.013,-0.66682 0.05128,-0.99803 0.0034,-0.0271 0.05193,-0.40798 0.05989,-0.41272 0.0079,0 0.01273,0.0282 0.01853,0.0203 0.0082,-0.0124 -0.0027,-0.026 -0.0043,-0.0372 0.09216,-0.0361 -0.150652,-0.11684 -0.175045,-0.12068 -0.490677,-0.0824 -0.940812,-0.24688 -1.226527,-0.6815 -0.0416,-0.096 -0.09715,-0.18615 -0.124736,-0.28662 -0.119608,-0.4353 0.06822,-0.86145 0.274988,-1.23431 0.417145,-0.69347 1.40036,-0.10499 0.983216,0.58837 z"
       inkscape:connector-curvature="0" />
    <path
       style="fill:#504416;fill-opacity:1;stroke:none"
       id="path3787"
       d="m 55.940571,1000.8153 c 0.188718,-0.5228 0.565163,-0.86966 1.060329,-1.0969 0.0069,-0.11684 0.338131,-0.0181 0.370573,-0.1375 0.0038,-0.0147 -0.03058,0 -0.04539,0 0.02298,-0.035 0.04599,-0.07 0.06898,-0.10498 0.123892,-0.34961 0.344679,-0.57381 0.668792,-0.74946 0.07009,-0.0237 0.140214,-0.0463 0.210315,-0.0689 0.777519,-0.22916 1.102574,0.86754 0.325055,1.0967 l 0,0 c -0.01381,0 -0.02775,0 -0.04163,0 -0.0099,-0.16922 -0.147806,0.3209 -0.201937,0.3417 -0.219832,0.3363 -0.488832,0.5955 -0.900715,0.6671 -0.204855,0.071 -0.345854,0.2029 -0.426588,0.4084 -0.256392,0.7672 -1.34417,0.4056 -1.087778,-0.3616 z"
       inkscape:connector-curvature="0" />
    <path
       style="fill:#504416;fill-opacity:1;stroke:none"
       id="path3789"
       d="m 53.987646,952.91008 c -0.0585,0.0858 -0.349064,0.39013 -0.241485,0.50618 0.04388,-0.14909 0.197964,0.12693 0.237594,0.16519 0.07266,0.0702 0.08769,0.0736 0.168812,0.12213 0.234739,0.16184 0.513673,0.22946 0.777723,0.32848 0.02282,0.0545 0.409974,0.0773 0.412598,0.11244 0.08251,1.10391 0.314087,0.96452 -0.138672,1.14976 -0.03812,0.031 0.02682,-0.001 0.02228,0.003 -0.0649,0.0868 -0.102914,0.0799 -0.122737,0.17708 -0.11466,0.19322 -0.164989,0.39622 -0.191113,0.61597 0.04859,0.0979 0.0135,0.28311 0.117076,0.35168 0.07465,0.1434 0.0884,0.10351 0.226633,0.12498 0.274666,0.0326 0.55208,0.0294 0.82822,0.0296 0.328035,-9.2e-4 0.65607,-0.002 0.984106,-0.003 0.270212,0.0278 0.524134,-0.0441 0.787119,-0.0905 0.798511,-0.14014 0.997224,0.98618 0.198712,1.12633 l 0,0 c -0.325904,0.0567 -0.64873,0.13602 -0.982868,0.10781 -0.32947,8.6e-4 -0.658939,0.002 -0.988408,0.003 -0.352719,-4.4e-4 -0.707687,0.002 -1.057011,-0.0528 -0.40633,-0.0905 -0.768408,-0.26215 -0.972929,-0.64577 -0.191427,-0.33981 -0.297774,-0.70174 -0.27808,-1.09584 0.04144,-0.31057 0.106107,-0.61854 0.263164,-0.89421 0.154132,-0.35337 0.383685,-0.64811 0.73891,-0.82004 0.383073,-0.14627 0.07014,-0.0496 0.209615,0.99877 6.27e-4,0.006 -0.0083,-0.006 -0.01301,-0.007 -0.0351,-0.009 -0.07065,-0.0168 -0.105902,-0.0257 -0.05904,-0.0147 -0.118478,-0.0279 -0.176961,-0.0445 -0.05537,-0.0158 -0.109639,-0.0353 -0.164454,-0.0529 -0.347265,-0.13033 -0.709915,-0.22974 -1.014787,-0.45051 -0.308276,-0.21637 -0.656941,-0.51355 -0.81359,-0.86806 -0.04923,-0.11131 -0.06571,-0.2345 -0.09854,-0.35174 0.02304,-0.55137 0.200924,-0.92527 0.57721,-1.3307 0.573308,-0.57182 1.38409,0.23685 0.810781,0.80866 z"
       inkscape:connector-curvature="0" />
    <path
       style="fill:#504416;fill-opacity:1;stroke:none"
       id="path3791"
       d="m 75.190885,1036.956 c -0.180865,-0.3532 -0.387977,-0.6916 -0.555699,-1.0518 -0.108767,-0.2135 -0.218186,-0.4239 -0.389243,-0.5938 -0.217552,-0.159 -0.461913,-0.2744 -0.69208,-0.4135 -0.411492,-0.2016 -0.630311,-0.5513 -0.749221,-0.9784 -0.02729,-0.2981 -0.103809,-0.5856 -0.156601,-0.8795 -0.14106,-0.7963 0.98807,-0.9953 1.129131,-0.1989 l 0,0 c 0.04629,0.2664 0.123568,0.5274 0.139255,0.7986 0.02749,0.1629 0.06036,0.2063 0.239678,0.2851 0.30658,0.1951 0.651736,0.3343 0.91551,0.5931 0.254099,0.2686 0.447498,0.5764 0.605632,0.9103 0.18072,0.3991 0.435059,0.7609 0.601417,1.1672 0.256391,0.7672 -0.831386,1.1288 -1.087777,0.3616 z"
       inkscape:connector-curvature="0" />
    <path
       style="fill:#554400;fill-opacity:1;stroke:none"
       id="path3793"
       d="m 7.0231743,1009.2004 c -0.035806,0 -0.4931815,-0.02 -0.4188702,0.113 -7.793e-4,0.012 -0.010506,0.026 -0.00233,0.034 0.00633,0 0.013298,-0.018 0.021459,-0.016 0.00727,0 0.048759,0.3585 0.051687,0.3836 0.099616,0.2574 0.1477577,0.5299 0.1828791,0.8023 0.00192,0.05 0.080963,0.3974 0.1184012,0.2839 0.208345,0.032 0.4189366,0.036 0.6293314,0.038 0.2621479,0 0.5178198,-0.079 0.777445,-0.1168 0.3364122,-0.043 0.6759631,-0.049 1.0146217,-0.052 0.3298441,0 0.659702,0 0.989552,-10e-4 0.316249,0.012 0.726266,-0.037 0.976836,0.2092 0.09142,0.089 0.142795,0.213 0.214192,0.3195 -0.02134,0.1701 0.01064,0.3558 -0.06404,0.5103 -0.14754,0.3054 -0.485521,0.3318 -0.768298,0.2765 -0.223783,-0.044 -0.380383,-0.2854 -0.501907,-0.4537 -0.183634,-0.302 -0.3060513,-0.6401 -0.421398,-0.9736 -0.059693,-0.2627 -0.2050119,-0.4957 -0.2117706,-0.7721 -0.00232,-0.095 0.016789,-0.1891 0.025184,-0.2836 0.064547,-0.2701 0.2234103,-0.4898 0.3651107,-0.7218 0.422887,-0.6899 1.401183,-0.094 0.978296,0.5963 l 0,0 c -0.05396,0.088 -0.124322,0.2396 -0.196684,0.3181 -0.0052,0 -0.009,-0.013 -0.01343,-0.018 -0.09024,-0.028 0.151164,0.4606 0.139189,0.5146 0.07599,0.2299 0.166769,0.4578 0.268816,0.6766 0.02004,0.028 0.047,0.053 0.06013,0.086 9.5e-5,3e-4 -0.133209,-0.059 -0.149032,-0.059 -0.120271,0 -0.249341,-0.014 -0.358593,0.041 -0.31367,0.1441 -0.225705,0.3594 -0.233885,0.6421 0.190759,0.2318 0.09827,0.194 0.306966,0.2636 0.02931,0.012 -0.05817,-0.024 -0.08902,-0.026 -0.109142,-0.014 -0.218937,0 -0.328081,-3e-4 -0.324729,-5e-4 -0.6494669,0 -0.9741912,10e-4 -0.2884307,0 -0.5776531,0.014 -0.8644348,0.042 -0.3193248,0.045 -0.6329476,0.1446 -0.9584262,0.1284 -0.3984965,0 -0.8042954,-0.014 -1.1728057,-0.1848 -0.4756313,-0.303 -0.6086437,-0.6007 -0.6958705,-1.1399 -0.03329,-0.2783 -0.1146316,-0.5416 -0.1840859,-0.8123 -0.047743,-0.4112 -0.1103623,-0.816 0.1283336,-1.189 0.388518,-0.4903 0.7395876,-0.6127 1.3587232,-0.601 0.8107807,0 0.8107807,1.1436 0,1.1436 z"
       inkscape:connector-curvature="0" />
  </g>
</svg>
