<?xml version="1.0" encoding="UTF-8" standalone="no"?>
<!-- Created with Inkscape (http://www.inkscape.org/) -->

<svg
   xmlns:dc="http://purl.org/dc/elements/1.1/"
   xmlns:cc="http://creativecommons.org/ns#"
   xmlns:rdf="http://www.w3.org/1999/02/22-rdf-syntax-ns#"
   xmlns:svg="http://www.w3.org/2000/svg"
   xmlns="http://www.w3.org/2000/svg"
   xmlns:sodipodi="http://sodipodi.sourceforge.net/DTD/sodipodi-0.dtd"
   xmlns:inkscape="http://www.inkscape.org/namespaces/inkscape"
   width="208"
   height="208"
   id="svg3018"
   version="1.1"
   inkscape:version="0.48.5 r10040"
   sodipodi:docname="stone2.svg"
   inkscape:export-filename="C:\Users\narfman0\Desktop\stone2.png"
   inkscape:export-xdpi="90"
   inkscape:export-ydpi="90">
  <defs
     id="defs3020" />
  <sodipodi:namedview
     id="base"
     pagecolor="#ffffff"
     bordercolor="#666666"
     borderopacity="1.0"
     inkscape:pageopacity="0.0"
     inkscape:pageshadow="2"
     inkscape:zoom="3.0652721"
     inkscape:cx="92.746323"
     inkscape:cy="167.25244"
     inkscape:document-units="px"
     inkscape:current-layer="layer1"
     showgrid="false"
     inkscape:window-width="1405"
     inkscape:window-height="779"
     inkscape:window-x="53"
     inkscape:window-y="103"
     inkscape:window-maximized="0" />
  <metadata
     id="metadata3023">
    <rdf:RDF>
      <cc:Work
         rdf:about="">
        <dc:format>image/svg+xml</dc:format>
        <dc:type
           rdf:resource="http://purl.org/dc/dcmitype/StillImage" />
        <dc:title />
      </cc:Work>
    </rdf:RDF>
  </metadata>
  <g
     inkscape:label="Layer 1"
     inkscape:groupmode="layer"
     id="layer1"
     transform="translate(0,-844.36218)">
    <path
       sodipodi:type="arc"
       style="fill:#d3bc5f;fill-opacity:1;stroke:none"
       id="path2985"
       sodipodi:cx="32.042782"
       sodipodi:cy="32.223137"
       sodipodi:rx="31.776865"
       sodipodi:ry="31.51095"
       d="m 63.819647,32.223137 a 31.776865,31.51095 0 1 1 -63.55373018,0 31.776865,31.51095 0 1 1 63.55373018,0 z"
       transform="matrix(3.1823896,0,0,3.1992928,2.8005009,845.02623)" />
    <path
       style="fill:#504416;fill-opacity:1;stroke:none"
       id="path3765"
       d="m 102.61506,848.49453 c -0.8406,0.26801 -1.71247,0.40664 -2.56804,0.61609 -0.717969,0.13994 -1.43146,0.28755 -2.146388,0.44232 -0.664256,0.25285 -1.367164,0.34516 -2.05708,0.49321 -0.761793,0.18555 -1.53823,0.28508 -2.319259,0.34031 -0.499684,0.14846 -1.02606,0.18221 -1.528143,0.31266 -0.676175,0.19226 -1.372006,0.28135 -2.07113,0.33399 -0.678367,0.0405 -1.358254,0.0396 -2.037562,0.0407 -0.652864,-3.3e-4 -1.305728,-0.001 -1.958595,-0.002 -0.651289,-6.4e-4 -1.302583,-7e-4 -1.953875,-7.6e-4 -0.6516,-3e-5 -1.303205,-3e-5 -1.954806,0 -0.651647,0 -1.303293,0 -1.954936,0 -0.542474,-0.0452 -1.054266,0.0182 -1.58149,0.12458 -0.650578,0.13221 -1.314244,0.16676 -1.976065,0.18868 -0.550399,-0.0323 -1.071602,0.0309 -1.606839,0.13816 -0.440375,0.0297 -0.8141,0.14408 -1.192312,0.34357 -0.428152,0.2062 -0.843136,0.43824 -1.260354,0.6672 -0.524262,0.20825 -0.996203,0.51176 -1.469206,0.81244 -0.426231,0.20799 -0.775408,0.52074 -1.133024,0.8303 -0.467895,0.3243 -0.957144,0.62469 -1.456206,0.90114 -0.459432,0.30843 -0.943654,0.59014 -1.444827,0.82666 -0.433959,0.27042 -0.848401,0.54297 -1.325689,0.73874 -0.439701,0.24435 -0.928181,0.36636 -1.393737,0.54865 -0.502674,0.11734 -0.960396,0.32454 -1.426759,0.5373 -0.624329,0.26098 -1.260117,0.48981 -1.896831,0.71879 -0.534161,0.29999 -1.11969,0.487 -1.695964,0.68799 -0.637969,0.19769 -1.271828,0.40765 -1.904255,0.62267 -0.596362,0.22294 -1.174327,0.48677 -1.767411,0.71696 -0.451928,0.14742 -0.929825,0.30709 -1.325474,0.57732 -0.592104,0.36266 -1.224374,0.64132 -1.890882,0.8344 -0.477317,0.17912 -0.904431,0.43986 -1.386162,0.61492 -0.523329,0.24099 -1.109598,0.32555 -1.621047,0.59165 -0.509178,0.20103 -0.973438,0.48471 -1.454323,0.74226 -0.502424,0.23016 -0.987436,0.51497 -1.451595,0.81515 -0.448573,0.22346 -0.872259,0.47103 -1.285021,0.75116 -0.312504,0.31903 -0.67939,0.5696 -1.030022,0.8442 -0.242742,0.27923 -0.499289,0.56299 -0.735672,0.8562 -0.289187,0.37477 -0.526366,0.76911 -0.725338,1.19815 -0.303255,0.55222 -0.635405,1.08551 -0.973912,1.61627 -0.20449,0.44379 -0.383076,0.90033 -0.594778,1.34134 -0.243362,0.52891 -0.631649,0.97098 -0.955609,1.44955 -0.342469,0.48613 -0.758627,0.91053 -1.141697,1.36259 -0.353673,0.42061 -0.769906,0.78035 -1.13752,1.18834 -0.426138,0.40998 -0.84116,0.82914 -1.291206,1.21356 -0.399982,0.31548 -0.851294,0.58234 -1.20856,0.9483 -0.324167,0.29982 -0.671867,0.58519 -0.96252,0.91896 -0.331164,0.30589 -0.701825,0.52276 -0.972293,0.88411 -0.290704,0.42179 -0.603541,0.82739 -0.911195,1.23774 -0.354552,0.37027 -0.612695,0.80914 -0.916025,1.22149 -0.258993,0.39065 -0.488288,0.79558 -0.716602,1.2051 -0.313913,0.45172 -0.631945,0.89914 -0.940327,1.35429 -0.243803,0.47136 -0.619836,0.86193 -0.954708,1.27106 -0.300849,0.40241 -0.639227,0.77851 -0.995503,1.13315 -0.323452,0.33955 -0.650842,0.6771 -0.993208,0.99834 -0.35991,0.39649 -0.754599,0.75445 -1.189855,1.0676 -0.357765,0.34181 -0.666118,0.72051 -1.053373,1.0371 -0.369701,0.22937 -0.598458,0.55309 -0.890087,0.86337 -0.338859,0.4408 -0.636226,0.90901 -0.985182,1.3426 -0.299821,0.34386 -0.572942,0.6951 -0.817125,1.08016 -0.328561,0.40624 -0.580156,0.85724 -0.884116,1.28303 -0.217843,0.4203 -0.399151,0.85916 -0.610706,1.28301 -0.272323,0.39916 -0.46514,0.82353 -0.670194,1.25621 -0.232022,0.43817 -0.491154,0.85651 -0.696928,1.30924 -0.292193,0.50394 -0.550228,1.02335 -0.852118,1.52206 -0.286762,0.41188 -0.666834,0.7843 -0.877834,1.24456 -0.303497,0.56057 -0.681298,1.06395 -1.119876,1.52582 -0.309603,0.40304 -0.622434,0.80655 -0.959425,1.18998 -0.281216,0.34438 -0.481627,0.74058 -0.70628,1.12138 -0.252739,0.40082 -0.511623,0.79454 -0.754166,1.20224 -0.149654,0.43738 -0.50343,0.76576 -0.696674,1.17695 -0.188605,0.43407 -0.376635,0.87019 -0.5498,1.31231 -0.198601,0.56573 -0.575105,1.04999 -0.762297,1.61793 -0.237732,0.55869 -0.46299,1.11346 -0.790142,1.62713 -0.202734,0.33837 -0.372489,0.70678 -0.504153,1.08022 -0.251422,0.44723 -0.394327,0.93494 -0.588795,1.4066 -0.2787797,0.42135 -0.4492115,0.88749 -0.6556366,1.3443 -0.134725,0.52449 -0.3629497,1.00394 -0.6347706,1.47069 -0.1409503,0.37862 -0.3415068,0.73274 -0.4402291,1.12656 -0.1050713,0.48739 -0.2847591,0.94898 -0.3616806,1.44307 -0.1626988,0.57165 -0.3002597,1.1477 -0.5056878,1.7057 -0.1450311,0.49252 -0.1991694,0.99976 -0.3366003,1.49589 -0.1173741,0.56857 -0.3012984,1.12037 -0.5324287,1.65235 -0.2105087,0.42784 -0.2908193,0.8982 -0.4439037,1.3482 -0.1523406,0.56935 -0.3024267,1.14048 -0.5043543,1.69488 -0.1896126,0.5165 -0.420807,1.01676 -0.5517875,1.55258 -0.103208,0.53379 -0.2991998,1.03973 -0.3831639,1.57814 -0.018602,0.57706 -0.1880874,1.12887 -0.2929074,1.69254 -0.1704479,0.48917 -0.3188631,0.97218 -0.3807262,1.48688 -0.057682,0.62011 -0.032178,1.24151 -0.1062904,1.85982 -0.1234048,0.53479 -0.2012347,1.07476 -0.2398241,1.62167 -0.033546,0.60929 -0.033317,1.21986 -0.034738,1.82992 0.043167,0.68558 -0.033237,1.35208 -0.1683544,2.0222 -0.1054331,0.52473 -0.1279874,1.06032 -0.145109,1.59383 -0.01446,0.63197 -0.0126,1.2642 -0.012195,1.89616 -0.044923,0.54099 0.019635,1.0513 0.1266346,1.57683 0.034765,0.43145 0.2793797,0.75878 0.4638445,1.13609 0.2266257,0.29692 0.3558159,0.64693 0.4802041,0.9941 0.5157607,1.5214 -1.6452163,2.2477 -2.1609742,0.72629 l 0,0 c -0.077999,-0.27319 -0.2282006,-0.50516 -0.3792813,-0.74562 -0.2462046,-0.54254 -0.5911355,-1.04487 -0.639129,-1.66008 -0.136584,-0.6714 -0.21474378,-1.3392 -0.17204806,-2.02607 -4.0607e-4,-0.65722 -0.002413,-1.31444 0.0134287,-1.97167 0.021952,-0.65878 0.056516,-1.31934 0.188527,-1.96703 0.1062644,-0.52681 0.1688463,-1.03843 0.1237525,-1.58019 0.00161,-0.6629 0.00188,-1.32631 0.040635,-1.98816 0.0442,-0.59796 0.1164893,-1.19307 0.2565349,-1.77736 0.1265667,-0.59149 -0.023762,-1.22913 0.101694,-1.82579 0.072839,-0.55413 0.1760003,-1.10776 0.402287,-1.62322 0.1049897,-0.54613 0.2660743,-1.07631 0.2829874,-1.63611 0.1017212,-0.60361 0.2948587,-1.17707 0.4238934,-1.77295 0.1622084,-0.61857 0.4002325,-1.2075 0.6313707,-1.80286 0.2221053,-0.51368 0.295793,-1.08533 0.4751436,-1.61395 0.1787381,-0.52449 0.2708587,-1.07681 0.5334981,-1.57167 0.2313003,-0.39099 0.2749689,-0.88094 0.4051723,-1.30723 0.1552072,-0.55233 0.1864873,-1.13017 0.3931361,-1.67091 0.1564482,-0.42371 0.2478316,-0.86186 0.3959439,-1.2897 0.09719,-0.57294 0.2804357,-1.11548 0.4133166,-1.67839 0.1660305,-0.57629 0.4155253,-1.12095 0.6665694,-1.66438 0.2337543,-0.40126 0.3974502,-0.8139 0.5284509,-1.26447 0.1948299,-0.42955 0.3436805,-0.89155 0.6250409,-1.27354 0.1846271,-0.44764 0.3141147,-0.91842 0.5617989,-1.33802 0.2070215,-0.53655 0.4407115,-1.07379 0.7515976,-1.55826 0.2835262,-0.30037 0.3028543,-0.78079 0.5310924,-1.11736 0.2177913,-0.58619 0.5374354,-1.11393 0.7876434,-1.68536 0.208132,-0.52532 0.433391,-1.04147 0.663473,-1.55693 0.242537,-0.43094 0.554663,-0.81388 0.75052,-1.27131 0.247521,-0.40715 0.508748,-0.80393 0.757677,-1.20803 0.31553,-0.48708 0.5579,-1.02689 0.957267,-1.45966 0.371892,-0.39799 0.667461,-0.85692 1.028252,-1.26339 0.304982,-0.28662 0.51777,-0.63314 0.729936,-0.98997 0.26592,-0.48587 0.583948,-0.95719 0.950506,-1.37292 0.260975,-0.4235 0.472048,-0.8702 0.730505,-1.29443 0.218231,-0.46542 0.476099,-0.9068 0.718915,-1.35535 0.232307,-0.43494 0.41691,-0.89445 0.694225,-1.30377 0.290518,-0.49907 0.439532,-1.08104 0.778594,-1.55648 0.284309,-0.39622 0.52096,-0.82125 0.827712,-1.20046 0.297564,-0.45027 0.618153,-0.87893 0.969704,-1.28766 0.399209,-0.45505 0.667926,-1.01136 1.08429,-1.45477 0.371224,-0.39103 0.711203,-0.80525 1.163214,-1.10949 0.424347,-0.20488 0.665222,-0.91624 1.136514,-1.09772 0.36736,-0.23324 0.643918,-0.57598 0.951881,-0.87737 0.339981,-0.29313 0.632135,-0.64105 0.949531,-0.95728 0.315247,-0.27877 0.568419,-0.62753 0.829254,-0.95456 0.304695,-0.34946 0.610946,-0.68585 0.823296,-1.09743 0.274141,-0.39802 0.542126,-0.80154 0.835322,-1.18537 0.276867,-0.48925 0.555573,-0.97458 0.869658,-1.44155 0.309136,-0.41671 0.574538,-0.86777 0.933196,-1.24445 0.330868,-0.43258 0.653412,-0.86888 0.970086,-1.31209 0.315017,-0.36846 0.653428,-0.71785 1.058547,-0.98251 0.340197,-0.35705 0.698172,-0.69876 1.067805,-1.02512 0.40608,-0.37177 0.840918,-0.71367 1.294699,-1.02558 0.376141,-0.31976 0.719787,-0.67085 1.079499,-1.008 0.358399,-0.39515 0.757553,-0.74882 1.10548,-1.15213 0.335737,-0.3826 0.684726,-0.75176 0.987015,-1.16257 0.271301,-0.3902 0.589994,-0.75619 0.797963,-1.18319 0.28152,-0.48899 0.401458,-1.06758 0.710785,-1.54497 0.288701,-0.44958 0.567227,-0.90328 0.835109,-1.36597 0.281877,-0.58531 0.612252,-1.13526 1.009474,-1.65023 0.35356,-0.43776 0.726805,-0.85936 1.137856,-1.24504 0.38947,-0.28773 0.757953,-0.59053 1.124357,-0.91153 0.438154,-0.2949 0.883533,-0.5692 1.359376,-0.79939 0.51696,-0.31432 1.034526,-0.64151 1.585053,-0.89192 0.514717,-0.27024 1.011397,-0.57429 1.552788,-0.79156 0.600627,-0.2709 1.232063,-0.44557 1.845654,-0.68318 0.528405,-0.16211 0.970813,-0.53692 1.519673,-0.65677 0.467854,-0.12252 0.900344,-0.33739 1.314709,-0.58351 0.535456,-0.314 1.10241,-0.58963 1.701085,-0.76197 0.62221,-0.23222 1.22251,-0.52125 1.848404,-0.74616 0.627365,-0.2129 1.256532,-0.4205 1.888954,-0.61741 0.57123,-0.19794 1.139615,-0.39387 1.674252,-0.68033 0.577922,-0.20695 1.155044,-0.41338 1.722239,-0.64786 0.501766,-0.22784 1.000558,-0.4599 1.540276,-0.58532 0.47074,-0.18429 0.959593,-0.31045 1.405839,-0.55333 0.443938,-0.13345 0.76429,-0.52225 1.199643,-0.68583 0.460687,-0.19177 0.872834,-0.49486 1.297046,-0.75283 0.374844,-0.19949 0.730989,-0.43626 1.092793,-0.65465 0.437283,-0.35543 0.856978,-0.75072 1.366957,-1.00047 0.514327,-0.32581 1.028624,-0.66238 1.597589,-0.88813 0.428481,-0.23299 0.856575,-0.46623 1.2922,-0.68429 0.57093,-0.29981 1.162106,-0.50067 1.808071,-0.56207 0.656873,-0.13166 1.310196,-0.21031 1.982187,-0.18145 0.5351,-0.0181 1.072373,-0.0395 1.598778,-0.14484 0.673829,-0.13554 1.34397,-0.21264 2.033271,-0.16934 0.651642,0 1.303281,0 1.954916,0 0.651679,-10e-6 1.303356,-10e-6 1.955035,0 0.652038,4e-5 1.304071,1.3e-4 1.956108,7.4e-4 0.651066,7e-4 1.302131,0.001 1.953193,0.002 0.624094,-7.9e-4 1.248705,3.2e-4 1.872038,-0.0345 0.579438,-0.0415 1.154921,-0.11591 1.71431,-0.27915 0.627325,-0.14046 1.264629,-0.23942 1.894576,-0.3682 0.677312,-0.0461 1.349733,-0.13428 2.009769,-0.29742 0.687301,-0.14071 1.379144,-0.2482 2.042276,-0.49006 0.694491,-0.14949 1.387564,-0.29539 2.085227,-0.42825 0.796198,-0.19486 1.605998,-0.32764 2.391138,-0.56516 1.52998,-0.50783 2.25121,1.64667 0.72124,2.15449 z"
       inkscape:connector-curvature="0" />
    <path
       style="fill:#504416;fill-opacity:1;stroke:none"
       id="path3769"
       d="m 4.2530677,947.17386 c 0.1193308,0.69896 0.2036885,1.40311 0.2628872,2.10956 0.053031,0.71006 0.060027,1.42219 0.064262,2.13378 0.1101101,0.61368 0.2026819,1.22941 0.2615323,1.85031 0.039308,0.55824 0.2054964,1.09666 0.2885037,1.65131 0.1388582,0.5915 -0.00308,1.22758 0.1271038,1.81497 0.1437138,0.58505 0.2163452,1.18171 0.2607724,1.78171 0.038771,0.66188 0.038946,1.32554 0.040447,1.98844 0.1211398,0.51728 0.2036631,1.041 0.2592473,1.5691 0.05791,0.66366 0.061702,1.33069 0.065683,1.99639 0.081805,0.4155 0.1557244,0.82405 0.2958667,1.22246 0.2615779,0.5591 0.1918331,1.20021 0.3494901,1.77779 0.1724098,0.59539 0.2481144,1.20884 0.2943803,1.8248 0.038773,0.62304 0.1882697,1.23329 0.2664951,1.85369 0.180443,0.55104 0.2866743,1.11834 0.3550775,1.69259 0.1258438,0.42677 0.2105343,0.85768 0.3616297,1.27542 0.215312,0.50863 0.1929442,1.09331 0.4387588,1.58902 0.205936,0.52727 0.4176576,1.05175 0.6086706,1.58486 0.1203894,0.45274 0.3007328,0.88549 0.5006272,1.30795 0.2249465,0.52017 0.4195875,1.05007 0.6499533,1.56738 0.214538,0.46444 0.288433,1.00351 0.545318,1.44918 0.216835,0.50113 0.413706,1.01186 0.594751,1.52759 0.07978,0.45901 0.342086,0.82628 0.54322,1.23538 0.294413,0.41369 0.444475,0.90233 0.643692,1.36393 0.159961,0.4361 0.367632,0.85281 0.580452,1.26601 0.210691,0.50067 0.382411,1.01569 0.595261,1.51648 0.246901,0.4854 0.423312,1.0087 0.66056,1.49798 0.205756,0.52046 0.460204,1.01206 0.627653,1.54766 0.216396,0.42161 0.366351,0.8792 0.591414,1.29525 0.170293,0.4409 0.397372,0.83676 0.657642,1.22639 0.220894,0.4493 0.42374,0.89352 0.687686,1.31711 0.160115,0.35533 0.396825,0.61117 0.706791,0.85686 0.385376,0.33763 0.739763,0.71157 1.130147,1.04311 0.337398,0.4317 0.732428,0.79956 1.07327,1.22596 0.274644,0.34236 0.487196,0.703 0.776573,1.0175 0.355031,0.42234 0.64308,0.88722 0.923911,1.35972 0.232954,0.4376 0.524681,0.8303 0.820419,1.2255 0.300677,0.4493 0.564003,0.9177 0.827911,1.3888 0.299449,0.3938 0.557494,0.8329 0.7759,1.2775 0.172513,0.342 0.422721,0.6224 0.66211,0.9175 0.198857,0.3776 0.453282,0.6638 0.754946,0.9328 0.345845,0.3354 0.608673,0.7514 0.962971,1.0767 0.417959,0.4677 0.799305,0.9707 1.113169,1.5131 0.276212,0.3325 0.606133,0.6168 0.87828,0.9641 0.258846,0.3549 0.552713,0.6781 0.836894,1.0126 0.305697,0.318 0.624927,0.6237 0.928092,0.9449 0.328451,0.3202 0.660687,0.6377 0.976568,0.9709 0.399566,0.2913 0.587753,0.7694 0.915793,1.1214 0.332088,0.3893 0.631468,0.8004 0.911788,1.2295 0.302499,0.3234 0.54137,0.6941 0.81049,1.0442 0.316311,0.4191 0.484984,0.9294 0.763116,1.3687 0.289478,0.2165 0.5535,0.5728 0.806404,0.8708 0.331113,0.3927 0.606212,0.831 0.925474,1.2322 0.263577,0.3552 0.529818,0.7261 0.860649,1.0237 0.316833,0.3181 0.610127,0.6662 0.95094,0.96 0.279842,0.3344 0.609367,0.5943 0.953067,0.8521 0.327938,0.3726 0.738108,0.6431 1.111007,0.9662 0.318482,0.2498 0.582134,0.5659 0.95916,0.7315 0.494982,0.2916 1.018126,0.5161 1.49875,0.833 0.386897,0.2345 0.815715,0.3898 1.218377,0.6017 0.497969,0.2922 0.99039,0.6136 1.522704,0.8419 0.553454,0.2595 1.103802,0.5274 1.63896,0.8224 0.500199,0.299 1.00136,0.5963 1.43592,0.9852 0.466539,0.3647 0.695903,0.9247 1.070535,1.3628 0.398916,0.5185 0.702165,1.1 1.0359,1.6599 0.244525,0.3547 0.545844,0.6588 0.831876,0.9788 0.318551,0.3179 0.645536,0.6279 0.956024,0.9543 0.336257,0.2551 0.699263,0.4828 1.042843,0.733 0.450175,0.289 0.926775,0.5277 1.408057,0.7599 0.524176,0.2423 1.035208,0.5132 1.544053,0.7863 0.368826,0.3059 0.800466,0.468 1.229736,0.666 0.395742,0.2867 0.846173,0.4466 1.287803,0.6448 0.453489,0.1176 0.902856,0.2525 1.355721,0.3791 0.606287,0.084 1.186363,0.1984 1.752906,0.4354 0.42338,0.1883 0.849769,0.3827 1.28877,0.5347 0.46867,0.1908 0.902695,0.4648 1.373965,0.6482 0.417675,0.1495 0.811592,0.327 1.251193,0.4026 0.495544,0.1649 0.990357,0.2953 1.509625,0.3522 0.609531,0.083 1.166701,0.3301 1.739996,0.5321 0.497674,0.09 0.98536,0.214 1.476109,0.3394 0.57767,0.1883 1.097839,0.5071 1.610011,0.8247 0.470009,0.28 0.887838,0.6403 1.27813,1.0203 0.353016,0.3057 0.736567,0.5725 1.115566,0.8461 0.399493,0.2087 0.781136,0.4626 1.21838,0.5866 0.498054,0.2319 1.027881,0.3665 1.550396,0.529 0.558584,0.1857 1.117529,0.3693 1.677376,0.5528 0.553034,0.2137 1.146221,0.2446 1.72038,0.3662 0.582111,0.1204 1.131158,0.353 1.710436,0.484 0.501058,0.1907 1.002161,0.341 1.534463,0.4047 0.577314,0.1651 1.171823,0.2527 1.752142,0.401 0.521486,0.1294 1.025362,0.3064 1.537548,0.4655 0.497062,0.079 0.96532,0.2684 1.45627,0.3731 0.603038,0.045 1.112454,0.3581 1.652,0.5883 0.527446,0.147 1.058901,0.2852 1.581573,0.4501 0.668467,0.201 1.346807,0.3465 1.996558,0.6072 0.491703,0.2396 1.028741,0.3446 1.54404,0.5224 0.447603,0.1495 0.921022,0.1753 1.388739,0.1984 0.661626,-0.026 1.30496,0.058 1.951782,0.1882 0.574905,0.061 1.132426,0.1831 1.692903,0.3223 0.42737,0.045 0.91465,0.214 1.34287,0.1138 0.48821,-0.1548 1.02957,-0.106 1.51413,-0.2526 0.59767,-0.1881 1.21709,-0.2671 1.83915,-0.3163 0.6671,-0.042 1.33579,-0.038 2.00386,-0.042 0.65335,0 1.30669,0 1.96004,0 0.41429,-0.079 0.82124,-0.1547 1.21845,-0.2936 0.64133,-0.2294 1.31922,-0.2939 1.99433,-0.3329 0.66536,-0.027 1.33153,-0.026 1.99734,-0.026 0.53696,0.056 1.04178,-0.086 1.56461,-0.1753 0.55353,-0.042 1.08342,-0.1335 1.62181,-0.2587 0.54974,-0.072 1.07964,-0.1831 1.61632,-0.3157 0.5006,-0.2704 1.0655,-0.3833 1.6229,-0.4659 0.56225,0 1.09519,-0.1596 1.64361,-0.2592 0.66606,-0.1117 1.34218,-0.1294 2.01577,-0.1391 0.54168,0.052 1.05191,-0.09 1.57938,-0.1829 0.55023,-0.032 1.06743,-0.2012 1.60343,-0.3126 0.66925,-0.1242 1.35084,-0.1391 2.02923,-0.1546 0.47886,0 0.97527,-0.099 1.43513,-0.2371 0.47727,-0.088 0.89224,-0.2692 1.30361,-0.5088 0.50798,-0.2165 0.99881,-0.4611 1.49444,-0.704 0.45632,-0.2858 0.92674,-0.5585 1.41487,-0.7879 0.57863,-0.1934 1.17595,-0.3143 1.76746,-0.466 0.5084,-0.05 0.95911,-0.2166 1.42362,-0.4106 0.59746,-0.1857 1.17181,-0.431 1.77734,-0.5922 0.43931,-0.1494 0.85241,-0.3518 1.28314,-0.5233 0.39688,-0.2604 0.87435,-0.368 1.27731,-0.615 0.44642,-0.2665 0.94988,-0.4409 1.39009,-0.7161 0.42069,-0.1829 0.80213,-0.4081 1.17862,-0.6625 0.43946,-0.2639 0.88663,-0.5101 1.33571,-0.7577 0.39036,-0.1572 0.65956,-0.3991 0.98676,-0.6801 0.41726,-0.2731 0.83742,-0.5331 1.24458,-0.8199 0.44223,-0.2743 0.89694,-0.5223 1.35294,-0.7725 0.51084,-0.232 0.98114,-0.5324 1.49687,-0.7565 0.60739,-0.2294 1.20214,-0.4566 1.84235,-0.5816 0.43206,-0.1418 0.81752,-0.3687 1.25089,-0.521 0.46126,-0.1117 0.90467,-0.2754 1.33531,-0.4696 0.49878,-0.1932 0.94716,-0.4838 1.43874,-0.6969 0.54592,-0.2061 1.04035,-0.5112 1.55231,-0.7863 0.39632,-0.2907 0.81725,-0.5462 1.21343,-0.8364 0.3991,-0.3524 0.84409,-0.64 1.27178,-0.9538 0.41645,-0.3057 0.9081,-0.5106 1.29622,-0.8537 0.33331,-0.2659 0.67706,-0.5376 0.95935,-0.8594 0.33564,-0.2731 0.59227,-0.5993 0.84801,-0.9385 0.34853,-0.383 0.64169,-0.8018 0.93749,-1.2234 0.36744,-0.4506 0.69102,-0.9344 1.01409,-1.4169 0.37092,-0.5365 0.82149,-1.0175 1.29215,-1.4686 0.41252,-0.2396 0.68764,-0.6017 1.01094,-0.9381 0.31243,-0.4132 0.71373,-0.7252 1.11488,-1.0455 0.40136,-0.2598 0.75557,-0.5772 1.11248,-0.8919 0.4597,-0.3686 0.96094,-0.67 1.46965,-0.9646 0.30137,-0.2965 0.7405,-0.4095 1.04762,-0.6958 0.409,-0.2608 0.80927,-0.5257 1.20167,-0.8094 0.32116,-0.287 0.65822,-0.5532 0.94433,-0.8774 0.45339,-0.4368 0.97729,-0.8008 1.51753,-1.1235 0.35307,-0.2717 0.76017,-0.493 1.06747,-0.8195 0.40191,-0.4222 0.86281,-0.7737 1.30807,-1.147 0.38147,-0.2372 0.66487,-0.5474 0.94071,-0.8856 0.2318,-0.3849 0.53023,-0.7343 0.72315,-1.141 0.28816,-0.511 0.62623,-0.992 0.93477,-1.4918 0.22524,-0.4133 0.44126,-0.8307 0.66287,-1.2466 0.2767,-0.3789 0.51827,-0.7809 0.67534,-1.224 0.25591,-0.5641 0.49023,-1.13 0.82652,-1.6524 0.27591,-0.3963 0.43405,-0.8546 0.63713,-1.2885 0.31573,-0.5351 0.6659,-1.0473 1.01167,-1.5626 0.18149,-0.4313 0.63419,-0.7013 0.83248,-1.1144 0.30254,-0.4138 0.52714,-0.8774 0.77166,-1.3276 0.2498,-0.5129 0.50482,-1.0232 0.76883,-1.5294 0.14406,-0.477 0.51313,-0.8382 0.72178,-1.2788 0.28952,-0.44386 0.51311,-0.91832 0.81737,-1.35374 0.24962,-0.36064 0.44464,-0.75331 0.66307,-1.13267 0.20459,-0.45743 0.46733,-0.87785 0.74751,-1.29275 0.22871,-0.37891 0.43918,-0.7665 0.65222,-1.15512 0.29556,-0.42098 0.60749,-0.82358 0.90473,-1.24153 0.21153,-0.4123 0.46666,-0.79674 0.7289,-1.1798 0.26635,-0.42369 0.4717,-0.87545 0.74536,-1.29564 0.28599,-0.41606 0.52046,-0.86148 0.77628,-1.29539 0.2096,-0.45758 0.47355,-0.8801 0.75538,-1.29681 0.22843,-0.37814 0.43841,-0.76496 0.65105,-1.15294 0.23844,-0.37492 0.53643,-0.73094 0.70756,-1.14428 0.25449,-0.52072 0.51196,-1.04078 0.79415,-1.54701 0.1749,-0.38447 0.42933,-0.73531 0.54242,-1.14512 0.126,-0.49404 0.49659,-0.8791 0.64314,-1.36007 0.23875,-0.45929 0.37027,-0.9557 0.55968,-1.43473 0.11737,-0.47528 0.25493,-0.94387 0.38639,-1.41623 0.22617,-0.49799 0.38244,-1.01845 0.58933,-1.5236 0.13432,-0.5402 0.27121,-1.06441 0.51093,-1.57082 0.19449,-0.40063 0.38128,-0.81112 0.52841,-1.23233 0.16169,-0.50224 0.31667,-0.99949 0.39751,-1.52188 0.16196,-0.59927 0.29972,-1.20216 0.51134,-1.78614 0.16506,-0.47945 0.17357,-0.98947 0.26634,-1.4838 0.1467,-0.49876 0.21437,-1.01005 0.2508,-1.52675 0.033,-0.60927 0.032,-1.21995 0.0328,-1.8302 0.0881,-0.64848 0.18598,-1.30267 0.34328,-1.93849 0.16943,-0.46291 0.23607,-0.94513 0.27409,-1.43293 0.0357,-0.60547 0.034,-1.21244 0.0349,-1.81863 -0.0155,-0.69821 -0.0206,-1.38611 0.11159,-2.07374 0.12312,-0.51677 0.1653,-1.04563 0.1914,-1.57451 -0.0206,-0.65954 0.061,-1.30079 0.19217,-1.94512 0.11284,-0.56729 0.11057,-1.1454 0.1994,-1.7155 0.0931,-0.57423 0.27366,-1.12115 0.44351,-1.67528 0.10978,-0.52913 0.15034,-1.06212 0.27994,-1.58868 0.13322,-0.4915 0.16685,-0.99976 0.19088,-1.50594 0.0206,-0.62347 0.0206,-1.24719 0.018,-1.87065 -7.7e-4,-0.6495 -0.001,-1.29874 -0.002,-1.94822 -4.1e-4,-0.64925 -4.5e-4,-1.29848 -4.8e-4,-1.94772 0.0455,-0.5402 -0.018,-1.05001 -0.12508,-1.57501 -0.1175,-0.52708 -0.30657,-1.03069 -0.4078,-1.56628 -0.0261,-0.56083 -0.18985,-1.09202 -0.29641,-1.63996 -0.0585,-0.61522 -0.15757,-1.21651 -0.27322,-1.82322 -0.30043,-1.5776 1.94042,-2.00081 2.24084,-0.42295 l 0,0 c 0.11502,0.60464 0.2216,1.20673 0.27265,1.8204 0.10388,0.55283 0.27446,1.09356 0.30009,1.65929 0.0899,0.52114 0.31127,1.00181 0.39943,1.52296 0.13614,0.6709 0.21363,1.33817 0.17023,2.02452 3e-5,0.64872 6e-5,1.2977 4.7e-4,1.94641 4.5e-4,0.64976 0.001,1.2995 0.002,1.94927 1.3e-4,0.6603 0.002,1.32114 -0.0231,1.98094 -0.0326,0.65362 -0.0855,1.30826 -0.2552,1.94281 -0.14283,0.56496 -0.14206,1.15209 -0.31464,1.71266 -0.14569,0.4647 -0.30337,0.91651 -0.37674,1.40105 -0.1413,0.57165 -0.0328,1.19899 -0.21001,1.7704 -0.10899,0.53504 -0.17409,1.05695 -0.14955,1.60747 -0.0328,0.6374 -0.0868,1.27452 -0.23116,1.89823 -0.11217,0.54074 -0.0622,1.08869 -0.0691,1.63945 -9.2e-4,0.666 2.8e-4,1.33302 -0.0421,1.99795 -0.0518,0.62498 -0.1369,1.24774 -0.3457,1.84313 -0.15188,0.42786 -0.12404,0.9144 -0.26428,1.34978 -0.001,0.66363 -4.8e-4,1.32811 -0.0389,1.99118 -0.0461,0.61526 -0.12142,1.22788 -0.29239,1.82298 -0.15782,0.58385 -0.0855,1.23178 -0.35466,1.7949 -0.16376,0.45026 -0.2583,0.91594 -0.40421,1.373 -0.10955,0.66419 -0.29554,1.3028 -0.5069,1.941 -0.19036,0.5071 -0.40408,1.00852 -0.64352,1.49408 -0.28838,0.3193 -0.17616,1.02757 -0.42657,1.38871 -0.1741,0.42523 -0.29252,0.87068 -0.50541,1.27964 -0.15549,0.54589 -0.29862,1.09054 -0.45993,1.63406 -0.18004,0.45596 -0.3002,0.93346 -0.53418,1.36731 -0.17047,0.45026 -0.41454,0.84686 -0.61583,1.2789 -0.18648,0.55982 -0.46632,1.07083 -0.73926,1.5922 -0.2732,0.43817 -0.46625,0.92642 -0.70777,1.38206 -0.21791,0.44245 -0.47515,0.88062 -0.77359,1.27313 -0.24846,0.44749 -0.4954,0.8933 -0.76051,1.33122 -0.26227,0.38462 -0.49447,0.77661 -0.69319,1.2003 -0.29762,0.45642 -0.52119,0.96303 -0.84658,1.40392 -0.31581,0.37634 -0.43758,0.90826 -0.74632,1.2971 -0.27587,0.39764 -0.52158,0.80712 -0.76292,1.22777 -0.25491,0.33176 -0.47644,0.68732 -0.75227,1.00193 -0.24851,0.44772 -0.49564,0.8933 -0.76051,1.33143 -0.2575,0.37846 -0.48619,0.7629 -0.67681,1.18208 -0.27905,0.42573 -0.46991,0.91124 -0.78542,1.31686 -0.28544,0.3075 -0.36185,0.7641 -0.64314,1.0776 -0.23593,0.4236 -0.54286,0.8001 -0.71154,1.2596 -0.27138,0.5181 -0.53303,1.0403 -0.78858,1.5663 -0.26673,0.4858 -0.51465,0.9882 -0.83674,1.439 -0.27545,0.4184 -0.62559,0.7714 -0.88715,1.1982 -0.29452,0.4111 -0.55195,0.8488 -0.83923,1.265 -0.26954,0.5255 -0.44471,1.104 -0.80717,1.5827 -0.29105,0.3274 -0.33623,0.8145 -0.57761,1.1741 -0.20296,0.5213 -0.44271,1.0556 -0.79753,1.4932 -0.24656,0.4588 -0.48714,0.9188 -0.73755,1.3758 -0.27996,0.4464 -0.5786,0.8812 -0.84481,1.3335 -0.28785,0.5382 -0.63689,1.0412 -0.98675,1.5409 -0.37399,0.4488 -0.75958,0.8744 -1.25376,1.1987 -0.40669,0.3297 -0.81898,0.6458 -1.17757,1.0308 -0.46137,0.426 -0.96951,0.7962 -1.49414,1.1418 -0.35392,0.1983 -0.68517,0.444 -0.99424,0.7029 -0.40163,0.4252 -0.83663,0.8115 -1.2892,1.1819 -0.37105,0.2633 -0.74023,0.526 -1.1313,0.7569 -0.42423,0.3151 -0.88914,0.5576 -1.31227,0.8736 -0.3812,0.2164 -0.75452,0.4346 -1.10183,0.7014 -0.39233,0.3409 -0.77857,0.6895 -1.21409,0.9762 -0.32793,0.2526 -0.63973,0.5048 -0.89019,0.8453 -0.34999,0.3386 -0.63678,0.773 -1.07851,1.0042 -0.35919,0.3199 -0.67864,0.6943 -0.96166,1.0806 -0.33706,0.4971 -0.66688,1.0008 -1.04795,1.4658 -0.32034,0.4348 -0.61426,0.8872 -0.98329,1.2853 -0.31119,0.3943 -0.60774,0.7951 -0.9999,1.1171 -0.37118,0.382 -0.76428,0.7474 -1.18837,1.0709 -0.44558,0.3456 -0.92517,0.6377 -1.40397,0.935 -0.44065,0.3077 -0.87503,0.6173 -1.28746,0.9647 -0.48059,0.3278 -0.95382,0.6637 -1.44472,0.978 -0.57475,0.3046 -1.13108,0.6437 -1.74138,0.8766 -0.47927,0.1909 -0.89687,0.5091 -1.38796,0.6751 -0.49829,0.2242 -1.01414,0.4203 -1.54525,0.5518 -0.53366,0.1599 -0.99171,0.525 -1.55829,0.6008 -0.48179,0.081 -0.91598,0.2806 -1.37513,0.4411 -0.45039,0.178 -0.84013,0.4753 -1.28938,0.6563 -0.38375,0.2088 -0.76694,0.4126 -1.13859,0.6398 -0.36534,0.2526 -0.72957,0.5054 -1.11605,0.7229 -0.41863,0.3309 -0.82757,0.7059 -1.32681,0.9085 -0.38966,0.2113 -0.77817,0.4213 -1.15771,0.6492 -0.4265,0.2859 -0.85932,0.5518 -1.33127,0.757 -0.46338,0.2526 -0.94092,0.4773 -1.40655,0.7252 -0.50916,0.2706 -1.04884,0.4722 -1.55683,0.7462 -0.51668,0.1907 -1.00686,0.4527 -1.53976,0.6057 -0.50295,0.1242 -0.97081,0.3518 -1.46967,0.4889 -0.56232,0.2346 -1.12773,0.4463 -1.73814,0.5154 -0.46166,0.1152 -0.91995,0.2399 -1.38635,0.3323 -0.47855,0.201 -0.90572,0.5139 -1.35946,0.7619 -0.44536,0.2139 -0.88105,0.4509 -1.34494,0.624 -0.58274,0.3393 -1.1898,0.5994 -1.85346,0.7391 -0.64937,0.1675 -1.32073,0.3132 -1.99347,0.3184 -0.54052,0 -1.08385,0.026 -1.61837,0.1083 -0.55588,0.1117 -1.09665,0.2933 -1.66664,0.3245 -0.63956,0.1117 -1.27298,0.2655 -1.92835,0.2165 -0.5505,0 -1.10332,0.026 -1.64853,0.1027 -0.57584,0.1038 -1.14168,0.266 -1.73116,0.2734 -0.49198,0.063 -0.94033,0.2243 -1.39579,0.4217 -0.54715,0.1333 -1.09137,0.2553 -1.65126,0.324 -0.57718,0.1334 -1.15168,0.2423 -1.74355,0.2834 -0.64937,0.1117 -1.29286,0.2676 -1.95832,0.2088 -0.62217,-5e-4 -1.24463,0 -1.86643,0.026 -0.46251,0.025 -0.93017,0.054 -1.37079,0.2087 -0.63787,0.2216 -1.3011,0.3565 -1.97375,0.421 -0.65137,-7e-4 -1.30274,0 -1.9541,0 -0.61071,0 -1.22194,-3e-4 -1.83188,0.034 -0.50798,0.038 -1.01014,0.106 -1.49691,0.2636 -0.59391,0.1242 -1.20078,0.1727 -1.79526,0.3003 -0.71458,0.054 -1.42964,0 -2.129288,-0.1675 -0.528251,-0.132 -1.048463,-0.2423 -1.591889,-0.2996 -0.539142,-0.1083 -1.064935,-0.1704 -1.619067,-0.1445 -0.683058,-0.036 -1.369571,-0.096 -2.020349,-0.3203 -0.562277,-0.1933 -1.150974,-0.3073 -1.686387,-0.5771 -0.569915,-0.2716 -1.22361,-0.3059 -1.809512,-0.5376 -0.596196,-0.1985 -1.217624,-0.3194 -1.807972,-0.5366 -0.404207,-0.1831 -0.760707,-0.4182 -1.219246,-0.4456 -0.556172,-0.1268 -1.089828,-0.3208 -1.651076,-0.4256 -0.485574,-0.1547 -0.960635,-0.3234 -1.458088,-0.442 -0.457608,-0.1597 -0.974922,-0.1444 -1.428511,-0.3358 -0.605845,-0.079 -1.202746,-0.2036 -1.766817,-0.4467 -0.574318,-0.1363 -1.123478,-0.3446 -1.69742,-0.4808 -0.634931,-0.17 -1.325083,-0.1519 -1.937726,-0.4273 -0.542148,-0.1856 -1.089464,-0.3603 -1.633138,-0.5383 -0.524844,-0.1623 -1.062405,-0.2959 -1.56062,-0.5323 -0.660657,-0.2191 -1.274303,-0.5475 -1.86524,-0.9117 -0.479935,-0.3462 -0.966567,-0.6868 -1.40078,-1.0895 -0.251991,-0.2832 -0.575826,-0.5095 -0.894654,-0.7096 -0.291385,-0.2113 -0.623681,-0.3644 -0.937876,-0.5315 -0.562272,-0.1442 -1.123695,-0.2637 -1.686751,-0.4044 -0.406901,-0.1493 -0.79419,-0.326 -1.222701,-0.4107 -0.568387,-0.068 -1.13356,-0.1675 -1.668996,-0.3761 -0.595808,-0.115 -1.147824,-0.3259 -1.71198,-0.54 -0.432765,-0.1855 -0.850083,-0.4046 -1.273498,-0.609 -0.497876,-0.1856 -0.987507,-0.393 -1.471496,-0.6102 -0.288441,-0.2713 -1.058841,-0.1176 -1.409562,-0.3084 -0.560988,-0.1597 -1.124088,-0.3049 -1.674752,-0.4952 -0.444605,-0.2009 -0.921206,-0.3567 -1.311039,-0.6553 -0.463444,-0.2164 -0.958335,-0.3931 -1.352054,-0.7271 -0.479643,-0.2587 -0.959946,-0.5172 -1.456668,-0.7415 -0.604696,-0.2933 -1.203387,-0.5995 -1.762859,-0.9735 -0.457006,-0.337 -0.957396,-0.6219 -1.365398,-1.0201 -0.309689,-0.3533 -0.678642,-0.6536 -0.997078,-0.9994 -0.369478,-0.4321 -0.778395,-0.8317 -1.079486,-1.3193 -0.279678,-0.4725 -0.53744,-0.961 -0.860204,-1.4055 -0.297042,-0.3848 -0.520301,-0.8277 -0.883872,-1.1557 -0.249121,-0.2449 -0.659365,-0.4236 -0.967298,-0.6317 -0.458437,-0.2819 -0.969618,-0.4806 -1.448318,-0.725 -0.571767,-0.2648 -1.12394,-0.5781 -1.659,-0.9091 -0.47689,-0.261 -1.003021,-0.4213 -1.446558,-0.7412 -0.354756,-0.3056 -0.865509,-0.3818 -1.232963,-0.6738 -0.536949,-0.2877 -0.995559,-0.6555 -1.443301,-1.0633 -0.303608,-0.2979 -0.731188,-0.4982 -0.972507,-0.8518 -0.390964,-0.3068 -0.788829,-0.5984 -1.10979,-0.9831 -0.346699,-0.3251 -0.678568,-0.6668 -1.005326,-1.0113 -0.391819,-0.3945 -0.760593,-0.8158 -1.079471,-1.2712 -0.290538,-0.3886 -0.56053,-0.792 -0.872108,-1.1647 -0.332327,-0.4093 -0.707865,-0.7717 -1.029289,-1.1946 -0.208417,-0.3816 -0.39136,-0.7772 -0.619846,-1.1473 -0.284126,-0.3963 -0.578151,-0.7782 -0.888258,-1.1574 -0.225128,-0.359 -0.470193,-0.6907 -0.750295,-1.0089 -0.278099,-0.3479 -0.490177,-0.7414 -0.83462,-1.0289 -0.302345,-0.3466 -0.661384,-0.6426 -0.979597,-0.9742 -0.313647,-0.3592 -0.684285,-0.6676 -0.999367,-1.0263 -0.307111,-0.3778 -0.642044,-0.7327 -0.927615,-1.1281 -0.198524,-0.4269 -0.900178,-0.7013 -1.031919,-1.2039 -0.18411,-0.3736 -0.483797,-0.6818 -0.734766,-1.0106 -0.305536,-0.3158 -0.596554,-0.6501 -0.871076,-0.99 -0.392356,-0.3542 -0.768968,-0.7258 -1.010586,-1.2025 -0.345809,-0.4376 -0.703148,-0.8651 -0.946124,-1.3724 -0.170214,-0.4117 -0.466581,-0.7672 -0.705323,-1.1399 -0.213014,-0.3861 -0.4243,-0.7693 -0.665586,-1.138 -0.341694,-0.4622 -0.679343,-0.9245 -0.956223,-1.4298 -0.196018,-0.3389 -0.392847,-0.6719 -0.639542,-0.9755 -0.344902,-0.3772 -0.604761,-0.7885 -0.916828,-1.18613 -0.182406,-0.33447 -0.582337,-0.54237 -0.760295,-0.88823 -0.377931,-0.33864 -0.741851,-0.69251 -1.118436,-1.03273 -0.440449,-0.39583 -0.895337,-0.82922 -1.146428,-1.37238 -0.250209,-0.40316 -0.485391,-0.81163 -0.649137,-1.25721 -0.310309,-0.4669 -0.588099,-0.94519 -0.797049,-1.46623 -0.264694,-0.54493 -0.50793,-1.10187 -0.737414,-1.66282 -0.119948,-0.44542 -0.376346,-0.83832 -0.52606,-1.27378 -0.224042,-0.52098 -0.433703,-1.04505 -0.684738,-1.55426 -0.181579,-0.44529 -0.354418,-0.89511 -0.516702,-1.347 -0.235512,-0.45836 -0.46123,-0.92487 -0.646361,-1.40561 -0.188476,-0.43765 -0.3293486,-0.88967 -0.6071991,-1.28348 -0.219626,-0.48917 -0.551935,-0.93248 -0.6415668,-1.47559 -0.1444628,-0.4351 -0.3181057,-0.8627 -0.4950278,-1.2846 -0.2222609,-0.48987 -0.4045735,-0.99712 -0.5723985,-1.50769 -0.2233973,-0.50183 -0.4145416,-1.01423 -0.628193,-1.52 -0.2329797,-0.49251 -0.4421992,-1.00046 -0.589865,-1.52494 -0.1696719,-0.49737 -0.3756669,-0.98308 -0.5657632,-1.4724 -0.2126516,-0.54978 -0.3311564,-1.11624 -0.4757814,-1.68493 -0.208985,-0.58092 -0.3449162,-1.18118 -0.4807925,-1.78267 -0.063485,-0.57064 -0.2161134,-1.11653 -0.3527349,-1.67326 -0.08084,-0.65822 -0.2461524,-1.30461 -0.2778008,-1.96782 -0.036709,-0.51601 -0.1043739,-1.0266 -0.2519649,-1.52453 -0.094644,-0.49892 -0.105043,-1.01311 -0.2712995,-1.49714 -0.2198834,-0.6325 -0.3540147,-1.28946 -0.4224917,-1.95546 -0.00335,-0.59278 -0.00564,-1.1866 -0.053783,-1.77785 -0.060751,-0.60439 -0.2086486,-1.19203 -0.2711911,-1.7959 -0.00135,-0.61006 -0.00102,-1.22064 -0.034536,-1.82992 -0.038383,-0.54306 -0.1150424,-1.07915 -0.2416063,-1.60956 -0.077382,-0.60568 -0.057319,-1.21575 -0.1282959,-1.82271 -0.084486,-0.5933 -0.2768144,-1.16779 -0.3026078,-1.76884 -0.063204,-0.68711 -0.200925,-1.36187 -0.271317,-2.0477 -0.00388,-0.65337 -0.00924,-1.30749 -0.056543,-1.95957 -0.063337,-0.76934 -0.1855061,-1.53018 -0.2706577,-2.29694 0,-1.60595 2.2807523,-1.60595 2.2807523,0 z"
       inkscape:connector-curvature="0" />
    <path
       style="fill:#504416;fill-opacity:1;stroke:none"
       id="path3775"
       d="m 102.58378,845.60953 c 0.77985,0.1264 1.56737,0.19201 2.35568,0.23531 0.68449,0.0328 1.3699,0.0353 2.05502,0.0369 0.65103,3.6e-4 1.30206,-8.6e-4 1.95308,-0.001 0.65116,-5.4e-4 1.30232,-6.7e-4 1.95348,-7e-4 0.65163,-7e-5 1.30325,-2e-5 1.95487,-2e-5 0.72383,-0.0439 1.43232,0.0434 2.144,0.16262 0.59024,0.0749 1.14091,0.30536 1.7268,0.40327 0.60953,0.0596 1.21287,0.0766 1.81432,0.20207 0.55451,0.13637 1.12586,0.14793 1.68603,0.24665 0.50514,0.14433 1.02185,0.2147 1.54445,0.25206 0.70272,0.0686 1.36415,0.28976 2.03194,0.4996 0.53216,0.0957 1.0541,0.22139 1.57857,0.35389 0.57818,0.0825 1.14853,0.19691 1.72114,0.31314 0.52844,0.18351 1.04791,0.35813 1.60384,0.43002 0.52976,0.14046 1.05346,0.27541 1.59934,0.33268 0.64154,0.0329 1.27401,0.0411 1.90602,0.16624 0.63339,0.0764 1.21117,0.31658 1.78726,0.57408 0.48496,0.14302 0.94077,0.37012 1.43253,0.49077 0.59978,0.16108 1.17389,0.39172 1.76087,0.58972 0.51093,0.17886 1.0326,0.33288 1.54253,0.51541 0.56427,0.18558 1.10455,0.41675 1.6316,0.68945 0.48581,0.19072 0.97541,0.37594 1.44851,0.59736 0.40661,0.15876 0.77181,0.41375 1.19479,0.52874 0.49785,0.17011 0.96184,0.42258 1.45322,0.60577 0.52214,0.13124 0.98085,0.42325 1.48201,0.60889 0.48303,0.26799 1.00909,0.42434 1.51799,0.63222 0.54664,0.13193 1.04668,0.35893 1.53202,0.63807 0.38047,0.14048 0.73646,0.34073 1.13218,0.4392 0.5653,0.18581 1.08707,0.47858 1.59721,0.77905 0.35628,0.17216 0.68316,0.411 1.06846,0.51618 0.56468,0.24125 1.09827,0.55281 1.63583,0.84953 0.47595,0.15543 0.83798,0.52553 1.28166,0.73556 0.48135,0.26115 0.96154,0.51923 1.45221,0.76268 0.51839,0.34538 1.0626,0.64443 1.56031,1.01951 0.38541,0.33181 0.7978,0.62793 1.20019,0.9383 0.4679,0.32878 0.95145,0.63108 1.39902,0.98775 0.42042,0.32622 0.81271,0.69032 1.18315,1.07171 0.32204,0.22786 0.6382,0.47318 0.9602,0.70653 0.36835,0.34019 0.77394,0.63581 1.18593,0.92067 0.38767,0.34966 0.84628,0.59574 1.26013,0.91198 0.41239,0.30841 0.79283,0.66066 1.15244,1.02837 0.3233,0.22733 0.63983,0.47321 0.96236,0.70703 0.33966,0.32538 0.69775,0.61221 1.0735,0.88914 0.34492,0.26399 0.70159,0.50009 1.07474,0.7232 0.39409,0.3048 0.78402,0.60348 1.18866,0.89072 0.37186,0.22783 0.7694,0.4103 1.15297,0.61809 0.41578,0.2464 0.81886,0.51037 1.2356,0.75648 0.47852,0.2121 0.8721,0.58074 1.27836,0.90487 0.32288,0.27211 0.66194,0.50718 1.02248,0.72714 0.338,0.0102 0.80627,0.99145 1.0647,1.06355 0.36224,0.12134 0.61365,0.86785 0.94627,0.96768 0.42122,0.35213 0.77831,0.77778 1.13058,1.19694 0.37964,0.26023 0.69899,0.60499 0.99777,0.95909 0.2948,0.33116 0.60856,0.64419 0.90774,0.97171 0.29081,0.4292 0.59569,0.84034 0.92498,1.23882 0.38152,0.46946 0.55266,1.06352 0.85387,1.57652 0.23466,0.49462 0.54973,0.94093 0.80253,1.42528 0.27079,0.44727 0.52439,0.9101 0.73895,1.38735 0.2201,0.34004 0.40703,0.70572 0.64523,1.03475 0.20508,0.32001 0.4317,0.64789 0.71902,0.90228 0.31573,0.33894 0.68241,0.60286 1.01815,0.92996 0.31351,0.32818 0.5864,0.7016 0.92616,1.00403 0.34822,0.39637 0.6467,0.83401 0.96311,1.2558 0.35849,0.25804 0.48031,0.76645 0.84056,1.01007 0.3809,0.38907 0.72693,0.813 1.072,1.23378 0.2647,0.44686 0.61368,0.83268 0.93517,1.23806 0.26876,0.45838 0.65198,0.80582 0.95822,1.24242 0.31348,0.47182 0.57945,0.98205 0.91421,1.4392 0.33092,0.45068 0.53645,0.97958 0.83354,1.44846 0.2441,0.38881 0.49001,0.79188 0.7755,1.15419 0.27437,0.44317 0.55078,0.87881 0.85262,1.30311 0.34287,0.45474 0.52298,0.98802 0.7705,1.4904 0.19762,0.51104 0.38062,1.0272 0.55401,1.54743 0.19091,0.41778 0.40488,0.82407 0.58673,1.2466 0.19737,0.46366 0.21663,1.01227 0.46419,1.45634 0.25105,0.49585 0.33899,1.04396 0.51492,1.56532 0.13146,0.53985 0.2696,1.07074 0.41935,1.60564 0.0886,0.43806 0.26172,0.85176 0.45063,1.25478 0.20012,0.54174 0.35569,1.09769 0.52014,1.65178 0.0613,0.45229 0.31601,0.80814 0.5107,1.20816 0.23352,0.5099 0.40506,1.03839 0.59004,1.56689 0.16093,0.58371 0.33644,1.15855 0.5119,1.73792 0.291,0.5183 0.41996,1.0977 0.50779,1.67889 0.19862,0.45206 0.18494,0.96959 0.34562,1.42759 0.12757,0.49511 0.35557,0.94615 0.50184,1.43687 0.20483,0.42786 0.31623,0.88713 0.48831,1.32734 0.10536,0.44382 0.2641,0.83893 0.48969,1.22761 0.25699,0.53634 0.43088,1.11108 0.60843,1.67863 0.12862,0.61932 0.24073,1.23893 0.36848,1.85878 0.11398,0.5861 0.31335,1.14615 0.41897,1.73637 0.10105,0.67604 0.10899,1.36032 0.1162,2.0423 0.002,0.65283 0.001,1.30568 -10e-5,1.95878 -0.001,0.64873 -0.001,1.29745 -0.001,1.94617 0.0135,0.20619 -0.0291,0.75181 0.21851,0.87734 0.30907,0.35927 0.64839,0.69098 0.97067,1.03917 0.28312,0.21651 0.46406,0.52554 0.68257,0.80028 0.98518,1.27141 -0.82056,2.65854 -1.80571,1.38713 l 0,0 c -0.18184,-0.23712 -0.31937,-0.47527 -0.56569,-0.66109 -0.3788,-0.42809 -0.80723,-0.81239 -1.15462,-1.26936 -0.42196,-0.66057 -0.67326,-1.3781 -0.62652,-2.17429 1.7e-4,-0.64971 4.5e-4,-1.29945 0.001,-1.94946 0.001,-0.64358 0.002,-1.28739 2.1e-4,-1.93121 -0.006,-0.56006 -0.0102,-1.1222 -0.083,-1.67839 -0.0944,-0.56805 -0.31556,-1.1003 -0.40618,-1.66882 -0.11228,-0.54874 -0.22498,-1.09564 -0.31454,-1.64798 -0.12195,-0.40645 -0.26216,-0.80954 -0.40254,-1.208 -0.28288,-0.48739 -0.51189,-0.98971 -0.64036,-1.54023 -0.19786,-0.50593 -0.33689,-1.02811 -0.55565,-1.52631 -0.13173,-0.49614 -0.4013,-0.94537 -0.50603,-1.45157 -0.14672,-0.56856 -0.23221,-1.15105 -0.40614,-1.71394 -0.0644,-0.48068 -0.21989,-0.91574 -0.43557,-1.35234 -0.16412,-0.55329 -0.33701,-1.10189 -0.48671,-1.65909 -0.15017,-0.44908 -0.28689,-0.89797 -0.49234,-1.32619 -0.22771,-0.50799 -0.56194,-0.97366 -0.63772,-1.54151 -0.12796,-0.44437 -0.26761,-0.88518 -0.39748,-1.3277 -0.24211,-0.51646 -0.45639,-1.05268 -0.58218,-1.61003 -0.13607,-0.49526 -0.27428,-0.98687 -0.38332,-1.48832 -0.1544,-0.45854 -0.23487,-0.93671 -0.44136,-1.37569 -0.19971,-0.48462 -0.36192,-0.98537 -0.48108,-1.49565 -0.18933,-0.48239 -0.46787,-0.92791 -0.64942,-1.41507 -0.14218,-0.44618 -0.30634,-0.88624 -0.46782,-1.32477 -0.16611,-0.38434 -0.29418,-0.77112 -0.55313,-1.10978 -0.2877,-0.4101 -0.56691,-0.82256 -0.81787,-1.25534 -0.32299,-0.44322 -0.63333,-0.90116 -0.91784,-1.36913 -0.24335,-0.43142 -0.46118,-0.87716 -0.73355,-1.2921 -0.31982,-0.46867 -0.61281,-0.95742 -0.91339,-1.43801 -0.27712,-0.39745 -0.64645,-0.71551 -0.88309,-1.14118 -0.30944,-0.3997 -0.66728,-0.77368 -0.91639,-1.21442 -0.26871,-0.3429 -0.55795,-0.67394 -0.84955,-0.99548 -0.41562,-0.41051 -0.72437,-0.89305 -1.11989,-1.32188 -0.23625,-0.32441 -0.48363,-0.64316 -0.71137,-0.97003 -0.33091,-0.32672 -0.6445,-0.67198 -0.94685,-1.02418 -0.32846,-0.32554 -0.70534,-0.58804 -1.02091,-0.93267 -0.37739,-0.38607 -0.73471,-0.79923 -1.01509,-1.26168 -0.29186,-0.45384 -0.58572,-0.9076 -0.83645,-1.38636 -0.1771,-0.44382 -0.44939,-0.84916 -0.68155,-1.2653 -0.2273,-0.47855 -0.57157,-0.89665 -0.78209,-1.38592 -0.20402,-0.39859 -0.38029,-0.8115 -0.60255,-1.20005 -0.3062,-0.37431 -0.62067,-0.74969 -0.86359,-1.16728 -0.30947,-0.36206 -0.66617,-0.68362 -0.97335,-1.04843 -0.2816,-0.37582 -0.66815,-0.61368 -0.99237,-0.95244 -0.22978,-0.29067 -0.48487,-0.57039 -0.74561,-0.82809 -0.36999,-0.30187 -0.66585,-0.65646 -0.98774,-0.99977 -0.32161,-0.27551 -0.60925,-0.59685 -0.85641,-0.91675 -0.43691,-0.27627 -0.85804,-0.56917 -1.25768,-0.89557 -0.3294,-0.28396 -0.61416,-0.5416 -1.00598,-0.71375 -0.39773,-0.23967 -0.78555,-0.49383 -1.18459,-0.72684 -0.44077,-0.27685 -0.95264,-0.44498 -1.37338,-0.75951 -0.34559,-0.26345 -0.71274,-0.49581 -1.03495,-0.78839 -0.43206,-0.26596 -0.8512,-0.54584 -1.2579,-0.84727 -0.36346,-0.28319 -0.74131,-0.54377 -1.06013,-0.87918 -0.42425,-0.31725 -0.86443,-0.61772 -1.26001,-0.97017 -0.26891,-0.30684 -0.59885,-0.56433 -0.91893,-0.8144 -0.34954,-0.3175 -0.82596,-0.47824 -1.15052,-0.83003 -0.42295,-0.29978 -0.85584,-0.59527 -1.23128,-0.95336 -0.42531,-0.31803 -0.86682,-0.61932 -1.26211,-0.9741 -0.2872,-0.32694 -0.6369,-0.60231 -0.97326,-0.8759 -0.41527,-0.36774 -0.9303,-0.60645 -1.36046,-0.95674 -0.39281,-0.31981 -0.81413,-0.60694 -1.19831,-0.93683 -0.35069,-0.31073 -0.8132,-0.46657 -1.16882,-0.77224 -0.51014,-0.25463 -1.00868,-0.52375 -1.51078,-0.7929 -0.44256,-0.24614 -0.83737,-0.56404 -1.31231,-0.75224 -0.406,-0.22552 -0.81587,-0.44328 -1.21984,-0.6704 -0.55562,-0.18607 -1.06291,-0.46268 -1.57291,-0.7469 -0.30875,-0.21522 -0.66626,-0.36477 -1.005,-0.52239 -0.57768,-0.1652 -1.12302,-0.41346 -1.6679,-0.66231 -0.39812,-0.22886 -0.80568,-0.38805 -1.25705,-0.50356 -0.49348,-0.20155 -1.00903,-0.34909 -1.4744,-0.61494 -0.50246,-0.19742 -0.97229,-0.47013 -1.49467,-0.61381 -0.43573,-0.17499 -0.8551,-0.38018 -1.293,-0.54976 -0.53413,-0.17296 -1.02115,-0.43251 -1.53096,-0.66236 -0.46412,-0.26629 -1.01643,-0.36738 -1.48935,-0.61797 -0.44921,-0.23246 -0.90851,-0.42697 -1.39187,-0.58237 -0.46704,-0.20825 -0.99612,-0.30585 -1.47407,-0.49068 -0.5315,-0.18454 -1.05087,-0.39143 -1.59505,-0.53975 -0.61123,-0.16443 -1.19109,-0.41346 -1.78958,-0.61616 -0.42697,-0.19124 -0.83295,-0.38048 -1.30873,-0.42049 -0.55985,-0.11824 -1.12984,-0.074 -1.69879,-0.134 -0.56323,-0.0634 -1.12181,-0.15876 -1.66038,-0.34021 -0.60017,-0.0847 -1.19109,-0.21495 -1.75036,-0.45491 -0.60936,-0.12432 -1.21583,-0.2371 -1.82937,-0.33786 -0.56742,-0.14511 -1.13252,-0.26546 -1.70503,-0.39001 -0.49896,-0.15902 -0.98448,-0.3355 -1.50906,-0.39898 -0.61442,-0.0465 -1.2261,-0.12186 -1.82079,-0.28955 -0.55396,-0.14767 -1.16648,-0.0644 -1.71804,-0.25333 -0.5705,-0.12524 -1.15473,-0.0887 -1.73176,-0.18584 -0.58051,-0.10412 -1.13224,-0.30177 -1.71084,-0.40056 -0.58862,-0.0985 -1.16547,-0.17859 -1.7659,-0.13121 -0.65154,0 -1.30308,-2e-5 -1.95463,2e-5 -0.65053,6e-5 -1.30107,1.6e-4 -1.9516,7e-4 -0.65358,6e-4 -1.30715,0.001 -1.96073,0.001 -0.72566,-0.001 -1.45163,-0.006 -2.1766,-0.0405 -0.87128,-0.0486 -1.74166,-0.1225 -2.6035,-0.26281 -1.59079,-0.264 -1.21584,-2.50415 0.37495,-2.24012 z"
       inkscape:connector-curvature="0" />
    <path
       style="fill:#504416;fill-opacity:1;stroke:none"
       id="path3777"
       d="m 51.200167,904.83307 c -0.660852,0.53195 -1.360874,1.01216 -1.982362,1.59155 -0.427897,0.38408 -0.868442,0.75411 -1.24894,1.18579 -0.469962,0.43048 -0.853334,0.93933 -1.264016,1.42241 -0.315896,0.35501 -0.543828,0.72713 -0.652481,1.18716 -0.09779,0.53747 -0.09691,1.08631 -0.101786,1.63067 -0.02588,0.46611 0.131191,0.91065 0.276252,1.34711 0.232695,0.53276 0.601103,0.99212 0.939492,1.46101 0.523871,0.81149 0.581227,1.79764 -0.240781,2.45616 -0.139116,0.11078 -0.316508,0.16496 -0.474779,0.24743 -0.647875,0.21392 -1.300669,0.36753 -1.978015,0.45335 -0.507914,0.18816 -1.073881,0.18556 -1.582931,0.35492 0.243647,0.0488 0.287213,-0.41163 0.370573,-0.0852 0.164818,0.54125 0.37942,1.0611 0.526003,1.60904 0.07774,0.16754 0.10986,0.3495 0.219445,0.4995 0.777491,1.40699 -1.220722,2.50185 -1.998213,1.09487 l 0,0 c -0.171429,-0.33199 -0.325258,-0.6611 -0.428371,-1.02194 -0.147381,-0.58454 -0.416109,-1.12785 -0.551273,-1.71651 -0.184084,-1.17089 0.04708,-2.09978 1.261528,-2.57205 0.629126,-0.15824 1.274133,-0.25053 1.902187,-0.4178 0.467773,-0.0558 0.932002,-0.14895 1.376534,-0.29376 -0.214485,0.22731 -0.37525,0.53896 -0.22337,0.84777 0.02014,0.0411 -0.01009,-0.33039 -0.0317,-0.13331 -0.471107,-0.65544 -0.972024,-1.30578 -1.25155,-2.07139 -0.223369,-0.67276 -0.420263,-1.36458 -0.391572,-2.08119 0.0067,-0.73332 0.01498,-1.47288 0.177809,-2.19189 0.218979,-0.78071 0.577987,-1.47213 1.122997,-2.08032 0.424307,-0.48779 0.805935,-1.01648 1.289358,-1.45145 0.434957,-0.48728 0.923372,-0.91856 1.41186,-1.35144 0.668122,-0.60679 1.39316,-1.13974 2.103389,-1.69505 1.259336,-1.00318 2.684111,0.77022 1.424777,1.77338 z"
       inkscape:connector-curvature="0" />
    <path
       style="fill:#504416;fill-opacity:1;stroke:none"
       id="path3779"
       d="m 63.481879,993.08466 c 0.736418,0.35356 1.470394,0.69558 2.263597,0.90111 0.790911,0.19831 1.576732,0.41524 2.367817,0.61332 0.593413,0.1418 1.203621,0.1727 1.811213,0.19064 0.721846,0.026 1.443876,0 2.165805,0 0.992219,-0.0778 1.626922,0.32646 2.349414,0.93696 0.533389,0.50232 0.953664,1.10639 1.399756,1.68395 0.457434,0.62031 0.986191,1.16651 1.524325,1.71519 0.516577,0.57643 1.099705,1.07547 1.694757,1.56707 0.449365,0.4806 1.00156,0.8379 1.503151,1.2574 0.321845,0.2893 0.656648,0.542 1.02375,0.7705 0.420117,0.1571 0.840965,0.3226 1.249438,0.5107 0.482567,0.262 0.981199,0.4848 1.490571,0.6903 0.622602,0.1701 1.185298,0.4844 1.777698,0.7272 0.937271,0.4114 1.143262,0.9924 1.4802,1.8694 0.109362,0.3208 0.08508,0.4504 0.390629,0.505 0.347422,0.094 0.685176,-0.026 1.035291,-0.08 1.592286,-0.255 1.95436,1.9875 0.362078,2.2423 l 0,0 c -0.768861,0.1242 -1.528038,0.2398 -2.276985,-0.068 -0.814439,-0.3744 -1.412206,-0.9339 -1.653182,-1.8209 -0.03747,-0.1061 -0.07983,-0.2088 -0.112458,-0.3142 -0.05665,-0.1854 0.155723,-0.1038 -0.110473,-0.2423 -0.582684,-0.2473 -1.1418,-0.5454 -1.755612,-0.7178 -0.553753,-0.2268 -1.099337,-0.4683 -1.626193,-0.751 -0.46551,-0.267 -1.030463,-0.3501 -1.485736,-0.6429 -0.448005,-0.2917 -0.875002,-0.605 -1.275783,-0.9577 -0.475486,-0.4271 -1.047979,-0.7458 -1.472897,-1.232 -0.656123,-0.5422 -1.297434,-1.0969 -1.870344,-1.7281 -0.599944,-0.6121 -1.186169,-1.23005 -1.700282,-1.91759 -0.348736,-0.45145 -0.679122,-0.91902 -1.0678,-1.33696 -0.35297,-0.29848 -0.34546,-0.44626 -0.868467,-0.39719 -0.746322,0 -1.492744,0 -2.238964,0 -0.772883,-0.0248 -1.547783,-0.0722 -2.30136,-0.25866 -0.800595,-0.2035 -1.596444,-0.41997 -2.397341,-0.6211 -0.939677,-0.25517 -1.823569,-0.63487 -2.695585,-1.06386 -1.442473,-0.71834 -0.42249,-2.74955 1.01998,-2.03155 z"
       inkscape:connector-curvature="0" />
    <path
       style="fill:#504416;fill-opacity:1;stroke:none"
       id="path3781"
       d="m 168.31946,964.45921 c -0.4684,-0.35544 -0.98148,-0.67586 -1.51765,-0.92224 -0.45471,-0.17268 -0.9455,-0.19072 -1.4265,-0.21134 -0.94965,0 -1.64927,-0.18042 -2.01612,-1.18996 -0.0618,-0.17011 -0.0135,-0.36186 -0.0197,-0.5428 0.18693,-0.82577 0.71603,-1.54177 1.23903,-2.19668 0.40259,-0.45283 0.65322,-0.99408 0.9028,-1.53688 0.33964,-0.49511 0.5704,-1.03429 0.783,-1.59099 0.17379,-0.49588 0.20865,-1.0209 0.23526,-1.541 -0.0395,-0.36857 -0.26737,-0.60233 -0.44845,-0.92013 -0.36356,-0.68429 -0.45221,-1.44693 -0.50014,-2.20672 -0.0886,-0.59512 0.072,-1.22709 -0.0502,-1.81497 -0.0248,-0.37836 -0.18318,-0.65698 -0.3739,-0.96368 -0.14398,-0.37165 -0.37683,-0.61161 -0.64642,-0.85311 -0.40198,-0.29253 -0.73886,-0.66264 -1.12163,-0.97914 -0.82352,-0.76469 -0.82434,-1.55104 0.13966,-2.26316 0.15026,-0.11078 0.36146,-0.10051 0.53246,-0.17786 -0.0227,0.002 -0.0453,0 -0.0677,0 1.36436,-0.85618 2.58048,1.06498 1.21613,1.92143 l 0,0 c -0.13655,0.0748 -0.2731,0.14691 -0.40967,0.22165 -0.70834,0.22424 0.104,0 0.22863,-0.52321 0.16414,-0.67783 0.0239,-0.67757 -0.23616,-0.99512 -0.0233,-0.0283 0.0505,0.054 0.0755,0.08 0.39305,0.33841 0.75531,0.71135 1.17076,1.02218 0.43128,0.38969 0.81881,0.80514 1.05739,1.3433 0.35862,0.57682 0.62077,1.17941 0.6958,1.86111 0.0721,0.65723 0.0376,1.31575 0.0658,1.97578 0.0243,0.41705 0.0425,0.84669 0.21353,1.23458 0.37797,0.68688 0.78347,1.32554 0.73608,2.14951 -0.0412,0.75723 -0.1162,1.5173 -0.3833,2.23433 -0.2312,0.5964 -0.46377,1.19948 -0.83901,1.72399 -0.33008,0.71676 -0.68422,1.42115 -1.20674,2.02348 -0.26286,0.30902 -0.42685,0.69614 -0.69172,0.99769 -0.0195,0.0257 -0.0437,-0.11863 -0.0415,-0.0773 -0.26145,-0.99615 -1.25222,-0.71136 -0.14325,-0.69203 0.78978,0.0335 1.5835,0.10569 2.31482,0.43172 0.76103,0.37036 1.50806,0.80696 2.14567,1.3647 1.14038,1.13535 -0.47237,2.74132 -1.61275,1.60574 z"
       inkscape:connector-curvature="0" />
    <path
       style="fill:#504416;fill-opacity:1;stroke:none"
       id="path3783"
       d="m 129.74078,915.92463 c -0.4424,0.59363 -0.87405,1.19133 -1.30169,1.79469 -0.35759,0.56624 -0.88517,1.1562 -1.59271,1.26162 -0.2142,0.0309 -0.43313,0 -0.6497,0 -0.79314,-0.11851 -1.11793,-0.76986 -1.5848,-1.30441 -0.25181,-0.32604 -0.50588,-0.66625 -0.81651,-0.94046 -0.32195,-0.0618 -0.61786,-0.21136 -0.93204,-0.3062 -0.64625,-0.22682 -1.14046,-0.71313 -1.65761,-1.14115 -0.33256,-0.28651 -0.68128,-0.5354 -1.05535,-0.76508 -0.36364,-0.18198 -0.5945,-0.61507 -0.99246,-0.72257 -0.42418,-0.25001 -0.89872,-0.36979 -1.35407,-0.54834 -0.41614,-0.0573 -0.8626,-0.47177 -1.29702,-0.39244 0.41244,0.13038 0.55645,-0.44926 0.49753,0.12756 -0.021,0.3282 -0.0126,0.15797 -0.0243,0.51083 -0.0584,1.60482 -2.33769,1.52253 -2.27925,-0.0821 l 0,0 c 0.0184,-0.47606 0.005,-0.23583 0.0418,-0.72055 0.16695,-1.16604 0.59854,-2.00029 1.91029,-2.10201 0.69778,0.0709 1.33778,0.28887 1.98675,0.54575 0.47714,0.18712 0.97878,0.31402 1.42328,0.5768 0.48802,0.22705 0.90769,0.52851 1.30503,0.8868 0.45705,0.29119 0.89587,0.60161 1.30965,0.95062 0.28304,0.24536 0.57059,0.4914 0.86677,0.70861 0.64073,0.20413 1.30805,0.40996 1.83477,0.8394 0.3643,0.36087 0.71128,0.74357 1.01457,1.1569 0.071,0.0913 0.366,0.42776 0.41922,0.55637 0.0337,0.0825 -0.24925,-0.16495 -0.25332,-0.0773 -0.58815,0.10311 -0.34481,0.30156 0.022,-0.33204 0.39925,-0.55021 0.77787,-1.11398 1.20348,-1.64533 0.82974,-1.37704 2.78547,-0.20852 1.95572,1.16843 z"
       inkscape:connector-curvature="0" />
    <path
       style="fill:#504416;fill-opacity:1;stroke:none"
       id="path3785"
       d="m 82.170823,940.25726 c -0.116236,0.24743 -0.286469,0.49022 -0.319777,0.76856 -0.01757,0.14692 0.05649,0.11346 0.06858,-0.002 0.253332,0.11077 0.522166,0.1572 0.794091,0.19587 0.914006,0.16496 1.569104,0.66521 2.024229,1.45363 0.337345,0.70002 0.171944,1.43043 0.08219,2.16007 -0.06464,0.57758 -0.07602,1.15931 -0.08518,1.73998 -0.04738,0.43995 0.131191,0.62476 -0.02716,0.1598 0.03604,0 0.07211,0 0.108171,0 1.574123,0.34949 1.078026,2.56601 -0.496093,2.21678 l 0,0 c -0.141959,-0.0361 -0.283916,-0.0722 -0.42589,-0.1057 -1.057758,-0.47037 -1.501273,-1.15542 -1.439591,-2.31831 0.01055,-0.66137 0.02586,-1.32399 0.102002,-1.98175 0.0067,-0.054 0.103283,-0.81032 0.119125,-0.81959 0.01576,0 0.02531,0.0566 0.03686,0.0413 0.01627,-0.0258 -0.0053,-0.0515 -0.0086,-0.0748 0.18331,-0.0722 -0.299663,-0.23196 -0.348186,-0.2397 -0.976012,-0.16237 -1.871379,-0.49022 -2.439699,-1.35338 -0.08273,-0.1907 -0.193254,-0.36958 -0.248116,-0.56906 -0.237912,-0.86446 0.135706,-1.71061 0.546984,-2.45108 0.829747,-1.37706 2.785474,-0.20877 1.95573,1.16833 z"
       inkscape:connector-curvature="0" />
    <path
       style="fill:#504416;fill-opacity:1;stroke:none"
       id="path3787"
       d="m 112.56232,949.26898 c 0.37538,-1.03815 1.12417,-1.72707 2.10911,-2.17838 0.0137,-0.23195 0.67258,-0.0361 0.73711,-0.27293 0.008,-0.0283 -0.0608,0 -0.0903,0 0.0457,-0.0696 0.0915,-0.13919 0.1372,-0.20878 0.24643,-0.69432 0.6856,-1.13943 1.33031,-1.48816 0.13942,-0.0465 0.2789,-0.0928 0.41833,-0.13664 1.54658,-0.45516 2.19315,1.7227 0.64658,2.17787 l 0,0 c -0.0275,0 -0.0552,0 -0.0828,0 -0.0196,-0.33609 -0.29399,0.63737 -0.40167,0.67862 -0.43727,0.66779 -0.97234,1.18249 -1.79162,1.3245 -0.40748,0.14175 -0.68795,0.4031 -0.84854,0.8111 -0.50999,1.52346 -2.6737,0.80541 -2.16371,-0.71806 z"
       inkscape:connector-curvature="0" />
    <path
       style="fill:#504416;fill-opacity:1;stroke:none"
       id="path3789"
       d="m 108.67773,854.13761 c -0.11636,0.17038 -0.69433,0.77477 -0.48034,1.00519 0.0873,-0.29605 0.39377,0.25209 0.4726,0.32806 0.14454,0.13943 0.17442,0.14613 0.33578,0.24253 0.46693,0.32137 1.02176,0.45564 1.54698,0.65231 0.0454,0.10829 0.81549,0.1536 0.82071,0.22319 0.16411,2.19218 0.62475,1.91537 -0.27584,2.28319 -0.0758,0.0616 0.0533,-0.002 0.0443,0.008 -0.12909,0.17243 -0.20469,0.15878 -0.24413,0.35166 -0.22808,0.3837 -0.32818,0.78683 -0.38015,1.22319 0.0967,0.19434 0.0268,0.56223 0.23288,0.69838 0.14849,0.28478 0.17584,0.20569 0.4508,0.24821 0.54634,0.0646 1.09815,0.0582 1.64742,0.0588 0.6525,-0.001 1.305,-0.006 1.9575,-0.008 0.53748,0.0553 1.04257,-0.0875 1.56567,-0.17989 1.58832,-0.27831 1.98359,1.95839 0.39526,2.23667 l 0,0 c -0.64827,0.11258 -1.2904,0.27012 -1.95504,0.21419 -0.65535,0.001 -1.3107,0.006 -1.96605,0.008 -0.7016,-8.8e-4 -1.40767,0.006 -2.10252,-0.10491 -0.80824,-0.17991 -1.52845,-0.52058 -1.93526,-1.28238 -0.38077,-0.67483 -0.59231,-1.39354 -0.55313,-2.17616 0.0824,-0.61672 0.21105,-1.22832 0.52346,-1.77576 0.30658,-0.70172 0.76319,-1.28702 1.46977,-1.62845 0.76198,-0.29046 0.13951,-0.0985 0.41695,1.98339 0.001,0.0102 -0.0165,-0.0101 -0.0259,-0.013 -0.0698,-0.0181 -0.14053,-0.0335 -0.21066,-0.051 -0.11744,-0.0291 -0.23567,-0.0555 -0.352,-0.0883 -0.11013,-0.0315 -0.21807,-0.0699 -0.32711,-0.10503 -0.69075,-0.25881 -1.4121,-0.4562 -2.01853,-0.89463 -0.61319,-0.42968 -1.30673,-1.01982 -1.61832,-1.72381 -0.0979,-0.22113 -0.13069,-0.46567 -0.19602,-0.69849 0.0458,-1.09494 0.39966,-1.83742 1.14814,-2.64254 1.14037,-1.13553 2.75311,0.47035 1.61273,1.60584 z"
       inkscape:connector-curvature="0" />
    <path
       style="fill:#504416;fill-opacity:1;stroke:none"
       id="path3791"
       d="m 150.85337,1021.038 c -0.35976,-0.7014 -0.77173,-1.3734 -1.10534,-2.0887 -0.21634,-0.4239 -0.434,-0.8416 -0.77427,-1.179 -0.43271,-0.3161 -0.91878,-0.5452 -1.37662,-0.8212 -0.81849,-0.4006 -1.25375,-1.0949 -1.49028,-1.9431 -0.0542,-0.592 -0.20647,-1.1629 -0.31149,-1.7464 -0.28059,-1.5813 1.96538,-1.9766 2.24597,-0.3952 l 0,0 c 0.092,0.5292 0.24578,1.0475 0.27698,1.5861 0.0547,0.3234 0.12013,0.4097 0.47674,0.5661 0.60983,0.3874 1.29639,0.664 1.82108,1.1778 0.50542,0.5334 0.89012,1.1448 1.20467,1.8075 0.35947,0.7929 0.86538,1.5111 1.19628,2.3181 0.50999,1.5233 -1.65372,2.2416 -2.16372,0.718 z"
       inkscape:connector-curvature="0" />
    <path
       style="fill:#554400;fill-opacity:1;stroke:none"
       id="path3793"
       d="m 15.260071,965.92021 c -0.07121,0 -0.980994,-0.0416 -0.833181,0.22423 -0.0016,0.0264 -0.02092,0.0516 -0.0046,0.0668 0.01254,0 0.02646,-0.0361 0.0427,-0.0306 0.01446,0 0.09699,0.71159 0.102795,0.76163 0.198136,0.511 0.293908,1.05231 0.363769,1.59333 0.004,0.0974 0.161045,0.78889 0.235511,0.56369 0.414422,0.0611 0.833311,0.0723 1.25181,0.0778 0.521441,0 1.030001,-0.15723 1.546428,-0.23202 0.66916,-0.0847 1.344564,-0.0959 2.018197,-0.10288 0.656096,0 1.312223,0 1.968331,0 0.629055,0.0264 1.444626,-0.075 1.943035,0.41535 0.181865,0.17794 0.284036,0.42302 0.426053,0.63431 -0.04245,0.33794 0.02117,0.70672 -0.127359,1.01366 -0.293471,0.60622 -0.965754,0.65877 -1.528232,0.54909 -0.445129,-0.0875 -0.756627,-0.56689 -0.998349,-0.90106 -0.365268,-0.59983 -0.608772,-1.27125 -0.838208,-1.93364 -0.118745,-0.52157 -0.407791,-0.98418 -0.421235,-1.533 -0.0047,-0.18808 0.0334,-0.37547 0.05008,-0.56313 0.128404,-0.53658 0.444386,-0.97265 0.726245,-1.43348 0.84117,-1.37021 2.787113,-0.18556 1.945943,1.18423 l 0,0 c -0.107343,0.1753 -0.247289,0.47556 -0.391227,0.63181 -0.01032,0 -0.01783,-0.0264 -0.02672,-0.0361 -0.179514,-0.0571 0.30068,0.91441 0.276864,1.02186 0.151152,0.45651 0.331722,0.90913 0.534704,1.34367 0.03989,0.0571 0.09348,0.10569 0.119607,0.17 1.87e-4,5.6e-4 -0.26497,-0.1154 -0.296443,-0.1154 -0.23923,0 -0.49597,-0.0264 -0.713285,0.0807 -0.623922,0.28608 -0.448953,0.71368 -0.46522,1.27501 0.379439,0.46025 0.195474,0.38533 0.610589,0.5235 0.05829,0.0264 -0.115713,-0.0459 -0.17706,-0.0514 -0.217096,-0.0264 -0.43549,0 -0.652592,-8.2e-4 -0.645923,-7e-4 -1.291863,0 -1.937776,0 -0.57372,0 -1.149017,0.0264 -1.719458,0.082 -0.635174,0.0904 -1.259005,0.2872 -1.906418,0.25522 -0.792656,0 -1.599835,-0.0264 -2.332844,-0.36699 -0.946085,-0.60163 -1.21066,-1.19311 -1.384165,-2.26377 -0.06623,-0.55257 -0.228021,-1.07553 -0.366169,-1.61308 -0.09498,-0.81655 -0.219522,-1.62044 0.255271,-2.36094 0.772807,-0.97392 1.471124,-1.21699 2.702655,-1.19355 1.612735,0 1.612735,2.27086 0,2.27086 z"
       inkscape:connector-curvature="0" />
  </g>
</svg>
