<?xml version="1.0" encoding="UTF-8" standalone="no"?>
<!-- Created with Inkscape (http://www.inkscape.org/) -->

<svg
   xmlns:dc="http://purl.org/dc/elements/1.1/"
   xmlns:cc="http://creativecommons.org/ns#"
   xmlns:rdf="http://www.w3.org/1999/02/22-rdf-syntax-ns#"
   xmlns:svg="http://www.w3.org/2000/svg"
   xmlns="http://www.w3.org/2000/svg"
   xmlns:sodipodi="http://sodipodi.sourceforge.net/DTD/sodipodi-0.dtd"
   xmlns:inkscape="http://www.inkscape.org/namespaces/inkscape"
   width="64"
   height="128"
   id="svg2"
   version="1.1"
   inkscape:version="0.48.5 r10040"
   sodipodi:docname="ups.svg"
   inkscape:export-filename="C:\Users\narfman0\Desktop\ups.png"
   inkscape:export-xdpi="90"
   inkscape:export-ydpi="90">
  <defs
     id="defs4" />
  <sodipodi:namedview
     id="base"
     pagecolor="#ffffff"
     bordercolor="#666666"
     borderopacity="1.0"
     inkscape:pageopacity="0.0"
     inkscape:pageshadow="2"
     inkscape:zoom="5.32"
     inkscape:cx="27.447368"
     inkscape:cy="67.131171"
     inkscape:document-units="px"
     inkscape:current-layer="layer1"
     showgrid="false"
     inkscape:window-width="1245"
     inkscape:window-height="954"
     inkscape:window-x="178"
     inkscape:window-y="34"
     inkscape:window-maximized="0" />
  <metadata
     id="metadata7">
    <rdf:RDF>
      <cc:Work
         rdf:about="">
        <dc:format>image/svg+xml</dc:format>
        <dc:type
           rdf:resource="http://purl.org/dc/dcmitype/StillImage" />
        <dc:title></dc:title>
      </cc:Work>
    </rdf:RDF>
  </metadata>
  <g
     inkscape:label="Layer 1"
     inkscape:groupmode="layer"
     id="layer1"
     transform="translate(0,-924.36218)">
    <path
       style="fill:#333333;fill-opacity:1;stroke:none"
       id="path2985"
       d="m 1.9826995,927.77719 c 0.1784221,0.61158 0.3898471,1.21069 0.5440246,1.82943 0.2113423,0.93293 0.3804265,1.87531 0.4926739,2.82614 0.1398222,1.12601 0.2793369,2.25198 0.4235666,3.37742 0.1663045,1.38429 0.2722185,2.77589 0.3570082,4.1677 0.094303,1.78929 0.2095914,3.57665 0.2703911,5.36765 0.02547,1.83205 0.1172745,3.66185 0.1782677,5.49282 0.065141,1.88445 0.1429361,3.76928 0.2418783,5.65228 0.1175406,1.96201 0.1717217,3.92677 0.2647689,5.89002 0.1458569,2.00441 0.3242424,4.00747 0.5351146,6.00596 0.2123181,1.94226 0.4126313,3.88597 0.6389454,5.82661 0.1996698,1.73679 0.2920708,3.48357 0.4583166,5.22363 0.1470768,1.43577 0.3158797,2.86925 0.4806339,4.30309 0.1361103,1.16792 0.1866965,2.34296 0.2129148,3.518 -0.017364,0.96826 0.068,1.93198 0.1309084,2.89689 0.054513,0.8348 0.066583,1.6715 0.074299,2.50785 -0.00254,0.79723 -0.00692,1.59166 0.058209,2.38635 0.049187,0.8447 0.1322903,1.68519 0.2163363,2.52676 0.075143,0.90355 0.095843,1.80916 0.1724223,2.71261 0.1220344,0.9138 0.2346936,1.83 0.4044511,2.736 0.1831268,0.8825 0.2494711,1.7832 0.3626084,2.6765 0.1426322,0.7394 0.2559944,1.482 0.3217576,2.2327 0.060379,0.5689 0.1816388,1.126 0.2927765,1.6858 0.094572,0.4697 0.1275595,0.9479 0.1438732,1.426 0.067104,0.3969 0.1304734,0.7933 0.166998,1.1945 0.032018,0.4147 0.034435,0.831 0.036589,1.2467 9.425e-4,0.4651 -3.58e-5,0.9303 -4.183e-4,1.3954 -4.182e-4,0.5149 -5.085e-4,1.0297 -5.716e-4,1.5445 -4.1e-5,0.4558 -3.25e-5,0.9115 -2.95e-5,1.3673 -0.00168,0.4191 0.094908,0.8308 0.1406862,1.2469 0.050196,0.5052 0.05255,1.0136 0.05647,1.5209 0.00273,0.5596 0.00168,1.1193 0.00116,1.679 -4.792e-4,0.4722 -6.715e-4,0.9445 -7.692e-4,1.4167 -7.26e-5,0.5134 -6.83e-5,1.0266 -6.73e-5,1.5399 3.2e-6,0.5219 6.3e-6,1.0437 8.4e-6,1.5656 1.1e-6,0.4306 1.1e-6,0.861 1.1e-6,1.2915 0,0.4044 0,0.8087 0,1.2131 0,0.4041 0,0.8083 0,1.2124 0,0.4046 0,0.809 0,1.2136 0.034803,0.3954 -0.059076,0.7764 -0.124942,1.1618 -0.025376,0.3621 -0.089906,0.7126 -0.1695694,1.0655 -0.07323,0.345 -0.085735,0.6987 -0.095212,1.0503 0.018399,0.5198 -0.039016,1.0327 -0.098911,1.5476 -0.069426,0.5821 -0.178931,1.1576 -0.2432103,1.7407 -0.021121,0.4889 -0.069521,0.9691 -0.1549518,1.4503 -0.059549,0.3921 -0.083465,0.7847 -0.1591686,1.1743 -0.056123,0.4075 -0.1773085,0.8001 -0.2540904,1.2034 -0.068449,0.4258 -0.07425,0.8589 -0.081574,1.2894 0.02606,0.446 -0.063058,0.882 -0.1254505,1.3205 -0.028834,0.4302 -0.098186,0.853 -0.1650111,1.2783 -0.066473,0.4275 -0.088036,0.8599 -0.1002567,1.2919 0.022288,0.4135 -0.032827,0.8137 -0.102085,1.2189 -0.069037,0.4467 -0.082761,0.9 -0.094529,1.3514 0.016571,0.396 -0.049934,0.8032 0.012631,1.1959 0.077181,0.1042 0.3000238,0.092 0.4212482,0.1039 0.5293773,0.029 1.0601712,0.019 1.5901275,0.017 0.628424,0.021 1.251723,-0.068 1.876117,-0.126 0.681191,-0.051 1.35534,-0.1657 2.035869,-0.2253 0.71688,-0.027 1.428172,-0.1227 2.142887,-0.181 0.772136,-0.058 1.546312,-0.071 2.320159,-0.079 0.699572,0 1.399168,0 2.098752,0 0.711014,6e-4 1.422029,9e-4 2.133043,10e-4 0.724291,10e-5 1.448584,10e-5 2.172877,10e-5 0.814439,0 1.628878,0 2.443316,0 0.819507,0 1.639014,0 2.458521,0 0.831337,-0.027 1.657997,0.02 2.485672,0.093 0.770618,0.066 1.534977,0.1865 2.306022,0.2504 0.716809,0.023 1.429115,0.08 2.142286,0.1557 0.655784,0.062 1.303898,0.1821 1.959199,0.2507 0.570925,0.1041 1.14362,0.1845 1.72202,0.2269 0.550826,0.033 1.102716,0.034 1.654268,0.037 0.445363,6e-4 0.890726,-6e-4 1.336089,-0 0.396752,-5e-4 0.793504,-6e-4 1.190256,-7e-4 0.394361,0 0.788724,0 1.183085,0 0.394968,0 0.789935,0 1.184902,0 0.367203,-0.023 0.744459,0.042 1.108318,-0.02 0.330955,-0.069 0.662816,-0.1201 0.990423,-0.2044 0.404787,-0.1086 0.82151,-0.1457 1.23789,-0.1674 0.401821,-0.015 0.804031,-0.014 1.206072,-0.014 0.37722,0.01 0.748921,0.013 1.121307,-0.051 0.406101,-0.08 0.817836,-0.1159 1.230312,-0.1362 0.401067,-0.015 0.802495,-0.015 1.203778,-0.015 0.294337,-0.075 0.606853,-0.085 0.896655,-0.1747 0.344981,-0.1244 0.705743,-0.1748 1.068353,-0.2052 0.381958,0.01 0.752366,-0.046 1.127434,-0.1111 0.17815,-0.061 0.57231,0.032 0.630153,-0.2146 0.177203,-0.303 0.206759,-0.6533 0.237409,-0.997 0.05724,-0.4814 0.175222,-0.9478 0.293114,-1.4161 0.08895,-0.4348 0.108399,-0.8778 0.185523,-1.3152 0.07703,-0.4961 0.186482,-0.9853 0.251646,-1.4834 0.03838,-0.623 0.100929,-1.2411 0.177439,-1.8602 0.03671,-0.5347 0.110315,-1.0609 0.195523,-1.589 0.07652,-0.4817 0.09202,-0.9699 0.102915,-1.4568 -0.01973,-0.5909 0.03462,-1.1749 0.09836,-1.7611 0.07625,-0.6744 0.0682,-1.3541 0.122878,-2.0298 0.08396,-0.7507 0.130641,-1.5045 0.158159,-2.2593 0.02205,-0.7896 0.02139,-1.5796 0.02217,-2.3695 4.4e-5,-0.8424 -7.13e-4,-1.6848 -0.0011,-2.5272 -3.16e-4,-0.795 -3.79e-4,-1.59 -4.18e-4,-2.3849 -2.1e-5,-0.6479 -1.4e-5,-1.2959 -10e-6,-1.9438 4e-6,-0.4587 6e-6,-0.9173 6e-6,-1.3759 -0.0013,-0.4418 0.100487,-0.8747 0.145314,-1.3132 0.04381,-0.554 0.150395,-1.1004 0.259288,-1.6441 0.129857,-0.6443 0.253046,-1.286 0.321024,-1.9409 0.07627,-0.6827 0.240289,-1.3491 0.352702,-2.0256 0.05596,-0.5817 0.114282,-1.1602 0.20008,-1.7383 0.0401,-0.4622 0.155493,-0.9107 0.222858,-1.3685 0.06241,-0.4573 0.07084,-0.9193 0.07771,-1.3802 0.0048,-0.5206 0.0031,-1.0414 0.0024,-1.562 -6.44e-4,-0.4681 -9.74e-4,-0.9362 -0.0012,-1.4044 -1.14e-4,-0.4589 -1.1e-4,-0.9178 -1.1e-4,-1.3769 -0.0082,-0.4695 -0.09785,-0.9337 -0.141361,-1.4016 -0.04419,-0.5626 -0.05098,-1.1272 -0.05577,-1.6913 -0.0027,-0.5406 -0.0017,-1.0811 -0.0012,-1.6217 5.03e-4,-0.5907 6.73e-4,-1.1813 7.69e-4,-1.772 -0.01073,-0.5996 0.0246,-1.2009 -0.02241,-1.79904 -0.06381,-0.57881 -0.112292,-1.15787 -0.20392,-1.73285 -0.09621,-0.58288 -0.134983,-1.17234 -0.156899,-1.76228 -0.01186,-0.49989 0.0057,-0.99681 -0.06568,-1.49218 -0.07406,-0.48444 -0.11014,-0.97326 -0.130738,-1.46274 -0.01537,-0.46243 -0.01408,-0.92521 -0.01424,-1.38784 0.004,-0.41779 -0.09076,-0.82866 -0.139244,-1.24256 -0.04463,-0.41846 -0.05177,-0.83964 -0.0565,-1.26014 -0.003,-0.45476 -0.0017,-0.90953 -0.0012,-1.36429 0.02684,-0.45071 -0.06542,-0.89248 -0.11563,-1.33808 -0.02663,-0.54363 -0.128992,-1.07757 -0.194425,-1.61673 -0.05513,-0.55992 -0.06239,-1.12042 -0.13537,-1.67838 -0.08151,-0.52379 -0.116533,-1.05226 -0.134467,-1.58175 -0.01341,-0.50797 -0.01331,-1.01618 -0.01334,-1.52429 4.46e-4,-0.52608 9.54e-4,-1.05217 0.0013,-1.57825 2.37e-4,-0.51204 2.64e-4,-1.02408 2.83e-4,-1.53612 8e-6,-0.5 2e-6,-1.00002 -2e-6,-1.50002 -3e-6,-0.51267 -4e-6,-1.02534 -4e-6,-1.53801 -0.01257,-0.52183 0.08982,-1.0364 0.145536,-1.55324 0.04019,-0.40028 0.04718,-0.80284 0.05165,-1.20486 0.0028,-0.43251 0.0016,-0.86504 0.0012,-1.29756 -4.73e-4,-0.43911 -6.65e-4,-0.87821 -7.7e-4,-1.31732 0.0132,-0.51235 -0.0012,-1.01994 -0.05411,-1.52927 -0.06607,-0.5595 -0.109515,-1.1211 -0.130418,-1.68417 0.0194,-0.51912 -0.06564,-1.02905 -0.130191,-1.54154 -0.02707,-0.47523 -0.124,-0.94022 -0.192693,-1.41 -0.06128,-0.43699 -0.07557,-0.87849 -0.08358,-1.31924 -0.01785,-0.41125 -0.07792,-0.82788 -0.161424,-1.23124 -0.132237,-0.46497 -0.151816,-0.94974 -0.231042,-1.42374 -0.104753,-0.49048 -0.151765,-0.98956 -0.18093,-1.48983 -0.07196,-0.42694 -0.142787,-0.85295 -0.182585,-1.28451 -0.03265,-0.41639 -0.03494,-0.83437 -0.03697,-1.25184 -8.27e-4,-0.40498 1.69e-4,-0.80998 6.35e-4,-1.21496 0.02871,-0.38884 -0.02082,-0.76449 -0.0834,-1.14606 -0.07613,-0.46779 -0.09371,-0.94265 -0.106819,-1.41585 -0.0097,-0.48372 -0.0082,-0.96759 -0.008,-1.45138 4.35e-4,-0.47517 8.63e-4,-0.95035 0.0011,-1.42552 1.69e-4,-0.41266 1.8e-4,-0.82532 1.89e-4,-1.23799 4e-6,-0.42316 -2e-6,-0.84632 -4e-6,-1.26947 -3e-6,-0.50807 -3e-6,-1.01613 -4e-6,-1.52421 0.0074,-0.57065 -0.02098,-1.1421 0.02514,-1.71118 0.0678,-0.51957 0.115355,-1.03979 0.213784,-1.55442 0.08789,-0.46318 0.1244,-0.93357 0.145042,-1.40419 -0.01292,-0.43941 0.03728,-0.8688 0.107732,-1.30092 0.02486,-0.3795 0.14651,-0.7383 0.222215,-1.1078 0.05232,-0.37602 0.06952,-0.75188 0.137838,-1.12589 0.08671,-0.39571 0.0918,-0.80224 0.153231,-1.20123 0.08495,-0.38761 0.134053,-0.78042 0.160326,-1.17628 0.06637,-0.42135 0.133261,-0.84131 0.257333,-1.24914 0.09769,-0.34499 0.134032,-0.70166 0.212164,-1.05161 0.04812,-0.42013 0.176173,-0.82229 0.259359,-1.23512 0.11515,-0.31924 0.204232,-0.63973 0.24497,-0.97745 0.03755,-0.39438 0.133621,-0.77908 0.182012,-1.17252 0.04124,-0.38757 0.04569,-0.7778 0.04944,-1.16723 -0.02646,-0.12893 0.09991,-0.57092 -0.110155,-0.57727 -0.241125,-0.0332 -0.496507,0.0859 -0.727408,0.15227 -0.54901,0.20888 -1.106134,0.38746 -1.673414,0.53713 -0.759179,0.26117 -1.541409,0.43162 -2.317175,0.63071 -0.99053,0.28078 -2.000932,0.47367 -2.996947,0.73218 -1.026551,0.28113 -2.083366,0.4087 -3.1292,0.58785 -0.977531,0.17059 -1.948425,0.35743 -2.936476,0.45225 -0.765389,0.0625 -1.531685,0.0616 -2.295641,0.14016 -0.565125,0.0649 -1.132013,0.10892 -1.700182,0.13155 -0.444125,0.0145 -0.888538,0.0134 -1.332832,0.0134 -0.427335,-3.3e-4 -0.854671,-9e-4 -1.282007,-0.001 -0.397227,-2.5e-4 -0.794453,-2.7e-4 -1.191679,-2.9e-4 -0.347333,-0.0281 -0.677994,0.0135 -1.016266,0.0836 -0.378211,0.0789 -0.76408,0.0988 -1.148786,0.1118 -0.326827,0.0751 -0.65474,0.13604 -0.987983,0.17169 -0.449081,0.0346 -0.899761,0.0362 -1.349859,0.0385 -0.408178,0.001 -0.816358,6e-5 -1.224535,-4e-4 -0.395035,-4.4e-4 -0.790069,-5.4e-4 -1.185104,-6e-4 -0.39483,-4e-5 -0.789661,-3e-5 -1.184491,-3e-5 -0.45343,10e-6 -0.90686,10e-6 -1.360288,10e-6 -0.517089,0 -1.034177,0 -1.551263,0 -0.482671,0 -0.965342,0 -1.448012,0 -0.493093,0 -0.986187,0 -1.47928,0 -0.471553,0 -0.943105,0 -1.414656,0 -0.443399,0 -0.886796,0 -1.330193,0 -0.428864,0 -0.857727,0 -1.286589,0 -0.405223,0 -0.810444,0 -1.215666,0 -0.471204,0.0132 -0.934326,-0.0934 -1.400362,-0.14935 -0.417919,-0.0354 -0.833008,-0.0422 -1.246818,-0.11633 -0.364416,-0.0776 -0.734851,-0.10926 -1.105907,-0.12709 -0.386448,-0.0141 -0.77322,-0.0132 -1.159855,-0.0133 -0.394931,3.5e-4 -0.789861,9.1e-4 -1.184791,0.001 -0.497414,-0.008 -0.990268,-0.0995 -1.485416,-0.14815 -0.475662,-0.0488 -0.953982,-0.0335 -1.42941,-0.0797 -0.520726,-0.0753 -1.044111,-0.12556 -1.5690805,-0.15518 -0.4812015,-0.0188 -0.9548687,-0.11816 -1.4331468,-0.17169 -0.4852828,-0.0468 -0.9734342,-0.0479 -1.4604434,-0.0519 -0.4628616,-0.0102 -0.9264504,0.02 -1.387447,-0.0274 -0.3915137,-0.0832 -0.7930066,-0.10324 -1.1838091,-0.18569 -0.3154444,-0.0994 -0.6398843,-0.14584 -0.9678227,-0.17114 -0.3767633,-0.0222 -0.7543432,-0.0214 -1.1315889,-0.0221 -0.2849856,0.0473 -0.5647718,0.10369 -0.8367861,0.20174 -0.1385155,0.03 -0.2570436,0.10074 -0.38354369,0.16145 -0.50581954,0.2429 -0.84124429,-0.48968 -0.33542475,-0.73256 l 0,0 c 0.14912875,-0.0714 0.29629743,-0.15188 0.45739474,-0.19216 0.35563,-0.12739 0.7247931,-0.20573 1.09957,-0.24735 0.3969814,6.4e-4 0.7943269,4e-5 1.1907555,0.0244 0.3642099,0.0291 0.7260614,0.0784 1.0767977,0.18758 0.3593009,0.0896 0.7401321,0.0809 1.1008641,0.17174 0.4325779,0.0552 0.8726373,0.002 1.3075257,0.0226 0.513613,0.004 1.0284084,0.006 1.540104,0.0567 0.464148,0.0524 0.9239573,0.14776 1.3906294,0.16809 0.5364428,0.0305 1.0714728,0.0806 1.6035668,0.15791 0.473788,0.0511 0.952738,0.0235 1.426871,0.0794 0.469874,0.0463 0.937812,0.13198 1.409245,0.14443 0.395168,-2.9e-4 0.790338,-8.4e-4 1.185508,-0.001 0.399068,8e-5 0.798281,-7.8e-4 1.197143,0.0142 0.404532,0.0198 0.808433,0.0549 1.205872,0.13852 0.398307,0.0728 0.799468,0.0685 1.201703,0.10953 0.435424,0.0527 0.868251,0.15283 1.308073,0.14381 0.405223,0 0.810443,0 1.215666,0 0.428862,0 0.857725,0 1.286589,0 0.443397,0 0.886794,0 1.330193,0 0.471552,0 0.943103,0 1.414656,0 0.493094,0 0.986187,0 1.479281,0 0.48267,0 0.96534,0 1.448011,0 0.517086,0 1.034173,0 1.551261,0 0.453427,0 0.906856,0 1.360284,-10e-6 0.394874,0 0.789748,-10e-6 1.184621,4e-5 0.395285,7e-5 0.790572,1.6e-4 1.185857,5.9e-4 0.406575,4.6e-4 0.813151,0.001 1.219727,4.2e-4 0.42437,-0.002 0.84924,-0.004 1.272762,-0.0342 0.352059,-0.0366 0.694362,-0.1182 1.043203,-0.17553 0.340774,-0.0113 0.682827,-0.0268 1.017993,-0.0962 0.389088,-0.0806 0.774614,-0.12691 1.172904,-0.0996 0.397393,10e-6 0.794786,4e-5 1.192177,2.7e-4 0.427135,3e-4 0.85427,8.7e-4 1.281406,0.001 0.434118,-4e-5 0.868352,0.001 1.302311,-0.0128 0.552055,-0.0217 1.102816,-0.0649 1.6519,-0.12811 0.765879,-0.0786 1.533704,-0.0809 2.301088,-0.14071 0.969101,-0.0922 1.920758,-0.27868 2.87968,-0.44469 1.024474,-0.17514 2.059717,-0.29975 3.065435,-0.57415 0.996755,-0.25838 2.00757,-0.45235 2.9989,-0.73267 0.774355,-0.19868 1.554839,-0.36902 2.312698,-0.62955 0.562039,-0.14726 1.111608,-0.32878 1.656303,-0.53243 0.459578,-0.13213 0.920601,-0.29829 1.375753,-0.0489 0.476776,0.37039 0.483481,0.687 0.465462,1.26094 -0.0041,0.42085 -0.0098,0.84254 -0.05571,1.26126 -0.04926,0.39341 -0.142519,0.77847 -0.182,1.17242 -0.0453,0.35725 -0.122273,0.70559 -0.255259,1.04041 -0.08563,0.41799 -0.212684,0.82527 -0.262683,1.25069 -0.08281,0.37017 -0.117895,0.74879 -0.228231,1.11249 -0.106462,0.3475 -0.159016,0.70513 -0.223212,1.06323 -0.02857,0.42142 -0.07879,0.84027 -0.169087,1.25301 -0.06978,0.40284 -0.05946,0.81876 -0.156209,1.21849 -0.07009,0.3798 -0.07733,0.76354 -0.141482,1.14453 -0.07501,0.35811 -0.191987,0.70484 -0.215761,1.07294 -0.06533,0.40066 -0.112191,0.79631 -0.09775,1.20427 -0.02274,0.51063 -0.06334,1.02094 -0.159028,1.52343 -0.09347,0.48648 -0.136115,0.97849 -0.202035,1.46954 -0.0503,0.54462 -0.0085,1.09382 -0.0221,1.64022 0,0.50807 10e-7,1.01613 3e-6,1.5242 3e-6,0.42316 8e-6,0.84633 5e-6,1.26949 -9e-6,0.41279 -2.1e-5,0.82559 -1.91e-4,1.23838 -2.28e-4,0.47517 -6.56e-4,0.95034 -0.0011,1.42551 -2.3e-4,0.47606 -0.0017,0.95218 0.0077,1.42817 0.01193,0.43592 0.02673,0.87359 0.09622,1.30464 0.06978,0.42551 0.121894,0.84811 0.0943,1.28104 -4.64e-4,0.40333 -0.0015,0.80667 -6.44e-4,1.21001 0.0019,0.39362 0.0037,0.78772 0.03353,1.18038 0.03995,0.44092 0.120809,0.87447 0.184643,1.31207 0.02714,0.47196 0.07187,0.94247 0.171618,1.40502 0.07369,0.46472 0.09869,0.93757 0.225473,1.39311 0.08922,0.45323 0.160804,0.91787 0.177557,1.37964 0.0073,0.40575 0.01931,0.81226 0.07504,1.21465 0.0691,0.47507 0.166967,0.94562 0.194882,1.42609 0.06748,0.53651 0.154183,1.0712 0.136111,1.61446 0.01992,0.54476 0.06268,1.08801 0.126569,1.62931 0.05554,0.53764 0.07235,1.07378 0.0585,1.61445 1.06e-4,0.4389 2.96e-4,0.87779 7.7e-4,1.31668 4.31e-4,0.43589 0.0017,0.87178 -0.0012,1.30767 -0.0048,0.42867 -0.01298,0.85787 -0.05641,1.28463 -0.05283,0.48729 -0.150072,0.97252 -0.140737,1.46419 0,0.51267 10e-7,1.02534 4e-6,1.53801 4e-6,0.50001 1.1e-5,1.00004 2e-6,1.50005 -1.9e-5,0.51217 -4.6e-5,1.02435 -2.82e-4,1.53652 -2.69e-4,0.52593 -7.75e-4,1.05186 -0.0013,1.57779 2.2e-5,0.49884 -1.14e-4,0.99778 0.01287,1.49649 0.01676,0.50304 0.05001,1.00501 0.127994,1.50257 0.07281,0.5607 0.08533,1.12323 0.136332,1.68606 0.06508,0.54147 0.168662,1.07777 0.195241,1.62372 0.05317,0.47626 0.149048,0.94944 0.120792,1.43126 -4.62e-4,0.4514 -0.0017,0.9028 0.0012,1.3542 0.0043,0.39154 0.0103,0.78374 0.05099,1.17347 0.05169,0.4456 0.153904,0.88772 0.144816,1.3382 1.52e-4,0.45118 -0.0012,0.9025 0.01351,1.35349 0.01921,0.46202 0.05308,0.9234 0.123195,1.38062 0.0739,0.52441 0.0658,1.04934 0.07339,1.57833 0.02047,0.5566 0.05626,1.11278 0.147174,1.66273 0.09502,0.59773 0.146672,1.19962 0.211916,1.80139 0.04413,0.6192 0.01843,1.24024 0.02471,1.86074 -9.6e-5,0.5909 -2.68e-4,1.1817 -7.7e-4,1.7726 -4.4e-4,0.5379 -0.0016,1.076 0.0012,1.614 0.0046,0.5409 0.01072,1.0823 0.05228,1.622 0.0455,0.4931 0.141784,0.9822 0.144893,1.478 -1e-6,0.4589 -4e-6,0.9177 1.09e-4,1.3766 1.55e-4,0.4679 4.84e-4,0.9358 0.0012,1.4036 6.26e-4,0.5252 0.0024,1.0503 -0.0025,1.5754 -0.0075,0.4974 -0.01801,0.9959 -0.08656,1.4891 -0.06826,0.4581 -0.182065,0.9065 -0.222888,1.3687 -0.08653,0.5831 -0.142412,1.1665 -0.202358,1.7528 -0.110119,0.6599 -0.26879,1.3101 -0.345927,1.9756 -0.0713,0.6805 -0.197544,1.3479 -0.33267,2.0176 -0.103756,0.518 -0.206828,1.0383 -0.247524,1.5661 -0.04251,0.4105 -0.135187,0.8161 -0.140961,1.2286 -1e-6,0.4586 -2e-6,0.9171 -6e-6,1.3758 -3e-6,0.6479 -1.1e-5,1.2958 1e-5,1.9437 3.7e-5,0.7949 1.02e-4,1.5898 4.18e-4,2.3847 3.55e-4,0.8428 0.0012,1.6855 0.0011,2.5283 -7.98e-4,0.7997 -1.62e-4,1.5995 -0.02273,2.399 -0.02812,0.7674 -0.0751,1.5339 -0.160418,2.2972 -0.05767,0.6825 -0.04397,1.37 -0.124922,2.0512 -0.06121,0.5628 -0.114383,1.1226 -0.09372,1.6902 -0.01192,0.5249 -0.03018,1.0511 -0.113312,1.5702 -0.08388,0.5181 -0.155288,1.0339 -0.191174,1.5586 -0.07686,0.6214 -0.13773,1.2416 -0.178291,1.8667 -0.06776,0.5102 -0.177166,1.0114 -0.257183,1.5193 -0.081,0.4566 -0.09437,0.9209 -0.197958,1.3734 -0.107675,0.4266 -0.217323,0.8503 -0.271437,1.2888 -0.04354,0.471 -0.106459,0.9431 -0.355594,1.3533 -0.31699,0.456 -0.646679,0.5306 -1.16642,0.581 -0.397263,0.069 -0.792028,0.1238 -1.196143,0.1199 -0.314741,0.025 -0.626545,0.069 -0.925292,0.1797 -0.361131,0.094 -0.73494,0.1443 -1.102868,0.2028 -0.388831,2e-4 -0.777802,-5e-4 -1.166432,0.014 -0.382235,0.018 -0.763723,0.052 -1.139935,0.1264 -0.415301,0.069 -0.829561,0.072 -1.249761,0.061 -0.388652,-3e-4 -0.77746,0 -1.165912,0.013 -0.364929,0.018 -0.730456,0.049 -1.085264,0.144 -0.355972,0.091 -0.716579,0.1484 -1.076468,0.2214 -0.403049,0.05 -0.80929,0.02 -1.21469,0.027 -0.394968,0 -0.789938,0 -1.184908,0 -0.394318,0 -0.788636,0 -1.182955,0 -0.396444,1e-4 -0.792889,2e-4 -1.189333,7e-4 -0.446549,7e-4 -0.8931,0 -1.33965,0 -0.569651,0 -1.139656,0 -1.708526,-0.039 -0.586178,-0.044 -1.167529,-0.1207 -1.745782,-0.2291 -0.655467,-0.069 -1.303922,-0.1878 -1.959737,-0.2507 -0.707556,-0.075 -1.414038,-0.1306 -2.125222,-0.1541 -0.772257,-0.064 -1.537994,-0.1831 -2.309712,-0.2507 -0.805219,-0.071 -1.60912,-0.1178 -2.41797,-0.091 -0.819506,0 -1.639012,0 -2.458518,0 -0.814441,0 -1.62888,0 -2.443321,0 -0.724343,0 -1.448687,0 -2.17303,-10e-5 -0.711164,-10e-5 -1.42233,-4e-4 -2.133495,-10e-4 -0.696729,-5e-4 -1.393472,0 -2.090191,0 -0.755591,0.01 -1.511509,0.02 -2.265451,0.076 -0.713309,0.058 -1.423246,0.1536 -2.138717,0.1807 -0.679024,0.059 -1.351452,0.1757 -2.031243,0.2248 -0.646892,0.06 -1.292874,0.1508 -1.9439365,0.1293 -0.5599891,0 -1.1210502,0.014 -1.6802345,-0.022 -0.5147714,-0.063 -0.9805382,-0.2263 -1.1178151,-0.8005 -0.051008,-0.4397 -0.019683,-0.8834 -0.019386,-1.3253 0.012935,-0.491 0.029277,-0.9839 0.1061457,-1.4695 0.063147,-0.3675 0.1145988,-0.7266 0.090524,-1.1026 0.013406,-0.4673 0.03777,-0.9348 0.1099701,-1.3971 0.066387,-0.4216 0.1348324,-0.8398 0.163248,-1.2665 0.057836,-0.4049 0.1440403,-0.8057 0.1172828,-1.2178 0.0082,-0.4781 0.016561,-0.959 0.096306,-1.4313 0.078148,-0.4041 0.1972874,-0.7976 0.2545538,-1.2059 0.075342,-0.3845 0.092207,-0.7737 0.156594,-1.1604 0.082319,-0.4636 0.1257386,-0.9254 0.1472337,-1.3966 0.064887,-0.5847 0.1727723,-1.1619 0.2437348,-1.7453 0.05711,-0.4911 0.1133348,-0.9788 0.093679,-1.4747 0.011265,-0.4054 0.028708,-0.8127 0.1152378,-1.2099 0.076761,-0.3395 0.1359733,-0.6745 0.1611673,-1.0232 0.058656,-0.3403 0.1475005,-0.6722 0.1130112,-1.0218 0,-0.4045 0,-0.8091 0,-1.2135 0,-0.4042 0,-0.8083 0,-1.2125 0,-0.4043 0,-0.8087 0,-1.213 0,-0.4305 0,-0.8611 -1.1e-6,-1.2916 -2.1e-6,-0.5218 -5.2e-6,-1.0437 -7.2e-6,-1.5655 -1.1e-6,-0.5135 -6.4e-6,-1.0268 6.62e-5,-1.5401 9.87e-5,-0.4725 2.91e-4,-0.9448 7.701e-4,-1.4173 4.949e-4,-0.5573 0.00158,-1.1145 -0.00116,-1.6719 -0.00368,-0.4793 -0.00514,-0.9597 -0.051584,-1.4372 -0.048526,-0.4459 -0.1531979,-0.8868 -0.1456018,-1.3369 -3.1e-6,-0.4558 -1.15e-5,-0.9116 2.95e-5,-1.3674 6.3e-5,-0.515 1.544e-4,-1.0301 5.727e-4,-1.5451 3.814e-4,-0.4636 0.00137,-0.9271 4.287e-4,-1.3905 -0.00199,-0.3923 -0.00389,-0.7851 -0.033248,-1.1765 -0.037271,-0.4169 -0.1135303,-0.8267 -0.1698804,-1.241 -0.01448,-0.4334 -0.042893,-0.867 -0.1285211,-1.2928 -0.1168171,-0.5892 -0.2433995,-1.176 -0.3054648,-1.775 -0.064341,-0.7401 -0.179925,-1.4713 -0.3183319,-2.2006 -0.1111093,-0.8774 -0.1758301,-1.7619 -0.3551278,-2.6287 -0.1735508,-0.9337 -0.2925365,-1.8768 -0.4155768,-2.8184 -0.076128,-0.89927 -0.09828,-1.80062 -0.1712806,-2.70016 -0.084493,-0.8465 -0.1679767,-1.692 -0.217685,-2.54162 -0.066321,-0.81464 -0.064551,-1.62896 -0.060923,-2.44615 -0.00755,-0.82093 -0.019145,-1.64219 -0.07258,-2.4616 -0.06366,-0.97668 -0.1494021,-1.95228 -0.1324579,-2.93233 -0.025541,-1.14962 -0.074569,-2.29924 -0.2077069,-3.4419 -0.1653433,-1.43911 -0.3347346,-2.87787 -0.4822995,-4.31894 -0.165386,-1.73434 -0.2583333,-3.47525 -0.4564913,-5.20639 -0.2265928,-1.94367 -0.4273409,-3.89039 -0.6399487,-5.83566 -0.2124078,-2.01434 -0.3925133,-4.03327 -0.5387553,-6.05362 -0.092981,-1.96185 -0.1471565,-3.9252 -0.2645586,-5.88582 -0.099031,-1.8883 -0.1773083,-3.77839 -0.2425584,-5.66812 -0.06096,-1.8308 -0.1527911,-3.66044 -0.1782505,-5.49232 -0.060463,-1.78359 -0.1755505,-3.56352 -0.2693369,-5.34541 -0.083528,-1.37346 -0.188025,-2.74671 -0.3518267,-4.11279 -0.1444724,-1.12826 -0.2844863,-2.25703 -0.4246043,-3.38586 -0.1074602,-0.91641 -0.2714334,-1.82437 -0.4740072,-2.72365 -0.1482225,-0.60001 -0.356664,-1.17957 -0.5278216,-1.77287 -0.1766659,-0.54276 0.572864,-0.79862 0.7495298,-0.25585 z"
       inkscape:connector-curvature="0" />
    <path
       style="fill:#cccccc;fill-opacity:1;stroke:none"
       d="M 60.920113,1.126113 C 54.68615,3.1406477 48.184179,4.4219761 41.606203,4.544816 28.934797,4.9417882 16.216076,4.9868436 3.5955375,3.6283002 3.076623,3.5914515 1.8549705,3.3369872 2.1795113,4.2746092 4.0609509,12.955626 3.8517709,21.937278 4.328734,30.776927 c 0.1865357,7.10762 0.9435269,14.175573 1.6848555,21.240895 0.6286379,5.785045 1.0943793,11.585174 1.1953733,17.405515 0.1653161,6.43805 1.531366,12.756479 2.082394,19.155511 0.2408368,6.749502 0.295931,13.515002 0.0655,20.265362 -0.3967005,6.01464 -1.7287097,11.99275 -1.7908329,18.00441 3.7560076,0.18432 7.5111746,-0.60884 11.2840036,-0.48444 6.72497,-0.0525 13.483087,-0.18449 20.159414,0.75557 6.194479,0.22261 12.437706,0.005 18.568331,-0.9349 1.21736,0.0258 1.147671,-1.32442 1.325919,-2.17624 1.368396,-8.00075 1.514712,-16.15622 1.515522,-24.256978 0.154987,-4.969226 1.788888,-9.809049 1.42804,-14.814367 C 61.712165,75.908307 61.103624,66.896386 60.479558,57.89303 60.195259,50.08479 60.995618,42.206487 59.610197,34.467278 58.952641,28.612119 58.669447,22.682636 59.064145,16.79961 59.599656,12.319343 60.224036,7.8519293 61.160949,3.4522408 61.141073,2.7315469 61.605955,1.7555585 61.102209,1.1437352 61.045273,1.111699 60.980801,1.1191245 60.920113,1.126113 z"
       id="path2987"
       inkscape:connector-curvature="0"
       transform="translate(0,924.36218)" />
    <path
       style="fill:#000000;fill-opacity:1;stroke:none"
       id="path2989"
       d="m 16.353383,5.0370903 c -0.01202,0.7471024 -0.09377,1.4917049 -0.136843,2.237823 -0.02165,1.1361825 -0.10545,2.2694847 -0.164524,3.4040707 -0.100617,1.489647 -0.249514,2.974782 -0.340699,4.465121 -0.09657,1.405821 -0.230265,2.8083 -0.349545,4.212209 -0.08204,1.105676 -0.19585,2.208787 -0.324755,3.309895 -0.124783,0.929805 -0.132861,1.86859 -0.200285,2.80265 -0.05227,0.804154 -0.183241,1.59944 -0.271739,2.399732 -0.112257,0.674395 -0.198888,1.351059 -0.245147,2.033102 -0.0581,0.597407 -0.179254,1.184585 -0.280788,1.775238 -0.06749,0.582515 -0.13916,1.163903 -0.212631,1.745986 -0.129847,0.611432 -0.209906,1.229469 -0.25512,1.852396 -0.0098,0.681756 -0.06656,1.358813 -0.126224,2.037562 -0.06651,0.775088 -0.172986,1.54531 -0.231016,2.32148 -0.04045,0.800544 -0.04453,1.600327 -0.11192,2.399306 -0.07146,0.741683 -0.103644,1.48607 -0.121118,2.230715 -0.01275,0.718353 -0.01242,1.43685 -0.01248,2.15529 2.83e-4,0.623655 8.34e-4,1.247309 0.0011,1.870963 2.31e-4,0.611121 2.5e-4,1.222241 2.68e-4,1.833361 9e-6,0.688647 2e-6,1.377294 -10e-7,2.065941 0.0099,0.731098 -0.02274,1.463264 0.02182,2.193328 0.05318,0.815389 0.178698,1.622945 0.256517,2.436015 0.06515,0.843475 0.07701,1.688345 0.148529,2.531331 0.04749,0.792188 0.126586,1.580276 0.209369,2.369312 0.07431,0.727567 0.09727,1.458825 0.110804,2.189611 0.0081,0.592235 0.0068,1.184543 0.0063,1.776818 -7.57e-4,0.55833 -0.0011,1.11666 -0.0013,1.674991 -1.65e-4,0.49 -1.74e-4,0.98 -1.8e-4,1.47 0,0.492158 6e-6,0.984317 9e-6,1.476475 3e-6,0.49032 3e-6,0.98064 3e-6,1.470961 0.01182,0.527382 0.0015,1.050664 -0.05577,1.575021 -0.06511,0.587495 -0.100953,1.177383 -0.120246,1.767968 -0.01357,0.507756 -0.01312,1.015748 -0.01329,1.523644 2.74e-4,0.507795 8.08e-4,1.015591 0.0011,1.523386 2.29e-4,0.531192 2.58e-4,1.062385 2.78e-4,1.593577 1.1e-5,0.581813 4e-6,1.163627 1e-6,1.745441 -3e-6,0.599358 -4e-6,1.198715 -4e-6,1.798073 -10e-7,0.580414 0,1.160827 0,1.741241 -9.25e-4,0.49694 -0.01918,0.991442 0.04997,1.484375 0.07725,0.434741 0.106946,0.875011 0.125507,1.315503 0.01374,0.402429 0.01364,0.805149 0.01382,1.20776 0.0016,0.373879 0.09209,0.740794 0.132958,1.112235 0.04781,0.526501 0.04936,1.055758 0.05333,1.583981 0.0026,0.502915 0.0016,1.005839 0.0011,1.508758 -0.0057,0.4129 0.08945,0.818529 0.133386,1.228082 0.0412,0.472646 0.134026,0.938616 0.187315,1.410239 0.04712,0.447343 0.05132,0.89742 0.05489,1.346733 -0.02955,0.445736 0.05098,0.882331 0.110259,1.321659 0.05423,0.457016 0.06734,0.917377 0.07478,1.377097 0.005,0.454964 0.0039,0.909964 0.0035,1.364944 -0.0041,0.40723 -0.01603,0.81041 0.04807,1.21308 0.0814,0.42752 0.108238,0.86188 0.126405,1.29582 0.06556,0.33956 0.130166,0.67781 0.165778,1.02209 0.03468,0.4143 0.03383,0.8305 0.03574,1.24593 8.93e-4,0.4005 -2.5e-5,0.801 -4.75e-4,1.20151 -4.08e-4,0.37714 -5e-4,0.75427 -5.58e-4,1.13141 -4e-5,0.37563 -3.1e-5,0.75126 -2.8e-5,1.12689 4e-6,0.3759 6e-6,0.7518 7e-6,1.1277 1e-6,0.37595 1e-6,0.75189 1e-6,1.12783 0.05793,0.36353 0.117478,0.72593 0.152251,1.0926 0.03369,0.41451 0.03437,0.83067 0.0365,1.24625 0.0011,0.40892 2.37e-4,0.81785 -1.96e-4,1.22677 -3.97e-4,0.3783 -4.96e-4,0.7566 -5.57e-4,1.13491 -4.3e-5,0.37557 -3.5e-5,0.75114 -3.3e-5,1.12671 4e-6,0.37588 6e-6,0.75176 7e-6,1.12764 1e-6,0.37594 1e-6,0.75188 1e-6,1.12783 0,0.37594 0,0.75188 0,1.12782 -0.04399,0.38911 -0.119164,0.77282 -0.155557,1.16304 -0.0288,0.36419 -0.03104,0.72973 -0.0332,1.09483 0.02426,0.37836 -0.01804,0.74471 -0.09227,1.11447 -0.06406,0.31921 -0.07848,0.6449 -0.08892,0.96939 0.01045,0.25509 -0.01875,0.50333 -0.06814,0.75289 -0.104934,0.5212 -0.842023,0.3728 -0.73709,-0.1484 l 0,0 c 0.04303,-0.20911 0.06392,-0.4143 0.05375,-0.62892 0.01201,-0.36599 0.0304,-0.73308 0.103237,-1.09297 0.0649,-0.3232 0.102588,-0.63923 0.07757,-0.97093 0.0023,-0.38712 0.0051,-0.77471 0.0365,-1.1608 0.03477,-0.36667 0.09432,-0.72907 0.15225,-1.0926 0,-0.37594 0,-0.75188 0,-1.12782 0,-0.37595 0,-0.75189 -1e-6,-1.12783 -10e-7,-0.37588 -3e-6,-0.75176 -6e-6,-1.12763 -3e-6,-0.37562 -1.1e-5,-0.75123 3.2e-5,-1.12685 6.1e-5,-0.37852 1.61e-4,-0.75705 5.57e-4,-1.13558 4.32e-4,-0.40738 0.0013,-0.81476 2.06e-4,-1.22214 -0.002,-0.39335 -0.0022,-0.78725 -0.0332,-1.17964 -0.03639,-0.39022 -0.11157,-0.77392 -0.155558,-1.16304 0,-0.37594 0,-0.75188 0,-1.12782 -2e-6,-0.37591 -3e-6,-0.75181 -7e-6,-1.12771 -3e-6,-0.37567 -1.2e-5,-0.75134 2.7e-5,-1.12701 5.9e-5,-0.37738 1.5e-4,-0.75476 5.59e-4,-1.13214 4.48e-4,-0.39907 0.0014,-0.79815 4.82e-4,-1.19722 -0.0018,-0.39106 -6.22e-4,-0.78283 -0.03185,-1.17291 -0.03625,-0.35956 -0.116379,-0.7102 -0.169026,-1.06728 -0.01676,-0.40539 -0.04101,-0.81119 -0.117952,-1.21045 -0.0686,-0.44195 -0.06514,-0.88378 -0.05717,-1.33038 3.92e-4,-0.45073 0.0015,-0.90149 -0.0034,-1.352205 -0.0069,-0.430174 -0.01851,-0.860957 -0.06813,-1.288717 -0.06336,-0.470399 -0.145869,-0.93912 -0.116977,-1.41617 -0.0033,-0.423208 -0.0065,-0.84717 -0.0502,-1.268592 -0.05303,-0.473188 -0.147562,-0.940529 -0.187825,-1.414897 -0.04583,-0.436161 -0.14899,-0.867837 -0.137593,-1.308215 4.67e-4,-0.500806 0.0014,-1.001618 -0.0011,-1.502421 -0.0038,-0.502971 -0.0048,-1.00692 -0.04895,-1.508348 -0.04271,-0.398288 -0.142946,-0.791238 -0.137362,-1.193174 -1.7e-4,-0.392229 3e-6,-0.784563 -0.01316,-1.176621 -0.01734,-0.41659 -0.04523,-0.832885 -0.119071,-1.243928 -0.0721,-0.52748 -0.06162,-1.055836 -0.05707,-1.587418 0,-0.580414 0,-1.160828 0,-1.741242 10e-7,-0.599358 10e-7,-1.198717 4e-6,-1.798076 3e-6,-0.581803 10e-6,-1.163606 -1e-6,-1.745409 -2e-5,-0.531078 -4.8e-5,-1.062157 -2.77e-4,-1.593235 -2.5e-4,-0.508002 -7.85e-4,-1.016003 -0.0011,-1.524005 1.71e-4,-0.516023 -2.34e-4,-1.032145 0.01369,-1.548024 0.02005,-0.609764 0.05708,-1.218816 0.124332,-1.825389 0.05484,-0.497046 0.06204,-0.992912 0.05128,-1.492971 0,-0.490319 -10e-7,-0.980637 -4e-6,-1.470956 -3e-6,-0.492164 -9e-6,-0.984327 -9e-6,-1.47649 7e-6,-0.490092 1.6e-5,-0.980184 1.81e-4,-1.470275 2.11e-4,-0.558462 5.48e-4,-1.116923 0.0013,-1.675384 5.3e-4,-0.587419 0.0018,-1.174872 -0.0062,-1.762253 -0.01307,-0.709228 -0.03493,-1.418939 -0.106831,-2.125066 -0.08326,-0.793996 -0.162773,-1.587116 -0.210784,-2.384246 -0.07116,-0.840363 -0.08482,-1.68242 -0.14781,-2.523346 -0.07834,-0.822081 -0.206293,-1.638515 -0.258608,-2.463067 -0.04289,-0.745086 -0.01588,-1.491696 -0.02314,-2.237763 2e-6,-0.688638 9e-6,-1.377277 0,-2.065915 -1.8e-5,-0.611015 -3.6e-5,-1.222029 -2.67e-4,-1.833043 -2.82e-4,-0.623791 -8.33e-4,-1.247581 -0.0011,-1.871371 6.6e-5,-0.724316 -2.51e-4,-1.448689 0.01269,-2.172915 0.01794,-0.759867 0.05079,-1.519473 0.12358,-2.276331 0.06744,-0.796552 0.06886,-1.59411 0.111352,-2.392186 0.05854,-0.779379 0.164381,-1.552912 0.231802,-2.331141 0.05937,-0.675133 0.115391,-1.348322 0.125333,-2.026479 0.04671,-0.63591 0.124659,-1.267954 0.259058,-1.891914 0.07508,-0.593192 0.147163,-1.185702 0.217584,-1.779198 0.09737,-0.565385 0.213438,-1.127266 0.271636,-1.698814 0.04732,-0.692548 0.132682,-1.380154 0.24798,-2.0648 0.08773,-0.790889 0.216756,-1.576858 0.26915,-2.371507 0.06929,-0.944924 0.07575,-1.894924 0.203404,-2.835529 0.12798,-1.093205 0.241058,-2.188384 0.322356,-3.28614 0.118844,-1.398004 0.251929,-2.794586 0.34825,-4.194487 0.09117,-1.488055 0.239072,-2.970967 0.340311,-4.458277 0.05917,-1.1360139 0.142918,-2.2707234 0.164758,-3.4083317 0.04231,-0.731688 0.12197,-1.4619543 0.135592,-2.194458 0,-0.5316592 0.751879,-0.5316592 0.751879,0 z"
       inkscape:connector-curvature="0"
       transform="translate(0,924.36218)" />
    <path
       style="fill:#000000;fill-opacity:1;stroke:none"
       id="path2991"
       d="m 47.308987,3.6366096 c -0.214679,0.6065705 -0.467936,1.1983665 -0.668203,1.8101409 -0.190064,0.4621017 -0.361644,0.932218 -0.549988,1.3947883 -0.136428,0.2778863 -0.184266,0.5770435 -0.210279,0.8818188 -0.0227,0.4011187 -0.01908,0.8032379 -0.01874,1.2048498 -0.04816,0.499929 -0.114851,0.9974516 -0.15254,1.4984496 -0.03064,0.469434 -0.0312,0.94015 -0.03332,1.410377 -0.0011,0.432174 -2.05e-4,0.864351 1.96e-4,1.296527 3.75e-4,0.426546 4.85e-4,0.853092 5.49e-4,1.279639 4.2e-5,0.382804 3.5e-5,0.765608 3.2e-5,1.148412 -4e-6,0.413325 -5e-6,0.82665 -6e-6,1.239974 -10e-7,0.542647 -10e-7,1.085293 -10e-7,1.62794 0,0.688591 0,1.377181 0,2.065772 0,0.789904 0,1.579808 0,2.369712 0,0.812605 0,1.625209 0,2.437813 0,0.807305 0,1.614609 0,2.421913 0,0.758976 0,1.517952 0,2.276927 0,0.759127 0,1.518254 0,2.27738 0,0.68172 0,1.363441 0,2.045161 0,0.495372 0,0.990744 0,1.486116 0.01056,0.479373 -0.02374,0.960687 0.02106,1.438477 0.07545,0.544218 0.117573,1.091849 0.145289,1.640313 0.03099,0.629266 0.11612,1.254104 0.158252,1.883255 0.05173,0.801612 0.139829,1.599859 0.186987,2.402141 0.04408,0.869721 0.04877,1.740686 0.05278,2.611304 0.0022,0.830933 9.13e-4,1.661871 3.83e-4,2.492806 0.05304,0.847235 0.116726,1.693364 0.152775,2.541611 0.0018,0.849031 0.05224,1.693496 0.119085,2.539369 0.06333,0.808929 0.08544,1.619965 0.09757,2.430995 0.0037,0.676666 -0.0085,1.350855 0.0586,2.024596 0.06577,0.580981 0.10265,1.164184 0.122828,1.748331 0.01365,0.511713 0.01337,1.023652 0.01354,1.535505 1.3e-5,0.527003 0.08861,1.049451 0.133786,1.574072 0.09883,0.553802 0.165098,1.111771 0.205464,1.67263 0.0291,0.538663 0.01744,1.075885 0.08734,1.611282 0.04836,0.487826 0.124163,0.969293 0.204512,1.452624 0.07956,0.464835 0.103062,0.935601 0.114483,1.406156 -0.02125,0.466744 0.02589,0.923518 0.08819,1.384466 0.04053,0.511911 0.146564,1.014054 0.209162,1.523231 0.06047,0.528335 0.07436,1.060073 0.08223,1.591282 -0.007,0.4736 0.0011,0.942497 0.05372,1.413082 0.0629,0.497138 0.102155,0.996502 0.12319,1.497027 0.0093,0.382145 0.100383,0.756379 0.147135,1.135377 0.04363,0.394934 0.04929,0.792564 0.05315,1.189454 0.0025,0.471321 0.0013,0.942652 8.65e-4,1.413977 -0.0049,0.473631 0.09162,0.940418 0.133994,1.411368 0.01323,0.570998 0.104785,1.134409 0.164042,1.701512 0.04923,0.579736 0.06187,1.159324 0.126608,1.737684 0.04535,0.596238 0.162687,1.182471 0.237663,1.775033 0.04964,0.56379 0.110683,1.127312 0.216897,1.683559 0.07731,0.496171 0.235945,0.972795 0.331904,1.464737 0.07282,0.433637 0.07591,0.87192 0.151707,1.304716 0.0777,0.39399 0.110772,0.79388 0.129124,1.194373 0.01389,0.398816 0.01248,0.797955 0.01247,1.196952 -3.89e-4,0.485779 -9.08e-4,0.971559 -0.0012,1.457339 -2.2e-4,0.450592 -2.47e-4,0.901184 -2.63e-4,1.351776 -8e-6,0.509547 -10e-7,1.019094 2e-6,1.528641 3e-6,0.621921 3e-6,1.243841 4e-6,1.865762 0.0076,0.530065 -0.08646,1.054775 -0.138015,1.581175 -0.03706,0.39545 -0.04519,0.79267 -0.04964,1.18957 -0.0071,0.38996 0.01539,0.77996 -0.02621,1.16807 -0.06838,0.36674 -0.11662,0.73562 -0.141861,1.10771 -0.02055,0.37474 -0.02063,0.75018 -0.02145,1.12535 -0.05565,0.47848 -0.122088,0.95387 -0.153899,1.43492 -0.03413,0.46834 -0.01234,0.93858 -0.05814,1.40574 -0.06467,0.4239 -0.11592,0.849 -0.142844,1.27696 -0.01961,0.37459 -0.02023,0.74982 -0.02109,1.12482 -1.7e-4,0.37509 5.3e-4,0.75019 8.71e-4,1.12529 3.12e-4,0.37591 3.62e-4,0.75182 3.97e-4,1.12773 2.2e-5,0.37596 1.4e-5,0.75191 1.1e-5,1.12786 -3e-6,0.37594 -4e-6,0.75188 -5e-6,1.12782 -10e-7,0.37594 -10e-7,0.75188 -10e-7,1.12782 0,0.37594 0,0.75188 0,1.12782 0,0.37594 0,0.75188 0,1.12782 0,0.37594 0,0.75188 0,1.12782 0,0.37594 0,0.75188 0,1.12782 0,0.37594 0,0.75188 0,1.12782 0,0.37594 0,0.75188 0,1.12782 0,0.37594 0,0.75188 0,1.12782 0,0.37594 0,0.75188 0,1.12782 0,0.37594 0,0.75188 0,1.12782 -0.0063,0.35881 -0.01076,0.71241 0.0485,1.06657 0.09646,0.20989 0.03512,0.78654 0.133507,0.95008 0.1548,0.50862 -0.564503,0.72754 -0.719303,0.21892 l 0,0 c -0.0884,-0.34231 -0.07791,-0.7008 -0.156039,-1.04651 -0.0645,-0.39507 -0.06817,-0.78926 -0.05854,-1.18906 0,-0.37594 0,-0.75188 0,-1.12782 0,-0.37594 0,-0.75188 0,-1.12782 0,-0.37594 0,-0.75188 0,-1.12782 0,-0.37594 0,-0.75188 0,-1.12782 0,-0.37594 0,-0.75188 0,-1.12782 0,-0.37594 0,-0.75188 0,-1.12782 0,-0.37594 0,-0.75188 0,-1.12782 0,-0.37594 0,-0.75188 0,-1.12782 0,-0.37594 0,-0.75188 0,-1.12782 0,-0.37594 0,-0.75188 0,-1.12782 1e-6,-0.37594 2e-6,-0.75189 6e-6,-1.12783 3e-6,-0.37592 1.1e-5,-0.75185 -1.2e-5,-1.12778 -3.5e-5,-0.3757 -8.5e-5,-0.75141 -3.96e-4,-1.12711 -3.43e-4,-0.37591 -0.001,-0.75182 -8.7e-4,-1.12773 9.08e-4,-0.39027 0.0017,-0.78078 0.0226,-1.17061 0.02793,-0.4381 0.0781,-0.87366 0.145405,-1.30751 0.05168,-0.45661 0.0135,-0.91951 0.05573,-1.37751 0.03104,-0.46484 0.08675,-0.92564 0.152246,-1.38672 8.73e-4,-0.39176 0.0012,-0.7838 0.02321,-1.17507 0.02657,-0.38442 0.07318,-0.76627 0.14535,-1.145 0.04945,-0.35938 0.0026,-0.72612 0.02101,-1.08788 0.0047,-0.41859 0.01382,-0.83749 0.05319,-1.25453 0.04936,-0.50201 0.139496,-1.00248 0.134419,-1.507734 0,-0.62192 -10e-7,-1.24384 -4e-6,-1.865759 -3e-6,-0.509558 -1e-5,-1.019115 -2e-6,-1.528672 1.7e-5,-0.45072 4.3e-5,-0.901439 2.63e-4,-1.352159 2.65e-4,-0.48565 7.83e-4,-0.971299 0.0012,-1.456949 1.1e-5,-0.387619 0.0014,-0.775372 -0.01169,-1.162825 -0.01658,-0.368709 -0.04656,-0.736851 -0.118748,-1.099475 -0.07431,-0.428812 -0.0858,-0.861229 -0.149284,-1.291507 -0.09354,-0.493093 -0.258594,-0.969687 -0.332407,-1.467375 -0.106996,-0.571698 -0.175054,-1.149707 -0.224064,-1.729107 -0.07483,-0.596076 -0.193704,-1.185758 -0.238912,-1.785537 -0.06477,-0.580267 -0.08023,-1.161468 -0.127201,-1.743175 -0.05947,-0.570746 -0.151534,-1.138016 -0.165121,-1.712655 -0.04372,-0.493376 -0.146688,-0.982226 -0.136975,-1.478922 4.14e-4,-0.46869 0.0016,-0.937387 -8.31e-4,-1.406073 -0.0035,-0.368731 -0.0081,-0.738175 -0.04759,-1.105184 -0.04859,-0.39892 -0.14579,-0.792628 -0.152067,-1.195467 -0.02011,-0.483202 -0.05841,-0.965228 -0.119217,-1.445137 -0.05497,-0.494622 -0.06619,-0.987688 -0.05827,-1.4853 -0.0074,-0.504441 -0.01989,-1.009411 -0.07676,-1.511187 -0.06141,-0.506018 -0.168334,-1.004988 -0.207942,-1.513743 -0.06593,-0.488071 -0.114946,-0.973241 -0.09474,-1.467076 -0.01035,-0.435322 -0.03093,-0.870914 -0.104531,-1.30098 -0.08173,-0.492118 -0.158343,-0.982797 -0.208454,-1.479299 -0.0707,-0.549908 -0.06622,-1.100864 -0.09164,-1.654109 -0.03976,-0.557471 -0.109781,-1.111118 -0.204627,-1.66201 -0.04679,-0.545923 -0.139387,-1.089489 -0.136546,-1.638186 -1.63e-4,-0.503308 1.54e-4,-1.006699 -0.01309,-1.509873 -0.0195,-0.568028 -0.0555,-1.135105 -0.119606,-1.700035 -0.06857,-0.694792 -0.06018,-1.389809 -0.06218,-2.087545 -0.01185,-0.79501 -0.03329,-1.590032 -0.09532,-2.382988 -0.06756,-0.854933 -0.118748,-1.70862 -0.120745,-2.566707 -0.03643,-0.85904 -0.103104,-1.715778 -0.153452,-2.573984 5.29e-4,-0.829621 0.0018,-1.659245 -3.75e-4,-2.488864 -0.0039,-0.857083 -0.0084,-1.714509 -0.05149,-2.570723 -0.04687,-0.800252 -0.135349,-1.596426 -0.186604,-2.396048 -0.04223,-0.633233 -0.128671,-1.262063 -0.158974,-1.895556 -0.02709,-0.539291 -0.06958,-1.077554 -0.143386,-1.612692 -0.04125,-0.500278 -0.01881,-1.002256 -0.02391,-1.503933 0,-0.495372 0,-0.990744 0,-1.486116 0,-0.68172 0,-1.363441 0,-2.045161 0,-0.759126 0,-1.518253 0,-2.27738 0,-0.758975 0,-1.517951 0,-2.276927 0,-0.807304 0,-1.614608 0,-2.421913 0,-0.812604 0,-1.625208 0,-2.437813 0,-0.789904 0,-1.579808 0,-2.369712 0,-0.688591 0,-1.377181 0,-2.065772 0,-0.542647 0,-1.085294 10e-7,-1.627941 10e-7,-0.413326 3e-6,-0.826652 6e-6,-1.239978 3e-6,-0.382765 1e-5,-0.76553 -3.1e-5,-1.148295 -6.4e-5,-0.426351 -1.74e-4,-0.852702 -5.49e-4,-1.279053 -4.03e-4,-0.433536 -0.0013,-0.867074 -1.89e-4,-1.30061 0.0022,-0.487979 0.0031,-0.976462 0.03544,-1.46359 0.0365,-0.4819077 0.09462,-0.9612555 0.150407,-1.441216 -3.56e-4,-0.4237813 -0.0042,-0.8481445 0.02163,-1.2713247 0.0342,-0.3800315 0.09857,-0.7550132 0.264265,-1.1028449 0.186127,-0.4428561 0.342434,-0.8999912 0.530611,-1.3424046 0.198149,-0.6022121 0.441873,-1.187116 0.659635,-1.7822165 0.146058,-0.5112031 0.869009,-0.3046458 0.72295,0.2065573 z"
       inkscape:connector-curvature="0"
       transform="translate(0,924.36218)" />
    <path
       style="fill:#000000;fill-opacity:1;stroke:none"
       id="path2993"
       d="m 13.739174,67.170847 c 0.123989,0.497511 0.260173,0.991968 0.378386,1.490901 0.109083,0.430846 0.243714,0.845622 0.424068,1.250993 0.161416,0.346897 0.329006,0.681661 0.529387,1.007022 0.191068,0.28097 0.348254,0.589962 0.578239,0.842373 0.249176,0.310666 0.518458,0.603788 0.792245,0.892669 0.290085,0.309701 0.617362,0.58008 0.942436,0.851757 0.404432,0.322437 0.822148,0.621791 1.258093,0.899607 0.331043,0.273696 0.706506,0.476818 1.08115,0.681789 0.413465,0.250119 0.829318,0.496005 1.246617,0.739693 0.415308,0.247946 0.846795,0.461985 1.290884,0.652865 0.436579,0.194515 0.836119,0.456794 1.28468,0.624188 0.480898,0.14146 0.935349,0.351648 1.4068,0.518606 0.436595,0.114683 0.855493,0.281486 1.282777,0.424401 0.355047,0.08279 0.704508,0.188692 1.063065,0.256609 0.359634,0.06537 0.726208,0.04735 1.08684,0.09833 0.313446,0.07621 0.631311,0.119555 0.952605,0.142282 0.366878,0.02013 0.734476,0.01962 1.101783,0.0203 0.497795,5.1e-5 0.99559,-6e-4 1.493385,-9.34e-4 0.432964,-2.79e-4 0.865927,-3.54e-4 1.298891,-3.91e-4 0.282535,-0.06865 0.582531,-0.07865 0.860267,-0.163151 0.288851,-0.122607 0.595186,-0.206244 0.885261,-0.325033 0.320652,-0.109448 0.635797,-0.21192 0.945495,-0.350077 0.369209,-0.174617 0.757916,-0.288687 1.144749,-0.414264 0.421353,-0.130634 0.828798,-0.304777 1.235406,-0.475537 0.377096,-0.203518 0.77707,-0.358472 1.163155,-0.543093 0.34492,-0.172951 0.654056,-0.403578 0.982717,-0.603677 0.290261,-0.201677 0.581664,-0.408634 0.859276,-0.628384 0.314671,-0.197648 0.58027,-0.450643 0.84728,-0.705201 0.217452,-0.267002 0.472828,-0.498542 0.705163,-0.751485 0.130871,-0.219937 0.326178,-0.39657 0.445957,-0.622756 0.128132,-0.2232 0.318194,-0.404966 0.405572,-0.649337 0.153418,-0.287535 0.318128,-0.568712 0.477817,-0.853291 0.120151,-0.275039 0.297806,-0.518988 0.412833,-0.796464 0.13313,-0.31942 0.27448,-0.636867 0.392888,-0.962265 0.09891,-0.277307 0.308525,-0.49323 0.406328,-0.769024 0.131885,-0.301133 0.292717,-0.585659 0.462029,-0.866661 0.145233,-0.25675 0.280789,-0.516029 0.397549,-0.787515 0.09092,-0.298957 0.260107,-0.565896 0.44166,-0.817101 0.316142,-0.427453 0.920651,0.01964 0.60451,0.447092 l 0,0 c -0.154654,0.201309 -0.281996,0.425187 -0.356249,0.668894 -0.131424,0.301587 -0.282625,0.5908 -0.443658,0.876999 -0.146701,0.242934 -0.286577,0.487916 -0.403665,0.747126 -0.107982,0.27109 -0.273728,0.500647 -0.403056,0.760315 -0.125282,0.336346 -0.268188,0.66621 -0.406733,0.997111 -0.130786,0.300878 -0.311044,0.573195 -0.449156,0.870182 -0.143586,0.25461 -0.286019,0.509268 -0.433852,0.760968 -0.113526,0.274025 -0.282675,0.504074 -0.451716,0.745505 -0.159759,0.270187 -0.368155,0.504938 -0.548153,0.761913 -0.24542,0.262063 -0.506079,0.509184 -0.737666,0.784388 -0.284991,0.27082 -0.568238,0.541587 -0.902674,0.753014 -0.30371,0.235143 -0.615188,0.464222 -0.932978,0.679222 -0.351054,0.210897 -0.678621,0.460059 -1.048731,0.639258 -0.397538,0.188664 -0.807131,0.351114 -1.196134,0.557839 -0.426604,0.178044 -0.853367,0.361119 -1.295226,0.497644 -0.361707,0.115717 -0.724506,0.221117 -1.068926,0.385239 -0.319956,0.142731 -0.645447,0.251619 -0.976561,0.363109 -0.318722,0.122148 -0.645112,0.225598 -0.962675,0.350732 -0.346265,0.0888 -0.704928,0.136311 -1.058038,0.189646 -0.432817,3.7e-5 -0.865634,1.11e-4 -1.298452,3.91e-4 -0.498433,3.34e-4 -0.996866,9.87e-4 -1.495299,9.32e-4 -0.384787,-7.26e-4 -0.769888,-3.61e-4 -1.154192,-0.02223 -0.341622,-0.02483 -0.680951,-0.06729 -1.01416,-0.149258 -0.365602,-0.06585 -0.748145,-0.01552 -1.112913,-0.102854 C 26.765141,78.9671 26.382324,78.855374 25.995529,78.760457 25.564233,78.615051 25.140627,78.448802 24.699957,78.33163 24.22417,78.161427 23.764677,77.951425 23.279011,77.807827 22.821184,77.632368 22.405298,77.380119 21.963003,77.17096 21.491291,76.967037 21.0318,76.740213 20.5902,76.476674 c -0.410838,-0.240629 -0.821194,-0.4819 -1.228043,-0.72918 -0.38891,-0.212997 -0.780299,-0.423612 -1.124227,-0.707268 -0.463127,-0.295183 -0.906818,-0.613925 -1.33617,-0.956749 -0.347352,-0.290325 -0.695827,-0.580813 -1.006047,-0.911525 -0.280433,-0.296031 -0.556733,-0.596076 -0.812017,-0.914369 -0.249603,-0.29174 -0.447231,-0.620545 -0.653009,-0.943735 -0.217664,-0.353936 -0.400169,-0.718964 -0.576029,-1.095502 -0.199325,-0.448112 -0.348235,-0.907735 -0.468792,-1.383545 -0.121662,-0.515383 -0.265252,-1.025259 -0.388342,-1.540346 -0.0874,-0.524425 0.654246,-0.648034 0.74165,-0.123608 z"
       inkscape:connector-curvature="0"
       transform="translate(0,924.36218)" />
    <path
       style="fill:#000000;fill-opacity:1;stroke:none"
       id="path2995"
       d="m 21.92822,86.336496 c -0.15426,0.576189 -0.219695,1.170494 -0.329328,1.756063 -0.101345,0.482123 -0.139883,0.972713 -0.16101,1.463837 -0.0058,0.466253 -0.09962,0.925316 -0.149895,1.387952 -0.009,0.405086 -0.108081,0.797964 -0.164323,1.197225 -0.05097,0.406046 -0.06231,0.815444 -0.06937,1.224156 0.01057,0.208616 0.09522,0.180413 0.267925,0.211708 0.286661,-0.02558 0.56478,-0.07169 0.838691,-0.158443 0.267688,-0.0789 0.529268,-0.20602 0.760085,-0.363472 0.262301,-0.1607 0.508641,-0.35627 0.720474,-0.579924 0.22657,-0.192225 0.379047,-0.448713 0.543241,-0.692689 0.156477,-0.239736 0.308293,-0.462881 0.378102,-0.742853 0.05994,-0.301393 0.159447,-0.590268 0.204977,-0.895134 0.04064,-0.339516 0.04232,-0.682063 0.04527,-1.023513 0.0016,-0.374588 3.61e-4,-0.749182 -2.11e-4,-1.123771 0.01227,-0.787064 -0.232888,-0.567762 0.726682,-0.773209 0.221757,0.300739 0.300186,0.66313 0.35409,1.025034 0.107982,0.291268 0.122759,0.607772 0.211587,0.902361 0.09746,0.291385 0.135821,0.5944 0.22744,0.886849 0.11551,0.324114 0.201011,0.657384 0.303037,0.98576 0.118264,0.348903 0.159192,0.714194 0.262645,1.066501 0.06106,0.311467 0.184784,0.602348 0.261808,0.909584 0.109857,0.257921 0.176218,0.528448 0.276983,0.789403 0.19149,0.495977 -0.509927,0.766785 -0.701417,0.270808 l 0,0 C 26.623505,93.77007 26.54522,93.470106 26.430064,93.180261 26.3588,92.883419 26.232631,92.603424 26.176766,92.302265 c -0.102247,-0.349933 -0.147814,-0.710494 -0.260046,-1.05782 -0.09914,-0.327892 -0.186048,-0.658786 -0.301723,-0.981512 -0.09387,-0.301072 -0.138118,-0.610965 -0.234624,-0.911285 -0.086,-0.328853 -0.128834,-0.668264 -0.230803,-0.993998 -0.03435,-0.243942 -0.07381,-0.494379 -0.223175,-0.698041 0.858918,-0.380309 0.620694,-0.446203 0.638338,0.33688 5.76e-4,0.377158 0.0019,0.754319 1.83e-4,1.131475 -0.0033,0.37727 -0.0061,0.755773 -0.05389,1.130618 -0.05165,0.331587 -0.153314,0.647443 -0.22161,0.974778 -0.09909,0.358416 -0.272824,0.663819 -0.48097,0.9694 -0.188982,0.280698 -0.370755,0.57331 -0.628301,0.797384 -0.255469,0.257704 -0.536136,0.496548 -0.847319,0.684438 -0.294072,0.187842 -0.609288,0.355604 -0.946128,0.451588 -0.396785,0.124289 -0.811297,0.200719 -1.228709,0.174992 -0.534255,-0.130597 -0.828436,-0.379728 -0.855463,-0.958502 0.0077,-0.439825 0.02075,-0.880356 0.07678,-1.317177 0.05632,-0.391192 0.152383,-0.775699 0.161234,-1.172671 0.04886,-0.446366 0.139063,-0.889353 0.146166,-1.338974 0.02299,-0.526608 0.06528,-1.052619 0.173153,-1.56968 0.115965,-0.619072 0.182674,-1.248309 0.355065,-1.855427 0.168125,-0.504376 0.881421,-0.266611 0.713295,0.237765 z"
       inkscape:connector-curvature="0"
       transform="translate(0,924.36218)" />
    <path
       style="fill:#000000;fill-opacity:1;stroke:none"
       id="path2997"
       d="m 29.483679,87.031297 c -0.08209,0.496336 -0.114786,0.998733 -0.139688,1.500613 -0.05223,0.387867 -0.13844,0.7688 -0.177784,1.158519 -0.03135,0.381166 -0.03041,0.763981 -0.03206,1.146141 -7.77e-4,0.444528 1.59e-4,0.889057 6.07e-4,1.333585 4e-4,0.402719 5.09e-4,0.805438 5.7e-4,1.208157 3.4e-5,0.314243 3e-5,0.628486 2.8e-5,0.942729 -3e-6,0.531659 -0.751883,0.531655 -0.75188,-4e-6 l 0,0 c 2e-6,-0.314204 6e-6,-0.628407 -2.8e-5,-0.942611 -6.1e-5,-0.402505 -1.69e-4,-0.805009 -5.69e-4,-1.207514 -4.5e-4,-0.445869 -0.0014,-0.89174 -6.01e-4,-1.337609 0.0018,-0.406593 0.0012,-0.813889 0.03596,-1.219334 0.03891,-0.376575 0.112411,-0.746402 0.174816,-1.11944 0.0265,-0.530762 0.06187,-1.061991 0.148988,-1.58684 0.0874,-0.524425 0.829054,-0.400817 0.74165,0.123608 z"
       inkscape:connector-curvature="0"
       transform="translate(0,924.36218)" />
    <path
       style="fill:#000000;fill-opacity:1;stroke:none"
       id="path2999"
       d="m 28.759398,88.955319 c -0.02866,-0.476393 0.03382,-0.93574 0.187116,-1.385819 0.0709,-0.324999 0.291654,-0.575543 0.440889,-0.861736 0.194782,-0.323513 0.480254,-0.574608 0.767577,-0.813552 0.344577,-0.262264 0.759844,-0.328998 1.179131,-0.364068 0.406607,-0.03831 0.799304,-0.02274 1.183348,0.120309 0.425091,0.156605 0.608888,0.507421 0.703636,0.924823 0.04937,0.37255 -0.08492,0.704972 -0.205651,1.046747 -0.0954,0.317467 -0.212221,0.630208 -0.409132,0.897834 -0.242732,0.265016 -0.562538,0.370208 -0.879108,0.50895 -0.29159,0.104766 -0.547129,0.279857 -0.823605,0.415469 -0.271904,0.187471 -0.588669,0.285212 -0.897604,0.39238 -0.11645,0.05756 -0.232321,0.109271 -0.33851,0.184403 -0.443909,0.292585 -0.857687,-0.335198 -0.413778,-0.627783 l 0,0 c 0.162572,-0.103314 0.327132,-0.194788 0.506455,-0.267176 0.28292,-0.09759 0.568279,-0.185778 0.816543,-0.358923 0.289445,-0.136498 0.552535,-0.326552 0.857967,-0.431009 0.202667,-0.0836 0.416583,-0.139772 0.585007,-0.286615 0.175085,-0.155794 0.19238,-0.474203 0.2873,-0.679323 0.07551,-0.211395 0.169938,-0.40982 0.178687,-0.638534 -0.03507,-0.187525 -0.05355,-0.317869 -0.252626,-0.385234 -0.255263,-0.132716 -0.563076,-0.06731 -0.838118,-0.0669 -0.263955,0.0206 -0.536554,0.04178 -0.761968,0.195052 -0.214978,0.174675 -0.428387,0.360183 -0.584425,0.591252 -0.136897,0.247137 -0.322774,0.467078 -0.390872,0.747765 -0.128653,0.371145 -0.172397,0.747705 -0.146379,1.14169 0,0.531659 -0.75188,0.531659 -0.75188,0 z"
       inkscape:connector-curvature="0"
       transform="translate(0,924.36218)" />
    <path
       style="fill:#000000;fill-opacity:1;stroke:none"
       id="path3001"
       d="m 37.459078,86.646617 c -0.436088,0.04964 -0.874655,0.130699 -1.291243,0.271017 -0.287933,0.09959 -0.552407,0.257707 -0.81566,0.409581 -0.239745,0.17515 -0.473239,0.359499 -0.719321,0.528125 -0.181525,0.128766 -0.305557,0.23999 -0.364448,0.453909 -0.04304,0.281015 -0.08958,0.578602 -0.04274,0.861466 0.0271,0.227754 0.201455,0.364023 0.371476,0.50013 0.200247,0.204578 0.457772,0.332299 0.683608,0.505152 0.228239,0.137953 0.44655,0.289144 0.664029,0.444088 0.28025,0.158136 0.575987,0.285478 0.854695,0.446148 0.31405,0.159093 0.617664,0.313043 0.866593,0.56577 0.358875,0.556207 0.0046,0.925664 -0.51799,1.114423 -0.352815,0.08383 -0.721039,0.109311 -1.066024,0.225354 -0.204022,0.116662 -0.359056,0.290815 -0.527939,0.450626 -0.09767,0.114788 -0.214466,0.205612 -0.290169,0.337298 -0.289109,0.446182 -0.920105,0.03732 -0.630996,-0.408861 l 0,0 c 0.119497,-0.175799 0.257385,-0.326289 0.406825,-0.476869 0.252711,-0.234023 0.486339,-0.48943 0.816035,-0.619227 0.344393,-0.104367 0.699983,-0.164119 1.054722,-0.22169 0.220908,-0.05887 0.08093,-0.0047 0.201693,0.107456 -0.159942,-0.221002 -0.48171,-0.269881 -0.693322,-0.425829 -0.294679,-0.177585 -0.621732,-0.296873 -0.912118,-0.483466 -0.225762,-0.16256 -0.455697,-0.315067 -0.690651,-0.464074 -0.223803,-0.18476 -0.501542,-0.299538 -0.699278,-0.517812 -0.311172,-0.263977 -0.591986,-0.557207 -0.63708,-0.983911 -0.04271,-0.395578 -0.01774,-0.799426 0.07319,-1.187397 0.126493,-0.365997 0.33683,-0.627132 0.656957,-0.844336 0.263089,-0.177291 0.505456,-0.379708 0.766919,-0.557969 0.308103,-0.177225 0.619531,-0.35865 0.957449,-0.472773 0.494123,-0.1579 1.007248,-0.266653 1.52479,-0.308209 0.53166,0 0.53166,0.75188 0,0.75188 z"
       inkscape:connector-curvature="0"
       transform="translate(0,924.36218)" />
    <path
       style="fill:#000000;fill-opacity:1;stroke:none"
       id="path3003"
       d="m 18.060028,955.12867 c -0.01257,0.57702 -7.23e-4,1.15064 0.05706,1.72528 0.09021,0.62241 0.08263,1.25244 0.158273,1.87548 0.110313,0.73633 0.214785,1.47467 0.344658,2.20847 0.141935,0.64703 0.206426,1.30307 0.24303,1.96102 -0.0025,0.58979 0.04352,1.17365 0.115976,1.75914 0.0438,0.56615 0.112566,1.12788 0.196233,1.69015 0.08079,0.52021 0.104,1.04546 0.117353,1.57005 0.0092,0.50262 0.0076,1.00534 0.0071,1.50801 -6.71e-4,0.5174 -0.0011,1.0348 -0.0013,1.5522 -1.9e-4,0.47011 -1.88e-4,0.94022 -1.95e-4,1.41033 -1e-6,0.46846 6e-6,0.93691 9e-6,1.40537 -0.0083,0.48144 0.02306,0.96386 -0.02682,1.44358 -0.07788,0.43447 -0.127996,0.8719 -0.157075,1.31115 -0.03068,0.48658 -0.0018,0.97435 -0.05046,1.45968 -0.03904,0.46183 -0.139108,0.90983 -0.261208,1.35796 -0.06351,0.35362 -0.140169,0.70349 -0.220176,1.05451 -0.0627,0.3855 -0.142349,0.77001 -0.275653,1.14074 -0.135785,0.33623 -0.238056,0.68392 -0.326501,1.03288 -0.0843,0.42015 -0.220597,0.82957 -0.345911,1.24053 -0.07295,0.39045 -0.221901,0.76315 -0.315988,1.14886 -0.0448,0.35801 -0.11054,0.71083 -0.184301,1.06495 -0.03111,0.34797 -0.156152,0.6777 -0.233685,1.01739 -0.05434,0.33745 -0.06438,0.67406 -0.146127,1.00779 -0.09327,0.33032 -0.113354,0.67034 -0.127027,1.00947 -0.01441,0.49357 -0.01332,0.98738 -0.01334,1.48108 0.05869,0.29088 -0.1127,0.77041 0.05698,1.0256 0.115577,0.0149 -0.131,-0.008 0.02341,-0.067 0.05316,-0.0203 0.115118,0.009 0.172704,0.007 0.07687,-0.003 0.153688,-0.01 0.229626,-0.0208 0.08496,-0.0125 0.584743,-0.11614 0.637243,-0.12688 0.988893,-0.19726 1.965627,-0.44396 2.93136,-0.71982 1.559213,-0.39877 3.123333,-0.78135 4.692442,-1.14734 1.21683,-0.34407 2.459313,-0.58736 3.70509,-0.82176 0.63778,-0.11035 1.269099,-0.24675 1.910707,-0.33819 0.511478,-0.0702 1.0286,-0.0846 1.544858,-0.0916 0.481167,-0.004 0.962363,-0.002 1.44354,-10e-4 0.475831,-0.0352 0.913973,0.11307 1.358084,0.23995 0.385501,0.0761 0.771387,0.14926 1.157603,0.22427 0.393288,0.079 0.797636,0.0682 1.193592,0.12465 0.349683,0.0376 0.661362,0.18918 0.99715,0.27158 0.375189,0.0899 0.756446,0.16089 1.131515,0.25136 0.376956,0.10938 0.766983,0.15893 1.159908,0.18642 0.402128,0.0217 0.805177,0.0208 1.20785,0.0211 0.393721,0.006 0.781763,0.01 1.170272,-0.0501 0.32064,-0.11452 0.757038,0.005 1.048379,-0.16878 0.0696,-0.18535 0.07586,-0.38545 0.08777,-0.57929 0.015,-0.4061 0.0086,-0.81255 0.0055,-1.21879 -0.0031,-0.38242 -0.0041,-0.76485 -0.0047,-1.14729 -4.92e-4,-0.44967 -4.02e-4,-0.89934 -3.96e-4,-1.34901 2e-5,-0.52939 3.9e-5,-1.05877 4.9e-5,-1.58816 8e-6,-0.50089 8e-6,-1.00178 10e-6,-1.50267 -0.01076,-0.52833 0.02524,-1.05822 -0.0234,-1.58513 -0.08081,-0.59846 -0.131887,-1.19872 -0.159401,-1.80101 -0.001,-0.62582 -0.0695,-1.24902 -0.169594,-1.86763 -0.110888,-0.69097 -0.261567,-1.37518 -0.361966,-2.06761 -0.06718,-0.79002 -0.255951,-1.56453 -0.380451,-2.34774 -0.0792,-0.68681 -0.160584,-1.3738 -0.285368,-2.05527 -0.10726,-0.66357 -0.271859,-1.31754 -0.367712,-1.98262 -0.09219,-0.75227 -0.100925,-1.50987 -0.109258,-2.2659 -0.005,-0.7574 -0.0029,-1.51483 -0.0018,-2.27224 8.82e-4,-0.55439 0.0013,-1.10878 0.0015,-1.66316 1.55e-4,-0.49788 1.29e-4,-0.99576 1.25e-4,-1.49364 -5e-6,-0.46542 -1.2e-5,-0.93083 -1.5e-5,-1.39625 -3e-6,-0.38277 -3e-6,-0.76555 -3e-6,-1.14832 0.007,-0.38486 -0.02197,-0.77051 0.02846,-1.15313 0.0797,-0.31658 0.129953,-0.63632 0.155811,-0.95995 0.02251,-0.35917 0.02249,-0.71908 0.02347,-1.07871 2.32e-4,-0.37579 -5.44e-4,-0.75159 -9.23e-4,-1.12738 -0.0279,-0.006 0.0041,-0.14318 -0.05438,-0.16134 -0.01087,-0.003 -0.02891,0.0577 -0.03389,0.059 -0.0798,0.0209 -0.166062,-9.4e-4 -0.249092,-7.6e-4 -0.567671,0.12421 -1.149678,0.16027 -1.726821,0.22839 -0.748935,0.11145 -1.504306,0.1643 -2.261631,0.1955 -0.732804,0.0762 -1.466344,0.14093 -2.202959,0.17597 -0.762395,0.0294 -1.525601,0.0318 -2.288546,0.0338 -0.581134,7.6e-4 -1.162267,-1.6e-4 -1.743401,-6.5e-4 -0.498197,-4.2e-4 -0.996394,-5e-4 -1.494592,-5.6e-4 -0.468768,0.0259 -0.926986,-0.0208 -1.388155,-0.0902 -0.408386,-0.069 -0.824761,-0.065 -1.234698,-0.11832 -0.397083,-0.0769 -0.798571,-0.12355 -1.203234,-0.14839 -0.471529,-0.0239 -0.935616,-0.11187 -1.404987,-0.15899 -0.442505,-0.0953 -0.894779,-0.1461 -1.338549,-0.23341 -0.386238,-0.097 -0.781723,-0.14569 -1.180331,-0.17201 -0.40209,-0.0207 -0.80501,-0.02 -1.207595,-0.0204 -0.395108,0.0156 -0.795771,-0.0286 -1.188185,0.0212 -0.374444,0.0616 -0.751116,0.093 -1.117526,0.18705 -0.302492,0.0714 -0.609098,0.16392 -0.862098,0.33554 -0.240812,0.12302 -0.402232,0.3095 -0.567062,0.50256 -0.193904,0.19029 -0.297644,0.41253 -0.419608,0.64094 -0.259325,0.47631 -0.998833,0.14226 -0.73951,-0.33405 l 0,0 c 0.151526,-0.27002 0.285768,-0.53983 0.509043,-0.77025 0.217464,-0.25108 0.439931,-0.49077 0.747048,-0.65724 0.338822,-0.20612 0.711406,-0.35705 1.109479,-0.44149 0.407521,-0.10349 0.824749,-0.14511 1.241327,-0.20952 0.427835,-0.0426 0.858063,-0.0218 1.288032,-0.0267 0.422452,4.4e-4 0.84526,-6e-5 1.267153,0.0225 0.438184,0.0297 0.873553,0.0823 1.298496,0.18781 0.413322,0.0864 0.839236,0.1222 1.250725,0.22016 0.457822,0.0464 0.910689,0.13094 1.370252,0.15615 0.427127,0.0268 0.851623,0.0738 1.270789,0.15514 0.411469,0.0618 0.835532,0.0399 1.245641,0.1199 0.417257,0.0628 0.82892,0.10691 1.253658,0.0801 0.498416,6e-5 0.996833,1.4e-4 1.495248,5.6e-4 0.580104,4.9e-4 1.160208,0.001 1.740312,6.5e-4 0.749431,-0.002 1.499117,-0.004 2.248019,-0.0327 0.738574,-0.0348 1.473588,-0.10282 2.208627,-0.17622 0.734505,-0.0301 1.466975,-0.0814 2.193264,-0.19009 0.616249,-0.072 1.233227,-0.12688 1.843634,-0.2345 0.65874,0.0142 1.106608,0.1894 1.151553,0.85419 3.78e-4,0.37665 0.0012,0.7533 9.2e-4,1.12994 -0.001,0.37746 -0.0012,0.75524 -0.0257,1.13218 -0.02778,0.33874 -0.07525,0.67495 -0.161112,1.006 -0.06306,0.34526 0.0033,0.7033 -0.02091,1.05174 0,0.38277 0,0.76554 2e-6,1.14831 5e-6,0.46542 1.1e-5,0.93084 1.7e-5,1.39626 2e-6,0.49797 2.8e-5,0.99595 -1.26e-4,1.49392 -2.27e-4,0.55461 -6.6e-4,1.10922 -0.0015,1.66383 -0.001,0.75458 -0.0032,1.50918 0.0018,2.26376 0.0079,0.7261 0.01552,1.45372 0.102397,2.17635 0.09301,0.65654 0.259501,1.30159 0.36351,1.95675 0.124266,0.68675 0.210236,1.37842 0.28798,2.0706 0.12471,0.78634 0.314837,1.56392 0.381875,2.35712 0.09945,0.68897 0.250981,1.36953 0.360366,2.05713 0.102595,0.64445 0.176401,1.29338 0.17756,1.94522 0.02687,0.59286 0.07848,1.18351 0.157521,1.77263 0.04543,0.54724 0.02004,1.09613 0.02598,1.64465 0,0.50089 -1e-6,1.00178 -9e-6,1.50267 -9e-6,0.52939 -2.8e-5,1.05878 -4.8e-5,1.58816 -8e-6,0.44931 -9.8e-5,0.89861 3.94e-4,1.34791 6.08e-4,0.38111 0.0016,0.76223 0.0047,1.14333 0.0031,0.42263 0.0099,0.84549 -0.0069,1.26795 -0.03162,0.47182 -0.0882,0.93793 -0.563722,1.21694 -0.404852,0.15362 -0.832607,0.15853 -1.261063,0.22872 -0.433945,0.065 -0.867095,0.0695 -1.306356,0.0603 -0.423865,-3.2e-4 -0.848138,4.7e-4 -1.271381,-0.0234 -0.443639,-0.032 -0.884474,-0.0883 -1.31059,-0.21007 -0.375619,-0.0944 -0.760577,-0.16124 -1.137171,-0.25277 -0.308769,-0.0796 -0.595511,-0.21115 -0.914681,-0.25484 -0.403428,-0.0708 -0.8272,-0.0315 -1.228046,-0.13067 -0.411465,-0.0803 -0.823145,-0.15564 -1.232652,-0.24227 -0.365405,-0.10488 -0.719146,-0.23852 -1.112061,-0.20534 -0.476623,-8.2e-4 -0.953262,-0.003 -1.429876,9.4e-4 -0.477739,0.006 -0.956368,0.0183 -1.429805,0.0827 -0.628397,0.0889 -1.246249,0.22449 -1.870973,0.33164 -1.233166,0.23175 -2.46282,0.47293 -3.667209,0.81378 -1.554981,0.3627 -3.104987,0.74185 -4.650337,1.13644 -0.987652,0.28181 -1.98639,0.53428 -2.997639,0.73602 -0.596343,0.12162 -1.309192,0.32495 -1.855536,-0.0487 -0.07363,-0.0503 -0.105327,-0.13759 -0.157998,-0.20638 -0.155513,-0.42185 -0.111019,-0.85631 -0.112465,-1.29665 2.3e-5,-0.50304 -0.0011,-1.00619 0.01392,-1.50909 0.01602,-0.38532 0.04198,-0.77139 0.146667,-1.1468 0.08255,-0.32919 0.0746,-0.66529 0.143621,-0.99732 0.07821,-0.33495 0.199678,-0.65941 0.230469,-1.00276 0.07566,-0.36263 0.139178,-0.72356 0.189938,-1.08971 0.09925,-0.39778 0.248314,-0.78298 0.326118,-1.18554 0.122692,-0.40035 0.255374,-0.79932 0.337043,-1.20888 0.09559,-0.37308 0.204375,-0.74515 0.349114,-1.10503 0.134068,-0.33764 0.180676,-0.69976 0.248944,-1.05164 0.08246,-0.36051 0.159205,-0.71969 0.227203,-1.08258 0.112533,-0.41269 0.206808,-0.8238 0.240777,-1.24969 0.05502,-0.47516 0.0086,-0.95564 0.04809,-1.43229 0.0301,-0.44952 0.07912,-0.8976 0.159847,-1.34215 0.05624,-0.45292 0.0049,-0.91208 0.02254,-1.36705 -3e-6,-0.46846 -10e-6,-0.93693 -8e-6,-1.40539 7e-6,-0.47021 3e-6,-0.94042 1.93e-4,-1.41063 2.39e-4,-0.51751 6.63e-4,-1.03502 0.0013,-1.55253 4.65e-4,-0.49667 0.0021,-0.99339 -0.0069,-1.49002 -0.01252,-0.49662 -0.03357,-0.99393 -0.110092,-1.48641 -0.08449,-0.5678 -0.154379,-1.13525 -0.19852,-1.70693 -0.07431,-0.60077 -0.122357,-1.20038 -0.12012,-1.80547 -0.03477,-0.63077 -0.09662,-1.25953 -0.23364,-1.87969 -0.131158,-0.7468 -0.239217,-1.49775 -0.350347,-2.24713 -0.07259,-0.62761 -0.07267,-1.2608 -0.159607,-1.8877 -0.05966,-0.59738 -0.07375,-1.19383 -0.06047,-1.79361 0,-0.53166 0.825453,-0.53166 0.825453,0 z"
       inkscape:connector-curvature="0" />
    <path
       style="fill:#000000;fill-opacity:1;stroke:none"
       id="path3005"
       d="m 23.188802,957.82205 c -0.10411,0.5717 -0.225583,1.14081 -0.372273,1.70483 -0.13945,0.48927 -0.179363,0.99338 -0.204605,1.49625 -0.01761,0.46648 -0.01541,0.93334 -0.01469,1.40002 0.0012,0.44039 0.002,0.88078 0.0024,1.32116 -0.02516,0.45602 0.06494,0.90571 0.121988,1.35704 0.02088,0.47709 0.100476,0.94143 0.248357,1.3986 0.120708,0.43959 0.19337,0.88584 0.335422,1.32077 0.143699,0.48237 0.262333,0.97132 0.382537,1.45928 0.06193,0.35466 0.138672,0.70696 0.272441,1.04565 0.159919,0.36715 0.226384,0.75535 0.264931,1.14625 0.02919,0.38469 0.02794,0.77056 0.02826,1.15596 0.0066,0.35665 0.104175,0.70593 0.145224,1.06151 0.04692,0.49508 0.05295,0.99241 0.05809,1.48901 0.0029,0.40396 0.0018,0.80793 0.0012,1.21189 -5.14e-4,0.37582 -6.91e-4,0.75164 -7.95e-4,1.12746 -7.8e-5,0.37549 -7e-5,0.75098 -6.9e-5,1.12647 3e-6,0.37591 6e-6,0.75182 8e-6,1.12774 1e-6,0.37594 1e-6,0.75189 2e-6,1.12783 0,0.37594 0,0.75188 0,1.12782 0.01098,0.28074 -0.07409,0.3129 0.184602,0.36582 0.369938,0.0561 0.752912,0.0689 1.125526,0.0312 0.434766,-0.0682 0.870929,-0.12216 1.310928,-0.15154 0.455098,-0.0383 0.91526,0.005 1.368615,-0.0452 0.434279,-0.069 0.870934,-0.11783 1.310651,-0.14489 0.421568,-0.0213 0.843932,-0.0219 1.266012,-0.0228 0.421131,-1.8e-4 0.842261,5.5e-4 1.263392,8.6e-4 0.465425,3e-4 0.930848,3.6e-4 1.396272,3.9e-4 0.420911,3e-5 0.841822,2e-5 1.262734,2e-5 0.412419,-10e-6 0.82484,-10e-6 1.23726,-10e-6 0.412579,0 0.825158,0 1.237737,0 0.412721,0 0.825443,0 1.238164,0 0.412728,0 0.825456,0 1.238184,0 0.412726,0 0.825453,0 1.238179,0 0.214639,-0.0136 0.182745,-0.10537 0.215496,-0.26978 0.04455,-0.38425 0.03749,-0.77165 0.03588,-1.15749 -0.003,-0.3897 -0.0055,-0.7794 -0.0068,-1.16911 -0.001,-0.37659 -0.0011,-0.75318 -0.0011,-1.12977 0.03033,-0.3629 -0.06113,-0.71537 -0.119735,-1.07169 -0.0301,-0.429 -0.09153,-0.85036 -0.171335,-1.27363 -0.07138,-0.3623 -0.07137,-0.72936 -0.163909,-1.08757 -0.10299,-0.34167 -0.225869,-0.67456 -0.295324,-1.02472 -0.03062,-0.3783 -0.129079,-0.74622 -0.195427,-1.11984 -0.02635,-0.3473 -0.08486,-0.68273 -0.167974,-1.02153 -0.07604,-0.30714 -0.198712,-0.59887 -0.261758,-0.91048 -0.06182,-0.37443 -0.06563,-0.75391 -0.07006,-1.13171 -0.0023,-0.37745 -7.16e-4,-0.75491 -5e-6,-1.13237 7.02e-4,-0.37606 8.81e-4,-0.75212 9.94e-4,-1.12819 8e-5,-0.37592 6.7e-5,-0.75184 6.2e-5,-1.12777 -5e-6,-0.37593 -9e-6,-0.75187 -1.2e-5,-1.12781 -10e-7,-0.45561 -10e-7,-0.91123 -10e-7,-1.36684 -0.0082,-0.44265 -0.01174,-0.88048 0.06388,-1.31839 0.07579,-0.36122 0.110491,-0.72714 0.129599,-1.09395 0.01487,-0.3693 0.01416,-0.73892 0.01434,-1.1084 0.04609,-0.33946 0.131965,-0.67137 0.169977,-1.01208 0.0048,-0.37819 0.06399,-0.74762 0.135412,-1.11926 -0.01098,-0.0364 0.09174,-0.28371 3.41e-4,-0.32562 -0.01462,-0.007 -0.01997,0.0277 -0.03608,0.0304 -0.01969,0.003 -0.04002,-9.4e-4 -0.06003,-0.001 -0.464052,-0.0889 -0.930443,-0.0203 -1.394676,0.0259 -0.687202,0.0703 -1.369362,0.17902 -2.050174,0.28915 -0.849882,0.13177 -1.711091,0.16657 -2.571164,0.18838 -0.801578,0.0614 -1.601567,0.13145 -2.405212,0.16718 -0.697745,0.0277 -1.396242,0.0313 -2.09453,0.0333 -0.53481,8.3e-4 -1.06962,-3e-5 -1.604431,-5.3e-4 -0.421879,-4e-4 -0.843758,-4.9e-4 -1.265637,-5.5e-4 -0.440294,0.0258 -0.870024,-0.024 -1.302725,-0.0904 -0.387336,-0.0243 -0.753472,-0.1406 -1.130633,-0.21289 -0.368283,-0.0644 -0.744184,-0.0493 -1.113902,-0.0987 -0.246572,-0.0472 -0.126827,-0.0244 -0.359226,-0.0687 -0.571302,-0.10892 -0.402188,-0.84485 0.169114,-0.73593 l 0,0 c 0.221861,0.0423 0.114702,0.0215 0.321511,0.0623 0.379025,0.0649 0.77694,0.0169 1.154479,0.10562 0.365761,0.0717 0.719836,0.18348 1.095747,0.20683 0.388122,0.0595 0.770192,0.10684 1.165758,0.0799 0.422121,5e-5 0.84424,1.5e-4 1.266361,5.4e-4 0.533666,5e-4 1.067333,0.001 1.600999,5.5e-4 0.685766,-0.002 1.37174,-0.005 2.056979,-0.0324 0.809419,-0.0358 1.614884,-0.10886 2.422454,-0.16779 0.819365,-0.0206 1.639905,-0.0524 2.449724,-0.17708 0.698921,-0.11305 1.399341,-0.22396 2.10482,-0.29629 0.583495,-0.0581 1.172063,-0.13104 1.749864,0.01 0.6436,0.23917 0.754418,0.53217 0.643353,1.13824 -0.06818,0.35471 -0.123686,0.70541 -0.127399,1.06671 -0.03607,0.31495 -0.0984,0.62486 -0.165628,0.93532 -1.87e-4,0.38137 4.48e-4,0.76288 -0.01528,1.14404 -0.02091,0.3943 -0.05821,0.78774 -0.138911,1.17614 -0.07055,0.39834 -0.0576,0.79725 -0.05363,1.20022 1e-6,0.45562 0,0.91123 2e-6,1.36685 2e-6,0.37593 6e-6,0.75187 1.2e-5,1.1278 4e-6,0.376 1.7e-5,0.75199 -6.2e-5,1.12799 -1.13e-4,0.37642 -2.92e-4,0.75285 -9.95e-4,1.12928 -7.06e-4,0.37436 -0.0023,0.74873 -4.2e-5,1.1231 0.0038,0.33578 0.006,0.67303 0.05701,1.00624 0.05795,0.30154 0.189274,0.58072 0.255011,0.88002 0.08654,0.3531 0.150797,0.70439 0.177332,1.06592 0.06495,0.36947 0.163757,0.7336 0.19317,1.1077 0.06457,0.33751 0.193574,0.65519 0.286589,0.98594 0.09455,0.37348 0.108786,0.75265 0.173486,1.13074 0.08076,0.42838 0.14552,0.85552 0.174171,1.28972 0.0643,0.39266 0.15968,0.78297 0.128807,1.18276 5.4e-5,0.37586 9.4e-5,0.75171 0.0011,1.12756 0.0013,0.38953 0.0037,0.77905 0.0068,1.16857 0.0019,0.44107 0.01182,0.88494 -0.05539,1.32283 -0.138133,0.52205 -0.398227,0.82305 -1.02144,0.85917 -0.412727,0 -0.825453,0 -1.238179,0 -0.412728,0 -0.825456,0 -1.238184,0 -0.412721,0 -0.825443,0 -1.238164,0 -0.412579,0 -0.825157,0 -1.237735,0 -0.412418,0 -0.824837,0 -1.237256,0 -0.420938,1e-5 -0.841875,1e-5 -1.262813,-10e-6 -0.465623,-4e-5 -0.931247,-9e-5 -1.396869,-3.9e-4 -0.420253,-3.2e-4 -0.840508,-0.001 -1.260762,-8.6e-4 -0.404326,8.7e-4 -0.808923,0.001 -1.212785,0.0211 -0.428307,0.0259 -0.852939,0.0765 -1.276131,0.14212 -0.46488,0.0429 -0.932205,0.0196 -1.398478,0.0477 -0.433034,0.0284 -0.861401,0.0856 -1.289655,0.14988 -0.498587,0.041 -1.012472,0.0385 -1.499809,-0.0766 -0.551686,-0.21422 -0.74418,-0.5244 -0.716889,-1.06868 0,-0.37594 0,-0.75188 0,-1.12782 0,-0.37595 0,-0.75189 -2e-6,-1.12784 -10e-7,-0.37591 -4e-6,-0.75182 -7e-6,-1.12774 -2e-6,-0.37555 -8e-6,-0.75111 6.9e-5,-1.12666 1.04e-4,-0.37604 2.81e-4,-0.75209 7.96e-4,-1.12813 5.09e-4,-0.40132 0.0015,-0.80265 -0.0012,-1.20396 -0.0048,-0.47305 -0.01021,-0.94678 -0.05371,-1.41844 -0.04277,-0.38105 -0.152053,-0.75484 -0.149634,-1.13858 -2.94e-4,-0.36352 0.0012,-0.72746 -0.02505,-1.09038 -0.03128,-0.32926 -0.08482,-0.65589 -0.221971,-0.96449 -0.137998,-0.36752 -0.237198,-0.74477 -0.29864,-1.12921 -0.115819,-0.47181 -0.230716,-0.9445 -0.368797,-1.41098 -0.139959,-0.43568 -0.223009,-0.88017 -0.335683,-1.32158 -0.160131,-0.49827 -0.253245,-1.00489 -0.276387,-1.5245 -0.0605,-0.47947 -0.153024,-0.9578 -0.127397,-1.44226 -4.57e-4,-0.44027 -0.0012,-0.88054 -0.0024,-1.3208 -7.49e-4,-0.47858 -0.003,-0.95734 0.01556,-1.4357 0.028,-0.54959 0.0745,-1.10021 0.225975,-1.63502 0.142492,-0.54753 0.260639,-1.1 0.36126,-1.65507 0.09595,-0.52442 0.910177,-0.40081 0.81422,0.12361 z"
       inkscape:connector-curvature="0" />
    <path
       style="fill:#3771c8;fill-opacity:1;stroke:none"
       d="m 38.992246,33.503933 c -5.089276,0.497665 -10.243854,0.676765 -15.337171,0.211466 -0.942095,-0.218843 -0.819684,1.193016 -0.96922,1.768092 -0.315983,2.967626 -0.236089,5.98879 0.755604,8.827541 0.68941,1.879348 0.820777,3.837043 0.758295,5.821954 0.09611,2.648215 -0.02207,5.352183 0.207201,7.965636 5.581705,-0.243994 11.205693,-0.326496 16.805686,-0.422932 0.440511,-0.859357 0.07809,-2.152415 0.179248,-3.18372 0.04918,-3.491605 -1.430298,-6.776921 -1.193543,-10.285479 -0.0603,-3.582485 0.0492,-7.206114 0.233045,-10.755425 -0.453088,-0.111772 -0.97007,0.05513 -1.439145,0.05287 z"
       id="path3007"
       inkscape:connector-curvature="0"
       transform="translate(0,924.36218)" />
    <path
       style="fill:#80b3ff;fill-opacity:1;stroke:none"
       id="path3009"
       d="m 27.979919,50.377162 c -0.07388,0.511236 -0.113076,1.026491 -0.139727,1.542071 -0.01896,0.412025 -0.0209,0.824542 -0.02189,1.236918 -2.16e-4,0.375836 4.93e-4,0.75167 8.39e-4,1.127505 2.67e-4,0.312772 3.35e-4,0.625543 3.85e-4,0.938315 8.7e-5,0.531659 -0.751793,0.531781 -0.751879,1.22e-4 l 0,0 c -5.1e-5,-0.312582 -1.18e-4,-0.625163 -3.85e-4,-0.937745 -3.47e-4,-0.376671 -0.0011,-0.753342 -8.38e-4,-1.130014 0.001,-0.424756 0.0032,-0.849654 0.0229,-1.274041 0.0283,-0.543924 0.0699,-1.087537 0.148949,-1.626739 0.0874,-0.524426 0.829054,-0.400818 0.741649,0.123608 z"
       inkscape:connector-curvature="0"
       transform="translate(0,924.36218)" />
    <path
       style="fill:#80b3ff;fill-opacity:1;stroke:none"
       id="path3013"
       d="m 30.022125,49.804511 c 0.4829,0.0088 0.967187,-0.02294 1.448242,0.02464 0.362705,0.07658 0.734854,0.09716 1.096711,0.173969 0.488674,0.162772 0.628322,0.587687 0.687845,1.052711 0.03117,0.384189 0.0237,0.770181 0.02134,1.155253 0.02134,0.545063 -0.154543,0.855901 -0.657477,1.071095 -0.384999,0.109258 -0.788807,0.100973 -1.185391,0.101753 -0.18158,0.02153 -0.316714,0.01668 -0.363056,0.198611 -0.06447,0.289286 -0.05998,0.588609 -0.06217,0.883406 2.06e-4,0.376127 0.0034,0.752245 0.0051,1.128368 0.01109,0.279753 -0.06696,0.315905 0.170053,0.369274 0.286864,0.06783 0.577193,-0.01498 0.86277,-0.05727 0.390885,-0.05734 0.785838,-0.07312 1.180246,-0.0826 0.253896,-0.0048 0.507844,-0.005 0.761775,-0.0054 0.531658,-7.27e-4 0.532688,0.751152 0.001,0.751879 l 0,0 c -0.248292,3.39e-4 -0.4966,5.54e-4 -0.744859,0.0052 -0.363565,0.0086 -0.72771,0.0222 -1.088089,0.07471 -0.413875,0.06123 -0.829949,0.155786 -1.240114,0.01628 -0.502519,-0.214378 -0.677759,-0.524562 -0.654684,-1.068818 -0.0016,-0.379123 -0.0049,-0.75824 -0.005,-1.137368 0.0031,-0.396921 -0.0017,-0.802506 0.126965,-1.183054 0.234913,-0.472747 0.535261,-0.611423 1.048736,-0.645081 0.306364,-5.19e-4 0.616534,0.0059 0.918642,-0.05232 0.232959,-0.05318 0.165129,-0.10642 0.173739,-0.373264 0.0022,-0.353423 0.0089,-0.707557 -0.01592,-1.060373 -0.01381,-0.124955 -0.0069,-0.323508 -0.107657,-0.409707 -0.32927,-0.08336 -0.680077,-0.07575 -1.010908,-0.159675 -0.452598,-0.05453 -0.912906,-0.002 -1.367791,-0.02033 -0.53166,0 -0.53166,-0.75188 0,-0.75188 z"
       inkscape:connector-curvature="0"
       transform="translate(0,924.36218)" />
    <path
       style="fill:#80b3ff;fill-opacity:1;stroke:none"
       id="path3015"
       d="m 36.438566,50.377162 c -0.07493,0.460039 -0.113961,0.92461 -0.139807,1.38965 -0.01932,0.399893 -0.02084,0.800327 -0.02181,1.200592 -2.15e-4,0.375901 4.94e-4,0.751801 8.4e-4,1.127701 0.04607,0.255338 -0.09396,0.693681 0.04971,0.911622 0.203426,0.0077 0.427679,0.04797 0.64105,0.06053 0.365818,0.01942 0.727011,0.01855 1.087933,-0.04327 0.174311,-0.06666 0.698344,-0.01497 0.780636,-0.194055 0.06436,-0.220061 0.0707,-0.449812 0.0781,-0.677273 0.0055,-0.371081 3.29e-4,-0.742225 -0.0021,-1.113316 -0.0024,-0.377611 -0.0029,-0.75523 -0.0032,-1.132847 -0.0011,-0.364034 -0.08923,-0.721746 -0.133614,-1.082712 -0.03225,-0.210262 -0.140677,-0.2083 -0.322861,-0.241647 -0.333294,-0.04172 -0.670427,-0.03432 -1.005644,-0.03291 -0.377883,0.0029 -0.755769,0.005 -1.133661,0.0062 -0.31395,8.2e-4 -0.6279,9.25e-4 -0.941851,0.001 -0.531659,1.55e-4 -0.531879,-0.751724 -2.2e-4,-0.75188 l 0,0 c 0.31325,-9.2e-5 0.626501,-1.96e-4 0.939751,-0.001 0.377625,-0.0012 0.755244,-0.0033 1.13286,-0.0062 0.389909,-0.0016 0.782666,-0.01023 1.169104,0.0502 0.480556,0.113577 0.834754,0.364735 0.908843,0.884972 0.04751,0.39096 0.143984,0.778078 0.139172,1.17328 3.47e-4,0.376233 8.87e-4,0.752467 0.0032,1.128694 0.0025,0.381189 0.0079,0.762439 0.0016,1.143614 -0.01495,0.426811 -0.03376,0.862621 -0.32131,1.205906 -0.379385,0.307881 -0.70143,0.311257 -1.163546,0.381329 -0.417833,0.06986 -0.836205,0.07653 -1.259173,0.05239 -0.488941,-0.03085 -1.015849,-0.06794 -1.293614,-0.532692 -0.133692,-0.387815 -0.10676,-0.783098 -0.103113,-1.189249 -3.47e-4,-0.37674 -0.0011,-0.75348 -8.38e-4,-1.13022 0.001,-0.413632 0.0027,-0.827435 0.02298,-1.24067 0.0276,-0.492398 0.06925,-0.984284 0.148868,-1.471352 0.0874,-0.524426 0.829054,-0.400818 0.74165,0.123608 z"
       inkscape:connector-curvature="0"
       transform="translate(0,924.36218)" />
    <path
       style="fill:#80b3ff;fill-opacity:1;stroke:none"
       id="path3017"
       d="m 31.775658,39.681735 c 0.562429,0.07295 1.128438,0.112311 1.694687,0.139662 0.475384,0.01875 0.951193,0.02091 1.426878,0.02196 0.387412,2.32e-4 0.774824,-4.84e-4 1.162235,-8.39e-4 0.399913,0.0031 0.444842,-0.09069 -0.0194,0.664147 -0.02264,0.03681 -0.07949,-0.03405 -0.120038,-0.04901 -0.05299,-0.01954 -0.106966,-0.03629 -0.160449,-0.05444 -0.429373,-0.132261 -0.881991,-0.138421 -1.323835,-0.198846 -0.454082,-0.08161 -0.911559,-0.131467 -1.371937,-0.156123 -0.417685,-0.01844 -0.835857,-0.01921 -1.253863,-0.01977 -0.379486,1.07e-4 -0.758971,8.36e-4 -1.138456,0.0012 -0.650657,0.09522 -0.537407,0.356703 -0.440978,-0.556562 0.202167,-0.01477 0.501558,-0.0024 0.736361,-0.0026 0.37903,-0.0014 0.758059,-0.0029 1.137092,-0.0036 0.395439,-6.79e-4 0.790879,-6.96e-4 1.186319,-7.35e-4 0.449733,-0.0068 0.895074,-0.01093 1.340234,0.05809 0.389669,0.04232 0.761124,0.169477 1.145869,0.236835 0.408053,0.05564 0.816826,0.05889 1.221031,0.141094 0.395541,0.106623 0.44464,0.13079 0.23714,0.787885 -0.04435,0.140452 -0.529714,0.04804 -0.624142,0.03389 -0.383078,-0.04445 -0.749068,-0.167723 -1.127937,-0.233981 -0.487864,-0.04375 -0.972184,-0.103798 -1.457523,-0.17131 -0.55506,-0.0547 -1.108438,-0.111506 -1.661731,-0.184021 -0.437792,-0.06068 -0.87884,-0.08714 -1.320278,-0.09982 -0.153827,-0.0027 -0.173719,-0.01381 -0.305846,0.0145 -0.02113,0.0045 -0.07843,0.03376 -0.0616,0.02021 0.215352,-0.173444 0.372762,-0.133565 0.20178,-0.520081 0.3543,0.07233 0.715079,0.08705 1.075415,0.09817 0.498292,0.06279 0.994165,0.13198 1.495778,0.16318 0.489855,0.026 0.980468,0.03032 1.470894,0.03233 0.435744,8.78e-4 0.871489,2e-6 1.307232,-4.53e-4 0.340695,0.0079 0.689679,-0.0111 1.015209,-0.119831 0.130963,-0.09038 0.0049,-0.06341 -0.0162,0.02612 -0.07278,0.30944 0.07741,0.242847 -0.044,0.206369 -0.25951,-0.08796 -0.540588,-0.09126 -0.811834,-0.104571 -0.438204,-0.01456 -0.876772,-0.01182 -1.315154,-0.01108 -0.446743,0.001 -0.893487,0.0017 -1.340231,0.0021 -0.361224,0.02362 -0.732552,-0.03956 -1.090588,0.01941 -0.236994,0.03819 -0.471752,0.104901 -0.686067,0.206593 0.05333,-0.06424 0.157569,-0.109252 0.160001,-0.192708 0.0042,-0.143194 -0.092,-0.271394 -0.142574,-0.405427 -0.0032,-0.0086 -0.02716,-0.01876 -0.01818,-0.02065 0.107629,-0.02271 0.287264,0.01366 0.394361,0.01599 0.504165,0.0054 1.008376,0.0033 1.51256,0.0026 0.531775,0.02816 1.055896,-0.0267 1.583169,-0.08422 0.529684,-0.08259 1.072058,-0.04265 1.601177,-0.118189 0.05785,-0.01066 0.116028,-0.01971 0.173565,-0.03197 0.04106,-0.0087 0.126505,-0.07962 0.120029,-0.03814 -0.0327,0.209467 -0.08176,0.416491 -0.106213,0.62708 -0.0055,0.04768 0.149342,0.03965 -0.05349,0.02551 -0.375077,-0.03961 -0.743693,0.0252 -1.114473,0.07275 -0.469227,0.118453 -0.946811,0.191779 -1.418052,0.300849 -0.419383,0.06191 -0.820514,0.172012 -1.217139,0.318189 -0.372918,0.138479 -0.768614,0.183356 -1.153946,0.273579 -0.374282,0.09218 -0.758259,0.123296 -1.141722,0.146676 -0.02609,0.0018 -0.07784,0.03147 -0.07827,0.0053 -0.0041,-0.249882 0.01041,-0.503212 0.06623,-0.746815 6.03e-4,-0.0026 0.410058,0.0023 0.619671,0.002 0.469359,-9.52e-4 0.93872,-0.0015 1.40808,-0.0019 0.524511,-0.01274 1.051383,0.026 1.574306,-0.02145 0.644628,-0.07685 1.292309,-0.118656 1.940704,-0.145361 0.43855,0.02257 0.863047,-0.06139 1.29248,-0.131093 0.168793,-0.01436 0.333627,-0.05662 0.496678,-0.100743 0.03913,-0.01059 0.07818,-0.02174 0.116328,-0.03544 0.0098,-0.0035 0.02757,-0.02646 0.02697,-0.01602 -0.01256,0.218511 -0.04241,0.435685 -0.06362,0.653528 -0.462145,0.0046 -0.940628,-0.01354 -1.408554,-0.01644 -0.815928,0.02152 -1.630668,0.09674 -2.446669,0.135596 -0.860454,0.03881 -1.721767,0.04819 -2.582954,0.05268 -0.82082,0.0027 -1.641646,0.0017 -2.462468,0.0012 -0.573293,-3.7e-4 -1.146586,-6.18e-4 -1.719879,-7.42e-4 -0.522933,-0.0055 -0.560982,0.139921 -0.318343,-0.751944 1e-6,-2e-6 0.179896,-1e-6 0.301676,-1e-6 0.379929,0.02184 0.738087,-0.109023 1.098431,-0.207946 0.508133,-0.09061 1.01101,-0.20286 1.514023,-0.318617 0.586903,-0.143163 1.188714,-0.187003 1.790145,-0.212329 0.556195,-0.07851 1.113923,-0.135887 1.674643,-0.168813 0.491678,0.009 0.973449,-0.07639 1.458236,-0.14301 0.335573,-0.05057 0.675049,-0.05363 1.012934,-0.07449 -0.04376,0.249729 -0.01533,0.523719 -0.131281,0.749186 -0.03865,0.07515 -0.169002,-7.54e-4 -0.253503,-9.54e-4 -0.45614,-0.0011 -0.912286,-2.93e-4 -1.368426,1.2e-5 -0.756539,0.07395 -1.516756,0.10388 -2.273275,0.175666 -0.649622,0.04577 -1.285414,0.184691 -1.92659,0.289281 -0.38911,0.123943 -0.802742,0.154311 -1.193969,0.263396 -0.04916,0.01442 -0.0988,0.02731 -0.147487,0.04325 -0.406598,0.133119 -0.258506,-0.610386 0.06425,-0.586219 0.39178,0.0171 0.784272,0.0097 1.176317,0.008 0.65048,-0.0028 1.300967,-0.0035 1.951452,-0.0041 1.104576,-4.97e-4 2.209151,-4.12e-4 3.313727,-4.14e-4 0.725515,6e-6 1.451031,2.5e-5 2.176547,3.7e-5 0.653348,-0.08202 -0.110387,-0.09347 0.196527,0.4266 -0.248382,-0.03152 -0.502891,-0.04261 -0.75458,-0.04907 -0.39026,4.58e-4 -0.781739,-0.02193 -1.170418,0.01765 -0.476626,0.06613 -0.954282,0.119725 -1.434731,0.14687 -0.437584,0.0603 -0.87275,0.130959 -1.304802,0.222409 -0.464006,0.118717 -0.949638,0.09699 -1.417314,0.181684 -0.256258,0.111164 -0.778582,0.05112 -1.001622,0.166741 0.139269,-0.04232 0.199026,-0.04532 0.20935,-0.321656 0.0037,-0.09866 -0.227551,-0.262791 -0.128902,-0.266649 0.08824,-0.0035 0.176021,0.01457 0.264115,0.02072 0.616192,0.109865 1.239602,0.146456 1.863828,0.174545 0.647037,0.02617 1.294651,0.0311 1.94213,0.03323 0.475538,0.01364 0.953711,-0.02571 1.418585,-0.128107 0.174627,-0.09903 0.691511,-0.07004 0.812499,-0.223848 0.01249,-0.01588 -0.03664,0.01706 -0.05496,0.02559 -0.144435,0.47997 -0.156717,0.200023 0.03115,0.534436 0.01967,0.03502 -0.08041,-5.03e-4 -0.120462,-0.0035 -0.12128,-0.0092 -0.172915,-0.0096 -0.297983,-0.01408 -0.370282,-0.0083 -0.740701,-0.0061 -1.111048,-0.0054 -0.483618,0.001 -0.967238,0.0014 -1.450858,0.0016 -0.673423,-0.02641 -1.342295,0.02998 -2.01266,0.08409 -0.615441,0.09195 -1.228885,0.19205 -1.848725,0.250121 -0.467749,0.0052 -0.926162,0.08906 -1.387848,0.153519 -0.358457,0.05091 -0.71933,0.04047 -1.072887,0.119365 -0.222647,0.194043 -0.04882,-0.615462 -0.0059,-0.619335 0.07426,-0.0067 0.148826,0.0094 0.223308,0.01273 0.358752,0.0084 0.717667,0.0042 1.076478,0.0026 0.190262,-8.98e-4 0.380525,-0.0014 0.570788,-0.0019 0.531657,-0.0014 0.533619,0.75049 0.002,0.751877 l 0,0 c -0.189785,4.96e-4 -0.379569,0.001 -0.569353,0.0019 -0.372072,0.0017 -0.744268,0.0062 -1.116265,-0.0034 -0.07439,-0.0038 -0.510534,4.47e-4 -0.540836,-0.08498 -0.22784,-0.642271 -0.198018,-0.67893 0.198378,-0.793757 0.373716,-0.08118 0.751462,-0.08572 1.130502,-0.129699 0.472837,-0.06583 0.942922,-0.150937 1.421809,-0.15747 0.623043,-0.05791 1.238924,-0.162855 1.858094,-0.250936 0.690304,-0.05572 1.379457,-0.112493 2.072849,-0.08653 0.483247,-1.98e-4 0.966495,-5.15e-4 1.449741,-0.0016 0.379942,-7.21e-4 0.759964,-0.0029 1.139834,0.0059 0.28041,0.01043 0.871405,-0.02737 0.972783,0.343095 0.03747,0.136924 -0.05131,0.279241 -0.07697,0.418862 -0.327152,0.266418 -0.737849,0.305418 -1.137085,0.406296 -0.518295,0.107163 -1.047734,0.162355 -1.577404,0.144535 -0.657948,-0.0022 -1.316031,-0.0073 -1.973526,-0.03399 -0.630871,-0.02853 -1.26207,-0.06243 -1.884572,-0.175769 -0.152644,-0.01149 -0.462938,0.0042 -0.587752,-0.106065 -0.335922,-0.296748 -0.337146,-0.578458 0.06674,-0.791732 0.361253,-0.101807 0.742734,-0.101244 1.107725,-0.192672 0.45993,-0.07365 0.930315,-0.07189 1.386636,-0.175855 0.469342,-0.09929 0.942422,-0.176972 1.41842,-0.237522 0.471015,-0.02612 0.938932,-0.08117 1.406291,-0.144735 0.419291,-0.03705 0.839746,-0.02571 1.26045,-0.02071 0.383024,0.0101 0.780256,0.0071 1.136754,0.165133 0.07152,0.06989 0.179223,0.116115 0.214567,0.209658 0.219668,0.581385 -0.400038,0.735891 -0.812835,0.751182 -0.725511,-1.1e-5 -1.451022,-3e-5 -2.176533,-3.7e-5 -1.104383,2e-6 -2.208766,-8.2e-5 -3.313149,4.15e-4 -0.649631,4.99e-4 -1.299262,0.0013 -1.948888,0.004 -0.419512,0.0018 -0.839701,0.01087 -1.25876,-0.01223 -0.04971,-0.006 -0.361095,-0.03301 -0.381689,-0.08636 -0.266391,-0.690022 -0.109309,-0.710707 0.353296,-0.845596 0.417816,-0.105416 0.848672,-0.158477 1.264004,-0.278258 0.657917,-0.107027 1.31044,-0.248968 1.977002,-0.295753 0.77985,-0.07289 1.563124,-0.107725 2.343251,-0.178976 0.457268,-3.06e-4 0.914542,-0.0011 1.371809,-7e-6 0.08688,2.13e-4 0.217823,-0.07458 0.260633,0.001 0.126692,0.223725 0.110959,0.502099 0.166438,0.753149 -0.318874,0.01881 -0.639107,0.02229 -0.955844,0.06886 -0.504018,0.06912 -1.005659,0.156098 -1.516628,0.148716 -0.56502,0.03285 -1.126129,0.0955 -1.687123,0.169438 -0.555282,0.023 -1.111105,0.06127 -1.652979,0.193849 -0.492804,0.113308 -0.9852,0.225901 -1.483726,0.310981 -0.425165,0.116461 -0.849434,0.259182 -1.297281,0.234718 -0.05642,0 -0.112832,-10e-7 -0.169248,0 -0.04413,0 -0.120812,0.04258 -0.132377,1e-6 -0.242222,-0.891852 -0.204444,-0.746429 0.318456,-0.751815 0.57339,1.23e-4 1.14678,3.71e-4 1.72017,7.42e-4 0.819367,4.93e-4 1.638739,0.0015 2.458103,-0.0012 0.850576,-0.0044 1.701277,-0.01357 2.551132,-0.05184 0.829455,-0.03943 1.657521,-0.116665 2.487084,-0.136431 0.57728,0.0036 1.165925,-0.02288 1.733625,0.09259 0.01505,0.235535 0.0689,0.471788 0.04514,0.706603 -0.0044,0.0439 -0.08027,0.03696 -0.121868,0.05167 -0.227822,0.08056 -0.470828,0.124957 -0.709131,0.158311 -0.458652,0.07417 -0.914004,0.160551 -1.381859,0.140138 -0.637477,0.02614 -1.274172,0.06772 -1.907935,0.143296 -0.544616,0.04378 -1.091352,0.01683 -1.637374,0.02415 -0.469257,3.58e-4 -0.938514,9.35e-4 -1.40777,0.0019 -0.211579,2.48e-4 -0.65609,0.0075 -0.659007,-0.003 -0.06748,-0.243601 -0.08028,-0.501464 -0.07868,-0.754235 1.76e-4,-0.02789 0.05566,-0.0038 0.08349,-0.0057 0.341147,-0.02073 0.68306,-0.0459 1.016069,-0.128282 0.355473,-0.08316 0.719854,-0.125511 1.065317,-0.246988 0.425956,-0.156931 0.857852,-0.277433 1.307621,-0.345212 0.495589,-0.114626 0.997301,-0.194503 1.491895,-0.314091 0.427499,-0.05482 0.854355,-0.122101 1.286464,-0.07497 0.05564,0.0066 0.372572,0.03183 0.389577,0.09382 0.207566,0.756579 -0.01129,0.726975 -0.500817,0.817029 -0.536823,0.06751 -1.081559,0.04726 -1.618658,0.120303 -0.553813,0.06039 -1.105315,0.11604 -1.663657,0.08865 -0.510142,6.98e-4 -1.020313,0.0029 -1.530434,-0.0028 -0.406706,-0.0094 -0.897753,0.0546 -0.943229,-0.535414 -0.008,-0.103631 0.118043,-0.17111 0.177064,-0.256666 0.300239,-0.166707 0.638231,-0.249746 0.974709,-0.308506 0.395022,-0.04719 0.7934,-0.01848 1.190683,-0.02619 0.446542,-3.98e-4 0.893085,-0.0011 1.339626,-0.0021 0.451287,-7.63e-4 0.902772,-0.0036 1.35386,0.01201 0.422387,0.02135 0.865713,0.03087 1.235326,0.261489 0.486273,0.416711 0.378977,0.822788 -0.180909,1.080574 -0.400963,0.116295 -0.816222,0.170728 -1.23423,0.152678 -0.437037,4.56e-4 -0.874076,0.0013 -1.311113,4.46e-4 -0.505091,-0.0021 -1.010375,-0.0067 -1.514864,-0.0338 -0.493606,-0.0312 -0.982737,-0.09242 -1.472213,-0.162072 -0.481408,-0.01524 -0.976465,-0.02325 -1.430987,-0.200357 -0.07028,-0.05393 -0.173359,-0.08152 -0.210851,-0.161785 -0.297868,-0.637681 0.310391,-0.784556 0.777318,-0.753736 0.466839,0.01359 0.933259,0.04186 1.396255,0.105879 0.55531,0.07278 1.110616,0.129078 1.667644,0.18482 0.494921,0.06888 0.988671,0.12778 1.485855,0.175804 0.373572,0.06762 0.735079,0.183954 1.112314,0.231365 0.04052,0.0068 0.08181,0.0099 0.121554,0.02027 0.04397,0.01149 0.300711,0.83679 -0.0022,0.637267 -0.396923,-0.08262 -0.80186,-0.07121 -1.201981,-0.137435 -0.379449,-0.06896 -0.746424,-0.188884 -1.130298,-0.234219 -0.406025,-0.06484 -0.812942,-0.05179 -1.223422,-0.04897 -0.394955,3.9e-5 -0.78991,5.5e-5 -1.184864,7.33e-4 -0.379273,7.7e-4 -0.758544,0.0022 -1.137815,0.0036 -0.350965,3.67e-4 -0.711211,0.023 -1.053226,-0.06705 -0.01093,-0.23807 -0.05626,-0.477048 -0.03279,-0.714209 0.0028,-0.02842 0.713565,-0.167276 0.7891,-0.163333 0.380065,-3.67e-4 0.760129,-0.0011 1.140194,-0.0012 0.431181,5.83e-4 0.862535,0.0015 1.293373,0.02086 0.481498,0.02617 0.960277,0.07698 1.43524,0.162233 0.489255,0.06978 0.991732,0.07284 1.464977,0.232668 0.115537,0.04029 0.380395,0.128959 0.38239,0.147213 0.09103,0.833246 0.09208,0.753369 -0.326779,0.754819 -0.388193,3.56e-4 -0.776386,0.0011 -1.16458,8.38e-4 -0.487258,-0.0011 -0.974644,-0.0034 -1.461586,-0.02284 -0.595445,-0.0289 -1.190734,-0.07032 -1.781931,-0.149013 -0.524426,-0.0874 -0.400817,-0.829053 0.123608,-0.741649 z"
       inkscape:connector-curvature="0"
       transform="translate(0,924.36218)" />
    <path
       style="fill:#80b3ff;fill-opacity:1;stroke:none"
       id="path3019"
       d="m 25,34.713854 c 0,0.528135 0,1.05627 0,1.584405 0.01344,0.287976 -0.01701,0.578547 0,0.866312 0.0079,0.134169 -0.01861,0.117694 0.05248,0.132942 0.217107,0.06886 0.441787,0.08944 0.66838,0.102634 0.420975,0.01288 0.842291,0.005 1.263381,0.0031 0.662053,-0.0026 1.324111,-0.0037 1.986169,-0.0044 0.503197,0.0047 1.002858,-0.087 1.495277,-0.183126 0.46901,-0.100282 0.945069,-0.153346 1.423317,-0.180036 0.360878,-0.03977 0.732205,0.0247 1.0902,-0.03426 0.330357,-0.07746 0.66582,-0.120039 1.003736,-0.144957 0.376702,-0.02197 0.75421,-0.02213 1.131414,-0.02305 0.376645,-2.1e-4 0.753289,4.91e-4 1.129933,8.31e-4 0.375975,3.1e-4 0.75195,3.61e-4 1.127926,3.97e-4 0.375931,2.3e-5 0.751862,1.5e-5 1.127793,1.2e-5 0.195506,-0.01364 0.166454,-0.105379 0.196286,-0.269785 0.04152,-0.332571 0.03408,-0.668972 0.03268,-1.003453 -0.01156,-0.181168 -0.0063,-0.583295 -0.152161,-0.710217 -0.19253,-0.06202 -0.394553,-0.07331 -0.595002,-0.08411 -0.366498,-0.01135 -0.73327,-0.0061 -1.099871,-0.0039 -0.456254,-0.008 -0.907927,8.7e-5 -1.360911,0.05444 -0.466415,0.05583 -0.919013,0.184752 -1.383242,0.257038 -0.400086,0.0564 -0.804476,0.06442 -1.207794,0.06926 -0.331634,-0.02386 -0.647698,0.01319 -0.970894,0.07789 -0.359678,0.07254 -0.726501,0.0908 -1.092231,0.102743 -0.377523,0.0089 -0.755189,0.0078 -1.13279,0.0076 -0.376279,-4.61e-4 -0.752558,-8.3e-4 -1.128837,-0.001 -0.375938,-1.64e-4 -0.751875,-1.71e-4 -1.127812,-1.8e-4 -0.375935,-3e-6 -0.751869,2e-6 -1.127804,5e-6 -0.375939,2e-6 -0.751879,3e-6 -1.127818,3e-6 -0.03829,0.0064 -0.07658,0.01271 -0.114872,0.01906 -0.526819,0.07158 -0.628047,-0.673456 -0.101228,-0.745034 l 0,0 c 0.07203,-0.0086 0.144066,-0.01727 0.216099,-0.02591 0.375938,0 0.751876,0 1.127814,-3e-6 0.375942,-2e-6 0.751884,-8e-6 1.127826,-5e-6 0.376064,9e-6 0.752128,1.6e-5 1.128192,1.81e-4 0.376301,1.98e-4 0.752601,5.67e-4 1.128901,0.001 0.369339,2.28e-4 0.738739,0.0013 1.108004,-0.0072 0.324338,-0.01039 0.649873,-0.0247 0.968977,-0.08851 0.368149,-0.07369 0.732874,-0.115542 1.109529,-0.09247 0.367849,-0.0043 0.73674,-0.01044 1.101817,-0.06048 0.472843,-0.07257 0.933105,-0.208438 1.408998,-0.260567 0.481174,-0.05722 0.96117,-0.06877 1.445636,-0.05973 0.382178,-0.0023 0.764553,-0.0078 1.1466,0.0051 0.431212,0.02517 0.865159,0.0669 1.172114,0.408575 0.210356,0.34097 0.290405,0.732653 0.284633,1.133322 0.0016,0.389889 0.01043,0.782693 -0.05044,1.16906 -0.125818,0.522051 -0.362727,0.823055 -0.930392,0.859175 -0.375957,3e-6 -0.751914,1.1e-5 -1.127871,-1.2e-5 -0.376178,-3.6e-5 -0.752356,-8.7e-5 -1.128534,-3.97e-4 -0.375808,-3.4e-4 -0.751615,-0.001 -1.127423,-8.34e-4 -0.359591,8.71e-4 -0.719466,8.42e-4 -1.078611,0.02106 -0.322726,0.02319 -0.641671,0.06819 -0.957438,0.140139 -0.381544,0.04572 -0.766124,0.01726 -1.149626,0.03992 -0.443911,0.02429 -0.885667,0.07376 -1.320899,0.16728 -0.539512,0.105123 -1.08712,0.201847 -1.638434,0.197028 -0.661147,6.73e-4 -1.322293,0.0018 -1.983435,0.0044 -0.4375,0.002 -0.875266,0.01049 -1.312615,-0.0044 -0.482149,-0.03046 -0.961892,-0.08683 -1.282499,-0.492682 -0.03964,-0.0904 -0.09118,-0.176462 -0.11892,-0.271189 -0.1012,-0.345529 0.02195,-0.737061 -0.02558,-1.088504 0,-0.528135 0,-1.05627 0,-1.584405 0,-0.531659 0.75188,-0.531659 0.75188,0 z"
       inkscape:connector-curvature="0"
       transform="translate(0,924.36218)" />
    <path
       style="fill:#80b3ff;fill-opacity:1;stroke:none"
       id="path3021"
       d="m 35.176053,34.594971 c 0.160372,0.489543 0.248188,0.99707 0.305646,1.507671 0.0251,0.305459 0.01466,0.1545 0.0316,0.452857 0.02986,0.53082 -0.720833,0.573048 -0.750693,0.04223 l 0,0 c -0.01515,-0.272073 -0.0058,-0.134849 -0.02815,-0.411659 -0.05071,-0.458252 -0.128621,-0.913799 -0.271705,-1.353331 -0.168125,-0.504377 0.54517,-0.742142 0.713296,-0.237766 z"
       inkscape:connector-curvature="0"
       transform="translate(0,924.36218)" />
    <path
       style="fill:#80b3ff;fill-opacity:1;stroke:none"
       d="m 31.50282,35.072307 c -2.202113,0.08595 -4.457461,-0.02551 -6.62594,0.199718 -0.10994,1.089653 -0.339568,2.747291 1.297427,2.156062 2.882525,-0.155479 5.825855,-0.111354 8.664979,-0.511326 -0.103107,-0.663818 0.146628,-2.189203 -1.010339,-1.862077 -0.775455,-0.0045 -1.550749,0.0088 -2.326127,0.01762 z"
       id="path3023"
       inkscape:connector-curvature="0"
       transform="translate(0,924.36218)" />
    <path
       style="fill:#80b3ff;fill-opacity:1;stroke:none"
       id="path3025"
       d="m 25.37594,44.48829 c 0.03099,0.306435 0.142219,0.631366 0.373993,0.844061 0.311235,0.287645 0.393027,0.102448 0.152855,0.169408 0.0059,-0.166611 0.0459,-0.325315 -0.03984,-0.482778 -0.202938,-0.534924 0.148204,-0.838561 0.669386,-0.786221 0.187478,0.03798 0.376865,0.0624 0.566954,0.0823 0.528706,0.05596 0.449565,0.803664 -0.07914,0.747703 l 0,0 c -0.198249,-0.02119 -0.396201,-0.0451 -0.59168,-0.08533 -0.05785,-0.02037 0.079,-0.07192 0.101699,-0.13649 0.01698,-0.04832 0.02107,-0.100829 0.02225,-0.152034 2.79e-4,-0.01209 -0.02039,-0.04336 -0.01801,-0.0315 0.0062,0.03112 0.01989,0.06029 0.02983,0.09043 0.142918,0.415222 0.149357,0.837843 -0.07779,1.227911 -0.06685,0.06282 -0.12099,0.142802 -0.200553,0.188471 -0.390097,0.223919 -0.794963,-0.05336 -1.077121,-0.309885 -0.346945,-0.37927 -0.559758,-0.846969 -0.584712,-1.366045 0,-0.531659 0.75188,-0.531659 0.75188,0 z"
       inkscape:connector-curvature="0"
       transform="translate(0,924.36218)" />
    <path
       style="fill:#80b3ff;fill-opacity:1;stroke:none"
       id="path3027"
       d="m 26.450696,47.172932 c 0.507332,-0.01847 1.019558,0.0344 1.524803,-0.02065 0.181901,-0.03306 0.458026,-0.0543 0.52739,-0.259057 0.153724,-0.221996 0.211862,-0.487005 0.306824,-0.736423 0.07988,-0.33833 0.192461,-0.640163 0.4192,-0.906539 0.285821,-0.220828 0.689904,-0.386292 1.048784,-0.22964 0.07904,0.0345 0.143975,0.09496 0.215963,0.142443 0.169847,0.173213 0.234984,0.377982 0.284417,0.607977 0.0098,0.04557 0.01322,0.09245 0.02475,0.137611 0.0023,0.009 0.01879,0.03142 0.01615,0.02256 -0.0072,-0.02411 -0.02003,-0.04615 -0.03004,-0.06922 -0.272974,-0.207042 0.01285,-0.03109 -0.308645,-0.110214 -0.05916,-0.01456 0.107263,-0.05841 0.163807,-0.0811 0.176212,-0.07073 0.15118,-0.05402 0.353994,-0.08445 0.320412,0.0067 0.638908,0.04631 0.959044,0.06349 0.363249,0.01646 0.726943,0.01802 1.090494,0.01952 0.22649,4.57e-4 0.125912,0.01056 0.302682,-0.01861 0.526905,-0.07094 0.627227,0.674219 0.100321,0.745157 l 0,0 c -0.279534,0.03313 -0.144098,0.02585 -0.406105,0.02532 -0.376031,-0.0016 -0.752211,-0.0033 -1.127919,-0.0206 -0.281583,-0.01528 -0.562316,-0.03903 -0.842979,-0.0662 -0.226658,-0.04536 -0.514425,0.377974 -0.849655,0.02382 -0.108433,-0.15913 -0.236691,-0.408538 -0.204188,-0.6113 0.1417,-0.05368 -0.217034,-0.02894 -0.241807,0.0171 -0.194228,0.13121 -0.168246,0.470864 -0.265603,0.660427 -0.110021,0.288932 -0.182434,0.594952 -0.362443,0.851828 -0.258701,0.39376 -0.631755,0.578919 -1.100202,0.624311 -0.531298,0.049 -1.065999,0.01413 -1.599039,0.02432 -0.531659,0 -0.531659,-0.75188 0,-0.75188 z"
       inkscape:connector-curvature="0"
       transform="translate(0,924.36218)" />
    <path
       style="fill:#000000;fill-opacity:1;stroke:none"
       id="path3031"
       d="m 24.415918,60.718845 c 0.272667,0.255049 0.610681,0.391579 0.96764,0.478582 0.357952,0.07173 0.724274,0.07477 1.087869,0.07826 0.358128,0.0072 0.711164,0.0088 1.064361,-0.05165 0.38659,-0.07608 0.778821,-0.1096 1.171744,-0.128714 0.323825,-0.0073 0.637229,-0.10129 0.957566,-0.146572 0.390944,-0.04742 0.785272,-0.05026 1.178489,-0.05394 0.41764,-0.0024 0.835289,-0.0014 1.252933,-8.6e-4 0.380563,4.79e-4 0.761127,6.4e-4 1.141691,7.33e-4 0.118353,-0.02635 0.534389,0.09382 0.538464,-0.105206 0.01899,-0.02623 0.05227,-0.251524 6.87e-4,-0.229368 -0.101139,0.04344 0.07824,0.003 -0.039,0.02543 -0.263407,-0.06616 -0.537041,-0.06713 -0.806884,-0.07206 -0.375508,-0.0026 -0.751026,0.0012 -1.12653,0.003 -0.377262,0.0017 -0.754529,0.002 -1.131794,0.0023 -0.37603,1.5e-4 -0.752061,1.11e-4 -1.128091,9.7e-5 -0.375925,-1.7e-5 -0.75185,-2.5e-5 -1.127774,-2.9e-5 -0.360199,0.01541 -0.725381,-0.02967 -1.083162,0.01982 -0.338708,0.03323 -0.659275,0.12497 -0.984407,0.217753 -0.326227,0.08875 -0.663158,0.09411 -0.990093,0.175865 -0.321062,0.107231 -0.667152,0.08176 -0.992719,0.15518 -0.165867,0.03964 -0.355619,0.09336 -0.418159,0.267046 -0.0073,0.02681 -0.01457,0.05362 -0.02186,0.08043 -0.173588,0.502522 -0.884262,0.257031 -0.710674,-0.245491 l 0,0 c 0.02489,-0.06633 0.04977,-0.13265 0.07466,-0.198975 0.214059,-0.351882 0.520305,-0.56332 0.929212,-0.640416 0.318168,-0.05876 0.645085,-0.05899 0.958524,-0.147539 0.319613,-0.07874 0.644642,-0.09689 0.965228,-0.169244 0.363102,-0.103108 0.723669,-0.202012 1.100989,-0.241168 0.389508,-0.0421 0.781065,-0.02063 1.172471,-0.02514 0.375932,5e-6 0.751863,1.2e-5 1.127794,3e-5 0.375872,1.4e-5 0.751743,5.2e-5 1.127615,-9.8e-5 0.376212,-2.24e-4 0.752425,-5.62e-4 1.128634,-0.0023 0.381414,-0.0018 0.762843,-0.0057 1.14426,-0.0029 0.408387,0.0079 0.829318,0.0087 1.203604,0.1941 0.48049,0.365087 0.492774,0.721066 0.255305,1.247351 -0.343141,0.452143 -0.635061,0.458234 -1.166481,0.443382 -0.380798,-9.4e-5 -0.761596,-2.54e-4 -1.142394,-7.33e-4 -0.415013,-4.9e-4 -0.830031,-0.0015 -1.245041,8.27e-4 -0.360746,0.0033 -0.722524,0.0051 -1.081367,0.04673 -0.342764,0.04731 -0.6778,0.150851 -1.025479,0.152944 -0.363135,0.01734 -0.725581,0.04808 -1.08275,0.119088 -0.397395,0.0664 -0.794439,0.07236 -1.196915,0.06211 -0.422843,-0.0042 -0.848644,-0.01106 -1.26381,-0.100907 -0.48773,-0.125365 -0.947165,-0.322113 -1.316011,-0.67612 -0.37594,-0.37594 0.155719,-0.907599 0.531659,-0.531659 z"
       inkscape:connector-curvature="0"
       transform="translate(0,924.36218)" />
    <path
       style="fill:#000000;fill-opacity:1;stroke:none"
       id="path3033"
       d="m 35.731655,60.02799 c 0.03181,0.373442 0.152414,0.701367 0.359828,1.006903 0.153781,0.24282 0.410282,0.345142 0.658554,0.46663 0.264981,0.111757 0.554605,0.125413 0.837964,0.139499 0.365574,0.01201 0.731436,0.0091 1.097147,0.0081 0.337502,-0.0017 0.671941,0.01903 1.003602,-0.04855 0.238626,-0.148466 0.519621,-0.187335 0.777169,-0.284594 0.289457,-0.08768 0.572814,-0.188022 0.860482,-0.281318 0.283698,-0.162942 0.597023,-0.238161 0.917334,-0.28583 0.12929,-0.06216 0.702901,0.06257 0.737826,-0.11727 0.0171,-0.197585 0.01486,-0.08588 -0.033,-0.04736 -0.26379,-0.06242 -0.536355,-0.06453 -0.805895,-0.06971 -0.375738,-0.0031 -0.751493,4.48e-4 -1.12723,0.0021 -0.332225,-0.02472 -0.648679,0.0142 -0.972197,0.07978 -0.286902,0.06573 -0.573577,0.151882 -0.853999,0.244697 -0.372063,0.134007 -0.762483,0.188171 -1.154466,0.220178 -0.385339,0.02434 -0.771662,0.02339 -1.157591,0.02369 -0.37649,-4.25e-4 -0.752978,-0.0013 -1.129468,-0.0018 -0.398986,0.01724 -0.783858,0.0034 -1.160673,-0.135452 -0.492934,-0.199193 -0.211232,-0.896307 0.281702,-0.697113 l 0,0 c 0.268047,0.137499 0.591599,0.06181 0.87987,0.08069 0.376,4.49e-4 0.752,0.0013 1.128,0.0018 0.366009,-2.72e-4 0.73238,8.4e-4 1.097876,-0.02126 0.33404,-0.0264 0.666765,-0.07025 0.983417,-0.186126 0.308565,-0.09808 0.620756,-0.195376 0.935984,-0.266188 0.370901,-0.07516 0.738489,-0.1186 1.118232,-0.09475 0.381775,-0.0017 0.763568,-0.0053 1.145342,-0.002 0.405196,0.0082 0.823104,0.0085 1.196101,0.187964 0.06574,0.04981 0.141778,0.08837 0.197219,0.149441 0.310249,0.341751 0.184778,0.791998 -0.08502,1.106613 -0.397847,0.290115 -0.65208,0.253468 -1.114357,0.286186 -0.28255,0.03932 -0.542746,0.120626 -0.794938,0.257516 -0.280934,0.08925 -0.557603,0.188608 -0.839542,0.274246 -0.295891,0.100898 -0.597986,0.176599 -0.881643,0.313313 -0.38041,0.07413 -0.761631,0.06781 -1.148117,0.06296 -0.379128,0.001 -0.758421,0.0041 -1.137391,-0.0091 -0.386029,-0.02005 -0.776081,-0.05224 -1.132368,-0.216107 -0.363069,-0.180244 -0.726815,-0.362492 -0.948831,-0.719849 -0.26675,-0.396006 -0.430483,-0.825474 -0.47857,-1.304376 -0.08741,-0.524425 0.654245,-0.648034 0.741649,-0.123608 z"
       inkscape:connector-curvature="0"
       transform="translate(0,924.36218)" />
  </g>
</svg>
