<?xml version="1.0" encoding="UTF-8" standalone="no"?>
<!-- Created with Inkscape (http://www.inkscape.org/) -->

<svg
   xmlns:dc="http://purl.org/dc/elements/1.1/"
   xmlns:cc="http://creativecommons.org/ns#"
   xmlns:rdf="http://www.w3.org/1999/02/22-rdf-syntax-ns#"
   xmlns:svg="http://www.w3.org/2000/svg"
   xmlns="http://www.w3.org/2000/svg"
   xmlns:sodipodi="http://sodipodi.sourceforge.net/DTD/sodipodi-0.dtd"
   xmlns:inkscape="http://www.inkscape.org/namespaces/inkscape"
   width="256"
   height="128"
   id="svg3050"
   version="1.1"
   inkscape:version="0.48.5 r10040"
   sodipodi:docname="workbench.svg"
   inkscape:export-filename="C:\Users\narfman0\Desktop\workbench.png"
   inkscape:export-xdpi="45"
   inkscape:export-ydpi="45">
  <defs
     id="defs3052" />
  <sodipodi:namedview
     id="base"
     pagecolor="#ffffff"
     bordercolor="#666666"
     borderopacity="1.0"
     inkscape:pageopacity="0.0"
     inkscape:pageshadow="2"
     inkscape:zoom="2.4972322"
     inkscape:cx="159.62349"
     inkscape:cy="62.765613"
     inkscape:document-units="px"
     inkscape:current-layer="layer1"
     showgrid="false"
     inkscape:window-width="1340"
     inkscape:window-height="783"
     inkscape:window-x="456"
     inkscape:window-y="148"
     inkscape:window-maximized="0" />
  <metadata
     id="metadata3055">
    <rdf:RDF>
      <cc:Work
         rdf:about="">
        <dc:format>image/svg+xml</dc:format>
        <dc:type
           rdf:resource="http://purl.org/dc/dcmitype/StillImage" />
        <dc:title></dc:title>
      </cc:Work>
    </rdf:RDF>
  </metadata>
  <g
     inkscape:label="Layer 1"
     inkscape:groupmode="layer"
     id="layer1"
     transform="translate(0,-924.36218)">
    <path
       style="fill:#6c6753;fill-opacity:1;stroke:none"
       d="m 237.39531,946.49037 c -3.22612,0.11721 -6.42688,0.67972 -9.62943,1.15002 -1.94018,8.5154 -1.42677,17.57114 -1.94584,26.34324 -0.23114,13.94244 -0.90615,27.95727 -0.0272,41.87057 0.30124,3.4424 3.50085,0.019 5.22003,0.082 3.15132,-0.5947 6.31644,-3.4088 9.52541,-2.2452 1.42188,2.587 0.39835,6.3051 1.01918,9.2865 0.16536,1.7345 0.97678,7.5261 1.10492,6.0574 0.3394,-10.2013 -0.80397,-20.357 -0.71634,-30.56593 -0.41697,-16.55521 -0.1982,-33.16578 -1.17088,-49.68131 0.2155,-3.41363 -1.52232,-2.07497 -3.37974,-2.29667 z"
       id="path3076"
       inkscape:connector-curvature="0" />
    <path
       style="fill:#6c6753;fill-opacity:1;stroke:none"
       d="m 15.581205,977.22884 c 0.212537,13.79215 -0.131925,27.62896 0.82246,41.38996 2.193084,10.708 2.944005,21.5689 3.647316,32.4222 3.196958,-0.3153 6.834004,0.6198 9.797883,-0.5174 1.087749,-5.467 -0.189836,-11.1983 -0.256161,-16.7483 -0.488035,-2.6247 0.974316,-6.9161 -3.486748,-6.1824 -2.583776,-0.379 -6.428712,-0.4454 -6.605598,-3.6252 -1.349551,-4.1074 -1.196187,-8.7822 -2.348253,-12.7457 4.002399,-0.6055 8.173039,1.5467 12.146136,0.8576 -4.235153,-11.5703 -7.729029,-23.59268 -7.228994,-35.90047 -0.18931,-9.70925 -0.046,-19.47566 2.386734,-28.98084 0.263627,-2.34269 1.127257,-4.99081 0.890717,-7.20083 -3.309162,-0.20948 -6.629287,-0.25953 -9.943636,-0.38444 0.05938,12.53861 0.118769,25.07721 0.178144,37.61582 z"
       id="path3078"
       inkscape:connector-curvature="0" />
    <path
       style="fill:#000000;fill-opacity:1;stroke:none"
       id="path3058"
       d="m 19.040076,1011.9859 c -0.01526,1.1857 -0.02697,2.3617 0.125484,3.5379 0.146237,1.0152 0.217647,2.0337 0.419872,3.0387 0.244278,0.9122 0.207127,1.8727 0.384515,2.7931 0.161015,0.8349 0.46186,1.6249 0.649493,2.4531 0.127317,0.6675 0.04218,1.4426 0.69025,1.7999 0.763798,0.4902 1.662289,0.5421 2.522883,0.7019 1.477931,0.2903 2.979779,0.376 4.479546,0.4317 2.014541,0.017 4.027261,0.159 6.028732,0.3944 2.399962,0.2665 4.799983,0.5424 7.205188,0.7544 2.734071,0.2212 5.4611,0.5021 8.200512,0.6493 2.952073,0.1459 5.908481,0.082 8.86081,0.2 3.041356,0.1694 6.083541,0.2833 9.122318,0.4977 3.047527,0.1525 6.084356,0.4581 9.129659,0.6466 3.327995,0.1767 6.650782,0.4276 9.981345,0.556 3.567528,0.093 7.129235,0.3473 10.688049,0.6131 3.503578,0.1892 6.984628,0.649 10.474968,0.9951 3.02236,0.2697 6.05474,0.3389 9.08124,0.5409 2.82754,0.1229 5.64372,0.413 8.46661,0.6099 2.62192,0.1633 5.23526,0.4228 7.8596,0.5528 2.59376,0.038 5.17784,0.271 7.76658,0.4202 2.80468,0.143 5.61329,0.1635 8.42073,0.1811 2.72872,-0.067 5.44972,0.1462 8.17247,0.2923 2.37542,0.052 4.73905,0.2992 7.10823,0.4649 2.06974,0.2613 4.14275,0.4661 6.22496,0.5774 1.78654,0 3.55873,0.2299 5.33666,0.3802 1.59038,0.1839 3.15897,0.4993 4.73361,0.786 1.3237,0.2157 2.66034,0.2639 3.98472,0.4711 1.18301,0.2292 2.34955,0.5104 3.54636,0.6649 1.02765,0.1212 2.06221,0.144 3.09534,0.1555 0.915,0.01 1.83004,0 2.74506,-4e-4 0.90401,0.059 1.74656,-0.2829 2.59788,-0.5408 0.79656,-0.2458 1.59485,-0.4988 2.38555,-0.768 0.85544,-0.3469 1.73278,-0.6185 2.60518,-0.9139 0.83088,-0.2689 1.67952,-0.4292 2.4768,-0.8009 0.79571,-0.3837 1.64463,-0.6363 2.44519,-1.004 0.78381,-0.4105 1.63648,-0.5653 2.50043,-0.6523 0.90538,-0.067 1.81381,-0.062 2.72093,-0.061 0.91077,0 1.82153,0 2.7323,0.01 1.00122,0 2.00242,0 3.00362,0 1.07791,0 2.15583,0 3.23374,-10e-5 0.95405,0 1.90811,0 2.86216,0 0.9786,0 1.95719,0 2.93578,0 0.98702,0 1.97406,0 2.96109,0 1.00702,0 2.01406,0 3.02108,0 0.96721,0 1.93442,0 2.90163,0 0.9556,0 1.91122,0 2.86682,0 1.00766,0 2.01534,0 3.02302,0 0.92054,0 1.8411,0 2.76164,0 0.6439,-0.076 1.54598,0.2525 2.04654,-0.2967 0.30921,-0.6028 0.29775,-1.3211 0.31917,-1.9871 -0.14197,-0.9068 -0.22854,-1.8292 -0.42084,-2.7261 -0.21382,-0.9813 -0.57757,-1.9098 -0.77246,-2.8984 -0.12851,-0.8366 -0.38588,-1.6376 -0.51197,-2.4767 -0.094,-0.7999 -0.33602,-1.5661 -0.45351,-2.3646 -0.11224,-0.9195 -0.12047,-1.8479 -0.12945,-2.7733 -0.004,-0.9479 -0.002,-1.8957 -8e-4,-2.8435 -0.0721,-0.6711 0.24457,-1.6108 -0.28372,-2.1332 -0.584,-0.3815 -1.15305,-0.202 -1.75952,0 -1.20933,0.2825 -2.38002,0.6917 -3.55198,1.1073 -1.69851,0.4992 -3.38872,1.0224 -5.08003,1.5468 -1.87623,0.4853 -3.75281,0.9649 -5.62742,1.4567 -2.02084,0.3668 -4.02166,0.8384 -6.03727,1.2332 -1.95272,0.483 -3.95038,0.6626 -5.93605,0.9203 -1.83963,0.2117 -3.66342,0.5364 -5.50212,0.7557 -1.71452,0.3034 -3.44077,0.5103 -5.17615,0.6211 -1.55916,0.086 -3.12086,0.09 -4.68174,0.093 -1.47968,7e-4 -2.95938,0 -4.43908,0 -1.42494,0 -2.83923,0.2259 -4.25896,0.3398 -1.41393,0.129 -2.83565,0.067 -4.24903,0.1859 -1.58008,0.183 -3.16427,0.3056 -4.75272,0.3673 -1.70711,0.055 -3.41528,0.053 -5.12303,0.055 -1.86494,2e-4 -3.72988,0 -5.59483,0 -1.99619,-8e-4 -3.9924,-9e-4 -5.98859,-10e-4 -2.05778,0.012 -4.10636,-0.2316 -6.15997,-0.3436 -1.93353,-0.2179 -3.86721,-0.4112 -5.80967,-0.5168 -1.65721,-0.08 -3.31657,-0.085 -4.9752,-0.09 -1.48714,0.011 -2.96699,0.037 -4.44618,-0.1353 -1.15467,-0.17 -2.31621,-0.2572 -3.48074,-0.3037 -1.18631,-0.035 -2.37322,-0.033 -3.55989,-0.034 -1.2246,-0.1213 -2.44194,-0.2943 -3.66954,-0.386 -1.28602,-0.075 -2.57462,-0.08 -3.86229,-0.086 -1.40231,0.069 -2.78799,-0.062 -4.17959,-0.2164 -1.38692,-0.1648 -2.78263,-0.2099 -4.17712,-0.2393 -1.40287,0.058 -2.78884,-0.1614 -4.18001,-0.3059 -1.2055,-0.1243 -2.41649,-0.158 -3.62695,-0.177 -1.22185,-0.012 -2.44381,-0.01 -3.66571,-0.01 -1.09109,0 -2.18218,0 -3.27326,0 -1.01259,3e-4 -2.02519,3e-4 -3.03779,3e-4 -1.0099,0 -2.01981,0 -3.02972,0 -1.00659,0 -2.013205,0 -3.019802,0 -1.194541,0 -2.389081,0 -3.583623,0 -1.172995,-0.1671 -2.357969,-0.2579 -3.527302,-0.4499 -1.025102,-0.2189 -2.059117,-0.3695 -3.102522,-0.4464 -0.99702,-0.058 -1.996143,-0.053 -2.994355,-0.055 -1.004197,0.066 -1.98422,-0.048 -2.972151,-0.2169 -0.929918,-0.09 -1.828106,-0.3563 -2.744611,-0.5286 -1.055975,-0.107 -2.10693,-0.2716 -3.134351,-0.5502 -0.957567,-0.3015 -1.946156,-0.4625 -2.922616,-0.6811 -0.96947,-0.2573 -1.976832,-0.245 -2.95593,-0.4239 -0.811406,-0.198 -1.631793,-0.3235 -2.440344,-0.5338 -0.845212,-0.2291 -1.715589,-0.3021 -2.584614,-0.3467 -0.902196,-0.034 -1.805206,-0.031 -2.707857,-0.031 -0.926563,-0.1176 -1.842474,-0.2959 -2.772719,-0.3858 -1.043762,-0.093 -2.091347,-0.043 -3.133816,-0.1437 -1.058436,-0.1573 -2.118368,-0.2916 -3.185558,-0.3617 -0.913376,-0.05 -1.828301,-0.052 -2.74268,-0.054 -0.946461,0.065 -1.868442,-0.056 -2.798555,-0.2185 -0.881486,-0.1584 -1.775066,-0.2068 -2.667572,-0.236 -0.904716,-0.022 -1.809759,-0.019 -2.714653,-0.018 -0.909773,0 -1.819547,0 -2.729319,0 -0.909833,4e-4 -1.819666,5e-4 -2.729499,5e-4 -0.790161,-0.016 -1.557356,0.2248 -2.336854,0.3383 -0.883227,0.111 -1.77391,0.1232 -2.662345,0.1339 -1.020632,0.01 -2.041299,0 -3.061945,0 -0.951699,0 -1.903398,0 -2.855097,0 -0.805716,-0.1165 -1.596268,-0.303 -2.406639,-0.3901 -0.820591,0.011 -1.605038,-0.2254 -2.404462,-0.378 -0.85082,-0.174 -1.717041,-0.337 -2.549652,-0.5932 -0.362109,-0.1383 -0.734316,-0.2379 -1.109297,-0.3288 -0.626257,-0.153 -0.418273,-1.0742 0.207985,-0.9212 l 0,0 c 0.393229,0.097 0.784581,0.1992 1.164681,0.3442 0.79574,0.2572 1.635942,0.3951 2.451023,0.5684 0.776708,0.1492 1.536096,0.3799 2.333827,0.3674 0.778904,0.085 1.542435,0.2442 2.312762,0.385 0.951944,3e-4 1.903886,7e-4 2.855829,0 1.016806,0 2.033633,0 3.050426,0 0.849982,-0.011 1.702136,-0.021 2.547336,-0.1249 0.820989,-0.1184 1.628545,-0.3735 2.4624,-0.3474 0.909679,0 1.819357,0 2.729035,-5e-4 0.909749,-5e-4 1.819497,0 2.729244,0 0.914646,-6e-4 1.829445,0 2.743908,0.019 0.933214,0.031 1.867418,0.083 2.789073,0.2485 0.881923,0.1536 1.752348,0.2723 2.650469,0.2056 0.932863,0 1.86628,0 2.798097,0.056 1.07678,0.071 2.146711,0.2035 3.214506,0.364 1.040906,0.1067 2.089495,0.041 3.131835,0.1435 0.901864,0.088 1.791975,0.2468 2.687762,0.3817 0.917845,-5e-4 1.836058,0 2.753423,0.032 0.928232,0.048 1.857522,0.1293 2.760251,0.3738 0.789213,0.2054 1.590347,0.3259 2.382216,0.5208 0.985029,0.194 2.009116,0.1538 2.984709,0.4299 0.989994,0.2215 1.992238,0.3853 2.963101,0.6911 1.003202,0.2786 2.033689,0.4219 3.064739,0.5341 0.911524,0.1724 1.804595,0.4358 2.729531,0.5258 0.940253,0.1604 1.869671,0.2719 2.826065,0.2046 1.019393,0 2.039727,0 3.057864,0.057 1.069658,0.08 2.130342,0.231 3.18128,0.4558 1.12142,0.1884 2.260013,0.2626 3.383938,0.4381 1.194542,0 2.389083,0 3.583623,0 1.006608,0 2.013212,0 3.019802,0 1.00991,0 2.01981,0 3.02972,0 1.01249,0 2.02501,0 3.03751,-3e-4 1.09092,-3e-4 2.18184,-9e-4 3.27276,0 1.22674,0 2.45355,0 3.68025,0.01 1.23607,0.019 2.47268,0.054 3.70367,0.1815 1.36736,0.1423 2.72906,0.3602 4.108,0.3014 1.4206,0.03 2.84237,0.077 4.25525,0.2444 1.36098,0.1512 2.71511,0.2812 4.08678,0.2111 1.30817,0.01 2.61732,0.011 3.92378,0.088 1.20593,0.09 2.40265,0.2529 3.60459,0.3835 1.19821,5e-4 2.39667,0 3.59452,0.034 1.18674,0.048 2.37054,0.1361 3.54731,0.3088 1.44603,0.1695 2.89308,0.1376 4.34705,0.1295 1.67367,0 3.3481,0.011 5.02033,0.091 1.94245,0.1058 3.8765,0.2963 5.80981,0.5168 2.03776,0.1113 4.07053,0.3527 6.11233,0.3423 1.99632,0 3.99264,2e-4 5.98897,0 1.86444,8e-4 3.7289,0 5.59335,0 1.6968,0 3.39402,-2e-4 5.09019,-0.054 1.57569,-0.061 3.14703,-0.1838 4.71441,-0.365 1.41463,-0.1152 2.83622,-0.063 4.25134,-0.1861 1.44325,-0.1155 2.88092,-0.3481 4.32976,-0.3426 1.47872,0 2.95743,0 4.43614,0 1.54302,0 3.08685,-0.01 4.6282,-0.091 1.71946,-0.1092 3.42929,-0.3174 5.12819,-0.6168 1.83575,-0.2186 3.65652,-0.5438 5.49324,-0.7546 1.96708,-0.2544 3.94592,-0.4324 5.88025,-0.9112 1.99752,-0.3906 3.97987,-0.8602 5.98302,-1.2207 1.86214,-0.4885 3.72595,-0.966 5.59013,-1.4461 1.68009,-0.5205 3.3585,-1.042 5.04627,-1.5355 1.1797,-0.4182 2.35847,-0.8314 3.57578,-1.1155 0.96806,-0.3101 1.90132,-0.4301 2.73038,0.3052 0.59412,0.8244 0.51862,1.7469 0.49234,2.7375 -0.001,0.9442 -0.004,1.8884 7.7e-4,2.8326 0.007,0.8812 0.0153,1.7651 0.11917,2.6409 0.11532,0.7974 0.36445,1.5614 0.45309,2.3617 0.1216,0.8245 0.38299,1.6099 0.50445,2.4329 0.19086,0.9844 0.56736,1.905 0.7697,2.8848 0.20162,0.9748 0.31758,1.9727 0.44133,2.9606 -0.0313,0.9377 -0.0419,1.9265 -0.64789,2.6835 -0.79076,0.618 -1.67593,0.5406 -2.62705,0.5144 -0.92054,0 -1.8411,0 -2.76164,0 -1.00768,0 -2.01536,0 -3.02302,0 -0.9556,0 -1.91122,0 -2.86682,0 -0.96721,0 -1.93442,0 -2.90163,0 -1.00702,0 -2.01406,0 -3.02108,0 -0.98703,0 -1.97407,0 -2.96109,0 -0.97859,0 -1.95718,0 -2.93578,0 -0.95405,0 -1.9081,0 -2.86214,0 -1.07795,10e-5 -2.15588,10e-5 -3.23382,10e-5 -1.00162,-10e-5 -2.00322,-10e-5 -3.00483,0 -0.91038,0 -1.82077,0 -2.73115,-0.01 -0.87819,-2e-4 -1.75761,-0.01 -2.63421,0.057 -0.76952,0.075 -1.52726,0.2074 -2.22391,0.5779 -0.80272,0.3593 -1.64294,0.6262 -2.44035,1.0017 -0.82882,0.3772 -1.69957,0.5714 -2.56433,0.8358 -0.87308,0.293 -1.74908,0.5667 -2.60459,0.9136 -0.80094,0.2687 -1.60658,0.528 -2.41238,0.7766 -0.93335,0.2823 -1.8598,0.6416 -2.85032,0.5785 -0.91885,0 -1.83771,0.01 -2.75655,3e-4 -1.06741,-0.012 -2.13627,-0.037 -3.19793,-0.1627 -1.20441,-0.1563 -2.37967,-0.4342 -3.56951,-0.6682 -1.3313,-0.2088 -2.67599,-0.2519 -4.00617,-0.4746 -1.54713,-0.2819 -3.0881,-0.5921 -4.65044,-0.775 -1.76898,-0.1497 -3.53207,-0.3744 -5.30965,-0.3783 -2.08691,-0.1118 -4.16498,-0.3146 -6.23925,-0.5783 -2.36447,-0.1654 -4.72337,-0.4119 -7.09406,-0.464 -2.70898,-0.1454 -5.41614,-0.3582 -8.13107,-0.2911 -2.82242,-0.018 -5.646,-0.038 -8.46561,-0.1825 -2.58642,-0.1492 -5.16815,-0.3816 -7.75957,-0.4198 -2.63018,-0.1306 -5.24941,-0.3899 -7.87716,-0.5539 -2.822,-0.197 -5.63731,-0.4868 -8.46398,-0.6097 -3.03586,-0.2027 -6.0777,-0.2714 -9.10933,-0.5432 -3.48327,-0.3456 -6.95729,-0.8044 -10.453773,-0.9933 -3.548343,-0.2651 -7.099561,-0.519 -10.656601,-0.6113 -3.337346,-0.1288 -6.666933,-0.3798 -10.001703,-0.557 -3.047803,-0.1889 -6.087141,-0.4943 -9.137167,-0.6471 -3.029926,-0.2139 -6.063259,-0.3272 -9.095754,-0.4963 -2.956246,-0.1189 -5.916758,-0.053 -8.872745,-0.2006 -2.749384,-0.1479 -5.486417,-0.429 -8.230427,-0.6513 -2.41374,-0.2131 -4.822335,-0.4895 -7.230832,-0.7571 -1.978093,-0.2341 -3.967672,-0.3718 -5.958748,-0.389 -1.542639,-0.057 -3.087247,-0.1474 -4.607407,-0.4459 -0.977443,-0.1828 -1.988862,-0.2617 -2.849325,-0.834 -0.890698,-0.635 -0.957951,-1.3336 -1.089216,-2.3835 -0.18796,-0.841 -0.501861,-1.6415 -0.657261,-2.4912 -0.162759,-0.9194 -0.154305,-1.8665 -0.38147,-2.7772 -0.206145,-1.0278 -0.284342,-2.0683 -0.431033,-3.1065 -0.156299,-1.2182 -0.151981,-2.4359 -0.133557,-3.6637 0,-0.6691 0.909755,-0.6691 0.909755,0 z"
       inkscape:connector-curvature="0" />
    <path
       style="fill:#000000;fill-opacity:1;stroke:none"
       id="path3062"
       d="m 4.2741451,938.30726 c 1.3738409,0 2.7476828,0 4.1215226,0 1.8752453,0 3.7504883,0 5.6257313,0 2.450127,0.0356 4.903168,0.19717 7.346551,0.4009 2.981724,0.27691 5.971454,0.4101 8.957013,0.62713 3.412472,0.17931 6.823232,0.3783 10.234705,0.58094 3.63765,0.30137 7.274067,0.6303 10.905991,1.00369 3.433756,0.31368 6.846111,0.83924 10.274765,1.20509 3.096568,0.27879 6.192685,0.56002 9.282835,0.91195 2.385587,0.32233 4.760352,0.73164 7.145517,1.05529 2.04079,0.24738 4.092833,0.29354 6.137182,0.49493 1.84872,0.12519 3.687929,0.34104 5.530854,0.53546 1.907225,0.13733 3.804038,0.39237 5.709203,0.55664 2.21713,0.16451 4.440381,0.17995 6.661725,0.19589 2.31536,0.0342 4.63223,-0.049 6.94581,0.0626 2.30455,0.19726 4.61835,0.23216 6.92288,0.41804 2.18589,0.2552 4.38582,0.2915 6.57586,0.47616 2.10866,0.2165 4.22284,0.34695 6.33969,0.41638 2.0087,-0.0173 4.00706,0.0977 6.00817,0.26878 1.87543,0.15769 3.75603,0.20936 5.63628,0.23867 1.73923,0.0168 3.46994,0.24228 5.2051,0.36145 1.80246,0.10304 3.6079,0.11544 5.41244,0.12584 1.77477,0.006 3.54954,0.004 5.32431,0.002 1.80555,0.13148 3.60689,0.30164 5.41532,0.38603 1.77147,0.0751 3.54456,0.0813 5.31714,0.0871 1.77159,0.002 3.5432,5.5e-4 5.31479,-4.9e-4 1.81257,-10e-4 3.62516,-10e-4 5.43775,-10e-4 1.76851,-10e-5 3.53703,-9e-5 5.30555,-8e-5 1.61252,1e-5 3.22503,1e-5 4.83755,1e-5 1.62291,0 3.24583,0 4.86874,0 1.44306,0 2.88612,0 4.32916,0 1.28025,0.0181 2.54803,-0.22128 3.82111,-0.34108 1.15496,-0.13558 2.32248,-0.049 3.47555,-0.18518 1.07368,-0.16965 2.15128,-0.29692 3.23437,-0.36792 1.02003,-0.0538 2.04169,-0.0533 3.06271,-0.0554 0.98928,-0.15233 1.97463,-0.30637 2.97218,-0.38392 1.10941,-9.9e-4 2.19922,-0.1352 3.29572,-0.29779 1.14486,-0.13861 2.26373,-0.43656 3.40786,-0.58659 1.13167,-0.1132 2.26254,-0.10103 3.38779,-0.27985 0.927,-0.15892 1.85835,-0.23075 2.77732,-0.43772 0.888,-0.21842 1.79486,-0.30166 2.70234,-0.34894 0.88409,-0.0347 1.76897,-0.0319 2.65352,-0.0317 0.87835,10e-4 1.75671,0.002 2.63507,0.004 0.87824,6.2e-4 1.75647,6.5e-4 2.63472,7e-4 0.87831,10e-6 1.75664,0 2.63497,-10e-6 0.87835,-10e-6 1.75669,-10e-6 2.63503,-10e-6 0.87832,0 1.75666,0 2.635,0 0.87833,0 1.75667,0 2.63501,0 0.80124,0.0651 1.56795,-0.0347 2.34912,-0.2049 0.67667,-0.10871 1.34874,-0.13405 1.77902,-0.76857 0.30646,-0.72901 0.33963,-1.55152 0.48539,-2.33085 0.17968,-0.91354 0.23997,-1.84502 0.2758,-2.77574 0.0271,-0.94115 0.0243,-1.88291 0.024,-2.82441 -0.0647,-0.45449 0.15721,-1.12845 -0.14841,-1.52612 -0.0423,-0.0549 -0.36581,-0.19426 -0.38323,-0.20239 -0.78273,-0.26407 -1.61417,-0.25773 -2.42638,-0.26879 -1.09114,0.0316 -2.16973,0.25649 -3.25896,0.35452 -1.6386,0.0909 -3.27449,0.11509 -4.90949,0.26983 -1.93637,0.20933 -3.88165,0.27272 -5.82617,0.31255 -2.23896,-0.0337 -4.46912,0.1849 -6.70259,0.31641 -2.38476,0.13413 -4.77301,0.16175 -7.16048,0.17974 -2.37022,0.0121 -4.74047,0.009 -7.11071,0.008 -2.15127,-10e-4 -4.30255,-0.002 -6.45381,-0.002 -1.82073,-2.6e-4 -3.64145,-2.6e-4 -5.46216,-2.7e-4 -1.46679,10e-6 -2.93357,10e-6 -4.40035,2e-5 -1.17475,0 -2.34951,0 -3.52426,0 -1.05568,0 -2.11134,0 -3.16702,0 -1.02949,0 -2.05896,0 -3.08845,0 -1.27939,0.15387 -2.55803,0.29864 -3.84317,0.38646 -1.16243,0.004 -2.30791,0.14418 -3.45905,0.29928 -1.15288,0.16418 -2.31506,0.21499 -3.47641,0.24627 -1.0251,-0.0496 -2.02649,0.0665 -3.03729,0.22666 -1.01559,0.10433 -2.00704,0.36064 -3.01465,0.52527 -1.07692,0.16016 -2.16572,0.18593 -3.25114,0.20538 -1.03951,0.16848 -2.09744,0.23322 -3.13021,0.44243 -0.89128,0.23859 -1.79679,0.37993 -2.71133,0.45481 -0.94655,0.0605 -1.89526,0.0558 -2.84304,0.057 -1.07685,-5.1e-4 -2.15369,-0.002 -3.23052,-0.004 -1.07822,-8.6e-4 -2.15644,-10e-4 -3.23466,-10e-4 -1.22699,-0.12874 -2.44842,-0.30036 -3.6791,-0.38847 -1.2256,-0.0533 -2.4446,-0.0657 -3.66322,-0.22483 -1.28616,-0.17787 -2.57782,-0.24849 -3.86215,-0.44321 -1.16457,-0.19749 -2.34104,-0.28541 -3.51791,-0.33614 -1.138,-0.0484 -2.26456,-0.25954 -3.39849,-0.37586 -1.07825,-0.0935 -2.16027,-0.11284 -3.24146,-0.12397 -1.06445,0.0594 -2.11193,-0.0765 -3.16505,-0.22011 -1.07438,-0.15777 -2.15728,-0.20822 -3.24001,-0.23783 -1.10057,0.0425 -2.18219,-0.0675 -3.26902,-0.23757 -1.07283,-0.0844 -2.1272,-0.27039 -3.18742,-0.45616 -0.99113,-0.1683 -1.99347,-0.22446 -2.99507,-0.25554 -0.89037,-0.0202 -1.78101,-0.017 -2.67154,-0.0158 -0.88491,0.002 -1.75283,-0.2313 -2.63015,-0.34311 -0.91678,-0.10504 -1.83937,-0.11603 -2.76029,-0.12571 -1.04459,0.0659 -2.06898,-0.15561 -3.10032,-0.29133 -1.10382,-0.28415 -2.23289,-0.4123 -3.34746,-0.62809 -1.07614,-0.25915 -2.169157,-0.38342 -3.267899,-0.45298 -1.081548,-0.0507 -2.164376,-0.0517 -3.246736,-0.0528 -1.201421,10e-4 -2.402845,0.002 -3.604268,0.004 -1.207372,8.4e-4 -2.414744,10e-4 -3.622117,10e-4 -1.111212,5e-5 -2.222425,3e-5 -3.333636,2e-5 -0.921173,-2e-5 -1.842347,-2e-5 -2.763521,-2e-5 -1.056543,0.026 -2.101761,0.0118 -3.1495,-0.13891 -1.07421,-0.18802 -2.159882,-0.26169 -3.246113,-0.30395 -1.099548,0.05 -2.176313,-0.17746 -3.261332,-0.32227 -0.990336,-0.12303 -1.98718,-0.1566 -2.983067,-0.17567 -0.891368,-0.0119 -1.782832,-0.009 -2.674248,-0.008 -0.877398,10e-4 -1.754793,0.002 -2.632189,0.002 -1.028398,-0.12221 -2.048025,-0.30279 -3.080281,-0.38855 -1.13686,-0.18136 -2.271188,-0.37009 -3.416727,-0.47544 -1.006418,-0.0106 -1.993377,-0.14458 -2.986653,-0.305 -0.945762,-0.17867 -1.910079,-0.15398 -2.857973,-0.29762 -0.898829,-0.17837 -1.801332,-0.29925 -2.691685,-0.52271 -0.921491,-0.24936 -1.87146,-0.30567 -2.816594,-0.3496 -1.108586,-0.0389 -2.199765,-0.27422 -3.305175,-0.37557 -1.249156,-0.0171 -2.47681,-0.25887 -3.714237,-0.41217 -1.090863,-0.0985 -2.156839,-0.37749 -3.241996,-0.52762 -0.942364,-0.11756 -1.891982,-0.12371 -2.839304,-0.13255 -0.903503,0.082 -1.776447,-0.13236 -2.65945,-0.29193 -0.8,-0.13353 -1.610428,-0.15604 -2.418273,-0.17331 -0.871669,-0.0125 -1.743452,-0.009 -2.615177,-0.008 -0.879009,10e-4 -1.75802,0.002 -2.637028,0.002 -0.878482,2.8e-4 -1.756961,2.7e-4 -2.635442,2.8e-4 -0.878333,0 -1.756667,-1e-5 -2.635,-1e-5 -0.878335,-10e-6 -1.756666,-10e-6 -2.634999,-10e-6 -0.878334,0 -1.756671,0 -2.635006,0 -0.878334,0 -1.75667,0 -2.6350051,0 -0.8783342,0 -1.7566696,0 -2.635006,0 -0.8783343,0 -1.7566696,0 -2.6350039,0 -0.8386488,0.0423 -1.6911193,-0.0806 -2.5233473,0.0523 -0.4696569,0.19388 -0.5722841,0.76162 -0.5464019,1.25439 0.081515,0.62093 0.3995527,1.18177 0.68014,1.72366 0.3874107,0.79165 0.4692253,1.67968 0.5252417,2.5571 0.080061,0.90319 -0.037906,1.82126 0.083333,2.71863 0.189724,0.62317 0.5935194,1.10069 1.1425384,1.3695 0.558894,0.29184 0.1758155,1.1434 -0.3830785,0.85156 l 0,0 c -0.8074838,-0.43891 -1.3963037,-1.13468 -1.6300405,-2.09559 -0.1069824,-0.9218 -0.028592,-1.85327 -0.089069,-2.77989 -0.04596,-0.73738 -0.099247,-1.4902 -0.4160192,-2.16036 -0.35186495,-0.67985 -0.72833674,-1.38605 -0.79134682,-2.17584 0.0153541,-0.99718 0.33382282,-1.91336 1.30644572,-2.20085 0.8753425,-0.11959 1.7607967,-0.0373 2.6416005,-0.0608 0.8783354,0 1.7566696,0 2.6350039,0 0.8783364,0 1.7566718,0 2.6350061,0 0.8783357,0 1.7566707,0 2.6350057,0 0.878335,0 1.756671,0 2.635007,0 0.878333,0 1.756666,0 2.635002,2e-5 0.87833,0 1.75666,10e-6 2.634991,10e-6 0.878372,0 1.756745,0 2.635118,-2.7e-4 0.878805,-3.6e-4 1.757609,-9.9e-4 2.636412,-0.002 0.877874,-10e-4 1.755805,-0.004 2.633621,0.008 0.85073,0.0183 1.704051,0.0438 2.546291,0.18621 0.838304,0.15196 1.663177,0.362 2.521562,0.27889 0.982279,0.009 1.966887,0.0169 2.943881,0.14026 1.081243,0.15049 2.143723,0.42539 3.230316,0.5261 1.228942,0.15282 2.447812,0.39298 3.688487,0.40938 1.093222,0.10102 2.172603,0.33088 3.268414,0.37301 0.999473,0.0468 2.003546,0.11024 2.977992,0.37344 0.865995,0.21767 1.744242,0.33249 2.618405,0.50779 0.947195,0.1536 1.916791,0.10682 2.862057,0.29827 0.975307,0.15754 1.942828,0.28901 2.931348,0.29799 1.143086,0.10564 2.275892,0.28847 3.409706,0.47483 1.009429,0.0847 2.008096,0.24941 3.012063,0.38572 0.877172,-3.5e-4 1.754345,-9.6e-4 2.631516,-0.002 0.896965,-0.001 1.793982,-0.004 2.6909,0.008 1.026829,0.0197 2.054611,0.0552 3.075644,0.18275 1.059853,0.14212 2.11069,0.36649 3.184919,0.31567 1.114581,0.0437 2.228625,0.11951 3.330963,0.31171 1.008867,0.14622 2.015199,0.15411 3.032836,0.13053 0.921176,0 1.842352,1e-5 2.763528,2e-5 1.11119,10e-6 2.222383,2e-5 3.333574,-10e-6 1.207183,-8e-5 2.414367,-2.5e-4 3.62155,-10e-4 1.201892,-9.2e-4 2.403785,-0.002 3.605677,-0.004 1.099334,10e-4 2.199157,0.002 3.29765,0.0545 1.133712,0.0723 2.261869,0.20021 3.372459,0.46643 1.09756,0.21518 2.21141,0.3341 3.2978,0.61998 0.99914,0.13177 1.99028,0.35016 3.0023,0.28439 0.95264,0.009 1.90695,0.0225 2.8552,0.13225 0.84278,0.10811 1.67688,0.33076 2.52565,0.33651 0.89932,-10e-4 1.79876,-0.005 2.69792,0.0163 1.04038,0.0325 2.08145,0.092 3.11086,0.26744 1.05538,0.1854 2.10443,0.36949 3.17251,0.45369 1.05273,0.16477 2.09872,0.27168 3.16512,0.22804 1.11214,0.0306 2.22442,0.0833 3.32799,0.24501 1.0197,0.13911 2.03216,0.2735 3.06311,0.21268 1.10619,0.0118 2.21327,0.0317 3.31643,0.1282 1.11793,0.11496 2.22872,0.32235 3.35031,0.37234 1.20609,0.0522 2.41171,0.14268 3.60524,0.34463 1.27869,0.19421 2.56509,0.26194 3.84556,0.44087 1.20265,0.15778 2.4061,0.16403 3.6157,0.22002 1.21119,0.0872 2.41419,0.24812 3.62077,0.38637 1.07844,9e-5 2.15688,2.2e-4 3.23532,10e-4 1.07626,9.7e-4 2.15248,0.004 3.22874,0.004 0.92607,-0.001 1.85304,0.004 2.77793,-0.0542 0.88352,-0.0715 1.75726,-0.21138 2.6182,-0.4418 1.0819,-0.21138 2.18552,-0.29715 3.27494,-0.45801 1.0463,-0.0187 2.09596,-0.0422 3.13426,-0.19485 1.00877,-0.16416 2.00152,-0.42169 3.01827,-0.52585 1.04546,-0.16566 2.08345,-0.28465 3.14322,-0.23644 1.13222,-0.0304 2.26533,-0.0791 3.3893,-0.23925 1.16871,-0.15746 2.33257,-0.2998 3.51253,-0.30469 1.30371,-0.0889 2.5999,-0.24301 3.89869,-0.38835 1.02949,0 2.05896,0 3.08845,0 1.05568,0 2.11134,0 3.16702,0 1.17475,0 2.34951,0 3.52426,-1e-5 1.46678,0 2.93356,-2e-5 4.40035,-2e-5 1.82076,0 3.64153,2e-5 5.4623,2.8e-4 2.15136,3.6e-4 4.30271,10e-4 6.45406,0.002 2.36806,0.001 4.73614,0.004 7.10417,-0.008 2.37355,-0.0178 4.74786,-0.0451 7.11872,-0.17835 2.24384,-0.13204 4.48446,-0.35113 6.7338,-0.31767 1.92447,-0.0393 3.84969,-0.10173 5.76606,-0.30909 1.63639,-0.15464 3.27347,-0.18215 4.91351,-0.27019 1.11715,-0.0996 2.22282,-0.33553 3.343,-0.3577 0.94777,0.0132 1.9189,0.0122 2.81887,0.37461 1.06427,0.64541 1.03911,1.3625 1.00623,2.5685 4.1e-4,0.95478 0.003,1.90983 -0.0248,2.86426 -0.0382,0.98026 -0.10331,1.96115 -0.29233,2.92331 -0.17354,0.92714 -0.19775,1.91433 -0.66493,2.74086 -0.61591,0.77083 -1.36693,1.00291 -2.28652,1.09912 -0.83762,0.18237 -1.66526,0.28788 -2.52313,0.22365 -0.87833,0 -1.75667,0 -2.635,0 -0.87834,0 -1.75668,0 -2.63501,0 -0.87833,0 -1.75666,0 -2.635,2e-5 -0.87834,0 -1.7567,2e-5 -2.63504,0 -0.87844,-4e-5 -1.7569,-9e-5 -2.63534,-7e-4 -0.87822,-7.2e-4 -1.75642,-0.002 -2.63464,-0.004 -0.87039,-2.4e-4 -1.74111,-0.004 -2.61108,0.0306 -0.86139,0.0444 -1.7223,0.12191 -2.56508,0.33007 -0.93643,0.21024 -1.88435,0.28899 -2.82903,0.44762 -1.13306,0.17883 -2.27031,0.17728 -3.41,0.28306 -1.13948,0.14769 -2.25305,0.45016 -3.39364,0.5846 -1.1151,0.16534 -2.22462,0.30189 -3.35257,0.3042 -1.01818,0.0783 -2.02168,0.24915 -3.03337,0.38635 -1.00385,0.002 -2.00833,10e-4 -3.01125,0.0537 -1.06996,0.0697 -2.13422,0.1976 -3.19495,0.36438 -1.15983,0.12861 -2.33039,0.0615 -3.49187,0.18688 -1.29844,0.1217 -2.59136,0.3662 -3.89739,0.34467 -1.44304,0 -2.8861,0 -4.32916,0 -1.62292,0 -3.24583,0 -4.86875,0 -1.61251,0 -3.22503,-10e-6 -4.83754,-3e-5 -1.7685,0 -3.53698,-2e-5 -5.30549,9e-5 -1.81244,1.5e-4 -3.6249,4e-4 -5.43735,10e-4 -1.77264,10e-4 -3.54529,0.004 -5.31796,4.8e-4 -1.78435,-0.006 -3.56923,-0.0122 -5.35248,-0.088 -1.79555,-0.084 -3.58436,-0.24909 -5.37674,-0.38513 -1.77649,0.001 -3.55301,0.004 -5.3295,-0.002 -1.82164,-0.0106 -3.64418,-0.0233 -5.4637,-0.12774 -1.72077,-0.11835 -3.43719,-0.34171 -5.16189,-0.35963 -1.8992,-0.0296 -3.79873,-0.0821 -5.69303,-0.24153 -1.98696,-0.16983 -3.97093,-0.28388 -5.96548,-0.26626 -2.13084,-0.0701 -4.25908,-0.20099 -6.38169,-0.41885 -2.18893,-0.18593 -4.38811,-0.21957 -6.57292,-0.47591 -2.29567,-0.18664 -4.60097,-0.21826 -6.89668,-0.41634 -2.3022,-0.11308 -4.60802,-0.0254 -6.91203,-0.0617 -2.242791,-0.0161 -4.487513,-0.0321 -6.72601,-0.1989 -1.910326,-0.16501 -3.812321,-0.42011 -5.724708,-0.55813 -1.841044,-0.19441 -3.678337,-0.40993 -5.525209,-0.53487 -2.054262,-0.20245 -4.116504,-0.24711 -6.167029,-0.49843 -2.379294,-0.32332 -4.74838,-0.7305 -7.128012,-1.0531 -3.088239,-0.35172 -6.182461,-0.63252 -9.277102,-0.91133 -3.427585,-0.36604 -6.838965,-0.89066 -10.271625,-1.20475 -3.620223,-0.37241 -7.244984,-0.6998 -10.870887,-1.00085 -3.415066,-0.20289 -6.829417,-0.40195 -10.245476,-0.58164 -2.988475,-0.21725 -5.981132,-0.35052 -8.965768,-0.62782 -2.420744,-0.2025 -4.85124,-0.36194 -7.278669,-0.39807 -1.875243,0 -3.750487,0 -5.6257307,0 -1.3738398,0 -2.7476817,0 -4.1215226,0 -0.6210774,0 -0.6210774,-0.94631 0,-0.94631 z"
       inkscape:connector-curvature="0" />
    <path
       style="fill:#000000;fill-opacity:1;stroke:none"
       id="path3064"
       d="m 15.401055,938.64685 c 0,1.20028 0,2.40055 0,3.60083 0,1.02418 0,2.04837 0,3.07255 0,0.94727 0,1.89454 0,2.8418 0,0.94516 0,1.89031 0,2.83547 0.136455,0.79999 0.288706,1.59326 0.370006,2.40237 0.07689,0.93013 0.08138,1.86443 0.08676,2.7973 0.0028,0.94759 5.18e-4,1.89519 -4.78e-4,2.84279 -9.69e-4,0.94662 -0.0013,1.89326 -0.0014,2.83989 -1.04e-4,0.94631 -8.5e-5,1.89262 -7.8e-5,2.83893 8e-6,0.9463 1.4e-5,1.89261 1.6e-5,2.83892 0.0086,0.9752 -0.219844,1.93118 -0.333002,2.89637 -0.09699,0.92543 -0.110866,1.85699 -0.121089,2.78691 -0.0064,0.9443 -0.0037,1.88863 -0.0028,2.83293 0.0012,0.94646 0.0016,1.89293 0.0018,2.83938 1.74e-4,0.94635 1.57e-4,1.8927 1.55e-4,2.83905 -8e-6,0.94631 -1.4e-5,1.89261 -1.7e-5,2.83893 -4e-6,0.94631 -4e-6,1.89261 -4e-6,2.83893 -2e-6,0.94631 0,1.89261 0,2.83893 0,0.94631 0,1.89261 0,2.83892 0,0.94632 0,1.89262 0,2.83892 0,0.9463 0,1.8926 0,2.8389 -0.07974,0.84429 0.127883,1.64983 0.26713,2.47203 0.14016,0.9024 0.163864,1.8175 0.181621,2.7295 0.01244,0.9466 0.0095,1.8934 0.0085,2.8401 -0.0013,0.947 -0.0018,1.894 -0.0021,2.8409 -2.7e-4,0.9464 -2.65e-4,1.8927 -2.71e-4,2.8391 -0.0151,0.8219 0.216118,1.6199 0.325302,2.4307 0.106636,0.9187 0.118408,1.8452 0.128753,2.7693 -0.02133,0.7905 0.02652,1.5935 0.303449,2.3373 0.341146,0.7624 0.469945,1.5837 0.547959,2.4127 0.04868,0.8154 0.279293,1.6014 0.389808,2.4104 0.09251,0.8541 0.07085,1.7051 0.244263,2.5469 0.173029,0.8389 0.247163,1.688 0.42606,2.5255 0.215432,0.9473 0.292072,1.9171 0.337083,2.8866 0.07387,0.9118 -0.0475,1.8389 0.08077,2.7443 0.184317,0.8251 0.289432,1.6617 0.348987,2.5054 0.05224,0.9375 0.05253,1.8771 0.05473,2.8158 5.04e-4,0.9476 -0.0013,1.8951 -0.002,2.8426 -0.0804,0.8445 0.127,1.6503 0.266177,2.4727 0.14009,0.9023 0.163818,1.8174 0.181581,2.7294 0.08259,0.6727 -0.232404,1.6089 0.294674,2.1331 0.577943,0.3232 1.268117,0.3114 1.907559,0.334 0.904795,0.015 1.809764,0 2.71459,0 0.913192,-0.01 1.826402,-0.01 2.739609,-0.01 0.607975,-0.012 1.356487,0.1766 1.686577,-0.4786 0.241427,-0.7232 0.224433,-1.5064 0.234032,-2.2627 0.002,-0.9478 -0.0078,-1.8955 -0.01275,-2.8433 -0.0045,-0.949 -0.0051,-1.898 -0.0057,-2.847 -3.14e-4,-0.9465 -2.02e-4,-1.8929 -1.58e-4,-2.8394 0.06733,-0.9371 -0.136534,-1.8487 -0.268921,-2.7689 -0.05224,-0.8811 -0.188177,-1.7318 -0.374653,-2.5903 -0.18599,-0.8821 -0.225852,-1.7856 -0.253285,-2.685 -0.02024,-0.9451 -0.0169,-1.8905 -0.016,-2.8357 6.31e-4,-0.4737 0.0013,-0.9474 0.0018,-1.4211 7.64e-4,-0.6692 0.91052,-0.668 0.909754,0 l 0,0 c -5.41e-4,0.4737 -0.0012,0.9473 -0.0018,1.421 -9.01e-4,0.9349 -0.0042,1.87 0.01554,2.8048 0.02534,0.8394 0.05949,1.6829 0.231384,2.5064 0.191199,0.8807 0.333274,1.7558 0.387008,2.6589 0.138669,0.966 0.346844,1.9253 0.27892,2.9088 -4.3e-5,0.9463 -1.57e-4,1.8926 1.58e-4,2.8389 4.98e-4,0.9475 0.0013,1.895 0.0057,2.8425 0.0049,0.9536 0.01494,1.9073 0.01269,2.861 -0.01226,0.9351 0.0033,1.9058 -0.384457,2.7714 -0.665743,0.9571 -1.385109,0.9402 -2.444979,0.9035 -0.911545,9e-4 -1.823093,0 -2.734623,0.01 -0.917248,0.01 -1.834646,0.02 -2.751855,0 -0.901471,-0.033 -1.852001,-0.045 -2.578216,-0.6779 -0.58853,-0.8188 -0.516723,-1.7322 -0.502153,-2.7158 -0.01669,-0.8635 -0.03737,-1.7301 -0.16805,-2.5848 -0.147525,-0.8756 -0.360677,-1.7389 -0.279894,-2.6372 8.26e-4,-0.9465 0.0025,-1.893 0.002,-2.8395 -0.0021,-0.9166 -0.0021,-1.8339 -0.05232,-2.7493 -0.05747,-0.8246 -0.165497,-1.6404 -0.343168,-2.4472 -0.114048,-0.9366 -0.03314,-1.8839 -0.08796,-2.8259 -0.04205,-0.9159 -0.112492,-1.8322 -0.31651,-2.727 -0.179192,-0.8405 -0.258308,-1.6915 -0.427798,-2.5337 -0.175396,-0.8645 -0.174188,-1.7342 -0.255211,-2.6114 -0.110832,-0.8226 -0.350316,-1.6212 -0.394509,-2.4516 -0.06893,-0.7502 -0.183343,-1.4903 -0.496766,-2.1785 -0.2887,-0.8535 -0.398084,-1.7474 -0.358813,-2.6517 -0.0099,-0.8841 -0.02006,-1.7705 -0.120106,-2.6496 -0.113802,-0.854 -0.359064,-1.694 -0.334011,-2.5614 6e-6,-0.9464 1e-6,-1.8929 2.71e-4,-2.8394 3.45e-4,-0.9471 9.52e-4,-1.8943 0.0021,-2.8415 9.8e-4,-0.94 0.0038,-1.8801 -0.0084,-2.8201 -0.01668,-0.8634 -0.03734,-1.73 -0.168068,-2.5846 -0.147556,-0.8751 -0.360947,-1.73804 -0.280869,-2.63593 0,-0.9463 0,-1.8926 0,-2.8389 0,-0.9463 0,-1.8926 0,-2.83894 0,-0.94632 0,-1.89262 0,-2.83893 0,-0.94631 0,-1.89262 0,-2.83893 0,-0.94631 0,-1.89263 3e-6,-2.83893 3e-6,-0.94631 1.1e-5,-1.89263 1.8e-5,-2.83893 2e-6,-0.94626 1.8e-5,-1.89254 -1.55e-4,-2.83881 -2.31e-4,-0.94616 -6.19e-4,-1.89232 -0.0018,-2.83849 -0.0011,-0.9483 -0.0037,-1.89662 0.0028,-2.84492 0.01067,-0.96467 0.02598,-1.93104 0.12776,-2.89094 0.109334,-0.92714 0.327725,-1.8458 0.326271,-2.78148 -2e-6,-0.9463 -7e-6,-1.8926 -1.6e-5,-2.83891 -6e-6,-0.94637 -2.5e-5,-1.89273 7.8e-5,-2.83909 1.49e-4,-0.94693 3.79e-4,-1.89384 0.0014,-2.84077 9.93e-4,-0.94536 0.0032,-1.89073 4.93e-4,-2.8361 -0.0052,-0.90212 -0.009,-1.80561 -0.0819,-2.70519 -0.08349,-0.8419 -0.261934,-1.66325 -0.374873,-2.50014 0,-0.94515 0,-1.89031 0,-2.83546 0,-0.94726 0,-1.89453 0,-2.8418 0,-1.02418 0,-2.04838 0,-3.07255 0,-1.20029 0,-2.40056 0,-3.60084 0,-0.66914 0.909756,-0.66914 0.909756,0 z"
       inkscape:connector-curvature="0" />
    <path
       style="fill:#000000;fill-opacity:1;stroke:none"
       id="path3066"
       d="m 28.507027,1012.4026 c -0.293661,-1.2766 -0.846623,-2.4622 -1.235466,-3.7059 -0.387795,-1.2314 -0.832258,-2.4402 -1.122796,-3.7022 -0.308366,-1.1498 -0.692349,-2.2716 -0.925334,-3.4418 -0.232337,-1.1688 -0.657002,-2.27793 -0.905995,-3.44153 -0.278423,-1.2997 -0.659246,-2.5687 -0.911248,-3.8749 -0.130685,-1.17805 -0.346889,-2.33027 -0.658378,-3.47007 -0.30322,-1.15091 -0.424463,-2.33735 -0.491472,-3.52475 0.01423,-1.14203 -0.103136,-2.26717 -0.240453,-3.39799 -0.141204,-1.09665 -0.201167,-2.20114 -0.232186,-3.30624 -0.02025,-0.95947 -0.01788,-1.91925 -0.01726,-2.87888 0.0012,-0.94464 0.002,-1.88927 0.0025,-2.83391 3.9e-4,-0.94599 4.05e-4,-1.89198 4.25e-4,-2.83797 7e-6,-0.94631 -6e-6,-1.89264 -1.3e-5,-2.83895 -5e-6,-0.94632 -6e-6,-1.89263 -6e-6,-2.83894 -1e-6,-0.94632 -1e-6,-1.89263 -1e-6,-2.83893 -0.06176,-0.92427 0.03968,-1.81594 0.215006,-2.71839 0.161289,-0.82884 0.198736,-1.67461 0.225086,-2.51741 -0.05939,-0.88608 0.153631,-1.73749 0.298527,-2.6013 0.257606,-0.73449 0.447551,-1.47524 0.541635,-2.25074 0.08924,-0.92231 0.309458,-1.82238 0.422005,-2.74283 0.06087,-0.96997 0.191733,-1.93784 0.467705,-2.86792 0.301648,-0.76181 0.433533,-1.56362 0.506012,-2.37856 0.04572,-0.90703 0.02713,-1.80294 0.197196,-2.69651 0.117233,-0.52563 0.181407,-1.06023 0.233408,-1.59622 0.06504,-0.66572 0.970127,-0.57006 0.905095,0.0957 l 0,0 c -0.05563,0.56599 -0.123259,1.13068 -0.24637,1.68594 -0.166834,0.86004 -0.127172,1.726 -0.18353,2.59928 -0.08007,0.88115 -0.221783,1.75102 -0.54447,2.57599 -0.273821,0.87133 -0.364461,1.79234 -0.432627,2.70229 -0.11356,0.92047 -0.330505,1.82104 -0.422011,2.74288 -0.0979,0.78775 -0.267942,1.55264 -0.547899,2.29381 -0.138426,0.82118 -0.346164,1.62624 -0.285406,2.46915 -0.02826,0.89538 -0.07059,1.79359 -0.242629,2.67395 -0.163524,0.84163 -0.259626,1.66768 -0.196978,2.53094 0,0.9463 0,1.89261 0,2.83892 10e-7,0.94632 3e-6,1.89263 8e-6,2.83895 6e-6,0.94632 1.9e-5,1.89265 1.1e-5,2.83897 -1.9e-5,0.94615 -3.3e-5,1.8923 -4.24e-4,2.83845 -4.72e-4,0.94468 -0.0014,1.88936 -0.0025,2.83404 -6.19e-4,0.95025 -0.003,1.90063 0.01687,2.85071 0.02998,1.07467 0.0879,2.14876 0.2254,3.21518 0.139831,1.15157 0.259287,2.29863 0.246077,3.46142 0.06245,1.11861 0.17414,2.23661 0.458377,3.32127 0.317758,1.1637 0.543646,2.34009 0.675323,3.54297 0.249566,1.3003 0.633304,2.5624 0.90757,3.8567 0.245559,1.1686 0.684973,2.27943 0.908742,3.45503 0.227489,1.1611 0.621481,2.2703 0.919148,3.4127 0.28256,1.2383 0.726247,2.4218 1.103433,3.6305 0.384178,1.2421 0.944149,2.4226 1.232957,3.6979 0.203429,0.6348 -0.659641,0.9341 -0.86307,0.2993 z"
       inkscape:connector-curvature="0" />
    <path
       style="fill:#000000;fill-opacity:1;stroke:none"
       id="path3068"
       d="m 228.58921,947.31326 c -0.37822,1.13673 -0.65235,2.31793 -0.82356,3.53867 -0.0887,0.91727 -0.30416,1.79657 -0.40531,2.71174 -0.084,0.90937 -0.25989,1.7955 -0.34997,2.70509 -0.0784,0.92113 -0.0867,1.84915 -0.0936,2.77508 -0.003,0.94504 -0.002,1.8901 -6.2e-4,2.83515 8.9e-4,0.94656 8.9e-4,1.89311 0.002,2.83967 0.006,0.97525 -0.17141,1.93127 -0.25971,2.89648 -0.0757,0.92544 -0.0865,1.85701 -0.0945,2.78691 -0.005,0.9443 -0.002,1.88863 -0.002,2.83294 -0.0169,0.94912 0.0453,1.9032 -0.0443,2.84646 -0.13946,0.80655 -0.22481,1.6222 -0.27015,2.44686 -0.0395,0.91526 -0.0396,1.83246 -0.0413,2.74891 -4.1e-4,0.94647 8.8e-4,1.89295 0.002,2.83943 6.1e-4,0.94678 6.9e-4,1.89355 7.8e-4,2.84033 3e-5,0.94633 2e-5,1.89267 1e-5,2.83901 0,0.9463 -1e-5,1.89261 -1e-5,2.83891 0,0.94627 0,1.89257 0,2.83897 0,0.9463 0,1.8926 0,2.8389 0,0.9462 0,1.89263 0,2.83893 0,0.9463 0,1.8926 0,2.839 0,0.9463 0,1.8926 0,2.8388 0,0.9464 0,1.8927 0,2.839 0.0317,0.9036 -0.0604,1.822 0.0393,2.7186 0.0707,0.756 0.25199,1.4628 0.42053,2.1848 0.17468,0.4321 0.30217,0.8862 0.40849,1.3546 0.14343,0.6412 -0.53679,0.9117 -0.68024,0.2705 l 0,0 c -0.10256,-0.4672 -0.24517,-0.9075 -0.40618,-1.3446 -0.17913,-0.7718 -0.36942,-1.531 -0.44597,-2.3378 -0.0897,-0.9432 -0.0281,-1.8972 -0.0457,-2.8461 0,-0.9463 0,-1.8926 0,-2.839 0,-0.9462 0,-1.8925 0,-2.8388 0,-0.9464 0,-1.8927 0,-2.839 0,-0.9463 0,-1.89273 0,-2.83893 0,-0.9463 0,-1.8926 0,-2.8389 0,-0.9464 0,-1.8927 0,-2.83897 0,-0.94631 0,-1.89261 0,-2.83893 0,-0.9463 2e-5,-1.8926 -3e-5,-2.8389 -7e-5,-0.94651 -1.7e-4,-1.89304 -7.6e-4,-2.83956 -6.4e-4,-0.94755 -0.002,-1.89509 -0.002,-2.84265 0.002,-0.93889 0.002,-1.87856 0.0433,-2.81619 0.047,-0.84352 0.1299,-1.67973 0.27466,-2.50435 0.0995,-0.89654 0.006,-1.81479 0.0378,-2.71821 -8.4e-4,-0.9483 -0.002,-1.89662 0.002,-2.84492 0.007,-0.96468 0.0203,-1.93104 0.0997,-2.89094 0.0853,-0.92709 0.25573,-1.84572 0.25448,-2.78135 -1.8e-4,-0.9462 -4.7e-4,-1.89238 -0.002,-2.83858 -8.9e-4,-0.94862 -0.003,-1.89726 6.5e-4,-2.84587 0.006,-0.96441 0.0164,-1.93096 0.0998,-2.89018 0.0915,-0.91443 0.26527,-1.80596 0.35149,-2.71967 0.10405,-0.9271 0.31629,-1.81916 0.40983,-2.74758 0.17897,-1.26181 0.4546,-2.48813 0.84776,-3.66301 0.15872,-0.6348 0.83213,-0.33556 0.6734,0.29925 z"
       inkscape:connector-curvature="0" />
    <path
       style="fill:#000000;fill-opacity:1;stroke:none"
       id="path3070"
       d="m 229.35486,1034.7124 c -0.14368,1.2116 -0.21861,2.435 -0.26823,3.6597 -0.0369,1.0465 -0.0399,2.0945 -0.0418,3.1419 -4.1e-4,0.9762 8.9e-4,1.9523 0.002,2.9286 0.02,0.8931 -0.17119,1.7583 -0.25985,2.6377 -0.0472,0.8629 -0.14097,1.7456 -0.0539,2.6075 0.16169,0.4916 0.60095,0.728 0.95256,0.9114 0.58108,0.2089 1.17791,0.2325 1.76307,0.4207 0.59876,0.2111 1.21533,0.2711 1.83027,0.3107 0.69651,0.033 1.39359,0.031 2.0904,0.031 0.71052,0 1.42103,0 2.13154,0 0.71008,-6e-4 1.42015,-6e-4 2.13022,-7e-4 0.70983,0 1.41966,0 2.12949,0 0.65855,-0.1111 1.3016,0.1158 1.95041,0.1637 0.23703,-0.1668 0.20985,-0.8239 0.23122,-1.148 0.0366,-0.9353 0.0247,-1.873 0.0207,-2.8093 -0.005,-0.9819 -0.006,-1.9638 -0.007,-2.9458 0.0615,-0.8714 -0.10053,-1.703 -0.2093,-2.5516 -0.21948,-0.7632 -0.35268,-1.5509 -0.4294,-2.3624 -0.0566,-0.8341 -0.24014,-1.6359 -0.32878,-2.4658 -0.0847,-0.9492 -0.0917,-1.907 -0.0987,-2.862 -0.004,-0.9771 -0.002,-1.9544 -8.7e-4,-2.9316 8.8e-4,-0.9762 8.8e-4,-1.9523 0.002,-2.9285 1.3e-4,-0.9757 1e-4,-1.9514 1e-4,-2.9271 -1e-5,-0.9758 -1e-5,-1.9515 -1e-5,-2.9271 0,-0.9757 0,-1.9514 0,-2.9272 0,-0.9757 0,-1.9514 0,-2.9271 0.0504,-0.9645 -0.04,-1.8994 -0.15582,-2.8462 -0.15239,-0.9428 -0.0999,-1.9228 -0.22471,-2.8671 -0.16143,-0.8527 -0.24375,-1.7226 -0.29073,-2.5995 -0.0403,-0.9668 -0.0399,-1.9356 -0.0413,-2.9036 -9e-5,-0.977 8.8e-4,-1.9539 0.002,-2.9308 -0.10576,-0.8252 -0.22456,-1.6434 -0.28795,-2.478 -0.0599,-0.95883 -0.0635,-1.92223 -0.0675,-2.88403 -0.002,-0.977 -4.1e-4,-1.954 3.7e-4,-2.9312 7.5e-4,-0.9759 8.9e-4,-1.95201 8.9e-4,-2.92802 7e-5,-0.97571 5e-5,-1.95142 5e-5,-2.92712 0,-0.97571 -1e-5,-1.95141 -1e-5,-2.92711 0,-0.97571 0,-1.95142 0,-2.92712 0,-0.97572 0,-1.95143 0,-2.92713 0,-0.97572 0,-1.95143 0,-2.92713 0,-0.97571 0,-1.95142 0,-2.92712 -0.10234,-0.96028 -0.22258,-1.91445 -0.28904,-2.88143 -0.0581,-0.98785 -0.0631,-1.97947 -0.0673,-2.96992 -0.002,-0.97684 -4.2e-4,-1.9537 3.6e-4,-2.93056 7.6e-4,-0.97555 8.8e-4,-1.9511 8.8e-4,-2.92667 8e-5,-0.97568 8e-5,-1.95137 7e-5,-2.92704 -1e-5,-0.97571 -1e-5,-1.95141 -1e-5,-2.92712 0,-0.97571 0,-1.95143 0,-2.92712 0,-0.97572 0,-1.95143 0,-2.92713 -0.0227,-0.95556 0.0482,-1.91936 -0.04,-2.86919 -0.0655,-0.90403 -0.24211,-1.76213 -0.42219,-2.63055 -0.12083,-0.59813 -0.16687,-1.21507 -0.20583,-1.83111 -0.043,-0.68738 0.66415,-0.77109 0.70722,-0.0837 l 0,0 c 0.0345,0.55406 0.0737,1.1093 0.1813,1.64765 0.18984,0.9177 0.37315,1.82769 0.4443,2.78185 0.0816,0.99082 0.0323,1.98912 0.045,2.98506 0,0.9757 0,1.95141 0,2.92712 0,0.9757 0,1.95141 0,2.92713 3e-5,0.9757 3e-5,1.95141 4e-5,2.92711 0,0.97573 10e-6,1.95147 -8e-5,2.92721 -1.1e-4,0.97586 -2.8e-4,1.95173 -8.8e-4,2.92758 -7.7e-4,0.97456 -0.002,1.94912 -3.8e-4,2.92368 0.004,0.96187 0.01,1.9249 0.0643,2.88432 0.068,0.99754 0.20287,1.97939 0.29216,2.97284 0,0.9757 0,1.95141 0,2.92712 0,0.9757 0,1.95141 0,2.92713 0,0.9757 0,1.95141 0,2.92713 0,0.97569 0,1.95141 0,2.92712 0,0.9757 0,1.9514 10e-6,2.92709 1e-5,0.97576 2e-5,1.95152 -6e-5,2.9273 -1.1e-4,0.97632 -2.9e-4,1.9527 -8.9e-4,2.929 -7.8e-4,0.9747 -0.002,1.9495 -3.8e-4,2.9242 0.004,0.9302 0.006,1.8617 0.0639,2.78938 0.0651,0.8685 0.20432,1.7159 0.29173,2.5794 -6.5e-4,0.976 -0.002,1.952 -0.002,2.928 0.002,0.9449 7.4e-4,1.8906 0.0393,2.8345 0.0446,0.8456 0.12698,1.683 0.28237,2.5054 0.11348,0.9498 0.0869,1.9226 0.22513,2.8705 0.12225,0.9996 0.21488,1.9905 0.16564,3.0079 0,0.9758 0,1.9514 0,2.9272 0,0.9757 0,1.9514 0,2.9272 0,0.9755 1e-5,1.9513 1e-5,2.927 0,0.9759 2e-5,1.9516 -1e-4,2.9275 -1.7e-4,0.9765 -4.5e-4,1.953 -0.002,2.9296 -8.8e-4,0.9734 -0.003,1.9469 8.3e-4,2.9202 0.006,0.9114 0.0124,1.8252 0.0914,2.7313 0.0878,0.8353 0.2774,1.6413 0.33042,2.4821 0.0737,0.7989 0.22263,1.5616 0.42447,2.3178 0.11519,0.9027 0.28172,1.7928 0.22,2.719 8.9e-4,0.9805 0.003,1.9611 0.007,2.9416 0.004,0.9689 0.0168,1.9391 -0.0237,2.9068 -0.0652,0.9165 -0.1836,1.9217 -0.98613,2.0297 -0.63446,-0.069 -1.2583,-0.2588 -1.9022,-0.1614 -0.70981,0 -1.41963,0 -2.12946,0 -0.70991,10e-5 -1.41982,10e-5 -2.12974,7e-4 -0.71064,6e-4 -1.42129,0 -2.13194,0 -0.70799,1e-4 -1.41625,0 -2.12391,-0.032 -0.65836,-0.043 -1.31816,-0.1111 -1.95925,-0.3355 -0.61659,-0.1999 -1.25217,-0.1994 -1.85923,-0.4618 -0.60615,-0.3331 -1.21775,-0.7685 -1.39841,-1.6997 -0.079,-0.951 -0.0122,-1.9124 0.0553,-2.8627 0.0849,-0.8346 0.26521,-1.6561 0.25304,-2.5022 -6.5e-4,-0.9771 -0.002,-1.9544 -0.002,-2.9316 0.002,-1.0649 0.005,-2.1303 0.0428,-3.1941 0.0513,-1.2602 0.12868,-2.5191 0.2768,-3.7657 0.0825,-0.6806 0.78269,-0.5202 0.70017,0.1604 z"
       inkscape:connector-curvature="0" />
    <path
       style="fill:#d3bc5f;fill-opacity:1;stroke:none"
       d="m 19.767043,1012.7894 c -0.985964,2.308 0.09806,5.4554 0.355374,7.9697 0.512349,2.233 0.92705,5.8041 3.963125,5.2723 30.093805,3.0188 60.365281,3.3847 90.477618,6.1959 24.16175,2.1052 48.52585,1.4077 72.55089,5.1649 5.47016,0.9438 10.98724,0.075 16.08776,-2.1141 3.83821,-1.5512 7.73467,-2.7269 11.89254,-2.217 10.37769,-0.2136 20.82352,0.4655 31.15912,-0.4583 1.12278,-1.7979 -0.44369,-4.5305 -0.56859,-6.5651 -1.38413,-4.0941 -0.66684,-8.5982 -1.47835,-12.7012 -4.14524,0.1059 -8.273,2.1433 -12.39543,3.0016 -22.83188,5.8847 -46.56964,5.1256 -69.90872,4.9983 -22.037,-0.8256 -44.04631,-2.3663 -66.099136,-2.784 -9.399859,-0.043 -18.671789,-1.5726 -27.885026,-3.3504 -15.571558,-2.4405 -31.372102,-1.2417 -47.028195,-2.2204 -0.369471,-0.057 -0.742473,-0.2445 -1.12298,-0.1922 z"
       id="path3072"
       inkscape:connector-curvature="0" />
    <path
       style="fill:#d3bc5f;fill-opacity:1;stroke:none"
       d="m 10.029255,928.53824 c -2.6646435,0.22406 -5.779372,-0.29422 -8.2069437,0.56188 0.4433361,2.60612 1.1194879,5.23551 1.3998469,7.86619 2.5367362,1.91679 6.1141116,0.5555 9.0438628,1.04754 25.14505,0.92955 50.168259,3.90072 75.177165,6.69084 12.730634,1.12746 25.524164,0.90769 38.259224,2.03953 25.27643,1.59552 50.61852,1.85934 75.92704,1.2325 13.60504,-0.3135 27.02312,-3.52012 40.66452,-2.93487 3.0625,-0.22554 6.3921,0.26434 9.3049,-0.57898 0.81461,-2.82937 1.71162,-6.23607 0.75482,-9.10824 -2.82493,-1.53168 -6.29808,0.20684 -9.35903,-0.0613 -25.1244,1.62964 -50.40614,-0.56448 -75.4266,3.00852 -19.15898,1.34991 -38.22026,-1.84163 -57.31253,-3.00634 -6.93417,-0.72155 -13.81124,-1.70356 -20.805308,-1.63452 C 74.155868,933.3684 58.848009,932.6754 43.700105,930.24738 32.54059,928.4968 21.283213,928.39696 10.029255,928.53827 z"
       id="path3074"
       inkscape:connector-curvature="0" />
    <path
       style="fill:#6c6753;fill-opacity:1;stroke:none"
       d="m 242.51335,1033.7857 c -3.63877,1.3369 -7.64767,0.3959 -11.42379,0.6949 -2.89323,-1.0091 -1.23349,4.0964 -1.77191,6.3571 -0.0848,3.0752 -0.25615,6.1441 -0.42412,9.2126 4.87734,1.7303 10.00696,0.6115 14.99512,0.9907 0.31042,-5.8171 -1.03001,-11.4655 -1.20894,-17.211 -0.0356,-0.07 -0.11393,-0.1087 -0.16636,-0.045 z"
       id="path3080"
       inkscape:connector-curvature="0" />
    <path
       style="fill:#6c6753;fill-opacity:1;stroke:none"
       id="path3082"
       d="m 24.158942,1018.3984 c 0.545122,0.7696 0.89115,1.7749 1.597134,2.4108 -0.122519,-0.3089 -0.379126,0.051 -0.483379,0.061 -0.03736,0 -0.01232,-0.078 -0.02794,-0.1134 -0.05352,-0.1215 -0.12934,-0.2311 -0.186935,-0.3506 -0.287781,-0.5984 0.525863,-1.0218 0.813645,-0.4233 l 0,0 c 0.08824,0.1839 0.229308,0.4575 0.275425,0.6517 0.161579,0.6802 -0.376176,1.2628 -1.010178,0.8679 -0.754896,-0.759 -1.222426,-1.7753 -1.791481,-2.6808 -0.28769,-0.5985 0.526019,-1.0217 0.81371,-0.4232 z"
       inkscape:connector-curvature="0" />
    <path
       style="fill:#6c6753;fill-opacity:1;stroke:none"
       id="path3084"
       d="m 233.74018,1023.332 c 0.69415,0.6015 1.28629,1.3873 1.98191,1.983 0.43371,0.3987 0.71119,0.4974 -0.0127,1.2201 -0.0709,0.071 -0.16522,-0.085 -0.2479,-0.1279 -0.0791,-0.04 -0.1582,-0.08 -0.23731,-0.1212 -0.6789,-0.4211 -1.29826,-0.9866 -1.98263,-1.3938 -0.65341,-0.4337 -1.28428,-0.9234 -1.87435,-1.4962 -0.4047,-0.3959 0.0151,-1.1588 0.41986,-0.763 l 0,0 c 0.54667,0.5394 1.13964,0.9856 1.74539,1.3959 0.67096,0.4044 1.28659,0.9397 1.94586,1.3735 0.15032,0.077 0.39201,0.1971 0.3918,0.2109 -0.0201,1.3743 -0.14575,0.8179 -0.53408,0.4957 -0.71211,-0.6204 -1.32986,-1.41 -2.03918,-2.038 -0.39193,-0.4179 0.0514,-1.1569 0.44343,-0.739 z"
       inkscape:connector-curvature="0" />
    <path
       style="fill:#6c6753;fill-opacity:1;stroke:none"
       id="path3086"
       d="m 226.66222,940.0568 c 0.77799,0.73766 1.50838,1.53073 2.2765,2.27944 0.7158,0.85161 0.63079,0.40509 0.36899,0.48142 -0.11019,0.0321 -0.18734,0.14063 -0.28101,0.21096 -0.0897,-0.55685 -0.45378,-1.00111 -0.69347,-1.49248 -0.0512,-0.0829 -0.10246,-0.16592 -0.15359,-0.24888 -0.33972,-0.56015 0.39552,-1.0778 0.73527,-0.51765 l 0,0 c 0.066,0.11024 0.13196,0.22045 0.19793,0.33067 0.2842,0.59986 0.72282,1.13027 0.78722,1.82764 -0.001,1.39407 -1.08327,0.76851 -1.55144,0.10929 -0.75309,-0.73763 -1.47396,-1.51288 -2.23509,-2.24143 -0.48497,-0.418 0.0637,-1.15695 0.54869,-0.73893 z"
       inkscape:connector-curvature="0" />
    <path
       style="fill:#6c6753;fill-opacity:1;stroke:none"
       id="path3088"
       d="m 18.073675,932.14366 c 0.727076,0.80099 1.378591,1.68058 2.117418,2.46866 0.108765,0.12599 0.213979,0.25563 0.326283,0.37796 0.07475,0.0814 0.14973,0.16368 0.234464,0.23281 0.03153,0.0258 0.148842,0.0552 0.109867,0.0481 -0.07611,-0.014 -0.154637,-0.108 -0.222643,-0.0687 -0.548717,0.31757 -0.247931,0.66799 -0.523472,0.19824 -0.463562,-0.69296 -1.133501,-1.19199 -1.771559,-1.68467 -0.504981,-0.54599 -1.15111,-0.8337 -1.784909,-1.15825 -0.0969,-0.039 -0.193806,-0.0781 -0.29071,-0.1171 -0.580709,-0.23729 -0.269214,-1.12209 0.311494,-0.8848 l 0,0 c 0.118953,0.0492 0.237905,0.0983 0.356858,0.14754 0.67808,0.34851 1.376878,0.6647 1.920126,1.24439 0.731885,0.56893 1.493088,1.14587 2.008066,1.95926 0.777238,1.40143 -0.254729,1.52781 -0.991154,0.72717 -0.104288,-0.11343 -0.201476,-0.23407 -0.302214,-0.35112 -0.758956,-0.81709 -1.438905,-1.7161 -2.183779,-2.54833 -0.387982,-0.52252 0.297883,-1.11367 0.685864,-0.59115 z"
       inkscape:connector-curvature="0" />
    <path
       style="fill:#c8ab37;fill-opacity:1;stroke:none"
       id="path3090"
       d="m 44.384814,1017.7973 c 1.172051,0 2.344101,0 3.516152,0 1.283717,0 2.567436,0 3.851155,0 1.448608,0 2.897216,0 4.345824,0 1.533096,0 3.066191,0 4.599285,0 1.490926,0 2.981852,0 4.472777,0 1.383234,-0.068 2.749298,0.05 4.120575,0.2175 1.129786,0.1325 2.260698,0.1721 3.380382,0.3823 0.896774,0.1931 1.808114,0.2748 2.721184,0.3195 1.068609,-0.016 1.599449,0.014 2.402594,0.7925 0.491685,0.5674 0.875994,1.223 1.392207,1.7667 0.476077,0.617 0.946655,1.211 1.54123,1.7101 0.612448,0.4436 1.209132,0.9074 1.806211,1.3739 0.597198,0.4165 1.325792,0.4177 2.003408,0.577 0.74021,0.2355 1.504963,0.3311 2.273888,0.3871 0.882206,0.049 1.766048,0.047 2.64922,0.048 0.605976,-2e-4 0.30286,0 0.909345,-7e-4 0.643294,-8e-4 0.644378,0.9455 0.0011,0.9463 l 0,0 c -0.607675,7e-4 -0.303832,5e-4 -0.911525,7e-4 -0.90415,0 -1.809001,7e-4 -2.712123,-0.05 -0.816398,-0.06 -1.629332,-0.1616 -2.41582,-0.4093 -0.799891,-0.2003 -1.65538,-0.2023 -2.344839,-0.7428 -0.605529,-0.4757 -1.213928,-0.9432 -1.834507,-1.3971 -0.614053,-0.5271 -1.130626,-1.1312 -1.617616,-1.7829 -0.499908,-0.5407 -0.902008,-1.1596 -1.361745,-1.7357 -0.656593,-0.6423 -0.897489,-0.5252 -1.823953,-0.5382 -0.952969,-0.047 -1.904166,-0.1329 -2.84027,-0.3335 -1.100724,-0.2078 -2.213973,-0.2386 -3.324522,-0.3737 -1.336226,-0.1633 -2.666282,-0.28 -4.014409,-0.211 -1.490925,0 -2.981851,0 -4.472777,0 -1.533094,0 -3.066189,0 -4.599285,0 -1.448608,0 -2.897216,0 -4.345824,0 -1.283719,0 -2.567438,0 -3.851155,0 -1.172051,0 -2.344101,0 -3.516152,0 -0.643294,0 -0.643294,-0.9463 0,-0.9463 z"
       inkscape:connector-curvature="0" />
    <path
       style="fill:#c8ab37;fill-opacity:1;stroke:none"
       id="path3092"
       d="m 111.10799,1026.6983 c 1.34878,-0.4215 2.74438,-0.6147 4.14232,-0.7489 1.37427,-0.092 2.73343,-0.3293 4.10525,-0.4558 1.32345,-0.084 2.63116,-0.3256 3.94963,-0.4674 0.99967,-0.102 2.00427,-0.1223 3.00793,-0.1327 0.6116,0 0.30635,0 0.91574,0 0.6433,-10e-4 0.64468,0.9453 0.001,0.9463 l 0,0 c -0.60489,10e-4 -0.30219,0 -0.90807,0 -0.97546,0.011 -1.95189,0.029 -2.9235,0.1277 -1.32291,0.142 -2.63493,0.3853 -3.96292,0.4688 -1.37076,0.126 -2.72876,0.3644 -4.10205,0.4555 -1.32862,0.1268 -2.65506,0.3078 -3.93803,0.7043 -0.61028,0.2116 -0.89797,-0.6861 -0.28769,-0.8977 z"
       inkscape:connector-curvature="0" />
    <path
       style="fill:#c8ab37;fill-opacity:1;stroke:none"
       id="path3094"
       d="m 136.77938,1029.6262 c 1.17589,-0.048 2.29989,-0.4101 3.4428,-0.6622 0.93656,-0.2106 1.8844,-0.4032 2.81004,-0.6633 0.92287,-0.2298 1.81272,-0.5696 2.7378,-0.7902 0.94566,-0.2019 1.91258,-0.2307 2.87436,-0.2492 1.18222,-0.012 2.36454,-0.01 3.5468,0 1.2208,0 2.44161,0 3.66241,0 1.32008,-0.029 2.62999,-0.01 3.94287,0.1376 1.55668,0.3358 3.13869,0.5028 4.68274,0.8978 1.6217,0.4551 3.24805,0.8812 4.88625,1.2683 1.3704,0.4087 2.77519,0.6465 4.17847,0.89 0.63452,0.1102 0.4848,1.0436 -0.14973,0.9335 l 0,0 c -1.42065,-0.2466 -2.84284,-0.488 -4.23037,-0.9007 -1.64364,-0.3887 -3.27574,-0.8158 -4.90288,-1.2725 -1.50277,-0.3882 -3.04531,-0.5401 -4.55969,-0.8753 -1.28129,-0.1404 -2.55949,-0.1603 -3.84797,-0.1324 -1.22121,-4e-4 -2.44241,0 -3.66362,0 -1.17619,0 -2.35244,-0.01 -3.5286,0 -0.89934,0.017 -1.8038,0.041 -2.68878,0.2256 -0.91446,0.2157 -1.79253,0.5581 -2.70522,0.7819 -0.94258,0.2595 -1.90353,0.4629 -2.85641,0.6749 -1.2047,0.2649 -2.39049,0.6451 -3.63127,0.6826 -0.64328,0 -0.64328,-0.9463 0,-0.9463 z"
       inkscape:connector-curvature="0" />
    <path
       style="fill:#c8ab37;fill-opacity:1;stroke:none"
       id="path3096"
       d="m 188.50625,1024.3713 c 1.42951,-0.2116 2.82071,-0.6217 4.2345,-0.9176 1.81938,-0.2082 3.60495,-0.6141 5.40771,-0.931 2.15065,-0.4977 4.34261,-0.7065 6.53753,-0.8378 2.27009,-0.1 4.53105,-0.3344 6.80069,-0.4528 2.11225,-0.1005 4.22692,-0.1147 6.34097,-0.124 1.72707,0 3.45413,0 5.1812,-7e-4 1.37654,0 2.75308,0 4.1296,0 1.23846,-0.075 2.45966,0.1304 3.68359,0.2887 1.07097,0.124 2.14858,0.1584 3.22516,0.1784 0.16149,0 0.32298,0 0.48449,0.01 0.64325,0.01 0.63352,0.9534 -0.0107,0.9462 l 0,0 c -0.16368,0 -0.32736,0 -0.49104,-0.01 -1.10866,-0.021 -2.21836,-0.057 -3.32117,-0.1854 -1.18692,-0.1536 -2.37026,-0.3564 -3.57143,-0.2815 -1.37673,-2e-4 -2.75347,-7e-4 -4.13021,0 -1.72554,0 -3.45109,0 -5.17663,7e-4 -2.10013,0.01 -4.20088,0.023 -6.29925,0.1228 -2.26743,0.1182 -4.52619,0.3532 -6.79408,0.4525 -2.16174,0.1288 -4.32028,0.3347 -6.43817,0.8261 -1.79352,0.3148 -3.56981,0.7204 -5.38002,0.9256 -1.42379,0.2971 -2.82438,0.7116 -4.26414,0.9233 -0.63453,0.11 -0.7841,-0.8234 -0.14955,-0.9334 z"
       inkscape:connector-curvature="0" />
    <path
       style="fill:#c8ab37;fill-opacity:1;stroke:none"
       id="path3098"
       d="m 225.22806,1029.6262 c -1.35017,0 -2.70037,0 -4.05055,0 -1.67878,-0.07 -3.34498,0.061 -5.01528,0.2125 -1.91827,0.1757 -3.82582,0.4414 -5.74736,0.5866 -1.85059,0.048 -3.67079,0.3989 -5.49329,0.7007 -1.53702,0.3497 -3.0952,0.5693 -4.63687,0.8916 -0.92529,0.1682 -1.8192,0.4704 -2.73738,0.6742 -0.62921,0.1393 -0.81854,-0.7863 -0.18934,-0.9256 l 0,0 c 0.92171,-0.2033 1.8182,-0.5104 2.7475,-0.6764 1.55372,-0.3247 3.12387,-0.547 4.67309,-0.8984 1.84808,-0.3059 3.69402,-0.6601 5.57044,-0.7099 1.91723,-0.1446 3.82032,-0.4111 5.73436,-0.5856 1.69643,-0.1535 3.38919,-0.285 5.09413,-0.216 1.35018,0 2.70038,0 4.05055,0 0.6433,0 0.6433,0.9463 0,0.9463 z"
       inkscape:connector-curvature="0" />
    <path
       style="fill:#c8ab37;fill-opacity:1;stroke:none"
       id="path3100"
       d="m 30.185033,930.73679 c 1.417207,-0.0546 2.824129,0.15617 4.233013,0.28674 1.817559,0.0735 3.626839,0.23085 5.438818,0.39609 2.267099,0.20202 4.528001,0.45601 6.800074,0.59402 2.55221,0.0825 5.102921,0.23403 7.645495,0.48872 2.115003,0.20605 4.223173,0.47521 6.328089,0.77703 0.615645,0.0883 0.499738,1.02634 -0.115906,0.93804 l 0,0 c -2.093446,-0.30034 -4.190141,-0.56795 -6.293638,-0.77283 -2.531873,-0.25452 -5.072044,-0.40331 -7.613528,-0.48615 -2.280271,-0.13878 -4.54941,-0.39285 -6.824672,-0.59589 -1.81243,-0.16531 -3.62205,-0.32208 -5.44005,-0.3962 -1.383889,-0.12839 -2.765647,-0.33734 -4.157695,-0.28327 -0.621078,0 -0.621078,-0.9463 0,-0.9463 z"
       inkscape:connector-curvature="0" />
    <path
       style="fill:#c8ab37;fill-opacity:1;stroke:none"
       id="path3102"
       d="m 78.140643,940.33735 c 1.3047,0.54592 2.67029,0.89794 4.031501,1.23669 1.638737,0.48706 3.322996,0.73979 4.998968,1.02399 1.98139,0.35844 3.979498,0.56299 5.972733,0.82192 1.998284,0.31009 4.012232,0.43795 6.027892,0.51701 1.681833,0.0533 3.364593,0.0536 5.046993,0.054 1.27674,-10e-4 2.55348,-0.004 3.83024,-0.005 0.83415,0.0636 1.60579,-0.0172 2.36674,-0.38066 0.69718,-0.32282 1.44976,-0.44186 2.17971,-0.64905 0.9121,-0.25112 1.85184,-0.32368 2.78875,-0.36577 1.0224,-0.033 2.04541,-0.03 3.06818,-0.0294 1.10681,-0.004 2.20159,-0.22938 3.30317,-0.3373 0.97933,-0.0889 1.96214,-0.10918 2.94431,-0.12522 0.62101,-0.0106 0.63432,0.93606 0.0133,0.94621 l 0,0 c -0.96013,0.0156 -1.92091,0.0351 -2.8783,0.12144 -1.12809,0.10989 -2.24897,0.34282 -3.38299,0.34118 -1.01048,-6e-4 -2.02122,-0.004 -3.03139,0.0286 -0.87369,0.0386 -1.75046,0.10303 -2.60144,0.33539 -0.68563,0.19432 -1.39161,0.30741 -2.04894,0.59979 -0.8739,0.41322 -1.76595,0.53125 -2.72032,0.4611 -1.27707,10e-4 -2.55414,0.004 -3.83123,0.005 -1.693,-4e-4 -3.38636,-8.3e-4 -5.07879,-0.0546 -2.040129,-0.0802 -4.078547,-0.20998 -6.101153,-0.5232 -2.003584,-0.26083 -4.012224,-0.46648 -6.00403,-0.82661 -1.696554,-0.28781 -3.401392,-0.54464 -5.060417,-1.03686 -1.387794,-0.34667 -2.780582,-0.70468 -4.111216,-1.26087 -0.589205,-0.2116 -0.311451,-1.10935 0.277754,-0.89775 z"
       inkscape:connector-curvature="0" />
    <path
       style="fill:#c8ab37;fill-opacity:1;stroke:none"
       id="path3104"
       d="m 153.61079,939.78976 c 1.14622,0.20547 2.29451,0.45984 3.42112,0.77141 0.92362,0.29032 1.87436,0.43657 2.80763,0.68235 0.73481,0.37631 1.51713,0.57361 2.29295,0.81408 0.79821,0.30959 1.6502,0.33902 2.4709,0.52911 0.71923,0.28893 1.40996,0.27824 2.15688,0.19252 0.88383,-0.20654 1.70113,-0.61806 2.57827,-0.85255 0.95171,-0.41921 1.97285,-0.5173 2.96817,-0.73944 0.86784,-0.28848 1.78768,-0.29797 2.66586,-0.51304 0.36448,-0.11095 0.73418,-0.196 1.10538,-0.27551 0.60926,-0.12989 0.77975,0.79843 0.17049,0.92831 l 0,0 c -0.36558,0.0775 -0.72905,0.16331 -1.08812,0.27163 -0.88603,0.20262 -1.80251,0.23864 -2.67733,0.51566 -0.9858,0.21543 -1.99305,0.31924 -2.93534,0.73149 -0.91573,0.23845 -1.76308,0.69768 -2.69481,0.87448 -0.83593,0.095 -1.63497,0.1022 -2.43928,-0.2096 -0.83529,-0.20655 -1.71278,-0.21472 -2.52559,-0.54415 -0.7622,-0.24005 -1.53886,-0.42041 -2.25703,-0.80376 -0.93682,-0.24682 -1.89173,-0.39225 -2.81866,-0.68534 -1.1007,-0.30833 -2.22543,-0.55214 -3.34589,-0.75421 -0.61263,-0.11001 -0.46824,-1.04344 0.1444,-0.93344 z"
       inkscape:connector-curvature="0" />
    <path
       style="fill:#c8ab37;fill-opacity:1;stroke:none"
       id="path3106"
       d="m 190.42867,939.25358 c 1.21012,0.0122 2.42085,-0.0418 3.62806,0.058 1.3152,0.1202 2.61417,0.35143 3.91522,0.58242 1.1975,0.21639 2.41323,0.2599 3.62463,0.2935 0.97649,0.021 1.95324,0.018 2.92988,0.0164 0.88,-0.002 1.76,-0.004 2.64003,-0.004 0.87691,-4.8e-4 1.75384,-4.8e-4 2.63076,-4.9e-4 0.76276,0.0157 1.50334,-0.22479 2.25579,-0.33833 0.13771,-0.0155 0.2754,-0.031 0.41311,-0.0466 0.61775,-0.0691 0.70848,0.87213 0.0906,0.94125 l 0,0 c -0.12754,0.0142 -0.25507,0.0284 -0.3826,0.0425 -0.79253,0.11834 -1.57209,0.3734 -2.377,0.34738 -0.87676,2e-5 -1.75351,10e-6 -2.63025,5e-4 -0.87976,5.9e-4 -1.75952,10e-4 -2.63925,0.004 -0.98465,10e-4 -1.96938,0.005 -2.95386,-0.0168 -1.25166,-0.0349 -2.50758,-0.0818 -3.74482,-0.30577 -1.27659,-0.22671 -2.55082,-0.45477 -3.84132,-0.57275 -1.18372,-0.10316 -2.37233,-0.0377 -3.55912,-0.0552 -0.62107,0 -0.62107,-0.94632 0,-0.94632 z"
       inkscape:connector-curvature="0" />
    <path
       style="fill:#c8ab37;fill-opacity:1;stroke:none"
       id="path3108"
       d="m 190.86784,942.56566 c 1.11404,0 2.22811,0 3.34218,0 1.07047,0 2.14095,0 3.21141,0 0.98469,0.0646 1.94888,-0.0567 2.92028,-0.20932 0.95925,-0.11745 1.88348,-0.42484 2.83732,-0.58547 0.58324,-0.0731 0.30185,-0.0234 0.84485,-0.14458 0.60866,-0.13314 0.78343,0.79424 0.17477,0.92738 l 0,0 c -0.60588,0.13027 -0.31074,0.0813 -0.88464,0.15227 -0.95665,0.15941 -1.88267,0.47395 -2.84558,0.58681 -1.01292,0.1591 -2.02061,0.2828 -3.047,0.21922 -1.07046,0 -2.14094,0 -3.21141,0 -1.11407,0 -2.22814,0 -3.34218,0 -0.62108,0 -0.62108,-0.94631 0,-0.94631 z"
       inkscape:connector-curvature="0" />
    <path
       style="fill:#c8ab37;fill-opacity:1;stroke:none"
       id="path3110"
       d="m 235.9008,936.40205 c 0.79287,0.79764 1.71268,1.4158 2.61098,2.06019 0.77639,0.53562 1.6804,0.79043 2.54265,1.11586 0.83231,0.34729 1.70822,0.49497 2.59227,0.5748 0.93997,0.11998 1.83737,0.43832 2.75461,0.66814 0.94914,0.21821 1.91912,0.27779 2.88632,0.31297 0.89034,0.023 1.78103,0.0184 2.67153,0.0167 0.83281,-0.0853 1.6333,0.13522 2.44509,0.28809 0.61176,0.11544 0.46021,1.04758 -0.15155,0.93212 l 0,0 c -0.76237,-0.14418 -1.5093,-0.35879 -2.29195,-0.27391 -0.90097,0.001 -1.80211,0.006 -2.70289,-0.0172 -1.02449,-0.0376 -2.05173,-0.10351 -3.05661,-0.33728 -0.87566,-0.22184 -1.73244,-0.52258 -2.62859,-0.64665 -0.95775,-0.088 -1.90695,-0.25087 -2.8092,-0.62487 -0.93104,-0.35306 -1.90439,-0.63318 -2.73906,-1.22148 -0.97115,-0.69929 -1.97268,-1.36648 -2.80946,-2.25628 -0.38799,-0.52251 0.29787,-1.11366 0.68586,-0.59116 z"
       inkscape:connector-curvature="0" />
    <path
       style="fill:#484537;fill-opacity:1;stroke:none"
       id="path3112"
       d="m 232.59638,954.26096 c -0.0204,1.19814 0.0476,2.40153 -0.0445,3.59486 -0.12452,0.89241 -0.22257,1.78733 -0.2714,2.69273 -0.0559,0.91959 0.002,1.84538 -0.0872,2.76005 -0.12399,0.80922 -0.20399,1.62055 -0.38393,2.41172 -0.16346,0.76834 -0.21262,1.55812 -0.3708,2.32842 -0.1491,0.59324 -0.0598,1.16807 0.0951,1.73589 0.34488,0.61235 0.50819,1.31792 0.61122,2.06009 0.0537,0.45676 0.0684,0.91866 0.0848,1.37966 0.0236,0.66839 -0.68548,0.71282 -0.70905,0.0444 l 0,0 c -0.0146,-0.41924 -0.0272,-0.83934 -0.0742,-1.25505 -0.0933,-0.70157 -0.27399,-1.31834 -0.58048,-1.90788 -0.20235,-0.75193 -0.29755,-1.52602 -0.1119,-2.30753 0.16044,-0.77754 0.20129,-1.5793 0.37616,-2.3531 0.16982,-0.74346 0.23984,-1.50718 0.36008,-2.26733 0.10096,-0.88973 0.0113,-1.80199 0.0823,-2.6976 0.0499,-0.91621 0.14476,-1.82318 0.27364,-2.72574 0.0985,-1.1576 0.0113,-2.33066 0.0405,-3.4936 0,-0.66915 0.70982,-0.66915 0.70982,0 z"
       inkscape:connector-curvature="0" />
    <path
       style="fill:#484537;fill-opacity:1;stroke:none"
       id="path3114"
       d="m 236.09824,978.9428 c -0.13228,1.20511 -0.20463,2.41411 -0.375,3.61133 -0.15849,0.99066 -0.2302,1.99769 -0.26738,3.00759 0.01,0.84413 -0.12561,1.72344 0.10085,2.5304 0.20313,0.7747 0.52416,1.46896 0.721,2.24662 0.11773,0.796 0.41112,1.51156 0.61925,2.26699 0.22927,0.91854 0.27424,1.88684 0.30382,2.84644 0.0198,0.9529 0.0152,1.9063 0.0135,2.8595 -0.002,0.9468 -0.002,1.89363 -0.003,2.84023 -0.0529,0.9371 0.10619,1.8487 0.20946,2.7688 0.12633,0.6743 0.37558,1.3126 0.32708,2.0177 -0.21799,0.6421 -0.59023,1.1599 -0.84951,1.7851 -0.15141,0.4729 -0.0837,0.2301 -0.20205,0.7287 -0.15409,0.6367 -0.82964,0.3463 -0.67554,-0.2906 l 0,0 c 0.15095,-0.6143 0.0648,-0.3146 0.25775,-0.8993 0.21747,-0.5156 0.45281,-1.0227 0.76515,-1.4429 0.1,-0.5695 -0.31454,-1.1864 -0.3249,-1.7588 -0.10825,-0.966 -0.27066,-1.9256 -0.21726,-2.9094 5.6e-4,-0.9472 0.002,-1.89453 0.003,-2.84183 0.002,-0.9395 0.005,-1.8793 -0.0128,-2.8186 -0.0262,-0.862 -0.061,-1.7331 -0.26132,-2.5604 -0.20816,-0.76478 -0.5088,-1.48723 -0.62604,-2.29292 -0.19024,-0.77611 -0.52934,-1.46047 -0.71896,-2.23862 -0.22768,-0.94038 -0.16392,-1.9062 -0.13835,-2.88376 0.0392,-1.05347 0.11431,-2.10399 0.27898,-3.13752 0.16976,-1.19002 0.23778,-2.39277 0.3722,-3.59033 0.0825,-0.66003 0.78267,-0.50446 0.70016,0.15558 z"
       inkscape:connector-curvature="0" />
    <path
       style="fill:#484537;fill-opacity:1;stroke:none"
       id="path3116"
       d="m 225.94506,986.0833 c 0.55745,0.96161 0.87426,2.10644 1.23875,3.20737 0.25906,0.81318 0.53871,1.58935 0.67967,2.45803 0.1629,0.63746 0.27513,1.30007 0.5611,1.86427 0.23923,0.6001 0.52449,1.1525 0.82234,1.7019 0.24804,0.5716 0.51576,1.1371 0.85543,1.6205 0.33215,0.487 0.50969,1.1368 0.90317,1.5471 0.51658,0.5321 0.67891,1.18279 0.488,2.00373 -0.23973,0.7357 -0.41046,1.4998 -0.59892,2.2603 -0.2393,0.8675 -0.33579,1.7782 -0.39128,2.6942 -0.0434,0.9346 -0.0408,1.8716 -0.041,2.8075 8.9e-4,0.9465 0.002,1.8928 0.003,2.8393 0.0453,0.7159 0.16464,1.4012 0.33976,2.0774 0.16348,0.6327 -0.50765,0.9409 -0.67111,0.3083 l 0,0 c -0.1998,-0.7749 -0.33468,-1.5641 -0.37848,-2.3846 -8.9e-4,-0.9469 -0.002,-1.8938 -0.003,-2.8406 2.3e-4,-0.9616 -0.002,-1.9241 0.0434,-2.8841 0.0611,-0.991 0.16776,-1.9764 0.4251,-2.9154 0.18964,-0.7579 0.35843,-1.5218 0.59761,-2.2551 0.11761,-0.44654 0.0414,-0.67593 -0.26918,-0.98583 -0.40184,-0.4677 -0.65427,-1.0692 -0.97039,-1.633 -0.35082,-0.519 -0.654,-1.095 -0.90779,-1.7062 -0.30401,-0.5634 -0.59767,-1.1291 -0.8431,-1.7425 -0.3164,-0.6743 -0.49013,-1.42127 -0.65888,-2.18028 -0.12601,-0.8062 -0.40115,-1.51609 -0.63481,-2.27291 -0.33951,-1.0262 -0.63094,-2.09618 -1.14361,-2.99822 -0.31354,-0.52251 0.24074,-1.11366 0.55429,-0.59116 z"
       inkscape:connector-curvature="0" />
    <path
       style="fill:#484537;fill-opacity:1;stroke:none"
       id="path3118"
       d="m 234.01604,1038.9557 c 0.0474,1.2324 -0.0392,2.4463 -0.164,3.6649 -0.12595,1.0205 -0.39898,1.9775 -0.64995,2.9487 -0.18861,0.7686 -0.0438,1.5675 0.10406,2.3254 0.1095,0.5919 0.043,0.3183 0.19016,0.8247 0.17715,0.6261 -0.487,0.9602 -0.66416,0.334 l 0,0 c -0.16942,-0.6113 -0.099,-0.3039 -0.21311,-0.9212 -0.18258,-0.9413 -0.32713,-1.9215 -0.0879,-2.8719 0.23687,-0.9124 0.49543,-1.8093 0.6176,-2.7678 0.12053,-1.1764 0.20544,-2.3467 0.15746,-3.5368 0,-0.6692 0.70984,-0.6692 0.70984,0 z"
       inkscape:connector-curvature="0" />
    <path
       style="fill:#484537;fill-opacity:1;stroke:none"
       id="path3120"
       d="m 19.65579,947.42609 c -0.72141,1.12152 -1.080486,2.40683 -1.329519,3.71578 -0.176791,1.04547 -0.198426,2.10808 -0.208053,3.16655 -0.07537,0.94487 0.02951,1.80456 0.319691,2.69456 0.152839,0.79903 0.664304,1.32962 1.170826,1.9019 0.572229,0.71171 0.689602,1.60748 0.764264,2.4991 0.05324,0.94391 0.04317,1.89012 0.04037,2.8352 0.127004,0.93358 0.278947,1.86113 0.362861,2.80067 0.04908,0.83754 0.29274,1.64266 0.41004,2.47239 0.01971,0.4372 0.129108,0.86039 0.220269,1.28521 0.140019,0.6531 -0.747925,0.85907 -0.887944,0.20597 l 0,0 c -0.09584,-0.44742 -0.208119,-0.89462 -0.232525,-1.35439 -0.11797,-0.8461 -0.372032,-1.66648 -0.415723,-2.52198 -0.08591,-0.96963 -0.25632,-1.92467 -0.366729,-2.89079 0.0028,-0.91718 0.01255,-1.83541 -0.03705,-2.75155 -0.05475,-0.67828 -0.109878,-1.38324 -0.527612,-1.93943 -0.588075,-0.66665 -1.173131,-1.31905 -1.362873,-2.23922 -0.32092,-0.99023 -0.445456,-1.95929 -0.36757,-3.00667 0.01035,-1.11746 0.03592,-2.23909 0.225524,-3.34231 0.275205,-1.42965 0.67575,-2.83162 1.464799,-4.0559 0.356836,-0.55676 1.113798,-0.0318 0.756962,0.52491 z"
       inkscape:connector-curvature="0" />
    <path
       style="fill:#484537;fill-opacity:1;stroke:none"
       id="path3122"
       d="m 22.727321,988.25032 c 0.189843,1.20903 0.289039,2.43001 0.354771,3.65225 0.0484,1.03179 0.05247,2.065 0.0549,3.0978 -0.02522,0.816 0.119267,1.6325 0.52724,2.3358 0.322821,0.5614 0.751785,1.0628 1.213623,1.5062 0.638505,0.602 0.779114,1.34103 0.718866,2.19503 -0.09269,0.8312 -0.137158,1.6662 -0.164182,2.502 -0.08892,0.9466 -0.669415,1.6938 -1.363181,2.2658 -0.55843,0.3494 -1.229319,0.5496 -1.567971,1.1617 -0.133396,0.3008 -0.172576,0.6269 -0.218715,0.9506 -0.09789,0.6613 -0.997046,0.5173 -0.899162,-0.144 l 0,0 c 0.06917,-0.4538 0.135909,-0.9045 0.350582,-1.3151 0.442795,-0.6851 1.067693,-1.0633 1.780661,-1.4033 0.48801,-0.3727 0.925196,-0.9096 1.008547,-1.5476 0.02762,-0.8495 0.07218,-1.6983 0.166379,-2.5431 0.04551,-0.574 0.01356,-1.02024 -0.434001,-1.43163 -0.521107,-0.5141 -1.015279,-1.0775 -1.379654,-1.7241 -0.46282,-0.8618 -0.688497,-1.8142 -0.648784,-2.806 -0.0023,-1.016 -0.0061,-2.03236 -0.05349,-3.04736 -0.06362,-1.18781 -0.159643,-2.37441 -0.343807,-3.54942 -0.105751,-0.66004 0.79162,-0.81561 0.897377,-0.15557 z"
       inkscape:connector-curvature="0" />
    <path
       style="fill:#484537;fill-opacity:1;stroke:none"
       id="path3124"
       d="m 20.065043,1027.8615 c 0.643076,1.0115 1.154432,2.1106 1.840193,3.0915 0.506503,0.7971 1.042087,1.5399 1.686526,2.2165 0.63025,0.701 0.785093,1.603 0.872522,2.5221 0.05991,0.9432 0.04786,1.8893 0.0444,2.8339 -0.0048,0.948 -0.0075,1.896 -0.009,2.844 -0.0043,0.879 -0.04664,1.7483 0.119657,2.6129 0.07042,0.7218 0.309057,1.3479 0.64871,1.9692 0.219746,0.4771 0.119211,0.2295 0.299209,0.7439 0.216591,0.63 -0.640049,0.9486 -0.85664,0.3186 l 0,0 c -0.136208,-0.4056 -0.05832,-0.2074 -0.233441,-0.5948 -0.387166,-0.7085 -0.660883,-1.4357 -0.750319,-2.2534 -0.174327,-0.9269 -0.149412,-1.8562 -0.136931,-2.798 0.0015,-0.9487 0.0042,-1.8974 0.009,-2.8461 0.0034,-0.9129 0.01504,-1.8271 -0.04016,-2.7388 -0.06366,-0.6984 -0.143057,-1.404 -0.613403,-1.9476 -0.677781,-0.712 -1.245683,-1.4909 -1.777759,-2.3285 -0.70831,-1.027 -1.257086,-2.1607 -1.916285,-3.2222 -0.287691,-0.5985 0.526019,-1.0217 0.81371,-0.4232 z"
       inkscape:connector-curvature="0" />
    <path
       style="fill:#484537;fill-opacity:1;stroke:none"
       id="path3126"
       d="m 16.225331,991.5838 c -0.27008,-1.13361 -0.691922,-2.21642 -0.980712,-3.34412 -0.231975,-0.98219 -0.274201,-1.99399 -0.29831,-3.00031 -0.02435,-0.9436 -0.04408,-1.87539 0.133932,-2.80347 0.131716,-0.85941 0.405506,-1.68169 0.574628,-2.5327 0.258611,-0.78187 0.449048,-1.58035 0.729565,-2.35365 0.280961,-0.74259 0.27261,-1.547 0.420727,-2.31847 0.238058,-0.7807 0.26557,-1.60308 0.435134,-2.39646 0.13141,-0.51208 0.069,-0.25883 0.187611,-0.75964 0.154026,-0.64968 1.037318,-0.4231 0.883292,0.22658 l 0,0 c -0.120606,0.50821 -0.05895,0.25971 -0.184396,0.74563 -0.181576,0.78182 -0.181862,1.60575 -0.430839,2.37605 -0.170565,0.81529 -0.138163,1.67759 -0.460375,2.46046 -0.263974,0.72738 -0.438453,1.47918 -0.69,2.21207 -0.170517,0.8491 -0.439775,1.67002 -0.573532,2.52714 -0.168164,0.85745 -0.132586,1.72051 -0.11627,2.59305 0.02203,0.9323 0.05687,1.87024 0.268169,2.78105 0.28164,1.10912 0.702103,2.17225 0.964446,3.28754 0.203426,0.6348 -0.659642,0.93405 -0.86307,0.29925 z"
       inkscape:connector-curvature="0" />
  </g>
</svg>
