<?xml version="1.0" encoding="UTF-8" standalone="no"?>
<!-- Generator: Adobe Illustrator 15.1.0, SVG Export Plug-In . SVG Version: 6.00 Build 0)  -->

<svg
   xmlns:dc="http://purl.org/dc/elements/1.1/"
   xmlns:cc="http://creativecommons.org/ns#"
   xmlns:rdf="http://www.w3.org/1999/02/22-rdf-syntax-ns#"
   xmlns:svg="http://www.w3.org/2000/svg"
   xmlns="http://www.w3.org/2000/svg"
   xmlns:sodipodi="http://sodipodi.sourceforge.net/DTD/sodipodi-0.dtd"
   xmlns:inkscape="http://www.inkscape.org/namespaces/inkscape"
   version="1.1"
   id="Layer_1"
   x="0px"
   y="0px"
   width="920"
   height="920"
   viewBox="0 0 920 920"
   enable-background="new 0 0 612 792"
   xml:space="preserve"
   inkscape:version="0.48.5 r10040"
   sodipodi:docname="millFan.svg"
   inkscape:export-filename="C:\Users\narfman0\Desktop\millFan.png"
   inkscape:export-xdpi="90"
   inkscape:export-ydpi="90"><metadata
   id="metadata129"><rdf:RDF><cc:Work
       rdf:about=""><dc:format>image/svg+xml</dc:format><dc:type
         rdf:resource="http://purl.org/dc/dcmitype/StillImage" /><dc:title /></cc:Work></rdf:RDF></metadata><defs
   id="defs127" /><sodipodi:namedview
   pagecolor="#ffffff"
   bordercolor="#666666"
   borderopacity="1"
   objecttolerance="10"
   gridtolerance="10"
   guidetolerance="10"
   inkscape:pageopacity="0"
   inkscape:pageshadow="2"
   inkscape:window-width="1871"
   inkscape:window-height="982"
   id="namedview125"
   showgrid="false"
   inkscape:zoom="0.99"
   inkscape:cx="295.81912"
   inkscape:cy="600.65166"
   inkscape:window-x="1918"
   inkscape:window-y="21"
   inkscape:window-maximized="0"
   inkscape:current-layer="Layer_1" />
<g
   id="g3"
   transform="matrix(13.086353,0,0,14.162205,-3557.8773,-5185.5409)">
	
	
	
	
	
	
	
	
	
	<path
   d="m 308.44173,397.686 -0.556,-1.19 -0.774,-0.14 0.102,-2.563 5.369,0.01 c 0,0 2.725,-25.928 2.725,-26.338 0,-0.408 -12.396,-0.102 -12.396,-0.102 l 1.96,19.669 h 3.368 v 2.254 h -3.143 l 0.786,7.887 -2.626,-0.261 0.066,1.389 h -2.05 l -1.699,-5.438 -27.497,0.214 2.356,11.473 c 0,0 26.123,-4.303 26.84,-4.404 0.716,-0.102 0.205,1.742 0.205,1.742 l -3.482,-0.104 0.308,28.377 11.371,0.307 -3.236,-28.866 2.211,-0.433 -0.412,-2.123 1.028,-0.026 3.79,6.556 25.61,0.717 c 0,0 2.56,-11.473 2.56,-12.087 -0.002,-0.617 -32.784,3.48 -32.784,3.48 z m 4.1,-19.016 v 2.933 h -2.098 v -2.933 h 2.098 z m -4.201,-4.136 h 2.259 v 1.886 h -2.259 v -1.886 z m -3.278,-5.532 h 2.458 v 2.766 h -2.458 v -2.766 z m 0.512,15.565 v -2.248 h 2.992 v 2.248 h -2.992 z m -29.504,11.481 h -2.356 v -1.844 h 2.356 v 1.844 z m 4.917,6.248 h -3.482 v -3.175 h 3.482 v 3.175 z m 4.713,-3.894 h -3.483 v -2.561 h 3.483 v 2.561 z m 8.566,-0.964 h -3.144 v -2.256 h 3.144 v 2.256 z m 4.035,0.351 h -1.947 v -2.46 h 1.947 v 2.46 z m 0.819,17.618 h 1.946 v 1.231 h -1.946 v -1.231 z m -0.286,3.876 h 2.541 v 2.374 h -2.541 v -2.374 z m 3.672,9.783 h -3.181 v -2.695 h 3.181 v 2.695 z m 1.02,-19.086 h 2.253 v 1.945 h -2.253 v -1.945 z m 3.381,10.95 v 2.367 h -2.642 v -2.367 h 2.642 z m 7.682,-19.762 h -2.544 v -2.487 h 2.544 v 2.487 z m 4.917,-0.922 h -2.266 v -2.342 h 2.266 v 2.342 z m 7.069,1.742 h -3.108 v -1.892 h 3.108 v 1.892 z m 3.995,3.176 h -2.869 v -3.176 h 2.869 v 3.176 z m 0.41,-8.299 h 2.796 v 1.994 h -2.796 v -1.994 z m 4.508,8.403 h -1.844 v -3.586 h 1.844 v 3.586 z"
   id="path23"
   inkscape:connector-curvature="0"
   style="fill:#a48460" />
	
	
	
	
	
	
	
	
	
	
	
	
	
	
	<g
   id="g53"
   transform="translate(0.78466374,29.469371)">
		<g
   id="g55">
			<path
   d="m 302.398,335.797 c 0.454,0.951 -0.033,1.998 0.192,2.993 0.297,0.057 0.598,0.108 0.896,0.16 0.002,-0.217 0.008,-0.651 0.012,-0.87 0.163,0.289 0.333,0.573 0.503,0.858 1.03,-0.02 2.067,-0.023 3.086,-0.197 0.061,-0.182 0.182,-0.548 0.242,-0.73 0.068,0.17 0.205,0.508 0.271,0.678 2.088,-0.061 4.16,-0.355 6.246,-0.521 0.07,-0.245 0.139,-0.489 0.205,-0.733 0.078,0.015 0.234,0.045 0.312,0.062 -0.054,0.231 -0.111,0.462 -0.171,0.693 0.559,-0.051 1.116,-0.101 1.675,-0.145 0.003,0.055 0.009,0.165 0.013,0.221 -0.527,0.175 -1.683,-0.303 -1.781,0.482 -0.381,4.265 -0.818,8.542 -1.055,12.858 0.23,0.022 0.695,0.065 0.928,0.086 -0.313,0.089 -0.632,0.17 -0.941,0.258 -0.102,1.055 -0.141,2.12 -0.354,3.162 -0.188,1.519 -0.229,3.058 -0.382,4.586 -0.098,1.438 -0.398,2.854 -0.34,4.311 0.201,0.019 0.401,0.04 0.602,0.06 -0.327,0.196 -0.596,0.462 -0.811,0.77 0.248,-0.797 -0.25,-0.651 -0.587,-0.599 -0.429,0.076 -0.489,0.584 -0.607,0.934 -0.067,-0.22 -0.198,-0.659 -0.265,-0.879 -0.365,-0.001 -0.729,-0.001 -1.093,0.002 0.376,1.173 0.772,2.344 1.202,3.505 7.186,-0.696 14.387,-1.615 21.702,-2.146 2.376,-0.233 4.821,-0.224 7.108,-0.921 0.129,0.067 0.258,0.138 0.389,0.207 -0.197,0.47 -0.361,0.955 -0.502,1.445 0.87,-0.109 1.805,-0.109 2.551,-0.571 -0.319,1.111 -1.906,0.386 -2.652,0.927 -0.267,0.574 -0.31,1.234 -0.463,1.851 0.209,-0.004 0.418,-0.006 0.631,-0.009 0.012,0.061 0.034,0.188 0.047,0.251 -0.258,0.071 -0.514,0.149 -0.766,0.227 -0.111,0.906 -0.246,1.81 -0.373,2.715 0.205,-0.038 0.412,-0.076 0.619,-0.109 -0.197,0.231 -0.412,0.442 -0.633,0.648 -0.164,1.028 -0.353,2.052 -0.55,3.077 0.404,0.033 1.212,0.101 1.616,0.135 -0.553,0.12 -1.107,0.232 -1.66,0.343 -0.133,1.093 -0.336,2.175 -0.569,3.25 -0.218,-0.435 -0.399,-0.883 -0.56,-1.336 0.156,0.188 0.313,0.378 0.466,0.571 0.138,-0.902 0.269,-1.804 0.417,-2.7 -0.688,-0.054 -1.426,-0.137 -2.018,0.231 0.008,-0.133 0.014,-0.265 0.021,-0.396 -0.98,-0.062 -1.96,-0.052 -2.937,-0.091 -1.768,-0.253 -3.539,-0.441 -5.307,-0.494 0.104,0.421 0.18,0.847 0.195,1.277 -0.139,-0.315 -0.416,-0.943 -0.555,-1.26 -1.473,-0.252 -2.92,0.144 -4.379,-0.138 -0.957,-0.178 -1.913,0.082 -2.861,-0.124 -1.674,-0.295 -3.363,-0.268 -5.037,-0.305 0.082,0.099 0.165,0.196 0.25,0.293 -0.646,-0.055 -1.293,-0.125 -1.937,-0.142 -0.095,-0.57 -0.187,-1.137 -0.291,-1.703 -0.33,-0.126 -0.657,-0.26 -0.987,-0.383 0.166,0.827 0.407,1.69 1.06,2.306 0.54,0.504 0.585,1.247 0.716,1.912 -0.276,-0.692 -0.516,-1.432 -1.068,-1.979 -0.518,-0.5 -0.641,-1.219 -0.9,-1.847 -0.37942,0.58538 -10.96146,1.09849 -13.628,-0.002 -0.459,-0.782 0.301,-1.557 0.451,-2.305 -5.659,0.723 -11.311,1.285 -16.905,2.018 -1.501,0.257 -2.996,0.537 -4.475,0.877 0.094,0.462 0.178,0.942 0.039,1.401 -0.123,-0.461 -0.245,-0.914 -0.354,-1.375 -0.393,0.019 -0.788,0.033 -1.183,0.05 -0.125,-0.338 -0.264,-0.674 -0.417,-1 0.505,-0.093 1.012,-0.184 1.519,-0.272 -0.006,-1.083 -0.002,-2.162 -0.15,-3.234 -0.818,0.054 -1.635,0.13 -2.445,0.242 -0.023,1.354 0.04,2.72 -0.113,4.071 0.137,-0.003 0.273,-0.005 0.41,-0.005 -0.211,0.152 -0.423,0.309 -0.636,0.458 -0.035,-1.456 0.254,-2.901 0.079,-4.353 -0.14,0.067 -0.277,0.138 -0.418,0.206 0.123,-0.292 0.309,-0.563 0.355,-0.881 -0.083,-1.751 -0.866,-3.37 -1.1,-5.088 7.577,-0.379 15.241,-0.252 22.963,-0.383 0.333,-0.081 0.597,-0.306 0.879,-0.48 -0.008,0.149 -0.017,0.302 -0.024,0.453 0.96,-0.037 1.943,-0.431 2.912,-0.146 0.412,0.397 0.348,1.08 0.573,1.577 0.405,-0.051 0.812,-0.091 1.221,-0.129 0.037,-0.354 0.096,-0.691 0.144,-1.038 1.3,-0.153 2.602,-0.309 3.889,-0.558 -1.575,-7.647 -1.188,-15.39 -2.323,-22.936 -0.417,0.021 -0.827,0.046 -1.24,0.068 0.118,0.19 0.239,0.379 0.358,0.566 -0.274,-0.221 -0.542,-0.447 -0.809,-0.673 0.535,-0.101 1.074,-0.199 1.61,-0.298 -0.009,-1.28 -0.278,-2.584 0.037,-3.848 z m 7.897,2.902 c 0.018,0.923 0.037,1.848 0.063,2.773 1.076,-0.134 2.154,-0.263 3.221,-0.468 -0.063,0.112 -0.123,0.227 -0.183,0.34 -1.022,0.131 -2.042,0.265 -3.063,0.397 -0.057,0.719 -0.066,1.438 -0.085,2.16 0.968,-0.096 1.942,-0.104 2.921,-0.028 -0.895,0.388 -1.914,0.216 -2.867,0.275 -0.033,0.731 -0.066,1.463 -0.108,2.195 0.97,-0.089 1.936,-0.22 2.911,-0.293 0.397,-2.53 0.549,-5.087 0.757,-7.629 -1.196,0.069 -2.382,0.178 -3.567,0.278 z m -2.795,0.251 c -0.017,0.962 -0.061,1.923 -0.07,2.887 0.877,-0.155 1.762,-0.271 2.65,-0.377 -0.015,-0.866 -0.027,-1.729 -0.043,-2.594 -0.846,0.025 -1.693,0.042 -2.537,0.084 z m -4.837,0.03 -0.021,0.712 c 0.229,-0.06 0.457,-0.117 0.687,-0.176 -0.222,-0.179 -0.443,-0.359 -0.666,-0.536 z m 1.542,0.178 c -0.372,1.012 -0.071,2.108 0.044,3.155 0.978,-0.122 1.956,-0.254 2.921,-0.456 0.07,-0.925 0.06,-1.852 0.027,-2.777 -1.001,0 -1.998,0.019 -2.992,0.078 z m -0.849,0.059 c -0.152,0.1 0.022,0.363 0.179,0.26 0.155,-0.102 -0.019,-0.37 -0.179,-0.26 z m -0.705,0.623 c 0.122,0.876 0.231,1.757 0.328,2.641 0.338,-0.048 0.662,-0.099 1.004,-0.143 -0.119,-0.865 -0.203,-1.734 -0.298,-2.598 -0.34,0.035 -0.701,0.064 -1.034,0.1 z m 4.792,2.174 c 0.014,0.752 0.026,1.504 0.041,2.256 0.846,-0.126 1.693,-0.227 2.549,-0.289 0.069,-0.752 0.069,-1.507 0.082,-2.259 -0.892,0.09 -1.779,0.211 -2.672,0.292 z m -3.18,0.604 c 0.052,0.663 0.112,1.323 0.172,1.986 0.914,-0.102 1.831,-0.201 2.752,-0.271 0.007,-0.748 0,-1.494 -0.004,-2.239 -0.973,0.182 -1.949,0.351 -2.92,0.524 z m -1.165,0.339 c 0.253,2.967 0.43,5.947 0.572,8.939 0.197,0.038 0.59,0.109 0.786,0.145 -0.069,-1.544 -0.178,-3.086 -0.29,-4.622 -0.171,-0.093 -0.343,-0.185 -0.512,-0.279 0.185,-0.044 0.372,-0.084 0.559,-0.124 -0.024,-0.754 -0.047,-1.507 -0.091,-2.258 -0.281,0.198 -0.509,0.456 -0.652,0.765 -0.014,-0.144 -0.042,-0.431 -0.054,-0.574 0.25,-0.141 0.504,-0.288 0.725,-0.475 0.002,-0.646 -0.118,-1.293 -0.177,-1.936 -0.292,0.137 -0.575,0.283 -0.866,0.419 z m 4.392,1.573 c 0.012,0.729 0.029,1.458 0.045,2.188 0.792,-0.12 1.601,-0.188 2.365,-0.412 0.398,-0.589 -0.004,-1.464 0.136,-2.13 -0.848,0.126 -1.7,0.227 -2.546,0.354 z m -3.044,0.366 c 0.011,0.727 0.027,1.455 0.041,2.185 0.915,-0.101 1.832,-0.201 2.747,-0.312 0.008,-0.74 0.004,-1.479 0.004,-2.217 -0.932,0.126 -1.866,0.215 -2.792,0.344 z m 5.773,1.703 c -0.036,0.64 -0.074,1.278 -0.117,1.917 0.877,-0.128 1.755,-0.251 2.637,-0.372 0.047,0.066 0.148,0.197 0.197,0.264 -0.945,0.159 -1.895,0.289 -2.845,0.407 0.05,1.003 0.105,2.009 0.211,3.014 0.837,-0.086 1.679,-0.14 2.52,-0.21 0.076,-1.773 0.251,-3.534 0.32,-5.299 -0.974,0.108 -1.954,0.157 -2.923,0.279 z m -2.653,0.369 c 0.064,0.682 0.102,1.368 0.157,2.053 0.716,-0.13 1.435,-0.253 2.151,-0.387 0.075,-0.666 0.086,-1.34 0.097,-2.009 -0.801,0.115 -1.605,0.223 -2.405,0.343 z m -3.077,0.376 c 0.025,0.715 0.063,1.434 0.09,2.15 0.945,-0.148 1.89,-0.292 2.837,-0.432 -0.029,-0.688 -0.06,-1.375 -0.105,-2.063 -0.941,0.125 -1.883,0.23 -2.822,0.345 z m 3.242,1.941 c 0.124,0.886 0.239,1.771 0.341,2.66 0.656,-0.038 1.314,-0.074 1.972,-0.107 -0.091,-0.987 -0.175,-1.976 -0.228,-2.963 -0.697,0.137 -1.391,0.273 -2.085,0.41 z m -3.059,0.488 c 0.009,0.766 0.023,1.534 0.034,2.304 1.029,-0.018 2.058,-0.043 3.085,-0.112 -0.08,-0.895 -0.18,-1.788 -0.322,-2.676 -0.93,0.18 -1.864,0.334 -2.797,0.484 z m 5.644,2.233 c 0.012,0.724 0.027,1.449 0.043,2.173 0.72,-0.075 1.439,-0.156 2.162,-0.232 0.108,-0.685 0.197,-1.371 0.242,-2.063 -0.814,0.063 -1.633,0.095 -2.447,0.122 z m -6.652,0.062 c 0.103,1.055 0.182,2.115 0.294,3.175 0.203,-0.039 0.409,-0.08 0.615,-0.117 -0.071,-0.956 -0.123,-1.911 -0.184,-2.863 -0.242,-0.067 -0.484,-0.13 -0.725,-0.195 z m 4.371,0.132 c 0.027,0.762 0.06,1.524 0.103,2.287 0.647,-0.08 1.297,-0.165 1.95,-0.218 -0.014,-0.727 -0.025,-1.453 -0.037,-2.177 -0.675,0.029 -1.347,0.064 -2.016,0.108 z m -3.329,0.138 c 0.034,0.882 0.074,1.769 0.124,2.655 1.046,-0.155 2.091,-0.333 3.141,-0.485 -0.053,-0.762 -0.115,-1.522 -0.188,-2.281 -1.026,0.062 -2.053,0.087 -3.077,0.111 z m 5.628,2.119 c -0.023,0.673 0.031,1.344 0.077,2.017 0.396,0.038 1.187,0.114 1.582,0.152 -0.275,0.181 -0.56,0.347 -0.853,0.497 0.062,-0.123 0.127,-0.247 0.189,-0.37 -0.227,0.005 -0.684,0.015 -0.91,0.018 0.01,0.746 0.02,1.491 0.031,2.238 0.442,0.018 0.869,0.046 1.313,0.086 -0.411,0.151 -0.85,0.214 -1.292,0.216 -0.061,0.865 -0.032,1.735 0.049,2.604 0.262,0.046 0.783,0.143 1.044,0.191 -0.33,0.092 -0.701,0.117 -1.028,0.188 0.053,0.584 0.096,1.171 0.113,1.758 0.322,0.005 0.646,0.006 0.97,0.008 0.37,-3.286 0.605,-6.576 0.896,-9.848 -0.728,0.08 -1.454,0.166 -2.181,0.245 z m -2.197,0.27 c 0.055,0.67 0.104,1.344 0.15,2.017 0.616,-0.046 1.233,-0.097 1.854,-0.132 -0.014,-0.691 -0.029,-1.382 -0.042,-2.073 -0.656,0.057 -1.311,0.119 -1.962,0.188 z m -3.245,0.559 c 0.061,0.601 0.127,1.198 0.192,1.797 0.99,-0.106 1.983,-0.209 2.979,-0.293 -0.059,-0.672 -0.088,-1.347 -0.123,-2.018 -1.028,0.12 -2.044,0.292 -3.048,0.514 z m -0.94,0.113 c 0.348,2.347 0.344,4.765 1.053,7.075 0.3,-0.946 0.243,-2.074 -0.434,-2.882 0.144,0.018 0.286,0.036 0.431,0.052 -0.128,-1.416 -0.439,-2.813 -0.335,-4.231 z m 4.382,1.61 c 0.068,0.735 0.094,1.472 0.138,2.21 0.573,-0.039 1.147,-0.078 1.724,-0.121 -0.013,-0.762 -0.024,-1.526 -0.035,-2.289 -0.608,0.077 -1.22,0.133 -1.827,0.2 z m -3.262,0.356 c 0.061,0.774 0.127,1.547 0.2,2.321 0.978,-0.094 1.949,-0.226 2.92,-0.368 -0.028,-0.758 -0.058,-1.514 -0.094,-2.27 -1.012,0.097 -2.02,0.199 -3.026,0.317 z m 3.366,2.114 c 0.059,0.895 0.122,1.791 0.206,2.687 0.521,-0.063 1.044,-0.107 1.568,-0.149 0.006,-0.891 0.005,-1.781 -0.002,-2.672 -0.591,0.045 -1.181,0.093 -1.772,0.134 z m -3.139,0.506 c 0.08,0.769 0.114,1.537 0.16,2.311 0.905,-0.027 1.814,-0.05 2.721,-0.095 -0.021,-0.322 -0.042,-0.645 -0.06,-0.965 0.06,0.182 0.18,0.544 0.241,0.724 -0.034,-0.8 -0.05,-1.6 -0.12,-2.397 -0.982,0.134 -1.959,0.296 -2.942,0.422 z m 3.369,2.468 c 0.064,0.54 0.12,1.077 0.174,1.62 0.49,0.033 0.98,0.036 1.475,0.018 0.007,-0.61 0.007,-1.222 -0.007,-1.833 -0.545,0.073 -1.097,0.129 -1.642,0.195 z m -3.151,0.073 c 0.179,0.341 0.086,0.698 -0.031,1.029 0.22,0.103 0.442,0.203 0.664,0.302 -0.198,0.07 -0.394,0.14 -0.588,0.215 1.005,0.034 2.013,0.055 3.022,0.075 -0.113,-0.565 -0.235,-1.131 -0.349,-1.694 -0.905,0.059 -1.811,0.088 -2.718,0.073 z m -0.543,0.038 c -0.155,0.1 0.021,0.371 0.18,0.27 0.158,-0.103 -0.019,-0.379 -0.18,-0.27 z m -3.882,1.188 c -0.033,1.132 -0.551,2.147 -0.804,3.232 0.779,0.041 1.56,0.081 2.341,0.133 -0.809,0.086 -1.625,0.121 -2.437,0.169 0.021,0.734 0.047,1.47 0.051,2.205 0.975,-0.118 1.948,-0.254 2.906,-0.465 -0.015,-1.031 -0.423,-2.203 0.14,-3.127 0.021,0.414 0.015,0.828 0,1.245 0.584,-0.087 1.19,-0.094 1.751,-0.277 0.179,-1.21 -0.135,-2.461 -0.242,-3.68 -1.232,0.209 -2.472,0.377 -3.706,0.565 z m -5.161,-0.264 c 0.041,0.456 0.071,0.91 0.102,1.369 0.551,-0.013 1.104,-0.023 1.657,-0.031 -0.047,-0.497 -0.093,-0.995 -0.126,-1.492 -0.544,0.055 -1.09,0.102 -1.633,0.154 z m 1.92,-0.167 c 0.005,0.357 0.015,1.072 0.021,1.429 0.334,0.006 1.002,0.015 1.336,0.02 -0.106,-0.475 -0.211,-0.949 -0.313,-1.42 -0.35,-0.013 -0.696,-0.021 -1.044,-0.029 z m -4.18,0.24 c 0.024,0.507 0.042,1.016 0.077,1.523 0.667,-0.039 1.331,-0.072 1.998,-0.114 -0.009,-0.529 -0.015,-1.059 -0.019,-1.587 -0.688,0.051 -1.373,0.103 -2.056,0.178 z m -8.716,-0.008 c 0.027,0.72 0.055,1.44 0.103,2.161 0.71,-0.03 1.418,-0.061 2.127,-0.102 -0.198,-0.606 -0.386,-1.216 -0.557,-1.831 0.089,0.012 0.269,0.033 0.358,0.043 0.148,0.599 0.316,1.191 0.475,1.788 0.915,-0.081 1.83,-0.165 2.747,-0.238 -0.102,-0.642 -0.211,-1.28 -0.31,-1.919 -1.645,0.12 -3.298,0.069 -4.943,0.098 z m 5.278,-0.103 c 0.1,0.643 0.18,1.289 0.262,1.937 0.978,-0.127 1.963,-0.198 2.951,-0.27 -0.024,-0.533 -0.063,-1.069 -0.103,-1.602 -1.038,-0.021 -2.075,-0.047 -3.11,-0.065 z m -17.544,0.509 c 0.198,1.677 0.659,3.317 0.854,5.003 0.846,-0.108 1.698,-0.202 2.554,-0.248 -0.019,-0.622 -0.042,-1.244 -0.063,-1.864 -0.882,0.126 -1.776,0.402 -2.669,0.089 0.812,-0.351 1.735,-0.264 2.597,-0.378 -0.093,-0.968 -0.192,-1.959 0.154,-2.885 0.029,0.956 0.041,1.914 0.086,2.872 0.904,-0.134 1.815,-0.236 2.727,-0.336 -0.127,-0.86 -0.212,-1.726 -0.29,-2.589 -1.997,-0.058 -3.993,0.014 -5.95,0.336 z m 6.221,-0.424 c 0.061,0.887 0.119,1.777 0.274,2.656 0.997,-0.131 2.002,-0.216 3.007,-0.302 -0.121,-0.766 -0.204,-1.534 -0.288,-2.302 -0.999,-0.018 -1.996,-0.039 -2.993,-0.052 z m 3.346,0.314 c -0.013,0.685 0.127,1.36 0.226,2.04 0.769,-0.058 1.536,-0.091 2.305,-0.13 -0.05,-0.702 -0.126,-1.403 -0.188,-2.104 -0.754,0.082 -1.68,-0.258 -2.343,0.194 z m 22.986,0.641 c -0.14,0.116 -0.136,0.385 0.01,0.508 0.227,0 0.217,-0.5 -0.01,-0.508 z m 0.377,-0.137 c 0.086,0.79 0.139,1.581 0.194,2.375 0.574,-0.12 1.149,-0.245 1.722,-0.37 0.094,0.962 0.135,1.93 0.072,2.893 0.928,-0.162 1.844,-0.388 2.783,-0.502 0.536,-0.087 1.439,0.042 1.158,-0.88 -1.102,0.521 -2.362,0.331 -3.557,0.339 0.676,-0.243 1.401,-0.316 2.115,-0.428 -0.372,-1.117 -0.744,-2.229 -1.178,-3.322 -1.104,-0.06 -2.208,-0.082 -3.309,-0.105 z m 24.088,1.717 c -2.993,0.197 -5.947,0.594 -8.91,0.879 -2.932,0.264 -5.84,0.602 -8.742,0.947 -0.023,0.153 -0.046,0.309 -0.068,0.462 -0.092,-0.069 -0.185,-0.137 -0.279,-0.207 0.021,0.094 0.058,0.28 0.078,0.375 2.579,-0.417 5.203,-0.638 7.779,-1.123 1.461,0.016 2.877,-0.308 4.338,-0.327 4.939,-0.333 9.892,-0.823 14.922,-0.763 0.004,-0.387 -0.016,-0.787 0.006,-1.171 -3.007,0.549 -6.094,0.618 -9.124,0.928 z m -30.231,-1.143 c 0.155,0.709 0.306,1.421 0.489,2.129 0.317,-0.727 0.512,-1.503 0.712,-2.269 -0.403,0.043 -0.8,0.094 -1.201,0.14 z m -1.467,0.101 c 0.009,0.686 0.017,1.374 0.024,2.063 0.541,0.008 1.081,0.017 1.624,0.025 -0.132,-0.716 -0.269,-1.43 -0.395,-2.146 -0.416,0.025 -0.837,0.038 -1.253,0.058 z m -1.839,0.227 c 0.013,0.648 0.109,1.299 0.16,1.949 0.476,-0.043 0.958,-0.087 1.437,-0.13 -0.005,-0.494 -0.019,-1.481 -0.025,-1.975 -0.511,0.089 -1.09,-0.054 -1.572,0.156 z m 9.301,1.643 c -0.014,-0.565 -0.044,-1.134 -0.071,-1.694 0.014,0.564 0.041,1.127 0.071,1.694 z m -11.714,-1.546 c 0.025,0.678 0.052,1.358 0.085,2.04 0.734,-0.056 1.467,-0.132 2.201,-0.207 -0.063,-0.655 -0.137,-1.311 -0.182,-1.964 -0.703,0.049 -1.403,0.087 -2.104,0.131 z m -3.234,0.253 c 0.053,0.665 0.083,1.33 0.119,1.999 0.987,-0.087 1.973,-0.18 2.965,-0.227 -0.047,-0.676 -0.085,-1.353 -0.121,-2.025 -0.987,0.094 -1.975,0.177 -2.963,0.253 z m -3.043,0.244 c 0.119,0.642 0.231,1.288 0.325,1.934 0.854,-0.05 1.71,-0.1 2.563,-0.181 -0.039,-0.655 -0.087,-1.309 -0.143,-1.961 -0.917,0.05 -1.832,0.13 -2.745,0.208 z m 46.152,0.856 c -0.161,0.785 -0.317,1.572 -0.483,2.359 0.911,-0.066 1.814,-0.175 2.724,-0.258 0.077,-0.737 0.155,-1.475 0.229,-2.211 -0.825,0.047 -1.65,0.08 -2.47,0.11 z m 2.807,-0.085 c -0.136,0.739 -0.271,1.477 -0.393,2.221 0.732,-0.065 1.467,-0.091 2.206,-0.123 0.159,-0.668 0.292,-1.343 0.403,-2.021 -0.739,-0.079 -1.481,-0.066 -2.216,-0.077 z m -51.353,-0.657 c 0.086,0.678 0.167,1.356 0.259,2.036 0.715,-0.07 1.433,-0.139 2.148,-0.203 -0.089,-0.651 -0.189,-1.302 -0.303,-1.949 -0.702,0.032 -1.404,0.073 -2.104,0.116 z m 44.31,0.916 c 0.213,0.821 0.244,1.66 0.316,2.495 1.043,-0.129 2.1,-0.208 3.148,-0.321 0.179,-0.783 0.336,-1.57 0.445,-2.368 -1.301,0.093 -2.602,0.185 -3.909,0.194 z m -46.945,-0.812 c 0.05,0.718 0.104,1.438 0.16,2.155 0.824,-0.079 1.647,-0.153 2.473,-0.223 -0.097,-0.681 -0.189,-1.358 -0.282,-2.037 -0.781,0.079 -1.568,0.088 -2.351,0.105 z m -3.248,0.323 c 0.122,0.672 0.234,1.344 0.342,2.02 0.941,0.007 1.881,-0.033 2.809,-0.174 -0.058,-0.697 -0.131,-1.394 -0.176,-2.092 -0.993,0.059 -1.984,0.155 -2.975,0.246 z m 47.104,0.706 c 0.1,0.833 0.168,1.672 0.232,2.51 0.957,-0.059 1.911,-0.147 2.866,-0.244 -0.079,-0.795 -0.168,-1.587 -0.239,-2.378 -0.955,0.034 -1.906,0.077 -2.859,0.112 z m -20.528,-0.086 c 0.07,0.273 0.135,0.546 0.19,0.824 0.396,0.207 0.762,0.466 1.124,0.725 -0.377,0.556 -0.772,1.283 -1.534,1.35 -0.628,0.032 -1.264,-0.036 -1.892,0.02 0.063,0.311 0.127,0.621 0.188,0.934 0.328,-0.005 0.659,-0.009 0.99,-0.014 0.162,-0.215 0.321,-0.43 0.485,-0.644 0.104,0.192 0.208,0.387 0.313,0.58 0.677,-0.084 1.354,-0.173 2.029,-0.265 -0.128,-0.444 -0.32,-0.895 -0.801,-1.072 0.792,-0.667 0.426,-1.849 0.386,-2.747 -0.492,0.098 -0.985,0.204 -1.478,0.309 z m 17.078,0.41 c -0.014,0.867 0.117,1.736 0.217,2.604 1.058,-0.104 2.117,-0.216 3.176,-0.325 -0.08,-0.835 -0.146,-1.67 -0.234,-2.503 -1.059,0.037 -2.11,0.136 -3.159,0.224 z m -46.607,-0.68 c 0.049,0.675 0.083,1.351 0.119,2.027 0.979,-0.068 1.961,-0.132 2.935,-0.256 -0.116,-0.681 -0.224,-1.359 -0.357,-2.034 -0.902,0.076 -1.799,0.185 -2.697,0.263 z m 29.155,0.291 c 0.015,0.362 0.06,0.727 0.167,1.078 -0.033,-0.36 -0.086,-0.721 -0.167,-1.078 z m 14.208,0.739 c 0.024,0.83 0.035,1.662 0.063,2.496 1.032,-0.064 2.063,-0.154 3.095,-0.237 -0.116,-0.872 -0.214,-1.746 -0.253,-2.62 -0.965,0.147 -1.934,0.257 -2.905,0.361 z m -16.304,-0.312 c 0.097,0.639 0.171,1.281 0.249,1.924 0.122,-0.084 0.245,-0.167 0.368,-0.246 -0.072,0.182 -0.144,0.365 -0.216,0.549 0.338,0.005 0.674,0.013 1.012,0.021 -0.193,-0.544 -0.317,-1.172 0.099,-1.63 0.106,-0.229 0.556,-0.692 0.121,-0.802 -0.557,-0.02 -1.097,0.085 -1.633,0.184 z m -6.882,0.019 c 0.133,0.785 0.32,1.563 0.486,2.345 0.319,-0.048 0.64,-0.097 0.96,-0.14 0.004,-0.779 -0.021,-1.562 -0.105,-2.342 -0.447,0.047 -0.895,0.092 -1.341,0.137 z m 1.605,-0.127 c 0.025,0.771 0.053,1.542 0.09,2.314 0.382,-0.026 0.754,-0.063 1.141,-0.081 0.209,-0.726 0.419,-1.45 0.556,-2.195 -0.597,-0.014 -1.194,-0.026 -1.787,-0.038 z m 18.581,0.759 c 0.062,0.811 0.115,1.623 0.193,2.436 0.859,-0.076 1.727,-0.143 2.594,-0.197 -0.021,-0.864 -0.039,-1.728 -0.061,-2.589 -0.905,0.135 -1.816,0.244 -2.726,0.35 z m -22.778,-0.463 c 0.098,0.792 0.188,1.587 0.274,2.382 0.832,-0.052 1.66,-0.138 2.488,-0.232 -0.173,-0.781 -0.319,-1.567 -0.45,-2.354 -0.772,0.061 -1.543,0.13 -2.312,0.204 z m -3.148,0.229 c 0.031,0.824 0.063,1.648 0.109,2.474 0.992,-0.085 1.981,-0.199 2.974,-0.291 -0.054,-0.805 -0.089,-1.611 -0.131,-2.415 -0.99,0.043 -1.973,0.128 -2.952,0.232 z m 23.627,0.569 c -0.051,0.742 -0.076,1.487 -0.098,2.234 0.764,-0.05 1.527,-0.103 2.293,-0.153 -0.057,-0.806 -0.108,-1.609 -0.162,-2.409 -0.677,0.112 -1.355,0.22 -2.033,0.328 z m -26.441,-0.433 c 0.106,0.897 0.269,1.793 0.506,2.675 0.716,-0.105 1.435,-0.193 2.157,-0.269 -0.043,-0.851 -0.093,-1.702 -0.162,-2.55 -0.832,0.061 -1.67,0.098 -2.501,0.144 z m 18.235,0.127 c -0.061,0.149 -0.124,0.302 -0.183,0.454 -0.271,-0.147 -0.577,-0.322 -0.881,-0.178 -0.192,0.358 -0.338,1.087 0.237,1.196 0.735,0.212 1.109,-0.597 1.523,-1.015 -0.231,-0.153 -0.463,-0.305 -0.696,-0.457 z m 5.626,0.682 c 0.1,0.653 0.211,1.304 0.326,1.957 0.63,-0.026 1.263,-0.057 1.896,-0.09 0.026,-0.752 0.063,-1.501 0.096,-2.248 -0.771,0.139 -1.543,0.269 -2.318,0.381 z m -26.394,-0.647 c 0.154,0.933 0.369,1.855 0.527,2.789 0.745,-0.096 1.493,-0.178 2.239,-0.282 -0.207,-0.87 -0.378,-1.745 -0.552,-2.616 -0.74,0.031 -1.476,0.075 -2.214,0.109 z m 50.681,1.034 c -0.271,0.822 -0.36,1.691 -0.469,2.555 0.746,0.015 1.495,0.028 2.246,0.044 0.161,-0.933 0.299,-1.87 0.363,-2.82 -0.703,0.083 -1.506,-0.104 -2.14,0.221 z m -36.491,0.263 c 0.164,0 0.328,10e-4 0.493,0.003 -0.025,-0.372 -0.038,-0.746 -0.066,-1.117 -0.163,0.362 -0.296,0.737 -0.427,1.114 z m 33.615,-0.136 c -0.129,0.788 -0.235,1.582 -0.346,2.376 0.817,0.014 1.635,0.024 2.456,0.037 0.159,-0.884 0.341,-1.766 0.508,-2.648 -0.876,0.072 -1.747,0.154 -2.618,0.235 z m -50.548,-0.836 c 0.033,0.951 0.071,1.904 0.158,2.857 0.928,-0.091 1.85,-0.225 2.772,-0.364 -0.169,-0.907 -0.329,-1.813 -0.446,-2.726 -0.833,0.05 -1.66,0.139 -2.484,0.233 z m 25.514,1.245 c 0.158,0.386 0.32,0.771 0.469,1.164 -0.925,0.299 -1.827,0.666 -2.771,0.898 0.044,0.497 0.089,0.99 0.122,1.489 1.502,-0.231 3.013,-0.46 4.495,-0.794 0.328,-0.052 0.537,-0.346 0.58,-0.672 0.273,0.415 0.691,0.479 1.126,0.301 -0.243,-1.082 -0.507,-2.158 -0.714,-3.244 -1.139,0.157 -2.318,0.266 -3.307,0.858 z m 21.582,-0.066 c 0.013,0.493 0.039,1.477 0.053,1.97 0.926,0.019 1.855,0.038 2.785,0.057 0.135,-0.789 0.254,-1.582 0.322,-2.383 -1.052,0.124 -2.109,0.228 -3.16,0.356 z m -50.111,-0.931 c 0.161,0.982 0.382,1.958 0.598,2.934 0.726,-0.071 1.453,-0.151 2.182,-0.225 -0.004,-0.988 -0.008,-1.976 -0.017,-2.961 -0.917,0.121 -1.839,0.202 -2.763,0.252 z m 46.962,1.151 c -0.029,0.609 -0.065,1.216 -0.099,1.824 1.006,-0.033 2.015,-0.074 3.024,-0.102 -0.017,-0.496 -0.048,-1.486 -0.062,-1.979 -0.95,0.116 -1.905,0.205 -2.863,0.257 z m -50.194,-0.871 c 0.066,1.018 0.125,2.036 0.159,3.056 1.115,-0.124 2.236,-0.188 3.358,-0.292 -0.193,-0.993 -0.381,-1.987 -0.545,-2.983 -0.992,0.053 -1.983,0.131 -2.972,0.219 z m 21.866,0.841 c 10e-4,0.093 10e-4,0.279 0.003,0.371 1.645,-0.135 3.275,-0.368 4.915,-0.579 0.009,-0.087 0.029,-0.257 0.04,-0.342 -1.629,0.327 -3.295,0.474 -4.958,0.55 z m 9.671,-0.489 c -0.254,0.07 -0.113,0.455 0.124,0.289 0.259,-0.074 0.122,-0.439 -0.124,-0.289 z m 15.238,0.843 c -0.033,0.474 -0.072,0.947 -0.111,1.422 1.05,0.024 2.102,0.043 3.154,0.063 0.038,-0.574 0.067,-1.149 0.102,-1.72 -1.049,0.089 -2.097,0.172 -3.145,0.235 z m -15.27,-0.371 c 0.016,0.447 -0.082,0.884 -0.465,1.153 0.271,-0.076 0.543,-0.15 0.816,-0.224 -0.108,-0.312 -0.227,-0.623 -0.351,-0.929 z m -9.235,0.655 c -0.565,0.447 -0.799,1.191 -0.961,1.88 1.457,0.159 2.884,0.573 4.353,0.679 0.135,-0.356 0.288,-0.71 0.499,-1.029 0.033,0.354 0.021,0.708 -0.021,1.059 0.807,0.143 1.625,0.183 2.442,0.196 -0.134,-0.709 -0.278,-1.413 -0.414,-2.119 -0.356,-0.082 -0.687,-0.145 -1.037,-0.221 -0.077,-0.338 -0.169,-0.689 -0.239,-1.021 -1.546,0.176 -3.1,0.311 -4.622,0.576 z m 21.048,0.048 c -0.002,0.427 0.004,0.857 0.023,1.285 1.008,-0.068 2.018,-0.118 3.027,-0.19 0.035,-0.449 0.084,-0.896 0.121,-1.346 -1.06,0.061 -2.112,0.177 -3.171,0.251 z m -23.207,-0.431 c -0.852,-0.015 -1.758,-0.023 -2.527,0.356 -0.984,-0.375 -2.018,0.064 -3.006,0.133 -0.006,0.168 -0.011,0.335 -0.014,0.503 2.391,-0.245 4.807,-0.431 7.17,-0.906 -0.504,-0.331 -1.077,-0.049 -1.623,-0.086 z m 20.367,0.616 c -0.047,0.402 -0.107,0.793 -0.146,1.199 0.871,-0.021 1.742,-0.056 2.61,-0.104 0.037,-0.403 0.084,-0.803 0.13,-1.201 -0.865,0.033 -1.732,0.068 -2.594,0.106 z m -2.579,0.215 c 0.013,0.382 0.007,0.756 0.018,1.145 0.726,-0.038 1.45,-0.059 2.179,-0.079 -0.007,-0.394 -0.028,-0.8 -0.025,-1.188 -0.726,0.043 -1.448,0.083 -2.172,0.122 z m -2.052,0.108 c 0.054,0.291 0.112,0.585 0.175,0.874 0.472,-0.01 0.938,-0.022 1.413,-0.018 -0.43,0.16 -0.869,0.295 -1.303,0.439 0.507,-0.07 1.014,-0.147 1.522,-0.227 -0.01,-0.386 -0.026,-0.78 -0.028,-1.164 -0.591,0.043 -1.187,0.068 -1.779,0.096 z m -23.742,0.381 c 0.757,-0.181 1.951,0.099 2.154,-0.834 -0.758,0.182 -1.949,-0.099 -2.154,0.834 z m 18.053,-0.506 c -0.057,0.184 0.267,0.258 0.325,0.093 0.058,-0.186 -0.266,-0.26 -0.325,-0.093 z m -1.59,0.236 c 0.057,0.596 0.122,1.192 0.184,1.792 0.191,0.106 0.386,0.213 0.582,0.317 -0.097,-0.537 -0.14,-1.097 -0.433,-1.58 0.047,-0.224 0.089,-0.447 0.131,-0.671 -0.156,0.046 -0.311,0.093 -0.464,0.142 z m 0.812,-0.116 c -0.042,0.236 0.455,0.247 0.405,0.009 -0.081,-0.141 -0.33,-0.146 -0.405,-0.009 z m -21.152,0.308 c -0.853,-0.004 -1.632,0.51 -2.488,0.337 -0.748,-0.064 -1.421,0.274 -2.135,0.396 -1.144,-0.015 -2.286,0.061 -3.416,0.208 0.022,0.273 0.047,0.545 0.071,0.817 3.846,-0.779 7.769,-1.229 11.703,-1.687 -0.057,-0.18 -0.113,-0.357 -0.169,-0.535 -1.194,0.141 -2.363,0.416 -3.566,0.464 z m 41.92,0.624 c 0.125,0.868 0.24,1.739 0.371,2.609 0.985,0.093 1.975,0.189 2.965,0.252 -0.117,-0.975 -0.205,-1.947 -0.284,-2.919 -1.021,-0.008 -2.037,0.028 -3.052,0.058 z m 3.267,-0.072 c 0.083,0.672 0.151,1.342 0.225,2.016 0.126,-0.082 0.251,-0.163 0.378,-0.244 -0.033,0.389 -0.08,0.766 -0.103,1.16 0.634,0.069 1.271,0.146 1.907,0.204 0.076,-1.037 0.203,-2.063 0.345,-3.085 -0.919,-0.02 -1.837,-0.037 -2.752,-0.051 z m 3.03,0.06 c -0.178,1.003 -0.273,2.021 -0.318,3.048 0.93,0.086 1.859,0.175 2.795,0.233 -0.021,-1.082 -0.031,-2.161 -0.012,-3.238 -0.824,-0.014 -1.647,-0.031 -2.465,-0.043 z m 2.748,0.05 c -0.081,1.097 -0.016,2.207 0.017,3.312 0.55,0.021 1.096,0.05 1.648,0.071 0.235,-1.104 0.45,-2.212 0.616,-3.33 -0.761,-0.019 -1.524,-0.036 -2.281,-0.053 z m -15.832,10e-4 c 0.064,0.771 0.134,1.543 0.213,2.315 1.01,0.046 2.021,0.099 3.036,0.174 -0.059,-0.866 -0.106,-1.731 -0.214,-2.592 -1.012,0.044 -2.023,0.082 -3.035,0.103 z m 3.296,-0.12 c 0.102,0.876 0.185,1.752 0.276,2.631 1.109,0.065 2.219,0.087 3.334,0.122 -0.174,-0.895 -0.321,-1.789 -0.467,-2.685 -1.05,-0.023 -2.097,-0.05 -3.143,-0.068 z m -6.218,0.296 c -0.021,0.639 0.189,1.362 -0.219,1.912 -0.067,-0.61 -0.103,-1.223 -0.146,-1.83 -0.763,0.023 -1.523,0.049 -2.283,0.085 0.018,0.573 0.029,1.144 0.043,1.719 1.805,0.192 3.616,0.18 5.432,0.263 -0.084,-0.753 -0.134,-1.512 -0.185,-2.265 -0.882,0.047 -1.763,0.078 -2.642,0.116 z m -4.203,0.537 c -0.149,0.843 0.526,1.171 1.187,1.371 0.062,-0.546 0.104,-1.097 0.128,-1.648 -0.442,0.081 -0.88,0.176 -1.315,0.277 z m -6.71,0.834 c 0.021,1.265 0.339,2.521 0.324,3.79 0.084,2.394 0.448,4.781 0.743,7.179 0.097,0.915 0.396,1.809 0.44,2.729 0.352,2.789 0.984,5.559 1.512,8.348 0.158,1.268 0.554,2.616 0.102,3.843 -0.208,0.653 -0.928,0.89 -1.438,1.26 -0.033,0.389 -0.101,1.166 -0.133,1.555 -0.133,-0.451 -0.24,-0.906 -0.35,-1.36 -1.421,-0.148 -2.84,-0.183 -4.256,-0.187 -1.565,-0.03 -3.138,-0.18 -4.683,0.007 -0.144,-0.681 -0.282,-1.361 -0.363,-2.049 0.11,0.152 0.219,0.305 0.329,0.458 -0.209,-1.683 -0.043,-3.354 -0.126,-5.03 -0.151,-0.097 -0.299,-0.191 -0.448,-0.289 0.177,-0.267 0.417,-0.541 0.368,-0.892 -0.183,-1.844 0.15,-3.663 0.042,-5.499 -0.17,-0.018 -0.339,-0.036 -0.508,-0.055 0.167,-0.229 0.428,-0.415 0.475,-0.71 0.09,-1.298 0.002,-2.613 -0.238,-3.901 -0.085,-0.688 0.175,-1.349 0.219,-2.024 0.042,-0.977 0.193,-1.942 0.163,-2.922 0.03,-1.355 -0.174,-2.772 0.36,-4.04 0.032,1.089 -0.085,2.171 -0.115,3.263 0.637,-0.042 1.275,-0.091 1.914,-0.122 -0.061,-0.987 -0.125,-1.973 -0.235,-2.954 -0.436,0.202 -0.854,0.433 -1.27,0.672 0.196,-0.297 0.404,-0.607 0.739,-0.768 0.814,-0.525 1.867,-0.175 2.767,-0.459 -1.22,-0.222 -2.438,-0.439 -3.646,-0.704 -0.236,0.394 -0.536,0.749 -0.936,0.993 0.15,-0.279 0.308,-0.554 0.457,-0.829 0.43629,0.0401 12.73547,0.54718 12.771,-0.187 -1.676,0.228 -3.314,0.629 -4.98,0.884 z m -29.457,-1.182 c -0.45,0.071 -0.898,0.146 -1.347,0.219 0.106,0.21 0.212,0.422 0.315,0.634 0.504,-0.084 1.29,0.013 1.032,-0.853 z m 26.125,0.961 c -0.042,0.235 0.454,0.247 0.405,0.01 -0.08,-0.143 -0.329,-0.148 -0.405,-0.01 z m 2.735,-0.053 c -0.011,1.073 0.052,2.151 0.159,3.228 0.089,0.009 0.268,0.027 0.357,0.038 -0.132,-1.091 0.005,-2.252 -0.516,-3.266 z m -2.804,0.413 c 0.117,1.007 0.222,2.017 0.332,3.025 0.784,-0.003 1.567,-0.022 2.351,-0.058 -0.037,-1.06 -0.06,-2.117 -0.201,-3.169 -0.829,0.064 -1.655,0.134 -2.482,0.202 z m -2.176,0.262 c 0.066,0.978 0.121,1.955 0.174,2.936 0.704,-0.053 1.409,-0.049 2.117,-0.058 -0.187,-1.052 -0.287,-2.106 -0.347,-3.163 -0.648,0.099 -1.295,0.201 -1.944,0.285 z m 5.142,2.839 c 0.069,0.666 0.136,1.333 0.19,2.001 0.107,-0.061 0.216,-0.123 0.324,-0.184 -0.059,-0.602 -0.096,-1.204 -0.136,-1.803 -0.093,-0.003 -0.282,-0.009 -0.378,-0.014 z m -2.563,0.223 c 0.013,0.703 0.025,1.405 0.04,2.111 0.799,-0.081 1.595,-0.178 2.393,-0.277 -0.033,-0.64 -0.076,-1.272 -0.125,-1.906 -0.769,0.045 -1.54,0.055 -2.308,0.072 z m -2.295,0.169 c 0.06,0.796 0.128,1.593 0.199,2.39 0.65,-0.117 1.301,-0.224 1.955,-0.336 -0.056,-0.714 -0.1,-1.427 -0.144,-2.137 -0.672,0.02 -1.343,0.047 -2.01,0.083 z m -2.103,0.227 c -0.523,0.756 -0.137,1.814 -0.258,2.66 0.76,-0.14 1.532,-0.251 2.253,-0.524 0.031,-0.793 -0.141,-1.587 -0.179,-2.378 -0.605,0.065 -1.26,0.035 -1.816,0.242 z m 4.577,1.987 c 0.014,0.929 0.029,1.858 0.043,2.792 0.814,-0.019 1.629,-0.054 2.443,-0.089 -0.049,-1.012 -0.117,-2.02 -0.199,-3.025 -0.761,0.114 -1.523,0.221 -2.287,0.322 z m 2.564,-0.353 c 0.084,1.016 0.142,2.03 0.201,3.048 0.174,0.005 0.351,0.01 0.527,0.014 -0.138,-1.016 -0.274,-2.03 -0.368,-3.047 -0.091,-0.002 -0.27,-0.01 -0.36,-0.015 z m -4.856,0.808 c 0.063,0.801 0.136,1.6 0.202,2.402 0.619,-0.038 1.241,-0.071 1.862,-0.111 -0.015,-0.892 -0.032,-1.78 -0.048,-2.67 -0.673,0.126 -1.346,0.247 -2.016,0.379 z m -2.533,0.499 c -0.064,0.647 -0.101,1.297 -0.141,1.949 0.863,-0.03 1.729,-0.059 2.596,-0.086 -0.047,-0.785 -0.093,-1.567 -0.157,-2.346 -0.764,0.172 -1.529,0.339 -2.298,0.483 z m 4.85,2.1 c 0.058,0.657 0.122,1.315 0.188,1.976 0.854,-0.075 1.707,-0.162 2.563,-0.231 -0.071,-0.599 -0.138,-1.197 -0.193,-1.797 -0.851,0.05 -1.706,0.044 -2.558,0.052 z m 2.852,-0.106 c 0.033,0.575 0.065,1.149 0.097,1.729 0.198,-0.028 0.395,-0.059 0.593,-0.092 -0.082,-0.512 -0.149,-1.028 -0.21,-1.542 -0.161,-0.033 -0.321,-0.065 -0.48,-0.095 z m -4.95,0.095 c -0.012,0.77 -0.009,1.542 -0.008,2.314 0.667,-0.088 1.335,-0.163 2.003,-0.239 -0.065,-0.687 -0.118,-1.377 -0.169,-2.063 -0.609,0.009 -1.218,0.004 -1.826,-0.012 z m -2.854,0.125 c 0.008,0.82 0.009,1.638 0.021,2.461 0.854,-0.097 1.711,-0.168 2.565,-0.277 -0.011,-0.759 -0.025,-1.519 -0.034,-2.274 -0.852,0.031 -1.703,0.057 -2.552,0.09 z m 7.983,1.801 c 0.107,0.759 0.198,1.523 0.313,2.286 0.178,-0.052 0.355,-0.103 0.536,-0.15 -0.122,-0.705 -0.219,-1.412 -0.32,-2.116 -0.177,-0.01 -0.353,-0.015 -0.529,-0.02 z m -2.828,0.34 c 0.006,0.494 0.02,1.484 0.026,1.981 0.948,-0.056 1.896,-0.083 2.848,-0.084 -0.092,-0.689 -0.17,-1.383 -0.248,-2.071 -0.878,0.033 -1.753,0.111 -2.626,0.174 z m -2.292,0.32 c 0.009,0.582 0.017,1.161 0.021,1.742 0.678,-0.019 1.354,-0.04 2.032,-0.071 -0.013,-0.636 -0.028,-1.277 -0.039,-1.91 -0.674,0.069 -1.345,0.159 -2.014,0.239 z m -2.82,0.335 c 0.005,0.511 0.013,1.021 0.021,1.534 0.848,-0.022 1.7,-0.015 2.552,-0.025 -0.007,-0.614 -0.018,-1.231 -0.025,-1.841 -0.848,0.12 -1.7,0.225 -2.548,0.332 z m 8.251,1.58 c 0.145,0.635 -0.212,1.844 0.875,1.813 -0.092,-0.652 -0.205,-1.301 -0.317,-1.948 -0.186,0.046 -0.372,0.092 -0.558,0.135 z m -3.11,0.025 c 0.067,0.618 0.137,1.239 0.195,1.859 0.932,-0.063 1.866,-0.124 2.8,-0.195 -0.066,-0.579 -0.125,-1.164 -0.171,-1.743 -0.944,0.019 -1.884,0.049 -2.824,0.079 z m -2.25,0.117 c 0.083,0.602 0.164,1.206 0.25,1.812 0.64,-0.034 1.276,-0.072 1.919,-0.099 -0.061,-0.616 -0.114,-1.23 -0.183,-1.846 -0.66,0.053 -1.324,0.09 -1.986,0.133 z m -2.865,0.262 c 0.009,0.573 0.018,1.146 0.021,1.725 0.928,-0.058 1.855,-0.117 2.784,-0.18 -0.099,-0.59 -0.187,-1.182 -0.273,-1.774 -0.85,0.049 -1.693,0.13 -2.532,0.229 z m 5.273,1.742 c 0.048,0.673 0.103,1.349 0.167,2.024 0.959,-0.1 1.917,-0.214 2.875,-0.325 -0.067,-0.612 -0.136,-1.225 -0.195,-1.835 -0.948,0.075 -1.901,0.086 -2.847,0.136 z m 3.12,-0.253 c 0.049,0.669 0.117,1.335 0.189,2.006 0.281,-0.052 0.562,-0.104 0.842,-0.155 -0.269,-0.638 0.166,-1.993 -1.031,-1.851 z m -5.261,0.33 c 0.01,0.716 0.02,1.435 0.032,2.153 0.655,-0.066 1.311,-0.133 1.961,-0.212 -0.066,-0.679 -0.09,-1.361 -0.128,-2.038 -0.625,0.022 -1.244,0.052 -1.865,0.097 z m -3.124,0.301 c -0.098,0.742 -0.096,1.494 -0.109,2.246 0.989,-0.15 1.981,-0.292 2.989,-0.338 -0.013,-0.748 -0.022,-1.494 -0.033,-2.235 -0.953,0.099 -1.906,0.193 -2.847,0.327 z m 8.582,1.627 c 0.095,0.921 0.164,1.841 0.215,2.765 0.437,0.078 0.858,0.128 1.301,0.22 -0.417,0.091 -0.852,0.126 -1.271,0.203 0.109,2.003 0.23,4.013 0.374,6.024 0.409,-0.267 0.825,-0.522 1.226,-0.801 -0.334,0.107 -0.662,0.231 -0.988,0.358 l -0.033,-0.511 c 0.272,-0.018 0.541,-0.056 0.811,-0.099 -0.094,-0.427 -0.145,-0.86 -0.156,-1.29 0.137,0.302 0.271,0.609 0.398,0.917 0.072,0.009 0.217,0.027 0.29,0.038 -0.047,-2.689 -0.763,-5.323 -1.252,-7.958 -0.306,0.049 -0.61,0.092 -0.915,0.134 z m -3.108,0.305 c 0.082,0.797 0.175,1.597 0.235,2.396 0.935,0.033 1.872,0.063 2.811,0.095 -0.061,-0.938 -0.09,-1.872 -0.214,-2.805 -0.941,0.127 -1.888,0.221 -2.832,0.314 z m -2.33,0.2 c 0.045,0.703 0.111,1.409 0.173,2.118 0.733,0.022 1.466,0.046 2.201,0.069 -0.113,-0.799 -0.23,-1.599 -0.346,-2.396 -0.673,0.085 -1.351,0.151 -2.028,0.209 z m -3.228,0.427 c 0.048,0.522 0.094,1.053 0.156,1.577 0.985,0.035 1.974,0.072 2.963,0.105 -0.08,-0.677 -0.125,-1.358 -0.174,-2.033 -0.992,0.058 -1.977,0.17 -2.945,0.351 z m 0.085,1.945 c 0.017,0.736 0.027,1.477 0.018,2.215 0.918,0.109 1.836,0.033 2.754,0.035 0.024,-0.17 0.048,-0.34 0.071,-0.508 0.104,0.208 0.209,0.419 0.318,0.626 -0.034,-0.794 -0.079,-1.589 -0.115,-2.378 -1.02,-0.018 -2.034,-0.015 -3.046,0.01 z m 3.317,0.014 c 0.048,0.738 0.099,1.479 0.161,2.219 0.686,-0.025 1.372,-0.013 2.061,-0.01 -0.011,-0.714 -0.024,-1.425 -0.034,-2.134 -0.73,-0.026 -1.462,-0.051 -2.188,-0.075 z m 2.458,0.072 c 0.013,0.714 0.027,1.431 0.041,2.146 0.953,-0.037 1.908,-0.025 2.867,-0.025 -0.028,-0.659 -0.061,-1.318 -0.093,-1.974 -0.94,-0.055 -1.877,-0.105 -2.815,-0.147 z m 0.038,2.46 c 0.118,0.848 0.224,1.698 0.335,2.547 0.812,0.033 1.625,0.062 2.438,0.094 -0.037,-0.371 -0.088,-0.765 -0.116,-1.126 0.118,0.345 0.235,0.689 0.359,1.032 -0.017,-0.874 -0.093,-1.746 -0.159,-2.616 -0.953,0.017 -1.904,0.048 -2.857,0.069 z m -2.307,-0.107 c 0.016,0.854 0.022,1.707 0.041,2.563 0.759,0.028 1.521,0.055 2.285,0.086 -0.113,-0.861 -0.193,-1.72 -0.291,-2.576 -0.51,-0.018 -1.527,-0.056 -2.035,-0.073 z m -3.488,0.207 c 0.043,0.838 0.1,1.673 0.149,2.513 1.035,-0.045 2.069,-0.096 3.103,-0.157 -0.14,-0.817 -0.255,-1.638 -0.344,-2.459 -0.973,0.012 -1.944,0.032 -2.908,0.103 z m 3.124,0.058 c -0.145,0.118 -0.14,0.395 0.007,0.524 0.23,0.006 0.221,-0.514 -0.007,-0.524 z m -3.043,2.752 c 0.038,0.186 0.114,0.559 0.152,0.746 1.026,0.46 2.208,0.147 3.288,0.306 -0.081,-0.393 -0.16,-0.796 -0.234,-1.182 -1.073,-0.004 -2.138,0.092 -3.206,0.13 z m 3.572,-0.177 c 0.059,0.403 0.126,0.82 0.182,1.231 1.663,0.06 3.328,0.047 4.992,0.025 -10e-4,-0.346 0,-0.686 0.004,-1.026 -0.84,-0.053 -1.68,-0.104 -2.517,-0.147 0.014,0.379 0.037,0.78 0.047,1.164 -0.193,-0.384 -0.384,-0.77 -0.57,-1.153 -0.714,-0.034 -1.427,-0.065 -2.138,-0.094 z"
   id="path57"
   inkscape:connector-curvature="0"
   sodipodi:nodetypes="ccccccccccccccccccccccccccccccccccccccccccccccccccccccccccccccccccccccccccccccccccccccccccccccccccccccccccccccccccccccccccccccccccccccccccccccccccccccccccccccccccccccccccccccccccccccccccccccccccccccccccccccccccccccccccccccccccccccccccccccccccccccccccccccccccccccccccccccccccccccccccccccccccccccccccccccccccccccccccccccccccccccccccccccccccccccccccccccccccccccccccccccccccccccccccccccccccccccccccccccccccccccccccccccccccccccccccccccccccccccccccccccccccccccccccccccccccccccccccccccccccccccccccccccccccccccccccccccccccccccccccccccccccccccccccccccccccccccccccccccccccccccccccccccccccccccccccccccccccccccccccccccccccccccccccccccccccccccccccccccccccccccccccccccccccccccccccccccccccccccccccccccccccccccccccccccccccccccccccccccccccccccccccccccccccccccccccccccccccccccccccccccccccccccccccccccccccccccccccccccccccccccccccccccccccccccccccccccccccccccccccccccccccccccccccccccccccccccccccccccccccccccccccccccccccccccccccccccccccccccccccccccccccccccccccccccccc" />
		</g>
		<path
   d="m 307.967,360.598 c 0.189,-0.056 0.266,0.255 0.096,0.313 -0.19,0.056 -0.263,-0.259 -0.096,-0.313 z"
   id="path59"
   inkscape:connector-curvature="0" />
		<path
   d="m 314.453,369.94 c 0.16,-0.132 0.471,0.114 0.358,0.293 -0.161,0.133 -0.472,-0.114 -0.358,-0.293 z"
   id="path61"
   inkscape:connector-curvature="0" />
		<path
   d="m 290.931,369.792 c 0.185,-0.056 0.258,0.258 0.09,0.313 -0.188,0.057 -0.258,-0.258 -0.09,-0.313 z"
   id="path63"
   inkscape:connector-curvature="0" />
		
		
		
		
		
		
		
		
		
		
		
		
		
		
		
		
		
		
		
		
		
		
		
		
		
		
		
		
	</g>
</g>
</svg>