<?xml version="1.0" encoding="UTF-8" standalone="no"?>
<!-- Created with Inkscape (http://www.inkscape.org/) -->

<svg
   xmlns:dc="http://purl.org/dc/elements/1.1/"
   xmlns:cc="http://creativecommons.org/ns#"
   xmlns:rdf="http://www.w3.org/1999/02/22-rdf-syntax-ns#"
   xmlns:svg="http://www.w3.org/2000/svg"
   xmlns="http://www.w3.org/2000/svg"
   xmlns:sodipodi="http://sodipodi.sourceforge.net/DTD/sodipodi-0.dtd"
   xmlns:inkscape="http://www.inkscape.org/namespaces/inkscape"
   width="128"
   height="256"
   id="svg3189"
   version="1.1"
   inkscape:version="0.48.4 r9939"
   sodipodi:docname="sewerPipe1.svg">
  <defs
     id="defs3191" />
  <sodipodi:namedview
     id="base"
     pagecolor="#ffffff"
     bordercolor="#666666"
     borderopacity="1.0"
     inkscape:pageopacity="0.0"
     inkscape:pageshadow="2"
     inkscape:zoom="2.6498137"
     inkscape:cx="47.397509"
     inkscape:cy="128.83757"
     inkscape:document-units="px"
     inkscape:current-layer="layer1"
     showgrid="false"
     inkscape:window-width="1000"
     inkscape:window-height="871"
     inkscape:window-x="174"
     inkscape:window-y="66"
     inkscape:window-maximized="0" />
  <metadata
     id="metadata3194">
    <rdf:RDF>
      <cc:Work
         rdf:about="">
        <dc:format>image/svg+xml</dc:format>
        <dc:type
           rdf:resource="http://purl.org/dc/dcmitype/StillImage" />
        <dc:title />
      </cc:Work>
    </rdf:RDF>
  </metadata>
  <g
     inkscape:label="Layer 1"
     inkscape:groupmode="layer"
     id="layer1"
     transform="translate(0,-796.36218)">
    <path
       style="fill:#536c67;stroke:none"
       d="m 87.777769,1025.7333 c -16.096566,-0.2267 -17.819837,-0.3139 -21.508634,-1.0875 -3.39064,-0.711 -5.924732,-0.8938 -16.404891,-1.1834 -21.718773,-0.6 -23.241773,-0.892 -26.186482,-5.0199 -0.768278,-1.077 -2.2853,-3.8284 -3.371169,-6.1143 -1.687173,-3.5517 -2.065651,-4.7599 -2.602514,-8.3074 -0.767659,-5.07258 -0.768239,-9.0622 -0.002,-10.58277 0.722142,-1.43221 2.186634,-2.80511 4.35783,-4.0853 1.99806,-1.17811 2.283522,-1.64102 3.256446,-5.28067 0.962926,-3.60223 2.206156,-5.54923 4.265884,-6.68069 0.920769,-0.50581 2.063717,-1.51403 2.539885,-2.24049 0.86079,-1.31327 0.864545,-1.36526 0.6542,-9.05724 -0.291582,-10.66271 -0.801029,-17.37265 -1.439016,-18.95331 -0.431569,-1.06925 -0.889024,-1.46466 -2.30706,-1.99414 -0.972822,-0.36324 -3.868664,0.79273 -5.97395,-0.19867 -2.105296,-0.99139 -4.568717,-4.44027 -5.935517,-4.89669 -2.198022,-0.73399 -2.676133,-1.076 -4.13878,-2.96066 -2.407314,-3.10185 -4.3217187,-7.5705 -5.7889535,-13.51269 -0.8993923,-3.64249 -1.8364489,-6.34826 -3.0965544,-8.94137 -0.9937897,-2.04508 -1.806899,-4.13958 -1.806899,-4.65444 0,-0.51486 0.3196197,-2.23808 0.7102596,-3.82938 0.3906494,-1.59129 -0.8529135,-3.16686 -0.5356315,-6.8558 0.8764274,-10.18995 -1.1745183,-11.28787 -0.4900412,-13.58586 2.4320734,-8.16519 12.120867,-22.12396 23.990262,-26.92078 5.875706,-2.37457 5.835418,-6.64791 12.492755,-6.6582 5.014847,-0.008 7.959747,-2.87149 17.239433,-1.8616 5.604796,0.60995 16.019025,2.1747 19.678493,2.9567 1.808596,0.38648 4.190623,0.81752 5.293396,0.95787 9.167814,1.16674 16.845139,-0.006 24.78571,6.01115 8.53353,6.46675 13.72105,13.03274 16.98762,18.15585 2.2238,3.48766 4.13178,6.30808 4.93724,11.64952 0.64489,4.2766 -0.0101,7.55058 -0.18831,14.39005 -0.31275,12.00437 -2.92991,20.78347 -3.85638,23.20917 -1.77611,4.6502 -6.72486,11.91283 -12.5498,11.51025 -5.2387,-0.36207 -4.73391,-3.08427 -5.05254,14.83919 -0.15011,8.44339 -0.29692,15.81403 -0.32624,16.37921 -0.0749,1.44343 0.49052,1.99041 3.16242,3.05935 1.2849,0.51404 3.17155,1.58791 4.19256,2.38638 4.49774,3.51739 5.65293,4.568 6.31709,5.74522 0.9358,1.65871 1.27407,6.96942 1.30103,20.42524 0.0183,9.0894 -0.0688,10.765 -0.7008,13.4939 -0.92159,3.9794 -2.14545,6.4638 -3.98881,8.0972 -2.87437,2.5469 -2.90428,2.5493 -27.912005,2.197 l 0,0 z"
       id="path4060"
       inkscape:connector-curvature="0"
       sodipodi:nodetypes="ccsssscssssssssssssssssscsssssssssscsssscsccc" />
    <path
       style="fill:#4d4d4d"
       id="path3165"
       d="m 19.312641,913.58057 c 0.456732,-2.1683 1.099619,-4.2753 1.662422,-6.4089 0.869125,-2.8734 2.090633,-5.56812 3.457633,-8.17215 1.225046,-2.57244 2.813687,-4.8758 4.367315,-7.19854 1.701541,-2.51379 4.058354,-4.23481 6.378771,-5.93095 3.796053,-2.69269 7.593535,-5.50677 11.78146,-7.35447 2.148066,-0.99989 4.362971,-1.69883 6.65584,-2.09881 2.834823,-0.66541 5.726179,-0.89984 8.610669,-1.08728 3.043348,-0.1344 6.089697,-0.12341 9.134777,-0.11662 3.691619,-0.13293 7.342785,0.0829 10.998548,0.6433 3.038733,0.31126 6.016967,0.96676 8.953781,1.88761 2.461871,0.63055 4.899826,1.34851 7.330259,2.118 1.795874,0.46976 3.508904,1.29901 5.192224,2.13675 1.68861,0.73312 2.82824,2.24731 3.99134,3.73204 1.22926,1.5162 2.48415,2.96954 3.34109,4.79733 0.57132,1.50764 0.95364,3.08533 1.48039,4.61045 0.48766,1.42248 0.93318,2.83957 1.18863,4.34034 0.20671,1.58953 0.46147,3.18728 0.99816,4.6798 0.67226,1.5434 1.03762,3.1892 1.23977,4.8839 0.15209,1.6066 0.15016,3.2247 0.15379,4.8383 0.0682,1.5226 -0.0256,3.0054 -0.29337,4.4955 -0.21306,1.6884 -0.4225,3.3683 -0.70403,5.0453 -0.23653,1.8944 -0.79939,3.7067 -1.31995,5.5191 -0.79602,2.3483 -1.61656,4.6857 -2.40628,7.0376 -0.70248,1.7085 -1.19385,3.5025 -1.67825,5.3 -0.46403,2.0516 -0.56838,4.171 -0.86329,6.2569 -0.32393,2.013 -0.43957,4.0523 -0.51605,6.0926 -0.0453,2.0401 -0.0486,4.0812 -0.0439,6.1218 -2e-5,1.9625 0.004,3.925 0.0115,5.8876 0.006,1.4094 0.009,2.8188 0.01,4.2283 0,0 -5.55536,3.1964 -5.55536,3.1964 l 0,0 c 9.4e-4,-1.4125 0.004,-2.825 0.007,-4.2375 0.005,-1.9649 0.005,-3.9299 9.4e-4,-5.8948 0.004,-2.0496 -0.009,-4.0994 0.0428,-6.1485 0.0494,-2.0664 0.15527,-4.1356 0.48315,-6.173 0.30834,-2.1031 0.44117,-4.2283 0.81183,-6.3201 0.43513,-1.8339 0.94819,-3.6533 1.68052,-5.3675 0.79539,-2.3426 1.62831,-4.6676 2.43486,-7.0051 0.47478,-1.7912 1.0492,-3.5665 1.30173,-5.4188 0.27713,-1.6758 0.56181,-3.3357 0.67121,-5.0395 0.26567,-1.4581 0.49073,-2.8751 0.36832,-4.3777 -5e-4,-1.5876 0.007,-3.1786 -0.11729,-4.7615 -0.16922,-1.6395 -0.49175,-3.235 -1.15058,-4.7225 -0.57688,-1.5248 -0.87234,-3.1643 -1.07551,-4.80267 -0.22895,-1.46665 -0.6646,-2.83699 -1.14211,-4.22057 -0.5066,-1.50877 -0.88279,-3.06152 -1.41833,-4.55977 -0.80683,-1.79451 -2.05422,-3.18326 -3.25075,-4.6538 -1.12343,-1.40796 -2.21779,-2.82548 -3.85536,-3.46916 -1.666094,-0.79796 -3.328082,-1.63744 -5.098656,-2.09844 -2.411229,-0.79169 -4.843763,-1.47678 -7.283535,-2.14454 -2.907155,-0.88177 -5.851483,-1.51401 -8.848485,-1.86029 -3.645498,-0.55787 -7.29078,-0.68874 -10.968936,-0.55315 -3.050796,0.0144 -6.103492,0.0104 -9.151495,0.17805 -2.884678,0.1851 -5.762952,0.49595 -8.594888,1.16919 -2.268943,0.47198 -4.464095,1.23733 -6.59608,2.23749 -1.018533,0.48428 -1.07697,0.48767 -2.088645,1.07292 -0.375382,0.21716 -1.476572,0.92073 -1.114756,0.67596 8.278927,-5.60059 3.714787,-2.45975 1.949208,-1.19509 -2.309349,1.64615 -4.683057,3.29262 -6.442545,5.69788 -1.55604,2.29688 -3.160272,4.57113 -4.383633,7.12273 -1.370464,2.56618 -2.644534,5.18437 -3.54273,8.01806 -0.508018,2.0941 -1.15328,4.154 -1.496628,6.2936 0,0 -5.687912,3.0769 -5.687912,3.0769 z"
       inkscape:connector-curvature="0" />
    <path
       style="fill:#4d4d4d"
       id="path3167"
       d="m 26.346938,908.71427 c 0.274231,2.098 0.537629,4.1952 0.87621,6.2828 0.731267,3.3154 1.648383,6.5988 2.757529,9.7795 1.097463,2.4967 1.759706,5.1644 2.433074,7.8293 0.420092,1.9963 1.222662,3.8406 1.766157,5.7917 0.448454,1.9335 0.824802,3.886 1.245991,5.827 0.341278,2.2952 0.663378,4.5936 0.991174,6.8926 0.461993,2.0494 0.810999,4.1117 1.009271,6.2143 0.05846,1.776 0.213741,3.5218 0.475939,5.2728 0.250787,1.6058 0.332923,3.2338 0.38066,4.8606 0.08211,1.5511 -0.06651,3.117 0.101662,4.66 0.362706,1.3139 1.614734,1.2904 2.641346,1.39 1.771171,0.096 3.545786,0.072 5.318508,0.071 1.975101,-0.018 3.950231,-0.023 5.925378,-0.031 1.896693,-0.017 3.793367,0.01 5.690069,0.01 2.317901,-0.3066 4.640106,-0.5331 6.971102,-0.6565 2.519333,-0.1316 5.042035,-0.1204 7.563366,-0.1356 2.337152,0 4.674287,-0.01 7.011421,-0.01 2.105353,0.067 4.191018,-0.024 6.285898,-0.2393 2.393964,-0.1389 4.741089,-0.6783 7.11388,-1.023 1.722023,-0.2466 3.45678,-0.3215 5.190612,-0.3549 1.626056,-0.01 3.252325,-0.01 4.878395,0 1.80085,0.01 3.60163,0.01 5.40247,0 0.30448,10e-4 0.60896,0 0.91344,0 0,0 -5.01366,4.1132 -5.01366,4.1132 l 0,0 c -0.30695,9e-4 -0.61386,10e-4 -0.92082,0 -1.80062,0 -3.601225,0 -5.401856,0 -1.630134,0 -3.260373,-0.01 -4.890356,0.024 -1.703584,0.041 -3.407633,0.1258 -5.098882,0.3747 -2.364768,0.3537 -4.715583,0.8249 -7.100994,0.981 -2.114265,0.2316 -4.226589,0.2626 -6.350296,0.2113 -2.326161,-0.01 -4.652339,-0.02 -6.978529,-0.013 -2.514896,0 -5.030568,0.03 -7.543176,0.1609 -2.346302,0.1536 -4.6788,0.454 -7.021214,0.6529 -1.904335,7e-4 -3.808616,0.024 -5.712962,0.013 -1.967145,-0.001 -3.93428,0.01 -5.901406,0.014 -1.802722,0.016 -3.610117,0.074 -5.408903,-0.093 -1.355524,-0.1941 -2.649396,-0.5203 -3.095552,-2.1742 -0.201745,-1.5648 -0.04513,-3.1561 -0.118237,-4.7331 -0.03813,-1.5984 -0.102013,-3.1993 -0.335828,-4.7792 -0.259775,-1.772 -0.462712,-3.5286 -0.469363,-5.3299 -0.170193,-2.0945 -0.504365,-4.1512 -0.973416,-6.1878 -0.323832,-2.2807 -0.629045,-4.5623 -0.976974,-6.8368 -0.419052,-1.9272 -0.82747,-3.8556 -1.247742,-5.7821 -0.513372,-1.9714 -1.338619,-3.8134 -1.750556,-5.8199 -0.642811,-2.6586 -1.197062,-5.3466 -2.318441,-7.8235 -1.090253,-3.2284 -2.028514,-6.535 -2.839589,-9.8648 -0.390056,-2.044 -0.665752,-4.1074 -1.022432,-6.1556 0,0 5.547641,-3.3877 5.547641,-3.3877 z"
       inkscape:connector-curvature="0" />
    <path
       style="fill:#4d4d4d"
       id="path3169"
       d="m 33.54003,974.31977 c 1.912898,0.053 3.826515,0.045 5.739811,0.038 1.813564,0.034 3.601253,0.034 5.394769,-0.2767 1.578858,-0.1595 3.103347,-0.539 4.648641,-0.9126 1.242386,-0.036 2.477877,0.1757 3.717066,0.2637 1.876003,0.1111 3.754968,0.1116 5.632928,0.1251 2.066101,0.2888 4.133121,0.5358 6.211767,0.6749 1.836778,0.1048 3.67633,0.12 5.515067,0.1266 2.263692,0 4.527414,0.018 6.791116,0.017 2.340578,0.01 4.681109,-0.014 7.021668,-0.015 1.973219,0.01 3.946418,-0.01 5.919598,-0.015 1.785268,10e-4 3.570534,0.01 5.355792,0 1.776611,0 3.553269,-0.01 5.329877,5e-4 1.67379,9e-4 3.34756,-0.01 5.02134,-0.01 1.43733,-0.062 2.89169,0.1352 4.31404,-0.1326 1.41708,-0.2727 2.82442,-0.4908 4.22111,-0.8722 1.34762,-0.3471 2.67097,-0.7648 3.81467,0.3052 0.81389,1.1986 0.82826,2.7354 0.87701,4.1814 0.0696,1.4843 0.12059,2.8919 -0.89464,3.9653 -3.61538,2.9778 -5.79827,4.2251 -9.71381,4.5966 -1.69426,0.3813 -3.31967,1.0374 -5.02495,1.3872 -1.69783,0.2848 -3.42071,0.2808 -5.133287,0.2978 -1.804245,0.011 -3.608584,0.01 -5.412829,0 -1.999699,0.1032 -3.972302,-0.306 -5.956324,-0.5238 -2.226144,-0.091 -4.425667,-0.3348 -6.631328,-0.6736 -1.682659,-0.1174 -3.321072,-0.5039 -4.982746,-0.7901 -1.734437,-0.2747 -3.48543,-0.3533 -5.234321,-0.3944 -1.816269,-0.039 -3.632925,-0.026 -5.449402,-0.03 -1.799089,0.01 -3.598141,0.01 -5.39723,0.01 -2.069668,-0.012 -4.139364,-0.014 -6.20905,-0.01 -1.890336,-0.065 -3.792033,0.145 -5.671753,-0.1151 -1.668355,-0.2997 -3.346179,-0.4971 -5.032442,-0.6003 -1.671874,-0.015 -3.314345,-0.061 -4.966371,-0.3469 -1.609,-0.2922 -3.234602,-0.4164 -4.861397,-0.4834 -1.69439,-0.098 -3.397994,0.06 -5.083103,-0.1728 -1.714144,-0.4483 -2.111654,-2.0097 -2.354182,-3.7645 -0.09139,-1.1382 -0.02744,-0.5947 -0.182597,-1.6319 0,0 5.510802,-3.3049 5.510802,-3.3049 l 0,0 c 0.166778,1.085 0.106024,0.5341 0.179626,1.6529 0.179446,1.4866 0.408588,2.7324 1.909795,2.9826 1.687475,0.1549 3.383378,0.023 5.073993,0.13 1.634562,0.094 3.263835,0.2644 4.881718,0.55 1.641033,0.2382 3.286077,0.2218 4.937592,0.2992 1.688552,0.1166 3.36104,0.3778 5.037399,0.628 1.869684,0.1398 3.74648,0.048 5.619247,0.076 2.076082,0.01 4.152164,0 6.228228,-0.01 1.795059,-10e-4 3.590089,0 5.385148,-4e-4 1.829229,-0.01 3.658734,-0.01 5.487775,0.023 1.757718,0.068 3.515076,0.1904 5.256267,0.4834 1.656671,0.2857 3.307221,0.5875 4.974752,0.7863 2.191207,0.3589 4.385109,0.54 6.596136,0.6663 1.977598,0.2219 3.950675,0.5536 5.944432,0.4507 1.80385,0 3.607712,0.01 5.411532,-0.01 1.69886,-0.03 3.40879,-0.06 5.0841,-0.4143 1.69882,-0.4016 3.33741,-1.0864 5.06242,-1.335 0.78533,-0.099 1.56511,-0.2032 2.3312,-0.4328 2.166,-0.6491 5.48586,-3.3658 -3.45823,2.6018 1.39971,-0.6852 1.22192,-1.7911 1.186,-3.3248 -0.0321,-1.2048 0.0313,-2.5931 -0.63078,-3.6058 -1.04708,-0.7171 -2.35848,-0.043 -3.46684,0.1653 -1.40776,0.36 -2.84106,0.5481 -4.26473,0.8116 -1.44705,0.1228 -2.90001,0.036 -4.35022,0.059 -1.666445,0 -3.332897,-0.01 -4.999341,-0.01 -1.777008,0.01 -3.554064,0 -5.331081,4e-4 -1.788229,0 -3.576466,10e-4 -5.364704,0 -1.961337,-0.01 -3.922662,-0.022 -5.884009,-0.014 -2.330445,2e-4 -4.6609,-0.018 -6.991346,-0.01 -2.279994,0 -4.559949,0.022 -6.839969,0.019 -1.844613,-0.012 -3.691033,-0.013 -5.531814,-0.1667 -2.065497,-0.1731 -4.121116,-0.4514 -6.184237,-0.6443 -1.900835,-0.01 -3.803129,-0.018 -5.702159,-0.1173 -1.201498,-0.081 -2.415485,-0.3127 -3.614676,-0.1089 -1.540535,0.3809 -3.090425,0.642 -4.656588,0.8524 -1.801207,0.2499 -3.608168,0.1946 -5.420273,0.1788 -1.944175,-0.01 -3.888615,-0.014 -5.832421,0.038 0,0 5.090748,-4.1766 5.090748,-4.1766 z"
       inkscape:connector-curvature="0" />
    <path
       style="fill:#4d4d4d"
       id="path3171"
       d="m 31.104582,983.33067 c -1.227733,1.5126 -2.435911,3.0384 -3.800632,4.3964 -3.078088,2.3177 -13.405416,8.69443 -2.673369,1.8499 0.38875,-0.2479 -0.756384,0.5362 -1.127443,0.8166 -1.043216,0.8663 -1.282547,2.17063 -1.428039,3.53963 0.06244,1.5707 0.345146,3.1175 0.48904,4.6817 0.04985,1.7796 0.340832,3.5278 0.560268,5.2864 0.208065,1.7034 0.266199,3.4224 0.298914,5.1394 0.02137,1.6062 0.01666,3.2127 0.01504,4.819 -0.002,1.6399 0.850109,2.497 1.971535,3.3237 1.215454,0.6206 2.50273,1.1458 3.800509,1.514 1.744085,0.3678 3.523818,0.405 5.292435,0.4388 1.609075,0.2526 3.211235,0.5355 4.831644,0.6794 1.989367,0.07 3.960798,0.1401 5.938272,0.3999 2.309841,0.1909 4.585843,0.6732 6.881275,1.0019 2.011856,0.2632 4.038761,0.2936 6.061429,0.3243 1.789033,0.3426 3.605548,0.4658 5.393502,0.8018 2.130688,0.4324 4.288423,0.6192 6.448051,0.7315 1.914355,0.075 3.830111,0.075 5.745346,0.069 1.735069,4e-4 3.470177,-0.01 5.205257,-0.01 1.805947,-9e-4 3.611877,0 5.417834,0 1.834177,0 3.668355,0.01 5.502543,0 1.780101,0.01 3.560222,0 5.340324,-0.01 1.865176,0.01 3.730358,0.013 5.595538,0.013 1.70853,0 3.41705,-0.012 5.12559,-0.015 1.44224,-0.026 2.85631,-0.4345 4.29114,-0.6172 1.40356,-0.2375 2.84633,-0.4841 4.21489,-0.9284 1.39121,-0.4343 2.83172,-0.6222 4.13948,-1.3399 -1.61885,1.028 -3.21797,2.0966 -4.85653,3.0839 -0.16109,0.097 0.29069,-0.2532 0.41289,-0.4064 0.54206,-0.6795 0.65703,-1.5895 0.77086,-2.4554 0.16719,-1.7526 0.15078,-3.5023 -0.0776,-5.2434 -0.27312,-1.6732 -0.42208,-3.3638 -0.50321,-5.0611 -0.0609,-1.6057 -0.0598,-3.2133 -0.0612,-4.8202 -0.0901,-1.7548 0.0943,-3.4775 0.31591,-5.2092 0.0977,-1.6652 0.41385,-3.2435 0.94825,-4.7933 0.46315,-1.3672 0.77937,-2.8168 0.73082,-4.28643 -0.1497,-1.2829 -1.06977,-2.3484 -1.81228,-3.2898 -1.12212,-1.4451 -1.90423,-3.1519 -3.0692,-4.5566 -0.1965,-0.2132 -0.39299,-0.4264 -0.58948,-0.6396 0,0 5.29277,-3.6741 5.29277,-3.6741 l 0,0 c 0.20293,0.2253 0.40585,0.4506 0.60877,0.6759 1.13319,1.44 1.94661,3.1337 3.10728,4.5482 0.82057,1.0813 1.82845,2.2425 2.0192,3.6902 0.11206,1.551 -0.17018,3.1041 -0.62173,4.5681 -0.53111,1.51513 -0.99992,3.00643 -1.03879,4.66243 -0.21782,1.6989 -0.43584,3.3824 -0.33387,5.1061 6e-5,1.597 -0.004,3.1945 0.0453,4.7907 0.0663,1.678 0.1906,3.3522 0.45856,5.0066 0.24829,1.7922 0.30291,3.5872 0.18112,5.3994 -0.39348,4.5417 -2.4272,4.8385 -6.83047,7.2702 -1.36721,0.5424 -2.78989,0.8273 -4.18717,1.2512 -1.40874,0.3523 -2.82927,0.6908 -4.26515,0.8597 -1.43903,0.2153 -2.86935,0.6006 -4.32888,0.542 -1.69595,0 -3.391905,-0.012 -5.087865,-0.016 -1.875624,-6e-4 -3.751247,0.01 -5.626871,0.013 -1.774445,-0.01 -3.548899,-0.014 -5.323343,-0.01 -1.836231,0 -3.672461,-10e-5 -5.508693,0 -1.804632,-0.01 -3.609236,0 -5.413869,5e-4 -1.735884,0.01 -3.471833,0 -5.207716,0.01 -1.912653,-0.01 -3.826289,-0.013 -5.737163,-0.1184 -2.173525,-0.1337 -4.338318,-0.3859 -6.487236,-0.7834 -1.781644,-0.2635 -3.57096,-0.4708 -5.353626,-0.7198 -2.034805,-0.036 -4.073368,-0.1183 -6.094645,-0.4007 -2.280665,-0.3728 -4.552598,-0.8127 -6.853858,-0.9991 -1.996936,-0.2176 -3.992433,-0.2333 -5.995102,-0.3389 -1.599048,-0.1766 -3.178966,-0.506 -4.779091,-0.665 -1.811671,-0.056 -3.636947,-0.1067 -5.414078,-0.5498 -1.338685,-0.4359 -2.692602,-0.9395 -3.912616,-1.7028 -1.263171,-0.9645 -2.194612,-2.1142 -2.275159,-3.927 0.002,-1.6027 0.0067,-3.2055 -0.0067,-4.8082 -0.02271,-1.6948 -0.06197,-3.3922 -0.248026,-5.0762 -0.207108,-1.7664 -0.550713,-3.5122 -0.589483,-5.2982 -0.135512,-1.6094 -0.397244,-3.1958 -0.553995,-4.8014 0.1052,-1.4714 0.25549,-2.9702 1.212643,-4.0791 2.022223,-1.82143 5.477123,-3.74903 7.062386,-4.78803 0.209758,-0.1375 0.850023,-0.5276 0.641903,-0.3869 -1.521859,1.0283 -3.051911,2.0411 -4.583742,3.0503 -0.253399,0.1669 0.498814,-0.3489 0.748219,-0.5234 1.389706,-1.2484 2.624062,-2.7143 3.716388,-4.2903 0,0 5.824973,-2.7245 5.824973,-2.7245 z"
       inkscape:connector-curvature="0" />
    <path
       style="fill:#4d4d4d"
       id="path3216"
       d="m 27.559929,948.23748 c -1.003645,-0.38823 -1.9972,-0.80323 -2.998634,-1.19881 -0.979476,-0.45839 -1.984673,-0.84373 -2.999267,-1.21063 -0.764543,-0.3554 -1.54,-0.68034 -2.237731,-1.16621 -0.810899,-0.48709 -1.546109,-1.12203 -2.237507,-1.77789 -0.690886,-0.71315 -1.504174,-1.29042 -2.132105,-2.0666 -0.593043,-0.68608 -1.042401,-1.49022 -1.519679,-2.26394 -0.597497,-0.86335 -1.149818,-1.75657 -1.706947,-2.64773 -0.56245,-0.96866 -1.025228,-1.99617 -1.526763,-3.00011 -0.4679602,-1.06807 -1.0796206,-2.06029 -1.5700295,-3.11533 -0.3853469,-0.87174 -0.8216494,-1.71674 -1.1989666,-2.59331 -0.3055393,-0.84437 -0.6777826,-1.66171 -1.0505254,-2.4766 -0.4357508,-0.95012 -0.7271838,-1.96011 -1.1472986,-2.91639 -0.4058797,-0.8418 -0.761347,-1.70663 -1.1433239,-2.56005 -0.3867946,-0.91568 -0.6834929,-1.8684 -1.0159148,-2.80612 -0.2248203,-0.7914 -0.4393905,-1.57624 -0.7664409,-2.32949 -0.2824645,-0.73111 -0.4217884,-1.51547 -0.5816725,-2.28396 -0.1491534,-0.81689 -0.3759012,-1.61118 -0.484627,-2.43631 -0.095732,-0.872 -0.1133624,-1.75032 -0.1180895,-2.62706 -0.00313,-0.86603 -0.00259,-1.73207 -0.00238,-2.59811 -0.1094852,-0.85884 -0.22642904,-1.71259 -0.2863935,-2.57773 -0.0428764,-0.99626 -0.22374432,-1.97827 -0.33142155,-2.96815 -0.0914741,-0.89547 -0.10035923,-1.79694 -0.10526322,-2.69649 -0.001956,-1.06671 0.001946,-2.1334 -3.0287e-4,-3.20011 0.0946237,-1.02249 0.18416577,-2.04976 0.33098208,-3.06597 0.15468905,-1.05736 0.48182716,-2.07607 0.81248726,-3.08571 0.3894767,-1.18978 0.7306466,-2.39304 1.1883906,-3.55736 0.4371817,-1.2145 0.9446658,-2.39962 1.4421931,-3.58837 0.4437032,-0.82621 0.8273559,-1.6847 1.2553125,-2.51936 0.5656337,-1.04611 1.1624659,-2.07358 1.8089079,-3.06828 0.627782,-0.98772 1.2932871,-1.95037 1.9650633,-2.90663 0.6534152,-0.93143 1.3566713,-1.82691 2.0768273,-2.70409 0.729364,-0.76668 1.422557,-1.57 2.173521,-2.31418 0.836458,-0.92798 1.875459,-1.59615 2.887255,-2.29226 1.092342,-0.75451 2.179881,-1.51913 3.29282,-2.24096 1.131167,-0.67641 2.262334,-1.35282 3.393501,-2.02922 -0.6929,0.40118 -2.758472,1.62813 -2.078702,1.20355 1.127162,-0.70401 2.288303,-1.34827 3.421321,-2.04214 0.675294,-0.41355 -1.357132,0.81612 -2.048007,1.20111 -0.234197,0.13051 0.446368,-0.30003 0.677027,-0.43713 1.146492,-0.68144 2.302581,-1.34542 3.453873,-2.01814 1.367563,-0.76145 2.805966,-1.3521 4.24365,-1.95071 1.61401,-0.54065 3.150767,-1.28289 4.744419,-1.884 1.480228,-0.51099 2.949517,-1.05797 4.44819,-1.50886 1.278204,-0.45518 2.60917,-0.69775 3.932226,-0.96349 1.324301,-0.18608 2.640272,-0.42139 3.971267,-0.55379 1.518776,-0.1314 3.043765,-0.13787 4.566714,-0.14907 1.641393,-0.0602 3.275025,0.13416 4.911176,0.23761 1.861447,0.16704 3.713278,0.41504 5.56919,0.63391 1.569437,0.27881 3.149355,0.46852 4.738312,0.56793 1.340519,0.17778 2.683221,0.31572 4.032929,0.38706 1.181592,-0.003 2.347793,0.19535 3.522677,0.29814 1.776319,0.2156 3.551874,0.43986 5.330449,0.6361 1.556829,0.28672 3.135713,0.39874 4.700213,0.61854 1.628393,0.21187 3.262983,0.3512 4.887447,0.598 1.762734,0.23952 3.495866,0.65649 5.246561,0.9698 1.472232,0.30112 2.912188,0.74804 4.320307,1.28131 1.674362,0.57024 3.286842,1.31729 4.909442,2.02614 1.47506,0.53114 2.86235,1.25875 4.2141,2.06038 1.11224,0.7611 2.21732,1.53283 3.28107,2.36544 1.0098,0.89733 2.12584,1.64035 3.22617,2.40869 1.04631,0.6437 1.98598,1.42726 2.90226,2.24879 0.6086,0.61732 1.15342,1.2945 1.66152,2.00097 0.46232,0.66689 0.96368,1.30586 1.38642,2.00146 0.42347,0.80559 0.95998,1.53755 1.39198,2.33825 0.45353,0.94857 1.10691,1.76102 1.6702,2.63642 0.5322,0.80221 1.07564,1.58487 1.54221,2.43047 0.4404,0.73224 0.79855,1.51204 1.18824,2.27402 0.39202,0.80063 0.70153,1.64002 1.06667,2.45228 0.35022,0.7594 0.60639,1.55892 0.7892,2.37758 0.15876,0.78954 0.18688,1.59677 0.20356,2.40029 0.01,0.75801 0.005,1.51612 0.003,2.27416 -0.003,0.76969 -8.2e-4,1.53939 -0.005,2.30907 -0.009,1.04612 -0.005,2.09228 -0.006,3.13842 0.0118,1.03852 0.0235,2.07159 -0.094,3.10393 -0.15596,1.27312 -0.38205,2.53315 -0.50943,3.81061 -0.10096,1.14497 -0.11831,2.29521 -0.12669,3.44415 -0.006,1.14939 -0.005,2.29874 -0.004,3.44814 0.003,0.98776 0.009,1.97551 0.0111,2.96327 0.0443,0.88937 -0.0288,1.76165 -0.19793,2.63314 -0.26713,1.02156 -0.40089,2.06713 -0.47748,3.11998 -0.0858,0.86409 -0.30621,1.7018 -0.50525,2.54259 -0.12933,0.70216 -0.38228,1.36649 -0.5154,2.06777 -0.15005,0.84412 -0.4345,1.65109 -0.63088,2.48311 -0.23868,0.82124 -0.55356,1.62053 -0.86234,2.41704 -0.31822,0.68586 -0.77397,1.2916 -1.16739,1.93285 -0.44977,0.70542 -1.05644,1.2729 -1.59883,1.89765 -0.56867,0.5963 -1.08862,1.23651 -1.69112,1.79713 -0.65612,0.61287 -1.31423,1.20886 -2.06237,1.698 -1.53636,1.04098 -3.1262,1.98726 -4.73585,2.90413 -0.89268,0.31901 -1.70094,0.82925 -2.57022,1.20442 -0.40743,0.18847 -0.80608,0.37413 -1.19702,0.59536 -0.10906,0.0617 -0.43851,0.24234 -0.33079,0.17814 2.78919,-1.66236 3.26957,-2.00462 2.23836,-1.29007 -0.51376,0.35012 -1.02108,0.7074 -1.49787,1.11018 0,0 -3.01604,1.24754 -3.01604,1.24754 l 0,0 c 0.49743,-0.3793 0.95679,-0.80752 1.49167,-1.13523 1.5494,-1.04412 3.13668,-2.0329 4.84046,-2.77675 0.85957,-0.40182 1.69437,-0.8585 2.56399,-1.23809 1.0827,-0.60835 0.94632,-0.53609 -2.15519,1.31647 -0.10529,0.0629 0.20763,-0.13108 0.30799,-0.20207 0.34523,-0.24422 0.69472,-0.47134 1.04732,-0.70518 0.75357,-0.47605 1.44588,-1.00494 2.08001,-1.64639 0.6166,-0.54413 1.13776,-1.1683 1.71003,-1.75938 0.52945,-0.62747 1.11815,-1.18999 1.61323,-1.84675 0.39071,-0.63146 0.79343,-1.25286 1.19347,-1.87668 0.30529,-0.78712 0.60728,-1.57432 0.88414,-2.37151 0.18,-0.83109 0.47154,-1.62679 0.63046,-2.46299 0.11175,-0.71797 0.36177,-1.38477 0.51569,-2.09004 0.18948,-0.8315 0.41524,-1.65162 0.53758,-2.49846 0.0735,-1.06465 0.18027,-2.12952 0.45727,-3.1616 0.18972,-0.84569 0.25723,-1.69659 0.21921,-2.56453 0.002,-0.99087 0.007,-1.98173 0.007,-2.97259 -0.002,-1.14915 -0.008,-2.29831 -0.004,-3.44744 0.0103,-1.15981 0.0262,-2.32096 0.12506,-3.47705 0.11783,-1.27812 0.34368,-2.53757 0.49326,-3.81022 0.12238,-1.02153 0.13479,-2.03963 0.11352,-3.06918 -0.002,-1.0441 0.003,-2.08822 -0.006,-3.1323 -0.004,-0.76912 -8.8e-4,-1.53824 4.1e-4,-2.30736 0.002,-0.75608 0.007,-1.51219 7.9e-4,-2.26826 -0.0112,-0.78325 -0.028,-1.57048 -0.169,-2.34263 -0.16726,-0.79992 -0.42355,-1.57269 -0.75601,-2.31578 -0.35679,-0.81008 -0.67019,-1.64007 -1.0582,-2.43642 -0.38636,-0.75977 -0.74579,-1.53478 -1.18138,-2.26563 -0.46143,-0.83983 -0.99638,-1.61907 -1.52269,-2.41645 -0.56283,-0.88594 -1.23125,-1.69882 -1.68745,-2.65592 -0.42622,-0.79756 -0.96992,-1.51682 -1.39352,-2.31642 -0.41747,-0.68748 -0.90892,-1.32416 -1.36744,-1.98189 -0.49679,-0.68631 -1.03115,-1.34146 -1.62053,-1.94558 -0.89296,-0.82651 -1.83453,-1.58107 -2.86214,-2.22475 -1.10387,-0.77256 -2.2205,-1.52398 -3.23565,-2.42268 -1.05647,-0.82027 -2.15084,-1.58757 -3.25879,-2.33116 -1.33636,-0.79494 -2.71571,-1.49686 -4.16578,-2.04493 -1.62373,-0.70555 -3.240693,-1.43633 -4.917505,-1.99953 -1.398994,-0.51235 -2.827593,-0.94596 -4.285649,-1.23842 -1.74079,-0.33232 -3.471293,-0.73046 -5.227607,-0.96886 -1.632467,-0.22878 -3.274249,-0.35924 -4.907568,-0.57887 -1.5593,-0.20026 -3.122114,-0.36848 -4.674049,-0.62944 -1.784138,-0.20627 -3.566829,-0.42249 -5.352949,-0.60992 -1.172918,-0.10427 -2.340169,-0.27474 -3.519415,-0.28875 -1.346725,-0.0853 -2.68532,-0.23838 -4.025591,-0.39617 -1.587284,-0.1147 -3.162538,-0.33036 -4.733321,-0.59247 -1.849973,-0.2301 -3.698321,-0.46859 -5.556417,-0.62077 -1.635256,-0.10209 -3.26887,-0.26981 -4.909223,-0.21115 -1.520062,0.0143 -3.042462,0.032 -4.557015,0.18036 -1.325948,0.15012 -2.64312,0.3742 -3.961015,0.58413 -1.314074,0.27277 -2.633637,0.52488 -3.903864,0.98031 -1.486214,0.4674 -2.953992,0.99377 -4.423227,1.51503 -1.592814,0.60936 -3.13475,1.34794 -4.748277,1.89991 -1.433839,0.59622 -2.856295,1.21529 -4.220177,1.97195 0.667759,-0.41316 1.330939,-0.83435 2.003275,-1.23947 0.229959,-0.13857 -0.446989,0.29919 -0.675882,0.43964 -1.131546,0.69427 -2.269983,1.37644 -3.405156,2.06433 -0.677295,0.41043 2.702742,-1.6529 2.031513,-1.23193 -2.111696,1.32438 -5.695656,3.46961 -1.306807,0.83125 -1.120176,0.69823 -2.188767,1.48331 -3.284959,2.22024 -0.985647,0.71877 -2.082137,1.30259 -2.899833,2.24443 -0.77006,0.71702 -1.429837,1.54531 -2.184981,2.27849 -0.726986,0.86575 -1.433493,1.75561 -2.086283,2.68127 -0.684472,0.94727 -1.346222,1.91481 -1.978321,2.89977 -0.6555456,0.97463 -1.2454805,1.99257 -1.802922,3.03033 -0.4521083,0.81828 -0.7825896,1.70171 -1.2794077,2.49605 -0.4986702,1.19016 -1.0334017,2.3662 -1.4560464,3.58886 -0.4694817,1.15309 -0.8097553,2.34532 -1.1858727,3.53289 -0.3312182,0.99176 -0.663376,1.99464 -0.8285265,3.03227 -0.174841,0.99617 -0.2191677,2.0155 -0.3561667,3.01824 -0.00427,1.0653 -0.00504,2.13057 0.00191,3.19586 0.00911,0.88916 0.01401,1.77965 0.093437,2.66583 0.09717,0.99598 0.2796436,1.98207 0.3319128,2.98154 0.057933,0.87149 0.1742479,1.73157 0.3070814,2.59372 -0.00253,0.86584 -0.00745,1.73169 -0.0035,2.59753 0.00901,0.86371 0.012249,1.72935 0.1010374,2.58924 0.1032994,0.81832 0.3240009,1.60495 0.4740157,2.41334 0.1503165,0.74662 0.2995831,1.5032 0.5557749,2.2182 0.3259967,0.76322 0.5542428,1.55257 0.7643801,2.35776 0.3236513,0.93018 0.625423,1.87034 1.0022456,2.7791 0.3925268,0.84984 0.7345463,1.72275 1.1407819,2.56603 0.4220525,0.9534 0.7156326,1.9596 1.1429756,2.91115 0.3839103,0.81252 0.7670618,1.63002 1.066872,2.47971 0.369746,0.87635 0.795631,1.72297 1.186219,2.5887 0.485619,1.053 1.071603,2.05608 1.550988,3.1132 0.505517,0.98964 0.970212,2.00326 1.520937,2.96609 0.565777,0.88565 1.103523,1.79017 1.709595,2.64816 0.478911,0.75665 0.921225,1.54634 1.507155,2.22133 0.627651,0.75469 1.414717,1.3384 2.097253,2.0372 0.689673,0.63826 1.424434,1.24286 2.225209,1.72373 0.688241,0.44995 1.441355,0.77144 2.185975,1.10716 1.011113,0.38078 2.014817,0.77546 3.001286,1.22017 1.009897,0.4114 2.021614,0.81662 3.038021,1.20945 0,0 -2.71245,1.84752 -2.71245,1.84752 z"
       inkscape:connector-curvature="0" />
    <path
       style="fill:#4d4d4d"
       d="m 99.71688,983.94798 c 0.35089,-0.0949 0.92506,-0.0949 1.27594,0 0.35088,0.0949 0.0638,0.17258 -0.63797,0.17258 -0.701765,0 -0.98885,-0.0777 -0.63797,-0.17258 z"
       id="path3280"
       inkscape:connector-curvature="0" />
  </g>
</svg>
