<?xml version="1.0" encoding="UTF-8" standalone="no"?>
<!-- Created with Inkscape (http://www.inkscape.org/) -->

<svg
   xmlns:dc="http://purl.org/dc/elements/1.1/"
   xmlns:cc="http://creativecommons.org/ns#"
   xmlns:rdf="http://www.w3.org/1999/02/22-rdf-syntax-ns#"
   xmlns:svg="http://www.w3.org/2000/svg"
   xmlns="http://www.w3.org/2000/svg"
   xmlns:sodipodi="http://sodipodi.sourceforge.net/DTD/sodipodi-0.dtd"
   xmlns:inkscape="http://www.inkscape.org/namespaces/inkscape"
   width="48"
   height="48"
   id="svg3102"
   version="1.1"
   inkscape:version="0.48.5 r10040"
   sodipodi:docname="steamMobileWheelR.svg"
   inkscape:export-filename="C:\Users\narfman0\Desktop\steamMobileWheelR.png"
   inkscape:export-xdpi="90"
   inkscape:export-ydpi="90">
  <defs
     id="defs3104" />
  <sodipodi:namedview
     id="base"
     pagecolor="#ffffff"
     bordercolor="#666666"
     borderopacity="1.0"
     inkscape:pageopacity="0.0"
     inkscape:pageshadow="2"
     inkscape:zoom="2.0143859"
     inkscape:cx="212.55043"
     inkscape:cy="142.71381"
     inkscape:document-units="px"
     inkscape:current-layer="layer1"
     showgrid="false"
     inkscape:window-width="1644"
     inkscape:window-height="936"
     inkscape:window-x="1986"
     inkscape:window-y="66"
     inkscape:window-maximized="0" />
  <metadata
     id="metadata3107">
    <rdf:RDF>
      <cc:Work
         rdf:about="">
        <dc:format>image/svg+xml</dc:format>
        <dc:type
           rdf:resource="http://purl.org/dc/dcmitype/StillImage" />
        <dc:title></dc:title>
      </cc:Work>
    </rdf:RDF>
  </metadata>
  <g
     inkscape:label="Layer 1"
     inkscape:groupmode="layer"
     id="layer1"
     transform="translate(0,-1004.3622)">
    <path
       style="fill:#000000;fill-opacity:1;stroke:none"
       id="path4486-8"
       d="m 24.272873,1008.6441 c 0.96936,0 1.93869,0 2.90804,0 0.69159,0 1.39446,0.1061 2.06738,0.282 0.59504,0.1835 1.2068,0.2623 1.79935,0.4526 0.50186,0.174 0.97283,0.4064 1.49246,0.5248 0.54092,0.1634 1.05298,0.4015 1.57078,0.634 0.5998,0.3326 1.25624,0.53 1.82843,0.92 0.4496,0.353 0.96709,0.5764 1.41964,0.9212 0.63253,0.4185 1.21124,0.9153 1.79532,1.4084 0.70105,0.5362 1.2583,1.2358 1.85681,1.8913 0.42954,0.4938 0.87069,0.9753 1.24466,1.5218 0.35124,0.6048 0.77925,1.1497 1.13586,1.7504 0.36892,0.7147 0.72708,1.4303 1.05834,2.1661 0.23756,0.7143 0.5641,1.3863 0.83053,2.0872 0.22538,0.6539 0.42753,1.3074 0.53573,1.9966 0.1698,0.6725 0.29259,1.3526 0.35745,2.046 0.13392,0.6855 0.25422,1.3707 0.3168,2.0684 0.0503,0.6779 0.0525,1.3584 0.0555,2.0379 8.9e-4,0.7415 -6.2e-4,1.4829 -0.002,2.2244 0.0503,0.7428 -0.0915,1.4675 -0.18921,2.198 -0.14851,0.5467 -0.27069,1.0975 -0.45599,1.6306 -0.26886,0.4752 -0.49709,0.977 -0.67673,1.4992 -0.17967,0.5549 -0.53243,0.9905 -0.81217,1.4821 -0.32076,0.5406 -0.61974,1.1004 -1.00065,1.595 -0.3382,0.4982 -0.66646,0.9918 -1.05795,1.443 -0.33439,0.5095 -0.81569,0.855 -1.24117,1.2635 -0.44009,0.3736 -0.8776,0.7494 -1.32714,1.109 -0.45048,0.2754 -0.86342,0.6124 -1.27907,0.9445 -0.4363,0.2739 -0.87153,0.5571 -1.35527,0.7209 -0.47886,0.1972 -0.91728,0.4826 -1.37144,0.7371 -0.54669,0.2671 -1.13388,0.4101 -1.69325,0.6444 -0.60088,0.2722 -1.24359,0.3931 -1.87026,0.573 -0.63413,0.1338 -1.26438,0.2793 -1.89621,0.4275 -0.61379,0.2249 -1.23756,0.3887 -1.88012,0.4749 -0.62116,0.068 -1.24617,0.07 -1.86979,0.071 -0.63526,6e-4 -1.27052,0 -1.90578,0 -0.71287,0 -1.42575,0 -2.13862,0 -0.66493,-2e-4 -1.32985,0 -1.99477,0 -0.63655,0 -1.27308,0 -1.90962,0 -0.56692,0.06 -1.10782,-0.097 -1.65991,-0.2026 -0.60126,-0.054 -1.18875,-0.1652 -1.78062,-0.288 -0.53678,-0.034 -0.98206,-0.3318 -1.45639,-0.5655 -0.44905,-0.2125 -0.93997,-0.3592 -1.35219,-0.6511 -0.43201,-0.3086 -0.89736,-0.5563 -1.33727,-0.8494 -0.44578,-0.2869 -0.83584,-0.6739 -1.2373003,-1.0306 -0.42223,-0.4262 -0.80442,-0.8953 -1.21898,-1.3293 -0.28538,-0.4092 -0.61313,-0.7933 -0.8469,-1.2424 -0.26626,-0.4506 -0.52363,-0.9175 -0.71776,-1.4107 -0.29254,-0.5985 -0.56895,-1.2034 -0.81576,-1.8265 -0.16287,-0.6234 -0.36886,-1.215 -0.65596,-1.7829 -0.21355,-0.5253 -0.39312,-1.067 -0.51069,-1.6275 -0.22038,-0.5676 -0.309,-1.1724 -0.44686,-1.7647 -0.13889,-0.6715 -0.29925,-1.3361 -0.44808,-2.0051 -0.13874,-0.6568 -0.17009,-1.3304 -0.19011,-2.0013 -0.0145,-0.6862 -0.0113,-1.3728 -0.01,-2.0589 0.002,-0.6903 0.002,-1.3804 0.003,-2.0704 -0.0449,-0.6823 0.0361,-1.3433 0.13985,-2.013 0.12463,-0.6605 0.23312,-1.3398 0.42197,-1.9834 0.15058,-0.5109 0.31512,-1.0247 0.55092,-1.4977 0.24964,-0.5148 0.40544,-1.0772 0.70815,-1.5601 0.31303,-0.4873 0.56188,-1.017 0.84971,-1.5203 0.24423,-0.5204 0.62669,-0.9349 0.93222,-1.4115 0.29815,-0.451 0.64511,-0.8557 0.97698,-1.2762 0.28387,-0.359 0.61872,-0.6367 0.98163,-0.8947 0.34855,-0.3267 0.7161003,-0.6157 1.0883603,-0.9073 0.42874,-0.3405 0.92211,-0.5458 1.36287,-0.8639 0.51989,-0.3917 1.08665,-0.7005 1.61853,-1.0703 0.48553,-0.3585 1.00961,-0.6386 1.52925,-0.932 0.4542,-0.2256 0.90137,-0.4676 1.34478,-0.7181 0.48973,-0.2416 0.99274,-0.4416 1.48441,-0.6783 0.53004,-0.3019 1.08265,-0.5627 1.65078,-0.768 0.59034,-0.2166 1.16404,-0.4786 1.75057,-0.7054 0.46786,-0.2792 0.97684,-0.4457 1.4804,-0.629 0.55363,-0.1531 1.1088,-0.3126 1.6343,-0.5587 0.45034,-0.2583 0.94522,-0.3398 1.44521,-0.3908 0.61067,-0.046 1.22333,-0.042 1.83512,-0.042 0.53056,6e-4 1.0611,0 1.59167,0 0.44966,6e-4 0.45075,-0.6893 8.9e-4,-0.6902 l 0,0 c -0.53103,-8e-4 -1.06205,0 -1.59308,0 -0.63186,4e-4 -1.26459,0 -1.89522,0.046 -0.56707,0.059 -1.1296,0.1582 -1.6417,0.4465 -0.50316,0.2486 -1.04947,0.3763 -1.57996,0.5358 -0.50684,0.1849 -1.02239,0.3503 -1.49219,0.6335 -0.58202,0.2272 -1.15209,0.4851 -1.73831,0.7007 -0.58614,0.2145 -1.15931,0.4784 -1.70645,0.7916 -0.50372,0.2425 -1.0198,0.4462 -1.52043,0.6971 -0.44329,0.2507 -0.89003,0.493 -1.34471,0.7181 -0.5367,0.3035 -1.0781,0.594 -1.58012,0.964 -0.53282,0.3754 -1.10744,0.6798 -1.62844,1.0774 -0.44359,0.3271 -0.95365,0.5226 -1.3823,0.8787 -0.3623203,0.2886 -0.7283303,0.5642 -1.0650303,0.8897 -0.4096,0.2958 -0.79278,0.6158 -1.11487,1.0225 -0.3438,0.4398 -0.70742,0.8603 -1.01627,1.3316 -0.309,0.4886 -0.70559,0.9087 -0.95124,1.4432 -0.2795,0.4996 -0.53163,1.0168 -0.83752,1.4997 -0.30565,0.5096 -0.49509,1.076 -0.74083,1.6199 -0.24524,0.5155 -0.43922,1.06 -0.59554,1.6144 -0.19001,0.6765 -0.31635,1.3809 -0.4418,2.0739 -0.10958,0.7066 -0.19253,1.4076 -0.14866,2.1267 -4.1e-4,0.6899 -8.9e-4,1.3798 -0.003,2.0697 -8.9e-4,0.6943 -0.004,1.3886 0.01,2.0826 0.0217,0.7181 0.0576,1.4387 0.20756,2.141 0.14995,0.672 0.31085,1.3392 0.45009,2.0138 0.13986,0.5856 0.21949,1.1882 0.44321,1.7486 0.13281,0.6213 0.32898,1.2246 0.5729,1.8046 0.27753,0.5489 0.46685,1.1227 0.62942,1.7239 0.24769,0.6232 0.52134,1.2306 0.81646,1.8282 0.2085,0.5152 0.46866,1.0094 0.75025,1.4808 0.27037,0.5008 0.62429,0.9445 0.95757,1.3956 0.42901,0.4433 0.81654,0.9327 1.25627,1.3652 0.42475,0.3773 0.8391403,0.7836 1.3110303,1.0874 0.44014,0.2857 0.89719,0.54 1.3283,0.8433 0.4459,0.2957 0.94553,0.4832 1.42858,0.6955 0.51964,0.2529 1.01286,0.572 1.59844,0.6144 0.59479,0.1234 1.18606,0.2362 1.79021,0.2898 0.58764,0.1113 1.16705,0.2738 1.77004,0.2129 0.63654,0 1.27309,0 1.90965,0 0.66487,0 1.32976,0 1.99465,2e-4 0.71255,0 1.4251,2e-4 2.13767,0 0.63656,0 1.27313,0 1.90969,0 0.64895,0 1.29934,0 1.9456,-0.077 0.66066,-0.091 1.30554,-0.2494 1.93583,-0.4853 0.64134,-0.1512 1.2811,-0.2964 1.92452,-0.4346 0.64957,-0.1867 1.3155,-0.3131 1.93792,-0.5968 0.57927,-0.2459 1.19233,-0.3842 1.75497,-0.675 0.42262,-0.2374 0.83034,-0.5011 1.27255,-0.6926 0.54747,-0.1926 1.04865,-0.5001 1.53932,-0.8225 0.41605,-0.3327 0.82959,-0.668 1.27992,-0.9453 0.46423,-0.3734 0.91872,-0.7595 1.37208,-1.1485 0.43609,-0.4252 0.9376,-0.7787 1.2815,-1.3061 0.40011,-0.4626 0.74131,-0.9645 1.0849,-1.4764 0.39505,-0.524 0.72033,-1.1024 1.05275,-1.6741 0.29662,-0.5315 0.67939,-1.0026 0.86623,-1.6029 0.17629,-0.5233 0.42059,-1.0127 0.67532,-1.4952 0.20124,-0.5796 0.33785,-1.1783 0.49026,-1.7751 0.10187,-0.7627 0.24596,-1.5209 0.19579,-2.2964 7.3e-4,-0.7428 0.002,-1.4854 0.002,-2.228 -0.003,-0.701 -0.004,-1.4029 -0.0585,-2.102 -0.0633,-0.6984 -0.17636,-1.3863 -0.31708,-2.0715 -0.0673,-0.7086 -0.18672,-1.406 -0.36337,-2.0927 -0.11823,-0.7393 -0.33068,-1.4427 -0.57488,-2.1437 -0.2732,-0.7133 -0.60243,-1.3991 -0.84673,-2.1262 -0.34248,-0.7603 -0.71269,-1.5001 -1.09565,-2.2375 -0.36627,-0.6129 -0.80015,-1.1719 -1.16055,-1.7891 -0.39477,-0.5697 -0.85017,-1.0798 -1.30273,-1.5947 -0.61877,-0.675 -1.19438,-1.3967 -1.91774,-1.95 -0.59298,-0.5004 -1.18151,-1.0039 -1.82275,-1.4301 -0.46557,-0.348 -0.98657,-0.5869 -1.44927,-0.9422 -0.60714,-0.3992 -1.28197,-0.6343 -1.91868,-0.9702 -0.55452,-0.2487 -1.1044,-0.5013 -1.68508,-0.6722 -0.50277,-0.1111 -0.95282,-0.3513 -1.44108,-0.5105 -0.60419,-0.1935 -1.22624,-0.2788 -1.83324,-0.4625 -0.72246,-0.1823 -1.47166,-0.3004 -2.21361,-0.3006 -0.96933,0 -1.93868,0 -2.90802,0 -0.44966,0 -0.44966,0.6902 0,0.6902 z"
       inkscape:connector-curvature="0" />
    <path
       style="fill:#000000;fill-opacity:1;stroke:none"
       id="path4488-8"
       d="m 26.016163,1026.3183 c 0.40887,0.8582 0.8684,1.6847 1.17866,2.5925 0.15988,0.5165 0.29196,1.0363 -0.0414,1.494 -0.35361,0.2808 -0.82172,0.2854 -1.24248,0.3131 -0.54813,0.1184 -1.0922,0.2381 -1.64902,0.2965 -0.51338,0 -1.09568,0.1844 -1.57887,-0.059 -0.28001,-0.3182 -0.27612,-0.816 -0.30218,-1.2296 0.0454,-0.4839 0.13602,-0.9633 0.38474,-1.3742 0.30526,-0.325 0.65127,-0.598 0.96409,-0.914 0.33236,-0.2856 0.68308,-0.5459 1.08772,-0.6922 0.36519,-0.2055 0.749,-0.3327 1.1517,-0.4127 0.44203,-0.089 0.32549,-0.7677 -0.11662,-0.6785 l 0,0 c -0.43189,0.089 -0.85113,0.2154 -1.24248,0.4391 -0.48651,0.1867 -0.91954,0.4855 -1.31637,0.8419 -0.34787,0.3608 -0.7576,0.6478 -1.06819,1.0522 -0.30196,0.5458 -0.45388,1.1494 -0.479,1.7868 0.046,0.6953 0.10765,1.4185 0.70336,1.8231 0.60667,0.2363 1.23988,0.1495 1.87365,0.104 0.54908,-0.059 1.08849,-0.1652 1.62696,-0.2944 0.62066,-0.044 1.26714,-0.092 1.72418,-0.6067 0.41286,-0.6835 0.37611,-1.3749 0.11598,-2.1304 -0.31694,-0.9168 -0.76738,-1.76 -1.18996,-2.6232 -0.17713,-0.4485 -0.76164,-0.1765 -0.5845,0.2719 z"
       inkscape:connector-curvature="0" />
    <path
       style="fill:#999999;fill-opacity:1;stroke:none"
       d="m 25.764353,1026.4229 c 1.04727,0.7304 1.83051,2.4933 1.48048,3.8488 -0.97831,1.1105 -2.77458,1.0222 -4.07382,0.9055 -1.51805,-0.6695 -0.99896,-2.7592 0.19874,-3.4715 0.67229,-0.6083 1.47813,-1.3134 2.3946,-1.2828 z"
       id="path4498-2"
       inkscape:connector-curvature="0" />
    <path
       style="fill:#333333;fill-opacity:1;stroke:none"
       d="m 23.806943,1008.1169 c 2.31014,0.8733 5.02138,0.1757 7.3726,1.1643 7.62663,2.2171 13.89303,9.2438 15.0731,17.7885 0.51573,4.0734 1.05773,8.6073 -1.1824,12.2147 -3.92512,8.1205 -12.88677,11.5167 -20.93539,11.3247 -5.07136,0.092 -10.90901,0.1355 -14.6756703,-4.1338 -4.28456,-5.0329 -5.93605,-12.2759 -5.65365,-19.0066 0.37496,-6.6504 4.66131,-12.3419 10.0970403,-15.0948 3.15037,-1.6661 6.39258,-3.7459 9.90437,-4.257 z m 2.16607,17.81 c -2.05619,0.2984 -4.84939,2.2017 -3.80554,4.819 1.1027,1.7292 3.33341,0.4296 4.84883,0.2372 1.48969,-0.7099 0.24198,-2.8545 -0.18879,-3.9026 -0.24758,-0.3815 -0.4348,-0.9948 -0.8545,-1.1536 z"
       id="path4500-9"
       inkscape:connector-curvature="0" />
    <path
       style="fill:#000000;fill-opacity:1;stroke:none"
       id="path4502-1"
       d="m 26.536913,1022.5702 c 0.6333,0.6211 1.23704,1.2767 1.86628,1.9024 0.38191,0.4 0.74447,0.8223 1.13346,1.2142 0.31997,0.3148 0.57377,0.6771 0.80934,1.068 0.21875,0.4713 0.49633,0.9043 0.68493,1.3924 0.19343,0.5884 0.22133,1.2157 0.24447,1.8338 0.0169,0.6856 0.0113,1.3714 0.01,2.0572 -0.01,0.5875 0.0615,1.1947 -0.16234,1.7459 -0.14465,0.3973 -0.46618,0.6674 -0.81096,0.8542 -0.4668,0.1408 -0.92103,0.3271 -1.3954,0.4395 -0.56525,0.095 -1.13047,0.1029 -1.69022,0.2362 -0.54134,0.16 -1.10592,0.1531 -1.65346,0.267 -0.52436,0.1615 -1.06193,0.2388 -1.6041,0.2818 -0.62384,0.1304 -1.24583,0.2566 -1.87876,0.3222 -0.6256,0.054 -1.25361,0.058 -1.8808,0.06 -0.53053,0.041 -0.84676,-0.068 -1.23756,-0.425 -0.27412,-0.4126 -0.52995,-0.8426 -0.82804,-1.2391 -0.27614,-0.4782 -0.73101,-0.761 -1.11332,-1.1226 -0.25328,-0.366 -0.56583,-0.6834 -0.77414,-1.0837 -0.30665,-0.4003 -0.4262,-0.8616 -0.49607,-1.365 -0.0393,-0.6144 -0.11166,-1.2444 -0.0287,-1.8567 0.0444,-0.5136 0.23947,-0.939 0.48502,-1.3666 0.28676,-0.3177 0.62946,-0.5839 0.96053,-0.8485 0.5056,-0.299 0.98898,-0.6381 1.49671,-0.9329 0.51385,-0.3134 0.95835,-0.7356 1.45444,-1.0775 0.44184,-0.3398 0.89242,-0.6583 1.33737,-0.9942 0.48683,-0.3369 0.94728,-0.7102 1.40797,-1.0871 0.41287,-0.2616 0.86594,-0.4382 1.29237,-0.6706 0.43064,-0.2676 0.91515,-0.338 1.40045,-0.3866 0.61172,-0.044 1.22528,-0.041 1.83804,-0.041 0.47224,-0.06 0.9345,-0.1799 1.40569,-0.2496 0.44549,-0.066 0.3591,-0.7498 -0.0863,-0.6836 l 0,0 c -0.44261,0.066 -0.87826,0.1686 -1.31935,0.2434 -0.63247,0 -1.26581,0 -1.89715,0.044 -0.56513,0.058 -1.12849,0.1512 -1.63065,0.4591 -0.455,0.2578 -0.9532,0.4292 -1.38629,0.7344 -0.45372,0.3725 -0.90817,0.7399 -1.38867,1.0718 -0.43707,0.332 -0.88069,0.6449 -1.31593,0.9786 -0.481,0.3356 -0.91732,0.7386 -1.41266,1.051 -0.53417,0.3118 -1.04608,0.6641 -1.57472,0.9865 -0.3925,0.3174 -0.80868,0.6274 -1.12152,1.0379 -0.29289,0.5104 -0.51685,1.0326 -0.57559,1.6403 -0.0774,0.6807 -0.0277,1.3719 0.0306,2.053 0.0846,0.5832 0.225,1.1406 0.57558,1.6081 0.25325,0.4593 0.59245,0.8489 0.90816,1.2583 0.3592,0.3323 0.77871,0.5965 1.03736,1.0384 0.32677,0.4258 0.57924,0.9102 0.91031,1.3292 0.48536,0.4406 1.00679,0.6371 1.64938,0.5863 0.64641,0 1.29368,0 1.93842,-0.062 0.62801,-0.066 1.24725,-0.1817 1.86483,-0.3208 0.56774,-0.046 1.13177,-0.1252 1.68109,-0.2934 0.54904,-0.1252 1.12409,-0.096 1.66732,-0.27 0.55873,-0.1356 1.12648,-0.1269 1.68982,-0.2361 0.52768,-0.1286 1.03836,-0.3253 1.55243,-0.5018 0.47218,-0.2756 0.90516,-0.6495 1.10604,-1.2066 0.22874,-0.647 0.22723,-1.3171 0.20882,-2.0029 0.002,-0.6958 0.006,-1.392 -0.0113,-2.0876 -0.0267,-0.7011 -0.0655,-1.4111 -0.29457,-2.0753 -0.20782,-0.5247 -0.49638,-0.9973 -0.73921,-1.5023 -0.26588,-0.4348 -0.55301,-0.8429 -0.90938,-1.1956 -0.39247,-0.3888 -0.75002,-0.8185 -1.13518,-1.2161 -0.63749,-0.6314 -1.24609,-1.2972 -1.8884,-1.9235 -0.34545,-0.3123 -0.75255,0.218 -0.40711,0.5302 z"
       inkscape:connector-curvature="0" />
    <path
       style="fill:#1a1a1a;fill-opacity:1;stroke:none"
       d="m 25.694803,1021.8086 c 2.09585,1.2793 3.69789,3.5068 5.06742,5.6385 0.79176,2.0139 1.02236,4.5941 0.17885,6.6086 -2.06042,1.91 -5.1721,1.4256 -7.67376,2.1496 -1.9101,0.4782 -4.22759,0.4811 -5.38231,-1.5566 -1.66436,-1.6055 -3.13315,-4.1882 -1.96734,-6.6088 2.64095,-2.4919 5.72094,-4.5819 8.89283,-6.2098 0.28902,-0.058 0.59528,-0.09 0.88431,-0.021 z m 0.15891,4.4526 c -1.94818,0.179 -4.90144,2.5065 -3.12987,4.7219 1.47646,0.5027 3.52239,0.4622 4.69979,-0.69 0.40517,-1.4042 -0.75689,-2.8913 -1.41094,-3.9997 -0.0437,-0.017 -0.10272,-0.032 -0.15891,-0.033 z"
       id="path4504-3"
       inkscape:connector-curvature="0" />
  </g>
</svg>
