<?xml version="1.0" encoding="UTF-8" standalone="no"?>
<!-- Created with Inkscape (http://www.inkscape.org/) -->

<svg
   xmlns:dc="http://purl.org/dc/elements/1.1/"
   xmlns:cc="http://creativecommons.org/ns#"
   xmlns:rdf="http://www.w3.org/1999/02/22-rdf-syntax-ns#"
   xmlns:svg="http://www.w3.org/2000/svg"
   xmlns="http://www.w3.org/2000/svg"
   xmlns:sodipodi="http://sodipodi.sourceforge.net/DTD/sodipodi-0.dtd"
   xmlns:inkscape="http://www.inkscape.org/namespaces/inkscape"
   width="28"
   height="28"
   id="svg3102"
   version="1.1"
   inkscape:version="0.48.5 r10040"
   sodipodi:docname="steamMobileWheelF.svg"
   inkscape:export-filename="C:\Users\narfman0\Desktop\steamMobileWheelF.png"
   inkscape:export-xdpi="90"
   inkscape:export-ydpi="90">
  <defs
     id="defs3104" />
  <sodipodi:namedview
     id="base"
     pagecolor="#ffffff"
     bordercolor="#666666"
     borderopacity="1.0"
     inkscape:pageopacity="0.0"
     inkscape:pageshadow="2"
     inkscape:zoom="2.0143859"
     inkscape:cx="212.55043"
     inkscape:cy="142.71381"
     inkscape:document-units="px"
     inkscape:current-layer="layer1"
     showgrid="false"
     inkscape:window-width="1644"
     inkscape:window-height="936"
     inkscape:window-x="1986"
     inkscape:window-y="66"
     inkscape:window-maximized="0" />
  <metadata
     id="metadata3107">
    <rdf:RDF>
      <cc:Work
         rdf:about="">
        <dc:format>image/svg+xml</dc:format>
        <dc:type
           rdf:resource="http://purl.org/dc/dcmitype/StillImage" />
        <dc:title></dc:title>
      </cc:Work>
    </rdf:RDF>
  </metadata>
  <g
     inkscape:label="Layer 1"
     inkscape:groupmode="layer"
     id="layer1"
     transform="translate(0,-1024.3622)">
    <path
       style="fill:#000000;fill-opacity:1;stroke:none"
       id="path4486-8"
       d="m 14.522261,1026.1805 c 0.541861,0 1.083704,0 1.62556,0 0.38659,0 0.779486,0.063 1.15564,0.1688 0.33262,0.1098 0.674587,0.157 1.005815,0.2709 0.280534,0.1042 0.543801,0.2433 0.834268,0.3142 0.302367,0.098 0.588603,0.2403 0.878047,0.3795 0.335281,0.1991 0.702223,0.3172 1.02207,0.5507 0.251321,0.2113 0.540592,0.345 0.793562,0.5514 0.353577,0.2505 0.677069,0.5479 1.003562,0.8431 0.391879,0.3209 0.703375,0.7397 1.037935,1.1321 0.240108,0.2956 0.486705,0.5838 0.69575,0.9109 0.196339,0.362 0.435591,0.6882 0.634932,1.0478 0.206222,0.4278 0.406429,0.8561 0.591599,1.2966 0.132794,0.4276 0.315326,0.8298 0.464257,1.2494 0.125985,0.3914 0.238984,0.7826 0.299466,1.1951 0.09492,0.4026 0.163555,0.8097 0.199811,1.2247 0.07486,0.4104 0.142106,0.8205 0.177087,1.2382 0.02812,0.4058 0.02935,0.8131 0.03102,1.2198 4.97e-4,0.4439 -3.47e-4,0.8877 -0.0011,1.3315 0.02812,0.4447 -0.05115,0.8785 -0.105766,1.3158 -0.08301,0.3272 -0.151313,0.6569 -0.254893,0.976 -0.15029,0.2845 -0.277867,0.5848 -0.378284,0.8974 -0.100433,0.3322 -0.297622,0.5929 -0.453993,0.8872 -0.179301,0.3236 -0.346428,0.6587 -0.559352,0.9548 -0.189049,0.2982 -0.372543,0.5936 -0.591381,0.8637 -0.18692,0.305 -0.455961,0.5118 -0.693799,0.7563 -0.246005,0.2237 -0.490568,0.4486 -0.741856,0.6639 -0.251813,0.1648 -0.482641,0.3666 -0.714984,0.5653 -0.243887,0.164 -0.487175,0.3335 -0.75758,0.4316 -0.267677,0.118 -0.512749,0.2889 -0.766619,0.4412 -0.305593,0.1599 -0.633825,0.2455 -0.946506,0.3857 -0.335885,0.163 -0.695152,0.2353 -1.045453,0.343 -0.354471,0.08 -0.706773,0.1672 -1.059959,0.2559 -0.343101,0.1346 -0.691781,0.2327 -1.050964,0.2843 -0.347221,0.041 -0.696594,0.042 -1.045191,0.042 -0.355102,4e-4 -0.710205,0 -1.065308,0 -0.398486,0 -0.796977,0 -1.195463,0 -0.371688,-10e-5 -0.74337,0 -1.115052,0 -0.355824,0 -0.711637,0 -1.067455,0 -0.316901,0.036 -0.619258,-0.058 -0.92787,-0.1213 -0.336097,-0.032 -0.6644972,-0.099 -0.9953453,-0.1724 -0.3000536,-0.02 -0.5489597,-0.1986 -0.8141045,-0.3385 -0.2510136,-0.1272 -0.525432,-0.215 -0.7558581,-0.3897 -0.2414884,-0.1847 -0.5016135,-0.333 -0.7475179,-0.5085 -0.2491857,-0.1717 -0.4672245,-0.4034 -0.691636,-0.6169 -0.2360215,-0.2551 -0.4496612,-0.5359 -0.6813953,-0.7957 -0.159524,-0.2449 -0.3427323,-0.4748 -0.4734069,-0.7437 -0.1488362,-0.2697 -0.2927029,-0.5492 -0.4012193,-0.8444 -0.1635263,-0.3583 -0.3180362,-0.7204 -0.456,-1.0933 -0.091042,-0.3732 -0.2061883,-0.7273 -0.3666738,-1.0673 -0.1193719,-0.3144 -0.2197494,-0.6387 -0.2854696,-0.9742 -0.1231898,-0.3397 -0.1727273,-0.7018 -0.2497894,-1.0563 -0.077638,-0.402 -0.1672772,-0.7998 -0.2504714,-1.2002 -0.077554,-0.3932 -0.095078,-0.7964 -0.1062692,-1.198 -0.00811,-0.4108 -0.00632,-0.8218 -0.00559,-1.2325 0.00112,-0.4132 0.00112,-0.8262 0.00168,-1.2393 -0.025099,-0.4084 0.020179,-0.8041 0.078174,-1.2049 0.069667,-0.3954 0.1303113,-0.802 0.2358762,-1.1873 0.084172,-0.3058 0.1761483,-0.6134 0.3079577,-0.8965 0.1395457,-0.3082 0.2266361,-0.6448 0.3958473,-0.9339 0.17498,-0.2917 0.3140842,-0.6087 0.4749777,-0.91 0.1365217,-0.3115 0.3503122,-0.5596 0.5210999,-0.8449 0.1666622,-0.27 0.3606087,-0.5122 0.5461201,-0.7639 0.1586799,-0.2149 0.3458571,-0.3812 0.5487194,-0.5356 0.1948353,-0.1956 0.4002915,-0.3686 0.6083804,-0.5431 0.2396605,-0.2038 0.5154484,-0.3267 0.761828,-0.5171 0.2906123,-0.2345 0.6074243,-0.4193 0.9047389,-0.6407 0.2714054,-0.2146 0.5643599,-0.3823 0.8548324,-0.5579 0.2538919,-0.135 0.5038549,-0.2799 0.7517157,-0.4298 0.273753,-0.1447 0.55493,-0.2644 0.829767,-0.4061 0.296286,-0.1807 0.605189,-0.3368 0.922767,-0.4597 0.329993,-0.1296 0.650684,-0.2865 0.978547,-0.4222 0.261528,-0.1672 0.546042,-0.2668 0.827526,-0.3765 0.309473,-0.092 0.619806,-0.1872 0.913554,-0.3345 0.251735,-0.1546 0.528367,-0.2034 0.807855,-0.2339 0.341358,-0.028 0.683827,-0.025 1.025811,-0.025 0.296576,3e-4 0.593142,0 0.889724,0 0.251355,3e-4 0.251964,-0.4127 4.98e-4,-0.4132 l 0,0 c -0.29684,-5e-4 -0.593674,0 -0.890513,0 -0.353202,2e-4 -0.706891,0 -1.059405,0.027 -0.316986,0.035 -0.631433,0.095 -0.917691,0.2673 -0.28126,0.1488 -0.586641,0.2253 -0.883179,0.3207 -0.283317,0.1107 -0.571504,0.2097 -0.834116,0.3792 -0.325342,0.136 -0.644005,0.2904 -0.971695,0.4195 -0.327645,0.1284 -0.64804,0.2863 -0.953885,0.4738 -0.281573,0.1452 -0.570056,0.2671 -0.8499018,0.4173 -0.247794,0.1501 -0.497516,0.2951 -0.7516767,0.4299 -0.3000088,0.1816 -0.6026449,0.3555 -0.8832681,0.577 -0.29784,0.2247 -0.6190457,0.4069 -0.9102785,0.6449 -0.2479615,0.1958 -0.5330789,0.3128 -0.7726891,0.526 -0.2025327,0.1728 -0.4071279,0.3377 -0.5953392,0.5326 -0.2289615,0.177 -0.4431545,0.3686 -0.623199,0.612 -0.1921801,0.2633 -0.3954393,0.515 -0.5680827,0.7971 -0.1727273,0.2925 -0.3944164,0.544 -0.5317318,0.8639 -0.1562372,0.2991 -0.2971748,0.6087 -0.4681637,0.8977 -0.1708547,0.3051 -0.2767493,0.6441 -0.4141151,0.9697 -0.1370862,0.3085 -0.2455187,0.6345 -0.3328997,0.9663 -0.1062133,0.405 -0.1768359,0.8266 -0.2469609,1.2415 -0.061254,0.4229 -0.107622,0.8425 -0.083099,1.273 -2.291e-4,0.413 -4.975e-4,0.8259 -0.00168,1.2389 -4.975e-4,0.4156 -0.00224,0.8312 0.00559,1.2466 0.01213,0.4299 0.032198,0.8612 0.1160235,1.2816 0.08382,0.4023 0.1737614,0.8016 0.2515949,1.2054 0.07818,0.3506 0.1226923,0.7113 0.2477491,1.0467 0.074239,0.372 0.1838959,0.7331 0.3202443,1.0803 0.1551359,0.3285 0.2609635,0.672 0.3518382,1.0319 0.1384557,0.373 0.2914228,0.7366 0.4563914,1.0943 0.116549,0.3084 0.2619753,0.6042 0.4193807,0.8864 0.1511336,0.2998 0.3489707,0.5654 0.5352702,0.8354 0.2398114,0.2654 0.4564361,0.5583 0.7022399,0.8172 0.2374301,0.2259 0.4690694,0.4691 0.7328502,0.6509 0.246033,0.171 0.5015185,0.3233 0.7425038,0.5048 0.2492528,0.177 0.52854,0.2893 0.7985591,0.4163 0.2904726,0.1514 0.5661766,0.3424 0.8935088,0.3678 0.3324806,0.074 0.6629932,0.1414 1.0007052,0.1735 0.328484,0.067 0.652367,0.1639 0.989432,0.1274 0.355818,0 0.711642,0 1.067471,0 0.371654,0 0.74332,0 1.114986,10e-5 0.398306,0 0.796613,2e-4 1.194931,0 0.35583,0 0.711665,0 1.067494,0 0.362756,0 0.726316,0 1.087567,-0.046 0.369301,-0.054 0.729782,-0.1492 1.082106,-0.2904 0.358502,-0.091 0.71612,-0.1775 1.075784,-0.2602 0.363102,-0.1118 0.735349,-0.1874 1.083274,-0.3572 0.323805,-0.1472 0.666498,-0.23 0.981007,-0.4041 0.23624,-0.1421 0.46415,-0.2999 0.71134,-0.4146 0.306029,-0.1153 0.586183,-0.2993 0.860462,-0.4923 0.232567,-0.1992 0.463731,-0.3999 0.71546,-0.5659 0.259499,-0.2235 0.513553,-0.4546 0.766976,-0.6874 0.243769,-0.2546 0.524107,-0.4662 0.716343,-0.7819 0.223657,-0.2769 0.414384,-0.5773 0.606446,-0.8837 0.220828,-0.3137 0.402656,-0.6599 0.588475,-1.0021 0.165807,-0.3182 0.379771,-0.6002 0.484212,-0.9595 0.09854,-0.3133 0.235105,-0.6062 0.377496,-0.895 0.112491,-0.347 0.188854,-0.7053 0.274049,-1.0626 0.05694,-0.4565 0.137489,-0.9104 0.109445,-1.3746 4.08e-4,-0.4446 0.0011,-0.8891 0.0011,-1.3337 -0.0017,-0.4196 -0.0022,-0.8397 -0.0327,-1.2582 -0.03538,-0.4181 -0.09858,-0.8298 -0.177244,-1.24 -0.03762,-0.4241 -0.104374,-0.8416 -0.20312,-1.2527 -0.06609,-0.4425 -0.184846,-0.8635 -0.321351,-1.2832 -0.152715,-0.4269 -0.336751,-0.8374 -0.473312,-1.2727 -0.191442,-0.4551 -0.398385,-0.8979 -0.612455,-1.3393 -0.20474,-0.3669 -0.447274,-0.7015 -0.648733,-1.071 -0.220672,-0.341 -0.475235,-0.6463 -0.728211,-0.9545 -0.345885,-0.4041 -0.667644,-0.8361 -1.071994,-1.1673 -0.331468,-0.2995 -0.660449,-0.6009 -1.018895,-0.856 -0.260248,-0.2084 -0.551481,-0.3514 -0.810125,-0.564 -0.339383,-0.239 -0.716605,-0.3797 -1.072519,-0.5808 -0.30997,-0.1489 -0.617346,-0.3001 -0.941939,-0.4024 -0.281043,-0.067 -0.532615,-0.2103 -0.805547,-0.3056 -0.337735,-0.1158 -0.685453,-0.1668 -1.024759,-0.2768 -0.403846,-0.1091 -0.82264,-0.1798 -1.237381,-0.1799 -0.541844,0 -1.083699,0 -1.625549,0 -0.251354,0 -0.251354,0.4131 0,0.4131 z"
       inkscape:connector-curvature="0" />
    <path
       style="fill:#000000;fill-opacity:1;stroke:none"
       id="path4488-8"
       d="m 15.496739,1036.7601 c 0.228554,0.5137 0.485425,1.0085 0.658857,1.5519 0.08937,0.3091 0.163202,0.6203 -0.02314,0.8943 -0.197664,0.1681 -0.459332,0.1708 -0.694532,0.1874 -0.306398,0.071 -0.610526,0.1425 -0.921782,0.1775 -0.286973,0 -0.612472,0.1104 -0.882569,-0.035 -0.156523,-0.1905 -0.154348,-0.4885 -0.168915,-0.7361 0.02538,-0.2896 0.07603,-0.5766 0.215065,-0.8226 0.170636,-0.1945 0.364052,-0.3579 0.538914,-0.5471 0.185786,-0.1709 0.381834,-0.3267 0.608023,-0.4143 0.204137,-0.123 0.418682,-0.1992 0.643786,-0.2471 0.24709,-0.053 0.181945,-0.4595 -0.06519,-0.4061 l 0,0 c -0.241421,0.053 -0.475771,0.1289 -0.694531,0.2628 -0.271953,0.1118 -0.514012,0.2907 -0.735835,0.504 -0.194455,0.216 -0.42349,0.3878 -0.597106,0.6298 -0.168792,0.3267 -0.253713,0.6881 -0.267755,1.0696 0.02571,0.4162 0.06017,0.8491 0.39317,1.0913 0.339121,0.1414 0.693078,0.09 1.047348,0.062 0.306929,-0.035 0.608453,-0.099 0.909451,-0.1762 0.346941,-0.026 0.708316,-0.055 0.963796,-0.3631 0.230784,-0.4092 0.210241,-0.823 0.06483,-1.2753 -0.177165,-0.5488 -0.428956,-1.0535 -0.665173,-1.5702 -0.09901,-0.2685 -0.425748,-0.1057 -0.326729,0.1627 z"
       inkscape:connector-curvature="0" />
    <path
       style="fill:#999999;fill-opacity:1;stroke:none"
       d="m 15.35598,1036.8227 c 0.585412,0.4373 1.023234,1.4925 0.827571,2.3039 -0.546864,0.6647 -1.550957,0.6119 -2.277217,0.542 -0.848571,-0.4007 -0.558406,-1.6516 0.111094,-2.078 0.375802,-0.3641 0.826257,-0.7862 1.338552,-0.7679 z"
       id="path4498-2"
       inkscape:connector-curvature="0" />
    <path
       style="fill:#333333;fill-opacity:1;stroke:none"
       d="m 14.261812,1025.8649 c 1.29134,0.5228 2.806891,0.1052 4.121195,0.697 4.263195,1.3271 7.766037,5.5332 8.425682,10.648 0.288287,2.4383 0.591259,5.1523 -0.660947,7.3116 -2.194095,4.8609 -7.20355,6.8938 -11.702633,6.7789 -2.834829,0.055 -6.0980057,0.081 -8.2035237,-2.4745 -2.3950178,-3.0126 -3.3181809,-7.3482 -3.1603227,-11.3772 0.2095982,-3.9808 2.6056165,-7.3877 5.6441246,-9.0356 1.7610198,-0.9973 3.5733758,-2.2422 5.5364248,-2.5482 z m 1.210807,10.6609 c -1.149386,0.1787 -2.710751,1.318 -2.127251,2.8847 0.616396,1.035 1.863336,0.2571 2.710437,0.1419 0.832719,-0.4249 0.135264,-1.7086 -0.105531,-2.336 -0.138394,-0.2284 -0.243048,-0.5955 -0.477655,-0.6906 z"
       id="path4500-9"
       inkscape:connector-curvature="0" />
    <path
       style="fill:#000000;fill-opacity:1;stroke:none"
       id="path4502-1"
       d="m 15.787832,1034.5165 c 0.354007,0.3718 0.691491,0.7643 1.043228,1.1388 0.213484,0.2394 0.41615,0.4922 0.633591,0.7268 0.178859,0.1885 0.320731,0.4053 0.452411,0.6393 0.122279,0.2821 0.277443,0.5413 0.382868,0.8335 0.108125,0.3522 0.123721,0.7277 0.136656,1.0977 0.0094,0.4104 0.0063,0.8209 0.0056,1.2314 -0.0056,0.3517 0.03438,0.7152 -0.09075,1.0451 -0.08086,0.2378 -0.260589,0.3995 -0.453317,0.5113 -0.260936,0.084 -0.514845,0.1958 -0.780012,0.2631 -0.315968,0.057 -0.631919,0.062 -0.944813,0.1414 -0.302603,0.096 -0.618196,0.092 -0.924264,0.1598 -0.293111,0.097 -0.593606,0.1429 -0.896673,0.1687 -0.348719,0.078 -0.696404,0.1536 -1.050204,0.1929 -0.349703,0.032 -0.700753,0.035 -1.051345,0.036 -0.29656,0.024 -0.473329,-0.041 -0.691781,-0.2544 -0.15323,-0.247 -0.296236,-0.5044 -0.462865,-0.7417 -0.154359,-0.2863 -0.408626,-0.4556 -0.622332,-0.672 -0.141581,-0.2191 -0.316292,-0.4091 -0.432735,-0.6487 -0.1714142,-0.2396 -0.2382412,-0.5158 -0.2772972,-0.8171 -0.02197,-0.3678 -0.06242,-0.7449 -0.01604,-1.1114 0.02482,-0.3074 0.13386,-0.5621 0.2711202,-0.818 0.160295,-0.1902 0.351861,-0.3496 0.536925,-0.5079 0.282624,-0.179 0.552828,-0.382 0.836643,-0.5585 0.287236,-0.1876 0.535706,-0.4403 0.813014,-0.645 0.246984,-0.2034 0.498852,-0.394 0.747574,-0.5951 0.272132,-0.2016 0.529518,-0.4251 0.787038,-0.6507 0.23079,-0.1566 0.484051,-0.2623 0.72242,-0.4014 0.240722,-0.1602 0.511558,-0.2023 0.782835,-0.2314 0.341944,-0.026 0.684916,-0.025 1.027442,-0.025 0.263976,-0.036 0.522374,-0.1077 0.785764,-0.1494 0.249023,-0.04 0.200732,-0.4488 -0.04824,-0.4092 l 0,0 c -0.247414,0.04 -0.490937,0.1009 -0.737501,0.1457 -0.353543,0 -0.707572,0 -1.060484,0.026 -0.315901,0.035 -0.630812,0.091 -0.911514,0.2748 -0.254339,0.1543 -0.532827,0.2569 -0.774919,0.4396 -0.253624,0.2229 -0.507656,0.4429 -0.77625,0.6415 -0.244317,0.1988 -0.492295,0.3861 -0.735589,0.5858 -0.268873,0.2009 -0.512771,0.4421 -0.78966,0.6291 -0.298595,0.1867 -0.584746,0.3976 -0.88025,0.5906 -0.219403,0.1899 -0.4520422,0.3755 -0.6269162,0.6212 -0.163722,0.3056 -0.2889131,0.6181 -0.321748,0.9819 -0.043266,0.4075 -0.015484,0.8212 0.017105,1.2289 0.04729,0.3491 0.125772,0.6828 0.321742,0.9626 0.141564,0.2749 0.3311732,0.5082 0.5076512,0.7532 0.200788,0.1989 0.435289,0.3571 0.579872,0.6216 0.18266,0.2549 0.323788,0.5448 0.508852,0.7956 0.271311,0.2638 0.562784,0.3814 0.921984,0.351 0.361335,0 0.723151,0 1.083553,-0.037 0.35105,-0.039 0.697198,-0.1088 1.042418,-0.192 0.31736,-0.028 0.632646,-0.075 0.939709,-0.1757 0.306907,-0.075 0.628353,-0.057 0.932012,-0.1616 0.312323,-0.081 0.629689,-0.076 0.944589,-0.1413 0.294967,-0.077 0.580431,-0.1947 0.86779,-0.3004 0.263943,-0.165 0.505974,-0.3888 0.618263,-0.7223 0.127863,-0.3872 0.127019,-0.7884 0.116728,-1.1989 0.0011,-0.4165 0.0034,-0.8332 -0.0063,-1.2496 -0.01493,-0.4197 -0.03661,-0.8447 -0.164661,-1.2422 -0.116169,-0.3141 -0.27747,-0.597 -0.413209,-0.8993 -0.148624,-0.2603 -0.309126,-0.5046 -0.508333,-0.7157 -0.219386,-0.2327 -0.419252,-0.4899 -0.634552,-0.7279 -0.356349,-0.378 -0.696549,-0.7765 -1.055593,-1.1514 -0.193102,-0.187 -0.420666,0.1305 -0.227569,0.3173 z"
       inkscape:connector-curvature="0" />
    <path
       style="fill:#1a1a1a;fill-opacity:1;stroke:none"
       d="m 15.317103,1034.0607 c 1.171555,0.7657 2.067076,2.0991 2.832627,3.3751 0.442584,1.2055 0.571487,2.75 0.09998,3.9559 -1.15175,1.1433 -2.891142,0.8533 -4.28954,1.2867 -1.067723,0.2863 -2.363172,0.288 -3.008647,-0.9318 -0.930357,-0.961 -1.7513934,-2.507 -1.0997192,-3.9559 1.4762592,-1.4917 3.1979372,-2.7427 4.9709852,-3.7172 0.161559,-0.035 0.332755,-0.054 0.494319,-0.013 z m 0.08883,2.6652 c -1.08901,0.1072 -2.739847,1.5004 -1.74956,2.8265 0.825323,0.301 1.968974,0.2767 2.627126,-0.413 0.226485,-0.8405 -0.423092,-1.7307 -0.788698,-2.3942 -0.02443,-0.01 -0.05742,-0.019 -0.08883,-0.02 z"
       id="path4504-3"
       inkscape:connector-curvature="0" />
  </g>
</svg>
