<?xml version="1.0" encoding="UTF-8" standalone="no"?>
<!-- Created with Inkscape (http://www.inkscape.org/) -->

<svg
   xmlns:dc="http://purl.org/dc/elements/1.1/"
   xmlns:cc="http://creativecommons.org/ns#"
   xmlns:rdf="http://www.w3.org/1999/02/22-rdf-syntax-ns#"
   xmlns:svg="http://www.w3.org/2000/svg"
   xmlns="http://www.w3.org/2000/svg"
   xmlns:sodipodi="http://sodipodi.sourceforge.net/DTD/sodipodi-0.dtd"
   xmlns:inkscape="http://www.inkscape.org/namespaces/inkscape"
   width="512"
   height="256"
   id="svg2"
   version="1.1"
   inkscape:version="0.48.5 r10040"
   sodipodi:docname="welder.svg"
   inkscape:export-filename="C:\Users\narfman0\Desktop\welder.png"
   inkscape:export-xdpi="90"
   inkscape:export-ydpi="90">
  <defs
     id="defs4" />
  <sodipodi:namedview
     id="base"
     pagecolor="#ffffff"
     bordercolor="#666666"
     borderopacity="1.0"
     inkscape:pageopacity="0.0"
     inkscape:pageshadow="2"
     inkscape:zoom="2.0042164"
     inkscape:cx="226.1565"
     inkscape:cy="140.79943"
     inkscape:document-units="px"
     inkscape:current-layer="layer1"
     showgrid="false"
     inkscape:window-width="1703"
     inkscape:window-height="924"
     inkscape:window-x="103"
     inkscape:window-y="30"
     inkscape:window-maximized="0" />
  <metadata
     id="metadata7">
    <rdf:RDF>
      <cc:Work
         rdf:about="">
        <dc:format>image/svg+xml</dc:format>
        <dc:type
           rdf:resource="http://purl.org/dc/dcmitype/StillImage" />
        <dc:title></dc:title>
      </cc:Work>
    </rdf:RDF>
  </metadata>
  <g
     inkscape:label="Layer 1"
     inkscape:groupmode="layer"
     id="layer1"
     transform="translate(0,-796.36218)">
    <path
       style="fill:#000000;fill-opacity:1;stroke:none"
       d="m 344.32697,986.40277 c -4.49882,5.113 -10.68307,2.1208 -15.89426,4.4389 -7.30508,0.9815 -14.19382,6.6371 -17.45804,16.83903 -3.31319,8.7856 -7.34681,22.6974 -1.09696,30.6486 8.21086,7.1419 18.0769,8.4255 27.1673,11.8367 6.14572,0.8165 13.08818,2.8791 18.88175,-0.916 5.85773,-8.8127 5.25308,-22.878 5.92825,-34.4884 1.40819,-15.13544 -8.75125,-26.17603 -17.52804,-28.35883 z"
       id="path2991-1"
       inkscape:connector-curvature="0" />
    <path
       style="fill:#000000;fill-opacity:1;stroke:none"
       id="path2985"
       d="m 231.92022,849.55253 c -1.88329,1.55695 -3.59974,3.35779 -5.34017,5.12936 -1.41305,1.37885 -2.64028,2.9978 -3.85537,4.61778 -0.83228,1.24905 -1.5486,2.5826 -2.23742,3.94821 -0.67106,1.53629 -1.22923,3.14297 -1.58872,4.824 -0.33633,1.71652 -0.718,3.4048 -0.91706,5.15702 -0.051,1.89527 -0.40791,3.7382 -0.65826,5.60284 -0.24508,1.97358 -0.61527,3.91677 -0.82311,5.89889 -0.17338,2.10526 -0.19448,4.22251 -0.20906,6.33614 -0.007,2.07288 -0.003,4.14579 -6.4e-4,6.21867 0.003,1.82399 0.003,3.64798 0.003,5.47195 2.7e-4,1.78726 2.3e-4,3.57452 2.2e-4,5.36179 -0.0142,1.83294 0.29597,3.64774 0.72392,5.39984 0.53517,1.90327 0.52669,3.92588 0.79968,5.88512 0.40518,1.96271 0.45291,3.98897 0.72138,5.97458 0.26943,2.08359 0.64537,4.13925 0.98857,6.20599 0.39238,1.89484 0.28114,3.87366 0.56166,5.78063 0.33415,1.5742 0.50841,3.17819 0.60644,4.79513 -0.0302,1.614 0.13889,3.16248 0.40816,4.73554 0.2066,1.75436 0.60268,3.45599 0.83574,5.20569 0.24084,2.00093 0.29342,4.0232 0.32416,6.04134 -0.0887,1.79758 0.0928,3.54153 0.33796,5.30719 0.28371,2.2371 0.34207,4.502 0.38956,6.76027 -0.0741,1.94623 0.0968,3.84118 0.35776,5.75514 0.14565,1.80726 0.41695,3.57524 0.71341,5.35327 0.29875,1.81533 0.37888,3.66437 0.42685,5.50895 0.0332,1.7986 0.0275,3.5978 0.0258,5.3966 -0.13308,1.5961 0.20609,3.1194 0.43383,4.6742 0.23404,1.7423 0.27092,3.50934 0.29745,5.26994 0.0198,2.0185 0.0157,4.0374 0.0142,6.0559 -0.001,1.8262 -0.003,3.6525 -0.003,5.4788 -4.4e-4,1.7882 -4.4e-4,3.5765 -4.4e-4,5.3647 0,1.789 2e-5,3.5778 3e-5,5.3665 0.0667,1.7087 -0.12726,3.4455 0.0825,5.141 0.188,1.1554 0.33425,2.4498 1.11029,3.2648 0.96298,0.6442 2.11216,0.6483 3.18641,0.7044 1.47714,0.043 2.95499,0.023 4.43239,0.018 1.54388,-0.027 3.05867,0.4194 4.58665,0.6407 1.46142,0.1895 2.93241,0.217 4.40084,0.2372 1.36562,-0.036 2.68798,0.441 4.03338,0.6623 1.38814,0.1946 2.78744,0.2139 4.18325,0.2329 1.48909,0.018 2.97825,0 4.46737,0 1.62786,0.1184 3.22124,-0.1183 4.82667,-0.3991 1.60696,-0.2981 3.23026,-0.4089 4.85359,-0.4693 1.50597,-0.041 3.01246,-0.038 4.51873,-0.036 1.49249,0 2.98501,0 4.47752,0 1.38703,0 2.75871,0.09 4.12282,-0.2369 1.34718,-0.3778 2.72477,-0.5147 4.10276,-0.5981 1.48748,-0.068 2.9764,-0.065 4.46473,-0.065 1.46463,-0.056 2.94165,0.1255 4.39762,-0.095 1.36724,-0.1362 2.62007,-0.7962 3.93497,-1.2029 1.28784,-0.1852 2.51292,-0.6834 3.7786,-0.999 1.15126,-0.2977 2.34333,-0.5959 3.45332,-1.0799 1.13394,-0.4202 2.24255,-0.9089 3.36985,-1.3536 1.36866,-0.4811 2.79932,-0.5536 4.21525,-0.6109 1.49467,-0.041 2.98989,-0.031 4.48483,-0.029 1.49541,0 2.99085,0 4.48628,0 1.36274,0.1237 2.6667,-0.065 3.99532,-0.3867 1.36466,-0.2905 2.73781,-0.3834 4.09639,-0.7146 1.38538,-0.2224 2.72514,-0.5934 4.07519,-1.0121 1.39564,-0.4107 2.8341,-0.4912 4.26405,-0.5473 1.49232,-0.041 2.98518,-0.032 4.47776,-0.03 1.49492,0 2.98983,0 4.48475,0 1.49382,9e-4 2.98766,9e-4 4.48148,9e-4 1.49373,0 2.98745,0 4.48116,0 1.49375,0 2.98748,0 4.48122,0 1.49372,0 2.98746,0 4.4812,0 1.49372,0 2.98746,0 4.48119,0 1.29136,0.1022 2.47704,-0.4282 3.62383,-1.0765 1.01668,-0.8615 2.00164,-1.766 2.99051,-2.6723 0.75359,-0.8255 1.2817,-1.8333 1.79991,-2.8754 0.58076,-1.1543 0.94599,-2.3897 1.32504,-3.6496 0.47965,-1.6156 0.67045,-3.3174 1.01034,-4.9783 0.38433,-1.7842 0.48671,-3.6197 0.5494,-5.4526 0.0166,-2.1606 0.0241,-4.3003 0.26486,-6.44384 0.26013,-1.9254 0.40019,-3.8668 0.47394,-5.8138 0.0588,-2.1365 0.0512,-4.2746 0.0517,-6.4118 -8.4e-4,-2.26636 -0.003,-4.53251 -0.004,-6.79885 -8.8e-4,-1.85819 -0.001,-3.71637 -0.001,-5.57474 -4e-5,-1.78627 -10e-6,-3.57273 -10e-6,-5.35919 -0.23192,-2.22258 -0.46476,-4.44282 -0.60926,-6.67652 -0.29343,-1.9145 -0.58881,-3.82236 -0.74863,-5.76052 -0.007,-1.83595 -0.23683,-3.62313 -0.47068,-5.43074 -0.23432,-2.03662 -0.67941,-4.02249 -0.92347,-6.05964 -0.0765,-1.88695 -0.45799,-3.71801 -0.68135,-5.58181 -0.19629,-2.23074 -0.55997,-4.43343 -1.02525,-6.60402 -0.4174,-1.89324 -0.56836,-3.83918 -0.91918,-5.74815 -0.24394,-1.80591 -0.55751,-3.58582 -0.87906,-5.37373 -0.2851,-1.78687 -0.35251,-3.59463 -0.64547,-5.37907 -0.29275,-1.68606 -0.35935,-3.3971 -0.71364,-5.06596 -0.37421,-1.86663 -0.8297,-3.69632 -1.08874,-5.59529 -0.23024,-1.80482 -0.62413,-3.55523 -0.79908,-5.37613 -0.44954,-2.06519 -0.59765,-4.19152 -0.89852,-6.28696 -0.32798,-2.02196 -0.52474,-4.05804 -0.91609,-6.06285 -0.37771,-1.87269 -0.51243,-3.79192 -0.5897,-5.71052 -0.02,-1.58125 -0.40125,-3.11097 -0.58288,-4.67346 -0.23036,-1.65576 -0.0641,-3.35557 -0.28655,-5.00602 -0.31591,-1.55975 -0.48597,-3.14547 -0.58317,-4.74363 -0.01,-1.72443 -0.2172,-3.43404 -0.60108,-5.09515 -0.4951,-1.79496 -0.74225,-3.65293 -0.88034,-5.5296 -0.13775,-1.43451 -0.57133,-2.63577 -1.16553,-3.86118 -0.65951,-1.0007 -1.2572,-2.10593 -2.15078,-2.82874 -0.88937,-0.93358 -2.02512,-1.38179 -3.04343,-2.06445 -1.31385,-0.90847 -2.76342,-1.39393 -4.16916,-2.02966 -1.454,-0.5335 -2.87195,-1.17398 -4.36087,-1.56146 -1.53284,-0.33263 -3.03141,-0.82246 -4.57689,-1.07953 -1.49006,-0.2121 -2.99244,-0.22801 -4.49088,-0.24257 -1.59877,0.15296 -3.15025,-0.24762 -4.71614,-0.54912 -1.56193,-0.26583 -3.14368,-0.29544 -4.71854,-0.32869 -1.7552,-0.0233 -3.51055,-0.0183 -5.26582,-0.0161 -1.76537,0.0574 -3.51064,0.0126 -5.26188,-0.25789 -1.85848,-0.34093 -3.73247,-0.4894 -5.60934,-0.57483 -1.67506,-0.0629 -3.35112,-0.0628 -5.0268,-0.0637 -1.69213,10e-4 -3.38425,0.004 -5.07637,0.005 -1.67147,10e-4 -3.34293,10e-4 -5.0144,10e-4 -1.79192,5e-5 -3.58384,10e-6 -5.37577,0 -1.54401,-2e-5 -3.08802,-2e-5 -4.63203,-2e-5 -1.54171,-0.0194 -3.06723,-0.0669 -4.59027,0.24239 -1.43968,0.35281 -2.9016,0.50659 -4.36676,0.5934 -1.49185,0.0678 -2.98511,0.0646 -4.4778,0.0653 -1.49423,-10e-4 -2.98845,-0.004 -4.48272,-0.005 -1.38735,-0.007 -2.75936,-0.0906 -4.12381,0.23646 -1.34718,0.3777 -2.72475,0.51458 -4.10271,0.59797 -1.35612,-0.0638 -2.65641,0.13163 -3.97844,0.45271 -1.04878,0.63815 -2.21886,0.82862 -3.31887,1.2689 -1.1777,0.62671 -2.47965,0.64452 -3.70726,1.01279 -1.18001,0.41666 -2.39158,0.59563 -3.56637,1.02792 -1.21372,0.31116 -2.39815,0.69453 -3.59354,1.09312 -1.24178,0.22055 -2.41568,0.7436 -3.63782,1.06877 -1.42243,0.32439 -2.8741,0.36065 -4.31725,0.39312 -1.334,-0.13826 -2.60885,0.2655 -3.90895,0.53632 -1.42564,0.27193 -2.87092,0.31751 -4.31133,0.35175 -1.05603,0.0249 -1.08556,-1.76413 -0.0295,-1.78915 l 0,0 c 1.36476,-0.0321 2.73431,-0.0719 4.08553,-0.32577 1.37348,-0.2848 2.72803,-0.69889 4.13637,-0.56235 1.34452,-0.0299 2.69722,-0.0588 4.02364,-0.35148 1.19603,-0.31303 2.34412,-0.83624 3.55975,-1.04549 1.1823,-0.39223 2.35466,-0.77722 3.55517,-1.0797 1.20529,-0.44218 2.44443,-0.63856 3.65562,-1.05711 1.19738,-0.33335 2.44824,-0.39016 3.59573,-0.97518 1.1615,-0.44 2.36686,-0.69988 3.48231,-1.32028 1.39382,-0.33853 2.77237,-0.54678 4.20031,-0.48614 1.30596,-0.0782 2.61155,-0.2055 3.88796,-0.56624 1.46246,-0.34275 2.92872,-0.29384 4.41459,-0.27042 1.49367,10e-4 2.98731,0.004 4.48096,0.005 1.46843,-7.9e-4 2.93741,0.002 4.40504,-0.0631 1.40694,-0.0825 2.81054,-0.23006 4.19275,-0.57083 1.60595,-0.32057 3.21277,-0.29704 4.83773,-0.26713 1.54399,0 3.08801,2e-5 4.63202,2e-5 1.7919,2e-5 3.58379,6e-5 5.37568,0 1.67115,-9e-5 3.34231,-1.2e-4 5.01345,-10e-4 1.69268,-0.001 3.38532,-0.004 5.07798,-0.005 1.69444,8.1e-4 3.38927,8.3e-4 5.08308,0.0649 1.92187,0.0879 3.84087,0.2404 5.74403,0.58832 1.68703,0.26196 3.36773,0.29712 5.06886,0.24311 1.76456,-0.002 3.52921,-0.007 5.29369,0.0161 1.64547,0.035 3.29792,0.0689 4.92945,0.35114 1.49261,0.28804 2.96618,0.68125 4.49098,0.52645 1.56345,0.0161 3.13097,0.0342 4.68531,0.2597 1.58307,0.26625 3.11985,0.75848 4.68952,1.10369 1.56033,0.41148 3.05059,1.06986 4.57332,1.63731 1.47162,0.67852 2.99788,1.18275 4.37365,2.14487 1.05402,0.72614 2.25026,1.17293 3.17099,2.16152 1.04416,0.91423 1.82826,2.1374 2.5787,3.38991 0.70406,1.45201 1.19792,2.91541 1.36194,4.60403 0.1284,1.77132 0.36336,3.52296 0.83369,5.21597 0.3969,1.77502 0.64188,3.59443 0.64955,5.43557 0.0933,1.55326 0.26588,3.0912 0.57052,4.60739 0.19662,1.6652 0.0954,3.35672 0.28894,5.02597 0.18561,1.61527 0.58488,3.19598 0.5953,4.83316 0.0721,1.81033 0.19563,3.62173 0.55217,5.38883 0.3983,2.04057 0.6033,4.11143 0.93407,6.16952 0.30069,2.12938 0.46531,4.28484 0.91016,6.38506 0.16883,1.7929 0.56874,3.51305 0.78937,5.29183 0.24911,1.84813 0.70199,3.62548 1.06233,5.44278 0.3588,1.70215 0.44651,3.44014 0.73142,5.16078 0.29027,1.77467 0.37094,3.56853 0.63997,5.34715 0.3205,1.78513 0.63471,3.56298 0.87764,5.36586 0.34672,1.88928 0.50189,3.81269 0.90715,5.68772 0.47847,2.23386 0.85325,4.50075 1.05717,6.79603 0.22073,1.86358 0.60627,3.69485 0.68132,5.58146 0.24124,2.03052 0.69259,4.00814 0.92092,6.0392 0.23738,1.83935 0.47122,3.66185 0.48109,5.52937 0.15935,1.95089 0.47315,3.86736 0.75133,5.79746 0.14699,2.27978 0.39909,4.54343 0.61372,6.81478 -10e-6,1.78628 -4e-5,3.57274 0,5.35901 1e-4,1.85801 2.1e-4,3.71584 0.001,5.57367 10e-4,2.26687 0.003,4.53356 0.004,6.8005 -5.6e-4,2.1643 0.007,4.3294 -0.0533,6.4927 -0.0764,2 -0.21937,3.9943 -0.48586,5.9721 -0.23655,2.08794 -0.2307,4.17284 -0.25269,6.27794 -0.0675,1.9514 -0.18245,3.9054 -0.59111,5.805 -0.35254,1.7222 -0.54861,3.4882 -1.05644,5.1606 -0.41432,1.3667 -0.82663,2.7043 -1.44839,3.961 -0.61914,1.2315 -1.26287,2.4265 -2.17758,3.3803 -1.07718,0.9749 -2.12782,1.9873 -3.26187,2.8687 -1.34629,0.7471 -2.74573,1.3532 -4.25609,1.2447 -1.49372,0 -2.98748,0 -4.4812,0 -1.49374,0 -2.98748,0 -4.4812,0 -1.49373,0 -2.98747,0 -4.48119,0 -1.49373,0 -2.98747,0 -4.4812,0 -1.49411,0 -2.98822,0 -4.48234,-9e-4 -1.4953,-9e-4 -2.99061,0 -4.48591,0 -1.47569,0 -2.95166,-0.018 -4.42709,0.029 -1.32014,0.05 -2.64908,0.1184 -3.93868,0.4914 -1.37499,0.4255 -2.74189,0.805 -4.15174,1.0333 -1.35976,0.3303 -2.73126,0.4388 -4.09799,0.715 -1.42489,0.3448 -2.83278,0.5442 -4.29211,0.4219 -1.496,0 -2.99202,0 -4.48803,0 -1.4773,0 -2.95485,-0.018 -4.4319,0.027 -1.27499,0.05 -2.56485,0.104 -3.80041,0.5231 -1.11796,0.4363 -2.21714,0.9239 -3.3399,1.3414 -1.18333,0.4849 -2.42384,0.8412 -3.6459,1.1441 -1.24258,0.3055 -2.44528,0.8041 -3.70991,0.9798 -1.37882,0.4207 -2.69422,1.1169 -4.12988,1.2465 -1.51813,0.2046 -3.04737,0.077 -4.57319,0.1076 -1.46357,9e-4 -2.92771,0 -4.39047,0.063 -1.30596,0.079 -2.61154,0.2055 -3.88793,0.5663 -1.46205,0.3427 -2.9279,0.2941 -4.41338,0.271 -1.49255,0 -2.98511,0 -4.47766,0 -1.4905,0 -2.98124,0 -4.47146,0.036 -1.56642,0.057 -3.13289,0.1632 -4.68348,0.4512 -1.67575,0.2941 -3.34285,0.5349 -5.04134,0.4182 -1.49536,0 -2.99077,0 -4.48611,0 -1.45841,-0.02 -2.92046,-0.043 -4.37052,-0.2496 -1.28358,-0.2134 -2.5458,-0.6648 -3.8463,-0.6456 -1.52275,-0.022 -3.04811,-0.052 -4.56343,-0.2502 -1.46593,-0.2134 -2.91981,-0.6405 -4.39935,-0.6278 -1.50195,0 -3.00439,0.031 -4.50607,-0.018 -1.44886,-0.077 -2.95876,-0.1453 -4.17022,-1.2193 -0.95248,-1.1971 -1.34951,-2.6735 -1.54048,-4.2966 -0.18879,-1.7834 -0.059,-3.5873 -0.0961,-5.3818 -1e-5,-1.789 -3e-5,-3.5778 -3e-5,-5.3666 2e-5,-1.7886 0,-3.577 4.6e-4,-5.3654 5.6e-4,-1.8266 0.001,-3.6533 0.003,-5.4799 0.001,-2.0074 0.006,-4.0148 -0.0142,-6.022 -0.0248,-1.6679 -0.0568,-3.34214 -0.27531,-4.99334 -0.24141,-1.6551 -0.58985,-3.2871 -0.45624,-4.985 0.001,-1.7796 0.007,-3.5596 -0.0249,-5.3391 -0.0449,-1.7455 -0.11721,-3.4958 -0.39865,-5.21411 -0.2996,-1.79811 -0.57447,-3.58798 -0.72281,-5.41514 -0.2717,-1.99358 -0.44854,-3.97281 -0.3768,-5.99867 -0.0455,-2.17505 -0.0993,-4.35639 -0.3698,-6.51154 -0.25695,-1.85066 -0.44411,-3.68553 -0.35795,-5.56828 -0.0292,-1.93494 -0.0775,-3.87418 -0.30591,-5.79298 -0.22746,-1.72334 -0.62269,-3.39897 -0.82379,-5.12714 -0.28203,-1.64748 -0.46252,-3.27774 -0.43473,-4.96627 -0.0934,-1.5616 -0.2679,-3.1077 -0.58976,-4.62798 -0.25496,-1.89692 -0.19487,-3.84318 -0.55355,-5.7276 -0.34644,-2.08919 -0.72578,-4.16754 -0.99864,-6.2735 -0.25993,-1.98542 -0.32269,-4.00531 -0.72041,-5.96725 -0.25331,-1.89018 -0.26055,-3.83488 -0.75936,-5.67226 -0.46591,-1.91502 -0.79609,-3.89886 -0.78381,-5.90147 2e-5,-1.7871 5e-5,-3.57421 -2.2e-4,-5.36131 -3.9e-4,-1.82327 -0.001,-3.64654 -0.003,-5.46981 -0.003,-2.07871 -0.007,-4.15741 7e-4,-6.2361 0.0152,-2.18345 0.038,-4.37068 0.22074,-6.54511 0.21139,-2.00237 0.58041,-3.96648 0.83039,-5.95981 0.24948,-1.85121 0.60354,-3.679 0.65306,-5.56102 0.20955,-1.82123 0.60033,-3.57842 0.95091,-5.36253 0.40241,-1.84615 1.00596,-3.61821 1.75637,-5.30115 0.73766,-1.46216 1.50954,-2.8874 2.4058,-4.22009 1.26221,-1.67611 2.53241,-3.35605 3.9982,-4.78407 1.74391,-1.77508 3.46286,-3.58245 5.3511,-5.14035 0.81143,-0.81008 1.76769,0.56464 0.95628,1.37472 z"
       inkscape:connector-curvature="0" />
    <path
       style="fill:#000000;fill-opacity:1;stroke:none"
       id="path2987"
       d="m 228.77734,849.03743 c 2.50759,-0.99899 5.10401,-1.55378 7.67869,-2.22032 1.92663,-0.45386 3.83975,-0.932 5.75134,-1.46793 1.46951,-0.47251 3.00272,-0.39384 4.49188,-0.67788 1.48876,-0.38073 2.99663,-0.59794 4.51387,-0.72026 1.50799,-0.0976 3.01877,-0.0981 4.52849,-0.1015 1.47081,-0.2577 2.9326,-0.55793 4.4137,-0.72389 1.64286,-0.0212 3.25411,-0.30197 4.87809,-0.56503 2.18433,-0.31956 4.38515,-0.40684 6.5831,-0.46682 1.7105,-0.0378 3.42137,-0.0342 5.13207,-0.033 1.67005,0.12715 3.29924,-0.0793 4.94375,-0.38921 1.53026,-0.17143 3.027,-0.49831 4.5321,-0.85795 1.51582,-0.35814 3.05975,-0.45463 4.60012,-0.51221 1.4748,-0.29304 2.94434,-0.59302 4.43377,-0.7596 1.35501,0.0361 2.64708,-0.39956 3.96657,-0.68838 1.24035,-0.24195 2.42129,-0.74582 3.66563,-0.99315 1.44982,-0.23673 2.91579,-0.25244 4.37639,-0.2706 1.51248,-0.0126 2.9951,-0.44915 4.49741,-0.6442 1.83306,-0.17126 3.65973,-0.17466 5.48096,-0.49145 1.63397,-0.30464 3.20927,-0.90773 4.84267,-1.23283 1.52455,-0.26594 3.06724,-0.2958 4.60482,-0.31745 1.46797,0.0233 2.91436,0.0423 4.36435,-0.24315 1.43538,-0.41193 2.93364,-0.3367 4.37244,-0.68035 1.30627,-0.43198 2.64382,-0.6434 3.99173,-0.76422 1.48037,-0.10275 2.96394,-0.10096 4.44624,-0.10401 1.49551,8e-5 2.99103,0.004 4.48657,0.005 1.52383,0.002 3.04766,0.002 4.5715,0.002 1.68489,9e-5 3.36978,5e-5 5.05467,3e-5 1.52339,-10e-6 3.04679,-10e-6 4.57018,-10e-6 1.5635,0 3.12701,0 4.69053,0 1.80512,0 3.61026,0 5.41537,0 1.78769,0 3.5754,0 5.36309,0 1.59486,0 3.18972,0 4.78456,0 1.68483,0 3.36965,0 5.05448,0 1.52228,0 3.04454,0 4.56683,0 1.46526,0.0344 2.90914,0.0455 4.35587,-0.2428 1.50687,-0.35006 3.03493,-0.50496 4.56576,-0.59307 1.50478,-0.0672 3.01091,-0.0644 4.5165,-0.0653 1.29747,0.031 2.55772,-0.42138 3.83783,-0.63491 1.45008,-0.20854 2.91226,-0.23156 4.37076,-0.25183 1.3709,-0.0611 2.69896,0.42582 4.04808,0.65171 1.38835,0.19897 2.78836,0.2198 4.18475,0.23957 1.48904,0.0125 2.97816,0.007 4.46725,0.005 1.49492,-0.002 2.98985,-0.004 4.48476,-0.004 1.4939,-3.6e-4 2.98778,-3.2e-4 4.48166,-3.2e-4 1.48547,-0.0224 2.95137,-0.071 4.41342,0.2718 1.24997,0.24159 2.47192,0.66974 3.62554,1.29422 1.13615,0.73315 2.08485,1.76609 3.06862,2.74615 0.95875,0.99058 1.86516,2.06749 2.71681,3.19108 0.75195,1.28164 1.60018,2.46252 2.29916,3.79069 0.77012,1.2467 1.53536,2.46969 2.19129,3.80841 0.56202,1.46119 1.07027,2.9394 1.79661,4.29977 0.85764,1.61326 1.43088,3.39475 2.03576,5.1535 0.64563,1.80154 1.24596,3.59252 1.58759,5.51492 0.15188,1.82524 0.50795,3.60759 0.75052,5.41645 0.22414,1.81927 0.2644,3.65961 0.29079,5.49515 0.0166,1.79496 0.01,3.59006 0.009,5.38507 -0.003,1.78918 -0.003,3.57836 -0.004,5.36754 -4.1e-4,1.78938 -3.8e-4,3.57878 -3.8e-4,5.36817 10e-6,1.78949 2e-5,3.57899 4e-5,5.36848 0.10133,1.74781 -0.0652,3.434 -0.35303,5.14055 -0.26482,1.56736 -0.32631,3.16674 -0.36956,4.76049 0.003,1.61832 -0.3939,3.18226 -0.57742,4.77831 -0.16225,1.66441 -0.17773,3.34224 -0.19312,5.0158 0.10076,1.85436 -0.23666,3.66343 -0.46164,5.48522 -0.20411,1.74212 -0.24776,3.502 -0.27627,5.25831 -0.0198,1.78336 -0.0152,3.56691 -0.0142,5.35035 0.001,1.7897 0.003,3.5794 0.003,5.3691 4.4e-4,1.7896 4.2e-4,3.57921 4.4e-4,5.3688 0,1.78951 -2e-5,3.57903 -3e-5,5.36854 0,1.7895 0,3.579 0,5.36851 0,1.7895 0,3.57901 0,5.36851 0,1.78951 0,3.57901 0,5.36852 0,1.7895 0,3.579 0,5.36833 0,1.7895 0,3.57901 0,5.36851 0,1.78951 0,3.57901 0,5.36852 0,1.7895 0,3.579 0,5.36851 0,1.78947 0,3.57897 0,5.36847 0,1.7895 0,3.5791 0,5.3686 0,1.7895 0,3.579 0,5.36854 0.21547,1.7611 0.46837,3.5112 0.60822,5.2846 0.12217,1.8117 0.13265,3.6304 0.14175,5.447 -9.5e-4,1.6437 -0.26096,3.3217 -0.66701,4.8915 -0.36225,1.3918 -1.09566,2.5759 -1.92177,3.6233 -0.72469,0.9447 -1.47015,1.8758 -2.25931,2.7452 -0.61729,1.047 -1.37928,1.9266 -2.12035,2.8511 -0.95787,0.9734 -1.80152,2.0927 -2.84984,2.9287 -1.02069,0.901 -2.17355,1.5704 -3.28698,2.2953 -1.31698,0.694 -2.51964,1.6426 -3.84235,2.3221 -1.11604,0.6493 -2.09115,1.5348 -3.25112,2.0755 -1.39139,0.5204 -2.85848,0.5548 -4.30298,0.5952 -1.49675,0.023 -2.99369,0.018 -4.49052,0 -1.49512,0 -2.99026,0 -4.48539,0 -1.49376,-7e-4 -2.98756,-7e-4 -4.48133,-6e-4 -1.75063,0.1345 -3.46869,-0.2648 -5.19377,-0.5471 -1.59826,-0.2204 -3.19412,-0.2586 -4.77873,-0.6052 -1.40925,-0.359 -2.84321,-0.5037 -4.27934,-0.585 -1.43767,0.063 -2.82588,-0.1416 -4.2294,-0.482 -1.36655,-0.2738 -2.7376,-0.38 -4.09713,-0.7091 -1.33076,-0.3098 -2.56958,-0.9583 -3.9042,-1.263 -1.34303,-0.1147 -2.64702,-0.3696 -3.9609,-0.7137 -1.30156,-0.2844 -2.6088,-0.3465 -3.8971,-0.7187 -1.25729,-0.4365 -2.57426,-0.4189 -3.84988,-0.7118 -1.23122,-0.4214 -2.49382,-0.6196 -3.76704,-0.7311 -1.44626,-0.097 -2.89548,-0.095 -4.34352,-0.099 -1.49453,0 -2.98905,0 -4.48358,0 -1.2455,0 -2.49099,0 -3.73649,0 -1.05622,10e-5 -1.05644,-1.7894 -2.1e-4,-1.7895 l 0,0 c 1.24509,-4e-4 2.49016,-6e-4 3.73525,0 1.4959,0 2.99176,0 4.48764,0 1.4838,0 2.96883,10e-4 4.45072,0.1022 1.33399,0.1183 2.65935,0.3213 3.94989,0.7609 1.28807,0.3251 2.6387,0.2499 3.90885,0.7275 1.27558,0.3719 2.57733,0.4013 3.86456,0.7098 1.30294,0.3412 2.59289,0.5817 3.9248,0.7047 1.33877,0.3126 2.58821,0.9313 3.91754,1.2661 1.35892,0.3301 2.73221,0.4203 4.09722,0.7092 1.33053,0.3228 2.6393,0.5145 4.00393,0.4483 1.50257,0.086 3.00292,0.2387 4.47763,0.6124 1.56138,0.3443 3.13715,0.3605 4.71171,0.5924 1.65855,0.2715 3.30815,0.6651 4.99154,0.5306 1.49405,0 2.9881,-2e-4 4.48215,5e-4 1.49636,9e-4 2.99274,0 4.48908,0 1.48385,0 2.9678,0.018 4.45157,0 1.2748,-0.034 2.57081,-0.054 3.80563,-0.4782 1.14613,-0.5084 2.07758,-1.4675 3.19839,-2.0503 1.28238,-0.6468 2.43553,-1.5915 3.71454,-2.2482 1.07975,-0.7006 2.19732,-1.3455 3.18445,-2.2221 0.96787,-0.7309 1.69497,-1.8189 2.5875,-2.6685 0.76609,-0.9551 1.53927,-1.8627 2.1914,-2.9344 0.77198,-0.8333 1.48406,-1.7509 2.18901,-2.663 0.68441,-0.8308 1.2759,-1.8101 1.57581,-2.9289 0.3853,-1.3745 0.57865,-2.89 0.59572,-4.3345 -0.009,-1.7642 -0.0181,-3.5304 -0.1352,-5.2902 -0.14311,-1.8295 -0.42692,-3.6301 -0.6148,-5.4522 0,-1.78954 0,-3.57904 0,-5.36854 0,-1.7895 0,-3.579 0,-5.3686 0,-1.7895 0,-3.579 0,-5.36829 0,-1.7895 0,-3.579 0,-5.36851 0,-1.7895 0,-3.57901 0,-5.36851 0,-1.78951 0,-3.57901 0,-5.36851 0,-1.78951 0,-3.57901 0,-5.36852 0,-1.7895 0,-3.57901 0,-5.36851 0,-1.78951 0,-3.57901 0,-5.36851 0,-1.78951 0,-3.57901 2e-5,-5.36852 0,-1.7895 10e-6,-3.57893 10e-6,-5.36844 0,-1.78938 0,-3.57877 -4.4e-4,-5.36815 -5.5e-4,-1.78927 -10e-4,-3.57855 -0.003,-5.36784 -10e-4,-1.79572 -0.006,-3.59157 0.0142,-5.38719 0.0299,-1.83239 0.0777,-3.66828 0.2921,-5.4856 0.21567,-1.74247 0.5466,-3.46887 0.4456,-5.24281 0.0161,-1.74906 0.0342,-3.50254 0.20718,-5.2416 0.1784,-1.53423 0.55487,-3.03835 0.56408,-4.59118 0.0463,-1.69317 0.11578,-3.39172 0.39836,-5.0565 0.26849,-1.59155 0.42628,-3.15361 0.32342,-4.78606 -1e-5,-1.78951 -3e-5,-3.57901 -3e-5,-5.3685 0,-1.78961 -2e-5,-3.57921 3.7e-4,-5.36882 5.4e-4,-1.78981 10e-4,-3.57962 0.004,-5.36942 0.001,-1.78395 0.007,-3.56797 -0.009,-5.35184 -0.0249,-1.75102 -0.0609,-3.50683 -0.27219,-5.24275 -0.23739,-1.77997 -0.59207,-3.53384 -0.7372,-5.33041 -0.31628,-1.8176 -0.90383,-3.4989 -1.50735,-5.2031 -0.57034,-1.66259 -1.10715,-3.34854 -1.91518,-4.87481 -0.72871,-1.38202 -1.27857,-2.86028 -1.82404,-4.35356 -0.64836,-1.3233 -1.41436,-2.52436 -2.16881,-3.76405 -0.64676,-1.24534 -1.45339,-2.33536 -2.14261,-3.54234 -0.79759,-1.06803 -1.66343,-2.07616 -2.56462,-3.01565 -0.88226,-0.88455 -1.73171,-1.81395 -2.74035,-2.49688 -1.03317,-0.59606 -2.16212,-0.92542 -3.28663,-1.16198 -1.36435,-0.32717 -2.73631,-0.24423 -4.12363,-0.23781 -1.49374,0 -2.98749,-4e-5 -4.48124,3e-4 -1.49447,4.7e-4 -2.98894,10e-4 -4.48339,0.004 -1.49559,0.002 -2.9912,0.007 -4.48674,-0.005 -1.45997,-0.0208 -2.92366,-0.0448 -4.3749,-0.25685 -1.27469,-0.21564 -2.53041,-0.67287 -3.82295,-0.63442 -1.39575,0.0192 -2.79504,0.0393 -4.18304,0.23502 -1.34762,0.22248 -2.67363,0.70191 -4.04215,0.65184 -1.482,7.9e-4 -2.96457,-0.002 -4.44581,0.0631 -1.4732,0.0841 -2.94363,0.23264 -4.39355,0.57116 -1.52806,0.30077 -3.05267,0.30909 -4.59944,0.26673 -1.52227,0 -3.04455,0 -4.56683,0 -1.68482,0 -3.36964,0 -5.05446,0 -1.59486,0 -3.18972,0 -4.78457,0 -1.7877,0 -3.57539,0 -5.36308,0 -1.80512,0 -3.61027,0 -5.41538,0 -1.56351,0 -3.12703,0 -4.69054,0 -1.52337,2e-5 -3.04677,2e-5 -4.57016,4e-5 -1.68493,10e-6 -3.36988,5e-5 -5.05482,-4e-5 -1.52428,-1.4e-4 -3.04853,-3.6e-4 -4.57281,-0.002 -1.49416,-0.002 -2.98831,-0.005 -4.48249,-0.005 -1.44628,0.004 -2.89376,8.2e-4 -4.33823,0.0992 -1.29216,0.11405 -2.57184,0.32296 -3.82378,0.73771 -1.45812,0.31895 -2.95689,0.30274 -4.41031,0.68837 -1.52468,0.29649 -3.0449,0.29825 -4.58762,0.26642 -1.46186,0.0204 -2.92869,0.0456 -4.37868,0.29361 -1.64344,0.32358 -3.22568,0.94728 -4.87232,1.23835 -1.83971,0.31791 -3.68316,0.33896 -5.53493,0.49958 -1.55027,0.19872 -3.0793,0.6565 -4.64194,0.6544 -1.38471,0.0179 -2.77447,0.0296 -4.14962,0.24701 -1.23583,0.24066 -2.40533,0.76103 -3.6402,0.98789 -1.36124,0.296 -2.69898,0.74079 -4.09598,0.70967 -1.52038,0.16857 -3.01653,0.49905 -4.52563,0.76641 -1.45788,0.054 -2.91948,0.14113 -4.3544,0.47852 -1.52464,0.36405 -3.04244,0.6955 -4.59202,0.87075 -1.72084,0.32435 -3.43032,0.53644 -5.17695,0.41097 -1.69905,-10e-4 -3.39824,-0.005 -5.09708,0.0325 -2.14244,0.0583 -4.28771,0.14184 -6.41705,0.45118 -1.64388,0.26587 -3.27696,0.54986 -4.93953,0.5734 -1.52649,0.16965 -3.02943,0.50588 -4.5495,0.73162 -1.47735,0.004 -2.95574,0.004 -4.43147,0.0974 -1.47507,0.11764 -2.9399,0.33362 -4.3872,0.70358 -1.45475,0.25905 -2.94198,0.21946 -4.37811,0.65151 -1.92001,0.53778 -3.84172,1.01876 -5.77659,1.47475 -2.55934,0.66037 -5.1389,1.2151 -7.63139,2.20714 -1.02468,0.30688 -1.38698,-1.42918 -0.36228,-1.73608 z"
       inkscape:connector-curvature="0" />
    <path
       style="fill:#008080;fill-opacity:1;stroke:none"
       d="m 393.71202,834.71977 c -26.64908,0.54192 -53.49917,-0.58253 -79.91481,4.44578 13.36518,0.87921 27.03748,0.58111 40.08247,4.44912 5.62147,2.12691 12.12296,6.05093 12.36162,14.14489 2.83779,22.04707 5.25852,44.18524 9.09193,66.03988 4.8784,28.99213 7.12574,58.9392 3.83821,88.36016 -0.69645,5.0472 -2.58736,9.971 -6.06829,13.1138 9.32164,1.7049 18.75743,3.0536 28.08511,5.0407 12.37949,1.8819 25.20036,4.6075 37.56921,1.614 6.93404,-3.5982 14.05437,-9.1828 17.77843,-16.9443 0.023,-38.03706 -1.61391,-76.16932 1.38489,-114.10649 0.0964,-13.95505 1.72843,-28.49148 -1.61194,-42.05524 -3.28262,-9.57448 -7.87337,-20.45469 -16.29104,-24.34996 -15.43527,0.0825 -30.87052,0.16516 -46.30579,0.24766 z"
       id="path2993"
       inkscape:connector-curvature="0" />
    <path
       style="fill:#333333;fill-opacity:1;stroke:none"
       d="m 303.36441,841.51427 c -14.19844,0.64228 -28.30024,3.07535 -42.50143,3.88657 -9.70402,0.92719 -19.19075,3.73402 -28.80106,5.28461 -8.47753,5.31321 -13.65359,16.04788 -14.28385,27.37371 -4.41883,28.53052 4.00292,56.63151 5.1706,85.02632 2.37877,22.43058 1.69034,45.09612 3.32503,67.58422 0.82161,3.4284 5.47729,1.595 7.72539,2.6284 12.53441,1.3844 25.07592,2.0901 37.64294,0.741 11.72898,-0.3172 23.39338,-1.8316 34.76913,-5.2821 17.8475,-2.0346 35.76997,-3.1697 53.71518,-3.4836 5.75389,0.1806 13.00395,-0.2729 15.28744,-8.0528 4.46468,-15.5208 2.45952,-32.39979 2.56735,-48.51215 -0.6919,-26.74131 -7.01064,-52.66836 -10.0667,-79.07143 -1.95032,-12.13384 -1.95497,-24.94407 -5.40746,-36.60285 -7.01948,-9.16091 -18.59499,-8.7521 -28.16734,-10.10589 -10.30934,-0.81821 -20.63921,-1.53054 -30.97522,-1.41401 z"
       id="path2995"
       inkscape:connector-curvature="0" />
    <path
       style="fill:#ffff00;fill-opacity:1;stroke:none"
       id="path2997"
       d="m 355.9581,961.02985 c -0.2141,2.96212 -0.45678,5.92048 -0.61298,8.88816 0.0866,1.78754 -0.4943,3.8376 0.11819,5.53852 0.67493,0.79854 1.76207,0.76842 2.65007,0.83387 1.46868,0.0574 2.93865,0.0251 4.40776,0.0179 1.12323,0.0968 1.81779,-0.11297 2.17502,-1.39964 0.22561,-1.50456 -0.12783,-3.07439 -0.27981,-4.58038 -0.37697,-1.78376 -0.67437,-3.57954 -0.84228,-5.40868 -0.16683,-1.24471 -0.39319,-2.15031 -1.4053,-2.61369 -1.29939,-0.34036 -2.62703,-0.36421 -3.93919,-0.63679 -1.45261,-0.33749 -2.92742,-0.4693 -4.4031,-0.54569 -0.74001,-0.0323 -1.48051,-0.0394 -2.22091,-0.0484 -1.05618,-0.0179 -1.04152,-1.80188 0.015,-1.78932 l 0,0 c 0.75709,0 1.51427,0.0179 2.27095,0.0502 1.53971,0.0807 3.07846,0.21949 4.59432,0.57026 1.42549,0.29768 2.88274,0.26881 4.27694,0.75783 1.59391,0.88283 2.01889,2.04846 2.29652,4.0614 0.16533,1.82358 0.48224,3.60627 0.84035,5.3886 0.18064,1.79417 0.59674,3.6493 0.19261,5.43217 -0.7054,2.06531 -1.72192,2.6379 -3.55894,2.55165 -1.50452,0.0179 -3.00995,0.0484 -4.51395,-0.0179 -1.51787,-0.11835 -3.09509,-0.27849 -3.95603,-1.99662 -0.5747,-2.02568 -0.25155,-4.17133 -0.20877,-6.2743 0.15449,-2.9302 0.38663,-5.85198 0.61004,-8.77536 0,-1.26534 1.49373,-1.26534 1.49373,0 z"
       inkscape:connector-curvature="0" />
    <path
       style="fill:#008080;fill-opacity:1;stroke:none"
       id="path2999"
       d="m 336.90572,875.50614 c -2.00826,1.11557 -4.04113,2.24887 -5.70051,4.03274 -1.1032,1.29142 -1.52023,2.97055 -2.0527,4.633 -0.42453,1.33174 -0.78026,2.75924 -0.67975,4.19669 0.0242,1.33767 0.53204,2.1405 1.20985,3.11725 0.86663,1.02773 2.10218,1.32622 3.23158,1.74669 1.38403,0.49196 2.82534,0.61555 4.25927,0.69433 1.48523,0.0579 2.97155,0.0481 4.45733,0.0452 1.06033,-0.14597 2.54242,0.47065 3.3668,-0.56956 0.82899,-0.78525 1.00401,-1.93845 1.14404,-3.12493 0.23818,-1.49572 -0.0993,-2.92517 -0.31485,-4.38765 -0.1778,-1.29914 -0.93037,-2.00122 -1.55949,-2.97817 -0.56918,-1.08041 -1.33151,-1.60855 -2.21846,-2.2212 -0.82633,-0.7908 -1.64789,-1.6275 -2.59675,-2.20043 -0.9076,-0.8243 -1.92902,-1.16762 -3.03545,-1.36303 -0.86668,-0.0995 -0.42719,-0.0583 -1.31856,-0.1223 -1.05429,-0.0766 -0.96383,-1.86285 0.0904,-1.78623 l 0,0 c 0.97192,0.0714 0.48834,0.0249 1.45071,0.13898 1.2573,0.23119 2.46288,0.61579 3.50032,1.54386 0.9576,0.60679 1.84322,1.38817 2.65829,2.24086 1.04642,0.73093 1.97475,1.44388 2.6588,2.68682 0.7467,1.20204 1.66542,2.15585 1.84119,3.75016 0.24206,1.64747 0.59236,3.27282 0.32194,4.95618 -0.2022,1.62424 -0.54465,3.1742 -1.66874,4.24462 -1.29894,1.17038 -2.75461,1.02684 -4.31777,0.98149 -1.50958,0.004 -3.01972,0.0125 -4.52873,-0.047 -1.56114,-0.087 -3.12888,-0.23221 -4.63425,-0.77328 -1.41243,-0.52738 -2.90094,-0.95486 -3.93782,-2.3135 -0.86186,-1.24949 -1.51348,-2.46992 -1.55079,-4.15258 -0.0626,-1.70271 0.24095,-3.36968 0.7773,-4.94755 0.62516,-1.92744 1.15141,-3.85664 2.45513,-5.32748 1.77413,-1.86654 3.88122,-3.1351 6.0236,-4.29447 0.94473,-0.56588 1.61275,1.03468 0.66802,1.60057 z"
       inkscape:connector-curvature="0" />
    <path
       style="fill:#008080;fill-opacity:1;stroke:none"
       id="path3001"
       d="m 241.48642,961.24684 c -0.51118,2.89577 -1.12914,5.76249 -1.58758,8.67153 -0.37971,2.05133 -0.29217,4.16774 -0.55035,6.23233 -0.34641,1.5259 -0.39636,3.11509 -0.68014,4.65103 -0.16988,1.15558 -0.81634,2.56509 -0.37293,3.71512 0.80211,0.70221 1.94178,0.63391 2.88946,0.69791 1.5044,0.018 3.06772,-0.20817 4.52106,-0.69289 1.19892,-0.42895 2.43143,-0.92605 3.69427,-0.87117 0.14834,0.0663 0.47918,0.0179 0.445,0.19762 -0.41725,2.26004 -1.25919,1.78734 -1.76458,0.39828 -0.17697,-0.48633 -0.22501,-1.04619 -0.29511,-1.5614 -0.15646,-1.76081 -0.13888,-3.53561 -0.1386,-5.30413 0.004,-1.80367 0.01,-3.60735 0.0113,-5.41102 0.01,-1.37687 -0.1532,-2.26167 1.59928,-1.58148 0.13817,0.0538 0.56885,1.178 0.59661,1.24542 0.44913,1.71796 1.08909,3.32311 1.76794,4.92181 0.7626,1.29744 1.28015,2.77491 2.08964,4.03217 0.53902,1.15182 1.33183,1.53235 2.36076,1.77337 1.48102,0.23814 2.98114,0.203 4.47213,0.20443 1.49793,-0.0699 2.95778,0.40582 4.43418,0.63715 0.97997,0.0556 1.08171,-0.772 1.2393,-1.74324 0.17511,-1.64981 0.14565,-3.31898 0.14073,-4.97865 -8e-5,-1.69016 -0.22,-3.42336 0.55142,-4.91446 1.38261,-1.13012 2.2695,0.62459 2.70564,1.99734 0.63508,1.26408 0.76179,2.73187 1.11981,4.10749 0.40801,1.4009 0.56309,2.86457 0.92962,4.27802 0.18381,1.29959 0.68838,1.81515 1.69613,2.14171 1.30993,0.39972 2.58998,0.13628 3.89282,-0.12195 0.97385,-0.26415 1.52679,-1.06789 1.54692,-2.25952 -0.0883,-1.37113 -0.43505,-2.73258 -0.8872,-3.99343 -0.59024,-1.29367 -1.13094,-2.58697 -1.60555,-3.95344 -0.60355,-1.68173 -0.81154,-3.48738 -0.93623,-5.29535 -0.15981,-1.73122 0.0414,-3.49401 -0.16988,-5.21483 -0.26418,-1.14196 -0.11663,-2.59988 -0.97091,-3.38157 -1.10908,-0.62765 -2.38864,-0.57564 -3.58781,-0.61007 -1.79293,0 -3.61435,0.26917 -5.36519,0.73918 -1.55008,0.51844 -3.13486,0.80751 -4.73584,0.96335 -1.07674,0.23958 -2.57932,-0.37784 -3.41636,0.67552 -0.50788,1.1373 -0.48852,2.4939 -0.52356,3.75117 -0.0928,1.20436 0.25344,2.97736 -0.56613,3.94555 -0.15902,0.18793 -0.38145,0.27849 -0.57218,0.41765 -0.27693,-0.0628 -0.58416,-0.0233 -0.83081,-0.18686 -0.64601,-0.42751 -1.17308,-2.30668 -1.36092,-3.07528 -0.42383,-1.10662 -1.06464,-2.09185 -1.62554,-3.11204 -0.60847,-0.85987 -1.37323,-1.52105 -2.26095,-1.89405 -1.23816,-0.49046 -2.45863,-0.2602 -3.71076,-0.0305 -0.75736,0.19062 -1.40414,0.6271 -2.06856,1.07416 -0.92109,0.61922 -1.65215,-0.94128 -0.73108,-1.5605 l 0,0 c 0.82044,-0.55143 1.63829,-1.06287 2.57362,-1.28255 1.50045,-0.2749 2.97752,-0.48543 4.45144,0.12015 1.17894,0.53458 2.21123,1.39517 2.99484,2.59164 0.6395,1.17029 1.38485,2.29556 1.81309,3.60196 0.12486,0.53852 0.25017,1.03938 0.49191,1.52213 0.0757,0.15063 0.1948,0.27473 0.24473,0.44078 0.0585,0.19439 -1.21301,-0.47109 -0.5083,0.11657 -0.0373,0.0699 -0.10204,0.12732 -0.11182,0.20945 -0.021,0.17574 0.1647,-0.30486 0.19307,-0.4788 0.13407,-0.8224 0.0629,-1.64874 0.0914,-2.48045 0.0512,-1.76978 0.0687,-3.63586 1.06074,-5.06563 1.2776,-1.15792 2.71086,-1.03096 4.25187,-1.08386 1.53359,-0.14705 3.04999,-0.42895 4.53432,-0.9273 1.87152,-0.48759 3.8078,-0.79531 5.72327,-0.78043 1.56244,0.0466 3.2076,0.0179 4.56287,1.08206 1.04158,1.24399 1.21793,2.7706 1.43971,4.45825 0.18624,1.76009 0.0527,3.54045 0.17839,5.30898 0.1097,1.62255 0.28486,3.24528 0.82693,4.75485 0.47275,1.36558 1.01801,2.65028 1.60374,3.94843 0.52743,1.53701 0.96797,3.16888 0.99748,4.8429 -0.20319,1.99394 -1.08815,3.43091 -2.79002,3.86701 -1.52371,0.3031 -3.03254,0.5601 -4.55753,0.075 -1.43436,-0.5292 -2.41572,-1.48051 -2.70288,-3.32865 -0.36704,-1.41866 -0.53206,-2.88268 -0.93266,-4.29004 -0.33404,-1.35302 -0.48283,-2.77061 -1.09322,-4.01209 -0.10218,-0.35847 -0.13067,-0.52704 -0.28532,-0.8405 -0.0802,-0.16319 -0.43604,-0.27921 -0.32435,-0.41263 0.0944,-0.11298 0.26238,-0.0556 0.39359,-0.0843 0.0383,-0.0699 0.0765,-0.13987 0.11479,-0.20981 -0.4545,0.22272 -0.22204,3.24421 -0.2589,3.84459 0.004,1.78449 0.0373,3.58063 -0.17249,5.35202 -0.34612,1.8797 -1.10881,3.30001 -2.89572,3.15041 -1.41241,-0.22308 -2.80934,-0.67803 -4.24092,-0.6219 -1.59064,-0.002 -3.19182,0.0359 -4.76996,-0.24084 -1.35502,-0.34269 -2.52152,-0.95456 -3.25343,-2.44781 -0.84399,-1.35858 -1.44341,-2.89344 -2.22931,-4.29955 -0.68328,-1.60964 -1.34014,-3.22394 -1.78259,-4.95749 -0.0631,-0.16319 -0.11919,-0.32978 -0.18914,-0.48849 -0.0527,-0.12015 -0.26735,-0.26146 -0.17837,-0.34449 1.20737,-1.1276 1.03551,-0.62154 1.01139,0.39685 -0.003,1.8026 -0.009,3.6052 -0.0113,5.40779 -2.3e-4,1.67599 -0.0167,3.35754 0.12075,5.02743 0.0113,0.10401 0.24456,1.10125 0.18223,1.2379 -0.0225,0.0502 -0.09,0.0341 -0.13491,0.0502 -0.0516,0.57923 -0.10332,1.15845 -0.15505,1.7375 -7.6e-4,0.052 0.086,2e-4 0.12911,2e-4 -1.01931,-0.2598 -2.20288,0.6201 -3.1881,0.8151 -1.61594,0.5084 -3.32556,0.7964 -4.99523,0.7517 -1.57132,-0.1094 -3.31625,-0.1202 -4.22125,-1.9193 -0.37814,-1.59465 -0.051,-3.12073 0.33444,-4.68159 0.29961,-1.48501 0.29911,-3.04892 0.66005,-4.52603 0.2848,-2.07571 0.14386,-4.22585 0.55843,-6.28847 0.46493,-2.94293 1.08717,-5.8439 1.6062,-8.77321 0.25616,-1.22767 1.70531,-0.79352 1.44914,0.43397 z"
       inkscape:connector-curvature="0" />
    <path
       style="fill:#008080;fill-opacity:1;stroke:none"
       id="path3003"
       d="m 288.74004,962.81935 c 0,2.72775 0,5.45567 0,8.18341 0,2.00775 0,4.01567 0,6.02342 0.0677,1.70755 -0.12826,3.4438 0.0825,5.1379 0.34149,1.0539 1.3507,1.09891 2.16975,1.21745 1.43259,0.12911 2.87131,0.095 4.30673,0.0843 1.26738,-0.0771 2.72777,-0.0897 3.83528,-0.91797 0.7701,-0.90668 0.41145,-2.0992 0.16685,-3.1983 -0.32794,-1.55925 -1.04499,-2.99082 -1.74646,-4.35352 -0.71579,-1.4443 -1.17318,-3.06201 -1.56703,-4.66878 -0.39489,-1.78879 -0.46699,-3.64142 -0.51456,-5.48113 0.0203,-0.99545 0.0169,-2.42504 -1.06122,-2.46754 -1.05626,-0.0628 -1.89993,0.75299 -2.79641,1.29886 -0.94276,0.57062 -1.61634,-1.02646 -0.6736,-1.59708 l 0,0 c 1.21846,-0.73237 2.33802,-1.70881 3.78695,-1.45058 1.83887,0.62388 2.27367,1.97314 2.23732,4.16128 0.0431,1.68855 0.10161,3.39036 0.45538,5.03479 0.35283,1.45721 0.76526,2.92644 1.40827,4.23822 0.76702,1.51907 1.56022,3.0941 1.91564,4.82873 0.42347,1.93925 0.60398,3.83778 -0.87105,5.20945 -1.3878,0.89843 -3.00104,1.1314 -4.56554,1.1531 -1.50101,0.018 -3.0058,0.048 -4.50334,-0.097 -1.54695,-0.24151 -3.01233,-0.72659 -3.46295,-2.75084 -0.18951,-1.78251 -0.0585,-3.58618 -0.0962,-5.37999 0,-2.00774 0,-4.01549 0,-6.02341 0,-2.72775 0,-5.45567 0,-8.18341 0,-1.26533 1.49373,-1.26533 1.49373,0 z"
       inkscape:connector-curvature="0" />
    <path
       style="fill:#008080;fill-opacity:1;stroke:none"
       id="path3007"
       d="m 320.23554,964.96769 c -1.14545,1.97637 -2.58537,3.68446 -3.70141,5.68288 -0.72749,1.11433 -1.4317,2.33627 -1.42839,3.80101 0.33035,0.79155 1.36144,0.78151 2.00278,0.86974 1.14609,0.1596 2.24951,-0.2394 3.29781,-0.74977 0.0789,-0.061 0.45474,-0.29589 0.50583,-0.4953 0.0113,-0.0502 -0.0995,0.0269 -0.11366,0.0753 -0.055,0.1908 0.0968,0.65562 -0.0652,0.60056 -0.1425,-0.0484 -0.25747,-0.17574 -0.38621,-0.26379 -1.19091,-0.98235 -1.38229,-2.44351 -1.28747,-4.05028 0.0223,-1.95215 0.94683,-3.02991 2.40818,-3.63693 1.38593,-0.52704 2.7466,-0.12373 4.12777,0.15781 1.24868,0.22505 2.42755,0.76447 3.6755,1.01445 1.65319,0.37928 2.3057,1.83559 2.63269,3.65666 0.33088,1.68962 -0.23771,3.12657 -0.75599,4.63955 -0.59584,1.36342 -1.06907,2.65027 -2.12519,3.58331 -1.19385,0.63195 -2.50408,0.916 -3.77301,1.29026 -1.1304,0.65167 -2.32506,1.00423 -3.56081,1.21099 -1.46798,0.18991 -2.94675,0.18973 -4.4214,0.1978 -1.56837,0.0807 -3.07397,-0.37461 -4.43572,-1.28685 -1.03221,-0.60756 -1.73141,-1.74754 -2.68561,-2.47722 -1.00163,-0.74224 -1.77687,-1.72854 -2.47532,-2.85184 -0.95334,-1.09318 -1.34138,-2.49946 -1.57405,-4.01172 -0.25602,-1.68873 -0.0779,-3.36436 0.39146,-4.97059 0.26162,-1.44233 1.08696,-2.43257 1.74501,-3.60501 0.70715,-0.97841 1.31505,-2.02765 1.93613,-3.08048 0.51502,-1.11165 1.34688,-1.94104 1.8879,-3.02543 0.63433,-1.15666 1.32993,-2.23943 2.16162,-3.20152 1.05509,-1.12958 2.16409,-1.95915 3.527,-2.42648 1.45484,-0.39506 2.92113,-0.45997 4.38424,-0.13629 1.21609,0.26953 2.35143,0.91152 3.44736,1.57754 0.98366,0.68826 1.77468,1.66039 2.62323,2.55075 0.89702,1.20113 1.79104,1.3645 2.2018,3.05107 -0.19695,1.68837 -1.52617,2.26508 -2.67268,2.90456 -1.14993,0.72161 -2.36839,1.24991 -3.55153,1.87989 -1.2385,0.73147 -2.5913,0.96908 -3.95023,1.112 -0.73727,0.0646 -1.47646,0.0789 -2.21524,0.0951 -1.05605,0.0233 -1.08314,-1.7662 -0.0271,-1.78915 l 0,0 c 0.70468,-0.0179 1.4098,-0.0269 2.11313,-0.0879 1.19797,-0.12374 2.39056,-0.31633 3.48075,-0.9689 1.17938,-0.61025 2.379,-1.14698 3.52,-1.86285 0.65734,-0.36619 1.06577,-0.70942 1.65935,-1.09892 0.0495,-0.0323 0.16929,0.14705 0.17677,0.15602 0.26006,-0.56829 -1.55614,-1.4547 -1.72282,-2.04738 -0.75076,-0.79711 -1.45418,-1.65627 -2.31121,-2.297 -0.97046,-0.58981 -1.97013,-1.17603 -3.04697,-1.41471 -1.23625,-0.28316 -2.47347,-0.21663 -3.70713,0.10042 -1.13178,0.36619 -2.0135,1.07058 -2.89333,1.99286 -0.74517,0.8545 -1.3579,1.8225 -1.92624,2.85202 -0.5823,1.10394 -1.38175,1.99968 -1.94217,3.12334 -0.62302,1.03705 -1.21197,2.09185 -1.92032,3.0534 -0.61021,1.05265 -1.34017,1.89513 -1.57442,3.20816 -0.41937,1.29008 -0.51194,2.6761 -0.32426,4.03934 0.18503,1.26946 0.49775,2.36138 1.30657,3.26716 0.58849,0.97088 1.23627,1.78664 2.09588,2.42002 0.91657,0.74205 1.63552,1.77318 2.60859,2.4202 1.1087,0.80105 2.39504,1.09963 3.68267,1.04763 1.40879,0 2.82145,0 4.22431,-0.18113 1.18976,-0.19349 2.31382,-0.57599 3.40866,-1.1762 1.09632,-0.32136 2.20454,-0.61473 3.27566,-1.02109 0.85886,-0.63966 1.06618,-1.81909 1.59731,-2.79553 0.40694,-1.18158 0.92516,-2.26723 0.67439,-3.59694 -0.17964,-1.1077 -0.38522,-2.01187 -1.41878,-2.25378 -1.24876,-0.25536 -2.43214,-0.77326 -3.67791,-1.01499 -1.14165,-0.23367 -2.25954,-0.62281 -3.4107,-0.22129 -0.93748,0.33552 -1.38746,0.81056 -1.38419,2.06961 -0.0597,0.90291 -0.12174,1.74073 0.53945,2.36389 1.71451,1.17925 1.43402,2.22957 -0.12089,3.29442 -1.28355,0.62244 -2.6373,1.06197 -4.0362,0.8683 -1.49911,-0.22093 -3.05899,-0.62657 -3.31837,-2.71699 0.095,-1.80241 0.71954,-3.34696 1.68235,-4.73082 1.15549,-2.04056 2.60447,-3.81339 3.79252,-5.82831 0.67618,-0.97213 1.82369,0.17395 1.14751,1.14554 z"
       inkscape:connector-curvature="0" />
    <path
       style="fill:#ffff00;fill-opacity:1;stroke:none"
       d="m 355.85518,967.45012 c -0.40339,3.54475 -0.84696,9.45304 3.66433,8.66795 2.76999,0.87081 5.66899,-1.2474 4.50454,-4.97705 -0.0293,-4.14119 -1.01091,-9.78587 -5.59445,-9.01423 -3.93828,-2.02496 -1.84396,2.76056 -2.57442,5.32333 z"
       id="path3009"
       inkscape:connector-curvature="0" />
    <path
       style="fill:#008080;fill-opacity:1;stroke:none"
       d="m 334.89622,877.77956 c -4.54297,0.98499 -7.96614,10.0446 -4.13111,13.86861 4.39696,1.33679 9.7335,3.40599 14.02711,1.09047 3.21413,-7.02935 -3.40939,-13.32066 -8.56564,-14.90317 -0.43616,-0.10993 -0.88875,-0.1058 -1.33036,-0.0559 z"
       id="path3011"
       inkscape:connector-curvature="0" />
    <path
       style="fill:#000000;fill-opacity:1;stroke:none"
       id="path3013"
       d="m 239.77724,878.69657 c -1.61598,0.48493 -3.16943,1.04373 -4.62537,2.28805 -0.80377,1.00376 -1.69979,1.75209 -2.36462,3.014 -0.66304,1.11452 -1.21729,2.43629 -1.61821,3.84227 -0.17488,1.03013 -0.64496,2.64812 -0.0244,3.48486 0.71067,0.78147 1.45571,1.21033 2.29686,1.45726 1.15092,0.20172 2.32547,0.37911 3.47808,0.1481 0.85926,-0.44202 1.69871,-1.1081 2.24394,-2.30219 0.68063,-1.09987 0.9018,-2.46211 1.03914,-3.95111 0.0704,-0.92703 0.0856,-1.86091 0.10411,-2.79325 0.0295,-1.459 1.3052,-1.39163 1.27574,0.0675 l 0,0 c -0.0207,1.01439 -0.0382,2.03044 -0.1182,3.03852 -0.17684,1.82654 -0.48092,3.55294 -1.2996,4.91891 -0.80283,1.57739 -1.87011,2.58595 -3.10008,3.0728 -1.28173,0.22205 -2.57915,0.0927 -3.8567,-0.16962 -1.13065,-0.34733 -2.16009,-0.96283 -3.05182,-2.18083 -0.84184,-1.89075 -0.61504,-3.59106 -0.14147,-5.67153 0.46507,-1.56849 1.06466,-3.06951 1.81301,-4.32286 0.78721,-1.42244 1.77199,-2.38264 2.72917,-3.47914 1.59437,-1.35574 3.29351,-1.99708 5.06216,-2.51022 0.89558,-0.18101 1.0539,1.86745 0.15831,2.04852 z"
       inkscape:connector-curvature="0" />
    <path
       style="fill:#000000;fill-opacity:1;stroke:none"
       id="path3015"
       d="m 234.17833,880.95024 c -1.79786,0.91027 -3.48249,2.21571 -5.08374,3.80116 -0.9566,1.07658 -1.79463,2.38087 -2.595,3.74395 -0.66178,1.29839 -1.18074,2.75596 -1.77554,4.12927 -0.58327,1.29364 -1.14652,2.59582 -1.66913,3.95835 -0.45284,1.54106 -1.0338,2.98571 -1.61721,4.40637 -0.47562,1.4244 -1.00958,2.80005 -1.48375,4.22795 -0.59123,1.52924 -1.27418,2.95596 -1.97442,4.35851 -0.69442,1.42531 -1.32533,2.90722 -1.91527,4.45075 -0.66041,1.64983 -1.37672,3.234 -2.09059,4.82413 -0.5835,1.55724 -1.30019,2.96228 -1.98725,4.40027 -0.66595,1.65237 -1.50968,3.11174 -2.33934,4.55232 -1.02961,1.5514 -1.97134,3.23803 -2.98076,4.8213 -0.96883,1.6222 -2.09491,2.96152 -3.10922,4.5011 -0.79171,1.21277 -1.67826,2.26958 -2.42803,3.55267 -0.91775,1.38575 -1.86511,2.72829 -2.83661,4.01613 -0.90663,1.1728 -1.6441,2.62428 -2.49269,3.89536 -0.71743,1.25059 -1.37865,2.59719 -2.02607,3.94667 -0.4813,1.32031 -1.02185,2.58933 -1.65507,3.73109 -0.54053,1.37784 -1.23696,2.55788 -1.86318,3.83289 -0.74601,1.35031 -1.40097,2.82869 -2.06093,4.293 -0.79644,1.69495 -1.37417,3.61564 -2.07507,5.41079 -0.63972,1.76523 -1.20561,3.58948 -1.75138,5.43432 -0.48886,1.68285 -1.03223,3.31732 -1.49249,5.02534 -0.44898,1.98443 -0.90073,3.9782 -1.51545,5.84542 -0.4848,1.5498 -0.92051,3.1586 -1.28478,4.79502 -0.48588,1.77799 -1.19456,3.35786 -1.72918,5.09139 -0.42113,1.7103 -1.0018,3.32777 -1.58166,4.91194 -0.4946,1.4126 -0.89943,2.903 -1.38462,4.3229 -0.5646,1.4914 -1.28667,2.7817 -1.97358,4.1205 -0.71019,1.2458 -1.44416,2.4519 -2.14639,3.7107 -0.86677,1.6434 -1.75123,3.2125 -2.7238,4.69 -0.57452,1.2035 -1.30287,2.2183 -1.78159,3.534 -0.49225,1.3049 -1.11043,2.4482 -1.70298,3.6304 -0.65602,1.4138 -1.53494,2.4851 -2.28628,3.7505 -0.77383,1.2793 -1.7371,2.1426 -2.65668,3.098 -0.82676,0.6156 -1.53313,1.311 -2.13722,2.4204 -0.69677,1.0271 -1.45681,1.9495 -2.20438,2.8823 -1.01142,1.1131 -2.21979,1.3083 -3.40615,1.4479 -1.27557,0.1009 -2.55333,0.084 -3.83002,0.078 -1.25581,-0.047 -2.4932,-0.065 -3.73352,0.2658 -1.18874,0.2029 -2.33146,0.6332 -3.48431,1.1175 -1.01206,0.4051 -2.07865,0.3637 -3.02459,1.1308 -0.90289,0.6636 -1.81743,1.3066 -2.74948,1.8614 -1.09288,0.6478 -2.24818,0.9801 -3.34895,1.5707 -0.97369,0.6494 -1.86941,1.4519 -2.90225,1.8728 -0.92216,0.5902 -1.88229,0.9469 -2.80993,1.5067 -1.11369,0.5141 -2.2447,0.9414 -3.37446,1.3653 -1.28545,0.4549 -2.60152,0.5581 -3.91231,0.6232 -1.28494,0.045 -2.57029,0.035 -3.85545,0.034 -1.27655,0 -2.55309,0 -3.82965,0 -1.21102,0.1801 -2.37468,-0.3035 -3.55491,-0.638 -1.05745,-0.2567 -2.05776,-0.863 -3.11518,-1.1432 -1.07457,-0.2185 -2.1002,-0.7848 -3.17252,-1.0476 -1.22387,-0.254 -2.416869,-0.7655 -3.641875,-1.0288 -1.197319,-0.11 -2.383155,-0.4161 -3.510348,-1.0877 -1.173604,-0.5784 -1.983999,-1.4195 -2.519977,-3.2399 -0.397121,-1.9439 -0.386956,-4.0147 -0.402155,-6.0394 0.06534,-1.8519 0.526456,-3.5514 1.079679,-5.1476 0.649751,-1.4433 1.511204,-2.6262 2.356966,-3.7656 0.81665,-0.946 1.692338,-1.7173 2.570726,-2.4987 1.024036,-0.6404 2.052773,-1.2024 3.045734,-1.9675 1.43858,-1.0547 2.98801,-1.4625 4.50631,-2.0736 1.49236,-0.733 2.96728,-1.4836 4.50781,-1.9192 1.34967,-0.4178 2.7338,-0.2328 4.08783,-0.5294 1.28144,-0.401 2.57425,-0.654 3.87576,-0.7941 1.28773,-0.1124 2.57778,-0.1147 3.86699,-0.1177 1.27695,-7e-4 2.5539,0 3.83085,0 1.27625,0 2.55251,0 3.82875,0 1.22437,-0.1043 2.43416,0.147 3.58892,0.8087 1.17937,0.608 2.33619,1.3166 3.54288,1.7754 1.22038,0.2332 2.319,1.1354 3.46266,1.7859 1.09732,0.4335 2.11507,1.2178 3.01173,2.3205 0.66044,1.2132 1.32888,2.4326 1.83074,3.8351 0.47354,1.5781 0.86663,3.1503 1.07495,4.8775 0.0776,1.8533 -0.20121,3.5917 -0.77871,5.1798 -0.74912,1.3409 -1.78053,2.1488 -2.83798,2.6585 -1.21957,0.3227 -2.36245,1.0878 -3.53599,1.6777 -1.30477,0.4568 -2.588,1.058 -3.90031,1.462 -1.10013,0.2338 -2.22405,0.4432 -3.25884,1.1283 -1.02807,0.8015 -2.14272,1.0904 -3.2667,1.2653 -1.23875,0.2089 -2.49131,3e-4 -3.72509,0.2566 -1.27989,0.3912 -2.5699,0.6455 -3.86879,0.7875 -1.41755,0.1243 -2.83783,0.1177 -4.25697,0.1227 -1.48174,0.072 -2.94501,0 -4.41452,-0.3069 -1.5566,-0.357 -3.12321,-0.5577 -4.69317,-0.6662 -1.3097,-0.1308 -2.62802,0.062 -3.93025,-0.207 -1.08542,-0.4042 -2.18321,-0.6498 -3.292918,-0.78 -1.183459,0 -2.352468,-0.2818 -3.466551,-0.9293 -1.230865,-1.0528 -1.457585,-3.0958 -1.591976,-5.1455 0.01178,-2.0746 0.340578,-3.8784 1.172105,-5.4595 0.818085,-1.5254 1.855145,-2.6861 2.875785,-3.8261 1.175725,-1.0713 2.300705,-2.296 3.508375,-3.2709 1.26486,-1.0387 2.60834,-1.8211 3.93654,-2.6232 1.7229,-0.921 3.52453,-1.2822 5.3264,-1.4822 1.3644,-0.1194 2.73131,-0.1077 4.09716,-0.1031 1.27409,0 2.54819,0.022 3.82229,0.022 1.27482,0 2.54964,0 3.82446,0 1.27635,0 2.5527,0 3.82902,-3e-4 1.26941,-0.026 2.52204,-0.084 3.77142,0.3136 1.1898,0.2969 2.35667,0.7075 3.52944,1.1459 1.38152,0.2662 2.54775,0.7285 3.49768,2.4518 0.72329,1.8484 0.83333,3.9509 0.63005,6.0614 -0.18455,1.8314 -0.73014,3.5213 -1.34239,5.0703 -0.51775,1.5381 -1.33271,2.6871 -2.04431,3.9706 -0.79541,1.3087 -1.83824,2.1847 -2.87781,2.8874 -1.0515,0.6881 -2.09472,1.4168 -3.16008,2.0498 -0.96327,0.7885 -1.95461,1.4977 -2.97667,2.0619 -1.03982,0.756 -2.0907,1.4853 -3.17325,2.0669 -1.16326,0.4028 -2.31829,0.7815 -3.47448,1.2413 -1.16516,0.4983 -2.37978,0.3973 -3.55967,0.7022 -1.26147,0.444 -2.50754,0.7695 -3.79524,0.5344 -0.54411,-0.1389 -1.08995,-0.252 -1.63681,-0.3562 -0.89633,-0.1717 -0.7466,-2.2216 0.14973,-2.0502 l 0,0 c 0.54632,0.1043 1.09185,0.2169 1.63533,0.356 1.17132,0.2312 2.30385,-0.1455 3.45331,-0.5248 1.14592,-0.2749 2.31621,-0.2229 3.44885,-0.666 1.12385,-0.446 2.24555,-0.8299 3.37893,-1.1974 1.08098,-0.573 2.12239,-1.3244 3.16366,-2.0616 1.01482,-0.5515 1.98805,-1.2838 2.94832,-2.0458 1.05035,-0.6165 2.07639,-1.3421 3.11168,-2.0194 0.86817,-0.5685 1.74409,-1.3011 2.41715,-2.3625 0.67213,-1.1955 1.43447,-2.2718 1.92073,-3.7106 0.5283,-1.2907 0.98838,-2.7394 1.15277,-4.2738 0.15565,-1.508 0.11347,-3.0248 -0.34571,-4.4034 -0.68371,-1.4557 -1.77029,-1.4651 -2.80942,-1.7709 -1.15975,-0.4342 -2.31217,-0.8415 -3.48945,-1.1321 -1.16587,-0.3772 -2.33824,-0.2818 -3.52371,-0.2743 -1.27638,2e-4 -2.55276,2e-4 -3.82913,2e-4 -1.27541,-2e-4 -2.5508,-2e-4 -3.82621,0 -1.27441,0 -2.54881,0 -3.82321,-0.022 -1.33594,0 -2.67292,-0.022 -4.00749,0.096 -1.67948,0.1841 -3.35942,0.5121 -4.96775,1.3572 -1.28785,0.7742 -2.58975,1.5338 -3.81573,2.5384 -1.15638,0.9175 -2.22123,2.1157 -3.349533,3.1201 -0.936023,1.0449 -1.894786,2.0978 -2.645552,3.4958 -0.633128,1.082 -0.796995,2.4179 -0.857941,3.8786 0.07487,1.2082 0.104004,2.6528 0.76829,3.4234 0.989524,0.6293 2.059521,0.77 3.113719,0.8045 1.135587,0.1339 2.261507,0.3741 3.371767,0.7936 1.25754,0.3005 2.5467,0.021 3.81305,0.188 1.60551,0.1124 3.20766,0.3165 4.79955,0.6812 1.41508,0.2916 2.82335,0.3608 4.25072,0.2901 1.39142,0 2.78395,0 4.17383,-0.1176 1.27664,-0.139 2.54335,-0.3966 3.80153,-0.7774 1.24778,-0.2317 2.50525,-0.092 3.75736,-0.2624 1.00722,-0.1537 2.0027,-0.4024 2.92158,-1.1318 1.11934,-0.6878 2.29922,-1.0274 3.48701,-1.2347 1.26536,-0.3862 2.50097,-0.975 3.76002,-1.4056 1.18079,-0.5905 2.33028,-1.3663 3.55718,-1.6882 0.76606,-0.3501 1.49453,-0.9277 2.10635,-1.7544 0.44917,-1.1108 0.60706,-2.3952 0.61363,-3.7127 -0.17544,-1.5098 -0.52602,-2.8674 -0.93231,-4.2499 -0.4019,-1.1875 -0.99966,-2.1515 -1.50425,-3.2231 -0.77024,-1.0056 -1.69996,-1.6029 -2.6524,-2.0027 -1.10017,-0.6308 -2.15666,-1.5001 -3.33157,-1.7232 -1.25579,-0.4836 -2.46297,-1.2071 -3.68992,-1.8468 -1.00139,-0.6311 -2.08295,-0.7425 -3.148,-0.682 -1.27659,0 -2.55319,-4e-4 -3.82977,0 -1.27566,0 -2.55133,0 -3.82699,0 -1.2619,0 -2.52465,0 -3.78513,0.1146 -1.27533,0.1357 -2.54107,0.3912 -3.79686,0.782 -1.33885,0.2688 -2.6979,0.1423 -4.0326,0.5156 -1.51177,0.4227 -2.954,1.1813 -4.42004,1.8894 -1.43628,0.5714 -2.90056,0.952 -4.26387,1.9335 -0.97077,0.7479 -1.968938,1.3332 -2.980442,1.9132 -0.80913,0.7169 -1.614533,1.4228 -2.370965,2.2795 -0.733382,0.975 -1.469142,2.0062 -2.063528,3.2019 -0.459384,1.2565 -0.82042,2.6351 -0.910788,4.0962 0.01275,1.7439 -0.0011,3.5252 0.290364,5.2189 0.33684,1.3562 0.98177,1.7084 1.810095,2.156 1.024057,0.6623 2.134306,0.8327 3.224675,0.9704 1.233018,0.2678 2.434749,0.7733 3.665969,1.0344 1.07756,0.269 2.10998,0.8204 3.18802,1.0517 1.06158,0.2872 2.06882,0.8719 3.12763,1.1465 1.10911,0.3161 2.19579,0.7874 3.33464,0.6071 1.27693,0 2.55387,0 3.83082,0 1.27149,0 2.54316,0.021 3.81445,-0.031 1.22707,-0.061 2.45955,-0.1504 3.66353,-0.5714 1.07643,-0.4017 2.15271,-0.8155 3.21628,-1.2882 0.97348,-0.587 1.97925,-0.9714 2.94978,-1.5766 1.00538,-0.3925 1.85344,-1.2538 2.81467,-1.8323 1.0918,-0.5624 2.22301,-0.9224 3.3052,-1.5465 0.898,-0.5247 1.7761,-1.1531 2.64414,-1.7904 1.03794,-0.7561 2.13702,-0.9322 3.24684,-1.2606 1.19017,-0.4989 2.37283,-0.9407 3.59871,-1.1566 1.31029,-0.3448 2.6171,-0.3491 3.94298,-0.2927 1.24516,0 2.49131,0.023 3.73544,-0.072 0.93323,-0.1043 1.90583,-0.2028 2.72024,-1.0266 0.68975,-0.8517 1.38137,-1.7132 2.03515,-2.6299 0.68893,-1.2085 1.4662,-2.1174 2.3984,-2.7768 0.84046,-0.8585 1.71502,-1.6436 2.42557,-2.7932 0.733,-1.2134 1.57173,-2.2633 2.21314,-3.6176 0.55942,-1.1057 1.1394,-2.1764 1.60249,-3.4006 0.56078,-1.4538 1.32187,-2.6518 1.99819,-3.9653 0.94742,-1.4366 1.80517,-2.9677 2.64972,-4.5676 0.69127,-1.2383 1.41417,-2.4239 2.11317,-3.6485 0.64008,-1.2389 1.30915,-2.4346 1.84102,-3.8094 0.50317,-1.4237 0.88953,-2.9542 1.40213,-4.37193 0.57231,-1.53279 1.12586,-3.11838 1.53728,-4.78096 0.51934,-1.65686 1.17577,-3.18721 1.66965,-4.86825 0.39098,-1.72747 0.84431,-3.43223 1.36066,-5.06899 0.61007,-1.80691 1.01881,-3.77288 1.46965,-5.6934 0.46811,-1.72829 1.01604,-3.38646 1.51092,-5.09024 0.56812,-1.91692 1.15704,-3.81325 1.82395,-5.64665 0.71831,-1.8321 1.30469,-3.79938 2.12376,-5.52621 0.67387,-1.48334 1.33651,-2.98923 2.09347,-4.36187 0.64784,-1.30603 1.35361,-2.52705 1.91726,-3.93528 0.62476,-1.08428 1.10781,-2.3572 1.59174,-3.60967 0.69409,-1.4341 1.39229,-2.87855 2.16851,-4.1968 0.87208,-1.28761 1.61759,-2.78813 2.54979,-3.97531 0.93416,-1.2274 1.83627,-2.52562 2.72111,-3.84346 0.77543,-1.29968 1.66293,-2.40638 2.47971,-3.63525 1.01347,-1.52272 2.1235,-2.86987 3.09177,-4.47425 0.99484,-1.55883 1.9209,-3.22319 2.93673,-4.74879 0.80581,-1.38833 1.61815,-2.80612 2.26178,-4.40486 0.67952,-1.42204 1.38862,-2.80927 1.96441,-4.35099 0.69586,-1.5495 1.39447,-3.09197 2.03869,-4.69913 0.62034,-1.61301 1.2807,-3.1677 2.00724,-4.66028 0.65181,-1.30319 1.28657,-2.62789 1.84379,-4.04103 0.49666,-1.48333 1.0464,-2.91911 1.54673,-4.39695 0.58378,-1.39397 1.14178,-2.83198 1.59415,-4.34869 0.53819,-1.39265 1.1142,-2.73089 1.70982,-4.05748 0.63752,-1.44702 1.17652,-3.00825 1.89527,-4.36459 0.88086,-1.48431 1.79524,-2.9187 2.85169,-4.07882 1.67055,-1.65348 3.42808,-3.01843 5.3019,-3.97336 0.84508,-0.51257 1.29326,1.42044 0.44817,1.93302 z"
       inkscape:connector-curvature="0" />
    <path
       style="fill:#000000;fill-opacity:1;stroke:none"
       id="path3017"
       d="m 122.21346,1044.77 c 1.94568,0 3.89137,0 5.83703,0 1.43214,0 2.86429,0 4.29643,0 1.18464,0 2.35639,0.1043 3.52126,-0.2741 1.12029,-0.4818 2.28773,-0.4657 3.42042,-0.7994 1.26643,-0.4787 2.55413,-0.7339 3.84953,-0.8799 1.05677,-0.4468 2.14787,-0.6445 3.20687,-1.0601 1.21551,-0.6284 2.49602,-0.7112 3.7376,-1.1104 1.19667,-0.4563 2.41408,-0.6471 3.59721,-1.1867 0.84476,-0.7415 1.74937,-1.2447 2.62498,-1.875 0.92344,-0.5501 1.88825,-0.9603 2.77424,-1.6642 0.82355,-0.4903 1.36155,-1.4513 1.90554,-2.4971 0.53971,-1.2123 1.12835,-2.3778 1.77776,-3.4417 0.53138,-1.1325 1.04781,-2.289 1.57032,-3.4373 0.58629,-1.1603 1.26731,-2.1772 1.88503,-3.2897 0.78156,-1.082 1.28627,-2.5289 2.03229,-3.6624 0.66931,-1.0931 1.27367,-2.3087 1.77257,-3.622 0.58813,-1.4356 1.30414,-2.7154 1.87855,-4.1654 0.44467,-1.5414 1.13699,-2.8548 1.78197,-4.1875 0.47133,-1.2827 0.973,-2.5243 1.50189,-3.7493 0.62991,-1.3427 1.1512,-2.7951 1.71287,-4.20917 0.56173,-1.30574 1.08151,-2.62178 1.50611,-4.06238 0.6023,-1.42033 0.94144,-3.04335 1.36304,-4.60933 0.46178,-1.34595 1.00013,-2.63419 1.3902,-4.04015 0.55952,-1.82114 1.25282,-3.51984 1.75324,-5.38904 0.54612,-1.62792 0.94362,-3.36095 1.58643,-4.89995 0.61875,-1.33991 1.07974,-2.82595 1.56518,-4.29581 0.5254,-1.29364 1.07885,-2.58565 1.47761,-3.99715 0.50327,-1.36672 0.86843,-2.8335 1.43454,-4.13975 0.52088,-1.23548 0.94926,-2.5494 1.36133,-3.88584 0.56041,-1.42273 1.18623,-2.79994 1.63852,-4.32382 0.35125,-1.49803 0.73935,-2.97247 1.16758,-4.41775 0.61398,-1.34285 0.99871,-2.89714 1.52263,-4.32484 0.44922,-1.50092 0.98436,-2.90066 1.56572,-4.27473 0.60359,-1.21335 1.14291,-2.43063 1.81829,-3.54672 0.66288,-1.22684 1.32382,-2.4653 1.96027,-3.73092 0.69713,-1.03947 1.13813,-2.40571 1.72871,-3.58911 0.56587,-1.19245 1.19414,-2.319 1.86607,-3.35879 0.78524,-1.36828 1.49675,-2.83726 2.25322,-4.24393 0.7936,-1.46325 1.63311,-2.86202 2.42234,-4.33093 0.64582,-1.11672 1.34862,-2.14636 1.98413,-3.2779 0.70639,-1.2383 1.44307,-2.4436 2.21459,-3.57771 0.69278,-1.17715 1.40651,-2.31086 2.22921,-3.25009 0.77189,-1.06628 1.60847,-1.97162 2.43249,-2.92085 0.85687,-0.87742 1.76837,-1.5867 2.6832,-2.29025 1.02348,-0.77608 2.02045,-1.63438 3.05859,-2.36972 1.04624,-0.90093 2.20188,-1.40612 3.20214,-2.446 0.9025,-0.79353 1.75926,-1.71358 2.65612,-2.52534 0.90786,-0.99493 1.82593,-1.95894 2.7397,-2.9383 0.92427,-0.97354 1.62932,-2.36093 2.52774,-3.38625 0.68176,-1.02095 1.35386,-2.04437 2.10274,-2.94997 0.68762,-0.82505 1.20223,-1.84969 1.67954,-2.98763 0.28782,-0.67937 0.70413,-1.15491 1.07813,-1.69806 0.67233,-0.97391 1.52391,0.56388 0.85159,1.53783 l 0,0 c -0.30024,0.43396 -0.63342,0.80345 -0.87695,1.32755 -0.56136,1.31334 -1.17345,2.52072 -1.97182,3.47835 -0.76639,0.91068 -1.42417,1.98307 -2.13666,2.98929 -0.91664,0.99968 -1.59228,2.48707 -2.54997,3.41057 -0.94168,1.00613 -1.88404,2.00541 -2.82282,3.02009 -0.87934,0.78833 -1.71553,1.69707 -2.59924,2.47091 -1.0668,1.06218 -2.25283,1.68252 -3.3692,2.58872 -1.02682,0.72373 -2.0108,1.57478 -3.02227,2.34297 -0.84961,0.65129 -1.69611,1.3054 -2.49429,2.11161 -0.83062,0.94201 -1.66051,1.86659 -2.43873,2.92794 -0.78641,0.87293 -1.43878,1.99194 -2.10386,3.08892 -0.74673,1.08178 -1.44871,2.25428 -2.12962,3.44139 -0.63506,1.10991 -1.31813,2.14502 -1.96306,3.23985 -0.79332,1.46317 -1.62615,2.87011 -2.42196,4.3302 -0.78583,1.4518 -1.51564,2.98319 -2.33759,4.3861 -0.64037,0.96658 -1.2207,2.04925 -1.75599,3.16748 -0.6016,1.16509 -1.0196,2.56541 -1.72795,3.58761 -0.66435,1.30898 -1.34471,2.601 -2.03703,3.86954 -0.62346,1.02726 -1.11864,2.14747 -1.67685,3.26853 -0.56806,1.33932 -1.08564,2.70559 -1.52447,4.17071 -0.51312,1.36127 -0.85773,2.8835 -1.46581,4.15417 -0.42978,1.45002 -0.81608,2.92964 -1.17171,4.43158 -0.4653,1.51977 -1.05791,2.93545 -1.64333,4.33955 -0.44284,1.4339 -0.90753,2.84069 -1.46605,4.16699 -0.54005,1.17903 -0.82738,2.57697 -1.31502,3.80915 -0.42032,1.43635 -0.9556,2.78802 -1.50899,4.0985 -0.50897,1.53671 -0.99462,3.09059 -1.64005,4.49424 -0.61758,1.4053 -0.9334,3.06804 -1.4672,4.55375 -0.50949,1.87573 -1.185,3.60125 -1.76218,5.42124 -0.39751,1.38716 -0.90098,2.69126 -1.38095,4.00648 -0.42762,1.58706 -0.77139,3.23902 -1.3824,4.67798 -0.45179,1.51481 -0.99494,2.91454 -1.58554,4.29139 -0.57683,1.4269 -1.09676,2.9118 -1.73856,4.2711 -0.54449,1.2554 -1.04898,2.5386 -1.54551,3.8438 -0.62817,1.2754 -1.28323,2.5454 -1.71204,4.0296 -0.57715,1.4337 -1.26961,2.7229 -1.86626,4.134 -0.56745,1.4646 -1.23525,2.8369 -1.99389,4.054 -0.73404,1.0531 -1.17187,2.5321 -1.94959,3.5277 -0.59517,1.054 -1.23496,2.0374 -1.80424,3.1302 -0.56261,1.2265 -1.1051,2.4791 -1.69401,3.6695 -0.63321,1.008 -1.17878,2.1582 -1.70452,3.313 -0.66188,1.2677 -1.35057,2.4096 -2.33261,3.0302 -0.90488,0.6817 -1.86005,1.1715 -2.80424,1.6865 -0.93188,0.6705 -1.88725,1.2282 -2.79831,1.9766 -1.21772,0.5529 -2.46711,0.7671 -3.69917,1.2258 -1.22684,0.3788 -2.48553,0.4858 -3.68612,1.0923 -1.12934,0.4266 -2.28369,0.6819 -3.41388,1.1113 -1.251,0.139 -2.49367,0.39 -3.71643,0.8534 -1.12652,0.3118 -2.27902,0.3344 -3.39278,0.7909 -1.24881,0.3972 -2.50114,0.3387 -3.77012,0.3137 -1.43214,0 -2.86429,0 -4.29643,0 -1.94566,0 -3.89135,0 -5.83703,0 -0.90255,0 -0.90255,-2.0644 0,-2.0644 z"
       inkscape:connector-curvature="0" />
    <path
       style="fill:#000000;fill-opacity:1;stroke:none"
       id="path3019"
       d="m 112.6162,1048.7675 c -1.75069,-0.7413 -3.55498,-1.0963 -5.3106,-1.7829 -1.16881,-0.6004 -2.36927,-0.922 -3.58813,-1.0808 -1.23197,-0.1226 -2.46695,-0.1146 -3.70065,-0.1146 -1.127388,-0.2554 -2.234595,-0.6539 -3.368804,-0.8407 -1.218494,-0.2093 -2.447977,-0.054 -3.661159,-0.3175 -1.089469,-0.4637 -2.221525,-0.5378 -3.31626,-0.9309 -1.031086,-0.5281 -2.096386,-0.7573 -3.170383,-0.8892 -1.079288,-0.3935 -2.150299,-0.7792 -3.252069,-0.9661 -1.214142,-0.1635 -2.433623,-0.1696 -3.651138,-0.178 -1.275795,0 -2.551596,0 -3.827394,0 -1.277265,0 -2.554533,0 -3.831799,0 -1.276473,3e-4 -2.552945,3e-4 -3.82942,3e-4 -1.246657,0.1406 -2.449375,-0.092 -3.666607,-0.4881 -1.123219,-0.4092 -2.28109,-0.3392 -3.410334,-0.6495 -1.065006,-0.4587 -2.151791,-0.6918 -3.248492,-0.8202 -1.209518,-0.049 -2.431684,-0.2445 -3.635477,0 -1.08464,0.2496 -2.112043,1.0312 -3.027618,1.9847 -0.809987,0.8102 -1.562361,1.8031 -2.22146,2.9167 -0.559158,0.756 -1.155916,2.4575 -2.043044,1.5606 -0.180493,-0.1821 -0.240913,-0.568 -0.361369,-0.8518 -0.116269,-1.3832 -0.244746,-2.5294 -0.820007,-3.6065 -0.47908,-1.2037 -1.283796,-1.6789 -2.04852,-2.277 -0.948606,-0.4752 -1.908298,-0.8997 -2.867997,-1.3301 -0.993703,-0.4051 -1.932455,-1.0223 -2.946462,-1.3123 -1.168814,-0.266 -2.351965,-0.2768 -3.529969,-0.2957 -1.274113,-0.022 -2.548251,0 -3.82237,10e-4 -1.277742,0 -2.555487,0 -3.833229,0 -1.566894,0.1177 -2.432072,-0.541 -3.032193,-2.9199 -0.240054,-1.7212 0.204499,-3.4143 0.145583,-5.1358 -0.253491,-1.037 -1.119397,-1.041 -1.708734,-1.1566 -1.222719,-0.1536 -2.45084,-0.1176 -3.676156,-0.1078 -1.283732,0.022 -2.567485,0.023 -3.851242,0.026 -1.213904,-0.2678 -2.215154,0.3446 -3.316218,1.0248 -0.9999,0.743 -1.9986366,1.5233 -2.9423388,2.4412 -0.8107413,0.8124 -1.6019821,1.6709 -2.4181173,2.4766 -0.7145479,0.809 -1.3260678,1.8067 -1.9765318,2.7383 -1.0044635,1.0659 -1.6662523,2.4787 -2.6060696,0.2529 -0.36759614,-1.7376 -0.1471745,-3.5254 0.2237238,-5.206 0.3616366,-1.5147 0.7672921,-3.0103 1.2478357,-4.4367 0.4505175,-1.4034 1.0781938,-2.6478 1.7617527,-3.7709 0.7999788,-0.904 1.5314747,-1.9558 2.3788722,-2.7418 1.063419,-1.1082 2.2724648,-1.5693 3.5072721,-1.8511 1.182451,-0.061 2.325396,-0.2951 3.481552,-0.6779 1.190861,-0.389 2.406058,-0.4778 3.616916,-0.5382 1.274736,-0.044 2.549892,-0.039 3.824855,-0.038 1.277505,0 2.55501,0 3.832516,0 0.873217,-0.1043 1.471543,-0.3774 1.790419,-1.731 0.430493,-1.4661 0.719051,-3.0025 1.25034,-4.389 0.833869,-1.6482 2.087686,-1.9055 3.319453,-2.0804 1.278612,-0.1177 2.560181,-0.088 3.840221,-0.078 1.215245,-0.1717 2.382105,0.3192 3.565887,0.6578 1.21285,0.1635 2.400039,0.4993 3.594205,0.8693 1.225785,0.3738 2.472675,0.4708 3.716535,0.5318 1.240338,-0.1 2.438047,0.1308 3.649447,0.5229 1.168367,0.3152 2.340407,0.4384 3.502608,0.8186 1.219099,0.4371 2.463095,0.5975 3.707304,0.6919 1.286411,0.3375 2.563719,0.7206 3.8624,0.9173 1.249179,0.1275 2.485816,0.093 3.715994,0.4945 1.088638,0.42 2.203336,0.5616 3.317689,0.6494 1.250198,0.076 2.50151,0.069 3.752348,0.07 1.277392,0 2.554784,0 3.832178,0 1.13722,0.2159 2.256721,0.5853 3.337097,1.1956 1.007999,0.5243 2.056593,0.6764 3.075473,1.1372 1.049846,0.497 2.141758,0.6212 3.228229,0.7076 1.157811,0.1324 2.101034,0.9694 3.031106,2.0075 0.947579,0.9391 1.73617,2.1234 2.438479,3.5093 0.688492,1.1656 1.249535,2.5471 1.684937,3.9948 0.459812,1.8487 0.547557,3.7804 0.355091,5.7291 -0.186532,1.9053 -0.364656,3.7909 -0.804418,5.5926 -0.501671,1.5899 -0.710878,3.3049 -0.827649,5.0615 -0.0136,0.3149 -0.02721,0.6299 -0.04092,0.9448 -0.06373,1.4563 -1.33691,1.3106 -1.273222,-0.1455 l 0,0 c 0.01506,-0.3409 0.03014,-0.6818 0.04521,-1.0229 0.132519,-1.9428 0.36585,-3.85 0.913568,-5.613 0.426747,-1.6451 0.534447,-3.4081 0.727812,-5.1515 0.160023,-1.5285 0.09672,-3.0408 -0.247381,-4.5053 -0.378227,-1.3145 -0.9084,-2.5345 -1.524409,-3.5839 -0.61933,-1.2516 -1.324658,-2.2718 -2.172037,-3.1106 -0.734845,-0.8202 -1.447427,-1.5343 -2.369325,-1.6445 -1.181607,-0.095 -2.368021,-0.2413 -3.509546,-0.7817 -1.043415,-0.4741 -2.123773,-0.6059 -3.152508,-1.1767 -0.945904,-0.5359 -1.921676,-0.8507 -2.914723,-1.0797 -1.277819,0 -2.555638,0 -3.833458,0 -1.271553,-6e-4 -2.543592,0 -3.814476,-0.072 -1.178991,-0.093 -2.358229,-0.2475 -3.510328,-0.6885 -1.183435,-0.3942 -2.378224,-0.3134 -3.580259,-0.4622 -1.278544,-0.1945 -2.539526,-0.5458 -3.803106,-0.9101 -1.309128,-0.1009 -2.61785,-0.2728 -3.900687,-0.7308 -1.160911,-0.3812 -2.334062,-0.4863 -3.500393,-0.8179 -1.14257,-0.3711 -2.265666,-0.5854 -3.437089,-0.4835 -1.311446,-0.065 -2.625784,-0.1718 -3.91793,-0.5677 -1.188887,-0.3688 -2.369091,-0.6995 -3.576675,-0.8642 -1.113674,-0.3199 -2.204806,-0.7979 -3.348863,-0.6261 -1.241648,0 -2.484701,-0.038 -3.725093,0.072 -0.814648,0.11 -1.730878,0.1634 -2.352277,1.1326 -0.520605,1.2693 -0.722912,2.7625 -1.1568,4.1047 -0.643621,2.2302 -1.487602,2.7852 -2.961156,2.9707 -1.277625,-10e-4 -2.555247,0 -3.83287,0 -1.261573,0 -2.523343,0 -3.7847,0.034 -1.138002,0.055 -2.280499,0.134 -3.400038,0.4971 -1.181687,0.3913 -2.353555,0.6438 -3.561477,0.7001 -1.0791808,0.2397 -2.1322798,0.626 -3.0582403,1.6062 -0.7557542,0.6668 -1.3737092,1.6587 -2.100819,2.4009 -0.610543,0.9699 -1.1508754,2.0872 -1.5486305,3.3131 -0.4642457,1.3229 -0.8203586,2.747 -1.1682722,4.1574 -0.2763331,1.1216 -0.4285182,2.3676 -0.2773506,3.5629 -0.9504266,0.2846 0.423213,-0.3931 0.6205921,-0.8815 0.7097215,-1.0026 1.370151,-2.0957 2.1561915,-2.9519 0.8217822,-0.8062 1.6158335,-1.6702 2.4306589,-2.4888 1.012786,-0.9605 2.0651641,-1.8227 3.1380381,-2.5941 1.23603,-0.7631 2.415482,-1.4257 3.768926,-1.1608 1.282416,0 2.564823,-0.021 3.847213,-0.026 1.280865,-0.022 2.564923,-0.047 3.842658,0.1242 1.277808,0.2697 2.551087,0.783 2.824526,3.133 0.01983,1.5111 -0.200387,2.969 -0.228017,4.4746 0.301843,1.475 0.884493,1.7102 1.838648,1.5887 1.277116,-6e-4 2.554231,0 3.831345,0 1.279135,0 2.558288,-0.022 3.837418,0 1.24911,0.022 2.503735,0.034 3.742319,0.3284 1.05303,0.3087 2.033754,0.9211 3.063492,1.3553 1.032863,0.4664 2.07047,0.9025 3.08303,1.4615 0.923883,0.7274 1.895653,1.3821 2.480606,2.8297 0.589823,1.2122 0.983932,2.5059 0.998935,4.0796 -0.17535,-0.1032 -0.714328,0.2151 -0.559121,0.047 0.33972,-0.3669 0.536176,-1.0008 0.880054,-1.3637 0.738933,-1.2151 1.554281,-2.3332 2.454745,-3.2229 1.087764,-1.096 2.277374,-2.0184 3.560104,-2.2896 1.28752,-0.2317 2.585654,-0.095 3.877963,-0.021 1.140086,0.1372 2.272114,0.3699 3.379424,0.8465 1.132789,0.3473 2.311993,0.2007 3.43922,0.6587 1.13521,0.3713 2.249392,0.5893 3.413774,0.4471 1.276404,0 2.552808,0 3.829214,-2e-4 1.276828,-3e-4 2.553658,-8e-4 3.830486,0 1.278412,0 2.556827,0 3.835239,0 1.260223,0.022 2.522503,0.022 3.779067,0.1905 1.088354,0.1881 2.154187,0.527 3.21513,0.9605 1.137093,0.1406 2.267185,0.3813 3.359639,0.9358 1.053427,0.4123 2.161512,0.417 3.210965,0.8992 1.190527,0.2987 2.413038,0.053 3.610046,0.3075 1.090744,0.1819 2.160665,0.5225 3.239225,0.8297 1.268,10e-4 2.53732,0 3.80344,0.1193 1.28567,0.1698 2.55441,0.5027 3.78796,1.1334 1.7051,0.6831 3.46664,0.9908 5.16569,1.7397 0.89559,0.1819 0.73728,2.2294 -0.15831,2.0484 z"
       inkscape:connector-curvature="0" />
    <path
       style="fill:#000000;fill-opacity:1;stroke:none"
       id="path3021"
       d="m 92.21784,1033.4156 c 1.849372,0.1963 3.66269,0.9521 5.405209,1.9458 1.229323,0.5144 2.316811,1.5673 3.465461,2.3917 0.87301,0.7397 1.72311,1.5749 2.63098,2.1995 1,0.6635 1.89881,1.6369 2.92523,2.194 0.91731,0.8503 1.95309,1.0912 2.94621,1.5749 0.99475,0.556 2.031,0.7826 3.0349,1.2867 1.08208,0.4872 2.19754,0.6589 3.29291,1.0569 1.20539,0.4242 2.42762,0.5476 3.62403,1.0377 0.69399,0.2671 0.34674,0.1455 1.04166,0.3656 0.88559,0.2817 0.63922,2.3074 -0.24636,2.0257 l 0,0 c -0.75037,-0.2398 -0.38055,-0.1089 -1.10967,-0.3902 -1.18361,-0.4882 -2.39814,-0.5833 -3.58955,-1.0244 -1.12823,-0.4105 -2.27975,-0.5755 -3.39197,-1.1 -1.00194,-0.5042 -2.03992,-0.7174 -3.03179,-1.285 -0.9985,-0.5124 -2.06023,-0.7169 -2.9833,-1.5945 -1.05574,-0.5924 -1.99467,-1.5385 -3.01842,-2.2522 -0.90904,-0.6426 -1.77338,-1.4472 -2.64527,-2.2097 -1.115634,-0.8102 -2.174287,-1.8267 -3.369817,-2.3301 -1.6065,-0.9176 -3.276473,-1.6219 -4.980443,-1.8281 -0.902552,0 -0.902552,-2.0643 0,-2.0643 z"
       inkscape:connector-curvature="0" />
    <path
       style="fill:#000000;fill-opacity:1;stroke:none"
       id="path3023"
       d="m 118.79835,1046.5298 c 1.67843,-1.1834 3.31573,-2.5181 5.00075,-3.6746 0.99418,-0.9494 2.08963,-1.5154 3.14823,-2.2318 0.88826,-0.5219 1.73957,-1.199 2.58012,-1.8967 0.74443,-0.9841 1.64862,-1.5203 2.51059,-2.1684 0.96759,-0.5963 1.94367,-1.1985 2.78931,-2.1812 0.8488,-0.7314 1.13947,-1.8405 1.32077,-3.2902 0.16254,-1.3749 -0.0514,-2.6784 -0.56247,-3.7906 -0.65756,-0.9098 -1.33786,-1.7693 -2.03097,-2.6097 -0.97931,-0.9497 -2.01819,-1.7337 -3.06799,-2.4625 -1.22841,-0.7952 -2.45643,-1.5114 -3.7598,-1.9002 -1.23668,-0.3069 -2.49052,-0.3234 -3.73873,-0.3417 -1.27405,0 -2.54811,0 -3.82216,0 -1.02413,-0.073 -2.00854,0.3588 -2.94727,0.9731 -1.00248,0.4924 -2.00312,0.9739 -3.00919,1.4545 -1.05996,0.2734 -2.06443,0.8753 -3.11007,1.2506 -0.97365,0.2299 -1.90434,0.7681 -2.80069,1.4063 -1.03033,0.8097 -2.18847,0.756 -3.2786,1.1532 -1.01648,0.4454 -2.05357,0.6448 -3.06068,1.1397 -0.8336,0.6394 -1.616896,1.4283 -2.454968,2.0493 -0.786562,0.7506 -1.623359,1.2221 -2.26377,2.3075 -0.69012,1.0398 -1.245282,2.3423 -1.645123,3.7232 -0.313672,1.5254 -0.477186,3.1934 -0.357555,4.7953 0.0889,1.4246 0.549689,2.3346 1.231454,3.1397 0.94305,1.2524 2.108846,1.8439 3.241202,2.4917 1.276109,0.6402 2.61187,0.8347 3.92184,1.2277 1.43786,0.2816 2.83068,0.9236 4.25187,1.3503 1.24562,0.3436 2.51042,0.4029 3.77084,0.4418 1.29613,0.024 2.59239,0.022 3.88856,0.022 1.43972,0 2.87941,0 4.31913,0 1.36241,-7e-4 2.72482,-7e-4 4.08724,-7e-4 1.57663,0.1656 3.12564,-0.2832 4.68122,-0.613 1.2566,-0.2639 2.51745,-0.2317 3.75617,-0.6753 1.02782,-0.3177 2.04205,-0.541 3.0068,-1.2226 0.9586,-0.5798 1.75932,-1.6204 2.56776,-2.6065 0.8507,-1.0572 1.80959,-1.8527 2.65374,-2.9198 0.75883,-1.1415 0.9307,-2.7361 1.05666,-4.3231 0.11165,-1.999 0.096,-4.0088 0.0928,-6.0138 -0.0735,-1.2911 -0.46152,-2.286 -1.19079,-2.8087 -0.89251,-0.7972 -1.85678,-1.3916 -2.82997,-1.8794 -1.37546,-0.6273 -2.75985,-1.1891 -4.15007,-1.7308 -1.63712,-0.6351 -3.31966,-0.8387 -4.9966,-0.9552 -1.60065,-0.3851 -3.20018,-0.7285 -4.81472,-0.918 -1.41252,-0.147 -2.82829,-0.1675 -4.24319,-0.1778 -1.28274,0 -2.56549,6e-4 -3.84821,0 -1.10928,-0.1078 -2.19315,0.1471 -3.24704,0.7001 -1.02341,0.8217 -2.10903,1.4363 -3.05206,2.4956 -0.80413,0.9853 -1.6326,1.9385 -2.42458,2.9534 -0.86805,0.8998 -1.51148,2.2145 -2.12427,3.5311 -0.52921,1.5879 -1.38757,2.7469 -2.04388,4.1691 -0.70585,1.0895 -0.97964,2.4016 -1.1364,3.9139 0.0161,1.4609 0.79655,2.4983 1.40646,3.4467 0.86719,1.2381 1.94953,1.7156 2.99638,2.3778 1.06324,0.83 2.17419,1.4102 3.28876,2.0212 0.78641,0.4591 1.60743,0.6903 2.40233,1.0988 0.85883,0.4489 0.46632,2.4135 -0.39251,1.9644 l 0,0 c -0.79785,-0.4254 -1.63241,-0.6256 -2.42101,-1.1089 -1.13252,-0.6257 -2.26386,-1.215 -3.34573,-2.055 -1.20061,-0.773 -2.43946,-1.3553 -3.4178,-2.8178 -0.92712,-1.47 -1.887215,-3.0106 -1.774664,-5.2785 0.198432,-1.8147 0.544248,-3.4886 1.378864,-4.8137 0.67279,-1.4069 1.50568,-2.581 2.04181,-4.1648 0.68275,-1.4493 1.39629,-2.9049 2.35292,-3.9075 0.82012,-1.0353 1.66597,-2.0272 2.49617,-3.0381 1.0566,-1.1415 2.23299,-1.8992 3.38364,-2.7557 1.18034,-0.5929 2.39078,-0.9207 3.63115,-0.7965 1.28527,0 2.57053,0 3.8558,0 1.44369,0.022 2.88826,0.033 4.3295,0.1841 1.60177,0.1882 3.19082,0.5123 4.77728,0.9146 1.75914,0.1241 3.52354,0.3424 5.24062,1.0107 1.41746,0.5523 2.82854,1.1283 4.23124,1.767 1.03517,0.5259 2.06368,1.1525 3.01536,1.9993 1.14716,0.9723 1.80972,2.5245 1.9016,4.654 0.003,2.0963 0.0192,4.1986 -0.10357,6.2881 -0.17738,2.1395 -0.49063,4.2039 -1.54016,5.6856 -0.8542,1.0639 -1.80732,1.8835 -2.66749,2.9368 -0.89058,1.0852 -1.78027,2.2127 -2.83423,2.8564 -1.04303,0.7092 -2.12431,1.0298 -3.2346,1.3407 -1.27628,0.451 -2.56946,0.4589 -3.86437,0.706 -1.61019,0.341 -3.21531,0.7946 -4.84703,0.6303 -1.36226,0 -2.72451,0 -4.08674,8e-4 -1.43919,9e-4 -2.87837,0 -4.31755,0 -1.30506,0 -2.61022,0.022 -3.91523,-0.022 -1.33054,-0.041 -2.66542,-0.1089 -3.97987,-0.4763 -1.42087,-0.4293 -2.81353,-1.0672 -4.25113,-1.3501 -1.37538,-0.4129 -2.77881,-0.6138 -4.115115,-1.3116 -1.25037,-0.7175 -2.531309,-1.3973 -3.57365,-2.7776 -0.966774,-1.1669 -1.606864,-2.5943 -1.742711,-4.5909 -0.109188,-1.9898 0.03685,-4.0217 0.476511,-5.8968 0.476018,-1.5773 1.093443,-3.088 1.891198,-4.2868 0.774448,-1.2247 1.697415,-1.9151 2.642382,-2.7321 0.891669,-0.6423 1.707944,-1.531 2.610735,-2.1442 1.04148,-0.5098 2.11077,-0.7319 3.16232,-1.1822 1.01169,-0.3403 2.07285,-0.3318 3.03323,-1.0245 0.97285,-0.6924 1.98574,-1.2721 3.04047,-1.533 1.01688,-0.3589 1.99271,-0.9582 3.02407,-1.2149 0.9666,-0.4582 1.92672,-0.9302 2.89165,-1.3885 1.08962,-0.7104 2.23616,-1.1937 3.42216,-1.1233 1.27894,0 2.55789,-0.021 3.83682,0 1.32268,0.022 2.65127,0.041 3.96096,0.3769 1.39531,0.4243 2.71579,1.174 4.03037,2.0332 1.14092,0.7955 2.27357,1.6467 3.32913,2.7072 0.79995,0.9697 1.60157,1.9423 2.31305,3.082 0.67357,1.6286 1.0105,3.43 0.7636,5.3974 -0.25997,1.9232 -0.72867,3.5533 -1.83746,4.554 -0.91942,1.0218 -1.93465,1.7557 -2.9837,2.3623 -0.84987,0.6379 -1.72821,1.1692 -2.46556,2.1329 -0.86983,0.7213 -1.75296,1.4174 -2.67018,1.9647 -1.05742,0.7153 -2.14958,1.2815 -3.14326,2.2281 -1.70247,1.1627 -3.35265,2.5224 -5.0502,3.7066 -0.84509,0.5124 -1.29326,-1.4203 -0.44818,-1.9331 z"
       inkscape:connector-curvature="0" />
    <path
       style="fill:#000000;fill-opacity:1;stroke:none"
       id="path3031"
       d="m 29.6518,1014.1813 c -1.360465,1.7006 -2.740428,3.3829 -4.006061,5.2695 -0.661568,1.25 -1.035842,2.8635 -1.349789,4.4169 -0.253928,1.7213 -0.284035,3.4757 -0.534465,5.1999 -0.132492,0.8275 -0.209005,1.6716 -0.282223,2.5165 -0.126236,1.4452 -1.390096,1.1567 -1.263865,-0.2888 l 0,0 c 0.07972,-0.9068 0.162254,-1.8131 0.303772,-2.7015 0.260728,-1.78 0.262335,-3.6072 0.565046,-5.3749 0.389792,-1.8844 0.851744,-3.8166 1.698381,-5.2889 1.285108,-1.9012 2.67125,-3.6215 4.052066,-5.3346 0.693364,-0.9347 1.510502,0.6513 0.817138,1.5859 z"
       inkscape:connector-curvature="0" />
    <path
       style="fill:#000000;fill-opacity:1;stroke:none"
       d="m 16.729569,1025.4234 c -3.900961,0.054 -7.8394646,2.4933 -1.814895,1.4195 1.972516,-0.5226 8.555466,-2.0307 1.814895,-1.4195 z"
       id="path3033"
       inkscape:connector-curvature="0" />
    <path
       style="fill:#000000;fill-opacity:1;stroke:none"
       d="m 22.074534,1019.0689 c -5.263881,1.2954 -11.41886,0.1161 -15.9551176,5.2256 -1.8805965,1.7827 -5.0974834,13.0898 -1.2952447,6.9268 4.644075,-7.4353 11.3246113,-5.9836 17.2104743,-6.8301 1.149035,-0.7365 2.744333,-6.9963 0.03988,-5.3223 z"
       id="path3035"
       inkscape:connector-curvature="0" />
    <path
       style="fill:#008080;fill-opacity:1;stroke:none"
       d="m 32.525134,1011.4237 c -3.307784,2.6106 -6.736703,7.7692 -7.638512,13.6771 0.203915,3.6397 0.131163,10.3115 3.530069,9.0966 6.184251,1.0192 14.072473,-1.4252 18.751252,6.6644 1.962735,2.7883 4.827759,-5.459 7.973275,-3.1817 11.572874,0.8691 23.281268,2.7062 34.802387,1.8721 1.321202,-5.5083 1.846855,-12.9092 -1.974443,-16.2255 -4.45279,-5.1192 -10.475186,-4.7348 -15.693713,-6.2454 -13.315544,-0.4949 -26.46164,-4.6834 -39.750315,-5.6576 z"
       id="path3037"
       inkscape:connector-curvature="0" />
    <path
       style="fill:#000000;fill-opacity:1;stroke:none"
       d="m 431.27305,986.16926 c -4.49882,5.113 -10.68307,2.1208 -15.89426,4.4389 -7.30508,0.9815 -14.19382,6.6371 -17.45804,16.83904 -3.31319,8.7856 -7.34681,22.6974 -1.09696,30.6486 8.21086,7.1419 18.0769,8.4255 27.1673,11.8367 6.14572,0.8165 13.08818,2.8791 18.88175,-0.916 5.85773,-8.8127 5.25308,-22.878 5.92825,-34.4884 1.40819,-15.13544 -8.75125,-26.17604 -17.52804,-28.35884 z"
       id="path2991"
       inkscape:connector-curvature="0" />
    <path
       style="fill:#000000;fill-opacity:1;stroke:none"
       d="m 231.28729,1034.0608 c -0.0415,2.2481 2.75118,4.3416 3.95262,6.2023 5.12307,5.9796 11.54413,11.5675 19.34339,11.2392 1.62258,-0.1368 5.19105,1.1068 4.67384,-2.0862 0.27321,-4.2159 0.60063,-8.6867 0.93792,-12.7616 -6.78797,-0.7032 -13.75761,-0.2694 -20.52961,-1.7646 -2.78246,-0.3454 -5.57698,-0.7982 -8.37816,-0.8291 z"
       id="path3059"
       inkscape:connector-curvature="0" />
  </g>
</svg>
