<?xml version="1.0" encoding="UTF-8" standalone="no"?>
<!-- Created with Inkscape (http://www.inkscape.org/) -->

<svg
   xmlns:dc="http://purl.org/dc/elements/1.1/"
   xmlns:cc="http://creativecommons.org/ns#"
   xmlns:rdf="http://www.w3.org/1999/02/22-rdf-syntax-ns#"
   xmlns:svg="http://www.w3.org/2000/svg"
   xmlns="http://www.w3.org/2000/svg"
   xmlns:sodipodi="http://sodipodi.sourceforge.net/DTD/sodipodi-0.dtd"
   xmlns:inkscape="http://www.inkscape.org/namespaces/inkscape"
   width="256"
   height="256"
   id="svg2"
   version="1.1"
   inkscape:version="0.48.5 r10040"
   sodipodi:docname="worksink.svg"
   inkscape:export-filename="C:\Users\narfman0\Desktop\worksink.png"
   inkscape:export-xdpi="90"
   inkscape:export-ydpi="90">
  <defs
     id="defs4" />
  <sodipodi:namedview
     id="base"
     pagecolor="#ffffff"
     bordercolor="#666666"
     borderopacity="1.0"
     inkscape:pageopacity="0.0"
     inkscape:pageshadow="2"
     inkscape:zoom="2.6794337"
     inkscape:cx="147.1962"
     inkscape:cy="136.63969"
     inkscape:document-units="px"
     inkscape:current-layer="layer1"
     showgrid="false"
     inkscape:window-width="467"
     inkscape:window-height="424"
     inkscape:window-x="110"
     inkscape:window-y="110"
     inkscape:window-maximized="0" />
  <metadata
     id="metadata7">
    <rdf:RDF>
      <cc:Work
         rdf:about="">
        <dc:format>image/svg+xml</dc:format>
        <dc:type
           rdf:resource="http://purl.org/dc/dcmitype/StillImage" />
        <dc:title></dc:title>
      </cc:Work>
    </rdf:RDF>
  </metadata>
  <g
     inkscape:label="Layer 1"
     inkscape:groupmode="layer"
     id="layer1"
     transform="translate(0,-796.36218)">
    <path
       style="fill:#000000;fill-opacity:1;stroke:none"
       id="path3021"
       d="m 50.312392,899.37069 c 0,-1.84974 0,-3.69948 0,-5.54921 0,-1.46001 0,-2.92001 0,-4.38002 0,-1.32505 0,-2.65009 0,-3.97513 0,-1.3226 0,-2.6452 0,-3.96779 0.0542,-1.11333 -0.0358,-2.10758 -0.28879,-3.10977 -0.26282,-0.66794 -0.52751,-1.35794 -0.91175,-1.80766 -0.46605,-0.6476 -0.90554,-1.37612 -0.98522,-2.46872 0.0515,-0.20556 0.076,-0.44203 0.15462,-0.61666 0.21195,-0.4707 1.00669,-0.8164 1.33726,-0.98998 0.67646,-0.30741 1.37589,-0.35029 2.06924,-0.38655 0.72831,-0.0256 1.4568,-0.0195 2.1852,-0.0174 0.72652,0.003 1.45304,0.004 2.17957,0.005 0.72568,5.6e-4 1.45137,5.4e-4 2.17707,5.6e-4 0.73344,0.0181 1.46557,-0.15039 2.16448,0.31475 0.64828,0.67797 0.50077,1.7967 0.32532,2.88815 -0.1564,1.06944 -0.63571,1.66875 -0.99015,2.48247 -0.29168,0.77892 -0.49756,1.5644 -0.60471,2.48736 -0.10479,1.19822 -0.10397,2.41612 -0.10926,3.62629 -0.002,1.32423 0.002,2.64847 0.003,3.9727 0.002,1.32635 0.002,2.65271 0.002,3.97907 -0.003,1.23042 -0.0362,2.44723 0.0965,3.65729 -0.0145,0.82764 0.37177,1.71272 0.24137,2.53917 -0.0318,0.20148 -0.10717,0.37093 -0.16075,0.5564 -0.54275,0.7597 -1.26191,0.65812 -1.9134,0.67448 -0.60694,-0.0346 -1.22366,0.0289 -1.79641,0.42476 -0.58716,0.4906 -1.21803,0.67828 -1.8549,0.79163 -0.71929,0.0964 -1.44111,0.0921 -2.1619,0.0941 -0.38452,0.0742 -0.70883,-0.0683 -1.05743,-0.33587 -0.46264,-0.40518 -0.14874,-1.59952 0.3139,-1.19436 l 0,0 c 0.22304,0.26709 0.48395,0.2113 0.74249,0.20555 0.69789,-0.002 1.39677,0.002 2.09331,-0.088 0.57811,-0.10045 1.14835,-0.2684 1.68006,-0.7203 0.65464,-0.41095 1.33929,-0.56308 2.03106,-0.50208 0.44315,-0.0107 0.90591,-0.0375 1.33722,-0.13133 0.0837,0.31563 -0.1318,-1.37376 -0.14521,-1.50351 -0.0192,-0.18502 -0.0408,-0.36912 -0.0613,-0.55368 -0.139,-1.2966 -0.11923,-2.59657 -0.11029,-3.91394 -2e-4,-1.32546 -4.9e-4,-2.65092 -0.002,-3.97638 -0.002,-1.32878 -0.005,-2.65758 -0.003,-3.98636 0.006,-1.3012 0.006,-2.61099 0.12587,-3.89769 0.137,-1.12298 0.38855,-2.10373 0.75213,-3.04423 0.30648,-0.67027 0.69752,-1.15063 0.85545,-2.01658 0.0566,-0.3519 0.25301,-0.97365 0.1026,-1.28439 -0.58028,-0.49192 -1.27785,-0.1046 -1.89609,-0.22082 -0.72581,-10e-6 -1.45163,0 -2.17745,-5.6e-4 -0.72677,-7.1e-4 -1.45355,-0.002 -2.18032,-0.005 -0.72113,-0.002 -1.44236,-0.008 -2.16339,0.0169 -0.63304,0.0327 -1.27197,0.066 -1.89078,0.33623 -0.19616,0.10122 -0.9229,0.80092 -0.96542,0.31281 -0.10529,-0.0259 0.0791,0.36975 0.15139,0.51197 0.15943,0.31391 0.32468,0.63071 0.5155,0.88034 0.48158,0.61684 0.85407,1.44082 1.164,2.35142 0.29453,1.17541 0.41173,2.36413 0.35496,3.66241 0,1.3226 0,2.6452 0,3.96779 0,1.32505 0,2.65009 0,3.97513 0,1.46001 0,2.92001 0,4.38003 0,1.84972 0,3.69947 0,5.54921 0,0.93669 -0.72568,0.93669 -0.72568,0 z"
       inkscape:connector-curvature="0" />
    <path
       style="fill:#c8b7be;fill-opacity:1;stroke:none"
       d="m 54.907742,873.5072 c -1.37693,0.51174 -5.44528,-0.67191 -4.97478,1.89883 2.30029,5.50227 0.94467,12.97723 1.32371,19.35828 -0.89705,5.0571 1.74592,3.98298 3.57939,3.50784 1.87171,-0.52782 4.38036,-0.50255 3.49598,-5.2465 0.27425,-6.15233 -0.845,-13.21549 1.41733,-18.44214 -0.13449,-1.75577 -2.07909,-0.55047 -2.78933,-1.05561 -0.68412,-0.0181 -1.36817,-0.0615 -2.0523,-0.0207 z"
       id="path3025"
       inkscape:connector-curvature="0" />
    <path
       style="fill:#000000;fill-opacity:1;stroke:none"
       id="path2985"
       d="m 36.948106,902.26976 c 0,1.14414 0,2.28827 0,3.43241 0,1.00393 0,2.00787 0,3.0118 0,1.1568 0,2.3136 0,3.4704 0,1.13074 0,2.26149 0,3.39223 0,1.0663 0,2.13261 0,3.19891 0,1.08006 0,2.16012 0,3.24018 0.05673,1.19078 -0.114113,2.37001 -0.226484,3.55205 -0.108263,1.24652 -0.1276,2.49834 -0.141803,3.74874 -0.01019,1.34214 -0.0077,2.68432 -0.0069,4.02648 10e-4,1.343 0.0015,2.68599 0.0018,4.02898 -0.05215,1.34368 0.0403,2.67668 0.167551,4.01276 0.113725,1.2083 0.140146,2.41844 0.2967,3.62234 0.147192,1.05198 0.222519,2.11082 0.260412,3.17169 0.02773,1.00841 0.02502,2.01735 0.02496,3.02606 -6.84e-4,0.85122 -0.0019,1.70244 -0.0025,2.55367 -4.66e-4,0.75068 -5.08e-4,1.50137 -5.42e-4,2.25206 -1.7e-5,0.89155 -2e-6,1.78309 4e-6,2.67464 7e-6,1.21273 8e-6,2.42546 9e-6,3.63819 10e-7,1.27316 0,2.54632 0,3.81947 0,1.3046 0,2.6092 0,3.9138 -0.08947,1.2943 -0.231852,2.58343 -0.30619,3.87896 -0.05639,1.101 -0.06391,2.20365 -0.06858,3.30583 -7.95e-4,1.04074 -0.178461,2.07187 -0.271559,3.10739 -0.06345,0.8977 -0.273438,1.77397 -0.372209,2.66838 -0.08026,0.81641 -0.09395,1.6371 -0.102,2.45676 -0.0043,0.80892 -0.0018,1.61786 -7.73e-4,2.42678 0.0012,0.91631 0.0014,1.83261 0.0016,2.74892 1.36e-4,1.1567 1.17e-4,2.31339 1.12e-4,3.47009 -9e-6,1.0929 -1.4e-5,2.18579 -1.8e-5,3.27869 -2e-6,0.87944 -2e-6,1.75888 -3e-6,2.63828 -0.05303,0.7427 0.04076,1.4624 0.163807,2.1915 0.131433,0.7547 0.172576,1.5199 0.196889,2.2842 0.01752,0.7501 0.0154,1.5005 0.01493,2.2508 -9.52e-4,0.7613 -0.0017,1.5226 -0.0021,2.2839 -3.19e-4,0.8419 -3.42e-4,1.6838 -3.61e-4,2.5257 -6e-6,0.9226 5e-6,1.8452 9e-6,2.7678 5e-6,0.9394 6e-6,1.8788 7e-6,2.8182 0,0.8169 0,1.6339 0,2.4508 0,0.9566 0,1.9132 0,2.8697 0,0.8507 0,1.7014 0,2.5521 0,0.7541 0,1.5082 0,2.2623 0,0.7453 0,1.4906 0,2.2358 0,0.7463 0,1.4925 0,2.2387 0.05179,0.7784 -0.04562,1.5365 -0.174175,2.3012 -0.125469,0.7234 -0.16381,1.4568 -0.186895,2.1892 -0.01132,0.7653 -0.195766,1.5143 -0.287746,2.2726 -0.07865,0.73 -0.08931,1.4648 -0.09731,2.1983 0.06094,0.7064 -0.112375,1.3857 -0.232202,2.0745 -0.03538,0.5632 -0.258258,1.2116 -0.01005,1.7478 0.430559,0.3631 1.113884,0.3149 1.645262,0.3425 0.879353,0.029 1.759372,0.018 2.639007,0.013 0.856626,-0 1.713264,-0.01 2.569903,-0.01 0.760351,-8e-4 1.520704,-8e-4 2.281055,-8e-4 0.745584,10e-5 1.491168,10e-5 2.236752,10e-5 0.553721,0.027 1.092086,-0.085 1.541326,-0.4173 0.374801,-0.4898 0.669088,-1.0409 0.971666,-1.5782 0.401831,-0.6604 0.69988,-1.3731 1.076419,-2.048 0.340277,-0.6688 0.722648,-1.3159 1.003771,-2.0128 0.351608,-0.7402 0.711179,-1.4749 1.030788,-2.2304 0.271711,-0.7703 0.632305,-1.5059 0.968838,-2.2497 0.297142,-0.8181 0.643826,-1.6181 0.938766,-2.4372 0.332196,-0.7364 0.521574,-1.5199 0.795855,-2.2769 0.322111,-0.6346 0.516605,-1.3179 0.735928,-1.9918 0.186648,-0.763 0.521672,-1.4755 0.774704,-2.2162 0.247391,-0.7301 0.417175,-1.481 0.625637,-2.2218 0.222259,-0.7303 0.324892,-1.4855 0.504514,-2.2261 0.297115,-0.6135 0.434462,-1.2773 0.64423,-1.9191 0.21457,-0.5776 0.298987,-1.1846 0.483288,-1.7712 0.203475,-0.5633 0.405304,-1.1265 0.602797,-1.6934 0.181415,-0.6468 0.382574,-1.285 0.576039,-1.9285 0.22163,-0.6495 0.534917,-1.2601 0.831715,-1.8775 0.253926,-0.6681 0.647228,-1.2669 0.948391,-1.9112 0.324099,-0.5378 0.597046,-1.1072 0.801753,-1.7008 0.220895,-0.615 0.613275,-1.136 0.940706,-1.6939 0.258044,-0.6261 0.611453,-1.2055 0.885505,-1.8231 0.313053,-0.5432 0.583046,-1.1129 0.786163,-1.7062 0.297457,-0.711 0.62868,-1.4082 0.974046,-2.0974 0.254825,-0.6451 0.565499,-1.26114 0.922075,-1.8554 0.308321,-0.57616 0.582186,-1.16815 0.856008,-1.76145 0.393385,-0.66733 0.674581,-1.39039 1.007788,-2.08776 0.313251,-0.65673 0.668805,-1.29 0.965859,-1.95573 0.262486,-0.63617 0.507951,-1.2849 0.832273,-1.89315 0.363375,-0.672 0.624467,-1.38909 0.906181,-2.09675 0.312262,-0.69788 0.680947,-1.37121 0.976107,-2.07623 0.236272,-0.56328 0.402501,-1.15216 0.617183,-1.72265 0.260047,-0.50704 0.484217,-1.02842 0.723867,-1.54589 0.208326,-0.52537 0.40667,-1.05764 0.58366,-1.59556 0.270865,-0.51878 0.434516,-1.07721 0.65588,-1.61664 0.337424,-0.71241 1.01191,-0.91281 1.733921,-1.02329 0.863633,-0.0851 1.733604,-0.0648 2.600239,-0.0632 1.430005,0.12111 2.857629,0.24847 4.29167,0.31467 1.597004,0.0273 3.191332,0.14163 4.775725,0.3427 1.58052,0.22507 3.171383,0.35062 4.756632,0.53539 1.423828,0.18062 2.856869,0.25233 4.290479,0.29072 1.25837,0.10991 2.511013,0.25972 3.772713,0.32926 1.10722,0.13624 2.21131,0.28737 3.32408,0.37217 0.80929,0.056 1.6207,0.0633 2.43157,0.0672 0.74515,10e-4 1.4903,-5.7e-4 2.23546,-0.002 0.82032,-9.6e-4 1.64065,-10e-4 2.46098,-10e-4 0.80908,-8e-5 1.61816,-6e-5 2.42723,-5e-5 0.83109,0.0105 1.6536,0.0261 2.47582,-0.10187 0.76692,-0.142 1.54311,-0.20947 2.3212,-0.24676 0.82622,-0.03 1.6532,-0.0269 2.47984,-0.0272 0.88648,-0.0956 1.76764,-0.22748 2.65649,-0.30217 0.84701,-0.005 1.67496,-0.17783 2.51109,-0.29137 0.80613,-0.1051 1.61906,-0.13148 2.43093,-0.14638 0.75171,-0.009 1.5035,-0.007 2.25526,-0.006 0.74572,10e-4 1.49145,0.002 2.23718,0.002 0.7463,2.1e-4 1.4926,2e-4 2.23889,2.1e-4 0.74643,-10e-6 1.49286,-10e-6 2.23929,-2e-5 0.74643,0 1.49286,0 2.23929,0 0.78185,0 1.5637,0 2.34554,0 0.82737,0 1.65473,0 2.48209,0 0.75535,0 1.51071,0 2.26606,0 0.8904,-0.027 1.77124,0.007 2.65561,0.10872 0.97197,0.12595 1.94859,0.20349 2.9277,0.24062 0.95924,-0.0307 1.90249,0.13689 2.85037,0.25415 0.79306,0.0968 1.59177,0.12379 2.3898,0.13859 0.74835,0.0283 1.50049,-0.0393 2.24434,0.0543 0.63566,0.0796 1.23385,0.27924 1.84181,0.46719 0.62025,0.17154 1.26602,0.19718 1.90532,0.21961 0.73323,0.007 1.4564,-0.0137 2.17842,0.12607 0.63916,0.14883 1.29259,0.20128 1.94617,0.23346 0.85635,0.0305 1.7135,0.0257 2.57025,0.0259 0.97129,-3.7e-4 1.94257,-10e-4 2.91386,-0.002 0.84768,-4.8e-4 1.69537,-5.1e-4 2.54305,-5.4e-4 0.7924,-2e-5 1.58479,-10e-6 2.37719,-10e-6 0.74822,10e-6 1.49643,10e-6 2.24465,10e-6 0.69264,0.003 1.37759,0.0372 2.05876,-0.0992 0.61567,-0.0819 1.20405,-0.24093 1.80061,-0.40551 0.70562,-0.20977 1.3503,-0.17222 1.9843,0.19905 0.6102,0.48779 0.91797,1.21219 1.32423,1.85579 0.39053,0.59801 0.69917,1.2388 1.0246,1.87276 0.3785,0.50843 0.62931,1.09287 0.91751,1.65336 0.29564,0.61719 0.52212,1.2693 0.83952,1.8758 0.25046,0.54969 0.55023,1.06958 0.73329,1.6474 0.25798,0.56503 0.50355,1.13332 0.7506,1.70323 0.25163,0.6261 0.45711,1.27646 0.76271,1.87939 0.24613,0.5511 0.46785,1.11678 0.66587,1.68792 0.27713,0.71476 0.52493,1.43666 0.81248,2.14794 0.2348,0.7828 0.62687,1.4975 0.95016,2.2428 0.25364,0.5973 0.45141,1.21 0.65841,1.8243 0.24437,0.7078 0.51378,1.4071 0.77301,2.1101 0.26356,0.6956 0.66681,1.3183 0.91892,2.0179 0.24655,0.5947 0.50786,1.1742 0.79995,1.7479 0.32141,0.6821 0.58458,1.3863 0.89103,2.0744 0.21644,0.5487 0.47845,1.0786 0.74966,1.6022 0.22835,0.5291 0.38383,1.0917 0.64206,1.6079 0.3175,0.5842 0.58841,1.1889 0.84096,1.804 0.28906,0.7684 0.54647,1.5463 0.78116,2.3332 0.3114,0.8054 0.59834,1.6235 0.84453,2.4516 0.18165,0.7331 0.38176,1.4609 0.65281,2.1659 0.21038,0.6719 0.37651,1.3592 0.53886,2.0451 0.13457,0.7018 0.32521,1.391 0.57937,2.0583 0.17997,0.62 0.35535,1.2382 0.53456,1.8591 0.12282,0.5765 0.23058,1.1662 0.47201,1.7079 0.25185,0.5969 0.45119,1.2191 0.6263,1.8432 0.1628,0.6577 0.39959,1.2857 0.51911,1.9555 0.1297,0.6605 0.36354,1.2839 0.57442,1.9197 0.15924,0.6996 0.36184,1.3881 0.49727,2.0934 0.10383,0.6651 0.32125,1.3006 0.42842,1.9668 0.20903,0.6017 0.33953,1.218 0.41351,1.8495 0.0528,0.6386 0.24553,1.2526 0.33829,1.8872 0.0748,0.5268 0.0106,1.1664 0.39788,1.5838 0.44826,0.282 1.0086,0.2806 1.52124,0.305 0.73756,0.02 1.47554,0.01 2.21325,0.01 0.74919,-0 1.49839,-0.01 2.24759,-0.01 0.74673,-6e-4 1.49346,-5e-4 2.2402,-5e-4 0.75997,0.094 1.51107,0.2358 2.27417,0.3073 0.74344,0.1547 1.48529,0.2998 2.24145,0.375 0.73298,0.06 1.46898,0.063 2.20394,0.067 0.74566,10e-4 1.49133,-6e-4 2.23699,-0 0.71283,-0.034 1.43744,0.062 2.1448,-0.042 0.65047,-0.1525 1.31014,-0.2397 1.97554,-0.2891 0.53289,-0.056 0.64202,-0.406 0.73684,-0.8724 0.0611,-0.5426 -0.0466,-1.1296 -0.22148,-1.6462 -0.149,-0.5151 -0.53542,-0.8972 -0.80567,-1.3471 -0.29676,-0.5181 -0.45812,-1.0893 -0.68283,-1.6364 -0.24871,-0.573 -0.49812,-1.1446 -0.76914,-1.7076 -0.2532,-0.6552 -0.41877,-1.3458 -0.58278,-2.0292 -0.0969,-0.6922 -0.22484,-1.3681 -0.38643,-2.0477 -0.265,-0.6738 -0.42235,-1.3733 -0.51483,-2.0893 -0.058,-0.6593 -0.25535,-1.2932 -0.35083,-1.9485 -0.0887,-0.7261 -0.0958,-1.4586 -0.10311,-2.189 0.0512,-0.7398 -0.11395,-1.4598 -0.22159,-2.1865 -0.10707,-0.758 -0.13093,-1.5238 -0.14591,-2.2881 0.0425,-0.6832 -0.0348,-1.3378 -0.16862,-2.0042 -0.14005,-0.6944 -0.17429,-1.4027 -0.1972,-2.1088 -0.0174,-0.7454 -0.0152,-1.4912 -0.0147,-2.2368 9.2e-4,-0.7471 0.002,-1.4942 0.002,-2.2413 0.0147,-0.7329 0.0193,-1.455 -0.10093,-2.1787 -0.14595,-0.7532 -0.21061,-1.517 -0.24737,-2.2822 -0.0281,-0.7519 -0.0269,-1.5046 -0.0272,-2.2569 5.2e-4,-0.7466 0.002,-1.4932 0.002,-2.2397 0.0556,-0.7391 -0.11158,-1.4582 -0.22016,-2.1839 -0.11412,-0.7931 -0.13387,-1.5946 -0.1475,-2.3944 0.0505,-0.8228 -0.11337,-1.6264 -0.22813,-2.43603 -0.10525,-0.76597 -0.13026,-1.53918 -0.14528,-2.31117 -0.0103,-0.83837 -0.008,-1.67683 -0.007,-2.51524 -0.10121,-0.78558 -0.23661,-1.56428 -0.30251,-2.35427 -0.0584,-0.85096 -0.0655,-1.70424 -0.0702,-2.55683 -0.002,-0.7616 -4.5e-4,-1.5232 3.7e-4,-2.28479 -0.023,-0.73028 0.0518,-1.46686 -0.0409,-2.19277 -0.14576,-0.76228 -0.24057,-1.53037 -0.28845,-2.30458 -0.041,-0.84861 -0.0432,-1.69843 -0.0452,-2.54784 -4.6e-4,-0.76166 9.6e-4,-1.52331 0.002,-2.28497 6.2e-4,-0.74577 7.3e-4,-1.49153 8e-4,-2.2373 5e-5,-0.74615 3e-5,-1.4923 2e-5,-2.23844 0,-0.82136 -1e-5,-1.64271 -1e-5,-2.46407 0,-0.80913 0,-1.61826 0,-2.42739 0,-0.84427 0,-1.68854 0,-2.53282 0,-0.83558 0,-1.67116 0,-2.50675 0,-0.79361 0,-1.58723 0,-2.38084 0,-0.74849 0,-1.49697 0,-2.24545 0,-0.84768 0,-1.69536 0,-2.54304 0,-0.82575 0,-1.65151 0,-2.47727 0,-0.81025 0,-1.62051 0,-2.43076 0,-0.75098 0,-1.50195 0,-2.25292 0,-0.74572 0,-1.49144 0,-2.23715 0,-0.74631 0,-1.49262 0,-2.23893 0.003,-0.69325 0.0373,-1.37884 -0.0992,-2.06062 -0.0748,-0.60664 -0.31772,-1.16545 -0.46392,-1.75498 -0.0791,-0.645 -0.1935,-1.2722 -0.34038,-1.90477 -0.15354,-0.6947 -0.1843,-1.40686 -0.20621,-2.11543 -0.0161,-0.74613 -0.0134,-1.49251 -0.0126,-2.23876 10e-4,-0.74713 0.002,-1.49425 0.002,-2.24138 0.002,-0.73808 -0.17767,-1.46278 -0.26737,-2.19411 -0.0835,-0.75714 -0.0961,-1.51938 -0.10483,-2.28029 -0.005,-0.74798 -0.003,-1.496 -0.002,-2.244 0.0522,-0.68078 -0.0262,-1.3322 -0.16019,-1.996 -0.14099,-0.69439 -0.17572,-1.40283 -0.19892,-2.10904 -0.0177,-0.74551 -0.0154,-1.4913 -0.0149,-2.23696 0.003,-0.69392 0.0389,-1.38014 -0.0972,-2.06271 -0.15717,-0.67329 -0.21425,-1.36166 -0.24901,-2.05026 -0.0284,-0.7433 -0.0269,-1.48731 -0.0273,-2.23103 -0.11123,-0.63194 -0.2353,-1.25868 -0.30152,-1.89773 -0.0626,-0.73376 -0.0662,-1.47076 -0.0706,-2.20666 5.2e-4,-0.69426 0.0367,-1.38076 -0.0989,-2.06376 -0.15663,-0.67354 -0.21356,-1.36205 -0.24822,-2.05078 -0.0283,-0.74331 -0.0269,-1.48732 -0.0272,-2.23104 5.1e-4,-0.74727 0.002,-1.49454 0.002,-2.24181 4.7e-4,-0.74652 5.1e-4,-1.49305 5.5e-4,-2.23958 2e-5,-0.74642 1e-5,-1.49284 1e-5,-2.23926 -0.0657,-0.70825 0.10937,-1.38883 0.23043,-2.07908 0.0741,-0.64108 0.18034,-1.29955 0.0957,-1.94355 -0.1605,-0.41029 -0.63514,-0.46768 -1.02713,-0.45014 -0.78514,0.1189 -1.57924,0.16791 -2.36373,0.28722 -1.20083,0.15678 -2.38525,0.40491 -3.58544,0.56702 -1.37674,0.12118 -2.75422,0.24312 -4.12056,0.45593 -1.41653,0.21308 -2.83364,0.42626 -4.25506,0.60496 -1.4498,0.16192 -2.90779,0.2159 -4.36531,0.24348 -1.09766,0.0158 -2.19548,0.0126 -3.29323,0.0111 -1.00792,-0.002 -2.01584,-0.003 -3.02376,-0.003 -0.85714,-3.5e-4 -1.71428,-3.6e-4 -2.57143,-3.7e-4 -0.71979,0.0345 -1.45183,-0.0648 -2.16613,0.0413 -0.73853,0.16544 -1.49159,0.23979 -2.24538,0.2892 -0.65496,0.14476 -1.30829,0.27781 -1.97587,0.34878 -0.93561,0.0735 -1.87555,0.0663 -2.81341,0.0696 -0.95847,-0.0511 -1.90045,0.0378 -2.84823,0.16452 -1.01004,0.14159 -2.03097,0.17133 -3.04924,0.19395 -0.93817,-0.0418 -1.85663,0.0529 -2.78291,0.18031 -0.95721,0.12984 -1.92346,0.16791 -2.8881,0.19317 -0.79675,0.0164 -1.5937,0.015 -2.39057,0.0145 -0.7611,-9.5e-4 -1.5222,-0.002 -2.2833,-0.002 -0.84115,-3.1e-4 -1.6823,-3.3e-4 -2.52345,-3.5e-4 -0.86316,0.05 -1.71053,-0.0486 -2.5623,-0.17291 -0.86329,-0.1291 -1.73664,-0.164 -2.60801,-0.1881 -0.89681,0.0333 -1.7772,-0.0568 -2.66224,-0.18762 -0.86283,-0.11996 -1.73335,-0.1615 -2.60326,-0.18594 -0.8014,-0.0171 -1.60305,-0.0147 -2.40458,-0.0142 -0.82672,8.6e-4 -1.65343,0.002 -2.48014,0.002 -0.75501,3.2e-4 -1.51002,3.4e-4 -2.26503,3.5e-4 -0.80205,10e-6 -1.6041,0 -2.40616,0 -0.8102,-10e-6 -1.62041,-10e-6 -2.43061,-10e-6 -0.76622,0 -1.53244,0 -2.29866,0 -0.93142,0 -1.86284,0 -2.79427,0 -0.7851,0.0946 -1.56309,0.2306 -2.35098,0.30398 -0.72155,0.044 -1.43474,0.0429 -2.14674,0.17117 -0.7712,0.0952 -1.51485,0.31949 -2.27632,0.46638 -0.95823,0.1441 -1.93002,0.15984 -2.89717,0.1758 -0.95668,0.13342 -1.9125,0.24898 -2.87676,0.30969 -1.24109,0.17039 -2.4861,0.29622 -3.73638,0.37247 -1.20416,0.0622 -2.4102,0.0656 -3.61563,0.0692 -1.14855,10e-4 -2.2971,-5.4e-4 -3.44565,-0.001 -1.08985,0.0852 -2.17306,0.22856 -3.26392,0.30354 -1.00274,0.14843 -2.003,0.29715 -3.01413,0.37451 -0.86466,0.058 -1.73149,0.0659 -2.59775,0.0699 -0.74618,-0.003 -1.47876,0.17636 -2.218,0.26625 -0.84001,0.0926 -1.66674,0.27109 -2.5067,0.37147 -0.79078,0.0855 -1.58659,0.0987 -2.381153,0.10687 -0.69536,0.002 -1.38306,-0.0359 -2.06717,0.10008 -0.6727,0.15649 -1.36041,0.21319 -2.0483,0.24776 -0.743234,0.0283 -1.487176,0.0268 -2.230824,0.0271 -0.649053,-0.0129 -1.279548,0.17577 -1.919925,0.26486 -0.647875,0.0112 -1.262901,0.20166 -1.893818,0.32319 -0.768333,0.13156 -1.549661,0.1397 -2.326867,0.15231 -0.935875,0.01 -1.871828,0.006 -2.807737,0.006 -1.141271,-0.001 -2.282543,-0.002 -3.423815,-0.002 -0.853692,-1.9e-4 -1.707383,-2e-4 -2.561074,-2e-4 -0.822442,0 -1.644884,10e-6 -2.467326,10e-6 -0.969432,10e-6 -1.938864,10e-6 -2.908295,10e-6 -0.812156,-0.0145 -1.610444,0.17165 -2.414288,0.26783 -0.814741,0.0894 -1.635029,0.0966 -2.453662,0.10469 -0.777238,0.0424 -1.566973,-0.065 -2.338973,0.0438 -0.8478,0.1055 -1.679967,0.27708 -2.515899,0.44955 -0.901873,0.16671 -1.818686,0.21546 -2.733537,0.24373 -0.749802,-0.0432 -1.477135,0.12753 -2.213883,0.23423 -0.834381,0.13476 -1.683494,0.083 -2.519443,0.18644 -0.797924,0.14159 -1.60052,0.24116 -2.408896,0.29498 -0.74977,-0.017 -1.478088,0.15211 -2.214599,0.26408 -0.757278,0.10855 -1.522617,0.13128 -2.286331,0.14573 -0.748801,0.01 -1.497688,0.007 -2.246531,0.006 -0.693146,-0.004 -1.378584,-0.0388 -2.060336,0.0974 -0.67318,0.15734 -1.361493,0.21442 -2.050014,0.24919 -0.662962,-0.0404 -1.295834,0.13219 -1.941566,0.2464 -0.570305,0.0655 -1.113409,0.26127 -1.635171,0.49191 -0.584154,0.19194 -1.174059,0.36365 -1.76508,0.53716 -0.405561,0.0736 -0.797329,0.17056 -1.190303,0.29373 -0.503688,0.15772 -0.726732,-0.5546 -0.223043,-0.71232 l 0,0 c 0.397008,-0.12419 0.79378,-0.22721 1.203832,-0.29783 0.559895,-0.16305 1.117395,-0.3301 1.672866,-0.50346 0.576415,-0.25469 1.178438,-0.46719 1.807225,-0.54426 0.67547,-0.11883 1.340755,-0.29564 2.033804,-0.25682 0.652624,-0.0326 1.305052,-0.0857 1.942945,-0.236 0.730763,-0.14268 1.463328,-0.12186 2.20572,-0.11151 0.743857,8.8e-4 1.48776,0.003 2.231577,-0.006 0.730929,-0.0137 1.463491,-0.0344 2.18838,-0.13741 0.756993,-0.11474 1.506805,-0.28647 2.277251,-0.27091 0.795347,-0.0525 1.584451,-0.1531 2.369611,-0.29132 0.831091,-0.0965 1.671766,-0.06 2.501268,-0.18404 0.764029,-0.11032 1.520301,-0.28405 2.297748,-0.24156 0.871938,-0.0267 1.745828,-0.0718 2.605726,-0.2287 0.853953,-0.17607 1.70468,-0.34983 2.570502,-0.45872 0.804634,-0.0979 1.618676,-0.0224 2.427802,-0.05 0.791525,-0.008 1.584685,-0.0139 2.372534,-0.0995 0.833182,-0.0992 1.660437,-0.29206 2.502763,-0.27309 0.969431,0 1.938861,0 2.908292,0 0.822444,-1e-5 1.644888,-1e-5 2.467332,-2e-5 0.853757,0 1.707514,10e-6 2.561271,2.1e-4 1.141432,3e-4 2.282865,7.5e-4 3.424297,0.002 0.931657,8.5e-4 1.863358,0.004 2.794982,-0.005 0.734097,-0.0118 1.472215,-0.0177 2.198344,-0.13905 0.643172,-0.12277 1.271924,-0.31677 1.932059,-0.3295 0.674095,-0.0928 1.337416,-0.29274 2.021944,-0.2719 0.731339,-3.3e-4 1.462964,0.001 2.193911,-0.0262 0.65217,-0.0324 1.30417,-0.0852 1.94176,-0.2347 0.73013,-0.14183 1.46178,-0.1191 2.20336,-0.11403 0.767593,-0.008 1.536413,-0.0199 2.300423,-0.10166 0.83947,-0.0998 1.66542,-0.28015 2.50518,-0.37129 0.76787,-0.0928 1.52855,-0.27965 2.3044,-0.27166 0.84847,-0.004 1.6975,-0.0113 2.54443,-0.0677 1.01312,-0.077 2.01448,-0.2312 3.01981,-0.37493 1.10807,-0.0759 2.20798,-0.22595 3.31562,-0.30528 1.14759,9.3e-4 2.29519,0.003 3.44279,10e-4 1.19105,-0.004 2.3827,-0.007 3.57251,-0.0679 1.24989,-0.076 2.49399,-0.2047 3.73497,-0.37238 0.97591,-0.0611 1.94195,-0.18572 2.91126,-0.31105 0.92405,-0.0152 1.85243,-0.0294 2.76851,-0.16248 0.76448,-0.14648 1.51102,-0.37316 2.2853,-0.46805 0.73336,-0.13139 1.4668,-0.14 2.20973,-0.17974 0.81085,-0.075 1.61034,-0.22396 2.41995,-0.30717 0.93143,0 1.86285,0 2.79427,0 0.76622,0 1.53244,0 2.29866,0 0.81021,0 1.62041,0 2.43062,10e-6 0.80204,0 1.60409,10e-6 2.40613,10e-6 0.75489,-2e-5 1.50978,-4e-5 2.26467,-3.6e-4 0.8267,-4.1e-4 1.6534,-10e-4 2.4801,-0.002 0.80868,-4.5e-4 1.61748,-0.003 2.42603,0.0145 0.89941,0.0254 1.79941,0.0691 2.69143,0.19367 0.85605,0.12661 1.70599,0.21414 2.57373,0.17988 0.90052,0.025 1.80297,0.0621 2.6951,0.19563 0.81646,0.11916 1.62684,0.21593 2.45454,0.16509 0.84126,2e-5 1.68252,4e-5 2.52378,3.6e-4 0.76114,3.6e-4 1.52229,0.001 2.28343,0.002 0.7902,5.1e-4 1.5805,0.002 2.37058,-0.0143 0.93714,-0.0244 1.87592,-0.0607 2.80589,-0.18647 0.95425,-0.13125 1.90198,-0.22784 2.86809,-0.18709 0.99071,-0.0219 1.98411,-0.0499 2.96683,-0.18754 0.97945,-0.13097 1.95435,-0.22155 2.94456,-0.1711 0.91259,-0.003 1.82716,0.004 2.73767,-0.0655 0.67792,-0.071 1.33777,-0.21996 2.00561,-0.35132 0.73658,-0.0479 1.47162,-0.12276 2.19331,-0.28397 0.75108,-0.0954 1.51108,-0.0287 2.26683,-0.0481 0.85726,10e-6 1.71452,3e-5 2.57178,3.7e-4 1.00815,4.8e-4 2.0163,0.001 3.02444,0.003 1.0927,0.002 2.18547,0.005 3.27809,-0.011 1.43114,-0.027 2.86274,-0.0795 4.28638,-0.2378 1.41428,-0.17752 2.82421,-0.39004 4.23362,-0.60195 1.3714,-0.21213 2.75331,-0.33899 4.13524,-0.45805 1.19648,-0.16119 2.37712,-0.40969 3.57428,-0.56543 0.81982,-0.1219 1.64827,-0.18233 2.46962,-0.2955 0.79872,0.0127 1.54879,0.25705 1.77365,1.11053 0.0755,0.71905 -0.003,1.44455 -0.10196,2.1588 -0.11425,0.64853 -0.2846,1.28394 -0.21917,1.94985 1e-5,0.74643 2e-5,1.49287 0,2.2393 -4e-5,0.74669 -9e-5,1.49339 -5.5e-4,2.24008 -5.3e-4,0.74698 -0.002,1.49395 -0.002,2.24093 3.3e-4,0.73139 -0.001,1.46307 0.0263,2.19407 0.0325,0.65306 0.0855,1.30591 0.23519,1.94437 0.14174,0.73002 0.12016,1.46157 0.11284,2.20305 0.004,0.71185 0.007,1.42476 0.0667,2.13462 0.068,0.66458 0.21313,1.31323 0.30544,1.97387 3.3e-4,0.73135 -0.001,1.46299 0.0263,2.19394 0.0326,0.65277 0.0857,1.30533 0.23587,1.9434 0.14257,0.73137 0.12144,1.4645 0.11124,2.20745 -4.5e-4,0.73738 -0.003,1.47489 0.0146,2.21212 0.0216,0.66481 0.0524,1.33196 0.18457,1.98578 0.14366,0.71198 0.22645,1.41542 0.17493,2.14453 -8.8e-4,0.74484 -0.003,1.48971 0.002,2.23454 0.008,0.7335 0.0198,1.46829 0.0994,2.19825 0.0928,0.76148 0.28034,1.51573 0.27288,2.28512 -4e-4,0.74726 -0.001,1.49451 -0.002,2.24176 -7.8e-4,0.73835 -0.004,1.4768 0.0122,2.21503 0.0202,0.6595 0.0462,1.32267 0.18725,1.96966 0.14583,0.62894 0.26532,1.25353 0.33812,1.89529 0.14614,0.60052 0.39799,1.17002 0.47131,1.78836 0.14298,0.73061 0.12269,1.46313 0.11336,2.20544 0,0.74631 0,1.49262 0,2.23893 0,0.74571 0,1.49143 0,2.23715 0,0.75097 0,1.50194 0,2.25292 0,0.81025 0,1.62051 0,2.43076 0,0.82576 0,1.65152 0,2.47727 0,0.84768 0,1.69536 0,2.54304 0,0.74848 0,1.49696 0,2.24545 0,0.79361 0,1.58723 0,2.38084 0,0.83559 0,1.67117 0,2.50675 0,0.84428 0,1.68855 0,2.53282 0,0.80913 0,1.61826 0,2.42739 0,0.82135 0,1.64271 1e-5,2.46406 10e-6,0.74617 2e-5,1.49234 -2e-5,2.23852 -8e-5,0.74597 -1.8e-4,1.49194 -8e-4,2.23792 -7e-4,0.76085 -0.002,1.5217 -0.002,2.28255 0.002,0.83473 0.004,1.66986 0.0438,2.50383 0.0463,0.76004 0.14316,1.51322 0.28458,2.2617 0.0857,0.75754 0.0337,1.52077 0.0462,2.2822 -8.2e-4,0.75994 -0.003,1.51988 -3.9e-4,2.27982 0.005,0.83341 0.0113,1.66749 0.0677,2.49935 0.0667,0.81084 0.21698,1.60849 0.30506,2.41664 -8.1e-4,0.83334 -0.004,1.66674 0.007,2.50004 0.0143,0.7418 0.0374,1.48486 0.13804,2.22095 0.11886,0.83981 0.28517,1.67481 0.2354,2.52811 0.013,0.767 0.0307,1.5359 0.13941,2.2967 0.11376,0.762 0.28452,1.5188 0.22836,2.2947 -5.4e-4,0.7463 -0.002,1.4926 -0.002,2.2389 3.3e-4,0.7405 -9e-4,1.4814 0.0264,2.2216 0.0351,0.7364 0.0971,1.4715 0.23826,2.1963 0.12545,0.7643 0.12888,1.5269 0.11089,2.3006 -3.9e-4,0.7471 -10e-4,1.4943 -0.002,2.2414 -4.6e-4,0.7374 -0.003,1.475 0.0143,2.2122 0.0214,0.6649 0.0517,1.332 0.18298,1.986 0.14241,0.7093 0.22456,1.4103 0.18309,2.1366 0.0143,0.7326 0.0361,1.4667 0.138,2.1934 0.11233,0.76 0.28076,1.5147 0.2296,2.2883 0.007,0.6971 0.0129,1.3963 0.0955,2.0895 0.0947,0.6593 0.29813,1.2965 0.35247,1.9607 0.0876,0.6909 0.24971,1.3602 0.50066,2.0115 0.1612,0.6789 0.29287,1.3547 0.38614,2.0465 0.15087,0.6322 0.30593,1.2697 0.52945,1.8792 0.27814,0.5781 0.53352,1.1652 0.78926,1.7533 0.2035,0.5161 0.35901,1.0472 0.63276,1.5347 0.28955,0.5012 0.72887,0.9173 0.87352,1.498 0.20161,0.6492 0.34316,1.3561 0.24034,2.0338 -0.17836,0.7824 -0.54641,1.3702 -1.41126,1.458 -0.65042,0.048 -1.29375,0.1374 -1.92985,0.2843 -0.74373,0.094 -1.49609,0.03 -2.24448,0.049 -0.74718,9e-4 -1.49437,0 -2.24156,10e-4 -0.75855,-0 -1.51818,-0.01 -2.27462,-0.071 -0.75435,-0.076 -1.49691,-0.2112 -2.23708,-0.3746 -0.73973,-0.07 -1.46965,-0.1963 -2.20425,-0.304 -0.74646,0 -1.49291,-10e-5 -2.23937,5e-4 -0.74805,8e-4 -1.4961,0 -2.24413,0.01 -0.75119,0 -1.50265,0.015 -2.25368,-0.01 -0.73109,-0.036 -1.4961,-0.068 -2.06801,-0.5843 -0.42878,-0.5759 -0.51513,-1.2382 -0.55363,-1.9428 -0.0924,-0.6416 -0.29209,-1.2617 -0.34106,-1.9084 -0.0714,-0.6222 -0.21489,-1.2225 -0.40918,-1.818 -0.10402,-0.6587 -0.3264,-1.2856 -0.42446,-1.9443 -0.12803,-0.6736 -0.3252,-1.3301 -0.47279,-1.999 -0.22092,-0.6701 -0.46588,-1.3285 -0.6008,-2.0243 -0.11263,-0.6462 -0.35056,-1.249 -0.50295,-1.8845 -0.1648,-0.5928 -0.35469,-1.1834 -0.59349,-1.75 -0.23989,-0.5759 -0.3887,-1.1835 -0.50325,-1.7956 -0.17232,-0.601 -0.34522,-1.1989 -0.51482,-1.7999 -0.26559,-0.698 -0.46653,-1.4186 -0.60822,-2.1523 -0.15394,-0.6534 -0.31369,-1.3076 -0.50916,-1.9489 -0.27792,-0.7233 -0.48602,-1.4693 -0.6717,-2.2215 -0.24485,-0.8282 -0.53559,-1.6444 -0.84423,-2.4506 -0.22728,-0.7633 -0.47655,-1.5178 -0.7565,-2.2633 -0.24586,-0.601 -0.51074,-1.1906 -0.82162,-1.7607 -0.24541,-0.5157 -0.42504,-1.0603 -0.6336,-1.5911 -0.27765,-0.5366 -0.54506,-1.0804 -0.76866,-1.6416 -0.30123,-0.6765 -0.56049,-1.3683 -0.87439,-2.0396 -0.30641,-0.6023 -0.57952,-1.2118 -0.83792,-1.8362 -0.24477,-0.6981 -0.66752,-1.3116 -0.91609,-2.01 -0.26162,-0.7101 -0.53332,-1.4166 -0.78047,-2.1313 -0.19804,-0.5953 -0.38879,-1.1878 -0.63581,-1.7653 -0.32308,-0.7514 -0.72175,-1.47024 -0.95695,-2.25898 -0.29245,-0.72347 -0.54403,-1.4579 -0.82624,-2.18472 -0.18489,-0.54157 -0.39779,-1.07652 -0.62865,-1.59895 -0.30262,-0.61935 -0.53176,-1.27246 -0.77924,-1.91502 -0.25662,-0.59458 -0.51862,-1.18448 -0.77822,-1.77776 -0.1636,-0.53812 -0.45931,-1.01482 -0.68442,-1.5279 -0.30976,-0.61097 -0.55317,-1.25425 -0.83972,-1.87618 -0.28778,-0.5614 -0.54146,-1.14279 -0.91763,-1.65361 -0.31525,-0.61518 -0.61345,-1.2369 -0.99272,-1.81671 -0.34329,-0.55002 -0.61116,-1.159 -1.08324,-1.61684 -0.43496,-0.29121 -0.90189,-0.25439 -1.39482,-0.11507 -0.61389,0.16875 -1.22132,0.33167 -1.85392,0.41812 -0.73001,0.14292 -1.46192,0.12273 -2.20364,0.11336 -0.74822,0 -1.49644,0 -2.24465,-10e-6 -0.79239,-10e-6 -1.58477,-2e-5 -2.37715,0 -0.84755,4e-5 -1.69509,7e-5 -2.54263,5.5e-4 -0.97151,6e-4 -1.94303,0.002 -2.91454,0.002 -0.86899,-2.6e-4 -1.73838,0.005 -2.60695,-0.0269 -0.68923,-0.0343 -1.3783,-0.0906 -2.05252,-0.24643 -0.68235,-0.13499 -1.36809,-0.0985 -2.0615,-0.11265 -0.70534,-0.0251 -1.417,-0.0583 -2.10002,-0.25263 -0.56857,-0.17676 -1.12514,-0.36691 -1.72051,-0.4404 -0.71202,-0.10477 -1.44113,-0.004 -2.15848,-0.0478 -0.82404,-0.0154 -1.64873,-0.044 -2.46759,-0.14412 -0.92706,-0.1148 -1.84882,-0.28077 -2.78709,-0.24904 -0.99815,-0.0381 -1.99382,-0.11661 -2.98472,-0.24498 -0.856,-0.0987 -1.70814,-0.13026 -2.57019,-0.10382 -0.75535,0 -1.51071,0 -2.26606,0 -0.82736,0 -1.65472,0 -2.48209,0 -0.78184,0 -1.56369,0 -2.34554,0 -0.74643,0 -1.49286,0 -2.23928,10e-6 -0.74644,0 -1.49287,10e-6 -2.2393,10e-6 -0.74639,0 -1.49278,1e-5 -2.23917,-2.1e-4 -0.74594,-2.7e-4 -1.49189,-7.5e-4 -2.23784,-0.002 -0.74689,-9.3e-4 -1.49382,-0.003 -2.24067,0.006 -0.78289,0.0143 -1.56684,0.0389 -2.34426,0.13973 -0.84855,0.11495 -1.68955,0.28953 -2.54905,0.29553 -0.90952,0.0761 -1.81037,0.21776 -2.71856,0.30478 -0.81487,3.1e-4 -1.63008,-0.003 -2.44455,0.0264 -0.75185,0.0357 -1.50175,0.10104 -2.2427,0.23884 -0.86039,0.13229 -1.72055,0.12465 -2.5899,0.11064 -0.80905,-10e-6 -1.61809,-3e-5 -2.42713,5e-5 -0.82005,1.1e-4 -1.6401,2e-4 -2.46015,10e-4 -0.74664,9.3e-4 -1.49328,0.003 -2.23993,0.001 -0.82864,-0.004 -1.65784,-0.0117 -2.48485,-0.0693 -1.1075,-0.0847 -2.20691,-0.23143 -3.30843,-0.37114 -1.25462,-0.0695 -2.500613,-0.21481 -3.751553,-0.3284 -1.4558,-0.0391 -2.911004,-0.11226 -4.356883,-0.29547 -1.587859,-0.18507 -3.181367,-0.31073 -4.764484,-0.53634 -1.564409,-0.19981 -3.139002,-0.30998 -4.715918,-0.33752 -1.422968,-0.0658 -2.840006,-0.18836 -4.258584,-0.31388 -0.829574,-0.002 -1.662093,-0.0206 -2.489182,0.0551 -0.451105,0.0645 -0.922823,0.12483 -1.153064,0.56834 -0.21472,0.52321 -0.370174,1.06724 -0.637881,1.56805 -0.188539,0.56551 -0.394457,1.12627 -0.616705,1.67835 -0.238334,0.49717 -0.447223,1.00814 -0.702533,1.49586 -0.226034,0.57349 -0.383158,1.17656 -0.626228,1.74511 -0.296695,0.69933 -0.655577,1.3713 -0.970568,2.06272 -0.293092,0.7335 -0.564225,1.47712 -0.942005,2.17359 -0.319964,0.58992 -0.549711,1.22683 -0.808426,1.84464 -0.300916,0.67098 -0.657128,1.31127 -0.973939,1.97319 -0.332751,0.69377 -0.610415,1.41513 -1.003528,2.0787 -0.285962,0.61742 -0.570684,1.23419 -0.893959,1.83305 -0.348452,0.57733 -0.644248,1.17836 -0.894352,1.80496 -0.330822,0.66 -0.647509,1.3275 -0.935845,2.0067 -0.213318,0.6125 -0.482535,1.2073 -0.810314,1.7673 -0.289021,0.6415 -0.647475,1.2489 -0.923856,1.8974 -0.304706,0.5148 -0.666781,0.9957 -0.878797,1.5603 -0.216507,0.6166 -0.490631,1.2151 -0.831422,1.7734 -0.305842,0.6448 -0.693269,1.2482 -0.951141,1.917 -0.28107,0.5823 -0.575995,1.1582 -0.789575,1.7691 -0.197803,0.6539 -0.400337,1.3026 -0.586243,1.9599 -0.197042,0.5584 -0.395532,1.1149 -0.59517,1.6704 -0.185749,0.5901 -0.266588,1.203 -0.487191,1.7833 -0.211089,0.6183 -0.324486,1.2706 -0.626988,1.859 -0.181908,0.7498 -0.284604,1.5148 -0.511742,2.2536 -0.214887,0.7528 -0.384765,1.5181 -0.637716,2.2605 -0.253337,0.7366 -0.584007,1.4463 -0.771038,2.2052 -0.221934,0.6813 -0.417763,1.3737 -0.743905,2.015 -0.274157,0.7565 -0.462768,1.5402 -0.795528,2.276 -0.3028,0.8372 -0.654744,1.6561 -0.960941,2.4918 -0.334751,0.738 -0.692011,1.4682 -0.961461,2.2328 -0.318862,0.7518 -0.673933,1.4847 -1.02656,2.2203 -0.296091,0.7242 -0.685712,1.4016 -1.043832,2.0961 -0.378429,0.6749 -0.673131,1.3904 -1.07776,2.0504 -0.356573,0.6311 -0.687463,1.3016 -1.195736,1.8244 -0.590563,0.3954 -1.250577,0.5921 -1.967399,0.5508 -0.745582,0 -1.491163,0 -2.236744,0 -0.760011,-10e-5 -1.520022,-10e-5 -2.280033,7e-4 -0.85558,10e-4 -1.711159,0 -2.566726,0.01 -0.894095,0 -1.788594,0.017 -2.682386,-0.014 -0.84132,-0.045 -1.800054,-0.032 -2.303514,-0.8219 -0.240288,-0.7001 -0.133077,-1.4206 -0.02784,-2.142 0.113592,-0.6501 0.282453,-1.2873 0.221153,-1.9545 0.0083,-0.7608 0.02014,-1.523 0.102732,-2.2802 0.08988,-0.7363 0.267645,-1.4638 0.282653,-2.206 0.02434,-0.7661 0.06562,-1.5329 0.196851,-2.2894 0.121791,-0.7244 0.216746,-1.4395 0.163845,-2.1774 0,-0.7462 0,-1.4925 0,-2.2387 0,-0.7453 0,-1.4906 0,-2.2359 0,-0.7541 0,-1.5082 0,-2.2623 0,-0.8507 0,-1.7013 0,-2.552 0,-0.9566 0,-1.9132 1e-6,-2.8697 0,-0.817 0,-1.6339 -1e-6,-2.4509 0,-0.9394 -2e-6,-1.8787 -6e-6,-2.8181 -4e-6,-0.9227 -1.5e-5,-1.8453 -9e-6,-2.7679 1.9e-5,-0.842 4.2e-5,-1.684 3.61e-4,-2.526 3.63e-4,-0.7614 0.0011,-1.5227 0.0021,-2.2841 4.65e-4,-0.7422 0.0026,-1.4845 -0.01455,-2.2266 -0.02305,-0.7307 -0.06124,-1.4622 -0.186856,-2.1837 -0.129861,-0.7695 -0.226154,-1.5324 -0.174214,-2.3156 0,-0.87946 1e-6,-1.7589 3e-6,-2.63834 3e-6,-1.0929 8e-6,-2.1858 1.8e-5,-3.27869 5e-6,-1.15666 2.4e-5,-2.31331 -1.13e-4,-3.46997 -1.55e-4,-0.91604 -3.8e-4,-1.83208 -0.0016,-2.74812 -9.99e-4,-0.81168 -0.0036,-1.62338 8.08e-4,-2.43505 0.0083,-0.84468 0.02304,-1.69039 0.106507,-2.53164 0.09893,-0.88935 0.304464,-1.76096 0.37067,-2.65305 0.09138,-1.01436 0.265195,-2.02449 0.268561,-3.04366 0.0047,-1.1154 0.01252,-2.23129 0.0698,-3.34549 0.07375,-1.28125 0.211057,-2.55648 0.304961,-3.83613 0,-1.3046 0,-2.6092 0,-3.9138 0,-1.27315 0,-2.54631 -10e-7,-3.81947 0,-1.21273 -1e-6,-2.42546 -8e-6,-3.63818 -6e-6,-0.89156 -2.1e-5,-1.78313 -4e-6,-2.67469 3.4e-5,-0.75085 7.6e-5,-1.5017 5.42e-4,-2.25256 6.07e-4,-0.85106 0.0018,-1.70212 0.0025,-2.55318 6.7e-5,-0.99983 0.0028,-1.99989 -0.02448,-2.99944 -0.03687,-1.03762 -0.110521,-2.07324 -0.254671,-3.10214 -0.157204,-1.21247 -0.187204,-2.43075 -0.299551,-3.64769 -0.129453,-1.35947 -0.222714,-2.71627 -0.170914,-4.08337 -2.92e-4,-1.3429 -7.54e-4,-2.6858 -0.0018,-4.02871 -7.72e-4,-1.34513 -0.0033,-2.69029 0.007,-4.0354 0.01448,-1.27116 0.03456,-2.54374 0.145108,-3.81091 0.110208,-1.15865 0.279756,-2.31415 0.223132,-3.48139 0,-1.08006 0,-2.16012 0,-3.24018 0,-1.0663 0,-2.13261 0,-3.19891 0,-1.13074 0,-2.26149 0,-3.39223 0,-1.1568 0,-2.3136 0,-3.4704 0,-1.00393 0,-2.00787 0,-3.0118 0,-1.14414 0,-2.28827 0,-3.43241 0,-0.5278 0.746426,-0.5278 0.746426,0 z"
       inkscape:connector-curvature="0" />
    <path
       style="fill:#000000;fill-opacity:1;stroke:none"
       id="path2987"
       d="m 115.33081,998.57109 c -1.27221,-0.16225 -2.55365,-0.23094 -3.83431,-0.28314 -1.04116,-0.0246 -2.0375,0.26952 -3.04587,0.47847 -0.67921,0.13794 -1.35858,0.31546 -2.02161,0.52082 -0.63906,0.17021 -1.2598,0.39848 -1.86997,0.6533 -0.6983,0.26086 -1.41881,0.46946 -2.14011,0.65916 -0.57353,0.2147 -1.10599,0.5464 -1.56506,0.9508 -0.29396,0.4431 -0.54806,0.9138 -0.83217,1.3663 -0.277922,0.5074 -0.316362,1.0892 -0.353732,1.6547 -0.0329,0.7279 -0.027,1.4569 -0.0255,2.1854 0.0357,0.7143 -0.0598,1.4406 0.0459,2.1494 0.0824,0.571 0.30044,1.1051 0.529572,1.6312 0.34301,0.536 0.71157,1.0528 1.07494,1.5745 0.41544,0.4659 0.89768,0.8787 1.38497,1.2696 0.48343,0.392 1.04029,0.6105 1.59855,0.8611 0.55779,0.3757 1.18855,0.5967 1.81566,0.8247 0.65394,0.1536 1.27659,0.4095 1.93005,0.5641 0.66066,0.079 1.25031,0.3963 1.86821,0.6169 0.60375,0.192 1.17776,0.4357 1.80369,0.5518 0.68536,0.1008 1.37994,0.1038 2.07116,0.1102 0.74483,0 1.48966,0 2.23449,-0 0.62814,0.055 1.18936,-0.038 1.75474,-0.2989 0.49837,-0.2194 0.97478,-0.4878 1.45219,-0.7509 0.50327,-0.1617 0.81629,-0.5626 1.1775,-0.9194 0.40115,-0.3888 0.71521,-0.8457 1.0573,-1.2835 0.28696,-0.5369 0.68021,-0.978 1.08697,-1.4262 0.34186,-0.5046 0.66616,-1.0282 0.95649,-1.5658 0.29449,-0.6015 0.3577,-1.2675 0.40173,-1.9257 0.001,-0.7025 0.0904,-1.4186 -0.015,-2.116 -0.0924,-0.5438 -0.26546,-1.0785 -0.52385,-1.5668 -0.26087,-0.4646 -0.56,-0.9079 -0.83852,-1.3642 -0.29851,-0.4215 -0.57176,-0.8267 -0.92732,-1.2008 -0.36903,-0.3895 -0.84437,-0.633 -1.2239,-1.007 -0.35803,-0.3691 -0.80339,-0.6193 -1.23006,-0.8958 -0.42549,-0.3408 -0.90372,-0.5537 -1.38796,-0.79005 -0.51712,-0.23187 -1.04504,-0.44482 -1.54703,-0.70885 -0.53839,-0.30753 -1.0993,-0.56571 -1.65283,-0.84419 -0.0879,-0.0359 -0.17576,-0.0718 -0.26364,-0.10778 -0.48782,-0.2015 -0.20285,-0.89139 0.28498,-0.68988 l 0,0 c 0.10476,0.0437 0.20953,0.0873 0.31429,0.13095 0.5589,0.28153 1.12531,0.54316 1.66957,0.85289 0.48981,0.26872 1.01944,0.4615 1.52511,0.69756 0.5075,0.2542 1.01534,0.48127 1.46597,0.83459 0.46861,0.30976 0.96147,0.58676 1.35465,0.99806 0.36089,0.3898 0.88369,0.6025 1.2321,1.0155 0.39211,0.4133 0.69534,0.863 1.02362,1.3267 0.28687,0.4725 0.59661,0.9305 0.86544,1.4123 0.28436,0.5691 0.50234,1.1736 0.59875,1.8044 0.0971,0.7514 0.0377,1.5132 0.0204,2.2689 -0.0524,0.7655 -0.13937,1.5357 -0.49036,2.2312 -0.32058,0.5885 -0.67125,1.167 -1.05989,1.7115 -0.39664,0.437 -0.77335,0.8602 -1.05279,1.3857 -0.36444,0.4605 -0.69699,0.9438 -1.12103,1.3547 -0.40845,0.3988 -0.77823,0.8531 -1.34069,1.0409 -0.49334,0.2712 -0.98667,0.5466 -1.50061,0.7753 -0.66257,0.3032 -1.33285,0.4242 -2.0648,0.367 -0.74764,10e-4 -1.4953,0 -2.24294,10e-4 -0.73518,-0.01 -1.47396,-0.011 -2.20237,-0.123 -0.66422,-0.1268 -1.27792,-0.3744 -1.91766,-0.5828 -0.59172,-0.2134 -1.15652,-0.5171 -1.78944,-0.5935 -0.68077,-0.164 -1.33153,-0.4235 -2.01208,-0.5887 -0.64354,-0.2347 -1.29666,-0.4594 -1.86848,-0.8463 -0.61265,-0.2811 -1.22763,-0.5279 -1.75917,-0.9601 -0.53962,-0.4379 -1.08109,-0.8921 -1.52892,-1.4242 -0.39064,-0.5628 -0.795002,-1.1159 -1.147312,-1.7046 -0.25284,-0.5889 -0.49528,-1.1871 -0.58392,-1.826 -0.0954,-0.7452 -0.0317,-1.4992 -0.0528,-2.2491 -0.002,-0.7457 -0.008,-1.4919 0.0271,-2.2369 0.0468,-0.69 0.11319,-1.3906 0.46664,-2.0022 0.32309,-0.513 0.59288,-1.0636 0.975642,-1.5333 0.55224,-0.4713 1.17394,-0.872 1.86407,-1.10836 0.68867,-0.18005 1.37607,-0.38004 2.04329,-0.62655 0.63309,-0.26145 1.27544,-0.50148 1.93768,-0.67765 0.68666,-0.20809 1.38618,-0.39681 2.08876,-0.53801 1.06806,-0.22091 2.1245,-0.52707 3.22763,-0.49336 1.30578,0.0533 2.61237,0.12377 3.90944,0.29002 0.5225,0.0746 0.41694,0.81357 -0.10556,0.73893 z"
       inkscape:connector-curvature="0" />
    <path
       style="fill:#cccccc;fill-opacity:1;stroke:none"
       d="m 111.72229,998.6388 c -3.7582,0.40236 -7.848,1.12396 -10.89316,3.4755 -1.498962,2.488 -1.056982,5.8577 -0.27991,8.5256 2.71103,3.9254 7.91494,5.203 12.38601,5.8432 3.0069,0.4124 6.41095,-0.041 8.16404,-2.8225 2.3966,-2.3361 3.71681,-6.1889 1.56283,-9.132 -2.37648,-3.4742 -6.65364,-6.09713 -10.93981,-5.8898 z"
       id="path2993"
       inkscape:connector-curvature="0" />
    <path
       style="fill:#000000;fill-opacity:1;stroke:none"
       id="path2989"
       d="m 130.62462,981.39097 c 0,1.04227 0,2.08455 0,3.12683 0,0.82267 0,1.64535 0,2.46802 0.0241,0.73112 -0.0512,1.46869 0.042,2.19541 0.14241,0.74583 0.23607,1.49749 0.28837,2.25461 0.0424,0.75377 0.0435,1.50902 0.0453,2.26373 4.3e-4,0.74682 -9.8e-4,1.49372 -0.002,2.24062 -6.3e-4,0.7463 -7.3e-4,1.4926 -8e-4,2.2389 -5e-5,0.7465 -3e-5,1.4929 -3e-5,2.23931 1e-5,0.7464 1e-5,1.4928 1e-5,2.2393 0.0507,0.729 -0.0326,1.4323 -0.1764,2.1442 -0.13233,0.6537 -0.16306,1.3208 -0.18468,1.9856 -0.0172,0.7373 -0.015,1.4748 -0.0145,2.2121 0.0515,0.7296 -0.0308,1.4337 -0.17429,2.1462 -0.132,0.6541 -0.16276,1.3214 -0.18436,1.9863 -0.0172,0.7373 -0.015,1.4748 -0.0146,2.2121 0.0665,0.7088 -0.10765,1.3902 -0.22834,2.0812 -0.10694,0.6743 -0.1239,1.358 -0.13758,2.0393 0.0169,0.6882 -0.15682,1.354 -0.41045,1.9871 -0.1952,0.6355 -0.52494,1.1429 -1.09331,1.49 -0.67072,0.2398 -1.38818,0.342 -2.08809,0.4785 -0.75953,0.1415 -1.53217,0.1754 -2.30263,0.1965 -0.67065,-0.054 -1.31141,0.1157 -1.96488,0.2298 -0.71183,0.1136 -1.43354,0.1324 -2.15278,0.1466 -0.72942,0.06 -1.4328,-0.025 -2.14489,-0.1697 -0.65324,-0.059 -1.24325,-0.256 -1.81859,-0.5607 -0.63925,-0.3847 -1.23447,-0.8223 -1.73075,-1.381 -0.51442,-0.4259 -0.901,-0.911 -1.26188,-1.4678 -0.33329,-0.5825 -0.52471,-1.2417 -0.70108,-1.887 -0.1849,-0.7469 -0.22003,-1.5172 -0.24333,-2.2827 -0.0153,-0.7518 -0.0113,-1.5038 -0.01,-2.2557 0.002,-0.7466 0.003,-1.4932 0.003,-2.2397 3.5e-4,-0.7464 3.4e-4,-1.4927 3.4e-4,-2.2391 0.0514,-0.6809 -0.0275,-1.3324 -0.16164,-1.9963 -0.24942,-0.4612 -0.26712,-1.0344 -0.58883,-1.4516 -0.30754,-0.249 -0.71774,-0.077 -1.05714,0.018 -0.66517,0.1922 -1.35157,0.2525 -2.01765,0.4376 -0.55451,0.083 -0.78707,0.3253 -0.9281,0.8408 -0.12319,0.6603 -0.11051,1.3366 -0.11155,2.0056 0.003,0.7491 0.008,1.4981 0.0105,2.2472 0.002,0.7477 0.002,1.4954 0.003,2.2431 0.11197,0.6311 0.23689,1.2569 0.30358,1.8952 0.0631,0.7337 0.0667,1.4706 0.0711,2.2064 0.13128,0.5924 0.17204,1.2109 0.33692,1.7944 0.1383,0.5789 0.3369,1.1336 0.51879,1.699 0.17859,0.5955 0.40337,1.1645 0.51797,1.7793 0.18716,0.5697 0.39489,1.1417 0.65846,1.6809 0.2495,0.5752 0.47893,1.1623 0.68409,1.7556 0.22038,0.4697 0.603,0.8594 1.04176,1.1312 0.58892,0.2739 1.2069,0.4649 1.80758,0.7096 0.59811,0.2198 1.23177,0.2746 1.84394,0.4449 0.61532,0.1786 1.25495,0.2227 1.89138,0.2534 0.64261,0.1236 1.27764,0.263 1.92961,0.3298 0.73809,0.04 1.46749,0.052 2.19734,0.1762 0.72395,0.1429 1.45878,0.2027 2.19463,0.2369 0.74071,0.027 1.48204,0.025 2.22311,0.025 0.71255,-0.034 1.437,0.062 2.14404,-0.043 0.66233,-0.064 1.00495,-0.2581 1.47493,-0.6918 0.38868,-0.4517 0.5173,-1.0566 0.77001,-1.5867 0.29648,-0.6513 0.55528,-1.3156 0.90857,-1.9393 0.29454,-0.6511 0.80875,-1.1611 1.16885,-1.7688 0.33302,-0.4552 0.63828,-0.9249 0.95395,-1.3909 0.28381,-0.478 0.42743,-1.014 0.71267,-1.494 0.25385,-0.4652 0.54975,-0.9043 0.71356,-1.4117 0.17835,-0.6551 0.35578,-1.3044 0.45293,-1.9777 0.14196,-0.678 0.39383,-1.3227 0.59056,-1.9846 0.13827,-0.7145 0.27508,-1.4276 0.42139,-2.1413 0.0929,-0.7525 0.22613,-1.4935 0.37301,-2.2372 0.1377,-0.747 0.35689,-1.472 0.471,-2.2244 0.094,-0.7249 0.10262,-1.4569 0.11011,-2.1868 0.004,-0.7449 0.001,-1.4899 -1.9e-4,-2.2348 -0.001,-0.7466 -0.002,-1.4932 -0.002,-2.2398 -1.4e-4,-0.7465 -1.2e-4,-1.4929 -1.1e-4,-2.2394 1e-5,-0.74641 2e-5,-1.49281 2e-5,-2.23931 0,-0.7464 0,-1.4928 0,-2.2392 -0.11192,-0.6311 -0.23686,-1.2569 -0.30358,-1.89518 -0.0631,-0.73365 -0.0668,-1.47059 -0.0712,-2.20641 -0.10976,-0.73535 -0.23448,-1.46656 -0.30358,-2.20739 -0.0403,-0.66074 -0.24008,-1.29595 -0.33623,-1.95055 -0.0138,-0.64841 -0.20281,-1.26458 -0.32375,-1.89648 -0.12077,-0.71223 -0.13754,-1.43589 -0.15113,-2.15644 0.0573,-0.66625 -0.11161,-1.30279 -0.22479,-1.95201 -0.0773,-0.46834 -0.10423,-0.94234 -0.12775,-1.41572 -0.026,-0.52716 0.71947,-0.56399 0.74552,-0.0368 l 0,0 c 0.0218,0.44286 0.0461,0.88636 0.11762,1.32463 0.11904,0.68597 0.29233,1.36243 0.2357,2.06592 0.0127,0.67838 0.0268,1.3598 0.13806,2.03072 0.12179,0.64208 0.31403,1.26987 0.32912,1.92842 0.0967,0.66739 0.3049,1.31452 0.34085,1.9893 0.0705,0.76243 0.20991,1.51311 0.30677,2.27196 0.004,0.71157 0.007,1.42422 0.0672,2.13377 0.0685,0.66416 0.21494,1.31206 0.30757,1.97226 0,0.7464 0,1.4928 0,2.2393 -1e-5,0.7464 -1e-5,1.4928 -3e-5,2.23931 0,0.7463 -3e-5,1.4927 1.2e-4,2.2391 2e-4,0.7463 5.2e-4,1.4925 0.002,2.2388 0.001,0.7479 0.004,1.4958 1.5e-4,2.2437 -0.008,0.765 -0.018,1.5322 -0.11861,2.2918 -0.11713,0.763 -0.33392,1.4995 -0.47661,2.2564 -0.1474,0.7457 -0.27936,1.4882 -0.37409,2.2425 -0.15095,0.7351 -0.28856,1.47 -0.43732,2.2048 -0.18773,0.6271 -0.42269,1.2384 -0.56716,1.8785 -0.10494,0.7165 -0.29116,1.4087 -0.4832,2.1056 -0.18956,0.559 -0.49544,1.0539 -0.78484,1.5653 -0.30569,0.4815 -0.40659,1.0561 -0.73366,1.5265 -0.31215,0.4509 -0.60142,0.9149 -0.93073,1.3548 -0.36535,0.5986 -0.8575,1.1132 -1.15959,1.7529 -0.34814,0.6073 -0.5904,1.2613 -0.88511,1.8947 -0.30039,0.611 -0.43458,1.3164 -0.93604,1.8107 -0.5808,0.5352 -1.08406,0.7967 -1.87988,0.8826 -0.74395,0.095 -1.49669,0.031 -2.24534,0.05 -0.75259,-2e-4 -1.50544,10e-4 -2.25766,-0.026 -0.76639,-0.036 -1.53172,-0.099 -2.28581,-0.2468 -0.71312,-0.1227 -1.42679,-0.1242 -2.14806,-0.1694 -0.63799,-0.066 -1.26334,-0.1879 -1.88908,-0.3268 -0.69194,-0.034 -1.38672,-0.086 -2.05555,-0.2799 -0.63893,-0.1783 -1.30429,-0.2277 -1.92525,-0.4727 -0.64271,-0.2618 -1.30818,-0.4594 -1.92977,-0.773 -0.57208,-0.3776 -1.07347,-0.8765 -1.34388,-1.5165 -0.19318,-0.5666 -0.41497,-1.1258 -0.65099,-1.6749 -0.28526,-0.6022 -0.53058,-1.2301 -0.71974,-1.8691 -0.10572,-0.5838 -0.32915,-1.1201 -0.4947,-1.6866 -0.18384,-0.5765 -0.38623,-1.1429 -0.52857,-1.7321 -0.16935,-0.6491 -0.24562,-1.3245 -0.36271,-1.9846 -0.004,-0.7115 -0.007,-1.4242 -0.0672,-2.1337 -0.0685,-0.6641 -0.21485,-1.312 -0.30758,-1.9722 -1.8e-4,-0.7469 -4e-4,-1.4938 -0.003,-2.2407 -0.003,-0.7503 -0.008,-1.5006 -0.0105,-2.2509 10e-4,-0.7402 -0.012,-1.4894 0.14253,-2.2173 0.2307,-0.7363 0.65178,-1.2163 1.44407,-1.3472 0.6664,-0.1845 1.35035,-0.252 2.01672,-0.4373 0.67866,-0.1881 1.34127,-0.301 1.87011,0.2747 0.34773,0.5281 0.46741,1.1489 0.7079,1.7302 0.14385,0.7119 0.22709,1.4152 0.17643,2.1442 -1e-5,0.7465 10e-6,1.493 -3.4e-4,2.2395 -4.5e-4,0.7469 -10e-4,1.4938 -0.003,2.2407 -10e-4,0.7439 -0.005,1.4879 0.009,2.2317 0.0213,0.707 0.0504,1.4188 0.2175,2.1094 0.1547,0.5721 0.32271,1.1572 0.60781,1.6779 0.3402,0.5283 0.70605,0.9752 1.19622,1.3808 0.42876,0.4977 0.96436,0.867 1.51894,1.2134 0.51312,0.2721 1.03215,0.4405 1.61767,0.4888 0.6591,0.1339 1.3054,0.2151 1.98162,0.1549 0.68123,-0.013 1.3649,-0.03 2.03935,-0.1357 0.68824,-0.1196 1.36682,-0.2931 2.07266,-0.2406 0.72939,-0.02 1.461,-0.05 2.18025,-0.183 0.62102,-0.1208 1.2489,-0.2276 1.85771,-0.3923 0.43823,-0.2269 0.62142,-0.6697 0.77365,-1.1215 0.22088,-0.5495 0.37673,-1.1255 0.35692,-1.7241 0.0145,-0.7194 0.034,-1.4412 0.14861,-2.1531 0.11389,-0.6492 0.28337,-1.2854 0.21716,-1.9519 -4.6e-4,-0.7457 -0.003,-1.4914 0.0149,-2.2369 0.0232,-0.7063 0.0579,-1.4148 0.19865,-2.1093 0.13381,-0.6646 0.21174,-1.3169 0.1596,-1.9984 -4.6e-4,-0.7457 -0.003,-1.4915 0.0149,-2.237 0.0232,-0.7062 0.0579,-1.4147 0.19907,-2.1091 0.13417,-0.6639 0.21302,-1.3154 0.16162,-1.9964 0,-0.7464 -1e-5,-1.4928 -1e-5,-2.2392 -1e-5,-0.74651 -3e-5,-1.49291 2e-5,-2.23931 7e-5,-0.7466 1.8e-4,-1.4931 8e-4,-2.2396 6.8e-4,-0.7461 0.002,-1.4921 0.002,-2.23808 -0.002,-0.73825 -0.003,-1.47702 -0.0436,-2.21437 -0.051,-0.74465 -0.1462,-1.48318 -0.2848,-2.21688 -0.0861,-0.7582 -0.0339,-1.52221 -0.0473,-2.28435 0,-0.82267 0,-1.64535 0,-2.46802 0,-1.04228 0,-2.08456 0,-3.12683 0,-0.52781 0.74643,-0.52781 0.74643,0 z"
       inkscape:connector-curvature="0" />
    <path
       style="fill:#000000;fill-opacity:1;stroke:none"
       id="path2991"
       d="m 130.19069,980.70525 c 1.04228,0 2.08456,0 3.12684,0 0.69559,0 1.39119,0 2.08678,0 0.5278,0 0.5278,0.74643 0,0.74643 l 0,0 c -0.69559,0 -1.39119,0 -2.08678,0 -1.04228,0 -2.08456,0 -3.12684,0 -0.5278,0 -0.5278,-0.74643 0,-0.74643 z"
       inkscape:connector-curvature="0" />
    <path
       style="fill:#cccccc;fill-opacity:1;stroke:none"
       d="m 131.03607,991.25618 c 0.0806,10.04292 0.20261,20.19742 -1.45786,30.12532 -1.07536,3.1023 -5.17426,2.0614 -7.69752,2.5075 -3.05523,0.3329 -6.68389,0.3152 -8.4906,-2.6591 -3.06344,-4.2646 -0.40563,-10.0186 -2.28594,-14.6253 -1.40502,-0.8852 -4.17021,0.1483 -3.75545,2.1576 0.0413,6.3135 0.19019,13.1038 3.74379,18.5557 4.99896,2.3615 10.83664,2.3186 16.26976,2.1693 2.50007,-0.2044 2.24494,-3.4355 3.75706,-4.8754 3.79382,-5.2936 4.80701,-12.0074 5.24487,-18.3564 0.22563,-7.72871 -0.3349,-15.45066 -1.46229,-23.08884 0.8966,-2.27411 -4.17939,-2.15712 -4.10291,-0.98438 0.079,3.02467 0.15806,6.04933 0.23709,9.074 z"
       id="path2995"
       inkscape:connector-curvature="0" />
    <path
       style="fill:#ececec;fill-opacity:1;stroke:none"
       d="m 221.26036,891.93482 c -9.34091,1.43383 -18.78035,1.81482 -28.2112,2.16662 -10.27099,0.65143 -20.54944,1.49137 -30.84817,0.88061 -10.35226,-0.10107 -20.77809,-1.11835 -31.05565,0.60161 -10.77949,0.9914 -21.61503,1.26137 -32.386852,2.39069 -8.924801,1.18543 -17.925483,0.95781 -26.900036,1.26145 -10.012865,0.69753 -19.995123,1.82193 -29.997011,2.63582 -1.820037,0.56344 -5.399903,0.003 -4.599144,2.82222 -0.154315,15.11069 -0.752827,30.23886 0.149399,45.3339 0.195168,11.75493 -0.09315,23.51749 -0.788567,35.24525 -0.298343,16.89651 0.602599,33.81321 -0.186052,50.69701 -0.275611,2.8615 -0.564514,5.7218 -0.815294,8.5857 4.229749,0 8.459499,0 12.689248,0 4.54626,-8.3362 7.872768,-17.2689 10.324461,-26.4249 4.284296,-12.0683 10.88655,-23.14239 15.602194,-35.03866 0.636142,-1.96749 1.932867,-4.14431 4.361929,-3.60384 13.395002,0.52795 26.740485,2.67142 40.178105,1.81217 5.24798,-0.4818 10.6637,-0.41056 15.80388,-1.36898 0.77883,-0.94858 1.47872,0.85285 2.54251,0.33823 9.99071,0.0684 19.96116,0.82707 29.89205,1.81941 6.85608,0.42392 13.80471,-0.46421 20.60836,0.39654 4.93152,7.74664 7.53946,16.73072 11.28348,25.08363 5.49388,11.9396 8.84566,24.7429 11.63414,37.5462 6.95592,-0.019 13.85768,1.5694 20.79498,0.5365 1.99913,-0.7232 -0.18449,-3.1797 -0.50151,-4.4086 -3.6918,-8.6623 -3.11293,-18.3336 -3.90707,-27.5361 -0.70239,-12.6659 -1.4633,-25.32866 -1.42193,-38.02097 -0.25826,-11.33066 0.10614,-22.71417 -0.74737,-34.00919 -1.03806,-12.09181 -1.52907,-24.22931 -2.30123,-36.34115 -0.21027,-4.47368 -0.0925,-8.95097 0.0503,-13.4245 -0.41573,0.011 -0.83368,-0.0241 -1.24793,0.0233 z"
       id="path2997"
       inkscape:connector-curvature="0" />
    <path
       style="fill:#000000;fill-opacity:1;stroke:none"
       id="path2999"
       d="m 57.807357,898.85766 c 0.791739,-0.82127 1.815337,-1.20105 2.863866,-1.56612 0.997337,-0.33525 2.037867,-0.46375 3.08241,-0.52895 0.768185,-0.009 1.5155,-0.20563 2.274722,-0.30423 0.697285,-0.11295 1.412889,-0.0281 2.107622,-0.14004 0.649374,-0.15764 1.309556,-0.24251 1.97494,-0.29102 0.739771,-0.0424 1.481084,-0.0423 2.221806,-0.044 0.747424,-3e-4 1.494848,10e-4 2.242272,0.002 0.746589,6.1e-4 1.493179,7.1e-4 2.239769,7.8e-4 0.746421,5e-5 1.492843,3e-5 2.239264,2e-5 0.746423,0 1.492847,-10e-6 2.23927,-10e-6 0.869615,-0.0294 1.459791,-0.0426 2.006018,0.71233 0.240283,0.62063 0.331271,1.29044 0.475723,1.94134 0.07364,0.33999 0.106961,0.68602 0.140336,1.03157 0.05035,0.5254 -0.692672,0.59661 -0.743022,0.0712 l 0,0 c -0.02996,-0.31527 -0.05954,-0.63102 -0.126067,-0.94131 -0.124895,-0.56465 -0.231074,-1.1328 -0.369904,-1.69159 -0.270773,-0.51664 -0.884344,-0.3679 -1.383082,-0.37712 -0.746422,0 -1.492844,0 -2.239266,10e-6 -0.746446,10e-6 -1.492893,2e-5 -2.239339,-2e-5 -0.746794,-7e-5 -1.493587,-1.7e-4 -2.240381,-7.9e-4 -0.746638,-6.8e-4 -1.493275,-0.002 -2.239914,-0.002 -0.723292,0.002 -1.447155,0.001 -2.169552,0.0421 -0.64678,0.0465 -1.287148,0.13276 -1.918491,0.28476 -0.703029,0.0991 -1.417254,0.0469 -2.122249,0.14208 -0.775646,0.0999 -1.539031,0.30223 -2.324255,0.30897 -0.976711,0.0602 -1.950045,0.17683 -2.883198,0.48888 -0.942455,0.32813 -1.868438,0.64812 -2.581495,1.38899 -0.373213,0.37321 -0.901016,-0.15459 -0.527803,-0.5278 z"
       inkscape:connector-curvature="0" />
    <path
       style="fill:#000000;fill-opacity:1;stroke:none"
       id="path3001"
       d="m 67.175376,896.04657 c 0,-1.04228 0,-2.08456 0,-3.12684 0,-0.82267 0,-1.64535 0,-2.46802 -0.01068,-0.77378 -0.0089,-1.53649 0.06798,-2.30088 0.08633,-0.72353 0.124129,-1.45737 0.145517,-2.19258 0.0041,-0.67851 0.126672,-1.33304 0.183515,-2.00245 0.02905,-0.74081 0.110145,-1.47272 0.232102,-2.1872 0.146288,-0.70249 0.217063,-1.43127 0.25596,-2.16779 0.01766,-0.67421 0.140204,-1.32302 0.197099,-1.98984 0.05254,-0.71799 0.16672,-1.4172 0.225185,-2.13493 0.01999,-0.76055 0.08646,-1.50456 0.167863,-2.25289 0.136452,-0.72928 0.245533,-1.46422 0.302553,-2.22132 0.03192,-0.66983 0.157695,-1.3121 0.216154,-1.97653 0.02993,-0.73984 0.110139,-1.47105 0.231594,-2.18494 0.145947,-0.70267 0.21662,-1.43149 0.255461,-2.16803 0.08844,-0.64446 0.175674,-1.28404 0.217549,-1.94181 -0.0053,-0.67321 0.106979,-1.31731 0.179869,-1.97342 0.07373,-0.68896 0.05544,-1.39031 0.112567,-2.08123 0.104101,-0.72943 0.116953,-1.48314 0.208642,-2.21422 0.113063,-0.62184 0.167079,-1.26047 0.196786,-1.90538 0.02547,-0.7216 0.02468,-1.44477 0.02536,-2.16731 -1.2e-4,-0.74665 -0.001,-1.49331 -0.0015,-2.23997 0.05613,-0.66061 0.145553,-1.30893 0.187383,-1.97339 0.03652,-0.70958 0.03845,-1.42225 0.04104,-2.13383 0.0013,-0.74568 2.56e-4,-1.49135 -2.4e-4,-2.23703 0.05605,-0.66071 0.145407,-1.30915 0.187206,-1.9737 0.02688,-0.64963 0.151247,-1.27185 0.208656,-1.91554 0.06101,-0.69514 0.02972,-1.39995 0.08947,-2.09375 0.09276,-0.63299 0.145423,-1.27496 0.173841,-1.92331 0.08577,-0.63209 0.171966,-1.25861 0.213594,-1.90342 0.0072,-0.6912 0.08772,-1.36579 0.215612,-2.02263 0.164249,-0.64773 0.188099,-1.35024 0.284428,-2.02438 0.119588,-0.61361 0.171066,-1.24807 0.200126,-1.88765 0.02491,-0.72226 0.02385,-1.44604 0.02437,-2.16919 -0.0319,-0.77851 0.02669,-1.53701 0.104722,-2.30216 0.06733,-0.75171 0.09335,-1.50448 0.182802,-2.25063 0.106805,-0.73275 0.109952,-1.48882 0.183415,-2.22869 0.07145,-0.76525 0.187781,-1.51166 0.29644,-2.26384 0.137614,-0.80949 0.413589,-1.52608 0.609491,-2.2972 0.162448,-0.63249 0.419473,-1.17385 0.633531,-1.75774 0.231849,-0.48745 0.391528,-1.04744 0.617724,-1.54099 0.184421,-0.48136 0.359311,-0.96052 0.595313,-1.38115 0.299627,-0.48848 0.553292,-1.04393 0.890309,-1.46652 0.295764,-0.39777 0.622934,-0.7269 0.943271,-1.06811 0.350319,-0.43878 0.775983,-0.65485 1.158374,-0.99904 0.357576,-0.29414 0.731209,-0.54677 1.108437,-0.7678 0.393652,-0.23087 0.809107,-0.35012 1.204864,-0.5638 0.362956,-0.16336 0.693554,-0.45206 1.054262,-0.6258 0.427306,-0.17419 0.848863,-0.36324 1.285497,-0.46825 0.462893,-0.0942 0.929955,-0.10243 1.395721,-0.10947 0.457314,-0.004 0.91464,-7.8e-4 1.371954,4.6e-4 0.49032,10e-4 0.980645,0.002 1.470965,0.002 0.54322,-0.0185 1.08079,-0.0109 1.619374,0.10985 0.511419,0.0744 1.003461,0.31381 1.505888,0.47076 0.433557,0.0669 0.855673,0.18442 1.279958,0.34183 0.398127,0.15586 0.80984,0.12747 1.211101,0.2378 0.382727,0.14669 0.768899,0.22892 1.145371,0.41567 0.393094,0.147 0.78496,0.29992 1.178411,0.44733 0.39736,0.15461 0.80059,0.32208 1.18657,0.54438 0.3711,0.23325 0.7532,0.42285 1.11857,0.67881 0.42635,0.33117 0.87216,0.58191 1.31588,0.84176 0.47376,0.23475 0.924427,0.5919 1.368127,0.94979 0.35529,0.24322 0.68522,0.57487 1.05457,0.75962 0.39031,0.27995 0.7523,0.66226 1.11906,1.01732 0.3346,0.42591 0.69331,0.79379 1.04402,1.18252 0.38776,0.32723 0.70963,0.81341 1.07136,1.20566 0.34163,0.39663 0.62469,0.91686 0.97929,1.28234 0.32094,0.34353 0.61231,0.74914 0.88953,1.18176 0.31734,0.36556 0.49683,0.94494 0.78263,1.3586 0.29546,0.42478 0.51724,0.95954 0.78418,1.42729 0.23227,0.48519 0.44381,1.0034 0.63089,1.5395 0.24972,0.6278 0.46692,1.2845 0.68719,1.94055 0.16783,0.58907 0.36725,1.15435 0.56355,1.7195 0.19312,0.64628 0.34859,1.32734 0.48998,2.00931 0.0829,0.6395 0.16342,1.27282 0.25993,1.90786 0.10131,0.6895 0.2242,1.36434 0.29181,2.06694 0.0576,0.89605 -0.30335,1.29335 -0.75052,1.6128 -0.51114,0.27499 -1.05167,0.32245 -1.58514,0.35776 -0.42679,-0.049 -0.8358,0.11798 -1.25218,0.23465 -0.47961,0.11993 -0.85786,0.23583 -1.26934,-0.26055 -0.30893,-0.56665 -0.26403,-1.31806 -0.34429,-2.01244 -0.0766,-0.64291 -0.1518,-1.27961 -0.29373,-1.89381 -0.14398,-0.6375 -0.27821,-1.2888 -0.46987,-1.89335 -0.12599,-0.51663 -0.29615,-0.98216 -0.48555,-1.44038 -0.19505,-0.39897 -0.42247,-0.74766 -0.63317,-1.12326 -0.22486,-0.41636 -0.4988,-0.73326 -0.76224,-1.07713 -0.33178,-0.42337 -0.70215,-0.74751 -1.06704,-1.08507 -0.38291,-0.34717 -0.76039,-0.70154 -1.16007,-0.99722 -0.40107,-0.23873 -0.78185,-0.56454 -1.157137,-0.89549 -0.39772,-0.27493 -0.77648,-0.61174 -1.16181,-0.9294 -0.32248,-0.31445 -0.63926,-0.65843 -0.9821,-0.91133 -0.38116,-0.33515 -0.76707,-0.65212 -1.15079,-0.97973 -0.34219,-0.20809 -0.67276,-0.46774 -1.02722,-0.61803 -0.36919,-0.21276 -0.709037,-0.52238 -1.085625,-0.70141 -0.380247,-0.14963 -0.74361,-0.37039 -1.130888,-0.47492 -0.385848,-0.0995 -0.777482,-0.23707 -1.14966,-0.43551 -0.361114,-0.22575 -0.743053,-0.32577 -1.115738,-0.48711 -0.417705,-0.12169 -0.826003,-0.28132 -1.236366,-0.45651 -0.438194,-0.1017 -0.856114,-0.31365 -1.271602,-0.55607 -0.417467,-0.24909 -0.857732,-0.32992 -1.297954,-0.37715 -0.448469,-0.0247 -0.891305,-0.003 -1.333109,-0.14355 -0.389844,-0.1485 -0.788442,-0.20019 -1.18707,-0.23202 -0.446612,-0.0269 -0.893617,-0.0253 -1.340456,-0.0256 -0.383697,-0.0553 -0.726366,0.0382 -1.071643,0.29906 -0.319507,0.21492 -0.652771,0.38778 -0.959688,0.64991 -0.308573,0.19741 -0.585084,0.4702 -0.858194,0.77162 -0.277834,0.2477 -0.549071,0.52851 -0.780608,0.88362 -0.237358,0.33987 -0.473107,0.69008 -0.685974,1.07207 -0.214938,0.45221 -0.407991,0.92094 -0.602043,1.39736 -0.218701,0.53052 -0.381557,1.10911 -0.557746,1.67829 -0.22864,0.48178 -0.353509,1.04514 -0.480993,1.61068 -0.102519,0.69979 -0.310576,1.33152 -0.476427,1.99135 -0.128927,0.56819 -0.275518,1.10972 -0.344886,1.70846 -0.055,0.62162 -0.177087,1.2162 -0.234009,1.83867 -0.073,0.60715 -0.232745,1.16212 -0.362954,1.7372 -0.09031,0.63877 -0.170392,1.28199 -0.253475,1.92466 -0.08729,0.71131 -0.107148,1.43703 -0.120172,2.16019 -0.0093,0.74356 -0.0075,1.48734 -0.0069,2.23101 -0.05577,0.66045 -0.144744,1.30871 -0.186361,1.97294 -0.03635,0.70963 -0.03827,1.42233 -0.04086,2.13395 -0.0013,0.74568 -2.58e-4,1.49136 2.36e-4,2.23704 -0.0076,0.76238 0.02418,1.52656 -0.02821,2.28505 -0.08448,0.73501 -0.142785,1.47478 -0.173953,2.22067 -0.02222,0.76116 -0.136215,1.50427 -0.193604,2.2599 -0.03495,0.67137 -0.166299,1.31266 -0.227375,1.97846 -0.01059,0.65768 -0.127784,1.28483 -0.202015,1.92631 -0.146435,0.57428 -0.20132,1.18966 -0.30776,1.78157 -0.122583,0.58224 -0.174021,1.18819 -0.2862,1.77528 -0.105441,0.64743 -0.199292,1.30344 -0.343292,1.93146 -0.177309,0.57946 -0.202844,1.22605 -0.296566,1.84332 -0.121691,0.59858 -0.169956,1.22061 -0.198215,1.84656 -0.09879,0.63296 -0.144034,1.28731 -0.246103,1.91762 -0.128375,0.58654 -0.178609,1.19952 -0.20832,1.817 -0.01869,0.71781 -0.0096,1.42638 -0.09504,2.13324 -0.0916,0.63837 -0.123036,1.29146 -0.142485,1.94447 -0.0164,0.73139 -0.01541,1.46343 -0.01557,2.1952 3.39e-4,0.74699 9.77e-4,1.49399 0.0013,2.24099 0.0404,0.7085 -0.06649,1.38935 -0.140439,2.07986 -0.06551,0.67414 -0.07587,1.35768 -0.08424,2.03877 -0.0061,0.74141 -0.0047,1.48292 -0.0042,2.22438 0.04069,0.70883 -0.06584,1.39017 -0.139651,2.0811 -0.03523,0.70936 -0.109655,1.40356 -0.191392,2.10188 -0.05261,0.75254 -0.135,1.49207 -0.224995,2.2347 -0.06585,0.69732 -0.218278,1.36415 -0.364515,2.02508 -0.145574,0.71311 -0.295981,1.42343 -0.44756,2.13346 -0.115054,0.6742 -0.226874,1.35403 -0.3986,1.99668 -0.130962,0.53173 -0.260827,1.06683 -0.373761,1.61043 -0.108506,0.61276 -0.121137,1.25419 -0.133854,1.88746 -0.0072,0.48931 -0.007,0.97879 -0.0071,1.4682 -1.3e-4,0.52781 -0.456098,0.52751 -0.455969,-3e-4 l 0,0 c 1.24e-4,-0.49755 -1.29e-4,-0.99517 0.0073,-1.49261 0.01441,-0.70722 0.03196,-1.42258 0.158237,-2.10477 0.1189,-0.56409 0.252129,-1.12055 0.388801,-1.67293 0.173607,-0.61818 0.264924,-1.28962 0.384468,-1.93847 0.152219,-0.71264 0.30344,-1.42544 0.449281,-2.14138 0.138455,-0.62559 0.284943,-1.25571 0.345976,-1.91616 0.0899,-0.74121 0.171411,-1.47876 0.224423,-2.22991 0.08138,-0.69476 0.15443,-1.38439 0.190087,-2.09022 0.06964,-0.64907 0.173309,-1.28508 0.132805,-1.95143 -4.94e-4,-0.74675 -0.002,-1.49355 0.0043,-2.24025 0.0089,-0.71934 0.02079,-1.44115 0.09102,-2.15289 0.06977,-0.64864 0.17377,-1.28415 0.133559,-1.95015 -3.23e-4,-0.74727 -9.78e-4,-1.49453 -0.0013,-2.24179 1.63e-4,-0.74387 -7.94e-4,-1.48802 0.01611,-2.23149 0.02078,-0.68977 0.05472,-1.37957 0.150761,-2.05405 0.08342,-0.67704 0.06412,-1.35844 0.08765,-2.04628 0.03252,-0.66367 0.08666,-1.32375 0.223069,-1.95492 0.101247,-0.58029 0.12694,-1.1945 0.231181,-1.77602 0.03073,-0.66923 0.08241,-1.33522 0.211137,-1.97579 0.103612,-0.64147 0.122712,-1.32218 0.312455,-1.92518 0.145857,-0.61003 0.225714,-1.25849 0.334052,-1.88792 0.111872,-0.58422 0.160341,-1.18928 0.284871,-1.7682 0.10759,-0.56293 0.146108,-1.16102 0.296298,-1.70517 0.07388,-0.63264 0.189209,-1.24956 0.199112,-1.89847 0.06143,-0.65944 0.188015,-1.29535 0.225746,-1.95917 0.05676,-0.74195 0.16742,-1.47187 0.191168,-2.21864 0.03198,-0.75823 0.0893,-1.511 0.176097,-2.25801 0.05663,-0.7269 0.0109,-1.46446 0.02499,-2.19572 -4.95e-4,-0.74744 -0.0016,-1.49487 -2.28e-4,-2.24231 0.0027,-0.73573 0.0049,-1.47258 0.04326,-2.20616 0.04051,-0.63821 0.116451,-1.26407 0.18395,-1.89529 -6.03e-4,-0.75137 -0.0024,-1.50285 0.0071,-2.2541 0.01396,-0.76773 0.03637,-1.53795 0.129879,-2.29283 0.08797,-0.6786 0.169268,-1.35923 0.272344,-2.03088 0.120767,-0.52669 0.266593,-1.03354 0.3393,-1.5878 0.05892,-0.63249 0.179217,-1.23775 0.237157,-1.86862 0.07751,-0.64733 0.229018,-1.23876 0.371226,-1.8522 0.165079,-0.65054 0.368476,-1.27441 0.470139,-1.96506 0.133533,-0.58959 0.263185,-1.18736 0.501985,-1.68934 0.184724,-0.59571 0.356338,-1.20114 0.585667,-1.75631 0.208689,-0.50635 0.414716,-1.00733 0.645788,-1.4881 0.22412,-0.39354 0.46505,-0.76396 0.713066,-1.11623 0.252332,-0.37194 0.533011,-0.69349 0.833768,-0.95215 0.28857,-0.3179 0.581869,-0.6073 0.906515,-0.8181 0.315339,-0.25686 0.647783,-0.45418 0.975688,-0.66258 0.40501,-0.30365 0.814737,-0.42523 1.262237,-0.36725 0.454228,2.9e-4 0.908632,-10e-4 1.362617,0.0265 0.42057,0.034 0.841098,0.0896 1.252518,0.24508 0.422048,0.13706 0.846767,0.0984 1.2754,0.13122 0.482146,0.0526 0.963901,0.14594 1.420959,0.41884 0.403326,0.23533 0.808252,0.43832 1.233734,0.53697 0.4109,0.17591 0.819455,0.33348 1.237728,0.45709 0.382165,0.16545 0.773897,0.26835 1.144107,0.50103 0.346075,0.19747 0.719536,0.30822 1.079789,0.40697 0.405256,0.11194 0.787036,0.33469 1.184516,0.49509 0.371829,0.18107 0.712845,0.46469 1.072985,0.69564 0.38653,0.16877 0.75033,0.44117 1.12211,0.67813 0.37665,0.32194 0.75582,0.63254 1.12965,0.9628 0.34644,0.26293 0.67286,0.59639 0.99767,0.92359 0.38889,0.32173 0.77174,0.65972 1.172998,0.93896 0.36575,0.32386 0.73749,0.64021 1.12885,0.87252 0.41148,0.3063 0.80164,0.66919 1.19618,1.02726 0.38612,0.35744 0.77736,0.70285 1.12781,1.15243 0.28061,0.37048 0.57313,0.71193 0.81405,1.1567 0.22336,0.40479 0.47072,0.77307 0.67394,1.20807 0.19959,0.48374 0.37993,0.97677 0.51419,1.51996 0.19415,0.63441 0.34492,1.30314 0.49064,1.97065 0.14836,0.65733 0.23614,1.33458 0.31526,2.02206 0.0558,0.52301 0.0349,1.08613 0.18564,1.5694 0.21644,0.39735 0.62492,0.12115 0.90252,0.10074 0.43526,-0.12145 0.86483,-0.29208 1.31066,-0.24471 0.47812,-0.0313 0.96227,-0.0702 1.4234,-0.29771 0.25828,-0.17818 0.50338,-0.28333 0.48007,-0.81167 -0.0646,-0.68107 -0.18678,-1.33367 -0.28384,-2.00234 -0.0932,-0.61509 -0.17503,-1.22799 -0.24943,-1.8491 -0.1307,-0.63781 -0.27792,-1.273 -0.45443,-1.87941 -0.19701,-0.5685 -0.3978,-1.13681 -0.56675,-1.72884 -0.21894,-0.65334 -0.43546,-1.30624 -0.684,-1.93123 -0.16816,-0.48814 -0.36252,-0.95589 -0.56902,-1.40105 -0.25588,-0.45595 -0.47451,-0.96585 -0.75645,-1.38228 -0.2834,-0.43091 -0.47942,-0.9871 -0.79151,-1.37217 -0.25415,-0.40273 -0.52479,-0.77356 -0.82023,-1.09225 -0.35346,-0.37745 -0.64968,-0.87208 -0.98556,-1.28907 -0.36182,-0.39627 -0.68655,-0.87769 -1.07434,-1.20893 -0.34288,-0.38035 -0.69492,-0.7383 -1.02051,-1.15813 -0.3366,-0.32626 -0.67,-0.67144 -1.02255,-0.94711 -0.39146,-0.20296 -0.74575,-0.53677 -1.12149,-0.80353 -0.426618,-0.34906 -0.862508,-0.68922 -1.319158,-0.91571 -0.4531,-0.26561 -0.90834,-0.52225 -1.34388,-0.85989 -0.35426,-0.25659 -0.73094,-0.42815 -1.09137,-0.66114 -0.36578,-0.22215 -0.75613,-0.3665 -1.13403,-0.51914 -0.403701,-0.15178 -0.805866,-0.30734 -1.208965,-0.46064 -0.35869,-0.17863 -0.727495,-0.25149 -1.092043,-0.39481 -0.406325,-0.12459 -0.829638,-0.0679 -1.232787,-0.24494 -0.419477,-0.15574 -0.836107,-0.26843 -1.264851,-0.33667 -0.494608,-0.15538 -0.978886,-0.3906 -1.482339,-0.46442 -0.5179,-0.11722 -1.03481,-0.11922 -1.55731,-0.10288 -0.490539,-1.7e-4 -0.981079,-3.7e-4 -1.471618,-0.002 -0.455671,-10e-4 -0.911342,-0.004 -1.367007,-4.9e-4 -0.445155,0.007 -0.891553,0.0136 -1.334083,0.10168 -0.416025,0.0986 -0.817013,0.28189 -1.224197,0.44647 -0.356734,0.16679 -0.681646,0.46526 -1.041496,0.6194 -0.393551,0.2039 -0.801317,0.33395 -1.192105,0.55672 -0.355488,0.20499 -0.706448,0.44627 -1.043435,0.72035 -0.374103,0.3294 -0.78453,0.54946 -1.127702,0.96915 -0.312146,0.33112 -0.630355,0.65212 -0.918082,1.03931 -0.320477,0.38156 -0.541348,0.93506 -0.82917,1.37628 -0.228322,0.4002 -0.383896,0.87256 -0.567418,1.32685 -0.221496,0.46489 -0.3615,1.01582 -0.589829,1.47382 -0.204102,0.55159 -0.44574,1.06466 -0.603275,1.66006 -0.187939,0.73298 -0.444949,1.41791 -0.586496,2.18135 -0.106554,0.73595 -0.221004,1.46565 -0.290389,2.2147 -0.07831,0.74526 -0.073,1.51167 -0.18577,2.2499 -0.08895,0.7388 -0.110884,1.48542 -0.180456,2.2295 -0.07398,0.72544 -0.131064,1.44147 -0.0985,2.18014 -5.43e-4,0.74149 4.44e-4,1.48362 -0.02565,2.22415 -0.03137,0.67916 -0.08558,1.35399 -0.211449,2.00608 -0.104528,0.68982 -0.120115,1.41703 -0.294061,2.08035 -0.122742,0.60661 -0.187763,1.23234 -0.195946,1.8715 -0.04172,0.63573 -0.117311,1.25808 -0.212211,1.87808 -0.02962,0.66699 -0.08149,1.32879 -0.177662,1.97984 -0.06778,0.68989 -0.01657,1.40042 -0.08932,2.09211 -0.05732,0.63325 -0.176639,1.24597 -0.206229,1.88385 -0.04068,0.63847 -0.116934,1.2645 -0.184775,1.89591 4.98e-4,0.74744 0.0016,1.49488 2.32e-4,2.24232 -0.0027,0.7358 -0.0049,1.47274 -0.04347,2.20639 -0.04072,0.63838 -0.117011,1.2643 -0.184949,1.8956 4.6e-4,0.7473 0.0014,1.49459 0.0015,2.24189 -7.33e-4,0.74102 -8e-6,1.48271 -0.02668,2.22273 -0.03172,0.67764 -0.08717,1.35003 -0.205408,2.00375 -0.09608,0.71095 -0.09487,1.45338 -0.203163,2.16335 -0.06305,0.69901 -0.03194,1.41429 -0.115524,2.11119 -0.0714,0.63811 -0.181359,1.26227 -0.174955,1.91739 -0.04224,0.65278 -0.120466,1.29156 -0.216768,1.92851 -0.04194,0.78297 -0.116806,1.55853 -0.270884,2.30605 -0.119323,0.6815 -0.188682,1.38271 -0.219182,2.08942 -0.05888,0.65945 -0.180696,1.29747 -0.214906,1.96137 -0.05884,0.76941 -0.162786,1.52061 -0.306137,2.26014 -0.08031,0.73817 -0.144885,1.47076 -0.16484,2.22117 -0.05918,0.71932 -0.171546,1.42063 -0.225587,2.13972 -0.05652,0.6539 -0.174422,1.29049 -0.194378,1.9507 -0.04201,0.78313 -0.117013,1.55882 -0.271483,2.30632 -0.119544,0.68064 -0.189848,1.38105 -0.219253,2.08726 -0.05559,0.64704 -0.172372,1.27999 -0.17964,1.93473 -0.02243,0.76409 -0.06184,1.52682 -0.151126,2.2789 -0.07371,0.72365 -0.07049,1.44593 -0.06185,2.17888 0,0.82267 0,1.64535 0,2.46802 0,1.04228 0,2.08456 0,3.12684 0,0.5278 -0.455968,0.5278 -0.455968,0 z"
       inkscape:connector-curvature="0" />
    <path
       style="fill:#e6e6e6;fill-opacity:1;stroke:none"
       d="m 85.202345,804.8012 c -4.044091,0.0898 -8.552882,2.80064 -10.458764,9.05042 -2.191462,6.45796 -1.393235,14.15023 -2.514949,21.09821 -1.145598,10.05013 -0.770663,20.37901 -2.109863,30.38983 -0.933762,10.18256 -2.586785,20.30753 -2.350075,30.67718 0.6786,0.0749 1.919972,0.33227 1.595888,-1.48119 0.579661,-5.41231 2.089701,-10.51642 2.182069,-16.10125 0.429978,-9.02767 0.426466,-18.24652 2.24427,-26.91344 1.188048,-7.68329 0.905136,-15.67069 1.558372,-23.45725 0.972782,-6.02054 1.907212,-13.54902 5.77784,-16.31142 3.516384,-2.35645 7.354682,-0.0665 10.878914,1.09684 4.235181,1.7139 8.246503,4.88563 11.876743,8.80498 1.72641,2.12918 2.45154,5.74463 2.70018,9.13206 1.21604,-0.41313 2.69496,0.0114 3.77599,-0.9447 0.11722,-3.84373 -1.33235,-7.40159 -2.52257,-10.58304 -2.63932,-5.43473 -6.45897,-9.17794 -10.451152,-11.37822 -3.910243,-2.17685 -8.052246,-3.24826 -12.182893,-3.07901 z"
       id="path3003"
       inkscape:connector-curvature="0" />
    <path
       style="fill:#e6e6e6;fill-opacity:1;stroke:none"
       d="m 77.444987,896.72827 c -5.718061,0.30525 -11.599278,0.27691 -17.132819,1.84274 -1.704575,0.87324 4.180619,-0.18552 2.877519,0.17025 6.382561,-0.71551 12.831304,-0.6352 19.212037,-1.11494 0.988646,-0.55373 -1.326645,-0.92443 -1.726111,-0.85139 -1.076003,-0.0565 -2.153404,-0.0738 -3.230626,-0.0467 z"
       id="path3009"
       inkscape:connector-curvature="0" />
    <path
       style="fill:#000000;fill-opacity:1;stroke:none"
       id="path3011"
       d="m 61.878465,897.26874 c -0.254187,-0.97422 -0.541127,-1.9516 -1.026684,-2.83814 -0.272669,-0.57523 -0.608622,-1.10329 -0.976409,-1.61974 -0.377141,-0.40767 -0.69946,-0.87494 -0.94942,-1.37081 -0.292857,-0.4409 -0.460669,-0.94701 -0.77609,-1.37349 -0.324596,-0.49553 -0.637018,-0.99289 -0.831637,-1.55494 -0.214959,-0.52045 -0.533028,-0.97408 -0.726638,-1.50464 -0.182418,-0.60561 -0.393514,-1.1913 -0.501342,-1.81755 -0.150515,-0.90155 0.101809,-1.39216 0.94725,-1.73077 0.722404,-0.18852 1.476384,-0.17341 2.217362,-0.17606 0.836125,-0.0655 1.493814,0.0665 2.089033,0.67393 0.444425,0.63237 0.74085,1.34651 1.098085,2.02616 0.316327,0.55147 0.420531,1.19047 0.752732,1.7326 0.28336,0.5143 0.519243,1.06152 0.723296,1.61309 0.204018,0.54915 0.347272,1.12589 0.55932,1.67151 0.229661,0.62328 0.475824,1.237 0.636583,1.88273 0.175733,0.70631 0.284505,1.43789 0.497353,2.13395 0.05983,0.28053 0.211155,0.51778 0.343045,0.7674 0.246465,0.46673 -0.413583,0.81528 -0.660047,0.34856 l 0,0 c -0.153756,-0.29131 -0.324016,-0.57771 -0.398292,-0.90264 -0.207785,-0.71095 -0.33392,-1.44833 -0.50674,-2.16841 -0.150897,-0.61754 -0.393446,-1.20172 -0.610217,-1.79795 -0.204048,-0.55248 -0.359981,-1.12493 -0.561835,-1.67827 -0.185033,-0.51048 -0.406221,-1.01498 -0.665386,-1.49076 -0.323602,-0.5633 -0.476716,-1.1898 -0.771508,-1.76639 -0.323215,-0.62287 -0.604461,-1.26646 -0.981479,-1.86165 -0.417101,-0.48302 -0.93027,-0.46951 -1.541329,-0.43743 -0.653808,0.002 -1.317491,-0.0116 -1.959551,0.12916 -0.475633,0.15351 -0.576816,0.39414 -0.471814,0.9061 0.09783,0.58363 0.301176,1.12658 0.468324,1.69137 0.186381,0.53562 0.539702,0.98135 0.73081,1.51662 0.162526,0.49511 0.454766,0.92222 0.731479,1.35968 0.327536,0.46767 0.538235,0.99338 0.838408,1.4774 0.223925,0.46582 0.544195,0.88585 0.888487,1.26884 0.384792,0.54163 0.737362,1.09591 1.02469,1.69725 0.502721,0.93904 0.82691,1.95785 1.087867,2.98823 0.144999,0.50749 -0.572708,0.71255 -0.717706,0.20506 z"
       inkscape:connector-curvature="0" />
    <path
       style="fill:#000000;fill-opacity:1;stroke:none"
       id="path3013"
       d="m 73.31389,896.27276 c 0.365719,-1.05487 0.86475,-2.03872 1.426337,-2.99919 0.280695,-0.66209 0.764011,-1.20512 1.105616,-1.82963 0.314711,-0.45896 0.614953,-0.92391 0.925416,-1.38481 0.24631,-0.48569 0.532712,-0.94168 0.839751,-1.39126 0.29198,-0.44857 0.528763,-0.88517 0.647718,-1.40937 0.21016,-0.57439 0.345144,-1.16676 0.555752,-1.74044 0.320247,-0.71115 0.951173,-0.97273 1.692776,-0.94709 0.674459,0.0311 1.264201,0.16057 1.840306,0.51494 0.524357,0.2373 1.02374,0.52468 1.536301,0.78701 0.512007,0.31307 1.0198,0.64752 1.568118,0.89439 0.654616,0.30474 0.863243,0.81512 0.536605,1.45673 -0.448563,0.4881 -0.966518,0.93879 -1.530723,1.29145 -0.545711,0.37192 -1.110448,0.71283 -1.667085,1.06765 -0.477643,0.42687 -1.051963,0.72172 -1.543805,1.12736 -0.518031,0.36549 -1.032873,0.73222 -1.541621,1.1108 -0.377707,0.37989 -0.641753,0.84055 -1.052169,1.19169 -0.445248,0.47003 -0.996562,0.80597 -1.510116,1.19056 -0.437449,0.45636 -0.829843,0.91935 -1.391795,1.22286 -0.621823,0.20125 -1.26744,0.31686 -1.904691,0.46933 -0.820223,0.14117 -1.351559,0.35707 -2.0384,-0.23588 -0.05287,-0.11508 -0.105741,-0.23016 -0.158611,-0.34524 -0.182274,-0.49533 0.518229,-0.75311 0.700503,-0.25778 l 0,0 c 7.84e-4,0.0307 0.0016,0.0615 0.0024,0.0922 0.0175,0.34945 1.126015,0.0432 1.32077,0.0207 0.57852,-0.13788 1.159249,-0.25787 1.733219,-0.4053 0.534538,-0.26287 0.848015,-0.77459 1.290803,-1.15952 0.505872,-0.37496 1.043457,-0.70716 1.480932,-1.16768 0.433688,-0.33661 0.641977,-0.88049 1.082322,-1.21529 0.500869,-0.37072 1.004816,-0.73422 1.515557,-1.09055 0.519584,-0.41782 1.107,-0.74119 1.613897,-1.17791 0.560197,-0.35614 1.127422,-0.7 1.676465,-1.07352 0.471654,-0.28505 0.873814,-0.67053 1.280523,-1.03724 0.207,-0.19302 0.06063,-0.23916 -0.205507,-0.39666 -0.555809,-0.25756 -1.080971,-0.58282 -1.59846,-0.90911 -0.529564,-0.27264 -1.047393,-0.56597 -1.587623,-0.81597 -0.486452,-0.30188 -0.909228,-0.37107 -1.485382,-0.40452 -0.407514,-0.0305 -0.763974,0.0599 -0.954783,0.45889 -0.200194,0.54504 -0.324921,1.10871 -0.529576,1.65296 -0.146224,0.61198 -0.41425,1.1376 -0.758503,1.661 -0.307508,0.44884 -0.588354,0.90619 -0.83876,1.3898 -0.302711,0.43892 -0.581711,0.89178 -0.890079,1.3275 -0.352235,0.62573 -0.822749,1.18055 -1.113652,1.84372 -0.546045,0.93388 -1.03023,1.89005 -1.384625,2.91646 -0.207912,0.48513 -0.893986,0.1911 -0.686074,-0.29403 z"
       inkscape:connector-curvature="0" />
    <path
       style="fill:#cccccc;fill-opacity:1;stroke:none"
       d="m 58.947608,884.19064 c -1.050942,-0.018 -2.770853,0.54775 -1.644471,1.8544 1.499721,3.6894 4.088375,6.92149 5.52822,10.5666 0.989213,0.25966 2.680344,-0.2913 1.831078,-1.62114 -1.287869,-3.62458 -2.061365,-7.77694 -4.641839,-10.71822 -0.344599,-0.12018 -0.714481,-0.0999 -1.072988,-0.0816 z"
       id="path3015"
       inkscape:connector-curvature="0" />
    <path
       style="fill:#cccccc;fill-opacity:1;stroke:none"
       d="m 80.349051,885.59019 c -1.518191,1.10746 -1.562517,3.49071 -2.775773,4.94508 -0.786492,1.63791 -2.309346,3.25509 -2.624155,4.95673 3.056266,-1.73458 5.358172,-4.75039 8.4906,-6.5079 1.501468,-0.64127 2.017883,-1.78298 -0.0098,-2.26 -0.975028,-0.42941 -1.993678,-1.13846 -3.080867,-1.13391 z"
       id="path3017"
       inkscape:connector-curvature="0" />
    <path
       style="fill:#000000;fill-opacity:1;stroke:none"
       id="path3019"
       d="m 46.512719,879.0422 c -0.0917,1.87659 -0.32814,3.71059 -0.49854,5.56521 -0.19119,1.26366 -0.35184,2.53865 -0.60055,3.76887 -0.24883,1.08512 -0.4007,2.22926 -0.61344,3.33533 -0.22659,1.03856 -0.31507,2.14033 -0.50034,3.20233 -0.15321,1.01157 -0.28,2.0803 -0.2189,3.13249 0.14001,0.8531 0.46095,1.07689 0.85261,1.46839 0.49883,0.49896 1.0628,0.60237 1.61944,0.68277 0.70359,0.0726 1.40872,0.0641 2.11315,0.063 0.67538,0.002 1.34346,0.0603 2.00749,-0.18367 0.55905,-0.26663 1.01831,-0.84809 1.47946,-1.45118 0.3431,-0.64267 0.63504,-1.38783 0.9273,-2.11273 0.28505,-0.85798 0.31814,-1.87319 0.35467,-2.84938 0.0326,-1.29187 0.0262,-2.58568 0.0243,-3.87854 -0.0371,-1.03428 -0.25749,-1.96119 -0.44539,-2.92025 -0.19979,-0.96556 -0.34786,-1.97717 -0.55734,-2.93564 -0.16556,-0.82341 -0.45169,-1.5574 -0.78655,-2.18173 -0.30233,-0.67486 -0.70358,-1.20711 -1.13345,-1.58356 -0.53818,-0.46244 -0.94135,-1.17139 -1.30264,-2.01736 -0.38437,-1.07338 -0.43945,-2.34843 -0.48212,-3.59298 -0.0793,-0.58252 0.40057,-2.08699 0.0419,-2.46082 -0.48882,-0.3241 -0.98672,-0.5751 -1.49835,-0.74646 -0.70672,-0.0463 -1.38542,-0.51255 -2.0888,-0.5598 -0.39981,0.16222 -0.39629,1.04801 -0.4383,1.66448 0.0363,0.89974 0.14272,1.78103 0.41592,2.54146 0.41259,0.64329 0.80056,1.2447 1.06945,2.11782 0.1493,0.57957 0.1979,1.2049 0.24845,1.83048 0.0731,0.92713 -0.64513,1.11595 -0.71826,0.18881 l 0,0 c -0.0361,-0.4715 -0.0676,-0.94634 -0.16884,-1.39028 -0.23948,-0.86825 -0.71362,-1.30876 -1.04745,-2.04849 -0.34158,-1.04147 -0.51857,-2.19119 -0.51883,-3.41141 0.10169,-1.36846 0.32119,-2.67705 1.19404,-2.81591 0.73651,0.08 1.44629,0.49833 2.18472,0.58028 0.66801,0.22753 1.38337,0.49057 1.93856,1.23453 0.40894,1.13602 0.20862,1.95003 0.11007,3.19367 0.0326,0.97704 0.0569,1.99995 0.33307,2.86709 0.2908,0.70314 0.60742,1.25678 1.0492,1.63758 0.49955,0.4611 0.97896,1.06145 1.3364,1.8559 0.39273,0.76388 0.74177,1.62396 0.93832,2.61751 0.20354,0.97803 0.36435,1.98993 0.56437,2.97009 0.21401,1.10022 0.4583,2.17377 0.4875,3.36159 0.002,1.32453 0.009,2.65013 -0.026,3.9736 -0.0475,1.23163 -0.11353,2.4861 -0.49528,3.54569 -0.33862,0.83148 -0.66847,1.70217 -1.08814,2.40178 -0.54507,0.71221 -1.09834,1.37556 -1.76037,1.67339 -0.71153,0.25577 -1.42532,0.22257 -2.14847,0.20913 -0.72398,10e-4 -1.44871,0.009 -2.17178,-0.0673 -0.65909,-0.0976 -1.3221,-0.24706 -1.91075,-0.84213 -0.60399,-0.60756 -1.07766,-1.19034 -1.22629,-2.51609 -0.0489,-1.23272 0.0553,-2.46541 0.25049,-3.64809 0.1879,-1.07551 0.27435,-2.1948 0.50827,-3.24522 0.22022,-1.10482 0.36378,-2.26207 0.61618,-3.34906 0.23327,-1.15266 0.3805,-2.34777 0.56564,-3.52937 0.16976,-1.84398 0.40477,-3.6673 0.49581,-5.53322 0.0726,-0.92728 0.79095,-0.73994 0.71839,0.18734 z"
       inkscape:connector-curvature="0" />
    <path
       style="fill:#ac93a7;fill-opacity:1;stroke:none"
       d="m 45.304319,871.30803 c -1.17909,2.10211 1.31366,4.76383 1.16789,7.32718 0.38036,6.78779 -2.1306,12.99329 -2.06365,19.58054 1.93454,2.35742 4.68582,1.31685 6.89396,0.89004 2.88642,-3.0051 2.15193,-11.01393 0.63496,-15.39951 -1.24899,-3.49761 -3.9025,-5.7839 -3.41296,-10.6596 -0.5021,-1.84902 -2.28246,-1.41782 -3.2202,-1.73865 z"
       id="path3023"
       inkscape:connector-curvature="0" />
    <path
       style="fill:#000000;fill-opacity:1;stroke:none"
       id="path3027"
       d="m 198.97103,892.26165 c 0.12394,-0.88499 0.11076,-1.85817 0.71458,-2.57065 0.54975,-0.34419 1.14944,0.003 1.69254,0.21961 0.63004,0.20608 1.25759,0.41872 1.89074,0.61707 0.63558,0.17801 1.29768,0.20419 1.95326,0.22602 0.73788,0.0162 1.47601,0.0121 2.21401,0.0106 0.74731,-0.002 1.49463,-0.003 2.24194,-0.003 0.74661,-3.7e-4 1.49322,-3.6e-4 2.23983,-3.7e-4 0.62282,0.022 1.25529,-0.0183 1.84087,-0.24643 0.56091,-0.24963 1.11533,-0.51339 1.66404,-0.78985 0.89645,-0.34741 1.21379,0.2031 1.35985,0.99373 0.0464,0.46777 0.0428,0.23033 0.007,0.71238 -0.0482,0.5256 -0.79155,0.45737 -0.7433,-0.0682 l 0,0 c 0.039,-0.32308 0.0344,-0.15111 7.5e-4,-0.51608 -0.0205,-0.12867 -0.0536,-0.25515 -0.0728,-0.38402 -0.0202,-0.13526 0.0756,-0.16079 -0.21589,-0.0711 -0.57396,0.28898 -1.15408,0.56502 -1.7419,0.82366 -0.6753,0.23903 -1.38277,0.32964 -2.09877,0.29241 -0.74646,10e-6 -1.49291,0 -2.23937,3.7e-4 -0.74698,4.7e-4 -1.49395,10e-4 -2.24093,0.003 -0.74683,10e-4 -1.4938,0.006 -2.24051,-0.011 -0.72309,-0.0244 -1.45251,-0.0584 -2.1522,-0.25999 -0.65106,-0.20552 -1.2971,-0.42187 -1.94472,-0.63636 -0.14968,-0.0606 -0.78271,-0.22304 -0.86703,-0.33047 -0.13671,-0.17415 0.18248,0.0453 -0.002,-0.0719 -0.49839,0.39408 -0.37666,1.60251 -0.52073,2.16626 -0.0746,0.5225 -0.81356,0.41694 -0.73892,-0.10556 z"
       inkscape:connector-curvature="0" />
    <path
       style="fill:#000000;fill-opacity:1;stroke:none"
       id="path3029"
       d="m 202.97959,887.0208 c -0.11759,0.92333 -0.2899,1.8611 -0.0776,2.78147 0.10806,0.504 0.45002,0.86141 0.89701,1.09629 0.54184,0.22039 1.08595,0.43368 1.63483,0.63803 0.65061,0.23013 1.33906,0.2864 2.02264,0.32425 0.73952,0.0294 1.47985,0.0252 2.21981,0.0241 0.66675,0.0639 1.30267,-0.10791 1.95179,-0.22297 0.63763,-0.0367 1.24016,-0.23972 1.86156,-0.36708 0.57498,-0.12369 1.17012,-0.24945 1.72422,-0.45178 0.52726,-0.13883 0.98332,-0.39283 1.4354,-0.68605 0.34431,-0.31125 0.54748,-0.77546 0.71199,-1.2053 0.15378,-0.57229 0.2492,-1.18435 0.17586,-1.77551 -0.15033,-0.44465 -0.48197,-0.6824 -0.85948,-0.93039 -0.54085,-0.30328 -1.11322,-0.48928 -1.72037,-0.60015 -0.71365,-0.10467 -1.43667,-0.1085 -2.15639,-0.11461 -0.74668,-0.003 -1.49337,9.9e-4 -2.24006,0.003 -0.69864,0.0221 -1.42263,0.1117 -2.09705,0.30379 -0.61684,0.20333 -1.26178,0.307 -1.85292,0.58249 -0.62888,0.3412 -1.31873,0.47826 -2.0217,0.5562 -0.74385,0.0616 -1.49104,0.0578 -2.23683,0.0583 -0.49254,-0.0632 -0.25459,-0.0239 -0.71429,-0.11502 -0.51751,-0.10372 -0.37083,-0.83559 0.14668,-0.73187 l 0,0 c 0.38123,0.0773 0.19215,0.0441 0.5671,0.10046 0.71886,-4.8e-4 1.43902,0.004 2.15612,-0.0539 0.62568,-0.0675 1.23672,-0.18601 1.79475,-0.49404 0.63208,-0.28053 1.3041,-0.42003 1.9631,-0.62234 0.74258,-0.19877 1.52576,-0.31419 2.2934,-0.33052 0.74935,-0.002 1.49871,-0.005 2.24807,-0.003 0.76313,0.007 1.52976,0.012 2.28597,0.12706 0.70552,0.1323 1.37465,0.35191 1.99899,0.71338 0.55683,0.37663 1.0295,0.78534 1.18717,1.47234 0.0669,0.71329 -0.0127,1.43987 -0.22283,2.1258 -0.22766,0.57402 -0.50494,1.17314 -1.00119,1.56006 -0.50097,0.32475 -1.01284,0.60419 -1.59336,0.76373 -0.59164,0.2031 -1.21195,0.35323 -1.82327,0.4792 -0.62747,0.12712 -1.23702,0.3334 -1.88064,0.37071 -0.69076,0.12189 -1.37169,0.29857 -2.08073,0.23437 -0.75418,10e-4 -1.50876,0.005 -2.26248,-0.0253 -0.75848,-0.0427 -1.52103,-0.11151 -2.24172,-0.37009 -0.58398,-0.21789 -1.16326,-0.44338 -1.73739,-0.68538 -0.62213,-0.35931 -1.10937,-0.86572 -1.2633,-1.59049 -0.20862,-1.01327 -0.0832,-2.02978 0.0682,-3.0449 0.0746,-0.5225 0.81357,-0.41694 0.73893,0.10556 z"
       inkscape:connector-curvature="0" />
    <path
       style="fill:#87cdde;fill-opacity:1;stroke:none"
       d="m 211.05531,885.71848 c -2.61407,0.18192 -5.15787,1.12293 -7.66253,1.63281 -0.96057,1.1134 -0.41644,3.84558 1.43454,3.06735 3.99499,-0.0453 8.28363,0.35218 11.97781,-1.2596 1.31666,-1.29957 0.0852,-3.08628 -1.57449,-3.04402 -1.36235,-0.34533 -2.77336,-0.45562 -4.17533,-0.39654 z"
       id="path3031"
       inkscape:connector-curvature="0" />
  </g>
</svg>
