<?xml version="1.0" encoding="UTF-8" standalone="no"?>
<!-- Created with Inkscape (http://www.inkscape.org/) -->

<svg
   xmlns:dc="http://purl.org/dc/elements/1.1/"
   xmlns:cc="http://creativecommons.org/ns#"
   xmlns:rdf="http://www.w3.org/1999/02/22-rdf-syntax-ns#"
   xmlns:svg="http://www.w3.org/2000/svg"
   xmlns="http://www.w3.org/2000/svg"
   xmlns:sodipodi="http://sodipodi.sourceforge.net/DTD/sodipodi-0.dtd"
   xmlns:inkscape="http://www.inkscape.org/namespaces/inkscape"
   width="256"
   height="128"
   id="svg3050"
   version="1.1"
   inkscape:version="0.48.5 r10040"
   sodipodi:docname="New document 2">
  <defs
     id="defs3052" />
  <sodipodi:namedview
     id="base"
     pagecolor="#ffffff"
     bordercolor="#666666"
     borderopacity="1.0"
     inkscape:pageopacity="0.0"
     inkscape:pageshadow="2"
     inkscape:zoom="2.4972322"
     inkscape:cx="159.62349"
     inkscape:cy="62.765613"
     inkscape:document-units="px"
     inkscape:current-layer="layer1"
     showgrid="false"
     inkscape:window-width="1340"
     inkscape:window-height="783"
     inkscape:window-x="569"
     inkscape:window-y="165"
     inkscape:window-maximized="0" />
  <metadata
     id="metadata3055">
    <rdf:RDF>
      <cc:Work
         rdf:about="">
        <dc:format>image/svg+xml</dc:format>
        <dc:type
           rdf:resource="http://purl.org/dc/dcmitype/StillImage" />
        <dc:title></dc:title>
      </cc:Work>
    </rdf:RDF>
  </metadata>
  <g
     inkscape:label="Layer 1"
     inkscape:groupmode="layer"
     id="layer1"
     transform="translate(0,-924.36218)">
    <path
       style="fill:#6c6753;fill-opacity:1;stroke:none"
       d="m 221.25352,959.97627 c -3.63998,0.0969 -7.25135,0.56212 -10.86473,0.95106 -2.18907,7.0422 -1.60979,14.53125 -2.19546,21.78573 -0.26079,11.53033 -1.0224,23.12044 -0.0308,34.62674 0.33988,2.8468 3.94995,0.016 5.88967,0.067 3.55559,-0.4918 7.12673,-2.8191 10.74736,-1.8568 1.60429,2.1395 0.44946,5.2143 1.14993,7.6799 0.18658,1.4345 1.10208,6.2241 1.24667,5.0095 0.38293,-8.4365 -0.90711,-16.8352 -0.80824,-25.2779 -0.47046,-13.69107 -0.22363,-27.42792 -1.32109,-41.08619 0.24315,-2.82305 -1.7176,-1.71599 -3.8133,-1.89933 z"
       id="path3076"
       inkscape:connector-curvature="0" />
    <path
       style="fill:#6c6753;fill-opacity:1;stroke:none"
       d="m 22.983862,985.99258 c 0.187103,11.67266 -0.116138,23.38312 0.724038,35.02942 1.930642,9.0624 2.591701,18.2543 3.210849,27.4397 2.814384,-0.2668 6.016192,0.5246 8.62539,-0.4379 0.95758,-4.6268 -0.167119,-9.4774 -0.225507,-14.1745 -0.429633,-2.2213 0.857721,-5.8533 -3.069496,-5.2323 -2.27458,-0.3208 -5.6594,-0.377 -5.815119,-3.0681 -1.188053,-3.4762 -1.053042,-7.4326 -2.067242,-10.787 3.523439,-0.5125 7.194987,1.309 10.692632,0.7258 -3.728341,-9.7923 -6.804111,-19.96711 -6.363915,-30.38351 -0.166656,-8.2172 -0.04049,-16.48277 2.101119,-24.52725 0.232079,-1.98268 0.99236,-4.22385 0.784126,-6.09425 -2.913161,-0.17729 -5.835973,-0.21965 -8.753701,-0.32536 0.05227,10.61175 0.104557,21.2235 0.156826,31.83525 z"
       id="path3078"
       inkscape:connector-curvature="0" />
    <path
       style="fill:#000000;fill-opacity:1;stroke:none"
       id="path3058"
       d="m 26.028817,219.04617 c -0.01343,1.00347 -0.02374,1.99883 0.110467,2.99425 0.128738,0.85915 0.191602,1.72114 0.369627,2.5717 0.215046,0.77207 0.182341,1.5849 0.338501,2.36389 0.141747,0.70657 0.40659,1.3752 0.571769,2.07615 0.112081,0.56487 0.03713,1.2209 0.60765,1.52326 0.672396,0.4149 1.463366,0.4588 2.220974,0.59403 1.30107,0.24575 2.623195,0.31827 3.943488,0.36539 1.773465,0.0144 3.545326,0.13457 5.307285,0.33375 2.112764,0.22562 4.225579,0.4591 6.342958,0.63851 2.40689,0.18718 4.807581,0.42495 7.219172,0.54948 2.598805,0.12353 5.201425,0.0696 7.800455,0.16929 2.677403,0.14335 5.355536,0.23974 8.030669,0.42123 2.682835,0.12907 5.356253,0.38772 8.03713,0.54727 2.92974,0.14953 5.854897,0.36186 8.786897,0.47053 3.140609,0.0786 6.276094,0.29389 9.409032,0.51887 3.08431,0.16013 6.148789,0.5493 9.221449,0.84222 2.66068,0.22825 5.33018,0.28678 7.9945,0.45778 2.48918,0.10401 4.96835,0.34946 7.45343,0.5161 2.30816,0.13823 4.60877,0.35783 6.91906,0.46792 2.28337,0.0324 4.55822,0.22932 6.83717,0.35561 2.46905,0.12104 4.94156,0.13835 7.41304,0.15322 2.40218,-0.0566 4.79756,0.12376 7.19448,0.24741 2.09116,0.0443 4.17194,0.25324 6.2576,0.39346 1.82206,0.22113 3.647,0.39448 5.48003,0.48866 1.57275,0.004 3.13287,0.19455 4.69804,0.32179 1.40006,0.15565 2.78094,0.42255 4.16715,0.66522 1.1653,0.18257 2.34198,0.22331 3.50788,0.39865 1.04144,0.19405 2.06837,0.43201 3.12197,0.56272 0.90467,0.10258 1.81543,0.12191 2.72492,0.13161 0.80551,0.005 1.61105,0.001 2.41657,-3.2e-4 0.79583,0.0501 1.53755,-0.23943 2.287,-0.45771 0.70124,-0.20797 1.404,-0.42208 2.10008,-0.64999 0.75307,-0.29359 1.52541,-0.52339 2.29341,-0.77339 0.73145,-0.2276 1.47854,-0.36329 2.18041,-0.67787 0.70049,-0.32472 1.44782,-0.5385 2.15258,-0.84965 0.69001,-0.3475 1.44065,-0.47848 2.20121,-0.55209 0.79703,-0.0568 1.59676,-0.0521 2.39532,-0.052 0.80178,0.002 1.60355,0.004 2.40533,0.005 0.8814,0.001 1.7628,0.001 2.64419,0.001 0.94892,3e-5 1.89784,0 2.84676,-1e-5 0.83988,-1e-5 1.67977,-1e-5 2.51965,-2e-5 0.86149,0 1.72298,0 2.58446,0 0.86891,0 1.73783,0 2.60674,0 0.88652,0 1.77304,0 2.65956,0 0.85146,0 1.70293,0 2.55439,0 0.84125,0 1.68251,0 2.52376,0 0.88708,0 1.77417,0 2.66126,0 0.81038,0 1.62077,0 2.43116,0 0.56684,-0.0642 1.36097,0.21371 1.80164,-0.25114 0.2722,-0.51015 0.26211,-1.11806 0.28097,-1.68175 -0.12498,-0.76741 -0.20119,-1.54807 -0.37048,-2.30715 -0.18823,-0.83047 -0.50845,-1.61634 -0.68002,-2.45297 -0.11313,-0.70801 -0.3397,-1.38596 -0.4507,-2.09607 -0.0828,-0.67702 -0.29582,-1.32549 -0.39925,-2.00124 -0.0988,-0.77823 -0.10605,-1.56394 -0.11395,-2.34718 -0.004,-0.80215 -0.002,-1.60433 -7e-4,-2.40649 -0.0635,-0.56796 0.21529,-1.36326 -0.24977,-1.80535 -0.51412,-0.32291 -1.01507,-0.171 -1.54896,-0.004 -1.06462,0.23911 -2.09521,0.58539 -3.12693,0.93717 -1.49525,0.42248 -2.9832,0.86528 -4.47211,1.30904 -1.6517,0.41075 -3.30372,0.8166 -4.954,1.23289 -1.77901,0.3104 -3.54039,0.70953 -5.3148,1.04369 -1.71905,0.40873 -3.47765,0.56078 -5.22569,0.77883 -1.61949,0.17914 -3.22503,0.45398 -4.8437,0.63956 -1.50935,0.25679 -3.02902,0.43188 -4.55673,0.52571 -1.37258,0.0729 -2.74739,0.0758 -4.12148,0.0789 -1.30262,6.5e-4 -2.60524,-0.002 -3.90786,-0.003 -1.25443,-0.002 -2.49947,0.19118 -3.74931,0.28758 -1.24473,0.10919 -2.49631,0.0565 -3.74055,0.15731 -1.39099,0.15489 -2.78561,0.25862 -4.18397,0.31089 -1.50283,0.0462 -3.00659,0.0447 -4.50997,0.0464 -1.64177,2.4e-4 -3.28354,-10e-4 -4.92531,-0.002 -1.75731,-6.6e-4 -3.51463,-7.7e-4 -5.27195,-8.4e-4 -1.81153,0.0103 -3.61495,-0.19602 -5.42281,-0.29077 -1.70215,-0.18441 -3.40443,-0.34806 -5.11444,-0.43739 -1.45889,-0.0674 -2.91968,-0.0722 -4.37983,-0.0761 -1.30918,0.009 -2.61194,0.0312 -3.91411,-0.11454 -1.0165,-0.14381 -2.03904,-0.21766 -3.06421,-0.25699 -1.04435,-0.0294 -2.08922,-0.028 -3.13389,-0.0284 -1.07805,-0.1026 -2.14972,-0.24906 -3.23041,-0.32667 -1.13212,-0.0639 -2.26652,-0.0679 -3.4001,-0.0726 -1.2345,0.0585 -2.45436,-0.0523 -3.67943,-0.18317 -1.22095,-0.13947 -2.44963,-0.17762 -3.67725,-0.20251 -1.23499,0.0493 -2.4551,-0.13656 -3.67979,-0.25886 -1.06124,-0.10518 -2.12732,-0.1337 -3.19292,-0.14978 -1.07564,-0.0104 -2.15136,-0.008 -3.22704,-0.007 -0.96052,0.001 -1.92104,0.002 -2.88156,0.002 -0.89142,2.3e-4 -1.78284,2.2e-4 -2.67426,2.3e-4 -0.88905,0 -1.778107,-1e-5 -2.667161,-2e-5 -0.886144,0 -1.772287,0 -2.658431,0 -1.051593,0 -2.103185,0 -3.154778,0 -1.032625,-0.14144 -2.075795,-0.21828 -3.105197,-0.38077 -0.90243,-0.18524 -1.812706,-0.31267 -2.731249,-0.37774 -0.877709,-0.049 -1.757269,-0.0452 -2.636026,-0.0463 -0.884027,0.056 -1.746773,-0.0411 -2.61648,-0.18364 -0.818637,-0.0765 -1.60934,-0.30152 -2.416168,-0.4473 -0.92961,-0.0906 -1.854798,-0.22986 -2.75927,-0.46564 -0.842977,-0.25522 -1.713264,-0.39145 -2.572872,-0.57643 -0.853456,-0.21778 -1.740269,-0.20737 -2.602201,-0.35876 -0.714306,-0.16765 -1.436519,-0.27386 -2.148312,-0.45182 -0.744067,-0.19385 -1.510288,-0.25569 -2.275319,-0.29343 -0.794232,-0.0291 -1.58918,-0.0263 -2.383812,-0.0259 -0.815683,-0.0995 -1.621989,-0.25044 -2.440914,-0.3265 -0.918857,-0.0787 -1.841079,-0.0364 -2.758798,-0.12161 -0.931775,-0.13316 -1.864867,-0.24674 -2.804348,-0.30607 -0.804075,-0.0424 -1.609512,-0.0439 -2.41447,-0.0457 -0.8332,0.0552 -1.644849,-0.0479 -2.463657,-0.18498 -0.776,-0.13406 -1.562648,-0.17504 -2.348349,-0.19973 -0.796451,-0.0183 -1.593188,-0.0161 -2.389796,-0.0156 -0.800902,9.9e-4 -1.601805,0.002 -2.402707,0.002 -0.800955,3.5e-4 -1.60191,3.7e-4 -2.402865,3.9e-4 -0.695604,-0.0133 -1.37099,0.19024 -2.057207,0.28635 -0.777534,0.0939 -1.56163,0.10422 -2.343748,0.11333 -0.898494,0.006 -1.797021,0.003 -2.695528,0.002 -0.837811,-9.7e-4 -1.675622,-0.001 -2.513433,-0.002 -0.709297,-0.0986 -1.405246,-0.25647 -2.118641,-0.33016 -0.722393,0.009 -1.412967,-0.19082 -2.116725,-0.3199 -0.749004,-0.14732 -1.511566,-0.28522 -2.24454,-0.50211 -0.318777,-0.11702 -0.646442,-0.20132 -0.976549,-0.27822 -0.551315,-0.12947 -0.36822,-0.90914 0.183095,-0.77968 l 0,0 c 0.346172,0.0819 0.690692,0.16866 1.025306,0.29131 0.700516,0.21774 1.440172,0.3344 2.157714,0.48105 0.683761,0.12634 1.352274,0.32151 2.054543,0.31096 0.685694,0.0718 1.357854,0.20667 2.035998,0.32586 0.838026,2.1e-4 1.676052,5.9e-4 2.514077,0.002 0.895127,9.5e-4 1.790273,0.003 2.685388,-0.002 0.748266,-0.009 1.498445,-0.0177 2.242502,-0.10573 0.722742,-0.10017 1.43366,-0.31606 2.167729,-0.29401 0.800819,-2e-5 1.601638,-3e-5 2.402457,-3.9e-4 0.800881,-4.2e-4 1.601761,-0.001 2.40264,-0.002 0.805193,-5e-4 1.610519,-0.003 2.41555,0.016 0.821538,0.026 1.643948,0.0701 2.45531,0.21032 0.776385,0.12997 1.542648,0.23045 2.333293,0.174 0.821229,0.002 1.642946,0.004 2.463254,0.0473 0.947924,0.0603 1.889819,0.17226 2.829833,0.30809 0.916342,0.0903 1.839449,0.0346 2.757054,0.12145 0.793939,0.0744 1.577533,0.2089 2.366123,0.32304 0.808008,-4.1e-4 1.61634,-0.003 2.423927,0.0268 0.817152,0.0408 1.635235,0.10948 2.429936,0.31637 0.69477,0.17384 1.400034,0.2758 2.097142,0.44079 0.867152,0.16417 1.768688,0.13013 2.627534,0.36379 0.871523,0.18754 1.753831,0.32614 2.608513,0.58495 0.883151,0.23574 1.790322,0.35704 2.697988,0.45204 0.802443,0.14589 1.588643,0.36879 2.402893,0.44501 0.827735,0.13571 1.645931,0.23005 2.487876,0.17309 0.897404,0.001 1.795636,-0.003 2.691935,0.0483 0.941654,0.0673 1.875408,0.1955 2.800583,0.38573 0.987221,0.15942 1.989561,0.22221 2.978988,0.37076 1.051593,0 2.103186,0 3.154778,0 0.886145,0 1.77229,0 2.658435,1e-5 0.889051,0 1.778097,1e-5 2.667157,1e-5 0.89133,0 1.78267,0 2.67401,-2.3e-4 0.96037,-3e-4 1.92074,-8.1e-4 2.88111,-0.002 1.07995,-9.4e-4 2.15994,-0.003 3.23985,0.007 1.08815,0.0165 2.17678,0.0461 3.26046,0.15366 1.20373,0.12042 2.40248,0.30485 3.61641,0.25506 1.25059,0.0255 2.50223,0.0649 3.74603,0.20687 1.19811,0.12796 2.39019,0.23794 3.59772,0.17865 1.15163,0.005 2.30411,0.009 3.45423,0.0747 1.06161,0.0765 2.11513,0.21403 3.17323,0.3246 1.05482,3.8e-4 2.10987,-9.4e-4 3.16437,0.029 1.04473,0.0403 2.08687,0.11521 3.12281,0.2614 1.27299,0.14343 2.54688,0.11644 3.82685,0.10953 1.47339,0.004 2.94744,0.009 4.41956,0.0772 1.71,0.0896 3.4126,0.25081 5.11456,0.4374 1.7939,0.0942 3.58342,0.29849 5.38088,0.28966 1.75743,8e-5 3.51485,1.9e-4 5.27228,8.5e-4 1.64133,7.1e-4 3.28267,0.002 4.92401,0.002 1.49374,-0.002 2.98786,-2.1e-4 4.48105,-0.0459 1.38713,-0.0516 2.77043,-0.15556 4.15025,-0.30891 1.24535,-0.0975 2.49681,-0.0531 3.74259,-0.15748 1.27054,-0.0978 2.53616,-0.29464 3.81163,-0.28995 1.30176,0.001 2.60351,0.004 3.90527,0.003 1.35837,-0.003 2.71746,-0.006 4.07435,-0.0774 1.5137,-0.0924 3.01892,-0.26863 4.51451,-0.522 1.61607,-0.18503 3.21895,-0.46023 4.83588,-0.63863 1.73169,-0.21534 3.47372,-0.36597 5.17657,-0.77116 1.75848,-0.33064 3.50361,-0.72806 5.26704,-1.03317 1.63931,-0.4134 3.28008,-0.81753 4.92118,-1.22387 1.47903,-0.4405 2.95659,-0.88183 4.44239,-1.29955 1.03853,-0.35391 2.07623,-0.70363 3.14787,-0.944 0.85221,-0.26246 1.67379,-0.36406 2.40365,0.25827 0.52302,0.69767 0.45655,1.47842 0.43342,2.31683 -0.001,0.7991 -0.004,1.59821 6.7e-4,2.39731 0.007,0.74573 0.0134,1.4938 0.10491,2.23501 0.10152,0.67489 0.32084,1.32151 0.39888,1.99881 0.10704,0.69775 0.33715,1.36247 0.44407,2.05903 0.16802,0.83307 0.49947,1.61219 0.6776,2.4415 0.17749,0.82494 0.27957,1.66952 0.38851,2.50561 -0.0275,0.79355 -0.0369,1.6304 -0.57035,2.27109 -0.69614,0.52307 -1.47538,0.45756 -2.31268,0.43538 -0.81039,0 -1.62078,0 -2.43116,0 -0.88709,0 -1.77418,0 -2.66126,0 -0.84125,0 -1.68251,0 -2.52376,0 -0.85146,0 -1.70293,0 -2.55439,0 -0.88652,0 -1.77304,0 -2.65956,0 -0.86891,0 -1.73783,0 -2.60674,0 -0.86148,0 -1.72297,0 -2.58446,0 -0.83988,0 -1.67976,1e-5 -2.51964,2e-5 -0.94894,1e-5 -1.89788,4e-5 -2.84683,1e-5 -0.88175,-7e-5 -1.7635,-7e-5 -2.64525,-0.001 -0.80144,-0.001 -1.60288,-0.003 -2.40432,-0.005 -0.7731,-1.2e-4 -1.54728,-0.005 -2.31898,0.0484 -0.67743,0.0639 -1.34449,0.17559 -1.95777,0.48916 -0.70666,0.30409 -1.44633,0.52994 -2.14832,0.84777 -0.72964,0.31916 -1.49618,0.48357 -2.25746,0.70731 -0.7686,0.24802 -1.53978,0.47964 -2.2929,0.77322 -0.7051,0.22738 -1.41433,0.44682 -2.1237,0.65726 -0.82166,0.23888 -1.63725,0.54301 -2.50923,0.48961 -0.80889,0.002 -1.6178,0.005 -2.42668,2.7e-4 -0.93968,-0.0101 -1.88063,-0.0309 -2.81524,-0.13769 -1.06028,-0.13231 -2.0949,-0.36751 -3.14235,-0.56552 -1.17199,-0.17676 -2.35576,-0.21325 -3.52676,-0.40172 -1.36199,-0.23858 -2.71855,-0.50111 -4.09393,-0.65586 -1.55729,-0.12675 -3.1094,-0.31686 -4.67426,-0.32021 -1.83717,-0.0946 -3.66657,-0.2662 -5.49261,-0.48941 -2.08152,-0.14 -4.15813,-0.34862 -6.24513,-0.39272 -2.3848,-0.12306 -4.768,-0.30313 -7.15804,-0.24635 -2.48466,-0.015 -4.97035,-0.0325 -7.45255,-0.15444 -2.2769,-0.12629 -4.54968,-0.32298 -6.83099,-0.35529 -2.31544,-0.1105 -4.62123,-0.32996 -6.93451,-0.46881 -2.48431,-0.16671 -4.96271,-0.41194 -7.45112,-0.51594 -2.67257,-0.17155 -5.35039,-0.22976 -8.01923,-0.45976 -3.06644,-0.29248 -6.12473,-0.68076 -9.202796,-0.84066 -3.12372,-0.22432 -6.249971,-0.4392 -9.381347,-0.51737 -2.937973,-0.10902 -5.869114,-0.32139 -8.804819,-0.47139 -2.683078,-0.15984 -5.358705,-0.41836 -8.04374,-0.54769 -2.667341,-0.18099 -5.337681,-0.2769 -8.007283,-0.41998 -2.602478,-0.10067 -5.208712,-0.0445 -7.810961,-0.16977 -2.420371,-0.12518 -4.829868,-0.36314 -7.245508,-0.55127 -2.124893,-0.18032 -4.245256,-0.41423 -6.365533,-0.64075 -1.741379,-0.19812 -3.492869,-0.31461 -5.245676,-0.32917 -1.358035,-0.0487 -2.717803,-0.12479 -4.056048,-0.37742 -0.860475,-0.15467 -1.750859,-0.22142 -2.508352,-0.7058 -0.78411,-0.53746 -0.843315,-1.12866 -0.958871,-2.01724 -0.165468,-0.71174 -0.441805,-1.38926 -0.578609,-2.10832 -0.143282,-0.77814 -0.135839,-1.5797 -0.33582,-2.35049 -0.181476,-0.86983 -0.250315,-1.7504 -0.379452,-2.62906 -0.137595,-1.03098 -0.133794,-2.0616 -0.117574,-3.10071 0,-0.56631 0.800886,-0.56631 0.800886,0 z"
       inkscape:connector-curvature="0"
       transform="translate(0,796.36218)" />
    <path
       style="fill:#000000;fill-opacity:1;stroke:none"
       id="path3062"
       d="m 13.149486,156.69005 c 1.252701,0 2.505402,0 3.758102,0 1.709892,0 3.419783,0 5.129674,0 2.234083,0.0301 4.470824,0.16687 6.698758,0.33929 2.718807,0.23436 5.444913,0.34708 8.167216,0.53076 3.111572,0.15175 6.221583,0.32016 9.332245,0.49166 3.316895,0.25506 6.632666,0.53344 9.944339,0.84945 3.130981,0.26548 6.242446,0.71027 9.368774,1.0199 2.823523,0.23595 5.646635,0.47396 8.464307,0.77181 2.175235,0.27279 4.340602,0.6192 6.515451,0.89312 1.86084,0.20936 3.731941,0.24843 5.596027,0.41887 1.685706,0.10595 3.362741,0.28863 5.043163,0.45317 1.739052,0.11623 3.468612,0.33208 5.205787,0.4711 2.02163,0.13923 4.048841,0.1523 6.074321,0.16579 2.1112,0.0289 4.22377,-0.0415 6.33335,0.053 2.10134,0.16694 4.21112,0.19648 6.31244,0.35379 1.99315,0.21599 3.9991,0.24671 5.99603,0.40299 1.92272,0.18323 3.85049,0.29363 5.78067,0.35239 1.83159,-0.0146 3.65373,0.0827 5.4784,0.22748 1.71006,0.13346 3.42483,0.17719 5.1393,0.20199 1.58586,0.0142 3.16397,0.20505 4.74612,0.30591 1.64353,0.0872 3.28978,0.0977 4.9352,0.1065 1.61827,0.005 3.23655,0.003 4.85483,0.002 1.64634,0.11127 3.28884,0.25528 4.93781,0.3267 1.61527,0.0636 3.23202,0.0688 4.84829,0.0737 1.61538,0.002 3.23077,4.7e-4 4.84615,-4.1e-4 1.65275,-8.5e-4 3.30551,-0.001 4.95827,-0.001 1.61258,-9e-5 3.22515,-8e-5 4.83773,-7e-5 1.47033,1e-5 2.94066,1e-5 4.41099,1e-5 1.47981,0 2.95962,0 4.43943,0 1.31582,0 2.63163,0 3.94744,0 1.16735,0.0153 2.32335,-0.18728 3.48417,-0.28867 1.05312,-0.11474 2.11769,-0.0415 3.16909,-0.15672 0.97901,-0.14358 1.9616,-0.25129 2.94917,-0.31138 0.93009,-0.0455 1.86167,-0.0451 2.79265,-0.0469 0.90206,-0.12892 1.80052,-0.25929 2.71011,-0.32492 1.01159,-8.4e-4 2.0053,-0.11443 3.00512,-0.25203 1.0439,-0.11731 2.06412,-0.36947 3.10736,-0.49645 1.03189,-0.0958 2.06304,-0.0855 3.08908,-0.23684 0.84525,-0.1345 1.69448,-0.19529 2.53242,-0.37046 0.80969,-0.18485 1.63659,-0.2553 2.46405,-0.29531 0.80614,-0.0294 1.61299,-0.027 2.41954,-0.0268 0.8009,0.001 1.60181,0.002 2.40272,0.003 0.8008,5.2e-4 1.6016,5.5e-4 2.4024,5.9e-4 0.80088,1e-5 1.60176,0 2.40264,-1e-5 0.80089,-1e-5 1.60178,-1e-5 2.40267,-1e-5 0.80088,0 1.60177,0 2.40266,0 0.80088,0 1.60177,0 2.40266,0 0.7306,0.0551 1.4297,-0.0294 2.14199,-0.17341 0.617,-0.092 1.22981,-0.11345 1.62215,-0.65046 0.27944,-0.61698 0.30969,-1.31309 0.4426,-1.97266 0.16382,-0.77315 0.21879,-1.56149 0.25147,-2.34918 0.0247,-0.79652 0.0222,-1.59356 0.0219,-2.39037 -0.0589,-0.38465 0.14335,-0.95504 -0.13532,-1.2916 -0.0385,-0.0465 -0.33356,-0.16441 -0.34944,-0.17129 -0.7137,-0.22349 -1.47184,-0.21812 -2.21243,-0.22748 -0.99493,0.0267 -1.97841,0.21707 -2.9716,0.30004 -1.49411,0.0769 -2.98574,0.0974 -4.47658,0.22836 -1.76563,0.17716 -3.53938,0.23081 -5.31245,0.26452 -2.04153,-0.0285 -4.07505,0.15649 -6.11157,0.26779 -2.17448,0.11352 -4.35215,0.13689 -6.5291,0.15212 -2.16122,0.0102 -4.32247,0.008 -6.48371,0.007 -1.96158,-10e-4 -3.92316,-0.002 -5.88474,-0.002 -1.66017,-2.2e-4 -3.32035,-2.2e-4 -4.98053,-2.3e-4 -1.33744,1e-5 -2.67489,1e-5 -4.01233,2e-5 -1.07117,0 -2.14234,0 -3.21351,0 -0.96259,0 -1.92517,0 -2.88776,0 -0.93871,0 -1.87741,0 -2.81612,0 -1.16658,0.13022 -2.33248,0.25274 -3.50429,0.32707 -1.05994,0.003 -2.10441,0.12202 -3.15405,0.25329 -1.05123,0.13895 -2.11093,0.18195 -3.16988,0.20842 -0.9347,-0.042 -1.8478,0.0563 -2.76947,0.19183 -0.92603,0.0883 -1.83006,0.30522 -2.74882,0.44455 -0.98197,0.13555 -1.97476,0.15736 -2.96447,0.17382 -0.94785,0.14259 -1.9125,0.19738 -2.8542,0.37444 -0.81269,0.20192 -1.63836,0.32154 -2.47226,0.38492 -0.86307,0.0512 -1.72813,0.0472 -2.59235,0.0482 -0.98189,-4.3e-4 -1.96378,-0.002 -2.94566,-0.003 -0.98315,-7.3e-4 -1.96629,-8.5e-4 -2.94944,-9.2e-4 -1.1188,-0.10895 -2.23252,-0.2542 -3.35469,-0.32877 -1.11753,-0.0451 -2.22904,-0.0556 -3.34021,-0.19028 -1.17275,-0.15053 -2.35052,-0.2103 -3.5216,-0.3751 -1.06188,-0.16714 -2.13462,-0.24155 -3.20772,-0.28448 -1.03765,-0.041 -2.06487,-0.21966 -3.09881,-0.3181 -0.98318,-0.0791 -1.96979,-0.0955 -2.95564,-0.10492 -0.97059,0.0503 -1.92572,-0.0647 -2.88597,-0.18629 -0.97965,-0.13352 -1.96706,-0.17622 -2.95432,-0.20128 -1.00353,0.036 -1.98977,-0.0571 -2.98077,-0.20106 -0.97823,-0.0714 -1.93963,-0.22884 -2.90636,-0.38606 -0.90374,-0.14244 -1.8177,-0.18997 -2.73097,-0.21627 -0.81187,-0.0171 -1.62398,-0.0144 -2.43598,-0.0134 -0.80689,0.002 -1.59827,-0.19575 -2.39824,-0.29038 -0.83594,-0.0889 -1.67717,-0.0982 -2.51689,-0.10639 -0.95248,0.0558 -1.88654,-0.1317 -2.82695,-0.24656 -1.00649,-0.24049 -2.036,-0.34894 -3.05229,-0.53157 -0.98125,-0.21933 -1.97789,-0.3245 -2.979746,-0.38337 -0.986182,-0.0429 -1.97353,-0.0438 -2.96045,-0.0447 -1.095485,9.1e-4 -2.190971,0.002 -3.286457,0.003 -1.10091,7.1e-4 -2.201821,8.5e-4 -3.302732,9.1e-4 -1.013229,4e-5 -2.026459,2e-5 -3.039688,1e-5 -0.839947,-1e-5 -1.679895,-1e-5 -2.519842,-1e-5 -0.963382,0.022 -1.916436,0.01 -2.871789,-0.11757 -0.979491,-0.15912 -1.969432,-0.22147 -2.959882,-0.25724 -1.002594,0.0423 -1.984414,-0.15019 -2.97376,-0.27274 -0.903012,-0.10413 -1.811957,-0.13254 -2.72003,-0.14868 -0.812771,-0.0101 -1.62563,-0.008 -2.438444,-0.007 -0.800031,0.001 -1.600061,0.002 -2.400092,0.002 -0.937716,-0.10343 -1.867437,-0.25626 -2.808671,-0.32884 -1.036617,-0.15349 -2.070924,-0.31322 -3.115454,-0.40238 -0.917674,-0.009 -1.817607,-0.12236 -2.7233,-0.25813 -0.862368,-0.15121 -1.741655,-0.13031 -2.605967,-0.25188 -0.819574,-0.15096 -1.642497,-0.25326 -2.454342,-0.44238 -0.840237,-0.21104 -1.706441,-0.2587 -2.568237,-0.29588 -1.010835,-0.0329 -2.005798,-0.23208 -3.013736,-0.31785 -1.13901,-0.0145 -2.258414,-0.21909 -3.386729,-0.34883 -0.994674,-0.0834 -1.966656,-0.31948 -2.956129,-0.44654 -0.859269,-0.0995 -1.725153,-0.1047 -2.588943,-0.11218 -0.823836,0.0694 -1.619807,-0.11202 -2.42495,-0.24707 -0.729458,-0.11301 -1.468426,-0.13206 -2.205037,-0.14668 -0.79481,-0.0106 -1.589721,-0.008 -2.38458,-0.007 -0.801502,0.001 -1.603004,0.002 -2.404506,0.002 -0.801019,2.4e-4 -1.602038,2.3e-4 -2.403057,2.4e-4 -0.800885,0 -1.601771,-1e-5 -2.402656,-1e-5 -0.800885,-10e-6 -1.601769,-10e-6 -2.402654,-10e-6 -0.800886,0 -1.601773,0 -2.40266,0 -0.800886,0 -1.601773,0 -2.40266,0 -0.800886,0 -1.601773,0 -2.40266,0 -0.800886,0 -1.601773,0 -2.40266,0 -0.764699,0.0358 -1.542002,-0.0682 -2.300847,0.0443 -0.428244,0.16408 -0.521822,0.64458 -0.498222,1.06162 0.07433,0.52551 0.364322,1.00016 0.620168,1.45878 0.35325,0.66999 0.42785,1.42156 0.478927,2.16414 0.073,0.76439 -0.03456,1.54138 0.07599,2.30085 0.172995,0.5274 0.541185,0.93154 1.041793,1.15904 0.509613,0.24699 0.160313,0.96769 -0.349299,0.7207 l 0,0 c -0.736283,-0.37146 -1.273183,-0.96031 -1.48631,-1.77355 -0.09755,-0.78015 -0.02607,-1.56847 -0.08122,-2.3527 -0.04191,-0.62406 -0.0905,-1.26119 -0.379336,-1.82837 -0.320839,-0.57537 -0.6641148,-1.17305 -0.7215689,-1.84147 0.014001,-0.84394 0.3043875,-1.61932 1.1912479,-1.86263 0.798158,-0.10122 1.605536,-0.0316 2.408673,-0.0515 0.800887,0 1.601774,0 2.40266,0 0.800887,0 1.601774,0 2.40266,0 0.800887,0 1.601774,0 2.40266,0 0.800887,0 1.601774,0 2.402661,0 0.800885,0 1.601771,0 2.402657,1e-5 0.800882,0 1.601764,1e-5 2.402647,1e-5 0.800921,0 1.601842,0 2.402763,-2.3e-4 0.801315,-3e-4 1.602629,-8.3e-4 2.403943,-0.002 0.800465,-8.7e-4 1.600984,-0.003 2.401398,0.007 0.775715,0.0155 1.553793,0.0371 2.321767,0.15759 0.764386,0.12861 1.516524,0.30637 2.29922,0.23603 0.895665,0.008 1.793455,0.0143 2.6843,0.11871 0.985903,0.12736 1.954698,0.36002 2.945479,0.44525 1.120578,0.12934 2.231972,0.33259 3.363249,0.34647 0.996826,0.0855 1.981031,0.28003 2.980216,0.31569 0.911343,0.0396 1.826881,0.0933 2.715404,0.31605 0.789635,0.18422 1.590441,0.2814 2.387523,0.42976 0.863676,0.12999 1.747776,0.0904 2.609692,0.25243 0.889307,0.13333 1.771515,0.2446 2.672871,0.2522 1.042293,0.0894 2.075213,0.24414 3.10905,0.40186 0.920422,0.0717 1.831031,0.21108 2.746471,0.32644 0.799827,-2.9e-4 1.599653,-8.1e-4 2.399479,-0.002 0.817874,-9.3e-4 1.635794,-0.003 2.453625,0.007 0.936287,0.0167 1.873442,0.0467 2.804444,0.15466 0.9664,0.12028 1.924577,0.31017 2.904085,0.26716 1.016301,0.037 2.032112,0.10115 3.037251,0.26381 0.919909,0.12375 1.837506,0.13043 2.765412,0.11047 0.839949,0 1.679899,1e-5 2.519849,2e-5 1.01321,10e-6 2.026421,2e-5 3.039631,-1e-5 1.100738,-7e-5 2.201476,-2.1e-4 3.302214,-9.1e-4 1.095914,-7.8e-4 2.191828,-0.002 3.287742,-0.003 1.0024,9e-4 2.005243,0.002 3.006875,0.0461 1.033746,0.0612 2.062426,0.16944 3.075086,0.39475 1.00079,0.18211 2.01642,0.28276 3.00702,0.52471 0.91103,0.11152 1.81478,0.29635 2.73756,0.24068 0.86864,0.008 1.73881,0.019 2.60344,0.11193 0.76846,0.0915 1.52902,0.27993 2.30295,0.2848 0.82002,-9.4e-4 1.64015,-0.004 2.46003,0.0138 0.94863,0.0275 1.89791,0.0779 2.83656,0.22634 0.96231,0.15691 1.91886,0.31271 2.89276,0.38397 0.95991,0.13945 1.91366,0.22993 2.88603,0.193 1.01408,0.0259 2.02828,0.0705 3.03454,0.20736 0.92978,0.11773 1.85297,0.23147 2.79301,0.17999 1.00866,0.01 2.01811,0.0268 3.024,0.1085 1.01936,0.0973 2.03221,0.27282 3.0549,0.31512 1.09973,0.0442 2.19905,0.12076 3.28734,0.29167 1.16594,0.16437 2.33891,0.22169 3.50647,0.37312 1.09661,0.13354 2.19394,0.13883 3.29688,0.18621 1.10439,0.0738 2.20132,0.20999 3.3015,0.327 0.98335,7e-5 1.9667,1.8e-4 2.95005,9.2e-4 0.98135,8.2e-4 1.96269,0.003 2.94404,0.003 0.84441,-0.001 1.68964,0.003 2.53298,-0.0459 0.80561,-0.0605 1.60231,-0.1789 2.38733,-0.37391 0.9865,-0.17889 1.99282,-0.25148 2.98617,-0.38762 0.95404,-0.0158 1.91115,-0.0357 2.8579,-0.16491 0.91981,-0.13893 1.82503,-0.35689 2.75213,-0.44504 0.95327,-0.1402 1.89974,-0.24091 2.86605,-0.20011 1.03239,-0.0257 2.06558,-0.0669 3.09045,-0.20248 1.06565,-0.13326 2.12689,-0.25373 3.2028,-0.25787 1.18876,-0.0752 2.37066,-0.20566 3.55493,-0.32867 0.93871,0 1.87741,0 2.81612,0 0.96259,0 1.92517,0 2.88776,0 1.07117,0 2.14234,0 3.21351,-1e-5 1.33744,0 2.67489,-1e-5 4.01233,-1e-5 1.66022,0 3.32044,1e-5 4.98066,2.3e-4 1.96166,3.1e-4 3.92331,8.6e-4 5.88497,0.002 2.15925,9.6e-4 4.31852,0.003 6.47775,-0.007 2.16425,-0.0151 4.32921,-0.0382 6.49101,-0.15094 2.04599,-0.11175 4.08904,-0.29717 6.14005,-0.26885 1.75477,-0.0333 3.51023,-0.0861 5.25762,-0.26159 1.4921,-0.13088 2.98482,-0.15416 4.48025,-0.22867 1.01864,-0.0843 2.02682,-0.28397 3.04823,-0.30273 0.86421,0.0112 1.7497,0.0103 2.57031,0.31704 0.97044,0.54623 0.94748,1.15312 0.91751,2.17379 3.7e-4,0.80805 0.003,1.61634 -0.0226,2.4241 -0.0348,0.82962 -0.0942,1.65977 -0.26656,2.47407 -0.15823,0.78466 -0.18031,1.62015 -0.6063,2.31966 -0.5616,0.65238 -1.24639,0.84879 -2.0849,0.93022 -0.76376,0.15434 -1.51842,0.24364 -2.30064,0.18928 -0.80089,0 -1.60178,0 -2.40266,0 -0.80089,0 -1.60178,0 -2.40266,0 -0.80089,0 -1.60177,0 -2.40266,1e-5 -0.80089,0 -1.60179,2e-5 -2.40269,0 -0.80099,-3e-5 -1.60198,-7e-5 -2.40297,-5.9e-4 -0.80078,-6.1e-4 -1.60155,-0.002 -2.40233,-0.003 -0.79364,-2.1e-4 -1.58758,-0.003 -2.38084,0.0259 -0.78544,0.0376 -1.57043,0.10318 -2.3389,0.27935 -0.85385,0.17793 -1.71819,0.24458 -2.57957,0.37883 -1.03315,0.15135 -2.07013,0.15004 -3.10933,0.23956 -1.039,0.125 -2.05437,0.38099 -3.0944,0.49477 -1.01677,0.13993 -2.02846,0.25549 -3.05695,0.25745 -0.92839,0.0663 -1.84341,0.21086 -2.76589,0.32698 -0.91533,0.002 -1.83125,0.001 -2.74573,0.0454 -0.97562,0.059 -1.94603,0.16724 -2.91324,0.30839 -1.05755,0.10884 -2.1249,0.052 -3.18396,0.15816 -1.18395,0.103 -2.36287,0.30992 -3.55373,0.2917 -1.31581,0 -2.63162,0 -3.94744,0 -1.47981,0 -2.95962,0 -4.43943,0 -1.47033,0 -2.94066,-1e-5 -4.41099,-2e-5 -1.61256,0 -3.22511,-2e-5 -4.83767,7e-5 -1.65263,1.3e-4 -3.30527,3.4e-4 -4.9579,10e-4 -1.61634,8.7e-4 -3.23269,0.003 -4.84904,4.1e-4 -1.62702,-0.005 -3.25451,-0.0103 -4.88052,-0.0745 -1.63723,-0.0711 -3.26831,-0.21081 -4.90264,-0.32594 -1.61985,9.7e-4 -3.23972,0.003 -4.85957,-0.002 -1.66101,-0.009 -3.32285,-0.0197 -4.98193,-0.10811 -1.56904,-0.10016 -3.1341,-0.2892 -4.70673,-0.30436 -1.73173,-0.0251 -3.46377,-0.0695 -5.19104,-0.20442 -1.81175,-0.14373 -3.62079,-0.24025 -5.43946,-0.22534 -1.94295,-0.0593 -3.88352,-0.1701 -5.81898,-0.35448 -1.99591,-0.15736 -4.00118,-0.18583 -5.99334,-0.40278 -2.09325,-0.15796 -4.19527,-0.18472 -6.28856,-0.35236 -2.0992,-0.0957 -4.2017,-0.0215 -6.30255,-0.0522 -2.04503,-0.0136 -4.091819,-0.0272 -6.132933,-0.16833 -1.741881,-0.13966 -3.476164,-0.35555 -5.219924,-0.47236 -1.678708,-0.16454 -3.353995,-0.34694 -5.038016,-0.45268 -1.873125,-0.17134 -3.753525,-0.20913 -5.623242,-0.42183 -2.169496,-0.27364 -4.329685,-0.61824 -6.49949,-0.89127 -2.815929,-0.29767 -5.637313,-0.53532 -8.45908,-0.77128 -3.125353,-0.30979 -6.235929,-0.75379 -9.365909,-1.01961 -3.301006,-0.31518 -6.606148,-0.59226 -9.912332,-0.84705 -3.113937,-0.17171 -6.227223,-0.34018 -9.342066,-0.49226 -2.724962,-0.18386 -5.453738,-0.29665 -8.175198,-0.53134 -2.207292,-0.17138 -4.423476,-0.30632 -6.636862,-0.33689 -1.709891,0 -3.419782,0 -5.129674,0 -1.2527,0 -2.505401,0 -3.758102,0 -0.566312,0 -0.566312,-0.80089 0,-0.80089 z"
       inkscape:connector-curvature="0"
       transform="translate(0,796.36218)" />
    <path
       style="fill:#000000;fill-opacity:1;stroke:none"
       id="path3064"
       d="m 22.825271,156.97745 c 0,1.01583 0,2.03165 0,3.04748 0,0.86679 0,1.73359 0,2.60038 0,0.8017 0,1.6034 0,2.40509 0,0.79991 0,1.59982 0,2.39973 0.120125,0.67705 0.254156,1.34842 0.325728,2.03319 0.06769,0.78719 0.07164,1.57792 0.07638,2.36743 0.0024,0.80197 4.55e-4,1.60395 -4.21e-4,2.40593 -8.53e-4,0.80115 -0.0011,1.60231 -0.0012,2.40347 -9.1e-5,0.80089 -7.4e-5,1.60177 -6.8e-5,2.40266 7e-6,0.80088 1.2e-5,1.60177 1.4e-5,2.40265 0.0076,0.82534 -0.193536,1.63441 -0.293152,2.45128 -0.08538,0.78321 -0.0976,1.57162 -0.106599,2.35863 -0.0056,0.79919 -0.0033,1.5984 -0.0024,2.39759 0.001,0.80101 0.0014,1.60203 0.0016,2.40304 1.53e-4,0.80092 1.38e-4,1.60184 1.36e-4,2.40276 -6e-6,0.80089 -1.2e-5,1.60177 -1.5e-5,2.40266 -3e-6,0.80089 -3e-6,1.60177 -3e-6,2.40266 -1e-6,0.80089 0,1.60177 0,2.40266 0,0.80089 0,1.60177 0,2.40266 0,0.80089 0,1.60177 0,2.40266 0,0.80089 0,1.60177 0,2.40266 -0.0702,0.7145 0.11258,1.39627 0.235163,2.09212 0.123387,0.76368 0.144255,1.53816 0.159887,2.30999 0.01095,0.80118 0.0084,1.60247 0.0075,2.40371 -0.0011,0.80143 -0.0016,1.60287 -0.0019,2.40431 -2.38e-4,0.80091 -2.33e-4,1.60183 -2.39e-4,2.40275 -0.01329,0.69559 0.190256,1.37097 0.286374,2.05717 0.09388,0.77754 0.104238,1.56163 0.113346,2.34375 -0.01878,0.66904 0.02335,1.34865 0.267135,1.97817 0.300322,0.6452 0.413708,1.34029 0.482386,2.04186 0.04285,0.69013 0.24587,1.35537 0.343161,2.04003 0.08144,0.72282 0.06237,1.44308 0.215032,2.15553 0.152323,0.70997 0.217585,1.42857 0.375075,2.13732 0.189651,0.80175 0.25712,1.62252 0.296744,2.44306 0.06503,0.77165 -0.04182,1.55633 0.0711,2.32259 0.16226,0.69828 0.254797,1.40631 0.307225,2.12036 0.04599,0.79346 0.04624,1.5886 0.04818,2.38311 4.44e-4,0.80193 -0.0011,1.60385 -0.0018,2.40578 -0.07078,0.71465 0.111802,1.39662 0.234324,2.09266 0.123326,0.76368 0.144214,1.53815 0.159852,2.30997 0.07271,0.5693 -0.204593,1.36163 0.259411,1.80534 0.508781,0.27347 1.116364,0.26354 1.679285,0.28263 0.79652,0.0126 1.593193,0.001 2.38974,-0.004 0.803913,-0.005 1.607841,-0.006 2.411766,-0.007 0.53522,-0.0103 1.194158,0.14949 1.484747,-0.40502 0.212536,-0.61208 0.197576,-1.27496 0.206026,-1.91502 0.0018,-0.80212 -0.0069,-1.60422 -0.01123,-2.40632 -0.0039,-0.80318 -0.0045,-1.60636 -0.005,-2.40955 -2.77e-4,-0.80101 -1.78e-4,-1.60202 -1.39e-4,-2.40303 0.05927,-0.79308 -0.120195,-1.56464 -0.23674,-2.34337 -0.04599,-0.74568 -0.165658,-1.46565 -0.329819,-2.19229 -0.163733,-0.74651 -0.198825,-1.51115 -0.222975,-2.27239 -0.01782,-0.79981 -0.01488,-1.59991 -0.01408,-2.39987 5.55e-4,-0.40092 0.0011,-0.80184 0.0016,-1.20275 6.73e-4,-0.56632 0.801559,-0.56536 0.800886,9.5e-4 l 0,0 c -4.77e-4,0.40087 -9.97e-4,0.80173 -0.0016,1.2026 -7.93e-4,0.79127 -0.0037,1.58268 0.01368,2.37381 0.0223,0.71036 0.05237,1.42425 0.203695,2.1212 0.168319,0.7454 0.293391,1.48596 0.340695,2.25033 0.122075,0.8175 0.305339,1.62938 0.245543,2.46181 -3.9e-5,0.80086 -1.38e-4,1.60171 1.39e-4,2.40257 4.38e-4,0.8019 0.0011,1.6038 0.005,2.4057 0.0043,0.80711 0.01315,1.61422 0.01117,2.42135 -0.01079,0.7914 0.0029,1.61296 -0.338449,2.34549 -0.586076,0.81004 -1.219357,0.79576 -2.152394,0.76468 -0.802462,7.5e-4 -1.604927,0.002 -2.407376,0.007 -0.807482,0.005 -1.615098,0.0166 -2.422546,0.003 -0.793594,-0.0279 -1.630376,-0.0381 -2.269686,-0.57372 -0.518101,-0.69302 -0.454888,-1.46599 -0.442062,-2.2985 -0.01469,-0.7308 -0.0329,-1.46423 -0.147939,-2.18757 -0.129871,-0.741 -0.317516,-1.47165 -0.2464,-2.23195 7.27e-4,-0.80103 0.0022,-1.60206 0.0018,-2.4031 -0.0019,-0.77571 -0.0019,-1.55205 -0.04606,-2.32678 -0.05059,-0.69789 -0.145692,-1.38838 -0.302102,-2.07113 -0.1004,-0.79273 -0.02917,-1.59442 -0.07743,-2.39167 -0.03702,-0.77511 -0.09903,-1.55062 -0.278634,-2.30793 -0.157748,-0.71136 -0.227396,-1.43152 -0.376604,-2.14436 -0.154407,-0.73163 -0.153343,-1.46769 -0.22467,-2.21009 -0.09757,-0.69613 -0.308395,-1.37207 -0.3473,-2.07483 -0.06068,-0.63493 -0.161402,-1.2613 -0.437319,-1.84375 -0.254152,-0.7223 -0.350445,-1.47881 -0.315874,-2.24414 -0.0087,-0.74827 -0.01766,-1.49844 -0.105733,-2.24249 -0.100183,-0.72275 -0.316096,-1.43366 -0.294041,-2.16774 6e-6,-0.80101 10e-7,-1.60203 2.39e-4,-2.40304 3.03e-4,-0.80163 8.38e-4,-1.60326 0.0019,-2.40488 8.62e-4,-0.79556 0.0034,-1.59118 -0.0074,-2.38669 -0.01468,-0.73077 -0.03287,-1.46417 -0.147956,-2.18748 -0.129898,-0.74061 -0.317753,-1.47085 -0.247258,-2.23078 0,-0.80089 0,-1.60177 0,-2.40266 0,-0.80089 0,-1.60177 0,-2.40266 0,-0.80089 0,-1.60177 0,-2.40266 0,-0.80089 0,-1.60177 0,-2.40266 0,-0.80089 0,-1.60178 3e-6,-2.40266 3e-6,-0.80089 9e-6,-1.60178 1.6e-5,-2.40266 2e-6,-0.80085 1.6e-5,-1.60171 -1.36e-4,-2.40256 -2.04e-4,-0.80076 -5.45e-4,-1.60152 -0.0016,-2.40229 -9.52e-4,-0.80257 -0.0033,-1.60516 0.0024,-2.40773 0.0094,-0.81643 0.02287,-1.63429 0.112471,-2.44668 0.09625,-0.78466 0.288507,-1.56215 0.287227,-2.35404 -2e-6,-0.80088 -6e-6,-1.60176 -1.4e-5,-2.40264 -5e-6,-0.80094 -2.2e-5,-1.60187 6.9e-5,-2.4028 1.3e-4,-0.80141 3.33e-4,-1.60281 0.0012,-2.40422 8.74e-4,-0.80008 0.0028,-1.60017 4.34e-4,-2.40026 -0.0046,-0.76349 -0.0079,-1.52814 -0.0721,-2.28948 -0.0735,-0.71252 -0.230589,-1.40765 -0.330013,-2.11593 0,-0.79991 0,-1.59982 0,-2.39973 0,-0.80169 0,-1.60339 0,-2.40509 0,-0.86679 0,-1.73359 0,-2.60038 0,-1.01583 0,-2.03165 0,-3.04748 0,-0.56631 0.800887,-0.56631 0.800887,0 z"
       inkscape:connector-curvature="0"
       transform="translate(0,796.36218)" />
    <path
       style="fill:#000000;fill-opacity:1;stroke:none"
       id="path3066"
       d="m 34.362877,219.39889 c -0.258519,-1.08047 -0.74531,-2.08382 -1.08762,-3.13642 -0.341389,-1.04222 -0.732664,-2.06526 -0.988434,-3.13329 -0.271464,-0.97309 -0.609497,-1.92251 -0.814601,-2.91284 -0.204533,-0.98924 -0.57838,-1.92787 -0.797576,-2.9127 -0.245105,-1.09998 -0.580356,-2.17391 -0.802201,-3.27937 -0.115046,-0.99705 -0.305378,-1.9722 -0.579591,-2.93684 -0.266934,-0.97405 -0.373668,-1.97816 -0.432659,-2.98309 0.01252,-0.96653 -0.09079,-1.91877 -0.211678,-2.87581 -0.124307,-0.92812 -0.177094,-1.86288 -0.204401,-2.79816 -0.01783,-0.81202 -0.01574,-1.62431 -0.01519,-2.43647 10e-4,-0.79947 0.0018,-1.59894 0.0022,-2.39841 3.43e-4,-0.80062 3.56e-4,-1.60123 3.74e-4,-2.40185 6e-6,-0.80089 -6e-6,-1.60179 -1.1e-5,-2.40268 -5e-6,-0.80089 -6e-6,-1.60178 -6e-6,-2.40267 -1e-6,-0.80089 -1e-6,-1.60178 -1e-6,-2.40266 -0.05437,-0.78223 0.03493,-1.53688 0.189277,-2.30064 0.141988,-0.70147 0.174954,-1.41727 0.19815,-2.13055 -0.05228,-0.74992 0.135247,-1.47049 0.262803,-2.20155 0.226779,-0.62162 0.393994,-1.24854 0.476819,-1.90486 0.07856,-0.78058 0.272425,-1.54233 0.371505,-2.32133 0.05359,-0.82091 0.168788,-1.64005 0.411735,-2.4272 0.26555,-0.64474 0.381653,-1.32333 0.445459,-2.01304 0.04025,-0.76764 0.02388,-1.52587 0.173598,-2.28212 0.103203,-0.44486 0.159698,-0.8973 0.205476,-1.35093 0.05725,-0.56341 0.854033,-0.48245 0.796784,0.081 l 0,0 c -0.04898,0.47901 -0.108508,0.95692 -0.216888,1.42685 -0.146869,0.72788 -0.111953,1.46076 -0.161566,2.19984 -0.07049,0.74574 -0.195244,1.48194 -0.479315,2.18013 -0.241054,0.73743 -0.320847,1.5169 -0.380856,2.28702 -0.09997,0.77902 -0.290953,1.54119 -0.371509,2.32137 -0.08618,0.66669 -0.235878,1.31404 -0.482334,1.94131 -0.12186,0.69499 -0.304738,1.37633 -0.251251,2.08971 -0.02488,0.75778 -0.06214,1.51796 -0.213594,2.26303 -0.143956,0.7123 -0.228557,1.4114 -0.173406,2.142 0,0.80088 0,1.60177 0,2.40266 1e-6,0.80089 2e-6,1.60178 7e-6,2.40267 5e-6,0.8009 1.6e-5,1.6018 1e-5,2.4027 -1.7e-5,0.80075 -3e-5,1.6015 -3.73e-4,2.40225 -4.17e-4,0.79951 -0.0012,1.59902 -0.0022,2.39853 -5.45e-4,0.80422 -0.0026,1.60855 0.01485,2.41263 0.02639,0.90952 0.07738,1.81855 0.198427,2.72109 0.123098,0.9746 0.228259,1.94539 0.216629,2.92949 0.05498,0.94671 0.153301,1.8929 0.403524,2.81088 0.279733,0.98487 0.47859,1.98048 0.594509,2.99854 0.219701,1.10046 0.557518,2.16855 0.798963,3.26399 0.216174,0.98906 0.603004,1.9291 0.799994,2.92404 0.200266,0.98265 0.54711,1.92143 0.809156,2.88831 0.248747,1.04797 0.639338,2.04956 0.971388,3.07252 0.338204,1.05126 0.831164,2.05038 1.085411,3.12969 0.179084,0.53726 -0.580704,0.79052 -0.759788,0.25327 z"
       inkscape:connector-curvature="0"
       transform="translate(0,796.36218)" />
    <path
       style="fill:#000000;fill-opacity:1;stroke:none"
       id="path3068"
       d="m 211.31774,164.31206 c -0.42674,0.96205 -0.73603,1.96173 -0.92921,2.99487 -0.10013,0.77631 -0.34318,1.52049 -0.4573,2.29502 -0.0947,0.76962 -0.29323,1.51958 -0.39486,2.28939 -0.0886,0.77957 -0.0978,1.56498 -0.10556,2.34862 -0.004,0.79981 -0.002,1.59964 -6.9e-4,2.39946 0.001,0.8011 0.001,1.60219 0.002,2.40329 0.008,0.82538 -0.19341,1.63448 -0.29303,2.45137 -0.0854,0.78322 -0.0976,1.57163 -0.10662,2.35863 -0.006,0.79919 -0.003,1.5984 -0.002,2.39759 -0.0189,0.80327 0.051,1.61073 -0.05,2.40904 -0.15736,0.6826 -0.25365,1.37291 -0.30481,2.07084 -0.0446,0.77461 -0.0447,1.55086 -0.0466,2.32647 -4.5e-4,0.80103 10e-4,1.60206 0.002,2.40309 6.7e-4,0.80128 7.8e-4,1.60256 8.6e-4,2.40384 5e-5,0.80091 3e-5,1.60182 2e-5,2.40273 0,0.80088 -10e-6,1.60177 -10e-6,2.40265 0,0.80088 0,1.60177 0,2.40266 0,0.80088 0,1.60177 0,2.40266 0,0.80088 0,1.60177 0,2.40266 0,0.80088 0,1.60177 0,2.40266 0,0.80088 0,1.60177 0,2.40266 0,0.80088 0,1.60177 0,2.40266 0.0358,0.7647 -0.0682,1.542 0.0443,2.30084 0.0797,0.63978 0.28433,1.23799 0.47448,1.84905 0.19709,0.36566 0.34094,0.75001 0.46089,1.14644 0.16184,0.54269 -0.60565,0.77156 -0.76749,0.22887 l 0,0 c -0.11578,-0.3954 -0.27663,-0.76798 -0.4583,-1.13793 -0.2021,-0.65313 -0.41681,-1.29578 -0.50318,-1.9786 -0.10122,-0.79816 -0.0316,-1.60554 -0.0515,-2.40867 0,-0.80089 0,-1.60178 0,-2.40266 0,-0.80089 0,-1.60178 0,-2.40266 0,-0.80089 0,-1.60178 0,-2.40266 0,-0.80089 0,-1.60178 0,-2.40266 0,-0.80089 0,-1.60178 0,-2.40266 0,-0.80089 0,-1.60178 0,-2.40266 0,-0.80089 0,-1.60177 1e-5,-2.40266 0,-0.80088 2e-5,-1.60176 -3e-5,-2.40264 -8e-5,-0.80106 -1.9e-4,-1.60213 -8.6e-4,-2.40319 -7.3e-4,-0.80194 -0.002,-1.60387 -0.002,-2.40581 0.002,-0.79461 0.002,-1.58988 0.0488,-2.38342 0.053,-0.71389 0.14658,-1.4216 0.3099,-2.1195 0.11224,-0.75876 0.008,-1.5359 0.0427,-2.30049 -9.5e-4,-0.80257 -0.003,-1.60516 0.002,-2.40773 0.009,-0.81643 0.0229,-1.63429 0.11249,-2.44668 0.0963,-0.78462 0.28853,-1.56208 0.28712,-2.35393 -2e-4,-0.80079 -5.2e-4,-1.60157 -0.002,-2.40236 -10e-4,-0.80284 -0.004,-1.6057 7.3e-4,-2.40854 0.008,-0.8162 0.0186,-1.63422 0.11249,-2.44603 0.1032,-0.77391 0.29929,-1.52843 0.39659,-2.30173 0.11745,-0.78463 0.35686,-1.5396 0.46241,-2.32535 0.20192,-1.0679 0.51291,-2.10577 0.9565,-3.1001 0.17908,-0.53725 0.93887,-0.28399 0.75979,0.25326 z"
       inkscape:connector-curvature="0"
       transform="translate(0,796.36218)" />
    <path
       style="fill:#000000;fill-opacity:1;stroke:none"
       id="path3070"
       d="m 212.18162,238.73372 c -0.16212,0.99445 -0.24666,1.9987 -0.30266,3.00397 -0.0417,0.85902 -0.045,1.71921 -0.0471,2.57904 -4.6e-4,0.80125 0.001,1.6025 0.002,2.40375 0.0226,0.73318 -0.19314,1.4433 -0.29317,2.16516 -0.0532,0.70824 -0.15906,1.43279 -0.0608,2.14029 0.18243,0.40351 0.67804,0.59754 1.07476,0.74813 0.65562,0.17148 1.32902,0.19082 1.98924,0.3454 0.67557,0.17313 1.37124,0.22244 2.06507,0.25493 0.78586,0.0272 1.57236,0.0248 2.35857,0.0247 0.80166,-8.9e-4 1.60332,-0.002 2.40497,-0.003 0.80116,-4.8e-4 1.60233,-5.2e-4 2.40349,-5.5e-4 0.80089,-2e-5 1.60178,-1e-5 2.40267,0 0.74303,-0.0911 1.46858,0.0947 2.20061,0.13438 0.26744,-0.13694 0.23679,-0.67634 0.26089,-0.9423 0.0413,-0.76783 0.0278,-1.53738 0.0233,-2.30596 -0.006,-0.80598 -0.008,-1.61197 -0.009,-2.41797 0.0694,-0.71531 -0.11341,-1.39788 -0.23614,-2.09452 -0.24764,-0.62631 -0.39793,-1.27292 -0.48449,-1.93907 -0.0638,-0.6847 -0.27095,-1.34275 -0.37095,-2.02402 -0.0956,-0.77917 -0.10339,-1.5653 -0.11134,-2.34918 -0.005,-0.80208 -0.002,-1.60419 -9.9e-4,-2.40628 0.001,-0.80127 0.001,-1.60255 0.002,-2.40383 1.4e-4,-0.80089 1.2e-4,-1.60178 1.2e-4,-2.40268 -1e-5,-0.80088 -1e-5,-1.60176 -2e-5,-2.40264 0,-0.80088 0,-1.60177 0,-2.40266 0,-0.80088 0,-1.60177 0,-2.40266 0.0568,-0.79172 -0.0451,-1.55899 -0.1758,-2.33627 -0.17193,-0.77388 -0.1126,-1.57823 -0.25353,-2.35334 -0.18214,-0.69988 -0.27504,-1.41405 -0.32803,-2.13377 -0.0455,-0.79356 -0.045,-1.5888 -0.0466,-2.38338 -10e-5,-0.80186 0.001,-1.60373 0.002,-2.4056 -0.11936,-0.67737 -0.25337,-1.34897 -0.32489,-2.03394 -0.0676,-0.78718 -0.0716,-1.57788 -0.0763,-2.36738 -0.002,-0.80197 -4.6e-4,-1.60394 4.1e-4,-2.40591 8.5e-4,-0.80116 0.001,-1.60232 0.001,-2.40347 9e-5,-0.80089 7e-5,-1.60178 7e-5,-2.40266 -1e-5,-0.80089 -2e-5,-1.60177 -2e-5,-2.40265 0,-0.80089 0,-1.60178 0,-2.40266 0,-0.80089 0,-1.60178 0,-2.40266 0,-0.80089 0,-1.60178 0,-2.40266 0,-0.80089 0,-1.60178 0,-2.40266 -0.11554,-0.78822 -0.25113,-1.57143 -0.32611,-2.36515 -0.0655,-0.81085 -0.0711,-1.62481 -0.076,-2.43779 -0.002,-0.80182 -4.6e-4,-1.60365 4.2e-4,-2.40548 8.5e-4,-0.80076 0.001,-1.60152 0.001,-2.40229 9e-5,-0.80086 8e-5,-1.60173 7e-5,-2.40259 -10e-6,-0.80089 -10e-6,-1.60177 -10e-6,-2.40266 0,-0.80089 0,-1.60178 0,-2.40266 0,-0.80089 0,-1.60178 0,-2.40266 -0.0256,-0.78435 0.0545,-1.57546 -0.0451,-2.3551 -0.074,-0.74206 -0.27317,-1.44641 -0.47636,-2.15923 -0.13632,-0.49096 -0.18827,-0.99736 -0.23222,-1.50302 -0.0486,-0.56422 0.74935,-0.63294 0.79794,-0.0687 l 0,0 c 0.0388,0.45479 0.0832,0.91054 0.20456,1.35243 0.21419,0.75327 0.42101,1.50021 0.5013,2.28341 0.0921,0.8133 0.0365,1.63273 0.0507,2.45022 0,0.80088 0,1.60177 0,2.40266 0,0.80088 0,1.60177 0,2.40266 1e-5,0.80088 1e-5,1.60177 2e-5,2.40265 0,0.80091 2e-5,1.60182 -7e-5,2.40273 -1.3e-4,0.80101 -3.3e-4,1.60203 -0.001,2.40304 -8.7e-4,0.79994 -0.003,1.59989 -4.3e-4,2.39983 0.005,0.78953 0.01,1.58001 0.0725,2.36753 0.0767,0.8188 0.2289,1.62473 0.32964,2.44018 0,0.80088 0,1.60177 0,2.40266 0,0.80088 0,1.60177 0,2.40266 0,0.80088 0,1.60177 0,2.40266 0,0.80088 0,1.60177 0,2.40266 0,0.80088 0,1.60176 1e-5,2.40264 1e-5,0.80093 2e-5,1.60186 -7e-5,2.4028 -1.3e-4,0.8014 -3.3e-4,1.60281 -0.001,2.40421 -8.8e-4,0.80008 -0.003,1.60016 -4.3e-4,2.40024 0.005,0.76351 0.008,1.52817 0.0721,2.28952 0.0735,0.71293 0.23054,1.40855 0.32916,2.11735 -7.5e-4,0.8011 -0.002,1.6022 -0.002,2.40329 0.002,0.77562 8.2e-4,1.55187 0.0444,2.32653 0.0504,0.69416 0.14327,1.38158 0.31859,2.05656 0.12806,0.77969 0.098,1.57822 0.25401,2.35618 0.13794,0.82051 0.24245,1.63395 0.18689,2.46905 0,0.80089 0,1.60178 0,2.40266 0,0.80089 0,1.60177 0,2.40266 0,0.80088 1e-5,1.60176 2e-5,2.40264 0,0.80096 2e-5,1.60192 -1.2e-4,2.40288 -1.9e-4,0.80157 -5.1e-4,1.60314 -0.002,2.40471 -0.001,0.79904 -0.004,1.59808 9.4e-4,2.39711 0.008,0.74797 0.014,1.49809 0.10301,2.24179 0.0991,0.68566 0.31299,1.34726 0.3728,2.03744 0.0832,0.65576 0.25119,1.28175 0.47893,1.90247 0.12996,0.74097 0.31785,1.47155 0.24822,2.23186 10e-4,0.80485 0.004,1.60969 0.009,2.41451 0.005,0.79529 0.0189,1.59167 -0.0268,2.38607 -0.0735,0.75228 -0.20714,1.57732 -1.11264,1.666 -0.71584,-0.0557 -1.41971,-0.21249 -2.1462,-0.13252 -0.80088,-1e-5 -1.60176,-2e-5 -2.40264,-1e-5 -0.80098,4e-5 -1.60196,7e-5 -2.40295,5.6e-4 -0.80181,5.7e-4 -1.60362,0.002 -2.40544,0.003 -0.79882,10e-5 -1.59793,0.002 -2.39638,-0.0256 -0.74281,-0.0352 -1.48725,-0.0907 -2.21058,-0.27528 -0.69569,-0.16414 -1.4128,-0.16375 -2.09774,-0.37918 -0.68391,-0.27337 -1.37397,-0.63082 -1.5778,-1.3951 -0.0891,-0.78063 -0.0137,-1.56982 0.0624,-2.34971 0.0959,-0.68509 0.29922,-1.35944 0.2855,-2.05391 -7.4e-4,-0.80214 -0.002,-1.60428 -0.002,-2.40643 0.002,-0.87406 0.006,-1.74849 0.0483,-2.62173 0.0579,-1.03441 0.14519,-2.06776 0.31231,-3.09099 0.0931,-0.55861 0.8831,-0.42694 0.78999,0.13166 z"
       inkscape:connector-curvature="0"
       transform="translate(0,796.36218)" />
    <path
       style="fill:#d3bc5f;fill-opacity:1;stroke:none"
       d="m 26.668789,91.726217 c -0.867975,1.953315 0.08632,4.617034 0.312847,6.744968 0.451038,1.889875 0.816112,4.912195 3.488866,4.462055 26.492539,2.55489 53.141487,2.8646 79.650338,5.24375 21.27036,1.78175 42.71886,1.19141 63.86887,4.37123 4.81556,0.79877 9.67242,0.0633 14.16257,-1.78921 3.3789,-1.31287 6.80908,-2.30783 10.46938,-1.8763 9.13582,-0.18082 18.33162,0.39393 27.43037,-0.38793 0.98842,-1.52161 -0.3906,-3.83426 -0.50055,-5.55615 -1.21849,-3.464962 -0.58704,-7.276899 -1.30144,-10.7494 -3.64918,0.08966 -7.28298,1.813905 -10.91208,2.540312 -20.09964,4.980373 -40.99675,4.33798 -61.54289,4.230199 C 132.3952,98.261059 113.0197,96.957101 93.605889,96.603564 85.330892,96.567494 77.168515,95.27267 69.057808,93.768067 55.349668,91.702599 41.439944,92.717193 27.657384,91.888897 c -0.325256,-0.0482 -0.653623,-0.206954 -0.988595,-0.16268 z"
       id="path3072"
       inkscape:connector-curvature="0"
       transform="translate(0,924.36218)" />
    <path
       style="fill:#d3bc5f;fill-opacity:1;stroke:none"
       d="m 18.397131,20.422274 c -2.429685,0.189629 -5.269768,-0.249019 -7.483285,0.475527 0.404245,2.205629 1.020776,4.430952 1.276414,6.65737 2.313056,1.622227 5.574991,0.470127 8.246407,0.886554 22.927849,0.786703 45.7446,3.301281 68.548311,5.662637 11.608092,0.954197 23.273532,0.768197 34.885662,1.726111 23.04764,1.350327 46.15516,1.573609 69.23206,1.043099 12.4054,-0.265329 24.64032,-2.979168 37.07887,-2.48386 2.79247,-0.190885 5.82847,0.223714 8.48443,-0.490017 0.74277,-2.394563 1.5607,-5.277749 0.68826,-7.708534 -2.57584,-1.296306 -5.74274,0.175051 -8.53378,-0.05191 -22.90903,1.379212 -45.96151,-0.47773 -68.77576,2.546184 -17.4696,1.142471 -34.85013,-1.558614 -52.25891,-2.544331 C 103.46307,25.530427 97.192396,24.699325 90.81504,24.757756 76.869288,24.510128 62.911222,23.923628 49.099005,21.86873 38.923497,20.387165 28.658755,20.302665 18.397131,20.422274 z"
       id="path3074"
       inkscape:connector-curvature="0"
       transform="translate(0,924.36218)" />
    <path
       style="fill:#6c6753;fill-opacity:1;stroke:none"
       d="m 227.02811,109.49589 c -4.10556,1.13148 -8.62873,0.33512 -12.88927,0.58815 -3.26438,-0.85404 -1.39172,3.46692 -1.99921,5.38021 -0.0958,2.60259 -0.28902,5.19986 -0.47853,7.79688 5.50302,1.46434 11.29068,0.51753 16.91873,0.83843 0.35025,-4.9231 -1.16213,-9.70359 -1.36401,-14.56613 -0.0402,-0.0594 -0.12855,-0.0917 -0.18771,-0.0375 z"
       id="path3080"
       inkscape:connector-curvature="0"
       transform="translate(0,924.36218)" />
    <path
       style="fill:#6c6753;fill-opacity:1;stroke:none"
       id="path3082"
       d="m 30.535118,96.473292 c 0.479889,0.651262 0.784508,1.502082 1.406009,2.040331 -0.107858,-0.261459 -0.333757,0.04301 -0.425535,0.05151 -0.03289,0.003 -0.01084,-0.06596 -0.0246,-0.09599 -0.04712,-0.102814 -0.113862,-0.195617 -0.164564,-0.296713 -0.253344,-0.506484 0.462933,-0.864767 0.716277,-0.358283 l 0,0 c 0.07768,0.155668 0.201867,0.387232 0.242466,0.551553 0.142243,0.575728 -0.33116,1.068739 -0.889292,0.734539 -0.664559,-0.642351 -1.076141,-1.502436 -1.577099,-2.268787 -0.253262,-0.506525 0.463072,-0.864693 0.716335,-0.358167 z"
       inkscape:connector-curvature="0"
       transform="translate(0,924.36218)" />
    <path
       style="fill:#6c6753;fill-opacity:1;stroke:none"
       id="path3084"
       d="m 217.1295,100.64876 c 0.7832,0.50898 1.45128,1.17407 2.23615,1.67819 0.48934,0.3375 0.80243,0.42097 -0.0144,1.03259 -0.08,0.0599 -0.1864,-0.0723 -0.27969,-0.10824 -0.0892,-0.0343 -0.1785,-0.0684 -0.26775,-0.10256 -0.766,-0.35641 -1.46481,-0.83506 -2.23698,-1.17965 -0.73722,-0.36701 -1.44903,-0.78145 -2.1148,-1.26626 -0.45662,-0.33499 0.0171,-0.980736 0.47373,-0.64575 l 0,0 c 0.6168,0.45651 1.28583,0.83417 1.96929,1.18147 0.75703,0.34213 1.45164,0.79531 2.19547,1.16238 0.16962,0.0651 0.4423,0.16678 0.44207,0.17852 -0.0227,1.16306 -0.16443,0.69221 -0.60259,0.4195 -0.80346,-0.52503 -1.50046,-1.19335 -2.30077,-1.7248 -0.44221,-0.35378 0.0581,-0.97916 0.50031,-0.62539 z"
       inkscape:connector-curvature="0"
       transform="translate(0,924.36218)" />
    <path
       style="fill:#6c6753;fill-opacity:1;stroke:none"
       id="path3086"
       d="m 215.92817,30.17073 c 0.70939,0.624304 1.37539,1.295498 2.07577,1.929153 0.65268,0.72074 0.57517,0.342833 0.33645,0.407435 -0.10048,0.02719 -0.17081,0.119025 -0.25622,0.178537 -0.0818,-0.471278 -0.41378,-0.847261 -0.63233,-1.263124 -0.0467,-0.07021 -0.0934,-0.140421 -0.14004,-0.210631 -0.30978,-0.474071 0.36065,-0.912173 0.67044,-0.438103 l 0,0 c 0.0602,0.09328 0.12032,0.186568 0.18047,0.279852 0.25914,0.507681 0.65908,0.956584 0.7178,1.546782 -0.001,1.179836 -0.98774,0.650411 -1.41464,0.09246 -0.68667,-0.624281 -1.34399,-1.280391 -2.03801,-1.896978 -0.44221,-0.353772 0.0581,-0.97916 0.50031,-0.625387 z"
       inkscape:connector-curvature="0"
       transform="translate(0,924.36218)" />
    <path
       style="fill:#6c6753;fill-opacity:1;stroke:none"
       id="path3088"
       d="m 25.732224,23.473632 c 0.662963,0.677902 1.257031,1.422314 1.93071,2.089291 0.09917,0.106625 0.195112,0.216348 0.297514,0.319873 0.06815,0.0689 0.136526,0.138533 0.213788,0.197035 0.02874,0.02176 0.135718,0.04673 0.10018,0.0407 -0.0694,-0.01176 -0.141002,-0.09144 -0.203011,-0.05813 -0.500333,0.268773 -0.226069,0.565341 -0.477314,0.16778 -0.422687,-0.586467 -1.033553,-1.008807 -1.61535,-1.425779 -0.460453,-0.462088 -1.049609,-0.705582 -1.627521,-0.980258 -0.08836,-0.03304 -0.176717,-0.06607 -0.265076,-0.09911 -0.529504,-0.200837 -0.245476,-0.949668 0.284027,-0.748831 l 0,0 c 0.108464,0.04162 0.216927,0.08324 0.325391,0.124855 0.618289,0.294962 1.255471,0.562565 1.750816,1.053159 0.66735,0.481505 1.361434,0.969782 1.831002,1.658186 0.708705,1.186056 -0.232268,1.293018 -0.903757,0.615417 -0.09509,-0.09595 -0.183711,-0.198104 -0.275566,-0.297156 -0.692034,-0.691536 -1.312027,-1.452386 -1.99122,-2.156726 -0.353773,-0.442216 0.271615,-0.942526 0.625387,-0.50031 z"
       inkscape:connector-curvature="0"
       transform="translate(0,924.36218)" />
    <path
       style="fill:#c8ab37;fill-opacity:1;stroke:none"
       id="path3090"
       d="m 48.340601,95.964532 c 1.031793,0 2.063587,0 3.09538,0 1.130098,0 2.260196,0 3.390295,0 1.275256,0 2.550512,0 3.825768,0 1.349633,0 2.699266,0 4.048898,0 1.31251,0 2.625019,0 3.937528,0 1.217706,-0.05787 2.420296,0.04223 3.627474,0.184078 0.994587,0.112134 1.990165,0.145613 2.975859,0.323558 0.789458,0.163453 1.59174,0.232593 2.395545,0.270381 0.940731,-0.01365 1.408046,0.01196 2.11508,0.670692 0.432846,0.480206 0.771165,1.035096 1.225605,1.495265 0.419106,0.522118 0.83337,1.0249 1.356794,1.447244 0.539157,0.3755 1.064437,0.76801 1.590065,1.16282 0.525733,0.35247 1.167137,0.3535 1.763664,0.48829 0.65163,0.19931 1.324867,0.28026 2.001776,0.32761 0.776634,0.0413 1.554709,0.0397 2.332193,0.0406 0.533461,-2.3e-4 0.266618,-2e-5 0.800526,-6.5e-4 0.566312,-6.8e-4 0.567267,0.80021 9.55e-4,0.80088 l 0,0 c -0.534955,6.4e-4 -0.267473,4.2e-4 -0.802445,6.5e-4 -0.795952,-9.6e-4 -1.592521,5.5e-4 -2.387568,-0.0426 -0.718701,-0.0511 -1.434353,-0.1368 -2.126724,-0.34641 -0.704169,-0.1695 -1.457284,-0.17123 -2.064236,-0.62868 -0.533067,-0.40254 -1.06866,-0.79826 -1.614975,-1.18236 -0.540571,-0.44614 -0.995327,-0.95736 -1.42404,-1.50891 -0.440085,-0.457648 -0.794066,-0.981433 -1.198788,-1.468967 -0.578019,-0.543587 -0.790088,-0.444535 -1.605683,-0.4555 -0.838929,-0.03983 -1.676299,-0.112501 -2.500381,-0.282293 -0.969003,-0.17586 -1.949031,-0.201882 -2.926683,-0.316225 -1.176322,-0.138218 -2.347213,-0.237032 -3.534013,-0.178606 -1.312509,0 -2.625018,0 -3.937528,0 -1.349632,0 -2.699265,0 -4.048898,0 -1.275256,0 -2.550512,0 -3.825768,0 -1.130099,0 -2.260197,0 -3.390295,0 -1.031793,0 -2.063587,0 -3.09538,0 -0.566313,0 -0.566313,-0.800887 0,-0.800887 z"
       inkscape:connector-curvature="0"
       transform="translate(0,924.36218)" />
    <path
       style="fill:#c8ab37;fill-opacity:1;stroke:none"
       id="path3092"
       d="m 107.07914,103.49771 c 1.18738,-0.35672 2.41597,-0.52028 3.64662,-0.63385 1.20982,-0.0779 2.40632,-0.2787 3.61398,-0.38574 1.16508,-0.0711 2.3163,-0.27555 3.47699,-0.39559 0.88004,-0.0863 1.76443,-0.1035 2.64797,-0.11232 0.53842,-0.003 0.2697,-0.002 0.80617,-0.003 0.56631,-8.6e-4 0.56752,0.80002 0.001,0.80088 l 0,0 c -0.5325,8e-4 -0.26603,-2e-5 -0.79941,0.002 -0.85872,0.009 -1.7183,0.0247 -2.57365,0.10811 -1.16459,0.12014 -2.31961,0.32609 -3.48868,0.39672 -1.20672,0.10662 -2.40221,0.30845 -3.61117,0.38549 -1.16962,0.10736 -2.33732,0.26055 -3.46677,0.59611 -0.53725,0.17909 -0.79051,-0.5807 -0.25326,-0.75978 z"
       inkscape:connector-curvature="0"
       transform="translate(0,924.36218)" />
    <path
       style="fill:#c8ab37;fill-opacity:1;stroke:none"
       id="path3094"
       d="m 129.6785,105.97562 c 1.03516,-0.0402 2.02466,-0.34704 3.0308,-0.5604 0.82448,-0.17823 1.65889,-0.34126 2.47376,-0.56137 0.81244,-0.19447 1.5958,-0.48212 2.41018,-0.66882 0.8325,-0.17084 1.68371,-0.19522 2.53039,-0.21086 1.04075,-0.0103 2.08158,-0.006 3.12236,-0.004 1.07471,0.002 2.14943,0.003 3.22414,0.003 1.16211,-0.0246 2.31527,-0.005 3.47104,0.11646 1.37039,0.28421 2.76308,0.42547 4.12236,0.75978 1.42763,0.38518 2.85936,0.74583 4.30152,1.07346 1.20641,0.34583 2.44309,0.54711 3.67844,0.75323 0.55859,0.0932 0.42678,0.88317 -0.13181,0.78997 l 0,0 c -1.25064,-0.20868 -2.50264,-0.41295 -3.72413,-0.76223 -1.44695,-0.32901 -2.88374,-0.69042 -4.31616,-1.07693 -1.32294,-0.3286 -2.68089,-0.45712 -4.01405,-0.74079 -1.12796,-0.11887 -2.25319,-0.13573 -3.38749,-0.11206 -1.07506,-3.7e-4 -2.15013,-9.8e-4 -3.22519,-0.003 -1.03544,-0.002 -2.07094,-0.006 -3.10635,0.004 -0.79172,0.0144 -1.58794,0.0345 -2.36701,0.19095 -0.80504,0.18251 -1.57802,0.47232 -2.3815,0.66173 -0.82978,0.21962 -1.67574,0.39173 -2.51458,0.57113 -1.06054,0.22426 -2.10443,0.54601 -3.19672,0.57777 -0.56631,0 -0.56631,-0.80088 0,-0.80088 z"
       inkscape:connector-curvature="0"
       transform="translate(0,924.36218)" />
    <path
       style="fill:#c8ab37;fill-opacity:1;stroke:none"
       id="path3096"
       d="m 175.21531,101.52829 c 1.25844,-0.17907 2.48316,-0.52617 3.72776,-0.77663 1.60166,-0.17621 3.17356,-0.51967 4.76059,-0.787924 1.89328,-0.421208 3.82293,-0.597899 5.75519,-0.709021 1.99843,-0.08438 3.98883,-0.283016 5.98686,-0.383232 1.85949,-0.08507 3.7211,-0.09708 5.58217,-0.104908 1.52039,-0.0041 3.04078,-0.0019 4.56117,-6.21e-4 1.21181,0.001 2.42362,0.0014 3.63542,0.0016 1.09025,-0.0631 2.16532,0.11039 3.24278,0.244383 0.94281,0.104914 1.89147,0.133981 2.83921,0.150906 0.14217,0.0015 0.28434,0.003 0.42651,0.0046 0.56628,0.0061 0.55771,0.8069 -0.009,0.800841 l 0,0 c -0.14409,-0.0015 -0.28818,-0.0031 -0.43228,-0.0046 -0.97599,-0.01751 -1.9529,-0.04806 -2.92373,-0.156902 -1.04488,-0.129998 -2.08662,-0.301668 -3.14405,-0.238258 -1.21198,-2.04e-4 -2.42397,-5.89e-4 -3.63595,-0.0016 -1.51905,-0.0013 -3.0381,-0.0034 -4.55715,6.15e-4 -1.84882,0.0078 -3.69818,0.01956 -5.54544,0.10391 -1.99609,0.09999 -3.98454,0.29891 -5.98104,0.382925 -1.90305,0.10906 -3.80328,0.28328 -5.66773,0.69915 -1.5789,0.26642 -3.14262,0.6097 -4.73621,0.78342 -1.2534,0.25139 -2.48639,0.60224 -3.75385,0.78142 -0.5586,0.0931 -0.69027,-0.69689 -0.13166,-0.78999 z"
       inkscape:connector-curvature="0"
       transform="translate(0,924.36218)" />
    <path
       style="fill:#c8ab37;fill-opacity:1;stroke:none"
       id="path3098"
       d="m 207.5427,105.97562 c -1.18861,0 -2.37723,0 -3.56584,0 -1.47788,-0.0588 -2.94469,0.0519 -4.41511,0.17983 -1.68871,0.14873 -3.36799,0.3736 -5.05958,0.49652 -1.62914,0.0404 -3.23151,0.33757 -4.83592,0.59296 -1.35309,0.29598 -2.7248,0.48182 -4.08198,0.7546 -0.81456,0.14236 -1.6015,0.3981 -2.40981,0.57062 -0.55391,0.11786 -0.72059,-0.66549 -0.16668,-0.78335 l 0,0 c 0.81141,-0.17208 1.60062,-0.43197 2.41871,-0.57246 1.36779,-0.27481 2.75004,-0.46298 4.11387,-0.76034 1.62692,-0.25894 3.25197,-0.55871 4.90384,-0.60081 1.68779,-0.12235 3.36315,-0.34797 5.04814,-0.49561 1.49342,-0.12992 2.98361,-0.24121 4.48452,-0.18285 1.18861,0 2.37723,0 3.56584,0 0.56631,0 0.56631,0.80089 0,0.80089 z"
       inkscape:connector-curvature="0"
       transform="translate(0,924.36218)" />
    <path
       style="fill:#c8ab37;fill-opacity:1;stroke:none"
       id="path3100"
       d="m 36.775644,22.282957 c 1.292243,-0.04623 2.575108,0.13217 3.859761,0.242686 1.657293,0.06222 3.307038,0.195367 4.959243,0.335215 2.067194,0.170974 4.128738,0.385928 6.200468,0.502736 2.327165,0.06978 4.652963,0.198066 6.971342,0.413619 1.928509,0.174378 3.850789,0.402176 5.7701,0.657621 0.56136,0.07473 0.455674,0.868614 -0.105686,0.793882 l 0,0 c -1.908853,-0.254185 -3.820668,-0.480662 -5.738687,-0.654068 -2.308621,-0.215408 -4.624809,-0.34133 -6.942194,-0.41144 -2.079204,-0.117444 -4.148259,-0.33248 -6.222897,-0.504317 -1.652616,-0.139906 -3.302669,-0.272586 -4.960365,-0.335312 -1.261863,-0.108656 -2.521783,-0.285496 -3.791085,-0.239735 -0.566313,0 -0.566313,-0.800887 0,-0.800887 z"
       inkscape:connector-curvature="0"
       transform="translate(0,924.36218)" />
    <path
       style="fill:#c8ab37;fill-opacity:1;stroke:none"
       id="path3102"
       d="m 80.5027,30.408173 c 1.189656,0.46202 2.434833,0.759948 3.676018,1.046635 1.494238,0.412207 3.029985,0.626097 4.558177,0.866634 1.806677,0.303359 3.628599,0.476464 5.446077,0.695603 1.822084,0.262441 3.658449,0.370653 5.496374,0.437563 1.533534,0.04506 3.067914,0.04536 4.601964,0.04569 1.16417,-8.67e-4 2.32833,-0.0029 3.4925,-0.004 0.7606,0.05381 1.4642,-0.01456 2.15806,-0.322161 0.6357,-0.273212 1.32192,-0.373959 1.98751,-0.549306 0.83167,-0.212533 1.68855,-0.273945 2.54284,-0.30956 0.93226,-0.02794 1.86507,-0.0254 2.79764,-0.02489 1.00922,-0.003 2.00746,-0.194129 3.01192,-0.285473 0.89297,-0.07516 1.78912,-0.09236 2.68468,-0.105967 0.56625,-0.0086 0.57839,0.792207 0.0121,0.800794 l 0,0 c -0.87546,0.01325 -1.75152,0.02968 -2.62449,0.102787 -1.02862,0.09302 -2.05066,0.290124 -3.08469,0.288745 -0.92139,-5.05e-4 -1.84301,-0.0031 -2.7641,0.02421 -0.79665,0.03268 -1.5961,0.0872 -2.37205,0.283856 -0.62517,0.164452 -1.2689,0.260163 -1.86827,0.507616 -0.79684,0.349717 -1.61024,0.449609 -2.48045,0.390239 -1.16447,0.0011 -2.32894,0.0031 -3.49341,0.004 -1.54372,-3.35e-4 -3.08777,-7e-4 -4.63096,-0.04622 -1.860238,-0.06785 -3.718916,-0.177707 -5.563175,-0.442801 C 92.26005,33.59143 90.428524,33.417377 88.612348,33.112585 87.065391,32.869011 85.510879,32.651652 83.998142,32.235072 82.732718,31.941668 81.462741,31.638678 80.249437,31.167961 79.712186,30.988877 79.965449,30.22909 80.5027,30.408173 z"
       inkscape:connector-curvature="0"
       transform="translate(0,924.36218)" />
    <path
       style="fill:#c8ab37;fill-opacity:1;stroke:none"
       id="path3104"
       d="m 149.31816,29.944729 c 1.04516,0.173892 2.09219,0.389171 3.11946,0.652856 0.84217,0.245718 1.70908,0.369485 2.56005,0.577494 0.67002,0.318483 1.38337,0.485459 2.09078,0.688981 0.72782,0.262006 1.50469,0.286921 2.25302,0.447798 0.65581,0.244527 1.28563,0.235483 1.96669,0.162927 0.8059,-0.1748 1.55114,-0.523076 2.35093,-0.721521 0.86779,-0.354791 1.79889,-0.437811 2.70644,-0.625816 0.79132,-0.244144 1.63006,-0.252178 2.4308,-0.434202 0.33234,-0.0939 0.66945,-0.165878 1.00791,-0.233168 0.55554,-0.109924 0.711,0.67573 0.15546,0.785655 l 0,0 c -0.33335,0.06561 -0.66477,0.138214 -0.99217,0.229887 -0.8079,0.171476 -1.64358,0.201968 -2.44126,0.436419 -0.89887,0.182324 -1.8173,0.270185 -2.6765,0.619082 -0.83499,0.2018 -1.60763,0.590462 -2.4572,0.740091 -0.76222,0.08038 -1.49081,0.0865 -2.22418,-0.177393 -0.76165,-0.174808 -1.56176,-0.181721 -2.3029,-0.460533 -0.695,-0.203154 -1.40317,-0.355797 -2.05802,-0.680235 -0.85421,-0.208895 -1.72492,-0.331972 -2.57012,-0.580022 -1.00363,-0.260946 -2.0292,-0.467289 -3.05086,-0.63831 -0.55861,-0.0931 -0.42694,-0.883091 0.13167,-0.78999 z"
       inkscape:connector-curvature="0"
       transform="translate(0,924.36218)" />
    <path
       style="fill:#c8ab37;fill-opacity:1;stroke:none"
       id="path3106"
       d="m 182.88956,29.490937 c 1.10343,0.01034 2.2074,-0.03542 3.30817,0.04914 1.19922,0.101733 2.38365,0.297423 3.56997,0.492927 1.09191,0.183122 2.20045,0.219955 3.30503,0.248386 0.89039,0.01778 1.78101,0.01523 2.67153,0.0139 0.80241,-0.0016 1.60482,-0.0026 2.40724,-0.0031 0.7996,-4.03e-4 1.5992,-4.01e-4 2.3988,-4.14e-4 0.6955,0.01326 1.37077,-0.190246 2.05688,-0.286337 0.12556,-0.01312 0.25112,-0.02624 0.37668,-0.03937 0.56328,-0.0585 0.64601,0.738102 0.0827,0.796602 l 0,0 c -0.11629,0.012 -0.23258,0.02399 -0.34887,0.03599 -0.72263,0.100154 -1.43345,0.316019 -2.1674,0.294002 -0.79944,1.3e-5 -1.59888,10e-6 -2.39831,4.14e-4 -0.80219,5.07e-4 -1.60437,0.0014 -2.40655,0.0031 -0.89781,0.0013 -1.79571,0.0039 -2.69339,-0.01416 -1.14129,-0.02951 -2.28648,-0.0692 -3.41461,-0.25878 -1.16403,-0.191868 -2.3259,-0.384887 -3.50261,-0.484738 -1.07934,-0.08732 -2.16315,-0.03194 -3.24529,-0.04666 -0.56631,0 -0.56631,-0.800887 0,-0.800887 z"
       inkscape:connector-curvature="0"
       transform="translate(0,924.36218)" />
    <path
       style="fill:#c8ab37;fill-opacity:1;stroke:none"
       id="path3108"
       d="m 183.29001,32.294041 c 1.01582,0 2.03165,0 3.04748,0 0.97608,0 1.95217,0 2.92825,0 0.89785,0.05469 1.77703,-0.048 2.66277,-0.177152 0.87467,-0.0994 1.7174,-0.359551 2.58713,-0.495497 0.53182,-0.06189 0.27524,-0.0198 0.77036,-0.122362 0.55499,-0.112681 0.71435,0.672193 0.15936,0.784873 l 0,0 c -0.55245,0.110249 -0.28333,0.06879 -0.80664,0.128863 -0.87228,0.134912 -1.71666,0.401114 -2.59466,0.49663 -0.92361,0.134652 -1.84244,0.239342 -2.77832,0.185531 -0.97608,0 -1.95217,0 -2.92825,0 -1.01583,0 -2.03166,0 -3.04748,0 -0.56631,0 -0.56631,-0.800886 0,-0.800886 z"
       inkscape:connector-curvature="0"
       transform="translate(0,924.36218)" />
    <path
       style="fill:#c8ab37;fill-opacity:1;stroke:none"
       id="path3110"
       d="m 224.35212,27.077622 c 0.72297,0.675062 1.56167,1.198226 2.38077,1.743585 0.70793,0.453317 1.53222,0.668967 2.31844,0.944385 0.75892,0.293914 1.55759,0.418906 2.36369,0.486466 0.85709,0.101542 1.67536,0.370957 2.51172,0.565474 0.86545,0.18467 1.74991,0.235102 2.63181,0.264867 0.81183,0.01952 1.62399,0.01557 2.43598,0.01411 0.75936,-0.07219 1.48927,0.114443 2.22948,0.243823 0.55782,0.09772 0.41963,0.886591 -0.13819,0.788874 l 0,0 c -0.69515,-0.122029 -1.37622,-0.303652 -2.08985,-0.231812 -0.82153,0.0015 -1.64321,0.0054 -2.46456,-0.01457 -0.93416,-0.03183 -1.87082,-0.08761 -2.78709,-0.285457 -0.79845,-0.187746 -1.57968,-0.442269 -2.39681,-0.547274 -0.8733,-0.07451 -1.7388,-0.212313 -2.5615,-0.52884 -0.84894,-0.2988 -1.73647,-0.535888 -2.49753,-1.033777 -0.88552,-0.591827 -1.79874,-1.156483 -2.56174,-1.909545 -0.35378,-0.442216 0.27161,-0.942526 0.62538,-0.50031 z"
       inkscape:connector-curvature="0"
       transform="translate(0,924.36218)" />
    <path
       style="fill:#484537;fill-opacity:1;stroke:none"
       id="path3112"
       d="m 215.83896,42.192081 c -0.023,1.014019 0.0537,2.032481 -0.0502,3.042428 -0.14049,0.755267 -0.25113,1.512658 -0.30623,2.278928 -0.0631,0.778272 0.003,1.561789 -0.0984,2.335904 -0.1399,0.684856 -0.23016,1.371513 -0.43318,2.041103 -0.18443,0.65027 -0.23989,1.318671 -0.41837,1.970595 -0.16823,0.502078 -0.0674,0.988575 0.10726,1.469129 0.38913,0.518247 0.57338,1.11539 0.68962,1.743514 0.0606,0.386566 0.0772,0.777486 0.0957,1.167634 0.0266,0.565688 -0.77342,0.603282 -0.8,0.03759 l 0,0 c -0.0165,-0.354814 -0.0308,-0.710354 -0.0837,-1.062178 -0.10527,-0.593759 -0.30913,-1.115746 -0.65495,-1.614684 -0.2283,-0.636381 -0.33571,-1.291517 -0.12627,-1.952937 0.18101,-0.658047 0.22711,-1.3366 0.42441,-1.991492 0.19161,-0.629208 0.27061,-1.275559 0.40627,-1.918897 0.11399,-0.753 0.0126,-1.525069 0.0928,-2.283053 0.0564,-0.775408 0.16333,-1.542996 0.30874,-2.306855 0.11107,-0.97971 0.0126,-1.972505 0.0456,-2.956733 0,-0.566313 0.80088,-0.566313 0.80088,0 z"
       inkscape:connector-curvature="0"
       transform="translate(0,924.36218)" />
    <path
       style="fill:#484537;fill-opacity:1;stroke:none"
       id="path3114"
       d="m 219.79005,63.080967 c -0.14924,1.01992 -0.23087,2.043132 -0.4231,3.056373 -0.17883,0.838424 -0.25972,1.690686 -0.30168,2.545399 0.01,0.71441 -0.14173,1.458594 0.11383,2.141542 0.22917,0.655649 0.5914,1.243217 0.81348,1.90138 0.13283,0.673672 0.46386,1.279271 0.6987,1.918604 0.25867,0.777416 0.30941,1.596852 0.34279,2.409007 0.0224,0.806465 0.017,1.61337 0.0151,2.42005 -0.002,0.801277 -0.003,1.602557 -0.004,2.403838 -0.0597,0.793035 0.11979,1.564567 0.23632,2.343253 0.14253,0.570697 0.42375,1.110876 0.36904,1.707588 -0.24595,0.543413 -0.66594,0.981764 -0.95849,1.510792 -0.17083,0.400184 -0.0945,0.194747 -0.22796,0.616685 -0.17386,0.538966 -0.93607,0.293099 -0.76221,-0.245867 l 0,0 c 0.17033,-0.519844 0.0731,-0.266253 0.29082,-0.76111 0.24538,-0.43635 0.5109,-0.865567 0.8633,-1.221132 0.11278,-0.482058 -0.35488,-1.004185 -0.36658,-1.488543 -0.1221,-0.817651 -0.30538,-1.629707 -0.24513,-2.46229 6.3e-4,-0.801696 0.002,-1.603391 0.004,-2.405084 0.002,-0.795176 0.007,-1.59057 -0.0145,-2.385543 -0.0295,-0.729471 -0.0688,-1.466726 -0.29485,-2.166886 -0.23486,-0.647255 -0.57407,-1.25868 -0.70635,-1.940561 -0.21465,-0.656845 -0.59725,-1.236035 -0.81119,-1.894607 -0.25689,-0.795865 -0.18495,-1.613262 -0.1561,-2.440599 0.0442,-0.891576 0.12897,-1.780656 0.31478,-2.655366 0.19153,-1.007143 0.26827,-2.025056 0.41993,-3.038588 0.0931,-0.558607 0.88309,-0.426942 0.78999,0.131665 z"
       inkscape:connector-curvature="0"
       transform="translate(0,924.36218)" />
    <path
       style="fill:#484537;fill-opacity:1;stroke:none"
       id="path3116"
       d="m 208.33439,69.124173 c 0.62896,0.813828 0.98641,1.782725 1.39766,2.714476 0.29229,0.688208 0.60782,1.345112 0.76687,2.08029 0.18378,0.539498 0.31041,1.100295 0.63307,1.577753 0.26992,0.507957 0.59178,0.975397 0.92784,1.440454 0.27985,0.483675 0.58191,0.962305 0.96517,1.371344 0.37475,0.412215 0.57507,0.96209 1.01902,1.309472 0.58286,0.450215 0.766,1.000951 0.55061,1.695775 -0.27048,0.62257 -0.46311,1.269283 -0.67575,1.912927 -0.27001,0.734157 -0.37888,1.505 -0.44148,2.280143 -0.0489,0.791007 -0.046,1.583986 -0.0463,2.376144 0.001,0.80095 0.003,1.601897 0.004,2.402847 0.051,0.605942 0.18576,1.185967 0.38335,1.758243 0.18445,0.535433 -0.57277,0.796281 -0.75721,0.260848 l 0,0 c -0.22542,-0.655765 -0.37761,-1.323691 -0.42702,-2.018085 -0.001,-0.801374 -0.003,-1.602745 -0.004,-2.404117 2.7e-4,-0.813759 -0.002,-1.628375 0.0489,-2.440897 0.0688,-0.83865 0.18927,-1.672662 0.47962,-2.467413 0.21397,-0.64134 0.40443,-1.287829 0.67428,-1.908464 0.1327,-0.377928 0.0468,-0.572091 -0.3037,-0.834333 -0.4534,-0.395825 -0.73821,-0.904841 -1.09488,-1.382082 -0.39583,-0.439131 -0.7379,-0.926727 -1.02426,-1.443933 -0.34301,-0.476836 -0.67434,-0.955641 -0.95125,-1.474764 -0.35698,-0.570642 -0.55301,-1.202847 -0.7434,-1.845226 -0.14218,-0.682307 -0.45261,-1.283105 -0.71625,-1.92363 -0.38306,-0.8685 -0.71188,-1.774045 -1.29031,-2.537462 -0.35377,-0.442216 0.27162,-0.942526 0.62539,-0.50031 z"
       inkscape:connector-curvature="0"
       transform="translate(0,924.36218)" />
    <path
       style="fill:#484537;fill-opacity:1;stroke:none"
       id="path3118"
       d="m 217.44074,113.87144 c 0.0535,1.04293 -0.0442,2.07038 -0.18503,3.10166 -0.14212,0.86374 -0.45017,1.67366 -0.73333,2.49558 -0.2128,0.65056 -0.0494,1.32666 0.1174,1.96799 0.12352,0.50108 0.0486,0.26947 0.21456,0.69809 0.19988,0.52987 -0.54947,0.81254 -0.74935,0.28267 l 0,0 c -0.19117,-0.51738 -0.11174,-0.25724 -0.24046,-0.77974 -0.206,-0.7966 -0.3691,-1.6262 -0.0992,-2.43044 0.26726,-0.77219 0.55899,-1.53138 0.69683,-2.34251 0.13599,-0.99563 0.23179,-1.98616 0.17766,-2.9933 0,-0.56631 0.80089,-0.56631 0.80089,0 z"
       inkscape:connector-curvature="0"
       transform="translate(0,924.36218)" />
    <path
       style="fill:#484537;fill-opacity:1;stroke:none"
       id="path3120"
       d="m 26.57085,36.407556 c -0.63508,0.94917 -0.951187,2.03696 -1.170419,3.144763 -0.155634,0.884805 -0.17468,1.784116 -0.183155,2.679927 -0.06635,0.79967 0.02598,1.527253 0.281434,2.280481 0.134549,0.676238 0.584808,1.125294 1.030716,1.609627 0.503751,0.602343 0.607078,1.36045 0.672806,2.115051 0.04687,0.79886 0.038,1.599659 0.03554,2.399507 0.111806,0.790114 0.245566,1.575123 0.319439,2.370283 0.04321,0.708831 0.257708,1.390224 0.360971,2.092449 0.01735,0.37001 0.113658,0.728171 0.19391,1.087702 0.123263,0.552735 -0.658422,0.727055 -0.781685,0.17432 l 0,0 c -0.08437,-0.378665 -0.183214,-0.757136 -0.2047,-1.146251 -0.103853,-0.716078 -0.327511,-1.410386 -0.365975,-2.134421 -0.07563,-0.820624 -0.225646,-1.628898 -0.322843,-2.44655 0.0024,-0.776238 0.01105,-1.553357 -0.03262,-2.328712 -0.0482,-0.574043 -0.09673,-1.170668 -0.464474,-1.64139 -0.517702,-0.564206 -1.032745,-1.116347 -1.19978,-1.895111 -0.282517,-0.838056 -0.39215,-1.658196 -0.323585,-2.544625 0.0091,-0.945732 0.03162,-1.894998 0.198537,-2.828683 0.242272,-1.209949 0.594884,-2.396475 1.289509,-3.432619 0.314134,-0.4712 0.980512,-0.02695 0.666378,0.444252 z"
       inkscape:connector-curvature="0"
       transform="translate(0,924.36218)" />
    <path
       style="fill:#484537;fill-opacity:1;stroke:none"
       id="path3122"
       d="m 29.274816,70.958169 c 0.167125,1.023235 0.254451,2.05658 0.312317,3.090994 0.04261,0.873233 0.0462,1.747662 0.04833,2.621728 -0.0222,0.690633 0.104995,1.381674 0.464147,1.976858 0.284189,0.475148 0.66182,0.899469 1.068391,1.274737 0.562096,0.509546 0.685879,1.134949 0.63284,1.85773 -0.0816,0.703425 -0.120744,1.410097 -0.144534,2.117493 -0.07828,0.801138 -0.589308,1.433498 -1.200052,1.917607 -0.491604,0.295728 -1.082209,0.465099 -1.380336,0.983126 -0.117432,0.254593 -0.151923,0.5306 -0.192541,0.804518 -0.08617,0.559718 -0.877731,0.437855 -0.791561,-0.121863 l 0,0 c 0.06089,-0.384065 0.119645,-0.765489 0.308628,-1.11295 0.389807,-0.579847 0.939924,-0.899886 1.567573,-1.187689 0.429611,-0.315399 0.81448,-0.769793 0.887857,-1.309743 0.02431,-0.718989 0.06354,-1.437347 0.146468,-2.15231 0.04006,-0.485826 0.01194,-0.86341 -0.382064,-1.211607 -0.458747,-0.435096 -0.893783,-0.9119 -1.214554,-1.45912 -0.407436,-0.72942 -0.606106,-1.535408 -0.571146,-2.37484 -0.0021,-0.859828 -0.0054,-1.720016 -0.04709,-2.579037 -0.056,-1.005273 -0.140539,-2.009523 -0.302665,-3.003967 -0.0931,-0.558607 0.696888,-0.690272 0.78999,-0.131665 z"
       inkscape:connector-curvature="0"
       transform="translate(0,924.36218)" />
    <path
       style="fill:#484537;fill-opacity:1;stroke:none"
       id="path3124"
       d="m 26.931128,104.48216 c 0.566121,0.85603 1.016283,1.78625 1.619981,2.6164 0.445891,0.67457 0.917383,1.30325 1.484703,1.87589 0.554829,0.59328 0.691142,1.35665 0.768109,2.13454 0.05274,0.79821 0.04214,1.59889 0.03908,2.39834 -0.0042,0.80231 -0.0066,1.60463 -0.0079,2.40695 -0.0038,0.74396 -0.04106,1.47968 0.105338,2.21135 0.06199,0.61096 0.272073,1.14082 0.57108,1.66664 0.19345,0.40373 0.104946,0.19419 0.263404,0.62953 0.190671,0.53325 -0.563456,0.8029 -0.754128,0.26965 l 0,0 c -0.119908,-0.34328 -0.05134,-0.17553 -0.205505,-0.50335 -0.340835,-0.5996 -0.581797,-1.21505 -0.66053,-1.90714 -0.153466,-0.78446 -0.131532,-1.57097 -0.120545,-2.36798 0.0013,-0.80291 0.0037,-1.60582 0.0079,-2.40872 0.003,-0.77263 0.01324,-1.54639 -0.03535,-2.31794 -0.05604,-0.5911 -0.125938,-1.18825 -0.539998,-1.64829 -0.596672,-0.60263 -1.096615,-1.26182 -1.565018,-1.97068 -0.623548,-0.86919 -1.106654,-1.82868 -1.686967,-2.72702 -0.253263,-0.50653 0.463072,-0.8647 0.716335,-0.35817 z"
       inkscape:connector-curvature="0"
       transform="translate(0,924.36218)" />
    <path
       style="fill:#484537;fill-opacity:1;stroke:none"
       id="path3126"
       d="m 23.550907,73.77938 c -0.23776,-0.959402 -0.609121,-1.875814 -0.863352,-2.830214 -0.204215,-0.831249 -0.241388,-1.687569 -0.262612,-2.53924 -0.02144,-0.798596 -0.0388,-1.587194 0.117905,-2.372648 0.115954,-0.727342 0.35698,-1.423257 0.505863,-2.143495 0.227664,-0.661714 0.395311,-1.33749 0.642259,-1.99195 0.24734,-0.628474 0.239988,-1.309271 0.37038,-1.962188 0.20957,-0.660729 0.233789,-1.356723 0.383063,-2.028184 0.115684,-0.433388 0.06074,-0.219057 0.165159,-0.642905 0.135594,-0.54984 0.913185,-0.35808 0.777591,0.19176 l 0,0 c -0.106174,0.430109 -0.0519,0.219804 -0.16233,0.631045 -0.159847,0.661678 -0.160099,1.358994 -0.379282,2.010913 -0.150153,0.690008 -0.121629,1.419793 -0.405283,2.082353 -0.232384,0.615599 -0.385984,1.251868 -0.607429,1.872138 -0.150111,0.71861 -0.387147,1.413375 -0.504898,2.13878 -0.14804,0.725688 -0.11672,1.456112 -0.102357,2.194565 0.01939,0.789029 0.05007,1.582834 0.236078,2.353682 0.247937,0.938676 0.618085,1.838428 0.849033,2.782326 0.179083,0.537251 -0.580704,0.790513 -0.759788,0.253262 z"
       inkscape:connector-curvature="0"
       transform="translate(0,924.36218)" />
  </g>
</svg>
