<?xml version="1.0" encoding="UTF-8" standalone="no"?>
<!-- Created with Inkscape (http://www.inkscape.org/) -->

<svg
   xmlns:dc="http://purl.org/dc/elements/1.1/"
   xmlns:cc="http://creativecommons.org/ns#"
   xmlns:rdf="http://www.w3.org/1999/02/22-rdf-syntax-ns#"
   xmlns:svg="http://www.w3.org/2000/svg"
   xmlns="http://www.w3.org/2000/svg"
   xmlns:sodipodi="http://sodipodi.sourceforge.net/DTD/sodipodi-0.dtd"
   xmlns:inkscape="http://www.inkscape.org/namespaces/inkscape"
   width="650"
   height="128"
   id="svg3093"
   version="1.1"
   inkscape:version="0.48.5 r10040"
   sodipodi:docname="forestTreeHouse10Back.svg"
   inkscape:export-filename="C:\Users\narfman0\Desktop\forestTreeHouse10Back.png"
   inkscape:export-xdpi="70.3125"
   inkscape:export-ydpi="70.3125">
  <defs
     id="defs3095" />
  <sodipodi:namedview
     id="base"
     pagecolor="#ffffff"
     bordercolor="#666666"
     borderopacity="1.0"
     inkscape:pageopacity="0.0"
     inkscape:pageshadow="2"
     inkscape:zoom="0.35"
     inkscape:cx="375"
     inkscape:cy="520"
     inkscape:document-units="px"
     inkscape:current-layer="layer1"
     showgrid="false"
     inkscape:window-width="795"
     inkscape:window-height="730"
     inkscape:window-x="2140"
     inkscape:window-y="220"
     inkscape:window-maximized="0" />
  <metadata
     id="metadata3098">
    <rdf:RDF>
      <cc:Work
         rdf:about="">
        <dc:format>image/svg+xml</dc:format>
        <dc:type
           rdf:resource="http://purl.org/dc/dcmitype/StillImage" />
        <dc:title></dc:title>
      </cc:Work>
    </rdf:RDF>
  </metadata>
  <g
     inkscape:label="Layer 1"
     inkscape:groupmode="layer"
     id="layer1"
     transform="translate(0,-924.36218)">
    <path
       inkscape:connector-curvature="0"
       d="m 641.76038,948.45161 c -6.52,-15.835 -138.80125,-5.59 -176.06125,-0.93125 -37.26375,4.65625 -112.7175,-1.86375 -271.08,-14.905 C 36.255364,919.57286 1.9116201,946.38161 1.9116201,946.38161 c 0,0 11.9862499,66.34749 18.4524999,82.37249 6.46625,16.0263 143.5125,10.9888 173.46625,9.675 29.95376,-1.315 138.65751,8.7663 193.25501,9.27 54.5975,0.5025 220.51,2.2738 220.51,2.2738 l 20.9025,-82.69754 c 6.875,1.29625 11.42,3.0875 14.275,5.14 1.34625,-8.29875 1.71125,-17.35 -1.0125,-23.96375 z m -435.96375,83.83879 c -4.6575,-0.9313 -16.76751,-72.66004 -16.76751,-72.66004 0,0 2.795,69.86624 5.59001,71.72874 2.79375,1.8625 -78.25126,-0.9312 -78.25126,-0.9312 0,0 1.86375,-56.82379 -0.93125,-73.59379 -2.795,-16.76625 -34.467503,64.27879 -34.467503,64.27879 l -54.961247,-8.3838 c 0,0 -2.79375,-52.16749 22.357497,-59.62124 7.7775,-2.3025 28.915,-2.38 55.977503,-1.30625 29.705,1.18125 66.545,3.7475 100.69001,6.28625 35.34875,2.625 67.81,5.21875 86.46625,6.2 9.4825,0.49875 19.50125,0.81875 29.81,0.9975 l 0,67.00504 c 0,0 -110.855,0.9312 -115.5125,0 z m 124.4125,5.625 c 0,0 2.48375,-46.98379 3.1725,-72.48379 34.5825,0.24375 71.28375,-0.90625 101.37,-2.16125 l 5.795,66.22624 -110.3375,8.4188 z m 133.62625,-5.625 0.0275,-70.30504 c 21.6775,-0.81125 42.165,-0.37125 65.99875,0.48625 l -2.68125,73.54499 -63.345,-3.7262 z m 136.93625,6.52 -64.9,-4.1725 6.43125,-71.69754 c 18.50875,0.72 39.255,1.58875 64.05875,2.27875 0.59875,0.0175 1.185,0.0362 1.765,0.0575 l -7.355,73.53379"
       style="fill:#684936;fill-opacity:1;fill-rule:nonzero;stroke:none"
       id="path22" />
  </g>
</svg>
