<?xml version="1.0" encoding="UTF-8" standalone="no"?>
<!-- Created with Inkscape (http://www.inkscape.org/) -->

<svg
   xmlns:dc="http://purl.org/dc/elements/1.1/"
   xmlns:cc="http://creativecommons.org/ns#"
   xmlns:rdf="http://www.w3.org/1999/02/22-rdf-syntax-ns#"
   xmlns:svg="http://www.w3.org/2000/svg"
   xmlns="http://www.w3.org/2000/svg"
   xmlns:sodipodi="http://sodipodi.sourceforge.net/DTD/sodipodi-0.dtd"
   xmlns:inkscape="http://www.inkscape.org/namespaces/inkscape"
   width="256"
   height="2048"
   id="svg3787"
   version="1.1"
   inkscape:version="0.48.4 r9939"
   sodipodi:docname="forestTree1.svg">
  <defs
     id="defs3789" />
  <sodipodi:namedview
     id="base"
     pagecolor="#ffffff"
     bordercolor="#666666"
     borderopacity="1.0"
     inkscape:pageopacity="0.0"
     inkscape:pageshadow="2"
     inkscape:zoom="0.54"
     inkscape:cx="162.07609"
     inkscape:cy="1723.0033"
     inkscape:document-units="px"
     inkscape:current-layer="layer1"
     showgrid="false"
     inkscape:window-width="708"
     inkscape:window-height="1002"
     inkscape:window-x="1191"
     inkscape:window-y="0"
     inkscape:window-maximized="0" />
  <metadata
     id="metadata3792">
    <rdf:RDF>
      <cc:Work
         rdf:about="">
        <dc:format>image/svg+xml</dc:format>
        <dc:type
           rdf:resource="http://purl.org/dc/dcmitype/StillImage" />
        <dc:title />
      </cc:Work>
    </rdf:RDF>
  </metadata>
  <g
     inkscape:label="Layer 1"
     inkscape:groupmode="layer"
     id="layer1"
     transform="translate(0,995.63782)">
    <path
       style="fill:#2d2d26;fill-opacity:1"
       id="path3797"
       d="m 2.685248,1002.2753 c 1.2782627,-4.91621 2.4258247,-9.82381 3.0784691,-14.96582 0.7399078,-4.40131 1.50715,-8.78102 2.1694591,-13.20742 1.0279468,-4.10168 1.5235745,-8.37618 2.3249278,-12.55568 0.820675,-4.8397 1.471246,-9.7163 2.290773,-14.55908 0.70204,-4.98274 1.809503,-9.82324 2.447605,-14.82396 0.761228,-4.33677 1.544989,-8.65301 2.230214,-13.01661 0.622092,-4.45673 1.881167,-8.65113 2.855389,-12.96844 0.66503,-4.13253 1.645909,-8.14591 2.467948,-12.22517 1.04152,-4.78468 2.15904,-9.53649 3.298579,-14.28078 1.175615,-4.91082 2.542572,-9.7438 3.523451,-14.73379 0.772923,-4.11415 1.920064,-8.05708 3.171145,-11.94137 1.165379,-4.34334 2.139629,-8.77109 3.255866,-13.13671 1.086367,-4.91631 2.038833,-9.88496 3.119674,-14.80558 1.174455,-4.88706 2.133453,-9.86349 3.132588,-14.82007 1.072107,-5.0344 2.354601,-9.98051 3.523443,-14.97411 1.013744,-4.85902 1.968805,-9.72851 2.871683,-14.62577 0.931676,-3.96494 1.747329,-7.95336 2.790194,-11.86825 0.99705,-4.47296 1.971383,-8.9568 3.082895,-13.38159 1.089201,-4.81487 1.801082,-9.76594 2.665216,-14.66227 1.182151,-4.91122 2.009099,-9.91878 2.809486,-14.95815 0.868446,-4.97831 1.722813,-9.95125 2.658821,-14.90783 0.589111,-4.42076 1.819837,-8.59651 2.503164,-12.98494 0.74678,-4.87928 1.854507,-9.63149 2.895635,-14.40543 0.770004,-4.44465 1.883601,-8.7519 2.808673,-13.14033 1.26735,-4.44438 1.695913,-9.14171 2.253222,-13.8016 0.877882,-4.18339 1.443742,-8.42502 1.737818,-12.7485 0.254884,-4.82963 0.252803,-9.67497 0.262863,-14.51413 0.0019,-4.97267 -0.0065,-9.94548 -0.01057,-14.91829 -0.0037,-4.97201 -0.0043,-9.94401 -0.0047,-14.91615 -2.67e-4,-4.96986 -1.73e-4,-9.93985 -1.35e-4,-14.90984 4.1e-5,-4.96986 5.6e-5,-9.93972 6.5e-5,-14.90944 7e-6,-4.96986 7e-6,-9.93972 7e-6,-14.90958 -1e-6,-4.96999 -1e-6,-9.93985 -1e-6,-14.9097 0,-4.96986 0,-9.93972 0,-14.90958 0,-4.96986 0,-9.93971 0,-14.90957 0,-4.96986 0,-9.93972 0,-14.90957 0.05223,-4.93833 -0.1195,-9.88457 0.112478,-14.81538 0.605734,-4.28712 1.180742,-8.55827 1.470047,-12.90805 0.257243,-4.82749 0.264691,-9.67027 0.279501,-14.50755 0.0062,-4.97187 -0.0017,-9.94374 -0.0054,-14.91561 0.286124,-5.05641 1.061822,-10.02546 1.455135,-15.07006 0.01296,-4.6042 0.698712,-9.04953 1.372796,-13.5339 0.649266,-4.4052 0.563573,-8.90823 1.205817,-13.3098 0.625446,-4.09792 1.162002,-8.17624 2.040581,-12.19271 0.555442,-4.03095 1.466282,-7.9288 2.226099,-11.89145 1.053676,-4.39957 1.693997,-8.95895 2.758214,-13.34993 1.159409,-4.11898 1.531361,-8.46984 1.754826,-12.82848 0.18268,-4.88304 0.165849,-9.77434 0.165053,-14.66204 0.111014,-4.36304 -0.829156,-8.59212 -1.298799,-12.8809 -0.43229,-4.47722 -0.319686,-8.97374 -1.001164,-13.40191 -0.758277,-4.39334 -1.00465,-8.88271 -1.706857,-13.28908 -0.835889,-4.87823 -1.094631,-9.86657 -1.852489,-14.76231 -0.830228,-4.93485 -1.089752,-9.97673 -1.854139,-14.92556 -0.535615,-4.63697 -1.277837,-9.1589 -2.172956,-13.68893 -0.609939,-4.62441 -1.533896,-9.15586 -2.202382,-13.76453 -0.260577,-4.52597 -1.231229,-8.85483 -1.908402,-13.27841 -0.376555,-4.73257 -1.2155,-9.35221 -1.835262,-14.03077 -0.219013,-4.53973 -1.187677,-8.87651 -1.864727,-13.30669 -0.257391,-4.25154 -1.205696,-8.30546 -1.853548,-12.45858 -0.424195,-4.68203 -0.886747,-9.31779 -1.546949,-13.95355 -0.646149,-5.02286 -1.72561,-9.90132 -2.338685,-14.93666 -0.263875,-4.62577 -0.67526,-9.14194 -1.407721,-13.67322 -0.478138,-4.62347 -1.396619,-9.12388 -2.05409,-13.7014 -0.377947,-5.00647 -1.246202,-9.89571 -1.895061,-14.84297 -0.333184,-5.0386 -1.202154,-9.95288 -1.851475,-14.924373 -0.588192,-4.692146 -0.524763,-9.442354 -1.268223,-14.096525 -0.492264,-4.102947 -1.218068,-8.08039 -2.04476,-12.078538 -0.555272,-4.164177 -1.151318,-8.263233 -1.925388,-12.366086 -0.562949,-4.600054 -1.47296,-9.099508 -2.130991,-13.674456 -1.113668,-4.709134 -1.562029,-9.63624 -2.479329,-14.399303 -1.04222,-4.25965 -1.501018,-8.69915 -2.30817,-13.038078 C 46.301993,11.058944 45.550346,6.6013288 44.66047,2.1386817 43.827222,-2.476334 42.804014,-6.9942524 42.213636,-11.684909 c -0.387529,-4.40704 -1.410956,-8.630111 -1.933635,-13.012273 -0.818355,-4.69483 -1.507086,-9.42326 -2.441411,-14.079913 -0.689561,-4.508593 -1.6916,-8.898672 -2.8513,-13.227616 -1.034202,-4.315968 -2.106681,-8.603167 -3.146178,-12.918289 -1.019306,-4.517382 -1.835455,-9.101615 -2.737158,-13.660487 -0.928766,-5.01689 -2.23069,-9.882459 -3.126129,-14.909896 -0.635734,-4.459158 -1.762317,-8.720497 -2.342563,-13.201987 -0.385711,-4.21503 -1.373484,-8.25083 -1.87566,-12.44607 -0.99136,-3.7976 -1.38705,-7.80151 -2.174139,-11.66185 -0.897711,-4.18644 -1.758617,-8.38903 -2.588325,-12.60255 -0.596597,-4.54477 -1.212864,-9.03022 -2.037093,-13.51207 -0.815193,-4.58927 -0.993304,-9.30877 -1.115009,-14.00483 -0.09923,-4.63627 0.124691,-9.25063 -0.510831,-13.82587 -0.767787,-4.45519 -1.075572,-9.00255 -1.259972,-13.55738 -0.153412,-4.93737 -0.147855,-9.88031 -0.150964,-14.821 0.0016,-4.97518 0.0071,-9.95036 0.0099,-14.92554 0.0024,-4.97068 0.0027,-9.94135 0.003,-14.91204 1.29e-4,-4.96983 6.1e-5,-9.93966 3.2e-5,-14.9095 -0.213477,-4.52253 0.703465,-8.89479 1.230294,-13.31714 0.489744,-4.64938 0.553717,-9.35148 0.608321,-14.03856 0.227576,-4.37987 1.059256,-8.63754 1.453682,-12.99575 0.09976,-4.92141 0.840687,-9.72314 1.442299,-14.5601 0.57884,-4.85832 0.707758,-9.77982 0.790776,-14.68951 0.244597,-4.38223 1.077342,-8.64168 1.472775,-13.00425 0.04018,-4.45021 0.729573,-8.74186 1.389206,-13.07495 0.64167,-4.51835 0.75168,-9.12476 0.836789,-13.70998 -0.15204,-4.4987 0.757017,-8.84546 1.27679,-13.24777 0.483797,-4.65484 0.545164,-9.3613 0.598203,-14.05286 -0.177711,-4.51064 0.730492,-8.87151 1.25108,-13.2849 0.52659,-4.62406 0.436907,-9.31168 0.711453,-13.96138 0.648779,-4.26636 1.208325,-8.5299 1.49253,-12.86978 -0.01009,-4.99066 0.709049,-9.86176 1.299132,-14.76372 0.566279,-4.86506 0.69769,-9.78992 0.781303,-14.70419 0.245306,-4.38155 1.078672,-8.64012 1.474385,-13.00206 0.4243,-4.6362 0.09098,-9.33169 0.879424,-13.89546 0.38304,-1.19415 0.724482,-2.40738 1.266513,-3.49795 0.689366,-1.38702 1.911409,-2.92271 2.990158,-3.76626 8.196421,-6.4094 16.46499,-12.65121 24.697486,-18.97682 -58.8479088,45.27776 1.548529,-1.2554 2.337429,-1.84895 0.421042,-0.31679 0.944501,-0.31166 1.378556,-0.59506 1.316973,-0.85987 2.296711,-1.81582 3.732093,-2.44429 -2.664328,2.4991 8.265129,-5.9306 5.621098,-3.88103 -23.134747,17.93334 -29.061685,23.65277 -20.958758,15.93817 2.234767,-1.91727 3.90485,-4.82114 5.03597,-8.0069 1.322169,-3.66687 2.119109,-7.48706 2.793138,-11.43946 1.0547,-4.61535 1.588653,-9.36497 1.88924,-14.16132 -0.06486,-4.61743 0.574317,-9.08145 1.224332,-13.58366 0.620256,-4.52755 0.734007,-9.1362 0.819213,-13.72627 -0.05371,-5.06963 0.825874,-10.0313 1.3172,-15.03359 0.438867,-4.8913 0.511637,-9.82119 0.562426,-14.74155 -0.104935,-4.74966 0.01077,-9.4064 0.699025,-14.06813 0.722916,-4.398 0.937258,-8.89257 1.073906,-13.37925 -0.08353,-5.06938 0.220382,-10.04387 0.84111,-15.03713 0.654777,-4.85515 0.88588,-9.77853 1.020371,-14.70064 -0.04161,-4.73894 0.08142,-9.38715 0.772197,-14.03743 0.723858,-4.39718 0.935784,-8.8917 1.071359,-13.37776 0.109539,-4.9195 0.09974,-9.84195 0.09914,-14.7631 -0.271136,-5.12503 0.431625,-10.13506 1.017403,-15.16776 0.558107,-4.8653 0.697993,-9.78748 0.785238,-14.70074 -0.227555,-4.63829 0.383299,-9.1192 1.024451,-13.64172 0.616419,-4.52703 0.735954,-9.13333 0.823769,-13.72224 0.06599,-4.94364 0.05446,-9.88838 0.0512,-14.83259 -0.0049,-4.97421 -0.0078,-9.94843 -0.0095,-14.92265 -0.0013,-4.97053 -0.0013,-9.94107 -0.0014,-14.9116 0.04898,-5.03651 -0.131558,-10.07991 0.150507,-15.10513 0.612762,-4.92413 1.161916,-9.84745 1.451496,-14.82626 -0.03071,-5.08561 0.689996,-10.05074 1.288556,-15.04567 0.565206,-4.86114 0.697374,-9.78172 0.781105,-14.69193 -0.230477,-4.63862 0.379291,-9.12001 1.019961,-13.64306 0.616079,-4.52718 0.735703,-9.13349 0.823542,-13.72249 0.06602,-4.94363 0.05451,-9.88838 0.05126,-14.83258 -0.197907,-5.12402 0.105366,-10.15011 0.73118,-15.19716 0.648431,-4.96678 0.780024,-10.00037 1.462635,-14.95806 0.628415,-5.00639 1.28232,-9.98351 2.106934,-14.93936 0.714887,-5.10172 1.718966,-10.12936 2.893743,-15.07311 4.52907,-20.70943 -0.908962,-7.83689 26.719445,-27.56996 2.16317,4.12429 3.25162,8.99001 4.72467,13.58164 0.99895,4.2246 2.33452,8.28689 3.18865,12.57331 0.65655,4.10724 1.69247,8.04106 2.22872,12.19203 0.44598,4.79596 1.34293,9.47602 1.8488,14.26291 0.38004,5.02196 1.31877,9.91607 1.84521,14.9125 0.31541,4.43239 1.34487,8.67671 1.86854,13.06978 0.58524,4.60922 0.29795,9.31632 0.73458,13.93422 0.74269,4.32449 1.20295,8.69896 1.46018,13.11928 0.60867,4.86265 1.31302,9.68591 1.69796,14.59504 0.70173,4.9613 1.44195,9.89278 1.84839,14.91806 0.70942,4.95897 1.44828,9.89009 1.85402,14.91499 0.0696,5.67842 0.44078,11.26582 1.11336,16.86742 0.63448,5.08615 0.75893,10.23144 1.46854,15.2994 0.87596,4.9121 0.98994,9.97053 1.51358,14.9479 0.80047,4.96964 1.3183,9.99117 1.6081,15.05712 0.23381,4.99918 0.24012,10.01049 0.25063,15.01742 -0.31289,4.47054 0.44777,8.75625 1.02897,13.11242 0.58579,4.69938 0.69653,9.46853 0.7767,14.22184 0.0578,4.9666 0.0463,9.93405 0.0426,14.90108 -0.005,4.97344 -0.008,9.94688 -0.009,14.92034 -10e-4,4.97012 -10e-4,9.94026 -10e-4,14.9104 0,4.96982 4e-5,9.93965 6e-5,14.90947 -0.28966,5.05407 -1.06607,10.02069 -1.45978,15.06344 -0.54239,4.304 -1.29406,8.55674 -1.92942,12.84245 -1.02476,3.87085 -1.39893,7.96142 -2.26729,11.88301 -0.67864,3.87845 -1.74173,7.59162 -2.57635,11.40546 -1.12818,4.34155 -1.76871,8.87251 -2.83263,13.23497 -0.98975,4.33481 -1.89691,8.70292 -2.89055,13.03773 -1.37757,4.04942 -1.98305,8.41725 -2.85682,12.67999 -1.30883,4.61091 -2.17838,9.41776 -3.41637,14.05674 -1.03404,4.32643 -2.09267,8.66019 -2.88155,13.08197 -0.92991,4.27998 -1.81801,8.58604 -2.81248,12.84326 -0.90303,4.77366 -1.95528,9.50312 -2.75322,14.31222 -1.02698,4.98532 -1.81289,10.0517 -2.83819,15.03673 -0.86372,4.57057 -1.42587,9.19844 -2.36872,13.74382 -0.815,4.51259 -1.88542,8.90875 -2.50227,13.48324 -0.3422,4.39672 -1.21022,8.67106 -1.98602,12.95621 -1.16345,3.74051 -1.57314,7.7652 -2.4573,11.61275 -0.87865,4.2787 -1.8919,8.51359 -2.6483,12.83598 -0.91229,4.06885 -1.65253,8.24121 -2.739346,12.23623 -0.830093,3.76383 -1.911157,7.41883 -2.755701,11.1749 -0.607648,4.00378 -1.554288,7.88306 -2.331509,11.8307 -1.212209,3.69953 -1.61308,7.71272 -2.492305,11.54449 -1.086712,4.05446 -1.411429,8.32651 -1.617807,12.59429 -0.173532,4.8883 -0.159515,9.78405 -0.159775,14.67656 0.0048,4.97649 0.01137,9.95298 0.01483,14.92946 0.0029,4.97147 0.0032,9.94294 0.0034,14.91442 -0.21155,4.56478 0.07877,8.97423 0.748375,13.43567 0.395915,4.21572 0.992504,8.31459 1.766943,12.4296 0.501451,4.18913 1.092185,8.29561 1.864301,12.41016 0.415889,4.13067 1.457312,8.04916 2.145001,12.09789 0.975088,4.31728 1.647293,8.72187 2.738007,12.98851 0.807528,4.08467 1.590006,8.15107 2.455966,12.21746 0.48859,4.10822 1.53029,8.02127 2.21949,12.06662 1.00806,3.59159 1.70469,7.29575 2.72807,10.8766 0.78969,3.89705 1.98653,7.6004 2.75186,11.50701 0.97009,4.62152 2.11503,9.16951 3.12032,13.77607 0.79401,4.41519 1.99369,8.6894 3.15372,12.95365 1.10561,4.54085 2.22782,9.06424 3.62077,13.45995 1.03892,3.7972 1.86592,7.72726 3.17343,11.3825 1.41793,3.75162 2.29958,7.81543 3.58545,11.63675 1.42335,4.16241 2.52676,8.49617 3.71194,12.7846 1.08564,4.43572 2.38953,8.75665 3.70219,13.08017 1.16892,4.04108 2.21723,8.18172 3.68777,12.0497 1.23645,3.60846 2.31343,7.34008 3.29679,11.09211 0.94956,3.69144 1.72526,7.4915 2.73226,11.15543 1.11894,4.06385 1.99561,8.25648 2.84181,12.43874 1.26833,4.784972 2.118,9.72865 3.17688,14.597493 1.11956,4.954145 2.1226,9.947136 3.16583,14.930507 0.97829,5.04209 2.29695,9.943741 3.2039,15.010522 0.96274,4.99177 2.17441,9.881707 3.24473,14.83047 1.04598,4.809962 1.76341,9.768521 2.88258,14.544467 1.04307,4.319322 1.96575,8.697392 2.84596,13.083351 0.72337,4.8867568 1.4406,9.7760358 2.46268,14.57078057 1.37292,4.73029513 1.65603,9.80520743 2.48431,14.70208143 0.77761,4.34675 1.63979,8.656975 2.47506,12.984363 0.63483,4.94879 1.59705,9.803489 2.30127,14.733776 0.92416,4.663443 1.61011,9.390209 2.75582,13.965707 1.17778,4.610547 1.46273,9.489843 2.11875,14.256019 0.54455,5.524195 1.65644,10.890721 2.46178,16.346642 1.0601,5.005739 1.92275,10.044166 2.40379,15.209141 0.23897,4.41561 1.21881,8.65946 1.71582,13.02917 0.24155,4.77764 0.64714,9.47735 1.28137,14.18928 0.69258,4.99446 0.917,10.06688 1.0506,15.13394 0.0977,4.98871 0.0873,9.97975 0.0854,14.96975 -0.005,4.96995 -0.009,9.93989 -0.0109,14.90984 -0.002,4.96956 -0.002,9.93911 -0.002,14.90866 -4e-5,4.96984 2e-5,9.93969 4e-5,14.90953 0.28374,4.6513 -0.33079,9.14198 -0.97702,13.67607 -0.37475,4.71635 -1.20805,9.3178 -1.86047,13.97005 -0.61769,4.94184 -0.64596,9.94544 -1.27282,14.88427 -0.80316,4.81114 -0.98676,9.73526 -1.41999,14.61303 -0.7614,4.23264 -1.33044,8.48777 -1.62175,12.82409 0.0524,4.51567 -0.59981,8.87474 -1.24525,13.27397 -0.44413,4.6962 -0.88405,9.35747 -1.56538,14.0063 -0.74855,4.69424 -0.73384,9.51316 -1.45165,14.20774 -0.85262,4.2612 -1.20031,8.63362 -1.40048,13.02319 -0.19882,4.7615 0.0363,9.5299 -0.53594,14.24868 -0.75016,4.30295 -1.10554,8.68172 -1.30553,13.0837 -0.17075,4.88371 -0.16639,9.7744 -0.17121,14.6624 5.4e-4,4.97389 0.006,9.94791 0.009,14.92192 0.003,4.97134 0.003,9.94281 0.003,14.91414 -0.24932,4.73342 0.19641,9.18559 1.43718,13.60193 1.25602,4.28618 1.97007,8.7527 1.71958,13.35422 -0.55692,4.79944 -0.94593,9.62505 -1.60846,14.40154 -0.84803,5.29768 -1.19603,10.68794 -1.44779,16.08411 -0.0427,5.73042 -0.90105,11.36357 -1.40697,17.03696 -0.4146,4.98556 -0.49035,10.00426 -0.5387,15.01545 -0.32011,5.0403 -1.08564,9.99634 -1.47461,15.03021 -0.32799,4.90759 -0.36093,9.83813 -0.38859,14.7617 -0.0152,4.9661 -0.006,9.9322 -0.002,14.8983 0.004,4.97039 0.005,9.94079 0.006,14.91118 5.1e-4,4.96999 4.3e-4,9.93999 4.1e-4,14.90998 -3e-5,4.96986 -6e-5,9.93971 -7e-5,14.90957 -1e-5,4.96986 -1e-5,9.93972 -1e-5,14.90958 0,4.96985 0,9.93971 0,14.90957 0,4.96986 0,9.93971 0,14.90957 0.36712,4.94101 1.08024,9.81372 1.45664,14.75795 0.40575,4.93845 0.202,9.92119 0.54438,14.85979 0.66491,4.9724 1.17525,9.96413 1.45749,15.00162 0.59772,4.95537 1.32037,9.86605 1.71288,14.86355 0.31148,4.94557 0.22888,9.88658 0.81378,14.79417 0.68946,4.93296 0.94405,9.93086 1.69863,14.84611 0.82804,4.92946 1.09232,9.96494 1.85839,14.90742 0.59429,5.04527 1.68363,9.93891 2.45322,14.934 0.43,5.03816 1.308,9.96588 1.96571,14.95265 0.53268,5.02997 1.53022,9.92804 2.09405,14.95412 0.40705,5.0234 1.34804,9.91999 1.87662,14.92205 0.2028,4.61708 0.60561,9.11353 1.3326,13.62957 0.67914,4.27196 0.71949,8.62671 1.4699,12.87572 0.79871,4.11213 0.97531,8.34182 1.78409,12.44591 1.01772,4.19829 1.00063,8.64401 1.58247,12.94119 0.88414,4.27397 1.33989,8.64509 1.60236,13.05633 0.73193,3.94924 1.08995,8.02984 1.84891,11.96405 0.96882,3.86698 1.36033,7.89901 2.26169,11.78719 0.69905,4.01083 1.44301,7.96946 2.27656,11.93561 0.48159,4.11012 1.52531,8.02219 2.21537,12.06697 0.64547,4.69893 1.58537,9.29307 2.12424,14.02193 0.34449,4.42345 1.36799,8.66172 1.88978,13.0519 0.99021,3.80646 1.38907,7.81796 2.17891,11.68574 0.99677,3.85625 1.38317,7.89257 2.28274,11.78183 0.69689,4.01244 1.4395,7.97214 2.27247,11.93936 0.7649,3.98372 1.87943,7.77019 2.46056,11.82772 1.06871,3.77211 1.4603,7.78227 2.24936,11.64683 0.73409,3.85397 1.67707,7.59172 2.58703,11.37283 1.28687,3.39718 2.4733,6.70688 1.78,10.55178 -4.94038,14.7175 -19.04831,21.8029 -30.72818,22.7019 -3.02307,1.52 -6.21556,2.0047 -9.41095,2.3137 -2.97322,1.6014 -6.12696,2.1345 -9.29421,2.4653 -3.60922,0.2857 -7.22666,0.2736 -10.84072,0.279 -3.70725,0 -7.4145,-0.015 -11.12175,-0.02 -3.70539,0 -7.41078,0 -11.11617,0 -3.21308,-0.7785 -6.32097,-1.7046 -9.3784,-3.2031 -0.4609,-0.179 -0.93877,-0.2928 -1.38269,-0.5371 -0.91147,-0.5017 -1.73014,-1.2767 -2.64098,-1.7804 -1.35834,-0.7512 -2.69016,-1.0932 -4.02688,-1.9464 -2.68389,-1.244 -5.06915,-3.195 -7.84402,-4.103 -2.57187,-1.6463 -5.18643,-3.3245 -7.55006,-5.4671 -2.23735,-1.9781 -4.42055,-4.0223 -6.74307,-5.8429 -0.39042,-0.2138 -0.79879,-0.3763 -1.17127,-0.6416 -2.2209,-1.5819 -0.24955,-0.5947 -2.401418,-1.9041 -1.298035,-0.7897 -2.615281,-1.1208 -3.909518,-1.9583 -2.754276,-1.4729 -5.641394,-2.0713 -8.454324,-3.3172 -3.069397,-1.2169 -6.282826,-1.3852 -9.459239,-1.5383 -3.124656,-1.1904 -6.299369,-1.8992 -9.531163,-2.2566 -3.799601,-0.9197 -4.939699,-4.99202 -6.258672,-9.23566 -1.352116,-4.11644 -1.750958,-8.56579 -2.007978,-13.00319 -0.241695,-5.04635 -0.311525,-10.07417 0.236861,-15.08281 0.531944,-5.04997 1.202928,-10.04183 2.034648,-15.01692 0.445914,-4.54999 1.370048,-8.94151 2.168945,-13.38871 0.376364,-4.22204 1.180691,-8.30452 1.891164,-12.43598 0.50462,-4.29893 0.801901,-8.58162 1.553463,-12.82312 0.628298,-4.53267 1.145698,-9.07072 1.865648,-13.58327 0.660912,-4.96208 1.760112,-9.77588 2.392551,-14.74627 0.276319,-4.45619 1.303708,-8.71621 1.881748,-13.10141 0.710352,-2.17114 -0.08365,-4.96691 0.383594,-7.12946 0.03401,-0.15753 0.08303,0.3085 0.132555,0.45838 0.255086,0.77171 0.520715,1.53697 0.781073,2.30559 33.352492,-29.37982 26.02359,-25.2819 19.85845,-10.9072 -1.751401,3.66222 -3.571292,7.27049 -5.269951,10.97564 -1.786691,4.48491 -3.872577,8.73539 -5.538212,13.30672 -1.375783,3.87718 -2.773876,7.73597 -4.162188,11.60389 -1.277471,3.75534 -2.894247,7.25706 -4.165701,11.02086 -1.345633,3.40605 -2.797945,6.75091 -4.340142,10.00439 -1.509173,3.451 -3.510218,6.41732 -5.505406,9.36285 -2.098761,2.46379 -3.48659,5.74666 -5.259063,8.59315 -1.57218,2.86703 -3.604442,5.17356 -5.070014,8.14377 -1.589066,2.90581 -2.8942,6.11487 -4.022728,9.38486 -1.658749,3.23134 -2.107475,7.08664 -3.008447,10.72685 -0.874602,3.8117 -2.104486,7.41674 -3.013154,11.21502 -0.904708,4.2309 -2.202771,8.2793 -3.1932,12.46779 -0.484341,4.03055 -1.610656,7.6831 -2.991308,11.27688 -0.491754,1.82305 -1.311346,3.272 -2.274867,4.67317 0,0 -25.265189,14.23299 -25.265189,14.23299 l 0,0 c 0.875612,-1.3127 1.947423,-2.1166 2.646803,-3.626 1.062204,-3.6467 3.048276,-6.7132 3.226134,-10.79149 0.760816,-4.39944 2.308237,-8.32626 3.115822,-12.70181 0.553864,-1.9555 0.816591,-3.9746 1.374107,-5.92325 0.167167,-0.58425 0.381079,-1.1426 0.571618,-1.71383 0.216167,-0.50763 0.488511,-0.97902 0.648501,-1.52288 0.188094,-0.63926 0.257782,-1.33046 0.386673,-1.99575 0.30702,-1.19641 0.753227,-2.32921 1.00498,-3.54869 0.540014,-2.61597 0.550079,-5.45964 1.76233,-7.79032 1.561817,-3.03369 2.365531,-6.71455 3.86785,-9.82258 1.727134,-2.68734 2.857177,-5.9996 5.076555,-8.1498 1.607886,-3.15405 3.563942,-5.96753 5.123663,-9.18062 2.244764,-2.42488 3.936211,-5.46769 5.770778,-8.40449 1.393344,-3.38069 3.026991,-6.52978 4.444341,-9.87424 1.578654,-3.42349 2.37259,-7.46612 4.24823,-10.69652 1.096396,-4.09698 2.79451,-7.88009 4.262688,-11.75177 1.415557,-4.76563 3.464431,-9.05207 5.362607,-13.48492 1.375688,-4.04679 3.55061,-7.41138 5.133804,-11.31888 1.642436,-2.78396 0.250961,-0.18303 1.554382,-3.40659 5.178069,-12.80553 12.550086,-13.32215 25.513599,-23.16082 0.57462,0.86912 1.661659,2.13504 1.865744,3.47529 0.303481,1.99293 -0.84367,5.42609 -0.525282,7.53094 -0.423324,4.47846 -1.475384,8.71057 -1.939121,13.14636 -0.512831,5.06419 -1.553876,9.92227 -2.321927,14.90367 -0.659836,4.53979 -1.45118,8.99397 -1.76323,13.61213 -0.697943,4.24914 -1.528349,8.34518 -1.590323,12.74246 -0.551085,4.21533 -1.73962,8.17664 -1.888774,12.47906 -0.636717,4.54476 -1.958678,8.8104 -2.239412,13.44681 -0.771869,4.94691 -1.697625,9.80821 -2.088609,14.8512 -0.656447,4.75382 -0.780775,9.45678 -0.487208,14.29286 0.188267,4.04343 0.441202,8.12766 1.664373,11.88836 1.054871,3.35131 1.487243,5.82101 4.627426,5.97586 3.174244,0.52212 6.265007,1.57051 9.430368,2.11866 3.363422,0.29159 6.731522,0.75655 9.935772,2.25554 2.87417,1.20392 5.90179,1.73986 8.61588,3.59593 2.68956,1.34347 5.23983,2.95706 7.71096,4.92812 2.26397,1.93752 4.50072,3.91314 6.75437,5.86461 2.30525,1.73059 4.56932,3.62669 7.11047,4.67959 2.73855,1.2681 5.30191,3.095 8.02829,4.4176 2.68158,1.28 5.25942,2.8455 7.94832,4.0866 2.81719,1.2627 5.79812,2.0029 8.75726,2.282 3.70581,0 7.41163,0 11.11744,0.013 3.70488,0.013 7.4098,0.022 11.11467,-4e-4 3.5732,-0.04 7.15631,-0.072 10.71066,-0.6223 3.14415,-0.5964 6.1661,-1.8489 9.30384,-2.4371 3.17649,-0.5554 6.24417,-1.7096 9.40476,-2.3453 1.16399,-0.2557 1.96859,-0.3563 3.07882,-0.8882 0.43597,-0.209 1.66134,-1.0914 1.26335,-0.774 -36.86888,29.3955 -28.73614,21.891 -20.4388,16.337 0.28102,-0.6331 0.78585,-1.114 0.92971,-1.8252 0.44777,-2.2136 -1.39203,-4.6071 -1.77392,-6.5896 -0.88888,-3.8256 -1.90619,-7.5645 -2.61691,-11.4633 -0.88388,-3.9556 -1.16012,-8.13742 -2.35629,-11.99219 -0.50051,-3.97822 -1.6135,-7.63734 -2.36478,-11.51667 -0.80023,-3.94025 -1.64375,-7.82024 -2.23616,-11.82825 -0.92219,-3.92052 -1.35205,-7.9488 -2.30815,-11.85764 -0.89338,-3.99433 -1.18205,-8.21328 -2.31047,-12.13903 -0.46288,-4.42506 -1.51305,-8.66938 -1.85025,-13.10813 -0.46228,-4.66002 -1.39847,-9.14305 -2.10036,-13.7298 -0.62901,-4.00278 -1.75316,-7.81609 -2.15786,-11.88408 -0.80064,-3.93877 -1.64506,-7.81716 -2.23968,-11.82329 -0.92771,-3.93501 -1.36416,-7.97563 -2.30156,-11.90876 -0.88487,-4.13415 -1.13696,-8.4897 -2.04168,-12.63445 -0.21216,-4.26471 -0.58203,-8.50607 -1.4832,-12.62277 -0.67817,-4.19949 -0.54353,-8.58094 -1.51437,-12.72113 -0.84431,-4.13871 -1.10923,-8.34625 -1.81081,-12.52844 -0.79571,-4.28913 -0.95631,-8.62039 -1.49452,-12.9734 -0.73091,-4.62647 -1.30628,-9.18907 -1.35984,-13.939 -0.4573,-5.01588 -1.41849,-9.89262 -1.8662,-14.89709 -0.48427,-5.02018 -1.48888,-9.87544 -2.05627,-14.86503 -0.59553,-4.97536 -1.60621,-9.83599 -1.92853,-14.8665 -0.69696,-5.00421 -1.87821,-9.8435 -2.43175,-14.88515 -0.80491,-4.94705 -1.15513,-9.93891 -1.86035,-14.91185 -0.80374,-4.96248 -1.15527,-9.96052 -1.75373,-14.97291 -0.66931,-4.99281 -0.78669,-9.95797 -0.91027,-15.02525 -0.32707,-5.04111 -0.95491,-10.00909 -1.74991,-14.95546 -0.22192,-4.97764 -0.63396,-9.92751 -1.38254,-14.81752 -0.56657,-4.94812 -0.22899,-9.97474 -0.58529,-14.95936 -0.32343,-5.06218 -0.95032,-10.05364 -1.57584,-15.06134 0,-4.96986 0,-9.93971 0,-14.90957 0,-4.96986 0,-9.93972 0,-14.90958 0,-4.96985 0,-9.93971 10e-6,-14.90957 1e-5,-4.96986 3e-5,-9.93972 6e-5,-14.90971 3e-5,-4.96972 1.2e-4,-9.93944 -2e-4,-14.9093 -4.7e-4,-4.96932 -0.001,-9.93878 -0.005,-14.9081 -0.004,-4.97348 -0.0122,-9.94696 -0.007,-14.92058 0.0145,-5.01709 0.0275,-10.03901 0.28368,-15.04671 0.30557,-4.96395 0.84598,-9.87705 1.57439,-14.76197 0.0322,-5.12927 0.0788,-10.26592 0.44796,-15.37573 0.45678,-5.62402 1.41984,-11.17638 1.52968,-16.83005 0.0972,-5.55505 0.44782,-11.10003 1.26629,-16.55591 0.6819,-4.68189 0.97837,-9.36647 1.52083,-14.07829 0.56263,-4.10637 0.13314,-7.92383 -1.05894,-11.81644 -1.34542,-4.7926 -2.15794,-9.63552 -1.84836,-14.80223 -1.2e-4,-4.97066 -2.2e-4,-9.94146 -0.002,-14.91225 -0.002,-4.97496 -0.007,-9.95005 -0.0113,-14.92514 -0.002,-4.93591 -0.0133,-9.87303 0.0893,-14.80746 0.1291,-4.5359 0.31152,-9.09247 1.07974,-13.53001 0.80353,-4.56944 0.77122,-9.10722 0.76187,-13.80146 0.12737,-4.55804 0.30315,-9.14398 1.13732,-13.58701 0.9176,-4.65402 1.07225,-9.34578 1.56815,-14.11437 0.63765,-4.63863 1.37711,-9.19038 1.51365,-13.92469 0.51979,-4.3408 1.61358,-8.50801 1.40408,-12.95924 0.19296,-4.44539 0.49054,-8.90123 1.46797,-13.1818 0.95498,-4.74641 0.51568,-9.8524 1.48374,-14.63566 0.72483,-4.925 0.89511,-9.84944 1.2744,-14.84228 0.5499,-4.67404 1.56844,-9.20605 1.79412,-13.93882 0.52739,-4.39858 1.61552,-8.63474 1.25387,-13.14946 -3e-5,-4.96987 -8e-5,-9.93975 -8e-5,-14.90962 4e-5,-4.97011 2e-5,-9.94021 0.001,-14.91032 0.002,-4.97034 0.005,-9.94068 0.0106,-14.91102 0.004,-4.95631 0.0178,-9.91312 -0.0461,-14.86891 -0.0915,-4.90103 -0.23567,-9.81484 -0.86254,-14.65538 -0.63535,-4.74448 -1.30137,-9.42557 -1.3818,-14.26316 -0.44612,-4.43074 -1.46678,-8.70933 -1.69711,-13.16783 -0.38401,-5.10145 -1.13111,-10.09853 -2.28432,-14.99454 -0.7201,-5.479985 -1.9016,-10.820224 -2.41905,-16.349464 -0.69832,-4.592084 -1.13382,-9.240122 -2.07256,-13.755612 -1.16238,-4.75783 -1.81955,-9.65555 -2.8747,-14.460399 -0.62976,-4.871633 -1.69154,-9.602894 -2.23708,-14.493596 -0.81541,-4.358438 -1.82441,-8.631573 -2.52704,-13.029221 -0.86219,-4.818643 -0.94614,-9.879372 -2.33773,-14.544788 -1.12966,-4.78566 -1.88058,-9.7224949 -2.54515,-14.6562567 -0.83851,-4.3440398 -1.87385,-8.6120229 -2.80379,-12.9195773 -1.13078,-4.812323 -1.79389,-9.840123 -2.86738,-14.680048 -1.02741,-5.028028 -2.30865,-9.950988 -3.3166,-14.98873 -0.80972,-5.033261 -2.17072,-9.835386 -3.11656,-14.820676 -1.12539,-4.946858 -1.97335,-10.013867 -3.16918,-14.935095 -1.0633,-4.892795 -1.90134,-9.864974 -3.24712,-14.640772 -0.79682,-4.070582 -1.77236,-8.084845 -2.79429,-12.057431 -1.05145,-3.67496 -1.78561,-7.543594 -2.76467,-11.252004 -0.90801,-3.61714 -1.98074,-7.17611 -3.11382,-10.66797 -1.46565,-3.96687 -2.5414,-8.17764 -3.71982,-12.30683 -1.39628,-4.31846 -2.58428,-8.75139 -3.70878,-13.20655 -1.24037,-4.18448 -2.3016,-8.46102 -3.69824,-12.56315 -1.2682,-3.7997 -2.210281,-7.79127 -3.604858,-11.52373 -1.320081,-3.71963 -2.215538,-7.68531 -3.177628,-11.58832 -1.369635,-4.46695 -2.51766,-9.03726 -3.658996,-13.61662 -1.196059,-4.34284 -2.481108,-8.68128 -3.210784,-13.21679 -0.968492,-4.65089 -2.182961,-9.20138 -3.253578,-13.81015 -0.680993,-3.79352 -1.910661,-7.32325 -2.617908,-11.10581 -1.076892,-3.75573 -1.811192,-7.62522 -2.895037,-11.38244 -0.627569,-4.00017 -1.749425,-7.81137 -2.156131,-11.87576 -0.822727,-4.02084 -1.683694,-7.98904 -2.362494,-12.05737 -1.108569,-4.40493 -1.759718,-8.94345 -2.894877,-13.34128 -0.632701,-4.03661 -1.763802,-7.88777 -2.115859,-12.00381 -0.753797,-4.12198 -1.490003,-8.18355 -1.863322,-12.40704 -0.767485,-4.17577 -1.515166,-8.2863 -1.814302,-12.58379 -0.709914,-4.69813 -1.220656,-9.30994 -0.928737,-14.13273 -7.2e-5,-4.97073 -7.9e-5,-9.94145 -0.0021,-14.91218 -0.0025,-4.97656 -0.0071,-9.95313 -0.01497,-14.9297 -0.0056,-4.94344 -0.02384,-9.88805 0.07304,-14.83027 0.127329,-4.5014 0.282541,-9.05039 1.231417,-13.40179 0.301365,-1.20433 0.739814,-2.34922 0.973807,-3.58022 0.50683,-2.66634 0.471038,-5.55651 1.480658,-8.05362 1.115883,-3.24255 1.713516,-8.03508 2.457577,-11.53823 0.62122,-3.99837 1.952186,-7.56268 2.610652,-11.53619 1.120211,-3.89735 1.844883,-7.88994 3.005131,-11.78341 0.612335,-4.46423 1.704517,-8.7138 2.437782,-13.13287 0.301848,-1.20153 0.740999,-2.34332 0.975182,-3.57172 0.509038,-2.67015 0.475712,-5.5645 1.474941,-8.07142 1.263522,-3.83735 1.645783,-8.3933 2.266515,-12.47047 0.478559,-4.71112 1.431819,-9.20683 2.323949,-13.7816 0.863793,-4.62012 1.932761,-9.09994 2.439911,-13.83951 1.024209,-4.92189 1.776227,-9.91113 2.910505,-14.79494 0.675477,-4.94749 1.861288,-9.69077 2.605666,-14.61376 0.939333,-4.20827 1.666521,-8.49548 2.929235,-12.56067 0.643392,-4.61358 1.778172,-9.00846 2.671143,-13.53311 1.29329,-4.56356 2.17158,-9.25686 3.55663,-13.786 0.86708,-4.3524 1.40281,-8.82756 2.70378,-12.99774 1.43536,-4.05056 1.95395,-8.62163 2.91938,-12.90051 1.13228,-4.27382 1.80574,-8.64578 2.91573,-12.93903 0.61552,-4.00064 1.94133,-7.58806 2.4905,-11.59995 0.98622,-3.99183 1.38637,-7.78556 2.31397,-11.78345 1.10616,-3.93712 0.9729,-8.38539 2.23272,-12.31307 0.30986,-4.9612 0.85808,-9.86998 1.57265,-14.75569 -2e-5,-4.96983 -6e-5,-9.93967 -7e-5,-14.90952 1e-5,-4.97057 -3e-5,-9.94115 9.6e-4,-14.91172 0.001,-4.97428 0.003,-9.94857 0.009,-14.92284 0.004,-4.94182 0.016,-9.88388 -0.0262,-14.82547 -0.0596,-4.57088 -0.12915,-9.15813 -0.63903,-13.68705 -0.57797,-4.55949 -1.51919,-9.03575 -1.18009,-13.71331 -0.002,-4.93405 0.005,-9.87096 -0.16639,-14.80089 -0.22281,-4.96141 -0.63263,-9.89903 -1.48072,-14.74733 -0.69388,-4.91307 -0.59035,-9.97828 -1.47382,-14.86596 -0.76536,-5.11983 -1.00503,-10.26053 -1.47468,-15.44101 -0.65338,-5.66301 -1.21711,-11.27578 -1.23536,-17.02122 -0.33379,-5.03635 -0.97283,-9.99664 -1.85338,-14.91465 -0.33479,-5.03954 -0.97501,-10.00292 -1.85312,-14.92498 -0.32225,-4.94247 -0.92842,-9.81566 -1.76029,-14.65132 -0.213,-4.33246 -0.60019,-8.63345 -1.39045,-12.85369 -0.57383,-4.60194 -0.22928,-9.30485 -0.72826,-13.93247 -0.46647,-4.4424 -1.52734,-8.70756 -1.83432,-13.17016 -0.45673,-5.01705 -1.41634,-9.89763 -1.8494,-14.90557 -0.43937,-4.76696 -1.35102,-9.38908 -1.87208,-14.12385 -0.461748,-4.07264 -1.496621,-7.89044 -2.125898,-11.90047 -0.744988,-4.14621 -2.06872,-8.02791 -2.936453,-12.12535 -1.050656,-3.37064 -2.02597,-7.63227 -3.543585,-10.2218 7.809479,-5.95762 15.662266,-11.81415 23.428436,-17.87285 0.21035,-0.16411 -0.528,-0.0423 -0.72047,0.15742 -1.78836,1.85617 -1.38431,5.9715 -2.20702,8.45064 -1.15388,4.85188 -2.34331,9.72057 -2.99429,14.74601 -0.76714,4.95964 -1.67741,9.83839 -2.12628,14.87963 -0.76829,4.92745 -1.02332,9.86997 -1.49388,14.86408 -0.6147,4.88122 -1.26133,9.65914 -0.92832,14.64601 0.005,4.96465 0.0167,9.92945 -0.0157,14.89397 -0.0494,4.73555 -0.10501,9.48612 -0.58196,14.18638 -0.52356,4.4098 -1.60382,8.65837 -1.27209,13.18249 -0.0561,5.05034 -0.13906,10.11181 -0.62599,15.12724 -0.52663,4.92725 -1.49512,9.76237 -1.38368,14.77351 -0.22405,5.03484 -0.61381,10.05094 -1.392536,14.99285 -0.619439,4.84669 -0.148337,9.81357 -0.29266,14.71386 -5e-6,4.97018 -7.1e-5,9.94036 7.69e-4,14.91054 0.0011,4.97351 0.003,9.94702 0.0083,14.92052 0.0048,4.96464 0.0167,9.92944 -0.01561,14.89396 -0.04937,4.73561 -0.104912,9.48626 -0.58204,14.18655 -0.523889,4.41026 -1.604948,8.659 -1.275628,13.1837 -0.05923,5.04924 -0.148441,10.10895 -0.634866,15.12323 -0.516686,4.88986 -1.479079,9.70342 -1.193151,14.67892 0.0042,4.95324 0.01689,9.90694 -0.04363,14.8597 -0.08269,4.64265 -0.188543,9.30602 -0.812345,13.88623 -0.684393,4.51745 -1.362151,8.8686 -1.047767,13.53595 -0.09681,5.06392 -0.253673,10.13781 -0.863386,15.14604 -0.608386,4.86021 -1.250143,9.62133 -0.981191,14.58568 -0.08359,4.64226 -0.191075,9.30511 -0.815923,13.88469 -0.682821,4.50863 -1.356134,8.84559 -0.998257,13.50338 -0.03148,5.03748 -0.07247,10.08277 -0.432727,15.10138 -0.405493,4.91841 -1.306404,9.76009 -1.427611,14.69335 -0.04718,4.73987 -0.09869,9.49514 -0.575103,14.19991 -0.53065,4.44785 -1.627467,8.72653 -1.412965,13.28792 -0.222177,4.96657 -0.58027,9.94051 -1.631314,14.73527 -0.858807,3.91208 -0.888518,8.18075 -2.624952,11.69856 -0.774813,3.91361 -2.303914,7.18727 -4.358134,10.12805 -10.149847,8.88868 -20.450141,17.74094 -31.62495,24.09023 -27.676762,18.99607 71.948907,-54.60259 -7.350994,5.07274 7.402859,-5.78225 14.805718,-11.56451 22.208576,-17.34676 -0.871199,0.62333 -3.677668,2.83431 -4.242822,3.75403 -0.279497,0.45485 -0.44775,1.0145 -0.671625,1.52175 -1.916052,3.75858 -0.801779,8.68358 -1.286724,12.99306 -0.271091,4.31625 -0.756849,8.57611 -1.619325,12.7584 -0.05619,5.05416 -0.139346,10.11933 -0.624564,15.13882 -0.514431,4.83102 -1.472834,9.57061 -1.358825,14.48249 -0.189359,4.41242 -0.481613,8.83041 -1.37238,13.10509 -0.797735,4.53407 -0.180402,9.31556 -0.730393,13.92302 -0.383165,4.34366 -1.37254,8.55252 -1.452968,12.90581 -0.02628,4.81353 -0.04929,9.63632 -0.396421,14.43174 -0.382074,4.34104 -1.367378,8.54352 -1.465403,12.89193 -0.04681,4.74134 -0.09654,9.4989 -0.580804,14.20404 -0.52592,4.30323 -1.642627,8.41762 -1.509911,12.83 -0.270935,4.31676 -0.756517,8.57715 -1.617897,12.7603 -0.05536,5.05351 -0.136345,10.11864 -0.627636,15.13666 -0.520274,4.79387 -1.489351,9.48545 -1.460871,14.35706 -0.2703,4.30319 -0.751473,8.55144 -1.600936,12.72455 -0.02733,4.81015 -0.05185,9.62979 -0.404765,14.42118 -0.387784,4.34063 -1.389755,8.54756 -1.45361,12.90037 2.9e-5,4.9699 9.2e-5,9.93981 1.3e-5,14.90971 -1.58e-4,4.97147 -3.33e-4,9.94294 -0.0025,14.91441 -0.0025,4.97381 -0.0072,9.94763 -0.01077,14.92144 4.9e-5,4.88221 -0.0094,9.76598 0.111491,14.64614 0.146158,4.38262 0.378084,8.77073 1.125414,13.05613 0.728759,4.77181 0.675328,9.5325 0.661134,14.39317 0.08926,4.45113 0.198738,8.93022 0.906825,13.2977 0.790864,4.48245 1.511384,8.92057 1.966164,13.4907 0.800084,4.187 1.789519,8.29624 2.625006,12.46859 0.890112,3.98417 1.175067,8.19259 2.309769,12.10436 0.446117,4.20512 1.462663,8.21559 1.855904,12.41674 0.497891,4.44151 1.618378,8.63707 2.19796,13.04609 0.802493,5.00181 2.149836,9.77543 3.067865,14.736766 0.995601,4.473087 1.689128,9.071088 2.771413,13.512614 0.97409,4.275189 2.046549,8.497602 3.045027,12.759198 1.288283,4.39228 2.22938,8.949086 2.92311,13.57289 0.97809,4.780454 1.694089,9.618944 2.654832,14.407664 0.461167,4.400425 1.506685,8.61315 1.880528,13.019613 0.503207,4.600644 1.511838,8.979801 2.377528,13.462495 0.854386,4.490987 1.682043,8.9353449 2.230601,13.5172568 0.842464,4.3230262 1.377799,8.7090798 2.322,12.9972172 0.965974,4.841348 1.241931,9.917602 2.540303,14.663933 0.5972,4.516388 1.627532,8.883669 2.127505,13.421326 0.7503,4.085799 1.487314,8.113548 1.901882,12.29066 0.816977,4.068703 1.666133,8.06724 2.091083,12.256603 0.792395,4.7342 0.834745,9.502671 1.257748,14.312365 0.593367,4.988442 1.605001,9.866959 1.850513,14.922254 0.590539,4.944537 1.596673,9.776085 1.887982,14.779685 0.602812,4.558 1.652249,8.96775 2.080589,13.56548 0.730942,4.62148 1.308344,9.18199 1.408984,13.92224 0.52611,5.0223 1.599295,9.84657 2.298536,14.81369 0.649501,4.61531 1.350316,9.17168 1.603049,13.86558 0.603672,4.17583 1.666268,8.20577 1.850156,12.48052 0.62991,4.48403 1.697358,8.83836 1.837488,13.43102 0.568446,4.65804 1.557134,9.19497 1.862445,13.90561 0.626778,4.46003 1.691988,8.78797 1.866228,13.3507 0.60428,4.54484 1.64478,8.93802 2.1722,13.49959 0.86858,4.60665 1.69184,9.16444 2.15348,13.88679 0.80296,4.95107 1.14879,9.94676 1.85371,14.92326 0.79534,4.88507 1.14388,9.81467 1.86292,14.71942 0.75521,4.40291 1.13351,8.83571 1.77925,13.26707 0.74711,4.51904 0.78996,9.0468 1.0724,13.64981 0.44339,4.4676 1.46175,8.84455 1.41903,13.36742 0.007,4.94306 0.0282,9.88749 -0.0754,14.82916 -0.14086,4.6113 -0.32946,9.27026 -1.38458,13.69949 -1.13364,4.28228 -1.80767,8.65743 -2.87584,12.97849 -0.57562,4.10262 -1.8223,7.88519 -2.15627,12.04631 -0.76338,4.02908 -1.79194,7.87459 -2.10426,12.05006 -0.83568,4.35609 -0.93737,8.70762 -1.26854,13.18367 -0.54684,4.45351 -1.68169,8.72252 -1.54456,13.29196 -0.30968,4.96235 -0.85792,9.87222 -1.5694,14.75982 0.003,4.97523 0.009,9.95045 0.0112,14.92568 -0.003,4.90692 0.003,9.81653 -0.16178,14.71957 -0.19366,4.40909 -0.49744,8.81939 -1.373939,13.09497 -0.782011,4.69504 -0.11089,9.62934 -0.330549,14.40919 0,4.96986 0,9.93972 0,14.90957 0,4.96986 0,9.93972 0,14.90958 0,4.96986 0,9.93971 0,14.90957 0,4.96986 10e-7,9.93972 10e-7,14.90971 0,4.96986 10e-7,9.93972 -3e-6,14.90957 -6e-6,4.96973 -1.4e-5,9.93959 -5.2e-5,14.90944 -3.9e-5,4.96986 -1.25e-4,9.93972 -2.9e-5,14.90958 1.99e-4,4.9712 4.09e-4,9.9424 0.0032,14.91346 0.0033,4.97496 0.0096,9.94992 0.0149,14.92474 6.97e-4,4.91095 0.01413,9.82458 -0.143466,14.73218 -0.193577,4.46572 -0.486622,8.94996 -1.537075,13.22634 -1.042411,4.57374 -0.769304,9.58855 -2.171162,14.08312 -1.122028,4.26524 -1.889017,8.75002 -2.902368,13.0476 -0.908528,4.71786 -2.101412,9.30998 -2.942561,14.05427 -0.499215,4.57535 -1.687483,8.78344 -2.495265,13.23225 -0.853088,4.99025 -1.910457,9.89194 -2.656461,14.91655 -1.020579,4.93282 -1.284069,10.14368 -2.828685,14.89911 -0.800204,5.01548 -1.74681,9.97004 -2.546023,14.98297 -1.066009,4.40252 -2.186095,8.79135 -2.988147,13.29021 -0.866748,4.01258 -2.110315,7.81179 -2.856004,11.88408 -1.365126,4.65774 -1.771967,9.84001 -2.951516,14.59853 -1.02971,5.01521 -2.388535,9.89463 -3.561504,14.8508 -0.905172,5.05614 -2.037357,10.0319 -3.066554,15.04134 -1.293175,4.82722 -2.106816,9.87236 -3.091216,14.82222 -1.070905,4.39018 -2.1876,8.75874 -3.099135,13.20756 -0.993516,3.94829 -2.521492,7.57481 -3.439248,11.58027 -0.827328,5.16376 -2.252191,10.046 -3.412299,15.08053 -1.30769,4.59736 -2.23125,9.38794 -3.272934,14.1011 -1.014883,3.93341 -1.654291,8.10781 -2.502113,12.0871 -0.753051,4.44009 -2.296603,8.44743 -2.902282,12.9361 -0.902583,4.20338 -1.015468,8.6903 -2.375503,12.74474 -0.518675,5.11143 -1.573042,10.01003 -2.377928,15.03075 -0.758682,4.89444 -1.660045,9.71347 -2.214418,14.66213 -0.802678,4.19292 -1.266722,8.4524 -2.239793,12.58346 -1.147218,4.13374 -1.029389,8.80584 -2.433972,12.88859 -0.516192,5.10968 -1.254193,10.21708 -2.797996,14.97063 0,0 -24.70216,16.0731 -24.70216,16.0731 z"
       inkscape:connector-curvature="0" />
    <path
       style="fill:#2d2d26;fill-opacity:1"
       d="m 103.30295,-884.40521 c -5.642021,8.72807 -2.7598,25.2592 -4.629634,36.65274 -4.295629,101.75571 -6.187948,204.44034 -17.650462,304.94768 -0.566119,21.47736 -20.432441,24.32493 -27.835649,39.60359 -7.035935,76.08669 -12.800543,152.65853 -18.86574,228.84665 -4.672432,71.9273 8.455616,142.6578 23.474377,211.068542 21.817702,112.096026 33.54481,227.351848 50.166918,341.062208 4.65115,32.32752 3.83197,65.72326 -3.67602,97.21289 -9.966809,69.42853 -5.63259,140.8159 -7.651988,211.13704 0.21867,27.72919 0.295994,55.43343 -6.801397,81.87887 -14.861651,85.90741 -36.215314,169.42724 -53.602168,254.36797 -2.925655,6.09729 0.853482,17.84342 6.134259,10.40561 17.046561,-23.19316 19.978063,-61.88833 41.589887,-79.36784 3.564354,-2.07345 8.62825,-6.8325 11.766595,-6.36231 -4.954937,42.04996 -16.074967,83.82739 -14.120371,126.73144 3.955643,13.43997 18.417353,9.72368 26.678243,15.06497 21.71126,8.25353 40.71386,31.09526 64.75694,28.65436 8.24817,-1.5667 19.1593,3.715 25.69445,-4.038 -12.90613,-72.3318 -26.96672,-144.46284 -34.68143,-218.38393 -16.1713,-106.83899 -22.33313,-216.86961 -12.48292,-325.4278 2.0552,-45.4022 -1.96997,-91.12028 3.00981,-136.39765 4.70306,-55.57112 13.69373,-111.06465 10.13273,-167.46191 C 163.72041,99.881108 147.77696,36.756318 136.44146,-26.838889 117.63042,-128.48988 78.657055,-222.58986 68.175631,-326.61576 c -5.584196,-60.03832 14.681524,-115.82019 23.491358,-173.4794 8.453941,-51.9122 24.754881,-101.31373 30.559571,-153.91031 1.51416,-75.88201 -2.80418,-152.34907 -14.0625,-226.74999 -0.3962,-2.82461 -2.7746,-5.60647 -4.86111,-3.64975 z"
       id="path3805"
       inkscape:connector-curvature="0" />
    <path
       style="fill:#22280b;fill-opacity:1"
       id="path4317"
       d="m 123.90591,580.65441 c 1.949,4.1728 4.12714,8.20751 6.61331,11.83832 2.1539,3.25187 3.82542,6.99634 5.96096,10.26257 1.88321,2.79134 3.5473,5.76075 5.07508,8.92285 1.56804,3.20531 2.47289,6.76943 3.58567,10.25908 1.39601,3.88872 1.83065,8.13102 2.10817,12.37963 0.23619,4.88934 0.21994,9.79224 0.22172,14.6895 -0.002,4.813 0.16715,9.59768 -0.48421,14.3468 -0.7263,4.15159 -2.72748,6.8439 -5.05817,9.49972 -2.25343,2.36785 -4.58952,4.54878 -6.05282,7.90626 -1.35099,4.12274 -1.37388,8.51881 -0.92526,12.89275 0.6202,4.27128 1.56391,8.57746 2.73145,12.64947 1.01301,3.54695 2.0446,7.11993 3.39217,10.46707 1.26819,3.40874 2.50455,6.82136 3.69843,10.28149 1.35235,4.44854 2.32538,9.11729 3.24169,13.76215 0.85979,4.76052 1.28786,9.58492 0.77732,14.44381 -0.59966,3.94588 -2.39955,6.47422 -4.65939,8.87776 -5.66566,5.86985 -12.23389,8.92259 -18.48623,13.1567 2.53058,-2.79389 -8.29708,6.06066 -4.91948,3.51474 14.29339,-10.77395 8.73496,-6.98976 5.62445,-3.62383 -2.09771,2.30062 -4.14871,4.63184 -5.41463,7.88438 -1.14048,3.93837 -1.3092,8.0909 -0.78859,12.21351 0.86227,3.41463 2.92646,5.50606 5.372,6.67898 3.16113,2.01776 6.5908,2.77323 10.03926,3.24181 3.68984,0.38606 7.39413,0.37129 11.09259,0.37747 3.70878,0 7.41754,-0.0201 11.12632,-0.0282 3.40152,0.0523 6.82082,0.38417 9.94542,-1.67451 -13.52507,11.48903 -8.5641,7.40789 -6.00192,2.02165 0,0 10.01325,-5.96512 10.01325,-5.96512 l 0,0 c -2.97489,7.27518 -5.17598,8.36544 -12.61445,13.02801 -3.30627,1.43929 -6.71599,1.25491 -10.15806,1.18755 -3.70946,0.0134 -7.41891,0.0242 -11.12837,0.0228 -3.72309,-0.0188 -7.45417,-0.0228 -11.16365,-0.5044 -3.52565,-0.57486 -6.99337,-1.52704 -10.24287,-3.52924 -2.70948,-1.57897 -4.94403,-4.11495 -5.93436,-7.96623 -0.60286,-4.36817 -0.50847,-8.72171 0.48239,-13.00078 1.06712,-3.57781 2.96179,-6.15445 5.23762,-8.45883 5.07209,-6.4341 11.78077,-10.24177 17.93932,-14.53708 4.12867,-2.64924 17.23053,-11.19596 -0.20919,1.37219 2.2914,-2.02916 4.16422,-4.21693 5.03213,-7.83795 0.6241,-4.68673 0.30593,-9.29656 -0.53884,-13.92612 -0.88155,-4.56274 -1.86887,-9.13205 -3.17654,-13.5029 -1.2174,-3.41357 -2.4241,-6.81881 -3.68817,-10.19897 -1.36116,-3.40793 -2.42871,-7.02559 -3.44547,-10.63829 -1.20193,-4.17064 -2.13977,-8.59543 -2.81572,-12.96038 -0.52958,-4.6195 -0.59544,-9.19646 0.58663,-13.67855 1.24147,-3.71682 3.41647,-6.16774 5.90034,-8.42837 2.17662,-2.60282 4.45733,-4.64902 5.35549,-8.62013 0.74589,-4.66955 0.66002,-9.34219 0.60782,-14.10781 1.3e-4,-4.85741 0.0186,-9.71979 -0.19398,-14.57076 -0.24629,-4.0955 -0.62025,-8.19448 -1.9719,-11.94217 -1.09428,-3.40807 -1.95048,-6.90979 -3.49842,-10.03687 -1.50624,-3.09984 -3.14364,-6.01141 -4.9848,-8.76478 -2.08561,-3.30514 -3.79099,-6.99768 -5.92832,-10.25036 -2.46076,-3.73051 -4.62291,-7.80226 -6.72289,-11.9046 0,0 9.4457,-7.52182 9.4457,-7.52182 z"
       inkscape:connector-curvature="0" />
    <path
       style="fill:#22280b;fill-opacity:1"
       id="path4319"
       d="m 88.052252,693.31991 c -0.586983,5.28976 0.04176,10.4715 0.797959,15.64881 0.722074,4.04115 2.602397,7.2996 4.155459,10.79904 1.835436,2.98806 3.25424,5.94338 2.260214,9.80822 -1.70424,3.56278 -4.302368,6.19806 -6.683181,8.92271 -2.884996,2.87025 -5.299489,6.44256 -8.096943,9.45155 -2.442804,2.57557 -4.790156,5.29539 -7.103392,8.07573 -2.036131,2.86622 -4.426152,5.17611 -6.784136,7.5296 -2.409791,2.28237 -4.285057,4.70538 -5.326523,8.44018 -0.864293,3.72716 -0.137291,7.3934 0.889693,10.89754 0.969483,3.48026 2.278224,6.78272 3.581081,10.06022 1.462006,3.96829 1.750553,8.37966 1.962982,12.72716 -0.07186,2.2071 0.288516,4.3416 0.622452,6.48187 0,0 -9.634136,6.9314 -9.634136,6.9314 l 0,0 c -0.353686,-2.20522 -0.766378,-4.40614 -0.678247,-6.68543 -0.183404,-4.13858 -0.401159,-8.35954 -1.776731,-12.14923 -1.322195,-3.32567 -2.6466,-6.68033 -3.639756,-10.20608 -1.12026,-3.76701 -1.962595,-7.74912 -1.227037,-11.81174 0.88375,-4.12664 2.476201,-6.77641 5.0549,-9.29496 2.402117,-2.20776 4.823001,-4.52597 6.806085,-7.40359 2.422319,-2.64911 4.627726,-5.64186 7.127925,-8.17798 2.911216,-2.82355 5.212924,-6.4906 8.07593,-9.38875 2.41811,-2.5223 4.751872,-5.30573 6.836706,-8.29929 1.565454,-3.21483 -0.194788,-5.88903 -1.72239,-8.5576 -1.632306,-3.63792 -3.571926,-7.04089 -4.312018,-11.264 -0.768648,-5.3382 -1.371231,-10.63976 -1.06776,-16.10624 0,0 9.880864,-6.42914 9.880864,-6.42914 z"
       inkscape:connector-curvature="0" />
    <path
       style="fill:#22280b;fill-opacity:1"
       id="path4321"
       d="m 104.89331,601.24637 c -0.12825,5.19811 -0.26953,10.40253 0.94833,15.3956 1.39488,3.66114 1.63262,6.65752 0.61184,10.45043 -1.07035,3.88697 -1.29207,8.03373 -1.47031,12.13272 -0.45122,4.47431 0.36466,8.76438 0.94018,13.12785 0.3034,2.85267 0.0923,1.49269 0.60781,4.08691 0,0 -9.609279,7.00842 -9.609279,7.00842 l 0,0 c -0.570032,-2.74988 -0.352548,-1.34602 -0.646608,-4.21291 -0.578945,-4.46425 -1.472018,-8.85335 -1.038435,-13.43272 0.14585,-4.19856 0.31013,-8.45133 1.269844,-12.48497 1.212798,-4.46075 1.380004,-4.84855 -0.228068,-9.61498 -1.261368,-5.12162 -1.186131,-10.42077 -1.171921,-15.76515 0,0 9.786617,-6.6912 9.786617,-6.6912 z"
       inkscape:connector-curvature="0" />
    <path
       style="fill:#22280b;fill-opacity:1"
       id="path4323"
       d="m 169.38152,678.28622 c -1.43485,4.52811 -2.5806,9.23336 -3.75831,13.89915 -1.0905,4.55589 -1.31597,9.33628 -1.46139,14.08218 0.45493,4.7828 0.77169,9.67268 1.61814,14.36612 1.117,4.21734 1.36523,8.68118 2.00967,13.03284 0.57331,4.57857 1.50942,8.98914 2.47059,13.43634 0.50672,4.15186 1.60143,8.0905 2.2922,12.18372 0.14363,2.03466 0.64996,3.95742 1.10043,5.89292 0,0 -9.59358,7.05954 -9.59358,7.05954 l 0,0 c -0.46209,-1.9728 -1.00711,-3.92857 -1.13653,-6.00779 -0.66436,-4.07496 -1.78727,-7.97348 -2.25634,-12.10883 -0.95144,-4.48921 -1.90966,-8.92889 -2.49203,-13.54275 -0.70587,-4.31544 -0.87119,-8.78532 -2.00036,-12.98253 -0.89294,-4.81595 -1.1481,-9.84203 -1.74413,-14.73674 0.12109,-4.85808 0.30127,-9.75588 1.32528,-14.4516 1.13098,-4.71597 2.47414,-9.32608 3.6069,-14.03977 0,0 10.01946,-6.0828 10.01946,-6.0828 z"
       inkscape:connector-curvature="0" />
    <path
       style="fill:#22280b;fill-opacity:1"
       id="path4325"
       d="m 130.81923,499.36422 c -0.0826,5.6789 -0.0596,11.35968 -0.0535,17.03951 0.0116,5.03132 -0.19845,10.03016 0.50688,14.98928 0.48222,3.90295 1.24343,7.76496 2.48834,11.36035 1.24537,3.76943 2.91235,7.22016 4.61296,10.64044 1.833,3.71977 3.56155,7.57589 5.51852,11.18402 1.77725,3.18263 3.48632,6.39814 5.06556,9.77158 1.767,2.7001 2.86543,6.00055 4.53563,8.79551 1.64495,2.92728 2.80494,6.25389 4.20079,9.38325 1.62446,3.21067 3.03966,6.28662 3.80947,10.06679 1.2099,4.54583 1.87915,9.25335 2.27367,14.03602 0.3327,4.98421 0.34104,9.99312 0.3562,14.99317 0.004,4.9763 -0.007,9.9526 -0.0128,14.9289 0.0539,5.04178 0.0919,10.03002 -0.49511,15.01746 -0.30915,4.62177 -1.47947,8.97183 -2.29168,13.446 -0.4023,2.88044 -0.2268,1.42506 -0.5244,4.36682 0,0 -9.78808,6.4867 -9.78808,6.4867 l 0,0 c 0.26126,-3.02509 0.10483,-1.5261 0.4675,-4.49738 0.73881,-4.49095 2.0594,-8.75982 2.34915,-13.37905 0.63327,-4.9186 0.6679,-9.81398 0.57161,-14.8033 0.005,-4.97442 0.0157,-9.9487 0.0156,-14.92312 -0.01,-4.95443 -0.009,-9.91664 -0.30636,-14.85845 -0.359,-4.71169 -0.97493,-9.36151 -2.22768,-13.81247 -0.70955,-3.66892 -2.12664,-6.57915 -3.67786,-9.70046 -1.36078,-3.08347 -2.51404,-6.34124 -4.13162,-9.21511 -1.6592,-2.86917 -2.83272,-6.16009 -4.58783,-8.936 -1.56681,-3.34486 -3.25391,-6.54226 -5.00403,-9.71268 -1.93817,-3.64892 -3.71164,-7.47484 -5.53639,-11.22495 -1.74834,-3.46697 -3.42984,-7.0017 -4.72471,-10.81904 -1.28339,-3.70045 -2.10593,-7.66646 -2.59519,-11.68977 -0.7422,-5.05842 -0.58455,-10.13603 -0.5477,-15.27657 0.006,-5.65528 0.0295,-11.31164 -0.0535,-16.96625 0,0 9.78661,-6.6912 9.78661,-6.6912 z"
       inkscape:connector-curvature="0" />
    <path
       style="fill:#24221c;fill-opacity:1"
       id="path4327"
       d="m 132.4967,638.65134 c -0.54036,5.2754 -1.71955,10.35663 -2.57478,15.5424 -0.35466,4.54757 -1.32795,8.9152 -2.03439,13.36978 -0.27549,4.23841 -1.19614,8.29419 -1.85215,12.43558 -0.63486,4.54785 -0.71784,9.18519 -0.78995,13.79744 -0.0506,4.95429 -0.0364,9.90926 -0.0312,14.86382 0.006,4.97455 0.009,9.94911 0.0103,14.92366 0.001,4.9704 0.001,9.94093 0.001,14.91132 -0.0183,4.48249 -0.28247,8.98968 0.98305,13.22312 1.189,3.18022 2.77815,6.08146 4.19826,9.09716 1.93917,3.02832 3.67497,6.22007 4.49755,10.09041 0.18199,2.59301 -0.82807,4.48987 -2.48016,5.76075 -9.78433,7.52624 -7.25885,5.9682 -12.41516,8.98511 -3.19511,1.59749 -6.54985,2.83737 -9.57527,4.97429 3.75305,-3.3929 -9.00241,6.26999 -5.19681,3.3399 9.4691,-7.29075 10.77513,-8.55344 7.16978,-5.24199 -2.09823,2.09451 -3.94202,4.58649 -5.81657,7.01982 -2.23072,2.65769 -3.06271,6.24369 -3.12767,10.13885 0.10674,4.11026 1.46208,7.77422 3.39012,10.8868 1.68116,2.7527 3.51569,5.39268 5.49738,7.7667 1.69517,3.27536 4.34677,3.88322 6.89358,5.29271 3.03086,1.44371 6.00581,3.01799 9.1516,3.96937 0.58198,0.12882 1.16397,0.25723 1.74595,0.38592 0,0 -8.93339,8.39201 -8.93339,8.39201 l 0,0 c -0.59491,-0.15123 -1.18981,-0.30246 -1.78471,-0.45368 -3.1642,-1.06383 -6.20846,-2.61986 -9.27113,-4.11161 -2.6944,-1.35608 -5.30921,-2.48499 -7.11998,-5.73324 -1.9845,-2.47762 -3.885412,-5.11719 -5.573503,-7.96154 -2.022628,-3.41397 -3.511691,-7.34254 -3.721487,-11.76546 -0.125618,-4.0955 0.536536,-8.18778 2.707776,-11.24092 1.995484,-2.29861 3.713144,-4.99253 5.759254,-7.22392 5.36987,-4.74308 10.86737,-9.23201 16.78289,-12.60505 3.1433,-1.81085 6.38252,-3.28515 9.57701,-4.91525 4.54024,-2.67272 1.55612,-1.02303 -6.34099,5.42596 -0.92648,0.75654 5.37488,-4.40976 3.05071,-4.08852 -0.62664,-3.80539 -2.55896,-6.701 -4.33308,-9.68396 -1.46003,-3.08481 -3.08342,-6.06374 -4.28835,-9.334 -1.3369,-4.41406 -1.21694,-9.05301 -1.13702,-13.75074 0,-4.97026 8e-5,-9.94052 -8.8e-4,-14.91065 -0.001,-4.97415 -0.003,-9.94843 -0.01,-14.92245 -0.006,-4.96248 -0.0195,-9.92509 0.0175,-14.8873 0.0564,-4.68163 0.11656,-9.38459 0.67688,-14.01697 0.59252,-4.16997 1.66683,-8.17503 1.85493,-12.43947 0.64609,-4.49417 1.78451,-8.82006 2.06148,-13.40709 0.80888,-5.1753 2.14174,-10.1787 2.50016,-15.4698 0,0 9.88087,-6.42927 9.88087,-6.42927 z"
       inkscape:connector-curvature="0" />
    <path
       style="fill:#24221c;fill-opacity:1"
       id="path4329"
       d="m 126.91478,-100.76227 c 1.65956,-4.79468 2.8062,-9.8712 4.24689,-14.78282 1.33504,-4.4698 2.77624,-8.88124 3.71621,-13.53628 1.10924,-3.93969 1.85126,-8.02897 2.95042,-11.96977 0.97026,-4.22376 2.00824,-8.42729 2.7258,-12.74599 1.08273,-4.88671 1.84985,-9.87326 2.86419,-14.78339 0.62741,-4.56308 1.84003,-8.90912 2.6745,-13.39873 0.84643,-4.3984 2.02197,-8.63134 3.16067,-12.89899 0.67557,-4.05686 1.72813,-7.97475 2.45264,-12.01422 1.1549,-3.84058 1.7721,-7.85978 2.50838,-11.86015 1.02117,-4.7354 1.47926,-9.6214 2.32543,-14.41093 0.63907,-4.64837 1.32781,-9.23494 2.2308,-13.80441 0.56178,-4.20583 1.12166,-8.36164 1.90792,-12.50611 0.80183,-4.38709 0.95936,-8.9091 1.07571,-13.40355 -0.22621,-4.56616 0.53252,-8.96311 1.1313,-13.41422 0.50808,-4.66451 0.60357,-9.34641 1.23669,-13.98774 0.76643,-4.86646 1.08795,-9.81654 1.27163,-14.77469 0.14148,-4.96116 0.13417,-9.92706 0.13534,-14.891 -0.003,-4.97015 -0.009,-9.94032 -0.0113,-14.91047 -0.002,-4.96998 -0.003,-9.93996 -0.003,-14.90994 -0.47738,-4.27869 -1.15645,-8.493 -1.4988,-12.80187 -0.29156,-4.86193 -1.19313,-9.60306 -1.67035,-14.43886 -0.38784,-5.01891 -1.33672,-9.90921 -1.84497,-14.91051 -0.98693,-4.77499 -1.33078,-9.74783 -2.22931,-14.53727 -0.94828,-4.03846 -1.35826,-8.21438 -2.29229,-12.25316 -0.66409,-4.00706 -1.43775,-7.93782 -2.26151,-11.89187 -0.79313,-4.54595 -1.82419,-9.01364 -2.90823,-13.44912 -1.27729,-4.76832 -2.12295,-9.73422 -3.33894,-14.5209 -1.14306,-4.32736 -2.20188,-8.69529 -3.38274,-13.00442 -0.9833,-4.48487 -2.53497,-8.67289 -3.49418,-13.16475 -0.91696,-4.3582 -2.17489,-8.53536 -3.28918,-12.80007 -1.0094,-3.78803 -1.81087,-7.70575 -2.87143,-11.46822 -1.09814,-4.0292 -2.00382,-8.16807 -2.83504,-12.31373 -0.48365,-4.47362 -1.58828,-8.73946 -2.30339,-13.14383 -0.55635,-4.12723 -1.60452,-8.05968 -2.12193,-12.20843 -0.85757,-3.78051 -1.51235,-7.60907 -2.52871,-11.3181 -0.78181,-3.93239 -1.5734,-7.83727 -2.40448,-11.7561 -0.87974,-4.51113 -1.87369,-8.94223 -2.43142,-13.55567 -0.0726,-0.82274 -0.1453,-1.64549 -0.21796,-2.46823 0,0 9.65568,-6.78845 9.65568,-6.78845 l 0,0 c 0.0658,0.80394 0.13166,1.60788 0.19749,2.4118 0.52245,4.56717 1.50713,8.93261 2.40214,13.37922 0.81277,3.88774 1.63755,7.73967 2.3696,11.65212 1.04366,3.798 1.71683,7.70994 2.61104,11.57692 0.49039,4.13589 1.54374,8.03988 2.0971,12.14505 0.68674,4.39213 1.81292,8.62895 2.26145,13.09018 0.81118,4.09966 1.75619,8.16558 2.81359,12.15779 1.07633,3.76941 1.85861,7.7176 2.87196,11.51782 1.10078,4.30138 2.36034,8.5099 3.31696,12.88012 0.91663,4.46876 2.46071,8.62337 3.42906,13.07334 1.21615,4.30536 2.27278,8.69028 3.41023,13.03369 1.21195,4.79549 2.02737,9.78011 3.32777,14.54609 1.09264,4.45031 2.16988,8.91999 2.97166,13.48047 0.81094,3.94445 1.62517,7.84433 2.24705,11.8511 0.94546,4.06777 1.37156,8.2571 2.29998,12.33553 0.9252,4.8402 1.2031,9.88981 2.27045,14.70215 0.48058,5.01171 1.43821,9.89866 1.84815,14.91398 0.45418,4.8527 1.3682,9.59627 1.70019,14.45893 0.32855,4.36328 0.99897,8.62822 1.53366,12.94809 1.5e-4,4.96968 3.1e-4,9.93936 0.002,14.90905 0.003,4.97053 0.007,9.94104 0.0117,14.91157 6.2e-4,4.98416 0.01,9.96987 -0.11276,14.95196 -0.16316,5.01514 -0.44127,10.03071 -1.20355,14.95654 -0.66596,4.63111 -0.81919,9.27209 -1.21753,13.95343 -0.55165,4.40967 -1.49448,8.71869 -1.21991,13.24228 -0.0943,4.5745 -0.21278,9.1778 -0.9455,13.66487 -0.75482,4.16652 -1.5223,8.25652 -1.9098,12.5249 -0.87306,4.58504 -1.76667,9.10072 -2.27145,13.79807 -0.8609,4.79247 -1.33755,9.66179 -2.29527,14.42472 -0.8101,3.94871 -1.11955,8.08627 -2.50934,11.80709 -0.64994,4.12415 -1.83546,8.01503 -2.40424,12.16348 -1.06298,4.26907 -2.38773,8.38599 -3.21086,12.76736 -0.75989,4.55275 -2.11612,8.85369 -2.68776,13.46993 -1.01271,4.88585 -1.76351,9.84356 -2.87984,14.69294 -0.65902,4.39353 -1.72686,8.61677 -2.62009,12.92556 -1.11215,3.91822 -1.84389,7.9614 -3.03751,11.84751 -0.86256,4.75183 -2.28732,9.22071 -3.66492,13.7363 -1.5863,4.8138 -2.63344,9.93478 -4.11507,14.81219 0,0 -10.01946,6.08282 -10.01946,6.08282 z"
       inkscape:connector-curvature="0" />
    <path
       style="fill:#24221c;fill-opacity:1"
       id="path4331"
       d="m 80.62584,-914.14752 c -0.893101,7.39558 -2.614853,14.55193 -4.206982,21.71538 -1.60881,10.09849 -4.161728,19.84059 -6.200877,29.7805 -1.639144,7.57228 -3.29159,15.15589 -4.68453,22.81813 -1.261131,6.61095 -2.583134,13.20734 -3.734983,19.85479 -0.759598,6.40537 -1.735974,12.76203 -2.457334,19.17679 -0.994304,6.10093 -1.83836,12.22276 -2.293862,18.43927 -0.269,6.48816 -1.168753,12.88536 -1.69171,19.34048 -0.473284,6.73058 -0.513191,13.49763 -0.541597,20.25248 -0.01347,5.95224 0.02805,11.90434 0.01649,17.85654 0.567093,5.92628 1.15184,11.83622 1.496843,17.79644 0.191682,5.59918 1.166366,11.07205 1.694395,16.62297 0.182025,5.05155 0.667833,10.00071 1.332388,14.97294 0.671569,5.45129 0.788334,10.95133 1.472853,16.40084 0.758614,5.25918 1.119098,10.58842 1.314898,15.9315 0.555341,5.65813 1.239496,11.28246 1.621172,16.96982 0.407674,5.60494 0.125704,11.24777 0.5411,16.84531 0.702055,5.86296 1.152623,11.76749 1.431273,17.6915 0.605991,5.98488 1.366248,11.92731 1.718544,17.95316 -0.01314,5.81595 0.818708,11.50304 1.447568,17.22975 0.63048,5.02767 0.459734,10.1506 0.93586,15.19081 0.484783,5.02463 1.392135,9.9124 2.263846,14.83053 0.893963,4.95728 1.72541,9.95465 2.716283,14.88067 1.242214,4.81422 2.239983,9.77061 3.544215,14.55399 0.97624,3.97805 2.029842,7.90965 3.006169,11.8887 0.84145,4.27113 1.790698,8.49036 3.013214,12.59152 1.155855,4.19191 2.285108,8.38533 3.625098,12.47719 1.299819,3.59212 2.263291,7.36478 3.415693,11.03761 1.2563,4.00119 2.254591,8.13218 3.380534,12.19918 1.292205,4.847 2.398743,9.7806 3.678948,14.63268 1.14531,5.06595 2.525211,10.00413 4.000991,14.9103 1.31501,4.74834 2.54261,9.52889 4.03023,14.18396 1.49197,4.02996 2.77284,8.16004 4.40439,12.09795 1.51319,3.68628 3.1434,7.28087 4.71341,10.92963 1.73871,3.53453 2.75566,7.56495 4.53832,11.06206 1.67699,3.53515 3.4366,6.97953 5.22131,10.41871 1.58479,3.56236 3.16855,7.07997 5.96105,9.0508 0.37632,0.079 0.74894,0.27202 1.12897,0.23721 0.88231,-0.0808 1.62864,-0.84101 2.34985,-1.40544 -2.64085,1.97783 -5.18467,4.20949 -7.92255,5.93345 -0.58634,0.3692 0.96053,-1.17117 1.3909,-1.82067 0.48915,-0.73818 0.90769,-1.55546 1.36153,-2.3332 3.28134,-5.60927 5.48495,-12.11747 7.76444,-18.50612 2.30769,-6.64265 3.68985,-13.75876 5.61374,-20.60245 2.06642,-7.58546 3.71043,-15.38037 5.30215,-23.16716 1.40695,-8.50395 3.08415,-16.92406 4.4565,-25.43722 1.10975,-8.41163 2.19612,-16.82576 3.45768,-25.19869 0.8291,-7.14844 2.04748,-14.20021 2.87131,-21.34888 0.33486,-6.32977 1.29753,-12.53769 1.94037,-18.8134 0.5803,-6.04649 0.6854,-12.14527 0.74897,-18.23298 -0.009,-5.39845 -0.10952,-10.74919 0.49893,-16.09507 0.87899,-6.78821 1.11332,-13.67931 1.27512,-20.55274 0.11915,-6.79422 0.12245,-13.59059 0.11062,-20.38625 -0.006,-7.17949 0.0276,-14.35889 0.0229,-21.53836 -0.0195,-6.89872 -0.0197,-13.79744 -0.0353,-20.69619 0.0253,-6.66659 0.0128,-13.33316 -0.002,-19.99977 -0.009,-6.32624 0.0138,-12.65242 0.007,-18.97869 -0.0105,-5.61403 -0.0201,-11.22806 -0.0251,-16.84211 -0.004,-5.00052 -0.004,-10.00104 -0.004,-15.00157 -0.44799,-4.95425 -1.13131,-9.8528 -1.49224,-14.82447 0.0601,-4.65858 -0.90725,-9.10803 -1.44431,-13.6635 -0.54402,-5.28772 -0.66031,-10.62907 -0.73904,-15.95861 -0.48429,-5.04541 -1.16827,-10.04016 -1.53056,-15.10836 -0.0584,-5.01906 -0.51175,-9.92397 -1.15181,-14.85931 -0.60487,-4.71941 -0.666,-9.48257 -1.47609,-14.15006 -0.76419,-4.16512 -0.96866,-8.41847 -1.79516,-12.56094 -0.69511,-4.43136 -1.7474,-8.73166 -2.4432,-13.16329 -0.97412,-4.97829 -2.27589,-9.83792 -3.63452,-14.64869 -1.23299,-5.04823 -2.64018,-9.99673 -4.13485,-14.91448 -1.32722,-5.05725 -2.82786,-10.03409 -4.54191,-14.87768 -1.44546,-4.48418 -2.91428,-8.94598 -4.38473,-13.41706 -1.19425,-4.18664 -2.45214,-8.3346 -3.75702,-12.46404 -1.39152,-4.4084 -2.72237,-8.84055 -4.22247,-13.18403 -1.31173,-4.17309 -2.45605,-8.41844 -3.82031,-12.55934 -1.06398,-3.62114 -2.35928,-7.11621 -3.69552,-10.57093 -1.23757,-4.09793 -2.27664,-8.31458 -2.99745,-12.63301 -0.16464,-0.67573 -0.32927,-1.35147 -0.49391,-2.02721 0,0 9.5694,-7.06444 9.5694,-7.06444 l 0,0 c 0.17744,0.72235 0.35488,1.44469 0.53233,2.16704 0.67653,4.20573 1.71724,8.27499 2.89879,12.2675 1.34483,3.48444 2.64737,7.01255 3.70921,10.66858 1.34971,4.14125 2.49877,8.37534 3.80431,12.54283 1.48652,4.36589 2.81207,8.81344 4.23495,13.21711 1.33277,4.10584 2.54474,8.27566 3.74503,12.45107 1.48953,4.44605 2.89144,8.93834 4.33775,13.40838 1.73828,4.85856 3.25576,9.86069 4.57856,14.94888 1.49163,4.93019 2.93981,9.86869 4.14777,14.93999 1.40128,4.86969 2.68954,9.81417 3.73709,14.84177 0.6698,4.4119 1.76093,8.65957 2.44204,13.066 0.84143,4.16121 1.08031,8.41066 1.80443,12.60934 0.82654,4.70273 0.9199,9.47865 1.47656,14.24633 0.64317,4.97269 1.20061,9.89568 1.19356,14.96169 0.339,5.10776 0.98822,10.14399 1.55996,15.21045 0.0619,5.26419 0.14728,10.54292 0.68063,15.76688 0.55471,4.58395 1.55569,9.0582 1.47329,13.75047 0.33985,5.01873 0.98882,9.96505 1.54023,14.94575 -1.8e-4,5.00236 -3.2e-4,10.00473 -0.004,15.00709 -0.005,5.62549 -0.0146,11.25097 -0.0251,16.87644 -0.007,6.32317 0.0159,12.64626 0.007,18.9694 -0.0146,6.66738 -0.0273,13.33475 -0.002,20.00212 -0.0152,6.91336 -0.0146,13.82669 -0.0298,20.74005 5e-5,7.16479 0.0425,14.32943 0.0436,21.49424 -0.0155,6.8218 -0.0128,13.64479 -0.15324,20.46455 -0.15289,6.90078 -0.30852,13.82254 -1.11457,20.6544 -0.66483,5.29009 -0.63793,10.56722 -0.60044,15.92749 -0.0713,6.13938 -0.13931,12.29423 -0.70393,18.39558 -0.61348,6.29834 -1.64079,12.50125 -1.95969,18.84936 -0.76587,7.19765 -2.07654,14.2607 -2.89676,21.44815 -1.25518,8.38211 -2.4372,16.78021 -3.46375,25.22019 -1.33528,8.54434 -3.09721,16.95996 -4.43333,25.50716 -1.54048,7.82994 -3.22158,15.64292 -5.22579,23.27932 -1.96005,6.85947 -3.32064,14.003 -5.56695,20.71 -2.31185,6.3955 -4.38229,13.03144 -7.61631,18.72486 -3.99738,7.50711 -4.68554,6.61043 -13.37336,13.10998 -1.33635,0.99976 -2.73469,0.82399 -4.07894,0.0482 -2.80458,-2.30645 -4.54625,-5.85644 -6.19543,-9.61531 -1.80557,-3.43008 -3.55351,-6.90064 -5.25117,-10.42703 -1.76145,-3.55694 -2.81895,-7.59274 -4.57778,-11.15093 -1.56571,-3.65874 -3.17687,-7.27401 -4.69902,-10.96098 -1.669699,-3.97267 -2.924847,-8.17654 -4.461294,-12.23734 -1.469856,-4.67775 -2.695061,-9.47144 -4.008451,-14.23239 -1.475766,-4.92606 -2.901421,-9.86162 -4.024968,-14.95769 -1.303249,-4.83045 -2.383653,-9.76703 -3.684314,-14.59968 -1.153183,-4.03056 -2.144442,-8.14185 -3.399678,-12.12072 -1.155264,-3.66398 -2.093928,-7.44656 -3.392197,-11.03372 -1.333709,-4.11272 -2.47643,-8.31701 -3.642444,-12.51949 -1.222885,-4.13095 -2.206189,-8.37026 -3.058137,-12.66537 -0.956919,-3.97354 -2.023127,-7.8835 -2.963278,-11.8638 -1.303978,-4.82675 -2.277394,-9.8341 -3.567573,-14.67059 -1.032625,-4.92558 -1.812741,-9.96623 -2.737722,-14.92726 -0.865448,-4.96605 -1.826843,-9.87928 -2.31519,-14.95026 -0.557407,-5.02899 -0.314266,-10.1582 -0.919033,-15.19305 -0.604376,-5.76553 -1.487853,-11.48088 -1.452958,-17.33197 -0.355494,-6.0302 -1.025319,-11.99755 -1.74428,-17.96719 -0.243532,-5.90692 -0.658544,-11.7959 -1.40341,-17.63126 -0.484513,-5.59592 -0.189021,-11.24987 -0.564314,-16.865 -0.348464,-5.70764 -0.97389,-11.35984 -1.655499,-17.01143 -0.169128,-5.29366 -0.484278,-10.57946 -1.225883,-15.7922 -0.695833,-5.43998 -0.889758,-10.91396 -1.496962,-16.36971 -0.664168,-5.00034 -1.246427,-9.95642 -1.353814,-15.04708 -0.49676,-5.58753 -1.479364,-11.08904 -1.677319,-16.71432 -0.320819,-5.99556 -0.916355,-11.93231 -1.550478,-17.87972 -0.02183,-5.96621 -0.0018,-11.93259 0.02574,-17.89874 0.04271,-6.78631 0.02694,-13.58374 0.445814,-20.35221 0.520194,-6.45294 1.489245,-12.83867 1.712818,-19.32542 0.384268,-6.25169 1.231486,-12.40095 2.266377,-18.5163 0.715833,-6.45207 1.735636,-12.83119 2.443348,-19.28425 1.078031,-6.67518 2.504425,-13.25236 3.739225,-19.87676 1.327699,-7.73184 3.128995,-15.32703 4.783724,-22.94029 2.050068,-9.93346 4.656464,-19.65552 6.159332,-29.78609 1.563653,-7.04932 3.262159,-14.12626 4.052793,-21.41501 0,0 9.842855,-6.4572 9.842855,-6.4572 z"
       inkscape:connector-curvature="0" />
    <path
       style="fill:#24221c;fill-opacity:1"
       id="path4333"
       d="m 63.825963,-541.8151 c -1.720708,4.73292 -2.43325,9.95755 -3.473778,15.00191 -0.819001,5.19785 -1.96958,10.28689 -2.769077,15.49014 -0.411988,5.03113 -1.306453,9.94538 -1.94896,14.92554 -0.650593,5.95008 -0.725773,11.97607 -0.788578,17.97832 -0.100489,5.94254 0.155744,11.89697 -0.218943,17.82315 -0.63338,5.63447 -1.161387,11.27448 -1.420502,16.96289 -0.202966,5.75406 -0.220056,11.51658 -0.234543,17.27596 0.0084,6.43951 -0.01724,12.87884 -0.0071,19.31834 0.0033,6.36437 0.01005,12.72872 0.02229,19.0931 0.02028,5.47465 0.0065,10.94923 8.1e-5,16.42387 -0.02638,6.1813 -0.0069,12.36272 0.0032,18.54405 0.0087,5.17546 0.01122,10.35095 0.01267,15.52643 -0.01369,5.56683 -0.01595,11.13364 -0.01085,16.70052 0.0058,5.19045 0.0088,10.38089 0.01036,15.57135 0.0012,4.97441 0.0012,9.94882 0.0012,14.92322 -0.0033,5.06838 0.0092,10.13679 -0.01143,15.20511 -0.04857,7.3679 -0.03554,14.73611 -0.04301,22.10419 0.01091,7.003 0.01242,14.00597 0.02875,21.00898 0.01422,5.41458 0.02054,10.82918 0.02384,16.24379 0.0023,4.96909 0.0021,9.9382 0.002,14.90729 -9.9e-5,4.96287 -1.94e-4,9.92574 -2.44e-4,14.8886 -0.0723,5.35169 -0.06936,10.64779 0.4751,15.95442 0.671706,5.37586 1.041625,10.79838 1.242306,16.23854 0.147486,5.00916 0.144589,10.02327 0.147469,15.03545 0.0245,5.47868 0.849294,10.89302 1.290614,16.33476 0.487944,6.18869 0.278133,12.42895 0.713873,18.61524 0.690774,5.896848 1.198269,11.808077 1.450956,17.766646 -0.04201,5.838204 0.429645,11.575031 1.030549,17.343431 0.606291,5.547195 0.853057,11.143327 0.987451,16.741512 0.139421,6.097318 -0.09232,12.196488 0.242413,18.28189 0.572096,6.240736 1.137962,12.476669 1.445834,18.752307 0.236222,5.3490819 0.225954,10.7085094 0.228622,16.0644213 0.405004,5.4936004 1.116779,10.9284537 1.497353,16.4279457 0.30594,5.032455 0.339724,10.084073 0.364815,15.130068 -0.01912,6.250666 -0.01828,12.501386 -0.03481,18.752065 -0.004,6.07075 0.01149,12.141472 0.01984,18.212208 0.0066,5.081031 0.0078,10.162075 0.0086,15.243107 4.74e-4,4.9597 3.03e-4,9.919386 2.33e-4,14.879086 -7.5e-5,4.967483 -1.03e-4,9.934963 -1.19e-4,14.902453 -1.2e-5,4.96987 -1.1e-5,9.93974 -1.1e-5,14.90961 10e-7,4.9699 10e-7,9.9398 10e-7,14.90969 0,4.96988 10e-7,9.93975 10e-7,14.9096 0.0616,5.04879 -0.842518,9.9995 -1.312956,14.98961 -0.185747,5.04085 -0.665254,9.98485 -1.332539,14.94686 -0.67393,4.88837 -0.876396,9.85381 -0.997316,14.81218 -0.08806,4.96206 -0.0764,9.92604 -0.07362,14.88914 0.0051,4.96994 0.0089,9.93988 0.01096,14.90981 0.0017,4.96997 0.0018,9.93995 0.0018,14.90993 2.8e-5,4.96985 -2.7e-5,9.93973 -5.4e-5,14.9096 -2.5e-5,4.96986 -2.9e-5,9.93973 -3.2e-5,14.90958 -2e-6,4.96986 -2e-6,9.93973 -2e-6,14.90959 -0.414807,5.00856 -1.125915,9.95182 -1.493665,14.97114 -0.310901,4.93904 -0.339712,9.89869 -0.364425,14.85191 -0.01299,4.96832 -0.0039,9.93667 2.37e-4,14.905 0.004,4.97005 0.0051,9.94017 0.0057,14.91017 4.59e-4,4.96999 3.81e-4,9.93985 3.58e-4,14.9097 -0.239862,5.00623 0.179987,9.88188 0.795352,14.8025 0.40124,5.01736 1.041715,9.94642 1.782283,14.89025 0.462354,5.03977 1.461895,9.93542 2.145775,14.92125 0.345719,5.03748 1.258316,9.94146 1.893465,14.91722 1.023736,4.91685 1.824052,9.87396 2.265179,14.94459 0.309584,5.01548 1.220483,9.91033 1.705348,14.90032 0.299071,4.43727 1.335283,8.68454 1.841954,13.08558 0.459505,4.74925 0.497629,9.54588 0.536651,14.32707 -0.299434,4.52798 0.512242,8.87119 1.090001,13.28458 0.560811,4.6517 0.658158,9.36929 0.731513,14.07064 0.05264,4.95939 0.04108,9.91945 0.03723,14.87911 0.471789,4.28296 1.148755,8.50137 1.48986,12.81332 0.315485,4.82721 0.335427,9.67697 0.358675,14.51895 0.01225,4.97241 0.0032,9.94482 -8.24e-4,14.91723 0.442944,4.96502 1.126069,9.87396 1.486797,14.85563 0.77979,4.25692 1.493664,8.49828 1.863904,12.85853 0.05519,4.50517 0.474624,8.85885 1.161722,13.25654 0.626983,4.53737 0.791856,9.12117 1.460183,13.64929 0.562165,4.9818 1.309326,9.89047 2.10419,14.81296 0.538915,5.01052 1.173558,9.9687 1.917196,14.93306 0.677641,4.71503 0.736054,9.49421 1.547131,14.17208 0.941567,4.2427 0.878184,8.70896 1.495783,13.01634 0.609147,3.97527 1.275045,7.84413 2.540448,11.54298 0.906098,2.7174 0.420019,1.35568 1.462966,4.08221 0,0 -9.470482,7.2623 -9.470482,7.2623 l 0,0 c -1.089529,-2.77833 -0.590422,-1.40279 -1.506701,-4.12006 -1.340655,-3.78821 -2.038593,-7.75811 -2.665571,-11.85254 -0.658778,-4.2839 -0.549531,-8.74076 -1.477226,-12.97501 -0.824851,-4.70229 -0.913436,-9.48227 -1.533572,-14.23649 -0.732696,-4.96195 -1.438489,-9.89369 -1.908961,-14.91454 -0.783891,-4.93189 -1.592644,-9.82714 -2.117267,-14.82464 -0.691407,-4.52047 -0.922432,-9.07166 -1.483586,-13.62017 -0.692994,-4.44479 -1.19518,-8.82933 -1.198325,-13.39046 -0.348422,-4.37527 -1.046897,-8.63113 -1.854585,-12.89221 -0.339614,-5.02904 -0.988307,-9.98615 -1.534745,-14.97828 0.004,-4.96905 0.01272,-9.9381 0.003,-14.90702 -0.01971,-4.79596 -0.03373,-9.59875 -0.325786,-14.38182 -0.327414,-4.36669 -0.995693,-8.6361 -1.524913,-12.96052 0.0041,-4.94973 0.01576,-9.89973 -0.0307,-14.84919 -0.06516,-4.62876 -0.146118,-9.27375 -0.676598,-13.85755 -0.57575,-4.49055 -1.458729,-8.90501 -1.148217,-13.51122 -0.0335,-4.71544 -0.06159,-9.44497 -0.485596,-14.13277 -0.484332,-4.42291 -1.533853,-8.68078 -1.831239,-13.13201 -0.459246,-5.00461 -1.382865,-9.90147 -1.712942,-14.91883 -0.405156,-5.05158 -1.161013,-9.99889 -2.235869,-14.87455 -0.611768,-4.97791 -1.579861,-9.86202 -1.886908,-14.90206 -0.657532,-4.98636 -1.703217,-9.8588 -2.135582,-14.89777 -0.733934,-4.96113 -1.449992,-9.88496 -1.799038,-14.92903 -0.626852,-4.99441 -1.160891,-9.92764 -0.881744,-15.01665 2.7e-5,-4.96986 1.09e-4,-9.93972 -2.74e-4,-14.90944 -5.56e-4,-4.96972 -0.0014,-9.93931 -0.0053,-14.90904 -0.004,-4.97133 -0.01269,-9.94279 -0.0037,-14.91417 0.01938,-4.99106 0.04001,-9.98772 0.322218,-14.96726 0.334219,-4.98677 0.953898,-9.90654 1.538812,-14.84804 0,-4.96986 -10e-7,-9.93973 10e-7,-14.90959 2e-6,-4.96987 6e-6,-9.93973 2.9e-5,-14.9096 2.5e-5,-4.96984 7.7e-5,-9.9397 6.8e-5,-14.90956 -6e-5,-4.96975 -7.9e-5,-9.93951 -0.0016,-14.90926 -0.0019,-4.96978 -0.0053,-9.93957 -0.01079,-14.90936 -0.0037,-4.9767 -0.01624,-9.95406 0.05825,-14.93005 0.105577,-5.02027 0.278363,-10.0508 0.928932,-15.00698 0.658491,-4.94373 1.264989,-9.83543 1.357781,-14.87233 0.435918,-4.94904 1.349472,-9.84272 1.371032,-14.82957 0,-4.96985 0,-9.93973 0,-14.90958 1e-6,-4.96992 1e-6,-9.93981 2e-6,-14.90971 0,-4.96987 2e-6,-9.93973 -1.1e-5,-14.9096 -1.6e-5,-4.96743 -4.4e-5,-9.93485 -1.37e-4,-14.90228 -9e-5,-4.95976 -3.01e-4,-9.919531 1.03e-4,-14.879298 7.18e-4,-5.085177 0.0018,-10.170355 0.0092,-15.255519 0.0097,-6.082611 0.02769,-12.165195 0.03071,-18.24782 C 54.43473,51.899255 54.45411,45.666985 54.41322,39.434971 54.39443,34.423462 54.37243,29.406934 54.099272,24.406186 53.746851,18.858751 53.077172,13.374932 52.58057,7.8506166 52.56648,2.5230986 52.55209,-2.8071703 52.371383,-8.1301394 52.105101,-14.409508 51.601058,-20.656484 50.993945,-26.892631 c -0.428947,-6.085053 -0.198319,-12.198111 -0.339109,-18.304661 -0.109534,-5.555904 -0.312417,-11.1139 -0.898879,-16.621993 -0.611755,-5.808334 -1.189938,-11.563276 -1.073617,-17.451598 -0.239044,-5.938683 -0.721459,-11.839526 -1.415149,-17.715047 -0.506775,-6.17485 -0.247887,-12.40903 -0.736775,-18.5937 -0.420773,-5.49156 -1.283934,-10.93662 -1.372537,-16.45054 -4.39e-4,-4.99358 0.0064,-9.98867 -0.118349,-14.98012 -0.173889,-5.40408 -0.499225,-10.79645 -1.167246,-16.13618 -0.579081,-5.36009 -0.705603,-10.69669 -0.579473,-16.11272 -5e-5,-4.96274 -1.45e-4,-9.9255 -2.43e-4,-14.88825 -3.5e-5,-4.97003 -2.51e-4,-9.94006 0.002,-14.91008 0.0033,-5.42547 0.0096,-10.85095 0.02384,-16.2764 0.01631,-7.0161 0.01785,-14.03217 0.02875,-21.04828 -0.0075,-7.34847 0.0057,-14.69708 -0.04301,-22.04538 -0.02073,-5.0631 -0.0081,-10.1263 -0.01143,-15.18947 1.8e-5,-4.97494 -2.4e-5,-9.94989 0.0012,-14.92483 0.0016,-5.19517 0.0045,-10.39035 0.01036,-15.58552 0.0051,-5.56193 0.0029,-11.12381 -0.01085,-16.68568 0.0015,-5.18126 0.004,-10.36252 0.01268,-15.54378 0.01011,-6.18281 0.02964,-12.36572 0.0033,-18.5485 -0.0064,-5.47458 -0.01997,-10.9491 -1.63e-4,-16.42368 0.01145,-6.37242 0.017,-12.7448 0.01439,-19.11723 0.0037,-6.43406 -0.03505,-12.86785 -0.02342,-19.30191 0.0031,-5.78277 -0.0012,-11.56774 0.204776,-17.34568 0.226833,-5.71034 0.674281,-11.37952 1.403595,-17.01753 0.48927,-5.87986 0.108502,-11.81334 0.269272,-17.72096 0.06379,-6.0557 0.109104,-12.12656 0.667356,-18.14551 0.607871,-5.00584 1.588209,-9.909 1.938386,-14.96815 0.755698,-5.25633 1.971586,-10.35067 2.753999,-15.59867 1.047027,-5.08101 1.814336,-10.2783 3.268769,-15.1876 0,0 10.019461,-6.08282 10.019461,-6.08282 z"
       inkscape:connector-curvature="0" />
    <path
       style="fill:#24221c;fill-opacity:1"
       id="path4335"
       d="m 69.010531,-478.33672 c -0.706326,-5.76422 -1.928532,-11.40236 -3.208598,-16.97968 -0.994917,-5.69547 -2.372636,-11.24339 -3.565849,-16.86484 -1.382986,-6.245 -3.377165,-12.18872 -4.705272,-18.45392 -1.163215,-5.1298 -2.454651,-10.20768 -3.564617,-15.3586 -0.711575,-4.23115 -1.82644,-8.32051 -3.159884,-12.26273 -1.056093,-4.25748 -2.171824,-8.47351 -3.398666,-12.65161 -1.26783,-5.51024 -2.455336,-11.05569 -3.679296,-16.58619 -1.7588,-6.80058 -3.161281,-13.77192 -4.425589,-20.76595 -0.709955,-5.78595 -1.82081,-11.46031 -2.604077,-17.22677 -0.569869,-4.99367 -0.625397,-10.01875 -1.290353,-14.99301 -0.894192,-5.53789 -1.082195,-11.18562 -1.226443,-16.82762 -0.118503,-7.09495 -0.128084,-14.19182 -0.118332,-21.28817 0.0225,-7.4524 0.0181,-14.90482 6.25e-4,-22.35724 -0.272292,-6.6122 0.536657,-13.14173 1.088289,-19.68688 0.293842,-5.776 1.402419,-11.38692 2.018499,-17.10413 0.234151,-4.98722 0.706097,-9.88584 1.369186,-14.80049 0.457176,-5.23018 1.136546,-10.39313 1.811621,-15.57904 0.464895,-5.55274 1.061559,-11.04188 1.840016,-16.53087 0.713146,-4.9396 0.923741,-9.96442 1.046127,-14.98156 0.08653,-4.95736 0.07275,-9.91659 0.06885,-14.87492 -0.006,-4.96878 -0.0099,-9.93758 -0.01207,-14.90636 -0.0017,-4.96998 -0.0018,-9.93996 -0.0018,-14.90993 -0.27241,-5.07401 0.51442,-10.02552 1.080435,-15.00741 0.626258,-4.83271 0.454519,-9.76379 0.919842,-14.61048 0.688245,-4.35373 1.169465,-8.74353 1.969453,-13.06366 0.53583,-4.47554 1.716381,-8.71934 2.52673,-13.102 0.732903,-4.5431 0.820055,-9.20511 0.896926,-13.83376 0.05176,-4.9516 0.03422,-9.90392 0.0274,-14.85583 0.04062,-4.99881 -0.859904,-9.90028 -1.323045,-14.84414 -0.293882,-4.43849 -1.34135,-8.68318 -1.853485,-13.08334 -0.557378,-2.59033 -1.127773,-5.16284 -1.567087,-7.79494 0,0 9.631026,-6.94209 9.631026,-6.94209 l 0,0 c 0.431202,2.66859 1.006089,5.2723 1.591593,7.88661 0.48996,4.42487 1.55113,8.68221 1.845715,13.13712 0.446155,5.00395 1.370898,9.95308 1.384492,14.99935 0.0072,4.96043 0.02426,9.92109 -0.01299,14.88137 -0.05993,4.71149 -0.122602,9.45169 -0.77378,14.09729 -0.735338,4.43161 -2.054357,8.61949 -2.537184,13.13139 -0.803332,4.28786 -1.283262,8.62305 -1.998134,12.93928 -0.679994,4.804 -0.28143,9.78577 -0.946874,14.61422 -0.538037,4.92472 -1.428211,9.79783 -1.150679,14.81189 4.7e-5,4.96974 3.8e-5,9.93947 0.0016,14.90922 0.0019,4.96849 0.0054,9.93698 0.01189,14.90546 0.0048,4.97214 0.01947,9.94495 -0.05355,14.9164 -0.107071,5.08549 -0.287734,10.1823 -0.982654,15.19557 -0.774469,5.49067 -1.49612,10.94729 -1.870976,16.52034 -0.641212,5.1903 -1.377899,10.3313 -1.773972,15.56972 -0.65371,4.90498 -1.25165,9.75922 -1.390077,14.7517 -0.583806,5.73696 -1.774773,11.32898 -2.08909,17.10791 -0.553397,6.49994 -1.388064,12.97807 -1.147915,19.54394 -0.02329,7.45695 -0.0379,14.91395 -0.02206,22.37095 0.01022,7.07572 -0.01519,14.15312 0.125644,21.22697 0.143984,5.56198 0.364182,11.13228 1.213209,16.59662 0.689524,4.98064 0.806241,9.98536 1.283989,15.00583 0.740668,5.76148 1.870482,11.41325 2.507325,17.20072 1.212369,6.98053 2.63543,13.91976 4.41306,20.67951 1.236106,5.47753 2.475004,10.95167 3.693291,16.4344 1.225106,4.14936 2.407855,8.30501 3.41554,12.5571 1.349657,4.01398 2.488372,8.17552 3.188813,12.48722 1.084853,5.16661 2.396865,10.24245 3.546995,15.38364 1.268051,6.28813 3.244508,12.23968 4.66277,18.46712 1.225855,5.59932 2.661148,11.11225 3.583608,16.82569 1.276099,5.61729 2.477423,11.27723 3.373949,17.02606 0,0 -9.684059,6.94755 -9.684059,6.94755 z"
       inkscape:connector-curvature="0" />
    <path
       style="fill:#24221c;fill-opacity:1"
       id="path4337"
       d="m 215.83003,-964.12941 c -1.27056,5.84816 -2.53693,11.68761 -4.0374,17.43893 -1.63844,6.51676 -2.89502,13.19331 -4.291,19.80813 -1.3849,6.62672 -2.52091,13.33683 -3.7664,20.01029 -1.54469,8.21776 -3.12464,16.42863 -4.7978,24.6012 -1.63819,7.81411 -2.98668,15.72654 -4.43011,23.60675 -1.5086,7.68471 -2.89456,15.40729 -4.2874,23.13208 -1.21576,7.35902 -2.37567,14.73626 -3.77931,22.03593 -0.90468,5.48843 -1.73621,10.9873 -2.649,16.47523 -0.5685,4.98945 -1.17175,9.94295 -1.914,14.89381 -0.49449,5.09426 -1.15476,10.12653 -1.85938,15.17545 -0.43243,5.66525 -1.40795,11.20346 -2.12418,16.8073 -0.37081,5.11614 -0.89523,10.16127 -1.60139,15.21332 -0.40701,4.82746 -1.29893,9.51716 -2.29112,14.17916 -1.1392,5.19359 -1.91241,10.49231 -3.24528,15.6098 -1.35686,4.99565 -2.61122,10.03947 -3.9514,15.04263 -1.09719,4.54873 -2.37436,9.00586 -3.72146,13.4317 -1.18718,4.19751 -2.17669,8.49136 -3.21862,12.76101 -1.2812,4.48766 -2.5865,8.97347 -4.01607,13.37931 -1.38924,4.3047 -2.76467,8.61614 -4.1838,12.90463 -1.26083,4.87531 -2.43042,9.78002 -3.81276,14.60116 -1.59967,4.89139 -3.14943,9.82677 -4.42422,14.88959 -1.41816,4.16597 -2.40359,8.53433 -3.47241,12.87306 -1.36679,4.79123 -2.78019,9.56737 -3.96181,14.44811 -1.24628,5.14173 -2.8976,10.06579 -4.54509,14.99024 -1.23717,4.35607 -2.25975,8.82166 -3.61828,13.11717 -1.38771,3.86992 -2.19252,8.03926 -3.36861,12.02658 -1.21218,4.41329 -2.56032,8.75036 -3.92874,13.08102 -1.60888,4.41336 -2.7508,9.04124 -3.97968,13.65086 -1.00555,3.82376 -2.14623,7.5798 -3.45366,11.23627 -1.23273,3.32226 -2.41063,6.68056 -3.67245,9.98387 -1.19737,3.22883 -2.90326,6.03196 -4.7086,8.6765 -4.18133,5.38631 -9.783247,8.40589 -14.60488,12.44581 -2.56299,2.14746 5.243029,-4.03348 7.892324,-5.98325 0.488747,-0.3597 -0.938591,0.80731 -1.407886,1.21097 -35.549396,27.27093 21.754742,-16.90608 -13.425041,10.31794 0,0 8.507856,-9.22686 8.507856,-9.22686 l 0,0 c -27.289868,21.25983 21.651877,-16.90906 -5.262908,4.20702 6.009054,-4.90494 21.965705,-16.91397 4.400808,-3.6451 -3.434712,2.59465 7.541528,-5.76081 3.774399,-3.69505 1.91903,-2.37385 3.586347,-5.2396 4.832457,-8.30966 1.432731,-3.15951 2.408701,-6.67727 3.686691,-9.95263 1.49756,-3.4802 2.45564,-7.36641 3.54087,-11.09954 1.3879,-4.52555 2.24895,-9.34198 3.96012,-13.70966 1.43009,-4.29308 2.73814,-8.65058 3.94994,-13.05958 1.25483,-3.96218 1.97527,-8.15832 3.31293,-12.0669 1.58039,-4.16391 2.44325,-8.77377 3.68208,-13.12861 1.60785,-4.90336 3.32896,-9.73773 4.58666,-14.8341 1.11627,-4.90467 2.5323,-9.68618 3.94014,-14.44993 1.04104,-4.35645 1.94618,-8.78649 3.49099,-12.88741 1.20771,-5.1088 2.76234,-10.07537 4.4046,-14.95638 1.3728,-4.84076 2.67459,-9.69387 3.78173,-14.65637 1.38028,-4.31395 2.82904,-8.58439 4.15772,-12.92604 1.5714,-4.25592 2.64342,-8.84062 4.05885,-13.19749 0.98389,-4.33555 2.1477,-8.58503 3.18949,-12.89288 1.41864,-4.37982 2.66555,-8.85337 3.76992,-13.39002 1.4085,-4.96818 2.56972,-10.06033 3.95844,-15.04028 1.43534,-5.05289 2.16712,-10.33354 3.26757,-15.52171 1.04212,-4.59408 1.91271,-9.26641 2.33214,-14.03937 0.69658,-5.05354 1.34357,-10.06458 1.62191,-15.19859 0.69221,-5.61878 1.76738,-11.13758 2.13024,-16.82493 0.63046,-5.06726 1.43903,-10.06785 1.82635,-15.18784 0.72644,-4.96786 1.44306,-9.89869 1.91004,-14.92499 0.8966,-5.52795 1.83425,-11.02827 2.6917,-16.56649 1.44715,-7.29252 2.6586,-14.66061 3.8307,-22.03993 1.40384,-7.72274 2.75588,-15.458 4.28402,-23.13742 1.47206,-7.89952 2.78732,-15.85085 4.46857,-23.67794 1.71524,-8.12007 3.18155,-16.34226 4.72841,-24.52249 1.2995,-6.65923 2.3264,-13.41448 3.74229,-20.03777 1.41483,-6.63032 2.67723,-13.32384 4.259,-19.88508 1.4875,-5.65724 2.75486,-11.38661 3.95933,-17.16129 0,0 9.88086,-6.42925 9.88086,-6.42925 z"
       inkscape:connector-curvature="0" />
  </g>
</svg>
