<?xml version="1.0" encoding="UTF-8" standalone="no"?>
<!-- Created with Inkscape (http://www.inkscape.org/) -->

<svg
   xmlns:dc="http://purl.org/dc/elements/1.1/"
   xmlns:cc="http://creativecommons.org/ns#"
   xmlns:rdf="http://www.w3.org/1999/02/22-rdf-syntax-ns#"
   xmlns:svg="http://www.w3.org/2000/svg"
   xmlns="http://www.w3.org/2000/svg"
   xmlns:sodipodi="http://sodipodi.sourceforge.net/DTD/sodipodi-0.dtd"
   xmlns:inkscape="http://www.inkscape.org/namespaces/inkscape"
   width="256"
   height="2048"
   id="svg4339"
   version="1.1"
   inkscape:version="0.48.4 r9939"
   sodipodi:docname="forestTree2.svg">
  <defs
     id="defs4341" />
  <sodipodi:namedview
     id="base"
     pagecolor="#ffffff"
     bordercolor="#666666"
     borderopacity="1.0"
     inkscape:pageopacity="0.0"
     inkscape:pageshadow="2"
     inkscape:zoom="0.54"
     inkscape:cx="211.54286"
     inkscape:cy="703.99044"
     inkscape:document-units="px"
     inkscape:current-layer="layer1"
     showgrid="false"
     inkscape:window-width="708"
     inkscape:window-height="1002"
     inkscape:window-x="43"
     inkscape:window-y="0"
     inkscape:window-maximized="0" />
  <metadata
     id="metadata4344">
    <rdf:RDF>
      <cc:Work
         rdf:about="">
        <dc:format>image/svg+xml</dc:format>
        <dc:type
           rdf:resource="http://purl.org/dc/dcmitype/StillImage" />
        <dc:title />
      </cc:Work>
    </rdf:RDF>
  </metadata>
  <g
     inkscape:label="Layer 1"
     inkscape:groupmode="layer"
     id="layer1"
     transform="translate(0,995.63782)">
    <path
       style="fill:#28220b;fill-opacity:1"
       id="path4347"
       d="m 51.821862,1013.6354 c 2.17475,-3.4665 4.30341,-6.9912 6.559219,-10.3522 2.356435,-3.0577 3.161621,-7.02083 3.614064,-11.35214 0.362761,-4.98136 0.319295,-9.99944 0.314629,-15.00084 -0.01464,-5.16446 -0.02903,-10.32878 -0.03667,-15.49325 -0.0064,-5.15624 -0.0068,-10.31249 -0.0072,-15.46875 -1.77e-4,-5.15319 2.3e-5,-10.30638 1.16e-4,-15.45957 8.9e-5,-5.15319 1.09e-4,-10.30639 1.21e-4,-15.45958 0.433984,-4.51385 0.953196,-9.04844 1.639039,-13.50289 0.933992,-4.71032 1.296494,-9.57078 2.225357,-14.27803 0.751536,-4.61488 1.801586,-9.11232 2.512214,-13.74111 0.713251,-5.11868 1.45474,-10.25267 2.336959,-15.32029 1.042652,-4.8464 1.432566,-9.88161 2.400571,-14.7497 0.772248,-4.57606 1.484711,-9.167 2.23834,-13.75293 0.517004,-4.74928 1.05357,-9.43511 1.851989,-14.10773 0.770352,-4.5933 0.932837,-9.31782 1.047372,-14.01798 -0.177131,-5.22081 0.580788,-10.31473 1.126635,-15.44316 0.520784,-5.09559 0.638995,-10.24599 0.714197,-15.38638 -0.215636,-5.2567 0.544286,-10.38652 1.094024,-15.5496 0.426721,-4.52596 1.21253,-9.03036 2.155351,-13.39715 1.199423,-4.02995 1.700667,-8.29058 1.988398,-12.61549 0.188082,-5.09614 0.156784,-10.14874 0.723657,-15.19674 0.656486,-4.92404 0.815247,-9.92098 1.645125,-14.79479 0.883015,-4.45626 1.179659,-9.05832 1.359446,-13.66096 0.147251,-5.07819 0.136034,-10.1621 0.136349,-15.24349 -0.004,-5.15792 -0.0096,-10.31584 -0.01257,-15.47362 -0.0025,-5.15472 -0.0027,-10.30931 -0.0029,-15.46389 -0.302881,-4.77321 0.442288,-9.36583 1.037295,-14.01687 0.566919,-4.74761 0.667855,-9.56868 0.744013,-14.37223 0.05581,-5.13245 0.04443,-10.26575 0.04083,-15.39863 -0.0049,-5.15736 -0.0075,-10.31487 -0.009,-15.47237 0.01103,-4.90177 0.175877,-9.75832 -0.482655,-14.58608 -0.817461,-4.52763 -0.861274,-9.21931 -1.390194,-13.80552 -0.815234,-5.05398 -1.281124,-10.18227 -1.544176,-15.34756 -0.67307,-4.42746 -1.343283,-8.82501 -1.688693,-13.33386 -0.217957,-4.43594 -1.169912,-8.69476 -1.631231,-13.08966 -0.08106,-4.49897 -0.978242,-8.78952 -1.572877,-13.17495 -0.577428,-4.86658 -1.507289,-9.61001 -2.0138,-14.50135 -0.894689,-5.09865 -1.616073,-10.22373 -2.013881,-15.44914 -0.08466,-5.20815 -0.518117,-10.30304 -1.140586,-15.42841 -0.640484,-5.1376 -0.839209,-10.34909 -0.957581,-15.55432 -0.08613,-5.15918 -0.07561,-10.3203 -0.07325,-15.48044 0.0046,-5.15319 0.0083,-10.30625 0.01031,-15.45944 0.0017,-5.15305 0.0017,-10.3061 0.0018,-15.45916 3.1e-5,-5.15318 -2.1e-5,-10.30637 -4.7e-5,-15.45957 -2.4e-5,-5.15319 -2.8e-5,-10.30637 -3.1e-5,-15.45957 -2e-6,-5.15333 -2e-6,-10.30652 -10e-7,-15.45971 -0.0029,-4.98136 -0.176511,-9.93224 0.455619,-14.8488 0.743038,-4.49812 1.045164,-9.08922 1.22272,-13.69123 0.566437,-5.10306 1.24864,-10.16186 1.607819,-15.30794 0.661615,-4.45254 1.421134,-8.84083 1.797223,-13.36847 0.113239,-4.1922 1.253423,-8.05668 1.148832,-12.26064 -0.295172,-4.44324 -1.408125,-8.71405 -2.42284,-12.91455 -1.222377,-4.98207 -1.628731,-10.21682 -1.866939,-15.44874 -0.174874,-5.17131 -0.156643,-10.35061 -0.153286,-15.52637 0.0081,-5.15465 0.01544,-10.30932 0.01934,-15.46399 0.07376,-5.18143 -0.174522,-10.37911 0.192545,-15.53996 0.734018,-5.02393 0.922833,-10.17267 1.576548,-15.20682 0.837304,-4.46851 1.323057,-9.0301 2.120073,-13.51081 0.886039,-4.74971 1.06283,-9.65252 1.892206,-14.415 0.498204,-4.19725 1.634281,-8.13319 2.388124,-12.23244 0.847725,-4.49152 1.993872,-8.8214 3.097992,-13.18946 0.938038,-3.97795 1.84215,-7.97512 2.803744,-11.94213 0.951192,-3.81974 1.852923,-7.6561 2.777948,-11.49139 0.810477,-3.99158 1.920401,-7.784439 2.492475,-11.872668 0.853408,-3.978644 1.503119,-8.03494 2.502598,-11.946326 0.83061,-4.016573 1.5245,-8.068834 2.35235,-12.09267 0.58197,-4.287805 1.12247,-8.539921 1.88013,-12.777651 0.55258,-4.721341 1.47031,-9.327824 2.10756,-14.025259 0.98609,-5.124154 1.74314,-10.320185 2.73939,-15.439302 0.97719,-5.145747 2.1943,-10.153708 2.8704,-15.407829 0.87214,-4.5725332 1.71161,-9.1532342 2.59749,-13.72103738 1.43697,-6.26323482 2.32951,-12.72491962 3.52023,-19.08243162 0.78627,-5.439979 1.93141,-10.754903 2.72351,-16.19203 1.0276,-5.136341 1.78839,-10.359379 2.79168,-15.503471 1.05932,-5.033046 1.95842,-10.143857 3.03815,-15.166747 1.1488,-4.12386 1.584,-8.513973 2.5108,-12.729663 1.09049,-4.449622 2.00421,-8.961477 2.93939,-13.480107 0.9699,-5.111356 2.24771,-10.087188 3.11006,-15.239348 0.91445,-5.2844 2.4664,-10.26133 3.47689,-15.50258 0.9392,-4.86573 2.13883,-9.58754 3.32122,-14.33696 1.28653,-4.66013 2.54446,-9.34754 3.61033,-14.12064 1.23108,-5.10635 2.52084,-10.19067 3.63096,-15.35374 0.78384,-4.65496 1.95217,-9.16242 3.12499,-13.64308 0.90272,-4.45501 1.8866,-8.86909 3.02748,-13.21579 1.25886,-4.77578 2.34645,-9.6379 3.53825,-14.44728 1.0888,-4.7198 2.07536,-9.47425 3.13377,-14.21032 1.33477,-4.59079 2.16668,-9.40867 3.1756,-14.15195 1.11962,-5.08627 2.08184,-10.22919 3.09884,-15.35696 0.9418,-5.18552 2.23438,-10.21927 3.10406,-15.43096 0.70156,-5.15744 1.6913,-10.20226 2.23683,-15.40449 0.61616,-4.60786 1.80081,-8.98528 2.77484,-13.44788 0.59073,-4.52956 1.63503,-8.89264 2.36625,-13.37331 0.58452,-4.16624 1.35833,-8.31815 2.25226,-12.375 1.16422,-4.08858 1.662,-8.44696 2.45487,-12.69209 0.92069,-5.04395 2.08458,-9.95358 2.73427,-15.09325 0.59522,-5.79059 1.45015,-11.50795 1.94582,-17.32237 0.0517,-4.9851 0.88988,-9.78379 1.54437,-14.64589 0.56093,-4.86083 1.51275,-9.58797 2.03049,-14.46487 0.11275,-4.72328 0.95716,-9.26232 1.59173,-13.87054 0.44193,-4.27934 1.48847,-8.33782 2.0169,-12.59802 0.92454,-4.83246 1.63943,-9.70037 2.0302,-14.67757 0.0994,-4.85806 0.4282,-9.59287 1.12125,-14.34795 0.68962,-4.61645 0.8591,-9.33432 0.97352,-14.03657 -0.0425,-4.59517 0.87952,-9.03978 1.34576,-13.55812 0.1897,-4.62455 0.58398,-9.13053 1.2835,-13.65189 0.71572,-4.6006 0.88146,-9.31262 0.99622,-14.00566 0.46672,-4.45169 1.17737,-8.82144 1.52571,-13.30248 -0.0134,-4.60011 0.79022,-9.01545 1.39328,-13.49532 0.58031,-4.74496 0.67073,-9.56868 0.74285,-14.37204 -0.25445,-4.75311 0.48509,-9.33017 1.07253,-13.96361 0.62397,-4.78137 0.50216,-9.66177 0.92338,-14.46874 0.7082,-5.08036 1.18371,-10.20046 1.44274,-15.36405 0.0601,-4.62961 1.0098,-9.09002 1.49204,-13.64688 0.19616,-4.61845 0.58762,-9.12001 1.28537,-13.63676 0.71439,-4.60004 0.87958,-9.31115 0.99407,-14.00328 0.0296,-5.1898 -0.0137,-10.32437 0.55329,-15.45993 0.68674,-5.08346 1.01219,-10.2326 1.19442,-15.39553 0.50743,-4.47617 1.23376,-8.87152 1.58995,-13.38481 0.31926,-4.95947 0.3352,-9.94443 0.35719,-14.92045 0.0112,-5.1528 0.002,-10.30563 -0.002,-15.45843 -0.004,-5.15595 -0.005,-10.31189 -0.006,-15.46784 0.0117,-4.9013 0.17665,-9.75752 -0.48177,-14.58484 -0.51405,-4.64123 -1.2475,-9.19513 -1.98082,-13.7734 -0.38084,-4.68575 -1.46417,-9.13457 -2.16604,-13.72351 -0.63879,-4.87015 -1.56767,-9.62758 -2.0768,-14.53771 -0.79695,-4.16547 -1.44771,-8.36126 -2.48252,-12.42065 -0.7601,-4.08343 -1.53737,-8.1343 -2.3524,-12.20074 -0.76064,-4.37914 -0.83155,-8.86514 -1.57525,-13.2465 -0.92822,-4.37299 -0.86079,-8.9816 -1.45973,-13.42551 -0.86596,-4.38368 -1.28863,-8.87495 -1.5314,-13.40301 -0.66453,-5.03663 -1.31862,-10.05609 -1.67575,-15.15927 -0.25779,-5.20491 -1.15474,-10.28288 -1.63018,-15.45451 -0.42064,-5.15855 -0.4777,-10.35591 -0.51916,-15.54269 -0.0245,-5.15577 -0.0131,-10.31171 -0.008,-15.46755 -0.12861,-4.6351 0.80407,-9.12648 1.27698,-13.67802 0.4393,-4.04244 1.78715,-7.44767 3.46142,-10.68627 1.62267,-2.84528 3.48168,-5.38417 5.28686,-7.98852 1.82125,-2.56295 3.65848,-5.10375 5.45736,-7.69864 4.62218,-6.5189 10.59268,-10.93072 17.01849,-11.86983 3.40266,0.0819 5.49649,1.91634 6.86209,6.2972 0.9257,4.14603 1.82722,8.2368 2.29679,12.54603 0.43271,4.95295 0.4499,9.95289 0.47785,14.93615 0.0271,4.38181 0.54998,8.88874 1.46678,13.07852 1.17648,4.14307 1.64295,8.52415 1.92326,12.94279 0.69896,5.02297 1.34531,10.03895 1.70047,15.13745 0.3026,5.16872 0.32318,10.35878 0.34317,15.5418 0.009,5.15665 -5e-4,10.3133 -0.005,15.46992 -0.004,5.153 -0.005,10.30598 -0.006,15.45897 -4e-4,5.15312 -3.1e-4,10.30626 -2.8e-4,15.45938 -0.0913,5.07649 0.20004,10.18001 -0.174,15.23562 -0.67305,4.44325 -1.15564,8.91269 -1.41017,13.44232 0.0971,4.65644 -0.68102,9.13136 -1.27607,13.66644 -0.57119,4.74957 -0.66434,9.57487 -0.73717,14.38109 0.0795,4.61592 -0.84031,9.08649 -1.3061,13.62361 -0.43301,4.87076 -0.48215,9.78654 -0.52628,14.68878 -0.0288,5.14592 -0.0182,10.29207 -0.014,15.43808 0.005,5.1567 0.006,10.3134 0.007,15.4701 7.4e-4,5.15353 6.8e-4,10.30706 6.7e-4,15.46059 -2e-5,5.15316 -5e-5,10.30632 -7e-5,15.45949 -0.31433,4.69968 0.4894,9.20279 1.06116,13.78101 0.49282,4.57878 0.48949,9.17451 1.20259,13.70074 0.81103,4.53775 1.07795,9.20122 1.24502,13.86048 0.0452,4.5226 0.97187,8.89177 1.41859,13.3549 0.32996,4.37082 1.31496,8.54781 1.79485,12.89378 0.55652,4.77973 0.24781,9.65925 0.7214,14.43788 0.74064,4.45495 1.16986,8.97141 1.4089,13.53073 0.20955,5.0656 0.21053,10.14231 0.21948,15.21479 -0.0906,4.57036 0.83574,9.0052 1.28153,13.50607 0.42233,4.92666 0.47079,9.89561 0.51338,14.85189 0.0273,5.15115 0.0168,10.30252 0.0126,15.45377 -0.005,5.15627 -0.006,10.31256 -0.007,15.46886 -7.2e-4,5.15342 -6.6e-4,10.30684 -6.5e-4,15.46027 0.26656,5.26111 -0.50324,10.39522 -1.05702,15.56084 -0.60192,5.11546 -0.47385,10.32111 -0.91541,15.45274 -0.70092,5.09769 -1.18127,10.232 -1.44128,15.41092 -0.57246,4.46396 -1.30994,8.85367 -1.67311,13.36988 -0.0906,4.70374 -0.43648,9.28001 -1.11732,13.87954 -0.76323,4.53529 -0.68001,9.22363 -1.15178,13.80895 -0.77495,4.38116 -1.23769,8.82438 -1.4883,13.32214 -0.0853,4.52673 -1.0242,8.88442 -1.49784,13.3432 -0.10041,4.51766 -0.94509,8.84572 -1.56346,13.24706 -0.24321,4.40546 -1.14816,8.61539 -1.79179,12.91432 -0.36365,4.4855 -0.81582,8.88208 -1.53623,13.28154 -0.68841,4.43152 -0.7481,8.95441 -1.4684,13.37477 -0.84406,4.43474 -1.12369,9.00561 -1.29701,13.57476 -0.52423,4.4156 -1.2352,8.7564 -1.5856,13.21471 -0.18126,4.46659 -1.14075,8.75017 -1.62455,13.15809 -0.45083,4.86437 -0.49191,9.7786 -0.5333,14.67694 -0.0258,5.14811 -0.0143,10.29644 -0.01,15.44462 -0.40054,5.1973 -1.09485,10.32682 -1.4538,15.53447 -0.30346,5.12162 -0.33175,10.26449 -0.35595,15.40076 -0.0127,5.15154 -0.004,10.30314 1.6e-4,15.45471 0.004,5.1534 0.005,10.3068 0.006,15.46019 4.5e-4,5.15324 3.7e-4,10.30647 3.5e-4,15.45971 -0.0914,5.07648 0.19994,10.18003 -0.17414,15.23561 -0.67306,4.44326 -1.15565,8.91269 -1.41018,13.44231 -0.0896,4.52248 -1.03264,8.87398 -1.50821,13.32837 -0.88847,4.0878 -1.40537,8.30361 -2.14818,12.43924 -0.98505,4.01279 -1.3705,8.22047 -2.24421,12.27448 -0.61912,4.0584 -1.74647,7.89266 -2.49366,11.897218 -1.13138,4.70603 -1.86665,9.561916 -2.82248,14.339732 -0.75132,4.770398 -1.44936,9.519204 -2.34424,14.242381 -0.88844,4.712811 -1.69754,9.458805 -2.58785,14.171532 -1.22031,4.955187 -1.51523,10.185696 -2.17815,15.306496 -0.62725,5.258851 -1.86494,10.29617 -2.69244,15.487443 -0.54029,4.590037 -1.64428,8.963647 -2.20849,13.5496075 -0.24106,4.9849059 -1.04602,9.84325367 -1.61944,14.7602748 -0.2865,5.2210067 -1.1622,10.3020687 -1.7859,15.4494867 -0.57302,5.082134 -0.68315,10.232737 -0.75573,15.368592 0.18097,5.257112 -0.20696,10.389627 -0.81147,15.560906 -0.62574,5.077543 -0.83122,10.22464 -0.95236,15.36773 -0.0897,5.144885 -0.0799,10.291899 -0.0782,15.437979 0.004,5.153219 0.008,10.306425 0.01,15.459658 0.002,5.153304 0.002,10.306614 0.002,15.459924 3e-5,5.1532 -1e-5,10.30641 -4e-5,15.45961 -2e-5,5.15319 -2e-5,10.30639 -3e-5,15.45959 0,5.15319 0,10.30639 0,15.45959 0,5.15318 0,10.30638 0,15.45958 0,5.1532 0,10.3064 0,15.45959 0,5.1532 0,10.3064 0,15.45959 0.22778,5.26271 -0.17215,10.39852 -0.78222,15.57348 -0.63154,5.07656 -0.83969,10.22379 -0.9623,15.36712 0.16948,5.49292 -0.65153,10.85733 -1.15654,16.26939 -0.49547,5.65785 -0.62556,11.35923 -0.70056,17.05393 -0.44127,5.2459 -1.13449,10.42907 -1.49379,15.69194 -0.69952,5.13572 -1.42531,10.24215 -1.80916,15.44964 -0.38154,4.31412 -1.48963,8.30717 -2.559,12.33489 -0.89624,3.91384 -2.03043,7.63757 -2.61692,11.68417 -0.76387,4.84884 -0.37431,9.60294 0.16372,14.43193 0.55686,5.14985 0.73787,10.32642 1.44133,15.4426 0.46549,4.84139 1.21279,9.53724 2.08023,14.25577 0.81301,4.64381 1.82414,9.23086 2.84965,13.79606 1.22354,5.16572 2.19268,10.43063 3.26858,15.65785 0.75683,4.79046 2.22053,9.23795 3.12916,13.96009 0.7858,4.85211 1.71834,9.62225 2.237,14.55575 0.98679,4.32797 1.46075,8.82166 2.19227,13.23255 0.77752,5.02784 1.67759,10.00252 2.53812,15.00265 0.90322,5.35954 1.06769,10.8646 1.17616,16.34796 0.09,6.23818 0.0604,12.47817 0.0619,18.71732 9.8e-4,5.54096 0.002,11.08193 0.002,16.62289 1.5e-4,5.16363 1.1e-4,10.32739 1e-4,15.49116 0.22778,5.25726 -0.1725,10.38763 -0.78222,15.55724 -0.63166,5.07612 -0.83972,10.22276 -0.96232,15.36566 -0.45851,4.48352 -1.1781,8.88205 -1.52978,13.39242 -0.0596,5.08182 -0.85149,10.02797 -1.41403,15.02339 -0.27494,5.23013 -1.15595,10.31724 -1.78233,15.47097 -0.5192,5.19675 -1.50661,10.25213 -2.04377,15.44887 -0.48519,5.10547 -1.10916,10.24502 -2.00915,15.24057 -1.0962,4.31852 -1.64045,8.79662 -1.9353,13.34943 -0.695,4.36012 -1.20323,8.78089 -1.88341,13.14421 -0.93378,4.71255 -1.28697,9.57633 -2.21071,14.28763 -0.67822,4.23796 -1.3675,8.43292 -2.20667,12.61465 -0.57184,4.28958 -1.11597,8.53824 -1.87553,12.77383 -0.55453,4.71825 -1.47227,9.32213 -2.10955,14.01701 -0.82223,5.22498 -2.00615,10.30151 -3.04364,15.44078 -0.71565,5.16406 -1.70191,10.24336 -2.39971,15.41338 -1.01067,5.07111 -1.82081,10.17672 -2.25516,15.41214 -0.70489,4.97454 -1.24819,9.99346 -2.2954,14.85015 -0.85036,4.55296 -1.58299,9.14961 -2.35018,13.73623 -0.75379,5.09977 -1.80541,10.07208 -2.3872,15.22541 -0.97442,5.10894 -1.47566,10.35314 -2.23728,15.52135 -1.04416,5.04508 -1.30453,10.29442 -1.94819,15.4426 -0.82236,5.13775 -1.26642,10.35661 -2.10392,15.48795 -0.49202,4.75124 -1.6547,9.25396 -2.45805,13.89667 -0.47139,4.85877 -1.32509,9.61153 -1.93093,14.43678 -0.31783,5.2037 -1.18879,10.27326 -1.81061,15.40962 -0.32015,4.84278 -0.75787,9.58732 -1.51139,14.33201 -0.7315,4.60069 -0.89688,9.3181 -1.01111,14.0152 -0.46583,4.44847 -1.17534,8.81498 -1.52307,13.29266 -0.0583,5.08669 -0.85023,10.03758 -1.41293,15.03786 -0.51405,4.92305 -0.46941,9.88479 -1.18027,14.76361 -0.79279,4.48394 -1.08252,9.08115 -1.25597,13.68322 -0.0113,4.56534 -0.93832,8.97248 -1.40644,13.46436 -0.4357,4.87047 -0.48174,9.78699 -0.52459,14.68935 -0.0275,5.1468 -0.0166,10.2937 -0.0122,15.4406 0.005,5.1567 0.007,10.3135 0.008,15.4702 0.16427,11.9975 -4.7901,11.5947 -12.75523,17.6098 -2.94505,-0.3187 -5.87255,-0.8676 -8.82139,-1.1564 -3.3064,0.191 -6.44609,-1.202 -9.66526,-2.0087 -3.35379,-0.7354 -6.75289,-0.8293 -10.139,-0.9107 -3.61112,-0.056 -7.222551,-0.037 -10.833816,-0.032 -3.568305,-0.189 -7.18208,0.4476 -10.715443,-0.3693 -3.037749,-0.8961 -6.060091,-1.4898 -9.022349,-2.8043 -2.874646,-0.942 -5.682527,-2.28 -8.405405,-3.9014 -3.080734,-1.38 -6.119261,-2.922 -9.211366,-4.2615 -3.204169,-1.2127 -6.531996,-1.3663 -9.827023,-1.5005 -2.5283,0.1672 -5.674687,0.2758 -7.952226,2.1034 -2.060788,-1.929 0.783951,-4.2294 1.80956,-5.5565 2.313032,-2.2654 4.648812,-4.5466 6.569968,-7.4781 1.877142,-3.1034 3.770464,-6.1993 5.399252,-9.5796 1.731033,-3.3328 3.313774,-6.8542 4.613927,-10.5652 0.457746,-1.9102 1.026923,-3.75949 1.585953,-5.61222 0,0 9.731215,-6.36494 9.731215,-6.36494 l 0,0 c -0.553367,1.87556 -1.254547,3.66096 -1.575026,5.65882 -1.1607,3.84154 -2.796635,7.44604 -4.565936,10.76884 -1.516487,3.5356 -3.43787,6.64 -5.339132,9.7528 -1.703006,3.1623 -4.056677,5.6924 -6.45916,7.697 -0.482716,0.5283 -3.425383,5.4917 -3.280239,1.782 2.649623,-0.9481 5.36835,-1.7557 8.114505,-1.4833 3.367461,0.1807 6.76529,0.4284 10.014158,1.8188 3.092221,1.4319 6.184463,2.8404 9.254266,4.3568 2.741514,1.4783 5.50863,2.8371 8.365767,3.7861 2.917368,1.2371 5.928851,1.7536 8.908742,2.617 3.519991,0.5321 7.077494,0.084 10.611988,0.2212 3.6167,0 7.23369,-0.023 10.8501,0.054 3.42906,0.1085 6.87176,0.25 10.25868,1.091 3.18165,0.8604 6.31566,2.0151 9.58664,1.8842 2.87849,0.3073 5.78682,1.0731 8.66649,0.706 -2.72032,2.3387 -5.46171,4.6288 -8.16095,7.0163 -0.36374,0.3218 0.79795,-0.4685 1.15026,-0.8149 1.78055,-1.7513 1.80706,-4.8685 1.73639,-7.6404 -8.1e-4,-5.1562 -0.002,-10.3126 -0.007,-15.469 -0.005,-5.1518 -0.0149,-10.3036 0.004,-15.4553 0.0325,-4.9538 0.064,-9.91913 0.44428,-14.84915 0.4128,-4.47963 1.36046,-8.8378 1.46178,-13.35124 0.14533,-4.66664 0.36786,-9.34663 1.15862,-13.89861 0.79489,-4.85446 0.82048,-9.7572 1.23738,-14.69878 0.53104,-4.98232 1.41248,-9.88813 1.41979,-14.95436 0.29834,-4.46099 0.86498,-8.83697 1.56783,-13.20362 0.0932,-4.77182 0.21834,-9.56757 0.89998,-14.25771 0.74036,-4.74052 1.38839,-9.40729 1.56726,-14.2783 0.58791,-5.14944 1.5429,-10.19619 1.80456,-15.41353 0.5666,-4.85836 1.49604,-9.60277 1.88069,-14.50176 0.73127,-4.69042 2.03729,-9.1336 2.48636,-13.91822 0.85549,-5.11437 1.32212,-10.2972 2.12109,-15.43133 0.75008,-5.1287 0.83359,-10.44106 1.9357,-15.48406 0.855,-5.10589 1.15449,-10.39084 2.26626,-15.42688 0.53444,-5.20216 1.56259,-10.20272 2.3457,-15.32391 0.73263,-4.62628 1.54558,-9.21445 2.29514,-13.83043 1.09108,-4.78155 1.67249,-9.68431 2.41023,-14.60138 0.39168,-5.2709 1.09684,-10.45025 2.22344,-15.51174 0.65762,-5.22555 1.71396,-10.31265 2.36224,-15.53931 0.98686,-5.1223 2.20932,-10.13789 3.07525,-15.31084 0.59147,-4.72994 1.56919,-9.32296 2.05097,-14.07906 0.72829,-4.26244 1.47628,-8.44488 1.86179,-12.80819 0.79394,-4.2111 1.67439,-8.33218 2.21119,-12.63482 0.97775,-4.69001 1.37892,-9.49537 2.24442,-14.23198 0.76498,-4.27177 1.01876,-8.71328 1.95457,-12.94163 0.25051,-4.63032 0.67582,-9.23948 1.84084,-13.61254 1.08451,-4.84764 1.52609,-10.05565 2.0913,-15.06303 0.49529,-5.22471 1.47267,-10.2876 2.03228,-15.48559 0.59229,-5.16043 1.55708,-10.21873 1.78618,-15.45373 0.53077,-4.97774 1.41209,-9.87882 1.42068,-14.94046 0.30234,-4.49605 0.8836,-8.90347 1.58053,-13.30783 0.10759,-5.20161 0.28594,-10.41101 0.90071,-15.55042 0.60498,-5.10103 1.13933,-10.12885 0.85867,-15.32935 8e-5,-5.16502 10e-6,-10.3299 0.004,-15.49492 0.005,-5.5493 0.0144,-11.09848 0.0303,-16.64779 0.0139,-6.22454 0.0235,-12.44964 -0.0533,-18.67349 -0.10621,-5.37636 -0.26002,-10.78056 -1.09859,-16.04714 -0.84512,-5.00223 -1.78738,-9.95729 -2.55293,-14.98595 -0.79613,-4.43554 -1.19823,-9.00825 -2.23051,-13.36989 -0.48442,-4.88619 -1.41075,-9.59066 -2.19764,-14.3828 -0.87352,-4.7259 -2.33955,-9.16462 -3.08418,-13.94869 -1.10335,-5.20216 -2.00597,-10.48809 -3.25905,-15.62862 -1.03637,-4.58538 -2.10903,-9.1741 -2.91254,-13.84504 -0.85859,-4.75651 -1.63909,-9.47351 -2.07978,-14.35567 -0.72562,-5.13426 -0.95548,-10.30638 -1.46326,-15.48962 -0.56548,-4.97218 -1.08068,-9.85962 -0.35817,-14.87972 0.50427,-4.16052 1.56636,-7.94243 2.52976,-11.8959 0.97476,-3.99474 2.25768,-7.78991 2.71518,-12.02378 0.34718,-5.20979 0.97779,-10.34298 1.81246,-15.44055 0.32745,-5.23983 0.93877,-10.40928 1.53741,-15.59707 0.0728,-5.74848 0.20144,-11.50238 0.67236,-17.21783 0.46431,-5.37155 1.32593,-10.67769 1.16951,-16.11707 0.10762,-5.20218 0.28604,-10.41211 0.9008,-15.55207 0.60545,-5.10642 1.13953,-10.13981 0.8589,-15.3457 0,-5.15318 0,-10.30638 0,-15.45958 0,-5.15319 0,-10.3064 0,-15.45959 0,-5.15319 0,-10.3064 0,-15.45959 0,-5.1532 0,-10.30639 0,-15.45958 0,-5.1532 1e-5,-10.3064 2e-5,-15.4596 3e-5,-5.1532 8e-5,-10.30639 6e-5,-15.45956 -7e-5,-5.15309 -1.1e-4,-10.30618 -0.002,-15.45926 -0.002,-5.153175 -0.005,-10.306353 -0.01,-15.459516 -0.003,-5.160426 -0.0135,-10.321576 0.0629,-15.481167 0.1063,-5.201513 0.28239,-10.410762 0.89128,-15.551237 0.60066,-5.111436 1.12241,-10.151106 0.87871,-15.360035 0.0614,-5.20079 0.15224,-10.41605 0.68839,-15.57066 0.58977,-5.156029 1.54953,-10.210225 1.78636,-15.438801 0.53918,-4.9236715 1.42943,-9.7562508 1.5973,-14.7491851 0.4979,-4.6535941 1.59722,-9.0365679 2.20881,-13.6401019 0.77359,-5.208735 2.04858,-10.212396 2.70085,-15.459921 0.76648,-5.118518 0.87942,-10.434374 2.13931,-15.412087 0.96502,-4.659925 1.63718,-9.458819 2.56822,-14.130933 0.86412,-4.755415 1.76013,-9.443988 2.36531,-14.287823 0.94718,-4.757613 1.65052,-9.596203 2.80157,-14.268678 0.66187,-4.081192 1.89176,-7.864099 2.46048,-11.977275 0.91084,-4.04656 1.32377,-8.20336 2.25614,-12.24526 0.91646,-4.00354 1.06366,-8.32846 2.22758,-12.25767 0.41831,-4.45316 1.37381,-8.76431 1.54976,-13.24242 0.21709,-4.55427 0.59359,-9.08129 1.37257,-13.51985 0.58918,-4.96035 0.10221,-10.055 0.25948,-15.06715 3e-5,-5.15315 1.1e-4,-10.30631 -2.6e-4,-15.45947 -5.4e-4,-5.15299 -9.8e-4,-10.30596 -0.005,-15.45894 -0.004,-5.15475 -0.0123,-10.3095 -0.004,-15.46424 0.019,-5.17538 0.0392,-10.35652 0.31481,-15.52 0.32633,-5.17349 0.93177,-10.27787 1.49872,-15.40554 -0.005,-5.15298 -0.0159,-10.30602 0.002,-15.45898 0.0309,-4.95267 0.0581,-9.91798 0.44889,-14.84558 0.42429,-4.41956 1.38703,-8.67353 1.64976,-13.10502 0.29999,-4.44748 0.86323,-8.80996 1.61962,-13.14671 0.14473,-4.64063 0.35806,-9.30088 1.1843,-13.81604 0.78824,-4.41302 0.91671,-8.87949 1.47548,-13.35826 0.69931,-4.40235 1.36014,-8.72198 1.5511,-13.2475 0.58137,-4.32254 1.63605,-8.47508 1.79808,-12.90011 0.56223,-4.40483 1.56701,-8.66852 1.59119,-13.18626 0.41677,-4.45709 1.36905,-8.77447 1.53956,-13.25699 0.2127,-4.53655 0.56914,-9.05585 1.42665,-13.45175 0.6694,-4.55033 0.35679,-9.29996 1.13332,-13.85002 0.67105,-4.57048 1.22928,-9.04857 1.17731,-13.75063 0.31181,-4.51577 0.90551,-8.93787 1.70835,-13.33001 0.23428,-5.21067 0.65325,-10.39259 1.409,-15.50826 0.56608,-5.11337 0.30279,-10.34505 0.91102,-15.46641 0.5264,-5.10632 1.39733,-10.15915 1.12574,-15.35812 -1e-5,-5.15356 -8e-5,-10.30711 5.8e-4,-15.46064 8.7e-4,-5.15676 0.002,-10.3135 0.007,-15.47025 0.004,-5.14495 0.0146,-10.29003 -0.009,-15.43493 -0.0372,-4.8942 -0.0757,-9.80037 -0.47031,-14.66849 -0.43567,-4.57328 -1.39274,-9.06825 -1.32739,-13.70324 -0.007,-5.03806 -0.005,-10.07986 -0.19704,-15.11213 -0.22169,-4.5229 -0.62227,-9.00892 -1.38141,-13.42067 -0.5263,-4.7704 -0.19655,-9.64627 -0.71981,-14.43192 -0.45964,-4.36158 -1.4583,-8.53844 -1.80006,-12.9135 -0.43331,-4.51385 -1.38464,-8.92085 -1.45019,-13.48489 -0.15125,-4.5728 -0.3861,-9.15541 -1.18019,-13.61009 -0.73495,-4.55277 -0.78699,-9.14924 -1.22223,-13.77037 -0.57058,-4.66394 -1.44462,-9.24716 -1.12174,-14.03405 1e-5,-5.15317 4e-5,-10.30633 7e-5,-15.45949 2e-5,-5.15344 9e-5,-10.30687 -5.1e-4,-15.46029 -8.2e-4,-5.15631 -0.002,-10.31263 -0.007,-15.46896 -0.004,-5.15106 -0.0146,-10.30218 0.006,-15.4532 0.0337,-4.95287 0.0678,-9.91694 0.44727,-14.84603 0.41196,-4.51163 1.3611,-8.92216 1.37985,-13.47618 0.0579,-4.86918 0.12704,-9.75583 0.63963,-14.58029 0.54553,-4.51018 1.49602,-8.90579 1.33862,-13.53468 0.2171,-4.55428 0.59359,-9.08129 1.37256,-13.51985 0.58915,-4.96036 0.10215,-10.05499 0.25935,-15.06714 -3e-5,-5.15321 -1.3e-4,-10.3064 2e-4,-15.4596 5e-4,-5.15346 9.8e-4,-10.30692 0.005,-15.46037 0.004,-5.15399 0.0131,-10.30801 0.008,-15.46201 -0.0147,-5.14185 -0.0257,-10.28997 -0.29858,-15.42019 -0.32997,-5.10429 -0.93663,-10.13435 -1.71939,-15.13798 -0.25347,-4.31186 -0.67447,-8.5933 -1.8358,-12.63049 -0.97408,-4.31286 -1.51994,-8.98882 -1.58019,-13.50733 -0.0232,-4.91333 -0.0322,-9.8417 -0.42836,-14.72939 -0.43099,-4.18949 -1.30405,-8.14858 -2.18455,-12.17862 -1.16187,-3.85066 -3.18203,-4.93662 -6.09085,-4.68389 -1.22034,0.25446 -1.89869,0.33283 -3.07789,0.82104 -0.4586,0.18987 -1.75146,1.05183 -1.34958,0.68476 14.44813,-13.19676 8.7631,-7.79656 5.86683,-4.60975 -1.67868,2.75125 -3.63145,5.15598 -5.4567,7.70088 -1.68166,2.73854 -3.64538,5.09285 -5.33908,7.8205 -1.58123,3.14719 -3.21398,6.08681 -3.71289,10.03267 -0.41848,4.51814 -1.38372,8.94104 -1.36385,13.5066 -0.005,5.15061 -0.0159,10.30128 0.003,15.45185 0.0333,5.13372 0.0746,10.27754 0.46051,15.38746 0.45145,5.19425 1.36198,10.28163 1.64654,15.49503 0.33257,5.11587 0.94802,10.15538 1.69944,15.17973 0.22312,4.46832 0.61237,8.90688 1.4856,13.22627 0.63847,4.41425 0.52745,9.00691 1.44239,13.3652 0.75503,4.36691 0.87202,8.80851 1.55984,13.19469 0.79761,4.03709 1.60759,8.03587 2.31887,12.10177 1.06146,4.16169 1.72878,8.45328 2.54992,12.72354 0.47907,4.88559 1.40788,9.60086 2.06511,14.42967 0.67744,4.59454 1.78662,9.03215 2.14005,13.72173 0.72898,4.59119 1.53375,9.13108 2.01783,13.79303 0.69758,4.92452 0.59784,9.85757 0.55063,14.86793 5e-4,5.15554 9.8e-4,10.31108 0.005,15.46661 0.004,5.15539 0.0126,10.31078 0.007,15.46615 -0.015,5.01606 -0.0222,10.03898 -0.2944,15.04321 -0.30605,4.50515 -0.89189,8.91959 -1.63395,13.31985 -0.16268,5.21313 -0.44552,10.42155 -1.14207,15.55393 -0.61182,5.0766 -0.6386,10.12781 -0.6074,15.27574 -0.0937,4.7636 -0.2194,9.54966 -0.88306,14.23559 -0.68313,4.49946 -1.2854,8.91079 -1.32872,13.5422 -0.4265,4.55593 -1.40003,8.97419 -1.54859,13.56256 -0.23325,5.19509 -0.64688,10.36285 -1.40551,15.46199 -0.53941,4.79396 -0.28461,9.6977 -0.88503,14.49532 -0.5416,4.58518 -1.46339,9.0665 -1.1673,13.77056 -0.0571,4.86803 -0.12398,9.75439 -0.64288,14.57664 -0.55101,4.46711 -1.52196,8.8103 -1.44027,13.39461 -0.29895,4.46456 -0.86689,8.84374 -1.57059,13.21382 -0.0939,4.76462 -0.2201,9.55173 -0.8852,14.23836 -0.68476,4.50256 -1.28977,8.91667 -1.32838,13.55233 -0.41188,4.49827 -1.35961,8.88738 -1.41177,13.42466 -0.0938,4.77005 -0.22288,9.56013 -0.86962,14.25639 -0.68752,4.72924 -1.22982,9.37159 -1.19481,14.23151 -0.34824,4.99606 -0.94618,9.92774 -1.97969,14.73928 -0.45896,4.30812 -1.47618,8.36529 -2.00542,12.62909 -0.58253,4.61632 -1.59638,9.09728 -1.63477,13.82825 -0.47067,4.90498 -1.39412,9.6447 -1.9908,14.50441 -0.60749,4.86447 -1.62933,9.60283 -1.62231,14.59136 -0.47476,5.83481 -1.32459,11.56847 -1.89953,17.37718 -0.59517,5.19618 -1.71623,10.14358 -2.6816,15.20691 -0.79052,4.27005 -1.26806,8.64869 -2.38679,12.77973 -1.0741,3.89034 -1.63415,8.17247 -2.32338,12.21809 -0.66422,4.55119 -1.85181,8.88122 -2.34697,13.48633 -0.90313,4.4429 -2.09814,8.74413 -2.85625,13.25188 -0.50264,5.25487 -1.48224,10.33033 -2.20118,15.51961 -0.81301,5.26505 -2.13631,10.30054 -3.07912,15.51651 -1.09312,5.08999 -1.91503,10.30364 -3.09009,15.36155 -0.99432,4.74211 -1.77813,9.57976 -3.14592,14.14455 -1.00863,4.79019 -2.17476,9.49077 -3.14403,14.29919 -1.25503,4.77417 -2.25598,9.67949 -3.50098,14.46016 -1.22233,4.29659 -2.19234,8.72683 -3.04251,13.19472 -1.14192,4.47866 -2.40783,8.92925 -3.174,13.57021 -1.055,5.18754 -2.37132,10.26542 -3.62114,15.36177 -1.00145,4.80266 -2.25936,9.50412 -3.57022,14.14912 -1.11607,4.76594 -2.48029,9.3837 -3.38378,14.25654 -0.93904,5.26805 -2.48126,10.21817 -3.49037,15.45662 -0.80521,5.20668 -2.11088,10.18591 -3.07096,15.333029 -0.99858,4.476661 -1.74189,9.066624 -2.89829,13.472834 -0.96606,4.226001 -1.42241,8.594074 -2.52798,12.763794 -1.25429,4.909549 -1.92407,10.146988 -3.08173,15.110578 -1.00288,5.118268 -1.75046,10.309331 -2.82433,15.402472 -0.74884,5.493156 -1.95885,10.814299 -2.72526,16.301919 -1.20934,6.341248 -2.12817,12.776051 -3.49686,19.0574565 -0.80263,4.5615565 -1.63298,9.1117445 -2.62824,13.5999894 -0.62105,5.3207391 -1.79866,10.3729591 -2.82943,15.5446561 -0.99478,5.08532 -1.73684,10.239999 -2.76993,15.313048 -0.59152,4.732305 -1.56933,9.327851 -2.04946,14.086772 -0.72688,4.266517 -1.47179,8.454144 -1.86266,12.819337 -0.78009,4.07725 -1.66287,8.070281 -2.31116,12.195268 -1.01045,3.860518 -1.64866,7.8228 -2.59666,11.720899 -0.49294,4.188503 -1.54026,8.028692 -2.41737,12.049638 -0.85277,3.89073 -1.90943,7.66282 -2.75369,11.55634 -1.13652,3.83892 -1.78595,8.01972 -2.832557,11.91023 -1.028895,4.36998 -2.314946,8.58168 -3.134956,13.05648 -0.668995,4.15707 -1.916336,8.02803 -2.388607,12.25312 -0.896875,4.75985 -1.13278,9.6206 -1.912924,14.4229 -0.799815,4.4674 -1.279119,8.99918 -2.126196,13.45135 -0.851097,4.93728 -0.782005,10.1371 -1.639503,15.09577 -0.498777,5.08808 -0.137081,10.25321 -0.247705,15.37904 -0.0036,5.15479 -0.01015,10.30958 -0.01943,15.46436 -0.0055,5.14772 -0.0267,10.29823 0.122685,15.44276 0.205419,5.10282 0.550933,10.21966 1.73171,15.08493 1.053488,4.32042 2.221802,8.69489 2.61623,13.24801 0.216318,4.35102 -0.854066,8.21679 -1.108126,12.50909 -0.322841,4.53712 -0.933781,8.97503 -1.821419,13.36044 -0.32459,5.12944 -0.911109,10.1917 -1.619449,15.24137 -0.149461,4.65718 -0.382624,9.32238 -1.134943,13.8754 -0.725111,4.83477 -0.632735,9.67021 -0.576245,14.60308 0,5.15319 -10e-7,10.30638 10e-7,15.45957 3e-6,5.1532 6e-6,10.30638 2.9e-5,15.45957 2.3e-5,5.1532 7.3e-5,10.30639 6e-5,15.45957 -6.2e-5,5.15334 -8.9e-5,10.30666 -0.0016,15.46 -0.0018,5.15319 -0.0051,10.30639 -0.01019,15.45971 -0.0033,5.14609 -0.01493,10.29303 0.05808,15.43856 0.102085,5.1404 0.269949,10.29011 0.885534,15.36762 0.624629,5.15819 1.160154,10.26561 1.175454,15.51717 0.366001,5.21177 1.044741,10.33268 1.997484,15.39501 0.478297,4.87686 1.409955,9.58817 2.016117,14.42133 0.581788,4.41118 1.532061,8.71175 1.589654,13.23618 0.44379,4.42245 1.41359,8.69435 1.645289,13.14728 0.326572,4.53347 0.982928,8.9548 1.689874,13.39506 0.23724,5.11632 0.660308,10.20496 1.498618,15.20176 0.599466,4.55644 0.57747,9.24644 1.400811,13.76085 0.69767,4.92487 0.59794,9.85823 0.55138,14.86894 9.8e-4,5.15723 0.004,10.31432 0.009,15.47154 0.004,5.14151 0.0158,10.28329 -0.0267,15.42451 -0.0609,4.86491 -0.1365,9.74623 -0.64904,14.56604 -0.548496,4.59415 -1.479026,9.0824 -1.145673,13.79843 1.27e-4,5.15431 2.45e-4,10.3086 0.002,15.46291 0.0029,5.15806 0.0078,10.31612 0.01301,15.47418 0.002,5.10213 0.01575,10.20607 -0.103307,15.30611 -0.15038,4.6793 -0.378098,9.37779 -1.249449,13.91836 -0.900953,4.84 -1.121889,9.76779 -1.711989,14.7003 -0.609466,5.01044 -0.646408,9.99973 -0.744294,15.07765 -0.240729,4.41146 -0.61129,8.82946 -1.851061,12.93689 -1.13246,4.17507 -1.717909,8.79063 -2.279953,13.17106 -0.522911,5.11299 -1.383893,10.17045 -1.153108,15.37442 -0.06447,5.19661 -0.163456,10.40393 -0.655322,15.56143 -0.518604,5.08237 -1.375552,10.10825 -1.173957,15.28009 -0.09327,4.78086 -0.215963,9.58913 -0.929713,14.28067 -0.777382,4.68709 -1.519486,9.30543 -1.879973,14.10814 -0.720197,4.61766 -1.516532,9.19246 -2.190917,13.82096 -1.024852,4.85781 -1.459859,9.85155 -2.444073,14.73203 -0.968595,5.00293 -1.600674,10.17212 -2.348865,15.24448 -0.654343,4.67929 -1.734953,9.17701 -2.456272,13.83098 -0.982194,4.68499 -1.391735,9.48631 -2.261102,14.21833 -0.773552,4.33299 -1.055094,8.83419 -1.76163,13.19708 -1e-5,5.15305 -2.4e-5,10.30625 -1.06e-4,15.45944 -9e-5,5.1532 -2.75e-4,10.30638 -1.98e-4,15.45943 2.71e-4,5.15556 4.37e-4,10.31097 0.0061,15.4664 0.0069,5.16431 0.01936,10.32864 0.03698,15.49296 0.01011,5.05719 0.05471,10.12523 -0.23344,15.17018 -0.371491,4.50495 -0.969805,8.91445 -3.3184,12.25373 -2.348626,3.17136 -4.444331,6.75436 -6.489792,10.30946 0,0 -9.946591,5.8586 -9.946591,5.8586 z"
       inkscape:connector-curvature="0" />
    <path
       style="fill:#28220b;fill-opacity:1"
       id="path4349"
       d="m 108.88801,-13.35708 c -2.784,-3.289043 -5.7669,-6.203949 -8.70062,-9.216124 -2.727239,-2.629162 -5.498002,-5.11127 -8.353711,-7.450513 -2.569968,-2.143047 -4.281959,-5.392464 -6.164423,-8.554782 -1.829998,-3.111338 -3.449578,-6.398308 -4.961248,-9.839482 -1.041086,-3.544915 -2.820408,-6.457983 -4.084159,-9.816651 -1.48912,-3.200677 -2.647703,-6.66037 -4.035697,-9.954854 -1.707184,-4.172544 -3.068761,-8.577224 -4.564272,-12.90254 -1.152775,-3.764653 -2.441517,-7.44229 -3.774746,-11.085829 -1.035108,-3.879097 -1.832768,-7.895755 -2.656515,-11.885825 -0.470586,-4.23908 -1.502021,-8.26805 -2.155033,-12.44778 -0.337691,-4.47713 -0.857373,-8.83581 -1.566071,-13.22182 -0.817177,-4.53348 -0.637603,-9.2552 -1.179097,-13.83373 -0.807466,-4.41898 -1.231177,-8.9235 -1.471236,-13.46736 0.124047,-4.61911 -0.705699,-9.04167 -1.277184,-13.54118 -0.494717,-4.58364 -0.484083,-9.18476 -1.19364,-13.71738 -0.891691,-4.39016 -0.829491,-9.00078 -1.430564,-13.45015 -0.945531,-4.22443 -1.042714,-8.68856 -1.722973,-12.97836 -1.025254,-4.17046 -1.128073,-8.6157 -1.812285,-12.88012 -0.841623,-4.10592 -1.217011,-8.32134 -2.098036,-12.4079 -0.761252,-4.50909 -1.474782,-9.03111 -2.20609,-13.55497 -0.828609,-5.09003 -1.615433,-10.21797 -2.563174,-15.26844 -0.909545,-5.17156 -1.8645,-10.32207 -2.771799,-15.49558 -0.59309,-5.21554 -1.576183,-10.3116 -2.253889,-15.50386 -0.315383,-4.82685 -0.828986,-9.52949 -1.576707,-14.25435 -0.646367,-4.45195 -0.716984,-8.96602 -1.464579,-13.38724 -0.771246,-4.52887 -1.045824,-9.15585 -1.747016,-13.705 -0.842886,-5.0561 -1.15437,-10.23037 -1.338086,-15.40552 0.106405,-4.82616 -0.247191,-9.48422 -0.915225,-14.19767 -0.671539,-4.6946 -0.837306,-9.48448 -0.949136,-14.25924 -0.08675,-5.12625 -0.07599,-10.25454 -0.07387,-15.3819 0.0044,-5.1579 0.008,-10.31579 0.01002,-15.47368 0.0017,-5.1539 0.0017,-10.3078 0.0018,-15.46171 3.3e-5,-5.15318 -1.9e-5,-10.30634 -4.4e-5,-15.45951 -2.4e-5,-5.15318 -2.8e-5,-10.30636 -3.1e-5,-15.45956 -2e-6,-5.15318 -2e-6,-10.30637 -1e-6,-15.45958 0,-5.15319 0,-10.30638 0,-15.45959 -0.06027,-5.23503 0.824375,-10.36835 1.284681,-15.54256 0.411272,-5.10671 0.475789,-10.25024 0.521283,-15.38438 -0.276698,-4.76854 0.461073,-9.35975 1.051179,-14.00806 0.562049,-4.74859 0.661458,-9.56947 0.736671,-14.37307 0.607883,-5.55554 1.047817,-11.15885 1.714982,-16.70053 0.874021,-5.50953 1.432171,-11.08581 1.729715,-16.71333 -0.05186,-5.27983 0.720427,-10.42625 1.283653,-15.61426 0.525979,-5.08452 0.639992,-10.22552 0.713276,-15.35554 -0.178875,-5.25618 0.211156,-10.38762 0.816609,-15.55756 0.62661,-5.07742 0.832149,-10.2246 0.953347,-15.36773 0.45743,-4.48377 1.177025,-8.88234 1.528676,-13.39257 0.316915,-4.96002 0.334405,-9.94507 0.357063,-14.92143 -0.216398,-5.26129 0.175524,-10.39695 0.780797,-15.57215 0.627357,-5.07997 0.834633,-10.22962 0.956655,-15.37546 0.09036,-5.14497 0.08069,-10.29212 0.07897,-15.43829 -0.06179,-5.22766 -0.10362,-10.39929 0.468227,-15.57144 0.689978,-5.07808 1.019142,-10.22205 1.203279,-15.38043 0.143329,-5.13973 0.138768,-10.28467 0.141384,-15.42751 -0.0019,-5.15294 -0.0071,-10.30586 -0.0099,-15.4588 -0.0023,-5.15335 -0.0026,-10.30669 -0.0028,-15.46004 -0.227905,-5.26271 0.172093,-10.39854 0.782187,-15.57354 0.631573,-5.07653 0.839732,-10.22378 0.96235,-15.3671 0.0908,-5.14479 0.08106,-10.29174 0.07932,-15.43775 -0.06183,-5.22768 -0.103679,-10.39935 0.468159,-15.57153 0.768536,-5.09782 0.84646,-10.32558 1.39322,-15.46149 0.78729,-5.0769 1.27673,-10.21259 1.543276,-15.39306 0.153569,-5.22181 1.03772,-10.32139 1.5064,-15.49684 0.392125,-4.93859 0.28984,-9.88786 0.966679,-14.77311 0.768702,-4.4888 1.059457,-9.08201 1.232589,-13.68192 0.524862,-4.41074 1.238028,-8.74591 1.589383,-13.19947 1.032759,-7.19689 2.4941,-6.06385 10.146226,-11.03257 0.166186,-0.10792 1.536658,3.35339 1.625537,3.58742 0.778233,3.94173 2.581348,5.53122 5.224469,6.53157 3.086886,1.28522 5.087807,3.2235 6.380305,7.45569 1.007421,4.65994 0.9797,9.59105 1.020638,14.41944 -0.360491,4.52497 -1.116858,8.94583 -1.484511,13.47549 -0.297444,5.06168 -1.191526,9.99355 -1.669177,15.02591 -0.405825,4.93711 -0.302344,9.8872 -0.977909,14.7731 -0.767402,4.49159 -1.057845,9.08715 -1.230718,13.68941 -0.144218,5.0789 -0.136651,10.16323 -0.13864,15.2453 0.0023,5.15782 0.0077,10.31565 0.01041,15.47347 0.0023,5.15458 0.0026,10.30918 0.0028,15.46378 1.13e-4,5.15321 4.5e-5,10.30642 1.6e-5,15.45964 -2.9e-5,5.15317 -3.8e-5,10.30635 -4.3e-5,15.45953 -4e-6,5.15319 -3e-6,10.30638 -3e-6,15.45957 0,5.1532 0,10.3064 10e-7,15.4596 0,5.1532 0,10.30639 0,15.45959 0,5.1532 0,10.30638 0,15.45959 -0.07049,5.18168 0.177957,10.37959 -0.188929,15.54071 -0.648573,5.11181 -1.139099,10.24476 -1.402908,15.42506 0.112571,4.75921 -0.663572,9.33606 -1.268829,13.97212 -0.641954,4.67052 -0.477886,9.45336 -0.909921,14.14968 -0.733516,4.40852 -1.198318,8.86547 -1.447819,13.37782 -0.08462,4.52636 -1.024817,8.88322 -1.499071,13.34137 -0.189477,5.00045 -1.007061,9.86518 -1.584491,14.78862 -0.555215,5.07948 -0.664639,10.22324 -0.737165,15.35327 0.08736,4.63343 -0.833417,9.12167 -1.300701,13.67537 -0.432674,4.86685 -0.481759,9.77871 -0.525888,14.67703 0.199717,5.25379 -0.191955,10.38252 -0.796219,15.55031 -0.626758,5.08083 -0.833341,10.23127 -0.95501,15.37781 -0.09005,5.14516 -0.08037,10.29245 -0.07863,15.43879 0.0042,5.15318 0.0079,10.30637 0.01,15.45954 0.0017,5.15331 0.0018,10.30661 0.0019,15.45993 4e-5,5.15319 -1.3e-5,10.3064 -3.8e-5,15.4596 -2.3e-5,5.15319 -2.8e-5,10.3064 -3.1e-5,15.45959 -3e-6,5.15318 -2e-6,10.3064 -2e-6,15.45958 0,5.15319 10e-7,10.3064 10e-7,15.45959 -0.231864,4.81325 0.118236,9.44857 0.785242,14.14818 0.676399,4.69267 0.847246,9.48132 0.961816,14.25537 -0.178667,5.16907 0.592312,10.20644 1.130733,15.28339 0.523037,5.15348 0.643187,10.36147 0.719067,15.55952 0.05199,5.15821 0.04082,10.31716 0.03702,15.47575 -0.0049,5.15301 -0.0074,10.30602 -0.0089,15.45902 -0.0011,5.15311 -0.0011,10.30621 -0.0012,15.4593 6e-6,5.15319 4.6e-5,10.30639 6.6e-5,15.45959 1.8e-5,5.1532 2.1e-5,10.3064 2.2e-5,15.45958 10e-7,5.1532 10e-7,10.3064 10e-7,15.45959 -10e-7,5.1532 -10e-7,10.3064 -10e-7,15.45959 -0.268418,5.19531 0.510712,10.25963 1.053989,15.3605 0.527427,5.14826 0.651275,10.35168 0.729138,15.54534 -0.04374,4.57169 0.882212,9.00074 1.32851,13.50547 0.06656,4.49853 0.970466,8.78425 1.568282,13.16573 0.549428,4.2135 1.355467,8.40031 2.205331,12.51925 0.937601,4.90861 1.861737,9.82401 2.735863,14.75875 1.171059,4.11791 1.991343,8.38455 3.135356,12.51182 1.064177,4.22849 2.122557,8.44726 3.385044,12.56395 1.291948,4.50701 2.452035,9.07873 3.618585,13.65463 1.03863,4.55198 2.395806,8.94982 3.6265,13.40677 1.08401,4.36414 2.421093,8.59681 3.624087,12.90275 0.996381,4.14355 2.256712,8.15392 3.61715,12.07975 1.097759,3.55509 2.346532,7.01341 3.620247,10.45037 1.483119,3.83529 2.928869,7.745511 4.114789,11.790928 1.2374,3.551103 2.60869,7.023054 3.69662,10.674075 1.51094,3.6496 2.53849,7.63669 3.8071,11.45736 1.44105,4.355327 3.10121,8.653623 5.0246,12.622987 1.55546,3.780515 3.23492,7.468058 4.72194,11.310237 1.74074,3.329754 2.87276,7.175427 4.64366,10.470925 1.50226,3.366236 3.05769,6.706036 4.42524,10.196005 1.68939,3.617503 3.42335,7.202739 5.01765,10.90293 0.3035,1.111393 0.6326,2.964104 -0.33253,3.760103 -8.01014,6.6064834 -7.33754,7.7463301 -13.09889,8.1554323 -3.37709,0.5727405 -5.91301,-1.6004984 -8.60904,-4.0733679 -2.34165,-2.4708804 -4.32409,-5.5012824 -6.49047,-8.2495164 -0.3091,-0.479478 -0.61821,-0.958956 -0.92731,-1.438433 0,0 9.16082,-7.915061 9.16082,-7.915061 l 0,0 c 0.29228,0.44294 0.58457,0.885881 0.87686,1.328821 2.08926,2.743949 4.06317,5.668066 6.37574,8.051526 2.58062,2.33845 5.05903,3.916645 8.22346,3.259421 0.90949,-0.130649 3.47235,-1.296653 2.71248,-0.574063 -2.66876,2.53786 -5.56367,4.5654383 -8.26365,7.0356361 -0.36185,0.3310613 1.08376,-0.0832 1.20129,-0.6717497 0.0665,-0.3333572 -0.0746,-0.684913 -0.11186,-1.027369 -1.5177,-3.7758534 -3.34299,-7.3027364 -5.00218,-10.9578464 -1.35699,-3.419358 -2.90516,-6.688101 -4.37293,-10.004902 -1.76205,-3.390919 -2.9562,-7.2576 -4.69457,-10.674216 -1.47928,-3.792828 -3.14944,-7.43447 -4.66632,-11.192236 -1.9259,-4.06367 -3.64343,-8.389877 -5.09601,-12.82962 -1.305519,-3.822463 -2.359512,-7.814895 -3.868047,-11.492518 -1.07688,-3.661191 -2.464956,-7.127396 -3.687524,-10.692834 -1.15531,-4.010409 -2.582745,-7.889182 -4.08333,-11.653523 -1.278229,-3.449841 -2.530718,-6.923231 -3.627629,-10.494151 -1.366048,-3.96735 -2.629891,-8.02077 -3.630682,-12.20482 -1.206745,-4.30539 -2.561195,-8.53231 -3.624405,-12.90988 -1.236088,-4.46855 -2.610329,-8.8741 -3.627555,-13.45215 -1.159066,-4.54524 -2.337907,-9.07065 -3.615736,-13.54917 -1.258777,-4.13705 -2.334735,-8.36561 -3.413357,-12.60296 -1.156442,-4.19566 -1.980102,-8.52843 -3.161546,-12.71661 -0.853927,-4.91418 -1.812931,-9.78801 -2.732823,-14.67487 -0.91031,-4.13986 -1.685275,-8.40713 -2.26681,-12.65395 -0.585597,-4.41163 -1.543148,-8.71158 -1.588414,-13.23979 -0.434799,-4.56925 -1.38973,-9.05111 -1.365219,-13.67932 -0.0658,-5.13453 -0.166404,-10.27983 -0.663829,-15.37383 -0.536487,-5.17049 -1.399288,-10.29423 -1.128924,-15.55869 0,-5.15319 0,-10.30638 0,-15.45959 0,-5.15319 1e-6,-10.3064 0,-15.45959 -10e-7,-5.15318 -3e-6,-10.30639 -2e-5,-15.45958 -1.9e-5,-5.15319 -5.6e-5,-10.3064 -7.2e-5,-15.45959 1.3e-5,-5.15327 -2.5e-5,-10.30654 9.61e-4,-15.45979 0.0013,-5.15335 0.0035,-10.30669 0.0085,-15.46003 0.0042,-5.14945 0.01568,-10.29918 -0.02703,-15.4484 -0.06395,-5.13899 -0.161101,-10.28889 -0.653844,-15.3882 -0.529519,-5.13087 -1.381689,-10.21037 -1.195319,-15.43223 -0.103009,-4.69128 -0.249874,-9.39967 -0.901289,-14.01452 -0.682785,-4.79783 -1.119118,-9.51703 -0.855868,-14.43736 0,-5.15319 0,-10.30639 0,-15.45959 0,-5.15318 -10e-7,-10.3064 1e-6,-15.45958 2e-6,-5.15319 6e-6,-10.3064 2.9e-5,-15.45959 2.4e-5,-5.1532 7.3e-5,-10.30639 5.3e-5,-15.45957 -7.3e-5,-5.15309 -1.17e-4,-10.30615 -0.0017,-15.45923 -0.0019,-5.15315 -0.0052,-10.30629 -0.0099,-15.45944 -0.0027,-5.16074 -0.0135,-10.32222 0.06332,-15.48214 0.106825,-5.20501 0.284026,-10.41763 0.894142,-15.56139 0.600131,-5.10416 1.125637,-10.13612 0.864543,-15.33786 0.03361,-4.94889 0.06756,-9.90902 0.446769,-14.83416 0.413606,-4.52888 1.366751,-8.95698 1.378712,-13.52976 0.06156,-5.19193 0.152334,-10.3972 0.669841,-15.54597 0.54268,-4.92047 1.443994,-9.75076 1.571471,-14.74704 0.417276,-4.45627 1.37074,-8.77252 1.541167,-13.25432 0.212134,-4.54593 0.571842,-9.07161 1.394693,-13.48827 0.633412,-4.66044 0.254157,-9.49211 0.900361,-14.17232 0.557407,-4.61154 1.512383,-9.10953 1.345867,-13.84297 0.238161,-5.20356 0.666308,-10.37493 1.379833,-15.49414 0.498619,-5.08791 0.136876,-10.25282 0.244558,-15.37845 0,-5.15319 0,-10.3064 0,-15.45959 0,-5.1532 0,-10.3064 0,-15.45959 0,-5.1532 0,-10.3064 0,-15.45958 -10e-7,-5.15321 -10e-7,-10.3064 2e-6,-15.45959 4e-6,-5.15318 9e-6,-10.30637 3.8e-5,-15.45955 2.9e-5,-5.15319 9.2e-5,-10.30637 2.2e-5,-15.45956 -1.45e-4,-5.15433 -2.98e-4,-10.30866 -0.0023,-15.46298 -0.0024,-5.15819 -0.0071,-10.31636 -0.01108,-15.47453 -5.8e-4,-5.10178 -0.01076,-10.20514 0.106672,-15.30484 0.145004,-4.66297 0.368304,-9.3374 1.137395,-13.89185 0.763331,-4.85464 0.732735,-9.74001 1.042382,-14.68571 0.438593,-5.032 1.325276,-9.94879 1.662881,-14.98549 0.317542,-4.4968 0.931388,-8.89884 1.55507,-13.3252 -0.03066,-4.63299 0.02039,-9.36245 -0.863187,-13.86119 -1.131129,-3.83113 -3.137943,-5.20975 -5.879126,-6.33316 -2.751137,-1.31144 -4.841138,-3.34842 -5.71154,-7.48718 -0.371566,-0.92768 -0.441323,-1.22501 -0.922634,-1.99515 -2.289076,-3.6627 5.91696,-5.02581 8.90471,-7.46722 0.217106,-0.1774 -0.355128,0.51933 -0.464168,0.83987 -0.181552,0.53368 -0.263687,1.12485 -0.39553,1.68727 -0.300707,4.44252 -0.865219,8.7995 -1.62361,13.13058 -0.145201,4.66069 -0.368639,9.33292 -1.138946,13.8847 -0.764666,4.8518 -0.735117,9.73431 -1.034937,14.67878 -0.433787,5.16369 -1.323835,10.23487 -1.531241,15.42233 -0.239648,5.22301 -0.666163,10.41892 -1.499653,15.52612 -0.661913,5.10711 -0.584915,10.36797 -1.394422,15.45768 -0.617362,5.10009 -0.646999,10.17491 -0.543646,15.34764 0.0027,5.16052 0.0136,10.32179 -0.06383,15.48145 -0.107617,5.20218 -0.286052,10.41211 -0.900838,15.55207 -0.605478,5.10639 -1.139621,10.13976 -0.858901,15.34564 1.69e-4,5.15305 3.62e-4,10.3061 0.0025,15.45913 0.0025,5.15348 0.0073,10.30693 0.01045,15.46039 -6.52e-4,5.16411 0.0064,10.32989 -0.118801,15.49167 -0.16433,5.20851 -0.450175,10.41198 -1.150894,15.53871 -0.61737,5.10005 -0.647027,10.17485 -0.543711,15.34755 0.0027,5.16064 0.01348,10.322 -0.06361,15.48179 -0.107137,5.20426 -0.284915,10.41613 -0.895799,15.559 -0.601203,5.10922 -1.127345,10.14558 -0.852979,15.35252 -0.01566,5.01579 -0.02426,10.03829 -0.294881,15.04237 -0.302329,4.49591 -0.883606,8.90308 -1.579601,13.30742 -0.106342,5.20166 -0.282486,10.4111 -0.892154,15.5516 -0.601445,5.11008 -1.125151,10.14861 -0.883694,15.35656 -0.06246,5.1878 -0.157179,10.38689 -0.652914,15.53492 -0.535988,5.16307 -1.407319,10.25895 -1.325039,15.51153 -0.275196,5.68318 -0.788475,11.32716 -1.707533,16.88003 -0.738625,5.44492 -0.958248,11.01497 -1.751988,16.45625 -0.06014,4.86431 -0.134381,9.74502 -0.642178,14.56531 -0.544294,4.59722 -1.466819,9.08988 -1.153396,13.80704 -0.03774,5.18306 -0.08938,10.37486 -0.469992,15.5348 -0.426531,5.13162 -1.320411,10.20581 -1.341507,15.37662 -10e-7,5.15321 -10e-7,10.3064 -10e-7,15.45959 0,5.15321 -10e-7,10.3064 10e-7,15.45959 3e-6,5.15318 7e-6,10.30637 2.9e-5,15.45955 2.4e-5,5.15317 7.5e-5,10.30636 5.2e-5,15.45954 -7.4e-5,5.15415 -1.21e-4,10.3083 -0.0017,15.46246 -0.0019,5.15796 -0.0053,10.31592 -0.01,15.47389 -0.0027,5.11125 -0.01401,10.22329 0.06395,15.33366 0.100514,4.69189 0.242784,9.40121 0.888362,14.01811 0.679127,4.79063 1.115639,9.51025 0.962292,14.42185 0.161005,5.0941 0.430821,10.19415 1.257678,15.17234 0.719552,4.53477 1.04474,9.12462 1.764621,13.65808 0.764415,4.43356 0.881849,8.93291 1.469053,13.41521 0.743257,4.7535 1.312931,9.4652 1.566811,14.33105 0.647778,5.17329 1.669547,10.2245 2.220037,15.4231 0.886815,5.16919 1.876175,10.29402 2.758184,15.46381 0.98984,5.05055 1.728943,10.2228 2.595602,15.31517 0.71793,4.48797 1.493279,8.94481 2.200544,13.43166 0.89558,4.12129 1.292461,8.35521 2.126972,12.50339 0.720402,4.255 0.772065,8.71494 1.813282,12.88355 0.719651,4.29441 0.767695,8.78708 1.735678,13.02267 0.641989,4.42824 0.536655,9.03214 1.420489,13.41487 0.731241,4.55732 0.776708,9.15704 1.211715,13.78142 0.564543,4.55298 1.457145,9.01854 1.315498,13.69125 0.221528,4.49469 0.614066,8.95664 1.433889,13.32082 0.5853,4.54631 0.371686,9.24294 1.158701,13.76149 0.704497,4.39348 1.292547,8.73892 1.570127,13.23563 0.628139,4.1553 1.689848,8.13614 2.126695,12.35174 0.792326,3.90189 1.603056,7.806 2.563907,11.617862 1.334249,3.657667 2.621281,7.35299 3.762767,11.13882 1.46619,4.295653 2.803342,8.665756 4.529699,12.77185 1.422812,3.298545 2.579691,6.787639 4.078275,10.01453 1.251059,3.325622 3.025322,6.211002 4.046342,9.728953 1.486399,3.377895 3.070431,6.612411 4.870296,9.667844 1.793002,3.053777 3.502823,6.080437 5.975732,8.110978 2.84553,2.421264 5.64211,4.912318 8.36281,7.609045 2.99565,3.051453 6.00107,6.085989 8.88923,9.33937 0,0 -9.17962,7.999058 -9.17962,7.999058 z"
       inkscape:connector-curvature="0" />
    <path
       style="fill:#22280b;fill-opacity:1"
       id="path4351"
       d="m 201.4264,-450.39438 c -4.78421,-1.31731 -9.59461,-2.46428 -14.35919,-3.93248 -6.52858,-2.24498 -13.16496,-3.62197 -19.74573,-5.45127 -5.03394,-1.51355 -10.12937,-2.44555 -15.25587,-2.90186 -3.19041,-0.99931 -6.36571,-1.94888 -9.61714,-2.40092 -2.95381,-1.11969 -5.90336,-2.14262 -8.82791,-3.40806 -3.1403,-0.98906 -6.23306,-2.31437 -9.22018,-4.05126 -3.20667,-1.79297 -6.56182,-3.05063 -9.71695,-5.02428 -2.80279,-1.4593 -5.56818,-3.07773 -8.40193,-4.41491 -2.63015,-1.37481 -5.4131,-2.32436 -8.007049,-3.84748 -2.599752,-1.35934 -5.136853,-2.95437 -7.642255,-4.65934 -2.724205,-1.74166 -5.331276,-3.85737 -7.951892,-5.91402 -2.73823,-2.27418 -5.387584,-4.74536 -7.904318,-7.52063 -2.717349,-2.97196 -5.593589,-5.65282 -8.306012,-8.63136 -2.5798,-2.56292 -4.890927,-5.65799 -7.44902,-8.27125 -2.530196,-3.05301 -5.23498,-5.78441 -7.956561,-8.45573 -2.283073,-2.80731 -4.71817,-5.33948 -7.180228,-7.79626 -2.407713,-1.87641 -4.739756,-4.04486 -6.757852,-6.73859 -2.237654,-2.49184 -3.874653,-5.92999 -5.498174,-9.2412 -1.81482,-3.4025 -3.82513,-6.5301 -5.758759,-9.78786 -2.078808,-3.7533 -3.9616,-7.67192 -5.720386,-11.758 -1.963145,-4.69367 -3.448257,-9.72169 -4.853054,-14.80908 -0.908275,-4.71159 -2.193293,-9.24641 -3.003373,-13.99935 -1.17772,-3.9993 -1.87392,-8.14765 -2.256783,-12.44979 -0.2560486,-4.41976 -1.1692299,-8.6663 -1.6134767,-13.05406 -0.3716297,-4.68594 -0.2966332,-9.36289 -0.9595732,-13.98941 -0.7575367,-4.55619 -1.0199022,-9.22492 -1.1819574,-13.89263 -0.1336714,-5.10436 -0.1258216,-10.21363 -0.1270877,-15.32083 -0.078968,-5.13175 0.1980795,-10.28583 -0.1718636,-15.39588 -0.6437627,-5.13282 -1.1098935,-10.29272 -1.36565,-15.49631 -0.2085253,-5.16197 -0.2158368,-10.33495 -0.2262797,-15.504 -0.00318,-5.15394 0.00372,-10.30788 0.00704,-15.46182 0.00306,-5.15301 0.00361,-10.30602 0.00398,-15.45904 2.433e-4,-5.15317 1.697e-4,-10.30633 1.415e-4,-15.45951 -3.25e-5,-5.15321 -4.56e-5,-10.30639 -5.32e-5,-15.4596 -5.9e-6,-5.15319 -5.5e-6,-10.30638 -5.6e-6,-15.45959 -0.2219583,-5.26269 0.1677433,-10.3985 0.7621945,-15.57349 0.6153835,-5.07654 0.8182057,-10.22379 0.9376809,-15.36711 -0.047192,-4.62903 0.8559831,-9.10626 1.3141927,-13.65691 0.2000734,-4.9877 0.6593528,-9.87934 1.2740673,-14.79075 0.7199325,-5.08594 0.6668886,-10.29907 1.1354047,-15.42398 0.7132055,-5.09339 1.1820405,-10.23159 1.4364795,-15.41394 0.14651,-5.22271 1.009656,-10.32291 1.467044,-15.49875 0.40227,-5.1057 0.458141,-10.24912 0.499066,-15.38232 0.113607,-5.07406 -0.180359,-10.17362 0.17923,-15.2275 0.651093,-4.44423 1.119766,-8.91379 1.366871,-13.44311 0.217962,-5.02941 0.22138,-10.07149 0.232205,-15.10883 0.02861,-5.14075 0.585199,-10.34144 1.414474,-15.33741 2.78332,-8.32018 9.819681,-12.66408 16.007701,-13.55584 3.368182,-0.51907 6.595794,-0.27565 9.765438,1.49707 3.180371,1.72495 5.980303,4.62046 8.804824,7.30825 2.54582,2.99859 5.188663,5.81529 7.878394,8.52744 2.300142,2.38942 4.060638,5.40407 5.648261,8.7758 1.955149,3.22503 3.513022,6.9002 4.923864,10.66709 2.123023,4.53952 2.958819,9.78749 3.958009,14.97753 1.108823,5.07683 1.595869,10.33937 1.870256,15.63147 0.115612,5.08966 0.393245,10.22007 0.02956,15.2957 -0.380022,4.27462 -1.223783,8.34191 -2.126167,12.42336 -0.550056,4.14668 -1.533131,8.12185 -2.207101,12.22255 -1.102064,3.98244 -1.693419,8.14963 -2.396992,12.29789 -0.962655,4.67878 -1.299638,9.53406 -2.194942,14.2328 -0.941661,4.43176 -1.22942,9.04463 -1.407189,13.65149 -0.09602,5.1657 -0.937738,10.21758 -1.380647,15.33465 -0.395788,5.11206 -0.452832,10.26043 -0.494174,15.3991 -0.02537,5.15163 -0.01496,10.30347 -0.01065,15.45519 0.0046,5.15341 0.0061,10.30683 0.007,15.46026 6.87e-4,5.15323 6.23e-4,10.30646 6.13e-4,15.45969 -0.228686,5.19085 0.1716,10.24639 0.758301,15.34852 0.318831,4.83541 0.92354,9.52348 1.704475,14.23543 0.371254,4.30836 1.399562,8.37507 2.04711,12.59422 0.633943,4.83047 1.529576,9.55304 2.02263,14.42784 0.525036,4.88063 1.663508,9.473 2.717127,14.13552 0.795313,4.17639 1.946134,8.20006 3.00254,12.25184 0.928232,4.1213 2.148481,8.09546 3.461413,11.98387 1.071012,3.55656 2.28957,7.01603 3.531881,10.4545 0.875635,3.61194 2.606623,6.51708 3.827936,9.85284 1.48138,3.05811 2.393472,6.56979 3.929031,9.57507 1.627936,3.50401 3.267686,6.97936 4.931066,10.44948 1.842602,3.99474 3.953321,7.67212 6.006144,11.42982 2.10551,3.67486 3.93107,7.67126 6.13843,11.21877 1.61268,3.22537 3.19156,6.48326 4.80568,9.71264 1.24877,3.18788 2.62943,6.30727 4.34936,8.99913 1.47683,3.02289 2.96005,6.03433 4.46605,9.03315 1.65556,2.77297 3.3617,5.4359 5.25163,7.87481 2.38734,2.22147 4.35593,5.25351 6.81543,7.3018 2.16081,2.14047 4.45468,4.13867 6.87553,5.59734 2.42814,2.32242 5.12384,3.8889 7.65853,5.89981 2.9375,1.92927 5.86941,3.89183 8.82665,5.7651 2.95925,1.60985 5.82246,3.56862 8.65258,5.60808 2.63897,1.42082 5.29867,2.77738 7.88763,4.39979 2.9492,1.37022 5.68839,3.45092 8.68414,4.61587 2.63238,1.32628 5.09009,3.21943 7.68974,4.64563 3.11399,1.40787 6.20746,2.90407 9.30211,4.41096 3.22298,0.99039 6.25073,2.87893 9.45836,3.94779 2.63485,0.83136 5.33973,0.60751 7.97079,1.3889 0,0 -8.53551,8.71797 -8.53551,8.71797 l 0,0 c -2.65971,-0.58984 -5.37716,-0.52244 -8.00477,-1.46756 -3.19605,-1.19404 -6.26991,-2.97554 -9.48513,-4.07783 -3.11454,-1.52591 -6.25547,-2.91967 -9.37255,-4.43461 -2.54118,-1.51232 -5.00618,-3.27256 -7.61764,-4.53849 -2.98833,-1.31183 -5.78792,-3.33668 -8.75203,-4.75823 -2.64119,-1.51875 -5.30464,-2.94879 -7.93923,-4.48035 -2.79995,-2.05327 -5.67061,-3.91205 -8.58743,-5.58124 -2.97296,-1.91791 -5.97328,-3.76083 -8.89632,-5.83148 -2.5514,-1.90997 -5.15702,-3.65141 -7.63003,-5.78936 -2.42009,-1.61389 -4.75228,-3.57404 -6.94662,-5.76479 -2.44255,-2.23298 -4.52258,-5.18702 -6.91467,-7.53802 -1.95065,-2.49569 -3.69276,-5.27201 -5.38121,-8.14169 -1.49411,-2.94604 -2.92982,-5.94454 -4.41129,-8.89469 -1.70613,-2.78385 -3.1462,-5.89409 -4.40382,-9.14348 -1.60053,-3.18328 -3.126995,-6.43431 -4.729532,-9.60788 -2.175719,-3.62401 -4.035772,-7.61443 -6.173754,-11.28669 -2.061506,-3.78431 -4.126086,-7.55098 -6.027417,-11.51439 -1.677092,-3.4444 -3.300445,-6.92972 -4.95177,-10.39819 -1.53355,-3.09467 -2.517061,-6.62411 -3.999793,-9.76593 -1.221253,-3.33523 -2.962815,-6.24265 -3.830474,-9.86051 -1.246698,-3.45143 -2.468739,-6.92608 -3.539318,-10.49828 -1.32102,-3.93541 -2.547682,-7.95786 -3.486247,-12.12343 -1.070232,-4.06924 -2.258899,-8.10201 -3.03272,-12.31349 -1.052195,-4.75507 -2.202048,-9.43029 -2.781981,-14.38249 -0.463881,-4.84645 -1.358129,-9.52295 -2.013604,-14.30703 -0.626915,-4.21924 -1.689752,-8.26363 -2.034841,-12.5716 -0.776622,-4.75412 -1.427282,-9.46631 -1.710035,-14.3501 -0.597653,-5.17873 -1.106812,-10.29391 -0.840667,-15.57065 1.6e-5,-5.15313 9e-5,-10.30625 -4.98e-4,-15.45937 -8.06e-4,-5.15296 -0.0021,-10.30594 -0.0066,-15.45892 -0.0044,-5.15711 -0.01444,-10.31429 0.0052,-15.47135 0.0341,-5.18769 0.07942,-10.38422 0.443895,-15.54967 0.409187,-5.09519 1.255404,-10.11106 1.403635,-15.23274 0.148392,-4.69529 0.369284,-9.41665 1.286396,-13.95082 0.948225,-4.686 1.332541,-9.49081 2.215277,-14.20725 0.773548,-4.09401 1.070905,-8.38378 2.397646,-12.24066 0.602552,-4.17296 1.709838,-8.1088 2.163921,-12.32892 0.836674,-4.05316 1.855068,-7.96649 2.218263,-12.20557 0.574012,-4.94672 0.113845,-10.03759 0.08837,-15.03148 -0.241129,-5.19682 -0.673067,-10.37498 -1.763989,-15.35977 -1.005716,-5.06881 -1.720508,-10.25721 -3.856743,-14.67117 -1.404649,-3.72105 -3.002753,-7.27978 -4.911553,-10.4976 -1.527376,-3.21426 -3.217118,-6.07603 -5.43098,-8.3378 -2.649987,-2.76174 -5.297224,-5.52838 -7.835616,-8.50967 -2.757415,-2.65427 -5.556846,-5.35964 -8.688208,-6.9798 -3.105351,-1.44204 -6.255149,-1.53863 -9.483452,-0.92714 -4.651018,1.03575 -6.80914,4.62768 4.638062,-5.82139 1.264378,-1.15413 -3.872226,2.76028 -2.904481,3.76367 -1.007164,4.78936 -1.40937,10.00466 -1.55129,14.98834 -0.0064,5.06612 -0.0046,10.13576 -0.187432,15.19638 -0.210752,4.5535 -0.576361,9.07983 -1.330725,13.51904 -0.569374,4.96465 -0.0844,10.05987 -0.256815,15.07523 -0.03355,5.18343 -0.07748,10.37617 -0.447811,15.53664 -0.423329,5.16348 -1.292068,10.23458 -1.491981,15.42219 -0.229114,5.21837 -0.638081,10.40893 -1.400856,15.52532 -0.586038,5.11305 -0.394092,10.36357 -1.120105,15.4644 -0.602428,4.89432 -1.181581,9.73161 -1.271406,14.71884 -0.405406,4.53229 -1.337711,8.95427 -1.384264,13.52788 -0.104859,5.20216 -0.27872,10.41209 -0.877745,15.55205 -0.589958,5.10642 -1.110373,10.13981 -0.836918,15.34569 0,5.1532 0,10.3064 5e-6,15.45959 7e-6,5.15319 1.8e-5,10.30639 5e-5,15.45959 3e-5,5.15322 1.03e-4,10.30643 -9.2e-5,15.45966 -3.11e-4,5.15338 -7.43e-4,10.30675 -0.0036,15.46014 -0.0031,5.15241 -0.0096,10.3048 -0.0086,15.45723 0.0071,5.13914 0.0088,10.28165 0.194457,15.4152 0.232893,5.18247 0.66186,10.32864 1.340817,15.43023 0.463241,5.15265 0.144708,10.3666 0.229632,15.55381 1.6e-4,5.08327 -0.0091,10.16831 0.112241,15.24925 0.147132,4.58809 0.379511,9.18261 1.124221,13.6615 0.687724,4.66111 0.673479,9.34766 0.984779,14.08293 0.426028,4.40466 1.354068,8.65435 1.620424,13.08061 0.353275,4.25523 1.027333,8.34896 2.203954,12.29491 0.766071,4.70131 2.039514,9.17294 2.897963,13.83661 1.370926,5.00859 2.831977,9.95085 4.77156,14.55803 1.74855,4.00007 3.604381,7.85668 5.653275,11.54443 1.975012,3.26762 4.003943,6.44244 5.825732,9.89923 1.5914,3.22655 3.206045,6.51632 5.397613,8.94045 2.031921,2.58557 4.327683,4.66506 6.669513,6.59979 2.434781,2.50801 4.88562,4.99058 7.16865,7.79346 2.697037,2.73495 5.418623,5.43012 7.949412,8.49324 2.542824,2.66522 4.916941,5.6549 7.471726,8.29113 2.734854,2.93444 5.563982,5.69317 8.293592,8.63916 2.518022,2.6676 5.133781,5.12194 7.859928,7.3106 2.583722,2.07542 5.193721,4.11619 7.898697,5.8276 2.521897,1.59517 5.017557,3.26691 7.618717,4.56949 2.63718,1.35365 5.32597,2.52829 7.98018,3.80649 2.82425,1.43888 5.63697,2.92903 8.42022,4.5216 3.18428,1.85258 6.49703,3.21615 9.70497,4.98317 3.00321,1.58739 6.05039,2.95215 9.16978,3.95887 2.87825,1.22569 5.79824,2.22402 8.72338,3.17632 3.22202,0.52785 6.36236,1.58837 9.55125,2.40423 5.1185,0.56747 10.19507,1.6428 15.22459,3.15177 6.59458,1.80217 13.21779,3.34585 19.77407,5.45134 4.82398,1.40454 9.68116,2.57703 14.53428,3.74502 0,0 -8.59006,8.735 -8.59006,8.735 z"
       inkscape:connector-curvature="0" />
    <path
       style="fill:#22280b;fill-opacity:1"
       d="m 221.77398,-950.9283 c -16.71973,9.43359 -16.95617,39.46767 -15.49604,61.0263 2.20787,53.0721 14.33212,104.04888 18.64161,156.36596 2.2234,72.48919 -9.24553,143.93783 -13.07052,215.83554 -8.57102,105.86138 -24.33067,210.32992 -47.43531,311.48958 -12.69751,58.18129 -28.4047,115.390692 -36.80569,175.128167 -1.25918,6.656225 6.06212,13.132811 3.85044,17.633592 -15.0806,9.2889907 -12.88568,37.181088 -17.66673,55.557891 -11.27028,69.65356 -35.793484,139.23913 -25.707364,212.40832 3.308931,29.97129 -4.509406,60.09312 -3.613768,90.50215 -1.434231,60.77125 0.570925,121.92778 10.310182,181.2939 6.4176,59.75723 2.536415,121.25576 -0.698177,181.1812 -4.136307,32.81183 -6.775806,65.83903 -9.528609,98.78108 -5.594473,50.01601 -17.695227,98.99506 -14.985724,150.28417 0.672545,18.78271 0.208685,39.2562 -10.655473,52.56545 -4.510509,4.3164 -10.107823,19.7521 -0.612731,19.2572 21.48623,9.6027 43.904164,13.7437 66.549804,14.4404 13.32544,6.9181 16.42973,-7.8365 14.02635,-23.8611 4.79279,-144.47692 36.80734,-283.36514 54.35918,-425.13863 4.63123,-48.28475 6.88124,-98.04587 1.6421,-146.38308 -5.13126,-38.91363 -18.79529,-76.58813 -17.07927,-116.60218 13.61071,-65.40066 9.48975,-134.67518 11.86997,-202.00741 1.1438,-55.380476 0.11014,-111.366391 11.24042,-165.012451 7.26948,-49.028057 20.42794,-97.010909 19.563,-147.966549 1.08601,-50.15885 0.92367,-100.66591 8.9563,-149.83281 9.46497,-81.7083 18.95838,-164.77023 11.22535,-247.66061 -5.07534,-49.64507 -8.79453,-99.45382 -7.05558,-149.9511 2.93327,-64.60739 9.05769,-130.40909 -0.89526,-194.61574 -1.0958,-8.93267 -1.55829,-26.18506 -10.92846,-24.71924 z"
       id="path4357"
       inkscape:connector-curvature="0" />
    <path
       style="fill:#22280b;fill-opacity:1"
       d="m 42.348921,-314.46601 c -4.196518,35.66808 2.409071,75.81232 5.93988,112.22408 11.114582,76.56814 31.512832,164.050118 76.568749,197.6223363 C 136.88924,-15.690049 120.95466,-38.370858 118.2377,-52.798462 89.012479,-134.57747 70.656859,-227.59693 47.235847,-313.97175 c -1.046232,-3.17226 -3.26234,-0.30686 -4.886926,-0.49426 z"
       id="path4359"
       inkscape:connector-curvature="0" />
    <path
       style="fill:#22280b;fill-opacity:1"
       d="m 44.043699,-738.28136 c -8.306428,12.36904 -4.780595,37.69563 -7.425996,55.1617 -1.354045,41.10889 -4.718247,84.04645 -1.530072,124.23025 24.143252,32.97149 51.458047,57.37242 81.139289,70.44187 26.99963,12.91047 55.01714,25.66966 82.67654,28.76379 5.77964,-20.49557 4.8399,-45.91121 6.88414,-68.32863 -4.87326,-17.22569 -19.3704,-12.32591 -27.8039,-21.48477 -26.03911,-17.87585 -54.02138,-34.36627 -76.5276,-63.5151 -19.965466,-38.58959 -36.346252,-82.20546 -53.60273,-123.97769 -1.112176,-1.26133 -2.506475,-1.93318 -3.809671,-1.29142 z"
       id="path4361"
       inkscape:connector-curvature="0" />
    <path
       style="fill:#22280b;fill-opacity:1"
       d="m 54.497626,-717.10202 c -2.918256,53.63425 -6.393524,107.36489 -10.483259,160.63479 -0.03941,8.23674 9.987396,20.86647 13.131661,10.62847 2.484607,-42.83321 6.345412,-85.35745 9.159058,-128.02472 -1.01598,-15.59671 -3.421388,-32.00302 -7.834856,-45.97617 -2.019399,-0.80462 -2.982177,0.37232 -3.972604,2.73763 z"
       id="path4363"
       inkscape:connector-curvature="0" />
    <path
       style="fill:#22280b;fill-opacity:1"
       d="m 37.575639,-543.71627 c -3.456638,68.05441 -3.523688,137.17037 2.041355,204.91026 3.344765,27.00213 6.059795,55.32011 12.567674,80.73357 9.347404,-4.13822 2.032975,-28.28828 4.544067,-40.17507 1.876607,-60.65653 -2.134995,-121.08875 -2.989043,-181.65713 -0.828283,-17.96543 1.548513,-36.98322 -1.215279,-54.27658 -4.415359,-2.46227 -10.271679,-16.46179 -14.948774,-9.53505 z"
       id="path4365"
       inkscape:connector-curvature="0" />
    <path
       style="fill:#22280b;fill-opacity:1"
       d="m 30.408339,-983.21223 c -10.167779,5.39227 -5.329609,23.12282 -7.835383,33.60585 -3.769012,66.10669 -14.2823496,131.4383 -11.681844,198.02253 1.384746,57.9786 -2.9031057,118.25994 13.177689,173.91031 4.58923,9.61553 7.893042,23.7557 17.309074,27.80884 10.439183,-5.98716 5.63642,-25.1095 8.761385,-36.2103 11.651706,-119.38095 7.202085,-240.60692 23.007531,-359.24662 -6.335297,-19.04611 -23.506034,-32.49233 -39.889222,-37.89061 -0.943039,-0.11549 -1.907476,-0.14416 -2.84923,0 z"
       id="path4367"
       inkscape:connector-curvature="0" />
    <path
       style="fill:#22280b;fill-opacity:1"
       d="m 64.649834,-844.32155 c -5.315899,12.63715 -2.022775,30.33038 -3.420853,44.84891 0.703825,21.90179 -2.285409,46.42545 3.420853,66.74999 8.129754,3.62023 4.31235,-15.31983 5.31346,-22.38407 -0.389053,-29.01038 1.218055,-58.80773 -1.451206,-87.36291 -1.308293,-0.39003 -2.311351,-3.71196 -3.862254,-1.85192 z"
       id="path4369"
       inkscape:connector-curvature="0" />
    <path
       style="fill:#1e3a16;fill-opacity:1"
       id="path4381"
       d="m 112.96406,799.70105 c 0.0999,-5.95017 0.89855,-11.82562 1.34104,-17.73932 0.39462,-7.14786 1.75203,-14.09256 2.66109,-21.12855 1.06658,-10.22582 2.15588,-20.4348 2.7968,-30.73534 0.50499,-9.6985 1.42025,-19.32952 1.88872,-29.0372 0.35822,-9.7074 1.30487,-19.33758 1.7935,-29.03454 0.34263,-7.71344 0.43287,-15.44288 0.46074,-23.16953 0.007,-5.74466 -0.0119,-11.48933 -0.0218,-17.23384 -0.008,-5.16224 -0.01,-10.32447 -0.0107,-15.48671 -0.26678,-5.25253 0.50339,-10.37804 1.05672,-15.53499 0.52689,-5.08932 0.64895,-10.23445 0.72626,-15.36955 -0.0827,-4.63032 0.84009,-9.11426 1.30821,-13.66485 0.56294,-4.72131 1.65921,-9.20484 2.74633,-13.71286 0.82562,-4.19023 1.98916,-8.23366 3.10041,-12.28504 1.59696,-5.55487 3.05424,-11.18336 4.55187,-16.79208 1.28232,-5.3708 2.64179,-10.6879 4.14577,-15.9421 1.37673,-5.11451 2.64255,-10.28162 3.94007,-15.43759 1.09648,-5.12118 1.99875,-10.32545 3.12606,-15.4348 1.10463,-5.09643 2.09155,-10.25032 3.03839,-15.41255 0.60808,-3.92587 1.41548,-7.82182 2.35984,-11.61441 3.29161,-2.09455 6.45295,-4.66551 9.87485,-6.28366 0.18595,-0.0877 0.39871,9.49007 0.39855,10.12341 -0.0252,5.69151 -0.0619,11.38274 -0.0706,17.07453 -0.0194,7.10277 -0.0368,14.20554 -0.0513,21.3083 7.9e-4,8.25677 -0.0125,16.51353 -2.6e-4,24.77044 -0.10385,9.22905 0.1683,18.46603 -0.22647,27.68201 -0.74538,9.15057 -0.94899,18.36765 -1.60045,27.52589 -0.91931,8.77032 -1.0979,17.64763 -1.78983,26.44605 -0.76413,7.49959 -1.23445,15.0309 -2.10247,22.50738 -0.49531,6.91327 -1.60326,13.67502 -2.44013,20.50884 -0.23692,4.93433 -1.17244,9.67108 -1.87259,14.48839 -0.2514,2.2376 -0.43359,4.46544 -0.74944,6.68718 0,0 -9.64201,6.59325 -9.64201,6.59325 l 0,0 c 0.4155,-2.19919 0.57451,-4.38545 0.77285,-6.64488 0.64547,-4.84569 1.758,-9.53292 1.93921,-14.4941 0.82984,-6.85135 2.05804,-13.59348 2.50828,-20.5336 0.80763,-7.47607 1.41658,-14.96925 2.12774,-22.46772 0.84669,-8.77464 0.84867,-17.6962 1.85819,-26.45733 0.6611,-9.14167 0.81338,-18.34777 1.61576,-27.47539 0.44511,-9.1695 0.1492,-18.37238 0.20661,-27.55914 0.0119,-8.25677 -0.002,-16.51354 -2.6e-4,-24.7703 -0.0131,-7.08566 -0.0303,-14.17117 -0.0261,-21.25696 0.015,-5.67969 0.02,-11.35937 0.0316,-17.03906 -0.0268,-13.05139 -2.62575,-7.54341 9.07847,-17.06311 -1.53541,3.2025 -1.74245,7.80374 -2.58689,11.40305 -0.9101,5.20384 -1.96487,10.35773 -3.01195,15.50549 -1.21241,5.07987 -2.05706,10.32531 -3.11617,15.4707 -1.28133,5.18422 -2.5884,10.34687 -3.92558,15.5009 -1.48823,5.26339 -2.95899,10.52024 -4.16634,15.93194 -1.55043,5.55696 -2.9231,11.21217 -4.50593,16.75326 -1.06842,4.05652 -2.30071,8.05071 -3.11211,12.21966 -1.01784,4.47267 -2.26853,8.79605 -2.83573,13.46324 -0.41425,4.52638 -1.36872,8.95035 -1.38554,13.52043 -0.0663,5.19173 -0.16849,10.39404 -0.66689,15.54542 -0.52578,5.09753 -1.39676,10.14151 -1.12512,15.33157 8.1e-4,5.16307 0.002,10.32613 0.005,15.48921 9.8e-4,5.76191 0.004,11.52382 -0.0284,17.28546 -0.0548,7.78064 -0.14514,15.56281 -0.53348,23.32731 -0.47381,9.70337 -1.40377,19.33786 -1.81022,29.04137 -0.45383,9.71629 -1.29204,19.3661 -1.87942,29.05889 -0.58712,10.33699 -1.81234,20.54306 -2.70544,30.82884 -0.87609,6.98214 -2.11818,13.89806 -2.59748,20.95964 -0.42728,5.83802 -1.26179,11.6535 -1.28516,17.52101 0,0 -9.57586,6.93804 -9.57586,6.93804 z"
       inkscape:connector-curvature="0" />
    <path
       style="fill:#1e3a16;fill-opacity:1"
       id="path4891"
       d="m 162.72431,419.03707 c 1.40952,5.22261 2.856,10.42144 3.87376,15.83204 1.10343,4.67678 2.39413,9.26119 3.43602,13.96595 1.04905,3.98764 2.45231,7.74418 3.58354,11.67618 1.19313,4.17728 2.50569,8.28918 3.62651,12.50793 1.1634,3.60864 2.53501,7.07814 3.62157,10.73381 1.12485,4.434 1.26685,9.17158 1.39317,13.83348 0.091,5.13442 0.0668,10.27119 0.0582,15.40656 -0.0103,5.16085 -0.015,10.32169 -0.0176,15.48254 -0.002,5.15402 -0.002,10.30792 -0.002,15.46194 0.13319,4.63477 -0.79737,9.1272 -1.26925,13.67862 -0.63509,4.37334 -1.81862,8.51598 -2.76758,12.75657 -0.33039,2.27085 -0.89522,4.4457 -1.44427,6.6215 0,0 -9.69155,6.42796 -9.69155,6.42796 l 0,0 c 0.55741,-2.16009 1.24644,-4.26341 1.48285,-6.56139 0.87169,-4.21486 2.03272,-8.28348 2.8319,-12.53353 0.41757,-4.51734 1.38113,-8.9409 1.35664,-13.50568 2e-5,-5.15431 -8e-5,-10.30861 0.002,-15.46292 0.003,-5.16182 0.007,-10.3235 0.017,-15.48517 0.009,-5.11619 0.0328,-10.23347 -0.0464,-15.34882 -0.10851,-4.48047 -0.20698,-9.04261 -1.24648,-13.32231 -1.08023,-3.68099 -2.47331,-7.16106 -3.62751,-10.79808 -1.09784,-4.21431 -2.40067,-8.32161 -3.62298,-12.46272 -1.12734,-3.98069 -2.54905,-7.77577 -3.59489,-11.81198 -1.02891,-4.73786 -2.36314,-9.327 -3.4288,-14.05053 -0.96144,-5.31655 -2.35999,-10.42953 -3.87463,-15.47099 0,0 9.35086,-7.57096 9.35086,-7.57096 z"
       inkscape:connector-curvature="0" />
    <path
       style="fill:#1e3a16;fill-opacity:1"
       id="path4893"
       d="m 96.975883,508.53816 c 1.291828,-4.61432 2.657501,-9.1279 4.411247,-13.43125 1.72592,-4.12761 3.58641,-8.13125 5.59837,-11.98853 1.96046,-4.08963 4.08909,-7.99018 6.37837,-11.71361 1.81624,-3.54603 3.60454,-7.09317 5.60401,-10.43466 1.98325,-3.50151 3.8731,-7.10306 5.87332,-10.58814 1.72987,-2.874 3.60785,-5.55126 5.4564,-8.26762 0,0 9.88846,-5.90007 9.88846,-5.90007 l 0,0 c -1.73136,2.85939 -3.74478,5.34812 -5.5028,8.17913 -1.92833,3.57622 -4.01717,6.97017 -5.87278,10.63014 -1.95329,3.40328 -3.9696,6.71528 -5.60932,10.46278 -2.23856,3.76865 -4.56774,7.43559 -6.42132,11.63444 -2.04013,3.78423 -3.88419,7.74863 -5.63125,11.80975 -1.74143,4.26146 -3.38361,8.53489 -4.36901,13.30046 0,0 -9.803697,6.30718 -9.803697,6.30718 z"
       inkscape:connector-curvature="0" />
    <path
       style="fill:#1e3a16;fill-opacity:1"
       id="path4895"
       d="m 183.7985,-126.18785 c -1.83948,7.17129 -3.81798,14.26388 -5.7883,21.36181 -2.02392,6.824135 -4.12966,13.591449 -6.08449,20.45988 -1.60216,5.383988 -3.51085,10.555867 -4.74701,16.14715 -1.30183,4.850105 -1.97835,9.954586 -3.11431,14.876019 -1.09689,4.428307 -1.40074,9.098044 -1.59005,13.75522 -0.14964,5.138826 -0.13114,10.283834 -0.12797,15.426027 0.007,5.2208 0.0134,10.4416 0.0167,15.6624008 0.12322,4.9659215 1.2105,9.5807788 2.24275,14.2543465 1.14781,3.9785669 2.70505,7.6259977 4.29403,11.2544587 1.48808,3.739924 2.91723,7.586791 4.61954,11.138291 1.97781,3.974766 3.45813,8.39465 5.31297,12.473386 0.14592,0.224124 0.95258,1.841375 1.50566,1.668259 0.19135,-0.05985 0.52338,-0.808704 0.34914,-0.680031 -2.98011,2.200634 -5.78815,4.879285 -8.81816,6.933925 -0.27977,0.18972 0.2942,-0.78955 0.38467,-1.215195 0.12144,-0.5713 0.16468,-1.171131 0.24702,-1.756696 0.39157,-4.872273 0.33443,-9.793087 0.33415,-14.690159 0.25899,-5.311197 -0.53297,-10.486834 -1.08566,-15.70003 -1.06504,-4.269258 -1.50448,-8.7855805 -2.38578,-13.1151122 -1.16995,-4.242882 -1.37915,-8.7987619 -1.98735,-13.2252668 -0.90023,-5.06347 -1.36085,-10.233123 -1.62519,-15.435264 -0.11789,-5.153485 -0.41184,-10.346276 -0.0438,-15.4863 0.38566,-4.329306 1.25066,-8.447994 2.17648,-12.580919 1.11862,-4.652472 2.55353,-9.101691 4.20791,-13.402606 1.46608,-3.521759 3.37692,-6.552079 5.30139,-9.552882 4.1796,-6.752375 9.28688,-9.950685 14.87514,-14.651614 2.60435,0.26957 2.59176,5.349669 2.50114,8.17906 -0.31881,4.209619 -1.19847,8.191044 -2.09651,12.194495 -0.79228,4.090537 -1.9342,7.958795 -2.52089,12.134532 -0.20342,4.520349 -1.04007,8.866274 -1.65218,13.287088 -0.59241,4.798198 -0.6756,9.680807 -0.74514,14.540432 0.0936,4.265668 1.22688,8.097382 2.20723,12.035983 1.13507,3.532109 2.49748,6.903719 3.5667,10.4765538 0.84888,2.1600058 0.42757,1.0557251 1.26211,3.3142522 0,0 -9.30042,7.6662735 -9.30042,7.6662735 l 0,0 c -0.84088,-2.27479256 -0.40712,-1.13103794 -1.30245,-3.4303056 -1.06802,-3.6075487 -2.45884,-6.9974672 -3.59507,-10.5637119 -1.01497,-4.116321 -2.20281,-8.108197 -2.3515,-12.554035 0.0547,-4.927969 0.11547,-9.875907 0.64116,-14.756459 0.55654,-4.442783 1.55174,-8.739039 1.65488,-13.283005 0.50625,-4.272736 1.58305,-8.183735 2.4563,-12.292228 0.82677,-3.948612 1.8603,-7.748388 2.17709,-11.889524 0.14223,-1.407295 0.54378,-6.577215 -1.2647,-5.323011 16.22072,-13.712031 6.48865,-6.127391 3.36563,-1.078454 -1.81234,3.092143 -3.89944,5.829744 -5.43013,9.26809 -1.62856,4.241023 -3.17008,8.504409 -4.27676,13.104029 -0.85848,4.103662 -1.90299,8.065866 -2.27178,12.358657 -0.58383,5.011491 -0.10352,10.165089 -0.0747,15.223012 0.23722,5.136883 0.65226,10.251529 1.56777,15.242545 0.66486,4.363103 0.79467,8.8978322 1.96807,13.0953543 0.91732,4.39018504 1.31168,9.00148 2.42022,13.3315467 0.54506,5.284144 1.41776,10.519787 1.15979,15.901086 0.007,4.95574 0.0515,9.92152 -0.20418,14.867106 -0.0543,0.670947 -0.25289,3.444614 -0.37026,3.567286 -5.78703,6.048882 -8.34791,12.781539 -12.14237,6.022153 -1.82606,-4.091889 -3.35158,-8.455401 -5.31791,-12.425561 -1.69023,-3.589299 -3.17643,-7.40293 -4.64288,-11.186229 -1.63385,-3.741812 -3.24514,-7.501916 -4.42273,-11.603001 -1.04798,-4.8263493 -2.16131,-9.5800888 -2.3711,-14.6859335 -0.003,-5.2205892 -0.008,-10.4411925 -0.0167,-15.6617675 -0.006,-5.164696 -0.0257,-10.331279 0.0932,-15.493906 0.15723,-4.764512 0.3893,-9.564723 1.44867,-14.12311 1.17421,-4.912703 1.87431,-9.987947 3.1599,-14.855276 1.15217,-5.691143 3.04144,-10.915732 4.74082,-16.297623 1.94507,-6.898352 4.10227,-13.655639 6.14621,-20.490508 1.96137,-7.031684 4.01672,-14.022604 5.61816,-21.247874 0,0 9.74582,-6.48711 9.74582,-6.48711 z"
       inkscape:connector-curvature="0" />
    <path
       style="fill:#1e3a16;fill-opacity:1"
       id="path4897"
       d="m 145.776,-35.172505 c -1.98494,5.358992 -3.3474,10.964288 -4.22591,16.889017 -0.75741,5.772723 -0.88252,11.6529108 -0.94902,17.50970599 -0.0309,5.25766841 -0.006,10.51561861 0.005,15.77334401 0.13302,5.065273 -0.23755,10.179441 0.20926,15.214816 0.79812,4.352528 0.90675,8.892087 1.59077,13.262585 0.61963,4.029643 1.54616,7.887706 3.31918,11.165936 1.78276,3.621941 4.33536,6.245079 6.83123,8.769118 2.66957,1.853909 5.55472,3.19148 8.4106,4.384031 3.1867,1.128742 6.48255,1.246923 9.74633,1.364442 2.99685,0.07267 5.99427,0.05675 8.99139,0.04958 0,0 -8.62597,9.02256 -8.62597,9.02256 l 0,0 c -3.00522,0.0042 -6.01093,0.01859 -9.01556,-0.0821 -3.33531,-0.158879 -6.70343,-0.356329 -9.93496,-1.671693 -2.92415,-1.326406 -5.94394,-2.580834 -8.5966,-4.812098 -2.54878,-2.679722 -5.17797,-5.374287 -7.0014,-9.151882 -1.83327,-3.49279 -2.90998,-7.464077 -3.54326,-11.736671 -0.72921,-4.405071 -0.79186,-9.003903 -1.62715,-13.395694 -0.51161,-5.093621 -0.12267,-10.277511 -0.25388,-15.411056 -0.0107,-5.268414 -0.0337,-10.53701 -0.006,-15.8053679 0.0623,-5.95104992 0.18262,-11.9230682 0.90583,-17.7987201 0.8267,-5.993468 2.07638,-11.67571 3.96575,-17.156094 0,0 9.8037,-6.383778 9.8037,-6.383778 z"
       inkscape:connector-curvature="0" />
    <path
       style="fill:#1e3a16;fill-opacity:1"
       id="path4899"
       d="m 182.50159,100.03063 c 1.23195,5.11071 2.20203,10.32743 3.31884,15.48909 0.71395,4.90733 2.02545,9.56161 2.85947,14.42082 0.70484,4.86968 1.63202,9.6404 2.14314,14.56805 0.45709,5.13855 0.50349,10.32446 0.54162,15.49613 0.0207,5.15948 0.008,10.31908 0.002,15.47859 0.29405,4.95271 -0.33647,9.52979 -1.52416,14.14385 -1.22232,3.8158 -2.81738,7.38772 -5.04806,10.15254 -1.05424,1.27325 -2.19698,2.37948 -3.3367,3.48817 0,0 -9.96142,5.56402 -9.96142,5.56402 l 0,0 c 1.13147,-1.10676 2.33725,-2.06984 3.3427,-3.4137 2.44351,-2.26752 3.91109,-5.82149 5.319,-9.37866 1.17979,-4.48005 2.08007,-8.80004 1.70668,-13.67442 0.006,-5.15457 0.0184,-10.30921 0.004,-15.4638 -0.0298,-5.10998 -0.0605,-10.23332 -0.47829,-15.31553 -0.4791,-4.89226 -1.40403,-9.60987 -2.11607,-14.43012 -0.79634,-4.84651 -2.1072,-9.4765 -2.78475,-14.36936 -1.12042,-5.20208 -2.06076,-10.48159 -3.46294,-15.55183 0,0 9.47551,-7.20384 9.47551,-7.20384 z"
       inkscape:connector-curvature="0" />
    <path
       style="fill:#1e3a16;fill-opacity:1"
       id="path4901"
       d="m 159.10037,96.962256 c 1.76588,4.060134 3.59056,8.112144 5.05591,12.413814 0.96494,4.29234 2.12159,8.51022 2.85427,12.90438 0.67061,4.79157 0.72995,9.69286 0.79027,14.56026 0.0376,5.1463 0.0204,10.29301 0.0132,15.43947 -0.008,5.15756 -0.01,10.31513 -0.0113,15.4727 -9.8e-4,5.15359 -9.4e-4,10.30717 -9.2e-4,15.46074 -0.0868,2.26343 -0.44595,4.47437 -0.75898,6.68851 0,0 -9.62425,6.63282 -9.62425,6.63282 l 0,0 c 0.30603,-2.14247 0.65825,-4.27288 0.88197,-6.43731 -3e-5,-5.15376 -1.4e-4,-10.30753 8.2e-4,-15.4613 9.7e-4,-5.15833 0.004,-10.31667 0.0108,-15.47501 0.007,-5.13723 0.0237,-10.27466 -0.008,-15.41178 -0.0517,-4.76343 -0.0935,-9.55897 -0.70961,-14.25737 -0.68732,-4.30192 -1.83408,-8.40827 -2.72717,-12.62251 -1.44336,-4.30492 -3.24714,-8.38693 -5.11786,-12.33644 0,0 9.35087,-7.570974 9.35087,-7.570974 z"
       inkscape:connector-curvature="0" />
  </g>
</svg>
