<?xml version="1.0" encoding="UTF-8" standalone="no"?>
<!-- Created with Inkscape (http://www.inkscape.org/) -->

<svg
   xmlns:dc="http://purl.org/dc/elements/1.1/"
   xmlns:cc="http://creativecommons.org/ns#"
   xmlns:rdf="http://www.w3.org/1999/02/22-rdf-syntax-ns#"
   xmlns:svg="http://www.w3.org/2000/svg"
   xmlns="http://www.w3.org/2000/svg"
   xmlns:sodipodi="http://sodipodi.sourceforge.net/DTD/sodipodi-0.dtd"
   xmlns:inkscape="http://www.inkscape.org/namespaces/inkscape"
   width="256"
   height="170"
   id="svg3828"
   version="1.1"
   inkscape:version="0.48.5 r10040"
   sodipodi:docname="house3Tree.svg"
   inkscape:export-filename="C:\Users\narfman0\Desktop\house3Tree.png"
   inkscape:export-xdpi="90"
   inkscape:export-ydpi="90">
  <defs
     id="defs3830" />
  <sodipodi:namedview
     id="base"
     pagecolor="#ffffff"
     bordercolor="#666666"
     borderopacity="1.0"
     inkscape:pageopacity="0.0"
     inkscape:pageshadow="2"
     inkscape:zoom="0.35"
     inkscape:cx="375"
     inkscape:cy="177.14286"
     inkscape:document-units="px"
     inkscape:current-layer="layer1"
     showgrid="false"
     inkscape:window-width="467"
     inkscape:window-height="424"
     inkscape:window-x="176"
     inkscape:window-y="176"
     inkscape:window-maximized="0" />
  <metadata
     id="metadata3833">
    <rdf:RDF>
      <cc:Work
         rdf:about="">
        <dc:format>image/svg+xml</dc:format>
        <dc:type
           rdf:resource="http://purl.org/dc/dcmitype/StillImage" />
        <dc:title></dc:title>
      </cc:Work>
    </rdf:RDF>
  </metadata>
  <g
     inkscape:label="Layer 1"
     inkscape:groupmode="layer"
     id="layer1"
     transform="translate(0,-882.36218)">
    <path
       style="fill:#000000;fill-opacity:1;stroke:none"
       id="path3659"
       d="m 65.789494,931.1479 c -0.2258,1.59785 -0.3563,3.20645 -0.4414,4.81724 -0.03,1.29417 -0.3331,2.56008 -0.4895,3.84228 -0.1311,1.19582 -0.1425,2.39977 -0.1534,3.6013 -0.01,1.27859 0,2.55721 0,3.83581 0,1.16987 0,2.33974 0,3.50962 2e-4,1.15503 2e-4,2.31006 2e-4,3.46509 0,1.15579 0,2.31157 -1e-4,3.46736 0,1.15607 0,2.31214 0,3.4682 0,1.15608 0,2.31215 0,3.46823 0,1.15606 0,2.31213 0,3.4682 0,1.31383 0,2.62766 0,3.94149 0.024,1.21766 0.029,2.41904 -0.1684,3.62218 -0.2487,1.14342 -0.2552,2.3187 -0.4453,3.46856 -0.2567,1.13263 -0.4022,2.28153 -0.4821,3.43866 -0.063,1.14838 -0.063,2.29895 -0.065,3.44867 10e-5,1.15582 0,2.31163 0,3.46744 0,1.15616 0,2.31231 0,3.46847 0.1017,1.08051 -0.1676,2.11724 -0.3525,3.17009 -0.1692,1.05865 -0.1964,2.13215 -0.2179,3.20182 -0.016,1.15039 -0.012,2.30089 -0.011,3.45129 -0.023,1.1692 0.066,2.3425 -0.068,3.5055 -0.2155,1.1432 -0.3627,2.2941 -0.4422,3.4542 -0.049,1.1236 -0.018,2.2347 -0.2384,3.3407 -0.157,1.2007 -0.392,2.3811 -0.6356,3.5667 -0.2322,1.1476 -0.2946,2.3176 -0.3316,3.4849 -0.026,1.1535 -0.021,2.3075 -0.019,3.4612 -0.1486,1.0112 -0.366,2.006 -0.4708,3.0242 -0.093,1.1083 -0.098,2.2215 -0.105,3.333 0,1.1556 -7e-4,2.3112 6e-4,3.4668 0,1.1567 0,2.3134 0,3.4702 10e-5,1.1561 10e-5,2.3122 10e-5,3.4683 -10e-5,1.1561 -10e-5,2.3121 -10e-5,3.4682 0,1.1561 0,2.3121 0,3.4682 0,0.7707 0,1.5414 0,2.3121 0,0.4088 -0.578,0.4088 -0.578,0 l 0,0 c 0,-0.7707 0,-1.5414 0,-2.3121 0,-1.1561 0,-2.3121 0,-3.4682 0,-1.1561 0,-2.3121 0,-3.4682 0,-1.1561 0,-2.3122 -1e-4,-3.4683 -2e-4,-1.1565 -5e-4,-2.3131 0,-3.4696 0,-1.157 0,-2.3139 -6e-4,-3.4709 0.01,-1.1301 0.012,-2.262 0.1082,-3.3889 0.1033,-0.998 0.3042,-1.9754 0.4677,-2.964 0,-1.1601 -0.01,-2.3205 0.02,-3.4804 0.038,-1.2002 0.1038,-2.403 0.3432,-3.5829 0.2435,-1.1848 0.4777,-2.3641 0.6349,-3.5641 0.2181,-1.0806 0.1739,-2.1685 0.2285,-3.2665 0.081,-1.1697 0.2265,-2.3306 0.4449,-3.483 0.1401,-1.1386 0.034,-2.2913 0.064,-3.4365 0,-1.1545 0,-2.3091 0.011,-3.46355 0.022,-1.09931 0.051,-2.20245 0.2265,-3.29024 0.1796,-1.02052 0.4453,-2.02227 0.3438,-3.06996 -1e-4,-1.15598 -3e-4,-2.31197 0,-3.46796 0,-1.15633 0,-2.31267 0,-3.46901 0,-1.1627 0,-2.32625 0.066,-3.48755 0.082,-1.17568 0.2279,-2.34346 0.4886,-3.49433 0.1953,-1.1479 0.1907,-2.32494 0.445,-3.46662 0.193,-1.17185 0.1821,-2.34227 0.1608,-3.52856 0,-1.31383 0,-2.62766 0,-3.94149 0,-1.15607 0,-2.31214 0,-3.4682 0,-1.15608 0,-2.31215 0,-3.46823 0,-1.15606 0,-2.31213 0,-3.4682 0,-1.15579 0,-2.31158 0,-3.46737 0,-1.15498 1e-4,-2.30996 -1e-4,-3.46494 -3e-4,-1.16969 -8e-4,-2.33937 0,-3.50905 0,-1.28059 0,-2.56119 0,-3.84177 0.011,-1.2232 0.023,-2.44884 0.1576,-3.66615 0.1553,-1.26906 0.4539,-2.52212 0.486,-3.8027 0.086,-1.62792 0.2181,-3.25363 0.4464,-4.86847 0.058,-0.40462 0.63,-0.32287 0.5722,0.0817 z"
       inkscape:connector-curvature="0" />
    <path
       style="fill:#000000;fill-opacity:1;stroke:none"
       id="path3661"
       d="m 79.084294,936.35021 c -0.2258,1.59786 -0.3563,3.20645 -0.4414,4.81725 -0.059,1.26841 -0.065,2.53839 -0.068,3.80793 -6e-4,1.15605 0,2.31211 0,3.46816 0.001,1.15433 0,2.30865 0,3.46297 1e-4,1.15596 1e-4,2.31192 1e-4,3.46788 -1e-4,1.15609 -1e-4,2.31218 -1e-4,3.46827 -0.086,1.15902 0.1748,2.2874 0.345,3.42548 0.2075,1.12191 0.1081,2.2757 0.291,3.3966 0.2492,1.00174 0.3825,2.02087 0.4574,3.04861 0.065,1.13903 0.341996,2.25224 0.483496,3.38451 0.1138,1.10074 0.087,2.19767 0.3158,3.28252 0.2746,1.11484 0.3367,2.26044 0.3843,3.40261 0.04,1.24484 0.039,2.49052 0.039,3.73587 -0.001,1.16485 0,2.32969 0,3.49454 0.032,1.14341 -0.074,2.29445 0.066,3.43132 0.2188,1.15211 0.3647,2.31278 0.4452,3.48217 0.065,1.1612 0.067,2.32466 0.07,3.48731 6e-4,1.1564 0,2.31281 0,3.46921 -0.01,1.09268 -0.056,2.17248 0.1578,3.24728 0.2413,1.029 0.3282,2.0812 0.3812,3.1337 0.044,1.1465 0.041,2.294 0.042,3.4411 -8e-4,1.1573 0,2.3146 0,3.4718 -8e-4,1.1563 -8e-4,2.3126 -9e-4,3.4689 0,1.1561 0,2.3121 0,3.4682 0,1.156 0,2.3121 0,3.4682 0,1.156 0,2.3121 0,3.4682 0,1.1561 0,2.3121 0,3.4682 0,1.1561 0,2.3121 0,3.4682 0,1.1561 0,2.3121 0,3.4682 0,1.1561 0,2.3121 0,3.4682 -0.079,1.0732 0.044,2.1025 0.256,3.1492 0.2153,1.0598 0.2675,2.1411 0.3028,3.2189 0.027,1.1514 0.024,2.3033 0.023,3.455 -9e-4,0.7717 -4e-4,0.3858 0,1.1575 -5e-4,0.4087 -0.5785,0.408 -0.5781,-7e-4 l 0,0 c 0,-0.7715 5e-4,-0.3858 0,-1.1572 8e-4,-1.1453 0,-2.2907 -0.023,-3.4358 -0.034,-1.0456 -0.083,-2.0949 -0.2916,-3.1232 -0.2191,-1.0839 -0.3463,-2.1532 -0.2675,-3.2637 0,-1.1561 0,-2.3121 0,-3.4682 0,-1.1561 0,-2.3121 0,-3.4682 0,-1.1561 0,-2.3121 0,-3.4682 0,-1.1561 0,-2.3121 0,-3.4682 0,-1.1561 0,-2.3122 0,-3.4682 0,-1.1561 0,-2.3121 0,-3.4682 0,-1.1561 -10e-5,-2.3122 0,-3.4682 0,-1.1565 1e-4,-2.3129 8e-4,-3.4693 9e-4,-1.157 0,-2.3141 0,-3.4711 -5e-4,-1.1375 0,-2.2755 -0.041,-3.4124 -0.051,-1.0246 -0.1352,-2.049 -0.3709,-3.0506 -0.2188,-1.1128 -0.1819,-2.2291 -0.1688,-3.35991 0,-1.15575 0,-2.3115 0,-3.46725 0,-1.1499 0,-2.30061 -0.068,-3.44911 -0.08,-1.15979 -0.2267,-2.31036 -0.4425,-3.45314 -0.135,-1.16128 -0.047,-2.33293 -0.07,-3.5004 8e-4,-1.16467 0,-2.32934 0,-3.49401 -2e-4,-1.23739 9e-4,-2.4751 -0.039,-3.71199 -0.046,-1.1103 -0.1044,-2.22409 -0.372296,-3.3077 -0.2306,-1.10135 -0.2162,-2.21238 -0.3238,-3.32988 -0.1421,-1.14211 -0.4235,-2.26476 -0.4864,-3.41417 -0.073,-1.01172 -0.2072,-2.01393 -0.4518,-3.00009 -0.1734,-1.1251 -0.097,-2.27578 -0.2917,-3.40153 -0.1743,-1.16606 -0.4375,-2.32353 -0.3514,-3.51095 0,-1.15609 0,-2.31218 0,-3.46827 0,-1.15594 1e-4,-2.31188 0,-3.46782 -1e-4,-1.15416 -3e-4,-2.30833 0,-3.46249 0,-1.1567 0,-2.31341 0,-3.47011 0,-1.27924 0.01,-2.55894 0.069,-3.83704 0.086,-1.62793 0.2181,-3.25363 0.4463,-4.86847 0.058,-0.40463 0.6301,-0.32288 0.5723,0.0817 z"
       inkscape:connector-curvature="0" />
    <path
       style="fill:#000000;fill-opacity:1;stroke:none"
       id="path3663"
       d="m 135.93089,962.81953 c 0.5279,1.44827 1.2208,2.8358 1.9237,4.20694 0.4608,0.83815 1.1061,1.52933 1.7265,2.24501 0.5665,0.58306 1.169,1.13076 1.7238,1.72514 0.643,0.55597 1.171,1.227 1.7892,1.80715 0.7728,0.68502 1.4689,1.44666 2.2408,2.13326 0.9306,0.86838 1.9232,1.66386 2.8404,2.54592 0.842,0.79656 1.6772,1.60539 2.5505,2.36811 0.7877,0.46005 1.381,1.1505 1.9394,1.85719 0.6077,0.68147 1.2783,1.30137 1.8991,1.96988 0.7139,0.59328 1.3224,1.295 1.9944,1.93178 0.7038,0.67008 1.3987,1.35659 2.0502,2.07866 0.7697,0.75569 1.6214,1.41739 2.4324,2.12507 0.8182,0.71897 1.6028,1.47651 2.4242,2.1915 0.622,0.58446 1.1996,1.21565 1.8297,1.79113 0.585,0.6086 1.1972,1.1847 1.7518,1.82281 0.7155,0.66563 1.3835,1.37368 2.035,2.10208 0.8425,0.96412 1.7257,1.89272 2.5573,2.86594 0.6825,0.731 1.3339,1.485 2.0779,2.1552 0.6507,0.7325 1.3995,1.3677 2.0674,2.0822 0.7107,0.6991 1.344,1.4676 2.0765,2.1459 0.7878,0.8719 1.606,1.7196 2.3473,2.6316 0.7525,0.8589 1.4485,1.7606 2.2729,2.5539 0.6386,0.7603 1.3888,1.4103 2.0763,2.123 0.6841,0.6316 1.2898,1.3384 1.9824,1.9625 0.734,0.6625 1.4509,1.3524 2.1195,2.0819 0.5924,0.6013 1.2105,1.1792 1.7825,1.8004 0.6293,0.603 1.2471,1.2166 1.8828,1.8134 0.6308,0.7302 1.4065,1.3131 2.1825,1.8785 0.7006,0.5461 1.3215,1.1796 1.9853,1.7664 0.538,0.6284 1.1719,1.1258 1.823,1.6239 0.6549,0.5007 1.3357,0.9524 2.0405,1.3816 0.7658,0.5535 1.5037,1.1397 2.2909,1.6678 0.804,0.5867 1.7431,0.9281 2.5676,1.4829 0.7936,0.4733 1.5932,0.9332 2.3469,1.4713 0.8666,0.5781 1.8153,1.0138 2.7186,1.5263 0.8571,0.4566 1.6313,1.0562 2.4103,1.6341 0.72,0.4905 1.3979,1.0527 2.0108,1.6723 0.6616,0.5278 1.1643,1.1824 1.6735,1.8469 0.4538,0.6669 0.962,1.3064 1.5367,1.8739 0.5528,0.6358 1.2097,1.1634 1.6857,1.8625 0.4259,0.6924 0.9773,1.2232 1.6268,1.7027 0.4306,0.3577 0.7273,0.821 1.1588,1.1785 0.3123,0.2637 -0.061,0.7054 -0.3729,0.4418 l 0,0 c -0.4172,-0.3574 -0.7301,-0.7857 -1.1307,-1.1564 -0.6968,-0.521 -1.302,-1.0994 -1.7622,-1.8447 -0.4432,-0.6743 -1.0981,-1.1582 -1.6132,-1.7747 -0.589,-0.5902 -1.1218,-1.2423 -1.5884,-1.9327 -0.493,-0.6471 -0.9819,-1.2806 -1.6264,-1.7926 -0.5878,-0.6026 -1.2501,-1.1385 -1.9437,-1.6139 -0.7582,-0.5666 -1.5159,-1.1492 -2.3514,-1.5955 -0.9178,-0.5264 -1.8892,-0.9632 -2.7685,-1.5583 -0.7493,-0.5367 -1.5472,-0.9899 -2.3354,-1.4633 -0.8185,-0.5614 -1.7694,-0.8835 -2.5654,-1.4814 -0.779,-0.5247 -1.5138,-1.1019 -2.2695,-1.6541 -0.7213,-0.441 -1.4193,-0.9049 -2.0913,-1.4164 -0.6603,-0.5081 -1.309,-1.0111 -1.8546,-1.6501 -0.6484,-0.577 -1.2591,-1.1942 -1.9427,-1.7319 -0.7939,-0.581 -1.5909,-1.1765 -2.2376,-1.9244 -0.6449,-0.6079 -1.2744,-1.2296 -1.9128,-1.8438 -0.5693,-0.6241 -1.193,-1.1975 -1.7833,-1.8012 -0.6535,-0.7182 -1.3613,-1.3919 -2.0804,-2.043 -0.7003,-0.6354 -1.3192,-1.348 -2.0113,-1.9905 -0.6803,-0.7095 -1.4297,-1.3509 -2.0613,-2.1079 -0.8382,-0.8124 -1.5553,-1.7264 -2.3202,-2.6055 -0.7226,-0.8924 -1.526,-1.7171 -2.2919,-2.5724 -0.7403,-0.6902 -1.3877,-1.4646 -2.1061,-2.1754 -0.6531,-0.705 -1.3956,-1.3236 -2.0313,-2.0468 -0.7622,-0.6876 -1.432,-1.459 -2.1306,-2.2094 -0.827,-0.97108 -1.7098,-1.89424 -2.5485,-2.85568 -0.6534,-0.7306 -1.3245,-1.43893 -2.0405,-2.10839 -0.54,-0.62196 -1.1368,-1.18267 -1.7063,-1.77599 -0.624,-0.57519 -1.203,-1.19746 -1.8188,-1.78144 -0.82,-0.71699 -1.6071,-1.47169 -2.4246,-2.19181 -0.8272,-0.72404 -1.7,-1.39721 -2.4817,-2.17378 -0.639,-0.71296 -1.327,-1.38578 -2.0188,-2.04627 -0.6791,-0.64752 -1.3001,-1.35338 -2.0204,-1.95813 -0.6284,-0.68167 -1.3151,-1.30741 -1.9284,-2.00419 -0.538,-0.68148 -1.1057,-1.33856 -1.8666,-1.78051 -0.8785,-0.77063 -1.7227,-1.58266 -2.5705,-2.38652 -0.9113,-0.87733 -1.8993,-1.66676 -2.8238,-2.53062 -0.776,-0.6907 -1.4767,-1.45569 -2.2534,-2.14481 -0.6242,-0.59258 -1.1662,-1.26646 -1.8159,-1.83401 -0.5563,-0.60203 -1.1698,-1.14888 -1.7374,-1.74035 -0.649,-0.75166 -1.3248,-1.47822 -1.8038,-2.35954 -0.7199,-1.40446 -1.4297,-2.82626 -1.9651,-4.31183 -0.1123,-0.393 0.4435,-0.5518 0.5558,-0.1588 z"
       inkscape:connector-curvature="0" />
    <path
       style="fill:#000000;fill-opacity:1;stroke:none"
       id="path3665"
       d="m 143.49509,952.87395 c 0.7913,1.47041 1.7676,2.82859 2.7157,4.19927 0.7175,1.17586 1.7511,2.06776 2.7618,2.97913 1.0585,0.97144 2.1063,1.95364 3.2139,2.86911 0.9491,0.70233 1.8975,1.39897 2.8293,2.12686 0.9182,0.62607 1.8098,1.28522 2.7067,1.94063 0.9101,0.59737 1.8304,1.18025 2.7616,1.74446 0.9462,0.46932 1.8696,0.99829 2.6798,1.67916 0.7052,0.50863 1.4264,1.00776 2.1835,1.43959 0.8013,0.48239 1.4925,1.10336 2.2078,1.69775 0.7874,0.5 1.5326,1.06413 2.3142,1.57339 0.946,0.67279 1.9191,1.30664 2.8176,2.04657 0.8335,0.57991 1.6726,1.14897 2.4451,1.81225 0.838,0.60785 1.6373,1.2585 2.4564,1.89061 0.9661,0.66519 1.9075,1.35476 2.835,2.0747 0.9868,0.73716 1.9437,1.50539 2.8987,2.28408 0.9191,0.61855 1.7166,1.39267 2.5705,2.09388 0.8503,0.55876 1.695,1.12408 2.4924,1.75776 0.9914,0.62999 1.9466,1.30966 2.9074,1.9876 0.9134,0.62169 1.8624,1.19873 2.7621,1.84027 0.8456,0.56563 1.6077,1.24635 2.4387,1.83341 0.835,0.71792 1.7834,1.27507 2.6228,1.98583 0.9047,0.86428 1.9416,1.5711 2.9123,2.35493 0.816,0.58864 1.5383,1.28931 2.3098,1.93281 0.8458,0.5649 1.5777,1.2773 2.3637,1.919 0.7695,0.6318 1.3784,1.4235 2.1042,2.0992 0.793,0.819 1.6051,1.6133 2.3802,2.4504 0.9039,0.9007 1.6723,1.9226 2.5458,2.85 0.8686,0.826 1.5971,1.7816 2.2939,2.7525 0.7186,0.8004 1.3832,1.6315 2.0365,2.4829 0.561,0.7202 1.0623,1.4875 1.6137,2.2146 0.605,0.8977 1.2657,1.7535 1.9009,2.6289 0.4831,0.8853 1.1536,1.6435 1.7684,2.4361 0.4664,0.7412 0.9419,1.4859 1.5371,2.1313 0.4957,0.6771 0.978,1.3631 1.4768,2.0397 0.5918,0.7512 1.0643,1.5795 1.5841,2.3779 0.4227,0.751 1.0103,1.3861 1.5484,2.0542 0.5022,0.8388 1.2944,1.4193 1.9025,2.175 0.6287,0.7444 1.2833,1.4657 1.9741,2.1536 0.6105,0.6513 1.2059,1.3226 1.8596,1.9315 0.5642,0.737 1.3634,1.1476 2.1363,1.6143 0.7635,0.4637 1.5162,0.9407 2.2867,1.3953 0.8596,0.4897 1.7058,0.9062 2.4817,1.5266 0.6922,0.5386 1.474,0.933 2.1683,1.4666 0.7309,0.5743 1.4834,1.1066 2.2706,1.6025 0.9315,0.4256 1.6865,1.1384 2.4976,1.7505 0.8455,0.8107 1.7687,1.5247 2.7733,2.1256 0.6826,0.3225 0.3464,0.1507 1.0085,0.5154 0.3578,0.1975 0.079,0.7036 -0.2793,0.5061 l 0,0 c -0.647,-0.358 -0.3056,-0.1812 -1.0266,-0.5258 -1.0201,-0.6137 -1.9668,-1.3318 -2.8241,-2.1599 -0.7986,-0.6027 -1.5401,-1.305 -2.4579,-1.7231 -0.8015,-0.5068 -1.5698,-1.0493 -2.3154,-1.6337 -0.6939,-0.5384 -1.4846,-0.9278 -2.176,-1.4727 -0.754,-0.6029 -1.5792,-1.0011 -2.4147,-1.4804 -0.7718,-0.4565 -1.5263,-0.9349 -2.2921,-1.3985 -0.805,-0.4887 -1.6411,-0.9214 -2.232,-1.6869 -0.6553,-0.6163 -1.2604,-1.2863 -1.8729,-1.9444 -0.7042,-0.7048 -1.3756,-1.4397 -2.0171,-2.2015 -0.6025,-0.7581 -1.4061,-1.3303 -1.9013,-2.1735 -0.5504,-0.6835 -1.1496,-1.335 -1.5833,-2.1024 -0.5106,-0.791 -0.9809,-1.6067 -1.5646,-2.3497 -0.4855,-0.661 -0.9603,-1.3278 -1.438,-1.9924 -0.5999,-0.662 -1.1005,-1.4069 -1.5673,-2.1672 -0.6174,-0.798 -1.2939,-1.5601 -1.7794,-2.4508 -0.6323,-0.8729 -1.2922,-1.7248 -1.8942,-2.6198 -0.5479,-0.7286 -1.0515,-1.4919 -1.6113,-2.2116 -0.6551,-0.8575 -1.3286,-1.6888 -2.0472,-2.4973 -0.682,-0.9504 -1.3942,-1.8863 -2.2456,-2.6937 -0.8723,-0.9306 -1.6458,-1.9494 -2.5487,-2.8531 -0.7656,-0.8269 -1.5676,-1.6117 -2.3508,-2.4209 -0.714,-0.6704 -1.3198,-1.4458 -2.0754,-2.074 -0.7864,-0.6442 -1.5213,-1.3554 -2.3679,-1.9225 -0.7693,-0.6417 -1.4892,-1.3406 -2.3031,-1.92727 -0.9729,-0.78818 -2.0157,-1.49512 -2.9228,-2.36359 -0.825,-0.70144 -1.7632,-1.24477 -2.5829,-1.95488 -0.8305,-0.58949 -1.5958,-1.26738 -2.441,-1.83506 -0.8962,-0.64378 -1.8481,-1.21519 -2.759,-1.83807 -0.9698,-0.6844 -1.9345,-1.36923 -2.934,-2.0075 -0.7993,-0.63636 -1.6498,-1.19842 -2.4997,-1.76372 -0.8522,-0.70204 -1.6508,-1.47328 -2.5686,-2.09231 -0.9515,-0.77582 -1.9039,-1.54187 -2.8878,-2.27545 -0.9273,-0.71985 -1.8682,-1.40889 -2.8342,-2.07402 -0.8262,-0.63983 -1.6355,-1.29391 -2.4803,-1.91011 -0.7668,-0.66415 -1.6095,-1.221 -2.4357,-1.80438 -0.8796,-0.72885 -1.8382,-1.34652 -2.7654,-2.0082 -0.7996,-0.52278 -1.5648,-1.09659 -2.3682,-1.61322 -0.6885,-0.57439 -1.3541,-1.17286 -2.125,-1.64027 -0.7864,-0.45149 -1.5387,-0.96744 -2.2701,-1.50028 -0.7811,-0.66822 -1.6921,-1.1632 -2.6058,-1.6259 -0.9451,-0.57368 -1.8805,-1.16405 -2.8035,-1.77242 -0.9001,-0.66107 -1.7991,-1.32019 -2.721,-1.95143 -0.936,-0.7313 -1.8888,-1.43068 -2.842,-2.13703 -1.1128,-0.92187 -2.1688,-1.90713 -3.2324,-2.88516 -1.0437,-0.94114 -2.1075,-1.86705 -2.8501,-3.07962 -0.9634,-1.39317 -1.9554,-2.77381 -2.7574,-4.26956 -0.1827,-0.36558 0.3343,-0.62408 0.5171,-0.2585 z"
       inkscape:connector-curvature="0" />
    <path
       style="fill:#000000;fill-opacity:1;stroke:none"
       id="path3669"
       d="m 62.517094,898.75534 c -1.0973,1.06225 -2.1659,2.1526 -3.3054,3.17033 -0.9149,0.88103 -1.753,1.83015 -2.527,2.83553 -0.9081,1.03162 -1.6339,2.19606 -2.4318,3.30834 -0.7873,0.97877 -1.5294,1.99211 -2.2447,3.02434 -0.7298,0.96082 -1.3718,1.97769 -2.0394,2.97951 -0.5346,0.7533 -1.0262,1.51491 -1.4264,2.3505 -0.5098,0.80941 -0.8726,1.69374 -1.4317,2.47207 -0.5379,0.8086 -0.9583,1.69516 -1.3687,2.57454 -0.5897,0.96433 -1.0882,1.98664 -1.7689,2.89077 -0.6337,0.86468 -1.1394,1.81414 -1.6879,2.73383 -0.554,0.71208 -1.0857,1.43016 -1.6165,2.1578 -0.5162,0.77362 -1.092,1.50228 -1.653,2.24434 -0.5571,0.79906 -1.0367,1.64695 -1.6508,2.40482 -0.5612,0.64947 -1.0717,1.32572 -1.5391,2.04687 -0.4867,0.68195 -1.0816,1.26873 -1.6314,1.89659 -0.6256,0.53793 -1.1218,1.17045 -1.619,1.81984 -0.4252,0.70296 -1.0554,1.24644 -1.4814,1.94598 -0.5072,0.66786 -0.9536,1.37047 -1.4232,2.06289 -0.4757,0.68167 -0.9339,1.36952 -1.3666,2.08115 -0.1635,0.39118 -0.3961,0.7462 -0.5995,1.1169 -0.1969,0.35823 -0.7035,0.0799 -0.5066,-0.27834 l 0,0 c 0.208,-0.37826 0.4441,-0.74047 0.6124,-1.1393 0.439,-0.71921 0.903,-1.41551 1.3827,-2.10599 0.4681,-0.68284 0.9041,-1.38285 1.4091,-2.04131 0.4455,-0.71146 1.0683,-1.28143 1.5146,-1.99402 0.5067,-0.65781 1.0076,-1.30449 1.6433,-1.84935 0.5337,-0.60533 1.106,-1.17432 1.5809,-1.83006 0.4803,-0.73697 1.0024,-1.43171 1.5758,-2.09716 0.6148,-0.74838 1.0772,-1.6009 1.6382,-2.38876 0.5613,-0.73788 1.1326,-1.46588 1.6473,-2.23661 0.5229,-0.71096 1.0365,-1.42037 1.5864,-2.11249 0.5599,-0.93769 1.0751,-1.90625 1.7237,-2.78677 0.662,-0.8669 1.1283,-1.8627 1.7058,-2.78628 0.4267,-0.91228 0.8629,-1.83206 1.4246,-2.66938 0.5468,-0.74435 0.8765,-1.60964 1.3785,-2.3829 0.4138,-0.8587 0.9171,-1.64613 1.4667,-2.42129 0.6719,-1.00278 1.3118,-2.02526 2.045,-2.98761 0.7171,-1.03491 1.4608,-2.05129 2.2504,-3.03239 0.8032,-1.1161 1.5302,-2.28789 2.4432,-3.32373 0.796,-1.03361 1.6582,-2.00959 2.6002,-2.91416 1.1482,-1.02361 2.2193,-2.12615 3.3291,-3.19041 0.3192,-0.25533 0.6803,0.19604 0.3611,0.45137 z"
       inkscape:connector-curvature="0" />
    <path
       style="fill:#000000;fill-opacity:1;stroke:none"
       id="path3671"
       d="m 69.758294,907.487 c -0.5052,1.39462 -1.1605,2.7266 -1.795,4.06579 -0.4538,0.99733 -0.9769,1.96264 -1.502,2.9244 -0.5693,0.78075 -1.0675,1.60344 -1.6979,2.33706 -0.683,0.84065 -1.2397,1.77156 -1.9314,2.60467 -0.5405,0.71257 -1.1841,1.33413 -1.7644,2.01378 -0.8562,0.90583 -1.5316,1.95538 -2.379,2.8675 -0.718,0.78037 -1.4509,1.55453 -2.2333,2.27135 -0.7796,0.70815 -1.5466,1.41186 -2.3528,2.08906 -0.7644,0.55167 -1.4624,1.18097 -2.1646,1.80697 -0.6237,0.63933 -1.2662,1.2547 -1.8497,1.93207 -0.6106,0.73874 -1.0493,1.589 -1.6313,2.34664 -0.5828,0.74452 -1.125,1.50959 -1.6291,2.31049 -0.331,0.79513 -0.908,1.44417 -1.3083,2.19798 -0.5209,0.75473 -0.9062,1.59584 -1.2071,2.4598 -0.3334,0.88915 -0.9209,1.63416 -1.246,2.52446 -0.4258,0.80063 -0.6544,1.67423 -0.9851,2.51384 -0.481,0.73435 -0.7732,1.55644 -1.131,2.35205 -0.3906,0.79575 -0.666,1.63629 -1.0039,2.45341 -0.3271,0.91993 -0.9008,1.71402 -1.3253,2.58482 -0.253,0.88039 -0.8059,1.61371 -1.2027,2.42451 -0.4295,0.88699 -0.8489,1.78732 -1.2001,2.70955 -0.4406,0.76227 -0.9673,1.5461 -1.6292,2.13762 -0.7845,0.55644 -1.6114,0.91879 -2.5502,1.11489 -0.9237,0.17719 -1.8758,0.35417 -2.7692,0.65594 -0.8812,0.2587 -1.7385,0.57344 -2.611,0.85896 -0.7855,0.30898 -1.4655,0.66699 -2.1044,1.21129 -0.6779,0.61543 -1.4839,1.08198 -2.0484,1.81232 -0.5947,0.60268 -1.1776,1.19617 -1.6828,1.88076 -0.5168,0.69931 -1.166899,1.23384 -1.877599,1.7245 -0.7813,0.35733 -1.4368,0.91685 -2.1885,1.3222 -0.7576,0.43894 -1.4915,0.88539 -2.2191,1.37392 -0.7223,0.59458 -1.5041,1.13822 -2.3439,1.55358 -0.6745,0.35317 -1.2336,0.86988 -1.9533,1.13091 -1.0121,-0.1188 0.1778,-1.47302 0.4558,-1.86577 0.4887,-0.76925 1.169,-1.39222 1.7596,-2.08185 0.653,-0.61561 1.3882,-1.14721 2.106,-1.68736 0.5794,-0.59896 1.3379,-0.96311 1.9775,-1.48726 0.6374,-0.4891 1.2481,-1.02627 1.7991,-1.61255 0.6426,-0.52151 1.0239,-1.26627 1.540999,-1.8988 0.6346,-0.74476 1.0443,-1.62055 1.4311,-2.51036 0.2941,-1.00462 0.7007,-1.97294 0.9486,-2.99136 0.2137,-1.0495 0.2313,-2.12429 0.2502,-3.19115 -0.031,-1.03151 0.2285,-2.02885 0.6075,-2.97794 0.3074,-0.82225 0.716,-1.60578 1.1268,-2.38138 0.4351,-0.75952 0.7156,-1.57925 1.0567,-2.38014 0.2736,-0.85093 0.6943,-1.61143 1.1772,-2.35706 0.4559,-0.7271 0.7748,-1.54236 1.3448,-2.18832 0.09,-0.10146 0.1793,-0.20292 0.2689,-0.30438 0.2707,-0.3063 0.7039,0.0764 0.4332,0.38273 l 0,0 c -0.091,0.10313 -0.1822,0.20626 -0.2734,0.3094 -0.5643,0.60404 -0.8298,1.43135 -1.2884,2.11482 -0.4655,0.71858 -0.8702,1.44887 -1.1312,2.27096 -0.3524,0.8123 -0.6351,1.64958 -1.077,2.42262 -0.4015,0.75747 -0.8024,1.5215 -1.1009,2.32528 -0.3537,0.88412 -0.5989,1.81171 -0.5663,2.77364 -0.02,1.10967 -0.04,2.22745 -0.2666,3.31833 -0.2582,1.04975 -0.6709,2.05043 -0.9801,3.08474 -0.4093,0.93809 -0.8459,1.86138 -1.5149,2.64706 -0.529999,0.638 -0.909799,1.40251 -1.567299,1.92853 -0.572,0.60128 -1.1958,1.16062 -1.8547,1.66416 -0.6503,0.52331 -1.4049,0.90249 -1.9947,1.50067 -0.6858,0.51369 -1.3834,1.02458 -2.0145,1.60164 -0.581,0.67522 -1.2473,1.28754 -1.7277,2.04105 -0.089,0.12401 -0.6798,1.08159 -0.7583,1.08715 -1.0344,0.0733 0.1748,-0.26583 -0.3636,-0.10103 0.698,-0.24839 1.2296,-0.78244 1.8944,-1.10598 0.8197,-0.398 1.5713,-0.9412 2.2764,-1.51463 0.744,-0.49843 1.4956,-0.95354 2.2687,-1.40366 0.7355,-0.38906 1.3675,-0.94919 2.1335,-1.28877 0.6618,-0.4526 1.260899,-0.94313 1.740699,-1.59245 0.5108,-0.68589 1.0899,-1.29383 1.693,-1.89416 0.6013,-0.75155 1.4062,-1.2673 2.1276,-1.89462 0.6968,-0.59355 1.4462,-0.98599 2.3,-1.32078 0.8717,-0.28381 1.7285,-0.59907 2.6082,-0.85807 0.9187,-0.30029 1.8864,-0.49625 2.8344,-0.67342 0.8429,-0.1719 1.5766,-0.49382 2.2862,-0.98359 0.6043,-0.5161 1.0539,-1.24352 1.4702,-1.90929 0.36,-0.93809 0.7837,-1.85564 1.2215,-2.75862 0.4012,-0.80887 0.9452,-1.54461 1.2021,-2.42335 0.423,-0.85909 0.9838,-1.646 1.311,-2.55314 0.3455,-0.81878 0.6174,-1.66798 1.0101,-2.46785 0.354,-0.78666 0.6394,-1.60395 1.1203,-2.32675 0.3291,-0.83558 0.5556,-1.70615 0.9808,-2.50232 0.3307,-0.88622 0.8908,-1.63751 1.2426,-2.51512 0.3132,-0.89058 0.7051,-1.76315 1.2434,-2.54206 0.4128,-0.76306 0.9849,-1.42894 1.3286,-2.23309 0.515,-0.81516 1.0672,-1.59594 1.6603,-2.35503 0.5907,-0.76346 1.0289,-1.62824 1.6512,-2.37113 0.6004,-0.69632 1.2608,-1.32994 1.9032,-1.98641 0.7072,-0.62894 1.4086,-1.26319 2.1775,-1.81814 0.8009,-0.67085 1.5607,-1.37037 2.3346,-2.07306 0.7734,-0.70344 1.4912,-1.47141 2.2002,-2.2386 0.8446,-0.90276 1.5079,-1.95266 2.3622,-2.84873 0.579,-0.67792 1.2211,-1.29782 1.7601,-2.0087 0.6976,-0.83194 1.2453,-1.77424 1.9374,-2.61166 0.6059,-0.70141 1.0762,-1.4938 1.6285,-2.23684 0.5201,-0.95198 1.0384,-1.90725 1.487,-2.89493 0.6214,-1.31047 1.2613,-2.61444 1.7615,-3.977 0.1123,-0.39301 0.6681,-0.23421 0.5558,0.15879 z"
       inkscape:connector-curvature="0" />
    <path
       style="fill:#845058;fill-opacity:1;stroke:none"
       d="m 65.556794,932.51137 c -1.2426,3.46453 -0.4132,7.7905 -0.8408,11.5423 -0.558,26.18658 -0.8259,52.42861 -3.7112,78.48663 -0.6122,8.313 -0.4414,16.6538 -0.5058,24.9819 4.7314,1.7737 10.4038,1.8076 15.4714,3.0282 1.7586,-0.2504 4.387496,2.0401 5.626896,0.4942 1.0026,-16.9826 -0.078,-34.0716 -0.4519,-51.08176 -0.1908,-13.12591 -1.584296,-26.14017 -2.424396,-39.18153 -0.2613,-8.13789 -0.1219,-16.2818 -0.1584,-24.42239 -3.8692,-1.86264 -8.4363,-3.13676 -12.789,-3.90174 l -0.2168,0.0542 z"
       id="path3718"
       inkscape:connector-curvature="0" />
    <path
       style="fill:#845058;fill-opacity:1;stroke:none"
       d="m 60.896994,900.05111 c -10.6739,10.62708 -16.4165,24.93118 -25.8548,36.49313 -4.417,6.17092 -10.3548,11.62592 -11.8439,19.3956 -0.5905,4.97677 -2.2352,9.98781 -6.322299,13.20448 -1.0266,0.46879 -2.6789,3.20599 -0.5419,2.56503 4.963599,-3.57091 8.940399,-8.49594 15.262599,-9.60401 5.0855,-1.3956 5.8222,-7.71563 8.2612,-11.62326 3.8617,-8.82737 8.1149,-17.71165 15.8126,-23.8747 5.1123,-5.47768 10.4367,-11.11524 13.1925,-18.19283 -2.2023,-2.7645 -5.3753,-5.08988 -7.2074,-8.30925 l -0.3974,-0.21676 -0.3612,0.16257 z"
       id="path3720"
       inkscape:connector-curvature="0" />
    <path
       style="fill:#845058;fill-opacity:1;stroke:none"
       d="m 143.24879,954.24186 c -2.171,2.9736 -6.2987,4.98434 -7.1893,8.70665 1.8829,6.30238 8.0516,10.1686 12.2779,14.90335 15.3332,14.16431 29.2846,29.71374 44.225,44.25494 6.1421,6.441 14.3276,10.1769 21.1788,15.6184 2.992,2.2215 5.0378,5.9782 8.3002,7.5325 8.8437,0.4499 17.89,0.8005 26.3194,3.5651 1.7147,-1.036 -1.5517,-2.5346 -2.1857,-3.2515 -6.7055,-4.3099 -13.473,-8.7003 -18.0202,-15.4496 -8.8262,-12.2136 -17.7663,-24.7316 -30.1734,-33.62911 -14.6015,-10.60138 -28.9734,-21.7641 -43.9668,-31.79191 -4.0313,-2.89262 -7.7527,-6.47547 -10.3685,-10.62139 l -0.3974,0.16257 z"
       id="path3722"
       inkscape:connector-curvature="0" />
    <path
       style="fill:#613238;fill-opacity:1;stroke:none"
       id="path3728"
       d="m 58.204994,912.70869 c -0.7097,-0.15325 -1.3256,-0.0633 -1.9243,0.32691 -0.2603,0.29587 -0.5691,0.58925 -0.6678,0.98387 -0.1411,0.51561 -0.3268,1.00985 -0.4033,1.54168 -0.092,0.3891 -4e-4,0.70773 0.096,1.05675 -0.015,-0.0541 -0.1007,-0.16248 -0.045,-0.16227 0.076,2.8e-4 0.8618,1.33319 0.886,1.38047 0.048,0.29381 0.1828,0.58658 0.1423,0.88143 -0.1758,1.28149 -1.0922,1.76598 -2.1222,2.24682 -0.7609,0.27939 -1.5488,0.47357 -2.3298,0.69116 -0.3493,0.27014 -0.5167,0.17982 -0.09,0.0462 0.02,0.39178 -0.1742,0.86729 -0.033,1.24176 0.1413,0.29951 0.2623,0.81274 0.4849,1.19298 0.446,1.08265 0.1751,2.22878 -0.787,2.93272 -0.1754,0.12828 -0.3863,0.19897 -0.5795,0.29846 -0.8549,0.301 -1.766,0.3074 -2.6614,0.32168 -0.6629,0.10605 -1.4117,-0.1488 -2.06,0.0297 -0.2905,0.046 -0.3271,0.15499 -0.5715,0.34907 0.2213,-0.15227 0.056,0.51867 0.048,0.64308 -0.032,0.56579 -0.061,1.1275 0.1318,1.66802 0.3952,1.559 -0.015,2.47816 -1.2435,3.45521 -0.7813,0.52877 -1.664,0.8882 -2.5266,1.26252 -0.512,0.28332 -1.0342,0.55538 -1.4398,0.98585 -0.2318,0.34506 -0.922,0.63514 -0.9651,1.08182 -0.068,0.32428 -0.079,0.62677 -0.012,0.93892 0,-0.0227 0,-0.0855 0.011,-0.0681 0.1456,0.16732 0.2226,0.43356 0.4732,0.61788 1.7043,1.73703 -0.7522,4.14732 -2.4565,2.41029 l 0,0 c -0.6347,-0.68327 -1.1821,-1.43478 -1.4156,-2.35527 -0.1689,-1.02142 -0.1054,-2.03684 0.2846,-3.00604 0.4193,-0.81897 1.0016,-1.48896 1.6914,-2.09661 0.7351,-0.68422 1.5531,-1.24019 2.4641,-1.66806 0.5962,-0.25609 1.1924,-0.5194 1.7701,-0.81315 0.3478,-0.2637 0.1173,-0.0531 0.059,0.25723 -0.035,0.18863 0.098,0.39074 6e-4,-0.0423 -0.2544,-0.94446 -0.3544,-1.89652 -0.2596,-2.87411 0.082,-1.07794 0.2712,-2.12706 1.0594,-2.93399 0.7094,-0.60918 1.4968,-1.1057 2.4477,-1.22424 0.8171,-0.0853 1.6352,-0.0525 2.4562,-0.0588 0.4552,-0.007 0.9252,-0.0295 1.3718,-0.0493 -0.4911,0.40619 -0.5528,0.82396 -0.4188,1.40858 0,0.0161 0,-0.0327 -0.01,-0.0491 -0.3013,-0.70464 -0.6222,-1.42336 -0.7645,-2.17756 -0.093,-0.9707 -0.056,-1.95743 0.2275,-2.89766 0.5074,-1.16528 1.1908,-1.76644 2.3936,-2.14538 0.6054,-0.16452 1.2076,-0.33887 1.812,-0.50261 0.1716,-0.0757 0.3305,-0.17872 0.5043,-0.24899 0.016,-0.007 -0.015,0.0322 -0.025,0.0467 -0.044,0.0643 -0.1114,0.11574 -0.1373,0.18924 -0.3149,0.89338 -0.2811,0.65489 -0.082,1.39513 0.027,0.0327 0.098,0.13684 0.081,0.0981 -0.2436,-0.54315 -0.8539,-0.92315 -1.0049,-1.52259 -0.2871,-0.89971 -0.4338,-1.8217 -0.2611,-2.76447 0.1251,-0.76451 0.3573,-1.49016 0.5851,-2.22817 0.4531,-1.1101 1.1638,-2.05501 2.1603,-2.74213 1.3324,-0.73688 2.6153,-1.03336 4.1368,-0.7563 2.4091,0.34415 1.9224,3.75108 -0.4867,3.40692 z"
       inkscape:connector-curvature="0" />
    <path
       style="fill:#613238;fill-opacity:1;stroke:none"
       id="path3730"
       d="m 70.049094,941.58001 c 0,0.19039 -0.02,2.06675 0.2023,2.04717 -0.011,-0.0414 -0.074,-0.13351 -0.032,-0.12418 0.071,0.0158 0.1058,0.0985 0.1546,0.15159 0.4603,0.50061 0.7489,0.97705 0.8153,1.68783 0.021,0.22631 -0.051,0.45172 -0.076,0.67759 -0.3099,0.7918 -0.7716,1.37685 -1.3728,1.96394 0.048,0.24421 0.1,-0.17474 0.099,-0.23796 -0.1691,-0.46259 -0.1462,-0.38152 0.2462,-0.11172 0.6401,0.44011 -0.6165,-0.4893 0.5501,0.39041 0.9559,0.82574 1.2338,1.92242 1.1186,3.13761 -0.3743,1.46513 0.033,-0.0419 -0.2838,0.95348 0,0.0114 0.035,0.0119 0.036,4e-5 0.026,-0.28292 -0.04,-0.3764 0.035,-0.25363 0.012,-0.22506 -0.4597,-0.59549 0.01,-0.21289 0.1582,0.12906 0.3299,0.26209 0.5004,0.38307 0.3393,0.16439 1.2178,0.64816 1.3117,1.02028 0.1495,0.59211 0.082,1.21862 0.1226,1.82793 -0.6169,0.91835 -1.3627,0.90946 -2.0323,1.25462 0.2468,-0.0915 0.1956,-0.0595 0.1614,0.25096 -0.014,0.16901 -0.028,0.30014 0.044,0.45528 0.095,0.20607 -0.041,-0.18354 0.031,-0.0932 0.064,0.0809 0.1116,0.17387 0.1675,0.2608 0.4949,0.87379 0.6448,1.9562 0.1073,2.85751 -0.1316,0.22076 -0.3237,0.39932 -0.4856,0.59898 -0.2117,0.13764 -0.2619,0.40694 -0.095,0.13227 -0.1774,-0.63921 0.1767,0.1377 0.023,-0.21187 -0.023,-0.0528 -0.1415,-0.16763 -0.087,-0.14959 0.2448,0.0806 0.3649,0.36447 0.537,0.55631 0.6706,0.89628 0.8357,1.96102 0.8045,3.04964 -0.085,0.57533 -0.04,0.3067 -0.1312,0.80652 -0.4405,2.39333 -3.8251,1.77047 -3.3847,-0.62286 l 0,0 c 0.061,-0.32855 0.032,-0.18467 0.083,-0.43212 0,-0.12178 -0.053,-0.45421 6e-4,-0.57837 -0.058,-0.13054 0.01,-2.3e-4 -0.2069,-0.21662 -0.1617,-0.16322 -0.3364,-0.31606 -0.476,-0.49856 -0.3635,-0.47521 -0.5034,-1.0177 -0.6032,-1.5956 0.01,-1.03706 0.3148,-1.98268 1.115,-2.68602 -0.1805,0.31892 -0.2573,0.6378 -0.098,0.84934 -0.5851,-0.91198 -0.9307,-1.85991 -0.7541,-2.96075 0.1783,-1.16449 0.5859,-2.22254 1.67,-2.83121 0.4602,-0.23716 0.9264,-0.45407 1.4388,-0.5529 0.052,-0.01 -0.1065,0.0276 -0.1452,0.0636 -0.2741,0.25464 -0.5238,0.53427 -0.7857,0.8014 0.064,0.56137 0.05,1.13726 0.1918,1.68411 0.037,0.14038 0.2154,0.19433 0.3217,0.29296 0.018,0.0168 -0.036,-0.034 -0.057,-0.0473 -0.2835,-0.18289 -0.5688,-0.35817 -0.8571,-0.534 -0.6751,-0.51841 -1.3826,-1.02793 -1.7125,-1.84935 -0.1602,-0.53129 -0.3585,-1.71333 0.048,-2.20822 0.016,-0.0198 0.01,0.0506 0.012,0.076 0.052,-0.39935 0.016,0.0453 0.1886,-0.063 -0.7169,-0.61871 -1.6308,-0.96186 -1.9617,-1.95422 -0.3062,-1.35578 -0.1446,-2.21375 0.7908,-3.27619 0.5029,-0.48253 0.1438,-0.0369 0.2425,-0.18685 0.07,-0.10622 0.5908,-1.05907 0.1637,-0.0561 0,0.4456 -0.035,0.35185 0.1989,0.86486 0.016,0.0358 0.1,0.11811 0.085,0.0817 -0.1356,-0.33448 -0.9256,-0.65809 -0.8636,-1.0421 -0.5342,-1.21635 -0.6135,-2.27376 -0.5676,-3.59036 0,-2.43352 3.4415,-2.43352 3.4415,0 z"
       inkscape:connector-curvature="0" />
    <path
       style="fill:#613238;fill-opacity:1;stroke:none"
       id="path3732"
       d="m 77.136894,942.18109 c -0.3451,0.59429 -1.2943,1.31703 -1.4447,1.96705 0.01,0.17246 0.097,-0.13026 0.093,-0.18185 -0.016,-0.19638 -0.3829,-0.67292 -0.015,-0.31896 0.7332,0.76623 0.8857,1.91296 0.3339,2.82913 -0.1258,0.20891 -0.3052,0.38053 -0.4577,0.57079 -0.1572,0.22118 -0.4489,0.32434 -0.5963,0.54884 -0.043,0.0663 0.1172,-0.11068 0.1553,-0.18022 0.046,-0.45023 0.1003,-0.43918 -0.039,-0.83683 -0.072,-0.20397 -0.2215,-0.29595 -0.1453,-0.26115 0.1694,0.0774 0.3157,0.19836 0.4805,0.28519 0.5237,0.34119 1.1284,0.49959 1.7048,0.72751 1.4806,0.4281 2.0343,1.47802 1.9353,2.96428 -0.016,0.81523 -0.6975,1.36344 -0.9263,2.08389 -0.01,0.0466 -0.016,0.0945 -0.031,0.13967 -0.1655,0.48904 -0.5114,1.31242 -0.3358,1.04247 4e-4,-0.10566 9e-4,-0.21131 0,-0.31697 0.01,0.006 0.025,0.0261 0.023,0.0168 -0.013,-0.0529 -0.1054,-0.17595 -0.056,-0.15329 0.1875,0.0859 0.5304,0.86123 0.6098,1.02581 0.4259,0.99182 0.3379,2.00531 0.048,3.01189 -0.1876,0.56882 -0.422,1.12094 -0.611,1.68897 -0.1298,0.50336 -0.1414,1.02736 -0.1587,1.54405 -0.012,0.48602 -0.012,0.97222 -0.012,1.45835 0,2.43352 -3.4431,2.43132 -3.4415,-0.002 l 0,0 c 3e-4,-0.52532 1e-4,-1.05072 0.014,-1.5759 0.031,-0.8604 0.08,-1.72834 0.3472,-2.55388 0.1983,-0.55818 0.4196,-1.1018 0.603,-1.66562 0.062,-0.2297 0.1317,-0.24161 0.07,-0.49921 -0.029,-0.15536 -0.1212,-0.21985 -0.215,-0.35802 -0.3948,-0.58172 -0.6174,-1.04269 -0.6607,-1.76685 0.08,-0.82577 0.3331,-1.57098 0.6215,-2.34317 0.1668,-0.38368 0.4023,-0.75317 0.5966,-1.07406 0.035,-0.0575 0.03,-0.14111 0.082,-0.18429 0.027,-0.023 0.01,0.0713 0.011,0.10688 0.1098,0.23354 0.1936,0.47856 0.4299,0.65821 0.4516,0.34339 0.2823,0.0325 -0.2098,-0.0476 -0.7093,-0.28062 -1.4509,-0.49155 -2.0967,-0.91174 -1.2369,-0.69328 -2.1045,-1.35459 -1.999,-2.94384 0.2917,-0.93601 0.6211,-1.43907 1.3588,-2.05205 -0.2012,0.34925 -0.2813,0.55722 -0.1447,0.96095 0.1524,0.45075 0.1206,0.42327 0.3192,0.53717 -1.0206,-0.99013 -1.2982,-2.02339 -0.8277,-3.37646 0.4884,-1.0047 1.1964,-1.8513 1.8997,-2.71372 1.5202,-1.90026 4.2076,0.24964 2.6874,2.1499 z"
       inkscape:connector-curvature="0" />
    <path
       style="fill:#613238;fill-opacity:1;stroke:none"
       id="path3734"
       d="m 70.775194,995.39337 c -0.8588,0.34543 -1.7233,0.68261 -2.5315,1.13712 -0.5244,0.37425 -1.0359,0.72498 -1.4921,1.17115 -0.063,0.0271 -0.1706,0.54569 -0.068,0.40701 0.033,-0.33875 0.2925,-0.1142 0.5023,0.008 0.4508,0.24397 0.9742,0.26427 1.4665,0.37486 1.3871,0.443 1.9283,1.59419 2.1168,2.93469 0.075,0.8229 0.06,1.6506 0.056,2.4759 -0.01,0.766 -0.01,1.5321 -0.01,2.2981 0.069,0.2616 0.032,0.023 0.059,0 0.023,-0.017 0.045,0.035 0.07,0.049 0.039,0.021 0.1162,0.039 0.1561,0.05 0.5659,0.3235 1.2076,0.4603 1.8181,0.6772 0.7389,0.3409 1.7844,0.621 2.0637,1.5171 0.1297,0.4159 0.047,0.87 0.071,1.3051 -0.2193,0.3178 -0.3861,0.6792 -0.6579,0.9535 -0.2294,0.2315 -1.3856,0.7098 -1.7485,0.9037 -0.2259,0.2108 -0.603,0.2955 -0.6128,0.6276 -0.028,0.2767 -0.1324,0.5869 0.043,0.8278 0,-0.017 0,-0.063 0.014,-0.05 0.1827,0.1977 0.3086,0.4679 0.5388,0.5944 0.46,0.3111 0.8731,0.6949 1.354,0.9752 0.6882,0.4047 1.3681,0.815 1.9909,1.3166 1.2229,1.2569 1.1638,2.4448 0.036,3.7193 -0.044,0.046 -0.093,0.088 -0.1311,0.1389 -0.025,0.033 0.072,-0.048 0.091,-0.085 0.094,-0.1864 0.24,-0.3683 0.2446,-0.5773 0.01,-0.3641 -0.026,-0.7573 -0.2081,-1.0727 -0.451,-0.78 -0.9288,-0.6429 -1.6532,-0.6917 -0.777,0.3386 -0.6915,0.4927 -0.4273,-0.4128 0.2122,-0.6768 0.5522,-1.3094 0.891,-1.93 0.823,-1.4046 2.453,-1.5488 3.4645,-0.2066 0.1288,0.1709 0.184,0.3864 0.2759,0.5796 0.1402,0.6899 0.342,1.3611 0.4837,2.0517 -0.022,0.4456 0.3085,0.7248 0.1556,0.4589 0.3278,0.3134 0.6731,0.3205 1.097796,0.4531 0.6925,0.189 1.3606,0.3924 2.0036,0.718 1.2299,0.8675 1.4183,1.9032 0.9598,3.2763 -0.09,0.2872 -0.1194,0.5869 -0.1504,0.8846 -0.2676,2.4188 -3.688296,2.0403 -3.420696,-0.3785 l 0,0 c 0.062,-0.5391 0.1343,-1.0789 0.3068,-1.5962 0.235596,-0.7055 -0.09,0.6315 0.628696,0.8198 -0.4192,-0.1923 -0.940496,-0.2991 -1.409796,-0.457 -0.7135,-0.2837 -1.509,-0.3799 -2.0784,-0.9652 -0.7847,-0.6663 -1.3689,-1.477 -1.4677,-2.5389 -0.096,-0.5009 -0.2931,-0.9924 -0.324,-1.4987 0.5566,0.7712 1.4473,0.8513 2.2356,0.3501 0.1107,-0.07 0.4172,-0.4873 0.2575,-0.2979 -0.2299,0.4189 -0.475,0.8368 -0.6198,1.2878 -0.1826,0.52 0.1611,-0.4781 -0.1718,0.6628 -0.2701,0.9252 -0.7774,1.627 -1.6783,2.0284 -0.401,0.014 -0.8188,0.1576 -1.203,0.042 -1.7016,-0.5124 -1.6771,-2.4852 -0.5613,-3.5013 -0.2068,0.3645 -0.3032,1.1576 0.1545,1.3692 -0.445,-0.4466 -1.0917,-0.6552 -1.5927,-1.0269 -0.521,-0.3334 -1.0059,-0.7122 -1.5052,-1.0751 -0.7933,-0.6033 -1.4318,-1.3441 -1.8421,-2.2631 -0.3168,-1.0567 -0.3607,-2.1061 0.01,-3.1641 0.4826,-1.1335 1.158,-1.8241 2.2171,-2.4359 0.3681,-0.1931 0.7401,-0.3838 1.1162,-0.5612 0.084,-0.04 0.2571,-0.2018 0.2564,-0.109 0,0.3881 -1.4816,0.06 -0.6774,0.947 0.045,0.3565 0.01,0.733 0.1351,1.0694 0.081,0.2154 0.2938,0.355 0.4584,0.5156 0.038,0.037 0.1848,0.1012 0.1419,0.07 -0.209,-0.1508 -0.4835,-0.1914 -0.7026,-0.326 -0.8056,-0.2862 -1.6488,-0.4812 -2.3839,-0.9381 -1.1435,-0.713 -1.9639,-1.6811 -2.0087,-3.0922 0,-0.7702 0,-1.5403 0.01,-2.3104 0,-0.6745 0.016,-1.3501 -0.028,-2.0236 -0.053,-0.5811 0.095,0.01 0.4793,-0.025 -0.7883,-0.2508 -1.6756,-0.227 -2.3802,-0.7437 -1.2065,-0.7055 -2.0058,-1.40237 -2.2102,-2.86727 0.023,-1.11764 0.2902,-2.16297 1.1025,-2.98329 0.6803,-0.66359 1.44,-1.19934 2.2333,-1.72192 1.0411,-0.56789 2.1345,-1.03061 3.2497,-1.43348 2.3399,-0.66854 3.2853,2.64056 0.9454,3.3091 z"
       inkscape:connector-curvature="0" />
    <path
       style="fill:#613238;fill-opacity:1;stroke:none"
       id="path3736"
       d="m 67.156394,994.98379 c -1.0158,0.42818 -2.0669,0.7976 -3.0394,1.32063 -0.1346,0.0703 -0.2727,0.13447 -0.4039,0.21102 -0.4947,0.28858 0.1148,0.18063 0.1584,-0.44527 0.021,-0.30556 -0.087,-0.60634 -0.131,-0.90951 -0.6335,-0.91034 -1.3604,-0.9369 -2.1724,-0.24288 0.1273,-0.51505 0.2966,-1.01647 0.372,-1.54545 0.057,0.29058 0.065,-1.43879 -0.017,-1.0955 -0.095,-0.22406 -0.1656,-0.1297 -0.6302,-0.5186 -0.5044,-0.51188 -0.8268,-1.16264 -1.2186,-1.75696 -0.4139,-0.69249 -0.6114,-1.47988 -0.8861,-2.2304 -0.357,-0.74235 -0.6841,-1.50199 -0.9591,-2.2787 -0.3361,-1.06737 -0.083,-2.07902 0.3663,-3.05729 0.3636,-0.73463 0.9716,-1.3095 1.5375,-1.88958 0.2728,-0.3219 0.6524,-0.52435 0.9472,-0.82139 0.074,-0.0743 0.293,-0.46522 0.2948,-0.46789 0.1997,-0.30578 0.2073,-0.67743 0.2365,-1.03093 0.04,-0.69596 0.033,-1.39359 0.032,-2.0904 0.063,-0.61021 -0.1036,-1.17752 -0.2098,-1.7713 -0.1326,-0.79768 -0.1574,-1.60702 -0.174,-2.41377 0.037,-1.07538 0.2827,-2.05696 0.8601,-2.96912 0.3511,-0.72551 1.2216,-0.92768 1.7288,-1.47323 0.1118,-0.30432 0.2579,-0.65353 0.3372,-0.99447 0.085,-0.82109 0.2899,-1.60671 0.5905,-2.37396 0.3717,-1.23079 1.1724,-1.84852 2.3527,-2.23822 1.0468,-0.27271 2.0619,-0.19953 3.0743,0.14761 1.0785,0.5419 1.4908,1.50104 1.6881,2.62424 0.379,2.40383 -3.0206,2.93982 -3.3996,0.536 l 0,0 c -0.045,-0.44441 0.1222,-0.003 0.4231,0.031 0.1256,-0.0312 0.044,-0.002 -0.1271,-0.0534 -0.2165,-0.0645 -0.4724,0.0111 -0.7018,0.0203 -0.015,-0.003 -0.046,0.006 -0.046,-0.01 6e-4,-0.0479 0.3396,-0.60546 -0.062,0.20332 -0.2526,0.6364 -0.3597,1.29233 -0.4599,1.97151 -0.2754,1.0222 -0.6823,2.0091 -1.45,2.76541 -0.3252,0.26115 -0.6919,0.5619 -1.0565,0.77397 -0.021,0.0121 0.072,-0.0915 0,-0.0723 -0.039,0.0593 -0.078,0.11854 -0.1169,0.1778 0,-0.0251 0.015,-0.0899 -0.01,-0.0753 -0.2194,0.15774 -0.066,0.70955 -0.1936,0.93868 0.013,0.6288 0.026,1.26007 0.1219,1.88283 0.1373,0.78391 0.3277,1.56124 0.2626,2.365 0,0.80382 0.01,1.60879 -0.046,2.41122 -0.092,0.94707 -0.2749,1.87935 -0.8334,2.67495 -0.467,0.66952 -0.9688,1.26461 -1.6266,1.75265 -0.3281,0.32243 -0.6965,0.65365 -0.9173,1.03189 -0.3197,0.77869 -0.013,-0.14456 -0.1816,0.36293 0.2611,0.773 0.6263,1.50656 0.9504,2.25416 0.1753,0.50032 0.33,1.00836 0.5238,1.50084 0.2225,0.34382 0.4734,0.68267 0.6587,1.04928 0.011,0.0224 -0.07,-0.0463 -0.074,-0.0151 0.6005,0.5656 1.3314,1.00918 1.5842,1.85957 0.3176,0.94686 0.3913,1.89229 0.2191,2.88158 -0.1177,0.7426 -0.3328,1.45177 -0.53,2.17484 -0.2001,0.47963 -0.2896,0.82911 -0.7097,1.19704 -0.7108,0.62261 -1.7578,0.84239 -2.6001,0.31882 -0.291,-0.18085 -0.4972,-0.4714 -0.7458,-0.7071 -0.101,-0.40287 -0.2976,-0.79332 -0.3029,-1.20861 -0.015,-1.17917 1.1668,-1.94805 2.0705,-2.41304 1.0612,-0.54415 2.1701,-0.99003 3.2766,-1.43317 2.2367,-0.95861 3.5924,2.20464 1.3556,3.16325 z"
       inkscape:connector-curvature="0" />
    <path
       style="fill:#613238;fill-opacity:1;stroke:none"
       id="path3738"
       d="m 158.72899,968.01361 c 0.7217,0.5056 1.5592,0.76794 2.312,1.22193 1.0729,0.77537 1.4182,1.92257 1.5362,3.17652 0.028,0.19675 -0.048,1.22371 0.2266,1.32021 -0.01,-0.0307 -0.055,-0.10888 -0.027,-0.0922 0.2821,0.17246 0.3941,0.47513 0.7342,0.56663 0.7597,0.3467 1.5404,0.60079 2.3601,0.75587 0.9246,0.1309 1.8609,0.13542 2.7929,0.14428 1.0237,0.005 2.0474,-10e-6 3.071,-0.002 0.1627,-3.1e-4 0.3253,-6.5e-4 0.4879,-9.2e-4 0.3198,-5.4e-4 0.64,-9.3e-4 0.9597,-10e-4 0.3156,-3e-4 0.7993,0.0406 0.5986,-0.06 -1.1894,0.44854 -1.0892,1.63332 -0.3766,2.42658 -0.2308,-0.0181 -0.464,-0.0646 -0.6963,-0.0583 -0.1655,0.004 0.054,0.0538 0.077,0.0529 0.039,-0.014 0.133,-0.0802 0.1168,-0.0421 -0.035,0.0836 -0.1269,0.13032 -0.1841,0.20093 -0.09,0.11113 -0.093,0.26349 -0.1156,0.39819 -0.051,0.39707 -0.054,0.87241 0.1212,1.24416 0.1655,0.43643 0.1326,0.20412 0.5941,0.63068 0.305,0.17106 0.6707,0.28233 1.0169,0.38002 0.6783,0.12681 1.36,0.17314 2.0345,0.32842 0.5696,0.14847 1.1567,0.18736 1.7421,0.21442 0.7927,0.0257 1.5827,-0.002 2.3717,0.0836 0.8662,0.21737 1.6269,0.65764 2.3286,1.19612 0.427,0.3934 0.894,0.73308 1.3503,1.08996 0.5917,0.36673 1.0628,0.8823 1.5798,1.33903 0.4789,0.49494 0.8665,1.0708 1.2775,1.62134 0.2211,0.12087 0.6137,0.46724 0.9087,0.68081 0.8495,0.21732 1.3743,0.89649 1.7891,1.61918 0.3116,0.56446 0.6312,1.10633 0.8588,1.71436 0.2049,0.50736 0.3002,1.28099 0.5316,1.74822 0.079,0.58699 0.5433,0.93805 0.072,0.35806 0.4504,0.0279 0.9124,0.0461 1.3677,0.0515 0.6309,-0.21503 1.3003,-0.1986 1.9547,-0.13973 0.7898,0.17373 1.5762,0.36499 2.3386,0.63622 0.6542,0.17424 1.2925,0.40338 1.9118,0.67599 0.4939,0.3134 1.0062,0.55388 1.5312,0.8014 0.3821,0.21079 0.8111,0.24266 1.2371,0.27728 0.605,-0.0234 1.1939,-0.15404 1.8172,-0.12807 1.2148,0.18658 1.748,0.83544 2.3988,1.77112 0.3191,0.46373 0.6001,0.96963 0.9511,1.41167 0.3104,0.4793 0.7102,0.88713 1.0734,1.32649 0.4846,0.53331 1.0222,1.00157 1.4705,1.56962 0.6306,0.8047 0.9081,1.7625 1.0633,2.7549 0.01,0.4814 0.1233,0.838 0.3652,1.2226 0.053,0.082 0.034,-0.033 0.049,-0.023 0.2876,0.1984 0.4556,0.3215 0.7657,0.484 0.3769,0.1627 0.1531,0.058 0.6612,0.335 2.1186,1.1972 0.4255,4.1934 -1.6931,2.9962 l 0,0 c -0.2787,-0.1735 -0.096,-0.069 -0.565,-0.2826 -0.8527,-0.4467 -1.6519,-0.9725 -2.198,-1.7888 -0.4236,-0.7573 -0.7507,-1.5601 -0.7894,-2.4399 -0.058,-0.4368 -0.1314,-0.8539 -0.4204,-1.2049 -0.2823,-0.576 -1.063,-0.8516 -1.3617,-1.431 -0.4047,-0.4898 -0.8452,-0.9518 -1.1958,-1.48363 -0.3566,-0.50071 -0.6935,-1.01816 -1.0337,-1.5294 -0.068,-0.10245 -0.1447,-0.19927 -0.2028,-0.30737 -0.016,-0.0294 0.1141,0.0643 0.092,0.0392 -0.2804,-0.32089 0.1713,0.11722 0.3636,0.0149 -0.605,-0.0821 -1.276,0.29963 -1.912,0.12107 -0.8478,-0.0779 -1.6925,-0.21402 -2.455,-0.61738 -0.4856,-0.27482 -1.0255,-0.471 -1.4821,-0.77773 -0.4223,-0.30027 -1.133,-0.33303 -1.598,-0.54627 -0.4953,-0.17709 -1.013,-0.27756 -1.505,-0.45146 -0.1111,-0.0112 -0.2197,-0.0711 -0.3303,-0.0557 -0.4493,0.0624 -0.8845,0.22531 -1.3456,0.21031 -0.9427,-0.0125 -1.9011,-0.0243 -2.7903,-0.37916 -1.0744,-0.58928 -1.5036,-1.16176 -1.8463,-2.31245 -0.1939,-0.58475 -0.3528,-1.18354 -0.5392,-1.76971 -0.1198,-0.48395 -0.5151,-0.85807 -0.6934,-1.32183 0.078,0.0599 0.1566,0.13535 0.2603,0.13968 -0.2647,-0.26855 -0.7977,-0.21655 -1.0369,-0.53975 -0.5614,-0.43011 -1.1534,-0.84381 -1.6099,-1.38957 -0.2682,-0.3743 -0.5582,-0.7402 -0.8174,-1.11195 -0.4573,-0.4201 -0.8858,-0.86874 -1.4169,-1.20036 -0.4528,-0.37997 -0.9437,-0.71689 -1.3804,-1.11435 -0.092,-0.15963 -0.989,-0.47981 -0.6131,-0.45014 -0.6521,-0.18171 -1.4065,0.0716 -2.073,-0.0562 -0.7937,-0.0389 -1.5882,-0.10401 -2.361,-0.30078 -0.7365,-0.17593 -1.5037,-0.15866 -2.2341,-0.38143 -0.8513,-0.26078 -1.7168,-0.56631 -2.3907,-1.17015 -0.6444,-0.6278 -1.3243,-1.2184 -1.5331,-2.14689 -0.2705,-1.00022 -0.4119,-2.03152 -0.1681,-3.05599 0.2907,-1.0895 0.8162,-1.98302 1.7279,-2.67193 0.2198,-0.11458 0.4282,-0.25432 0.6593,-0.34374 0.8644,-0.33435 1.8058,-0.20536 2.6865,-0.0296 0.4284,0.13945 0.8671,0.2366 1.2078,0.57053 0.8895,0.87178 1.0225,2.09289 0.1505,3.04397 -0.212,0.23112 -0.5212,0.34891 -0.7817,0.52336 -1.1106,0.31547 -2.0304,0.26426 -3.1675,0.25285 -1.0375,0.003 -2.0751,0.007 -3.1127,0.002 -1.1419,-0.0113 -2.2894,-0.0233 -3.4193,-0.20796 -1.0612,-0.21181 -2.0839,-0.53049 -3.0709,-0.97673 -0.9251,-0.43241 -1.674,-1.04349 -2.2886,-1.86288 -0.4772,-0.87481 -0.7532,-1.7859 -0.7031,-2.79391 -0.014,-0.20206 -0.1007,-0.47314 0.042,-0.56942 -0.3095,-0.24156 -0.7006,-0.33932 -1.0532,-0.50144 -0.552,-0.25383 -1.074,-0.56864 -1.5584,-0.9349 -1.9003,-1.52021 0.2496,-4.20758 2.1499,-2.68738 z"
       inkscape:connector-curvature="0" />
    <path
       style="fill:#613238;fill-opacity:1;stroke:none"
       id="path3740"
       d="m 210.34199,1034.068 c 0.4298,0.9061 0.6916,1.8752 1.1212,2.7814 0.1819,0.2691 0.2795,0.8236 0.5701,1.0199 0.01,0.01 0.01,-0.021 0.011,-0.031 0.049,0.035 0.098,0.071 0.1472,0.1063 0.4896,0.084 0.822,0.8439 1.2653,0.9159 0.5179,0.3298 1.1072,0.4948 1.5638,0.9269 0.1637,0.155 0.2926,0.3429 0.439,0.5143 0.2577,0.2417 0.484,1.2322 0.7949,1.4235 0.073,0.014 -0.1257,-0.1527 -0.076,-0.1379 0.345,0.1016 0.7258,0.2902 1.065,0.4147 0.7508,0.1738 1.3431,0.6832 2.0195,1.0078 0.5087,0.1109 1.0213,0.1828 1.5278,0.3148 0.6171,0.162 1.2564,0.1781 1.8842,0.2761 0.5347,0.1059 0.2769,0.056 0.7734,0.1496 2.3914,0.4507 1.754,3.8327 -0.6374,3.382 l 0,0 c -0.5027,-0.095 -0.2627,-0.048 -0.7201,-0.14 -0.7135,-0.1545 -1.4732,-0.094 -2.1739,-0.3389 -0.7524,-0.1994 -1.5514,-0.2224 -2.2545,-0.5969 -0.5349,-0.2901 -1.0189,-0.6656 -1.6152,-0.8275 -0.9039,-0.3398 -1.834,-0.6225 -2.4977,-1.3753 -0.3496,-0.4735 -0.7076,-0.9938 -0.9178,-1.5491 -0.01,-0.023 0.04,0.028 0.06,0.043 0.033,0.022 0.3588,0.1578 0.099,0.034 -0.3032,-0.1443 -0.6237,-0.257 -0.8988,-0.4558 -0.6658,-0.3677 -1.1693,-0.8776 -1.8147,-1.2656 -0.7907,-0.6331 -1.3602,-1.4155 -1.7351,-2.36 -0.4043,-0.8816 -0.7057,-1.7989 -1.0784,-2.6925 -1.0883,-2.1766 1.9899,-3.7157 3.0782,-1.5391 z"
       inkscape:connector-curvature="0" />
    <path
       style="fill:#000000;fill-opacity:1;stroke:none"
       id="path3742"
       d="m 67.494094,1006.8935 c 0.4417,1.0407 0.717,2.1356 0.894,3.2491 0.1198,0.8471 0.1328,1.7034 0.1391,2.5572 0,0.8019 0,1.6038 -0.01,2.4057 0.094,0.9469 0.232,1.8879 0.31,2.8365 0.1577,0.809 0.3105,1.6153 0.3838,2.4369 0.023,0.8619 0.1252,1.7196 0.3414,2.5548 0.2698,0.7419 0.3049,1.5365 0.4857,2.2964 0.2066,0.6599 0.2978,1.3415 0.3497,2.0283 0.043,0.7531 0.042,1.5079 0.043,2.2621 0.026,0.7856 0.011,1.5573 -0.2312,2.31 -0.2563,0.6713 -0.5065,1.3446 -0.7711,2.0125 -0.3627,0.7311 -0.7135,1.4717 -0.985,2.242 -0.1466,0.6902 -0.3894,1.354 -0.5402,2.0431 -0.1289,0.6956 -0.1405,1.4051 -0.1525,2.1104 0.01,0.7495 0.1358,1.5106 0.3146,2.2387 0.174,0.7773 0.4525,1.5227 0.6314,2.2986 0.1587,0.7675 0.1834,1.5525 0.1999,2.3334 0.01,0.5122 0,0.2562 0.01,0.7679 0,0.2704 -0.3812,0.2721 -0.3823,0 l 0,0 c 0,-0.5079 -3e-4,-0.2541 -0.01,-0.7615 -0.016,-0.7548 -0.038,-1.5136 -0.1902,-2.2558 -0.1776,-0.7744 -0.4583,-1.5178 -0.6303,-2.2938 -0.1838,-0.7607 -0.3213,-1.5529 -0.3254,-2.3357 0.012,-0.7306 0.026,-1.4656 0.1613,-2.186 0.1553,-0.7042 0.4003,-1.3835 0.5532,-2.0884 0.2744,-0.7743 0.6227,-1.5213 0.9901,-2.2556 0.2625,-0.6604 0.5086,-1.3269 0.7631,-1.9905 0.2384,-0.7112 0.2295,-1.4475 0.2122,-2.1906 -9e-4,-0.7447 9e-4,-1.49 -0.042,-2.2338 -0.05,-0.6672 -0.1391,-1.3289 -0.3406,-1.9697 -0.1754,-0.7589 -0.2191,-1.548 -0.4838,-2.2885 -0.2182,-0.856 -0.3298,-1.7331 -0.3519,-2.6161 -0.073,-0.8226 -0.2311,-1.6287 -0.384,-2.4395 -0.079,-0.9593 -0.2217,-1.9106 -0.3113,-2.8687 0,-0.8006 0.01,-1.6013 0.01,-2.402 -0.01,-0.8347 -0.018,-1.6719 -0.1344,-2.5001 -0.1712,-1.0824 -0.4389,-2.1466 -0.8677,-3.1584 -0.1066,-0.2485 0.2449,-0.3991 0.3514,-0.1506 z"
       inkscape:connector-curvature="0" />
    <path
       style="fill:#000000;fill-opacity:1;stroke:none"
       id="path3744"
       d="m 61.000694,1036.6663 c 0.9686,0.108 1.9336,0.2379 2.9055,0.3136 0.8304,0.044 1.6536,0.044 2.4747,0.1819 0.9457,0.1574 1.9045,0.2091 2.8612,0.2458 0.7134,0.1371 1.4474,0.2075 2.1504,0.3915 0.7252,0.2325 1.4885,0.2649 2.2311,0.405 0.7597,0.2042 1.548,0.2401 2.3172,0.3839 0.7661,0.1698 1.5412,0.2674 2.3049,0.447 0.1263,0.027 0.2526,0.054 0.3789,0.082 0.2643,0.057 0.1837,0.4308 -0.081,0.3738 l 0,0 c -0.1286,-0.028 -0.2572,-0.056 -0.3858,-0.083 -0.7582,-0.1784 -1.5279,-0.2743 -2.2883,-0.4435 -0.7687,-0.1468 -1.5585,-0.177 -2.3178,-0.384 -0.751,-0.1444 -1.5247,-0.1729 -2.2581,-0.4111 -0.6736,-0.1831 -1.3831,-0.2369 -2.0666,-0.3789 -0.973,-0.037 -1.9482,-0.091 -2.91,-0.2509 -0.8097,-0.1367 -1.6221,-0.1321 -2.4409,-0.1777 -0.962,-0.075 -1.9177,-0.2002 -2.8758,-0.3125 -0.2704,0 -0.2704,-0.3824 0,-0.3824 z"
       inkscape:connector-curvature="0" />
    <path
       style="fill:#000000;fill-opacity:1;stroke:none"
       id="path3746"
       d="m 62.147894,1034.3719 c 1.0679,0 2.1358,0 3.2037,0 0.8429,0 1.6858,0 2.5287,0 0.7805,-0.01 1.5457,0.1839 2.3183,0.2786 0.7778,0.026 1.5326,0.2128 2.2978,0.3359 0.6477,0.2099 1.2982,0.3778 1.9742,0.4614 0.7544,0.018 1.4907,0.1221 2.2326,0.2511 0.7416,0.1533 1.5049,0.1164 2.2484,0.2398 0.6407,0.1478 1.286996,0.2306 1.916496,0.4218 0.5767,0.2049 1.1519,0.4141 1.7309,0.6176 0.1104,0.037 0.2207,0.073 0.331,0.1102 0.2565,0.085 0.1357,0.4482 -0.1208,0.3628 l 0,0 c -0.1124,-0.037 -0.2249,-0.075 -0.3373,-0.1123 -0.5733,-0.2028 -1.1438,-0.4096 -1.715,-0.6124 -0.6139,-0.1869 -1.244796,-0.2647 -1.869396,-0.4107 -0.7423,-0.1296 -1.5092,-0.079 -2.2497,-0.2401 -0.7361,-0.1279 -1.4658,-0.2306 -2.2144,-0.2483 -0.68,-0.085 -1.3378,-0.2456 -1.9878,-0.4634 -0.7605,-0.1226 -1.5104,-0.308 -2.2836,-0.3339 -0.7571,-0.093 -1.5072,-0.2795 -2.2717,-0.2757 -0.8429,0 -1.6858,0 -2.5287,0 -1.0679,0 -2.1358,0 -3.2037,0 -0.2704,0 -0.2704,-0.3824 0,-0.3824 z"
       inkscape:connector-curvature="0" />
    <path
       style="fill:#000000;fill-opacity:1;stroke:none"
       id="path3748"
       d="m 168.04299,998.00101 c 1.0793,-0.16254 2.1556,-0.2663 3.2449,-0.18615 0.8518,0.0664 1.6815,0.29349 2.475,0.60166 0.6574,0.2287 1.3222,0.43164 1.9814,0.65585 0.7997,0.2413 1.5748,0.55987 2.3553,0.85731 0.8613,0.26002 1.6711,0.64952 2.5339,0.90472 0.7256,0.1651 1.429,0.4169 2.1293,0.6662 0.7187,0.3047 1.4431,0.6034 2.1867,0.8425 0.6884,0.1779 1.3542,0.4362 2.021,0.6817 0.72,0.2014 1.4311,0.4344 2.164,0.5867 0.7837,0.1229 1.5512,0.3317 2.309,0.5631 0.7591,0.1819 1.52,0.3544 2.282,0.526 0.7777,0.1245 1.552,0.2781 2.3074,0.5032 0.7192,0.2817 1.4937,0.3225 2.2373,0.4947 0.6414,0.2009 1.3037,0.2893 1.9713,0.339 0.7441,0.042 1.4898,0.04 2.2348,0.041 0.7652,-5e-4 1.5304,0 2.2956,0 0.7651,-7e-4 1.5302,-8e-4 2.2954,-9e-4 0.7648,0 1.5296,0 2.2943,0 0.1037,-0.015 0.2073,-0.029 0.311,-0.044 0.2679,-0.036 0.3194,0.3425 0.051,0.3789 l 0,0 c -0.1208,0.016 -0.2416,0.032 -0.3624,0.048 -0.7647,0 -1.5295,0 -2.2943,10e-5 -0.765,0 -1.53,10e-5 -2.295,8e-4 -0.7655,7e-4 -1.531,0 -2.2965,0 -0.7543,-9e-4 -1.5093,8e-4 -2.2628,-0.042 -0.6872,-0.052 -1.3696,-0.1421 -2.0301,-0.3481 -0.7496,-0.1784 -1.5345,-0.2119 -2.2598,-0.5006 -0.7463,-0.2248 -1.5132,-0.3712 -2.2816,-0.4965 -0.7713,-0.1739 -1.5416,-0.3478 -2.3096,-0.5333 -0.7468,-0.228 -1.503,-0.4341 -2.2754,-0.5545 -0.7511,-0.157 -1.4807,-0.3936 -2.2182,-0.6022 -0.6619,-0.2438 -1.3225,-0.5006 -2.0061,-0.6766 -0.747,-0.2412 -1.476,-0.5386 -2.1977,-0.8462 -0.6939,-0.2471 -1.3905,-0.4969 -2.1097,-0.6598 -0.8718,-0.2592 -1.6915,-0.6492 -2.5614,-0.914 -0.7762,-0.29597 -1.547,-0.61319 -2.3424,-0.85271 -0.6641,-0.2269 -1.3343,-0.43026 -1.9966,-0.66136 -0.7581,-0.29473 -1.5506,-0.51343 -2.3647,-0.57675 -1.0617,-0.0794 -2.1106,0.0261 -3.1626,0.18335 -0.2677,0.0382 -0.3217,-0.3403 -0.054,-0.37854 z"
       inkscape:connector-curvature="0" />
    <path
       style="fill:#000000;fill-opacity:1;stroke:none"
       id="path3750"
       d="m 174.59779,1001.534 c 0.9697,0.2795 1.964,0.4451 2.9491,0.6547 0.8432,0.1683 1.6308,0.5131 2.4733,0.687 0.6593,0.1047 1.2887,0.3215 1.9497,0.4234 0.6396,0.057 1.2545,0.2534 1.8425,0.5021 0.6148,0.2322 1.2714,0.3014 1.9087,0.4522 0.7232,0.2008 1.4797,0.1852 2.212,0.3208 0.6493,0.1775 1.3132,0.2657 1.9829,0.3145 0.736,0.1301 1.4701,0.2494 2.1839,0.473 0.6536,0.2299 1.3496,0.2369 2.0241,0.3574 0.7388,0.1745 1.4904,0.266 2.2466,0.3172 0.7114,-0.03 1.3933,0.1522 2.0866,0.2751 0.7004,0.1116 1.4106,0.1282 2.1182,0.1418 0.688,-0.01 1.3542,0.1919 2.0326,0.2852 0.7275,0.099 1.4638,0.055 2.1905,0.1483 0.7537,0.1485 1.5141,0.243 2.2801,0.2945 0.6888,0.021 1.3522,0.2264 2.0327,0.3227 0.7183,0.086 1.4426,0.093 2.165,0.1008 0.5081,0 1.0162,0 1.5242,0 0.2704,-2e-4 0.2707,0.3822 4e-4,0.3824 l 0,0 c -0.5096,5e-4 -1.0191,10e-4 -1.5287,0 -0.739,-0.01 -1.4799,-0.016 -2.2146,-0.1046 -0.6713,-0.096 -1.3258,-0.2967 -2.0048,-0.3198 -0.774,-0.052 -1.5428,-0.1464 -2.3044,-0.2969 -0.7265,-0.099 -1.4653,-0.043 -2.1927,-0.1486 -0.6635,-0.092 -1.3153,-0.2865 -1.9876,-0.2817 -0.7276,-0.014 -1.4578,-0.032 -2.1777,-0.1475 -0.6801,-0.1209 -1.3477,-0.3013 -2.0457,-0.2701 -0.7703,-0.053 -1.5361,-0.1451 -2.2888,-0.3225 -0.6893,-0.1264 -1.4027,-0.1286 -2.0704,-0.3688 -0.6857,-0.2151 -1.3908,-0.3275 -2.0974,-0.4565 -0.684,-0.05 -1.3627,-0.139 -2.026,-0.3201 -0.7363,-0.1422 -1.5017,-0.1149 -2.229,-0.3245 -0.658,-0.1557 -1.3366,-0.2259 -1.9697,-0.4721 -0.5592,-0.2367 -1.1431,-0.4245 -1.752,-0.4764 -0.6674,-0.1039 -1.3036,-0.3191 -1.9688,-0.4268 -0.8431,-0.1756 -1.6328,-0.5141 -2.4754,-0.6874 -0.9764,-0.2084 -1.963,-0.3695 -2.9235,-0.6502 -0.2677,-0.038 -0.2136,-0.4168 0.054,-0.3786 z"
       inkscape:connector-curvature="0" />
    <path
       style="fill:#000000;fill-opacity:1;stroke:none"
       id="path3752"
       d="m 195.24839,994.37787 c -0.7193,0.84001 -1.4066,1.70732 -2.1589,2.51821 -0.5624,0.53092 -0.9413,1.22155 -1.4849,1.76329 -0.4455,0.42981 -0.7952,0.94204 -1.2113,1.39793 -0.3868,0.4071 -0.7194,0.8476 -1.0253,1.3182 -0.3403,0.4239 -0.6521,0.8833 -0.8826,1.377 -0.3192,0.5242 -0.5713,1.089 -0.7686,1.6696 -0.2209,0.6845 -0.5972,1.2984 -0.82,1.9811 -0.2976,0.5605 -0.3746,1.1978 -0.7189,1.7304 -0.3213,0.4933 -0.8328,0.8279 -1.3553,1.08 -0.5156,0.3336 -1.1081,0.5123 -1.643,0.8083 -0.5105,0.2675 -0.9763,0.6257 -1.3838,1.0327 -0.3004,0.2118 -0.4823,0.5221 -0.7006,0.8074 -0.1646,0.2146 -0.468,-0.018 -0.3035,-0.2327 l 0,0 c 0.229,-0.2978 0.4228,-0.6235 0.735,-0.8464 0.4361,-0.4288 0.9254,-0.8132 1.469,-1.0963 0.5434,-0.2959 1.1383,-0.4848 1.6624,-0.8183 0.4628,-0.2173 0.918,-0.5137 1.2016,-0.9468 0.3403,-0.49 0.3704,-1.1213 0.6738,-1.6376 0.226,-0.6837 0.5946,-1.3013 0.8214,-1.9854 0.2034,-0.5932 0.4571,-1.1735 0.7847,-1.7092 0.2416,-0.5073 0.5545,-0.9867 0.9081,-1.4226 0.3184,-0.487 0.6636,-0.9452 1.0637,-1.3678 0.4227,-0.4586 0.7716,-0.98057 1.225,-1.41207 0.5456,-0.52883 0.9077,-1.23223 1.4728,-1.75088 0.7463,-0.80374 1.4269,-1.66445 2.1406,-2.49696 0.1689,-0.21114 0.4675,0.0277 0.2986,0.23888 z"
       inkscape:connector-curvature="0" />
    <path
       style="fill:#000000;fill-opacity:1;stroke:none"
       id="path3754"
       d="m 196.33569,997.83514 c -0.686,0.76413 -1.357,1.53409 -2.0089,2.32666 -0.5442,0.4824 -0.98,1.0627 -1.4806,1.5858 -0.4419,0.4665 -0.8218,0.9729 -1.1704,1.5118 -0.2169,0.5443 -0.4597,1.0654 -0.7592,1.5699 -0.2168,0.5576 -0.4886,1.0894 -0.7488,1.6282 -0.314,0.5347 -0.6535,1.0612 -0.9095,1.627 -0.2482,0.5245 -0.6159,0.9631 -0.9743,1.4122 -0.3643,0.4417 -0.8086,0.7792 -1.283,1.0934 -0.4938,0.3772 -0.982,0.758 -1.4994,1.1055 -0.446,0.3389 -0.8915,0.6358 -1.2979,1.022 -0.2146,0.2559 -0.1189,0.1203 -0.2875,0.4064 -0.1396,0.2316 -0.4671,0.034 -0.3275,-0.1974 l 0,0 c 0.2127,-0.3467 0.095,-0.1851 0.3516,-0.4863 0.4226,-0.4011 0.8855,-0.7108 1.3484,-1.0623 0.519,-0.3472 1.0059,-0.7305 1.5017,-1.107 0.4429,-0.2911 0.8552,-0.6022 1.1949,-1.0132 0.3397,-0.424 0.689,-0.8366 0.9251,-1.3319 0.2601,-0.5671 0.5934,-1.1 0.9131,-1.6348 0.2654,-0.5486 0.5389,-1.0911 0.7643,-1.657 0.3022,-0.509 0.5387,-1.0375 0.7672,-1.5828 0.3627,-0.558 0.7569,-1.0844 1.215,-1.5682 0.4944,-0.5157 0.9226,-1.0904 1.4615,-1.56426 0.6601,-0.80177 1.3387,-1.58155 2.0338,-2.35409 0.1912,-0.1912 0.4616,0.0792 0.2704,0.27039 z"
       inkscape:connector-curvature="0" />
    <path
       style="fill:#000000;fill-opacity:1;stroke:none"
       id="path3756"
       d="m 187.95439,1019.4587 c 0.9749,0.01 1.9391,-0.1755 2.9068,-0.2761 0.8115,-0.08 1.627,-0.096 2.4417,-0.1056 0.8847,0 1.7693,0 2.6539,0 1.1385,-0.05 2.2652,0.048 3.3947,0.1759 0.909,0.1127 1.8229,0.1683 2.738,0.1956 0.769,0.017 1.5383,0.015 2.3075,0.015 0.7628,-10e-4 1.5256,0 2.2884,0 0.7646,-4e-4 1.5292,-4e-4 2.2938,-4e-4 0.757,-0.021 1.519,0.048 2.2717,-0.044 0.7608,-0.1275 1.5221,-0.2231 2.2735,-0.3988 0.7835,-0.12 1.5305,-0.3563 2.2723,-0.627 0.7116,-0.2026 1.4224,-0.3974 2.1347,-0.5991 0.532,-0.08 1.0386,-0.2471 1.5554,-0.3901 0.2606,-0.072 0.3625,0.2966 0.1019,0.3686 l 0,0 c -0.5159,0.1424 -1.0223,0.3096 -1.5532,0.3895 -0.7033,0.1986 -1.4048,0.3923 -2.1077,0.5903 -0.7561,0.2759 -1.5181,0.5168 -2.3163,0.6401 -0.7652,0.1789 -1.5403,0.2773 -2.3152,0.4062 -0.7687,0.089 -1.5443,0.031 -2.3171,0.047 -0.7645,0 -1.5291,0 -2.2936,4e-4 -0.7628,4e-4 -1.5256,0 -2.2883,0 -0.7731,4e-4 -1.5463,0 -2.3192,-0.015 -0.9257,-0.028 -1.8502,-0.084 -2.7697,-0.1979 -1.1154,-0.1264 -2.2276,-0.2235 -3.352,-0.1734 -0.883,-9e-4 -1.7661,0 -2.6491,0 -0.803,0.01 -1.6068,0.025 -2.4065,0.1036 -0.9809,0.1018 -1.9582,0.2879 -2.9464,0.2781 -0.2704,0 -0.2704,-0.3824 0,-0.3824 z"
       inkscape:connector-curvature="0" />
    <path
       style="fill:#000000;fill-opacity:1;stroke:none"
       id="path3758"
       d="m 192.16069,1020.9883 c 1.1723,0 2.3445,0 3.5168,0 0.8665,0 1.7331,0 2.5996,0 0.7649,0 1.5297,0 2.2945,0 0.7632,0 1.5264,0 2.2896,0 0.7647,0 1.5294,0 2.2941,0 0.7648,0 1.5296,0 2.2944,0 0.7648,0 1.5295,0 2.2943,0 0.71,0.053 1.3909,-0.029 2.0833,-0.1694 0.7071,-0.087 1.3998,-0.2257 2.097,-0.3696 0.7673,-0.097 1.5223,-0.2342 2.2806,-0.3851 0.6499,-0.096 1.2725,-0.3164 1.8699,-0.5827 0.5928,-0.1962 1.192,-0.3719 1.7923,-0.548 0.6904,-0.1816 1.4062,-0.2092 2.1158,-0.2315 0.126,0 0.252,0 0.378,-0.01 0.2703,0 0.2772,0.3775 0.01,0.3823 l 0,0 c -0.1243,0 -0.2486,0 -0.373,0.01 -0.6772,0.021 -1.3608,0.045 -2.0202,0.2163 -0.584,0.1706 -1.1663,0.3438 -1.7441,0.5303 -0.6232,0.2778 -1.2735,0.5066 -1.951,0.6084 -0.7573,0.1507 -1.5116,0.2885 -2.2779,0.3846 -0.6977,0.1439 -1.3911,0.2834 -2.0985,0.3699 -0.7171,0.1449 -1.4245,0.2291 -2.1591,0.177 -0.7648,0 -1.5295,0 -2.2943,0 -0.7648,0 -1.5296,0 -2.2944,0 -0.7647,0 -1.5294,0 -2.2941,0 -0.7632,0 -1.5264,0 -2.2896,0 -0.7648,0 -1.5296,0 -2.2945,0 -0.8665,0 -1.7331,0 -2.5996,0 -1.1723,0 -2.3445,0 -3.5168,0 -0.2704,0 -0.2704,-0.3824 0,-0.3824 z"
       inkscape:connector-curvature="0" />
    <path
       style="fill:#000000;fill-opacity:1;stroke:none"
       id="path3760"
       d="m 193.26079,996.27394 c -0.6453,0.56289 -1.134,1.25367 -1.2909,2.10075 0.01,0.629 0.3963,1.09285 0.8696,1.46107 0.6056,0.48164 1.2867,0.84194 1.9631,1.21084 0.5589,0.2685 1.1134,0.5446 1.6636,0.8311 0.6371,0.1993 1.1161,0.4072 1.4407,1.0162 0.2394,0.7676 0.1012,1.6463 -0.074,2.42 -0.2411,0.6697 -0.2848,1.3837 -0.4512,2.0689 -0.152,0.626 -0.303,1.2387 -0.5771,1.8241 -0.1183,0.3131 -0.309,0.5894 -0.4784,0.8758 -0.1377,0.2327 -0.4668,0.038 -0.3291,-0.1947 l 0,0 c 0.1634,-0.2763 0.3488,-0.5413 0.4616,-0.8442 0.2665,-0.5613 0.4026,-1.1519 0.5517,-1.7526 0.1712,-0.6815 0.2048,-1.3966 0.4498,-2.063 0.1605,-0.6851 0.2829,-1.473 0.1066,-2.1596 -0.2664,-0.5459 -0.7324,-0.6584 -1.2772,-0.8518 -0.5524,-0.2878 -1.1089,-0.5651 -1.6702,-0.8346 -0.695,-0.3795 -1.3946,-0.7509 -2.0168,-1.2463 -0.5851,-0.46743 -1.032,-1.04751 -1.0083,-1.8334 0.1855,-0.93551 0.7058,-1.70625 1.4276,-2.32716 0.2112,-0.16891 0.45,0.12969 0.2389,0.2986 z"
       inkscape:connector-curvature="0" />
    <path
       style="fill:#000000;fill-opacity:1;stroke:none"
       id="path3762"
       d="m 196.28179,1003.1179 c 0.2573,1.1397 0.471,2.2875 0.8189,3.4043 0.3199,0.8782 0.517,1.7852 0.6143,2.7126 0.017,0.7187 -0.2373,1.3847 -0.4343,2.0623 -0.1723,0.7011 -0.2829,1.4277 -0.2205,2.1491 0.1403,0.7779 0.704,1.2008 1.3354,1.5876 0.6521,0.3124 1.3498,0.538 2.0417,0.7507 0.6774,0.2385 1.2055,0.5721 1.577,1.1938 0.3834,0.5684 0.649,1.1956 0.9216,1.8204 0.2574,0.6491 0.4715,1.3203 0.7828,1.9465 0.3751,0.6503 0.8557,1.225 1.2962,1.8293 0.085,0.1015 0.1697,0.203 0.2545,0.3045 0.1731,0.2077 -0.1206,0.4526 -0.2937,0.2449 l 0,0 c -0.09,-0.1081 -0.1799,-0.2162 -0.2699,-0.3243 -0.4527,-0.6224 -0.9482,-1.2136 -1.3302,-1.8855 -0.3094,-0.6339 -0.5355,-1.3057 -0.7902,-1.9625 -0.2664,-0.6113 -0.5253,-1.225 -0.9013,-1.7804 -0.3094,-0.5454 -0.7793,-0.8086 -1.3594,-1.0213 -0.722,-0.223 -1.4514,-0.4566 -2.1291,-0.7902 -0.7382,-0.4536 -1.3662,-0.976 -1.5166,-1.8827 -0.058,-0.7688 0.044,-1.5403 0.2345,-2.2868 0.1836,-0.6301 0.4239,-1.2482 0.4212,-1.9157 -0.094,-0.9026 -0.2875,-1.7844 -0.5991,-2.6388 -0.3526,-1.1365 -0.5735,-2.3035 -0.8323,-3.4638 -0.038,-0.2676 0.3403,-0.3217 0.3785,-0.054 z"
       inkscape:connector-curvature="0" />
    <path
       style="fill:#000000;fill-opacity:1;stroke:none"
       id="path3764"
       d="m 211.31849,1028.0606 c -0.4896,0.8946 -1.0169,1.7693 -1.5049,2.6652 -0.3753,0.73 -0.6754,1.4767 -0.8355,2.2822 -0.1741,0.5328 -0.3177,1.0695 -0.4054,1.6231 -0.043,0.267 -0.4202,0.2069 -0.3776,-0.06 l 0,0 c 0.089,-0.5582 0.2286,-1.1015 0.408,-1.638 0.1696,-0.8427 0.4802,-1.6266 0.8747,-2.3901 0.4939,-0.9056 1.0257,-1.7908 1.5226,-2.6943 0.15,-0.225 0.4681,-0.013 0.3181,0.2121 z"
       inkscape:connector-curvature="0" />
    <path
       style="fill:#000000;fill-opacity:1;stroke:none"
       id="path3766"
       d="m 204.49319,1022.3042 c -0.4792,0.9506 -0.7092,1.9806 -0.8628,3.0256 -0.1116,0.817 -0.1821,1.628 0.075,2.4208 0.2408,0.626 0.5897,1.2058 0.8726,1.8156 0.3446,0.5643 0.7391,1.105 1.1919,1.5877 0.5314,0.4698 0.9889,1.0126 1.4949,1.5075 0.5125,0.373 0.976,0.8061 1.4712,1.2009 0.6326,0.3129 0.9574,0.8015 1.1417,1.4636 0.1434,0.7296 0.1344,1.4775 0.1372,2.2179 0.062,0.7389 -0.2415,1.4031 -0.4687,2.0849 -0.1334,0.6603 -0.379,1.2882 -0.5291,1.9442 -0.07,0.332 -0.095,0.6701 -0.1225,1.0074 -0.022,0.2695 -0.4029,0.2387 -0.3811,-0.031 l 0,0 c 0.029,-0.3558 0.057,-0.7123 0.1309,-1.0623 0.1541,-0.6677 0.4009,-1.3076 0.5391,-1.9795 0.2145,-0.6425 0.5075,-1.2659 0.449,-1.9626 0,-0.707 0.01,-1.4209 -0.1237,-2.1186 -0.1584,-0.5959 -0.4462,-0.9853 -1.0115,-1.2655 -0.5045,-0.4038 -0.9796,-0.8427 -1.5002,-1.2266 -0.5089,-0.5002 -0.9725,-1.0447 -1.5068,-1.5197 -0.4775,-0.5146 -0.9012,-1.0841 -1.2592,-1.6878 -0.2891,-0.6246 -0.6487,-1.217 -0.8901,-1.8605 -0.2655,-0.852 -0.2174,-1.7154 -0.089,-2.5924 0.1603,-1.0849 0.4014,-2.1541 0.8991,-3.1409 0.1209,-0.2418 0.4629,-0.071 0.342,0.1711 z"
       inkscape:connector-curvature="0" />
    <path
       style="fill:#000000;fill-opacity:1;stroke:none"
       id="path3768"
       d="m 144.61529,964.52344 c 0.028,1.03964 0.1077,2.09904 0.3189,3.11959 0.1106,0.78944 0.4885,1.47664 0.7909,2.19981 0.3068,0.6216 0.6612,1.21347 1.0292,1.79944 0.3297,0.46946 0.7382,0.86918 1.1188,1.2949 0.4337,0.37818 0.796,0.79806 1.1037,1.28254 0.3891,0.64897 0.4993,1.39066 0.5689,2.13032 0.1171,0.75171 0.3712,1.47476 0.6254,2.19016 0.2583,0.87953 0.5885,1.73777 1.0029,2.55697 0.3925,0.72286 0.8967,1.35105 1.437,1.96434 0.5817,0.73744 1.3133,1.31511 2.0664,1.86507 0.8771,0.50255 1.6564,1.15148 2.5356,1.64739 0.9156,0.53866 1.8571,1.02179 2.8303,1.44717 0.7935,0.29671 1.5762,0.63978 2.3311,1.02459 0.5743,0.37968 0.9113,0.99435 1.3019,1.54264 0.4368,0.58517 0.7796,1.2263 1.1653,1.84445 0.4334,0.61567 1,1.10335 1.5536,1.60552 0.7184,0.60601 1.5091,1.10819 2.2809,1.63918 0.7936,0.54611 1.6336,1.02459 2.4921,1.46067 0.8505,0.40684 1.1353,1.10915 1.2902,1.98632 0.1031,0.81734 0.091,1.64319 0.087,2.46529 -0.057,0.7165 0.018,1.4043 0.1562,2.1042 0.032,0.1017 0.065,0.2034 0.097,0.3051 0.081,0.258 -0.2839,0.3725 -0.3649,0.1145 l 0,0 c -0.036,-0.1151 -0.071,-0.2302 -0.1072,-0.3454 -0.1434,-0.7245 -0.2209,-1.439 -0.1635,-2.1802 0,-0.7996 0.016,-1.60264 -0.081,-2.39782 -0.131,-0.76298 -0.3411,-1.35727 -1.0868,-1.71113 -0.8732,-0.4444 -1.7284,-0.93048 -2.5356,-1.48657 -0.7854,-0.54124 -1.5909,-1.05221 -2.321,-1.67091 -0.5797,-0.52582 -1.1709,-1.03906 -1.6213,-1.68651 -0.3809,-0.61199 -0.7191,-1.24647 -1.1521,-1.82487 -0.3547,-0.49831 -0.6598,-1.0612 -1.1647,-1.42406 -0.7466,-0.38377 -1.5247,-0.71907 -2.3102,-1.01465 -0.9849,-0.43114 -1.9386,-0.9194 -2.8655,-1.46476 -0.8905,-0.50604 -1.6851,-1.15756 -2.5727,-1.67134 -0.7753,-0.5664 -1.5276,-1.16306 -2.1277,-1.92112 -0.5617,-0.63783 -1.0842,-1.29326 -1.4916,-2.045 -0.4191,-0.83461 -0.7598,-1.70603 -1.0219,-2.60132 -0.2635,-0.74533 -0.5287,-1.49832 -0.6456,-2.28226 -0.063,-0.6792 -0.1569,-1.36301 -0.511,-1.961 -0.2966,-0.46736 -0.6483,-0.86743 -1.0664,-1.23308 -0.3932,-0.4427 -0.8188,-0.85621 -1.1572,-1.346 -0.3789,-0.60386 -0.7442,-1.21392 -1.0582,-1.85542 -0.311,-0.7459 -0.6981,-1.45675 -0.8126,-2.27036 -0.2126,-1.04686 -0.3004,-2.13028 -0.3267,-3.19638 0,-0.27039 0.3824,-0.27039 0.3824,0 z"
       inkscape:connector-curvature="0" />
    <path
       style="fill:#000000;fill-opacity:1;stroke:none"
       id="path3770"
       d="m 145.96089,963.2945 c 1.1784,0.0954 2.3421,0.26667 3.5062,0.46812 0.9677,0.2544 1.9488,0.4593 2.8969,0.78159 0.9035,0.27095 1.8138,0.53475 2.7346,0.74213 0.8475,0.19282 1.6629,0.47668 2.4873,0.74487 0.6138,0.16085 1.2044,0.40127 1.777,0.6722 0.9001,0.33815 1.8167,0.63863 2.6979,1.02453 0.8934,0.44548 1.8613,0.69793 2.7966,1.03419 0.8595,0.32784 1.7546,0.5469 2.6233,0.8437 0.6343,0.27012 1.2741,0.5373 1.9024,0.82333 0.6277,0.38508 0.7704,1.12141 1.031,1.75842 0.048,0.12081 0.095,0.24163 0.1429,0.36244 0.099,0.25155 -0.2566,0.39179 -0.3557,0.14023 l 0,0 c -0.047,-0.11942 -0.094,-0.23884 -0.1412,-0.35826 -0.2198,-0.54044 -0.336,-1.19892 -0.8364,-1.55524 -0.6147,-0.28423 -1.2461,-0.5412 -1.8671,-0.80921 -0.8697,-0.29955 -1.7681,-0.51539 -2.6288,-0.84563 -0.943,-0.33996 -1.9197,-0.59376 -2.8207,-1.04383 -0.8837,-0.38893 -1.8056,-0.68589 -2.7078,-1.02903 -0.558,-0.26405 -1.1331,-0.49874 -1.7318,-0.65425 -0.8131,-0.26503 -1.6171,-0.54519 -2.4531,-0.73546 -0.9339,-0.21145 -1.8576,-0.4772 -2.7739,-0.75323 -0.9283,-0.31805 -1.8913,-0.51377 -2.8386,-0.7667 -1.1582,-0.20044 -2.3159,-0.37073 -3.4885,-0.46547 -0.2683,-0.0335 -0.2208,-0.41298 0.047,-0.37944 z"
       inkscape:connector-curvature="0" />
    <path
       style="fill:#000000;fill-opacity:1;stroke:none"
       id="path3772"
       d="m 79.226494,946.55109 c 0,1.06791 0,2.13581 0,3.20372 0,0.8429 0,1.68581 0,2.52871 -0.035,0.77436 0.1892,1.51495 0.4816,2.22222 0.2733,0.65132 0.625296,1.26816 0.970796,1.88395 0.417,0.64007 0.8573,1.26056 1.1858,1.95257 0.3994,0.61438 0.6133,1.28653 0.7256,2.00393 0.088,0.74845 0.084,1.50362 0.085,2.25604 0.038,0.79446 -0.083,1.58052 -0.2886,2.34581 -0.3252,0.7713 -0.6648,1.54169 -1.0459,2.28703 -0.3166,0.57393 -0.6663,1.12341 -0.9475,1.71823 -0.1998,0.62856 -0.461196,1.23647 -0.619596,1.87806 -0.1279,0.62534 -0.3427,1.22187 -0.4449,1.85426 -0.093,0.71459 -0.098,1.43663 -0.1045,2.15605 -0.033,0.67443 0.1687,1.32286 0.3766,1.95544 0.1352,0.64805 0.3602,1.2432 0.679896,1.81915 0.2515,0.60073 0.6063,1.1473 0.8819,1.73516 0.287,0.51957 0.585,1.03831 0.8208,1.5838 0.243,0.66757 0.2702,1.3821 0.2955,2.08448 0.018,0.76315 0.012,1.5266 0.01,2.28989 0,0.76587 0,1.53173 0,2.2976 0.017,0.70631 -0.1939,1.38887 -0.279,2.08653 -0.197,0.85388 -0.3417,1.71256 -0.4169,2.58539 -0.038,0.62185 -0.022,0.30517 -0.047,0.95009 -0.011,0.27019 -0.3926,0.25539 -0.3821,-0.0148 l 0,0 c 0.025,-0.65679 0.01,-0.33408 0.048,-0.96818 0.076,-0.87723 0.2177,-1.74131 0.4184,-2.59906 0.084,-0.68234 0.2878,-1.35024 0.2761,-2.04024 5e-4,-0.7661 0,-1.5322 0,-2.2983 0,-0.75839 0.01,-1.51694 -0.01,-2.27519 -0.023,-0.65514 -0.045,-1.32257 -0.2648,-1.94729 -0.2316,-0.54295 -0.5335,-1.05551 -0.8159,-1.57299 -0.2697,-0.58064 -0.6243,-1.11773 -0.869796,-1.71133 -0.3312,-0.5968 -0.5682,-1.21451 -0.7087,-1.88529 -0.221,-0.67224 -0.4293,-1.36209 -0.3958,-2.07846 0.01,-0.73875 0.012,-1.48019 0.1094,-2.2138 0.105,-0.6427 0.3194,-1.24997 0.4513,-1.88509 0.1662,-0.6657 0.4329,-1.29855 0.645096,-1.9496 0.2839,-0.59788 0.633,-1.15268 0.9529,-1.7291 0.3712,-0.72041 0.6938,-1.46929 1.017,-2.21242 0.2001,-0.73185 0.311,-1.48495 0.2753,-2.24508 0,-0.73307 0,-1.46876 -0.081,-2.19815 -0.1049,-0.68267 -0.3129,-1.31537 -0.6935,-1.89921 -0.3222,-0.68515 -0.7661,-1.29346 -1.1736,-1.92889 -0.352696,-0.62925 -0.711696,-1.25994 -0.990796,-1.9255 -0.3089,-0.75421 -0.547,-1.54295 -0.5104,-2.36771 0,-0.8429 0,-1.68581 0,-2.52871 0,-1.06791 0,-2.13581 0,-3.20372 0,-0.27039 0.3824,-0.27039 0.3824,0 z"
       inkscape:connector-curvature="0" />
    <path
       style="fill:#000000;fill-opacity:1;stroke:none"
       id="path3774"
       d="m 66.508694,953.86903 c -0.2685,0.97972 -0.6427,1.92097 -0.8614,2.91528 -0.2245,0.6727 -0.3808,1.36153 -0.625,2.02685 -0.2387,0.64964 -0.2758,1.34061 -0.307,2.02473 -0.027,0.83469 -0.025,1.66998 -0.024,2.50501 0.1267,0.63464 0.1821,1.29242 0.3556,1.91608 0.2056,0.63237 0.3079,1.2879 0.4746,1.93058 0.3191,0.70172 0.4303,1.46582 0.6508,2.19609 0.2627,0.62909 0.2792,1.31598 0.4377,1.96827 0.1589,0.66228 0.4094,1.29349 0.5662,1.95653 0.1559,0.75322 0.1779,1.52401 0.1942,2.29029 0.027,0.78441 0.022,1.55781 -0.1069,2.33241 -0.081,0.72864 -0.2443,1.43122 -0.4282,2.13865 -0.1649,0.67289 -0.1955,1.36666 -0.2182,2.05597 -0.017,0.7574 -0.014,1.51509 -0.013,2.27263 0,0.76554 0,1.53107 0,2.29661 0.068,0.71494 -0.1105,1.40094 -0.2328,2.09759 -0.073,0.75583 -0.3768,1.4553 -0.6033,2.17194 -0.1692,0.77157 -0.4,1.52801 -0.5325,2.30747 -0.045,0.26653 -0.4225,0.2021 -0.3769,-0.0644 l 0,0 c 0.1368,-0.79649 0.3694,-1.57035 0.5448,-2.35843 0.2219,-0.70044 0.52,-1.3839 0.5913,-2.12276 0.1188,-0.6752 0.2945,-1.338 0.2271,-2.03117 -5e-4,-0.76544 0,-1.53087 0,-2.29631 0,-0.76194 0,-1.52402 0.013,-2.28582 0.024,-0.71752 0.057,-1.43942 0.2303,-2.13956 0.1813,-0.69658 0.3424,-1.38754 0.4211,-2.10539 0.1258,-0.75091 0.1273,-1.50067 0.1017,-2.26131 -0.016,-0.73951 -0.035,-1.48347 -0.184,-2.21071 -0.1556,-0.66284 -0.4097,-1.29297 -0.566,-1.95557 -0.1516,-0.64714 -0.1768,-1.32359 -0.432,-1.94733 -0.2183,-0.73625 -0.3378,-1.502 -0.6547,-2.20967 -0.1663,-0.64122 -0.2686,-1.2951 -0.4734,-1.92607 -0.176,-0.65812 -0.2497,-1.34598 -0.369,-2.01619 -9e-4,-0.84099 0,-1.68224 0.024,-2.52289 0.033,-0.72323 0.077,-1.45276 0.3301,-2.13903 0.2383,-0.64917 0.3892,-1.32164 0.6104,-1.97745 0.2216,-1.00175 0.5945,-1.95136 0.8673,-2.93795 0.074,-0.25998 0.4419,-0.15493 0.3676,0.10505 z"
       inkscape:connector-curvature="0" />
    <path
       style="fill:#000000;fill-opacity:1;stroke:none"
       id="path3776"
       d="m 58.276894,922.09017 c -0.744,0.59979 -1.5565,1.09381 -2.3539,1.61683 -0.6701,0.49521 -1.3671,0.94753 -2.0542,1.41656 -0.5146,0.28691 -0.9154,0.72469 -1.4124,1.03493 -0.4214,0.30469 -0.8787,0.56921 -1.1893,0.99487 -0.2936,0.55611 -0.307,1.19896 -0.3338,1.81337 -0.021,0.72545 -0.4167,1.2749 -0.7496,1.88227 -0.3556,0.5788 -0.9554,0.9306 -1.5124,1.29148 -0.5738,0.38239 -1.1575,0.73926 -1.766,1.06345 -0.5008,0.38404 -1.0732,0.65714 -1.5669,1.05009 -0.4576,0.3247 -0.8052,0.79035 -1.1428,1.23549 -0.3562,0.51821 -0.6403,1.03526 -0.7863,1.64895 -0.1279,0.70493 -0.1278,1.42448 -0.134,2.13848 0.015,0.78189 0.018,1.5523 -0.1074,2.32511 -0.1502,0.77435 -0.5522,1.4415 -0.9189,2.12564 -0.3635,0.63881 -0.7401,1.26525 -1.0824,1.91581 -0.2876,0.64088 -0.7039,1.20939 -0.9884,1.85181 -0.3555,0.61635 -0.5736,1.29395 -0.8823,1.93397 -0.3064,0.68842 -0.5341,1.41471 -0.7339,2.14124 -0.1672,0.74608 -0.3713,1.48273 -0.6439,2.19697 -0.223,0.67666 -0.4066,1.36642 -0.6368,2.04085 -0.1831,0.72158 -0.498,1.38709 -0.8143,2.05651 -0.3487,0.6969 -0.7115,1.38281 -1.1045,2.05539 -0.3466,0.72167 -0.6329,1.47298 -0.9867,2.19072 -0.2491,0.50274 -0.3697,1.05072 -0.5581,1.57577 -0.092,0.25439 -0.4514,0.1248 -0.3598,-0.12959 l 0,0 c 0.1947,-0.53804 0.3157,-1.10144 0.5751,-1.61574 0.3598,-0.72446 0.6442,-1.48663 0.9993,-2.21409 0.3875,-0.66291 0.7451,-1.33894 1.089,-2.02586 0.3104,-0.65665 0.6201,-1.30848 0.7982,-2.01699 0.233,-0.67814 0.4146,-1.37321 0.6414,-2.05332 0.2683,-0.70281 0.4679,-1.42799 0.6324,-2.16222 0.2067,-0.74856 0.441,-1.49709 0.7583,-2.20602 0.3079,-0.63579 0.5227,-1.31089 0.8773,-1.92312 0.2904,-0.64914 0.7047,-1.22765 0.9993,-1.87439 0.3429,-0.65144 0.7196,-1.27888 1.0839,-1.91842 0.347,-0.64679 0.7314,-1.27519 0.8784,-2.00613 0.1226,-0.75347 0.1158,-1.50473 0.1024,-2.26726 0.01,-0.74296 0.01,-1.49176 0.1446,-2.22468 0.1619,-0.66412 0.4652,-1.23111 0.8539,-1.79108 0.3586,-0.46912 0.7267,-0.96021 1.2102,-1.30404 0.5148,-0.40288 1.1,-0.69634 1.6239,-1.08734 0.599,-0.31905 1.1737,-0.67011 1.7381,-1.04707 0.5036,-0.32498 1.0547,-0.63981 1.385,-1.15454 0.3065,-0.55637 0.6788,-1.04946 0.7026,-1.71487 0.031,-0.69201 0.055,-1.4103 0.4099,-2.02601 0.35,-0.45705 0.8244,-0.76696 1.2945,-1.0909 0.495,-0.30107 0.8838,-0.74904 1.398,-1.02556 0.69,-0.46874 1.3868,-0.92503 2.0597,-1.42027 0.7875,-0.5162 1.5905,-1.0028 2.3247,-1.59565 0.2112,-0.16891 0.4501,0.12969 0.2389,0.2986 z"
       inkscape:connector-curvature="0" />
    <path
       style="fill:#000000;fill-opacity:1;stroke:none"
       id="path3778"
       d="m 39.232994,927.45952 c -0.5692,0.73618 -1.099,1.49085 -1.5416,2.31085 -0.3448,0.72038 -0.6022,1.47397 -0.9138,2.2079 -0.288,0.62258 -0.6049,1.23462 -0.8613,1.87113 -0.2845,0.52743 -0.4978,1.08501 -0.8438,1.57702 -0.317,0.45502 -0.5575,0.9552 -0.8389,1.43106 -0.339,0.4542 -0.565,0.95527 -0.8127,1.46012 -0.2608,0.51611 -0.3961,0.86947 -0.1594,1.40632 0.3085,0.44012 0.6451,0.85338 0.9734,1.27879 0.4374,0.42805 0.71,0.98183 1.0925,1.45333 0.3213,0.45963 0.7528,0.82096 1.0615,1.28909 0.1445,0.29858 0.2744,0.60232 0.3961,0.91069 0.099,0.25158 -0.2567,0.39172 -0.3558,0.14014 l 0,0 c -0.1119,-0.28482 -0.2336,-0.56405 -0.3608,-0.84235 -0.2947,-0.46099 -0.7336,-0.80283 -1.0389,-1.25785 -0.3809,-0.47671 -0.6619,-1.02667 -1.0976,-1.45978 -0.3462,-0.45099 -0.7066,-0.88574 -1.0215,-1.36054 -0.2595,-0.61214 -0.1464,-1.14801 0.1676,-1.72711 0.2546,-0.51203 0.4845,-1.02388 0.827,-1.4865 0.2898,-0.48273 0.5303,-0.99544 0.856,-1.45723 0.335,-0.46328 0.5221,-1.00231 0.8008,-1.49862 0.2591,-0.63789 0.5736,-1.25314 0.8638,-1.87715 0.3163,-0.7449 0.5769,-1.51024 0.9294,-2.24033 0.4546,-0.83938 0.9958,-1.61398 1.5794,-2.36786 0.1689,-0.21114 0.4675,0.0277 0.2986,0.23888 z"
       inkscape:connector-curvature="0" />
    <path
       style="fill:#000000;fill-opacity:1;stroke:none"
       id="path3780"
       d="m 38.387094,927.98323 c 0.8717,-0.34362 1.711,-0.85183 2.3772,-1.51467 0.3624,-0.28911 0.5845,-0.68598 0.8431,-1.05937 0.1541,-0.22218 0.4683,-0.004 0.3142,0.21794 l 0,0 c -0.2723,0.39216 -0.5098,0.80835 -0.8887,1.11362 -0.7174,0.70262 -1.6035,1.25246 -2.5407,1.61016 -0.26,0.0743 -0.365,-0.2934 -0.1051,-0.36768 z"
       inkscape:connector-curvature="0" />
  </g>
</svg>
