<?xml version="1.0" encoding="UTF-8" standalone="no"?>
<!-- Created with Inkscape (http://www.inkscape.org/) -->

<svg
   xmlns:dc="http://purl.org/dc/elements/1.1/"
   xmlns:cc="http://creativecommons.org/ns#"
   xmlns:rdf="http://www.w3.org/1999/02/22-rdf-syntax-ns#"
   xmlns:svg="http://www.w3.org/2000/svg"
   xmlns="http://www.w3.org/2000/svg"
   xmlns:sodipodi="http://sodipodi.sourceforge.net/DTD/sodipodi-0.dtd"
   xmlns:inkscape="http://www.inkscape.org/namespaces/inkscape"
   width="100"
   height="600"
   id="svg3029"
   version="1.1"
   inkscape:version="0.48.5 r10040"
   sodipodi:docname="house10Tree.svg"
   inkscape:export-filename="C:\Users\narfman0\Desktop\house10Tree.png"
   inkscape:export-xdpi="90"
   inkscape:export-ydpi="90">
  <defs
     id="defs3031" />
  <sodipodi:namedview
     id="base"
     pagecolor="#ffffff"
     bordercolor="#666666"
     borderopacity="1.0"
     inkscape:pageopacity="0.0"
     inkscape:pageshadow="2"
     inkscape:zoom="2.6794337"
     inkscape:cx="115.128"
     inkscape:cy="563.47457"
     inkscape:document-units="px"
     inkscape:current-layer="layer1"
     showgrid="false"
     inkscape:window-width="734"
     inkscape:window-height="780"
     inkscape:window-x="1034"
     inkscape:window-y="130"
     inkscape:window-maximized="0" />
  <metadata
     id="metadata3034">
    <rdf:RDF>
      <cc:Work
         rdf:about="">
        <dc:format>image/svg+xml</dc:format>
        <dc:type
           rdf:resource="http://purl.org/dc/dcmitype/StillImage" />
        <dc:title />
      </cc:Work>
    </rdf:RDF>
  </metadata>
  <g
     inkscape:label="Layer 1"
     inkscape:groupmode="layer"
     id="layer1"
     transform="translate(0,-452.36218)">
    <path
       style="fill:#997354;fill-opacity:1;stroke:none"
       d="m 37.919385,465.68815 c -7.29204,8.07252 -18.52516,10.19148 -27.32668,16.05704 -1.8541404,2.35051 0.0436,5.9071 -0.26208,8.61385 0.92301,8.38114 1.05273,17.34738 6.19671,24.44936 2.49299,3.60569 5.72573,6.76535 6.1562,11.35137 2.70115,10.11896 3.21899,21.17803 9.55735,29.89511 1.32683,1.27453 2.01011,4.68505 4.21082,4.49038 3.25273,-8.58921 5.33176,-17.83699 10.15646,-25.76867 2.83172,-5.39757 6.44267,-10.3871 9.13296,-15.78046 -6.41976,-13.34693 -9.96008,-27.74306 -12.98443,-42.19466 -1.08772,-3.83787 -2.32366,-7.85055 -4.40051,-11.23562 l -0.4368,0.1223 z"
       id="path3089"
       inkscape:connector-curvature="0" />
    <path
       style="fill:#997354;fill-opacity:1;stroke:none"
       d="m 68.23154,475.9049 c -1.04491,12.58509 -2.77595,25.42968 -9.33531,36.43633 -7.97184,13.83727 -17.18352,27.3485 -21.04582,43.12324 -5.00027,16.03042 -3.29006,33.12 -3.98848,49.68255 -0.0909,16.87072 -0.67165,33.71213 -1.50101,50.4954 -0.13675,21.33822 -0.54701,42.73845 0.69889,64.03597 1.101,14.48757 1.45274,29.37452 -0.8212,43.838 -1.62942,11.53883 -4.563,22.85658 -5.90681,34.44831 -1.83036,8.49454 -2.74555,17.02829 -2.48261,25.72627 -0.34531,20.47197 0.6129,41.0375 -0.64376,61.45008 -1.35699,13.83626 -8.0565,26.69907 -7.84817,40.74301 -0.61925,9.49329 -2.19065,18.92746 -1.44709,28.4997 0.21693,14.76279 2.47846,29.35207 3.08899,44.04722 0.47492,10.90812 -0.40994,21.79622 -3.44952,32.31182 -0.26484,3.02 -3.17443,6.8272 0.16833,8.9582 2.32818,3.0456 4.86283,6.9173 9.26032,6.4997 4.89166,0.1068 10.18986,0.2895 14.60684,-2.0093 2.16225,-3.0051 0.71295,-7.304 1.20559,-10.763 0.32601,-8.2998 -0.7632,-16.5315 -1.58998,-24.7233 -0.20545,-10.43216 -2.31158,-20.68948 -1.7221,-31.17049 0.0553,-11.63633 3.79303,-22.87983 5.05977,-34.42414 1.05383,-7.64528 3.8767,-14.95781 3.64657,-22.76192 0.31217,-12.92633 1.8395,-25.69822 2.04894,-38.6146 0.41594,-10.33828 3.10791,-20.40747 5.39894,-30.45421 3.00202,-13.5044 7.36688,-26.76305 9.78449,-40.44837 0.51439,-9.61315 0.31091,-19.36624 -0.57659,-28.9516 -2.86992,-10.90096 -5.18574,-22.13428 -9.19043,-32.6732 -4.45092,-16.07318 -0.93173,-32.91433 -0.55086,-49.28875 0.41121,-11.44893 1.99765,-22.80394 2.52523,-34.22883 1.37522,-9.69952 3.16579,-19.37839 3.4652,-29.15824 1.54965,-18.21966 8.41908,-35.32647 12.17251,-53.04892 2.35166,-12.2866 7.58822,-24.15767 6.83167,-36.90149 0.54047,-12.24672 -0.51784,-24.64362 0.89108,-36.79666 3.7481,-10.8944 9.43743,-21.05452 14.86893,-31.17058 0.4441,-2.80455 -3.73606,-1.76237 -5.364,-2.25392 -5.91003,-0.43314 -11.83368,-0.62373 -17.75185,-0.90856 l 3.22372,-5.99681 0.3646,-1.28391 z"
       id="path3091"
       inkscape:connector-curvature="0"
       sodipodi:nodetypes="ccccccccccccccccccccccccccccccccccccccc" />
    <path
       style="fill:#000000;fill-opacity:1;stroke:none"
       id="path3093"
       d="m 71.30759,549.6494 c -1.08965,1.11079 -2.08324,2.31439 -3.18485,3.41272 -0.87443,0.89687 -1.6654,1.86744 -2.49487,2.80337 -0.67788,0.82382 -1.27915,1.70442 -1.89484,2.57499 -0.51204,0.8391 -0.92261,1.73128 -1.33434,2.62248 -0.46637,1.01865 -0.88106,2.05689 -1.28009,3.10379 -0.35023,1.10489 -0.62321,2.23391 -0.98298,3.33598 -0.40338,1.11378 -0.5476,2.28853 -0.83436,3.43291 -0.26129,1.0806 -0.35585,2.18416 -0.59112,3.26994 -0.31412,1.46958 -0.61616,2.9344 -0.79858,4.42748 -0.087,1.52842 -0.23904,3.04292 -0.44203,4.56026 -0.20521,1.41962 -0.25306,2.85339 -0.28442,4.28522 -0.0222,1.31504 -0.0202,2.63031 -0.019,3.94548 0.002,1.26814 0.003,2.53628 0.003,3.80442 4.6e-4,1.31967 4.9e-4,2.63934 5.1e-4,3.95901 0,1.37248 -1e-5,2.74496 -2e-5,4.11744 -1e-5,1.48094 -1e-5,2.96188 -1e-5,4.44282 -0.0758,1.42586 0.0431,2.82517 0.25022,4.23281 0.12784,1.28767 0.42323,2.54745 0.62383,3.82424 0.17748,1.19254 0.21763,2.39837 0.24032,3.60189 0.0137,1.12272 0.009,2.24556 0.007,3.36833 -0.002,1.11719 -0.003,2.23438 -0.003,3.35158 -3.4e-4,1.11809 -3.2e-4,2.23618 -3.2e-4,3.35427 0.0442,1.04625 -0.25652,2.05408 -0.57823,3.03653 -0.26922,1.05493 -0.51898,2.11534 -0.7631,3.17742 -0.16111,1.12213 -0.36134,2.23099 -0.58236,3.34317 -0.21203,1.09121 -0.26576,2.20244 -0.29897,3.31075 0.0546,1.07068 -0.0667,2.10283 -0.27651,3.14827 -0.17607,0.90249 -0.52433,1.74848 -0.68803,2.65693 -0.16055,0.92056 -0.36072,1.85867 -0.65682,2.7473 -0.28182,0.95901 -0.59629,1.88294 -1.00451,2.79662 -0.43819,0.95485 -0.80394,1.96405 -1.3699,2.85271 -0.51007,0.76453 -0.92915,1.58227 -1.40312,2.36733 -0.43645,0.69291 -0.88688,1.3742 -1.31079,2.07694 -0.53224,0.69588 -0.95717,1.45247 -1.46641,2.16645 -0.5014,0.8509 -0.93031,1.73995 -1.51977,2.5352 -0.59026,0.74186 -1.01929,1.58081 -1.46678,2.41145 -0.46723,0.75353 -1.08024,1.39498 -1.56638,2.13484 -0.30328,0.34685 -0.54468,0.72925 -0.76492,1.13124 -0.19128,0.346 -0.6806,0.0755 -0.48932,-0.27051 l 0,0 c 0.23007,-0.4129 0.47292,-0.8126 0.78766,-1.1688 0.48035,-0.72434 1.07128,-1.36039 1.54082,-2.09212 0.46095,-0.85423 0.90425,-1.71704 1.51093,-2.48063 0.59307,-0.78755 1.00053,-1.68588 1.51262,-2.5254 0.501,-0.70198 0.91895,-1.44691 1.443,-2.13086 0.42505,-0.70245 0.87584,-1.38439 1.31143,-2.07799 0.48062,-0.78646 0.89546,-1.61306 1.41096,-2.37986 0.55954,-0.85772 0.89564,-1.85435 1.32949,-2.77806 0.40111,-0.89778 0.70919,-1.80463 0.98536,-2.74772 0.29564,-0.85881 0.47664,-1.77641 0.63631,-2.66789 0.16633,-0.9118 0.50697,-1.76321 0.68998,-2.66715 0.20371,-1.01525 0.32119,-2.01464 0.26584,-3.05508 0.0343,-1.13927 0.0909,-2.2814 0.30944,-3.40297 0.22226,-1.11775 0.42187,-2.232 0.58586,-3.35951 0.2483,-1.07841 0.50074,-2.15543 0.77664,-3.22608 0.30341,-0.92638 0.59481,-1.87551 0.55047,-2.86252 0,-1.11817 -3e-5,-2.23633 3.2e-4,-3.3545 4.4e-4,-1.11742 10e-4,-2.23484 0.003,-3.35225 0.002,-1.11897 0.006,-2.238 -0.007,-3.35691 -0.0221,-1.17802 -0.0605,-2.35835 -0.23366,-3.52571 -0.20051,-1.27856 -0.49673,-2.54011 -0.62464,-3.82955 -0.21104,-1.43439 -0.33166,-2.86149 -0.25617,-4.3142 0,-1.48094 0,-2.96188 1e-5,-4.44282 0,-1.37248 2e-5,-2.74496 2e-5,-4.11743 -3e-5,-1.31959 -5e-5,-2.63917 -5.1e-4,-3.95876 -5.9e-4,-1.26806 -0.002,-2.53613 -0.003,-3.80419 -0.001,-1.31942 -0.003,-2.63894 0.0192,-3.95822 0.0319,-1.45253 0.0812,-2.90697 0.28922,-4.34711 0.20273,-1.51535 0.35346,-3.02762 0.44123,-4.55402 0.18498,-1.50998 0.48935,-2.99178 0.80714,-4.47804 0.23671,-1.09142 0.32876,-2.20166 0.5952,-3.28742 0.29008,-1.15703 0.43536,-2.34525 0.84535,-3.47096 0.36461,-1.10983 0.6341,-2.24932 0.99191,-3.36121 0.40389,-1.05872 0.82368,-2.10877 1.29501,-3.1392 0.42643,-0.92168 0.85156,-1.84497 1.38536,-2.71069 0.62754,-0.88726 1.24061,-1.7848 1.9331,-2.62323 0.83819,-0.94354 1.63471,-1.9248 2.51866,-2.82857 1.09115,-1.08415 2.06967,-2.27854 3.14976,-3.37438 0.25309,-0.30372 0.68262,0.0542 0.42952,0.35794 z"
       inkscape:connector-curvature="0" />
    <path
       style="fill:#000000;fill-opacity:1;stroke:none"
       id="path3095"
       d="m 13.131415,482.73069 c 1.56529,-0.39456 3.13663,-0.77749 4.67767,-1.26033 1.16929,-0.48087 2.43641,-0.5593 3.64967,-0.84962 0.96623,-0.30187 1.96443,-0.43381 2.97001,-0.50811 1.01967,0.0224 1.99977,-0.10444 2.9942,-0.30733 0.80346,-0.24956 1.53481,-0.65727 2.30731,-0.97869 0.76028,-0.46553 1.61438,-0.73928 2.38871,-1.17563 0.91272,-0.5019 1.86105,-0.92491 2.86598,-1.20122 0.82313,-0.28868 1.61672,-0.67587 2.362,-1.12902 0.72658,-0.3411 1.22624,-0.90352 1.72247,-1.50633 0.48986,-0.62988 0.96469,-1.25209 1.24879,-2.00598 0.02,-0.70676 -1.1109,-0.59251 -1.58173,-0.581 -1.49634,0.24943 -2.97016,0.60705 -4.44026,0.97591 -1.11268,0.48725 -2.31001,0.70256 -3.45874,1.06639 -1.04709,0.33155 -2.13664,0.43886 -3.1922,0.73351 -0.89249,0.24123 -1.82077,0.29505 -2.6519,0.72422 -0.72482,0.3848 -1.47404,0.72938 -2.18069,1.14694 -0.67938,0.37069 -1.29814,0.86141 -1.84297,1.41034 -0.64437,0.46819 -1.233,0.95612 -1.73897,1.57686 -0.5786,0.55141 -1.04088,1.18427 -1.51152,1.8231 -0.49808,0.75936 -0.84264,1.6028 -1.07308,2.4784 -0.38455,1.05079 -0.60876,2.13738 -0.73342,3.24614 -0.0548,1.0707 -0.18702,2.16096 -0.0399,3.22781 0.24522,0.95712 1.01838,1.26944 1.89935,1.46991 0.94776,0.15835 1.91053,0.22991 2.81218,-0.14659 0.74957,-0.35045 1.41276,-0.94513 1.90293,-1.60949 0.58981,-0.72175 1.0796,-1.51852 1.58575,-2.2997 0.58831,-0.73028 1.12697,-1.49767 1.65976,-2.26852 0.51542,-0.68761 1.13002,-1.28588 1.69822,-1.92675 0.69603,-0.70215 1.59904,-1.1043 2.53369,-1.37853 1.01954,-0.28912 2.00526,-0.66352 3.00802,-1.00175 0.93941,-0.18637 1.8346,-0.5257 2.76809,-0.73616 1.00157,-0.19283 2.02401,-0.21442 3.04042,-0.23854 0.0785,-0.002 0.15697,-0.003 0.23545,-0.005 0.0147,-6.6e-4 0.0516,-0.0146 0.044,-0.002 -0.11531,0.19294 -0.18825,0.43702 -0.37699,0.55908 -0.0906,0.0586 -1.44485,0.002 -1.61372,0.003 -1.52109,0.002 -3.04218,0.002 -4.56327,0.003 -1.58382,0.1167 -3.15505,0.33169 -4.71689,0.61274 -1.50622,0.39393 -3.02902,0.72112 -4.50076,1.23415 -1.26479,0.371 -2.48821,0.83559 -3.70093,1.34931 -0.92812,0.34969 -1.82871,0.77078 -2.71336,1.21837 -0.74056,0.43011 -0.82502,0.99494 -0.59332,1.74957 0.37979,0.66032 1.15093,1.01841 1.83572,1.29887 0.94093,0.30872 1.93933,0.33251 2.92005,0.36169 1.11241,0.0201 2.2251,0.0121 3.33762,0.009 0.97287,-0.11083 1.89527,-0.48322 2.79832,-0.84675 1.01171,-0.30747 1.94921,-0.77725 2.89694,-1.23652 0.9049,-0.37043 1.85576,-0.63707 2.73894,-1.05981 0.77025,-0.38405 1.6193,-0.5445 2.35758,-0.99518 0.51754,-0.30901 1.06367,-0.57051 1.61118,-0.82213 0.35935,-0.16484 0.59247,0.34336 0.23312,0.5082 l 0,0 c -0.52943,0.24239 -1.0569,0.49538 -1.55713,0.79366 -0.76116,0.44839 -1.60999,0.64822 -2.4056,1.02084 -0.88531,0.41477 -1.82609,0.69935 -2.73436,1.05761 -0.95934,0.46445 -1.90908,0.9397 -2.93239,1.25221 -0.96919,0.38797 -1.95806,0.78698 -3.00498,0.88698 -1.11863,0.003 -2.23743,0.0113 -3.35595,-0.009 -1.04839,-0.0315 -2.11466,-0.0622 -3.11728,-0.40399 -0.84367,-0.35282 -1.74298,-0.79937 -2.15758,-1.65569 -0.31842,-1.09468 -0.12445,-1.78866 0.87673,-2.40821 0.89587,-0.45317 1.80833,-0.87911 2.74768,-1.2343 1.22402,-0.51845 2.45918,-0.98731 3.73537,-1.36258 1.50001,-0.52037 3.0498,-0.85919 4.58536,-1.25632 1.59435,-0.2869 3.19873,-0.50657 4.81581,-0.62158 1.52084,-2.9e-4 3.04169,-5.4e-4 4.56253,-0.003 0.17448,-2.7e-4 1.51664,-0.0637 1.61425,-0.003 0.19436,0.12172 0.28131,0.36336 0.40156,0.55863 0.0508,0.0825 -0.81002,-0.31889 -0.29048,0.007 -0.97971,0.0232 -1.96532,0.0424 -2.93122,0.22512 -0.9148,0.20439 -1.79104,0.54154 -2.71214,0.72051 -1.01034,0.33954 -2.00346,0.71733 -3.03025,1.00872 -0.83443,0.24044 -1.64556,0.59413 -2.27216,1.21332 -0.55541,0.62224 -1.15062,1.20693 -1.65618,1.87329 -0.5305,0.76554 -1.0631,1.53076 -1.65042,2.25457 -0.51372,0.7913 -1.00965,1.59909 -1.60741,2.33074 -0.56139,0.73954 -1.29163,1.40753 -2.1422,1.79313 -1.01959,0.39611 -2.07932,0.3701 -3.14694,0.17226 -1.11327,-0.26358 -2.04454,-0.73716 -2.32707,-1.94144 -0.14111,-1.11435 -0.0305,-2.24619 0.0387,-3.36359 0.12872,-1.13549 0.35462,-2.25031 0.74854,-3.32665 0.25144,-0.94273 0.6219,-1.85204 1.16394,-2.66753 0.47838,-0.64469 0.9431,-1.28876 1.52911,-1.84567 0.52018,-0.62886 1.1118,-1.14915 1.77588,-1.61754 0.5831,-0.57795 1.23267,-1.10459 1.95559,-1.49723 0.7202,-0.41827 1.47458,-0.77677 2.2119,-1.16391 0.87203,-0.42951 1.81685,-0.5369 2.75296,-0.7633 1.05023,-0.29272 2.13225,-0.40427 3.17498,-0.72841 1.16146,-0.36152 2.36474,-0.59057 3.49013,-1.07525 1.51134,-0.3791 3.02681,-0.75093 4.56768,-0.99265 0.9288,-0.007 2.31577,0.0665 2.1119,1.34152 -0.317,0.80445 -0.80422,1.48772 -1.33889,2.16012 -0.53703,0.65072 -1.08658,1.25558 -1.8655,1.6297 -0.793,0.47349 -1.62705,0.89263 -2.50297,1.18936 -0.96211,0.26141 -1.86709,0.67178 -2.74072,1.14999 -0.79654,0.4417 -1.66415,0.73505 -2.44747,1.2041 -0.80589,0.33209 -1.5671,0.76385 -2.40949,1.00996 -1.01727,0.20754 -2.02247,0.33871 -3.06494,0.31711 -0.97633,0.0715 -1.9447,0.20029 -2.88249,0.49464 -1.2026,0.28084 -2.45277,0.36848 -3.61131,0.83909 -1.54592,0.48275 -3.12073,0.87026 -4.69098,1.26432 -0.38015,0.10861 -0.53375,-0.42899 -0.1536,-0.5376 z"
       inkscape:connector-curvature="0" />
    <path
       style="fill:#000000;fill-opacity:1;stroke:none"
       id="path3097"
       d="m 29.793015,519.94379 c 0,1.6965 0,3.393 0,5.08951 0.0426,1.33389 -0.0856,2.67817 0.0652,4.00588 0.17704,1.0109 0.28802,2.02438 0.57881,3.00953 0.2509,0.98274 0.50564,1.9672 0.83081,2.92873 0.51953,1.06374 0.98588,2.1563 1.52718,3.20825 0.54619,0.8376 1.09343,1.67309 1.66323,2.49414 0.52183,0.74632 1.05704,1.47899 1.54903,2.24781 0.0903,0.16284 0.18051,0.32569 0.27076,0.48853 0.19129,0.346 -0.29801,0.61652 -0.48931,0.27053 l 0,0 c -0.0841,-0.15257 -0.16826,-0.30513 -0.25239,-0.4577 -0.48834,-0.76314 -1.01893,-1.49093 -1.53803,-2.23126 -0.58072,-0.84321 -1.14793,-1.69444 -1.70085,-2.55701 -0.55076,-1.07835 -1.03615,-2.19216 -1.55948,-3.28481 -0.32519,-0.96901 -0.58634,-1.95895 -0.83725,-2.94912 -0.29941,-1.01706 -0.41875,-2.0624 -0.59824,-3.10615 -0.14563,-1.34944 -0.0334,-2.71204 -0.0686,-4.06735 0,-1.69651 0,-3.39301 0,-5.08951 0,-0.39536 0.55911,-0.39536 0.55911,0 z"
       inkscape:connector-curvature="0" />
    <path
       style="fill:#000000;fill-opacity:1;stroke:none"
       id="path3099"
       d="m 35.80372,608.9676 c 1.12509,-0.72766 2.24436,-1.45913 3.34472,-2.22453 1.07167,-0.55244 2.04236,-1.26929 3.09279,-1.85508 1.31529,-0.77708 2.69707,-1.42776 4.05433,-2.12597 1.54166,-0.85298 3.11074,-1.65032 4.62356,-2.55499 1.735,-0.8899 3.37382,-1.94318 5.06673,-2.90973 2.0129,-1.16471 3.87304,-2.56251 5.729,-3.95692 2.02762,-1.47671 3.83648,-3.21627 5.7138,-4.8715 1.86969,-1.78796 3.71147,-3.60556 5.55125,-5.42416 1.58796,-1.63597 3.14502,-3.30813 4.58235,-5.07945 1.21373,-1.36284 2.43279,-2.71719 3.62141,-4.10249 0.68251,-0.62177 1.23375,-1.35677 1.82452,-2.05984 0.25444,-0.30259 0.68238,0.0572 0.42794,0.35983 l 0,0 c -0.5924,0.70403 -1.14418,1.4414 -1.82814,2.06409 -1.1853,1.38144 -2.40043,2.73254 -3.61164,4.09079 -1.45088,1.78658 -3.02056,3.47473 -4.62341,5.12472 -1.84753,1.82587 -3.69622,3.6516 -5.57454,5.44591 -1.88842,1.66467 -3.70796,3.41417 -5.74769,4.89911 -1.87471,1.40849 -3.75423,2.81954 -5.78775,3.99552 -1.68998,0.96383 -3.32527,2.01609 -5.05694,2.90402 -1.52327,0.91031 -3.1023,1.71418 -4.65469,2.57228 -1.3519,0.69542 -2.72828,1.34334 -4.03833,2.1174 -1.03541,0.57426 -1.98756,1.28651 -3.04534,1.82549 -1.0903,0.75795 -2.19717,1.48572 -3.31465,2.20209 -0.30872,0.24697 -0.658,-0.18962 -0.34928,-0.43659 z"
       inkscape:connector-curvature="0" />
    <path
       style="fill:#000000;fill-opacity:1;stroke:none"
       id="path3101"
       d="m 34.12638,601.69912 c 1.44823,-0.91432 2.85674,-1.88847 4.30843,-2.79646 1.39871,-0.85976 2.76698,-1.76764 4.1592,-2.63723 1.29032,-0.84181 2.65164,-1.5727 4.01972,-2.27855 1.37789,-0.71882 2.72021,-1.50166 4.09286,-2.23056 1.23035,-0.71084 2.45618,-1.42921 3.6876,-2.13869 1.10513,-0.70232 2.22817,-1.3786 3.38855,-1.98597 1.10543,-0.58527 2.22311,-1.1498 3.2555,-1.85966 0.89653,-0.58229 1.85713,-1.05297 2.78501,-1.58248 0.82518,-0.52743 1.68376,-0.99917 2.5101,-1.52284 0.7341,-0.48385 1.47863,-0.97029 2.18228,-1.49983 0.90388,-0.62073 1.78155,-1.28547 2.6208,-1.99071 0.59483,-0.74626 1.3826,-1.28992 2.07252,-1.93676 0.66038,-0.48718 1.33917,-0.94857 2.00449,-1.43149 0.0888,-0.082 0.17754,-0.16401 0.26631,-0.24601 0.29173,-0.26682 0.66908,0.14575 0.37734,0.41257 l 0,0 c -0.10519,0.0954 -0.21037,0.19079 -0.31556,0.28618 -0.64752,0.46843 -1.30427,0.9214 -1.95118,1.38758 -0.7005,0.65058 -1.48831,1.20693 -2.09467,1.95636 -0.84856,0.71014 -1.73162,1.38437 -2.64488,2.00979 -0.71813,0.53555 -1.47169,1.03393 -2.21924,1.52526 -0.8357,0.52455 -1.69741,1.00614 -2.53125,1.53554 -0.91478,0.52172 -1.86099,0.98669 -2.74606,1.55809 -1.05298,0.71902 -2.18555,1.30121 -3.31245,1.89389 -1.15418,0.60281 -2.26917,1.27785 -3.36852,1.97497 -1.23713,0.71254 -2.46824,1.43468 -3.70459,2.14808 -1.37499,0.7293 -2.71878,1.51417 -4.09886,2.2337 -1.35516,0.69736 -2.70195,1.4231 -3.97973,2.25582 -1.3925,0.86893 -2.76009,1.77779 -4.15898,2.6371 -1.43407,0.89539 -2.82264,1.86084 -4.25547,2.7589 -0.30871,0.24698 -0.65799,-0.18962 -0.34927,-0.43659 z"
       inkscape:connector-curvature="0" />
    <path
       style="fill:#000000;fill-opacity:1;stroke:none"
       id="path3103"
       d="m 35.01155,585.01218 c 0.86629,1.15657 1.8452,2.23194 2.6811,3.40987 0.76937,1.02426 1.65996,1.94314 2.4588,2.94397 0.8412,1.08566 1.74547,2.12506 2.60202,3.20528 1.03918,1.28177 2.02645,2.60494 3.01975,3.92228 0.87851,1.33088 1.84025,2.60169 2.75816,3.90482 0.82629,1.09474 1.53495,2.27351 2.35848,3.36959 0.79403,0.90908 1.4728,1.91047 2.23033,2.84777 0.77184,0.84255 1.43267,1.77827 2.08535,2.71363 0.64931,0.64784 1.29657,1.29398 1.92644,1.96573 0.10108,0.12445 0.20216,0.24889 0.30324,0.37334 0.24881,0.30725 -0.1857,0.65911 -0.43451,0.35186 l 0,0 c -0.0923,-0.11437 -0.18462,-0.22874 -0.27692,-0.34311 -0.64693,-0.69227 -1.31995,-1.34994 -1.97694,-2.02811 -0.64426,-0.92536 -1.29895,-1.84933 -2.06184,-2.68231 -0.75997,-0.94391 -1.44589,-1.94784 -2.24249,-2.8634 -0.82473,-1.10218 -1.54073,-2.28226 -2.36823,-3.38301 -0.91445,-1.29821 -1.87296,-2.56397 -2.74753,-3.89023 -0.99026,-1.31393 -1.97522,-2.63315 -3.0114,-3.91147 -0.85606,-1.07966 -1.75789,-2.12031 -2.60091,-3.2039 -0.80548,-1.00935 -1.70554,-1.93462 -2.47841,-2.97007 -0.82441,-1.17196 -1.8054,-2.23302 -2.66109,-3.38326 -0.24697,-0.30872 0.18962,-0.65799 0.4366,-0.34927 z"
       inkscape:connector-curvature="0" />
    <path
       style="fill:#000000;fill-opacity:1;stroke:none"
       id="path3105"
       d="m 36.09464,583.45133 c 0.61594,1.33235 1.28355,2.64242 2.00657,3.92088 0.6099,1.33393 1.22236,2.65595 1.95307,3.92829 0.80899,1.43322 1.51849,2.92648 2.20027,4.42424 0.67672,1.22134 1.4148,2.39826 2.05291,3.64162 0.71236,1.17194 1.21584,2.4497 1.80362,3.68427 0.47485,1.00476 1.01436,1.97441 1.4685,2.99101 0.45727,0.96468 0.97026,1.89667 1.44987,2.85052 0.3426,0.91862 0.75746,1.7842 1.26704,2.61969 0.37693,0.81857 0.77324,1.63088 1.0156,2.50222 0.29185,0.85358 0.7263,1.63466 1.18262,2.40733 0.34453,0.44365 0.17256,0.21485 0.51507,0.68705 0.23204,0.32009 -0.22063,0.64826 -0.45268,0.32817 l 0,0 c -0.34637,-0.47805 -0.16542,-0.23416 -0.54383,-0.73093 -0.4812,-0.81499 -0.93703,-1.64113 -1.24017,-2.54294 -0.22485,-0.8227 -0.60682,-1.58453 -0.95395,-2.35977 -0.5174,-0.84841 -0.94321,-1.72667 -1.28927,-2.65974 -0.48306,-0.96157 -1.00072,-1.90098 -1.4609,-2.87379 -0.45135,-1.01288 -0.99055,-1.9775 -1.46279,-2.97862 -0.58471,-1.22987 -1.08697,-2.50188 -1.79616,-3.66918 -0.64212,-1.25117 -1.38849,-2.4335 -2.06448,-3.66553 -0.67289,-1.48236 -1.37709,-2.95879 -2.17613,-4.3772 -0.73114,-1.27349 -1.34833,-2.59481 -1.95495,-3.93159 -0.7271,-1.28699 -1.39978,-2.60511 -2.01991,-3.94596 -0.17681,-0.35361 0.32327,-0.60365 0.50008,-0.25004 z"
       inkscape:connector-curvature="0" />
    <path
       style="fill:#000000;fill-opacity:1;stroke:none"
       id="path3107"
       d="m 45.98756,796.17325 c 0,1.9463 0,3.89261 0,5.83891 0,1.67963 0,3.35925 0,5.03888 0,1.19935 0,2.3987 0,3.59806 0,1.19898 0,2.39797 0,3.59695 0,1.40921 0,2.81841 0,4.22762 0.0874,1.45326 -0.15616,2.88436 -0.33903,4.31953 -0.0435,1.22396 -0.52935,2.3397 -0.88345,3.49011 -0.44696,1.11294 -0.7262,2.27818 -1.06695,3.42525 -0.39488,1.16816 -0.84423,2.29922 -1.37612,3.41074 -0.54139,1.08415 -0.90729,2.22011 -1.24459,3.37884 -0.54575,1.11386 -0.83334,2.32596 -1.33551,3.45442 -0.47804,1.03884 -0.87266,2.12115 -1.19831,3.21755 -0.22429,1.15978 -0.78846,2.2033 -1.12997,3.328 -0.44459,1.18394 -0.80673,2.39006 -1.25767,3.57317 -0.42201,1.2307 -0.68217,2.50463 -1.07845,3.74436 -0.42645,1.2131 -0.64367,2.47473 -0.76085,3.75052 -0.082,1.1287 -0.0787,2.26117 -0.0792,3.39214 6.2e-4,0.55842 0.002,1.11684 0.004,1.67526 0.001,0.39535 -0.55808,0.39681 -0.55911,10e-4 l 0,0 c -10e-4,-0.55898 -0.003,-1.11797 -0.004,-1.67696 5.1e-4,-1.14801 -0.003,-2.29756 0.0815,-3.44322 0.12177,-1.31609 0.34603,-2.61789 0.7851,-3.8696 0.40024,-1.24911 0.65835,-2.53418 1.08851,-3.77308 0.44637,-1.17114 0.80515,-2.36505 1.24528,-3.53698 0.34324,-1.12326 0.90123,-2.16704 1.12894,-3.3246 0.33402,-1.11949 0.7353,-2.22546 1.2239,-3.28654 0.49712,-1.10228 0.76492,-2.29565 1.30896,-3.38218 0.34587,-1.18784 0.72382,-2.35203 1.27707,-3.46389 0.51925,-1.08506 0.95862,-2.18823 1.3445,-3.32862 0.3413,-1.14885 0.62084,-2.31614 1.06862,-3.43075 0.34573,-1.11976 0.82173,-2.20417 0.86312,-3.39608 0.17995,-1.41185 0.42212,-2.81908 0.33455,-4.24884 0,-1.40921 0,-2.81841 0,-4.22762 0,-1.19898 0,-2.39797 0,-3.59695 0,-1.19936 0,-2.39871 0,-3.59806 0,-1.67963 0,-3.35925 0,-5.03888 0,-1.9463 0,-3.89261 0,-5.83891 0,-0.39535 0.55911,-0.39535 0.55911,0 z"
       inkscape:connector-curvature="0" />
    <path
       style="fill:#000000;fill-opacity:1;stroke:none"
       id="path3109"
       d="m 39.6928,811.27924 c -0.35095,1.59721 -0.82271,3.15618 -1.35941,4.69936 -0.3981,1.41695 -0.78606,2.83672 -1.20384,4.2492 -0.36995,1.55532 -0.87333,3.06321 -1.44913,4.55218 -0.47109,1.5873 -1.0574,3.14023 -1.49602,4.73647 -0.37288,1.48199 -0.82766,2.94044 -1.20866,4.41972 -0.45223,1.16177 -0.63993,2.39058 -0.9307,3.59391 -0.18087,1.04537 -0.62022,2.01146 -0.88565,3.03297 -0.20025,0.91251 -0.52227,1.78153 -0.67541,2.70677 -0.21017,1.06619 -0.589,2.08073 -0.87583,3.12523 -0.27795,1.13293 -0.60994,2.24396 -0.78898,3.39914 -0.14047,1.13215 -0.42745,2.23644 -0.57616,3.36878 -0.34003,1.1042 -0.5105,2.23199 -0.60777,3.38018 -0.0894,1.26689 -0.0978,2.53745 -0.10321,3.80688 -0.002,1.13475 0.001,2.2695 0.003,3.40425 0.14223,1.17189 0.45913,2.33172 0.84782,3.44557 0.37058,1.22036 0.70046,2.45538 1.00836,3.69374 0.23481,0.64798 0.11571,0.32602 0.35722,0.96591 0.13958,0.36989 -0.38353,0.56729 -0.52311,0.19739 l 0,0 c -0.25123,-0.66591 -0.12533,-0.32319 -0.37673,-1.02851 -0.30332,-1.22214 -0.62962,-2.44068 -0.99397,-3.6453 -0.40484,-1.17362 -0.74509,-2.39202 -0.87871,-3.62805 -0.002,-1.13579 -0.005,-2.27158 -0.003,-3.40737 0.005,-1.28444 0.0143,-2.57001 0.10521,-3.85185 0.0985,-1.15585 0.26213,-2.29546 0.61055,-3.40582 0.14999,-1.13664 0.4356,-2.24551 0.57802,-3.38171 0.18349,-1.17609 0.51785,-2.30833 0.80237,-3.46159 0.28289,-1.02583 0.65343,-2.02217 0.86339,-3.0687 0.1577,-0.94175 0.47915,-1.82801 0.68594,-2.75614 0.26686,-1.01824 0.70039,-1.98193 0.8833,-3.02365 0.29391,-1.20506 0.47761,-2.43804 0.93263,-3.60163 0.38254,-1.48208 0.83716,-2.94361 1.21102,-4.42857 0.44535,-1.6138 1.03401,-3.18543 1.51359,-4.78969 0.57035,-1.47483 1.0683,-2.96839 1.43446,-4.5091 0.42031,-1.42089 0.80965,-2.84935 1.21191,-4.27427 0.53327,-1.53331 1.00108,-3.08231 1.34988,-4.6693 0.10862,-0.38015 0.64622,-0.22655 0.53761,0.1536 z"
       inkscape:connector-curvature="0" />
    <path
       style="fill:#000000;fill-opacity:1;stroke:none"
       id="path3113"
       d="m 37.72065,1037.6611 c -0.92183,0.94 -2.04031,1.6456 -3.04247,2.4908 -0.8084,0.6366 -1.73647,1.0972 -2.62454,1.611 -0.61404,0.4317 -1.33153,1.2111 -1.88207,0.3002 -0.003,-0.9048 0.39355,-1.7977 0.6899,-2.6453 0.2698,-1.0374 0.83596,-1.9561 1.2298,-2.945 0.43093,-0.9966 0.77654,-2.0182 1.27411,-2.9857 0.41798,-0.7668 0.61816,-1.6985 1.22836,-2.3465 0.0113,-0.012 0.0226,-0.024 0.034,-0.036 0.0538,0.1821 0.14597,0.3571 0.16127,0.5464 0.0108,0.1334 -0.59437,0.765 -0.76369,0.9997 -0.57466,0.8356 -1.20992,1.6222 -1.83608,2.4187 -0.44274,0.8435 -1.07317,1.5509 -1.67205,2.2816 -0.4576,0.7054 -0.93947,1.4002 -1.50963,2.0198 -0.44245,0.493 -0.68545,1.3757 -1.47674,1.2876 -0.0401,-0.1663 -0.11958,-0.3279 -0.1203,-0.499 -7.7e-4,-0.1843 0.91724,-1.6831 1.04512,-1.9301 0.45468,-1.1102 1.08022,-2.1275 1.4737,-3.2633 0.43456,-0.9767 0.86523,-1.9517 1.28871,-2.933 0.43426,-0.9821 0.58707,-2.0451 0.90199,-3.0654 0.15847,-0.7694 0.67002,-1.4127 0.66752,-2.2138 -0.12659,-0.011 0.037,0.082 0.033,0.1252 -0.0111,0.1186 -0.21819,0.1 -0.31365,0.1713 -0.19535,0.1459 -0.36636,0.3219 -0.55405,0.4776 -0.72309,0.7211 -1.50515,1.3705 -2.28059,2.0342 -0.82639,0.5562 -1.51289,1.2747 -2.24466,1.9416 -0.59576,0.7044 -1.28928,1.3134 -1.92108,1.9828 -0.71614,0.5929 -1.33201,1.2888 -2.00388,1.9279 -0.55219,0.5515 -1.0198,1.2149 -1.61635,1.7184 -0.0613,-0.2021 -0.18394,-0.3951 -0.18401,-0.6063 -5e-5,-0.1381 1.22012,-1.3547 1.3841,-1.5385 0.82767,-0.9088 1.65858,-1.8136 2.43672,-2.7653 0.67435,-0.6615 1.16819,-1.4699 1.69173,-2.2494 0.58785,-0.9312 1.10844,-1.8979 1.6623,-2.8478 0.35378,-0.5142 0.49857,-1.1161 0.71102,-1.6912 0.0346,-0.094 0.1476,-0.3299 0.06,-0.1451 0.0712,0.1263 0.22213,0.2342 0.21365,0.379 -0.007,0.1242 -0.17519,0.1774 -0.25197,0.2753 -0.44855,0.5718 -0.81813,1.2142 -1.25379,1.7982 -0.64909,1.0645 -1.51285,1.9677 -2.2212,2.9892 -0.78264,1.144 -1.57192,2.2741 -2.37548,3.4017 -0.70324,1.0667 -1.43799,2.1065 -2.19653,3.1338 -0.61145,0.611 -1.01029,1.3817 -1.55128,2.0485 -0.54095,0.5559 -0.8901,1.2731 -1.44534,1.8103 -1.15843,0.4757 -0.59204,-0.6271 -0.38555,-1.1164 0.44493,-0.85 1.09454,-1.5606 1.64016,-2.3443 0.79795,-1.1023 1.52472,-2.2513 2.35179,-3.3326 0.9363,-1.3063 1.9632,-2.5411 2.92246,-3.8299 1.06944,-1.2851 2.05842,-2.6334 3.1163,-3.9279 0.84427,-1.1609 1.73899,-2.2816 2.58028,-3.4444 0.35233,-0.9623 1.46141,-1.6206 1.67245,-2.6289 -0.007,0.022 -0.0135,0.044 -0.0203,0.065 0.0595,0.074 0.18511,0.1266 0.1785,0.2211 -0.005,0.068 -0.13526,0.028 -0.19786,0.055 -0.27227,0.1208 -0.52713,0.3076 -0.75935,0.4908 -0.92834,0.8571 -1.91425,1.6468 -2.92555,2.4031 -1.21438,1.0116 -2.52982,1.8918 -3.77097,2.8667 -1.32366,1.036 -2.7112,1.9837 -4.09067,2.9426 -1.2083,0.9441 -2.56636,1.668 -3.7711,2.6138 -0.91786,0.6787 -1.86276,1.316 -2.79732,1.9714 -0.14726,0.1403 -1.46588,1.2804 -1.59873,1.0437 -0.10498,-0.1871 -0.0512,-0.426 -0.0769,-0.639 0.63431,-0.7785 1.40928,-1.4211 2.08425,-2.1612 0.85572,-0.7998 1.69785,-1.5996 2.53498,-2.4202 0.92119,-0.9779 1.99997,-1.7791 3.02651,-2.6391 0.96843,-0.6605 1.79664,-1.485 2.67573,-2.251 0.66576,-0.6112 1.29215,-1.2641 1.96057,-1.872 0.35547,-0.5682 1.09332,-1.0592 1.25333,-1.7255 -0.0892,0.023 -0.0172,0.1305 -0.0634,0.1691 -0.041,0.034 -1.22906,0.4893 -1.42691,0.5979 -1.4794,0.8542 -2.78188,1.9746 -4.14419,2.9988 -1.19001,0.8331 -2.15198,1.9273 -3.29047,2.8214 -0.76825,0.7122 -1.59655,1.3591 -2.34327,2.0939 -0.67377,0.4973 -1.30746,0.996 -1.8437,1.6458 0.0573,-0.4047 -0.29101,0.4817 -0.3391,0.3312 -0.29296,-0.9168 0.54487,-1.1648 1.16055,-1.6696 0.92743,-0.8584 1.83275,-1.7427 2.79277,-2.5682 1.07888,-0.9896 2.08328,-2.0571 3.15691,-3.0513 0.81191,-0.8445 1.64002,-1.6707 2.5308,-2.4322 0.78873,-0.715 1.51539,-1.4739 2.21251,-2.2781 0.87693,-0.7325 1.48698,-1.6581 2.10318,-2.5995 0.46839,-0.773 0.81576,-1.6112 1.24751,-2.4031 0.45111,-0.8165 0.7228,-1.7131 1.10141,-2.5609 0.22321,-0.5603 0.58185,-1.0451 0.84828,-1.5844 0.17593,-0.3541 0.67663,-0.1053 0.50071,0.2488 l 0,0 c -0.2658,0.5321 -0.61387,1.0136 -0.83905,1.5649 -0.38906,0.8589 -0.65745,1.774 -1.12133,2.6009 -0.44401,0.8011 -0.7866,1.6591 -1.26989,2.4403 -0.63064,0.9611 -1.25363,1.9104 -2.14833,2.6592 -0.7153,0.8252 -1.4631,1.6028 -2.27176,2.3369 -0.88552,0.7566 -1.70648,1.5794 -2.5144,2.4177 -1.07982,0.9975 -2.08645,2.0728 -3.17227,3.065 -0.96438,0.8272 -1.87034,1.7169 -2.80273,2.5765 -0.28939,0.2368 -0.59733,0.4507 -0.8833,0.6917 -0.1267,0.1067 -0.19433,0.3245 -0.35887,0.3439 -0.22213,0.026 -0.43212,-0.1257 -0.63124,-0.2275 -0.11072,-0.057 0.82315,-0.2188 0.2678,-0.2598 0.55153,-0.6584 1.18747,-1.1898 1.88217,-1.6875 0.76426,-0.7465 1.60318,-1.412 2.38985,-2.1347 1.14349,-0.8933 2.10212,-1.9983 3.29928,-2.8282 1.38398,-1.0405 2.70729,-2.1786 4.2126,-3.0429 0.56987,-0.3085 2.07813,-1.22 2.29135,-0.1087 -0.26859,0.7597 -0.93306,1.3395 -1.41138,1.9725 -0.67338,0.6079 -1.29865,1.268 -1.96914,1.8796 -0.88317,0.7662 -1.71152,1.5965 -2.68356,2.2577 -1.0155,0.8506 -2.08313,1.6423 -2.99416,2.6097 -0.82976,0.8134 -1.66446,1.6072 -2.51383,2.3984 -0.66567,0.7256 -1.42325,1.3606 -2.05117,2.1214 -0.12192,-0.086 -0.23531,-0.1854 -0.36575,-0.2577 -0.0141,-0.01 -0.0423,0.046 -0.0276,0.04 0.49944,-0.2298 0.89222,-0.6287 1.30234,-0.982 0.9265,-0.6496 1.86308,-1.2815 2.77341,-1.9536 1.21476,-0.9507 2.57778,-1.6854 3.79692,-2.633 1.37066,-0.9526 2.74947,-1.8941 4.0647,-2.9234 1.2459,-0.9759 2.56242,-1.8614 3.7812,-2.8745 1.00909,-0.7546 1.99123,-1.5438 2.91866,-2.3978 0.3639,-0.2764 1.53379,-1.16 1.68195,-0.2499 -0.31025,1.0768 -1.29319,1.8079 -1.7607,2.8164 -0.84773,1.1717 -1.74891,2.3013 -2.60037,3.4705 -1.05272,1.2878 -2.03611,2.6298 -3.1007,3.908 -0.96076,1.2907 -1.98902,2.5276 -2.92694,3.8357 -0.8226,1.0743 -1.54339,2.2177 -2.33722,3.3128 -0.52521,0.7517 -1.14399,1.4363 -1.58443,2.2436 -0.24023,0.5587 -0.0557,0.5888 -0.49279,0.4585 -0.0119,0 -0.20409,0.045 -0.0193,0.032 0.5508,-0.4992 0.85967,-1.2354 1.39589,-1.7573 0.54053,-0.6546 0.92335,-1.4276 1.53436,-2.0267 0.75728,-1.0244 1.48912,-2.0624 2.19104,-3.1263 0.80324,-1.1251 1.58953,-2.2543 2.37159,-3.3962 0.71431,-1.0252 1.57707,-1.9364 2.23223,-3.0045 0.25605,-0.3428 1.26494,-2.0521 1.59497,-2.1678 0.22005,-0.077 0.46599,-0.018 0.69898,-0.027 -0.031,0.7662 -0.52353,1.5191 -0.8421,2.1954 -0.56181,0.9585 -1.08536,1.9373 -1.68085,2.8773 -0.53322,0.7939 -1.03814,1.617 -1.72324,2.2919 -0.78426,0.9569 -1.61826,1.8695 -2.45217,2.7834 -0.39096,0.4381 -0.81448,0.8461 -1.18668,1.2986 -0.0719,0.087 -0.10416,0.2554 -0.21718,0.2609 -0.20168,0.01 -0.37543,-0.1488 -0.56315,-0.2232 0.61131,-0.4402 1.01518,-1.1907 1.58132,-1.6878 0.66639,-0.6301 1.27165,-1.3232 1.98266,-1.9067 0.64351,-0.6776 1.34236,-1.3003 1.95084,-2.0119 0.73718,-0.6692 1.42599,-1.3946 2.25767,-1.9531 0.77872,-0.6643 1.56096,-1.3172 2.28701,-2.0397 0.46998,-0.3894 1.3619,-1.289 1.7506,-0.3375 -0.018,0.86 -0.4802,1.5577 -0.69237,2.3727 -0.32094,1.0393 -0.47492,2.1233 -0.92294,3.1222 -0.4188,0.9686 -0.84125,1.9324 -1.27394,2.895 -0.40544,1.1601 -1.03504,2.2042 -1.50534,3.3368 -0.23767,0.458 -0.4856,0.9109 -0.7381,1.3608 -0.0572,0.102 -0.12441,0.1983 -0.18056,0.3009 -0.0386,0.07 -0.0231,0.223 -0.10339,0.2179 -0.10888,-0.01 -0.14931,-0.1591 -0.22396,-0.2386 -0.0306,0.01 -0.076,0 -0.0918,0.024 -0.0505,0.088 0.19214,-0.083 0.25838,-0.1598 0.27162,-0.314 0.42137,-0.7115 0.72496,-1.0008 0.5678,-0.6067 1.02811,-1.3042 1.48737,-1.9943 0.59778,-0.7276 1.22065,-1.4339 1.66491,-2.2728 0.6223,-0.7896 1.25199,-1.5705 1.82197,-2.3999 0.0728,-0.101 0.84561,-1.1535 0.92443,-1.149 0.82287,0.047 0.65113,0.1961 0.49094,0.3627 -0.61516,0.5248 -0.68059,1.5609 -1.12487,2.2055 -0.49165,0.9506 -0.82505,1.9579 -1.25185,2.937 -0.39311,0.9806 -0.95053,1.8939 -1.2212,2.922 -0.26172,0.7485 -0.56048,1.5092 -0.68477,2.2917 -0.0331,0 -0.12897,0.011 -0.0975,0.022 0.4095,0.1426 0.85212,-0.4924 1.16676,-0.6373 0.86011,-0.4971 1.75851,-0.9435 2.54447,-1.5548 1.00771,-0.846 2.12574,-1.5588 3.05315,-2.4996 0.30872,-0.247 0.65799,0.1896 0.34927,0.4366 z"
       inkscape:connector-curvature="0" />
    <path
       style="fill:#000000;fill-opacity:1;stroke:none"
       id="path3017"
       d="m 36.015073,16.099918 c -0.05111,0.682454 0.116554,1.344454 0.222512,2.013095 0.08795,0.651014 0.307465,1.270346 0.413781,1.919881 0.125764,0.667721 0.363249,1.296602 0.576549,1.938027 0.207998,0.679995 0.244553,1.392109 0.270873,2.09772 0.04709,0.71992 -0.04362,1.448522 0.0558,2.163652 0.148955,0.647742 0.235946,1.30388 0.284442,1.965985 0.0088,0.636376 0.0739,1.276145 0.30225,1.874103 0.192146,0.551959 0.408546,1.093735 0.59904,1.646445 0.225919,0.53719 0.701271,0.889923 1.104417,1.288148 0.46549,0.322942 0.891614,0.669264 1.262008,1.10206 0.436949,0.401585 0.874521,0.781962 1.284912,1.21196 0.348343,0.449395 0.776391,0.827096 1.084997,1.306005 0.397433,0.470837 0.573374,1.061573 0.772235,1.633024 0.235471,0.714145 0.294659,1.464474 0.332359,2.210292 0.02719,0.75096 0.02307,1.502593 0.02193,2.253911 -0.0018,0.746912 -0.003,1.493825 -0.0037,2.240739 -5.35e-4,0.746381 -5.47e-4,1.492762 -5.71e-4,2.239143 -0.02988,0.333615 -0.106513,0.660021 -0.172701,0.987569 -0.05227,0.258673 -0.418091,0.184749 -0.365819,-0.07392 l 0,0 c 0.0613,-0.303314 0.131621,-0.605569 0.165307,-0.913657 2.4e-5,-0.746486 3.6e-5,-1.492973 5.71e-4,-2.239459 6.58e-4,-0.746993 0.0019,-1.493985 0.0037,-2.240975 0.0011,-0.744872 0.0052,-1.490053 -0.02146,-2.234575 -0.03564,-0.710451 -0.08942,-1.425696 -0.312134,-2.106505 C 43.706932,37.837169 43.543054,37.275257 43.161691,36.82722 42.872773,36.365143 42.447326,36.014036 42.121548,35.578541 41.706759,35.143137 41.259953,34.76255 40.822331,34.350692 40.46095,33.92182 40.03412,33.597812 39.582162,33.272198 39.138826,32.832238 38.622496,32.440992 38.387354,31.840091 38.19907,31.290175 37.982864,30.751431 37.79158,30.202765 37.559794,29.56849 37.470015,28.89954 37.466805,28.225456 c -0.04766,-0.654823 -0.135909,-1.303024 -0.282152,-1.943782 -0.09378,-0.728506 -0.01944,-1.466274 -0.05882,-2.199173 -0.02482,-0.670319 -0.05689,-1.347314 -0.252113,-1.993964 -0.218904,-0.660213 -0.462525,-1.308304 -0.590707,-1.995617 -0.105435,-0.650077 -0.329083,-1.269233 -0.414047,-1.921536 -0.108816,-0.68772 -0.278762,-1.369564 -0.227105,-2.071466 0,-0.263901 0.373213,-0.263901 0.373213,0 z"
       inkscape:connector-curvature="0"
       transform="translate(0,452.36218)" />
    <path
       style="fill:#000000;fill-opacity:1;stroke:none"
       id="path3021"
       d="m 70.669682,22.085697 c -0.122673,0.594785 -0.361165,1.152914 -0.507355,1.741825 -0.08853,0.441308 -0.169006,1.059984 -0.155673,1.426543 0.217335,-0.279583 -0.20616,-0.05119 -0.212349,-0.134799 -0.018,-0.243273 0.261526,-0.634203 0.380187,-0.828192 0.04474,-0.0749 0.08948,-0.149808 0.134222,-0.224711 0.135354,-0.226547 0.455739,-0.03513 0.320385,0.191419 l 0,0 c -0.04591,0.07683 -0.09183,0.153651 -0.137738,0.230477 -0.09815,0.154397 -0.419049,0.978711 -0.545666,1.009178 -0.09359,0.02252 -0.184256,-0.05582 -0.276384,-0.08372 -0.162572,-0.526945 0.08615,-1.143642 0.130885,-1.676464 0.149701,-0.598172 0.388865,-1.165708 0.515425,-1.769573 0.08345,-0.250359 0.437514,-0.132338 0.354061,0.118021 z"
       inkscape:connector-curvature="0"
       transform="translate(0,452.36218)" />
    <path
       style="fill:#000000;fill-opacity:1;stroke:none"
       id="path3027"
       d="m 82.666723,119.49605 c -0.02149,-0.73289 0.0492,-1.47126 -0.04325,-2.19971 -0.08793,-0.57538 -0.368057,-1.09884 -0.642196,-1.60522 -0.340704,-0.42915 -0.796874,-0.75645 -1.202127,-1.12401 -0.441149,-0.37493 -0.96163,-0.62928 -1.454989,-0.92338 -0.447221,-0.33227 -0.940271,-0.55339 -1.436955,-0.7958 -0.540493,-0.23374 -1.102959,-0.38802 -1.634687,-0.64671 -0.391704,-0.20895 -0.816331,-0.32156 -1.247029,-0.41409 -0.257934,-0.0558 -0.179011,-0.42058 0.07892,-0.36477 l 0,0 c 0.459728,0.10012 0.913378,0.22115 1.331998,0.44356 0.531096,0.26093 1.096855,0.40661 1.635326,0.64702 0.50423,0.24941 1.008319,0.47456 1.464288,0.81067 0.512682,0.30915 1.057476,0.57193 1.514247,0.96741 0.434414,0.39636 0.930871,0.74426 1.279212,1.22243 0.296262,0.54729 0.592574,1.11478 0.684419,1.7374 0.08874,0.74461 0.02991,1.49645 0.04603,2.2452 0,0.2639 -0.373213,0.2639 -0.373213,0 z"
       inkscape:connector-curvature="0"
       transform="translate(0,452.36218)" />
    <path
       style="fill:#000000;fill-opacity:1;stroke:none"
       id="path3029"
       d="m 55.301534,65.049715 c -0.327138,0.597548 -0.744911,1.140161 -1.118205,1.708999 -0.34821,0.590689 -0.669463,1.19348 -0.994042,1.797276 -0.360051,0.479199 -0.640459,1.010416 -0.849538,1.571015 -0.299428,0.654845 -0.45371,1.35666 -0.693544,2.032746 -0.223556,0.62647 -0.276164,1.28933 -0.311224,1.947992 -0.04306,0.731035 -0.03923,1.451568 0.08142,2.173643 0.06154,0.690608 0.312388,1.334979 0.468883,2.004953 0.12476,0.620217 0.338952,1.211157 0.443619,1.837623 0.09708,0.715257 0.102392,1.438503 0.109438,2.159005 -0.01649,0.659488 -0.306605,1.185267 -0.669942,1.710214 -0.374854,0.486463 -0.818809,0.924164 -1.275887,1.334311 -0.359454,0.390862 -0.796822,0.70665 -1.092571,1.15165 -0.340145,0.429187 -0.647232,0.869674 -0.917105,1.345775 -0.181801,0.378905 -0.09877,0.18452 -0.248371,0.583458 -0.09321,0.246893 -0.442368,0.115074 -0.349159,-0.131819 l 0,0 c 0.165858,-0.436644 0.07447,-0.224939 0.27285,-0.63568 0.274816,-0.48482 0.586711,-0.934384 0.932893,-1.371196 0.320844,-0.465578 0.763681,-0.813994 1.152726,-1.220428 0.436771,-0.38884 0.858081,-0.807899 1.217748,-1.268474 0.319331,-0.461363 0.586613,-0.911972 0.603623,-1.494168 -0.0068,-0.701247 -0.01149,-1.405155 -0.104408,-2.101468 -0.102212,-0.61864 -0.317936,-1.201153 -0.438942,-1.814161 -0.157285,-0.677668 -0.41184,-1.329758 -0.473539,-2.028289 -0.124353,-0.749087 -0.131215,-1.496752 -0.08595,-2.254876 0.03729,-0.694433 0.0959,-1.392667 0.33217,-2.052846 0.240579,-0.678112 0.394944,-1.38239 0.695862,-2.039099 0.21689,-0.574653 0.497712,-1.126062 0.870271,-1.616671 0.33001,-0.61321 0.656435,-1.22565 1.010805,-1.82541 0.374363,-0.569215 0.791914,-1.112847 1.119594,-1.711096 0.146386,-0.21958 0.456918,-0.01256 0.310532,0.207021 z"
       inkscape:connector-curvature="0"
       transform="translate(0,452.36218)" />
    <path
       style="fill:#000000;fill-opacity:1;stroke:none"
       id="path3031"
       d="m 47.584683,84.397933 c 0.05251,0.653183 -0.133006,1.281828 -0.118579,1.932275 0.04186,0.612088 0.435591,0.982471 0.765098,1.451343 0.408994,0.420984 0.611289,0.969873 0.852706,1.492722 0.263268,0.432174 0.658277,0.738983 1.127054,0.916625 0.626822,0.158913 1.270021,0.161697 1.901199,0.302165 0.63247,0.139553 1.272281,0.183365 1.898864,0.349318 0.612419,0.111094 1.206137,0.270876 1.805662,0.435773 0.647122,0.162055 1.315892,0.188337 1.979412,0.209777 0.486344,0.0092 0.242488,0.0057 0.73157,0.01061 0.263888,0.0027 0.260105,0.375869 -0.0038,0.373194 l 0,0 c -0.494055,-0.005 -0.24743,-0.0014 -0.739877,-0.01079 C 57.091093,91.838422 56.39297,91.80908 55.717608,91.637976 55.119113,91.473 54.526912,91.314183 53.915329,91.203117 53.293939,91.038 52.657892,90.999443 52.030913,90.857325 c -0.648772,-0.145052 -1.313675,-0.136697 -1.955036,-0.318519 -0.556879,-0.220524 -1.025981,-0.58357 -1.330847,-1.10817 -0.232371,-0.50397 -0.423906,-1.030528 -0.819676,-1.435204 -0.368163,-0.529394 -0.801087,-0.966412 -0.832388,-1.657747 -0.01184,-0.65389 0.164404,-1.283979 0.118503,-1.939752 0,-0.263901 0.373214,-0.263901 0.373214,0 z"
       inkscape:connector-curvature="0"
       transform="translate(0,452.36218)" />
    <path
       style="fill:#000000;fill-opacity:1;stroke:none"
       id="path3033"
       d="m 90.877413,23.564182 c 0,0.755696 0,1.511393 0,2.267089 0.05024,0.74827 -0.02728,1.470734 -0.172589,2.201985 -0.216529,0.60711 -0.450136,1.207842 -0.725457,1.790878 -0.251343,0.688513 -0.582406,1.328413 -1.020132,1.916764 -0.350803,0.484446 -0.750728,0.938096 -1.183739,1.351003 -0.41374,0.347228 -0.675497,0.822127 -1.064472,1.188919 -0.347636,0.384115 -0.676189,0.790016 -0.997702,1.197694 -0.2502,0.469079 -0.620392,0.857261 -0.876015,1.321354 -0.319709,0.453809 -0.5273,0.967857 -0.852783,1.418125 -0.33679,0.485299 -0.530764,1.061597 -0.70031,1.623956 -0.164367,0.63604 -0.398434,1.242718 -0.511659,1.892463 -0.01674,0.636743 -0.321001,1.176777 -0.563273,1.744251 -0.122232,0.474028 -0.297032,0.930456 -0.439596,1.398685 -0.07705,0.252403 -0.434003,0.143433 -0.35695,-0.108969 l 0,0 c 0.147206,-0.481007 0.324185,-0.950535 0.453472,-1.436646 0.232583,-0.541496 0.525316,-1.052712 0.538742,-1.661775 0.117154,-0.664363 0.351854,-1.286197 0.522055,-1.936126 0.182924,-0.602169 0.392657,-1.217566 0.756231,-1.736097 0.321611,-0.434047 0.51081,-0.942504 0.828097,-1.379606 0.269948,-0.479238 0.642645,-0.888375 0.909282,-1.371156 0.334551,-0.42176 0.673045,-0.844229 1.036776,-1.239939 0.393523,-0.356439 0.642297,-0.847968 1.061279,-1.185925 0.420016,-0.395916 0.802435,-0.837682 1.141791,-1.303867 0.426892,-0.566348 0.736066,-1.188772 0.981563,-1.852756 0.263377,-0.555238 0.482,-1.12852 0.696745,-1.703976 0.140626,-0.707586 0.215906,-1.404714 0.165431,-2.129239 0,-0.755696 0,-1.511393 0,-2.267089 0,-0.263901 0.373213,-0.263901 0.373213,0 z"
       inkscape:connector-curvature="0"
       transform="translate(0,452.36218)" />
  </g>
</svg>
