<?xml version="1.0" encoding="UTF-8" standalone="no"?>
<!-- Created with Inkscape (http://www.inkscape.org/) -->

<svg
   xmlns:dc="http://purl.org/dc/elements/1.1/"
   xmlns:cc="http://creativecommons.org/ns#"
   xmlns:rdf="http://www.w3.org/1999/02/22-rdf-syntax-ns#"
   xmlns:svg="http://www.w3.org/2000/svg"
   xmlns="http://www.w3.org/2000/svg"
   xmlns:sodipodi="http://sodipodi.sourceforge.net/DTD/sodipodi-0.dtd"
   xmlns:inkscape="http://www.inkscape.org/namespaces/inkscape"
   width="64"
   height="280"
   id="svg3402"
   version="1.1"
   inkscape:version="0.48.5 r10040"
   sodipodi:docname="house2Tree.svg"
   inkscape:export-filename="C:\Users\narfman0\Desktop\house2Tree.png"
   inkscape:export-xdpi="90"
   inkscape:export-ydpi="90">
  <defs
     id="defs3404" />
  <sodipodi:namedview
     id="base"
     pagecolor="#ffffff"
     bordercolor="#666666"
     borderopacity="1.0"
     inkscape:pageopacity="0.0"
     inkscape:pageshadow="2"
     inkscape:zoom="1.89"
     inkscape:cx="203.46032"
     inkscape:cy="148.30802"
     inkscape:document-units="px"
     inkscape:current-layer="layer1"
     showgrid="false"
     inkscape:window-width="1283"
     inkscape:window-height="807"
     inkscape:window-x="1060"
     inkscape:window-y="124"
     inkscape:window-maximized="0" />
  <metadata
     id="metadata3407">
    <rdf:RDF>
      <cc:Work
         rdf:about="">
        <dc:format>image/svg+xml</dc:format>
        <dc:type
           rdf:resource="http://purl.org/dc/dcmitype/StillImage" />
        <dc:title />
      </cc:Work>
    </rdf:RDF>
  </metadata>
  <g
     inkscape:label="Layer 1"
     inkscape:groupmode="layer"
     id="layer1"
     transform="translate(0,-772.36218)">
    <path
       style="fill:#000000;fill-opacity:1;stroke:none"
       id="path3381"
       d="m 12.651041,778.62913 c 0,1.23572 0,2.47143 0,3.70715 0.1004,0.85082 0.2744,1.6884 0.3612,2.54144 0.2483,0.80138 0.3209,1.63805 0.4937,2.45466 0.2312,0.92152 0.5613,1.8071 0.7426,2.74271 0.1424,0.89763 0.3726,1.77489 0.4947,2.67697 0.012,0.81131 0.2371,1.58551 0.3851,2.37664 0.094,0.83351 0.1637,1.65556 0.417,2.45926 0.3535,0.83306 0.4124,1.74048 0.6301,2.60635 0.2171,0.72015 0.3098,1.46138 0.5304,2.17959 0.2237,0.67642 0.5152,1.31101 0.6618,2.014 0.1211,0.74069 0.3572,1.45054 0.4721,2.19459 0.09,0.74938 0.327,1.46676 0.4409,2.21437 0.1074,0.85035 0.1152,1.7088 0.1238,2.56457 0,0.88554 0,1.77109 8e-4,2.65664 -0.001,0.88548 0,1.77096 0,2.65645 -2e-4,0.88498 -10e-5,1.76996 -10e-5,2.65494 0,0.88495 0,1.7699 0,2.65484 0,0.88496 0,1.76991 0,2.65487 0,0.88496 0,1.76991 0,2.65487 0,0.88495 0,1.76991 0,2.65486 0,0.88496 0,1.76992 0,2.65487 0,1.05863 0,2.11727 0,3.1759 0,1.00113 0,2.00225 0,3.00338 0,0.89166 0,1.78333 0,2.67499 -0.1155,0.77276 -0.2828,1.53289 -0.3635,2.31128 -0.01,0.87499 -0.134,1.72793 -0.2845,2.58755 -0.1307,0.90381 -0.1959,1.80823 -0.353,2.70818 -0.18,0.98016 -0.2573,1.97344 -0.3009,2.96763 -0.034,1.07258 -0.029,2.14597 -0.029,3.21896 8e-4,1.00041 0,2.00083 0,3.00125 0.062,0.91732 -0.051,1.80978 -0.2028,2.71093 -0.1506,0.86599 -0.1969,1.74398 -0.2246,2.62093 -0.02,0.88222 -0.018,1.76477 -0.017,2.64716 0.028,0.94468 0.01,1.87632 -0.1257,2.81197 -0.159,0.96732 -0.2409,1.94342 -0.2855,2.92188 -0.01,0.8085 -0.2431,1.58898 -0.3543,2.38652 -0.1151,0.84012 -0.063,1.69042 -0.1713,2.52966 -0.1715,0.87189 -0.2807,1.75147 -0.3403,2.6375 0.018,0.90508 -0.1847,1.78561 -0.3195,2.6749 -0.1204,0.89247 -0.3626,1.75986 -0.4883,2.65277 -0.1422,0.99929 -0.2848,2.0072 -0.5052,2.99309 -0.2542,0.91491 -0.391,1.85035 -0.4564,2.79566 -0.056,1.08187 -0.052,2.16567 -0.053,3.24865 6e-4,0.9585 0,1.917 0,2.8755 9e-4,1.11472 10e-4,2.22944 10e-4,3.34417 0,0.95162 0,1.90325 0,2.85488 0,0.88558 0,1.77117 0,2.65675 0,0.88395 0,1.76791 0,2.65186 0,0.88488 0,1.76976 0,2.65465 0,0.88496 0,1.76993 0,2.6549 0,0.88496 0,1.76991 0,2.65487 0,0.88496 0,1.76991 0,2.65487 0,0.88495 0,1.76991 0,2.65486 0,0.88496 0,1.76992 0,2.65487 0,0.92695 0,1.85391 0,2.78086 0,0.99855 0,1.99711 0,2.99566 0,1.18247 0,2.36495 0,3.54742 0,1.01787 0,2.03574 0,3.05362 0,0.97963 0,1.95926 0,2.93889 0,0.93994 0,1.87988 0,2.81982 0,0.88751 0,1.77501 0,2.66252 0,0.99114 0,1.98228 0,2.97342 0,1.09174 0,2.18348 0,3.27522 0.018,1.37602 0.024,2.74389 -0.1273,4.11231 -0.1142,1.2932 -0.3082,2.57372 -0.4891,3.85847 -0.1584,1.13439 -0.2244,2.27789 -0.2572,3.42185 -0.019,0.90636 -0.016,1.813 -0.015,2.71951 0,0.88239 0,1.76478 0,2.64717 4e-4,0.88447 4e-4,1.76893 5e-4,2.65339 0,0.9026 -10e-5,1.80521 -10e-5,2.70782 -0.012,1.11834 0.2026,2.22396 0.3195,3.3338 0.02,0.94054 0.2383,1.8534 0.386,2.77789 0.057,0.82842 0.1886,1.6301 0.3704,2.43836 0.1157,0.82208 0.3505,1.61788 0.5023,2.43328 0.1443,0.88811 0.3812,1.75427 0.5074,2.6468 0.017,0.81269 0.2428,1.58827 0.3915,2.38098 0.2719,0.69071 0.4409,1.4012 0.5345,2.13585 0.015,0.79833 0.1231,1.56771 0.2858,2.34678 0.1664,0.81237 0.2035,1.64194 0.2293,2.46833 0.038,0.96846 0.2335,1.92453 0.3355,2.88913 0.028,0.94996 0.1528,1.87826 0.3168,2.81246 0.1533,0.8969 0.4129,1.7671 0.5511,2.6683 0.1506,0.86 0.059,1.7418 0.1899,2.6008 0.1838,0.767 0.2849,1.5459 0.3416,2.3314 0.049,0.8715 0.049,1.7449 0.051,2.6175 -0.025,0.8778 0.058,1.7623 -0.057,2.6344 -0.1763,0.7586 -0.2821,1.5265 -0.3392,2.3024 -0.05,0.8611 -0.05,1.7241 -0.052,2.5864 -5e-4,0.8854 0.001,1.7707 0,2.6561 8e-4,0.9273 9e-4,1.8546 9e-4,2.782 0.029,0.9718 -0.062,1.9507 0.051,2.9176 0.1639,0.8929 0.2784,1.7912 0.3407,2.6966 0.042,0.8397 0.01,1.6716 0.1749,2.498 0.127,0.8022 0.3879,1.5707 0.5522,2.3652 0.162,0.8783 0.1874,1.7728 0.2054,2.6633 0.011,0.8874 0.01,1.7749 0.01,2.6623 -0.028,0.8771 0.057,1.7607 -0.058,2.632 -0.1,0.5057 -0.05,0.2552 -0.15,0.7515 -0.062,0.3067 -0.4957,0.219 -0.4337,-0.088 l 0,0 c 0.098,-0.4859 0.05,-0.2447 0.1453,-0.7235 0.1207,-0.8499 0.017,-1.717 0.054,-2.5731 0,-0.8842 0.01,-1.7684 -0.01,-2.6525 -0.017,-0.8635 -0.041,-1.7309 -0.1964,-2.5829 -0.1636,-0.7952 -0.4265,-1.5643 -0.5526,-2.3674 -0.1692,-0.8458 -0.145,-1.6956 -0.1826,-2.5548 -0.062,-0.8989 -0.1771,-1.7902 -0.3388,-2.6767 -0.1095,-0.9847 -0.031,-1.9785 -0.054,-2.9679 -10e-5,-0.9272 -2e-4,-1.8544 -10e-4,-2.7816 -8e-4,-0.8858 0,-1.7717 0,-2.6576 0,-0.8728 0,-1.7463 0.053,-2.6179 0.058,-0.7849 0.1625,-1.5625 0.3422,-2.3297 0.121,-0.85 0.019,-1.7173 0.053,-2.5735 0,-0.8624 0,-1.7254 -0.05,-2.5867 -0.056,-0.7746 -0.1576,-1.5419 -0.338,-2.2984 -0.1236,-0.8602 -0.05,-1.7377 -0.1896,-2.5987 -0.1369,-0.898 -0.399,-1.7645 -0.5496,-2.6587 -0.1657,-0.9439 -0.2926,-1.8827 -0.321,-2.84246 -0.103,-0.9755 -0.3015,-1.94211 -0.3377,-2.92182 -0.025,-0.80062 -0.06,-1.60447 -0.2202,-2.39164 -0.165,-0.79021 -0.2769,-1.57219 -0.2916,-2.38162 -0.091,-0.727 -0.2691,-1.42451 -0.5304,-2.11002 -0.1493,-0.79903 -0.3773,-1.5817 -0.3948,-2.40065 -0.1246,-0.88621 -0.3622,-1.74575 -0.5043,-2.62777 -0.1501,-0.80996 -0.3847,-1.60034 -0.4989,-2.41697 -0.1838,-0.81708 -0.3186,-1.62852 -0.3757,-2.46573 -0.1487,-0.93218 -0.3682,-1.85309 -0.3891,-2.80135 -0.1183,-1.12521 -0.3352,-2.24607 -0.3219,-3.38009 0,-0.90261 0,-1.80521 0,-2.70782 0,-0.88437 0,-1.76875 -4e-4,-2.65313 -5e-4,-0.88228 -10e-4,-1.76456 0,-2.64684 -10e-4,-0.91094 0,-1.822 0.015,-2.73279 0.033,-1.16035 0.1006,-2.32023 0.2613,-3.47087 0.1804,-1.28044 0.374,-2.55657 0.4874,-3.84549 0.1501,-1.35216 0.1412,-2.70384 0.1247,-4.06358 0,-1.09174 0,-2.18348 0,-3.27522 0,-0.99114 0,-1.98228 0,-2.97342 0,-0.88751 0,-1.77501 0,-2.66252 0,-0.93994 0,-1.87988 0,-2.81982 0,-0.97963 0,-1.95926 0,-2.93889 0,-1.01788 0,-2.03575 0,-3.05362 0,-1.18247 0,-2.36495 0,-3.54742 0,-0.99855 0,-1.99711 0,-2.99566 0,-0.92695 0,-1.85391 0,-2.78086 0,-0.88495 0,-1.76991 0,-2.65487 0,-0.88495 0,-1.76991 0,-2.65486 0,-0.88496 0,-1.76991 0,-2.65487 0,-0.88496 0,-1.76991 0,-2.65487 0,-0.88497 0,-1.76994 0,-2.6549 0,-0.88489 0,-1.76977 0,-2.65465 0,-0.88395 0,-1.76791 0,-2.65186 0,-0.88559 0,-1.77117 0,-2.65675 0,-0.95162 0,-1.90324 0,-2.85485 -10e-5,-1.11457 -10e-5,-2.22913 -10e-4,-3.3437 -0.001,-0.95879 0,-1.91758 0,-2.87638 9e-4,-1.09308 0,-2.18701 0.054,-3.27897 0.068,-0.9675 0.2063,-1.92541 0.4661,-2.86199 0.2201,-0.97356 0.3571,-1.9708 0.4988,-2.95792 0.1265,-0.89438 0.3666,-1.76366 0.4889,-2.65728 0.1332,-0.87732 0.3344,-1.74529 0.3155,-2.63829 0.061,-0.89536 0.1693,-1.78461 0.3432,-2.66563 0.1136,-0.83924 0.048,-1.69282 0.1717,-2.53303 0.1099,-0.78396 0.3415,-1.55131 0.3505,-2.34542 0.045,-0.99241 0.1284,-1.98247 0.2894,-2.96361 0.1295,-0.91498 0.1486,-1.8258 0.1214,-2.7498 -6e-4,-0.88716 0,-1.77447 0.018,-2.66145 0.029,-0.89688 0.077,-1.79475 0.2304,-2.6804 0.1477,-0.87712 0.2597,-1.74393 0.1967,-2.63714 -7e-4,-1.00051 0,-2.00102 0,-3.00153 -10e-5,-1.07949 -0.01,-2.15937 0.029,-3.23844 0.045,-1.01317 0.1238,-2.0254 0.3071,-3.02428 0.1571,-0.89993 0.2202,-1.80472 0.353,-2.70841 0.1488,-0.84977 0.2708,-1.69181 0.2803,-2.55697 0.08,-0.76305 0.2341,-1.51004 0.3611,-2.26553 0,-0.89166 0,-1.78333 0,-2.67499 0,-1.00113 0,-2.00225 0,-3.00338 0,-1.05863 0,-2.11727 0,-3.1759 0,-0.88495 0,-1.76991 0,-2.65487 0,-0.88495 0,-1.76991 0,-2.65486 0,-0.88496 0,-1.76991 0,-2.65487 0,-0.88495 0,-1.76991 0,-2.65486 0,-0.88495 0,-1.7699 0,-2.65485 0,-0.88502 -10e-5,-1.77003 10e-5,-2.65505 2e-4,-0.88566 6e-4,-1.77132 0,-2.65698 0.001,-0.88384 0,-1.7677 -8e-4,-2.65153 -0.01,-0.83505 -0.015,-1.67272 -0.1188,-2.50262 -0.1129,-0.74732 -0.3534,-1.46385 -0.4408,-2.21357 -0.1126,-0.73655 -0.3501,-1.43851 -0.4681,-2.17217 -0.1414,-0.68977 -0.437,-1.30834 -0.6514,-1.97378 -0.2228,-0.72624 -0.3196,-1.47453 -0.5369,-2.20291 -0.2106,-0.85916 -0.2769,-1.75487 -0.623,-2.58104 -0.2542,-0.82124 -0.3408,-1.65814 -0.4296,-2.50992 -0.1487,-0.79821 -0.3755,-1.58029 -0.3886,-2.39864 -0.1204,-0.89384 -0.3506,-1.76268 -0.4906,-2.65226 -0.1796,-0.93346 -0.5158,-1.815 -0.7413,-2.73568 -0.1736,-0.83253 -0.2557,-1.6827 -0.5009,-2.50092 -0.088,-0.8679 -0.2713,-1.71921 -0.3634,-2.58611 0,-1.23572 0,-2.47143 0,-3.70715 0,-0.31287 0.4425,-0.31287 0.4425,0 z"
       inkscape:connector-curvature="0" />
    <path
       style="fill:#000000;fill-opacity:1;stroke:none"
       id="path3383"
       d="m 49.376741,774.20436 c -0.01,1.12806 0.2031,2.24379 0.3195,3.36363 0.092,0.93896 0.1115,1.88263 0.1222,2.82537 0.1283,0.87828 0.2814,1.75045 0.364,2.63494 0.071,0.8887 0.076,1.7807 0.081,2.67165 0,0.88541 3e-4,1.77083 -6e-4,2.65624 -0.001,0.8849 -0.001,1.7698 -0.001,2.65469 -10e-5,0.92694 -10e-5,1.85389 -10e-5,2.78083 0,1.06975 0,2.13951 0,3.20926 -0.015,0.95227 0.2059,1.88783 0.3191,2.83037 0.099,0.90908 0.1132,1.82414 0.1226,2.73762 0.01,1.10498 0,2.20999 0,3.31499 -0.072,0.94543 0.1256,1.86697 0.2624,2.79591 0.061,0.89389 0.2033,1.76767 0.3689,2.64685 0.1661,0.88619 0.2119,1.78719 0.2394,2.68637 0.019,0.88708 0.016,1.77445 0.015,2.66168 -0.079,0.80183 0.1236,1.56876 0.2605,2.34997 0.1337,0.83269 0.156,1.67705 0.173,2.51851 0.033,0.9652 -0.041,1.93378 0.06,2.89493 0.1386,0.93819 0.2475,1.87569 0.4592,2.8004 0.2188,0.88558 0.2998,1.79333 0.3456,2.70161 0.059,0.98661 -0.025,1.97839 0.082,2.96113 0.161,0.94098 0.2798,1.88584 0.3372,2.83866 0.05,1.10944 0.05,2.22041 0.052,3.33076 6e-4,0.94252 -10e-4,1.88503 0,2.82755 -9e-4,1.2215 -9e-4,2.44301 -9e-4,3.66451 -10e-5,1.2443 -10e-5,2.4886 -10e-5,3.7329 0,0.92938 0,1.85875 0,2.78813 0,0.88215 0,1.7643 0,2.64645 0,1.16048 0,2.32097 0,3.48145 0,1.23613 0,2.47226 0,3.70838 0,1.24358 0,2.48716 0,3.73073 0,1.22906 0,2.45811 0,3.68717 0,1.1348 0,2.26959 0,3.40439 0.1384,1.03266 0.2115,2.08043 0.4112,3.10341 0.227,0.90775 0.3558,1.83148 0.4252,2.76318 0.053,0.88845 0.052,1.77887 0.053,2.66853 -4e-4,0.88466 0,1.76931 0,2.65397 -8e-4,0.88486 -9e-4,1.76973 -0.001,2.65459 0,0.88496 0,1.76991 0,2.65487 0,0.88495 0,1.76991 0,2.65487 0,0.92695 0,1.8539 0,2.78085 0,0.99856 0,1.99711 0,2.99567 0,1.00879 0,2.01759 0,3.02639 0.064,0.96481 -0.1465,1.90795 -0.2683,2.8592 -0.1139,1.08541 -0.3724,2.14442 -0.4902,3.23085 -0.079,1.08129 -0.3201,2.14084 -0.4503,3.21662 -0.1063,1.01891 -0.3224,2.02121 -0.4421,3.03933 -0.1053,1.00093 -0.1115,2.0085 -0.1201,3.01384 -0.01,0.94134 0,1.88271 -8e-4,2.82406 10e-4,0.9941 0,1.9882 0,2.9823 1e-4,0.92456 1e-4,1.84912 1e-4,2.77368 0.067,1.02806 -0.13,2.03657 -0.2686,3.04954 -0.1202,0.8983 -0.1503,1.80454 -0.1681,2.70956 -0.012,0.90081 -0.01,1.80174 -0.01,2.70261 0.059,0.95996 -0.027,1.89254 -0.2019,2.8337 -0.08,0.7803 -0.2416,1.53321 -0.4304,2.29256 -0.122,0.80571 -0.2792,1.60058 -0.4434,2.3991 -0.1409,0.91782 -0.3118,1.83454 -0.566,2.72827 -0.3069,0.95049 -0.425,1.9436 -0.6474,2.91498 -0.1453,0.90184 -0.3538,1.78581 -0.5458,2.67816 -0.3221,0.86745 -0.433,1.78907 -0.6728,2.67612 -0.2589,0.7396 -0.3676,1.50981 -0.4284,2.287 -0.092,0.84864 -0.3658,1.64417 -0.6215,2.45117 -0.1732,0.80532 -0.411,1.59427 -0.566,2.40396 -0.083,0.88923 -0.3047,1.75394 -0.4516,2.63315 -0.2703,0.75331 -0.3977,1.54153 -0.5937,2.31333 -0.2495,0.82536 -0.3582,1.67792 -0.4211,2.53471 -0.198,0.84584 -0.3348,1.698 -0.4124,2.56315 -0.096,0.89851 -0.012,1.8075 -0.1327,2.70196 -0.1761,0.76092 -0.2805,1.53128 -0.3368,2.3094 -0.049,0.86098 -0.049,1.72374 -0.051,2.58582 -4e-4,0.88531 10e-4,1.77062 0,2.65593 -0.062,0.88717 0.052,1.74816 0.1983,2.61932 0.1539,0.88706 0.202,1.78633 0.2304,2.6846 10e-4,0.78196 0.2289,1.53889 0.3362,2.31081 0.1307,0.82078 0.044,1.66001 0.1711,2.47842 0.2079,0.73361 0.2181,1.50527 0.3918,2.24276 0.2346,0.74695 0.3361,1.51936 0.3957,2.29689 -0.013,0.87453 0.1025,1.72501 0.2485,2.58406 0.1538,0.88818 0.2,1.7887 0.2276,2.6881 -0.061,0.8044 0.1426,1.57406 0.2799,2.35786 0.042,0.7576 0.2826,1.4741 0.433,2.2124 0.1476,0.8303 0.1662,1.6754 0.1823,2.5163 -0.052,0.886 0.059,1.7463 0.2035,2.6167 0.1524,0.8879 0.1998,1.7878 0.228,2.6867 -0.04,0.9105 0.062,1.7964 0.2146,2.6909 0.134,0.865 0.1792,1.7326 0.3499,2.5916 0.1926,0.8811 0.2664,1.7794 0.3089,2.6783 -0.032,0.8245 0.063,1.6171 0.2256,2.4214 0.1637,0.8114 0.2024,1.6393 0.2288,2.4643 0.1485,0.751 0.2993,1.4971 0.3781,2.2595 -0.012,0.7828 0.2036,1.5292 0.3437,2.2915 0.2705,0.6909 0.4394,1.4011 0.5333,2.1354 0.068,0.7585 0.2989,1.4871 0.4091,2.2413 0.04,0.8572 0.2482,1.6889 0.3844,2.5332 0.037,0.8133 0.2796,1.5866 0.4363,2.3796 0.2774,0.6907 0.4472,1.4028 0.5412,2.1392 0.2125,0.8469 0.3647,1.7023 0.451,2.5708 0.1227,0.7923 0.4869,1.5044 0.8152,2.2253 0.069,0.1343 0.1385,0.2687 0.2078,0.403 0.1432,0.2782 -0.2502,0.4807 -0.3934,0.2025 l 0,0 c -0.072,-0.1407 -0.1447,-0.2814 -0.2171,-0.4221 -0.3483,-0.7651 -0.7301,-1.5227 -0.8528,-2.3651 -0.085,-0.8647 -0.2419,-1.7148 -0.4496,-2.5586 -0.092,-0.7275 -0.2695,-1.4253 -0.5364,-2.1094 -0.157,-0.798 -0.401,-1.5767 -0.4391,-2.3948 -0.1362,-0.8464 -0.3454,-1.6805 -0.3854,-2.5399 -0.1097,-0.7568 -0.3439,-1.4875 -0.4101,-2.2492 -0.092,-0.7273 -0.2698,-1.4251 -0.5297,-2.1114 -0.1415,-0.7734 -0.3596,-1.532 -0.3485,-2.3259 -0.079,-0.773 -0.2415,-1.5274 -0.3802,-2.2908 -0.025,-0.8003 -0.062,-1.6035 -0.2203,-2.3908 -0.1668,-0.826 -0.2654,-1.642 -0.2339,-2.4882 -0.041,-0.8769 -0.1126,-1.7533 -0.3009,-2.6129 -0.1712,-0.8631 -0.2203,-1.7341 -0.3521,-2.6033 -0.156,-0.9143 -0.2599,-1.8213 -0.2207,-2.7516 -0.027,-0.8792 -0.073,-1.7594 -0.2222,-2.6279 -0.1483,-0.8912 -0.2606,-1.774 -0.2094,-2.6808 -0.015,-0.8142 -0.032,-1.6325 -0.1735,-2.4367 -0.1504,-0.7421 -0.3929,-1.4629 -0.4353,-2.2242 -0.1405,-0.8041 -0.3462,-1.59576 -0.2862,-2.42066 -0.027,-0.879 -0.071,-1.75931 -0.2216,-2.62747 -0.1482,-0.87212 -0.2654,-1.7369 -0.2535,-2.62449 -0.058,-0.75567 -0.1568,-1.50564 -0.3857,-2.23132 -0.1695,-0.75079 -0.1942,-1.52984 -0.3981,-2.27628 -0.1198,-0.82202 -0.052,-1.65931 -0.1719,-2.4834 -0.1089,-0.78737 -0.3421,-1.55928 -0.3401,-2.35759 -0.028,-0.87837 -0.074,-1.75777 -0.2246,-2.6252 -0.1505,-0.89492 -0.2653,-1.78129 -0.2043,-2.69231 -8e-4,-0.88579 0,-1.77158 0,-2.65737 0,-0.8724 0,-1.74551 0.052,-2.61679 0.057,-0.78765 0.1604,-1.56828 0.3398,-2.33839 0.1277,-0.88549 0.025,-1.7907 0.1302,-2.68063 0.078,-0.86235 0.2073,-1.7141 0.4119,-2.55598 0.065,-0.8827 0.1776,-1.76123 0.4337,-2.6118 0.1954,-0.75889 0.3134,-1.53718 0.5859,-2.27678 0.1479,-0.8827 0.3699,-1.75077 0.4535,-2.64351 0.1591,-0.82656 0.3997,-1.6326 0.5788,-2.45434 0.246,-0.77495 0.5117,-1.53714 0.6021,-2.35204 0.063,-0.80464 0.176,-1.60277 0.4427,-2.36888 0.2423,-0.87759 0.3426,-1.79454 0.6671,-2.65276 0.1928,-0.89426 0.4012,-1.77988 0.547,-2.68379 0.2243,-0.97903 0.3429,-1.98014 0.6534,-2.93796 0.2543,-0.88207 0.4162,-1.78955 0.5579,-2.69564 0.1656,-0.80454 0.3226,-1.60526 0.4474,-2.4168 0.187,-0.75103 0.3465,-1.49463 0.4248,-2.26675 0.1704,-0.91454 0.2539,-1.81899 0.1945,-2.75223 -9e-4,-0.90391 0,-1.80788 0.01,-2.71174 0.018,-0.92217 0.049,-1.84555 0.1721,-2.76083 0.1359,-0.99325 0.3313,-1.98145 0.2645,-2.98957 0,-0.92453 0,-1.84906 -1e-4,-2.77359 -3e-4,-0.99392 -5e-4,-1.98784 0,-2.98177 -10e-4,-0.94283 0,-1.88568 8e-4,-2.82851 0.01,-1.02134 0.016,-2.04492 0.1232,-3.06173 0.12,-1.01861 0.3351,-2.02156 0.4422,-3.04084 0.1304,-1.07397 0.3699,-2.13187 0.4497,-3.21123 0.1188,-1.08922 0.3755,-2.15131 0.4912,-3.23924 0.1196,-0.93281 0.3278,-1.85689 0.2647,-2.80297 0,-1.0088 0,-2.0176 0,-3.02639 0,-0.99856 0,-1.99711 0,-2.99567 0,-0.92695 0,-1.8539 0,-2.78085 0,-0.88496 0,-1.76991 0,-2.65487 0,-0.88497 0,-1.76994 0,-2.65491 10e-5,-0.88501 2e-4,-1.77002 10e-4,-2.65503 0,-0.88429 0,-1.76858 0,-2.65288 -10e-4,-0.87891 -2e-4,-1.75858 -0.052,-2.63633 -0.068,-0.91459 -0.1953,-1.82095 -0.4183,-2.71193 -0.2018,-1.0513 -0.2852,-2.12593 -0.4193,-3.18747 0,-1.1348 0,-2.26959 0,-3.40439 0,-1.22906 0,-2.45811 0,-3.68717 0,-1.24357 0,-2.48715 0,-3.73073 0,-1.23612 0,-2.47225 0,-3.70838 0,-1.16048 0,-2.32097 0,-3.48145 0,-0.88215 0,-1.7643 0,-2.64645 0,-0.92937 0,-1.85875 0,-2.78813 0,-1.24431 0,-2.48862 0,-3.73293 1e-4,-1.22162 1e-4,-2.44325 10e-4,-3.66487 8e-4,-0.94209 0,-1.88417 0,-2.82626 0,-1.1018 0,-2.20422 -0.052,-3.30514 -0.057,-0.94614 -0.1768,-1.88395 -0.3355,-2.81845 -0.103,-0.99168 -0.03,-1.99025 -0.084,-2.98561 -0.044,-0.88256 -0.1221,-1.76469 -0.335,-2.62515 -0.2156,-0.94236 -0.3279,-1.89762 -0.4681,-2.85376 -0.098,-0.97396 -0.034,-1.95355 -0.062,-2.93137 -0.016,-0.81885 -0.037,-1.64061 -0.1664,-2.45108 -0.141,-0.806 -0.3461,-1.59976 -0.2671,-2.42676 9e-4,-0.88257 0,-1.76528 -0.015,-2.6477 -0.027,-0.87625 -0.07,-1.75437 -0.232,-2.61803 -0.1666,-0.8848 -0.3104,-1.7648 -0.3718,-2.66428 -0.1398,-0.95019 -0.3396,-1.89387 -0.2672,-2.86079 10e-4,-1.10334 0,-2.20669 0,-3.31001 -0.01,-0.8974 -0.023,-1.79636 -0.1194,-2.68949 -0.115,-0.96 -0.3402,-1.91278 -0.3223,-2.88304 0,-1.06975 0,-2.13951 0,-3.20926 0,-0.92697 0,-1.85393 1e-4,-2.7809 10e-5,-0.88503 3e-4,-1.77007 0,-2.6551 10e-4,-0.88441 0,-1.76883 6e-4,-2.65324 0,-0.8781 -0.01,-1.75724 -0.079,-2.63315 -0.083,-0.89654 -0.2448,-1.77951 -0.3659,-2.67093 -0.011,-0.92915 -0.029,-1.85924 -0.1198,-2.78469 -0.1179,-1.13501 -0.3332,-2.2658 -0.3219,-3.40934 0,-0.31288 0.4425,-0.31288 0.4425,0 z"
       inkscape:connector-curvature="0" />
    <path
       style="fill:#000000;fill-opacity:1;stroke:none"
       id="path3387"
       d="m 18.613341,1042.7535 c 1.1204,0.297 2.2169,0.6865 3.2853,1.1349 0.6413,0.4127 1.3466,0.6886 2.0358,1.0056 0.6547,0.2035 1.2801,0.4862 1.9465,0.6534 0.6529,0.2674 1.3326,0.439 1.9903,0.6915 0.7014,0.2823 1.4642,0.2684 2.1936,0.4163 0.7256,0.1884 1.4626,0.2816 2.1802,0.4991 0.6993,0.1393 1.3503,0.4296 2.0409,0.6001 0.7431,0.077 1.4503,0.316 2.1798,0.4636 0.7982,0.1608 1.6173,0.1021 2.4179,0.2262 0.7528,0.1871 1.5183,0.2875 2.2907,0.343 0.8139,0.052 1.6182,0.086 2.4202,-0.072 0.6773,-0.072 1.2055,-0.4902 1.7898,-0.7909 0.6496,-0.2475 1.3327,-0.413 1.9653,-0.7051 0.6006,-0.2706 1.2165,-0.5186 1.7928,-0.8394 0.5418,-0.3823 1.1332,-0.6497 1.7239,-0.9441 0.5641,-0.3516 1.1697,-0.6057 1.7674,-0.8921 0.3812,-0.1578 0.7313,-0.3854 1.0476,-0.6483 0.2421,-0.1983 0.5225,0.1439 0.2805,0.3422 l 0,0 c -0.3474,0.2812 -0.7227,0.5351 -1.1382,0.7057 -0.5977,0.2821 -1.1986,0.5377 -1.7611,0.8891 -0.5869,0.2886 -1.17,0.5547 -1.7066,0.9351 -0.5891,0.3213 -1.2103,0.5827 -1.8231,0.8545 -0.6293,0.2828 -1.2981,0.4659 -1.9469,0.6963 -0.6219,0.3164 -1.1855,0.7579 -1.9064,0.8312 -0.8411,0.1637 -1.6839,0.1368 -2.537,0.079 -0.7849,-0.057 -1.5636,-0.1568 -2.3286,-0.3473 -0.8047,-0.1325 -1.6339,-0.055 -2.4362,-0.2295 -0.7358,-0.1499 -1.449,-0.3884 -2.1985,-0.4678 -0.6978,-0.1742 -1.3563,-0.4635 -2.0627,-0.6061 -0.7045,-0.214 -1.4291,-0.3022 -2.1413,-0.4893 -0.7509,-0.1588 -1.5416,-0.1334 -2.2626,-0.4365 -0.6413,-0.2462 -1.3048,-0.4113 -1.9402,-0.6756 -0.692,-0.176 -1.344,-0.464 -2.023,-0.6804 -0.6843,-0.3149 -1.3868,-0.587 -2.022,-0.9996 -1.0522,-0.4416 -2.132,-0.8256 -3.2357,-1.1174 -0.3008,-0.086 -0.1792,-0.5115 0.1216,-0.4255 z"
       inkscape:connector-curvature="0" />
    <path
       style="fill:#000000;fill-opacity:1;stroke:none"
       id="path3421"
       d="m 11.587341,779.76001 c 1.2761,-0.12899 2.523,-0.36465 3.773,-0.64316 1.1811,-0.25549 2.3928,-0.30417 3.5966,-0.34126 1.2982,-0.21692 2.601,-0.36717 3.9145,-0.45134 1.5252,-0.0985 3.0577,-0.27142 4.5637,-0.53729 1.3747,-0.32068 2.7702,-0.47347 4.1765,-0.55347 1.5248,-0.0519 3.0426,-0.0225 4.5579,-0.21367 1.1628,-0.21793 2.3548,-0.20995 3.5186,-0.40166 1.0549,-0.23504 2.1242,-0.3709 3.2011,-0.44575 1.0613,-0.0589 2.1246,-0.0588 3.1871,-0.0607 1.0583,4e-5 2.1166,0.002 3.175,0.003 0.5237,0.0188 1.0364,0.003 1.5557,-0.0606 0.3715,-0.0443 0.4342,0.48108 0.063,0.52537 l 0,0 c -0.5407,0.0627 -1.074,0.0867 -1.6189,0.0643 -1.0579,-10e-4 -2.1157,-0.003 -3.1735,-0.003 -1.0507,0.002 -2.1021,0.002 -3.1515,0.0594 -1.0609,0.0733 -2.1137,0.20866 -3.1529,0.44018 -1.1713,0.18752 -2.3673,0.19072 -3.5373,0.40435 -1.5275,0.19192 -3.057,0.16759 -4.594,0.21696 -1.3858,0.0785 -2.7604,0.22967 -4.1149,0.54633 -1.5256,0.26712 -3.0767,0.44556 -4.6215,0.54421 -1.3196,0.0842 -2.627,0.24114 -3.932,0.45216 -1.1706,0.0359 -2.3492,0.0815 -3.4979,0.32885 -1.2591,0.28052 -2.5157,0.5185 -3.801,0.64862 -0.369,0.0615 -0.456,-0.4604 -0.087,-0.5219 z"
       inkscape:connector-curvature="0" />
    <path
       style="fill:#b37e51;fill-opacity:1;stroke:none"
       d="m 47.799841,776.25412 c -11.7645,0.92052 -23.6224,1.87612 -35.2462,3.71958 -0.7468,2.19514 0.5977,4.86156 0.7606,7.16261 1.1259,6.86331 3.071,13.59123 4.2415,20.42148 0.7665,16.01146 0.6686,32.09796 -0.8434,48.06298 -0.4227,10.72887 -0.9667,21.52419 -2.9418,32.06864 -1.019,22.62001 -0.5931,45.28372 -1.1286,67.91984 -0.1876,9.43826 -0.9375,18.97762 1.1944,28.27637 2.1436,11.5575 4.1649,23.40078 3.4238,35.24688 -0.5341,7.8458 1.0701,15.585 1.2255,23.4103 5.2835,3.1012 11.7059,4.4019 17.6715,5.8214 4.3452,0.8472 8.9799,0.6402 12.8165,-1.7251 1.6327,-0.8547 4.9374,-1.7824 3.6214,-4.2814 -2.1446,-10.2123 -3.8453,-20.4945 -4.6816,-30.9738 -0.9467,-10.7095 -2.6775,-21.33261 -3.5152,-32.04626 -0.4697,-18.24147 7.9016,-35.35088 7.6338,-53.59354 0.087,-8.19832 1.0757,-16.33687 1.7119,-24.4896 -0.063,-24.08786 -0.5444,-48.18013 -1.119,-72.26155 -1.0855,-9.70055 -1.8789,-19.54217 -2.3988,-29.32734 -0.3671,-7.69556 -0.229,-15.44876 -0.9883,-23.10729 -0.3307,-0.48601 -0.9635,-0.26448 -1.438,-0.3042 z"
       id="path3477"
       inkscape:connector-curvature="0" />
    <path
       style="fill:#b9af38;fill-opacity:1;stroke:none"
       id="path3542"
       d="m 45.828941,886.04656 c -1.0009,0.387 -1.993,0.81692 -2.9384,1.32605 -0.6092,0.30792 -1.1764,0.71194 -1.6582,1.19622 -0.3064,0.5144 -0.4911,1.11362 -0.6661,1.68804 -0.2069,0.63835 0.042,1.09872 0.56,1.4692 0.5513,0.40324 1.0786,0.84438 1.7245,1.08411 0.7374,0.20943 1.511,0.2157 2.2717,0.23133 0.8801,0.009 1.7604,0.003 2.6406,1.3e-4 0.5211,-0.0529 0.8076,-0.43524 0.3857,0.52251 -0.018,0.041 -0.089,-0.0114 -0.1334,-0.0168 -0.088,-0.0108 -0.1753,-0.0213 -0.2629,-0.0319 -0.8046,-0.10877 -1.594,0.0967 -2.3853,0.21644 -0.7449,0.12506 -1.5142,0.27782 -2.2279,0.53279 -0.5845,0.28858 -1.1906,0.54123 -1.7793,0.82556 -0.6021,0.25814 -1.2222,0.4857 -1.7334,0.90612 -0.6257,0.4396 -1.1934,0.9135 -1.7255,1.45868 -0.3113,0.36787 -0.6437,0.83145 -0.3064,1.27321 0.6099,0.59714 1.4736,0.92736 2.2466,1.27376 0.8791,0.31817 1.7963,0.53534 2.7073,0.74668 0.986,0.31348 1.6857,0.79945 0.938,1.82646 -0.7333,0.73956 -1.6181,1.33399 -2.4935,1.89412 -0.8813,0.57114 -1.7455,1.15491 -2.5543,1.82619 -0.8328,0.7052 -1.6029,1.4794 -2.3129,2.30714 -0.4961,0.5042 -0.9502,1.07442 -1.2591,1.714 -0.2348,0.51933 -0.015,0.80367 0.4482,1.03352 0.5854,0.40773 1.2528,0.55669 1.9471,0.64539 0.5838,0.14622 1.4525,0.26816 1.7117,0.92379 0.058,0.14529 0.053,0.30801 0.079,0.46202 -0.1159,0.87539 -0.7056,1.58256 -1.1971,2.28482 -0.5206,0.68763 -0.9692,1.41795 -1.2471,2.23602 -0.1721,0.6753 -0.375,1.39089 0.045,2.00355 0.5021,0.46827 1.2202,0.46598 1.854,0.61302 0.9539,0.32355 1.2048,1.16208 1.3317,2.06791 -0.019,0.77349 0.3077,1.39933 0.7031,2.03217 0.4774,0.67426 1.1391,1.21763 1.7909,1.7192 0.6539,0.5954 1.4263,1.04069 2.1878,1.48322 0.8358,0.55431 1.7165,1.0403 2.5512,1.59503 0.8398,0.70272 1.2329,1.41217 0.7549,2.45832 -0.4298,0.77448 -1.2114,1.20207 -1.9143,1.69102 -0.8677,0.53378 -1.7402,1.05898 -2.6168,1.57797 -0.7022,0.54454 -1.507,0.94265 -2.2014,1.49443 -0.548,0.52142 -0.6613,1.23475 -0.7393,1.95221 -0.077,0.88028 0,1.76385 -0.099,2.64174 -0.2402,0.84668 -0.5985,1.65614 -0.9871,2.4442 -0.2841,0.76509 -0.8411,1.37254 -1.2333,2.07453 -0.2822,0.60578 -0.3423,1.24429 -0.2379,1.89508 0.1639,0.78832 0.2355,1.58918 0.2789,2.39177 0.037,0.88297 0.037,1.76695 0.038,2.65054 0.1574,0.81537 0.2865,1.63034 0.3587,2.4583 0.053,0.96148 0.1276,1.92845 0.027,2.888 -0.1282,0.93872 -0.483,1.82445 -0.8123,2.70602 -0.3226,0.94696 -0.3871,1.95408 -0.4354,2.94585 -0.031,0.62501 -0.9145,0.58165 -0.8838,-0.0434 l 0,0 c 0.053,-1.08299 0.1312,-2.18055 0.4904,-3.21256 0.3046,-0.813 0.6359,-1.62899 0.7615,-2.49347 0.1071,-0.89948 0.01,-1.81176 -0.029,-2.71388 -0.074,-0.85362 -0.2255,-1.68936 -0.362,-2.53372 0,-0.86812 -6e-4,-1.73663 -0.037,-2.60417 -0.041,-0.77351 -0.111,-1.545 -0.2699,-2.30459 -0.1267,-0.85043 -0.04,-1.68461 0.3429,-2.4665 0.3926,-0.68375 0.9226,-1.28564 1.2098,-2.0302 0.3461,-0.69708 0.6518,-1.41418 0.9011,-2.15179 0.1061,-0.87492 0,-1.76205 0.098,-2.63975 0.1092,-0.95939 0.3204,-1.87833 1.0726,-2.55053 0.7316,-0.5679 1.556,-1.00242 2.2971,-1.55987 0.8585,-0.5071 1.7111,-1.02339 2.5621,-1.54282 0.5837,-0.40569 1.2579,-0.75032 1.6361,-1.37599 0.3572,-0.48659 -0.082,-0.98038 -0.4629,-1.31086 -0.8168,-0.5486 -1.687,-1.0184 -2.5052,-1.56628 -0.7937,-0.46338 -1.6002,-0.92815 -2.2838,-1.54785 -0.7324,-0.56893 -1.4729,-1.18052 -2.0001,-1.95043 -0.4584,-0.73401 -0.8351,-1.4912 -0.8294,-2.38205 -0.068,-0.52009 -0.1145,-1.09823 -0.6584,-1.32563 -0.8768,-0.21208 -1.8023,-0.23973 -2.4081,-1.01703 -0.5012,-0.89187 -0.4185,-1.78884 -0.1242,-2.74936 0.3122,-0.8933 0.7842,-1.7029 1.3587,-2.45502 0.3857,-0.55053 0.8381,-1.09758 1.0375,-1.74772 0.3935,-0.0587 -0.992,-0.67527 -1.0205,-0.53774 -0.8029,-0.10613 -1.5835,-0.28673 -2.2645,-0.75036 -0.8432,-0.50111 -1.2404,-1.24711 -0.8094,-2.19929 0.3536,-0.69957 0.827,-1.34362 1.3811,-1.89808 0.7449,-0.86301 1.5462,-1.6759 2.4189,-2.41113 0.8379,-0.69403 1.7312,-1.30089 2.644,-1.89151 0.7961,-0.50363 1.592,-1.05023 2.2761,-1.69856 0.041,-0.0415 0.065,-0.11627 0.1224,-0.12465 0.055,-0.008 0.1432,0.16265 0.123,0.11119 -0.097,-0.24812 -0.4912,-0.31779 -0.6913,-0.40003 -0.9662,-0.22514 -1.94,-0.45401 -2.8694,-0.80134 -0.9413,-0.42338 -1.9925,-0.82501 -2.6549,-1.64623 -0.4607,-0.92653 -0.21,-1.57448 0.4441,-2.32635 0.5587,-0.57162 1.1533,-1.07251 1.8084,-1.53355 0.5769,-0.44669 1.2293,-0.74462 1.9048,-1.01274 0.6227,-0.29044 1.2503,-0.56757 1.8693,-0.86228 0.7709,-0.25927 1.5826,-0.44512 2.3844,-0.57129 0.874,-0.13196 1.747,-0.34755 2.6355,-0.21848 0.071,0.0102 0.6849,0.0782 0.7346,0.16753 0.5818,1.04595 -0.1332,1.01749 -0.839,1.12075 -0.8873,0.003 -1.7746,0.009 -2.6619,-3.1e-4 -0.8626,-0.018 -1.7391,-0.0317 -2.5705,-0.28993 -0.7218,-0.28397 -1.3335,-0.74181 -1.9476,-1.20942 -0.7783,-0.62711 -1.1813,-1.42557 -0.8656,-2.43004 0.22,-0.71021 0.4404,-1.46111 0.8908,-2.0584 0.551,-0.53514 1.1727,-1.00344 1.8622,-1.34633 1.0038,-0.5331 2.0478,-0.99888 3.1124,-1.39651 0.6017,-0.17191 0.8448,0.679 0.2432,0.85091 z"
       inkscape:connector-curvature="0" />
    <path
       style="fill:#b9af38;fill-opacity:1;stroke:none"
       id="path3544"
       d="m 40.768141,992.96539 c -2e-4,1.17752 -0.05,2.35002 0.1213,3.51744 0.094,0.89014 0.3725,1.74015 0.5502,2.61402 0.1646,0.89139 0.1922,1.79895 0.2106,2.70275 0.051,0.8477 -0.068,1.709 0.055,2.5505 0.25,0.5643 0.6683,0.9999 0.9302,1.5626 0.4257,0.5931 0.5178,1.3106 0.7383,1.9831 0.277,0.6859 0.2066,1.3733 -0.021,2.0563 -0.2567,0.5981 -0.231,1.1702 -0.1419,1.7944 0.1573,0.8488 -0.036,1.6712 -0.4358,2.4202 -0.2917,0.6095 -0.8489,1.0221 -1.2058,1.5829 -0.2387,0.5047 -0.082,1.098 -0.031,1.6342 0.082,0.7758 -0.3349,1.4578 -0.3963,2.2086 0.084,0.4678 0.3235,0.6015 0.7509,0.7304 0.9188,0.341 1.3178,0.8353 0.7777,1.7645 -0.4074,0.5851 -1.0188,0.9313 -1.5547,1.3766 -0.4794,0.4738 -1.2993,0.6588 -1.6155,1.2815 0.1433,0.419 0.5173,0.7254 0.8057,1.0529 0.5543,0.5732 1.211,1.0238 1.9328,1.357 0.7803,0.3224 1.4962,0.778 2.2993,1.0429 0.8154,0.1811 1.4556,0.1518 1.9059,0.9419 0.1614,0.6999 -0.3262,1.2188 -0.5489,1.8382 -0.2015,0.7038 -0.4341,1.4058 -0.8205,2.0303 -0.5239,0.6674 -1.2842,1.067 -1.9293,1.5979 -0.5,0.4181 -1.1577,0.6336 -1.5729,1.1479 -0.09,0.2369 0.4733,0.5312 0.6543,0.6537 0.727,0.5535 1.0528,1.1286 0.6023,1.9841 -0.3447,0.4986 -0.8976,0.7928 -1.2461,1.2854 -0.4025,0.4208 -0.6314,0.8737 -0.5994,1.4547 0.1355,0.765 0.1504,1.4348 -0.1772,2.1488 -0.3709,0.6919 -0.9653,1.0115 -1.6266,1.3633 -0.7057,0.2699 -0.6487,0.7087 -0.5296,0.03 0.8155,0.1787 1.627,0.3581 2.4567,0.4626 1.0371,0.09 2.055,0.3162 3.0889,0.4388 0.8355,0.053 1.6438,0.2798 2.4135,0.5981 0.6682,0.2759 1.3893,0.3334 2.1027,0.3769 0.8632,0.037 1.7275,0.033 2.5913,0.032 -0.3695,0.3614 0.4664,-0.1809 0.3696,-0.098 -0.055,0.047 -0.1658,0.049 -0.183,0.1196 -0.1297,0.5337 0.2505,0.5594 -0.25,0.4918 -0.7995,-0.1435 -1.5567,-0.4163 -2.3272,-0.6616 -0.3614,-0.1111 -0.7353,-0.1614 -1.1085,-0.2116 -0.6201,-0.084 -0.5007,-0.9613 0.1194,-0.8768 l 0,0 c 0.4238,0.058 0.8482,0.1175 1.2582,0.2454 0.7254,0.2321 1.4363,0.4913 2.1888,0.6294 1.4202,0.2259 1.1071,1.2012 -0.066,1.2467 -0.8823,9e-4 -1.7651,0.01 -2.6467,-0.033 -0.8111,-0.05 -1.6283,-0.1265 -2.3867,-0.4425 -0.695,-0.288 -1.4238,-0.4936 -2.1795,-0.537 -1.0361,-0.1235 -2.0564,-0.3483 -3.0955,-0.4397 -0.8991,-0.1143 -1.7799,-0.3049 -2.6612,-0.5137 -0.149,-0.088 -0.3424,-0.1264 -0.4468,-0.2644 -0.4968,-0.6563 0.4072,-1.1717 0.8788,-1.3747 0.4957,-0.2602 0.9397,-0.4438 1.2378,-0.9547 0.3036,-0.6374 0.174,-1.0519 0.095,-1.7447 -0.016,-0.778 0.2312,-1.443 0.7737,-2.013 0.3588,-0.4677 0.8313,-0.8045 1.2169,-1.2438 0.352,-0.104 -0.217,-0.7252 -0.367,-0.7701 -0.6746,-0.4754 -1.3724,-1.093 -0.8191,-1.9606 0.48,-0.5318 1.1006,-0.8494 1.6827,-1.2545 0.5768,-0.4663 1.232,-0.838 1.74,-1.3843 0.3658,-0.5633 0.5411,-1.2268 0.7384,-1.8636 0.1428,-0.3809 0.3347,-0.8581 0.5763,-1.1606 0.043,-0.3888 -1.1654,-0.3368 -1.3841,-0.4746 -0.8335,-0.2829 -1.5854,-0.7351 -2.3933,-1.0805 -0.8288,-0.3923 -1.5896,-0.9052 -2.2226,-1.5747 -0.5435,-0.6208 -1.1845,-1.1909 -0.8958,-2.0983 0.4495,-0.6811 1.163,-1.0256 1.8065,-1.5019 0.4617,-0.3804 0.9828,-0.6742 1.3594,-1.1489 0.036,-0.058 0.055,-0.1303 0.1083,-0.1733 0.036,-0.029 0.1281,0.1011 0.1295,0.054 0.01,-0.1848 -0.445,-0.2998 -0.5345,-0.3513 -0.8055,-0.2822 -1.3106,-0.7609 -1.3535,-1.653 0.072,-0.7018 0.3995,-1.3305 0.3962,-2.0434 -0.07,-0.7485 -0.2285,-1.5167 0.1732,-2.2033 0.3603,-0.5351 0.8611,-0.956 1.1714,-1.5258 0.3331,-0.5655 0.4511,-1.2186 0.3333,-1.8664 -0.1069,-0.7569 -0.1176,-1.478 0.1794,-2.2011 0.1725,-0.5064 0.238,-0.9944 0.017,-1.5049 -0.2015,-0.6453 -0.298,-1.3195 -0.7012,-1.8867 -0.2799,-0.6408 -0.8493,-1.1044 -1.0014,-1.8107 -0.1096,-0.8784 -0.029,-1.7663 -0.062,-2.6499 -0.017,-0.8508 -0.041,-1.7054 -0.1931,-2.54494 -0.1796,-0.88992 -0.4654,-1.75562 -0.5586,-2.66237 -0.1748,-1.21024 -0.1359,-2.42439 -0.1306,-3.64487 0,-0.62576 0.885,-0.62576 0.885,0 z"
       inkscape:connector-curvature="0" />
    <path
       style="fill:#a05a2c;fill-opacity:1;stroke:none"
       d="m 47.203706,776.08789 c -2.125883,0.60451 -6.025154,-0.64086 -6.851447,1.57067 0.106771,17.97481 1.248993,35.97033 0.50224,53.93528 -2.68992,13.23764 -3.681582,27.17783 -0.49763,40.48027 0.992543,4.80149 2.328405,9.91063 6.020117,13.33918 3.519549,4.63735 6.009593,11.09414 2.943122,16.58399 -2.327822,5.85824 -7.692616,12.20821 -4.571218,18.78058 1.533034,4.32226 5.53824,7.62591 5.030461,12.56781 0.393166,2.02098 -0.319353,4.58586 0.896577,6.31695 1.82154,-0.27714 0.913965,-3.51514 1.471561,-4.82804 0.741494,-11.81187 1.663261,-23.64746 2.414025,-35.4332 -0.298706,-25.9673 -0.534269,-51.95891 -1.884925,-77.89352 -1.481365,-14.99066 -1.537965,-30.12215 -2.992725,-45.08928 -0.577859,-0.66935 -1.718272,-0.2239 -2.480158,-0.33069 z"
       id="path2995"
       inkscape:connector-curvature="0" />
  </g>
</svg>
