<?xml version="1.0" encoding="UTF-8" standalone="no"?>
<!-- Created with Inkscape (http://www.inkscape.org/) -->

<svg
   xmlns:dc="http://purl.org/dc/elements/1.1/"
   xmlns:cc="http://creativecommons.org/ns#"
   xmlns:rdf="http://www.w3.org/1999/02/22-rdf-syntax-ns#"
   xmlns:svg="http://www.w3.org/2000/svg"
   xmlns="http://www.w3.org/2000/svg"
   xmlns:sodipodi="http://sodipodi.sourceforge.net/DTD/sodipodi-0.dtd"
   xmlns:inkscape="http://www.inkscape.org/namespaces/inkscape"
   width="70"
   height="600"
   id="svg2"
   version="1.1"
   inkscape:version="0.48.5 r10040"
   sodipodi:docname="house6Tree.svg"
   inkscape:export-filename="C:\Users\narfman0\Desktop\house6Tree.png"
   inkscape:export-xdpi="90"
   inkscape:export-ydpi="90">
  <defs
     id="defs4" />
  <sodipodi:namedview
     id="base"
     pagecolor="#ffffff"
     bordercolor="#666666"
     borderopacity="1.0"
     inkscape:pageopacity="0.0"
     inkscape:pageshadow="2"
     inkscape:zoom="2.34"
     inkscape:cx="-24.906795"
     inkscape:cy="73.011143"
     inkscape:document-units="px"
     inkscape:current-layer="layer1"
     showgrid="false"
     inkscape:window-width="1056"
     inkscape:window-height="924"
     inkscape:window-x="263"
     inkscape:window-y="72"
     inkscape:window-maximized="0" />
  <metadata
     id="metadata7">
    <rdf:RDF>
      <cc:Work
         rdf:about="">
        <dc:format>image/svg+xml</dc:format>
        <dc:type
           rdf:resource="http://purl.org/dc/dcmitype/StillImage" />
        <dc:title />
      </cc:Work>
    </rdf:RDF>
  </metadata>
  <g
     inkscape:label="Layer 1"
     inkscape:groupmode="layer"
     id="layer1"
     transform="translate(0,-452.36218)">
    <path
       style="fill:#7f4c28;fill-opacity:1;stroke:none"
       d="m 44.780441,458.71354 c -2.266656,12.2742 -0.139219,-0.47886 -2.686369,11.03506 -3.294871,-4.27483 -9.047564,2.47197 -12.408841,-1.29968 -2.412454,3.49864 -8.629494,-1.67935 -10.220585,3.9962 -0.876966,298.38734 -9.9833236,498.6881 -7.80944,541.50008 -0.19496,7.5668 9.762841,6.1676 11.90937,10.0774 4.447379,5.5684 9.335124,5.9825 14.346266,6.1019 5.835183,1.2982 3.348845,-1.7664 9.036942,0.5648 4.55581,5.768 8.748067,13.8122 13.51628,18.0614 1.763152,-5.3683 -3.746997,-340.97779 -3.322588,-347.26293 -4.974272,-191.11914 -1.701995,-53.30855 -6.800854,-244.41078 -3.004303,3.84073 -5.294454,1.03041 -5.560181,1.63655 z"
       id="path3642"
       inkscape:connector-curvature="0"
       sodipodi:nodetypes="cccccccccccc" />
    <path
       style="fill:#000000;fill-opacity:1;stroke:none"
       id="path3601-4"
       d="m 19.442371,469.9331 c 0,3.67691 0,7.35386 0,11.03077 0,2.90225 0,5.80446 0,8.70666 0.0097,2.86801 0.01792,5.70417 -0.08837,8.53853 -0.112794,2.43378 -0.161536,4.90546 -0.188826,7.38297 -0.02202,2.58699 -0.02048,5.17635 -0.02099,7.76476 4.1e-4,2.63311 0,5.26624 0,7.89936 4.1e-4,2.63391 4.1e-4,5.26783 4.61e-4,7.90175 0,2.63327 0,5.26655 0,7.89984 0,2.6332 0,5.26643 0,7.89963 0,2.63325 0,5.26648 0,7.89971 0,2.63324 0,5.26647 0,7.8997 0,2.63323 0,5.26647 0,7.89972 0,2.63321 0,5.26646 0,7.89968 0,2.68572 0,5.37145 0,8.0572 0,2.97021 0,5.94044 0,8.91067 0,2.68553 0,5.37105 0,8.05656 0,2.63128 0,5.26256 0,7.89382 0,2.6323 0,5.26459 0,7.89689 0,2.89756 0,5.79512 0,8.69266 0,2.80195 0,5.6039 0,8.40583 0,2.6414 0,5.28283 0,7.92424 0,2.63111 0,5.26221 0,7.89332 0.03942,2.86955 -0.02714,5.66718 -0.138496,8.48522 -0.08873,2.5421 -0.124006,5.08919 -0.237773,7.61378 -0.12503,2.51874 -0.171622,5.08813 -0.198758,7.65843 -0.02202,2.81077 -0.01946,5.62387 -0.01946,8.43589 5.12e-4,2.85886 0,5.71771 0,8.57657 0.0072,2.73167 -0.14208,5.4095 -0.216218,8.11255 -0.06308,2.57268 -0.07214,5.16247 -0.0788,7.74762 0,2.70733 -0.145561,5.36075 -0.218368,8.04165 -0.01997,2.69086 -0.164249,5.30321 -0.259686,7.95032 -0.09067,2.86943 -0.100967,5.77403 -0.111719,8.66672 0.0051,2.91131 0.01126,5.78963 -0.09236,8.66923 -0.110541,2.50193 -0.160103,5.03863 -0.187597,7.58153 -0.03174,2.65025 0.0092,5.30788 -0.05822,7.94571 -0.129229,3.10707 -0.159079,6.26965 -0.262144,9.38912 -0.128,2.94176 -0.214375,5.90747 -0.259533,8.89576 -0.03277,2.68512 -0.03226,5.37527 -0.03328,8.06349 3.07e-4,3.54791 0,7.09581 0,10.64372 5.12e-4,3.49062 5.12e-4,6.98124 5.12e-4,10.47188 5.1e-5,2.98779 5.1e-5,5.97558 5.1e-5,8.96339 -0.0072,3.02692 -0.150733,6.01031 -0.215859,9.02242 -0.06298,3.40658 -0.07234,6.82693 -0.07962,10.24308 0,3.13837 0.0297,6.25468 -0.09042,9.35607 -0.113818,2.34527 -0.160768,4.73133 -0.187341,7.12264 -0.09984,2.61405 -0.208435,5.2117 -0.264397,7.8538 -0.04608,2.58978 -0.04864,5.18922 -0.05192,7.78546 0.0425,2.73422 -0.09124,5.40184 -0.180736,8.08783 -0.06846,2.65952 -0.0897,5.30995 -0.198861,7.94575 -0.081,2.67559 -0.206438,5.2997 -0.333721,7.93705 -0.144947,2.76088 -0.278016,5.53683 -0.423066,8.29905 -0.171622,2.80017 -0.262502,5.66581 -0.31104,8.55401 -0.09661,2.32908 -0.201369,4.64197 -0.377395,6.87819 -0.131994,2.2061 -0.253184,4.42872 -0.369766,6.65524 -0.08279,2.60956 -0.242893,5.14726 -0.347597,7.739 -0.09395,2.34708 -0.213965,4.72702 -0.384051,6.99277 -0.203828,1.98651 -0.22697,4.17332 -0.339712,6.26273 -0.155239,2.111 -0.217959,4.30128 -0.25472,6.50569 -0.01946,2.33309 -0.176538,4.57872 -0.249191,6.8854 -0.02458,2.56678 -0.112333,5.07438 -0.214733,7.59858 -0.102912,2.54241 -0.131225,5.12401 -0.148684,7.70083 -0.0128,2.62077 -0.01075,5.24247 -0.01024,7.86369 0,2.63352 0,5.26705 0,7.90057 2.56e-4,2.63356 2.56e-4,5.26684 2.56e-4,7.90038 0,2.63329 0,5.26636 0,7.89972 0,2.6333 0,5.2663 0,7.8996 -0.05192,2.3493 0.0832,4.5908 0.173772,6.8789 0.0725,1.8338 -0.510464,2.2895 -0.582963,0.4557 l 0,0 c -0.096,-2.4352 -0.234803,-4.8359 -0.182733,-7.3346 0,-2.6333 0,-5.2663 0,-7.8996 0,-2.63336 0,-5.26643 0,-7.89972 0,-2.63308 0,-5.26592 -2.56e-4,-7.899 -3.07e-4,-2.63307 0,-5.26637 0,-7.89968 0,-2.64856 -0.0051,-5.29759 0.01075,-7.94592 0.01843,-2.70663 0.04915,-5.41829 0.15785,-8.08849 0.10112,-2.49254 0.186317,-4.96369 0.211149,-7.49882 0.07178,-2.25019 0.222208,-4.44205 0.244992,-6.7141 0.03994,-2.35042 0.106547,-4.68919 0.270438,-6.94208 0.124672,-2.15093 0.136243,-4.43619 0.354355,-6.48381 0.169216,-2.12073 0.268032,-4.40135 0.361472,-6.60601 0.107162,-2.63553 0.268186,-5.21713 0.35369,-7.87031 0.121856,-2.31827 0.24663,-4.63432 0.387584,-6.92801 0.159386,-2.01986 0.250982,-4.1056 0.345702,-6.20441 0.05146,-3.02401 0.146125,-6.02571 0.325069,-8.95853 0.145715,-2.74401 0.276634,-5.50588 0.420608,-8.2501 0.126311,-2.61288 0.250727,-5.21056 0.330343,-7.8623 0.108492,-2.60388 0.123084,-5.22706 0.19543,-7.85378 0.08561,-2.56406 0.216934,-5.10463 0.174336,-7.7152 0.0051,-2.67448 0.0066,-5.35233 0.05453,-8.01997 0.05566,-2.60206 0.154624,-5.16828 0.262502,-7.7364 0.02816,-2.49858 0.07726,-4.99218 0.195431,-7.44329 0.116941,-2.95706 0.0747,-5.93608 0.08166,-8.92949 0.0077,-3.49231 0.01741,-6.9889 0.08228,-10.47126 0.06385,-2.92812 0.201523,-5.82968 0.213146,-8.7693 0,-2.98773 0,-5.97546 -5.1e-5,-8.96319 -5.2e-5,-3.49 -1.03e-4,-6.98003 -5.12e-4,-10.47007 -5.12e-4,-3.54979 0,-7.09958 0,-10.6494 0,-2.74613 5.12e-4,-5.49427 0.03482,-8.23716 0.04659,-3.05849 0.133427,-6.09545 0.264652,-9.10641 0.105165,-3.09233 0.12882,-6.23488 0.259892,-9.31539 0.07394,-2.56876 0.01382,-5.17557 0.05474,-7.75843 0.02867,-2.64077 0.08023,-5.27552 0.194457,-7.87424 0.100711,-2.75337 0.08504,-5.50832 0.08489,-8.29313 0.01126,-3.01796 0.02304,-6.04809 0.119142,-9.04095 0.09462,-2.61409 0.237568,-5.19136 0.256461,-7.84913 0.07061,-2.58603 0.211302,-5.14644 0.214118,-7.75523 0.0072,-2.68192 0.0169,-5.36853 0.0831,-8.03716 0.07163,-2.59648 0.214528,-5.16981 0.211866,-7.79088 -4.61e-4,-2.85942 0,-5.71884 0,-8.57826 -5.2e-5,-2.85349 -0.0051,-5.70812 0.01997,-8.56029 0.02867,-2.70264 0.07874,-5.40397 0.209715,-8.0527 0.113203,-2.50294 0.143309,-5.03275 0.23511,-7.55223 0.105728,-2.66878 0.169421,-5.30869 0.129536,-8.0283 0,-2.63111 0,-5.26221 0,-7.89332 0,-2.64141 0,-5.28284 0,-7.92424 0,-2.80193 0,-5.60388 0,-8.40583 0,-2.89754 0,-5.7951 0,-8.69266 0,-2.6323 0,-5.26459 0,-7.89689 0,-2.63126 0,-5.26254 0,-7.89382 0,-2.68551 0,-5.37103 0,-8.05656 0,-2.97023 0,-5.94046 0,-8.91067 0,-2.68575 0,-5.37148 0,-8.0572 0,-2.63322 0,-5.26647 0,-7.89968 0,-2.63325 0,-5.26649 0,-7.89972 0,-2.63323 0,-5.26646 0,-7.8997 0,-2.63323 0,-5.26646 0,-7.89971 0,-2.63321 0,-5.26643 0,-7.89966 0,-2.63324 0,-5.26644 0,-7.89968 -5.1e-5,-2.63332 -5.1e-5,-5.26667 -4.09e-4,-7.89999 -4.61e-4,-2.63415 0,-5.26829 0,-7.90243 2.56e-4,-2.63117 0,-5.26335 0.0215,-7.89305 0.02867,-2.58039 0.07946,-5.15515 0.196249,-7.69055 0.102605,-2.68787 0.08643,-5.38051 0.08018,-8.10148 0,-2.9022 0,-5.80441 0,-8.70666 0,-3.67691 0,-7.35386 0,-11.03077 0,-1.86199 0.591924,-1.86199 0.591924,0 z"
       inkscape:connector-curvature="0" />
    <path
       style="fill:#000000;fill-opacity:1;stroke:none"
       id="path3603-0"
       d="m 30.119364,471.70571 c 0,3.64635 0,7.29271 0,10.93908 0,2.87808 0,5.75616 0,8.63424 0,2.61203 0,5.22408 0,7.83613 0,2.86937 0,5.73873 0,8.60812 0,3.09375 0,6.1875 0,9.28125 0,2.73853 0,5.4771 0,8.21563 0,2.61185 0,5.22369 0,7.83552 0.01894,2.55546 -0.04045,5.13292 0.03328,7.67302 0.115609,2.66762 0.190822,5.3556 0.228761,8.06494 -0.0097,2.94088 0.06139,5.81502 0.166144,8.71085 0.103936,2.74976 0.137063,5.53373 0.15442,8.31583 0.0128,2.95542 0.01178,5.91157 0.01126,8.86739 -5.12e-4,2.66222 0,5.32439 0,7.9866 -2.56e-4,2.60915 -2.56e-4,5.21829 -2.56e-4,7.82744 0,2.66245 0,5.32491 0,7.98739 0.0092,3.1048 0.01894,6.18081 -0.08771,9.25485 -0.05939,2.50864 -0.187648,4.92376 -0.332902,7.35452 -0.136858,2.24405 -0.115508,4.58264 -0.203623,6.85571 -0.131174,2.17712 -0.196966,4.39935 -0.233421,6.64104 -0.07542,2.70831 -0.261376,5.30016 -0.418611,7.92608 -0.11392,2.70935 -0.279449,5.36155 -0.377549,8.08481 -0.08335,2.90806 -0.25006,5.74618 -0.337868,8.65363 -0.06846,2.3736 -0.17961,4.78148 -0.346266,7.06328 -0.184781,2.33046 -0.251341,4.77855 -0.294042,7.22577 -0.129843,2.8804 -0.223692,5.77681 -0.278169,8.7035 -0.127847,3.56993 -0.233984,7.1483 -0.382823,10.70269 -0.147712,3.536 -0.209664,7.11886 -0.241664,10.70618 -0.0215,2.99341 -0.02048,5.98863 -0.01997,8.98316 0,2.68806 0,5.37612 0,8.06418 4.61e-4,3.32725 4.61e-4,6.65449 4.61e-4,9.98174 0,3.37514 0,6.75023 0,10.12538 -0.01946,2.47635 0.135936,4.88546 0.211712,7.32537 0.02458,2.51195 0.111053,4.95906 0.212941,7.42749 0.109107,2.64439 0.139981,5.33029 0.158566,8.01128 -0.02918,2.39591 0.03226,4.69287 0.138906,7.02961 0.130662,2.30661 0.08786,4.71856 0.187034,7.03606 0.1515,2.13419 0.152678,4.40309 0.271052,6.55798 0.105524,2.17884 0.266701,4.27798 0.393114,6.43159 0.130048,2.62691 0.156979,5.30284 0.273971,7.9392 0.129075,2.65799 0.178995,5.36565 0.207463,8.07506 0.107008,2.22021 0.20654,4.43361 0.259993,6.69319 0.139469,2.1395 0.239207,4.30197 0.295015,6.51371 0.05171,2.56987 0.0531,5.15232 0.05591,7.73017 -0.04301,2.58977 0.08842,5.11051 0.173926,7.65436 0.08499,2.65153 0.104038,5.33017 0.115968,8.00374 0.0082,2.62024 0.0062,5.24079 0.0056,7.86119 0,2.61101 0,5.22203 0,7.83303 -2.05e-4,2.61119 -1.54e-4,5.22237 -2.05e-4,7.83355 0.03072,2.76756 -0.0637,5.50504 -0.223795,8.17331 -0.180326,2.56601 -0.274739,5.21534 -0.424192,7.81567 -0.114074,2.51871 -0.198758,5.01465 -0.415334,7.41191 -0.247706,2.14743 -0.289844,4.54908 -0.421018,6.84284 -0.127027,2.26922 -0.274842,4.511 -0.405555,6.77634 -0.09938,2.82988 -0.264653,5.58532 -0.44969,8.32666 -0.148889,2.81909 -0.354509,5.57118 -0.487936,8.40643 -0.0771,2.3578 -0.242329,4.63719 -0.454809,6.81915 -0.170804,1.97118 -0.215962,4.06902 -0.34729,6.09288 -0.12841,2.14742 -0.166093,4.34314 -0.296499,6.48911 -0.107367,2.30145 -0.277863,4.52633 -0.385024,6.82861 -0.0425,2.37085 -0.206746,4.63213 -0.310631,6.95374 -0.07823,2.3435 -0.08581,4.68409 -0.202956,7.00095 -0.126055,2.20687 -0.164608,4.47515 -0.189389,6.73984 0.02202,2.66381 -0.112179,5.25895 -0.200807,7.87623 -0.03891,2.66245 -0.191232,5.24336 -0.291072,7.86584 -0.08837,2.52896 -0.104038,5.08976 -0.11479,7.64336 -0.08136,2.29697 -0.19456,4.55691 -0.24791,6.87353 -0.0062,2.59763 -0.08909,5.13157 -0.190157,7.6838 -0.03942,2.42936 -0.219136,4.72726 -0.33193,7.09426 -0.09666,2.3385 -0.107878,4.7213 -0.118221,7.0913 -0.04864,2.5648 0.02918,5.0491 0.126055,7.5663 0.05494,1.9408 0.218368,3.7699 0.319129,5.67 0.09482,1.7986 -0.48174,2.3901 -0.576512,0.5916 l 0,0 c -0.102195,-1.9518 -0.272896,-3.8285 -0.326195,-5.8252 -0.102809,-2.676 -0.182477,-5.329 -0.134297,-8.0534 0.01126,-2.5344 0.02509,-5.0818 0.130918,-7.5808 0.11264,-2.3375 0.289024,-4.6038 0.327987,-7.00355 0.09871,-2.49307 0.179303,-4.96148 0.184423,-7.49994 0.05233,-2.24344 0.150169,-4.44307 0.244889,-6.65647 0.01126,-2.68256 0.02918,-5.37257 0.122931,-8.02847 0.09979,-2.60712 0.250778,-5.17132 0.289332,-7.81842 0.08602,-2.53256 0.217702,-5.03872 0.19502,-7.61668 0.02662,-2.41422 0.06942,-4.83181 0.203008,-7.18485 0.117351,-2.29222 0.112077,-4.62151 0.199936,-6.93793 0.10537,-2.3286 0.268186,-4.59485 0.311552,-6.97337 0.110746,-2.3519 0.28201,-4.62753 0.393114,-6.9782 0.131789,-2.157 0.161741,-4.3768 0.29911,-6.5309 0.138394,-2.12683 0.179661,-4.34581 0.37248,-6.40409 0.197069,-2.02246 0.350157,-4.1328 0.419175,-6.32161 0.138035,-2.90568 0.345753,-5.72991 0.50007,-8.6183 0.182887,-2.70924 0.344423,-5.43117 0.443443,-8.22724 0.131533,-2.26728 0.279296,-4.5109 0.405965,-6.78333 0.144179,-2.39423 0.180429,-4.92684 0.445543,-7.17034 0.213248,-2.27628 0.269619,-4.68387 0.390195,-7.07354 0.150169,-2.61226 0.244429,-5.27496 0.426342,-7.85235 0.151962,-2.4429 0.231219,-4.95843 0.20352,-7.49471 0,-2.61149 0,-5.22299 1.54e-4,-7.83449 2.05e-4,-2.61163 5.12e-4,-5.22323 0,-7.83486 5.12e-4,-2.6024 0,-5.20495 -0.0056,-7.80718 -0.01126,-2.56268 -0.02867,-5.13053 -0.109671,-7.67246 -0.08934,-2.66485 -0.22318,-5.3117 -0.180275,-8.02422 0,-2.48644 -0.0051,-4.97725 -0.05238,-7.45636 -0.05499,-2.22046 -0.167629,-4.3718 -0.295424,-6.53083 -0.05386,-2.31068 -0.167424,-4.56122 -0.262553,-6.84227 -0.02662,-2.58173 -0.07362,-5.16199 -0.197069,-7.69441 -0.114432,-2.58707 -0.146739,-5.20608 -0.26624,-7.78824 -0.126413,-2.17513 -0.289946,-4.29661 -0.396647,-6.49551 -0.111667,-2.21168 -0.131635,-4.50147 -0.277145,-6.6893 -0.08863,-2.31063 -0.0681,-4.67934 -0.184576,-6.97815 -0.112845,-2.47779 -0.178432,-4.92757 -0.150221,-7.46465 -0.01741,-2.55079 -0.04557,-5.1067 -0.149248,-7.62293 -0.103373,-2.50503 -0.192307,-4.99373 -0.217037,-7.5421 -0.0788,-2.5568 -0.24151,-5.08068 -0.21719,-7.67863 0,-3.37508 0,-6.75017 0,-10.12526 0,-3.32661 0,-6.6532 -4.61e-4,-9.97978 -4.61e-4,-2.68807 0,-5.37616 0,-8.06425 0,-3.02952 0,-6.05978 0.02048,-9.08819 0.03328,-3.7119 0.0981,-7.41902 0.251085,-11.07765 0.145305,-3.46855 0.247859,-6.9605 0.374937,-10.44268 0.05478,-2.92131 0.142746,-5.81956 0.277914,-8.691 0.0471,-2.65791 0.122163,-5.31483 0.322406,-7.84599 0.164711,-2.10703 0.252365,-4.38805 0.321383,-6.58754 0.08924,-2.92905 0.254515,-5.79014 0.34007,-8.71884 0.102093,-2.80905 0.270336,-5.54745 0.389837,-8.34107 0.148326,-2.46949 0.323635,-4.90353 0.400435,-7.4464 0.0384,-2.33195 0.104807,-4.64809 0.241152,-6.91329 0.100352,-2.32967 0.05719,-4.76323 0.213965,-7.06154 0.140288,-2.34304 0.264704,-4.66465 0.320205,-7.08579 0.103475,-2.94086 0.08719,-5.88597 0.08079,-8.85719 0,-2.6625 0,-5.32497 0,-7.98747 0,-2.60958 5.2e-5,-5.21918 3.08e-4,-7.82876 3.07e-4,-2.66231 0,-5.32466 0,-7.98697 4.09e-4,-2.93142 0,-5.86314 -0.01075,-8.79415 -0.01638,-2.66819 -0.04762,-5.33846 -0.147252,-7.9757 -0.107776,-2.97797 -0.181606,-5.93941 -0.172441,-8.96248 -0.03686,-2.65973 -0.113562,-5.29544 -0.225741,-7.91467 -0.06799,-2.64987 -0.02714,-5.31974 -0.03738,-7.98328 0,-2.61183 0,-5.22367 0,-7.83552 0,-2.73853 0,-5.4771 0,-8.21563 0,-3.09375 0,-6.1875 0,-9.28125 0,-2.86939 0,-5.73875 0,-8.60812 0,-2.61205 0,-5.2241 0,-7.83613 0,-2.87808 0,-5.75616 0,-8.63424 0,-3.64637 0,-7.29273 0,-10.93908 0,-1.84651 0.591923,-1.84651 0.591923,0 z"
       inkscape:connector-curvature="0" />
    <path
       style="fill:#000000;fill-opacity:1;stroke:none"
       id="path3605-7"
       d="m 43.022074,469.96034 c 0,4.08839 0,8.17677 0,12.26515 0,3.0093 0,6.01861 0,9.02791 0,3.04681 0,6.09362 0,9.14043 0,2.75975 0,5.5195 0,8.27924 0,2.6813 0,5.36259 0,8.04388 0,2.95006 0,5.90016 0,8.85021 -0.0092,2.80487 -0.01894,5.57557 0.08049,8.34716 0.07701,2.83601 0.210381,5.61652 0.325376,8.42285 0.140493,2.95203 0.112538,5.99482 0.210688,8.96458 0.123341,2.72215 0.198298,5.47349 0.239667,8.24379 0.03328,2.75955 0.03277,5.52425 0.03379,8.28699 1.03e-4,3.0258 0,6.05164 0,9.07744 -0.01075,2.61099 -0.01894,5.18108 0.07936,7.75552 0.117709,2.75952 0.167373,5.55964 0.196506,8.36264 0.02202,2.72178 0.0215,5.44591 0.0215,8.1691 -4.1e-4,2.68308 0,5.36618 0,8.04925 -3.59e-4,2.6815 -4.1e-4,5.36299 -4.1e-4,8.04449 -5.1e-5,2.68201 -5.1e-5,5.36403 0,8.04606 0.04096,2.79664 -0.03635,5.52077 -0.138137,8.26859 -0.09948,2.5992 -0.129895,5.23434 -0.148224,7.8663 -0.01382,2.66717 -0.01178,5.33529 -0.01178,8.00296 0,2.88456 0,5.76912 0,8.65371 2.56e-4,2.91209 3.07e-4,5.82417 3.07e-4,8.73624 0,2.69976 0,5.39949 0,8.09925 0,3.00231 0,6.00465 0,9.00698 0,3.19672 0,6.39342 0,9.59014 0,3.06761 0,6.13522 0,9.20286 0,2.80019 0,5.6004 0,8.40061 0,2.68352 0,5.36703 0,8.05057 0,2.68031 0,5.36063 0,8.04096 0,2.68194 0,5.36388 0,8.04582 0.0077,3.03443 0.147149,6.02813 0.213043,9.04707 0.0077,3.22208 0.15017,6.36482 0.257229,9.53562 0.08878,3.09775 0.10711,6.22364 0.118886,9.34311 0.0072,2.76367 0.0051,5.5276 0.0051,8.29138 0,2.68049 0,5.36096 0,8.04143 -1.53e-4,3.0467 -1.53e-4,6.09337 -1.53e-4,9.14006 0,2.76487 0,5.52975 0,8.29467 0.09656,3.27639 0.186265,6.55228 0.24151,9.84934 0.04506,2.96217 0.05186,5.93194 0.0557,8.89982 0.0051,3.35522 0.13911,6.67811 0.212685,10.01394 0.06246,3.33583 0.0747,6.68474 0.08151,10.03057 0.0051,3.317 0,6.63404 0,9.95106 0.02202,2.90587 -0.04608,5.8394 0.03226,8.72966 0.127795,2.9533 0.193127,5.93706 0.228711,8.93868 0.0072,2.92981 0.165888,5.78803 0.247756,8.6849 0.06722,2.67093 0.07567,5.36139 0.08202,8.04639 -0.0077,2.63118 -0.0128,5.22368 0.08151,7.82231 0.114944,2.70685 0.165939,5.45117 0.194919,8.20045 0.02355,2.8827 0.0215,5.76797 0.0215,8.65213 -3.08e-4,3.31657 0,6.63318 0,9.94976 -3.59e-4,3.0911 -3.59e-4,6.18217 -4.1e-4,9.27325 0,2.79982 0,5.59964 0,8.39945 0,3.04915 0,6.0982 0,9.14737 0,2.76312 0,5.52646 0,8.28957 -0.07419,2.73042 -0.18688,5.42882 -0.24361,8.17012 -0.04659,2.63599 -0.05018,5.28193 -0.05361,7.92464 0.01434,2.45432 -0.143616,4.83209 -0.216883,7.24976 -0.06451,2.49237 -0.07102,5.00492 -0.07736,7.51121 -0.0051,2.67379 -0.0051,5.34759 0,8.02138 5.12e-4,2.68424 0,5.36847 0,8.0527 1.54e-4,2.68218 1.03e-4,5.36448 1.03e-4,8.04698 0,2.6821 0,5.364 0,8.0461 0,2.6822 0,5.3641 0,8.0462 0,2.6822 0,5.3641 0,8.0463 0,1.3409 0,2.6821 0,4.023 0,1.8966 -0.591924,1.8966 -0.591924,0 l 0,0 c 0,-1.3409 0,-2.6821 0,-4.023 0,-2.6822 0,-5.3641 0,-8.0463 0,-2.6821 0,-5.364 0,-8.0462 0,-2.6821 5.2e-5,-5.364 5.2e-5,-8.0461 0,-2.6822 0,-5.36439 -1.03e-4,-8.04651 -1.53e-4,-2.68331 -4.09e-4,-5.36662 0,-8.05015 -5.12e-4,-2.68492 0,-5.3701 0,-8.05502 0.0066,-2.61882 0.01434,-5.24412 0.08284,-7.84762 0.0705,-2.30166 0.219801,-4.56644 0.211353,-6.89874 0.0051,-2.72135 0.0077,-5.44596 0.05617,-8.16011 0.0555,-2.65732 0.155956,-5.2794 0.240999,-7.91864 0,-2.76311 0,-5.52645 0,-8.28957 0,-3.04917 0,-6.09822 0,-9.14735 0,-2.79985 0,-5.59972 0,-8.39959 5.1e-5,-3.09161 1.02e-4,-6.18324 4.61e-4,-9.27484 4.6e-4,-3.31571 0,-6.63142 0,-9.94713 -2.05e-4,-2.84197 0,-5.68505 -0.02099,-8.52562 -0.02765,-2.64678 -0.07659,-5.28859 -0.187802,-7.89413 -0.0983,-2.73412 -0.09984,-5.46065 -0.08929,-8.22747 -0.0062,-2.58102 -0.01382,-5.16742 -0.07726,-7.73528 -0.0832,-2.9621 -0.246323,-5.88433 -0.251699,-8.88146 -0.0343,-2.94724 -0.100915,-5.87374 -0.225638,-8.77385 -0.07266,-3.00025 -0.02253,-6.02585 -0.03635,-9.04018 0,-3.30794 0,-6.61593 0,-9.92386 -0.0066,-3.26511 -0.01843,-6.53321 -0.07864,-9.78877 -0.07522,-3.41914 -0.212839,-6.82452 -0.215604,-10.26481 -0.0051,-2.90552 -0.01024,-5.81289 -0.05402,-8.71287 -0.05611,-3.36489 -0.15406,-6.7035 -0.2432,-10.05187 0,-2.7649 0,-5.5298 0,-8.2947 0,-3.04701 0,-6.09402 1.54e-4,-9.14106 2.56e-4,-2.68132 0,-5.36266 0,-8.04397 0,-2.74731 0,-5.49476 -0.0051,-8.24194 -0.01126,-2.99924 -0.02816,-6.00462 -0.112128,-8.98366 -0.108442,-3.21753 -0.252467,-6.40927 -0.261222,-9.67806 -0.06722,-3.10621 -0.21248,-6.18521 -0.215911,-9.30995 0,-2.68194 0,-5.36388 0,-8.04582 0,-2.68033 0,-5.36065 0,-8.04096 0,-2.68354 0,-5.36705 0,-8.05057 0,-2.80021 0,-5.60042 0,-8.40061 0,-3.06764 0,-6.13525 0,-9.20286 0,-3.19672 0,-6.39342 0,-9.59014 0,-3.00233 0,-6.00468 0,-9.00701 5.1e-5,-2.6997 5.1e-5,-5.39945 5.1e-5,-8.09915 -5.1e-5,-2.91171 -5.1e-5,-5.82338 -3.07e-4,-8.73509 -3.07e-4,-2.88442 0,-5.76888 0,-8.65325 -3.58e-4,-2.69653 0,-5.3935 0.01178,-8.08947 0.01946,-2.75252 0.05202,-5.50799 0.156109,-8.22614 0.09656,-2.60302 0.171878,-5.17252 0.129894,-7.82389 0,-2.68209 0,-5.36415 0,-8.04623 5.2e-5,-2.68209 1.03e-4,-5.36418 4.61e-4,-8.04628 4.1e-4,-2.68204 0,-5.36409 0,-8.04613 -2.56e-4,-2.6817 5.12e-4,-5.36431 -0.02099,-8.04466 -0.02765,-2.69243 -0.07506,-5.38216 -0.188569,-8.03249 -0.103373,-2.72762 -0.101325,-5.44935 -0.08791,-8.21365 5.12e-4,-3.02353 0,-6.04703 0,-9.07058 0,-2.70411 -5.12e-4,-5.41017 -0.03226,-8.11127 -0.03994,-2.70243 -0.114944,-5.38414 -0.234905,-8.03957 -0.09134,-2.94078 -0.07634,-5.93643 -0.2069,-8.85983 -0.115558,-2.82623 -0.249446,-5.62815 -0.327731,-8.48336 -0.103526,-2.91499 -0.100096,-5.82726 -0.08806,-8.77585 0,-2.95005 0,-5.90015 0,-8.85021 0,-2.68129 0,-5.36258 0,-8.04388 0,-2.75974 0,-5.51949 0,-8.27924 0,-3.04681 0,-6.09362 0,-9.14043 0,-3.0093 0,-6.01861 0,-9.02791 0,-4.08838 0,-8.17676 0,-12.26515 0,-1.89653 0.591923,-1.89653 0.591923,0 z"
       inkscape:connector-curvature="0" />
    <path
       style="fill:#000000;fill-opacity:1;stroke:none"
       id="path3607-6"
       d="m 51.465167,458.81803 c -0.114944,3.45859 -0.181401,6.94042 -0.224665,10.42703 -0.03021,2.74961 -0.03328,5.50264 -0.03482,8.2547 -3.59e-4,2.51497 0,5.02997 0,7.54494 4.61e-4,2.51208 5.12e-4,5.02417 5.12e-4,7.53625 5.1e-5,2.5155 0,5.03099 0,7.54649 0.0082,2.03362 0.08356,4.16651 0.235878,6.10281 0.196711,2.43927 0.273357,4.99322 0.32128,7.55036 0.121242,2.16987 0.223539,4.34207 0.278682,6.56117 0.0097,2.75478 0.08545,5.4549 0.184525,8.1732 0.100864,2.66231 0.135321,5.35505 0.15447,8.04661 0.09928,2.54181 0.20137,5.07244 0.252211,7.6419 0.04915,3.05428 0.0512,6.1171 0.05422,9.17701 -0.0092,2.75818 0.136397,5.47093 0.211866,8.2023 0.155801,2.631 0.265318,5.28174 0.323225,7.98233 0.04045,2.79759 0.190413,5.53662 0.27008,8.31777 0.02202,2.55751 0.105677,5.0527 0.211098,7.56701 0.08689,2.25009 0.274586,4.38185 0.367616,6.63356 0.03226,2.23587 0.111104,4.39559 0.223078,6.57951 0.116429,2.34195 0.141415,4.73702 0.158823,7.12187 0.09841,2.46866 0.196557,4.93011 0.251443,7.42458 -0.01178,2.28461 0.132301,4.46333 0.227942,6.68817 0.07998,2.08932 0.246682,4.07857 0.3285,6.17458 0.0641,2.39784 0.06974,4.7857 0.169216,7.16411 0.119756,2.54125 0.168857,5.12276 0.197068,7.70707 -0.01946,2.63658 0.117351,5.20764 0.196096,7.80872 0.175565,3.01128 0.293684,6.05067 0.355687,9.13999 0.01382,3.39166 0.08049,6.73565 0.192153,10.09154 0.09692,2.72324 0.133837,5.47242 0.153191,8.22223 0.01434,2.89764 0.01126,5.79619 0.01075,8.69429 0,2.94667 0,5.89334 0,8.83999 -2.56e-4,2.89657 -2.56e-4,5.79314 -3.07e-4,8.68971 -0.0051,2.56216 0.139468,5.07797 0.212326,7.61527 0.02765,2.84017 0.163482,5.62108 0.258406,8.42795 0.08648,2.66557 0.106804,5.3565 0.118477,8.04318 0.0072,2.86954 0.0051,5.73936 0.0051,8.60902 0.0062,2.75516 0.144231,5.47269 0.211354,8.21358 0.01536,2.54523 0.08842,5.01063 0.210176,7.49596 0.115097,2.35712 0.142131,4.76435 0.16,7.1633 0.01331,2.50991 0.01126,5.02066 0.01075,7.531 -0.04096,2.54899 0.02765,5.02478 0.128051,7.52823 0.104602,2.49575 0.136858,5.02764 0.155955,7.55657 0.01382,2.52017 0.01229,5.04126 0.01178,7.56192 -5.12e-4,2.51596 0,5.03193 0,7.5479 -2.56e-4,2.51563 -2.56e-4,5.0313 -2.56e-4,7.54694 0,2.51571 0,5.03141 0,7.54711 0,2.63509 0,5.27019 0,7.90532 0,2.78846 0,5.57695 0,8.36544 0,2.5458 0,5.09161 0,7.63741 0,2.51334 0,5.02671 0,7.54005 0,2.5151 0,5.03018 0,7.54529 0,2.81952 0,5.63909 0,8.45864 0,2.63042 0,5.26081 0,7.89123 -0.04301,2.7971 0.04506,5.5353 0.131431,8.29748 0.117555,2.97219 0.08684,6.00987 0.18734,8.98374 0.121549,2.58009 0.198861,5.18435 0.24105,7.80784 0.03277,2.53687 0.03328,5.07853 0.0343,7.6184 1.02e-4,2.51576 0,5.03154 0,7.54732 -5.12e-4,2.81919 -5.12e-4,5.63839 -5.12e-4,8.45755 0.02099,2.57815 -0.0425,5.18011 0.03328,7.74341 0.112179,2.51998 0.187034,5.05864 0.228608,7.61606 0.02918,2.86049 0.172032,5.67245 0.248525,8.51589 0.06456,2.62732 0.07501,5.27028 0.08156,7.90923 0.0051,2.52012 0,5.04047 0,7.56061 0,2.51404 0,5.0281 0,7.54212 -1.02e-4,2.51557 -1.02e-4,5.03112 -1.02e-4,7.54668 0,2.51579 0,5.03157 0,7.54712 0,2.51577 0,5.03156 0,7.54732 0,2.51556 0,5.03135 0,7.54712 0,2.51556 0,5.03134 0,7.54709 0.04045,2.45698 -0.0256,4.82748 -0.139878,7.22658 -0.10496,2.2035 -0.12928,4.4518 -0.146432,6.6924 -0.01382,2.4849 -0.01178,4.9704 -0.01178,7.4556 5.12e-4,2.518 0,5.0362 0,7.5542 2.56e-4,2.5164 2.56e-4,5.0327 2.56e-4,7.5491 0.04403,2.6147 -0.09129,5.1651 -0.181504,7.7332 -0.04198,1.2181 -0.0621,2.4463 -0.08187,3.6736 -0.02867,1.7748 -0.619213,1.6022 -0.59049,-0.172 l 0,0 c 0.02099,-1.294 0.0425,-2.5886 0.08694,-3.8731 0.08617,-2.4462 0.218829,-4.8699 0.175053,-7.3611 -5.2e-5,-2.516 -5.2e-5,-5.0317 -3.08e-4,-7.5478 -3.07e-4,-2.5179 0,-5.0359 0,-7.5538 -3.58e-4,-2.5133 0,-5.0268 0.01178,-7.5395 0.01843,-2.3802 0.04608,-4.768 0.15785,-7.1084 0.106394,-2.2375 0.168909,-4.4336 0.128154,-6.72847 0,-2.5156 0,-5.03138 0,-7.54717 0,-2.51556 0,-5.03133 0,-7.54711 0,-2.51556 0,-5.03133 0,-7.54711 0,-2.51577 0,-5.03133 0,-7.5471 0,-2.51578 0,-5.03157 1.02e-4,-7.54735 1.54e-4,-2.5149 3.58e-4,-5.02982 0,-7.54474 5.12e-4,-2.51033 0.0051,-5.02067 0,-7.531 -0.0062,-2.55256 -0.01587,-5.10897 -0.07778,-7.65049 -0.0771,-2.88079 -0.222413,-5.72926 -0.250931,-8.62834 -0.04045,-2.51686 -0.116736,-5.0127 -0.225895,-7.49328 -0.0704,-2.66807 -0.02509,-5.35774 -0.03738,-8.03909 5.2e-5,-2.81989 1.03e-4,-5.6398 0,-8.45972 5.12e-4,-2.51334 0,-5.02669 0,-7.54005 0,-2.48458 0,-4.9709 -0.03277,-7.45259 -0.04096,-2.56518 -0.118476,-5.10935 -0.2368,-7.63219 -0.09487,-2.98445 -0.07736,-6.01728 -0.187801,-8.99944 -0.08955,-2.87057 -0.178893,-5.72234 -0.136602,-8.62815 0,-2.6304 0,-5.26079 0,-7.89121 0,-2.81954 0,-5.63911 0,-8.45865 0,-2.5151 0,-5.03018 0,-7.54528 0,-2.51334 0,-5.0267 0,-7.54005 0,-2.5458 0,-5.09161 0,-7.63742 0,-2.78849 0,-5.57697 0,-8.36545 0,-2.6351 0,-5.27018 0,-7.90528 0,-2.51573 -5.1e-5,-5.03147 0,-7.54718 0,-2.51607 0,-5.03216 2.56e-4,-7.54824 3.07e-4,-2.51603 0,-5.03209 0,-7.54812 3.59e-4,-2.49332 0,-4.98701 -0.01178,-7.47985 -0.01792,-2.41408 -0.04813,-4.83135 -0.147814,-7.21382 -0.106087,-2.64232 -0.176845,-5.26517 -0.136499,-7.95372 5.12e-4,-2.4832 0,-4.96681 -0.01024,-7.44959 -0.01638,-2.25321 -0.04045,-4.51509 -0.147866,-6.7296 -0.125798,-2.56773 -0.203162,-5.12117 -0.219443,-7.74889 -0.06897,-2.828 -0.212275,-5.6312 -0.214528,-8.47661 0,-2.85322 0.0051,-5.70657 -0.0051,-8.55971 -0.01126,-2.58252 -0.0297,-5.16935 -0.112589,-7.73184 -0.09528,-2.82435 -0.231834,-5.62392 -0.260045,-8.48151 -0.07537,-2.63802 -0.225894,-5.25287 -0.216627,-7.91931 0,-2.89696 0,-5.79392 2.56e-4,-8.69088 3.58e-4,-2.94679 0,-5.89354 0,-8.84031 4.1e-4,-2.87259 0.0051,-5.74566 -0.01075,-8.61781 -0.01843,-2.65708 -0.05376,-5.31364 -0.14761,-7.94499 -0.113152,-3.40174 -0.182425,-6.79376 -0.19584,-10.23134 -0.06052,-3.05482 -0.183705,-6.05128 -0.352972,-9.03187 -0.08049,-2.66793 -0.21929,-5.30873 -0.200295,-8.01315 -0.02662,-2.47614 -0.07342,-4.94965 -0.188621,-7.38424 -0.09928,-2.39005 -0.113408,-4.78438 -0.170496,-7.19509 -0.07962,-2.08176 -0.25175,-4.05177 -0.326758,-6.13191 -0.098,-2.29499 -0.245146,-4.55037 -0.234957,-6.90553 -0.0555,-2.54697 -0.163993,-5.05321 -0.253696,-7.58018 -0.01587,-2.23091 -0.03789,-4.47227 -0.145561,-6.66398 -0.113562,-2.2166 -0.19712,-4.41519 -0.22784,-6.68372 -0.09114,-2.2485 -0.286311,-4.37059 -0.367258,-6.62361 -0.107264,-2.55897 -0.193382,-5.10318 -0.21591,-7.7052 -0.07992,-2.80646 -0.233012,-5.56976 -0.272026,-8.39388 -0.05678,-2.68022 -0.173107,-5.30062 -0.321587,-7.91644 -0.07772,-2.82485 -0.228352,-5.62993 -0.215911,-8.48413 -0.0051,-2.99379 -0.0051,-5.99044 -0.05218,-8.97889 -0.05069,-2.61476 -0.164096,-5.18246 -0.254003,-7.77542 -0.01843,-2.58797 -0.05069,-5.17735 -0.147763,-7.73725 -0.100454,-2.75791 -0.178483,-5.50165 -0.188262,-8.29608 -0.05483,-2.24209 -0.169063,-4.42371 -0.280064,-6.62491 -0.04352,-2.36507 -0.112436,-4.72837 -0.295117,-6.98387 -0.16,-2.20499 -0.261581,-4.56032 -0.263885,-6.8677 0,-2.51541 5.1e-5,-5.0308 0,-7.54623 -5.1e-5,-2.51136 -1.54e-4,-5.02277 -5.12e-4,-7.53415 -5.12e-4,-2.51781 0,-5.03559 0,-7.55336 0,-2.79432 0.0051,-5.58964 0.03584,-8.38146 0.04454,-3.56114 0.112282,-7.11744 0.229837,-10.64994 0.05918,-1.76102 0.64512,-1.40525 0.585933,0.35576 z"
       inkscape:connector-curvature="0" />
  </g>
</svg>
