<?xml version="1.0" encoding="UTF-8" standalone="no"?>
<!-- Created with Inkscape (http://www.inkscape.org/) -->

<svg
   xmlns:dc="http://purl.org/dc/elements/1.1/"
   xmlns:cc="http://creativecommons.org/ns#"
   xmlns:rdf="http://www.w3.org/1999/02/22-rdf-syntax-ns#"
   xmlns:svg="http://www.w3.org/2000/svg"
   xmlns="http://www.w3.org/2000/svg"
   xmlns:sodipodi="http://sodipodi.sourceforge.net/DTD/sodipodi-0.dtd"
   xmlns:inkscape="http://www.inkscape.org/namespaces/inkscape"
   width="50"
   height="200"
   id="svg3319"
   version="1.1"
   inkscape:version="0.48.5 r10040"
   sodipodi:docname="house1Tree.svg"
   inkscape:export-filename="C:\Users\narfman0\Desktop\house1Tree.png"
   inkscape:export-xdpi="90"
   inkscape:export-ydpi="90">
  <defs
     id="defs3321" />
  <sodipodi:namedview
     id="base"
     pagecolor="#ffffff"
     bordercolor="#666666"
     borderopacity="1.0"
     inkscape:pageopacity="0.0"
     inkscape:pageshadow="2"
     inkscape:zoom="2.66"
     inkscape:cx="113.34586"
     inkscape:cy="113.82588"
     inkscape:document-units="px"
     inkscape:current-layer="layer1"
     showgrid="false"
     inkscape:window-width="1141"
     inkscape:window-height="862"
     inkscape:window-x="44"
     inkscape:window-y="46"
     inkscape:window-maximized="0" />
  <metadata
     id="metadata3324">
    <rdf:RDF>
      <cc:Work
         rdf:about="">
        <dc:format>image/svg+xml</dc:format>
        <dc:type
           rdf:resource="http://purl.org/dc/dcmitype/StillImage" />
        <dc:title />
      </cc:Work>
    </rdf:RDF>
  </metadata>
  <g
     inkscape:label="Layer 1"
     inkscape:groupmode="layer"
     id="layer1"
     transform="translate(0,-852.36218)">
    <path
       style="fill:#000000;fill-opacity:1;stroke:none"
       id="path3158"
       d="m 7.80201,1047.6316 c 2.16,0.1029 4.29083,-0.07 6.42943,-0.347 1.47082,-0.2181 2.97746,-0.5314 4.38257,-1.0318 1.14347,-0.3835 2.24065,-0.8815 3.33803,-1.3814 1.36204,-0.4937 2.58037,-1.2791 3.88437,-1.8923 1.28794,-0.5827 2.46805,-1.3516 3.80465,-1.8223 1.11998,-0.4461 2.08146,-1.151 3.21523,-1.5644 0.71703,-0.3872 1.47476,-0.6551 2.25718,-0.8713 0.52737,-0.1446 0.73178,0.6013 0.20441,0.7458 l 0,0 c -0.76449,0.2076 -1.49714,0.4807 -2.19917,0.8529 -1.1374,0.4052 -2.08932,1.1456 -3.22256,1.567 -1.31335,0.4549 -2.46344,1.2315 -3.7316,1.7926 -1.30808,0.6106 -2.52647,1.4043 -3.89245,1.896 -1.11874,0.5076 -2.23698,1.0161 -3.40201,1.4071 -1.4617,0.5063 -3.01142,0.8512 -4.53946,1.0691 -2.17131,0.2808 -4.3358,0.4559 -6.52862,0.3534 -0.54682,0 -0.54682,-0.7734 0,-0.7734 z"
       inkscape:connector-curvature="0" />
    <path
       style="fill:#9a5f48;fill-opacity:1;stroke:none"
       d="m 18.24169,861.20452 c -1.30756,1.55677 -0.82239,4.20528 -1.3376,6.17694 -1.3041,11.07476 -3.6922,22.044 -6.50278,32.8436 -0.91082,5.56432 -1.28558,11.19673 -2.14947,16.76611 -0.70631,7.8263 -0.21622,15.63926 0.74043,23.38444 0.35235,9.8833 1.96155,19.65427 3.1847,29.40726 0.66532,21.87783 0.52009,43.78073 0.41713,65.66763 0.13628,3.991 -0.6167,7.9163 -1.5371,11.7328 1.24646,1.3952 3.65921,-0.036 5.28737,-0.098 6.45909,-1.9092 12.33783,-5.3036 18.45698,-8.0775 0.79749,-4.2691 0.70199,-8.926 1.44177,-13.28 1.12844,-34.63588 0.33669,-69.31151 1.39379,-103.94792 0.71746,-5.02699 1.21818,-10.11855 1.23809,-15.23544 0.59731,-10.08267 5.2319,-19.57576 4.65958,-29.79902 -0.20513,-2.87154 0.7297,-6.12788 -0.18136,-8.76113 -8.46993,-1.494 -16.92201,-3.59007 -24.83251,-6.79407 -0.0908,0.02 -0.18999,-0.0214 -0.27902,0.014 z"
       id="path3162"
       inkscape:connector-curvature="0" />
    <path
       style="fill:#000000;fill-opacity:1;stroke:none"
       id="path3164"
       d="m 27.27316,863.08204 c -0.37987,1.1984 -0.83943,2.36651 -1.25744,3.55107 -0.1589,0.80786 -0.60779,1.48951 -0.95328,2.21861 -0.29532,0.62123 -0.48604,1.281 -0.73566,1.9192 -0.26104,0.70862 -0.47927,1.43654 -0.67358,2.16703 -0.20525,0.84361 -0.24547,1.71277 -0.27318,2.57676 -0.0194,0.89163 -0.0149,1.78356 -0.0133,2.67534 -0.0155,0.78682 0.21597,1.54982 0.3249,2.32557 0.10351,0.8575 0.11465,1.72226 0.12469,2.58481 0.005,0.59491 0.004,1.18984 0.004,1.78475 -2e-4,0.31567 -0.44663,0.31539 -0.44643,-2.8e-4 l 0,0 c 3.8e-4,-0.5931 0.001,-1.1862 -0.004,-1.77928 -0.01,-0.84358 -0.0202,-1.68934 -0.1204,-2.52808 -0.11118,-0.79594 -0.34959,-1.57858 -0.32921,-2.38669 -0.002,-0.89683 -0.006,-1.79381 0.0135,-2.69049 0.029,-0.89796 0.0728,-1.80103 0.28801,-2.67738 0.19944,-0.74695 0.42228,-1.49151 0.68977,-2.21615 0.258,-0.64503 0.44667,-1.31759 0.74776,-1.94701 0.34154,-0.71432 0.77952,-1.38258 0.93541,-2.17536 0.41553,-1.17584 0.87117,-2.3356 1.24913,-3.52507 0.0867,-0.30352 0.51598,-0.18088 0.42926,0.12265 z"
       inkscape:connector-curvature="0" />
    <path
       style="fill:#000000;fill-opacity:1;stroke:none"
       id="path3166"
       d="m 23.73188,863.03948 c -0.24713,0.58043 -0.44143,1.17613 -0.56002,1.79555 -0.0893,0.43339 -0.26053,0.83659 -0.40999,1.24986 -0.14798,0.40378 -0.23236,0.82726 -0.36524,1.23491 -0.102,0.37636 -0.29104,0.71732 -0.39889,1.09126 -0.14686,0.37199 -0.30285,0.74111 -0.42431,1.12239 -0.1808,0.39322 -0.34921,0.79375 -0.54471,1.17963 -0.15997,0.35294 -0.30307,0.7166 -0.42864,1.08388 -0.11916,0.40502 -0.1334,0.82927 -0.14689,1.24825 -0.01,0.47379 -0.007,0.94773 -0.006,1.42158 3.5e-4,0.16892 -0.23854,0.16942 -0.23889,5e-4 l 0,0 c -0.001,-0.47659 -0.004,-0.95327 0.006,-1.42979 0.0144,-0.44275 0.0312,-0.89075 0.15971,-1.31808 0.13003,-0.3776 0.27622,-0.75198 0.44173,-1.11478 0.19139,-0.37345 0.35081,-0.76416 0.53002,-1.14391 0.12148,-0.37903 0.27402,-0.74728 0.42247,-1.11635 0.1102,-0.37645 0.29629,-0.72082 0.40136,-1.09925 0.13597,-0.40885 0.21719,-0.8363 0.36757,-1.24166 0.14584,-0.40134 0.31226,-0.7926 0.39998,-1.21349 0.12056,-0.62601 0.31292,-1.23005 0.56492,-1.81613 0.0464,-0.16242 0.2761,-0.0968 0.2297,0.0656 z"
       inkscape:connector-curvature="0" />
    <path
       style="fill:#000000;fill-opacity:1;stroke:none"
       id="path3168"
       d="m 22.6976,862.78524 c -0.39299,0.47373 -0.76594,0.9589 -1.09402,1.47972 -0.25909,0.38269 -0.43718,0.79846 -0.62759,1.21544 -0.1361,0.34976 -0.26416,0.70411 -0.38036,1.06164 -0.0674,0.3828 -0.20519,0.7463 -0.28855,1.12538 -0.0723,0.39012 -0.20662,0.76145 -0.27037,1.15444 -0.0587,0.44653 -0.0619,0.89778 -0.0663,1.3474 -0.002,0.39754 -0.001,0.79509 -4.2e-4,1.19264 2.7e-4,0.16892 -0.23861,0.16931 -0.23889,4e-4 l 0,0 c -6.6e-4,-0.39847 -0.002,-0.79694 4.3e-4,-1.19541 0.005,-0.46169 0.008,-0.92506 0.0695,-1.38349 0.0652,-0.39735 0.19842,-0.77339 0.27288,-1.16751 0.0858,-0.38662 0.2243,-0.7577 0.29469,-1.1479 0.11971,-0.36605 0.24999,-0.7292 0.39036,-1.0872 0.19627,-0.42564 0.37789,-0.85181 0.64259,-1.24317 0.33291,-0.52838 0.71097,-1.02093 1.1096,-1.50161 0.10552,-0.1319 0.29206,0.0173 0.18654,0.14923 z"
       inkscape:connector-curvature="0" />
    <path
       style="fill:#000000;fill-opacity:1;stroke:none"
       id="path3170"
       d="m 20.82864,861.83707 c -0.31244,0.56285 -0.57342,1.15063 -0.88497,1.71421 -0.25478,0.47218 -0.49349,0.95267 -0.74481,1.42663 -0.25418,0.43189 -0.5313,0.84588 -0.77529,1.28362 -0.23576,0.39587 -0.46865,0.79956 -0.65292,1.22262 -0.21689,0.3317 -0.32537,0.69242 -0.38248,1.08025 -0.0249,0.16708 -0.26114,0.13194 -0.23629,-0.0351 l 0,0 c 0.0611,-0.40743 0.17204,-0.79209 0.39992,-1.14088 0.18876,-0.42948 0.42264,-0.84104 0.66311,-1.24316 0.24323,-0.43634 0.51869,-0.84934 0.77292,-1.27926 0.25216,-0.47509 0.49122,-0.95699 0.7468,-1.43031 0.31025,-0.56052 0.56913,-1.14566 0.88034,-1.70541 0.0755,-0.15109 0.28921,-0.0443 0.21367,0.10683 z"
       inkscape:connector-curvature="0" />
    <path
       style="fill:#000000;fill-opacity:1;stroke:none"
       id="path3172"
       d="m 18.95413,861.12838 c -0.15326,0.66922 -0.36113,1.32389 -0.50898,1.99437 -0.0805,0.4739 -0.24332,0.92524 -0.32063,1.40015 -0.0273,0.1667 -0.26301,0.12815 -0.23575,-0.0386 l 0,0 c 0.0787,-0.4792 0.24029,-0.93519 0.32311,-1.41309 0.14921,-0.67517 0.35772,-1.33465 0.51255,-2.0085 0.0464,-0.16242 0.2761,-0.0968 0.2297,0.0656 z"
       inkscape:connector-curvature="0" />
    <path
       style="fill:#000000;fill-opacity:1;stroke:none"
       id="path3174"
       d="m 38.12687,866.35109 c 0.0303,0.64295 -0.0152,1.27572 -0.10948,1.9108 -0.14631,0.41746 -0.23405,0.84988 -0.34993,1.27534 -0.12908,0.43315 -0.18018,0.87987 -0.30565,1.31362 -0.20605,0.51112 -0.36221,1.04336 -0.48435,1.58044 -0.18693,0.59492 -0.3584,1.19515 -0.55333,1.78719 -0.1753,0.46322 -0.24812,0.95208 -0.3942,1.42348 -0.11592,0.36579 -0.27883,0.70535 -0.35589,1.08387 -0.063,0.39529 -0.19079,0.77349 -0.25135,1.17025 -0.0558,0.448 -0.0591,0.90022 -0.0634,1.35099 -0.0652,0.48156 -0.15155,0.95872 -0.19625,1.44306 -0.0371,0.47371 -0.0401,0.94914 -0.0428,1.42402 -10e-4,0.47752 -1.9e-4,0.95505 3.2e-4,1.43258 5.1e-4,0.47781 6.3e-4,0.95561 7e-4,1.43342 5e-5,0.47778 4e-5,0.95556 4e-5,1.43334 0,0.47778 -10e-6,0.95555 -10e-6,1.43333 0.0347,0.51253 -0.0365,1.01316 -0.1094,1.5184 -0.0772,0.52183 -0.10577,1.0486 -0.12165,1.57529 -0.0113,0.50485 -0.01,1.00987 -0.009,1.51482 5.5e-4,0.52913 0.001,1.05826 0.001,1.5874 2.1e-4,0.48339 2.2e-4,0.96678 2.3e-4,1.45017 10e-6,0.47733 0,0.95466 0,1.43198 -1e-5,0.61009 -1e-5,1.22018 -1e-5,1.83027 0,0.57546 0,1.15092 0,1.72639 0,0.54536 0,1.09072 0,1.63608 0,0.53471 0,1.06943 0,1.60414 0.0441,0.48725 -0.0649,0.95714 -0.14558,1.43303 -0.0789,0.49867 -0.0826,1.00448 -0.0901,1.50802 -0.007,0.71714 -0.005,1.43433 -0.004,2.15149 0.0108,0.59219 0.014,1.17815 -0.068,1.76498 -0.10766,0.61771 -0.10734,1.24647 -0.1836,1.86714 -0.10418,0.65427 -0.16531,1.31289 -0.19985,1.9741 -0.027,0.60738 -0.0262,1.21552 -0.0269,1.82336 -0.0148,0.56653 0.0334,1.13602 -0.0279,1.70006 -0.0862,0.47954 -0.14915,0.96142 -0.18247,1.44741 -0.0264,0.47373 -0.027,0.94837 -0.0282,1.42268 -0.0626,0.48203 -0.15,0.95922 -0.19505,1.44364 0.008,0.44353 -0.1103,0.86775 -0.1891,1.29982 -0.0711,0.43705 -0.0812,0.88057 -0.0896,1.32232 -0.006,0.47546 -0.004,0.95097 -0.004,1.42645 0.004,0.48776 -0.11402,0.9662 -0.1728,1.44908 -0.0651,0.46731 -0.0269,0.94213 -0.0942,1.40803 -0.10987,0.40358 -0.12346,0.82472 -0.2152,1.23055 -0.12369,0.39144 -0.17725,0.79603 -0.20826,1.20369 -0.0271,0.46512 -0.0262,0.93127 -0.027,1.39701 -0.01,0.47601 -0.0103,0.94518 0.068,1.41516 0.0576,0.48557 0.20457,0.95182 0.29919,1.43028 0.0584,0.42778 0.20339,0.838 0.34564,1.24384 0.1465,0.50425 0.27837,1.01312 0.37256,1.53 0.0767,0.50787 0.0858,1.01834 0.17695,1.52394 0.0871,0.47804 0.12436,0.95973 0.22478,1.4352 0.11764,0.53362 0.15019,1.08054 0.17345,1.62494 0.008,0.49871 0.002,0.99148 0.0822,1.4844 0.0916,0.47812 0.13224,0.96279 0.15516,1.44835 0.0175,0.4791 0.0167,0.95862 0.0169,1.43797 -3.4e-4,0.47779 -10e-4,0.95558 -10e-4,1.43337 -3e-4,0.47776 -3.2e-4,0.95551 -3.5e-4,1.43326 -1e-5,0.47777 0,0.95554 0,1.43332 0,0.47777 0,0.95555 10e-6,1.43332 0.0108,0.4886 0.01,0.97015 -0.0696,1.45279 -0.16509,0.39784 -0.25023,0.82054 -0.38409,1.22739 -0.12073,0.52977 -0.3246,1.03176 -0.49706,1.54544 -0.15378,0.44486 -0.28039,0.90249 -0.44461,1.34351 -0.11209,0.35613 -0.29693,0.68002 -0.40168,1.03839 -0.093,0.37715 -0.22492,0.73804 -0.28854,1.12299 -0.0212,0.42885 -0.0864,0.84384 -0.17667,1.26274 -0.0883,0.42413 -0.10658,0.85771 -0.11989,1.28937 -0.008,0.48327 -0.12426,0.95656 -0.1823,1.43566 -0.0364,0.42922 -0.17321,0.83945 -0.23755,1.26513 -0.0252,0.48378 -0.10087,0.95838 -0.17479,1.43655 -0.0474,0.53615 -0.13228,1.06285 -0.23217,1.59124 -0.0375,0.44826 -0.18329,0.87267 -0.27566,1.31006 -0.035,0.16525 -0.2687,0.11576 -0.2337,-0.0495 l 0,0 c 0.0925,-0.43571 0.23731,-0.85832 0.27463,-1.30494 0.0994,-0.52583 0.18366,-1.04977 0.23082,-1.58336 0.0739,-0.47806 0.14913,-0.95222 0.17468,-1.43589 0.0645,-0.42335 0.19867,-0.83157 0.2366,-1.25806 0.0574,-0.47202 0.1713,-0.93839 0.18066,-1.41428 0.0138,-0.4461 0.0335,-0.89408 0.12515,-1.33231 0.0895,-0.41541 0.15276,-0.82625 0.17454,-1.2516 0.066,-0.39448 0.19879,-0.76508 0.29506,-1.15138 0.10813,-0.3637 0.29097,-0.69387 0.40719,-1.05485 0.16592,-0.43701 0.28742,-0.89415 0.44178,-1.33556 0.17262,-0.51342 0.37604,-1.01518 0.49683,-1.54474 0.1326,-0.39384 0.20753,-0.80724 0.37507,-1.19092 0.0778,-0.46964 0.0762,-0.9383 0.0664,-1.41387 0,-0.47777 0,-0.95555 -10e-6,-1.43332 0,-0.47778 -1e-5,-0.95556 0,-1.43333 3e-5,-0.47781 6e-5,-0.95561 3.5e-4,-1.43342 3.4e-4,-0.4777 10e-4,-0.9554 10e-4,-1.43311 -1.9e-4,-0.47563 6.2e-4,-0.95143 -0.0167,-1.42682 -0.0224,-0.47647 -0.0622,-0.95203 -0.15231,-1.42117 -0.0816,-0.50241 -0.0781,-1.00442 -0.0851,-1.51264 -0.0226,-0.53124 -0.0537,-1.06505 -0.16852,-1.58579 -0.10079,-0.47789 -0.13967,-0.96169 -0.22616,-1.44222 -0.0908,-0.50559 -0.1027,-1.01548 -0.17686,-1.5235 -0.0916,-0.50465 -0.22095,-1.00121 -0.36296,-1.49373 -0.14598,-0.41647 -0.29373,-0.83779 -0.35458,-1.2766 -0.0947,-0.48084 -0.24292,-0.9494 -0.30049,-1.43743 -0.08,-0.48316 -0.0819,-0.96542 -0.0712,-1.45464 7.4e-4,-0.47168 -3e-5,-0.94379 0.0277,-1.41484 0.0322,-0.41949 0.0869,-0.83622 0.21367,-1.23916 0.094,-0.39852 0.0997,-0.81555 0.2117,-1.21206 0.0713,-0.46276 0.0229,-0.93741 0.0934,-1.40176 0.0578,-0.4732 0.1735,-0.94216 0.17105,-1.41987 -6e-4,-0.4771 -0.002,-0.95423 0.004,-1.4313 0.009,-0.45462 0.0196,-0.91101 0.0935,-1.3607 0.0778,-0.42536 0.19521,-0.84226 0.18625,-1.27906 0.0446,-0.47721 0.12713,-0.94786 0.19402,-1.42206 10e-4,-0.47958 0.002,-0.95949 0.0287,-1.43847 0.0337,-0.48931 0.096,-0.97473 0.18338,-1.45748 0.0635,-0.55478 0.008,-1.11652 0.0264,-1.67392 8e-4,-0.6119 -4e-5,-1.22409 0.0273,-1.83552 0.0349,-0.66685 0.0963,-1.33114 0.20134,-1.99099 0.0776,-0.6217 0.0748,-1.25212 0.18409,-1.87089 0.0807,-0.57572 0.0757,-1.15063 0.0657,-1.7317 -5.2e-4,-0.71842 -0.002,-1.43686 0.004,-2.15526 0.008,-0.51573 0.0121,-1.03373 0.0935,-1.5444 0.0786,-0.46292 0.18648,-0.9189 0.14222,-1.39305 0,-0.53471 0,-1.06943 0,-1.60414 0,-0.54536 0,-1.09072 0,-1.63608 0,-0.57547 0,-1.15093 0,-1.72639 0,-0.61009 0,-1.22018 0,-1.83027 0,-0.47732 1e-5,-0.95465 1e-5,-1.43197 -2e-5,-0.48336 -3e-5,-0.96671 -2.4e-4,-1.45006 -2.6e-4,-0.52913 -7.7e-4,-1.05826 -0.001,-1.58739 -2.7e-4,-0.50739 -0.002,-1.01487 0.009,-1.52216 0.0162,-0.53569 0.0455,-1.07145 0.12399,-1.6022 0.0713,-0.49412 0.14202,-0.98289 0.10695,-1.48428 10e-6,-0.47778 10e-6,-0.95555 10e-6,-1.43333 1e-5,-0.47776 2e-5,-0.95553 -4e-5,-1.4333 -7e-5,-0.47773 -1.9e-4,-0.95547 -6.9e-4,-1.4332 -5.2e-4,-0.47807 -0.002,-0.95614 -3.2e-4,-1.4342 0.003,-0.48177 0.006,-0.9641 0.0438,-1.44466 0.0443,-0.47773 0.12602,-0.94897 0.19524,-1.42335 0.004,-0.46212 0.008,-0.92573 0.0661,-1.38492 0.0618,-0.40073 0.18877,-0.7831 0.25348,-1.18209 0.0799,-0.386 0.24066,-0.73446 0.36171,-1.10654 0.14658,-0.47266 0.2187,-0.96334 0.39552,-1.42762 0.1934,-0.58459 0.36091,-1.17823 0.54728,-1.76543 0.12375,-0.54128 0.27922,-1.07878 0.4878,-1.59375 0.12528,-0.43248 0.17442,-0.87862 0.30471,-1.31031 0.11459,-0.41583 0.19607,-0.84035 0.34404,-1.24733 0.0926,-0.62352 0.13721,-1.24436 0.10688,-1.8757 0,-0.16892 0.23889,-0.16892 0.23889,0 z"
       inkscape:connector-curvature="0" />
    <path
       style="fill:#000000;fill-opacity:1;stroke:none"
       id="path3176"
       d="m 13.90176,984.25112 c -0.54714,-0.0847 -1.11186,-0.0843 -1.63189,0.11971 -0.34241,0.20899 -0.37945,0.59515 -0.41467,0.96064 -0.0271,0.46886 -0.0171,0.93891 -0.0133,1.40828 10e-4,0.45353 -0.0171,0.90198 0.0725,1.34792 0.0805,0.15726 0.1865,0.47503 0.30358,0.17713 0.10952,-0.38135 0.10429,-0.78516 0.11135,-1.17875 -0.0255,-0.36984 0.1106,-0.82988 -0.15149,-1.138 -0.22187,0.10932 -0.32981,0.40085 -0.4515,0.60274 -0.27522,0.51872 -0.5519,1.0429 -0.78668,1.58242 -0.19634,0.49751 -0.37104,0.99539 -0.45352,1.52483 -0.0286,0.54554 -0.14009,1.07959 -0.21917,1.61885 -0.063,0.45295 -0.10232,0.90298 -0.0219,1.35444 0.12047,0.38279 0.48719,0.41775 0.83526,0.46161 0.4656,0.004 0.89853,-0.19799 1.21172,-0.53753 0.29989,-0.35564 0.43423,-0.81073 0.61895,-1.23038 0.16329,-0.4331 0.31554,-0.87153 0.45665,-1.31281 0.0701,-0.39387 0.21111,-0.76834 0.29678,-1.15849 -0.0601,0.14442 0.22269,-0.62631 0.13377,-0.54614 -0.0265,0.0239 -0.009,0.0755 -0.0336,0.10164 -0.44315,0.31273 -0.77511,0.76716 -1.0997,1.19625 -0.42624,0.56187 -0.7498,1.19576 -1.10522,1.80399 -0.34177,0.66659 -0.63365,1.36466 -0.87963,2.07284 -0.17832,0.52561 -0.2352,1.07572 -0.261,1.62655 -0.0145,0.54326 -0.009,1.08681 -0.007,1.63019 0.0161,0.36976 0.21661,0.58786 0.5844,0.61017 0.38265,-0.0872 0.5469,-0.46033 0.7353,-0.76407 0.10779,-0.18722 0.22108,-0.38657 0.21151,-0.61058 -6.2e-4,-0.0146 -0.0172,0.032 -0.008,0.0431 0.0232,0.0274 0.0612,0.0375 0.0918,0.0563 -0.28763,0.21248 -0.51121,0.4986 -0.7634,0.75071 -0.3894,0.42056 -0.75116,0.86445 -1.07588,1.33665 -0.40577,0.56553 -0.79057,1.13984 -1.1336,1.74533 -0.33419,0.63884 -0.63284,1.29384 -0.84087,1.98474 -0.13457,0.5297 -0.28536,1.052 -0.36398,1.5938 -0.0582,0.3417 -0.0334,0.6948 0.36313,0.752 0.40768,0.039 0.75975,-0.1309 1.12018,-0.2929 0.3365,-0.1573 0.57806,-0.4875 0.95496,-0.5371 0.39809,0.1526 0.55186,0.5751 0.67759,0.9498 0.18338,0.5327 0.37068,1.0634 0.56743,1.5913 0.23074,0.5412 0.45592,1.0821 0.66196,1.6331 0.21266,0.5112 0.46274,1.0021 0.73776,1.4815 0.19338,0.381 0.41533,0.7476 0.6303,1.117 0.25567,0.4278 0.35095,0.9085 0.40498,1.3966 0.0425,0.5287 0.0365,1.0599 0.0362,1.59 0.0298,0.5528 -0.0165,1.092 -0.1139,1.6348 -0.0835,0.4428 -0.10717,0.8929 -0.12179,1.3422 -0.0233,0.5764 -0.0171,1.148 0.0577,1.7201 0.0977,0.5351 0.106,1.081 0.18508,1.6177 0.0973,0.5619 0.15761,1.1265 0.26783,1.6858 0.12313,0.5833 0.16018,1.1785 0.18468,1.7726 0.0181,0.5643 0.0161,1.129 0.0158,1.6935 0.0142,0.5636 1.5e-4,1.1207 -0.0708,1.6798 -0.0442,0.5923 -0.19607,1.166 -0.3006,1.7485 -0.13732,0.4159 -0.24915,0.8333 -0.30361,1.2682 -0.0447,0.4558 -0.0446,0.9145 -0.0465,1.3721 -4.6e-4,0.4773 0.001,0.9547 0.002,1.4321 0.034,0.492 -0.0278,0.9707 -0.10897,1.454 -0.041,0.4532 -0.12663,0.8919 -0.23263,1.3333 -0.0439,0.4185 -0.18818,0.8012 -0.35027,1.1852 -0.14912,0.4255 -0.32238,0.8429 -0.57684,1.2165 -0.22844,0.369 -0.44297,0.747 -0.66865,1.1183 -0.25494,0.4156 -0.57529,0.7868 -0.76642,1.2379 -0.14697,0.2746 -0.28812,0.5538 -0.30393,0.8689 -0.0114,0.1685 -0.24975,0.1524 -0.23835,-0.016 l 0,0 c 0.0276,-0.3417 0.15415,-0.6492 0.32265,-0.9467 0.19876,-0.4605 0.51608,-0.8454 0.78192,-1.268 0.22809,-0.3751 0.44457,-0.7571 0.67592,-1.1296 0.24875,-0.3579 0.4068,-0.7657 0.55361,-1.1741 0.15721,-0.3724 0.29687,-0.7416 0.33808,-1.148 0.10478,-0.4362 0.18901,-0.8691 0.22932,-1.3171 0.079,-0.4703 0.14,-0.9351 0.10568,-1.4141 -7.3e-4,-0.4778 -0.002,-0.9557 -0.002,-1.4335 0.002,-0.4672 0.002,-0.9355 0.0483,-1.401 0.0556,-0.4386 0.16343,-0.8617 0.3055,-1.2805 0.10401,-0.5785 0.25489,-1.1482 0.29875,-1.7364 0.0699,-0.5491 0.0828,-1.0962 0.0689,-1.6498 2.6e-4,-0.5612 0.002,-1.1226 -0.0156,-1.6835 -0.0239,-0.5819 -0.0596,-1.165 -0.18037,-1.7363 -0.11098,-0.5632 -0.17216,-1.1317 -0.26984,-1.6974 -0.0778,-0.5383 -0.0892,-1.0848 -0.18557,-1.6214 -0.0761,-0.5849 -0.0836,-1.1694 -0.0595,-1.7588 0.0151,-0.4608 0.0398,-0.9224 0.12542,-1.3765 0.095,-0.5291 0.13994,-1.0538 0.11015,-1.5928 3e-4,-0.5213 0.006,-1.0437 -0.0347,-1.5638 -0.0497,-0.455 -0.13547,-0.9036 -0.37402,-1.3025 -0.21508,-0.3699 -0.43726,-0.737 -0.63103,-1.1183 -0.28147,-0.4907 -0.53717,-0.9934 -0.7543,-1.5167 -0.20597,-0.5511 -0.43153,-1.0919 -0.66205,-1.6333 -0.19772,-0.5306 -0.38593,-1.0639 -0.57024,-1.5993 -0.0951,-0.2885 -0.21499,-0.5761 -0.43364,-0.787 -0.27655,-0.019 -0.59522,0.4401 -0.87433,0.5167 -0.40718,0.183 -0.80789,0.3638 -1.26769,0.3088 -0.51101,-0.1296 -0.63756,-0.5251 -0.54994,-1.0202 0.0809,-0.5534 0.23331,-1.0875 0.37168,-1.6284 0.21399,-0.7075 0.51824,-1.3794 0.86173,-2.03345 0.34649,-0.61155 0.73485,-1.1919 1.14468,-1.76306 0.33356,-0.48381 0.70372,-0.93971 1.10389,-1.37025 0.26984,-0.26885 0.50652,-0.57919 0.82366,-0.79446 0.0662,5.9e-4 0.13925,-0.0275 0.19866,0.002 0.24716,0.12169 -0.11751,0.72716 -0.18274,0.84824 -0.24007,0.3865 -0.45873,0.81575 -0.9609,0.8759 -0.48584,-0.0576 -0.77977,-0.3447 -0.80065,-0.84699 -0.002,-0.54746 -0.007,-1.09508 0.007,-1.64241 0.0271,-0.57372 0.0879,-1.14651 0.27398,-1.69378 0.25152,-0.72259 0.54885,-1.43521 0.89901,-2.1149 0.3602,-0.61641 0.68847,-1.25847 1.12098,-1.82761 0.35162,-0.46468 0.71263,-0.96543 1.21263,-1.27806 0.0655,-0.0132 0.13105,-0.0535 0.1964,-0.0397 0.35144,0.0742 0.0717,0.58306 0.0143,0.76158 -0.088,0.39731 -0.22977,0.77902 -0.30257,1.17994 -0.14419,0.44909 -0.29832,0.89563 -0.46554,1.33623 -0.19607,0.4445 -0.33951,0.92528 -0.66383,1.29803 -0.3745,0.38948 -0.86739,0.62511 -1.41583,0.61051 -0.45932,-0.0598 -0.89812,-0.15499 -1.04012,-0.65705 -0.0835,-0.47707 -0.0473,-0.95228 0.0208,-1.43064 0.0793,-0.54008 0.19063,-1.07486 0.21954,-1.62123 0.087,-0.5493 0.26524,-1.06722 0.47051,-1.58321 0.2396,-0.54888 0.52038,-1.08269 0.80116,-1.61041 0.18671,-0.30888 0.40063,-0.84422 0.84507,-0.62533 0.27678,0.38001 0.20145,0.84202 0.20129,1.28832 -0.008,0.43209 2e-5,0.87843 -0.14208,1.29173 -0.2995,0.46273 -0.61091,0.14192 -0.74596,-0.24761 -0.0916,-0.46107 -0.078,-0.92402 -0.0771,-1.39277 -0.004,-0.47778 -0.014,-0.95628 0.0144,-1.43351 0.0459,-0.46167 0.12402,-0.91639 0.56686,-1.16039 0.56144,-0.21126 1.16126,-0.22855 1.75124,-0.13316 0.16722,0.0239 0.13343,0.26038 -0.0338,0.23649 z"
       inkscape:connector-curvature="0" />
    <path
       style="fill:#000000;fill-opacity:1;stroke:none"
       id="path3178"
       d="m 12.64649,988.81976 c 0.69906,-0.0336 1.38985,0.0294 2.08307,0.10896 0.62613,0.0669 1.25214,0.10093 1.87544,0.19129 0.67016,0.0735 1.32729,0.2228 1.99567,0.30848 0.74771,0.0754 1.49668,0.0854 2.243,0.17556 0.71428,0.059 1.42142,0.15586 2.12907,0.26705 0.60915,0.0898 1.2243,0.1215 1.83914,0.13705 0.62247,-0.0257 1.2357,0.0764 1.85088,0.15272 0.51518,0.0731 1.03705,0.0564 1.55252,0.11872 0.53322,0.0903 1.06959,0.15286 1.60917,0.18701 0.4839,0.0254 0.96861,0.0261 1.45303,0.0271 0.52286,5e-5 1.04573,-8.3e-4 1.56859,-10e-4 0.57972,-3.7e-4 1.15944,-4.6e-4 1.73916,-5.1e-4 0.4904,-2e-5 0.98081,-1e-5 1.47122,-1e-5 0.39746,0 0.79493,1e-5 1.1924,1e-5 0.16892,0 0.16892,0.23888 0,0.23888 l 0,0 c -0.39747,0 -0.79494,0 -1.1924,0 -0.4904,-1e-5 -0.9808,-2e-5 -1.4712,10e-6 -0.57967,5e-5 -1.15934,1.4e-4 -1.73901,5e-4 -0.52309,3.8e-4 -1.04618,10e-4 -1.56927,10e-4 -0.48929,-10e-4 -0.97888,-0.002 -1.46763,-0.0276 -0.54423,-0.0346 -1.08534,-0.097 -1.62315,-0.18831 -0.51522,-0.0642 -1.03789,-0.0431 -1.55286,-0.11876 -0.60747,-0.0754 -1.2128,-0.17699 -1.8275,-0.15098 -0.62523,-0.0159 -1.25076,-0.0483 -1.87017,-0.13986 -0.70487,-0.11077 -1.40916,-0.20719 -2.12067,-0.26589 -0.74686,-0.0904 -1.49655,-0.0989 -2.24475,-0.17578 -0.66965,-0.0861 -1.32811,-0.23498 -1.99952,-0.30901 -0.62092,-0.09 -1.24465,-0.12322 -1.86839,-0.19037 -0.68424,-0.0785 -1.36578,-0.14118 -2.05584,-0.10741 -0.16891,0 -0.16891,-0.23888 0,-0.23888 z"
       inkscape:connector-curvature="0" />
    <path
       style="fill:#000000;fill-opacity:1;stroke:none"
       id="path3180"
       d="m 13.36316,992.16418 c 0.66714,0 1.33429,0 2.00143,0 0.57216,0 1.14433,0 1.7165,0 0.64774,-0.0349 1.28571,0.0302 1.92701,0.10907 0.68719,0.0766 1.37561,0.10151 2.06145,0.19095 0.71238,0.1352 1.4148,0.31395 2.12243,0.47044 0.68369,0.10423 1.36925,0.19237 2.05439,0.28947 0.6379,0.0802 1.26501,0.22233 1.90309,0.3033 0.61078,0.0271 1.21321,0.0945 1.8181,0.18083 0.52559,0.0775 1.05606,0.10626 1.58653,0.1215 0.46107,-0.0232 0.90559,0.0281 1.35576,0.11878 0.42438,0.0854 0.85736,0.10529 1.28883,0.11913 0.5211,0.0116 1.04239,0.009 1.56359,0.009 0.50883,-5.5e-4 1.01766,-10e-4 1.52649,-10e-4 0.43463,0.0421 0.85014,-0.0677 1.27347,-0.14232 0.43669,-0.0528 0.87682,-0.11764 1.29445,-0.25988 0.19638,-0.08 0.3997,-0.13706 0.6044,-0.19055 0.16347,-0.0426 0.22364,0.18863 0.0602,0.23118 l 0,0 c -0.19947,0.0517 -0.39727,0.1079 -0.58852,0.18583 -0.43008,0.14264 -0.8797,0.2172 -1.32909,0.26869 -0.43666,0.0768 -0.8666,0.18809 -1.31476,0.14593 -0.50883,2.7e-4 -1.01765,7.6e-4 -1.52648,10e-4 -0.5238,2.9e-4 -1.0477,0.002 -1.5714,-0.009 -0.44473,-0.0143 -0.89093,-0.0354 -1.32831,-0.12371 -0.4371,-0.088 -0.86749,-0.13769 -1.31547,-0.11418 -0.53946,-0.0155 -1.0789,-0.045 -1.61339,-0.12379 -0.60375,-0.0861 -1.20485,-0.15277 -1.81448,-0.18034 -0.63921,-0.0813 -1.26755,-0.22289 -1.90651,-0.30377 -0.69119,-0.098 -1.38289,-0.18638 -2.07246,-0.29274 -0.70078,-0.15507 -1.3965,-0.33163 -2.10173,-0.46681 -0.68523,-0.0894 -1.37317,-0.11351 -2.05972,-0.19073 -0.6317,-0.0777 -1.25973,-0.14246 -1.89784,-0.10728 -0.57217,0 -1.14434,0 -1.7165,0 -0.66714,0 -1.33429,0 -2.00143,0 -0.16892,0 -0.16892,-0.23889 0,-0.23889 z"
       inkscape:connector-curvature="0" />
    <path
       style="fill:#000000;fill-opacity:1;stroke:none"
       id="path3182"
       d="m 27.88208,989.12233 c 0.083,0.61541 0.25657,1.21283 0.35621,1.82608 0.0408,0.26295 0.0583,0.52836 0.0753,0.79359 0.0108,0.16858 -0.22763,0.18381 -0.2384,0.0152 l 0,0 c -0.0164,-0.25754 -0.0333,-0.51524 -0.0727,-0.77057 -0.0996,-0.61477 -0.27486,-1.21342 -0.35689,-1.83055 -0.0239,-0.16722 0.21259,-0.20101 0.23648,-0.0338 z"
       inkscape:connector-curvature="0" />
    <path
       style="fill:#000000;fill-opacity:1;stroke:none"
       id="path3184"
       d="m 25.91383,988.67834 c -0.13271,0.61533 -0.32395,1.21429 -0.49027,1.82056 -0.12728,0.50298 -0.15917,1.01983 -0.26169,1.5275 -0.0335,0.16557 -0.26761,0.11826 -0.23415,-0.0473 l 0,0 c 0.10369,-0.5129 0.13439,-1.03561 0.26548,-1.54341 0.16383,-0.59661 0.3514,-1.1861 0.48415,-1.79112 0.0239,-0.16722 0.26037,-0.13344 0.23648,0.0338 z"
       inkscape:connector-curvature="0" />
    <path
       style="fill:#000000;fill-opacity:1;stroke:none"
       id="path3186"
       d="m 35.70446,1014.2179 c -0.68316,0.3547 -1.36578,0.7105 -2.05036,1.0624 -0.76052,0.3509 -1.51659,0.701 -2.26204,1.0842 -0.747,0.3931 -1.50597,0.7727 -2.27955,1.1116 -0.76265,0.3591 -1.54854,0.6655 -2.30779,1.0315 -0.6975,0.3423 -1.41255,0.6492 -2.10188,1.0077 -0.63986,0.2702 -1.27953,0.5323 -1.90814,0.8292 -0.65516,0.3315 -1.32171,0.6424 -1.97212,0.9826 -0.53037,0.2402 -1.02823,0.5444 -1.5476,0.8073 -0.39837,0.2626 -0.79551,0.525 -1.20294,0.7741 -0.42555,0.2248 -0.80505,0.5169 -1.17679,0.819 -0.27623,0.2926 -0.62777,0.4851 -0.89284,0.7887 -0.30828,0.3167 -0.565,0.6787 -0.81621,1.041 -0.22557,0.4209 -0.45271,0.8377 -0.74357,1.2185 -0.22242,0.3108 -0.3908,0.6658 -0.52724,1.023 -0.14608,0.3467 -0.38394,0.6386 -0.57726,0.9581 -0.15453,0.3636 -0.42921,0.6488 -0.64438,0.9766 -0.15016,0.3008 -0.30897,0.5995 -0.43357,0.9124 -0.0627,0.1569 -0.28455,0.068 -0.22179,-0.089 l 0,0 c 0.13155,-0.3272 0.29559,-0.6412 0.45567,-0.9548 0.21389,-0.3258 0.48618,-0.6082 0.63985,-0.9694 0.18688,-0.3071 0.41423,-0.5884 0.5585,-0.9199 0.14614,-0.378 0.3233,-0.7541 0.56073,-1.0828 0.29056,-0.3765 0.50888,-0.7939 0.73674,-1.2091 0.2565,-0.3699 0.51912,-0.7391 0.83342,-1.0629 0.27706,-0.3111 0.6314,-0.5185 0.92131,-0.816 0.38008,-0.3088 0.76835,-0.6071 1.20289,-0.8375 0.41312,-0.2522 0.81431,-0.5198 1.21966,-0.7835 0.51859,-0.2621 1.01532,-0.5663 1.54484,-0.8059 0.65366,-0.3408 1.32233,-0.6544 1.98066,-0.9867 0.62586,-0.2956 1.26239,-0.5577 1.90002,-0.8253 0.69171,-0.3591 1.4085,-0.6678 2.10836,-1.0109 0.76202,-0.3669 1.55025,-0.6752 2.31569,-1.0351 0.76928,-0.3363 1.52343,-0.7147 2.26611,-1.1052 0.74542,-0.3832 1.50149,-0.7336 2.26205,-1.0842 0.68957,-0.3544 1.37684,-0.7132 2.06547,-1.0695 0.15526,-0.066 0.24936,0.153 0.0941,0.2195 z"
       inkscape:connector-curvature="0" />
    <path
       style="fill:#000000;fill-opacity:1;stroke:none"
       id="path3188"
       d="m 38.94194,1013.7621 c -0.4301,0.5432 -0.83504,1.1044 -1.27962,1.6365 -0.37428,0.5427 -0.87974,0.9658 -1.34656,1.4234 -0.42764,0.4379 -0.87734,0.8533 -1.34292,1.2506 -0.4916,0.3763 -1.05064,0.6479 -1.57463,0.974 -0.48167,0.2933 -1.0098,0.4958 -1.49862,0.7756 -0.52734,0.2998 -1.0682,0.5685 -1.61686,0.826 -0.52796,0.2938 -1.09333,0.5081 -1.6431,0.7576 -0.52331,0.2482 -1.02267,0.5416 -1.54756,0.7883 -0.45611,0.143 -0.83746,0.4313 -1.27869,0.6072 -0.38128,0.1744 -0.75928,0.3466 -1.13238,0.5384 -0.42742,0.2852 -0.92859,0.4051 -1.38908,0.6191 -0.46671,0.2296 -0.95494,0.4065 -1.43219,0.6102 -0.39533,0.1449 -0.77979,0.3045 -1.15328,0.4985 -0.35484,0.158 -0.72971,0.2732 -1.0775,0.447 -0.30524,0.1621 -0.59545,0.3524 -0.89259,0.5305 -0.34314,0.1451 -0.63802,0.3624 -0.92778,0.5912 -0.25006,0.2521 -0.53851,0.4697 -0.73533,0.7683 -0.19206,0.29 -0.42034,0.5501 -0.63952,0.819 -0.24342,0.2689 -0.56901,0.4288 -0.87215,0.616 -0.3106,0.2049 -0.6242,0.3968 -0.96169,0.557 -0.27133,0.1523 -0.5328,0.3192 -0.7653,0.5266 -0.12657,0.1119 -0.28477,-0.067 -0.15821,-0.1789 l 0,0 c 0.25109,-0.2202 0.5285,-0.4032 0.82129,-0.5636 0.33015,-0.1559 0.63552,-0.3441 0.93893,-0.5447 0.28147,-0.1719 0.58285,-0.3195 0.81217,-0.5636 0.21514,-0.2626 0.43819,-0.5172 0.62616,-0.801 0.21557,-0.3162 0.51234,-0.5577 0.78566,-0.8227 0.29773,-0.2348 0.60103,-0.459 0.95305,-0.6086 0.30282,-0.1811 0.59838,-0.3748 0.90953,-0.5397 0.34793,-0.1701 0.71768,-0.2921 1.07315,-0.4448 0.37899,-0.1969 0.76895,-0.3595 1.17004,-0.5064 0.47576,-0.2011 0.96047,-0.379 1.42519,-0.6071 0.45828,-0.2114 0.95482,-0.3328 1.38026,-0.6148 0.38005,-0.1953 0.76527,-0.3704 1.15361,-0.548 0.43713,-0.1719 0.81244,-0.4633 1.26512,-0.6013 0.526,-0.2468 1.02563,-0.5419 1.55037,-0.7896 0.54892,-0.2491 1.11329,-0.4629 1.64036,-0.7564 0.5429,-0.2547 1.07806,-0.5204 1.59982,-0.8171 0.48675,-0.2776 1.01056,-0.4816 1.49096,-0.7711 0.5141,-0.3195 1.06142,-0.587 1.54574,-0.9529 0.46146,-0.3936 0.90705,-0.8053 1.33076,-1.2394 0.46125,-0.452 0.96107,-0.8695 1.33046,-1.4059 0.44359,-0.5308 0.84712,-1.091 1.27639,-1.6326 0.10553,-0.1319 0.29207,0.017 0.18654,0.1492 z"
       inkscape:connector-curvature="0" />
    <path
       style="fill:#000000;fill-opacity:1;stroke:none"
       id="path3190"
       d="m 15.05283,1015.9545 c 0.43835,0.4213 0.87445,0.8442 1.33434,1.2422 0.38698,0.3587 0.8346,0.637 1.24775,0.9623 0.42525,0.3007 0.85679,0.5986 1.31426,0.8481 0.4957,0.2491 0.94738,0.5758 1.43746,0.8342 0.46351,0.2498 0.90244,0.5419 1.38492,0.755 0.53703,0.2586 1.06641,0.5293 1.60548,0.7838 0.57253,0.2648 1.14791,0.5259 1.7131,0.8063 0.69457,0.3159 1.39887,0.6116 2.08782,0.9396 0.69221,0.2943 1.37701,0.6 2.07262,0.8863 0.54197,0.1935 1.05183,0.4637 1.58955,0.6669 0.38759,0.1796 0.77833,0.3444 1.14929,0.5574 0.43244,0.2165 0.84641,0.4643 1.26428,0.7067 0.41301,0.2584 0.84036,0.4924 1.25444,0.7481 0.32663,0.1607 0.5704,0.4386 0.87842,0.6252 0.33807,0.2475 0.63874,0.5409 0.96228,0.8067 0.22292,0.1425 0.11241,0.067 0.33121,0.2267 0.13635,0.1 -0.005,0.2926 -0.14101,0.1929 l 0,0 c -0.21462,-0.1573 -0.10097,-0.078 -0.34197,-0.2352 -0.31469,-0.2593 -0.60916,-0.5429 -0.93554,-0.7875 -0.3066,-0.1905 -0.55523,-0.4602 -0.87924,-0.6257 -0.41117,-0.2559 -0.83815,-0.4865 -1.24853,-0.7446 -0.41752,-0.2425 -0.83139,-0.4897 -1.26349,-0.7062 -0.3596,-0.2074 -0.73924,-0.3655 -1.11474,-0.5411 -0.53959,-0.2048 -1.05211,-0.4742 -1.59587,-0.6694 -0.69955,-0.288 -1.38832,-0.5954 -2.08441,-0.8916 -0.68999,-0.3287 -1.39581,-0.6243 -2.09134,-0.9412 -0.56366,-0.28 -1.13781,-0.5401 -1.7089,-0.8043 -0.5373,-0.2538 -1.06516,-0.5232 -1.60025,-0.7814 -0.487,-0.2166 -0.93239,-0.5079 -1.39978,-0.7622 -0.4906,-0.2602 -0.94401,-0.5857 -1.44057,-0.8358 -0.46823,-0.2576 -0.91236,-0.56 -1.34736,-0.8701 -0.41566,-0.3279 -0.86692,-0.6077 -1.25621,-0.9693 -0.45749,-0.396 -0.89246,-0.8157 -1.32724,-1.2362 -0.1319,-0.1056 0.0173,-0.2921 0.14923,-0.1866 z"
       inkscape:connector-curvature="0" />
  </g>
</svg>
