<?xml version="1.0" encoding="UTF-8" standalone="no"?>
<!-- Created with Inkscape (http://www.inkscape.org/) -->

<svg
   xmlns:dc="http://purl.org/dc/elements/1.1/"
   xmlns:cc="http://creativecommons.org/ns#"
   xmlns:rdf="http://www.w3.org/1999/02/22-rdf-syntax-ns#"
   xmlns:svg="http://www.w3.org/2000/svg"
   xmlns="http://www.w3.org/2000/svg"
   xmlns:sodipodi="http://sodipodi.sourceforge.net/DTD/sodipodi-0.dtd"
   xmlns:inkscape="http://www.inkscape.org/namespaces/inkscape"
   width="128"
   height="128"
   id="svg2"
   version="1.1"
   inkscape:version="0.48.5 r10040"
   sodipodi:docname="anchor.svg"
   inkscape:export-filename="C:\Users\narfman0\Desktop\anchor.png"
   inkscape:export-xdpi="45"
   inkscape:export-ydpi="45">
  <defs
     id="defs4" />
  <sodipodi:namedview
     id="base"
     pagecolor="#ffffff"
     bordercolor="#666666"
     borderopacity="1.0"
     inkscape:pageopacity="0.0"
     inkscape:pageshadow="2"
     inkscape:zoom="4.961512"
     inkscape:cx="53.97242"
     inkscape:cy="62.857143"
     inkscape:document-units="px"
     inkscape:current-layer="layer1"
     showgrid="false"
     inkscape:window-width="1276"
     inkscape:window-height="872"
     inkscape:window-x="134"
     inkscape:window-y="132"
     inkscape:window-maximized="0" />
  <metadata
     id="metadata7">
    <rdf:RDF>
      <cc:Work
         rdf:about="">
        <dc:format>image/svg+xml</dc:format>
        <dc:type
           rdf:resource="http://purl.org/dc/dcmitype/StillImage" />
        <dc:title></dc:title>
      </cc:Work>
    </rdf:RDF>
  </metadata>
  <g
     inkscape:label="Layer 1"
     inkscape:groupmode="layer"
     id="layer1"
     transform="translate(0,-924.36218)">
    <path
       style="fill:#000000;fill-opacity:1;stroke:none"
       id="path2989"
       d="m 63.624591,925.85197 c -0.634981,0.0816 -1.262849,0.27844 -1.854386,0.53436 -0.632235,0.21753 -1.212454,0.56362 -1.806713,0.87245 -0.524756,0.31107 -1.09352,0.52399 -1.614614,0.84276 -0.07695,0.0423 -0.154978,0.0825 -0.230838,0.12692 -0.824762,0.48324 0.414634,-0.21289 -0.457684,0.24518 -0.07315,0.0384 -0.28368,0.17138 -0.212812,0.12843 2.046934,-1.24029 2.61174,-1.61088 1.773557,-1.06536 -0.390044,0.22089 -0.707177,0.54671 -1.047672,0.83901 -0.263115,0.22597 -0.500574,0.48211 -0.750058,0.72524 -0.224702,0.26825 -0.41801,0.5736 -0.597494,0.87858 -0.208604,0.33561 -0.302474,0.72276 -0.434294,1.09379 -0.133211,0.35483 -0.16212,0.73726 -0.239608,1.10724 -0.129252,0.41557 -0.248017,0.82904 -0.311133,1.26205 -0.0357,0.49785 -0.05881,0.99219 -0.13518,1.48546 -0.06919,0.40254 -0.09362,0.81069 -0.107424,1.21885 -0.01035,0.41642 -0.0092,0.83303 -0.0091,1.24956 -0.03343,0.3794 0.04961,0.74296 0.112775,1.11244 0.03711,0.34015 0.148862,0.66722 0.312647,0.96131 0.141349,0.33634 0.351486,0.62682 0.522918,0.94443 0.145426,0.2744 0.339281,0.48151 0.581432,0.65985 0.298462,0.1339 0.5666,0.32825 0.866264,0.45812 0.400679,0.13218 0.8011,0.24378 1.218195,0.30133 0.442299,0.0486 0.887669,0.0479 1.331828,0.0492 0.431083,1.3e-4 0.862156,-0.004 1.293237,-0.002 0.503531,0.003 1.007079,7.8e-4 1.510612,-6.4e-4 0.447189,-0.002 0.894372,2.7e-4 1.341561,1.4e-4 0.479128,0.009 0.931031,-0.19626 1.395233,-0.30295 0.367767,-0.15266 0.74563,-0.26828 1.100528,-0.45359 -0.193706,0.19367 0.793737,-0.45983 0.508039,-0.28535 -6.786308,4.14438 5.115734,-3.10918 -1.702298,1.02875 0.291519,-0.20614 0.586546,-0.40564 0.873335,-0.61907 0.276438,-0.26068 0.556002,-0.52068 0.781462,-0.83269 0.196129,-0.3094 0.340604,-0.65344 0.482758,-0.99353 0.194693,-0.33588 0.244904,-0.71425 0.279319,-1.09868 0.0293,-0.434 0.02759,-0.86944 0.02756,-1.30429 0.01049,-0.47153 -0.07583,-0.93633 -0.185899,-1.39075 -0.127767,-0.4505 -0.325476,-0.87165 -0.51266,-1.2964 -0.202303,-0.43555 -0.459673,-0.83788 -0.702348,-1.24847 -0.227847,-0.36119 -0.428215,-0.7403 -0.649471,-1.10528 -0.140728,-0.28336 -0.366043,-0.49961 -0.522525,-0.77113 -0.193713,-0.28252 -0.361241,-0.58463 -0.565583,-0.85895 -0.177734,-0.29591 -0.363594,-0.58379 -0.555664,-0.8694 -0.158324,-0.30828 -0.396939,-0.53332 -0.622748,-0.78291 -0.2089,-0.26365 -0.406942,-0.54094 -0.640933,-0.78064 -0.193385,-0.23369 -0.395618,-0.46074 -0.642254,-0.63218 -0.28882,-0.25774 -0.555045,-0.54109 -0.848863,-0.7926 -0.04939,-0.0426 -0.09879,-0.0855 -0.148182,-0.12805 0,0 2.158831,-1.43128 2.158831,-1.43128 l 0,0 c 0.05031,0.0434 0.100629,0.0868 0.150943,0.13015 0.280737,0.25634 0.54867,0.5287 0.840342,0.77117 0.248648,0.19496 0.466657,0.42428 0.668994,0.6718 0.224854,0.2503 0.42829,0.52072 0.638874,0.78431 0.238388,0.25483 0.471603,0.50565 0.646042,0.81621 0.190647,0.28246 0.366852,0.57295 0.54488,0.86404 0.205095,0.28588 0.39181,0.58569 0.586034,0.87985 0.156935,0.2683 0.384919,0.48488 0.517175,0.77163 0.214196,0.36986 0.412064,0.75032 0.639815,1.11187 0.247057,0.42077 0.511794,0.83119 0.72002,1.27612 0.191462,0.44065 0.397343,0.87514 0.533599,1.33999 0.115499,0.47297 0.218792,0.95754 0.22018,1.44813 2.5e-4,0.44158 0.0018,0.88348 -0.01983,1.32461 -0.02589,0.40436 -0.04125,0.82718 -0.227219,1.19116 -0.186858,0.32553 -0.288985,0.70331 -0.472727,1.03273 -0.218703,0.33676 -0.47029,0.61423 -0.75167,0.89378 -0.256853,0.25933 -0.574614,0.43358 -0.867949,0.64273 -0.775794,0.48254 -1.56943,0.93433 -2.327384,1.4476 -0.653372,0.44247 2.683498,-1.64845 2.01338,-1.23497 -0.928846,0.57315 -1.860755,1.23852 -2.860677,1.70327 -0.367776,0.15658 -0.741419,0.3009 -1.125045,0.40784 -0.471362,0.12171 -0.937739,0.29388 -1.430572,0.25489 -0.447321,-1.3e-4 -0.894636,0.002 -1.341957,2.4e-4 -0.503681,-10e-4 -1.007384,-0.003 -1.511053,9.9e-4 -0.431345,0.003 -0.862718,0.003 -1.294064,-1.2e-4 -0.452406,-0.005 -0.907078,-0.007 -1.355433,-0.0789 -0.430797,-0.079 -0.852425,-0.20025 -1.264087,-0.35665 -0.305286,-0.15692 -0.605983,-0.32765 -0.900494,-0.50549 -0.255641,-0.21476 -0.474803,-0.45064 -0.631443,-0.75768 -0.169915,-0.31703 -0.381536,-0.60666 -0.522033,-0.94191 -0.175232,-0.3215 -0.317138,-0.67301 -0.355988,-1.04472 -0.06243,-0.38451 -0.164472,-0.76173 -0.128873,-1.15641 -4.73e-4,-0.41893 -0.0019,-0.83789 0.0049,-1.25677 0.0099,-0.41906 0.02602,-0.83908 0.09363,-1.253 0.08147,-0.49114 0.143694,-0.97599 0.142993,-1.47652 0.04094,-0.44175 0.131289,-0.87255 0.295371,-1.28302 0.08237,-0.37946 0.117654,-0.76529 0.221044,-1.1394 0.13557,-0.37873 0.22822,-0.77497 0.420842,-1.12818 0.154021,-0.34153 0.395058,-0.61991 0.564756,-0.95178 0.242411,-0.26404 0.517584,-0.48127 0.744224,-0.76167 0.368382,-0.26347 0.656569,-0.62718 1.042499,-0.86519 1.149087,-0.71118 2.287396,-1.43934 3.470997,-2.0836 0.532627,-0.28831 1.089281,-0.52459 1.614614,-0.82886 0.593987,-0.31092 1.185359,-0.62991 1.817122,-0.84904 0.62186,-0.23218 1.261545,-0.4152 1.91485,-0.51629 0,0 -2.043326,1.62555 -2.043326,1.62555 z"
       inkscape:connector-curvature="0" />
    <path
       style="fill:#000000;fill-opacity:1;stroke:none"
       id="path2991"
       d="m 61.221987,941.99687 c -0.0524,0.48082 -0.12248,0.95844 -0.161308,1.44113 -0.06707,0.43586 -0.150085,0.86691 -0.19301,1.30697 -0.03824,0.46471 -0.04102,0.93153 -0.04268,1.39771 -1.25e-4,0.4469 0.0017,0.8938 0.0026,1.34069 -4.68e-4,0.3996 0.04593,0.80047 -0.12445,1.16687 -0.926336,1.17558 -2.094358,1.6455 -3.367506,1.50638 -0.674623,-0.0684 -1.345964,-0.18154 -2.008873,-0.33308 -0.673524,-0.16381 -1.361442,-0.22126 -2.049284,-0.25468 -0.743295,-0.0117 -1.482192,-0.0233 -2.222689,-0.0946 -0.690145,-0.0747 -1.382834,-0.10831 -2.07599,-0.12455 -0.640896,-0.0146 -1.281988,-0.0104 -1.922981,-0.0104 -0.528815,0.0223 -1.062851,-0.0383 -1.587987,0.0397 -0.499999,0.053 -0.976029,0.21431 -1.472472,0.29547 -0.478818,0.17272 -0.987092,0.18655 -1.474958,0.30698 -0.435667,0.0806 -0.845258,0.25578 -1.281802,0.33089 -0.463471,0.0314 -0.916233,0.12109 -1.374811,0.19398 -0.548689,0.0721 -1.088326,0.19996 -1.639488,0.25627 -0.532805,0.12607 -1.073753,0.19361 -1.617175,0.23304 -0.52311,0.0315 -1.047311,0.0301 -1.571052,0.0314 -0.454492,10e-4 -0.908987,10e-4 -1.363481,0.002 -0.439782,-0.002 -0.879562,-0.002 -1.319347,-9.9e-4 -0.452799,-9.3e-4 -0.905594,-9.7e-4 -1.358395,-1.6e-4 -0.407486,8.4e-4 -0.814973,9.9e-4 -1.222459,9.9e-4 -0.368865,-0.0448 -0.710179,0.0395 -1.066533,0.11869 -0.788323,0.44377 -0.701852,0.39713 1.902886,-1.16758 0.0365,-0.0219 -0.07148,0.0482 -0.100945,0.0802 -0.105971,0.11496 -0.13352,0.26894 -0.166366,0.41984 -0.05569,0.39766 -0.048,0.80173 -0.04737,1.20279 0.0022,0.42234 0.0042,0.84467 0.0054,1.267 0.0282,0.32223 -0.09815,0.74139 0.130446,0.99789 0.280504,0.17999 0.58704,0.25268 0.906659,0.29737 0.412838,0.0422 0.82821,0.04 1.242482,0.0407 0.501336,10e-4 1.002652,-0.002 1.50399,-3e-4 0.606439,7.1e-4 1.212878,8.2e-4 1.819317,0.002 0.681426,-0.0355 1.355277,0.0357 2.032173,0.10631 0.64841,0.0682 1.299827,0.0865 1.950799,0.0983 0.626261,0.008 1.252592,0.005 1.878888,0.006 0.586322,0.0679 1.171424,0.13966 1.760337,0.17586 0.527373,0.0294 1.046818,0.14239 1.573229,0.19314 0.506257,0.009 1.001895,0.12064 1.503154,0.1865 0.49865,0.0559 1.000312,0.0644 1.501169,0.0694 0.560159,-0.031 1.110575,0.0404 1.665116,0.11107 0.524818,0.0298 1.035777,0.16219 1.555717,0.23462 0.538145,0.0617 1.07972,0.0709 1.620359,0.0758 0.505451,-0.0333 0.997897,0.0306 1.495955,0.11015 0.397957,0.0649 0.800184,0.0828 1.201939,0.0927 0.387337,0.006 0.774741,0.005 1.162112,0.005 0.368387,0.0444 0.709287,-0.0405 1.065144,-0.11967 -0.09847,0.12813 0.397142,-0.15143 0.30521,-0.0947 -4.801735,2.9618 -0.39631,0.20456 0.294306,-0.15227 0.04526,-0.0234 0.06973,0.078 0.104594,0.11702 0.154227,0.29905 0.137604,0.65369 0.08367,0.98088 -0.06229,0.38852 -0.177232,0.76278 -0.255454,1.1472 -0.08817,0.54192 -0.09644,1.09388 -0.103655,1.64258 -0.0035,0.48285 -2.27e-4,0.96572 0.0016,1.44857 0.0016,0.42325 0.0019,0.84649 0.0022,1.26975 1.58e-4,0.41958 1.25e-4,0.83918 1.15e-4,1.25878 -2.9e-4,0.52407 -0.0067,1.04813 -0.0072,1.5722 0.0024,0.56105 0.0035,1.12209 0.0013,1.68314 -6.05e-4,0.58916 -9.65e-4,1.17834 -1.23e-4,1.7675 0.0018,0.49424 0.004,0.98848 0.0052,1.48271 -0.0035,0.48239 -0.0016,0.96481 -5.13e-4,1.4472 9.29e-4,0.43224 0.0013,0.86447 0.0014,1.29671 0.0017,0.4406 -0.0013,0.8812 -0.0025,1.32179 -2.12e-4,0.46544 0.0012,0.93085 0.0019,1.39628 -0.01291,0.54644 0.01317,1.09368 -0.02295,1.63902 -0.05796,0.50338 -0.11561,1.00627 -0.146703,1.51254 -0.02446,0.46844 -0.027,0.93769 -0.02759,1.40673 0.003,0.45465 0.01644,0.90668 -0.04384,1.35752 -0.08787,0.52024 -0.116557,1.04854 -0.135711,1.57601 -0.02818,0.47189 -0.146088,0.92728 -0.250823,1.38376 -0.07898,0.47875 -0.137695,0.95936 -0.223111,1.43717 -0.08199,0.48665 -0.103267,0.98043 -0.168643,1.46967 -0.05084,0.53029 -0.167716,1.04808 -0.247795,1.5732 -0.06587,0.45303 -0.08256,0.91152 -0.09158,1.36922 -0.03752,0.43628 -0.105324,0.87046 -0.204087,1.29543 -0.105557,0.40313 -0.147988,0.81857 -0.17177,1.23524 -0.01803,0.41783 -0.01669,0.83627 -0.01666,1.25446 5.6e-4,0.42037 0.0013,0.84076 0.0017,1.26114 0.02421,0.48858 -0.04904,0.96891 -0.110848,1.4506 -0.05501,0.42596 -0.07063,0.85585 -0.07964,1.28529 -0.0062,0.41943 -0.005,0.83892 -0.0047,1.25838 0.02867,0.43207 -0.04698,0.85433 -0.108065,1.27858 -0.05825,0.4123 -0.0726,0.8292 -0.08158,1.2455 -0.0064,0.4195 -0.0052,0.8391 -0.0048,1.2586 5.16e-4,0.4205 8.12e-4,0.8409 9.65e-4,1.2614 1.32e-4,0.4203 1.32e-4,0.8406 1.37e-4,1.2612 0,0.4203 -4e-6,0.8408 -7e-6,1.2611 0.0016,0.4408 -0.0014,0.8816 -0.0026,1.3223 -0.0024,0.5169 -0.0018,1.0337 -8e-5,1.5504 -0.0052,0.4489 0.01855,0.8988 -0.01428,1.3465 -0.06403,0.445 -0.120855,0.8907 -0.202941,1.3323 -0.09171,0.4533 -0.1331,0.9148 -0.155757,1.3775 -0.0039,0.4332 -0.09724,0.8567 -0.149275,1.2846 -0.04561,0.4136 -0.05269,0.8305 -0.05772,1.2466 -0.0285,0.3699 -0.113188,0.7303 -0.153533,1.099 -0.03655,0.4024 -0.0391,0.8072 -0.04203,1.2113 -0.0082,0.4169 0.01431,0.8347 -0.01418,1.2508 -0.03986,0.3792 -0.191888,0.7199 -0.373084,1.0413 -0.715359,0.8931 -2.139874,1.4977 -2.89343,1.9569 -0.373356,0.1372 -0.772554,0.088 -1.152538,0.1734 -0.378534,0.098 -0.765543,0.1365 -1.153184,0.1583 -0.387518,0.017 -0.775433,0.016 -1.16318,0.016 -0.361654,0.1211 -0.750289,0.099 -1.108869,0.2215 -0.337236,0.1263 -0.692092,0.1614 -1.0458,0.1836 -0.400688,0.02 -0.801864,0.015 -1.202814,0.014 -0.449553,3e-4 -0.899098,0 -1.348647,0 -0.496409,0 -0.992822,6e-4 -1.489232,-9e-4 -0.501847,0.031 -0.994912,-0.078 -1.491256,-0.1396 -0.458342,-0.1376 -0.9268,-0.2105 -1.400079,-0.2499 -0.514761,0.01 -1.018002,-0.1067 -1.526878,-0.1729 -0.474732,-0.014 -0.928231,-0.1406 -1.381016,-0.2825 -0.418304,-0.114 -0.84139,-0.2191 -1.24831,-0.3754 -0.457177,-0.215 -0.931936,-0.3796 -1.401945,-0.5579 -0.505085,-0.207 -1.000023,-0.4246 -1.488623,-0.6728 -0.47496,-0.2318 -0.967852,-0.4101 -1.453852,-0.6103 -0.486462,-0.1951 -0.95523,-0.4199 -1.425915,-0.6542 -0.40665,-0.1991 -0.838287,-0.3282 -1.235735,-0.5478 -0.343226,-0.181 -0.707128,-0.3235 -1.03832,-0.5292 -0.302037,-0.1194 -0.574982,-0.2665 -0.8549,-0.4377 -0.290029,-0.178 -0.609124,-0.3044 -0.880371,-0.5162 -0.355126,-0.2393 -0.721445,-0.4606 -1.088852,-0.6778 -0.307654,-0.2339 -0.64313,-0.4146 -0.958255,-0.6361 -0.305941,-0.2105 -0.581958,-0.4621 -0.869091,-0.6996 -0.270308,-0.2023 -0.522585,-0.4296 -0.78528,-0.6428 -0.260332,-0.2048 -0.4452,-0.4997 -0.717388,-0.6865 -0.2404,-0.2279 -0.445261,-0.4951 -0.69968,-0.708 -0.257197,-0.2251 -0.491055,-0.4794 -0.744762,-0.7084 -0.266461,-0.1469 -0.468527,-0.3839 -0.69893,-0.5827 -0.204873,-0.256 -0.492304,-0.3811 -0.76844,-0.5225 -0.309583,-0.1897 -0.644273,-0.339 -0.984935,-0.4508 -0.298144,-0.2037 -0.652576,-0.2265 -0.974398,-0.3522 -0.05016,-0.018 -0.102386,-0.03 -0.150509,-0.055 -0.09395,-0.046 -0.176623,-0.1167 -0.269937,-0.1645 -0.135601,-0.07 -0.27369,-0.1043 -0.408331,-0.1777 -0.309306,-0.1167 -0.598581,-0.2719 -0.88836,-0.4351 -0.327867,-0.1478 -0.673372,-0.243 -1.005021,-0.3794 -0.382004,-0.1127 -0.71291,-0.3504 -1.074054,-0.5149 -0.345587,-0.1517 -0.665476,-0.3285 -0.987272,-0.5311 -0.332616,-0.2173 -0.676093,-0.3983 -1.005897,-0.6221 -0.3143,-0.1902 -0.6442217,-0.3394 -0.9708607,-0.5016 -0.2879193,-0.1925 -0.5554496,-0.4174 -0.8420718,-0.6138 -0.254668,-0.2192 -0.5053383,-0.4396 -0.7791087,-0.632 -0.2615349,-0.1615 -0.5387358,-0.2876 -0.7783965,-0.487 -0.3155813,-0.1974 -0.5922168,-0.4486 -0.884936,-0.6803 -0.283251,-0.2521 -0.6083048,-0.4359 -0.9108478,-0.6554 -0.2740449,-0.2036 -0.5155723,-0.4493 -0.7735392,-0.6743 -0.2402911,-0.1638 -0.4476977,-0.382 -0.6606865,-0.5862 -0.1238996,-0.088 -0.3073192,-0.2385 -0.4691112,-0.1733 -0.033455,0.014 -0.1161069,0.09 -0.084826,0.071 0.6934177,-0.4122 1.3815301,-0.8347 2.0722952,-1.252 -0.2572038,0.2287 -0.3107316,0.6384 -0.3853483,0.9705 -0.1364606,0.5223 -0.2700087,1.0453 -0.4057152,1.5679 -0.1800326,0.5095 -0.2866659,1.037 -0.38524,1.5697 -0.1178275,0.5591 -0.2662953,1.1068 -0.3462728,1.6745 -0.072137,0.6366 -0.1463287,1.2741 -0.2376778,1.908 -0.1174625,0.6598 -0.1755903,1.328 -0.209603,1.998 -0.010698,0.625 -0.1036804,1.2434 -0.1582191,1.8649 -0.028736,0.5676 -0.1296234,1.1263 -0.1880011,1.6907 -0.052656,0.5184 -0.043612,1.0401 -0.082029,1.5593 -0.062282,0.5516 -0.115882,1.1039 -0.1485403,1.6587 -0.026146,0.5633 -0.02573,1.1276 -0.026441,1.6916 5.5e-4,0.5569 -1.13e-4,1.1137 5.98e-4,1.6707 0.00124,0.5603 -4.63e-5,1.1205 3.892e-4,1.6808 -0.020509,0.4881 0.012136,0.967 0.083381,1.4481 0.1174904,0.4051 0.1753279,0.8269 0.2781594,1.235 0.1014725,0.3624 0.1739475,0.7314 0.2970825,1.0866 0.1476215,0.3976 0.2558095,0.8125 0.4105316,1.2068 0.1414708,0.3187 0.3099806,0.6216 0.4482585,0.9436 0.1922822,0.3738 0.3581242,0.7627 0.5797782,1.1186 0.217275,0.3917 0.4524179,0.771 0.7047708,1.1376 0.291708,0.3923 0.539206,0.8191 0.8692806,1.1763 0.323758,0.4124 0.7125564,0.7513 1.0542263,1.145 0.2828869,0.323 0.5717942,0.6478 0.9143064,0.8977 0.3003263,0.2812 0.6196083,0.5362 0.922283,0.8148 0.4026983,0.2975 0.7690083,0.6494 1.1747583,0.9406 0.38976,0.298 0.769412,0.6095 1.158191,0.9096 0.441185,0.3224 0.863204,0.6756 1.301643,1.0021 0.39461,0.3182 0.794731,0.6283 1.186669,0.9505 0.365621,0.2878 0.765765,0.5132 1.158227,0.7531 0.386886,0.2765 0.798196,0.5104 1.188061,0.7822 0.37151,0.2153 0.754246,0.412 1.140944,0.5941 0.396885,0.1632 0.781025,0.3644 1.165659,0.5599 0.368611,0.1254 0.705782,0.324 1.053521,0.5016 0.404422,0.1451 0.804813,0.2992 1.20868,0.4451 0.40539,0.2008 0.84015,0.3146 1.270061,0.4356 0.48538,0.2312 0.992533,0.3797 1.498721,0.543 0.547289,0.1657 1.104915,0.2812 1.658693,0.4176 0.618051,0.1472 1.226966,0.3189 1.855532,0.4085 0.555481,0.1159 1.111604,0.2222 1.656118,0.3896 0.49783,0.1755 1.012626,0.2492 1.532676,0.2853 0.497245,0.1078 0.999805,0.1685 1.505432,0.2027 0.443802,0.11 0.901153,0.1395 1.34481,0.2445 0.476086,0.1223 0.964,0.1617 1.451252,0.1868 0.553295,-0.015 1.097368,0.056 1.645074,0.1273 0.590708,0.039 1.17461,0.1283 1.761775,0.2044 0.648876,0.062 1.296374,0.091 1.943115,0.1759 0.659159,0.09 1.32303,0.1184 1.986677,0.1351 0.689355,-0 1.373168,0 2.058825,0.08 0.669899,0.052 1.329854,0.1846 1.996999,0.2639 0.693429,0.077 1.381569,0.19 2.077628,0.2448 0.668864,0.066 1.342756,0.1298 2.006629,0.2445 0.698292,0.097 1.3866,0.2524 2.085684,0.344 0.649967,0.042 1.291451,0.1599 1.939022,0.2286 0.636407,0.1256 1.278115,0.2078 1.923492,0.251 0.626974,0.056 1.260675,0.1127 1.881444,0.2278 0.652804,0.096 1.294903,0.2498 1.948183,0.343 0.626417,0.082 1.258367,0.084 1.888376,0.094 0.639335,9e-4 1.278687,0 1.918025,10e-5 0.630183,-0.037 1.252714,0.073 1.878395,0.1348 0.587944,0.052 1.178024,0.064 1.767649,0.07 0.574517,0.09 1.151661,0.1482 1.731241,0.182 0.550972,0.028 1.102652,0.028 1.654093,0.031 0.589745,0.016 1.17456,0.1186 1.764043,0.1621 0.610401,0.04 1.213277,0.1549 1.823252,0.2087 0.585966,0.044 1.173605,0.046 1.760679,0.051 0.622386,-0.015 1.238856,0 1.857373,0.07 0.639502,0.085 1.283202,0.1123 1.926715,0.1285 0.634585,0.011 1.269304,0.011 1.903964,0.014 0.63881,0 1.277617,0 1.916424,-0.011 0.525817,0 1.051639,-10e-4 1.577458,-10e-4 0.537756,2e-4 1.075496,0 1.613253,-3e-4 0.489699,0 0.979399,-10e-4 1.469097,0 0.483524,0 0.96705,0 1.450575,0 0.515747,9e-4 1.031498,0 1.547247,5e-4 0.525072,-0.08 1.051707,-0.1407 1.580596,-0.1803 0.461383,-0.1032 0.910031,-0.2559 1.373134,-0.3524 0.423975,-0.065 0.844877,-0.088 1.264374,-0.1793 0.396907,-0.044 0.778524,-0.1522 1.168169,-0.2382 0.392044,-0.06 0.779524,-0.09 1.166699,-0.1795 0.389946,-0.1022 0.768949,-0.2316 1.168645,-0.2932 0.431835,-0.099 0.859501,-0.1943 1.286391,-0.3114 0.38762,-0.1625 0.79131,-0.2706 1.15579,-0.4896 0.39938,-0.1744 0.81764,-0.2933 1.21854,-0.4619 0.25247,-0.1833 0.55618,-0.2337 0.82145,-0.385 0.44029,-0.251 -0.0738,0 0.40774,-0.2239 0.0647,-0.042 0.25939,-0.1666 0.19394,-0.1262 -4.33709,2.6857 -0.32635,0.211 1.07406,-0.6345 0.75656,-0.4351 2.01165,-1.2303 -1.36614,0.867 -0.0954,0.06 0.19197,-0.1165 0.28554,-0.1791 0.0688,-0.046 0.51555,-0.3683 0.57986,-0.4146 0.46723,-0.3511 0.95998,-0.6585 1.40125,-1.0482 0.40653,-0.3602 0.82095,-0.7097 1.23126,-1.065 0.41576,-0.3173 0.81124,-0.662 1.20078,-1.0158 0.36599,-0.2984 0.70775,-0.629 1.06932,-0.9331 0.31516,-0.2703 0.62991,-0.5421 0.94147,-0.8176 0.33797,-0.298 0.66128,-0.6134 0.98673,-0.927 0.26952,-0.2827 0.55196,-0.5449 0.85513,-0.7845 0.34947,-0.3215 0.70175,-0.6428 1.0384,-0.9806 0.30694,-0.3277 0.58361,-0.6848 0.85972,-1.0424 0.28853,-0.3696 0.52125,-0.7815 0.75375,-1.193 0.19055,-0.3659 0.40816,-0.7139 0.60687,-1.0747 0.22267,-0.3382 0.44571,-0.6778 0.68083,-1.0064 0.28268,-0.4105 0.56529,-0.8205 0.86047,-1.2209 0.29472,-0.4161 0.58234,-0.8382 0.84164,-1.2812 0.15475,-0.3487 0.34205,-0.6765 0.52445,-1.0081 0.1725,-0.3436 0.31818,-0.7017 0.49811,-1.0409 0.16783,-0.3186 0.30699,-0.6497 0.44421,-0.9843 0.16276,-0.3853 0.33645,-0.7648 0.52545,-1.1356 0.14096,-0.3885 0.3452,-0.7418 0.52516,-1.1095 0.15985,-0.3137 0.30567,-0.6335 0.48525,-0.9351 0.23235,-0.3605 0.42847,-0.7453 0.63094,-1.1255 0.16406,-0.3072 0.34422,-0.6093 0.46683,-0.9394 0.10734,-0.3047 0.21734,-0.6079 0.35815,-0.8966 0.19041,-0.3009 0.37805,-0.6029 0.52766,-0.9302 0.12658,-0.3255 0.31376,-0.6148 0.47025,-0.9228 0.15256,-0.2799 0.29324,-0.5665 0.44442,-0.8476 0.17641,-0.3387 0.221,-0.7212 0.25001,-1.1018 0.0479,-0.3659 0.13118,-0.7233 0.17122,-1.091 0.0358,-0.403 0.0377,-0.8083 0.0401,-1.2128 9.7e-4,-0.4204 3e-4,-0.8406 -1.6e-4,-1.261 -4.6e-4,-0.4206 -5.7e-4,-0.8411 -6.3e-4,-1.2618 -5e-5,-0.4204 -4e-5,-0.8409 -4e-5,-1.2612 1e-5,-0.4204 1e-5,-0.8408 1e-5,-1.2611 0,-0.4205 0,-0.8408 0,-1.2612 -0.0305,-0.3927 0.0384,-0.7717 0.10526,-1.1543 0.0694,-0.3886 0.0636,-0.7856 0.10183,-1.1776 0.0502,-0.3998 0.12609,-0.7908 0.23168,-1.1773 0.10017,-0.3658 0.12206,-0.7469 0.13708,-1.1257 0.0115,-0.4163 0.01,-0.8327 0.01,-1.2489 -0.0282,-0.3728 0.0652,-0.7743 -0.0615,-1.1304 -0.12493,-0.1396 -0.39756,0.1345 -0.52966,0.2129 3.87667,-2.3768 1.92383,-1.2928 1.14664,-0.5837 -0.34613,0.3008 -0.72632,0.548 -1.07914,0.8393 -0.36425,0.2745 -0.72331,0.5558 -1.07532,0.8485 -0.33422,0.2718 -0.65928,0.5552 -1.01074,0.8008 -0.36318,0.2725 -0.72313,0.5489 -1.09341,0.8103 -1.01161,0.7188 -2.01618,1.509 -3.15141,1.9721 -0.29495,0.1782 -0.6038,0.3069 -0.89074,0.5021 -0.34076,0.1989 -0.69186,0.377 -1.03077,0.58 -0.413,0.2023 -0.8035,0.4526 -1.21495,0.6584 -0.29902,0.1709 -0.1482,0.09 -0.45235,0.2414 -0.0722,0.042 -0.28722,0.1683 -0.21652,0.1241 0.63658,-0.3983 2.54995,-1.5864 1.91431,-1.1863 -2.2753,1.4319 -1.52276,1.064 -2.54264,1.5496 -0.39583,0.1984 -0.78376,0.4157 -1.18269,0.6069 -0.33566,0.1331 -0.65099,0.3144 -0.97116,0.4836 -0.30443,0.181 -0.65855,0.224 -0.97133,0.374 -0.38766,0.1128 -0.76188,0.2663 -1.13902,0.4164 -0.45519,0.092 -0.87186,0.3085 -1.31169,0.4586 -0.47553,0.1153 -0.94347,0.2625 -1.40965,0.4153 -0.3892,0.188 -0.80218,0.3029 -1.20834,0.4381 -0.37398,0.1849 -0.77382,0.2919 -1.16578,0.4213 -0.35728,0.206 -0.7614,0.295 -1.1479,0.419 -0.45406,0.1042 -0.89836,0.2519 -1.34149,0.4004 -0.46821,0.093 -0.93425,0.2038 -1.40484,0.2883 -0.51252,0.152 -1.034896,0.2378 -1.563527,0.2839 -0.527153,0.052 -1.049273,0.1468 -1.577555,0.1972 -0.522203,0.1166 -1.049673,0.1853 -1.581001,0.2267 -0.52504,0.06 -1.063613,0.1048 -1.580444,0.2272 -0.507742,0.1379 -1.032377,0.1748 -1.553257,0.2058 -0.479122,0.021 -0.958865,0.02 -1.43831,0.021 -0.457321,0.076 -0.914967,0.1422 -1.37628,0.1798 -0.501801,0.023 -1.004245,0.025 -1.506429,0.028 -0.465769,4e-4 -0.931541,-4e-4 -1.397314,1e-4 -0.453718,0 -0.907431,0 -1.361151,-5e-4 -0.441164,0.011 -0.883464,-0.027 -1.321755,0.034 -0.471339,0.08 -0.945234,0.1323 -1.421347,0.1605 -0.400582,0.02 -0.801666,0.02 -1.202561,0.02 -0.399082,-0.034 -0.78272,0.091 -1.17655,0.1384 -0.440077,0.05 -0.882571,0.062 -1.324647,0.068 -0.397396,0 -0.794818,0 -1.192226,0 -0.418715,-0.023 -0.827573,0.083 -1.24192,0.1375 -0.424703,0.034 -0.851753,0.1042 -1.256765,0.2493 -0.387617,0.1269 -0.785179,0.1947 -1.176855,0.3037 -0.363641,0.05 -0.693693,0.2152 -1.052106,0.2911 -0.291067,0.1723 -0.614716,0.2223 -0.939947,0.2547 -0.295172,0.1545 -0.635147,0.1309 -0.934786,0.2549 -0.300936,0.084 -0.559743,0.2522 -0.86483,0.3262 -0.333925,0.1043 -0.645551,0.2662 -0.976546,0.3777 -0.302504,0.1609 -0.631489,0.2876 -0.910858,0.493 -0.04564,0.026 -0.08983,0.056 -0.136922,0.077 -0.393318,0.1875 0.08075,-0.076 -0.2683,0.1484 -0.04209,0.027 -0.17336,0.099 -0.130951,0.072 2.131169,-1.3327 2.651799,-1.7419 1.908495,-1.1667 -8.322955,5.1982 1.777942,-1.1131 -0.242955,0.1588 -0.527709,0.3321 -1.986179,2.2087 -2.527871,1.0968 -0.100839,-0.3806 -0.08948,-0.7868 -0.0626,-1.1781 0.082,-0.5298 0.117637,-1.0656 0.178291,-1.5983 0.07748,-0.4929 0.139772,-0.9875 0.172718,-1.4863 0.06689,-0.4691 0.142903,-0.9348 0.1819,-1.4084 0.04245,-0.5375 0.02557,-1.0773 0.06229,-1.6148 0.07146,-0.6096 0.123563,-1.2205 0.150324,-1.8342 1.58e-4,-0.4853 0.09993,-0.9602 0.154556,-1.4399 0.05025,-0.475 0.0551,-0.9535 0.05903,-1.431 0.002,-0.4388 2.82e-4,-0.8775 -4.98e-4,-1.3163 -7.31e-4,-0.4207 -9.06e-4,-0.8412 -0.0011,-1.262 -0.02868,-0.4401 0.05069,-0.8702 0.111729,-1.3024 0.07086,-0.5803 0.08025,-1.1662 0.0874,-1.7504 0.0034,-0.5186 -2.8e-4,-1.0372 -0.0023,-1.5557 0.0028,-0.527 0.0033,-1.0538 0.0016,-1.58065 0.03652,-0.50622 0.114473,-1.00683 0.15359,-1.51314 0.03611,-0.5273 0.0408,-1.05623 0.04235,-1.58471 4.79e-4,-0.48409 -0.0047,-0.96815 -0.0023,-1.45223 5.45e-4,-0.51937 0.0018,-1.03874 2.5e-4,-1.55812 -0.0013,-0.50576 -0.0015,-1.01156 0.0012,-1.51732 -0.0058,-0.58837 -0.007,-1.17324 0.05263,-1.7584 0.07088,-0.59272 0.106668,-1.18889 0.126497,-1.78585 0.04444,-0.47615 0.129815,-0.94529 0.169687,-1.42221 0.03459,-0.50354 0.03813,-1.00863 0.03941,-1.5133 -0.002,-0.48329 4.8e-4,-0.96656 -2.91e-4,-1.44987 0.0071,-0.52057 -0.01705,-1.04205 0.01882,-1.56145 0.06932,-0.50464 0.102032,-1.01434 0.168099,-1.51913 0.09546,-0.52444 0.147228,-1.05523 0.177484,-1.58815 0.0244,-0.57913 0.09574,-1.15651 0.210375,-1.72268 0.10279,-0.42819 0.156474,-0.86522 0.183609,-1.30573 0.01089,-0.44515 0.108127,-0.87967 0.155709,-1.32093 0.05348,-0.56809 0.05575,-1.13973 0.05822,-1.71016 -0.0012,-0.47691 -3.89e-4,-0.95381 5.4e-5,-1.43073 0.02626,-0.43511 0.113805,-0.86116 0.152693,-1.29518 0.07723,-0.49874 0.155185,-0.99536 0.196413,-1.4995 0.03652,-0.49845 0.03833,-0.99863 0.03946,-1.49829 -0.0019,-0.4722 7.24e-4,-0.94438 7.2e-5,-1.41657 -0.0013,-0.45599 -0.0024,-0.912 -0.003,-1.368 -0.01305,-0.4081 0.02408,-0.81963 -0.0178,-1.22594 -0.07482,-0.36521 -0.124632,-0.73362 -0.152133,-1.1063 -0.0115,-0.36447 -0.11103,-0.71547 -0.160927,-1.07503 -0.0098,-0.36592 -0.102218,-0.71561 -0.167174,-1.07216 -0.05186,-0.34913 -0.161679,-0.68142 -0.217669,-1.03046 -0.02511,-0.37215 -0.06801,-0.73467 -0.141557,-1.09902 -0.07076,-0.36633 -0.133435,-0.73106 0.01512,-1.08081 0.88531,-1.23573 1.997717,-1.52878 3.218471,-1.53851 0.527076,9.9e-4 1.054152,0.002 1.581228,0.003 0.494347,0.003 0.988703,0.004 1.483056,0.004 0.498733,-5.2e-4 0.997467,8e-4 1.496202,7.2e-4 0.527075,-5.7e-4 1.054145,9.9e-4 1.581221,2.5e-4 0.442859,-0.072 0.884308,-0.14708 1.330975,-0.1853 0.392884,-0.028 0.786806,-0.0291 1.180366,-0.0303 0.391048,0.0182 0.769247,0.002 1.152675,-0.0764 0.387418,-0.082 0.781515,-0.10819 1.17515,-0.12382 0.389959,-0.0114 0.780113,-0.0104 1.17018,-0.0104 0.39386,0.0408 0.769221,-0.0414 1.154234,-0.11176 0.371576,-0.0141 0.717298,-0.12309 1.075623,-0.21228 0.355643,-0.0757 0.719095,-0.0848 1.080297,-0.093 0.386967,-0.005 0.773987,-0.004 1.160978,-0.003 0.389238,8e-4 0.778476,9.9e-4 1.167714,9.9e-4 0.435326,0.002 0.870651,0.002 1.305982,0.002 0.386721,0.0441 0.746775,-0.037 1.120956,-0.11949 0.355777,-0.0698 0.718019,-0.0804 1.078552,-0.089 0.386709,-0.006 0.773481,-0.005 1.160218,-0.004 0.183075,-0.0138 0.376234,0.0386 0.552336,-0.0403 0.04514,-0.0203 0.165067,-0.11296 0.122427,-0.0871 -2.036835,1.23248 -2.618245,1.81214 -1.944967,1.15599 0.174463,-0.31237 0.160159,-0.69714 0.167156,-1.05051 0.0034,-0.4304 -0.0035,-0.86078 -0.0023,-1.29119 -0.0015,-0.50425 -0.0027,-1.00845 9.65e-4,-1.51268 0.01325,-0.50404 -0.04966,-1.00519 -0.185024,-1.48663 -0.112964,-0.36033 -0.143515,-0.73906 -0.238706,-1.10393 -0.05256,-0.35378 -0.208649,-0.47553 -0.519723,-0.52844 -0.443311,-0.0556 -0.890823,-0.0472 -1.336352,-0.0486 -0.564631,9.9e-4 -1.129259,0.004 -1.693892,0.004 -0.62842,9.9e-4 -1.256837,-10e-4 -1.885255,-7.1e-4 -0.641204,-0.0166 -1.276428,-0.003 -1.913719,0.0709 -0.680036,0.0802 -1.363376,0.11124 -2.046883,0.12717 -0.559235,0.0127 -1.118582,0.0175 -1.677925,0.0196 -0.403575,10e-4 -0.807152,7.2e-4 -1.210728,5.9e-4 -0.387152,-1.5e-4 -0.774302,-2e-4 -1.161454,-2.3e-4 -0.388554,-4e-5 -0.777107,-2e-5 -1.165661,-2e-5 -0.388899,0 -0.777799,0 -1.166697,0 -0.384669,-0.0179 -0.775716,0.0416 -1.154861,-0.0387 -0.331244,-0.0956 -0.671182,-0.13333 -1.012275,-0.15516 -0.378868,-0.0185 -0.758239,-0.0176 -1.137403,-0.018 -0.396264,-1.7e-4 -0.792528,0.002 -1.18879,-1.1e-4 -0.439069,-9.4e-4 -0.878139,3.3e-4 -1.317207,9.6e-4 -0.396942,5.6e-4 -0.793883,6.8e-4 -1.190826,7.7e-4 -0.388618,4e-5 -0.777236,3e-5 -1.165854,3e-5 -0.388751,-1e-5 -0.777502,-1e-5 -1.166251,-1e-5 -0.374795,-0.0135 -0.734964,-0.013 -1.098926,0.0827 -0.329615,0.0303 -0.63013,0.15341 -0.947098,0.24027 -0.163333,0.14493 -0.37325,0.16004 -0.561881,0.23385 -0.09254,0.0362 -0.176584,0.0944 -0.267661,0.13472 -0.328643,0.11784 -0.67728,0.13121 -1.020258,0.14476 -0.371636,-0.004 -0.728782,-0.004 -1.090001,0.0892 -0.384309,0.12388 -0.594508,-0.12047 -0.71722,-0.48593 -0.05973,-0.39493 -0.130888,-0.78862 -0.188291,-1.18443 -0.03335,-0.42592 -0.08326,-0.84559 -0.155256,-1.26582 -0.07406,-0.42263 -0.09745,-0.85212 -0.111279,-1.28111 -0.0057,-0.28201 -0.0035,-0.14108 -0.0068,-0.42281 l 2.219338,-1.22551 0,0 c 0.0021,0.27884 -0.198135,-1.75223 -0.194275,-1.47368 0.0099,0.41656 0.224493,2.72589 0.291879,3.13711 0.0712,0.42331 0.141135,0.84215 0.159318,1.27307 0.0513,0.3812 0.136939,0.75491 0.176764,1.1375 0.09105,0.32972 0.251959,0.21348 0.517418,0.16282 0.366885,-0.0612 0.738224,-0.0288 1.107858,-0.0571 0.333294,-0.0269 0.667482,-0.0679 0.974825,-0.22092 0.278099,-0.12402 0.566836,-0.22369 0.846829,-0.3416 0.314514,-0.10126 0.634683,-0.15886 0.957158,-0.22361 0.371943,-0.0621 0.748548,-0.0297 1.123677,-0.037 0.388758,0 0.777516,-1e-5 1.166274,-1e-5 0.388587,0 0.777172,-10e-6 1.165758,4e-5 0.396299,8e-5 0.792598,2.3e-4 1.188897,7.3e-4 0.438536,5.6e-4 0.877074,0.002 1.315609,6e-5 0.3976,-0.003 0.795215,-0.002 1.192823,-0.002 0.383319,0.002 0.767069,0.003 1.149623,0.0321 0.344446,0.0328 0.683478,0.0948 1.022466,0.16765 0.376573,0.0273 0.754829,0.003 1.132013,0.0116 0.388899,0 0.777801,-10e-6 1.166702,-10e-6 0.38858,-10e-6 0.777162,-2e-5 1.165744,-2e-5 0.387178,1e-5 0.774358,1e-5 1.161536,3.8e-4 0.401924,5e-4 0.803847,10e-4 1.205768,0.003 0.551879,0.002 1.103839,0.003 1.655612,-0.0106 0.681531,-0.0231 1.362673,-0.0621 2.040429,-0.14628 0.641428,-0.0647 1.283689,-0.0518 1.927437,-0.0488 0.629956,9e-5 1.259917,-0.002 1.889871,-0.004 0.566368,-0.003 1.132736,-0.005 1.699104,-0.007 0.462041,7e-5 0.929856,-0.0104 1.384378,0.0929 0.354639,0.12709 0.594166,0.35115 0.659467,0.76685 0.09675,0.36482 0.130768,0.73943 0.23134,1.1035 0.13992,0.50622 0.215128,1.03288 0.207665,1.5625 0.004,0.50255 0.0034,1.00508 0.0058,1.50762 0.0052,0.43103 0.007,0.8621 0.0087,1.29315 -0.0022,0.39656 0.0032,0.80068 -0.0977,1.18551 -0.476463,1.238 -1.911024,1.67743 -3.037971,1.63979 -0.385433,0 -0.770982,-9.9e-4 -1.156265,0.0123 -0.354679,0.0166 -0.709686,0.0434 -1.057195,0.12704 -0.378539,0.0797 -0.757555,0.0833 -1.142658,0.071 -0.436527,-6.2e-4 -0.873052,-3.7e-4 -1.309576,10e-4 -0.389266,-2.9e-4 -0.778533,-8.2e-4 -1.167799,-10e-4 -0.385681,-2.6e-4 -0.771479,-0.002 -1.157021,0.0111 -0.353862,0.0165 -0.709064,0.0417 -1.05313,0.13967 -0.35664,0.0964 -0.718281,0.13623 -1.081627,0.1936 -0.391595,0.0701 -0.781943,0.0949 -1.179137,0.0762 -0.387778,6.3e-4 -0.775766,5.5e-4 -1.163214,0.0201 -0.388524,0.0247 -0.77508,0.0696 -1.157724,0.14843 -0.390492,0.0587 -0.782922,0.0401 -1.176339,0.0428 -0.389135,0.004 -0.778764,0.009 -1.166566,0.0475 -0.445747,0.049 -0.887395,0.13968 -1.335533,0.15891 -0.527318,-9.9e-4 -1.054631,8.5e-4 -1.581949,3.3e-4 -0.499264,-6e-5 -0.99853,9.9e-4 -1.497795,3e-4 -0.495226,-10e-4 -0.990452,-8.7e-4 -1.485677,-0.003 -0.524957,-0.004 -1.050118,-0.0134 -1.574984,0.002 -0.215164,0.0108 -0.435137,0.0132 -0.645778,0.069 -0.05061,0.0133 -0.192969,0.0822 -0.148367,0.0531 1.916523,-1.25 2.764183,-1.50844 1.884205,-1.22776 -0.289188,0.192 -0.162381,0.55891 -0.117971,0.86468 0.07364,0.36916 0.136706,0.73262 0.146636,1.11175 0.04959,0.34887 0.161218,0.67752 0.215127,1.024 0.06149,0.36157 0.168096,0.71294 0.17172,1.08383 0.04574,0.36688 0.150593,0.72246 0.167229,1.09215 0.02301,0.36761 0.06535,0.7322 0.146473,1.09077 0.06022,0.41627 0.01587,0.84065 0.02878,1.26079 -4.86e-4,0.45679 -0.0015,0.91358 -0.0019,1.37037 2.8e-4,0.47241 0.0049,0.9448 0.0017,1.41723 -0.0028,0.50616 -0.0036,1.01294 -0.03224,1.51828 -0.03709,0.50335 -0.09092,1.00504 -0.193979,1.49824 -0.02853,0.43008 -0.08566,0.85306 -0.16422,1.27588 0.0014,0.47814 0.0043,0.95627 -0.0016,1.4344 -0.0064,0.5773 -0.01348,1.15502 -0.04444,1.73149 -0.03777,0.43917 -0.125097,0.86901 -0.15549,1.307 -0.02122,0.45543 -0.06276,0.90995 -0.173204,1.35176 -0.127496,0.5501 -0.213822,1.11209 -0.22678,1.68032 -0.02905,0.53983 -0.07298,1.08001 -0.167489,1.61163 -0.08015,0.49802 -0.09304,1.00698 -0.176983,1.50524 -0.05426,0.51004 -0.01738,1.02465 -0.02654,1.53723 9.2e-5,0.48377 0.0044,0.9675 6.97e-4,1.45126 -0.0028,0.51049 -0.0015,1.0215 -0.0305,1.53124 -0.03104,0.47579 -0.09289,0.94496 -0.176639,1.41338 -0.02262,0.60378 -0.05839,1.20742 -0.126511,1.80741 -0.05901,0.57562 -0.07528,1.14884 -0.05812,1.72836 0.0025,0.50532 0.0024,1.01067 0.0013,1.51598 -0.0014,0.519 -10e-6,1.03798 0.0015,1.55698 0.0034,0.48536 -6e-6,0.97073 -0.0019,1.4561 -0.0029,0.53354 0.0012,1.06779 -0.02976,1.60053 -0.03562,0.50091 -0.09161,0.99885 -0.164592,1.49498 -0.0015,0.52591 -4.92e-4,1.0518 0.0035,1.57771 -0.0011,0.52221 -0.0033,1.04441 -0.0096,1.56661 -0.0071,0.591 -0.0072,1.1838 -0.0621,1.7723 -0.04509,0.4238 -0.15272,0.8387 -0.122405,1.2684 8.1e-5,0.4206 2.24e-4,0.8413 5.22e-4,1.2619 2.48e-4,0.4402 8.69e-4,0.8806 -0.0021,1.3209 -0.0044,0.4853 -0.0068,0.9718 -0.04557,1.4557 -0.04867,0.4785 -0.151095,0.9492 -0.172437,1.4293 -0.02809,0.6164 -0.0672,1.2323 -0.147019,1.844 -0.05019,0.5348 -0.01569,1.0729 -0.05371,1.6092 -0.03388,0.4713 -0.08184,0.9416 -0.181143,1.4029 -0.02926,0.5067 -0.08586,1.0101 -0.174734,1.5091 -0.07642,0.5255 -0.07533,1.0621 -0.174921,1.5851 -0.04165,0.341 -0.03143,0.6905 0.01778,1.0308 0.01263,0.038 0.07001,-0.06 0.06119,-0.055 -0.68443,0.424 -2.720356,1.7282 -2.045784,1.2861 0.120119,-0.08 5.510753,-3.4748 0.244019,-0.1561 0.940019,-0.656 1.907703,-1.2627 2.899991,-1.8174 0.310295,-0.1571 0.609329,-0.3405 0.937488,-0.4535 0.324549,-0.1364 0.653553,-0.2565 0.986687,-0.3666 0.288422,-0.1101 0.564201,-0.256 0.865856,-0.3246 0.320787,-0.065 0.634716,-0.1545 0.954306,-0.2218 0.319542,-0.058 0.617439,-0.1733 0.925139,-0.2773 0.347446,-0.1021 0.689411,-0.2223 1.044862,-0.2913 0.390293,-0.1048 0.789278,-0.17 1.17184,-0.3083 0.420696,-0.1051 0.844825,-0.1802 1.275696,-0.2156 0.420624,-0.062 0.839112,-0.1442 1.265834,-0.1136 0.39582,4e-4 0.791674,0 1.187458,-0.01 0.436297,-0.011 0.873296,-0.027 1.306144,-0.091 0.398178,-0.067 0.794005,-0.1435 1.199328,-0.1131 0.397071,0 0.794411,0 1.190878,-0.03 0.472279,-0.036 0.941306,-0.1011 1.411198,-0.1622 0.446266,-0.028 0.893322,-0.016 1.340223,-0.017 0.453692,0 0.90738,0 1.361067,8e-4 0.464703,0 0.929401,0 1.394104,5e-4 0.499544,0 0.999898,0 1.498047,-0.048 0.46332,-0.047 0.922595,-0.1328 1.38728,-0.1608 0.475262,-10e-5 0.950837,-3e-4 1.425464,-0.031 0.515995,-0.038 1.028538,-0.1043 1.533227,-0.23 0.530119,-0.085 1.061974,-0.1711 1.597223,-0.2066 0.529549,-0.05 1.051942,-0.1463 1.577656,-0.2287 0.527249,-0.058 1.049329,-0.1581 1.578179,-0.1975 0.52461,-0.061 1.03914,-0.1756 1.55274,-0.3047 0.46422,-0.1012 0.9355,-0.1701 1.38985,-0.3159 0.44444,-0.148 0.89631,-0.2674 1.34451,-0.4009 0.38676,-0.1292 0.77556,-0.2463 1.14746,-0.4214 0.39067,-0.1344 0.78438,-0.2559 1.16525,-0.4216 0.40399,-0.1397 0.81085,-0.2676 1.20685,-0.4332 0.46516,-0.1509 0.93872,-0.2688 1.40373,-0.4205 0.43405,-0.1664 0.86682,-0.3292 1.30907,-0.4678 0.37848,-0.1542 0.76657,-0.274 1.14733,-0.4208 0.32957,-0.1032 0.64953,-0.2308 0.95555,-0.4001 0.31437,-0.1744 0.64506,-0.3139 0.96744,-0.47 0.39215,-0.2046 0.78782,-0.4012 1.17902,-0.608 0.0661,-0.038 0.26248,-0.1519 0.19824,-0.1111 -0.63712,0.4034 -2.56186,1.5887 -1.91715,1.1996 1.00865,-0.6087 1.96896,-1.2852 3.01138,-1.8154 0.40515,-0.2233 0.80808,-0.4514 1.21502,-0.671 0.34704,-0.1916 0.69234,-0.387 1.03243,-0.5927 0.29683,-0.1681 0.60161,-0.317 0.90327,-0.4747 0.83996,-0.4528 0.3369,-0.1866 -1.78083,1.1331 -0.0577,0.036 0.11216,-0.079 0.16967,-0.1145 0.16757,-0.1061 0.33094,-0.2149 0.49252,-0.332 0.3517,-0.2891 0.75084,-0.5087 1.0891,-0.8204 0.35225,-0.2463 0.69508,-0.5006 1.02563,-0.7797 0.34462,-0.3022 0.69796,-0.5892 1.06493,-0.8561 0.36678,-0.2724 0.71017,-0.5773 1.09373,-0.8253 0.0636,-0.058 0.1272,-0.1144 0.19081,-0.1716 0.059,-0.062 0.11399,-0.1283 0.17707,-0.1851 0.68208,-0.6144 3.01669,-1.2312 2.73867,-1.7546 0.28671,-0.1459 0.58407,-0.181 0.76106,0.1597 0.14787,0.3918 0.0902,0.8091 0.0987,1.2244 7.3e-4,0.419 0.003,0.8382 -0.004,1.257 -0.01,0.3961 -0.0223,0.7953 -0.1073,1.1825 -0.0957,0.3814 -0.21455,0.7497 -0.25029,1.1467 -0.0664,0.3899 -0.0297,0.7916 -0.0942,1.1833 -0.0563,0.3724 -0.16639,0.7326 -0.12898,1.1147 0,0.4204 0,0.8409 0,1.2612 0,0.4204 0,0.8408 -1e-5,1.2612 0,0.4204 -10e-6,0.8407 2e-5,1.2611 4e-5,0.4205 1e-4,0.8411 4.9e-4,1.2617 4.1e-4,0.4207 9.7e-4,0.8413 9.7e-4,1.2621 -9.7e-4,0.4117 -9.7e-4,0.8238 -0.0268,1.2347 -0.0291,0.3673 -0.0807,0.7299 -0.17708,1.0843 -0.0207,0.4084 -0.0506,0.8221 -0.20074,1.2028 -0.13479,0.2957 -0.31077,0.5635 -0.43322,0.865 -0.18987,0.2755 -0.31939,0.5997 -0.4933,0.8884 -0.12591,0.3481 -0.30529,0.6627 -0.50115,0.9696 -0.19376,0.2428 -0.25362,0.5526 -0.38943,0.8322 -0.093,0.3652 -0.27974,0.6734 -0.44788,1.0022 -0.23302,0.3599 -0.39233,0.7713 -0.62464,1.1333 -0.19589,0.2874 -0.34977,0.5972 -0.49095,0.9182 -0.20943,0.34 -0.38832,0.7201 -0.53658,1.0942 -0.16054,0.3796 -0.37426,0.7331 -0.52751,1.1187 -0.13272,0.3463 -0.26557,0.6842 -0.43297,1.0111 -0.17479,0.3395 -0.34786,0.6764 -0.49831,1.0302 -0.15005,0.3595 -0.40636,0.6536 -0.53052,1.0299 -0.24475,0.4635 -0.54669,0.8836 -0.83264,1.3178 -0.29832,0.3924 -0.57953,0.7976 -0.85515,1.2079 -0.22397,0.3316 -0.4442,0.6664 -0.68933,0.9806 -0.20376,0.3598 -0.41039,0.7178 -0.60947,1.0795 -0.24024,0.4124 -0.45301,0.8423 -0.74099,1.2189 -0.25894,0.381 -0.55704,0.7263 -0.85139,1.0733 -0.31543,0.3704 -0.70478,0.6528 -1.02447,1.0197 -0.29894,0.237 -0.59747,0.468 -0.8612,0.7495 -0.30797,0.3388 -0.65517,0.6332 -0.98601,0.9447 -0.30589,0.286 -0.63416,0.5393 -0.93061,0.8365 -0.38795,0.2713 -0.70167,0.6402 -1.08764,0.9153 -0.3852,0.3615 -0.76996,0.727 -1.20023,1.0247 -0.40902,0.3547 -0.8117,0.7137 -1.23063,1.0547 -0.43188,0.422 -0.92449,0.738 -1.40491,1.0887 -1.24983,0.8516 0.64742,-0.4529 -0.57188,0.4247 -1.00754,0.7253 -2.09777,1.318 -3.15706,1.9534 -0.17004,0.097 -0.255,0.145 -0.42393,0.2441 -0.0734,0.043 -0.29156,0.1758 -0.21949,0.1303 4.07763,-2.5747 0.7905,-0.4545 -0.63448,0.3737 -0.40651,0.2202 -0.82816,0.4004 -1.24644,0.5923 -0.40707,0.1455 -0.81585,0.292 -1.20569,0.4859 -0.387115,0.1711 -0.781507,0.3207 -1.1834,0.4465 -0.428822,0.1215 -0.869124,0.1875 -1.30119,0.2947 -0.392376,0.083 -0.77035,0.2245 -1.164454,0.2989 -0.386369,0.077 -0.780766,0.087 -1.164154,0.1831 -0.388288,0.093 -0.779231,0.1617 -1.171732,0.2318 -0.416926,0.077 -0.841961,0.081 -1.255853,0.1796 -0.462801,0.1118 -0.916827,0.2763 -1.391085,0.3228 -0.531463,0.045 -1.058971,0.1291 -1.590919,0.164 -0.516067,-10e-4 -1.032137,-4e-4 -1.548204,4e-4 -0.484883,-7e-4 -0.96977,6e-4 -1.454654,0 -0.487736,0 -0.975474,0 -1.463212,0 -0.537628,0 -1.075238,-5e-4 -1.612865,-10e-5 -0.524796,-4e-4 -1.049593,6e-4 -1.574387,-9e-4 -0.635589,-10e-4 -1.271181,0 -1.90677,0 -0.637358,0 -1.274788,0 -1.911969,-0.017 -0.647586,-0.024 -1.294945,-0.059 -1.938625,-0.1433 -0.613574,-0.063 -1.227979,-0.048 -1.843776,-0.05 -0.592345,0 -1.185276,-0.012 -1.77584,-0.067 -0.605359,-0.065 -1.205966,-0.1765 -1.813928,-0.2097 -0.587332,-0.047 -1.171854,-0.1448 -1.761442,-0.142 -0.554035,0 -1.10855,0 -1.661622,-0.045 -0.576842,-0.044 -1.1507,-0.1153 -1.726451,-0.17 -0.591572,-0.012 -1.183432,-0.032 -1.772784,-0.091 -0.62041,-0.063 -1.239414,-0.1498 -1.864347,-0.1153 -0.639553,-2e-4 -1.279125,0.011 -1.918651,0 -0.637319,-0.011 -1.27754,-0.022 -1.909437,-0.1195 -0.651663,-0.1077 -1.297139,-0.2535 -1.951098,-0.3453 -0.619445,-0.095 -1.243457,-0.1679 -1.867889,-0.2098 -0.646678,-0.053 -1.286383,-0.1589 -1.927968,-0.259 -0.64666,-0.078 -1.290571,-0.1788 -1.93915,-0.2369 -0.69765,-0.1051 -1.388907,-0.252 -2.087955,-0.347 -0.663957,-0.092 -1.329682,-0.1776 -1.997422,-0.2308 -0.697212,-0.067 -1.388774,-0.179 -2.085345,-0.2509 -0.664132,-0.09 -1.325121,-0.2076 -1.993305,-0.2602 -0.680856,-0.066 -1.363223,-0.053 -2.046267,-0.066 -0.668734,-0.021 -1.337052,-0.056 -2.000684,-0.1528 -0.648283,-0.074 -1.299512,-0.095 -1.947418,-0.1756 -0.588718,-0.081 -1.1782,-0.1392 -1.768813,-0.1989 -0.544456,-0.072 -1.08837,-0.1043 -1.636966,-0.1114 -0.495901,-0.034 -0.989232,-0.094 -1.474753,-0.2122 -0.441581,-0.075 -0.882591,-0.1547 -1.325049,-0.2223 -0.504285,-0.045 -1.003461,-0.1239 -1.50366,-0.2049 -0.529253,-0.05 -1.048099,-0.1533 -1.555002,-0.3293 -0.542024,-0.1475 -1.091685,-0.2586 -1.642171,-0.3626 -0.626319,-0.1109 -1.236352,-0.2928 -1.857999,-0.4283 -0.562594,-0.1247 -1.12455,-0.2545 -1.676676,-0.4266 -0.50846,-0.1549 -1.001459,-0.3475 -1.500082,-0.5345 -0.435201,-0.127 -0.869648,-0.2541 -1.284496,-0.4484 -0.409758,-0.1569 -0.825628,-0.2941 -1.229463,-0.4688 -0.342372,-0.1833 -0.68964,-0.3508 -1.04595,-0.5 -0.388257,-0.1869 -0.766795,-0.3962 -1.164971,-0.5581 -0.391678,-0.1956 -0.788756,-0.3843 -1.158128,-0.6266 -0.3924,-0.2595 -0.786083,-0.517 -1.181223,-0.7706 -0.403013,-0.2408 -0.802968,-0.4883 -1.173168,-0.7859 -0.393392,-0.3176 -0.785732,-0.6345 -1.182097,-0.9456 -0.431093,-0.3374 -0.861033,-0.6758 -1.2982454,-1.0041 -0.3914716,-0.2941 -0.7728134,-0.6017 -1.1577382,-0.9055 -0.4048636,-0.3086 -0.7936174,-0.6418 -1.193437,-0.9582 -0.3032647,-0.2681 -0.6175287,-0.5212 -0.9171894,-0.7941 -0.3427402,-0.2774 -0.6423913,-0.6082 -0.9334492,-0.9467 -0.3421399,-0.3905 -0.7231051,-0.7373 -1.052237,-1.1418 -0.3271671,-0.3753 -0.5923868,-0.8011 -0.8879911,-1.2045 -0.2561277,-0.3698 -0.493198,-0.7544 -0.7140988,-1.1498 -0.2220981,-0.3705 -0.4057204,-0.7642 -0.6037051,-1.1497 -0.1398931,-0.3244 -0.3151131,-0.6277 -0.4508307,-0.9532 -0.1542801,-0.3972 -0.2636691,-0.8143 -0.4125638,-1.2143 -0.1340445,-0.3606 -0.2143194,-0.7351 -0.3116268,-1.1083 -0.10998193,-0.4167 -0.15103077,-0.8541 -0.28669531,-1.265 -0.0724412,-0.496 -0.12586335,-0.9866 -0.092753,-1.4906 3.641e-4,-0.5603 -0.001013,-1.1205 -4.2632e-4,-1.6806 1.157e-5,-0.5571 -0.002093,-1.1141 -0.001254,-1.671 0.001042,-0.5677 0.002943,-1.1353 0.0182608,-1.7029 0.0227362,-0.5596 0.0834595,-1.1154 0.15088472,-1.6707 0.0479837,-0.5185 0.0174484,-1.0411 0.0722521,-1.5598 0.0562777,-0.5649 0.16460321,-1.1224 0.19681501,-1.689 0.046051,-0.6212 0.1520676,-1.2361 0.1698748,-1.8593 0.02522,-0.6788 0.078521,-1.3556 0.1941244,-2.0243 0.1016285,-0.6287 0.1646856,-1.2664 0.2383515,-1.8992 0.061622,-0.5767 0.1987642,-1.1294 0.3328692,-1.6903 0.1110743,-0.5324 0.1649565,-1.0822 0.3822065,-1.5838 0.1243251,-0.5232 0.2679166,-1.0408 0.3941594,-1.563 0.104868,-0.3728 0.1427082,-0.7659 0.3061418,-1.1201 1.1964126,-0.7464 1.8933662,-1.9756 2.9326811,-1.0844 0.2194017,0.1961 0.4152221,0.4191 0.6568427,0.5844 0.2437761,0.2272 0.4869869,0.4548 0.7557585,0.6479 0.3135774,0.2116 0.6209523,0.432 0.915974,0.6736 0.2873934,0.2381 0.579448,0.4645 0.8869688,0.672 0.2489781,0.1772 0.5258846,0.3037 0.7755398,0.4811 0.264657,0.2027 0.515757,0.4223 0.776959,0.6287 0.270119,0.1995 0.531904,0.417 0.820337,0.5831 0.33103,0.1722 0.673373,0.3192 0.985541,0.5316 0.32487,0.2248 0.677979,0.3873 1.002009,0.614 0.312296,0.2 0.643637,0.3435 0.973209,0.5068 0.347278,0.1811 0.685304,0.3844 1.059423,0.498 0.347204,0.1226 0.699759,0.2365 1.02954,0.4082 0.285944,0.1635 0.586956,0.2838 0.883953,0.421 0.272555,0.119 0.532074,0.2664 0.809338,0.3705 0.332391,0.095 0.660037,0.195 0.971038,0.3588 0.346755,0.133 0.68839,0.2853 1.011012,0.4776 0.287142,0.1602 0.578429,0.309 0.797871,0.5754 0.227331,0.2075 0.45423,0.4119 0.704455,0.5877 0.24294,0.2366 0.482108,0.4775 0.733891,0.7034 0.24359,0.2182 0.455707,0.4709 0.696484,0.6906 0.256915,0.2136 0.460315,0.4907 0.723568,0.6968 0.256777,0.2226 0.52023,0.4343 0.785087,0.6454 0.274077,0.2411 0.552339,0.4751 0.853215,0.6769 0.314795,0.2087 0.634456,0.4083 0.941519,0.6302 0.371053,0.2278 0.753501,0.435 1.109592,0.6896 0.279868,0.1847 0.587087,0.3203 0.870899,0.499 0.275663,0.1698 0.572498,0.2726 0.852714,0.4323 0.337531,0.183 0.680345,0.3539 1.022998,0.5253 0.404499,0.1969 0.82993,0.3403 1.230981,0.5475 0.461778,0.2371 0.933063,0.4434 1.411282,0.6391 0.49441,0.1959 0.989387,0.3912 1.469208,0.6269 0.477188,0.2485 0.970979,0.4493 1.466368,0.6516 0.474877,0.1699 0.944339,0.3553 1.411863,0.5473 0.410045,0.1343 0.823819,0.2532 1.238384,0.3696 0.445924,0.1348 0.898201,0.2109 1.359959,0.2494 0.504801,0.076 1.007717,0.1596 1.518641,0.166 0.474823,0.051 0.940075,0.1508 1.406682,0.256 0.489258,0.068 0.977724,0.1432 1.47283,0.1137 0.496915,0 0.99383,0 1.490746,0 0.44994,0 0.899877,0 1.34982,7e-4 0.399331,0 0.799314,0 1.197703,-0.036 0.347686,-0.038 0.68737,-0.1119 1.023443,-0.2161 0.378884,-0.065 0.759036,-0.1385 1.141008,-0.1706 0.384782,0 0.769943,0 1.154056,-0.03 0.383009,-0.034 0.761211,-0.098 1.138773,-0.1749 0.377869,-0.041 0.766291,-0.054 1.114966,-0.2361 -3.669492,2.3048 -2.11412,1.4161 -1.356198,0.7909 0.215929,-0.2552 0.358482,-0.5825 0.428852,-0.9187 0.07607,-0.3997 0.0099,-0.8161 0.0318,-1.2218 0.0014,-0.4112 0.0021,-0.8227 0.02856,-1.2331 0.02948,-0.3645 0.08348,-0.7235 0.166605,-1.0785 0.0033,-0.4248 0.0074,-0.8502 0.04565,-1.2733 0.04418,-0.4247 0.140363,-0.8416 0.158723,-1.2678 0.01899,-0.4749 0.05388,-0.9496 0.143584,-1.416 0.08096,-0.4352 0.135592,-0.8726 0.206412,-1.31 0.06554,-0.4353 0.01418,-0.8812 0.03224,-1.3208 0.0017,-0.5168 0.0023,-1.0335 -8e-5,-1.5501 -0.0013,-0.4399 -0.0041,-0.8799 -0.0026,-1.3197 2e-6,-0.4204 6e-6,-0.8408 8e-6,-1.2612 -10e-7,-0.4202 4e-6,-0.8406 -9.6e-5,-1.261 -1.28e-4,-0.4204 -3.51e-4,-0.8407 -8.96e-4,-1.2611 -4.72e-4,-0.4213 -0.0018,-0.8424 0.0024,-1.2636 0.0064,-0.4263 0.01611,-0.8535 0.06766,-1.2768 0.05465,-0.4137 0.15422,-0.8213 0.124311,-1.2423 -4.79e-4,-0.4212 -0.0018,-0.84239 0.0026,-1.26354 0.0068,-0.43907 0.01814,-0.87883 0.06985,-1.31494 0.0586,-0.47086 0.157373,-0.93786 0.122768,-1.41591 -3.07e-4,-0.4204 -8.72e-4,-0.8408 -0.0017,-1.26119 -4.71e-4,-0.4225 -0.0023,-0.84513 0.01061,-1.26745 0.01809,-0.43164 0.04868,-0.86433 0.150901,-1.28388 0.100039,-0.40873 0.170378,-0.82065 0.229766,-1.23908 0.0073,-0.46981 0.02116,-0.94048 0.08323,-1.40627 0.07447,-0.52676 0.195887,-1.04241 0.251518,-1.57207 0.069,-0.49134 0.08846,-0.98452 0.156395,-1.47574 0.08432,-0.48166 0.170695,-0.95936 0.222855,-1.44684 0.08459,-0.44868 0.218196,-0.88382 0.271588,-1.34016 0.01945,-0.53516 0.04602,-1.07134 0.116461,-1.60188 0.0726,-0.43901 0.07578,-0.87557 0.06515,-1.32159 0.0014,-0.47347 -0.0026,-0.9473 0.01875,-1.42033 0.02847,-0.51027 0.08219,-1.01753 0.151919,-1.52316 0.05393,-0.53522 0.01956,-1.07489 0.02357,-1.61252 6.99e-4,-0.4661 0.0021,-0.93219 0.0019,-1.3983 -0.0014,-0.43967 -0.0041,-0.87932 -0.0025,-1.31901 1.66e-4,-0.43274 4.55e-4,-0.86549 0.0014,-1.29824 9.64e-4,-0.4822 0.0031,-0.96442 -5.12e-4,-1.44662 0.0012,-0.49615 0.0034,-0.99229 0.0052,-1.48843 8.48e-4,-0.58913 4.82e-4,-1.17825 -1.23e-4,-1.76738 -0.0024,-0.56149 -0.0012,-1.12298 0.0013,-1.68447 -5.77e-4,-0.52142 -0.0069,-1.04281 -0.0072,-1.56422 -9e-6,-0.41955 -2.2e-5,-0.8391 -1.22e-4,-1.25864 -1.16e-4,-0.42344 -3.45e-4,-0.84687 -3.96e-4,-1.27029 1.62e-4,-0.48605 4.91e-4,-0.97209 0.0066,-1.4581 0.0082,-0.56 0.0098,-1.12242 0.07666,-1.67867 0.05568,-0.39103 0.180212,-0.75882 0.242838,-1.14779 0.05227,-0.22844 0.08291,-0.45111 0.05165,-0.68109 0.164802,0.90971 -0.0048,0.064 2.112378,-1.23954 0.03209,-0.0197 -0.06443,0.039 -0.09655,0.0587 -1.390469,0.85207 -1.556754,1.26809 -2.595683,1.46486 -0.361182,0.078 -0.722595,0.0851 -1.090511,0.073 -0.388878,4e-5 -0.777854,9.4e-4 -1.166598,-0.0117 -0.406569,-0.0173 -0.812598,-0.0491 -1.21447,-0.12101 -0.488802,-0.0774 -0.977035,-0.0995 -1.471244,-0.0858 -0.547186,-0.0119 -1.095226,-0.0273 -1.638811,-0.10221 -0.516134,-0.0826 -1.027927,-0.1944 -1.549607,-0.23256 -0.550473,-0.07 -1.099738,-0.10409 -1.654458,-0.0855 -0.507221,-0.0107 -1.015202,-0.0245 -1.519124,-0.0935 -0.497563,-0.0747 -0.993543,-0.15842 -1.49632,-0.18126 -0.521849,-0.0602 -1.038731,-0.16975 -1.56426,-0.18904 -0.582988,-0.0452 -1.162269,-0.13001 -1.745671,-0.166 -0.627592,9.9e-4 -1.255212,5.6e-4 -1.882745,-0.0104 -0.653756,-0.0161 -1.307432,-0.0468 -1.958303,-0.11789 -0.672222,-0.0714 -1.343942,-0.10763 -2.01978,-0.084 -0.608942,10e-4 -1.217883,0.002 -1.826821,0.004 -0.503887,0.003 -1.00777,0.004 -1.511665,0.004 -0.424027,-0.003 -0.85038,3.8e-4 -1.270573,-0.0702 -0.363952,-0.0749 -0.728381,-0.18372 -1.0127,-0.45469 -0.245824,-0.35046 -0.215003,-0.74334 -0.204687,-1.16597 -8.65e-4,-0.42227 -0.0024,-0.84454 -0.0052,-1.26679 -0.0021,-0.41439 -0.0087,-0.8298 0.02314,-1.24317 0.153818,-1.33983 1.170014,-1.8153 2.599515,-2.1461 0.361566,-0.0779 0.723313,-0.0842 1.091553,-0.0716 0.406309,1.8e-4 0.812617,5.4e-4 1.218924,9.9e-4 0.452925,8.1e-4 0.905846,7.3e-4 1.358768,-1e-4 0.440451,7.5e-4 0.880898,5.7e-4 1.321345,9e-5 0.451499,9.9e-4 0.902995,0.004 1.354498,0.004 0.520024,-0.002 1.040574,-0.005 1.559493,-0.0464 0.54138,-0.0499 1.075851,-0.14535 1.611794,-0.23979 0.548171,-0.0739 1.089797,-0.19022 1.637337,-0.26892 0.456405,-0.0787 0.914323,-0.13153 1.371191,-0.20469 0.427227,-0.10727 0.845174,-0.25552 1.27974,-0.32902 0.494809,-0.0866 0.98877,-0.17087 1.476389,-0.29917 0.494501,-0.0978 0.979634,-0.24982 1.484339,-0.28115 0.530682,-0.0307 1.062523,-0.008 1.593768,-0.0129 0.64134,1e-4 1.282675,0.005 1.923902,0.0187 0.692613,0.0254 1.384552,0.0652 2.073977,0.14404 0.741799,0.0613 1.484157,0.0549 2.227387,0.0816 0.694699,0.0473 1.387711,0.12099 2.068085,0.28702 0.66039,0.13395 1.323525,0.25941 1.995672,0.29739 0.254655,0.003 0.510242,0.008 0.760921,-0.052 0.05865,-0.0141 0.223231,-0.0922 0.171927,-0.0584 -1.865676,1.22842 -2.756442,1.53112 -1.877594,1.22156 0.309226,-0.22553 0.194252,-0.65031 0.207691,-1.00235 -9.4e-5,-0.4481 -3.39e-4,-0.89623 0.0011,-1.34433 0.0021,-0.47268 -0.0019,-0.9461 0.029,-1.41786 0.03541,-0.43987 0.09095,-0.87827 0.197503,-1.30541 0.03446,-0.47362 0.08881,-0.94459 0.157106,-1.41391 l 2.229485,-1.22797 z"
       inkscape:connector-curvature="0"
       sodipodi:nodetypes="cccccccccccccccccccccccccccccccccccccccccccccccccccccccccccccccccccccccccccccccccccccccccccccccccccccccccccsccccccccccccccccccccccccccccccccccccccccccccccccccccccccccccccccccccccccccccccccccccccccccccccccccccccccccccccccccccccccccccccccccccccccccccccccccccccccccccccccccccccsccccccccccccccccccccccccccccccccccccccccccccccccccccccccccccccccccccccccccccccccccccccccccccccccccccccccccccccccccccccccccccccccccccccccccccccssccccccccccccccccccccccccccccccccscsccccccccccccccccccccccccccccccccccccccccccccccccccccccccccccccccccccccccccccccccccccccccccccccccccccccccccccccccccccccccccccccccccccccccccccccccccccccsccccccccccccccccccccccccccccccccccccccccccccccccccsccscccccccccccccccccccccccccccccccccccccccccccccccccccccccccccccccccccccccccccccccccccccccccccccccccccccccccccscccccccccccccccccccsccccccccccccccccccccccccccccccccccccccccccccccccccccccccccccccccccccccccccccccccccccccccc" />
    <path
       style="fill:#93a7ac;fill-opacity:1;stroke:none"
       d="m 63.948783,943.1817 c -0.942811,0.21279 -2.271673,-0.26959 -2.980656,0.55175 -0.589712,1.71125 0.279435,3.83573 -0.732744,5.34676 -2.091429,1.77326 -4.876142,0.41048 -7.270139,0.4046 -3.53255,-0.25091 -7.140282,-0.62059 -10.593252,0.44191 -3.948222,0.96935 -8.007283,0.97761 -12.042521,0.92699 -0.370089,0.85614 -0.236529,2.11026 0.03105,3.05435 1.125446,0.67961 2.607491,0.30753 3.874494,0.49157 6.214447,0.026 12.392293,0.75223 18.5796,1.25145 1.848998,0.0701 3.781533,0.17399 5.588908,0.0239 -0.261699,8.93774 -0.112053,17.89602 -0.603006,26.82477 -0.780674,5.75165 -1.524522,11.53899 -1.642803,17.37423 -0.31187,6.68057 -0.08828,13.45477 -1.057751,20.06067 -1.039029,2.3131 -3.807414,2.6995 -5.966627,2.9101 -5.49744,0.5046 -11.255059,0.593 -16.351032,-1.938 -4.634015,-1.9239 -9.295813,-4.1484 -12.806237,-7.9467 -2.288211,-2.1001 -5.440297,-2.6568 -8.037573,-4.2364 -2.4740498,-1.2919 -4.7604699,-3.0428 -7.0315275,-4.6716 -0.7007287,0.2454 -0.4536831,1.5267 -0.763793,2.1413 -1.0897332,6.2125 -1.5236876,12.5925 -1.2046817,18.9107 0.8513128,5.2916 4.6790657,9.2879 8.6625302,12.2897 3.836332,3.1867 8.203955,5.6161 12.964378,6.8101 6.828791,1.8713 13.870277,2.3882 20.878483,2.9375 7.298596,0.8327 14.53794,2.0838 21.8954,2.2925 8.483797,0.6697 17.007025,1.0803 25.509444,0.624 4.978274,-0.89 10.410593,-1.5541 14.301533,-5.3064 3.19933,-2.8722 6.88306,-5.3907 8.99726,-9.3408 3.14105,-4.3508 5.09827,-9.4936 7.61883,-14.2662 1.58783,-3.0967 0.95386,-6.8101 1.16789,-10.2021 -0.10194,-2.4518 0.66007,-4.9116 0.1925,-7.3238 -1.54866,0.8297 -2.89596,2.2852 -4.47876,3.2039 -4.57793,2.8803 -9.38424,5.3697 -14.53731,6.9156 -6.32948,2.462 -13.153741,2.6731 -19.831653,2.973 -5.581566,0.2051 -11.349323,0.3276 -16.549,2.7244 -0.674216,0.1792 -1.409387,1.4478 -2.105088,0.8867 -0.36301,-1.9453 0.299542,-4.0044 0.355916,-5.9818 1.074664,-12.0943 0.547475,-24.31205 1.751567,-36.38201 0.67704,-6.22134 1.310648,-12.61733 0.146638,-18.82176 -0.0497,-0.91076 -0.575922,-2.16028 0.484357,-2.66024 1.125837,-1.26679 2.941863,-0.51899 4.407441,-0.79065 6.441108,-0.11879 12.868737,-0.74854 19.294981,-1.06167 0.531143,-1.1116 0.132061,-2.55867 0.142823,-3.77689 -0.12262,-0.9341 -0.254972,-2.5697 -1.527362,-2.2827 -8.343461,-0.16607 -16.695467,-0.1868 -25.037732,0.0297 -1.467615,0.0774 -2.937928,1.03481 -4.390257,0.63714 -0.504242,-1.32351 -0.540502,-2.85568 -0.645809,-4.24325 0.512629,-0.62587 1.606792,-0.87081 2.011943,-1.49105 0.142888,-0.46331 -0.461322,-0.28521 -0.670648,-0.31528 z"
       id="path2997"
       inkscape:connector-curvature="0" />
    <path
       style="fill:#93a7ac;fill-opacity:1;stroke:none"
       d="m 60.260222,927.02317 c -2.052183,0.87675 -3.805332,2.678 -4.183854,5.04491 -0.472253,2.38024 -0.834764,4.99739 -0.142806,7.35073 0.689256,1.82623 2.564209,2.62058 4.306997,2.54518 2.271148,-0.0521 4.859304,0.476 6.868961,-0.89735 1.863338,-1.66963 1.597211,-4.82726 0.566552,-6.92578 -1.615481,-2.88496 -3.373603,-5.91498 -5.950361,-7.85993 -0.488496,0.24741 -0.976993,0.49484 -1.465489,0.74224 z"
       id="path2999"
       inkscape:connector-curvature="0" />
    <path
       style="fill:#374548;fill-opacity:1;stroke:none"
       id="path3003"
       d="m 19.910368,99.704593 c 0.233856,0.441187 0.401166,0.913047 0.609842,1.365307 0.162473,0.33153 0.353718,0.64637 0.509787,0.98217 0.159111,0.35543 0.321698,0.69947 0.520613,1.03423 0.186689,0.30005 0.311857,0.63822 0.510625,0.9299 0.188643,0.28329 0.357531,0.57573 0.511109,0.87932 0.119362,0.32433 0.26624,0.62888 0.44552,0.92353 0.197664,0.27805 0.314133,0.60088 0.510888,0.87929 0.17071,0.26683 0.300831,0.56357 0.412569,0.86021 0.123307,0.33105 0.265434,0.65429 0.388485,0.98534 0.127837,0.28301 0.280079,0.55441 0.401267,0.84019 0.05814,0.20228 0.146434,0.39444 0.240186,0.58229 0,0 -1.384297,0.78924 -1.384297,0.78924 l 0,0 c -0.09772,-0.18985 -0.190264,-0.385 -0.247074,-0.59151 -0.120094,-0.28885 -0.275957,-0.56153 -0.403174,-0.84751 -0.120137,-0.33173 -0.262499,-0.65495 -0.389555,-0.98399 -0.104514,-0.28515 -0.230651,-0.56919 -0.39262,-0.82558 -0.193978,-0.28421 -0.31656,-0.60689 -0.516002,-0.8876 -0.180541,-0.29836 -0.329351,-0.60667 -0.449514,-0.93452 -0.153387,-0.2962 -0.315672,-0.58551 -0.501368,-0.86301 -0.197609,-0.2968 -0.330313,-0.63253 -0.513714,-0.93844 -0.201889,-0.33958 -0.365618,-0.68858 -0.529416,-1.0478 -0.155933,-0.33604 -0.349485,-0.65078 -0.505672,-0.9858 -0.201986,-0.44839 -0.362145,-0.91731 -0.609788,-1.34466 0,0 1.381303,-0.800597 1.381303,-0.800597 z"
       inkscape:connector-curvature="0"
       transform="translate(0,924.36218)" />
    <path
       style="fill:#374548;fill-opacity:1;stroke:none"
       id="path3005"
       d="m 42.669573,104.17836 c 0.205212,0.46483 0.436795,0.91603 0.637099,1.38459 0.204412,0.44969 0.47595,0.86337 0.69679,1.3039 0.180002,0.38071 0.38468,0.74967 0.587949,1.1186 0.156605,0.36577 0.368125,0.70363 0.553179,1.05502 0.21838,0.32846 0.388064,0.68576 0.586955,1.02536 0.238714,0.30046 0.406861,0.64276 0.596638,0.9729 0.195665,0.3338 0.384249,0.6721 0.584368,1.00309 0.181849,0.28853 0.36557,0.58145 0.570374,0.85484 0.199668,0.26386 0.281443,0.58898 0.458884,0.86584 0.02611,0.0428 0.05222,0.0856 0.07834,0.12842 0,0 -1.3799,0.80109 -1.3799,0.80109 l 0,0 c -0.02565,-0.0421 -0.0513,-0.0842 -0.07695,-0.12631 -0.172105,-0.27604 -0.259231,-0.59289 -0.450795,-0.85701 -0.204695,-0.28014 -0.397328,-0.57258 -0.576489,-0.86925 -0.19789,-0.33399 -0.391095,-0.67032 -0.586576,-1.00575 -0.187249,-0.33155 -0.358748,-0.67073 -0.596902,-0.97146 -0.196671,-0.34341 -0.368058,-0.70179 -0.586372,-1.0331 -0.184423,-0.35074 -0.400692,-0.68521 -0.555384,-1.05092 -0.201659,-0.3724 -0.401983,-0.74572 -0.587641,-1.12623 -0.217231,-0.44559 -0.48829,-0.86332 -0.698509,-1.31307 -0.201591,-0.4726 -0.421416,-0.93248 -0.652352,-1.391 0,0 1.397301,-0.76955 1.397301,-0.76955 z"
       inkscape:connector-curvature="0"
       transform="translate(0,924.36218)" />
    <path
       style="fill:#374548;fill-opacity:1;stroke:none"
       id="path3007"
       d="m 84.153366,102.58842 c -0.0097,0.5121 -0.0064,1.02435 -0.0052,1.53651 0.0012,0.43591 0.0018,0.87182 0.0021,1.30773 2.3e-4,0.40347 2.17e-4,0.80695 2.18e-4,1.21042 0.02101,0.38292 -0.0074,0.75521 -0.08269,1.13002 -0.06256,0.32135 -0.165872,0.63544 -0.267556,0.94662 -0.115372,0.29549 -0.186436,0.60258 -0.327302,0.88792 -0.152983,0.26052 -0.267869,0.54293 -0.379969,0.82321 -0.0681,0.30558 -0.225453,0.57103 -0.367695,0.84477 -0.102797,0.30039 -0.214109,0.60064 -0.293661,0.90867 -0.04093,0.17373 -0.05603,0.35146 -0.0719,0.5287 0,0 -1.423503,0.71117 -1.423503,0.71117 l 0,0 c 0.01275,-0.18382 0.02474,-0.36804 0.05926,-0.54944 0.06868,-0.32164 0.197821,-0.62057 0.277555,-0.93874 0.122366,-0.28003 0.324511,-0.52168 0.374399,-0.83175 0.09877,-0.29132 0.230677,-0.57378 0.367557,-0.84789 0.179554,-0.26249 0.224773,-0.57225 0.339179,-0.86425 0.126319,-0.29208 0.195071,-0.61925 0.28002,-0.92419 0.07476,-0.36734 0.134079,-0.72513 0.09986,-1.1031 10e-7,-0.40355 -1.3e-5,-0.8071 2.17e-4,-1.21064 3.21e-4,-0.43665 9.29e-4,-0.87329 0.0022,-1.30993 0.0012,-0.51039 0.0046,-1.02088 -0.0052,-1.53121 0,0 1.422121,-0.7246 1.422121,-0.7246 z"
       inkscape:connector-curvature="0"
       transform="translate(0,924.36218)" />
    <path
       style="fill:#374548;fill-opacity:1;stroke:none"
       id="path3009"
       d="m 104.91317,101.37911 c -0.0102,0.55282 -0.008,1.1058 -0.007,1.65869 0.0383,0.46145 0.12113,0.91716 0.16516,1.37818 0.0342,0.40572 0.0381,0.8131 0.0409,1.22 0.001,0.40246 4.6e-4,0.80492 1e-5,1.20737 -4.5e-4,0.40301 -5.7e-4,0.80601 -6.4e-4,1.20902 -5e-5,0.4031 -4e-5,0.80621 -4e-5,1.20932 0,0.4031 10e-6,0.80621 10e-6,1.20931 0.023,0.36985 -0.013,0.72021 -0.16138,1.06016 -0.13564,0.25964 -0.3394,0.47145 -0.54209,0.67917 -0.0949,0.11218 -0.21685,0.19337 -0.3358,0.27707 0,0 -1.48301,0.59029 -1.48301,0.59029 l 0,0 c 0.11341,-0.0916 0.2388,-0.1516 0.34692,-0.24951 0.1834,-0.21595 0.40415,-0.39652 0.56275,-0.63462 0.15604,-0.32318 0.23492,-0.63528 0.19621,-1.00087 0,-0.4031 -1e-5,-0.80621 -1e-5,-1.20931 0,-0.40312 -10e-6,-0.80623 3e-5,-1.20935 6e-5,-0.40304 1.5e-4,-0.80609 5.5e-4,-1.20913 4.3e-4,-0.40212 0.001,-0.80423 4.5e-4,-1.20635 -0.002,-0.40301 -0.004,-0.80643 -0.0338,-1.20857 -0.04,-0.46687 -0.11806,-0.92838 -0.16489,-1.39442 0.002,-0.55061 0.004,-1.1013 -0.007,-1.65184 0,0 1.42212,-0.72461 1.42212,-0.72461 z"
       inkscape:connector-curvature="0"
       transform="translate(0,924.36218)" />
    <path
       style="fill:#374548;fill-opacity:1;stroke:none"
       id="path3011"
       d="m 63.306729,8.8696356 c -0.359972,0.2419106 -0.663097,0.5605804 -0.9639,0.870996 -0.20886,0.2894024 -0.446576,0.5610934 -0.605653,0.8822384 -0.13882,0.346289 -0.14935,0.722272 -0.160965,1.090115 -0.03709,0.386877 0.100619,0.68328 0.404267,0.91653 0.285586,0.22327 0.550455,0.478271 0.867782,0.656238 0.247775,0.185209 0.515608,0.33834 0.768434,0.514618 0.167614,0.119382 0.3616,0.166368 0.559493,0.206075 0,0 -1.310216,0.906965 -1.310216,0.906965 l 0,0 c -0.210848,-0.05529 -0.4153,-0.122606 -0.593657,-0.253147 -0.25643,-0.166236 -0.508381,-0.336561 -0.761108,-0.508684 -0.313764,-0.196646 -0.589995,-0.44648 -0.87886,-0.677162 -0.319035,-0.274428 -0.512132,-0.610065 -0.474817,-1.043311 0.0083,-0.384371 0.0154,-0.774874 0.131691,-1.144957 0.138852,-0.350792 0.387677,-0.614738 0.586615,-0.931323 0.289324,-0.326093 0.614255,-0.623451 0.941356,-0.9105349 0,0 1.489538,-0.5746565 1.489538,-0.5746565 z"
       inkscape:connector-curvature="0"
       transform="translate(0,924.36218)" />
    <path
       style="fill:#374548;fill-opacity:1;stroke:none"
       id="path3013"
       d="m 69.037007,36.076435 c 0.048,0.455734 0.11792,0.908365 0.157737,1.365199 0.03335,0.424564 0.03835,0.850571 0.04145,1.276207 0.0016,0.40372 6.29e-4,0.807445 1.83e-4,1.211166 -4.47e-4,0.402789 -5.67e-4,0.805579 -6.42e-4,1.208368 -5.4e-5,0.403073 -4.6e-5,0.806147 -4.3e-5,1.20922 3e-6,0.403106 6e-6,0.806212 7e-6,1.209318 10e-7,0.403104 10e-7,0.806207 10e-7,1.209311 0,0.403103 0,0.806206 0,1.209309 -0.0072,0.406053 0.01847,0.813173 -0.01994,1.217801 -0.07086,0.399772 -0.126655,0.800783 -0.156504,1.205696 -0.02427,0.40104 -0.02511,0.802983 -0.02636,1.204604 0.03273,0.374124 -0.04649,0.73465 -0.113064,1.099349 -0.03964,0.381377 -0.09581,0.757271 -0.169121,1.133675 -0.1268,0.396546 -0.203291,0.804319 -0.295099,1.209294 -0.113039,0.391568 -0.172251,0.793041 -0.204645,1.198312 -0.05736,0.339016 -0.12245,0.678946 -0.233588,1.004859 -0.118782,0.33452 -0.151349,0.689049 -0.229908,1.033704 -0.104365,0.381916 -0.11007,0.779126 -0.169623,1.16777 -0.08878,0.344621 -0.143056,0.694072 -0.171894,1.048338 -0.01458,0.408787 -0.107544,0.809457 -0.219789,1.20108 -0.129411,0.381963 -0.144949,0.785566 -0.210593,1.179464 -0.09228,0.343304 -0.146109,0.692351 -0.174811,1.046115 -0.02472,0.392989 -0.02439,0.786979 -0.02529,1.180576 -1.04e-4,0.403348 7.27e-4,0.806696 0.0011,1.210044 0.03348,0.37446 -0.04639,0.735165 -0.113376,1.100086 0,0 -1.431522,0.698314 -1.431522,0.698314 l 0,0 c 0.06024,-0.358712 0.166418,-0.708363 0.128587,-1.076582 -3.69e-4,-0.403454 -0.0011,-0.806907 -0.0014,-1.21036 3.06e-4,-0.396717 -6.29e-4,-0.793693 0.01889,-1.19004 0.02329,-0.359124 0.06201,-0.717433 0.165208,-1.063823 0.09413,-0.391709 0.07184,-0.807483 0.207756,-1.192722 0.111836,-0.381523 0.219729,-0.77042 0.232219,-1.170174 0.02346,-0.359098 0.06263,-0.717183 0.163102,-1.064209 0.08799,-0.385029 0.05867,-0.790848 0.168427,-1.174124 0.08109,-0.348883 0.117947,-0.703866 0.218485,-1.047915 0.114366,-0.316532 0.182991,-0.640152 0.256365,-0.969173 0.02786,-0.412673 0.0769,-0.823885 0.193608,-1.222252 0.10462,-0.398937 0.147602,-0.813928 0.297893,-1.20181 0.07084,-0.37595 0.144848,-0.747071 0.167505,-1.129998 0.05991,-0.358678 0.165415,-0.70838 0.127949,-1.076457 7.51e-4,-0.404727 8.99e-4,-0.809704 0.02167,-1.214014 0.026,-0.407342 0.07239,-0.812397 0.153029,-1.212921 0.05815,-0.396938 0.0155,-0.800637 0.02828,-1.200816 0,-0.403103 0,-0.806206 0,-1.209309 0,-0.403103 0,-0.806207 -10e-7,-1.20931 -1e-6,-0.403106 -3e-6,-0.806212 -7e-6,-1.209318 -3e-6,-0.40308 -1.2e-5,-0.80616 2.6e-5,-1.209241 5.5e-5,-0.40283 1.4e-4,-0.805659 5.53e-4,-1.208489 4.38e-4,-0.403442 0.0014,-0.806886 6.13e-4,-1.210328 -0.0019,-0.422386 -0.0046,-0.845115 -0.03329,-1.266713 -0.03603,-0.460179 -0.09554,-0.917281 -0.172311,-1.372474 0,0 1.422122,-0.724607 1.422122,-0.724607 z"
       inkscape:connector-curvature="0"
       transform="translate(0,924.36218)" />
    <path
       style="fill:#374548;fill-opacity:1;stroke:none"
       id="path3015"
       d="m 81.209317,26.956743 c 0.50968,0.0065 1.019428,0.0042 1.529136,0.0034 0.510899,-0.0012 1.021801,-4.42e-4 1.532694,0.0023 0.617368,8.3e-4 1.234735,6.6e-5 1.8521,-0.0015 0.499203,-0.0012 0.998412,-0.0014 1.497616,-3.97e-4 0.488737,5.24e-4 0.977473,-0.0017 1.46621,-5.93e-4 0.463616,3.16e-4 0.927231,-4.84e-4 1.390846,-9e-4 0.410647,-3.47e-4 0.821294,-4.14e-4 1.231941,-4.57e-4 0.33552,-2.4e-5 0.671039,-1.9e-5 1.006558,-1.6e-5 0,0 -1.286086,0.934396 -1.286086,0.934396 l 0,0 c -0.335504,3e-6 -0.671009,8e-6 -1.006513,-1.6e-5 -0.410228,-4.3e-5 -0.820456,-1.1e-4 -1.230684,-4.57e-4 -0.46279,-4.16e-4 -0.925579,-0.0012 -1.388368,-9e-4 -0.488193,0.0011 -0.976385,-0.0011 -1.464579,-5.93e-4 -0.498839,0.001 -0.997684,8.07e-4 -1.496523,-3.97e-4 -0.616011,-0.0015 -1.232024,-0.0023 -1.848037,-0.0015 -0.51299,0.0027 -1.025988,0.0035 -1.538985,0.0023 -0.512858,-8.04e-4 -1.025754,-0.003 -1.538585,0.0034 0,0 1.291259,-0.938154 1.291259,-0.938154 z"
       inkscape:connector-curvature="0"
       transform="translate(0,924.36218)" />
    <path
       style="fill:#374548;fill-opacity:1;stroke:none"
       id="path3017"
       d="m 33.046084,28.604054 c 0.503752,0.08749 1.014054,0.125577 1.524138,0.151003 0.435853,0.01834 0.872169,0.01876 1.308323,0.01916 0.403525,-2.19e-4 0.807049,-9.09e-4 1.210573,-0.0013 0.402617,-3.04e-4 0.805234,-3.39e-4 1.207852,-3.66e-4 0.403065,-1.6e-5 0.806131,-7e-6 1.209196,-4e-6 0.403109,4e-6 0.806217,5e-6 1.209325,6e-6 0.403104,0 0.806208,0 1.209311,0 0.403103,0 0.806206,0 1.209309,0 0.403103,0 0.806206,0 1.209309,0 0.403103,0 0.806206,0 1.209309,0 0.405167,0.01167 0.813296,-0.02991 1.214759,0.03184 0.398347,0.0817 0.801594,0.126773 1.207027,0.151471 0.403891,0.03124 0.8112,-0.01062 1.2117,0.05158 0.398265,0.08165 0.801529,0.12601 1.206876,0.150351 0.399949,0.08873 0.802542,0.154995 1.210602,0.190463 0.401029,0.02844 0.8033,0.0292 1.205124,0.03054 0.403006,3.65e-4 0.806012,-5.84e-4 1.209018,-0.001 0.403118,-4.21e-4 0.806238,-4.93e-4 1.209357,-5.43e-4 0.06718,-5e-6 0.134369,-9e-6 0.201554,-1.4e-5 0,0 -1.286055,0.934391 -1.286055,0.934391 l 0,0 c -0.06718,7e-6 -0.134365,1.5e-5 -0.201548,2.2e-5 -0.403087,7.4e-5 -0.806174,1.9e-4 -1.209261,6.77e-4 -0.403199,4.99e-4 -0.806401,0.0016 -1.209599,2.4e-4 -0.404737,-0.0027 -0.810084,-0.0059 -1.213494,-0.04237 -0.406156,-0.04301 -0.804959,-0.123582 -1.208016,-0.186749 -0.406869,-0.03071 -0.809843,-0.08708 -1.211741,-0.157384 -0.401228,-0.03495 -0.805176,-0.01172 -1.206918,-0.04467 -0.406825,-0.0311 -0.809643,-0.08826 -1.21159,-0.158063 -0.400211,-0.03342 -0.802583,-0.0091 -1.203859,-0.01637 -0.403103,0 -0.806205,0 -1.209308,0 -0.403103,0 -0.806206,0 -1.209309,0 -0.403103,0 -0.806206,0 -1.209309,0 -0.403104,0 -0.806208,0 -1.209311,-1e-6 -0.403109,-1e-6 -0.806217,-2e-6 -1.209325,-6e-6 -0.403066,-3e-6 -0.806131,-1.1e-5 -1.209196,2.3e-5 -0.402604,5e-5 -0.805207,1.27e-4 -1.207811,4.98e-4 -0.403496,3.93e-4 -0.806994,0.0012 -1.210491,5.41e-4 -0.436556,-0.0017 -0.873314,-0.0048 -1.30933,-0.02887 -0.516501,-0.03191 -1.031826,-0.0803 -1.543582,-0.158531 0,0 1.306391,-0.916573 1.306391,-0.916573 z"
       inkscape:connector-curvature="0"
       transform="translate(0,924.36218)" />
  </g>
</svg>
