<?xml version="1.0" encoding="UTF-8" standalone="no"?>
<!-- Created with Inkscape (http://www.inkscape.org/) -->

<svg
   xmlns:dc="http://purl.org/dc/elements/1.1/"
   xmlns:cc="http://creativecommons.org/ns#"
   xmlns:rdf="http://www.w3.org/1999/02/22-rdf-syntax-ns#"
   xmlns:svg="http://www.w3.org/2000/svg"
   xmlns="http://www.w3.org/2000/svg"
   xmlns:sodipodi="http://sodipodi.sourceforge.net/DTD/sodipodi-0.dtd"
   xmlns:inkscape="http://www.inkscape.org/namespaces/inkscape"
   width="400"
   height="300"
   id="svg2"
   version="1.1"
   inkscape:version="0.48.5 r10040"
   sodipodi:docname="anchor.svg"
   inkscape:export-filename="C:\Users\narfman0\Desktop\anchor.png"
   inkscape:export-xdpi="45"
   inkscape:export-ydpi="45">
  <defs
     id="defs4" />
  <sodipodi:namedview
     id="base"
     pagecolor="#ffffff"
     bordercolor="#666666"
     borderopacity="1.0"
     inkscape:pageopacity="0.0"
     inkscape:pageshadow="2"
     inkscape:zoom="1.5392183"
     inkscape:cx="176.40156"
     inkscape:cy="158.34767"
     inkscape:document-units="px"
     inkscape:current-layer="layer1"
     showgrid="false"
     inkscape:window-width="1276"
     inkscape:window-height="872"
     inkscape:window-x="2046"
     inkscape:window-y="83"
     inkscape:window-maximized="0" />
  <metadata
     id="metadata7">
    <rdf:RDF>
      <cc:Work
         rdf:about="">
        <dc:format>image/svg+xml</dc:format>
        <dc:type
           rdf:resource="http://purl.org/dc/dcmitype/StillImage" />
        <dc:title />
      </cc:Work>
    </rdf:RDF>
  </metadata>
  <g
     inkscape:label="Layer 1"
     inkscape:groupmode="layer"
     id="layer1"
     transform="translate(0,-752.36218)">
    <path
       style="fill:#000000;fill-opacity:1;stroke:none"
       id="path3016"
       d="m 172.7669,815.43971 c -0.22438,3.04282 -0.95359,6.01776 -1.43305,9.02536 -0.092,1.11724 -0.028,2.19268 -0.22139,3.30625 -0.19845,1.61953 -0.61215,3.19891 -0.89877,4.80307 -0.23774,1.68463 -0.0449,3.39599 0.0557,5.0856 0.0943,1.28741 0.0825,2.57744 0.0474,3.86657 -0.0464,1.46874 -0.0223,2.93857 -0.0226,4.40787 0.0292,1.62958 0.0176,3.25944 0.002,4.88909 -0.0146,1.18464 -0.0138,2.36937 -0.011,3.55408 0.005,1.32361 0.006,2.64722 0.006,3.97083 -7.3e-4,1.30039 -0.002,2.60077 -0.002,3.90116 -1.6e-4,1.29538 3.3e-4,2.59077 5.7e-4,3.88616 0.0333,1.57669 0.0209,3.15384 0.008,4.73069 -0.0137,1.23389 -0.0149,2.46785 -0.0125,3.7018 0.004,1.30094 0.006,2.60188 0.007,3.90282 -0.0102,1.26969 0.50976,2.46662 0.73985,3.70957 0.47589,1.03891 0.70216,2.10019 0.7497,3.23774 -0.1553,1.33622 -0.0926,2.56566 0.214,3.86718 0.38623,1.37766 0.43822,2.79169 0.37245,4.2104 -0.10736,1.27307 -0.17124,2.54734 -0.17743,3.82481 0.0129,1.29879 0.0479,2.59717 0.0603,3.89599 0.007,1.30311 -0.005,2.60622 -0.0121,3.90931 -0.006,1.29717 -0.003,2.59436 -9.1e-4,3.89154 0.003,1.30017 0.003,2.60034 0.002,3.90051 0.0667,1.41632 -0.51569,2.73805 -0.77376,4.10898 -0.12269,1.24836 0.0582,2.45052 -0.23224,3.68203 -0.39267,0.99234 -0.45515,2.01667 -0.43755,3.06971 0.0738,1.37114 0.16099,2.74059 0.18601,4.11375 0.007,1.29081 -0.0319,2.58124 -0.0492,3.87184 -0.0137,1.29465 -0.003,2.58939 0.004,3.88405 0.008,1.30335 0.006,2.60671 0.004,3.91007 -0.15265,1.11754 -0.73094,2.07725 -0.84275,3.20089 -0.0193,1.29939 0.1363,2.59379 0.21203,3.88992 0.0367,1.37828 0.1333,2.77081 -0.15955,4.1237 -0.45146,0.9472 -0.71178,1.84959 -0.71876,2.89576 0.0393,0.8255 0.0135,0.40377 0.0788,1.26511 0.0114,0.19462 -2.74091,0.35622 -2.75234,0.1616 l 0,0 c -0.0637,-0.98451 -0.0409,-0.49097 -0.0682,-1.48065 0.0421,-1.18621 0.2177,-2.33014 0.79537,-3.38636 0.34663,-1.07456 10e-4,-2.33137 0.0729,-3.43976 -0.0891,-1.43024 -0.26671,-2.86261 -0.17818,-4.29702 0.13298,-1.02997 0.43976,-1.97561 0.81539,-2.93656 0.002,-1.29801 0.003,-2.59603 -0.005,-3.89402 -0.007,-1.30969 -0.0176,-2.61947 -0.001,-3.92913 0.0186,-1.26383 0.0578,-2.52764 0.0445,-3.7917 -0.0322,-1.38328 -0.1366,-2.76236 -0.18822,-4.14481 8.4e-4,-1.24065 0.083,-2.47592 0.53612,-3.64607 0.32912,-1.14779 -0.13396,-2.37639 0.16835,-3.54533 0.2279,-1.23638 0.7449,-2.42572 0.74357,-3.6869 5.1e-4,-1.29847 5e-4,-2.59694 -0.002,-3.89541 -0.002,-1.30259 -0.005,-2.60519 0.001,-3.90777 0.007,-1.29155 0.0199,-2.58312 0.0122,-3.87469 -0.0131,-1.31051 -0.0502,-2.62055 -0.0614,-3.93106 0.008,-1.31028 0.0695,-2.61771 0.18406,-3.92321 0.0608,-1.20915 0.007,-2.40396 -0.34142,-3.57437 -0.33105,-1.44639 -0.44333,-2.85278 -0.23466,-4.32857 -0.007,-1.03476 -0.36897,-1.91513 -0.7343,-2.87612 -0.26178,-1.3789 -0.84697,-2.7092 -0.77499,-4.13494 1.7e-4,-1.30095 0.002,-2.6019 0.007,-3.90285 0.002,-1.23394 0.001,-2.46788 -0.0124,-3.70176 -0.0132,-1.57683 -0.0258,-3.15397 0.007,-4.73066 1.8e-4,-1.29555 8.1e-4,-2.5911 0.001,-3.88665 1.1e-4,-1.29975 -8.1e-4,-2.59949 -0.003,-3.89924 -0.002,-1.32535 -0.003,-2.65072 0.005,-3.97606 0.007,-1.18186 0.0169,-2.36381 10e-4,-3.54565 -0.0223,-1.62988 -0.0583,-3.25981 -0.0428,-4.88993 -0.005,-1.49293 0.0214,-2.98478 0.087,-4.47638 0.0356,-1.21487 0.018,-2.42887 -0.1116,-3.63894 -0.14918,-1.87761 -0.2956,-3.77125 -0.037,-5.64699 0.26914,-1.62623 0.72541,-3.20749 0.9745,-4.83623 0.0531,-0.25052 0.24806,-0.77231 0.21954,-1.0517 -0.072,-0.70524 -0.28141,-1.39507 -0.14445,-2.11805 0.28047,-3.07514 0.94332,-6.08708 1.54761,-9.11087 0.0269,-0.19275 2.75286,0.18785 2.72595,0.3806 z"
       inkscape:connector-curvature="0" />
    <path
       style="fill:#000000;fill-opacity:1;stroke:none"
       id="path3018"
       d="m 167.47056,956.94433 c -2.2895,0.47659 -4.61872,0.64922 -6.90118,1.16499 -1.26998,0.41832 -2.56189,0.2628 -3.85803,0.1036 -0.83445,-0.02 -1.70356,-0.19523 -2.53871,-0.0949 -0.0548,0.007 0.20285,0.0424 0.15244,0.065 -0.1916,0.0858 -0.40909,0.0943 -0.61364,0.14143 -1.60875,0.59061 -3.23075,0.71962 -4.92688,0.69876 -1.06694,-0.0345 -2.14355,-0.31075 -3.21492,-0.24686 -0.1281,0.008 0.25551,0.0241 0.38327,0.0362 -1.08865,0.42353 -2.1584,0.75241 -3.32776,0.86442 -1.645,0.0572 -3.27622,-0.17653 -4.91729,-0.24285 -0.21149,-0.003 -0.42358,-0.0259 -0.63447,-0.01 -0.1295,0.01 0.30917,-0.0742 0.38858,0.0285 0.0636,0.0823 -0.20209,0.0507 -0.29979,0.0864 -0.52114,0.19005 -1.01363,0.41614 -1.54395,0.58744 -1.64838,0.40262 -3.35537,0.15671 -5.02241,0.0226 -1.17276,-0.0953 -2.04981,-0.0769 -3.15915,-0.0544 -1.52048,0.0541 -3.04154,0.0601 -4.56277,0.0584 -1.30593,-0.0117 -2.61188,-0.0199 -3.91787,-0.0211 -0.934,10e-4 -2.15625,0.004 -3.20572,0.006 -1.52799,0.002 -3.05598,5.1e-4 -4.58397,-4.3e-4 -1.13973,-6.7e-4 -2.10856,-4.7e-4 -3.2147,-2.9e-4 -1.59948,0.0378 -3.17826,0.008 -4.76728,-0.17258 -1.2242,-0.42388 -2.44835,-0.69709 -3.744055,-0.68049 0.0332,0.006 0.13335,0.016 0.0997,0.0194 -1.07152,0.10853 -2.16081,0.16132 -3.23657,0.21619 -1.6119,0.002 -3.25552,0.14422 -4.835281,-0.2142 -1.267561,-0.4236 -2.562046,-0.61253 -3.790726,-1.13637 -0.86601,-0.35086 -1.552218,-0.16802 -2.213022,-0.12699 -1.710327,0.0859 -3.318592,-0.51885 -5.0064,-0.65907 -1.255448,-0.46648 -2.625355,-0.48995 -3.88238,-0.89853 -0.180493,-0.0701 -0.368531,-0.12332 -0.54148,-0.21041 -0.235207,-0.11845 -0.87173,-0.54424 -1.138764,-0.68206 -0.487353,-0.25152 -1.015341,-0.34769 -1.517552,-0.57918 -1.274867,-0.44222 -2.60687,-0.46468 -3.885254,-0.96728 -1.367048,-0.71358 -2.771655,-1.32881 -4.220452,-1.85592 -0.600854,-0.37739 -1.308439,-0.51046 -1.952098,-0.77322 -0.502058,-0.20495 -0.927077,-0.503 -1.445573,-0.66879 -1.105595,-0.60219 -2.021649,-1.51903 -3.156926,-2.05657 -0.485385,-0.51266 -1.192397,-0.55239 -1.74867,-0.92342 -0.332065,-0.22149 -0.634676,-0.48461 -0.961771,-0.71338 -0.972244,-0.48187 -1.791075,-1.20292 -2.848426,-1.51401 -1.092468,-0.58947 -2.113708,-1.29062 -3.178878,-1.92684 -1.091935,-0.87507 -2.339568,-1.52101 -3.471758,-2.33219 -0.830246,-0.34852 -1.324695,-1.09695 -1.990531,-1.64651 -0.08673,-0.0716 -0.194055,-0.11373 -0.291082,-0.17059 -0.134891,-0.11832 -0.269782,-0.23663 -0.404674,-0.35494 -0.667925,-0.25329 -1.057317,-0.8745 -1.621498,-1.2684 -0.106948,-0.0747 -0.232276,-0.11874 -0.348414,-0.17812 -0.160022,-0.12323 -0.320043,-0.24646 -0.480065,-0.36969 -1.168446,-0.57394 -2.157045,-1.29355 -3.072021,-2.22113 -1.044429,-1.11673 -1.710586,-2.53253 -2.987251,-3.42227 -0.813304,-0.54502 -1.549497,-1.17468 -2.320637,-1.77129 -0.895053,-0.50467 -1.233298,-1.73975 -2.177875,-2.13643 -1.055438,-0.60516 -1.613001,-1.72832 -2.602326,-2.40758 -0.907686,-0.81301 -1.803294,-1.62901 -2.783405,-2.35414 -0.839687,-0.24593 -1.223402,-1.0098 -1.800993,-1.57626 -0.06684,-0.0656 -0.156545,-0.10272 -0.234817,-0.15407 -0.119881,-0.12058 -0.239761,-0.24115 -0.359642,-0.36173 -1.000561,-0.59453 -1.932282,-1.28017 -2.893222,-1.93335 -0.763409,-0.68657 -1.5721,-1.31174 -2.424954,-1.88874 -0.832236,-0.65318 -1.450937,-1.53145 -2.235938,-2.22679 -0.961034,-0.62002 -1.901448,-1.20306 -2.710118,-2.03212 -0.863467,-0.85531 -1.616634,-1.85465 -2.554514,-2.63075 -1.1869017,-0.59549 -1.8593607,-1.2949 -2.6992907,-2.3239 -0.503673,-0.87983 -1.133148,-1.65114 -1.778359,-2.42658 -0.874902,-0.60273 -1.550338,-1.43958 -2.372946,-2.10551 -0.8271759,-0.83049 -1.7103217,-1.53297 -2.2701749,-2.57598 -0.042942,-0.12828 -0.25880178,-0.34734 -0.12882678,-0.38485 0.85045618,-0.24544 1.75188028,-0.41287 2.63388268,-0.33811 0.114558,0.01 0.429212,2.99523 0.453838,3.29512 0.117621,1.56938 0.02421,3.14051 -0.0696,4.7078 -0.07383,1.16064 -0.04931,2.32399 -0.02994,3.48585 0.112841,1.27001 -0.131024,2.58564 0.128137,3.83704 0.438197,1.31463 0.688421,2.64993 0.731689,4.03306 -0.201251,1.0837 0.05683,1.96388 0.348341,2.97937 0.353336,1.37244 0.269586,2.79382 0.191214,4.19339 -0.10027,1.31103 -0.130903,2.62464 -0.120985,3.93896 0.02513,1.28138 0.04765,2.56268 0.05278,3.84431 1.2e-5,1.30868 -0.01076,2.61733 -0.01524,3.92599 -0.0033,1.29618 1.1e-5,2.59236 0.002,3.88853 0.0021,1.30002 0.0015,2.60004 8.79e-4,3.90006 -7.83e-4,1.2994 -9.03e-4,2.5988 -8.11e-4,3.8982 0.337021,1.25235 0.683919,2.48306 0.821229,3.77697 0.01732,1.11171 -0.125082,2.14136 0.219901,3.20506 0.369346,1.09715 0.30766,2.29912 0.867548,3.33052 0.513079,0.96113 0.999398,1.95515 1.366556,2.98289 0.11851,0.98539 0.451529,1.46153 1.104601,2.14514 0.6737127,0.97645 1.1868667,2.0371 1.8559717,3.01626 0.574953,0.50014 1.181487,0.93878 1.82467,1.36388 0.889615,0.89513 1.88632,1.67722 2.93387,2.37568 0.599431,0.30576 0.908887,1.07455 1.480554,1.39479 0.04821,0.027 0.110314,0.007 0.165472,0.0103 0.132316,0.0914 0.264632,0.18286 0.396948,0.27429 1.075936,0.2713 1.952165,0.98182 2.845097,1.6303 1.087677,0.58532 1.899314,1.61634 3.113843,1.95204 0.951064,0.4642 1.985662,0.7743 3.024818,0.984 0.226224,0.099 0.453296,0.1959 0.67867,0.2967 0.769554,0.3442 1.402468,1.2089 2.106319,1.2929 0.499657,0.4254 1.065065,0.3613 1.64334,0.4826 0.07659,0.016 1.029211,0.3381 1.150635,0.3789 0.857651,0.7442 1.779996,1.078 2.848973,1.3879 1.202214,0.057 2.295969,0.5871 3.473112,0.768 1.358984,0.4399 2.672573,1.0145 3.976702,1.5968 1.274249,0.5278 2.643382,0.574 3.888475,1.1834 0.508749,0.4632 1.06508,0.4701 1.669004,0.601 0.362486,0.079 0.703063,0.2367 1.055266,0.353 0.624532,0.2495 1.299961,0.069 1.93918,0.1396 0.396432,0.044 0.951348,0.2246 1.338144,0.3391 1.101645,0.1709 2.099766,0.5722 3.151527,0.919 1.144878,0.6341 2.432976,0.8494 3.684458,1.1793 1.337269,0.1564 2.607851,0.6145 3.937466,0.8136 1.359647,0.085 2.661163,0.498 3.845681,1.1529 0.984062,0.3576 2.057939,0.5195 3.101013,0.6958 1.407205,0.019 2.742759,0.4634 4.119045,0.7001 1.096931,0.7131 2.348945,0.6439 3.558184,0.9501 1.064716,0.469 2.229136,0.3086 3.322091,0.582 0.998019,0.4328 2.022347,0.4908 3.091153,0.4595 1.265531,-0.2489 2.954852,0.2206 4.349697,0.5255 1.181005,0.2184 1.760212,0.1395 2.848554,0.072 1.690052,-0.283 3.244162,0.4062 4.869362,0.686 1.06917,0.109 1.73914,0.016 2.92575,-0.075 1.557966,-0.1362 3.122526,-0.1262 4.684436,-0.089 1.46871,-0.1017 2.46141,0.1438 3.79888,0.7024 0.94579,0.3369 1.94719,0.1384 2.91964,0.091 1.71228,-0.1308 3.42646,-0.1686 5.14287,-0.1654 1.21567,0.044 2.4317,0.065 3.64812,0.067 1.05968,-0.01 2.17361,-0.015 3.2885,-0.02 1.52363,-0.01 3.04726,-10e-4 4.57089,0 1.46372,-0.1516 2.80599,0.178 4.1958,0.585 1.56379,0.156 3.06275,0.6388 4.61146,0.8836 1.08738,0.094 1.50226,0 2.73948,-0.1154 1.56477,-0.1511 3.13813,-0.1191 4.70726,-0.078 1.0442,0.035 2.30333,0.043 3.20881,0.04 1.61993,0.039 3.07557,0.7372 4.68375,0.8389 1.10635,-0.071 2.62602,-0.1811 4.00814,0.137 1.24537,0.468 2.57809,0.3906 3.85754,0.639 1.22059,0.3564 2.45823,0.4992 3.7245,0.4686 -0.0262,0 -0.10512,-0.012 -0.0786,-0.014 1.08209,-0.089 2.17441,-0.1313 3.2594,-0.168 1.54225,-0.037 3.08442,0.018 4.62645,0.039 1.10367,0.011 2.04948,0 3.19225,0 1.52953,-0.01 3.05909,-0.01 4.58863,-0.01 1.05345,0 2.26979,0 3.21374,0 1.41053,-0.015 2.49863,0.8227 3.88137,0.8711 0.9071,-0.053 2.09061,-0.1539 3.21477,-0.2258 1.55623,-0.097 3.1153,-0.041 4.67227,0 1.74593,-0.026 3.47049,-0.013 5.21048,0.1307 1.54013,0.3991 3.07707,0.7065 4.67139,0.7141 1.40764,0.3318 2.79935,0.55 4.24549,0.5919 1.34885,-0.018 2.6981,-0.1104 4.04853,-0.1544 1.65428,-0.1181 3.08782,0.7564 4.69785,0.8915 1.28488,-0.066 2.58387,-0.1499 3.87851,-0.2359 2.21708,-0.1226 4.43772,-0.095 6.65589,-0.025 1.18785,0.066 2.3771,0.051 3.56602,0.048 1.52597,-0.01 3.05194,-0.01 4.57792,-0.011 1.4415,-0.1558 2.76839,0.4083 4.14142,0.7373 1.20138,0.2047 2.42956,0.072 3.63832,7e-4 0.96043,-0.081 1.8756,-0.1363 2.83863,0.053 0.46602,0.092 1.151,0.4441 1.68431,0.5724 1.31806,0.2078 2.66565,0.098 3.99233,0.033 1.71808,-0.1436 3.43705,-0.1648 5.1598,-0.1499 1.51538,0.055 3.03193,0.051 4.54811,0.058 1.37392,0.2072 2.64767,0.7723 4.03994,0.8607 0.72774,-0.028 1.86217,-0.1393 2.94083,-0.2138 1.57352,-0.1013 3.15051,-0.045 4.72503,-0.01 1.0912,0.03 2.17445,0.023 3.16408,0.018 1.53066,-0.014 3.06136,-0.017 4.59207,-0.017 0.86276,-0.051 1.73937,0.073 2.60085,0.01 0.12109,-0.01 -0.33311,0.094 -0.36361,-0.024 -0.029,-0.1117 0.22239,-0.061 0.33359,-0.092 0.98112,-0.4968 2.07986,-0.5649 3.11981,-0.8549 1.49798,-0.5257 3.07096,-0.5241 4.6376,-0.4374 0.67105,0.1265 1.05748,-0.1686 2.33552,-0.5066 1.12561,-0.094 2.19759,-0.3376 3.28931,-0.6116 1.07306,-0.1118 2.00954,-0.2475 2.95147,-0.7734 1.14763,-0.5453 2.33448,-1.0625 3.56969,-1.3745 1.02452,-0.053 1.97695,-0.3222 2.91553,-0.7184 1.39711,-0.5028 2.82932,-0.9391 4.28972,-1.2163 0.9236,-0.2576 1.90229,-0.4409 2.76385,-0.8718 1.3298,-0.7787 2.73818,-1.3805 4.18696,-1.8943 1.30389,-0.6146 2.59931,-1.251 3.96555,-1.716 0.92595,-0.4607 2.079,-0.4402 2.95852,-0.9959 0.79742,-0.7464 1.77042,-1.2474 2.69844,-1.8063 0.91167,-0.4908 1.87532,-0.8729 2.79309,-1.3487 0.84327,-0.4257 1.76493,-0.746 2.55294,-1.2692 0.90479,-0.6676 1.82329,-1.3127 2.82421,-1.8273 0.8723,-0.5237 1.69743,-1.0834 2.62503,-1.518 1.0389,-0.5196 2.02343,-1.1379 2.96961,-1.8096 0.85843,-0.6174 1.73179,-1.2006 2.52688,-1.8996 0.82329,-0.7009 1.73586,-1.2827 2.5772,-1.9627 0.90645,-0.7457 1.89067,-1.3818 2.93655,-1.911 0.98543,-0.87361 2.00045,-1.6989 3.07162,-2.47078 1.05118,-0.83497 2.08828,-1.65728 3.03525,-2.60914 0.977,-1.09217 2.18448,-1.91946 3.33265,-2.81533 0.69995,-0.61833 1.27361,-1.32936 2.07634,-1.82222 0.92662,-0.67145 1.836,-1.34841 2.62755,-2.17954 0.71191,-0.84252 1.54753,-1.56532 2.30069,-2.36706 1.0287,-0.87946 1.83451,-1.87315 2.47776,-3.05618 0.4271,-1.2948 1.25194,-2.37326 1.9312,-3.53648 0.48144,-1.15 1.26425,-2.12809 2.00804,-3.11697 0.68241,-0.67843 1.07457,-1.51008 1.59136,-2.30238 0.79991,-1.12791 1.53502,-2.28092 2.42667,-3.34012 0.56926,-0.6744 0.93719,-1.41731 1.28728,-2.21566 0.26717,-1.01949 0.9075,-1.87741 1.30929,-2.84155 0.54078,-1.03218 1.00158,-2.09226 1.60179,-3.09292 0.57095,-1.02067 0.95981,-2.14078 1.14255,-3.2949 0.31615,-1.0172 0.59955,-1.99599 0.59417,-3.06471 0.1762,-1.17778 0.49094,-2.33077 1.01004,-3.40268 0.49086,-0.95859 0.29376,-2.0374 0.39864,-3.06879 0.26715,-1.08604 0.47387,-2.16018 0.49762,-3.27959 -0.17244,-1.45976 0.18642,-2.85932 0.49573,-4.27154 0.26617,-1.1694 0.18388,-2.36299 0.0999,-3.54678 -0.11762,-1.32536 -0.13259,-2.65532 -0.11811,-3.98475 0.0289,-1.29855 0.0507,-2.5971 0.0543,-3.89597 -0.002,-1.29588 -0.013,-2.59172 -0.0171,-3.88759 -0.13301,-0.78957 -0.5908,-1.26557 -1.13363,-1.80615 -0.56094,-0.43108 -0.61059,-1.25127 -1.07747,-1.74053 -0.0294,-0.0308 -0.15281,0.0402 -0.11398,0.0577 0.87315,0.39252 0.70084,0.396 1.1366,0.36033 -0.6317,0.90338 -0.96674,1.94612 -1.35595,2.96853 -0.23942,1.158 -0.89021,2.03377 -1.78668,2.76363 -0.84056,0.57782 -1.62032,1.23293 -2.47114,1.79562 -0.91358,0.59384 -1.80127,1.2014 -2.51397,2.03388 -0.57864,0.68837 -1.14871,1.37994 -1.75475,2.04518 -0.71873,0.83531 -1.61998,1.39279 -2.58035,1.90513 -0.72752,0.37581 -1.24012,0.99098 -1.771,1.59196 -0.67943,0.68411 -1.08611,1.53571 -1.71274,2.25678 -0.66378,0.53194 -1.05912,1.23093 -1.43799,1.96831 -0.45108,1.11669 -1.27951,2.0089 -2.0229,2.93851 -0.61184,0.88473 -1.34749,1.65701 -1.98861,2.51901 -0.48186,0.91349 -0.85156,1.8458 -1.48488,2.67736 -0.69819,0.71111 -1.24266,1.5124 -1.71342,2.38055 -0.68341,0.93647 -1.15996,1.99006 -1.84109,2.92749 -0.52353,0.7357 -0.98713,1.50235 -1.55776,2.20761 -0.53659,0.8522 -0.88286,1.75867 -1.51206,2.54813 -0.64893,0.59378 -1.38356,0.96721 -1.86849,1.71708 -0.70792,0.95744 -1.50578,1.85056 -2.35137,2.68863 -0.69458,0.63216 -1.64749,0.86021 -2.36116,1.45706 -0.71195,0.64109 -1.54383,1.12306 -2.29538,1.71649 -0.85598,0.96588 -1.97242,1.49043 -3.17959,1.87311 -0.99959,0.26475 -1.94846,0.62644 -2.88161,1.06279 -0.78847,0.46079 -1.56666,0.94378 -2.38684,1.3477 -0.97489,0.54376 -1.94413,1.07064 -2.96074,1.53443 -1.15869,0.60601 -2.45409,0.86999 -3.72211,1.14708 -1.00181,0.18732 -2.04016,0.13724 -2.99356,0.54135 -0.86232,0.72332 -1.94222,0.89542 -2.98551,1.19415 -1.07583,0.29622 -2.17348,0.37072 -3.24182,0.69484 -1.26659,0.6399 -2.56995,1.00781 -3.98137,1.1198 -1.07373,0.0999 -2.11072,0.38402 -3.18722,0.48392 -1.34084,0.25856 -2.657,0.57826 -4.02132,0.70085 -1.16032,0.0939 -2.31662,-0.0486 -3.47271,-0.11451 -0.12565,-0.007 0.29384,-0.0604 0.37595,0.035 0.0656,0.0761 -0.1972,0.0387 -0.2958,0.0581 -0.96535,0.25007 -1.76609,0.83088 -2.68537,1.19252 -1.18376,0.20536 -2.36748,0.35011 -3.55113,0.57835 -1.57956,0.27633 -3.18835,0.16461 -4.78014,0.0838 -0.22551,-0.01 -0.45083,-0.0328 -0.67653,-0.0297 -0.11346,0.002 0.3338,-0.0789 0.33866,0.0344 0.005,0.11406 -0.22453,0.0435 -0.33393,0.0762 -0.39468,0.11781 -0.78906,0.27007 -1.16138,0.44531 -1.36173,0.99892 -2.85576,1.00338 -4.47639,0.96429 -1.4844,-0.16598 -1.14559,-0.21877 -2.51887,0.20413 -1.55,0.49442 -3.17783,0.41076 -4.77914,0.30479 -0.0759,-0.005 -1.29707,-0.0897 -1.38407,-0.0862 -0.0703,0.003 0.26632,0.0283 0.20278,0.0584 -0.34751,0.16501 -1.40829,0.33193 -1.82174,0.44198 -1.29013,0.28693 -2.59973,0.36974 -3.89402,0.64219 -1.33692,0.50269 -2.65695,0.93074 -4.08501,1.06074 -1.16433,0.0927 -2.30383,-0.13837 -3.45543,-0.24204 -0.12461,-0.0112 0.29375,-0.052 0.3726,0.0451 0.0629,0.0774 -0.19659,0.0338 -0.29489,0.0506 -1.39836,0.61023 -2.82452,0.70249 -4.33041,0.7263 -0.69687,-0.1202 -1.27266,0.17982 -2.48663,0.45391 -1.34441,0.19412 -2.64139,0.58491 -3.98775,0.77291 -1.61527,0.18882 -3.23053,-0.0275 -4.84239,-0.12617 -1.14033,-0.0567 -1.98926,-0.0234 -3.07954,-5.4e-4 -1.54173,0.0405 -3.08402,0.0433 -4.62615,0.0339 -1.29636,-0.0114 -2.59275,-0.0149 -3.88915,-0.0143 -1.30166,0.12443 -2.83982,-0.18007 -4.1994,-0.57918 -1.18731,-0.16188 -2.29386,-0.46067 -3.43691,-0.81141 -1.07755,-0.0165 -2.06274,-0.2877 -3.0965,-0.57794 -0.52642,-0.21952 -0.92612,-0.666 -1.46923,-0.85034 -0.44361,-0.15057 -0.87758,-0.12403 -1.36292,-0.27719 -1.13022,-0.33193 -2.28679,-0.38161 -3.43576,-0.6534 -1.50429,-0.28231 -2.61501,-0.25768 -3.87155,-1.23944 -0.52861,-0.66715 -0.54443,-0.46438 -1.15581,-0.57934 -0.35537,-0.0668 -0.68899,-0.22035 -1.03721,-0.3178 -1.15408,-0.0443 -2.21417,-0.32266 -3.31918,-0.64312 -0.97053,-0.68699 -1.46839,-0.9632 -2.63657,-0.89631 0.0345,0.0113 0.13936,0.0285 0.10346,0.0339 -1.15631,0.1713 -2.36256,0.22428 -3.52926,0.29662 -1.08352,0.0693 -1.75386,-0.24237 -2.65523,-0.67152 -0.15772,-0.10884 1.38151,-2.33941 1.53923,-2.23057 l 0,0 c 0.12525,0.0509 1.23994,0.31442 0.30985,0.26805 1.67517,-0.0773 3.33334,-0.36437 5.01365,-0.32097 1.16264,0.12926 2.14377,0.49656 3.12876,1.11851 1.09458,0.31501 2.21765,0.35142 3.31731,0.64665 1.04082,0.30974 2.086,0.55359 2.84583,1.40161 0.92952,0.50256 2.15695,0.22285 3.12272,0.64432 1.16912,0.26055 2.37429,0.32858 3.5122,0.7294 1.02488,0.22707 1.9509,0.58126 2.84276,1.13435 1.03729,0.29672 2.10005,0.31929 3.13869,0.61164 1.12249,0.34861 2.28906,0.41602 3.417,0.75133 0.39233,0.10978 0.82465,0.11258 1.18336,0.30573 0.0662,0.0356 -0.29428,0.0421 -0.21964,0.0507 0.86612,0.0994 1.77107,-0.13431 2.6337,-0.003 1.2996,0.001 2.59917,0.008 3.89874,0.0163 1.00819,0.003 2.10233,0.006 3.20178,-0.0235 1.54519,-0.035 3.09286,-0.0742 4.63636,0.0307 1.08877,0.0741 2.1705,0.17484 3.07787,0.15127 1.30927,-0.11182 2.548,-0.52231 3.84251,-0.67952 1.4281,-0.20773 2.76611,-0.88435 4.25886,-0.61881 -0.24435,0.0713 -0.19552,0.0485 0.45352,0.0228 0.48791,-0.0194 0.93462,-0.10868 1.39344,-0.27476 0.18078,-0.0654 0.35764,-0.14125 0.53646,-0.21187 1.26413,-0.42118 2.6588,-0.29173 3.9688,-0.10982 0.0417,0.006 -0.0822,0.0177 -0.12331,0.0266 1.33354,0.0143 2.52388,-0.4176 3.74338,-0.93458 1.26377,-0.26395 2.50574,-0.47716 3.78839,-0.59323 1.69125,-0.43894 3.27884,-0.89801 5.06183,-0.58995 0.82882,0.0454 1.72074,0.17766 2.65525,-0.0574 0.56021,-0.17005 1.17603,-0.47397 1.75797,-0.5365 0.97231,-0.10447 1.89689,-0.0138 2.85757,0.0789 -0.23583,0.0883 -0.15246,0.044 0.42356,0.0639 0.39069,0.0134 0.74718,-0.004 1.09862,-0.19362 0.14869,-0.0803 0.28407,-0.18309 0.42611,-0.27464 1.29923,-0.81844 2.81464,-1.23633 4.36306,-1.08583 1.05926,0.0509 1.84578,0.13496 2.936,0.0375 1.09868,-0.1652 2.16118,-0.55697 3.28432,-0.44251 0.99949,-0.16395 1.7042,-0.98841 2.70537,-1.19128 1.30676,-0.46274 2.70899,-0.27353 3.8573,-0.22693 1.38295,-0.0506 2.7103,-0.36092 4.05212,-0.68396 1.10695,-0.008 2.14568,-0.26745 3.21945,-0.5201 1.24732,0.0253 2.36153,-0.24235 3.4569,-0.8643 1.08408,-0.32065 2.12373,-0.61831 3.25463,-0.70196 0.37421,-0.11175 0.73685,-0.26877 1.12024,-0.34317 0.54916,-0.10657 0.96623,-0.0133 1.39655,-0.5115 1.09567,-0.70506 2.34207,-0.96814 3.63837,-1.00114 1.07931,-0.18144 2.19381,-0.37762 3.18986,-0.82353 1.02798,-0.54783 2.14135,-0.92657 3.10716,-1.60606 0.86987,-0.24373 1.60935,-0.86711 2.37355,-1.32855 0.49869,-0.18327 0.91652,-0.49674 1.40786,-0.69404 0.56103,-0.22528 1.20615,-0.28331 1.74402,-0.58456 0.99218,-0.17257 1.84719,-0.47944 2.47489,-1.29985 0.7155,-0.52092 1.40574,-1.06501 2.14487,-1.53035 0.66229,-0.64684 1.4714,-1.16711 2.34203,-1.47737 0.75799,-0.6568 1.34871,-1.48404 2.05047,-2.1971 0.55594,-0.89127 1.2285,-1.60437 2.12486,-2.12396 0.30536,-0.082 1.0332,-1.91849 1.38413,-2.353 0.55744,-0.71068 1.07148,-1.42782 1.5412,-2.2073 0.7078,-0.75551 0.92156,-1.86244 1.67032,-2.59575 0.56572,-1.00318 1.09743,-2.0084 1.94155,-2.82193 0.78166,-0.60741 0.79884,-1.77577 1.40036,-2.52887 0.42147,-0.54632 0.19138,-0.22943 0.67274,-0.96314 0.43218,-0.56597 1.06192,-0.96037 1.3596,-1.63996 0.84449,-0.9862 -0.40516,0.4988 0.69838,-0.9361 0.40989,-0.53296 0.95338,-0.88764 1.12032,-1.59182 0.51672,-0.93468 0.9706,-1.88951 1.81835,-2.58742 0.3912,-0.15229 0.50726,-0.70643 0.70933,-1.02722 0.26775,-0.42507 0.68696,-0.66979 0.92063,-1.12072 0.75818,-0.76028 1.37657,-1.65478 2.34701,-2.18621 0.75395,-0.32997 1.39686,-0.65867 1.97296,-1.2496 0.5614,-0.66065 1.16338,-1.27637 1.67509,-1.98497 0.8417,-1.08736 1.88802,-1.901 3.03289,-2.65026 0.88233,-0.46003 1.613,-1.13426 2.42495,-1.69357 0.68451,-0.17076 0.84209,-0.95758 0.99398,-1.57219 0.52291,-1.50119 1.02171,-3.00078 2.14961,-4.17853 0.29073,-0.1759 0.53365,-0.49831 0.87217,-0.5277 2.02567,-0.17588 2.30298,0.96202 3.20712,2.25046 0.86899,0.99619 1.54523,2.04218 1.67842,3.39792 0.004,1.30037 0.0149,2.6007 0.017,3.90107 -0.003,1.30541 -0.0241,2.61052 -0.0536,3.9156 -0.0145,1.26707 -0.001,2.53459 0.11083,3.79784 0.097,1.40093 0.1701,2.81288 -0.12879,4.19762 -0.27373,1.28317 -0.6317,2.52322 -0.46564,3.85164 -0.0442,1.1712 -0.21125,2.31462 -0.51603,3.44764 -0.14087,1.30015 0.0688,2.65206 -0.60872,3.85317 -0.38807,0.76076 -0.61284,1.56538 -0.79405,2.40221 -0.0237,1.1733 -0.22587,2.29562 -0.58418,3.41406 -0.24124,1.46825 -0.72379,2.88035 -1.46851,4.173 -0.59982,0.85685 -0.89102,1.85126 -1.41946,2.74968 -0.41667,0.97581 -1.07915,1.81471 -1.36758,2.83671 -0.42215,0.99494 -0.8651,1.95383 -1.52091,2.8234 -0.84005,1.03489 -1.59996,2.10892 -2.37237,3.19661 -0.36263,0.4144 -0.51966,0.90075 -0.82047,1.35923 -0.79103,1.20566 0.055,-0.16139 -0.5107,0.54535 -0.11547,0.14427 -0.20363,0.30841 -0.30544,0.46262 -0.71673,0.88242 -1.39021,1.83049 -1.85819,2.86781 -0.67653,1.13631 -1.43271,2.21948 -1.86145,3.4823 -0.73428,1.34629 -1.56743,2.57783 -2.78601,3.53923 -0.74012,0.80875 -1.63946,1.44188 -2.28213,2.34248 -0.89316,1.02947 -1.94451,1.83769 -3.07064,2.59086 -0.12247,0.0822 -0.24494,0.16434 -0.36741,0.24651 -0.041,-0.01 -0.0858,-0.0491 -0.12312,-0.0295 -0.57118,0.30076 -0.80636,1.2028 -1.3981,1.50526 -1.06995,0.83661 -2.18774,1.6101 -3.13423,2.58937 -0.35543,0.36532 -0.67971,0.76165 -1.05276,1.10896 -0.68751,0.64006 -1.55511,1.07057 -2.19871,1.76386 -1.1177,0.87515 -2.30062,1.66205 -3.33345,2.64615 -0.90012,0.5393 -1.86211,0.9693 -2.67163,1.6627 -0.83296,0.6431 -1.63906,1.3088 -2.5175,1.8844 -0.85976,0.728 -1.68901,1.4735 -2.65189,2.0703 -1.08257,0.7806 -2.18162,1.5153 -3.36635,2.141 -0.95746,0.3361 -1.59125,0.7394 -2.41126,1.3162 -0.15841,0.098 -0.31683,0.1965 -0.47525,0.2947 -0.10463,0.033 -0.21624,0.048 -0.31391,0.098 -0.66582,0.3386 -1.19658,0.94 -1.84766,1.3061 -0.85276,0.6326 -1.86503,1.0396 -2.82697,1.4635 -0.8863,0.4531 -1.76884,0.8908 -2.67685,1.2938 -0.84738,0.4815 -1.75644,0.904 -2.47865,1.5585 -1.05962,0.8881 -2.32331,1.1351 -3.61155,1.5611 -1.35851,0.3511 -2.59631,1.0656 -3.85333,1.6714 -1.34472,0.4989 -2.69849,0.9631 -3.94169,1.6991 -1.08312,0.5836 -2.25399,0.8073 -3.39903,1.2532 -1.3105,0.17 -2.55255,0.6178 -3.82495,0.9511 -1.05743,0.4331 -2.181,0.9424 -3.34131,0.9276 -1.04668,0.088 -1.93834,0.7017 -2.92882,1.0035 -1.12339,0.6322 -2.19931,1.1693 -3.5248,1.1154 -1.10278,0.2073 -2.14092,0.6976 -3.28578,0.6098 -1.43656,0.2458 -2.74903,1.0238 -4.2753,0.6781 -0.76392,-0.028 -1.61596,-0.1374 -2.54131,0.1804 -0.22229,0.074 -1.00258,0.3389 -1.20153,0.3763 -0.61997,0.1167 -1.26295,0.034 -1.82442,0.4211 -1.48747,0.6067 -3.08461,0.4354 -4.65625,0.4468 -0.94145,-3e-4 -2.15974,0 -3.21232,0.013 -1.53213,0.011 -3.0645,0.013 -4.59625,-0.028 -1.14714,-0.026 -2.06807,-0.057 -3.16981,-0.016 -1.55829,0.082 -3.11758,0.3145 -4.67941,0.167 -1.28986,-0.185 -2.52117,-0.6234 -3.81758,-0.7503 -1.52192,0 -3.04228,-0.05 -4.56387,-0.073 -1.20443,-0.012 -2.41045,-0.013 -3.60877,0.133 -2.03781,0.1639 -4.12552,0.2884 -6.11716,-0.2682 -0.22201,-0.073 -0.44401,-0.1468 -0.66602,-0.2203 -0.17439,-0.068 -0.346,-0.143 -0.52317,-0.203 -0.0767,-0.026 -0.30936,-0.019 -0.23672,-0.054 0.12261,-0.06 0.54544,-0.038 0.40895,-0.03 -0.48635,0.026 -0.88288,0.062 -1.37102,0.1023 -1.90045,0.1573 -3.83725,0.2947 -5.70678,-0.175 -1.19565,-0.3169 -2.3451,-0.6879 -3.60318,-0.548 -0.85997,9e-4 -2.16673,0.01 -3.19866,0.022 -1.66735,0.014 -3.33416,-0.01 -5.00144,-0.01 -1.70165,-0.01 -3.40368,-0.058 -5.10486,-0.012 -1.88593,0.073 -3.77777,0.3537 -5.66364,0.1223 -0.86829,-0.1488 -1.68685,-0.4118 -2.54108,-0.6144 -0.18418,-0.044 -0.38126,-0.04 -0.55698,-0.1106 -0.0475,-0.019 0.0956,-0.037 0.14344,-0.055 -1.87506,0.074 -3.75147,0.2069 -5.6287,0.1466 -1.41397,-0.1032 -2.78045,-0.4184 -4.18255,-0.5927 -1.65515,-0.074 -3.25401,-0.4187 -4.87834,-0.7211 -0.56351,-0.2874 -3.96515,0.014 -4.99513,-0.1411 -1.15678,-0.028 -2.01271,-0.058 -3.11561,-0.01 -1.65376,0.093 -3.31226,0.3262 -4.96891,0.161 -0.16364,-0.028 -2.6494,-0.6541 -2.62563,-0.7544 0.0279,-0.1178 0.24159,-0.015 0.36238,-0.023 -1.52748,-1e-4 -3.05495,-8e-4 -4.58243,0 -1.01383,-0 -2.10799,0 -3.20751,0.01 -1.53464,0.01 -3.06943,0.021 -4.604,0 -1.09891,-0.018 -2.19357,-0.046 -3.16951,-0.045 -1.54117,0.027 -3.07414,0.18 -4.61565,0.1944 -1.38097,-0.041 -2.72934,-0.2571 -4.07189,-0.5826 -1.32411,-0.1628 -2.65056,-0.2782 -3.93553,-0.6711 -0.17818,-0.029 -0.37088,-0.012 -0.53453,-0.088 -0.0702,-0.033 0.30263,-0.057 0.22524,-0.056 -1.15934,0 -2.32732,0.2877 -3.49074,0.088 -0.94513,-0.128 -1.83174,-0.3631 -2.75351,-0.5972 -0.18258,-0.046 -0.38474,-0.038 -0.55078,-0.1265 -0.067,-0.036 0.14831,-0.033 0.22247,-0.049 -1.54534,0 -3.09068,0 -4.63544,-0.048 -1.08729,-0.023 -1.97338,-0.057 -3.09848,0.023 -1.55122,0.1278 -3.11488,0.3446 -4.66563,0.076 -1.62273,-0.2868 -3.23214,-0.6627 -4.84253,-1.0045 -1.19237,-0.3335 -2.35583,-0.4477 -3.59825,-0.3615 -1.1432,0 -2.08454,0 -3.18908,-5e-4 -1.56096,0.01 -3.12195,0.029 -4.68294,0.015 -1.21237,-0.017 -2.42402,-0.063 -3.63644,-0.073 0.1725,0 -0.34506,0 -0.51752,0.01 -0.74896,0.022 -1.49597,0.077 -2.24332,0.1278 -0.29361,0.02 -0.58725,0.04 -0.88088,0.06 -1.75112,0.095 -3.54933,0.2058 -5.20123,-0.489 -0.991,-0.3807 -2.00274,-0.3318 -3.05759,-0.3342 -0.95653,-0.015 -2.02475,-0.041 -3.10335,0.051 -1.624246,0.1273 -3.268526,0.3057 -4.883466,-0.017 -0.37468,-0.08 -2.27142,-0.4419 -2.5249,-0.5779 -0.0722,-0.039 0.32059,-0.056 0.23872,-0.058 -0.215,-0.01 -0.42917,0.03 -0.64375,0.045 -1.615578,0.1231 -3.248857,0.1926 -4.839111,-0.1857 -0.608071,-0.1341 -1.333845,-0.1872 -1.920243,-0.384 -0.05107,-0.017 0.206329,-0.053 0.15247,-0.054 -0.711948,-0.013 -1.419708,0.2023 -2.135221,0.066 -1.192909,-0.053 -2.338034,-0.2599 -3.475499,-0.6255 -1.14142,-0.1027 -2.26726,-0.2395 -3.369752,-0.5738 -1.209143,-0.1931 -2.364727,-0.4628 -3.501916,-0.9173 -1.374259,-0.2705 -2.734973,-0.5784 -4.133161,-0.703 -1.239127,-0.262 -2.520548,-0.4711 -3.653929,-1.0598 -1.016836,-0.4784 -2.147983,-0.6399 -3.254789,-0.7808 -1.383725,-0.2696 -2.748258,-0.6317 -4.134844,-0.8866 -1.298616,-0.3578 -2.612039,-0.6674 -3.810793,-1.3052 -0.978546,-0.3622 -1.978668,-0.5706 -2.991008,-0.822 -1.11582,-0.2369 -2.294531,-0.109 -3.374905,-0.5474 -1.003063,-0.3051 -2.040752,-0.484 -2.943069,-1.0614 -1.286615,-0.4368 -2.686509,-0.5084 -3.907972,-1.152 -1.157018,-0.4969 -2.293222,-1.0695 -3.513005,-1.3942 -1.249822,-0.2869 -2.492057,-0.5992 -3.743241,-0.8741 -0.995338,-0.365 -1.953606,-0.7756 -2.812532,-1.4033 -0.986566,-0.298 -2.02337,-0.4243 -2.931468,-0.9531 -0.867194,-0.4486 -1.544582,-1.1702 -2.517711,-1.4 -1.119573,-0.3123 -2.230019,-0.6712 -3.295498,-1.138 -1.305708,-0.6038 -2.39872,-1.5154 -3.589765,-2.3119 -0.86336,-0.644 -1.728003,-1.17042 -2.715876,-1.59744 -0.776372,-0.47831 -1.384557,-1.13239 -2.110046,-1.67894 -1.029448,-0.73126 -2.031141,-1.49584 -2.924074,-2.3929 -0.825273,-0.60033 -1.6504907,-1.21766 -2.3107757,-2.00364 -0.644424,-0.90029 -1.130425,-1.8853 -1.738661,-2.80382 -0.70093,-0.86309 -1.323765,-1.77631 -1.454317,-2.91401 -0.347783,-0.96305 -0.872181,-1.86601 -1.337166,-2.77537 -0.500542,-1.17377 -0.645647,-2.39233 -0.924638,-3.62471 -0.372092,-1.21457 -0.406217,-2.38731 -0.335347,-3.64841 -0.142871,-1.37298 -0.6629516,-2.65002 -0.8310438,-4.01836 -1.184e-4,-1.29983 -6.7e-5,-2.59966 7.022e-4,-3.89948 6.261e-4,-1.2985 0.00132,-2.597 -5.314e-4,-3.89549 -0.00191,-1.2998 -0.00537,-2.5996 -0.00274,-3.8994 0.00389,-1.30368 0.014009,-2.60734 0.01597,-3.91103 -0.00325,-1.27725 -0.023095,-2.55421 -0.050625,-3.83116 -0.014163,-1.36568 0.00589,-2.73139 0.1093787,-4.09392 0.06868,-1.14134 0.1801139,-2.30619 -0.076261,-3.43262 -0.3308341,-1.1726 -0.6557705,-2.30527 -0.4519486,-3.54059 -0.031369,-1.28102 -0.3625857,-2.48797 -0.7118638,-3.71582 -0.2023931,-1.3883 -0.1117696,-2.78994 -0.1486585,-4.19071 -0.010234,-1.21025 -0.01551,-2.42105 0.044232,-3.63032 0.060045,-1.4702 0.094622,-2.94269 -0.010122,-4.4122 -0.059222,-0.84496 -0.129943,-1.68668 -0.2179942,-2.52912 -0.018652,-0.17846 -0.21235038,-0.4455 -0.056987,-0.53527 0.77450958,-0.44748 1.67043668,-0.64712 2.53026538,-0.89369 0.05302,-0.0152 0.05252,0.097 0.07878,0.1455 0.348937,0.77414 1.379892,1.15497 1.854452,1.84618 0.867476,0.80818 1.739532,1.60751 2.58951,2.4345 0.612363,0.78685 1.261517,1.54498 1.786869,2.396 0.7543647,0.91607 1.4893647,1.36783 2.4618197,2.04753 0.934281,0.8637 1.830696,1.77306 2.66321,2.73511 0.797887,0.78683 1.88106,1.19915 2.661271,2.01302 0.664662,0.68314 1.311025,1.38412 2.046075,1.99449 0.784436,0.6228 1.624888,1.15407 2.388166,1.80467 1.05225,0.72947 2.128452,1.42915 3.113112,2.24969 0.729785,0.6685 1.32249,1.43406 2.240673,1.8662 0.975595,0.75896 1.904315,1.57216 2.832543,2.3869 0.853004,0.74571 1.497006,1.69626 2.463906,2.30322 0.855754,0.68724 1.47738,1.57032 2.288739,2.30209 0.737337,0.62868 1.603521,1.06938 2.352827,1.68417 1.24802,1.06032 2.151343,2.38147 3.173095,3.64605 0.820694,0.83602 1.827622,1.3421 2.803483,1.97811 0.872145,0.61145 1.646124,1.32756 2.529041,1.92295 0.858854,0.66587 1.601004,1.46418 2.572465,1.97679 1.138593,0.73083 2.268152,1.46715 3.350032,2.28001 0.940202,0.5765 1.873089,1.18588 2.865273,1.65989 1.169642,0.51595 2.211576,1.2401 3.300068,1.90556 0.783586,0.58454 1.675795,0.91082 2.509371,1.42349 0.990606,0.58766 1.882644,1.32931 2.874928,1.90697 1.138906,0.47319 2.289738,0.90712 3.42773,1.38351 1.427182,0.54748 2.805256,1.1876 4.185523,1.83626 1.319916,0.39105 2.726283,0.47526 3.981634,1.07741 1.013816,0.38081 1.932383,0.91773 2.926139,1.31759 1.194423,0.21199 2.375463,0.45992 3.557728,0.72949 0.945352,0.11937 1.864442,0.32756 2.802187,0.48792 0.201615,0.0345 0.412345,0.0256 0.607405,0.0871 0.053,0.0167 -0.104969,0.0366 -0.157454,0.0548 1.53111,-0.11377 3.066454,-0.16941 4.502844,0.45498 1.117683,0.39031 2.310546,0.53717 3.436425,0.90996 1.031862,0.1376 2.056882,0.0826 2.960902,0.0988 1.55645,-0.0482 3.10019,-0.26721 4.659164,-0.24345 1.38953,0.0852 2.71705,0.4028 4.05242,0.78564 -0.0732,0.0168 -0.29423,0.0417 -0.21963,0.0505 0.83811,0.0984 1.75367,-10e-6 2.5983,-1.6e-4 0.21653,-3e-5 0.43305,-8e-5 0.64957,-1.2e-4 1.52738,-3.3e-4 3.05477,-5.9e-4 4.58215,4.3e-4 1.1397,7.2e-4 2.10799,0.002 3.21385,10e-4 1.52605,-0.002 3.05209,-0.008 4.57815,-0.006 1.30691,0.003 2.61377,0.0138 3.92066,0.0216 0.9029,0.005 2.11099,-0.003 3.1354,-0.0411 1.58772,-0.0477 3.17852,-0.0659 4.76256,0.0755 1.15051,0.0933 1.92427,0.2014 2.93002,0.17044 1.39321,-0.24131 2.57848,-1.27754 4.10569,-0.90208 1.13896,0.0607 2.29648,0.10743 3.43046,0.22656 0.031,0.003 -0.0599,0.0176 -0.0898,0.0264 1.11121,0.0209 2.05836,-0.23184 3.05283,-0.74589 1.66935,-0.18069 2.99448,-0.0857 4.64417,0.0822 -0.25426,0.0414 -0.39693,0.0569 0.40452,0.0262 0.61819,-0.0237 1.20537,-0.16208 1.79712,-0.33414 0.24495,-0.0712 0.48749,-0.15053 0.73123,-0.22579 1.71707,-0.48974 3.46767,-0.46587 5.21834,-0.17615 1.12314,0.17321 0.0495,0.33584 1.61259,-0.0349 2.32273,-0.74152 4.69222,-1.09168 7.12568,-1.24384 0.18,-0.074 1.22656,2.47166 1.04656,2.54566 z"
       inkscape:connector-curvature="0" />
    <path
       style="fill:#000000;fill-opacity:1;stroke:none"
       id="path3020"
       d="m 203.82433,954.43013 c -0.63849,-2.45934 -0.58971,-5.01047 -0.87874,-7.51233 -0.23843,-1.07278 -0.4509,-2.12437 -0.44879,-3.2263 0.14638,-1.08933 0.10679,-2.04424 -0.23925,-3.07532 -0.31866,-1.25811 -0.5844,-2.52659 -0.87007,-3.79533 -0.40897,-1.35881 -0.0692,-2.78674 -0.24519,-4.15685 -0.32964,-1.29192 -0.55923,-2.58851 -0.61655,-3.92102 10e-4,-1.33564 0.1308,-2.66618 0.18233,-4.00022 -0.035,-1.05446 0.20053,-2.16496 -0.23124,-3.15435 -0.60415,-1.19521 -0.66578,-2.50125 -0.63133,-3.8119 0.0984,-1.36931 0.21441,-2.73566 0.24082,-4.10874 0.001,-1.26504 -0.0476,-2.52938 -0.0682,-3.79416 -0.0162,-1.31087 -0.001,-2.62184 0.008,-3.9327 0.009,-1.29715 0.007,-2.59434 0.004,-3.89151 -0.0483,-1.42575 -0.04,-2.80757 0.31087,-4.19521 0.41454,-1.1601 0.55394,-2.34373 0.51212,-3.56616 -0.11088,-1.30278 -0.2081,-2.60452 -0.23198,-3.91209 -0.002,-1.31248 0.0464,-2.6243 0.0663,-3.93653 0.0148,-1.29089 1.8e-4,-2.58186 -0.009,-3.87274 -0.009,-1.30272 -0.007,-2.60548 -0.004,-3.90821 0.003,-1.29847 0.004,-2.59694 0.004,-3.89541 -8.4e-4,-1.29944 -0.002,-2.59888 -0.002,-3.89832 5e-5,-1.29943 3.8e-4,-2.59887 5.1e-4,-3.89831 9e-5,-1.2993 -2e-5,-2.5986 -8e-5,-3.89791 -6e-5,-1.29938 -4e-5,-2.59877 -2e-5,-3.89815 2e-5,-1.29936 2e-5,-2.59871 2e-5,-3.89806 -1e-5,-1.29937 -1e-5,-2.59873 -1e-5,-3.89809 0,-1.29936 0,-2.59872 0,-3.89808 0.25751,-1.39088 0.56002,-2.80392 0.99668,-4.15179 0.47292,-0.89103 0.53231,-1.77489 0.48268,-2.7582 -0.22649,-1.4243 -0.17254,-2.73514 0.30476,-4.09593 0.4176,-0.9926 0.36473,-2.04721 0.30407,-3.09749 -0.22185,-1.26404 0.33906,-2.42303 0.59921,-3.62661 0.11431,-1.23942 -0.0116,-2.43707 0.27284,-3.66033 0.23359,-1.06645 0.59566,-2.07049 0.98342,-3.08731 0.30399,-1.10177 0.0649,-2.24203 0.16364,-3.36485 0.26973,-1.08194 0.5511,-2.13084 0.59093,-3.24939 0.21751,-1.17802 0.52642,-2.34191 1.05231,-3.42006 0.0552,-0.12992 0.11032,-0.25984 0.16549,-0.38977 0.0629,-0.18106 2.62355,0.70908 2.5606,0.89015 l 0,0 c -0.0731,0.17492 -0.14622,0.34985 -0.21933,0.52478 -0.40406,0.79004 -0.61887,1.63658 -0.82188,2.50171 -0.0629,1.14734 -0.26655,2.25444 -0.60245,3.35368 -0.13217,1.31638 0.21104,2.68677 -0.30134,3.96657 -0.35176,0.93268 -0.70977,1.83143 -0.90559,2.81677 -0.31047,1.18259 0.0303,2.41686 -0.26202,3.61294 -0.22684,1.00873 -0.70196,1.95903 -0.52556,3.01417 0.0607,1.3514 0.061,2.71384 -0.45135,3.99164 -0.39979,1.0757 -0.29592,2.09881 -0.16754,3.23624 0.0305,1.23229 -0.0467,2.44301 -0.59563,3.57214 -0.39,1.10136 -0.512,2.30645 -0.87829,3.42094 0,1.29936 -1e-5,2.59872 -1e-5,3.89808 0,1.29936 1e-5,2.59872 2e-5,3.89808 0,1.29937 0,2.59873 -3e-5,3.8981 -2e-5,1.29934 -4e-5,2.59868 2e-5,3.89801 6e-5,1.29942 1.7e-4,2.59884 8e-5,3.89826 -1.3e-4,1.29928 -4.6e-4,2.59857 -5e-4,3.89785 1.2e-4,1.29928 7.9e-4,2.59856 0.002,3.89784 3.9e-4,1.30027 -1.6e-4,2.60053 -0.004,3.90079 -0.003,1.29596 -0.005,2.59195 0.004,3.8879 0.009,1.30779 0.0235,2.61567 0.008,3.92347 -0.0196,1.28666 -0.066,2.57291 -0.0665,3.8598 0.0231,1.298 0.13146,2.58919 0.23146,3.88306 0.04,1.44169 -0.0873,2.86254 -0.57157,4.23329 -0.33658,1.1824 -0.27005,2.36979 -0.2509,3.59377 0.003,1.30418 0.006,2.60839 -0.003,3.91256 -0.009,1.29351 -0.0248,2.58711 -0.0116,3.88065 0.0192,1.28972 0.0691,2.57882 0.073,3.86874 -0.02,1.38744 -0.11663,2.7695 -0.23974,4.15143 -0.047,1.01687 -0.0287,1.97995 0.46663,2.90142 0.48052,1.32529 0.45048,2.67604 0.39166,4.0722 -0.0488,1.27322 -0.1663,2.54289 -0.18383,3.81705 0.0497,1.28964 0.34933,2.52633 0.60997,3.78629 0.10779,1.29229 -0.0864,2.60023 0.21689,3.87874 0.26694,1.19749 0.48561,2.40283 0.79143,3.58774 0.40761,1.27384 0.54298,2.50081 0.31435,3.82901 -0.0393,0.99604 0.31757,1.8979 0.53805,2.86176 0.39082,2.46766 0.46921,4.98119 0.81052,7.45751 0.0269,0.19276 -2.69904,0.57336 -2.72595,0.3806 z"
       inkscape:connector-curvature="0" />
    <path
       style="fill:#000000;fill-opacity:1;stroke:none"
       id="path3026"
       d="m 207.14225,811.46898 c 2.60787,0.27424 5.21934,0.46961 7.79489,0.97306 1.76339,0.39445 2.26198,0.38034 3.45735,0.50215 1.01519,0.3781 2.03412,0.7542 3.08519,1.03233 1.37968,0.27263 2.56455,0.0432 3.92686,0.40518 0.16887,0.0496 0.33636,0.10415 0.50662,0.14874 0.44766,0.11726 0.88736,0.16351 1.34952,0.16718 0.6229,0.005 0.7065,0.0321 0.46241,-0.0272 1.51787,-0.27776 2.85527,0.46256 4.29892,0.6853 1.03134,0.0558 1.7903,-0.0353 2.95168,-0.11156 1.3587,-0.1247 2.72261,-0.0661 4.08379,-0.0818 0.12221,-0.001 -0.24398,-0.0149 -0.36597,-0.0223 -0.079,-0.006 -0.16267,0.17676 -0.23657,0.12643 -0.0525,-0.0358 -0.51635,-2.22557 -0.5558,-2.3943 -0.39376,-1.51389 -0.44107,-3.05851 -0.32134,-4.60773 0.14635,-1.19808 0.19224,-2.4015 0.18703,-3.60729 -0.0275,-1.32126 -0.0634,-2.64217 -0.0738,-3.96372 -0.004,-1.29919 0.0118,-2.59832 0.0188,-3.89747 -0.12451,-1.1565 0.21885,-2.41404 -0.0812,-3.54487 -0.0587,0.38785 -0.27204,0.33477 -0.41872,0.52757 -0.0269,0.0354 0.15021,0.0627 0.10838,0.0778 -0.50461,0.18227 -1.04981,0.22239 -1.57276,0.3423 -1.81412,0.48312 -3.66926,0.52564 -5.53197,0.40765 -1.42983,-0.205 -1.76636,-0.036 -3.21322,0.33795 -1.88961,0.51697 -3.86163,0.3596 -5.79575,0.30113 -1.94516,0.25453 -3.89629,0.50868 -5.85508,0.6512 -1.1369,0.14098 -2.20711,0.53399 -3.34722,0.66275 -1.81419,0.0424 -3.625,-0.10316 -5.43717,-0.16701 -1.12691,-0.037 -1.99196,-0.017 -3.14897,0.009 -1.50208,0.0392 -3.00477,0.0315 -4.50717,0.0233 -1.07075,-0.008 -2.31395,-0.0101 -3.27012,-0.0105 -1.29161,10e-4 -2.58322,0.004 -3.87483,0.005 -1.52915,4.2e-4 -3.05831,-8.3e-4 -4.58746,-0.001 -0.94418,-0.008 -1.93394,-0.0545 -2.9332,0.18128 -1.59533,0.57688 -3.21955,0.65907 -4.89593,0.63443 -1.29242,-0.12868 -2.58539,-0.21826 -3.88424,-0.22731 -0.84054,0.0167 -2.15468,0.049 -3.17818,0.0672 -1.53507,0.0229 -3.07032,0.004 -4.60541,-0.006 -1.14015,-0.007 -2.10042,-0.005 -3.20545,-0.003 -1.52783,0.004 -3.05566,0.004 -4.5835,0.004 -1.29928,-10e-4 -2.59857,-0.002 -3.89785,-0.002 -0.94551,1.5e-4 -2.16095,3.7e-4 -3.21505,5e-4 -1.52702,1.5e-4 -3.05404,0 -4.58106,-7e-5 -1.13952,-4e-5 -2.10907,-2e-5 -3.2152,-10e-6 -1.52697,3e-5 -3.05394,4e-5 -4.58092,3e-5 -1.29936,-1e-5 -2.59872,-1e-5 -3.89808,-1e-5 -0.65539,0.0817 -0.64502,-0.13713 -0.56936,0.40603 0.13247,1.20105 0.34882,2.36505 1.10664,3.33114 0.74404,0.98919 1.19944,2.18484 1.51137,3.37615 0.17052,1.07113 0.52948,2.07715 0.6606,3.16175 0.33907,1.07353 0.95635,1.98972 1.30384,3.07274 0.23628,1.20608 0.583,2.36524 0.67596,3.59557 0.37144,1.01782 0.5762,2.05329 0.65644,3.13226 -0.38921,-0.0587 0.10247,0.5206 0.20888,0.41009 0.051,-0.0529 0.0212,-0.15237 0.0666,-0.21018 0.055,-0.0701 0.20701,-0.0652 0.21885,-0.15355 0.009,-0.0679 -0.25032,-0.0605 -0.18673,-0.086 0.21679,-0.0871 0.46074,-0.0778 0.69111,-0.11662 2.04274,-0.52193 4.11976,-0.67742 6.21812,-0.67847 1.16656,0.11747 2.32744,0.24201 3.50065,0.25553 1.61163,-0.0949 3.21499,-0.0739 4.82769,0.066 1.24048,0.33982 2.43793,0.7433 3.73406,0.72712 -0.0512,-0.007 -0.20509,-0.0149 -0.15375,-0.0213 1.31093,-0.16189 2.69041,-0.24139 3.94921,0.1867 0.18064,0.0697 0.35921,0.14502 0.54194,0.20907 0.46782,0.16399 0.92617,0.24969 1.42176,0.26567 0.65246,0.021 0.70212,0.0435 0.45606,-0.026 1.02594,-0.06 2.06255,-0.071 3.08142,-0.21347 0.173,-0.0856 1.38404,2.36089 1.21105,2.44653 l 0,0 c -1.16345,0.35907 -2.37757,0.33125 -3.58816,0.425 -1.52866,-0.0129 -2.98231,-0.0956 -4.40437,-0.71266 -0.10979,-0.022 -0.3581,0.0423 -0.32938,-0.066 0.0308,-0.11607 0.47792,-0.0446 0.35788,-0.0414 -1.1046,0.0292 -2.19995,0.27941 -3.3108,0.16994 -1.34392,-0.10465 -2.62183,-0.46979 -3.93676,-0.74338 0.24656,-0.26222 0.0785,-0.0561 -0.78893,-0.0409 -1.05765,0.0186 -2.11391,0.0232 -3.17183,0.0118 -0.215,-0.002 -0.42992,-0.01 -0.64488,-0.0146 -1.15119,-0.0556 -2.29619,-0.2009 -3.44915,-0.21303 -1.34175,0.0476 -2.99063,0.27565 -4.42915,0.56608 -2.25068,0.43791 -4.41272,0.46662 -4.82714,-2.25492 -0.0544,-1.08506 -0.37667,-2.07895 -0.6405,-3.12657 -0.0573,-1.05009 -0.42915,-2.01481 -0.61129,-3.04443 -0.38123,-1.20893 -1.19618,-2.24269 -1.36907,-3.52599 -0.0922,-0.97585 -0.44873,-1.87308 -0.58648,-2.8378 -0.24107,-0.93703 -0.67507,-1.83902 -1.26159,-2.60628 -0.96515,-1.48729 -1.45836,-3.10881 -1.43451,-4.89676 0.3999,-2.57264 1.59689,-2.86678 3.97653,-2.84425 1.29936,0 2.59872,0 3.89808,10e-6 1.0184,0 2.11436,0 3.21525,-2e-5 1.52699,-3e-5 3.05398,-5e-5 4.58097,3e-5 1.13954,6e-5 2.10899,1.4e-4 3.2151,9e-5 1.52704,-1.2e-4 3.05408,-5.9e-4 4.58112,-5e-4 1.29944,2.2e-4 2.59888,10e-4 3.89831,0.002 0.94353,3.5e-4 2.15958,-1.7e-4 3.21267,-0.003 1.53023,-0.004 3.06049,-0.006 4.5907,0.005 1.1429,0.008 2.08762,0.0189 3.19085,0.011 1.53937,-0.0192 3.07793,-0.0879 4.61764,-0.0655 1.30734,0.0367 2.60798,0.1539 3.91278,0.23519 -0.2607,0.0509 -0.268,0.0453 0.46674,0.0267 0.83352,-0.0211 1.64252,-0.21482 2.43223,-0.4727 1.69126,-0.48867 3.10106,-0.43235 4.86232,-0.3883 1.05555,3.1e-4 2.2758,8.1e-4 3.22074,0.002 1.29096,3.5e-4 2.58192,-6.3e-4 3.87288,-0.005 1.55093,-0.002 3.10188,-0.004 4.65277,0.01 1.08165,0.007 1.9636,0.0226 3.08074,0.004 1.54901,-0.0346 3.09825,-0.0993 4.64787,-0.0531 1.33837,0.0448 2.73791,0.0316 4.06478,0.22227 0.066,0.01 -0.13218,0.018 -0.19827,0.027 1.14904,0.0309 2.15154,-0.4835 3.26114,-0.72457 2.51738,-0.24563 5.01437,-0.74009 7.55156,-0.72413 1.2531,0.0734 2.51336,0.25785 3.75024,-0.0247 1.81379,-0.48286 3.34539,-0.84904 5.26748,-0.53723 1.15835,0.0586 2.34061,0.0792 3.51739,-0.28194 2.05602,-0.47959 4.65267,-1.2797 5.76163,1.1076 0.24923,1.32833 0.12069,2.68068 0.14361,4.02825 -0.007,1.28817 -0.0226,2.57635 -0.0166,3.86456 0.0126,1.32708 0.0522,2.6535 0.0724,3.98045 -0.002,1.26427 -0.0553,2.52601 -0.2018,3.78268 -0.0956,1.32011 -0.0133,2.62426 0.3355,3.90908 0.33132,1.46953 0.98144,3.37995 -0.0906,4.71141 -0.20365,0.25294 -0.52186,0.38663 -0.78279,0.57995 -1.32329,0.16464 -2.54744,0.21134 -3.96634,0.23393 -1.6264,0.10634 -3.27782,0.2904 -4.89243,-0.0264 -1.22052,-0.29305 -1.84541,-0.63454 -2.47729,-0.52167 -1.41597,-0.002 -2.79761,-0.0416 -4.15921,-0.47385 -0.44526,-0.0598 -2.89974,0.0178 -4.11625,-0.4464 -0.95044,-0.31722 -1.87671,-0.71331 -2.83394,-1.00372 0.19543,-2.9e-4 0.78147,-0.0109 0.5863,-8.8e-4 -1.37598,0.0702 -2.72141,-0.0603 -4.07387,-0.32171 -2.57873,-0.38201 -5.19498,-0.4851 -7.74398,-1.06178 -0.18,-0.074 0.86656,-2.61966 1.04656,-2.54566 z"
       inkscape:connector-curvature="0" />
    <path
       style="fill:#000000;fill-opacity:1;stroke:none"
       id="path3028"
       d="m 180.29925,792.67252 c -1.64352,-1.6322 -3.0949,-3.42659 -5.04515,-4.70919 -0.44694,-0.35252 -1.20283,-0.97476 -1.83663,-0.84602 -1.20023,-0.49683 -1.81864,-1.76317 -2.60096,-2.7306 -0.89509,-0.66252 -0.82611,-2.52963 -1.41408,-3.2384 -0.49807,-0.84428 -0.86593,-1.79131 -1.17376,-2.72552 -0.34838,-1.36349 -0.14068,-2.7554 -0.37752,-4.13267 -0.32502,-1.37526 -0.4541,-2.77014 -0.43828,-4.17979 0.0651,-1.28204 0.14899,-2.56202 0.17057,-3.84582 -0.0423,-1.42188 -0.0662,-2.79732 0.26676,-4.1867 0.3505,-1.63146 1.33485,-2.94488 2.45764,-4.1299 0.54259,-0.85105 1.33849,-1.38338 2.19957,-1.86229 0.92841,-0.61895 2.04402,-0.86098 3.09936,-1.18753 1.07334,-0.21069 2.13761,-0.33737 3.16305,-0.73727 1.58606,-0.8549 3.25397,-0.93611 5.01279,-0.90673 0.70409,0.057 1.40313,0.16257 2.10675,0.22402 0.12154,0.0106 -0.28809,0.0529 -0.36344,-0.0431 -0.0607,-0.0772 0.19538,-0.025 0.29035,-0.05 0.12752,-0.0336 0.25016,-0.0835 0.37525,-0.12529 1.47993,-0.63831 3.06709,-0.65365 4.65138,-0.56518 1.34967,0.11861 2.70094,0.18921 4.05572,0.18931 1.04964,-0.0928 2.68799,-0.0261 3.91116,0.12898 0.20805,0.0839 0.42668,0.14519 0.62415,0.2516 0.46219,0.24904 0.76349,0.54422 1.20044,0.81558 0.47382,0.29427 1.00911,0.43325 1.50537,0.69186 1.06073,0.3775 1.96202,0.42924 2.92611,1.10281 0.65842,0.49129 1.52943,0.88211 2.33606,1.07284 1.14423,0.41628 1.86555,1.27152 2.65553,2.13506 0.55843,0.8574 1.30279,1.52027 1.80283,2.41619 0.60113,0.89201 1.17761,1.71108 1.48868,2.75636 0.25688,1.51211 -0.0227,3.04016 -0.17647,4.54859 -0.0223,1.30893 -0.60563,2.47179 -1.20031,3.60302 -0.68688,0.89275 -1.25033,1.86862 -1.95535,2.74698 -0.51327,0.69336 -0.93643,1.44481 -1.46288,2.13548 -0.71085,0.79542 -1.52048,1.49435 -2.3588,2.151 -0.85682,0.57893 -1.80433,1.0467 -2.54529,1.78029 -0.64278,0.76891 -1.60762,1.12956 -2.36159,1.75614 -0.88071,0.78289 -1.86442,1.43178 -2.92972,1.9309 -0.90309,0.49108 -1.89635,0.54552 -2.7705,1.0782 -0.82661,0.67429 -1.52881,1.47416 -2.16778,2.32437 -0.61621,0.97667 -1.7229,1.2877 -2.61243,1.90835 -0.82739,0.6163 -1.70221,1.15296 -2.49338,1.81752 -0.62022,0.70313 -1.2257,1.36052 -2.02018,1.87182 -1.02408,0.69415 -2.01349,1.23628 -3.2448,1.45381 -0.54794,-0.0472 -1.11205,-10e-4 -1.64381,-0.14156 -1.48642,-0.39221 -2.50023,-2.20849 -3.01135,-3.50668 -0.38585,-0.70661 -0.47045,-1.51863 -0.76831,-2.25283 -0.0587,-0.18226 2.51891,-1.01175 2.57757,-0.82949 l 0,0 c 0.28218,0.74358 0.46526,1.51854 0.82836,2.23264 0.18419,0.48314 0.37611,1.00337 0.76442,1.36941 0.12814,0.12079 0.27555,0.22003 0.42201,0.31781 0.08,0.0534 0.28227,0.0421 0.25529,0.1344 -0.0313,0.10714 -0.2145,0.0619 -0.32174,0.0929 1.0732,0.0371 1.41287,-0.32925 2.31582,-0.86193 0.13748,-0.093 0.27497,-0.18608 0.41245,-0.27911 0.0637,-0.008 0.13491,0.007 0.19104,-0.0236 0.52774,-0.29236 0.75406,-1.05573 1.24768,-1.40124 0.82939,-0.66798 1.63538,-1.34308 2.54682,-1.89845 0.72528,-0.56651 1.53956,-0.77838 2.18885,-1.36485 0.78162,-1.12869 1.70755,-2.1255 2.7444,-3.027 0.58102,-0.35964 1.1485,-0.78995 1.83246,-0.93023 0.72701,-0.14911 0.0221,0.15083 0.69902,-0.0636 0.12981,-0.0411 0.24966,-0.10879 0.37449,-0.16319 0.86701,-0.49002 1.79415,-0.86765 2.5297,-1.58162 0.69235,-0.61564 1.51307,-0.98602 2.21885,-1.54208 0.77744,-0.88343 1.75143,-1.60292 2.80837,-2.11873 0.70641,-0.49806 1.33819,-1.0577 1.97789,-1.62781 0.55388,-0.7426 1.05203,-1.50433 1.55906,-2.28267 0.70188,-0.64016 0.94611,-1.66576 1.67343,-2.29745 0.47463,-0.87641 0.98613,-1.69918 0.94723,-2.74136 0.1202,-1.23028 0.346,-2.46578 0.28158,-3.70395 -0.19878,-0.85869 -0.94264,-1.46318 -1.30729,-2.25589 -0.3964,-0.73489 -1.14178,-1.24823 -1.55227,-1.98389 -0.50805,-0.58735 -1.00586,-1.09351 -1.78115,-1.31805 -0.98616,-0.37967 -1.9805,-0.79785 -2.81887,-1.45212 -0.8602,-0.40079 -1.90677,-0.32875 -2.71612,-0.88559 -0.97776,-0.43599 -1.85022,-1.04682 -2.81158,-1.47008 0.12555,-0.009 0.50222,-0.0181 0.37665,-0.0267 -1.29039,-0.0875 -2.59911,0.16957 -3.89014,0.0622 -1.38373,-0.0185 -2.76328,-0.10525 -4.14343,-0.20335 -0.73954,-0.0243 -1.54953,-0.14656 -2.43892,0.22607 -0.22687,0.0927 -0.97743,0.41171 -1.18837,0.44113 -1.15644,0.16125 -2.26595,-0.0271 -3.41395,-0.10257 0.81294,-0.28091 -3.57298,0.36932 -2.72663,0.52739 -1.08741,0.48916 -2.2311,0.83809 -3.42643,0.88803 -0.86359,0.20633 -1.71601,0.47982 -2.54002,0.74871 -0.74798,0.52897 -1.35032,0.57033 -1.79433,1.49826 -0.83253,0.91478 -1.72572,1.82689 -1.98681,3.08345 -0.328,1.20688 -0.21391,2.41514 -0.21217,3.65885 -0.0236,1.27932 -0.10406,2.55501 -0.17489,3.83232 -0.016,1.27852 0.14247,2.5332 0.4342,3.77947 0.19786,1.27318 0.0972,2.52957 0.26141,3.79913 0.25231,0.79835 0.56005,1.60018 1.0046,2.30875 0.4797,0.96691 0.62063,2.06904 1.30427,2.92599 0.25964,0.35214 1.1178,1.3938 1.2851,1.75698 0.0163,0.0353 -0.24981,-0.13223 -0.0764,-0.088 1.00495,0.2526 1.94937,0.63266 2.7824,1.26931 2.15054,1.41767 3.89155,3.28078 5.47821,5.3012 0.10481,0.16467 -2.22403,1.64683 -2.32884,1.48216 z"
       inkscape:connector-curvature="0" />
    <path
       style="fill:#6f8a91;fill-opacity:1;stroke:none"
       d="m 235.92447,794.17892 c -32.21403,2.93896 -64.74399,1.78515 -97.08438,2.40905 -1.76751,-0.34827 -4.00598,1.03676 -2.39699,3.00037 2.29697,5.52074 3.5036,11.60341 5.38524,17.04162 8.87461,0.0955 17.78572,0.83456 26.63088,1.36381 1.95252,-0.11265 1.2348,-4.39442 3.53264,-2.03025 -0.22585,7.29838 -2.0697,14.69433 -1.63371,22.12967 -0.002,14.8992 -0.65242,29.92174 0.69979,44.74681 1.68362,14.13326 1.0476,28.38116 -0.27799,42.49201 -1.00249,9.17808 0.60728,18.68681 -1.58984,27.63287 -0.24946,1.60409 -1.75966,2.40705 -2.55812,3.49203 -9.04166,2.28411 -18.50257,2.02996 -27.73323,2.92356 -16.2869,0.21647 -32.75407,0.46445 -48.929057,-0.73089 -8.318275,-1.48345 -16.742785,-2.97609 -24.448702,-6.63983 C 56.094559,947.22812 46.638732,941.64563 38.523134,934.83473 28.323585,923.99324 15.496288,916.10536 5.3593363,905.16731 c -3.2718051,-1.40109 -0.585064,6.27374 -1.127148,8.59341 0.949801,14.76989 0.314644,29.67744 2.131764,44.361 3.094505,12.67578 15.9677607,18.85698 27.1131687,23.15868 14.95041,6.0379 30.874344,9.2331 46.54435,12.9392 16.668094,3.0217 33.702689,1.5035 50.472049,2.7611 9.67352,1.5856 19.50083,1.0296 29.21388,2.4389 15.87306,1.3225 31.89986,0.1231 47.71234,2.3931 12.11175,1.071 24.42275,-0.1434 36.44302,1.7054 8.65869,0.1654 17.26289,0.4609 25.84509,0.9746 13.69229,0.1651 27.26454,-1.7693 40.18529,-6.3794 21.27587,-6.987 40.26359,-20.0516 55.94712,-35.84987 9.3113,-11.79779 17.65879,-25.30346 18.55649,-40.70654 0.42237,-6.59267 1.17773,-13.62434 -0.79179,-19.97767 -2.08466,-0.92956 -1.74575,2.96424 -3.53264,3.53263 -6.51134,6.50019 -13.85183,12.29417 -18.49223,20.4562 -5.64845,8.62395 -11.49695,18.05681 -21.49407,22.12841 -16.17017,8.08909 -34.71767,9.75376 -52.49165,12.3743 -14.68644,1.36431 -29.15058,5.47391 -43.99453,3.96322 -10.47259,0.0643 -20.47985,-3.07887 -30.23146,-6.39952 -2.4903,-1.047 -5.99164,2.1e-4 -8.0804,-1.01513 0.69105,-0.83689 1.64476,-3.28289 -0.40605,-2.70023 -2.13236,1.16693 -0.59722,-2.82152 -1.31966,-3.77627 -1.04872,-9.34517 -3.15499,-18.47576 -2.89942,-27.91544 -0.2685,-24.59461 -0.37457,-49.26862 0.30069,-73.82046 2.11234,-11.11617 2.93453,-22.47551 5.19745,-33.56005 -0.0433,-4.8559 4.97107,-2.15873 8.01448,-2.2542 7.64873,1.28861 15.51961,3.69454 23.3529,2.49783 1.13478,-4.77035 0.11765,-10.33601 0.31384,-15.42953 -0.59307,-1.56957 1.08627,-6.07564 -1.91774,-5.48206 z"
       id="path3034"
       inkscape:connector-curvature="0" />
    <path
       style="fill:#6f8a91;fill-opacity:1;stroke:none"
       d="m 192.15225,755.2184 c -6.90194,0.50524 -15.22628,-0.10456 -20.50554,5.09593 -2.54135,4.65566 -1.32876,10.44117 -1.15724,15.53142 0.78031,3.38202 1.76329,7.82129 5.09593,9.50158 2.34799,1.52995 5.64408,3.47116 6.49681,6.25318 -0.95358,2.39272 2.27019,1.18958 2.93248,-0.002 4.74462,-3.24258 8.54282,-7.67974 13.8577,-10.00755 5.3446,-3.88871 12.65498,-8.90084 11.95818,-16.40443 -2.01668,-5.76996 -8.68618,-7.9994 -13.96813,-9.76551 -1.55381,-0.28232 -3.13705,-0.23064 -4.71019,-0.20302 z"
       id="path3036"
       inkscape:connector-curvature="0" />
    <path
       style="fill:#1c2224;fill-opacity:1;stroke:none"
       id="path3048"
       d="m 350.10987,949.06271 c 1.29049,-2.1379 3.07879,-3.90537 4.53543,-5.92227 0.34119,-0.65324 1.03884,-1.11443 1.34918,-1.78085 0.71189,-1.14807 1.64425,-2.13125 2.4446,-3.21593 1.12903,-1.47156 2.03934,-3.08125 2.98409,-4.67118 1.03528,-1.61568 1.99971,-3.29435 2.8431,-5.02016 1.0138,-2.22239 2.0126,-4.451 2.86641,-6.74039 0.0578,-0.19476 2.81216,0.62308 2.75433,0.81784 l 0,0 c -0.82585,2.40007 -1.88364,4.70094 -3.01355,6.97213 -0.87697,1.78534 -1.81497,3.55894 -2.91882,5.21279 -1.00537,1.63834 -1.91705,3.33579 -3.10011,4.85821 -0.7482,1.01252 -1.6308,1.90121 -2.41118,2.87592 -0.40058,0.70807 -0.93628,1.30541 -1.31985,2.02912 -1.36128,2.17499 -3.14942,4.0188 -4.68479,6.06693 -0.10481,0.16467 -2.43365,-1.31749 -2.32884,-1.48216 z"
       inkscape:connector-curvature="0" />
    <path
       style="fill:#1c2224;fill-opacity:1;stroke:none"
       d="m 376.33666,940.39762 c -15.15479,12.41221 -26.44016,24.3646 -49.07118,33.29613 -54.73292,10.21215 -101.03719,7.16875 -153.83214,7.00435 -37.44844,-2.7162 -75.014745,-6.90427 -111.74878,-15.02748 -19.172797,-4.38888 -38.300685,-9.92503 -55.7266577,-19.10103 -1.902353,1.77971 0.112904,6.35943 -0.0203,9.21734 0.78692,8.51568 7.0229747,15.59059 14.8108887,18.67919 11.76909,11.04318 26.974535,12.68668 41.55095,15.84348 9.318455,2.2355 18.525622,5.2509 28.223382,4.9417 59.979007,3.1603 119.944757,6.699 179.936227,9.5459 12.28005,-0.2895 24.96835,-1.1536 36.1248,-6.8583 20.54017,-5.5725 30.41085,-9.9233 43.66408,-21.52462 8.66903,-7.50914 18.78106,-13.23218 21.21204,-26.82202 1.8782,-2.89632 4.23437,-5.57972 5.74969,-8.66677 0.0569,-0.45383 -0.53609,-0.74306 -0.873,-0.52787 z"
       id="path3066"
       inkscape:connector-curvature="0"
       sodipodi:nodetypes="ccccccccccccccc" />
    <path
       style="fill:#1c2224;fill-opacity:1;stroke:none"
       id="path3070"
       d="m 202.98739,828.9047 c -2.49518,0.13088 -4.99585,0.0965 -7.49247,0.0294 0.76451,0.0842 0.29881,-1.25604 0.96898,0.60044 0.70177,1.61248 0.57264,3.1117 -0.0309,4.70987 -0.44072,1.00285 -0.38008,2.06712 -0.30535,3.13183 0.14265,1.36774 0.20853,2.73935 0.20929,4.114 -0.022,1.28774 -0.0636,2.57489 -0.0763,3.86281 -0.006,1.29649 0.0102,2.59293 0.0179,3.88938 0.007,1.30272 0.003,2.60547 -3.3e-4,3.90819 -0.003,1.2977 -0.003,2.5954 -0.002,3.8931 0.001,1.29991 0.001,2.59982 0.001,3.89972 -2e-4,1.29926 -4.7e-4,2.59852 -5.5e-4,3.89777 -3e-5,1.29935 9e-5,2.5987 1.4e-4,3.89805 4e-5,1.29938 1e-5,2.59877 -1e-5,3.89815 -2e-5,1.29935 -2e-5,2.5987 -1e-5,3.89805 0,1.29936 1e-5,2.59873 1e-5,3.89809 -1e-5,1.29936 -1e-5,2.59872 -1e-5,3.89808 0,1.29936 0,2.59872 0,3.89808 0,1.29936 0,2.59873 0,3.89809 0,1.29936 0,2.59872 0,3.89808 0,1.29936 0,2.59872 0,3.89808 0,1.29936 0,2.59872 0,3.89808 0,1.29936 0,2.59873 0,3.89809 0,1.29936 0,2.59872 0,3.89808 0.0263,1.37049 0.0859,2.69346 -0.35805,4.00414 -0.47838,0.9345 -0.50625,1.90932 -0.46474,2.93293 0.20952,1.42413 0.17039,2.73278 -0.318,4.08971 -0.44282,1.00786 -0.29151,2.10605 -0.42768,3.16701 -0.30625,1.06669 -0.50741,2.12506 -0.52424,3.23456 0.04,1.33688 0.13902,2.6706 0.17701,4.00771 0.0244,1.30677 -0.0138,2.61355 -0.0342,3.92011 -0.0187,1.28957 -0.0101,2.57929 -0.003,3.8689 0.008,1.30417 0.008,2.60836 0.007,3.91254 -0.002,1.29775 -0.004,2.5955 -0.004,3.89325 3.4e-4,1.29968 0.001,2.59935 0.001,3.89903 1.3e-4,1.29939 -1.5e-4,2.59878 -2.9e-4,3.89817 -1.2e-4,1.2993 -5e-5,2.5986 0,3.8979 -0.0698,1.16836 -0.0505,1.93543 0.38456,2.99683 -0.0226,0.16473 0.52038,0.0772 0.49124,-0.0865 -0.0156,-0.0875 -0.33323,-0.0563 -0.25102,-0.0901 0.32674,-0.13454 0.70461,-0.0855 1.04399,-0.18396 1.19155,-0.57597 2.36543,-1.18475 3.6161,-1.62364 1.18043,-0.28708 2.21008,-0.92882 3.33693,-1.34844 0.96617,-0.44393 1.99988,-0.66486 3.01928,-0.94769 1.07837,-0.26141 2.18159,-0.40376 3.20357,-0.85901 1.30358,-0.98488 2.72217,-0.97315 4.28812,-0.93013 1.40072,0.15644 2.80236,0.27405 4.21204,0.28511 -0.0197,-0.002 -0.0393,-0.004 -0.059,-0.005 0.18777,-0.0495 0.88745,2.60601 0.69968,2.65548 l 0,0 c -0.45412,10e-4 -0.90823,0.003 -1.36235,0.004 -1.4361,-0.0358 -2.8632,-0.17019 -4.29246,-0.30903 0.49601,-0.16544 -2.1232,-0.0598 -1.74678,0.37155 -1.11264,0.71298 -2.39922,1.04802 -3.69976,1.23557 -1.00901,0.25722 -2.04089,0.36241 -2.95806,0.88354 -1.18274,0.22407 -2.10048,1.19277 -3.31948,1.36895 -1.25113,0.31106 -2.3742,0.98803 -3.50914,1.58006 -1.84989,0.73667 -4.21257,0.85184 -5.28464,-1.14096 -0.50353,-1.26112 -0.66756,-2.49817 -0.55853,-3.85643 -4e-5,-1.29941 -1e-4,-2.59883 3e-5,-3.89824 1.5e-4,-1.29915 4.2e-4,-2.59831 2.4e-4,-3.89746 -2.7e-4,-1.2999 -0.001,-2.59981 -0.001,-3.89971 1.8e-4,-1.29847 0.002,-2.59693 0.004,-3.8954 0.001,-1.2994 4.8e-4,-2.59881 -0.008,-3.8982 -0.007,-1.30579 -0.0139,-2.61169 0.007,-3.91741 0.0205,-1.27111 0.0568,-2.54259 0.028,-3.81387 -0.0442,-1.3789 -0.15657,-2.75481 -0.16914,-4.1346 0.0386,-1.18721 0.20109,-2.34586 0.55364,-3.48372 0.17807,-1.21821 -0.0111,-2.50003 0.54581,-3.65567 0.4095,-1.06874 0.27493,-2.09298 0.16263,-3.22583 -0.0274,-1.2981 0.0386,-2.59162 0.61555,-3.78294 0.41637,-1.01743 0.13574,-2.14835 0.21097,-3.223 0,-1.29936 0,-2.59872 0,-3.89808 0,-1.29936 0,-2.59873 0,-3.89809 0,-1.29936 0,-2.59872 0,-3.89808 0,-1.29936 0,-2.59872 0,-3.89808 0,-1.29936 0,-2.59872 0,-3.89808 0,-1.29936 0,-2.59873 0,-3.89809 0,-1.29936 0,-2.59872 0,-3.89808 0,-1.29936 0,-2.59872 0,-3.89808 0,-1.29936 0,-2.59872 -1e-5,-3.89808 -1e-5,-1.29937 -1e-5,-2.59873 2e-5,-3.8981 2e-5,-1.29934 5e-5,-2.59868 0,-3.89802 -6e-5,-1.29942 -1.7e-4,-2.59885 -1.3e-4,-3.89828 9e-5,-1.29922 3.7e-4,-2.59845 5.4e-4,-3.89767 1e-5,-1.29948 -4.2e-4,-2.59896 -0.001,-3.89844 -6.7e-4,-1.29984 -8.2e-4,-2.59968 0.003,-3.89952 0.003,-1.29639 0.007,-2.59279 -4.8e-4,-3.88918 -0.008,-1.30904 -0.0238,-2.6181 -0.016,-3.92718 0.014,-1.27843 0.0553,-2.55615 0.0745,-3.83447 -0.004,-1.32712 -0.0828,-2.64988 -0.21095,-3.97092 -0.0814,-1.3924 -0.0896,-2.7933 0.45717,-4.10614 0.47798,-1.21567 0.47102,-1.86151 -0.04,-3.14658 -0.78607,-2.55702 -0.60328,-3.81552 2.39699,-4.05961 2.49156,-0.066 4.98731,-0.103 7.47737,0.0294 0.18836,0.0484 -0.49561,2.71226 -0.68398,2.6639 z"
       inkscape:connector-curvature="0" />
    <path
       style="fill:#1c2224;fill-opacity:1;stroke:none"
       d="m 200.21235,828.42926 c -4.17303,-1.07917 -3.92884,2.91733 -3.8665,5.80646 -0.57727,28.73029 -0.007,57.5656 -1.18509,86.23275 -1.96109,13.88738 -0.96509,28.05194 -0.61281,42.01829 0.9853,2.09546 3.86668,-0.89524 5.5397,-0.98491 2.73174,-1.57766 6.8683,-1.40151 8.95629,-3.74558 -0.87385,-1.58755 -4.13374,-0.51321 -2.98446,-3.2078 -0.27062,-1.32636 -2.5205,-0.209 -2.13177,-1.82722 -1.13639,-11.37404 -3.33002,-22.65731 -2.84432,-34.1487 0.1664,-24.47927 -0.5628,-49.05507 0.72242,-73.47106 0.28618,-5.34271 2.22588,-10.81067 1.85797,-16.06315 -0.83533,-0.93402 -2.35438,-0.59125 -3.45143,-0.60908 z"
       id="path3072"
       inkscape:connector-curvature="0" />
    <path
       style="fill:#1c2224;fill-opacity:1;stroke:none"
       id="path3074"
       d="m 175.742,780.76317 c 2.52637,-0.14559 5.05763,-0.0724 7.58595,-0.0417 1.26429,0.0228 2.52815,0.0607 3.79272,0.0614 1.22615,-0.009 2.45229,-0.0187 3.67848,-0.0222 1.1523,0.079 1.35848,-0.0312 2.12459,-0.76406 0.91174,-0.73236 2.08255,-0.93267 3.17745,-1.25163 0.78646,-0.43898 1.74378,-0.49165 2.50724,-0.96855 0.63719,-0.49325 1.07674,-1.20395 1.54525,-1.85217 0.48004,-1.01258 0.72209,-2.10139 1.12086,-3.14616 0.57523,-0.79582 0.99572,-1.62169 1.39192,-2.51361 0.17271,-1.01328 0.32052,-2.01896 0.5691,-3.02594 0.13023,-1.27042 0.47833,-2.36047 1.3013,-3.35073 0.51651,-0.70934 0.40693,-1.68322 0.5641,-2.52713 0.11695,-1.16424 0.36553,-2.25879 0.75157,-3.36197 0.15832,-0.44725 0.18184,-0.91289 0.2069,-1.38096 0.0112,-0.19317 2.74307,-0.035 2.73188,0.15815 l 0,0 c -0.0535,0.6697 -0.10842,1.33855 -0.33199,1.97881 -0.34766,0.99713 -0.56558,1.96881 -0.66669,3.02748 -0.23584,1.25427 -0.14645,2.60407 -1.02897,3.63698 -0.11927,0.12729 -0.30164,0.19751 -0.39193,0.34676 -0.3672,0.607 -0.26875,1.36949 -0.46974,2.0241 -0.28152,1.13288 -0.38218,2.27613 -0.69666,3.3968 -0.36723,0.83982 -0.67176,1.7321 -1.32048,2.40458 -0.45379,1.2272 -0.73446,2.51086 -1.37751,3.66397 -0.58772,0.85253 -1.19396,1.73666 -1.97462,2.42085 -0.91017,0.71492 -1.9303,0.95903 -2.98839,1.36453 -0.81004,0.3513 -1.69916,0.54271 -2.55232,0.69476 -1.22072,1.03345 -1.68117,1.80932 -3.50768,1.69377 -1.22998,-0.004 -2.4599,-0.0135 -3.68985,-0.0222 -1.25405,7.5e-4 -2.5074,0.0385 -3.76117,0.0614 -2.53548,0.031 -5.07375,0.10304 -7.60733,-0.0417 -0.18837,0.0484 -0.87234,-2.61553 -0.68398,-2.66389 z"
       inkscape:connector-curvature="0" />
    <path
       style="fill:#1c2224;fill-opacity:1;stroke:none"
       id="path3076"
       d="m 178.76792,783.25623 c -2.4429,-0.24417 -4.87873,-0.56461 -7.33409,-0.65044 -0.29806,-0.033 -0.59991,0.0114 -0.89908,0.0319 -0.17939,0.0658 -1.10974,-2.4711 -0.93036,-2.53689 l 0,0 c 0.85582,-0.13932 1.69727,-0.26191 2.57435,-0.20565 2.56431,0.0173 5.12773,0.26866 7.63575,0.81538 0.18,0.074 -0.86656,2.61967 -1.04657,2.54566 z"
       inkscape:connector-curvature="0" />
    <path
       style="fill:#1c2224;fill-opacity:1;stroke:none"
       d="m 180.21438,782.93133 c -1.7909,0.65522 -6.45778,-1.20278 -6.59832,1.23846 3.40099,2.58905 6.96641,5.22339 9.15643,8.87219 3.68026,-1.35284 6.72994,-5.14559 10.11065,-7.41041 1.29722,-0.48353 2.85029,-2.77497 0.54817,-2.61903 -4.40294,-0.15336 -8.81203,-0.0963 -13.21693,-0.0812 z"
       id="path3078"
       inkscape:connector-curvature="0" />
    <path
       style="fill:#1c2224;fill-opacity:1;stroke:none"
       d="m 207.56186,761.22795 c -0.95445,5.82216 -3.92805,11.28243 -5.48168,16.95259 1.57381,1.60668 3.25866,-1.81035 4.46656,-2.70023 3.81233,-3.52617 6.76361,-10.97158 1.44147,-14.43509 l -0.42635,0.18273 z"
       id="path3080"
       inkscape:connector-curvature="0" />
    <path
       style="fill:#1c2224;fill-opacity:1;stroke:none"
       id="path3092"
       d="m 189.95583,954.77141 c -1.09852,2.06456 -2.40555,4.03096 -3.41911,6.13905 -0.16415,0.72873 0.39253,1.47161 0.61353,2.17598 0.37578,1.47664 0.22771,3.00052 0.10191,4.49856 -0.52922,1.87369 -1.70142,3.20622 -3.01846,0.0757 -0.0449,-0.1067 0.83203,-1.28469 0.91408,-1.39839 1.06226,-1.24164 2.16323,-2.43955 3.43108,-3.47348 0.87566,-0.76701 0.8555,-0.30519 0.76094,-1.15749 -0.30363,-1.33142 -0.22973,-2.73842 -0.54278,-4.06075 -0.047,-0.13614 -0.0657,-0.28564 -0.14098,-0.40843 -0.0666,-0.1086 -0.24514,-0.094 -0.33456,-0.18468 -0.39058,-0.39633 -0.37416,-0.46371 -0.66706,-0.99395 -0.0771,-0.1744 2.38924,-1.26486 2.46634,-1.09047 l 0,0 c 0.37179,0.75241 1.32965,1.19759 1.36816,2.15897 0.33448,1.4737 0.3722,3.00526 0.57388,4.50242 -0.005,1.51327 -0.36047,2.19798 -1.50102,3.11071 -1.15358,0.86793 -2.01295,2.0456 -3.04699,3.04253 -1.33167,1.64783 -0.12681,0.23436 -2.5573,-0.59048 -0.54364,-0.1845 -0.76182,1.21789 -0.45705,0.27567 0.0991,-1.20436 0.25632,-2.43402 0.008,-3.63009 -0.37777,-1.26443 -1.0762,-2.40652 -0.5935,-3.77362 0.87781,-2.28158 2.17023,-4.42988 3.57292,-6.42198 0.0851,-0.17451 2.55307,1.02969 2.46792,1.2042 z"
       inkscape:connector-curvature="0" />
    <path
       style="fill:#1c2224;fill-opacity:1;stroke:none"
       id="path3094"
       d="m 189.65859,908.34401 c -0.17865,2.42474 -0.49865,4.80606 -1.21469,7.13196 -0.21531,0.78426 -0.34884,1.55735 -0.60858,2.33091 -0.20887,1.11061 -0.1143,2.25738 -0.068,3.37962 0.0799,0.72287 0.007,1.4619 0.0833,2.18417 0.0122,0.11673 0.0157,0.43265 0.0888,0.34075 0.35338,-0.44489 -0.51623,-0.5699 -1.20386,-0.83081 0.73353,-1.04414 1.57638,-2.06186 2.0829,-3.25277 0.18346,-0.91518 0.3003,-1.82946 0.68222,-2.68631 0.70775,-0.94666 1.04246,-1.89756 1.09123,-3.06877 -0.0538,-1.35029 -0.27948,-2.68433 -0.3736,-4.03213 -0.3967,-0.95769 -0.65598,-1.91465 -0.7521,-2.94978 -0.0127,-0.19255 2.71038,-0.3727 2.72312,-0.18015 l 0,0 c 0.0605,1.05094 0.52766,1.94521 0.76805,2.96111 0.11197,1.44583 0.39452,2.87623 0.39632,4.32982 -0.0911,1.39953 -0.34243,2.86924 -1.35645,3.92365 -0.41608,0.76865 -0.28947,1.7268 -0.56197,2.56926 -0.71467,1.85577 -1.87669,3.56095 -3.45164,4.79035 -0.69836,-0.0593 -1.44212,0.0768 -2.09508,-0.17788 -1.0203,-0.39798 -0.81193,-2.96341 -0.89088,-3.8308 -0.0508,-1.40862 -0.12436,-2.85063 0.26807,-4.22119 0.0685,-0.18785 0.22821,-0.34731 0.24772,-0.5463 0.0543,-0.55361 0.0401,-1.11363 0.22514,-1.65041 0.54018,-2.27891 0.74846,-4.59849 1.19414,-6.8949 0.0269,-0.19275 2.75286,0.18785 2.72595,0.3806 z"
       inkscape:connector-curvature="0" />
    <path
       style="fill:#1c2224;fill-opacity:1;stroke:none"
       id="path3096"
       d="m 191.60763,860.91734 c -0.25041,2.43812 -0.57144,4.86896 -0.69054,7.31833 -0.0494,0.99076 0.11844,1.97023 0.18526,2.95553 0.0552,1.33626 0.01,2.67418 -0.0154,4.01067 -0.0473,1.46171 0.28105,1.95462 -2.2613,0.31932 -0.20826,-0.13396 0.22949,-0.43897 0.33631,-0.66237 0.11072,-0.23157 0.21074,-0.4681 0.31611,-0.70215 0.5194,-1.11026 1.29527,-2.11799 1.75708,-3.25341 0.0393,-1.00147 -0.18101,-2.00828 -0.29232,-3.00408 -0.15365,-1.42736 -0.10406,-2.8631 -0.046,-4.29397 0.0334,-0.84232 0.0185,-0.4233 0.0451,-1.25707 0.005,-0.19378 2.74536,-0.12275 2.74034,0.071 l 0,0 c -0.0254,0.84987 -0.0114,0.42532 -0.0418,1.27365 -0.0466,1.31914 -0.085,2.64211 0.0512,3.95792 0.13967,1.35029 0.4367,2.73122 0.11369,4.07508 -0.44944,1.19281 -1.11132,2.30742 -1.72057,3.42447 -0.11961,0.25252 -0.65833,1.43811 -0.76645,1.47657 -3.13996,1.11705 -3.01054,0.67206 -2.99229,-1.46941 0.0251,-1.27886 0.0795,-2.55747 0.0742,-3.83665 -0.0463,-1.04999 -0.27636,-2.07959 -0.29372,-3.13253 -0.0148,-2.56919 0.23554,-5.13764 0.77529,-7.65152 0.0269,-0.19276 2.75286,0.18785 2.72595,0.3806 z"
       inkscape:connector-curvature="0" />
    <path
       style="fill:#1c2224;fill-opacity:1;stroke:none"
       id="path3098"
       d="m 192.55455,815.7398 c -1.0099,1.91346 -2.08495,3.77005 -2.99481,5.73498 -0.31235,0.87154 -0.52285,1.76317 -0.87014,2.62901 -0.6826,0.94779 -1.13107,1.98495 -1.585,3.05109 -0.31381,0.97235 -0.11167,2.01782 -0.0124,3.01147 0.063,0.71376 0.13523,1.42906 0.14683,2.14619 0.003,0.20888 0.14331,0.68979 -0.0551,0.62429 -0.82279,-0.27167 -1.61001,-0.64113 -2.41501,-0.96169 0.54262,-1.389 1.28537,-2.68537 1.88543,-4.04562 0.12049,-0.86594 0.33235,-1.72548 0.44244,-2.5974 -0.0136,-1.43966 0.6398,-2.65422 1.3067,-3.87582 0.25591,-0.96071 0.9606,-1.66111 1.45484,-2.48082 0.0795,-0.32593 0.0482,-0.14254 0.0737,-0.5532 0.02,-0.19149 2.72811,0.0919 2.70808,0.28337 l 0,0 c -0.15161,0.99216 -0.0319,0.51305 -0.35282,1.43887 -0.47617,0.81173 -1.15387,1.44412 -1.37818,2.40531 -0.52126,0.9982 -1.13772,1.91412 -1.11977,3.09489 -0.15704,1.0618 -0.36567,2.11707 -0.54872,3.17034 -0.53495,1.35414 -1.21324,2.65809 -1.86239,3.95926 -2.41033,0.10174 -2.8028,1.02887 -2.8924,-0.35581 -0.0439,-0.67787 -0.0598,-1.35803 -0.13971,-2.03346 -0.12365,-1.3728 -0.28395,-2.77798 0.1888,-4.10703 0.43028,-1.07157 0.79892,-2.19098 1.57743,-3.07188 0.38197,-0.86261 0.64845,-1.70853 0.83327,-2.63975 0.82323,-2.18691 1.84456,-4.08232 3.14093,-6.03079 0.0851,-0.1745 2.55307,1.02969 2.46792,1.2042 z"
       inkscape:connector-curvature="0" />
    <path
       style="fill:#000000;fill-opacity:1;stroke:none"
       id="path3100"
       d="m 187.83344,956.23006 c 0.13591,2.49247 0.0991,4.99089 0.0304,7.48493 -0.0617,0.72068 -0.32629,1.32679 -0.71304,1.92141 -0.0494,0.076 -0.14518,0.31327 -0.1552,0.22321 -0.0151,-0.1361 0.0913,-0.25821 0.13696,-0.38731 -0.093,-0.32502 -0.18598,-0.65003 -0.27897,-0.97504 0.45465,-0.18343 -0.16345,-0.21489 -0.0834,-0.2543 0.62724,-0.30884 0.79727,0.078 0.97452,-0.81692 0.0958,-1.43695 -0.59779,-2.64917 -1.18137,-3.90241 -0.5079,-0.59189 -0.84395,-1.23136 -1.09687,-1.96343 -0.0512,-0.18394 2.55012,-0.9078 2.60131,-0.72386 l 0,0 c 0.19259,0.64498 0.81812,1.05584 1.07876,1.67397 0.87651,1.79489 1.64604,3.59279 1.26632,5.64302 -0.13077,0.35411 -0.20645,0.73377 -0.39231,1.06233 -0.97989,1.73232 -3.09022,2.04122 -4.8166,1.36113 -0.23709,-0.40359 -0.58476,-0.7601 -0.71126,-1.21075 -0.20641,-0.73529 0.58682,-0.99757 0.56012,-1.65105 -0.0687,-2.49404 -0.10554,-4.99246 0.0304,-7.48493 0,-0.19447 2.75031,-0.19447 2.75031,0 z"
       inkscape:connector-curvature="0" />
    <path
       style="fill:#000000;fill-opacity:1;stroke:none"
       id="path3102"
       d="m 190.81244,910.471 c -0.74281,2.43086 -1.74662,4.75196 -2.76888,7.07228 -0.24107,0.65672 -0.48486,1.30529 -0.71933,1.96498 -0.0586,0.18129 -2.62251,-0.64707 -2.56394,-0.82837 l 0,0 c 0.27081,-0.64624 0.53629,-1.27503 0.63647,-1.99081 0.81321,-2.3544 1.75418,-4.67668 2.75732,-6.95458 0.0521,-0.18797 2.71044,0.54853 2.65836,0.7365 z"
       inkscape:connector-curvature="0" />
    <path
       style="fill:#000000;fill-opacity:1;stroke:none"
       id="path3104"
       d="m 194.20635,866.11478 c -0.33575,2.52711 -0.80165,5.10076 -1.6106,7.52571 -0.28961,0.67971 -0.59088,1.37372 -0.99559,1.98487 -0.2262,0.34434 -0.43748,0.67861 -0.59177,1.05888 -0.0651,0.18031 -2.61513,-0.74093 -2.54999,-0.92124 l 0,0 c 0.16629,-0.36657 0.31866,-0.8602 0.66181,-1.11374 0.0871,-0.17167 0.30205,-0.65015 0.37767,-0.64427 0.0561,0.004 -0.0409,0.21981 -0.0201,0.16754 0.15663,-0.39421 0.2235,-0.83205 0.40915,-1.21763 0.63137,-2.37681 0.98869,-4.83483 1.59348,-7.22072 0.0269,-0.19275 2.75286,0.18785 2.72595,0.3806 z"
       inkscape:connector-curvature="0" />
    <path
       style="fill:#000000;fill-opacity:1;stroke:none"
       id="path3106"
       d="m 190.43216,820.44686 c 0.13591,2.49246 0.0991,4.99089 0.0304,7.48492 0.0701,1.22863 -0.14961,2.33073 -0.58825,3.46772 -0.26689,1.1282 -0.59609,2.24053 -1.10037,3.28775 -0.0758,0.17612 -2.56654,-0.89593 -2.49073,-1.07205 l 0,0 c 0.577,-0.90758 0.64214,-2.07283 1.01355,-3.06308 0.0585,-0.14317 0.3885,-0.6955 0.40959,-0.88363 0.064,-0.5706 -0.11002,-1.16583 -0.0548,-1.73671 -0.0687,-2.49403 -0.10554,-4.99246 0.0304,-7.48492 0,-0.19448 2.75031,-0.19448 2.75031,0 z"
       inkscape:connector-curvature="0" />
  </g>
</svg>
