<?xml version="1.0" encoding="UTF-8" standalone="no"?>
<!-- Created with Inkscape (http://www.inkscape.org/) -->

<svg
   xmlns:dc="http://purl.org/dc/elements/1.1/"
   xmlns:cc="http://creativecommons.org/ns#"
   xmlns:rdf="http://www.w3.org/1999/02/22-rdf-syntax-ns#"
   xmlns:svg="http://www.w3.org/2000/svg"
   xmlns="http://www.w3.org/2000/svg"
   xmlns:sodipodi="http://sodipodi.sourceforge.net/DTD/sodipodi-0.dtd"
   xmlns:inkscape="http://www.inkscape.org/namespaces/inkscape"
   width="70"
   height="844"
   id="svg2"
   version="1.1"
   inkscape:version="0.48.5 r10040"
   sodipodi:docname="gmDoor.svg"
   inkscape:export-filename="C:\Users\narfman0\Desktop\gmDoor.png"
   inkscape:export-xdpi="89.955376"
   inkscape:export-ydpi="89.955376">
  <defs
     id="defs4" />
  <sodipodi:namedview
     id="base"
     pagecolor="#ffffff"
     bordercolor="#666666"
     borderopacity="1.0"
     inkscape:pageopacity="0.0"
     inkscape:pageshadow="2"
     inkscape:zoom="1.1569609"
     inkscape:cx="-3.283393"
     inkscape:cy="178.87526"
     inkscape:document-units="px"
     inkscape:current-layer="layer1"
     showgrid="false"
     inkscape:window-width="1591"
     inkscape:window-height="1004"
     inkscape:window-x="2041"
     inkscape:window-y="13"
     inkscape:window-maximized="0" />
  <metadata
     id="metadata7">
    <rdf:RDF>
      <cc:Work
         rdf:about="">
        <dc:format>image/svg+xml</dc:format>
        <dc:type
           rdf:resource="http://purl.org/dc/dcmitype/StillImage" />
        <dc:title></dc:title>
      </cc:Work>
    </rdf:RDF>
  </metadata>
  <g
     inkscape:label="Layer 1"
     inkscape:groupmode="layer"
     id="layer1"
     transform="translate(0,-208.36218)">
    <rect
       style="fill:#808080;fill-opacity:1;stroke:#000000;stroke-width:3.87127113;stroke-miterlimit:4;stroke-opacity:1;stroke-dasharray:none"
       id="rect2995"
       width="64.585472"
       height="839.98822"
       x="3.9195809"
       y="210.71205" />
    <path
       style="fill:#000000;fill-opacity:1;stroke:#000000;stroke-width:3.8310771;stroke-miterlimit:4;stroke-opacity:1;stroke-dasharray:none"
       id="path3769"
       d="m 25.726717,249.74809 c 1.562148,-0.0935 3.104372,0.001 4.627309,0.75973 1.250603,0.76257 2.53424,1.16578 3.777918,1.96646 1.014758,0.51273 2.022335,0.86557 2.982819,1.7452 1.092748,0.89742 2.230947,1.58088 3.365819,2.23053 1.0819,0.40551 2.149696,0.9585 3.182473,1.74424 1.049127,0.63867 2.07947,1.37294 3.124987,2.03726 0.833809,0.99974 1.811552,1.2222 2.594704,2.38152 0.796532,1.13593 1.643296,2.11128 2.471515,3.14685 0.807926,1.42316 1.752508,2.44716 2.572135,3.83034 0.992873,1.36265 1.633352,3.41778 2.324953,5.36057 0.752325,2.16366 1.310876,4.55269 1.897412,6.91256 0.403079,1.84142 0.836656,3.65269 1.287972,5.44659 0.417754,2.0445 0.688675,4.2002 1.037539,6.29576 0.448711,2.45832 0.919058,4.86335 1.183741,7.44131 0.366111,2.46634 0.610168,4.979 0.744497,7.54034 0.09487,2.39519 0.05107,4.77677 0.280265,7.13903 0.251976,2.20679 0.340997,4.46429 0.395543,6.72199 0.04515,2.47515 0.04254,4.95263 0.04302,7.42911 0.159263,2.16319 0.37995,4.29525 0.490509,6.47469 0.10731,2.54555 0.10723,5.10278 0.11286,7.65575 -0.07593,3.20318 0.0396,6.35149 0.268723,9.51457 0.22201,2.73163 0.277741,5.49749 0.315071,8.26056 0.02663,2.596 -0.04082,5.17375 0.193342,7.73337 0.246714,2.22321 0.340655,4.49259 0.396653,6.76445 0.04627,2.47294 0.04386,4.94826 0.04445,7.42262 -5.33e-4,2.50551 -0.0027,5.01104 -0.0032,7.51658 -5.34e-4,2.50407 -0.001,5.00814 -0.001,7.51221 -3.8e-5,2.5035 -1.7e-5,5.00698 -6e-6,7.51049 1.1e-5,2.50347 1.1e-5,5.00695 1.6e-5,7.51043 0,2.50349 0,5.00696 0,7.51045 0,2.50348 0,5.00698 0,7.51046 0,2.5035 0,5.00698 0,7.51047 0,2.50348 0,5.00697 0,7.51045 0.08067,2.54952 -0.06442,5.03258 -0.268471,7.53821 -0.193332,3.18635 -0.407716,6.37616 -0.751765,9.51006 -0.381535,2.97552 -0.606107,6.01121 -0.726972,9.07435 0.01271,2.60878 -0.253464,5.15077 -0.442275,7.71562 -0.09336,2.59181 -0.414232,5.10119 -0.595375,7.66802 -0.179797,2.80528 -0.222053,5.63559 -0.246463,8.46133 -0.01473,2.54071 -0.01029,5.08169 -0.0085,7.62253 0.0021,2.50091 0.0027,5.00182 0.0032,7.50273 2.66e-4,2.75469 -0.0016,5.50935 -0.0016,8.26404 5.34e-4,2.66334 0.001,5.32668 0.0016,7.99 2.13e-4,2.5112 2.24e-4,5.02239 2.29e-4,7.53357 6e-6,2.50147 0,5.00296 -5e-6,7.50443 -5e-6,2.50323 -5e-6,5.00648 -5e-6,7.50971 0,2.5035 0,5.00701 0,7.51052 -0.08194,2.53207 0.0652,4.99541 0.267927,7.48329 0.240256,2.47964 0.209058,5.02159 0.385536,7.51312 0.253524,2.48341 0.408266,4.99431 0.493786,7.5238 0.03736,1.25313 0.0484,2.50842 0.06027,3.76332 0,0 -1.598444,1.68666 -1.598444,1.68666 l 0,0 c -0.01083,-1.24946 -0.02086,-2.49928 -0.05618,-3.74713 -0.08131,-2.52059 -0.229321,-5.02452 -0.486735,-7.49711 -0.18863,-2.48654 -0.145126,-5.02892 -0.384097,-7.5078 -0.204606,-2.50661 -0.37038,-4.9846 -0.282047,-7.53765 0,-2.5035 0,-5.00701 0,-7.5105 0,-2.50324 0,-5.00649 -6e-6,-7.50971 0,-2.50148 -1.1e-5,-5.00294 -6e-6,-7.50441 1.2e-5,-2.51137 1.7e-5,-5.02272 2.47e-4,-7.53408 2.94e-4,-2.66439 10e-4,-5.32878 0.0016,-7.99316 4.11e-4,-2.75342 -0.0016,-5.50684 -0.0021,-8.26025 -4.6e-4,-2.50081 -10e-4,-5.00163 -0.0032,-7.50244 -0.0016,-2.54339 -0.0061,-5.08693 0.0083,-7.63021 0.02386,-2.84014 0.06562,-5.68436 0.239691,-8.5054 0.173,-2.5715 0.494442,-5.07547 0.590524,-7.66634 0.184387,-2.56017 0.467902,-5.09107 0.449869,-7.69482 0.117482,-3.08097 0.336867,-6.13636 0.720365,-9.12908 0.363219,-3.11414 0.562772,-6.30501 0.749412,-9.48201 0.203284,-2.48892 0.371143,-4.94699 0.281504,-7.48271 0,-2.50349 0,-5.00697 0,-7.51046 0,-2.50348 0,-5.00697 0,-7.51045 0,-2.50349 0,-5.00698 0,-7.51046 0,-2.50349 0,-5.00697 -5e-6,-7.51046 0,-2.50347 0,-5.00695 -1.2e-5,-7.51042 -10e-6,-2.50351 -3.2e-5,-5.007 0,-7.51051 5.9e-5,-2.50415 1.34e-4,-5.0083 0.001,-7.51245 10e-4,-2.50539 0.0026,-5.01078 0.0032,-7.51617 -3.94e-4,-2.46854 0.0021,-4.93798 -0.04152,-7.40526 -0.05316,-2.25552 -0.141544,-4.50999 -0.386769,-6.71719 -0.240448,-2.58051 -0.182327,-5.17354 -0.200215,-7.79322 -0.03506,-2.74915 -0.09096,-5.50108 -0.305722,-8.22045 -0.227902,-3.179 -0.354142,-6.3424 -0.279955,-9.56181 -0.0069,-2.54009 -0.0099,-5.08423 -0.110555,-7.61758 -0.107897,-2.193 -0.326054,-4.33787 -0.496908,-6.51054 -2.5e-4,-2.47078 0.0027,-4.94246 -0.04013,-7.41204 -0.05171,-2.23976 -0.135146,-4.48077 -0.385285,-6.67007 -0.234691,-2.37469 -0.201828,-4.76222 -0.284584,-7.17361 -0.128186,-2.55111 -0.364462,-5.05593 -0.735702,-7.50795 -0.25618,-2.56769 -0.723465,-4.95693 -1.173447,-7.39917 -0.351157,-2.07465 -0.619543,-4.21204 -1.030306,-6.24249 -0.450954,-1.79535 -0.884184,-3.60833 -1.284365,-5.45345 -0.578777,-2.34601 -1.129596,-4.72065 -1.879631,-6.86429 -0.685929,-1.91555 -1.323248,-3.93018 -2.303847,-5.27635 -0.820435,-1.35498 -1.753933,-2.38784 -2.561762,-3.78547 -0.828884,-1.04823 -1.685221,-2.00574 -2.479918,-3.16236 -0.779056,-1.08015 -1.742915,-1.33512 -2.561678,-2.29101 -1.043969,-0.68519 -2.082193,-1.38234 -3.128264,-2.05117 -1.035839,-0.74593 -2.096515,-1.3006 -3.173376,-1.72556 -1.139071,-0.67176 -2.28694,-1.33847 -3.382075,-2.26726 -0.961149,-0.82977 -1.968831,-1.16568 -2.971234,-1.71385 -1.238377,-0.7901 -2.519322,-1.19159 -3.762692,-1.95581 -1.521239,-0.70792 -3.059791,-0.78423 -4.61505,-0.67343 0,0 1.458682,-2.18467 1.458682,-2.18467 z"
       inkscape:connector-curvature="0" />
    <path
       style="fill:#000000;fill-opacity:1;stroke:#000000;stroke-width:3.8310771;stroke-miterlimit:4;stroke-opacity:1;stroke-dasharray:none"
       id="path3771"
       d="m 63.55419,615.17991 c -0.261597,3.14651 -0.390109,6.32946 -0.476526,9.51397 -0.03367,2.74087 -0.343612,5.42213 -0.507351,8.13699 -0.135002,2.48978 -0.154011,4.99683 -0.167529,7.49928 -0.03447,2.50711 0.06109,5.02343 -0.07075,7.51914 -0.221199,2.48443 -0.379853,4.9824 -0.4658,7.50151 -0.08814,2.47591 -0.26947,4.9885 -0.575826,7.39348 -0.393029,2.10611 -0.486726,4.3513 -0.705123,6.53966 -0.306959,2.4049 -0.460272,4.86383 -0.547089,7.33854 -0.185347,2.0889 -0.385963,4.16951 -0.724318,6.17693 -0.386561,2.01635 -0.384891,4.19867 -0.581862,6.2955 -0.291653,2.10523 -0.433875,4.26282 -0.514208,6.43983 -0.262447,2.69072 -0.453926,5.39564 -0.566413,8.13036 0.0021,2.70748 -0.273216,5.34648 -0.470597,8.00893 -0.161979,2.40226 -0.152965,4.81408 -0.399668,7.18902 -0.289087,2.47925 -0.359174,5.033 -0.414019,7.57103 -0.04697,2.92565 -0.04328,5.85347 -0.04269,8.78035 0.0016,2.58524 0.0038,5.17048 0.0048,7.75574 0.001,2.50205 0.001,5.00409 0.001,7.50614 2.8e-5,2.50211 0,5.00424 -1.5e-5,7.50635 0.001,2.69306 -0.0021,5.38611 -0.0021,8.07917 0.001,2.95749 4.53e-4,5.91497 -0.0016,8.87246 -3e-4,3.30593 -5.35e-4,6.61185 10e-4,9.91777 0.0021,3.35018 -0.0027,6.70035 -0.0027,10.05054 -3.7e-5,3.40014 0.0016,6.80029 0.0032,10.20043 -5.34e-4,3.26421 -0.001,6.52843 -0.0021,9.79264 -4.97e-4,3.14342 0.0038,6.28683 0.0021,9.43025 -0.001,2.93096 0.0021,5.86191 3.31e-4,8.79287 -0.0092,3.33181 0.274842,6.6413 0.601858,9.89428 0.39431,3.12433 0.413186,6.36162 0.638467,9.53561 0.278243,3.09146 0.443829,6.21308 0.682981,9.31758 0.225213,3.28891 0.660439,6.48883 0.905755,9.77222 0.0781,2.43405 0.232742,4.80256 0.481639,7.18412 0.154694,2.36709 0.487467,4.65404 0.676069,7.00835 0.197025,2.84562 0.238262,5.72216 0.259202,8.59202 0.01414,2.87627 0.01115,5.75274 0.0098,8.62911 -0.0016,2.55142 -0.0021,5.10285 -0.0026,7.65427 -3.31e-4,2.50069 -3.21e-4,5.00137 -3.31e-4,7.50207 5e-6,2.50256 1.6e-5,5.00511 2.1e-5,7.50768 5e-6,2.50346 10e-6,5.00694 10e-6,7.51041 0,2.5035 0,5.00699 0,7.51049 0.07558,2.3703 -0.03879,4.65913 -0.265248,6.9749 -0.225591,2.25144 -0.282143,4.54958 -0.320231,6.84065 0.0032,2.56443 -0.01345,5.09301 -0.19426,7.63144 -0.195301,3.55889 -0.441582,7.0994 -0.673151,10.6495 -0.235315,3.64517 -0.312745,7.31964 -0.355491,10.99221 0.01009,2.78315 -0.293068,5.51426 -0.453702,8.26792 -0.131863,2.48699 -0.151892,4.99032 -0.165815,7.48941 -0.154491,2.16977 -0.383029,4.30377 -0.495536,6.48787 -0.102053,2.4147 -0.107801,4.8406 -0.115107,7.2628 -0.03955,2.4592 0.07652,4.9358 -0.06543,7.382 -0.259303,2.1104 -0.310935,4.2989 -0.532775,6.4184 -0.314383,2.0762 -0.461814,4.2157 -0.545663,6.3763 -0.0444,4.4088 -0.942386,4.4681 -2.844116,6.4423 -0.954704,0.09 -1.833303,-0.4263 -2.684783,-1.2674 -0.984409,-1.0052 -2.065187,-1.4114 -3.0996,-2.1333 -0.996249,-0.4577 -1.969755,-1.0226 -2.954712,-1.5757 -1.049398,-0.9394 -2.153434,-1.4372 -3.283302,-1.724 -0.793081,-0.1371 -0.395384,-0.08 -1.1931,-0.17 0,0 1.459008,-2.1586 1.459008,-2.1586 l 0,0 c 0.802532,0.1018 0.402294,0.038 1.200718,0.1907 1.135548,0.3138 2.238565,0.861 3.301301,1.7621 0.984771,0.569 1.968713,1.0806 2.959695,1.5939 1.038958,0.7229 2.126639,1.1334 3.110793,2.1667 0.830328,0.7716 1.696391,1.2836 2.617736,1.0539 -0.396147,0.5375 -0.800016,1.0516 -1.188442,1.6126 -0.118722,0.1715 0.26331,-0.2603 0.378213,-0.4425 0.559809,-0.8876 0.602169,-2.3561 0.612836,-3.6939 0.07738,-2.1743 0.206336,-4.3389 0.531392,-6.4243 0.252531,-2.0951 0.256357,-4.2972 0.541495,-6.3883 0.17626,-2.424 0.02876,-4.8981 0.07816,-7.3422 0.0062,-2.4319 0.01057,-4.8671 0.105372,-7.2926 0.104651,-2.1782 0.310834,-4.3106 0.504907,-6.4597 0.01265,-2.51097 0.03036,-5.02602 0.157885,-7.52567 0.156124,-2.74851 0.466008,-5.46935 0.467555,-8.24363 0.04531,-3.68664 0.120508,-7.37585 0.354863,-11.03556 0.224705,-3.54892 0.478394,-7.08309 0.660199,-10.64213 0.179925,-2.52612 0.214405,-5.03568 0.19951,-7.59008 0.03479,-2.30731 0.08473,-4.62294 0.304131,-6.89319 0.225891,-2.29839 0.375248,-4.55355 0.284727,-6.91232 0,-2.50351 0,-5.00701 0,-7.51051 -5e-6,-2.50347 -5e-6,-5.00694 -1e-5,-7.51041 -1.1e-5,-2.50255 -2.7e-5,-5.0051 -4.3e-5,-7.50765 -10e-6,-2.50075 -4.8e-5,-5.00152 3.52e-4,-7.50226 5.34e-4,-2.55213 0.0016,-5.10423 0.0043,-7.65634 0.0027,-2.87542 0.0086,-5.75094 -0.0056,-8.62626 -0.02311,-2.85229 -0.05505,-5.71227 -0.249015,-8.54146 -0.187786,-2.3486 -0.52651,-4.62452 -0.677697,-6.98636 -0.248668,-2.39163 -0.414937,-4.76449 -0.480065,-7.21162 -0.237017,-3.28746 -0.668684,-6.48901 -0.897574,-9.77737 -0.24452,-3.10308 -0.416517,-6.22152 -0.68979,-9.31497 -0.232301,-3.16626 -0.237642,-6.40148 -0.629102,-9.52226 -0.328984,-3.27367 -0.627852,-6.60231 -0.624036,-9.95534 -0.0021,-2.93118 0.0013,-5.86238 3.34e-4,-8.79356 -0.0018,-3.1449 0.0026,-6.28982 0.0021,-9.43473 -0.0014,-3.26264 -0.0016,-6.52528 -0.0022,-9.78792 0.0019,-3.40241 0.0032,-6.80481 0.0032,-10.2072 1.66e-4,-3.34828 -0.0051,-6.69654 -0.0027,-10.04479 0.0015,-3.3065 0.0011,-6.61299 8.01e-4,-9.91948 -0.0022,-2.95627 -0.003,-5.91253 -0.0018,-8.86878 -6.3e-5,-2.6917 -0.003,-5.38339 -0.002,-8.07508 7e-6,-2.50211 2.5e-5,-5.0042 -8e-6,-7.50631 -5.7e-5,-2.50202 -1.31e-4,-5.00405 -7.47e-4,-7.50607 -7.47e-4,-2.58616 -0.0022,-5.1723 -0.0026,-7.75843 7.99e-4,-2.93141 5.33e-4,-5.86333 0.03846,-8.7939 0.05226,-2.5528 0.113738,-5.12614 0.395071,-7.62341 0.2603,-2.36824 0.261752,-4.76562 0.409082,-7.17101 0.193299,-2.65818 0.486052,-5.28642 0.478715,-7.98956 0.108563,-2.73078 0.278082,-5.44275 0.56218,-8.12173 0.07421,-2.18933 0.199062,-4.3689 0.501577,-6.48186 0.227672,-2.09576 0.183811,-4.30612 0.57026,-6.33848 0.341962,-1.98523 0.546532,-4.02731 0.750313,-6.09254 0.08196,-2.48863 0.223942,-4.96661 0.534829,-7.3841 0.234958,-2.18527 0.291319,-4.45458 0.699531,-6.55892 0.335974,-2.36241 0.489675,-4.88373 0.593858,-7.32818 0.08161,-2.52466 0.229689,-5.0319 0.461942,-7.518 0.15416,-2.47923 0.03944,-4.98866 0.07918,-7.48344 0.01222,-2.51466 0.02903,-5.03382 0.159251,-7.53681 0.158707,-2.71245 0.473453,-5.3861 0.517438,-8.12006 0.08624,-3.19133 0.218398,-6.37783 0.456024,-9.53822 0,0 1.619581,-1.63223 1.619581,-1.63223 z"
       inkscape:connector-curvature="0" />
    <path
       style="fill:#000000;fill-opacity:1;stroke:#000000;stroke-width:3.8310771;stroke-miterlimit:4;stroke-opacity:1;stroke-dasharray:none"
       id="path3773"
       d="m 34.227932,1012.0596 c 1.53858,0.015 3.077188,0.01 4.615779,0.01 1.222945,-0.2447 2.396714,0.3578 3.589998,0.7742 1.126363,0.3589 2.267487,0.4158 3.404822,0.46 0.76589,-0.1214 1.581028,0.2998 2.332863,-0.1488 0.148437,-0.089 0.558045,-0.5466 0.422095,-0.3952 -0.398935,0.4444 -0.807793,0.8499 -1.211689,1.2747 0.661795,-1.6915 0.64545,-3.9739 0.683335,-6.0443 0.02221,-2.5052 0.0047,-5.0112 -0.0031,-7.5166 0.02296,-2.23503 -0.294912,-4.40015 -0.446391,-6.60149 -0.141367,-2.38547 -0.156855,-4.79162 -0.170802,-7.19149 -0.0089,-2.50162 -0.0053,-5.00331 -0.0039,-7.50497 0.01288,-2.52299 -0.282934,-4.9984 -0.432529,-7.49521 -0.161975,-2.76776 -0.44559,-5.49475 -0.604448,-8.26766 -0.138261,-2.65942 -0.161651,-5.33527 -0.175698,-8.00723 -0.160778,-2.51032 -0.379721,-4.99692 -0.495251,-7.52002 -0.134872,-2.6335 -0.03291,-5.29104 -0.180933,-7.91785 -0.225208,-2.3822 -0.384287,-4.7789 -0.468516,-7.19896 -0.23206,-2.11578 -0.453182,-4.22016 -0.566915,-6.37925 -0.102935,-2.42531 -0.106661,-4.86213 -0.112947,-7.29481 0.103075,-2.29407 -0.168378,-4.49414 -0.358392,-6.73015 -0.182059,-2.33408 -0.212986,-4.70089 -0.236568,-7.05961 -0.109503,-2.59454 0.15513,-5.12395 0.347618,-7.66921 0.324442,-2.42877 0.591428,-4.86888 0.735187,-7.37142 0.09456,-2.51482 0.09365,-5.01273 0.295205,-7.50447 0.234916,-2.47185 0.337906,-4.97919 0.396167,-7.49118 0.08349,-2.77352 0.245071,-5.58733 0.546893,-8.30017 0.346231,-2.23635 0.534755,-4.53308 0.633916,-6.86525 -0.01454,-2.54939 0.24748,-5.03041 0.438489,-7.53396 0.189482,-2.73405 0.212802,-5.50152 0.235402,-8.25836 0.153828,-2.62274 0.383122,-5.21822 0.502834,-7.85044 0.273947,-2.78886 0.484137,-5.59349 0.608208,-8.42717 0.102491,-2.94789 0.108956,-5.90505 0.11475,-8.85901 0.0018,-2.58248 -0.0017,-5.16495 -0.0033,-7.74743 -0.0015,-2.50146 -0.0018,-5.00293 -0.0021,-7.50439 0.0017,-2.80499 0.002,-5.60999 0.0014,-8.41498 9.41e-4,-2.91998 9.41e-4,-5.83995 1.6e-4,-8.75993 -8.54e-4,-2.61963 -0.0013,-5.23926 -0.0015,-7.85889 -1.47e-4,-2.50431 -1.36e-4,-5.00861 -1.35e-4,-7.51293 5e-6,-2.50172 1.1e-5,-5.00345 1.4e-5,-7.50516 3e-6,-2.50337 3e-6,-5.00674 3e-6,-7.5101 0,-2.5035 0,-5.007 0,-7.51051 0.07627,-2.77614 -0.184476,-5.50607 -0.3586,-8.24519 -0.166331,-2.65604 -0.213165,-5.33326 -0.239554,-8.00792 -0.01733,-2.51213 -0.01367,-5.02461 -0.01239,-7.53691 0.0017,-2.50144 0.0025,-5.00287 0.003,-7.50431 3.77e-4,-2.50322 3.72e-4,-5.00643 3.83e-4,-7.50965 -2e-6,-2.50351 -1.6e-5,-5.007 -2.3e-5,-7.5105 -0.02271,-2.53282 -0.0295,-5.03403 0.166487,-7.53773 0.272997,-3.18028 0.350667,-6.40758 0.404828,-9.62906 0.183473,-3.31711 0.4085,-6.62063 0.53652,-9.95 0.0916,-2.64576 0.103084,-5.29903 0.109932,-7.95024 -0.0523,-1.51677 0.121724,-2.99372 0.26527,-4.46749 0,0 1.619455,-1.61829 1.619455,-1.61829 l 0,0 c -0.142376,1.45463 -0.338273,2.90834 -0.284558,4.40722 -0.0065,2.66082 -0.01731,5.3237 -0.10839,7.97913 -0.127237,3.32673 -0.345965,6.6295 -0.545005,9.94026 -0.0521,3.23131 -0.120107,6.46952 -0.385272,9.66247 -0.203719,2.48616 -0.208969,4.96374 -0.179298,7.48322 6e-6,2.50351 2e-5,5.007 2.4e-5,7.51051 -7e-6,2.50326 4e-6,5.00651 -3.43e-4,7.50976 -4.43e-4,2.50151 -0.0013,5.00302 -0.0028,7.50453 -0.0015,2.51022 -0.0051,5.02058 0.01024,7.53067 0.02383,2.66329 0.06586,5.32953 0.227258,7.97528 0.172391,2.7531 0.447932,5.49421 0.37294,8.28374 0,2.5035 0,5.007 0,7.51051 10e-7,2.50337 10e-7,5.00672 3e-6,7.51009 4e-6,2.50171 9e-6,5.00342 1.5e-5,7.50513 0,2.5044 1e-5,5.00881 -1.36e-4,7.51322 -2.02e-4,2.62063 -5.87e-4,5.24125 -0.0015,7.86189 -8.54e-4,2.91989 -8.01e-4,5.83978 1.1e-4,8.75965 -6.4e-4,2.80398 -4.3e-4,5.60795 0.0015,8.41191 1.85e-4,2.50141 4.72e-4,5.0028 0.0018,7.50419 0.0015,2.58391 0.0044,5.16782 0.0015,7.75173 -0.0068,2.96334 -0.01619,5.92895 -0.108427,8.88731 -0.120295,2.83238 -0.314926,5.64437 -0.605414,8.42552 -0.114669,2.62693 -0.33203,5.21846 -0.511172,7.82808 -0.02217,2.77003 -0.04272,5.55098 -0.22126,8.30071 -0.186421,2.49809 -0.470313,4.96548 -0.443271,7.50984 -0.09233,2.3489 -0.263271,4.67211 -0.623841,6.9181 -0.329755,2.67531 -0.466096,5.49003 -0.561293,8.23611 -0.05495,2.52489 -0.150787,5.04731 -0.386731,7.53198 -0.20899,2.48596 -0.218826,4.97197 -0.299099,7.48624 -0.136167,2.50776 -0.383428,4.96319 -0.731802,7.38398 -0.188105,2.52857 -0.475107,5.03373 -0.361461,7.61168 0.02205,2.34061 0.04995,4.68938 0.22657,7.00667 0.18946,2.25592 0.474305,4.47405 0.369292,6.78837 0.0056,2.42072 0.0084,4.84533 0.106588,7.25934 0.110243,2.16488 0.328061,4.27521 0.568602,6.39258 0.08054,2.41548 0.234119,4.80898 0.462378,7.18516 0.156639,2.62806 0.05647,5.288 0.184345,7.92524 0.111984,2.53378 0.325446,5.03139 0.501649,7.54752 0.01206,2.66115 0.03162,5.3262 0.163806,7.97588 0.154315,2.77383 0.440774,5.49726 0.607429,8.26212 0.146911,2.51224 0.446772,5.00006 0.442795,7.53538 -0.0015,2.50014 -0.005,5.00034 0.0031,7.50046 0.0129,2.38475 0.02646,4.77559 0.162557,7.14696 0.149282,2.21885 0.472542,4.39799 0.454641,6.64819 0.0077,2.50962 0.02454,5.01952 0.0074,7.52912 -0.03281,2.1526 -0.02382,4.457 -0.614551,6.3239 -2.280892,2.93 -2.20771,3.0486 -4.670912,2.83 -1.143722,-0.051 -2.291194,-0.1204 -3.422493,-0.5023 -1.18376,-0.426 -2.351942,-0.9605 -3.564869,-0.7337 -1.542191,0 -3.084399,-0.01 -4.626579,0.01 0,0 1.458681,-2.1846 1.458681,-2.1846 z"
       inkscape:connector-curvature="0" />
    <path
       style="fill:#000000;fill-opacity:1;stroke:#000000;stroke-width:3.8310771;stroke-miterlimit:4;stroke-opacity:1;stroke-dasharray:none"
       id="path3777"
       d="m 16.256376,309.72704 c -0.07746,3.55094 0.200098,7.06848 0.350896,10.59651 0.12251,4.95434 0.365316,9.8921 0.663359,14.81402 0.397454,6.28674 0.593047,12.61382 0.880713,18.92359 0.363817,6.79996 0.86095,13.56448 1.247087,20.35799 0.232047,6.95948 0.844341,13.82277 1.43828,20.67915 0.630154,6.59668 1.085514,13.25543 1.658805,19.87285 0.574342,6.54304 1.083469,13.10543 1.556898,19.6829 0.530148,6.81312 1.335493,13.51057 1.857228,20.32661 0.370651,7.01855 1.036415,13.94546 1.606473,20.90054 0.703115,7.61915 1.122129,15.33144 1.656008,23.0044 0.491211,7.43376 1.174996,14.80476 1.659135,22.24021 0.358133,7.02867 0.615724,14.07887 1.006397,21.10071 0.281324,6.3325 0.795731,12.60496 1.087566,18.93386 0.230293,5.2016 0.286463,10.42437 0.320747,15.64397 -0.09109,3.83068 0.161871,7.61422 0.371916,11.40741 0.132188,2.33273 0.188297,4.67822 0.223722,7.02424 0,0 -1.596593,1.6893 -1.596593,1.6893 l 0,0 c -0.03217,-2.33885 -0.08346,-4.67752 -0.210592,-7.00402 -0.204939,-3.80862 -0.464809,-7.60652 -0.369434,-11.45169 -0.02342,-5.21576 -0.07725,-10.43484 -0.298083,-15.63374 -0.294572,-6.32776 -0.794815,-12.60325 -1.080059,-18.93402 -0.393802,-7.02071 -0.645099,-14.07197 -0.99923,-21.101 -0.481108,-7.43669 -1.168884,-14.80677 -1.652838,-22.24306 -0.536395,-7.66754 -0.954702,-15.37557 -1.661201,-22.98857 -0.573168,-6.95496 -1.242244,-13.88243 -1.608527,-20.90299 -0.520619,-6.81639 -1.32745,-13.51342 -1.862099,-20.32502 -0.472487,-6.57394 -0.980456,-13.13284 -1.555983,-19.67163 -0.576628,-6.61712 -1.019604,-13.28088 -1.656467,-19.87595 -0.589311,-6.86422 -1.210026,-13.73189 -1.443823,-20.69739 -0.385129,-6.79625 -0.875202,-13.56524 -1.248818,-20.36512 -0.291561,-6.30285 -0.486475,-12.62398 -0.887086,-18.90357 -0.30933,-4.9192 -0.555622,-9.85721 -0.680263,-14.81143 -0.153242,-3.53121 -0.435371,-7.04737 -0.380644,-10.60168 0,0 1.60651,-1.68738 1.60651,-1.68738 z"
       inkscape:connector-curvature="0" />
    <path
       style="fill:#000000;fill-opacity:1;stroke:#000000;stroke-width:3.8310771;stroke-miterlimit:4;stroke-opacity:1;stroke-dasharray:none"
       id="path3779"
       d="m 41.760023,323.49621 c 0.06743,3.21229 -0.06728,6.37728 -0.275626,9.55487 -0.05148,1.44501 -0.228839,2.84818 -0.389753,4.25232 0,0 -1.615914,1.60006 -1.615914,1.60006 l 0,0 c 0.163228,-1.39435 0.352683,-2.78418 0.400437,-4.22254 0.211363,-3.15835 0.370145,-6.30137 0.274345,-9.49734 0,0 1.606511,-1.68737 1.606511,-1.68737 z"
       inkscape:connector-curvature="0" />
    <path
       style="fill:#000000;fill-opacity:1;stroke:#000000;stroke-width:3.8310771;stroke-miterlimit:4;stroke-opacity:1;stroke-dasharray:none"
       id="path3781"
       d="m 50.392484,403.55544 c 0.333317,2.57342 0.688092,5.13277 1.002294,7.71678 0,0 -1.56344,1.7427 -1.56344,1.7427 l 0,0 c -0.310159,-2.57318 -0.66184,-5.11964 -1.017316,-7.66745 0,0 1.578462,-1.79203 1.578462,-1.79203 z"
       inkscape:connector-curvature="0" />
    <path
       style="fill:#000000;fill-opacity:1;stroke:#000000;stroke-width:3.8310771;stroke-miterlimit:4;stroke-opacity:1;stroke-dasharray:none"
       id="path3783"
       d="m 52.690156,479.9641 c -0.03082,1.57184 -0.0022,3.12633 0.06163,4.69189 0,0 -1.58451,1.7008 -1.58451,1.7008 l 0,0 c -0.07094,-1.57017 -0.103213,-3.1273 -0.08363,-4.70533 0,0 1.60651,-1.68736 1.60651,-1.68736 z"
       inkscape:connector-curvature="0" />
    <path
       style="fill:#000000;fill-opacity:1;stroke:#000000;stroke-width:3.8310771;stroke-miterlimit:4;stroke-opacity:1;stroke-dasharray:none"
       id="path3785"
       d="m 49.521031,626.47217 c -0.394923,2.99317 -0.795767,5.97497 -1.213254,8.95624 -0.154105,1.25306 -0.264077,2.51905 -0.415539,3.77347 0,0 -1.619306,1.59696 -1.619306,1.59696 l 0,0 c 0.159698,-1.25614 0.266826,-2.52346 0.415177,-3.78533 0.414318,-2.98368 0.845987,-5.94529 1.201825,-8.96226 0,0 1.631097,-1.57908 1.631097,-1.57908 z"
       inkscape:connector-curvature="0" />
    <path
       style="fill:#000000;fill-opacity:1;stroke:#000000;stroke-width:3.8310771;stroke-miterlimit:4;stroke-opacity:1;stroke-dasharray:none"
       id="path3787"
       d="m 31.304142,674.03841 c -0.688005,2.64523 -1.04675,5.53588 -1.505731,8.3569 -0.211637,1.11703 -0.364747,2.26937 -0.505518,3.43044 0,0 -1.620639,1.60269 -1.620639,1.60269 l 0,0 c 0.135725,-1.1745 0.282476,-2.3416 0.501779,-3.46489 0.481519,-2.79548 0.788451,-5.72615 1.499011,-8.34605 0,0 1.631098,-1.57909 1.631098,-1.57909 z"
       inkscape:connector-curvature="0" />
    <path
       style="fill:#000000;fill-opacity:1;stroke:#000000;stroke-width:3.8310771;stroke-miterlimit:4;stroke-opacity:1;stroke-dasharray:none"
       id="path3789"
       d="m 18.078064,800.4103 c -0.01112,3.17738 -0.0074,6.35492 -0.006,9.53235 -7.47e-4,2.61671 0.07173,5.21793 -0.16106,7.79941 -0.15723,1.43047 -0.252173,2.88151 -0.328201,4.33803 0,0 -1.610455,1.64838 -1.610455,1.64838 l 0,0 c 0.07152,-1.4659 0.159123,-2.92838 0.320362,-4.36615 0.249819,-2.56232 0.188993,-5.13922 0.184739,-7.74478 0.0015,-3.17328 0.0051,-6.34665 -0.006,-9.51986 0,0 1.606509,-1.68738 1.606509,-1.68738 z"
       inkscape:connector-curvature="0" />
    <path
       style="fill:#000000;fill-opacity:1;stroke:#000000;stroke-width:3.8310771;stroke-miterlimit:4;stroke-opacity:1;stroke-dasharray:none"
       id="path3791"
       d="m 16.123399,916.87655 c -0.341051,2.06987 -0.554622,4.20994 -0.747324,6.35476 0,0 -1.606089,1.6121 -1.606089,1.6121 l 0,0 c 0.189,-2.153 0.40032,-4.29913 0.722316,-6.38777 0,0 1.631097,-1.57909 1.631097,-1.57909 z"
       inkscape:connector-curvature="0" />
    <path
       style="fill:#000000;fill-opacity:1;stroke:#000000;stroke-width:3.8310771;stroke-miterlimit:4;stroke-opacity:1;stroke-dasharray:none"
       id="path3793"
       d="m 18.078064,993.17873 c -0.0015,0.46487 -0.003,0.92975 -0.0045,1.39462 0,0 -1.597413,1.67782 -1.597413,1.67782 l 0,0 c -0.0015,-0.4617 -0.003,-0.92337 -0.0045,-1.38506 0,0 1.60651,-1.68738 1.60651,-1.68738 z"
       inkscape:connector-curvature="0" />
    <path
       style="fill:#000000;fill-opacity:1;stroke:#000000;stroke-width:3.8310771;stroke-miterlimit:4;stroke-opacity:1;stroke-dasharray:none"
       id="path3795"
       d="m 35.080496,985.66828 c -0.01111,3.17738 -0.0074,6.3549 -0.006,9.53234 0.0015,2.70864 0.0021,5.41728 0.0025,8.12588 0,0 -1.599531,1.6801 -1.599531,1.6801 l 0,0 c 3.67e-4,-2.7103 10e-4,-5.42072 0.0025,-8.1311 0.0015,-3.17327 0.0051,-6.34664 -0.006,-9.51985 0,0 1.60651,-1.68737 1.60651,-1.68737 z"
       inkscape:connector-curvature="0" />
    <path
       style="fill:#000000;fill-opacity:1;stroke:#000000;stroke-width:3.8310771;stroke-miterlimit:4;stroke-opacity:1;stroke-dasharray:none"
       id="path3797"
       d="m 36.294955,933.09507 c 0.06743,3.21229 -0.06728,6.37728 -0.275626,9.55487 -0.197991,3.02876 -0.272764,6.08188 -0.314974,9.13413 -0.01591,1.78535 -0.0096,0.89817 -0.01896,2.66155 0,0 -1.599672,1.67566 -1.599672,1.67566 l 0,0 c 0.0094,-1.76787 0.0031,-0.87826 0.01899,-2.66883 0.04215,-3.0648 0.117773,-6.1298 0.309391,-9.17267 0.211362,-3.15835 0.370143,-6.30137 0.274344,-9.49734 0,0 1.60651,-1.68737 1.60651,-1.68737 z"
       inkscape:connector-curvature="0" />
    <path
       style="fill:#000000;fill-opacity:1;stroke:#000000;stroke-width:3.8310771;stroke-miterlimit:4;stroke-opacity:1;stroke-dasharray:none"
       id="path3799"
       d="m 35.687726,868.00443 c -0.0986,3.53705 0.159653,7.03765 0.354028,10.5401 0.108918,1.9192 0.16469,3.84765 0.207949,5.77696 0,0 -1.594565,1.69326 -1.594565,1.69326 l 0,0 c -0.03986,-1.92373 -0.09151,-3.84683 -0.19641,-5.76107 -0.189487,-3.51155 -0.447521,-7.01731 -0.377513,-10.56187 0,0 1.606511,-1.68738 1.606511,-1.68738 z"
       inkscape:connector-curvature="0" />
    <path
       style="fill:#000000;fill-opacity:1;stroke:#000000;stroke-width:3.8310771;stroke-miterlimit:4;stroke-opacity:1;stroke-dasharray:none"
       id="path3801"
       d="m 38.116643,821.68994 c -0.01112,3.17739 -0.0074,6.3549 -0.006,9.53234 0.04517,2.31523 -0.197118,4.59504 -0.357842,6.87444 0,0 -1.610471,1.63192 -1.610471,1.63192 l 0,0 c 0.158178,-2.26665 0.411559,-4.53054 0.373697,-6.83148 0.0015,-3.17327 0.0051,-6.34663 -0.006,-9.51984 0,0 1.606509,-1.68738 1.606509,-1.68738 z"
       inkscape:connector-curvature="0" />
    <path
       style="fill:#000000;fill-opacity:1;stroke:#000000;stroke-width:3.8310771;stroke-miterlimit:4;stroke-opacity:1;stroke-dasharray:none"
       id="path3803"
       d="m 35.080496,756.5993 c 0.20403,3.10774 0.270839,6.26953 0.557146,9.35029 0.296691,2.87304 0.471648,5.79315 0.920689,8.58844 0.444165,2.34391 0.682976,4.8247 1.195401,7.11262 0.378247,1.60349 0.646148,3.29088 0.984601,4.93038 0,0 -1.570513,1.81691 -1.570513,1.81691 l 0,0 c -0.336969,-1.63748 -0.604296,-3.32063 -0.978929,-4.924 -0.514813,-2.30262 -0.76121,-4.79082 -1.200161,-7.15458 -0.452631,-2.80996 -0.638075,-5.73967 -0.932259,-8.63025 -0.290177,-3.10008 -0.338182,-6.28357 -0.582486,-9.40244 0,0 1.606511,-1.68737 1.606511,-1.68737 z"
       inkscape:connector-curvature="0" />
    <path
       style="fill:#000000;fill-opacity:1;stroke:#000000;stroke-width:3.8310771;stroke-miterlimit:4;stroke-opacity:1;stroke-dasharray:none"
       id="path3805"
       d="m 37.508028,717.94646 c 0.02087,0.5797 0.04174,1.15939 0.06261,1.7391 0,0 -1.583708,1.69875 -1.583708,1.69875 l 0,0 c -0.02755,-0.58446 -0.0551,-1.16893 -0.08265,-1.75339 0,0 1.603738,-1.68446 1.603738,-1.68446 z"
       inkscape:connector-curvature="0" />
    <path
       style="fill:#000000;fill-opacity:1;stroke:#000000;stroke-width:3.11662769;stroke-miterlimit:4;stroke-opacity:1;stroke-dasharray:none"
       id="path3807"
       d="m 22.67549,854.16896 c -1.020304,1.37484 -1.91959,2.94694 -2.651189,4.6305 -0.567557,1.45674 -0.670828,3.08646 -0.73149,4.70269 -0.114173,1.54922 0.02287,3.03627 0.253508,4.54627 0.09077,1.42684 0.447751,2.72261 0.852312,4.02692 0.506138,1.14863 0.811863,2.39632 1.646915,3.17168 0.993894,0.66727 2.05604,0.62486 3.119997,0.40758 0.172768,-0.0818 0.66658,-0.39129 0.518305,-0.24528 -0.344651,0.33938 -0.722313,0.62512 -1.118248,0.83606 -0.165219,0.0881 0.285235,-0.29021 0.411822,-0.45971 0.374442,-0.50138 0.693442,-1.12386 1.000394,-1.70118 0.466033,-1.20409 0.883377,-2.46332 1.148896,-3.77995 0.400645,-1.26101 0.642872,-2.56432 0.772043,-3.92305 0.183827,-1.49484 0.06473,-2.93166 -0.148329,-4.39888 -0.15324,-1.35784 -0.566977,-2.64715 -1.089144,-3.81354 -0.566123,-1.1757 -1.191747,-2.2929 -1.755719,-3.47512 -0.704042,-1.09075 -1.131182,-2.40946 -2.0418,-3.21285 -0.914969,-0.53135 -1.968174,-0.85885 -2.90638,-0.3006 -0.130315,0.0917 -0.520421,0.36917 -0.390944,0.27525 1.946174,-1.41188 1.307401,-1.18836 0.925227,-0.42825 -0.279972,0.55683 -0.368344,1.19867 -0.465414,1.84502 -0.02239,0.24661 -0.04478,0.49325 -0.06718,0.73986 0,0 -1.611427,1.08827 -1.611427,1.08827 l 0,0 c 0.02009,-0.25179 0.04015,-0.5036 0.06024,-0.75539 0.332552,-2.53186 0.996122,-3.16239 2.969253,-4.2801 1.000788,-0.42476 2.072428,-0.11926 3.003578,0.49134 0.908602,0.85569 1.367797,2.174 2.076039,3.3001 0.567774,1.18149 1.198131,2.29796 1.760865,3.48003 0.530321,1.1918 0.963349,2.50248 1.120056,3.88861 0.217731,1.49037 0.355138,2.94833 0.173435,4.46944 -0.118658,1.36744 -0.327112,2.69748 -0.760041,3.95198 -0.251087,1.34874 -0.683249,2.61103 -1.122924,3.86026 -0.964151,1.90347 -2.13266,3.48743 -3.900873,4.0155 -1.097367,0.19643 -2.200758,0.17998 -3.202067,-0.55534 -0.839682,-0.83811 -1.182692,-2.09294 -1.695071,-3.29104 -0.410466,-1.31769 -0.782751,-2.6239 -0.870128,-4.0683 -0.234006,-1.5294 -0.387309,-3.03314 -0.271468,-4.60372 0.05495,-1.64589 0.147005,-3.30958 0.696823,-4.80967 0.71039,-1.70581 1.621378,-3.28089 2.623361,-4.68353 0,0 1.666767,-0.94186 1.666767,-0.94186 z"
       inkscape:connector-curvature="0" />
    <path
       style="fill:#000000;fill-opacity:1;stroke:#000000;stroke-width:3.03809643;stroke-miterlimit:4;stroke-opacity:1;stroke-dasharray:none"
       id="path3809"
       d="m 26.98978,634.19523 c -0.703908,1.59334 -1.411862,3.19408 -2.189584,4.72967 -0.684833,1.51688 -1.285569,3.12343 -1.810098,4.74789 -0.593658,1.52464 -0.952375,3.13871 -1.142768,4.82105 -0.140328,1.35132 -0.281638,2.66773 0.704351,3.46446 1.018333,0.50402 2.133599,0.46596 3.207733,0.4813 1.124283,0.14391 2.194642,-0.2651 3.288239,-0.51556 1.089376,-0.18978 2.170904,-0.21372 3.242551,-0.54095 -0.290628,0.59528 1.969688,-1.10403 1.361476,-0.60233 -2.107257,1.7382 -1.019691,0.77897 -0.625227,0.009 0.488663,-1.20423 0.866841,-2.49298 1.221024,-3.77527 0.342028,-1.38823 0.392476,-2.84987 0.432502,-4.29463 0.109166,-1.58427 -0.04587,-3.12465 -0.25001,-4.68076 -0.325376,-1.28286 -0.600038,-2.57994 -0.98144,-3.83643 -0.510019,-0.99388 -0.821564,-2.11153 -1.200475,-3.19139 -0.414654,-1.07867 -0.746888,-2.22576 -1.719033,-2.55099 -0.61087,0.1261 -1.896647,0.81397 0.601264,-0.68383 0.131536,-0.0789 -0.227532,0.23277 -0.340844,0.34991 -0.485189,0.50154 -0.276539,0.27 -0.73169,0.82432 -0.73261,0.8443 -1.438099,1.72549 -2.017117,2.75388 -0.590655,1.01611 -1.264543,1.93347 -1.670367,3.10169 -0.190357,0.63657 -0.252794,1.31035 -0.319666,1.98153 0,0 -1.611932,1.0329 -1.611932,1.0329 l 0,0 c 0.06131,-0.68852 0.118433,-1.3799 0.295263,-2.03936 0.377093,-1.20599 1.036432,-2.13915 1.656444,-3.14752 0.557174,-1.05806 1.259627,-1.95469 2.002849,-2.79279 0.960873,-1.2543 2.21239,-2.70573 3.627709,-2.69967 0.979918,0.44819 1.365835,1.57391 1.796411,2.72154 0.379989,1.08401 0.693954,2.20371 1.204112,3.20266 0.385671,1.27212 0.662362,2.58437 0.994149,3.88215 0.20643,1.57016 0.379874,3.12209 0.267718,4.72198 -0.03617,1.46343 -0.08054,2.94331 -0.406006,4.3564 -0.342817,1.29853 -0.746249,2.58283 -1.2023,3.81795 -0.751039,1.74881 -2.380966,2.49546 -3.816982,2.95185 -1.07301,0.30495 -2.163734,0.30355 -3.2467,0.53198 -1.097095,0.26341 -2.178418,0.61663 -3.306294,0.47717 -1.09997,-0.0221 -2.248051,0.008 -3.271443,-0.58635 -1.008121,-0.91181 -0.961065,-2.22633 -0.797154,-3.69828 0.180586,-1.69948 0.518806,-3.34007 1.126439,-4.8754 0.514756,-1.64001 1.131376,-3.24836 1.794624,-4.78944 0.795554,-1.51076 1.489095,-3.12374 2.183412,-4.71353 0,0 1.64886,-0.94739 1.64886,-0.94739 z"
       inkscape:connector-curvature="0" />
    <path
       style="fill:#000000;fill-opacity:1;stroke:none"
       id="path3831"
       d="m 10.904504,1016.9643 c 0.0689,1.4512 -0.01167,2.9138 0.04042,4.3636 0.06095,0.6106 0.101659,1.2375 0.175348,1.8414 0.06232,0.6334 0.146695,1.2508 0.22589,1.8756 0.108818,0.6245 0.01874,1.2898 0.05453,1.9225 0.08827,0.4995 0.128634,1.0123 0.143138,1.5411 -0.0093,0.5636 -0.0323,1.0847 0.05549,1.6215 0.07595,0.5942 0.180136,1.1657 0.237774,1.7702 0.0541,0.7034 0.01248,1.4128 -0.0178,2.116 -0.05958,0.5113 0.03333,0.8404 0.117095,1.2962 0.06631,0.5561 0.08306,1.1161 0.150588,1.6728 0.07721,0.5384 0.02984,1.1033 0.104087,1.6387 0.04886,0.4861 0.123069,0.9406 0.202919,1.4067 0.02918,0.073 0.054,0.9325 0.113727,0.8143 0.134292,-0.2661 -0.141899,0.1042 0.07105,-0.1574 -0.0054,-0.015 -0.02517,-0.042 -0.01621,-0.047 0.06599,-0.037 0.135603,-0.037 0.203209,-0.058 0.313257,-0.099 0.622754,-0.2093 0.938491,-0.2709 0.522001,-0.099 1.034807,0.023 1.547409,0.2076 0.570578,0.2923 1.158106,0.2123 1.738337,0.2925 0.609548,0.1394 1.220358,0.2168 1.833503,0.2199 0.63626,-0.043 1.264333,0.1951 1.896027,0.3049 0.474891,0.064 0.950723,0.01 1.42553,-0.029 0.491766,-0.036 0.98395,-0.033 1.475844,-0.01 0.05899,0 0.117968,0.01 0.17695,0.01 0.151855,0.01 0.303693,0.015 0.455597,0.018 0.03845,7e-4 0.153811,0 0.115358,7e-4 0.208704,-0.014 0.405528,0 0.613001,0.09 0.121175,0.054 0.241025,0.2057 0.361962,0.2777 0.31534,0.062 0.504723,0.01 0.846816,0.037 -0.260169,0.1059 0.387393,0.065 0.290074,0.077 -0.05647,0.01 -0.114863,-0.022 -0.169664,0.01 -0.13067,0.069 -0.08529,0.2822 -0.136857,-0.1564 -0.116373,-0.9193 -0.19022,-1.8551 -0.197968,-2.8052 -0.02188,-0.2471 -0.02654,-0.5177 -0.06838,-0.7564 -0.02014,-0.1149 -0.103732,-0.303 -0.132228,-0.4045 -0.11194,-0.6152 -0.132734,-1.2887 -0.184196,-1.9375 -0.03491,-0.5776 -0.104173,-1.1555 -0.24332,-1.6636 -0.12469,-0.5414 -0.169187,-1.1537 -0.22171,-1.7414 -0.04327,-0.6048 -0.04121,-1.264 -0.173603,-1.8247 -0.167054,-0.4693 -0.16404,-1.0232 -0.210566,-1.5658 -0.07868,-0.5641 -0.100852,-1.1436 -0.104159,-1.7276 0.0066,-0.6622 0.02737,-1.3232 0.03466,-1.9855 0.0039,-0.6103 -0.0033,-1.2205 -0.0071,-1.8307 -0.0036,-0.629 -0.0018,-1.2581 -4.59e-4,-1.8871 0.01403,-0.4891 -0.112928,-0.9173 -0.166921,-1.3866 -0.01858,-0.6553 -0.159454,-1.2388 -0.265296,-1.8451 -0.08586,-0.5702 -0.08521,-1.1624 -0.150029,-1.7418 -0.03106,-0.3478 -0.01775,-0.168 -0.03898,-0.5397 -0.0041,-0.092 0.627409,-0.2101 0.631455,-0.118 l 0,0 c 0.01264,0.2757 0.0037,0.1401 0.02662,0.4066 0.06241,0.5357 0.08264,1.0766 0.149585,1.6077 0.115629,0.646 0.251822,1.2844 0.2705,1.9828 0.0587,0.5505 0.218381,1.0529 0.18434,1.6389 -0.0014,0.623 -0.0032,1.2459 -2.47e-4,1.8689 0.0034,0.6221 0.01083,1.2444 0.0082,1.8668 -0.0057,0.6529 -0.0234,1.3047 -0.03451,1.9574 -7.46e-4,0.527 0.01933,1.0453 0.09032,1.5547 0.03619,0.4741 0.03512,0.8972 0.184458,1.3039 0.129189,0.6609 0.181249,1.3612 0.207224,2.0694 0.03885,0.4676 0.05974,0.9673 0.163684,1.3925 0.168976,0.6253 0.265245,1.3203 0.305933,2.031 0.03928,0.517 0.05869,1.0468 0.112055,1.5524 0.155174,0.529 0.265207,1.0563 0.279884,1.6879 0.02126,0.8982 0.113518,1.7754 0.190563,2.6586 0.08173,1.392 -0.167434,1.7467 -0.826152,1.5147 0.09211,-0.068 0.02264,-0.01 -0.138534,5e-4 -0.225536,0.014 -0.447891,0.023 -0.669169,-0.076 -0.05089,-0.023 -0.10048,-0.057 -0.150722,-0.085 -0.0775,-0.058 -0.153783,-0.1226 -0.231853,-0.1771 -0.0253,-0.017 -0.08967,0 -0.07713,-0.045 0.01432,-0.056 0.121853,-0.01 0.09145,-0.011 -0.0022,-4e-4 -0.279151,0 -0.28311,0 -0.359055,0 -0.718106,4e-4 -1.077142,-0.01 -0.373386,-0.01 -0.746915,8e-4 -1.119973,0.039 -0.607824,0.047 -1.217281,0.1203 -1.824911,0.022 -0.617874,-0.1082 -1.234492,-0.3162 -1.855381,-0.2724 -0.622459,-0.016 -1.242109,-0.1087 -1.861603,-0.2334 -0.603098,-0.061 -1.20944,-0.059 -1.800795,-0.3545 -0.354772,-0.1398 -0.712304,-0.2547 -1.07469,-0.1921 -0.519954,0.084 -1.028042,0.3653 -1.551701,0.3253 -0.484566,-0.2882 -0.489098,-0.6233 -0.576286,-1.5249 -0.08492,-0.4912 -0.159111,-0.9784 -0.214143,-1.4878 -0.06957,-0.5509 -0.0549,-1.1021 -0.106596,-1.658 -0.06285,-0.5152 -0.09443,-1.0284 -0.133611,-1.5496 -0.108065,-0.5873 -0.217611,-1.1376 -0.152213,-1.7835 0.02457,-0.6004 0.06325,-1.2063 0.02247,-1.8076 -0.05152,-0.5565 -0.146219,-1.089 -0.214099,-1.637 -0.100064,-0.6353 -0.113976,-1.2523 -0.08381,-1.9159 -0.0082,-0.5127 -0.06628,-0.9897 -0.135956,-1.4806 -0.02705,-0.5826 0.03049,-1.175 -0.05082,-1.7491 -0.08237,-0.6371 -0.161717,-1.2718 -0.224458,-1.9185 -0.06629,-0.6651 -0.143295,-1.3171 -0.218857,-1.9791 -0.07448,-1.4827 -0.04338,-2.9815 -0.01172,-4.4683 0,-0.094 0.64216,-0.094 0.64216,0 z"
       inkscape:connector-curvature="0" />
    <path
       style="fill:#000000;fill-opacity:1;stroke:none"
       id="path3833"
       d="m 19.292136,1025.0962 c -0.54174,-0.01 -1.075348,0.1596 -1.611162,0.3042 -0.30694,0.011 -0.567123,0.1247 -0.840782,0.3902 -0.414018,0.3351 -0.857385,0.4824 -1.290774,0.674 -0.275027,0.076 -0.505429,0.3586 -0.737394,0.6482 -0.166379,0.1917 -0.230396,0.4316 -0.29864,0.7822 -0.02806,0.5578 -0.09408,1.0488 -0.249014,1.516 -0.132472,0.3735 -0.09152,0.8344 -0.07168,1.2664 0.04439,0.682 0.06594,1.3671 0.0657,2.0549 0.03589,0.4068 0.09584,0.3042 0.272578,0.451 0.226846,0.2578 0.438136,0.6465 0.687398,0.8066 0.279343,0.062 0.552138,0.209 0.811202,0.4342 0.212682,0.1976 0.388505,0.1192 0.544974,0.1 0.374733,-0.089 0.750563,-0.1102 1.127328,-0.1127 0.338032,-0.062 0.644305,0.2298 0.964475,0.3947 0.268699,0.099 0.410444,0.041 0.662564,0 0.162524,-0.019 0.330095,-0.02 0.413434,-0.3479 0.108802,-0.4332 0.242198,-0.8214 0.402274,-1.1801 0.125267,-0.3265 0.188002,-0.6032 0.192188,-1.0154 -0.02126,-0.6606 -0.06495,-1.316 -0.083,-1.9773 -0.04256,-0.3793 0.05354,-0.8286 -0.01855,-1.1957 -0.01753,-0.09 -0.06492,-0.1386 -0.0959,-0.2107 -0.124805,-0.3215 -0.283218,-0.6167 -0.454092,-0.8348 -0.239259,-0.348 -0.523452,-0.4989 -0.795812,-0.6958 -0.305938,-0.1686 -0.604919,-0.2302 -0.884293,-0.5575 -0.234149,-0.2581 -0.483396,-0.3682 -0.700092,-0.7003 -0.03227,-0.064 0.404753,-1.0046 0.437024,-0.9409 l 0,0 c 0.207621,0.2454 0.455952,0.3184 0.652925,0.6117 0.259119,0.2411 0.56544,0.1747 0.824004,0.4368 0.318915,0.2286 0.635129,0.4816 0.90469,0.9132 0.205131,0.3244 0.414228,0.6534 0.562917,1.0967 0.243097,0.7387 0.207495,1.1745 0.20963,2.0108 0.02163,0.7021 0.07554,1.3989 0.07937,2.103 -0.02326,0.658 -0.121359,1.187 -0.316421,1.7088 -0.131463,0.3047 -0.261356,0.5869 -0.343016,0.9703 -0.170509,0.6138 -0.422869,1.0445 -0.781782,1.0575 -0.386364,0.075 -0.779455,0.1443 -1.158963,-0.07 -0.276207,-0.1604 -0.540715,-0.3564 -0.833502,-0.2934 -0.212432,0 -0.521607,0.032 -0.770219,0.091 -0.370675,0.063 -0.737675,0.065 -1.083577,-0.2503 -0.266986,-0.1967 -0.552642,-0.2511 -0.81963,-0.4523 -0.243302,-0.2418 -0.474363,-0.5341 -0.704435,-0.825 -0.310383,-0.3267 -0.518477,-0.7694 -0.546771,-1.5205 -0.0016,-0.6577 -0.02882,-1.3111 -0.06744,-1.9637 -0.02539,-0.6972 -0.03626,-1.4107 0.167774,-2.0106 0.02607,-0.069 0.0663,-0.1181 0.08373,-0.1981 0.07403,-0.3393 0.04391,-0.7331 0.11154,-1.076 0.108539,-0.5622 0.242972,-1.0443 0.495417,-1.381 0.281454,-0.313 0.533422,-0.7649 0.860827,-0.8658 0.398511,-0.1989 0.804797,-0.3302 1.202872,-0.5353 0.313845,-0.2836 0.614567,-0.5599 0.964814,-0.5817 0.666467,-0.2283 1.336907,-0.4497 2.014997,-0.3083 0.04398,0.023 -0.115717,1.3054 -0.159698,1.2822 z"
       inkscape:connector-curvature="0" />
    <path
       style="fill:#000000;fill-opacity:1;stroke:none"
       id="path3835"
       d="m 18.37862,1031.3096 c 0.07272,0.2341 0.674624,1.5402 0.808088,1.2615 0.02132,-0.045 -0.0579,-0.038 -0.08685,-0.056 0.171877,-0.2111 0.315653,-0.6356 0.226672,-1.0496 -0.0084,-0.093 0.624478,-0.3355 0.632825,-0.2433 l 0,0 c 0.01386,0.1733 0.04046,0.3442 0.04159,0.5197 0.0059,0.919 -0.300921,1.6161 -0.672663,2.0141 -0.137126,0.011 -0.274726,0.059 -0.411381,0.034 -0.501826,-0.095 -0.863014,-1.1179 -1.114495,-1.8997 -0.01988,-0.084 0.556336,-0.6637 0.576218,-0.5797 z"
       inkscape:connector-curvature="0" />
    <path
       style="fill:#000000;fill-opacity:1;stroke:none"
       id="path3837"
       d="m 14.955483,1031.0843 c 0.579527,0.2792 1.197268,0.4326 1.698307,1.1366 0.04081,0.056 0.227447,0.5177 0.279919,0.5025 0.03284,0.06 -0.376658,1.0171 -0.409499,0.9575 l 0,0 c -0.09422,-0.154 -0.191306,-0.3017 -0.290217,-0.4471 -0.480181,-0.4652 -1.02494,-0.5614 -1.52287,-0.9242 -0.04203,-0.036 0.202331,-1.2608 0.24436,-1.2253 z"
       inkscape:connector-curvature="0" />
    <path
       style="fill:#000000;fill-opacity:1;stroke:none"
       id="path3839"
       d="m 22.859766,1037.8358 c 0.351186,-0.3509 0.82535,-0.7799 0.862191,-1.6882 -0.143091,-0.4888 -0.33311,-0.903 -0.52218,-1.3141 -0.0057,3e-4 -0.0116,5e-4 -0.0174,8e-4 -0.0332,-0.06 0.377322,-1.0279 0.410528,-0.968 l 0,0 c 0.03711,0.055 0.07423,0.1104 0.111326,0.1657 0.317336,0.6286 0.613054,1.3259 0.666671,2.2625 -0.01424,0.194 -0.01531,0.394 -0.0427,0.582 -0.158814,1.0889 -0.66308,1.7302 -1.147504,2.1105 -0.03948,0.047 -0.360417,-1.1044 -0.32093,-1.1512 z"
       inkscape:connector-curvature="0" />
    <path
       style="fill:#000000;fill-opacity:1;stroke:none"
       id="path3841"
       d="m 10.036259,860.52293 c 0.277145,1.25206 0.495976,2.55747 0.723933,3.85062 0.06556,0.44656 0.127227,0.8994 0.200328,1.34084 0.0031,0.019 -0.0086,-0.0453 -0.0021,-0.0603 0.0047,-0.011 0.01083,0.0187 0.01622,0.0279 0.129297,0.5384 0.197628,1.14393 0.247244,1.73571 0.103536,0.71814 0.176999,1.44179 0.186891,2.19132 0.06763,0.51911 0.06584,1.08507 0.145573,1.59453 0.123297,0.53976 0.149297,1.11617 0.14892,1.70411 0.02072,0.60288 -0.09568,1.24209 -0.03258,1.8365 0.117251,0.63407 0.175898,1.28892 0.190803,1.96436 -0.0033,0.53647 -0.0446,1.14528 0.09414,1.6315 0.166831,0.48391 0.13857,1.13342 -0.188949,1.34125 -0.135894,0.0862 -0.403262,-0.0191 -0.557444,-0.068 -0.325013,-0.21946 -0.614927,-0.62898 -0.964078,-0.64592 0.01552,0.006 0.06197,0.0112 0.04655,0.0183 -0.194468,0.0902 -0.5081619,0.12983 -0.7132603,0.17417 -0.3705689,0.066 -0.7424921,0.0123 -1.1132388,-0.0171 -0.2676694,-0.0196 -0.4780086,-0.0125 -0.7347726,-0.006 -0.024575,0.004 -0.049156,0.009 -0.073729,0.0134 -0.040751,0.0391 -0.3090969,-1.14887 -0.2683467,-1.18798 l 0,0 c 0.058808,-0.0339 0.1176168,-0.0678 0.1764253,-0.10182 0.3600716,-0.0102 0.7203376,-0.0174 1.080231,0.014 0.2690356,0.022 0.4739431,0.0509 0.7288289,0.0339 0.3628162,-0.0511 0.7175647,-0.25249 1.0834077,-0.18504 0.350758,0.11132 0.663511,0.41235 0.995894,0.65218 0.05441,0.0191 0.116285,-0.002 0.163206,0.0573 0.02351,0.03 -0.061,0.006 -0.07938,0.0497 -0.153669,0.35612 -0.06177,0.29346 -0.07676,0.69186 -0.0052,0.13891 -0.148323,-1.07587 -0.0999,-0.36374 -0.133641,-0.6575 -0.173183,-1.34297 -0.141443,-2.05313 -0.0124,-0.63054 -0.08995,-1.22515 -0.178576,-1.82718 -0.04975,-0.67805 0.0049,-1.35367 0.02244,-2.03523 0.0062,-0.48984 -0.02083,-0.93678 -0.126238,-1.3845 -0.08036,-0.60916 -0.112933,-1.247 -0.168515,-1.86774 -0.01129,-0.70034 -0.109254,-1.36394 -0.187809,-2.04196 -0.02785,-0.37118 -0.09294,-0.89756 -0.112131,-1.19129 -0.180428,-0.45917 -0.250451,-1.08261 -0.354047,-1.61983 -0.2450585,-1.29477 -0.4859498,-2.59185 -0.6984494,-3.91171 -0.012167,-0.0904 0.6085504,-0.44496 0.6207104,-0.35448 z"
       inkscape:connector-curvature="0" />
    <path
       style="fill:#000000;fill-opacity:1;stroke:none"
       id="path3843"
       d="m 7.7236755,863.56666 c 0.044486,1.48964 -0.00239,2.9805 0.077405,4.46528 0.036562,0.29605 0.033899,0.62589 0.083166,0.91727 0.01689,0.0999 0.088332,0.29109 0.1093589,0.38147 0.080943,0.4646 0.075753,1.00205 0.1971604,1.43718 0.1727509,0.50505 0.1637976,1.10321 0.2096166,1.68177 0.060064,0.52824 0.093348,1.05895 0.1653838,1.58078 0.068047,0.26803 0.065825,1.39199 0.1858221,1.49811 -0.035772,-0.101 0.059896,-0.10396 0.051424,-0.16773 -0.00512,-0.0384 -0.072599,-0.0209 -0.055046,-0.0377 0.094555,-0.0899 0.4047106,-0.16294 0.5167426,-0.21023 0.4353726,-0.30342 0.6973245,0.10901 1.0764188,0.33512 0.03876,0.0464 -0.280014,1.17654 -0.318779,1.13007 l 0,0 c -0.1032983,-0.0805 -0.2099812,-0.19496 -0.3179432,-0.24796 -0.023539,-0.0115 -0.06748,0.0295 -0.071978,-0.0195 -0.00428,-0.0465 0.090464,-0.0333 0.067651,-0.0275 -0.057562,0.0148 -0.1146664,0.0362 -0.1719996,0.0543 -0.4418111,0.17818 -0.9526761,0.5742 -1.3221237,-0.15737 -0.1673632,-0.57829 -0.1981492,-1.20714 -0.2662488,-1.85579 -0.07179,-0.56333 -0.1037901,-1.1371 -0.1702306,-1.70303 -0.036338,-0.48713 -0.023615,-0.96076 -0.1706552,-1.38399 -0.094105,-0.45775 -0.1550039,-0.93952 -0.1882487,-1.43118 -0.1223409,-0.52112 -0.2463367,-1.02494 -0.2796305,-1.61592 -0.118347,-1.53091 -0.091743,-3.07898 -0.055382,-4.62342 0,-0.0945 0.6481128,-0.0945 0.6481128,0 z"
       inkscape:connector-curvature="0" />
    <path
       style="fill:#000000;fill-opacity:1;stroke:none"
       id="path3845"
       d="m 8.7819669,855.07467 c 0.032031,1.19897 0.023343,2.40086 0.00716,3.60061 0.00771,0.27681 -0.022409,0.55865 -0.012926,0.83545 2.887e-4,0.009 0.00754,-0.0826 0.023359,-0.0456 0.018678,0.0436 0.03131,0.0967 0.046968,0.14508 0.1479542,0.60364 0.1275431,1.2952 0.1835036,1.94849 0.072909,0.69973 0.092982,1.40993 0.082033,2.12307 -0.030089,0.46064 0.082973,0.86937 0.1316442,1.31134 0.067642,0.59289 -0.014604,1.20281 0.057681,1.78934 0.045514,0.46887 0.1819121,0.83788 0.2545977,1.28953 0.077381,0.70662 0.024488,1.43159 -0.00787,2.14281 -0.043411,0.48674 0.086128,0.89296 0.147854,1.34909 0.070344,0.68472 0.031756,1.38601 0.00599,2.07624 -0.00291,0.0938 -0.6456807,0.008 -0.6427223,-0.0862 l 0,0 c 0.021299,-0.56296 0.060212,-1.13537 0.018264,-1.69753 -0.075757,-0.58011 -0.235526,-1.11776 -0.1722577,-1.7454 0.025397,-0.56315 0.073051,-1.13561 0.038755,-1.70032 -0.069736,-0.47128 -0.2383413,-0.8663 -0.2660711,-1.37284 -0.066945,-0.60475 -0.036311,-1.19643 -0.058885,-1.80947 -0.052689,-0.52757 -0.1891463,-1.02351 -0.1468063,-1.57934 0.00848,-0.64099 -0.018348,-1.27575 -0.083504,-1.904 -0.039774,-0.50989 -0.033685,-1.03339 -0.093368,-1.52945 -0.1522768,-0.48315 -0.1705187,-0.97312 -0.1626589,-1.54016 -0.016186,-1.19974 -0.024869,-2.40164 0.00716,-3.60061 0,-0.0936 0.6421592,-0.0936 0.6421592,0 z"
       inkscape:connector-curvature="0" />
    <path
       style="fill:#000000;fill-opacity:1;stroke:none"
       id="path3847"
       d="m 33.039529,402.22113 c 0.03531,1.21695 0.01764,2.4364 0.01013,3.65435 -0.0056,0.60566 -0.01477,1.21111 -0.01496,1.81691 0.0021,0.59075 0.0045,1.18149 0.0054,1.77226 -8.54e-4,0.81429 0.005,1.6285 0.01076,2.44268 0.0042,0.83402 -0.0061,1.66787 -0.01346,2.50166 8.54e-4,0.6721 0.0025,1.3445 0.0071,2.01661 0.0061,0.87802 0.0039,1.75593 -0.0026,2.6339 -0.0059,0.56064 -0.0062,1.12138 -0.005,1.6821 0.0028,0.73151 0.0083,1.46278 0.0072,2.19434 1.05e-4,0.76709 -2.05e-4,1.53412 -0.0037,2.30122 -0.0033,0.58785 -0.0033,1.17573 -0.0027,1.76361 0.0012,0.62811 0.0015,1.25623 0.0015,1.88435 -1.75e-4,0.62833 -4.81e-4,1.25663 -5.86e-4,1.88497 -4e-5,0.62264 8.1e-5,1.24529 1.38e-4,1.86794 0.0062,0.0492 0.0023,0.10946 0.01875,0.14744 0.02043,0.0475 0.01173,-0.12938 0.03062,-0.17939 0.04615,-0.12213 0.120653,-0.14612 0.215542,-0.18606 0.340309,-0.20561 0.695713,-0.2431 1.040175,-0.40103 0.355304,-0.21105 0.720076,-0.22844 1.086746,-0.18023 0.152973,-0.003 0.308615,0.0793 0.461702,0.0592 0.01784,-0.002 -0.06762,-0.0115 -0.0518,-0.0287 0.08286,-0.0899 0.182796,-0.0844 0.27323,-0.13445 0.284573,-0.14955 0.254489,-0.064 0.279019,-0.60126 -0.0044,-0.60113 -0.04319,-1.1985 -0.06106,-1.79851 -0.0079,-0.73735 -0.02807,-1.47981 0.03312,-2.20826 0.08174,-0.52101 0.173225,-1.01443 0.176024,-1.56615 -0.01938,-0.62515 -0.0502,-1.24777 -0.06185,-1.87401 -0.0074,-0.63985 0.006,-1.27959 0.01291,-1.9192 0.0062,-0.61589 0.0029,-1.23193 5.87e-4,-1.84787 -0.0027,-0.62848 -0.0027,-1.257 -0.0022,-1.88551 8.54e-4,-0.62421 0.0013,-1.24841 0.0013,-1.87262 0.04183,-0.52313 -0.05511,-0.91692 -0.133348,-1.39132 -0.09342,-0.67008 -0.06223,-1.36858 -0.03721,-2.05322 -0.04359,-0.47857 -0.125122,-0.9314 -0.159645,-1.41744 -0.02948,-0.68203 0.0064,-1.36598 0.02614,-2.04702 0.01792,-0.61226 0.01133,-1.22573 0.005,-1.83848 -0.08807,-0.59957 -0.167835,-1.19309 -0.198758,-1.81803 -0.01619,-0.65965 0.02752,-1.31637 0.04816,-1.97355 0.01494,-0.064 0.02361,-1.47331 -0.04885,-0.86059 -0.265422,-0.0737 -0.027,0.0929 -0.04991,0.10935 -0.228951,0.16545 -0.48861,0.2064 -0.723564,0.34184 -0.262525,0.24382 -0.551441,0.28033 -0.824794,0.4335 -0.26699,0.14642 -0.52697,0.33688 -0.796512,0.46351 -0.235907,0.1011 -0.474178,0.0826 -0.713555,0.0808 -0.04397,-0.0246 0.12534,-1.30637 0.169306,-1.2817 l 0,0 c 0.09529,0.005 0.191493,0.0129 0.285894,-0.0145 0.255286,-0.0809 0.494068,-0.26682 0.744777,-0.37895 0.270111,-0.20242 0.555495,-0.2264 0.820395,-0.47486 0.446726,-0.31027 0.948378,-0.57757 1.416523,-0.39714 0.07129,0.096 0.154182,0.1629 0.213869,0.28813 0.221617,0.46495 0.149142,1.18336 0.146629,1.76177 -0.01851,0.59668 -0.05736,1.19256 -0.04926,1.79118 0.03121,0.65384 0.152225,1.25747 0.199868,1.9051 0.0068,0.64243 0.01456,1.28557 -0.0027,1.92767 -0.01697,0.60948 -0.05,1.22008 -0.0357,1.83093 0.03443,0.56431 0.164695,1.07947 0.169422,1.65442 -0.02061,0.53397 -0.0576,1.08376 0.0043,1.61132 0.09534,0.57521 0.206724,1.1205 0.164611,1.7472 -2.4e-5,0.6248 -4.22e-4,1.24959 -0.0012,1.8744 -4.64e-4,0.62507 -4.16e-4,1.25014 0.0022,1.87521 0.0022,0.6269 0.005,1.25392 -0.0013,1.88078 -0.0065,0.61706 -0.01852,1.23431 -0.01108,1.85157 0.01237,0.64896 0.04715,1.29444 0.05719,1.9435 -0.0097,0.60441 -0.07192,1.17355 -0.175859,1.73932 -0.05998,0.63498 -0.03124,1.29677 -0.02839,1.94032 0.01984,0.66232 0.06435,1.3238 0.05149,1.98826 -0.04948,0.84369 -0.164087,1.48138 -0.613914,1.65445 -0.404508,0.24477 -0.750757,0.30262 -1.167794,0.1923 -0.169756,-0.0142 -0.386112,-0.0512 -0.619059,0.10529 -0.347272,0.19073 -0.703208,0.24461 -1.051196,0.43523 -0.521327,0.2364 -1.080851,0.37692 -1.176067,-1.00402 5.7e-5,-0.62266 1.77e-4,-1.24531 1.38e-4,-1.86795 -9.4e-5,-0.62832 -4.01e-4,-1.25663 -5.88e-4,-1.88495 -8e-6,-0.62813 4.04e-4,-1.25625 0.0015,-1.88436 6.95e-4,-0.58788 7.48e-4,-1.17577 -0.0026,-1.76362 -0.0033,-0.76709 -0.0038,-1.53412 -0.0037,-2.3012 -0.001,-0.73157 0.0044,-1.46283 0.0072,-2.19434 0.0013,-0.56074 8.54e-4,-1.12146 -0.005,-1.68211 -0.0065,-0.87797 -0.0086,-1.75588 -0.0026,-2.6339 0.0046,-0.6721 0.0062,-1.34451 0.0071,-2.0166 -0.0074,-0.8338 -0.01761,-1.66765 -0.01346,-2.50167 0.0057,-0.81418 0.01163,-1.62839 0.01076,-2.44268 8.54e-4,-0.59076 0.0032,-1.1815 0.0054,-1.77226 -1.83e-4,-0.60581 -0.0094,-1.21124 -0.01495,-1.81691 -0.0075,-1.21795 -0.02517,-2.43739 0.01013,-3.65435 0,-0.0936 0.642159,-0.0936 0.642159,0 z"
       inkscape:connector-curvature="0" />
    <path
       style="fill:#000000;fill-opacity:1;stroke:none"
       id="path3849"
       d="m 39.07501,405.12549 c -0.05813,1.1729 -0.13312,2.3422 -0.161076,3.52042 -0.0082,0.55487 0.03454,1.10381 0.04826,1.65704 0.0113,0.68998 -0.0018,1.38024 -0.0099,2.07003 -0.0074,0.60647 -0.0048,1.21311 -0.0024,1.81966 0.0065,0.0465 0.0027,0.10549 0.01939,0.13966 0.03191,0.0656 0.0026,-0.22362 -0.03695,-0.26794 -0.05113,-0.0572 -0.131107,0.036 -0.173026,-0.047 -0.02639,-0.0523 0.0669,-0.0623 0.09827,-0.1012 0.04323,-0.0537 0.08335,-0.11733 0.125028,-0.17599 0.281442,-0.51359 0.610177,-0.64807 0.95104,-0.87408 0.0066,-0.0581 -0.05524,0.1386 -0.07173,0.0916 -0.07394,-0.21065 -0.148942,-1.00054 -0.180983,-1.26425 -0.0872,-0.64321 -0.01526,-1.33539 -0.148939,-1.95146 -0.169279,-0.6283 -0.227615,-1.29941 -0.223428,-2.00928 -0.01638,-0.57238 0.1254,-1.18445 0.06135,-1.74891 -0.05444,-0.0881 -0.202275,-1.37012 -0.189745,-0.89942 0.06452,0.46113 -0.06608,-0.29429 0.189445,0.1693 0.02674,0.0485 -0.05767,0.0863 -0.08621,0.13033 -0.135569,0.20902 -0.275781,0.39756 -0.416122,0.59253 -0.03258,0.0654 -0.481083,-0.88441 -0.448502,-0.94978 l 0,0 c 0.367705,-0.56532 -0.06184,0.0755 0.273406,-0.37158 0.245719,-0.32772 0.350953,-0.64317 0.69189,-0.66534 0.08361,-0.005 0.15765,0.1154 0.236475,0.1731 0.05092,0.11751 0.110211,0.22164 0.152753,0.35254 0.119911,0.36898 0.120327,0.90827 0.22664,1.29294 0.04317,0.65407 -0.02014,1.29346 -0.05047,1.9466 -0.0088,0.57648 0.06323,1.08166 0.195058,1.59284 0.112017,0.67868 0.116841,1.37031 0.172755,2.07168 0.0735,0.60689 0.258861,1.40166 0.150008,2.02982 -0.02705,0.15605 -0.08703,0.27864 -0.130552,0.41796 -0.05025,0.0666 -0.09677,0.14698 -0.150745,0.19977 -0.136497,0.13347 -0.144114,0.0599 -0.281947,0.13495 -0.176448,0.0963 -0.329506,0.30838 -0.478659,0.51592 -0.456562,0.63276 -0.997751,0.97389 -1.115691,-0.51705 -0.002,-0.61683 -0.0044,-1.23373 2.89e-4,-1.85055 0.0054,-0.66724 0.01558,-1.33456 0.01103,-2.00196 -0.0084,-0.57856 -0.04398,-1.14843 -0.06351,-1.72523 -0.0037,-1.23593 0.05472,-2.47158 0.180989,-3.6808 0.0063,-0.0927 0.642762,0.0904 0.636478,0.1832 z"
       inkscape:connector-curvature="0" />
    <path
       style="fill:#000000;fill-opacity:1;stroke:none"
       id="path3851"
       d="m 38.842114,420.48306 c 0.159573,1.11144 0.37189,2.19715 0.497302,3.32877 0.06984,0.41155 -0.04548,0.81541 0.0088,1.21427 0.06892,0.53997 0.05853,1.09508 0.135032,1.63043 0.10765,0.61391 0.120651,1.25538 0.109523,1.90011 -0.02804,0.60139 -0.02963,1.20684 -0.0524,1.80861 -0.0028,0.001 -0.0057,0.003 -0.0086,0.004 -0.204496,-0.0453 -0.423261,0.0253 -0.613487,-0.13605 -0.05445,-0.0462 0.01773,-0.24005 0.02934,-0.35904 0.03918,-0.40186 0.08992,-0.78222 0.156641,-1.16815 0.127186,-0.72066 0.347301,-1.26481 0.712614,-1.46701 0.107803,-0.048 0.218756,-0.0993 0.329431,-0.1088 0.01264,-0.001 -0.03558,0.0537 -0.03548,0.0276 2.36e-4,-0.0738 0.01677,-0.14351 0.02515,-0.21527 0.06593,-0.71031 0.01242,-1.43133 0.03688,-2.14615 0.05008,-0.59842 0.131986,-1.17721 0.145159,-1.78614 0.06853,-0.51559 0.117348,-1.04443 0.190388,-1.55677 0.0076,-0.0777 0.169712,-0.84821 0.01119,-0.43703 -0.02714,0.0115 -0.05429,0.0231 -0.08143,0.0346 0.0084,0.0114 0.03494,0.0302 0.02509,0.0344 -0.230002,0.0975 -0.496721,0.11861 -0.732581,0.1853 -0.366787,0.11336 -0.737254,0.0804 -1.105676,0.0302 -0.04307,-0.0277 0.147359,-1.28326 0.190425,-1.2555 l 0,0 c 0.255148,0.0299 0.392221,0.056 0.681831,-0.0223 0.460343,-0.13548 0.938838,-0.39901 1.39311,-0.066 0.06228,0.0948 0.135011,0.16597 0.186833,0.28456 0.194553,0.44523 0.149337,1.04967 0.04365,1.54615 -0.07331,0.40887 -0.08597,0.8663 -0.164647,1.27594 -0.01544,0.61757 -0.07579,1.21452 -0.138902,1.81773 -0.03247,0.78458 0.05393,1.59086 -0.05918,2.36492 -0.118179,0.78429 -0.250335,1.15581 -0.659949,1.15616 -0.03133,0.0156 -0.06266,0.0314 -0.09399,0.0469 -0.01134,-0.0164 -0.02021,-0.0469 -0.03403,-0.0493 -0.11806,-0.0196 -0.211576,0.56546 -0.244365,0.69874 -0.239557,1.26787 0.06527,1.22213 -0.804324,1.32392 -0.01265,0.001 -0.0071,-0.0502 -0.01064,-0.0751 -0.01279,-0.61379 0.02278,-1.22611 0.0413,-1.83806 0.01237,-0.52932 0.0046,-1.04663 -0.08993,-1.5484 -0.07616,-0.55904 -0.08465,-1.11967 -0.12732,-1.68992 -0.04021,-0.40365 -0.008,-0.77611 -0.02943,-1.17485 -0.159937,-1.08791 -0.388229,-2.13262 -0.483916,-3.26005 -0.01217,-0.0904 0.60855,-0.44498 0.620709,-0.35449 z"
       inkscape:connector-curvature="0" />
    <path
       style="fill:#000000;fill-opacity:1;stroke:none"
       id="path3853"
       d="m 46.324024,413.36851 c -0.205287,1.29197 -0.50789,2.51605 -0.812741,3.71993 -0.150087,0.51783 -0.225024,1.08705 -0.292256,1.66504 -0.06508,0.55297 -0.228246,1.02948 -0.347764,1.53793 -0.123287,0.72524 -0.279046,1.42134 -0.368734,2.16905 -0.01964,0.1227 -0.03861,0.24586 -0.05891,0.3681 -0.04641,0.27943 -0.05026,0.32511 -0.135101,0.58588 -0.0297,0.0913 -0.103133,0.21048 -0.116858,0.33128 -8.8e-5,0.0305 -0.0067,0.0642 -2.64e-4,0.0918 0.0021,0.009 0.10086,-0.14831 0.107333,-0.1508 0.117166,-0.0452 0.238189,-0.0216 0.35716,-0.0369 0.41227,-0.14691 0.810485,-0.4122 1.203892,-0.69996 0.433657,-0.34533 0.886099,-0.36827 1.337327,-0.18505 0.331438,0.0845 0.668482,0.1147 1.002539,0.0969 0.290974,-0.006 0.581593,-0.0379 0.872526,-0.0486 0.123223,-0.15059 -0.03837,0.27889 -0.06038,0.23709 -0.05351,-0.1016 -0.08116,-0.25136 -0.132568,-0.35752 -0.219086,-0.49688 -0.427908,-1.00921 -0.624875,-1.54408 -0.138228,-0.32534 -0.158609,-0.81505 -0.287773,-1.14555 -0.03274,-0.0837 -0.08478,-0.12594 -0.124359,-0.19604 -0.153786,-0.36957 -0.317918,-0.71503 -0.475827,-1.07653 -0.133525,-0.47227 -0.307918,-0.88528 -0.422668,-1.37737 -0.07578,-0.35636 -0.212286,-0.57911 -0.339262,-0.84845 -0.170088,-0.54806 -0.360114,-1.03172 -0.46249,-1.65424 -0.108646,-0.4527 -0.116468,-0.95792 -0.193103,-1.4291 -0.0115,-0.0813 -0.02298,-0.1625 -0.03448,-0.24376 -0.0105,-0.0897 0.60432,-0.39574 0.614821,-0.30611 l 0,0 c 0.0097,0.0694 0.01938,0.13877 0.02906,0.20814 0.07365,0.47319 0.09176,0.96952 0.199863,1.42051 0.07011,0.455 0.240341,0.79061 0.345907,1.21073 0.171186,0.34563 0.322099,0.71567 0.426911,1.16439 0.09114,0.39243 0.253051,0.70791 0.353128,1.09245 0.148284,0.33078 0.283476,0.68166 0.440883,0.99453 0.223161,0.42778 0.335021,0.9522 0.474191,1.49854 0.198213,0.52696 0.422265,1.00926 0.62532,1.52823 0.264193,0.78324 0.411241,1.78945 -0.189341,2.0927 -0.288661,-2.2e-4 -0.576334,0.0359 -0.864326,0.0744 -0.474317,0.0166 -0.951436,0.0288 -1.418364,-0.17519 -0.265221,-0.0754 -0.448235,-0.0921 -0.747181,0.12456 -0.549391,0.44561 -1.117726,0.86418 -1.715184,0.86173 -0.504049,-0.0548 -1.039916,-0.31206 -0.892953,-1.62693 0.0953,-0.46157 0.228607,-0.6189 0.264285,-1.14318 0.09388,-0.83705 0.267959,-1.59888 0.415815,-2.39794 0.10542,-0.44118 0.251429,-0.85106 0.321413,-1.31701 0.08643,-0.64922 0.135444,-1.32493 0.29805,-1.92475 0.279068,-1.15226 0.520686,-2.34269 0.795223,-3.49943 0.01065,-0.0921 0.642749,0.21814 0.632106,0.31028 z"
       inkscape:connector-curvature="0" />
    <path
       style="fill:#000000;fill-opacity:1;stroke:none"
       id="path3855"
       d="m 23.226309,300.78472 c 0.213318,1.06286 0.448194,2.09439 0.72995,3.08583 0.02842,0.0895 0.05238,0.18572 0.08526,0.26846 0.01688,0.0425 0.04156,0.0687 0.06235,0.10302 0.03219,0.083 0.065,0.16498 0.09659,0.24894 0.107976,0.28686 0.199818,0.59361 0.307446,0.88132 0.07594,0.31567 0.211566,0.53574 0.304282,0.82591 0.06836,0.21395 0.103907,0.39855 0.189914,0.57928 0.213776,0.36312 0.367162,0.85318 0.573547,1.23051 0.03657,0.063 0.293265,0.75162 0.335006,0.61762 0.05668,-0.18194 -0.119053,-0.0754 -0.218085,-0.057 0.14909,-0.36282 0.215488,-0.8357 0.302271,-1.26852 0.170577,-0.6845 0.419879,-1.25202 0.67894,-1.79712 0.217768,-0.47937 0.445225,-0.93713 0.617378,-1.49349 0.172839,-0.49705 0.328967,-1.01715 0.510873,-1.5005 0.142949,-0.34391 0.229872,-0.75336 0.318369,-1.16051 0.01294,-0.0592 0.02752,-0.11679 0.03879,-0.17732 0.0093,-0.0498 0.01947,-0.10008 0.02274,-0.15306 0.0022,-0.0365 -0.0235,0.282 -0.03475,0.29884 -0.02573,0.0385 -0.06209,0.0283 -0.09314,0.0425 -0.324397,-0.0589 -0.649314,-0.0983 -0.974849,-0.11362 -0.4623,0.024 -0.868135,-0.33141 -1.289602,-0.65367 -0.284326,-0.15209 -0.328763,-0.08 -0.586765,-0.0152 -0.416283,0.20428 -0.78191,-0.028 -1.176766,-0.24729 -0.20685,-0.11623 -0.363564,-0.0815 -0.518753,-0.07 -0.04332,0.0275 -0.231808,-1.23537 -0.188488,-1.26285 l 0,0 c 0.336636,-0.0512 0.674796,-0.0385 1.001416,0.15452 0.05819,0.0332 0.384772,0.16965 0.42327,0.21818 0.01727,0.0218 -0.07889,0.0306 -0.05867,0.0325 0.04151,0.004 0.253325,-0.0509 0.293045,-0.0605 0.385433,-0.10751 0.777008,-0.18064 1.148286,0.11822 0.151263,0.11563 0.302332,0.25317 0.459231,0.33408 0.113505,0.0586 0.232146,0.0701 0.34488,0.13461 0.0059,0.003 -0.0078,0.0194 -0.01171,0.0291 0.448446,-5e-4 0.896818,0.0193 1.341803,0.1481 0.07335,0.0336 0.15137,0.038 0.220047,0.10079 0.337974,0.30924 0.383533,0.99947 0.226284,1.61238 -0.11845,0.46844 -0.190035,0.99521 -0.364511,1.40324 -0.177721,0.4318 -0.31869,0.92152 -0.478602,1.3809 -0.187634,0.63691 -0.429815,1.18694 -0.673745,1.73366 -0.217867,0.42876 -0.432368,0.86071 -0.592982,1.39048 -0.12714,0.62378 -0.219383,1.29614 -0.467414,1.77647 -0.126759,0.0938 -0.247149,0.23938 -0.380277,0.28138 -0.289284,0.0912 -0.498201,-0.61368 -0.673781,-0.95304 -0.203893,-0.43028 -0.390522,-0.89454 -0.595864,-1.32283 -0.183694,-0.47528 -0.348261,-0.98162 -0.532467,-1.45651 -0.09457,-0.27689 -0.17498,-0.57845 -0.277707,-0.84245 -0.228974,-0.58843 0.190689,0.53811 -0.193595,-0.43504 -0.03715,-0.0941 -0.06715,-0.19928 -0.100721,-0.29892 -0.332827,-1.03606 -0.605369,-2.13278 -0.769459,-3.33674 -0.01216,-0.0905 0.60855,-0.44497 0.62071,-0.35449 z"
       inkscape:connector-curvature="0" />
    <path
       style="fill:#000000;fill-opacity:1;stroke:none"
       id="path3857"
       d="m 27.342941,296.00126 c 0.278649,-1.23106 0.571276,-2.46069 1.024644,-3.46051 0.120822,-0.35958 0.348095,-0.40989 0.492383,-0.68584 0.198369,-0.52926 0.391096,-1.06586 0.582521,-1.60625 0.160629,-0.46522 0.41123,-0.74267 0.575456,-1.19316 0.04974,-0.39118 0.12772,-0.74873 0.23824,-1.08886 0.138274,-0.54442 0.317601,-0.98271 0.689076,-0.66197 0.111625,0.0964 0.178024,0.66558 0.212074,0.90021 0.07034,0.87038 0.176474,1.72746 0.243662,2.59927 0.02496,0.59289 0.11714,1.1553 0.149417,1.74749 0.0763,0.59336 0.133815,1.19111 0.22138,1.77773 0.169056,0.43218 0.221149,0.94058 0.293733,1.4564 0.0435,0.46637 0.111087,0.90098 0.185447,1.34852 0.129097,0.78827 -0.09247,1.52031 -0.505911,1.58658 -0.129327,0.0208 -0.259401,-0.009 -0.389102,-0.0132 -0.391033,-0.15821 -0.789759,-0.23544 -1.179865,-0.39761 -0.363901,-0.0548 -0.664507,-0.54307 -1.022603,-0.63717 -0.273454,-0.0251 -0.541688,-0.16318 -0.817081,-0.19601 -0.05588,-0.0344 -0.112375,-0.0649 -0.167651,-0.10326 -0.224737,-0.15598 -0.334309,-0.59062 -0.510772,-0.66306 -0.02321,0.002 -0.04641,0.005 -0.06963,0.007 -0.0405,-0.0398 0.232435,-1.22048 0.272935,-1.1807 l 0,0 c 0.05647,0.0408 0.112932,0.0817 0.169398,0.12251 0.172826,0.21538 0.295388,0.54268 0.508312,0.56336 0.290878,0.0634 0.576778,0.1899 0.868274,0.24319 0.348772,0.16614 0.67087,0.50383 1.026439,0.61698 0.370799,0.13274 0.745983,0.21973 1.117319,0.34761 -0.03494,0.10184 0.0028,-0.0328 0.07173,0.0902 0.03058,0.0547 0.0021,0.18351 0.031,0.24197 0.03158,0.0639 -0.01457,-0.66046 -0.01263,-0.2725 -0.07638,-0.46488 -0.141088,-0.92544 -0.190745,-1.40481 -0.01221,-0.0901 -0.0244,-0.18024 -0.03661,-0.27035 -0.0039,-0.0523 -0.005,-0.10601 -0.0118,-0.15714 -0.04857,-0.36688 -0.205846,-0.63306 -0.254579,-1.00216 -0.09547,-0.65264 -0.161343,-1.3195 -0.231893,-1.98513 -0.0284,-0.56891 -0.128244,-1.10483 -0.15536,-1.67436 -0.07731,-0.83749 -0.187019,-1.66151 -0.231384,-2.51125 -0.0094,-0.0932 -0.06156,-0.21394 -0.02807,-0.27935 0.02879,-0.0563 0.05417,0.14736 0.09379,0.15097 0.115258,0.0105 0.229259,-0.0597 0.341873,-0.11131 0.0071,-0.003 -0.0018,-0.0509 -0.0076,-0.042 -0.04574,0.0691 -0.10338,0.32859 -0.12076,0.39506 -0.02745,0.0795 -0.06807,0.13977 -0.09029,0.22591 -0.07234,0.28043 -0.0692,0.62058 -0.159002,0.88516 -0.04844,0.14058 -0.08977,0.2923 -0.143748,0.42403 -0.120832,0.29485 -0.30161,0.48424 -0.412868,0.803 -0.218214,0.59193 -0.431368,1.18757 -0.659718,1.76293 -0.09689,0.17714 -0.122532,0.24327 -0.232119,0.37373 -0.02206,0.0263 -0.04692,0.0409 -0.07039,0.0614 -0.0028,-0.017 -3.4e-5,-0.0552 -0.0086,-0.0509 -0.03237,0.0161 -0.125675,0.22644 -0.134189,0.24403 -0.406743,0.9345 -0.622342,2.14234 -0.956241,3.17962 -0.01736,0.0872 -0.615324,-0.41876 -0.59797,-0.50592 z"
       inkscape:connector-curvature="0" />
    <path
       style="fill:#000000;fill-opacity:1;stroke:none"
       id="path3859"
       d="m 18.257231,296.64323 c 0.292139,-0.86567 0.538471,-1.79769 0.855534,-2.62668 0.204443,-0.39574 0.39786,-0.81294 0.59096,-1.23218 0.25996,-0.61996 0.569346,-1.12941 0.876849,-1.6423 0.146227,-0.27024 0.304098,-0.48392 0.477436,-0.67174 0.191498,-0.29129 0.393217,-0.55489 0.569638,-0.88538 0.254315,-0.46454 0.529454,-0.88795 0.833675,-1.202 0.168494,-0.12408 0.30816,-0.34541 0.45838,-0.53823 0.201977,-0.27226 0.42424,-0.47525 0.643344,-0.68124 0.693375,-0.74442 0.813155,0.2579 0.777173,1.39539 -0.03565,0.74628 0.07997,1.43485 0.174875,2.14049 0.05974,0.65922 0.200903,1.25742 0.238615,1.92561 0.06075,0.58228 0.195282,1.1062 0.271372,1.68198 0.06489,0.42483 0.21525,0.90409 0.18116,1.37068 -0.01302,0.1783 -0.05135,0.34474 -0.077,0.5171 -0.06458,0.13279 -0.11796,0.29372 -0.193746,0.39835 -0.382814,0.52849 -0.941992,0.24471 -1.357662,0.0796 -0.287627,-0.16698 -0.580297,-0.1601 -0.873578,-0.13665 -0.390265,0.0377 -0.778797,0.0478 -1.163396,0.19709 -0.43178,0.22129 -0.867449,0.2686 -1.309538,0.24101 -0.27236,-0.0745 -0.545878,-0.10089 -0.820338,-0.0994 -0.2121,0.0133 -0.519234,0.0262 -0.768556,0.0337 -0.211871,-0.0395 -0.397785,0.10611 -0.587988,0.28104 -0.02969,0.0352 -0.05937,0.0704 -0.08907,0.10576 -0.03418,0.0593 -0.440457,-0.93712 -0.40628,-0.99634 l 0,0 c 0.03309,-0.0411 0.06619,-0.0822 0.09929,-0.12327 0.240422,-0.29853 0.535831,-0.53922 0.817604,-0.54494 0.367077,-0.009 0.733995,-0.0388 1.101142,-0.0307 0.279215,0.0161 0.556629,0.0701 0.835088,0.11117 -0.04961,0.008 -0.165078,0.0248 0.106166,0.006 0.257345,-0.0174 0.51012,-0.12832 0.762097,-0.22792 0.412076,-0.15972 0.822644,-0.22147 1.242192,-0.24299 0.440014,-0.0324 0.877564,-0.0149 1.309319,0.18307 0.131502,0.0437 0.293897,0.10572 0.420795,0.1473 0.0822,0.027 0.169989,-0.006 0.248497,0.0506 0.01707,0.0124 0.02701,0.0496 0.0405,0.0744 0.130683,0.28716 -0.137656,-1.12504 -0.14508,-1.09979 -0.08334,-0.6253 -0.237089,-1.20493 -0.2733,-1.85673 -0.02963,-0.60991 -0.220733,-1.13401 -0.247824,-1.74994 -0.106075,-0.83722 -0.22184,-1.66304 -0.182629,-2.54149 0.01207,-0.18849 0.03039,-0.48613 0.03331,-0.48758 0.02923,-0.0146 0.03891,0.10799 0.06825,0.12154 0.333153,0.15384 0.34495,-0.0985 0.155446,0.10888 -0.191804,0.22355 -0.403192,0.37036 -0.596317,0.58581 -0.169277,0.25535 -0.352327,0.47511 -0.537256,0.68663 -0.264538,0.16278 -0.469859,0.65284 -0.694276,0.96495 -0.217518,0.41618 -0.465135,0.72518 -0.701796,1.09141 -0.160845,0.12381 -0.222778,0.1912 -0.353936,0.46372 -0.274103,0.55364 -0.589128,1.01849 -0.847748,1.60828 -0.18478,0.37196 -0.36724,0.75056 -0.556903,1.11115 -0.290742,0.81512 -0.487117,1.77154 -0.828267,2.51385 -0.01988,0.084 -0.596099,-0.49559 -0.576217,-0.57958 z"
       inkscape:connector-curvature="0" />
    <path
       style="fill:#000000;fill-opacity:1;stroke:none"
       id="path3861"
       d="m 54.416506,222.51735 c 0.05958,1.1736 -0.02464,2.3627 0.03178,3.53339 0.02014,0.32876 0.09557,0.62616 0.129601,0.94744 0.03671,0.34645 -0.0024,0.1753 0.04075,0.34378 0.09046,0.51197 0.218287,0.9889 0.331976,1.48018 0.18389,0.462 0.264683,1.04987 0.415517,1.54844 -0.01436,0.0792 0.100346,-0.005 0.07689,-0.0284 -0.05321,-0.0528 -0.119857,-0.0284 -0.172498,-0.0837 -0.01611,-0.0169 0.03501,-0.0233 0.04958,-0.0453 0.05135,-0.0774 0.0842,-0.19658 0.125672,-0.296 0.226259,-0.525 0.509769,-0.87648 0.841887,-1.01522 0.264693,-0.0541 0.517368,-0.15412 0.765169,-0.34988 0.357467,-0.29637 0.742795,-0.23248 1.117621,-0.1615 -0.02322,-0.006 -0.08347,0.0202 -0.0697,-0.0189 0.0086,-0.0241 0.563237,-0.27156 0.605434,-0.28681 0.431132,-0.0889 0.865746,-0.0139 1.297322,0.0286 0.288372,0.0299 0.491165,0.0293 0.754043,0.0196 0.347177,-0.0205 0.694466,-0.0227 1.041755,-0.0203 -0.023,-0.23229 -0.08751,0.0687 -0.115037,0.0154 -0.04397,-0.0852 -0.06916,-0.64149 -0.07986,-0.7364 -0.05557,-0.59435 -0.132392,-1.17505 -0.284679,-1.69684 -0.182487,-0.62275 -0.188453,-1.32451 -0.166168,-2.02737 -0.02423,-0.49518 -0.09299,-0.97218 -0.120821,-1.46847 0.01548,-0.64621 -0.06794,-1.25996 -0.126602,-1.88796 -0.05896,-0.26421 0.01398,-0.63145 -0.05994,-0.88375 -0.04585,-0.15642 -0.0074,0.11539 -0.01985,0.17154 -0.009,0.0407 -0.03362,0.0566 -0.05037,0.0849 0.01179,0.0118 0.04536,0.0179 0.03538,0.0355 -0.02706,0.0479 -0.06768,0.0471 -0.09991,0.0785 -0.195055,0.18981 -0.380713,0.42711 -0.574631,0.62439 -0.371181,0.31809 -0.771394,0.49975 -1.169156,0.61193 -0.295379,-0.0278 -0.542589,0.1828 -0.805655,0.42039 -0.406216,0.29546 -0.839777,0.41957 -1.267212,0.50487 -0.349204,0.092 -0.698163,-0.0346 -1.046002,-0.0565 -0.02802,-0.002 0.05549,0.0163 0.08323,0.0243 -0.239041,0.0743 -0.454231,0.2741 -0.669068,0.48869 -0.366618,0.33647 -0.768921,0.22532 -1.155335,0.13877 -0.0641,-0.0127 -0.253065,-0.0532 -0.319042,-0.0555 -0.02707,-9.5e-4 0.05375,0.0137 0.08062,0.0206 -0.04211,0.0331 -0.268839,-1.19438 -0.226736,-1.22743 l 0,0 c 0.233611,-0.036 0.449156,-0.0755 0.679824,0.0111 0.246163,0.0522 0.33229,0.12819 0.575937,0.0422 0.26884,-0.23583 0.516051,-0.54913 0.811494,-0.64666 0.346514,-0.0434 0.638825,0.002 0.974389,-0.0256 0.376043,-0.0619 0.753778,-0.15854 1.121212,-0.31836 0.3049,-0.25899 0.597307,-0.61193 0.940133,-0.57008 0.342117,-0.0697 0.673941,-0.26371 1.007274,-0.42569 0.09008,-0.0937 0.183581,-0.17308 0.273002,-0.26938 0.174424,-0.18783 0.345677,-0.50557 0.540327,-0.60046 0.120406,-0.0587 0.246133,-0.0528 0.369196,-0.0792 0.0754,0.0285 0.155825,0.0229 0.226184,0.0856 0.331145,0.29528 0.34399,0.97045 0.379953,1.60151 0.06291,0.65662 0.144267,1.30717 0.126352,1.98264 0.02701,0.5634 0.122119,1.09999 0.127936,1.66865 -0.01974,0.49244 -0.03378,0.96779 0.101594,1.4021 0.164022,0.63481 0.297263,1.28875 0.348553,2.00662 0.06464,0.68283 0.164743,1.8417 -0.2698,2.14467 -0.107742,0.0751 -0.225565,0.0607 -0.338345,0.0909 -0.224641,-0.002 -0.46526,-0.008 -0.71007,0.006 -0.369979,0.02 -0.740253,0.0345 -1.110191,0.002 -0.304062,-0.0271 -0.640261,-0.0743 -0.885651,-0.0867 -0.331994,0.0503 -0.624982,0.41128 -0.966006,0.33189 -0.253636,-0.0426 -0.317584,-0.10783 -0.575148,0.016 -0.292822,0.2336 -0.573862,0.44589 -0.892456,0.47514 -0.208914,-0.0505 -0.374244,0.23663 -0.519903,0.51771 -0.360428,0.88089 -0.738445,1.34773 -1.186534,0.278 -0.147755,-0.54375 -0.266791,-1.11965 -0.444987,-1.62866 -0.117924,-0.52286 -0.23545,-1.04517 -0.328187,-1.58963 -0.07855,-0.50653 -0.150694,-1.01864 -0.22385,-1.52995 -0.07856,-1.21295 -0.03611,-2.44821 -0.02036,-3.66785 0,-0.0936 0.642159,-0.0936 0.642159,0 z"
       inkscape:connector-curvature="0" />
    <path
       style="fill:#000000;fill-opacity:1;stroke:none"
       id="path3863"
       d="m 56.394197,234.00482 c -0.475875,-0.0491 -0.950422,-0.31652 -1.426602,-0.21784 -0.01996,0.14515 -0.05465,0.422 -0.08452,0.61371 -0.122304,0.57021 -0.372358,0.91451 -0.600851,1.29043 -0.18686,0.37832 -0.384442,0.7493 -0.524441,1.20988 -0.114709,0.44528 -0.145609,0.91273 -0.186401,1.39858 -0.07288,0.59706 -0.09725,1.20471 -0.09466,1.81813 -0.0093,0.71902 0.137043,0.68635 0.41948,0.87822 0.27526,0.16441 0.519225,0.0968 0.78917,0.026 0.371359,-0.13923 0.747711,-0.14937 1.123931,-0.13343 0.346732,0.0254 0.693327,0.0548 1.040313,0.0586 -0.0061,5e-5 -0.02407,0.001 -0.01809,1.3e-4 0.08897,-0.016 0.185866,-0.071 0.237759,-0.20335 -0.01115,-0.57297 -0.07022,-1.13679 -0.109278,-1.70357 -0.04771,-0.66958 -0.03197,-1.34501 -0.01201,-2.01724 0.05465,-0.50454 -0.03725,-0.85513 -0.11485,-1.31196 -0.11072,-0.36773 -0.206017,-0.74187 -0.331871,-1.09094 -0.199646,-0.5206 -0.415107,-1.01855 -0.583261,-1.58701 -0.147884,-0.44431 -0.369467,-0.75024 -0.593955,-1.01099 -0.03965,-0.0653 -0.07935,-0.13048 -0.119017,-0.19572 -0.03159,-0.0658 0.41968,-0.98742 0.451295,-0.92163 l 0,0 c 0.02776,0.0386 0.05552,0.0771 0.08327,0.11564 0.291002,0.37984 0.566023,0.80285 0.751023,1.41647 0.168965,0.54301 0.390692,1.00548 0.564897,1.54173 0.141688,0.44141 0.272917,0.89378 0.386785,1.36841 0.09696,0.5747 0.20353,1.11795 0.143839,1.74262 -0.01718,0.5967 -0.02993,1.1959 0.01702,1.78915 0.05732,0.79494 0.161835,1.61381 0.04087,2.40375 -0.03586,0.12161 -0.06371,0.25502 -0.107646,0.36483 -0.197264,0.49295 -0.565194,0.60143 -0.84782,0.57812 -0.351274,-7.7e-4 -0.702379,-0.0195 -1.053371,-0.0485 -0.235278,-0.0135 -0.473731,-0.0419 -0.714073,0.0764 -0.45919,0.16015 -0.928149,0.22105 -1.372618,-0.12426 -0.457411,-0.41254 -0.72248,-0.90935 -0.714745,-2.00251 -0.0025,-0.6859 0.02116,-1.36865 0.107626,-2.0343 0.06352,-0.60767 0.09733,-1.21932 0.242931,-1.78092 0.171739,-0.58351 0.404192,-1.05751 0.637408,-1.53765 0.15425,-0.23429 0.313106,-0.48267 0.456295,-0.71585 0.09671,-0.58469 0.123853,-1.1675 0.426495,-1.49197 0.633161,-0.34729 1.30302,-0.0171 1.933985,0.21358 0.042,0.0356 -0.20233,1.26088 -0.244361,1.22525 z"
       inkscape:connector-curvature="0" />
    <path
       style="fill:#000000;fill-opacity:1;stroke:none"
       id="path3865"
       d="m 61.397319,235.25494 c -0.53897,-0.0763 -1.043328,-0.5168 -1.572479,-0.71015 -0.08588,-0.0434 -0.243512,0.0518 -0.488252,0.14418 -0.171883,0.0366 -0.350181,0.0602 -0.459145,0.36932 -0.149486,0.41248 -0.246057,0.89124 -0.370588,1.33659 -0.07325,0.41406 -0.160192,0.83237 -0.189687,1.27267 -0.0094,0.5939 0.02562,1.18677 0.04297,1.77918 0.03261,0.30429 -0.04221,0.73644 0.0585,1.01091 0.0053,0.0143 0.0173,-0.0203 0.02519,-0.0129 0.02092,0.0192 0.03635,0.0574 0.05454,0.0861 0.191255,0.0709 0.330638,0.41195 0.514705,0.53809 0.293404,0.27084 0.609105,0.39948 0.906896,0.65424 0.05595,0.0468 0.111158,0.0974 0.167823,0.14037 0.133032,0.10079 0.265375,0.16928 0.407774,0.16839 0.176377,-0.001 0.147757,-0.006 0.08674,-0.0274 0.302189,-0.0809 0.603417,-0.15654 0.90821,-0.17658 0.389064,-0.0199 0.430045,0.13418 0.716159,-0.23171 0.183405,-0.20622 0.269347,-0.415 0.351088,-0.78864 0.06961,-0.50943 0.102785,-1.0433 0.151957,-1.56617 0.05902,-0.60926 0.04686,-1.22878 0.02839,-1.84445 -0.07152,-0.52768 -0.199062,-1.04568 -0.398643,-1.41428 -0.190487,-0.44109 -0.477119,-0.53177 -0.71151,-0.8388 -0.215687,-0.35687 -0.484201,-0.48134 -0.728589,-0.71118 -0.183372,-0.14425 -0.367348,-0.21292 -0.551987,-0.35817 -0.03821,-0.0475 0.287972,-1.16158 0.326188,-1.11403 l 0,0 c 0.191208,0.13361 0.394379,0.18705 0.576866,0.37599 0.278296,0.20908 0.545727,0.45823 0.79233,0.80167 0.283761,0.31358 0.600166,0.50667 0.813019,1.04505 0.263087,0.6111 0.458425,1.32658 0.522455,2.14279 0.02285,0.7117 0.03591,1.42831 -0.0324,2.13264 -0.0592,0.60464 -0.106658,1.21913 -0.197515,1.80484 -0.122242,0.54944 -0.243155,0.97766 -0.506284,1.2921 -0.331743,0.48956 -0.608155,0.62901 -0.984007,0.54806 -0.294359,-0.002 -0.586189,0.0481 -0.876301,0.15477 -0.427007,0.0459 -0.821568,-0.007 -1.211833,-0.4107 -0.307232,-0.24061 -0.631925,-0.38988 -0.922566,-0.71456 -0.21544,-0.24001 -0.42776,-0.49837 -0.633247,-0.77215 -0.250136,-0.52129 -0.306592,-1.13097 -0.297061,-1.84703 -0.01964,-0.66947 -0.05799,-1.34194 -0.02909,-2.01245 0.04483,-0.57062 0.138849,-1.12437 0.240353,-1.6606 0.1319,-0.4829 0.246303,-0.98833 0.403094,-1.43927 0.18594,-0.52701 0.441252,-0.92506 0.771339,-0.92878 0.32478,-0.0756 0.638618,-0.32191 0.971557,-0.16683 0.5292,0.18048 1.039982,0.52371 1.567394,0.72369 0.042,0.0356 -0.202329,1.26087 -0.244361,1.22526 z"
       inkscape:connector-curvature="0" />
    <path
       style="fill:#000000;fill-opacity:1;stroke:none"
       id="path3867"
       d="m 58.417065,230.61715 c 0.581066,-0.0643 1.163483,-0.0463 1.744907,-0.0143 0.23776,0.0217 0.475514,0.0303 0.713459,0.0249 0.304639,-0.0102 0.609308,-0.0129 0.913983,-0.0132 0.311358,9.1e-4 0.622715,0.004 0.934077,0.005 0.298064,4.8e-4 0.596127,-5e-4 0.89419,-9.8e-4 0.305241,-4.5e-4 0.610477,-2.1e-4 0.915713,-4e-5 0.252259,1.7e-4 0.504518,1.9e-4 0.756781,1.8e-4 0.04392,-0.0232 0.203306,1.25656 0.159401,1.2798 l 0,0 c -0.252242,-1e-5 -0.50449,1e-5 -0.756733,1.7e-4 -0.305241,1.8e-4 -0.610482,4.2e-4 -0.915718,-3e-5 -0.298149,-4.9e-4 -0.596293,-0.001 -0.894441,-9.9e-4 -0.310979,9.4e-4 -0.621951,0.004 -0.932929,0.005 -0.30577,-2.8e-4 -0.611534,-0.003 -0.917271,-0.0132 -0.235876,-0.005 -0.471569,0.003 -0.707252,0.0249 -0.582614,0.0326 -1.166195,0.0493 -1.748468,-0.0143 -0.04397,0.0233 -0.203678,-1.25888 -0.159699,-1.28216 z"
       inkscape:connector-curvature="0" />
    <path
       style="fill:#000000;fill-opacity:1;stroke:none"
       id="path3869"
       d="m 64.142761,223.36334 c 0.07624,1.09808 0.211668,2.17059 0.319538,3.25579 0.102896,0.28464 -0.04771,1.21817 -0.0135,1.45788 0.05053,0.42392 0.160538,0.78195 0.247194,1.17495 0.129995,0.69395 0.09161,1.43087 0.05503,2.15186 -0.03997,0.61386 -0.04675,1.23182 -0.0405,1.85 0.106045,0.44909 0.177338,0.90074 0.209646,1.39758 0.02012,0.69477 -0.02535,1.38774 -0.04776,2.08007 -0.0089,0.41434 -0.0056,0.20854 -0.0097,0.61735 -5.33e-4,0.0935 -0.642257,0.0743 -0.6416,-0.0192 l 0,0 c 0.0032,-0.4443 2.98e-4,-0.22102 0.0088,-0.66985 0.0189,-0.62519 0.05807,-1.24894 0.05589,-1.87582 -0.02593,-0.53686 -0.173475,-0.97493 -0.215586,-1.50605 -0.0073,-0.66535 -0.0027,-1.33117 0.03928,-1.99227 0.02738,-0.51954 0.07483,-1.06398 -0.0086,-1.5713 -0.113415,-0.50632 -0.243464,-0.99348 -0.279503,-1.55737 -0.0073,-0.43427 0.06846,-0.84887 0.0043,-1.27739 -0.145135,-1.09606 -0.300763,-2.18765 -0.319607,-3.33304 -0.0063,-0.0927 0.630192,-0.27596 0.636478,-0.18318 z"
       inkscape:connector-curvature="0" />
    <path
       style="fill:#000000;fill-opacity:1;stroke:none"
       id="path3871"
       d="m 52.646284,232.52437 c -0.582273,0.0635 -1.165852,0.0468 -1.748466,0.0143 -0.540694,0.0288 -0.707151,-0.38293 -0.59112,-1.51946 0.105284,-0.70388 0.179967,-1.41667 0.185698,-2.15403 -0.01433,-0.5854 -0.05237,-1.16593 -0.06569,-1.75167 -0.0079,-0.63765 0.0063,-1.27528 0.01344,-1.91269 0.0066,-0.62335 0.0032,-1.24687 7.46e-4,-1.87027 -0.0025,-0.52003 -0.0028,-1.04008 -0.0027,-1.56012 3.4e-5,-0.0935 0.641043,-0.0924 0.641008,0.001 l 0,0 c -2.86e-4,0.51642 -1.08e-4,1.03285 0.0025,1.54926 0.0028,0.63533 0.0067,1.27079 2.43e-4,1.90609 -0.007,0.6123 -0.02162,1.22458 -0.017,1.83715 0.01253,0.60653 0.0577,1.20594 0.07252,1.81208 -0.0019,0.82958 -0.06476,1.64225 -0.203945,2.42412 -0.01247,0.0736 -0.0126,0.16189 -0.03741,0.22074 -0.0024,0.006 -0.09817,-0.15936 -0.141461,-0.25206 -0.03158,-0.0676 0.09033,-0.0265 0.135829,-0.0295 0.05685,-0.004 0.113707,-0.007 0.17056,-0.0114 0.581423,-0.0321 1.163841,-0.05 1.744906,0.0143 0.04398,0.0233 -0.115719,1.30545 -0.159699,1.28217 z"
       inkscape:connector-curvature="0" />
    <path
       style="fill:#000000;fill-opacity:1;stroke:none"
       id="path3873"
       d="m 50.929482,230.64308 c 0.03203,1.19898 0.02334,2.40088 0.0072,3.60063 -0.01096,0.48796 -0.01516,0.97594 -0.01248,1.46432 0.0091,0.34781 -0.01389,0.69912 0.02535,1.03967 0.0071,0.0918 -0.622974,0.29978 -0.630107,0.20793 l 0,0 c -0.03435,-0.41668 -0.03702,-0.8251 -0.02678,-1.2476 0.0027,-0.48838 -0.0015,-0.97636 -0.01248,-1.46432 -0.01619,-1.19975 -0.02486,-2.40165 0.0072,-3.60063 0,-0.0936 0.642159,-0.0936 0.642159,0 z"
       inkscape:connector-curvature="0" />
    <path
       style="fill:#000000;fill-opacity:1;stroke:none"
       id="path3875"
       d="m 13.869124,602.5199 c 0.659936,-0.0705 1.321413,-0.0473 1.981803,-0.0186 0.445817,0.0232 0.891699,0.005 1.337594,0.008 0.649266,-0.036 1.294398,-0.0168 1.940358,0.13038 0.669569,0.17508 1.343063,0.23668 2.012748,0.40681 0.453804,0.1426 0.909751,0.17516 1.36742,0.14327 0.557529,-0.0906 1.105711,-0.0603 1.652295,0.189 0.367653,0.0612 0.709027,0.35876 1.067946,0.50052 0.273906,0.0133 0.419792,-0.0496 0.804071,-0.0239 0.306166,0.15962 0.609031,0.30771 0.925693,0.32154 0.291051,0.1828 0.586558,0.28653 0.890219,0.30263 0.233099,-0.0131 0.490457,-0.0543 0.748777,-0.0806 0.205977,-0.0207 0.412218,-0.0152 0.618339,-0.0141 0.0438,0.0236 -0.118673,1.30067 -0.162477,1.27699 l 0,0 c -0.09113,-0.001 -0.182305,-0.003 -0.273382,0.003 -0.373423,0.0304 -0.74622,0.12064 -1.12041,0.0829 -0.301787,-0.0504 -0.592672,-0.19016 -0.888614,-0.30554 -0.319942,-0.053 -0.628288,-0.20564 -0.942143,-0.33482 0.01902,-0.0102 0.07667,-0.0296 0.05706,-0.0296 -0.25588,9e-5 -0.504778,0.11126 -0.763827,0.052 -0.05241,-0.012 -0.104262,-0.0329 -0.156392,-0.0493 -0.35651,-0.16351 -0.707773,-0.36905 -1.071205,-0.46451 -0.14452,-0.0532 -0.328398,-0.16267 -0.472299,-0.17217 -0.244114,-0.0162 -0.488626,0.0741 -0.732737,0.0661 -0.594781,0.0289 -1.189595,0.0204 -1.779985,-0.15396 -0.670936,-0.15471 -1.34712,-0.17376 -2.015409,-0.3866 -0.153231,-0.0385 -0.304772,-0.11076 -0.458908,-0.12818 -0.360068,-0.0407 -0.722799,0.014 -1.083131,-0.0152 -0.445297,0.001 -0.890581,-0.0161 -1.3358,0.008 -0.661936,0.0291 -1.324923,0.0512 -1.986421,-0.0186 -0.04439,0.0235 -0.205568,-1.27055 -0.16118,-1.29405 z"
       inkscape:connector-curvature="0" />
    <path
       style="fill:#000000;fill-opacity:1;stroke:none"
       id="path3877"
       d="m 19.697871,593.17593 c 0.03166,1.48677 0.06276,2.9855 -0.01171,4.46825 -0.08318,0.8327 -0.171656,1.65799 -0.18171,2.50974 0.0047,0.6788 0.04096,1.35404 0.05478,2.03207 -0.03519,0.85148 -0.154854,1.67272 -0.204554,2.52009 -0.01512,0.70429 0.02085,1.40753 0.04492,2.10932 0.02161,0.726 0.0099,1.45336 -0.0015,2.17958 -0.01091,0.58741 -0.0096,1.17527 -0.0072,1.76297 0.0037,0.63356 0.0049,1.26716 0.0047,1.90076 -6.94e-4,0.62504 -0.0016,1.25006 -0.0019,1.87509 -7.4e-5,0.6239 3.08e-4,1.2478 4.79e-4,1.8717 7e-5,0.41754 4.7e-5,0.20878 7.1e-5,0.62629 5e-6,0.0935 -0.641113,0.0936 -0.641118,1.5e-4 l 0,0 c -2.8e-5,-0.41726 -7e-6,-0.20863 -6.4e-5,-0.6259 -1.22e-4,-0.62436 -3.61e-4,-1.24873 -2.29e-4,-1.87311 2.3e-4,-0.62477 8.55e-4,-1.24953 0.0012,-1.8743 -1.13e-4,-0.63129 -0.0013,-1.26259 -0.0032,-1.89387 -0.0012,-0.59957 -8.01e-4,-1.19918 0.0065,-1.79861 0.0066,-0.69433 0.01158,-1.38918 -0.0041,-2.08322 -0.01832,-0.76533 -0.07339,-1.52978 -0.04284,-2.29737 0.03773,-0.79884 0.129625,-1.57359 0.201762,-2.36052 -0.0092,-0.70097 -0.04683,-1.3965 -0.057,-2.09727 0.0095,-0.87569 0.08452,-1.72819 0.160357,-2.58818 0.05211,-1.44991 -0.02847,-2.91252 0.04042,-4.36366 0,-0.0936 0.64216,-0.0936 0.64216,0 z"
       inkscape:connector-curvature="0" />
    <path
       style="fill:#000000;fill-opacity:1;stroke:none"
       id="path3879"
       d="m 21.517187,596.30122 c 0.03202,1.19898 0.02334,2.40086 0.0072,3.60061 0.0137,0.33994 -0.03431,0.69444 -0.01402,1.03399 8.02e-4,0.0132 0.01165,-0.0197 0.01099,-0.033 -0.0033,-0.0692 -0.01508,-0.13564 -0.02262,-0.20347 0.100268,-0.11774 -0.07105,-0.12028 -0.04556,-0.1412 0.04875,-0.04 0.104207,-0.0256 0.156127,-0.0411 0.194463,-0.0582 0.387844,-0.12623 0.582684,-0.17972 0.303424,-0.14934 0.60572,-0.29587 0.911755,-0.42143 0.282117,-0.19044 0.573839,-0.24195 0.867213,-0.29142 0.181764,-0.10374 0.370499,-0.17878 0.550724,-0.27953 0.120655,-0.45268 0.07139,-1.02651 0.04649,-1.51685 -0.07441,-0.61911 0.03844,-1.18815 0.109906,-1.7761 0.04489,-0.55652 0.01537,-1.12475 -0.0011,-1.68408 -0.04475,-0.39646 -0.07669,-0.0479 -0.01184,0.0249 0.05375,0.0603 0.134622,-0.0223 0.181326,0.0592 0.02622,0.0457 -0.06307,0.0579 -0.09158,0.0974 -0.02911,0.0403 -0.05345,0.0936 -0.08016,0.14049 -0.261373,0.5037 -0.532146,0.97542 -0.836638,1.36382 -0.313238,0.43084 -0.668167,0.42535 -1.025434,0.48113 -0.254467,0.0237 -0.486728,0.23866 -0.729467,0.37453 -0.241422,0.0936 -0.119685,0.057 -0.365236,0.10969 -0.04336,0.0287 -0.240132,-1.2354 -0.196772,-1.26408 l 0,0 c 0.190485,-0.011 0.09597,0.002 0.283566,-0.0389 0.267667,-0.10957 0.5146,-0.36095 0.788077,-0.40453 0.279441,-0.0939 0.566988,0.008 0.825543,-0.27878 0.286185,-0.33732 0.539026,-0.73896 0.772739,-1.22094 0.458414,-0.81921 0.982826,-0.97609 1.129337,0.48974 0.01896,0.67312 0.04493,1.35603 -0.02317,2.02162 -0.05973,0.47746 -0.151211,0.88616 -0.08177,1.39078 0.04211,0.87347 0.06234,1.78184 -0.224908,2.50029 -0.05299,0.091 -0.100137,0.19869 -0.158944,0.27289 -0.180842,0.22819 -0.428563,0.11468 -0.61298,0.34502 -0.27591,0.13253 -0.568236,0.048 -0.838314,0.27096 -0.317768,0.17421 -0.648145,0.25413 -0.959939,0.49019 -0.365889,0.093 -0.764868,0.33176 -1.13421,0.22121 -0.07331,-0.0219 -0.138456,-0.10858 -0.207683,-0.16295 -0.0518,-0.12754 -0.115655,-0.23786 -0.155399,-0.38263 -0.10765,-0.39212 -0.01083,-0.9492 -0.05517,-1.36728 -0.01619,-1.19974 -0.02487,-2.40164 0.0072,-3.60061 0,-0.0936 0.642159,-0.0936 0.642159,0 z"
       inkscape:connector-curvature="0" />
    <path
       style="fill:#000000;fill-opacity:1;stroke:none"
       id="path3881"
       d="m 20.479148,608.71075 c 0.148388,1.16171 0.135515,2.36823 0.201586,3.55048 0.06374,0.40027 0.105661,0.78546 0.107649,1.20946 -0.014,0.6676 -0.03132,1.33462 -0.0376,2.00282 0.01168,0.0514 -0.03302,1.68771 0.04021,1.33252 0.0996,-0.18006 -0.112059,-0.13697 -0.08291,-0.20131 0.0318,-0.0702 0.09314,-0.0177 0.138445,-0.0402 0.178677,-0.0889 0.351052,-0.28143 0.518732,-0.4305 0.32612,-0.25415 0.665991,-0.4513 1.011477,-0.55335 0.261757,-0.0688 0.522976,0.018 0.783645,0.0531 0.02802,0.003 -0.07463,0.035 -0.08367,-0.0197 -0.0083,-0.0502 0.05059,-0.0182 0.0759,-0.0274 0.232723,-0.19358 0.377684,-0.48207 0.633627,-0.64558 0.169471,-0.0402 0.167725,-0.24661 0.183159,-0.59039 -0.0049,-0.63426 -0.04941,-1.26373 -0.07069,-1.89632 -0.01868,-0.64166 -0.0036,-1.28428 0.0068,-1.92588 0.01022,-0.61269 0.0078,-1.22578 0.005,-1.83867 -0.0066,-0.0498 -0.0033,-0.11067 -0.01982,-0.14968 -0.05224,-0.1236 -0.0015,0.0898 -0.03375,0.17054 -0.04892,0.1227 -0.118062,0.14485 -0.215266,0.18589 -0.24511,0.20591 -0.488139,0.44225 -0.719726,0.70916 -0.218803,0.36897 -0.489561,0.48589 -0.751908,0.65366 -0.304569,0.2224 -0.623727,0.19012 -0.940975,0.17347 -0.02299,-0.001 0.04575,0.0102 0.06863,0.0148 -0.23521,0.11841 -0.470512,0.21996 -0.709377,0.30482 -0.04012,0.0415 -0.325571,-1.12789 -0.285454,-1.1695 l 0,0 c 0.253834,-0.16214 0.528264,-0.14777 0.777722,-0.36916 0.364734,-0.0528 0.457825,0.0167 0.780197,-0.0995 0.08977,-0.0592 0.176607,-0.13898 0.268222,-0.18474 0.146008,-0.0729 0.277378,-0.0795 0.392245,-0.32704 0.276046,-0.33516 0.558286,-0.64885 0.849819,-0.92735 0.524075,-0.23932 1.08012,-0.37368 1.180776,1.00505 0.0025,0.62834 0.0042,1.25686 -0.0067,1.88495 -0.0097,0.6027 -0.02341,1.20657 -0.0038,1.80913 0.02559,0.70421 0.07964,1.40792 0.06143,2.1155 -0.05028,0.71175 -0.1736,1.45356 -0.552455,1.64486 -0.25455,0.009 -0.373302,0.47221 -0.609763,0.61468 -0.297646,0.19426 -0.648419,0.11019 -0.850568,0.0715 -0.295577,0.0346 -0.578341,0.24568 -0.858083,0.42977 -0.397985,0.35818 -0.788534,0.81781 -1.241589,0.56792 -0.08196,-0.0452 -0.144971,-0.18182 -0.217455,-0.27273 -0.04018,-0.13377 -0.09057,-0.25662 -0.120537,-0.40133 -0.106838,-0.51598 -0.01322,-1.15272 -0.04776,-1.69048 0.0051,-0.66889 0.02148,-1.33661 0.05327,-2.00254 0.01114,-0.37211 -0.06844,-0.65751 -0.122641,-1.01407 -0.107605,-1.16579 -0.107489,-2.36908 -0.192619,-3.54328 -0.0063,-0.0928 0.630195,-0.27597 0.636479,-0.18319 z"
       inkscape:connector-curvature="0" />
    <path
       style="fill:#000000;fill-opacity:1;stroke:none"
       id="path3883"
       d="m 52.59719,900.87234 c 0.113866,1.04739 0.177884,2.10429 0.209175,3.16325 0.01556,0.65062 -0.02605,1.29933 -0.06241,1.94688 -0.02629,0.43959 -0.0042,0.88046 0.01337,1.31965 0.02414,0.85508 0.02015,1.71096 -0.0016,2.56596 -0.0018,0.66964 -0.103573,1.32465 -0.210401,1.97316 -0.149056,0.6017 -0.158085,1.21859 -0.18424,1.84371 -0.0475,1.02616 -0.04255,2.05745 -0.06178,3.08601 -0.02057,0.71681 0.01756,1.42455 -0.06367,2.1344 -0.09677,0.49941 -0.139804,0.99486 -0.128541,1.51179 0.02364,0.60843 0.04853,1.21616 0.05109,1.8257 -0.0072,0.47324 -0.0122,0.94636 -0.01533,1.41971 0.0069,0.53711 0.0032,1.06354 -0.06825,1.59151 -0.09027,0.4672 -0.100462,0.95337 -0.207457,1.41273 -0.08995,0.29853 -0.06922,0.61756 -0.05642,0.93412 -0.0065,0.297 -0.07263,0.57848 -0.122921,0.86333 -0.0095,0.0641 -0.63137,-0.13091 -0.621912,-0.19504 l 0,0 c 0.03699,-0.20914 0.08667,-0.41543 0.103549,-0.63065 -0.01081,-0.41271 -0.01642,-0.83089 0.08953,-1.22218 0.09961,-0.42684 0.07277,-0.8965 0.175185,-1.32605 0.07353,-0.47747 0.06902,-0.94947 0.06183,-1.43842 0.0055,-0.46512 0.02233,-0.93005 0.01292,-1.39534 -0.01207,-0.60961 -0.03595,-1.21839 -0.05401,-1.82761 1.3e-5,-0.56107 0.0343,-1.11279 0.1308,-1.65813 0.07915,-0.66859 0.03745,-1.3336 0.01681,-2.00885 -0.0042,-1.04271 0.01217,-2.08654 0.116766,-3.12001 0.02131,-0.67435 0.0038,-1.34887 0.158881,-2.0019 0.101863,-0.58188 0.255582,-1.16874 0.226611,-1.77577 -0.01627,-0.84996 -0.02321,-1.70022 -0.01291,-2.55047 0.0096,-0.4605 0.0023,-0.92049 0.01142,-1.38094 0.01902,-0.61752 0.04935,-1.23536 0.02802,-1.8538 -0.04608,-1.07026 -0.175135,-2.13213 -0.17623,-3.20675 0,-0.0662 0.642159,-0.0662 0.642159,0 z"
       inkscape:connector-curvature="0" />
    <path
       style="fill:#000000;fill-opacity:1;stroke:none"
       id="path3885"
       d="m 48.259212,916.77132 c 0.581064,-0.0455 1.163484,-0.0328 1.744906,-0.0102 0.237757,0.0154 0.475515,0.0215 0.713458,0.0176 0.30464,-0.007 0.609311,-0.009 0.913985,-0.009 0.333136,0.004 0.666207,2.7e-4 0.999323,-0.003 0.340514,-0.001 0.681017,0.004 1.02152,0.006 0.189136,7.1e-4 0.09491,6.9e-4 0.282681,7.1e-4 0.04373,-0.0164 0.202509,0.88539 0.158781,0.90177 l 0,0 c -0.187566,4.1e-4 -0.09347,5e-5 -0.282288,7.1e-4 -0.339733,0.003 -0.679466,0.008 -1.01921,0.006 -0.333497,-0.004 -0.666948,-0.007 -1.000466,-0.003 -0.305769,-2e-4 -0.611537,-0.002 -0.917271,-0.009 -0.235877,-0.004 -0.471569,0.002 -0.707253,0.0175 -0.582616,0.023 -1.166196,0.0348 -1.748467,-0.0102 -0.04398,0.0165 -0.20368,-0.8905 -0.159699,-0.90696 z"
       inkscape:connector-curvature="0" />
    <path
       style="fill:#000000;fill-opacity:1;stroke:none"
       id="path3887"
       d="m 54.911769,908.77691 c -0.253028,0.79193 -0.540741,1.55695 -0.85492,2.30027 -0.10248,0.27848 -0.05377,0.15699 -0.161611,0.41027 -0.01513,0.0356 -0.07023,0.12274 -0.04326,0.10852 0.02734,-0.0144 -0.0038,-0.0803 0.02682,0.0567 0.0047,0.3963 -0.06133,0.78433 -0.08315,1.17929 -0.01836,0.46373 -3.85e-4,0.92816 0.01147,1.3917 0.01196,0.4372 0.009,0.87477 0.0055,1.31215 -0.01667,-0.028 -0.0013,0.51071 0.07429,0.42908 0.132832,-0.14347 -0.142208,0.0513 0.08632,-0.0937 -0.01346,-0.008 -0.05429,-0.0188 -0.04038,-0.0258 0.108421,-0.0541 0.226459,-0.0515 0.339075,-0.0825 0.174017,-0.0476 0.334575,-0.10872 0.502617,-0.18924 0.183329,-0.0964 0.406556,-0.18119 0.544061,-0.39651 0.158077,-0.33871 0.299125,-0.69174 0.468222,-1.02069 0.108271,-0.22897 0.173501,-0.40946 0.171707,-0.68553 -0.02749,-0.46932 -0.06299,-0.93684 -0.07671,-1.40769 -0.0083,-0.44876 0.0084,-0.89731 0.01686,-1.3458 -0.03095,-0.35766 -0.210947,-0.60019 -0.315365,-0.91715 -0.137829,-0.19965 -0.122038,-0.57953 -0.277448,-0.74926 -0.132557,0.038 -0.426698,-0.2683 -0.548062,-0.38039 -0.03375,-0.0434 0.387263,-0.73942 0.421018,-0.696 l 0,0 c 0.218937,0.19881 0.469092,0.31861 0.657691,0.58281 0.135028,0.28467 0.212217,0.60467 0.336765,0.89814 0.145316,0.42309 0.382089,0.76787 0.365048,1.28349 -0.008,0.42929 -0.02285,0.85886 -0.01287,1.28837 0.01627,0.48955 0.05916,0.97598 0.06965,1.46587 -0.01494,0.42651 -0.101157,0.77211 -0.259133,1.12841 -0.173052,0.36004 -0.325622,0.73856 -0.50439,1.09207 -0.195076,0.31326 -0.451668,0.54285 -0.728417,0.67343 -0.431954,0.22966 -0.880041,0.38702 -1.343582,0.36088 -0.07138,-0.0278 -0.147457,-0.037 -0.21415,-0.0833 -0.301742,-0.20967 -0.386733,-0.69282 -0.373143,-1.13914 0.004,-0.42326 0.0075,-0.84677 -0.0067,-1.26976 -0.01543,-0.49783 -0.03725,-0.99705 -0.01149,-1.49503 0.02181,-0.3221 0.05484,-0.64059 0.106502,-0.95552 -0.04982,-0.46777 0.05984,-0.734 0.197216,-1.1437 0.29069,-0.76668 0.573305,-1.53944 0.877626,-2.29489 0.01988,-0.0595 0.596097,0.35057 0.576217,0.40997 z"
       inkscape:connector-curvature="0" />
    <path
       style="fill:#000000;fill-opacity:1;stroke:none"
       id="path3889"
       d="m 48.048896,905.95704 c 0.03532,0.9406 -0.0794,1.87854 -0.166415,2.80798 0.01531,0.38496 -0.141294,0.71751 -0.177116,1.0846 -0.02179,0.42977 -0.10158,0.84744 -0.134953,1.27646 -0.0613,0.36413 -0.165106,0.69821 -0.174265,1.07604 0.0123,0.4426 0.04268,0.88335 0.05536,1.32604 -0.02691,0.46519 0.03864,0.76968 0.182845,1.17104 0.156478,0.317 0.387935,0.49816 0.559012,0.79137 0.109383,0.18359 0.224346,0.31601 0.394963,0.29193 0.157849,-0.0269 0.358348,-0.0575 0.541541,-0.22084 0.247322,-0.28933 0.517066,-0.51722 0.798919,-0.72617 0.114394,-0.10322 0.148925,-0.35431 0.206345,-0.53284 0.120937,-0.35247 0.249129,-0.70444 0.34714,-1.0723 0.04441,-0.39981 0.0038,-0.79744 0.03851,-1.20266 0.06057,-0.43172 0.09868,-0.86503 0.09916,-1.30563 -0.01119,-0.43477 -0.03014,-0.8688 -0.03643,-1.30387 9.41e-4,-0.2841 -0.01889,-0.69459 -0.221919,-0.83321 -0.181486,-0.1493 -0.350354,-0.3192 -0.521206,-0.49796 -0.02055,-0.009 -0.04283,-0.0119 -0.06163,-0.0271 -0.104531,-0.0837 -0.09324,-0.11752 -0.193919,-0.17536 -0.09529,-0.0548 -0.223489,-0.057 -0.322107,-0.0945 -0.258261,-0.23316 -0.528478,-0.4037 -0.816773,-0.53854 -0.181098,-0.0361 -0.338509,-0.17767 -0.511645,-0.25536 -0.03883,-0.0328 0.278771,-0.83339 0.317596,-0.80065 l 0,0 c 0.171864,0.0903 0.341767,0.18809 0.519967,0.25019 0.26794,0.14531 0.525794,0.31507 0.777985,0.50973 0.267234,0.1011 0.509862,0.24816 0.73581,0.48316 0.176655,0.19534 0.381701,0.32344 0.551711,0.53245 0.266492,0.39331 0.407078,0.86841 0.387017,1.43097 0.0061,0.44094 0.02619,0.88077 0.0364,1.32147 -6.39e-4,0.47473 -0.03235,0.94461 -0.100979,1.4094 -0.04647,0.45963 0.02764,0.92416 -0.06946,1.37556 -0.09897,0.38835 -0.224623,0.76995 -0.368026,1.12629 -0.110641,0.34077 -0.185939,0.72726 -0.41448,0.94512 -0.265706,0.18698 -0.515827,0.40075 -0.746231,0.67216 -0.366345,0.36389 -0.758652,0.48568 -1.204244,0.39198 -0.274178,-0.1013 -0.500227,-0.30918 -0.684991,-0.62497 -0.210706,-0.31866 -0.489597,-0.54397 -0.632798,-0.95782 -0.162947,-0.47871 -0.256335,-0.95952 -0.230913,-1.49952 -0.01391,-0.46689 -0.04797,-0.93239 -0.04851,-1.39991 0.01688,-0.39096 0.08331,-0.75559 0.167685,-1.12604 0.03534,-0.44341 0.118538,-0.87083 0.154524,-1.31169 0.04283,-0.3534 0.155299,-0.6799 0.137287,-1.04782 0.05189,-0.90825 0.15486,-1.80898 0.187087,-2.71918 0,-0.0662 0.642159,-0.0662 0.642159,0 z"
       inkscape:connector-curvature="0" />
  </g>
</svg>
