<?xml version="1.0" encoding="UTF-8" standalone="no"?>
<!-- Created with Inkscape (http://www.inkscape.org/) -->

<svg
   xmlns:dc="http://purl.org/dc/elements/1.1/"
   xmlns:cc="http://creativecommons.org/ns#"
   xmlns:rdf="http://www.w3.org/1999/02/22-rdf-syntax-ns#"
   xmlns:svg="http://www.w3.org/2000/svg"
   xmlns="http://www.w3.org/2000/svg"
   xmlns:sodipodi="http://sodipodi.sourceforge.net/DTD/sodipodi-0.dtd"
   xmlns:inkscape="http://www.inkscape.org/namespaces/inkscape"
   width="4096"
   height="2556"
   id="svg2"
   version="1.1"
   inkscape:version="0.48.5 r10040"
   sodipodi:docname="ledge5BackgroundBase.svg"
   inkscape:export-filename="C:\Users\narfman0\Desktop\ledge5BackgroundBase.png"
   inkscape:export-xdpi="90"
   inkscape:export-ydpi="90">
  <defs
     id="defs4" />
  <sodipodi:namedview
     id="base"
     pagecolor="#ffffff"
     bordercolor="#666666"
     borderopacity="1.0"
     inkscape:pageopacity="0.0"
     inkscape:pageshadow="2"
     inkscape:zoom="0.23325825"
     inkscape:cx="2208.2049"
     inkscape:cy="1197.0932"
     inkscape:document-units="px"
     inkscape:current-layer="layer1"
     showgrid="false"
     showguides="true"
     inkscape:guide-bbox="true"
     inkscape:window-width="1538"
     inkscape:window-height="1002"
     inkscape:window-x="174"
     inkscape:window-y="0"
     inkscape:window-maximized="0" />
  <metadata
     id="metadata7">
    <rdf:RDF>
      <cc:Work
         rdf:about="">
        <dc:format>image/svg+xml</dc:format>
        <dc:type
           rdf:resource="http://purl.org/dc/dcmitype/StillImage" />
        <dc:title></dc:title>
      </cc:Work>
    </rdf:RDF>
  </metadata>
  <g
     inkscape:label="Layer 1"
     inkscape:groupmode="layer"
     id="layer1"
     transform="translate(0,1503.6378)">
    <rect
       style="fill:#1a1a1a;fill-opacity:1;stroke-width:5;stroke-miterlimit:4;stroke-dasharray:none"
       id="rect2999"
       width="4094.5535"
       height="2556.6155"
       x="0.51309484"
       y="-1504.2533" />
    <a
       id="a3021" />
    <path
       style="fill:#252525;fill-opacity:1;stroke:none"
       d="m 1732.2395,-326.62651 c -34.7646,7.18144 -65.8662,25.42113 -93.6764,46.9939 -91.619,61.62614 -186.1183,121.44082 -258.7596,205.579581 -27.2833,28.05756 -46.2814,62.67668 -65.2844,96.221 -1.8321,3.45137 -8.603,8.2392 -7.9216,0.81666 -3.3638,-16.8502198 2.4761,-36.83727 -5.3899,-51.93942 -11.7217,-0.96154 -20.2866,12.5605 -28.5014,19.5997802 -46.245,57.4339498 -75.577,126.9379188 -113.8874,189.9050288 -10.1188,13.9944 -15.9051,33.5238 -30.0893,43.3324 -6.8905,1.5256 1.0001,-11.522 0.2255,-15.1935 2.7289,-15.1966 10.8614,-33.0055 10.4727,-47.1992 -5.5829,-4.2176 -14.4701,7.7758 -20.5136,9.9133 -44.3038,31.6931 -86.7607,67.7397 -119.88739,111.1407 -50.40277,72.6262 -86.40075,153.7351 -117.0095,236.3154 -12.31097,25.2694 -25.52973,50.7724 -24.49973,79.7875 -108.00973,188.24747 -438.50394,425.72828 -433.73147,449.82468 847.58169,0 2441.11789,8.5742 3288.69959,8.5742 38.9873,-14.374 -316.336,-323.84872 -314.7545,-442.14738 -3.49,-29.1791 -12.9978,-57.2309 -16.7415,-86.2391 -1.9049,-29.0267 9.4989,-64.4333 -15.4348,-86.8107 -24.1168,-29.8833 -45.885,-64.2919 -56.1044,-101.5922 -5.3155,-25.8649 -6.4271,-53.0868 -0.3267,-78.5625 -7.2478,-32.7741 -39.1388,-52.6723 -49.4894,-83.7074 -3.1903,-34.6688 4.0566,-69.66364 1.5516,-104.532149 -2.8019,-54.70939 -3.9362,-48.759908 -45.2428,-89.593078 -19.6634,-15.373761 -47.4792,-75.444562 -70.4776,-77.985062 -14.5829,1.79526 -34.1155,-3.56197 -45.7328,2.6133 38.8119,52.396 80.6421,104.22015 104.0422,165.69984 2.0112,16.339 6.7954,35.335369 -0.6533,50.632769 -12.2724,7.93078 -24.215,-9.67722 -34.709,-14.4787 -10.9246,-6.81712 -21.9391,-21.542749 -36.0136,-12.307669 -14.0762,2.837049 -14.0821,19.715079 -27.358,24.499729 -17.234,-6.54377 -29.9168,-23.725329 -45.9259,-33.443009 -29.8694,-21.82836 -58.8007,-46.23479 -90.7826,-64.63758 -5.2646,6.53928 7.4447,13.75346 8.6566,20.66144 12.7946,19.50513 0.5625,49.49084 -23.6014,50.79611 -19.7244,-1.39851 -23.1165,-26.99724 -34.3813,-39.28123 -40.2355,-46.0914 -87.111,-86.74007 -136.9172,-122.24189 -26.1781,-19.83614 -57.0018,-30.73476 -87.6637,-41.334641 -16.3166,-5.7316 -31.9991,-16.04761 -35.6706,-34.19752 -7.0882,-15.18526 -5.5781,-36.73176 -25.0314,-41.97018 -71.893,-44.03382 -155.7858,-67.48157 -239.093,-75.56729 9.9331,26.55682 23.0029,53.90611 36.2596,79.62412 20.2549,27.59303 55.0858,39.91649 84.9324,54.30773 19.7577,7.90427 42.0455,11.46501 54.4228,30.692701 91.4401,93.22761019 160.8113,206.254389 222.5455,321.003659 5.1368,13.4172 16.6427,26.7812 16.1301,41.0343 -10.3063,8.6515 -23.3233,-6.3609 -32.9401,-10.1762 -20.564,-14.8923 -46.6654,-13.21 -68.6,-25.2442 -33.5028,-11.8833 -62.158,-35.6718 -76.6546,-68.7034 -30.1485,-49.43752 -85.31,-73.417179 -132.4618,-103.225569 -18.1444,-8.25253 -38.1913,3.33588 -54.3894,11.26987 -5.4483,8.24012 11.3291,7.52512 16.1698,8.81991 21.8583,5.84172 46.0595,12.14967 63.2093,26.868029 27.7161,52.09236 36.475,112.08206 62.451,165.15806 23.1377,58.1608 55.0521,112.1216 83.6168,167.337 3.9689,9.8539 12.3958,28.0493 0.1139,35.2459 -24.6066,-1.8472 -46.5271,-18.3941 -69.4159,-27.1131 -18.1917,-8.609 -40.9824,-11.3148 -59.5257,-7.8205 8.2914,34.7898 31.3469,65.2696 42.2413,99.7425 6.3633,17.8819 17.8335,41.3405 -0.029,56.5464 -17.245,15.3967 -44.7488,10.6025 -62.2072,-2.2434 -20.7721,-11.2611 -44.9601,2.5139 -65.6844,7.4086 -13.9023,9.8558 -23.2034,-3.1356 -34.9888,-9.5419 -22.3268,-11.5464 -43.0211,-28.4641 -67.2538,-35.1495 -6.8563,5.6521 1.9887,17.2317 -2.2866,24.9897 -2.766,15.6768 -8.2681,37.0383 -28.0114,36.9129 -15.9812,0.6477 -35.5911,11.7793 -49.1628,-1.5516 -19.3756,-11.1091 -37.3041,12.6659 -57.5743,5.7982 -20.7813,-5.2858 -34.9894,-24.9485 -53.917,-35.2265 -20.8271,-12.1237 -39.275,-32.4739 -63.1917,-36.966 -19.3114,18.7077 -35.9973,42.6172 -57.9827,57.411 -14.5061,-5.618 -25.5329,-19.6871 -40.0162,-24.0097 -23.7095,10.9279 -42.8286,35.1347 -71.3759,33.238 -24.5542,2.3445 -49.5998,-2.3782 -68.5993,-18.8648 -20.1724,-9.9504 -46.9385,10.0443 -64.9243,-6.2066 -9.3083,-9.2855 -11.4174,-26.5446 -22.5397,-33.483 -26.3831,13.7128 -50.0271,36.7845 -81.8291,35.1163 -39.1553,-0.01 -78.9424,4.2018 -117.762,-1.3883 -10.3531,-4.7 3.9605,-18.3111 3.8383,-25.3981 20.7807,-50.5968 42.912,-100.7439 69.7425,-148.4683 1.9923,-3.9857 10.2694,-18.5357 0.082,-15.8432 -46.7529,23.3388 -94.8822,45.0114 -138.9951,72.9275 -23.1435,15.3198 -38.5529,39.5948 -53.1644,61.9027 -3.7174,-1.3333 4.1571,-11.6539 3.3483,-16.0882 6.2884,-42.1113 1.2567,-86.4749 20.0081,-125.9286 18.5199,-43.1361 32.4205,-87.7148 46.3161,-132.2501 19.2181,-50.6715 34.6287,-102.9808 64.831,-148.43511 29.0835,-49.102949 52.8743,-101.382049 75.7858,-153.204969 16.6854,-32.45739 48.8583,-53.73743 66.8843,-85.014061 -8.8098,-6.4124 -23.6127,0.4213 -34.2828,-0.72415 -36.877,1.74962 -73.0875,9.50794 -107.8973,20.56893 35.2908,-37.79322 62.7564,-82.38117 81.8263,-130.44111 11.5585,-32.94464 34.4942,-59.36294 58.7205,-83.60486 1.4697,-2.25747 9.279,-9.01641 1.7966,-9.5549 z"
       id="path3009"
       inkscape:connector-curvature="0"
       sodipodi:nodetypes="ccccccccccccccccccccccccccccccccccccccccccccccccccccccccccccccccccccccccccccccccccccccccccccccc" />
  </g>
</svg>
